<svg width="36" height="36" viewBox="0 0 36 36" fill="none" xmlns="http://www.w3.org/2000/svg"><rect width="36" height="36" fill="none"/><path d="M4.5 30C6.981 30 9 27.981 9 25.5C9 23.019 6.981 21 4.5 21C2.019 21 0 23.019 0 25.5C0 27.981 2.019 30 4.5 30ZM4.5 22.5C6.1545 22.5 7.5 23.8455 7.5 25.5C7.5 27.1545 6.1545 28.5 4.5 28.5C2.8455 28.5 1.5 27.1545 1.5 25.5C1.5 23.8455 2.8455 22.5 4.5 22.5ZM13.5 10.5C13.5 12.981 15.519 15 18 15C20.481 15 22.5 12.981 22.5 10.5C22.5 8.019 20.481 6 18 6C15.519 6 13.5 8.019 13.5 10.5ZM21 10.5C21 12.1545 19.6545 13.5 18 13.5C16.3455 13.5 15 12.1545 15 10.5C15 8.8455 16.3455 7.5 18 7.5C19.6545 7.5 21 8.8455 21 10.5ZM27 19.5C27 21.981 29.019 24 31.5 24C33.981 24 36 21.981 36 19.5C36 17.019 33.981 15 31.5 15C29.019 15 27 17.019 27 19.5ZM31.5 16.5C33.1545 16.5 34.5 17.8455 34.5 19.5C34.5 21.1545 33.1545 22.5 31.5 22.5C29.8455 22.5 28.5 21.1545 28.5 19.5C28.5 17.8455 29.8455 16.5 31.5 16.5Z" fill="white"/><path opacity="0.3" d="M3 28.9335V34.5H6V28.9335C5.52725 29.1415 5.0165 29.2493 4.5 29.25C3.966 29.25 3.4605 29.1345 3 28.9335ZM3 22.0665C3.47275 21.8585 3.9835 21.7507 4.5 21.75C5.034 21.75 5.5395 21.8655 6 22.0665V1.5H3V22.0665ZM16.5 7.0665C16.9728 6.85846 17.4835 6.75069 18 6.75C18.534 6.75 19.0395 6.8655 19.5 7.0665V1.5H16.5V7.0665ZM16.5 13.9335V34.5H19.5V13.9335C19.0272 14.1415 18.5165 14.2493 18 14.25C17.466 14.25 16.9605 14.1345 16.5 13.9335ZM30 16.0665C30.4728 15.8585 30.9835 15.7507 31.5 15.75C32.034 15.75 32.5395 15.8655 33 16.0665V1.5H30V16.0665ZM30 22.9335V34.5H33V22.9335C32.5272 23.1415 32.0165 23.2493 31.5 23.25C30.966 23.25 30.4605 23.1345 30 22.9335Z" fill="white"/></svg>