<svg xmlns="http://www.w3.org/2000/svg" width="46" height="44" viewBox="0 0 46 44"><g fill="none" fill-rule="evenodd"><path d="M-1-2h48v48H-1z"/><path fill="#FFF" d="M5 27c-2.757 0-5 2.243-5 5s2.243 5 5 5 5-2.243 5-5-2.243-5-5-5zm0 9c-2.206 0-4-1.794-4-4s1.794-4 4-4 4 1.794 4 4-1.794 4-4 4zM23 7c-2.757 0-5 2.243-5 5s2.243 5 5 5 5-2.243 5-5-2.243-5-5-5zm0 9c-2.206 0-4-1.794-4-4s1.794-4 4-4 4 1.794 4 4-1.794 4-4 4zm18 3c-2.757 0-5 2.243-5 5s2.243 5 5 5 5-2.243 5-5-2.243-5-5-5zm0 9c-2.206 0-4-1.794-4-4s1.794-4 4-4 4 1.794 4 4-1.794 4-4 4z"/><path fill="#FFF" d="M3 36.578V44h4v-7.422A4.979 4.979 0 0 1 5 37a4.979 4.979 0 0 1-2-.422zm0-9.156A4.979 4.979 0 0 1 5 27c.712 0 1.387.154 2 .422V0H3v27.422zm18-20A4.979 4.979 0 0 1 23 7c.712 0 1.387.154 2 .422V0h-4v7.422zm0 9.156V44h4V16.578A4.979 4.979 0 0 1 23 17a4.979 4.979 0 0 1-2-.422zM39 0v19.422A4.979 4.979 0 0 1 41 19c.712 0 1.387.154 2 .422V0h-4zm0 28.578V44h4V28.578A4.979 4.979 0 0 1 41 29a4.979 4.979 0 0 1-2-.422z" opacity=".3"/></g></svg>