<?xml version="1.0" encoding="UTF-8"?>
<svg width="48px" height="48px" viewBox="0 0 48 48" version="1.1" xmlns="http://www.w3.org/2000/svg" xmlns:xlink="http://www.w3.org/1999/xlink">
    <!-- Generator: Sketch 48.2 (47327) - http://www.bohemiancoding.com/sketch -->
    <title>icon_filter_xxl_black</title>
    <desc>Created with Sketch.</desc>
    <defs></defs>
    <g id="mobile" stroke="none" stroke-width="1" fill="none" fill-rule="evenodd" transform="translate(-130.000000, -1669.000000)">
        <g id="Headings" transform="translate(64.000000, 77.000000)">
            <g id="icon_action_filter__xxl__white" transform="translate(66.000000, 1592.000000)">
                <g id="art">
                    <rect id="Rectangle-path" x="0" y="0" width="48" height="48"></rect>
                    <g id="a1" opacity="0.4"></g>
                    <path d="M6,29 C3.243,29 1,31.243 1,34 C1,36.757 3.243,39 6,39 C8.757,39 11,36.757 11,34 C11,31.243 8.757,29 6,29 L6,29 Z M6,38 C3.794,38 2,36.206 2,34 C2,31.794 3.794,30 6,30 C8.206,30 10,31.794 10,34 C10,36.206 8.206,38 6,38 L6,38 Z" id="Shape" fill="#0B1F35"></path>
                    <path d="M24,9 C21.243,9 19,11.243 19,14 C19,16.757 21.243,19 24,19 C26.757,19 29,16.757 29,14 C29,11.243 26.757,9 24,9 L24,9 Z M24,18 C21.794,18 20,16.206 20,14 C20,11.794 21.794,10 24,10 C26.206,10 28,11.794 28,14 C28,16.206 26.206,18 24,18 L24,18 Z" id="Shape" fill="#0B1F35"></path>
                    <path d="M42,21 C39.243,21 37,23.243 37,26 C37,28.757 39.243,31 42,31 C44.757,31 47,28.757 47,26 C47,23.243 44.757,21 42,21 L42,21 Z M42,30 C39.794,30 38,28.206 38,26 C38,23.794 39.794,22 42,22 C44.206,22 46,23.794 46,26 C46,28.206 44.206,30 42,30 L42,30 Z" id="Shape" fill="#0B1F35"></path>
                    <path d="M4,38.578 L4,46 L8,46 L8,38.578 C7.387,38.846 6.712,39 6,39 C5.288,39 4.613,38.846 4,38.578 L4,38.578 Z" id="Shape" fill="#0B1F35" opacity="0.3"></path>
                    <path d="M4,29.422 C4.613,29.154 5.288,29 6,29 C6.712,29 7.387,29.154 8,29.422 L8,2 L4,2 L4,29.422 L4,29.422 Z" id="Shape" fill="#0B1F35" opacity="0.3"></path>
                    <path d="M22,9.422 C22.613,9.154 23.288,9 24,9 C24.712,9 25.387,9.154 26,9.422 L26,2 L22,2 L22,9.422 L22,9.422 Z" id="Shape" fill="#0B1F35" opacity="0.3"></path>
                    <path d="M22,18.578 L22,46 L26,46 L26,18.578 C25.387,18.846 24.712,19 24,19 C23.288,19 22.613,18.846 22,18.578 L22,18.578 Z" id="Shape" fill="#0B1F35" opacity="0.3"></path>
                    <path d="M40,2 L40,21.422 C40.613,21.154 41.288,21 42,21 C42.712,21 43.387,21.154 44,21.422 L44,2 L40,2 L40,2 Z" id="Shape" fill="#0B1F35" opacity="0.3"></path>
                    <path d="M40,30.578 L40,46 L44,46 L44,30.578 C43.387,30.846 42.712,31 42,31 C41.288,31 40.613,30.846 40,30.578 L40,30.578 Z" id="Shape" fill="#0B1F35" opacity="0.3"></path>
                </g>
            </g>
        </g>
    </g>
</svg>