<svg width="48" height="48" viewBox="0 0 48 48" xmlns="http://www.w3.org/2000/svg"><g fill="none" fill-rule="evenodd"><path d="M0 0h48v48H0z"/><path d="M6 29c-2.757 0-5 2.243-5 5s2.243 5 5 5 5-2.243 5-5-2.243-5-5-5zm0 9c-2.206 0-4-1.794-4-4s1.794-4 4-4 4 1.794 4 4-1.794 4-4 4zM24 9c-2.757 0-5 2.243-5 5s2.243 5 5 5 5-2.243 5-5-2.243-5-5-5zm0 9c-2.206 0-4-1.794-4-4s1.794-4 4-4 4 1.794 4 4-1.794 4-4 4zM42 21c-2.757 0-5 2.243-5 5s2.243 5 5 5 5-2.243 5-5-2.243-5-5-5zm0 9c-2.206 0-4-1.794-4-4s1.794-4 4-4 4 1.794 4 4-1.794 4-4 4z" fill="#0B1F35"/><path d="M4 38.578V46h4v-7.422A4.979 4.979 0 0 1 6 39a4.979 4.979 0 0 1-2-.422zM4 29.422A4.979 4.979 0 0 1 6 29c.712 0 1.387.154 2 .422V2H4v27.422zM22 9.422A4.979 4.979 0 0 1 24 9c.712 0 1.387.154 2 .422V2h-4v7.422zM22 18.578V46h4V18.578A4.979 4.979 0 0 1 24 19a4.979 4.979 0 0 1-2-.422zM40 2v19.422A4.979 4.979 0 0 1 42 21c.712 0 1.387.154 2 .422V2h-4zM40 30.578V46h4V30.578A4.979 4.979 0 0 1 42 31a4.979 4.979 0 0 1-2-.422z" fill="#0B1F35" opacity=".3"/></g></svg>