<svg xmlns="http://www.w3.org/2000/svg" width="24" height="24" viewBox="0 0 24 24"><rect width="24" height="24" fill="none"/><g fill="#FFF" transform="translate(1)"><path d="M19.5,23 L2.5,23 C1.11997342,22.9983469 0.00165305817,21.8800266 0,20.5 L0,4.5 C4.4408921e-16,3.122 1.121,2 2.5,2 L5,2 L5,3 L2.5,3 C1.673,3 1,3.673 1,4.5 L1,20.5 C1,21.327 1.673,22 2.5,22 L19.5,22 C20.327,22 21,21.327 21,20.5 L21,4.5 C21,3.673 20.327,3 19.5,3 L17,3 L17,2 L19.5,2 C20.879,2 22,3.122 22,4.5 L22,20.5 C22,21.878 20.879,23 19.5,23 Z"/><polygon points="7 2 15 2 15 3 7 3"/><polygon fill-rule="nonzero" points="6.985 16.903 14.255 8.444 15.013 9.096 7.743 17.554" opacity=".4"/><path fill-rule="nonzero" d="M14 18.5C12.6199734 18.4983469 11.5016531 17.3800266 11.5 16 11.5 14.622 12.621 13.5 14 13.5 15.379 13.5 16.5 14.622 16.5 16 16.5 17.378 15.379 18.5 14 18.5zM14 14.5C13.173 14.5 12.5 15.173 12.5 16 12.5 16.827 13.173 17.5 14 17.5 14.827 17.5 15.5 16.827 15.5 16 15.5 15.173 14.827 14.5 14 14.5zM8 12.5C6.61997342 12.4983469 5.50165306 11.3800266 5.5 10 5.5 8.622 6.621 7.5 8 7.5 9.379 7.5 10.5 8.622 10.5 10 10.5 11.378 9.379 12.5 8 12.5zM8 8.5C7.173 8.5 6.5 9.173 6.5 10 6.5 10.827 7.173 11.5 8 11.5 8.827 11.5 9.5 10.827 9.5 10 9.5 9.173 8.827 8.5 8 8.5z" opacity=".4"/><path fill-rule="nonzero" d="M6 0C5.44771525-5.55111512e-17 5 .44771525 5 1L5 4C5 4.55228475 5.44771525 5 6 5 6.55228475 5 7 4.55228475 7 4L7 1C7 .44771525 6.55228475 0 6 0zM16 0C15.4477153-5.55111512e-17 15 .44771525 15 1L15 4C15 4.55228475 15.4477153 5 16 5 16.5522847 5 17 4.55228475 17 4L17 1C17 .44771525 16.5522847 0 16 0z" opacity=".3"/></g></svg>