<svg xmlns="http://www.w3.org/2000/svg" width="24" height="24" viewBox="0 0 24 24"><g fill="none" fill-rule="evenodd"><path d="M0 1h24v24H0z"/><path fill="#0B1F35" d="M7 .5a1 1 0 0 0-1 1v3a1 1 0 0 0 2 0v-3a1 1 0 0 0-1-1zm10 0a1 1 0 0 0-1 1v3a1 1 0 0 0 2 0v-3a1 1 0 0 0-1-1z" opacity=".3"/><path fill="#0B1F35" d="M20.5 24h-17A2.503 2.503 0 0 1 1 21.5v-16C1 4.122 2.121 3 3.5 3H6v1H3.5C2.673 4 2 4.673 2 5.5v16c0 .827.673 1.5 1.5 1.5h17c.827 0 1.5-.673 1.5-1.5v-16c0-.827-.673-1.5-1.5-1.5H18V3h2.5C21.879 3 23 4.122 23 5.5v16c0 1.378-1.121 2.5-2.5 2.5z"/><path fill="#0B1F35" d="M8 3h8v1H8z"/><path fill="#0B1F35" d="M15 19.5a2.503 2.503 0 0 1-2.5-2.5c0-1.378 1.121-2.5 2.5-2.5s2.5 1.122 2.5 2.5-1.121 2.5-2.5 2.5zm0-4c-.827 0-1.5.673-1.5 1.5s.673 1.5 1.5 1.5 1.5-.673 1.5-1.5-.673-1.5-1.5-1.5zm-6-2A2.503 2.503 0 0 1 6.5 11c0-1.378 1.121-2.5 2.5-2.5s2.5 1.122 2.5 2.5-1.121 2.5-2.5 2.5zm0-4c-.827 0-1.5.673-1.5 1.5s.673 1.5 1.5 1.5 1.5-.673 1.5-1.5S9.827 9.5 9 9.5zm-1.015 8.403l7.27-8.459.758.652-7.27 8.458z" opacity=".4"/></g></svg>