<svg xmlns="http://www.w3.org/2000/svg" width="22" height="24" viewBox="0 0 22 24"><g fill="none" fill-rule="evenodd"><path d="M-1 1h24v24H-1z"/><path fill="#FFF" d="M6 .5a1 1 0 0 0-1 1v3a1 1 0 0 0 2 0v-3a1 1 0 0 0-1-1zm10 0a1 1 0 0 0-1 1v3a1 1 0 0 0 2 0v-3a1 1 0 0 0-1-1z" opacity=".3"/><path fill="#FFF" d="M19.5 24h-17A2.503 2.503 0 0 1 0 21.5v-16C0 4.122 1.121 3 2.5 3H5v1H2.5C1.673 4 1 4.673 1 5.5v16c0 .827.673 1.5 1.5 1.5h17c.827 0 1.5-.673 1.5-1.5v-16c0-.827-.673-1.5-1.5-1.5H17V3h2.5C20.879 3 22 4.122 22 5.5v16c0 1.378-1.121 2.5-2.5 2.5z"/><path fill="#FFF" d="M7 3h8v1H7z"/><path fill="#FFF" d="M14 19.5a2.503 2.503 0 0 1-2.5-2.5c0-1.378 1.121-2.5 2.5-2.5s2.5 1.122 2.5 2.5-1.121 2.5-2.5 2.5zm0-4c-.827 0-1.5.673-1.5 1.5s.673 1.5 1.5 1.5 1.5-.673 1.5-1.5-.673-1.5-1.5-1.5zm-6-2A2.503 2.503 0 0 1 5.5 11c0-1.378 1.121-2.5 2.5-2.5s2.5 1.122 2.5 2.5-1.121 2.5-2.5 2.5zm0-4c-.827 0-1.5.673-1.5 1.5s.673 1.5 1.5 1.5 1.5-.673 1.5-1.5S8.827 9.5 8 9.5zm-1.014 8.403l7.27-8.458.758.651-7.27 8.459z" opacity=".4"/></g></svg>