<svg xmlns="http://www.w3.org/2000/svg" width="42" height="43" viewBox="0 0 42 43"><g fill="none" fill-rule="evenodd"><path d="M-3-3h48v48H-3z"/><path fill="#0B1F35" d="M31 0a1 1 0 0 0-1 1v6a1 1 0 0 0 2 0V1a1 1 0 0 0-1-1zM11 0a1 1 0 0 0-1 1v6a1 1 0 0 0 2 0V1a1 1 0 0 0-1-1z" opacity=".3"/><path fill="#0B1F35" d="M12 3h18v1H12z"/><path fill="#0B1F35" d="M37.596 43H4.404A4.407 4.407 0 0 1 0 38.6V7.4C0 4.974 1.976 3 4.404 3H10v1H4.404A3.406 3.406 0 0 0 1 7.4v31.2C1 40.475 2.527 42 4.404 42h33.191A3.406 3.406 0 0 0 41 38.6V7.4C41 5.525 39.473 4 37.596 4H32V3h5.596A4.407 4.407 0 0 1 42 7.4v31.2c0 2.426-1.976 4.4-4.404 4.4z"/><path fill="#0B1F35" d="M27 35c-2.757 0-5-2.243-5-5s2.243-5 5-5 5 2.243 5 5-2.243 5-5 5zm0-8c-1.654 0-3 1.346-3 3s1.346 3 3 3 3-1.346 3-3-1.346-3-3-3zm-12-4c-2.757 0-5-2.243-5-5s2.243-5 5-5 5 2.243 5 5-2.243 5-5 5zm0-8c-1.654 0-3 1.346-3 3s1.346 3 3 3 3-1.346 3-3-1.346-3-3-3zm-2.022 16.812l14.53-16.926 1.518 1.302-14.53 16.927z" opacity=".4"/></g></svg>
