<svg width="30" height="30" viewBox="0 0 30 30" fill="none" xmlns="http://www.w3.org/2000/svg"><rect width="30" height="30" fill="none"/><path d="M19 28H6C4.96133 27.9987 3.96378 27.594 3.21785 26.8712C2.47192 26.1484 2.03597 25.1641 2.002 24.126H2V8.293L8.293 2H19C21.206 2 23 3.794 23 6V11H22V6C22 4.346 20.654 3 19 3H8.707L3 8.707V24C3 25.654 4.346 27 6 27H19C20.654 27 22 25.654 22 24H23C23 26.206 21.206 28 19 28Z" fill="#0B1F35"/><path d="M6 20.9064V14.0936H7.8366C8.40263 14.0936 8.90312 14.2246 9.33806 14.4866C9.77301 14.7487 10.1082 15.1214 10.3435 15.6049C10.5818 16.0885 10.7025 16.6437 10.7055 17.2707V17.7059C10.7055 18.3485 10.5863 18.9115 10.348 19.3951C10.1126 19.8786 9.7745 20.2498 9.33359 20.5087C8.89567 20.7676 8.38475 20.9002 7.80085 20.9064H6ZM6.85798 14.8329V20.1718H7.76064C8.42199 20.1718 8.93588 19.9566 9.30231 19.5261C9.67172 19.0956 9.85642 18.4826 9.85642 17.6872V17.2894C9.85642 16.5158 9.68214 15.9153 9.33359 15.488C8.98802 15.0575 8.49647 14.8391 7.85895 14.8329H6.85798Z" fill="#0B1F35"/><path d="M17.0107 17.7199C17.0107 18.3875 16.9034 18.9708 16.6889 19.4699C16.4745 19.9659 16.1706 20.3449 15.7773 20.607C15.3841 20.869 14.9253 21 14.401 21C13.8886 21 13.4343 20.869 13.0381 20.607C12.6419 20.3418 12.3335 19.9659 12.1131 19.4793C11.8956 18.9895 11.7839 18.4234 11.7779 17.7807V17.2894C11.7779 16.6344 11.8867 16.0557 12.1041 15.5535C12.3216 15.0512 12.6285 14.6676 13.0247 14.4024C13.4239 14.1341 13.8797 14 14.3921 14C14.9134 14 15.3722 14.1326 15.7684 14.3977C16.1676 14.6598 16.4745 15.0419 16.6889 15.5441C16.9034 16.0432 17.0107 16.625 17.0107 17.2894V17.7199ZM16.1572 17.2801C16.1572 16.4721 16.0023 15.8529 15.6924 15.4225C15.3826 14.9889 14.9492 14.7721 14.3921 14.7721C13.8499 14.7721 13.4224 14.9889 13.1096 15.4225C12.7998 15.8529 12.6404 16.4519 12.6314 17.2193V17.7199C12.6314 18.5029 12.7878 19.119 13.1006 19.5682C13.4164 20.0143 13.8499 20.2373 14.401 20.2373C14.9551 20.2373 15.3841 20.0267 15.688 19.6056C15.9918 19.1814 16.1482 18.5746 16.1572 17.7854V17.2801Z" fill="#0B1F35"/><path d="M23.0835 18.7447C23.0031 19.4652 22.7484 20.0221 22.3194 20.4151C21.8934 20.805 21.3259 21 20.6169 21C19.8483 21 19.2316 20.7115 18.7669 20.1344C18.3051 19.5573 18.0742 18.7852 18.0742 17.8182V17.1631C18.0742 16.5299 18.1815 15.973 18.396 15.4926C18.6134 15.0123 18.9203 14.6442 19.3165 14.3884C19.7127 14.1295 20.1715 14 20.6928 14C21.384 14 21.9381 14.2028 22.3552 14.6083C22.7722 15.0107 23.015 15.5691 23.0835 16.2834H22.2211C22.1466 15.7406 21.9843 15.3476 21.734 15.1043C21.4868 14.861 21.1397 14.7393 20.6928 14.7393C20.1447 14.7393 19.7142 14.9514 19.4014 15.3757C19.0916 15.7999 18.9367 16.4035 18.9367 17.1865V17.8463C18.9367 18.5856 19.0841 19.1736 19.3791 19.6103C19.674 20.047 20.0866 20.2654 20.6169 20.2654C21.0935 20.2654 21.4585 20.1531 21.7117 19.9285C21.9679 19.7008 22.1377 19.3061 22.2211 18.7447H23.0835Z" fill="#0B1F35"/><path d="M26.3814 16.7045L27.9409 14.0936H28.9508L26.8953 17.4719L29 20.9064H27.9812L26.3814 18.2487L24.7727 20.9064H23.7583L25.8675 17.4719L23.8075 14.0936H24.8129L26.3814 16.7045Z" fill="#0B1F35"/></svg>