<svg width="18" height="18" viewBox="0 0 18 18" fill="none" xmlns="http://www.w3.org/2000/svg"><rect width="18" height="18" fill="none"/><path d="M13 6H12V2.559C11.9997 2.41083 11.9408 2.26879 11.836 2.16402C11.7312 2.05924 11.5892 2.00026 11.441 2H4.707L1 5.707V6H0V5.293L4.293 1H11.441C12.301 1 13 1.699 13 2.559V6ZM11.5 18H1.5C0.673 18 0 17.327 0 16.5H1C1 16.6326 1.05268 16.7598 1.14645 16.8536C1.24021 16.9473 1.36739 17 1.5 17H11.5C11.6326 17 11.7598 16.9473 11.8536 16.8536C11.9473 16.7598 12 16.6326 12 16.5H13C13 17.327 12.327 18 11.5 18Z" fill="#0B1F35"/><path d="M0 12.9332V8.06684H1.54011C1.98014 8.06684 2.37319 8.16377 2.71925 8.35762C3.06761 8.54924 3.33919 8.82331 3.534 9.17981C3.7288 9.53409 3.8262 9.93739 3.8262 10.3897V10.6136C3.8262 11.066 3.72995 11.4681 3.53743 11.8202C3.34721 12.1722 3.07792 12.4452 2.72956 12.639C2.38121 12.8329 1.98816 12.9309 1.55042 12.9332H0ZM1.03132 8.87901V12.1277H1.52979C1.93316 12.1277 2.24141 11.9996 2.45455 11.7433C2.66769 11.4871 2.77655 11.1205 2.78113 10.6437V10.3864C2.78113 9.89171 2.67571 9.51738 2.46486 9.26337C2.25401 9.00713 1.94576 8.87901 1.54011 8.87901H1.03132Z" fill="#0B1F35"/><path d="M8.6906 10.6103C8.6906 11.0893 8.60351 11.5094 8.42934 11.8703C8.25516 12.2313 8.00535 12.5098 7.67991 12.7059C7.35676 12.902 6.98549 13 6.56608 13C6.15126 13 5.78113 12.9031 5.45569 12.7092C5.13025 12.5154 4.87815 12.2391 4.69939 11.8803C4.52063 11.5194 4.4301 11.1049 4.42781 10.637V10.3964C4.42781 9.91734 4.51604 9.49621 4.69251 9.13302C4.87128 8.7676 5.12223 8.48797 5.44538 8.29412C5.77082 8.09804 6.14209 8 6.55921 8C6.97632 8 7.34645 8.09804 7.6696 8.29412C7.99503 8.48797 8.24599 8.7676 8.42246 9.13302C8.60122 9.49621 8.6906 9.91622 8.6906 10.393V10.6103ZM7.64553 10.3897C7.64553 9.87946 7.55157 9.49176 7.36364 9.2266C7.17571 8.96145 6.90756 8.82888 6.55921 8.82888C6.21314 8.82888 5.94614 8.96034 5.75821 9.22326C5.57028 9.48396 5.47517 9.8672 5.47288 10.373V10.6103C5.47288 11.1072 5.56684 11.4926 5.75477 11.7667C5.9427 12.0408 6.21314 12.1778 6.56608 12.1778C6.91215 12.1778 7.178 12.0463 7.36364 11.7834C7.54927 11.5183 7.64324 11.1328 7.64553 10.627V10.3897Z" fill="#0B1F35"/><path d="M13.3694 11.3122C13.3304 11.8358 13.131 12.248 12.7712 12.5488C12.4137 12.8496 11.9416 13 11.3549 13C10.7131 13 10.2078 12.7906 9.83881 12.3717C9.47212 11.9505 9.28877 11.3734 9.28877 10.6404V10.3429C9.28877 9.875 9.37357 9.46279 9.54316 9.10628C9.71276 8.74978 9.95455 8.47683 10.2685 8.28743C10.5848 8.09581 10.9515 8 11.3686 8C11.9461 8 12.4114 8.1504 12.7643 8.4512C13.1173 8.75201 13.3212 9.17424 13.3762 9.71791H12.3449C12.3197 9.40374 12.2292 9.17647 12.0733 9.0361C11.9198 8.89349 11.6849 8.82219 11.3686 8.82219C11.0248 8.82219 10.767 8.94251 10.5951 9.18316C10.4255 9.42157 10.3384 9.79256 10.3338 10.2961V10.6638C10.3338 11.1896 10.4152 11.574 10.5779 11.8168C10.7429 12.0597 11.0019 12.1811 11.3549 12.1811C11.6734 12.1811 11.9106 12.111 12.0665 11.9706C12.2246 11.828 12.3151 11.6085 12.338 11.3122H13.3694Z" fill="#0B1F35"/><path d="M15.8377 9.74465L16.7762 8.06684H17.9622L16.5046 10.4799L18 12.9332H16.8002L15.8377 11.2286L14.8751 12.9332H13.6753L15.1707 10.4799L13.7131 8.06684H14.8992L15.8377 9.74465Z" fill="#0B1F35"/></svg>