<svg width="24" height="24" viewBox="0 0 24 24" fill="none" xmlns="http://www.w3.org/2000/svg"><rect width="24" height="24" fill="none"/><path d="M20 8H19V4C19 2.897 18.103 2 17 2H7.707L3 6.707V7H2V6.293L7.293 1H17C18.654 1 20 2.346 20 4V8ZM17 23H5C3.346 23 2 21.654 2 20V19H3V20C3 21.103 3.897 22 5 22H17C18.103 22 19 21.103 19 20V19H20V20C20 21.654 18.654 23 17 23Z" fill="white"/><path d="M2 15.9198V10.0802H3.79679C4.31016 10.0802 4.76872 10.1965 5.17246 10.4291C5.57888 10.6591 5.89572 10.988 6.12299 11.4158C6.35027 11.8409 6.4639 12.3249 6.4639 12.8676V13.1364C6.4639 13.6791 6.3516 14.1618 6.12701 14.5842C5.90508 15.0067 5.59091 15.3342 5.18449 15.5668C4.77807 15.7995 4.31952 15.9171 3.80882 15.9198H2ZM3.20321 11.0548V14.9532H3.78476C4.25535 14.9532 4.61497 14.7995 4.86364 14.492C5.1123 14.1845 5.2393 13.7447 5.24465 13.1725V12.8636C5.24465 12.2701 5.12166 11.8209 4.87567 11.516C4.62968 11.2086 4.27005 11.0548 3.79679 11.0548H3.20321Z" fill="white"/><path d="M12.139 13.1324C12.139 13.7072 12.0374 14.2112 11.8342 14.6444C11.631 15.0775 11.3396 15.4118 10.9599 15.6471C10.5829 15.8824 10.1497 16 9.66043 16C9.17647 16 8.74465 15.8837 8.36497 15.6511C7.98529 15.4184 7.69118 15.0869 7.48262 14.6564C7.27406 14.2233 7.16845 13.7259 7.16578 13.1644V12.8757C7.16578 12.3008 7.26872 11.7955 7.4746 11.3596C7.68316 10.9211 7.97594 10.5856 8.35294 10.3529C8.73262 10.1176 9.16578 10 9.65241 10C10.139 10 10.5709 10.1176 10.9479 10.3529C11.3275 10.5856 11.6203 10.9211 11.8262 11.3596C12.0348 11.7955 12.139 12.2995 12.139 12.8717V13.1324ZM10.9198 12.8676C10.9198 12.2553 10.8102 11.7901 10.5909 11.4719C10.3717 11.1537 10.0588 10.9947 9.65241 10.9947C9.24866 10.9947 8.93717 11.1524 8.71791 11.4679C8.49866 11.7807 8.3877 12.2406 8.38503 12.8476V13.1324C8.38503 13.7286 8.49465 14.1912 8.7139 14.5201C8.93316 14.8489 9.24866 15.0134 9.66043 15.0134C10.0642 15.0134 10.3743 14.8556 10.5909 14.5401C10.8075 14.2219 10.9171 13.7594 10.9198 13.1524V12.8676Z" fill="white"/><path d="M17.5976 13.9746C17.5521 14.6029 17.3195 15.0976 16.8997 15.4586C16.4826 15.8195 15.9318 16 15.2473 16C14.4987 16 13.9091 15.7487 13.4786 15.246C13.0508 14.7406 12.8369 14.0481 12.8369 13.1684V12.8115C12.8369 12.25 12.9358 11.7553 13.1337 11.3275C13.3316 10.8997 13.6136 10.5722 13.9799 10.3449C14.3489 10.115 14.7767 10 15.2634 10C15.9372 10 16.4799 10.1805 16.8917 10.5414C17.3035 10.9024 17.5414 11.4091 17.6056 12.0615H16.4024C16.373 11.6845 16.2674 11.4118 16.0856 11.2433C15.9064 11.0722 15.6324 10.9866 15.2634 10.9866C14.8623 10.9866 14.5615 11.131 14.361 11.4198C14.1631 11.7059 14.0615 12.1511 14.0562 12.7553V13.1965C14.0562 13.8275 14.1511 14.2888 14.3409 14.5802C14.5334 14.8717 14.8356 15.0174 15.2473 15.0174C15.619 15.0174 15.8957 14.9332 16.0775 14.7647C16.262 14.5936 16.3676 14.3302 16.3944 13.9746H17.5976Z" fill="white"/><path d="M20.4773 12.0936L21.5722 10.0802H22.9559L21.2553 12.9759L23 15.9198H21.6003L20.4773 13.8743L19.3543 15.9198H17.9545L19.6992 12.9759L17.9987 10.0802H19.3824L20.4773 12.0936Z" fill="white"/></svg>