<svg xmlns="http://www.w3.org/2000/svg" width="22" height="22" viewBox="0 0 22 22"><path fill="#FFF" fill-rule="evenodd" d="M17.5 0h-13A4.505 4.505 0 0 0 0 4.5v13C0 19.981 2.019 22 4.5 22h13c2.481 0 4.5-2.019 4.5-4.5v-13C22 2.019 19.981 0 17.5 0zM21 17.5c0 1.93-1.57 3.5-3.5 3.5H14v-7h3l.121-2.977L14 11V9c0-.775.178-1.273 1.211-1.273.954 0 1.829.008 1.829.008l.067-2.627s-.858-.109-2.017-.109C12.226 5 11 7.113 11 9v2H9v3h2v7H4.5C2.57 21 1 19.43 1 17.5v-13C1 2.57 2.57 1 4.5 1h13C19.43 1 21 2.57 21 4.5v13z"/></svg>