<svg xmlns="http://www.w3.org/2000/svg" width="18" height="18" version="1" viewBox="0 0 18 18"><path
  fill="#0B1F35"
  d="M13.5 1h-9C2.57 1 1 2.57 1 4.5v9C1 15.43 2.57 17 4.5 17h9c1.93 0 3.5-1.57 3.5-3.5v-9C17 2.57 15.43 1 13.5 1zM16 13.5c0 1.378-1.122 2.5-2.5 2.5h-2.357v-4.857h2.143l.087-2.126L11.143 9V7.571c0-.554.128-.909.865-.909.681 0 1.306.006 1.306.006l.048-1.876s-.613-.078-1.441-.078C9.876 4.714 9 6.223 9 7.571V9H7.571v2.143H9V16H4.5A2.503 2.503 0 0 1 2 13.5v-9C2 3.122 3.122 2 4.5 2h9C14.878 2 16 3.122 16 4.5v9z"/></svg>