<svg xmlns="http://www.w3.org/2000/svg" width="16" height="15" viewBox="0 0 16 15"><path fill="#FFF" fill-rule="evenodd" d="M12.5 0h-9C1.57 0 0 1.472 0 3.281v8.438C0 13.529 1.57 15 3.5 15h9c1.93 0 3.5-1.472 3.5-3.281V3.28C16 1.471 14.43 0 12.5 0zM15 11.719c0 1.292-1.122 2.344-2.5 2.344h-2.357V9.508h2.143l.087-1.993-2.23-.016V6.16c0-.52.128-.852.865-.852.681 0 1.306.006 1.306.006l.048-1.759s-.613-.073-1.441-.073C8.876 3.482 8 4.897 8 6.16V7.5H6.571v2.01H8v4.553H3.5c-1.378 0-2.5-1.052-2.5-2.344V3.28C1 1.99 2.122.937 3.5.937h9c1.378 0 2.5 1.052 2.5 2.344v8.438z"/></svg>