<svg xmlns="http://www.w3.org/2000/svg" width="24" height="24" version="1" viewBox="0 0 24 24"><path fill="#0B1F35" d="M18.5 1h-13A4.505 4.505 0 0 0 1 5.5v13C1 20.981 3.019 23 5.5 23h13c2.481 0 4.5-2.019 4.5-4.5v-13C23 3.019 20.981 1 18.5 1zM22 18.5c0 1.93-1.57 3.5-3.5 3.5H15v-7h3l.121-2.977L15 12v-2c0-.775.178-1.273 1.211-1.273.954 0 1.829.008 1.829.008l.067-2.627s-.858-.109-2.017-.109C13.226 6 12 8.113 12 10v2h-2v3h2v7H5.5C3.57 22 2 20.43 2 18.5v-13C2 3.57 3.57 2 5.5 2h13C20.43 2 22 3.57 22 5.5v13z"/></svg>