<svg width="12px" height="12px" viewBox="0 0 12 12" version="1.1" xmlns="http://www.w3.org/2000/svg"><g stroke="none" stroke-width="1" fill="none" fill-rule="evenodd"><rect x="0" y="0" width="12" height="12"/><path d="M8,4 L4,4 L4,3 C4,1.897 4.897,1 6,1 C7.103,1 8,1.897 8,3 L8,4 Z M6,9 C5.448,9 5,8.552 5,8 C5,7.448 5.448,7 6,7 C6.552,7 7,7.448 7,8 C7,8.552 6.552,9 6,9 Z M10,4 L9,4 L9,3 C9,1.343 7.657,0 6,0 C4.343,0 3,1.343 3,3 L3,4 L2,4 C1.448,4 1,4.448 1,5 L1,10 C1,11.105 1.895,12 3,12 L9,12 C10.105,12 11,11.105 11,10 L11,5 C11,4.448 10.552,4 10,4 Z" fill="#0B2135"/></g></svg>