<svg xmlns="http://www.w3.org/2000/svg" width="48" height="48" viewBox="0 0 48 48"><g fill="none" fill-rule="evenodd"><path d="M0 0h48v48H0z"/><path fill="#0B1F35" d="M13 21h20v4H13zm0-8h12v4H13z" opacity=".35"/><path fill="#0B1F35" d="M37.5 46h-28C7.6 46 6 44.4 6 42.5v-37C6 3.6 7.6 2 9.5 2h21.2L41 12.3v30.2c0 1.9-1.6 3.5-3.5 3.5zM9.5 3C8.1 3 7 4.1 7 5.5v37C7 43.9 8.1 45 9.5 45h28c1.4 0 2.5-1.1 2.5-2.5V12.7L30.3 3H9.5z"/><circle cx="16.5" cy="34.5" r="3.5" fill="#0B1F35" opacity=".3"/></g></svg>
