<svg xmlns="http://www.w3.org/2000/svg" width="16" height="15" viewBox="0 0 16 15"><path fill="#FFF" d="M7.429 2.649H8.57v1.078H7.429zM7.674.417h1v1h-1zm-2.838.663L5.76.699l.382.924-.924.382zM2.479 2.722l.707-.707.707.707-.707.707zM.963 5.09l.383-.923.924.382-.383.924zM.5 7.192h1v1h-1zm.453 2.742l.924-.383.382.924-.923.382zm1.526 2.37l.707-.707.707.707-.707.707zm2.367 1.639l.382-.924.924.383-.383.924zm2.828.025h1v1h-1zm2.653-.368l.924-.382.382.924-.924.382zm2.299-1.296l.707-.707.707.707-.707.707zm1.593-2.028l.382-.924.924.383-.383.924zm.629-3.084h1v1h-1zm-.638-2.445l.924-.382.382.924-.924.382zm-1.586-2.025l.707-.707.708.707-.708.707zm-2.288-1.298L10.718.5l.924.383-.382.924zm-4.051.281l.98-.195.196.98-.98.196zM4.076 2.778l.831-.556.556.832-.832.555zM2.463 4.57l.556-.831.831.555-.555.832zm-.768 2.238l.195-.981.98.195-.194.98zm-.022 1.416l.98-.195.196.98-.98.196zm.783 2.244l.831-.555.556.831-.832.556zm1.627 1.792l.556-.832.831.555-.555.832zm2.224 1.066l.195-.98.981.195-.195.98zm2.268-.746l.98-.195.196.98-.98.196zm2.022-.583l.832-.556.555.832-.831.555zm1.627-1.266l.555-.831.832.555-.556.832zm.985-1.761l.195-.98.98.195-.194.98zm-.021-2.909l.98-.195.196.98-.98.196zm-.971-1.753l.83-.556.557.832-.832.555zM10.605 3.04l.556-.832.831.556-.555.831zm-2.009-.588l.195-.98.981.194-.195.98zm-1.167 8.821H8.57v1.078H7.429zM5.494 3.227l1.09-.451.427 1.029-1.09.451zm3.495 7.968l1.09-.451.426 1.029-1.09.452zm-5.035-6.72l.84-.841.795.794-.84.84zm6.457 6.097l.841-.841.794.794-.84.84zM3.043 6.181l.451-1.088 1.028.426-.45 1.088zm8.434 3.3l.452-1.09 1.029.427-.452 1.09zm-8.613-2.52h1.141v1.078H2.864zm9.131 0h1.141v1.078h-1.141zm-8.971 1.9l1.09-.451.426 1.029-1.09.451zm8.436-3.3l1.09-.451.426 1.029-1.09.451zm-7.506 5.012l.841-.84.794.793-.84.841zm6.456-6.099l.842-.841.794.794-.841.84zm-4.897 7.341l.452-1.09 1.029.426-.452 1.09zm3.493-7.966l.452-1.09 1.03.426-.453 1.09z"/></svg>