<svg xmlns="http://www.w3.org/2000/svg" width="24" height="24" version="1" viewBox="0 0 24 24"><path fill="#E9883C" d="M11.125 4.125h1.75v1.75h-1.75zM11.5.5h1v1h-1zM7.137 1.567l.924-.383.382.924-.923.382zM3.515 4.222l.707-.707.707.707-.707.707zM1.184 8.061l.382-.924.924.383-.382.924zM.5 11.5h1v1h-1zm.684 4.439l.924-.383.382.924-.924.383zm2.331 3.838l.707-.707.707.707-.707.707zm3.623 2.656l.383-.924.924.383-.383.924zm4.362.067h1v1h-1zm4.056-.607l.924-.382.383.924-.924.382zm3.514-2.115l.708-.707.707.707-.707.707zm2.44-3.298l.382-.925.924.383-.382.924zm.99-4.98h1v1h-1zm-.99-3.98l.924-.383.383.924-.924.383zm-2.44-3.298l.708-.707.707.707-.707.707zm-3.514-2.114l.383-.924.924.383-.383.924zm-6.194.475l1.472-.292.292 1.471-1.471.293zM5.96 4.31l1.247-.833.834 1.247-1.247.833zM3.477 7.206L4.31 5.96l1.248.834-.834 1.247zM2.29 10.833l.294-1.47 1.47.292-.292 1.471zm.001 2.334l1.471-.293.293 1.472-1.471.292zm1.186 3.626l1.248-.833.833 1.247-1.247.833zM5.96 19.69l.833-1.247 1.248.834-.834 1.247zm3.402 1.726l.293-1.47 1.471.292-.292 1.471zm3.513-1.179l1.471-.292.293 1.471-1.472.293zm3.085-.96l1.248-.834.833 1.248-1.247.833zm2.484-2.07l.833-1.247 1.247.833-.833 1.247zm1.502-2.861l.293-1.472 1.471.293-.292 1.471zm0-4.692l1.47-.292.293 1.47-1.47.293zm-1.502-2.861l1.247-.833.833 1.247-1.247.833zm-2.484-2.07l.834-1.247 1.247.834-.833 1.247zm-3.085-.961l.292-1.471 1.471.292-.292 1.471zm-1.75 14.363h1.75v1.75h-1.75zM8.14 5.043l1.67-.693.692 1.671-1.67.692zm5.357 12.935l1.672-.692.692 1.671-1.671.693zM5.761 7.05l1.29-1.289 1.289 1.29-1.29 1.288zm9.899 9.9l1.29-1.29 1.288 1.29-1.289 1.288zM4.353 9.81l.691-1.669 1.669.691-.691 1.669zm12.932 5.357l.693-1.671 1.671.692-.692 1.671zm-13.16-4.042h1.75v1.75h-1.75zm14 0h1.75v1.75h-1.75zM4.35 14.19l1.672-.693.693 1.671-1.672.693zm12.936-5.358l1.672-.692.692 1.671-1.671.693zM5.761 16.95l1.29-1.29 1.288 1.29-1.289 1.288zm9.899-9.9l1.29-1.289 1.289 1.29-1.29 1.288zM8.14 18.957l.693-1.672 1.671.693-.692 1.67zm5.357-12.935l.692-1.671 1.672.692-.693 1.672z"/></svg>