<svg xmlns="http://www.w3.org/2000/svg" width="30" height="30" version="1" viewBox="0 0 30 30"><path fill="#0B1F35" d="M9.529 2.084l1.281-.493.493 1.281-1.281.493zm15.774 12.029h1.775v1.775h-1.775zm.297 7.789l.69-1.183 1.183.69-.69 1.183zm-1.283-2.466l.591-1.675 1.676.59-.591 1.677zm3.054-1.478l.198-1.38 1.38.197-.198 1.38zm-3.448.986l-1.677-.986-.591 1.084v.099l-.394.591.394.198 1.282.69zm-1.379-6.212l1.873-.296.296 1.873-1.873.296zm0 4.535l.296-1.873 1.873.296-.296 1.873zm1.773-6.604l1.676-.591.591 1.675-1.675.592zM20.57 6.915l-1.281 1.479 1.479 1.282.887-.986v-.098l.394-.395-.394-.296zm-.295-2.76l-.789 1.479 1.479.887.69-1.282.099-.295-.099-.099zm8.38 7.789l-1.38.197.295 1.38 1.381-.197zM2.528 8.592l1.183.69.592-1.183-1.085-.691zM25.6 8.099l1.183-.69.69 1.183-1.184.69zm-11.635-2.86h1.972v1.972h-1.972zm7.69 16.169l-.887-.985-1.479 1.281 1.281 1.479 1.085-.986.394-.394zM23.43 9.084l1.38-1.183-1.085-1.38-1.38 1.085zM7.359 4.845l-.887-.986-.986.887.887 1.085zm15.183.097l.887-1.084 1.084.887-.887 1.084zM3.317 11.746l.592-1.675 1.676.591-.592 1.676zm3.155-2.662l1.183-1.38-1.38-1.084L5.19 7.901zM14.261 1h1.38v1.38h-1.38zm7.591 24.056l-.197-.295-.789-1.184-1.479.888.888 1.479 1.38-.789zm.492-2.76l1.084-1.38L24.808 22l-1.084 1.38zm.199 2.86l1.084-.887.887 1.085-1.084.887zM18.7 27.128l1.281-.493.493 1.281-1.282.493zm-1.975-4.538l1.873-.69.69 1.873-1.873.69zm4.536-12.322l.394.69.591.986 1.677-.986-.986-1.676-1.282.788zM9.43 23.084l1.281-1.478-1.479-1.282-.887 1.084-.394.395.394.394zm-.691-3.352l-.394-.69v.099l-.591-1.085-1.677.986.986 1.676 1.282-.788zM5.29 15.69l1.872-.295.296 1.873-1.873.296zm-2.367-1.577h1.775v1.775H2.923zm2.267.197l.297-1.872 1.873.295-.296 1.873zm6.803 12.422l.295-1.775 1.775.296-.296 1.774zm-2.366-.887l.887-1.479-1.479-.887-.69 1.282-.197.295.197.099zm.985-19.718l1.873-.69.69 1.872-1.873.69zm1.381-2.957l1.775-.297.296 1.775-1.775.296zM10.71 23.774l.69-1.873 1.873.69-.69 1.873zm-8.182-2.366l.69 1.184 1.085-.691-.69-1.183zm6.999 6.508l.493-1.282 1.281.493-.493 1.282zm4.734-.296h1.38V29h-1.38zM8.345 8.69v-.098l.887 1.084 1.479-1.282L9.43 6.915l-1.085.986-.394.296zm-3.352 9.071l-1.676.591.591 1.578 1.677-.592zM16.627 7.41l.69-1.873 1.873.69L18.5 8.1zm1.971-4.537l.492-1.282 1.282.493-.493 1.281zM5.19 22.098l1.38-1.084 1.084 1.38-1.38 1.084zm.887-11.042l1.677.986.591-1.084.394-.69-.394-.198-1.282-.69zm9.86-6.31l1.676.296.295-1.774-1.676-.296zM5.487 25.351l.887-1.084 1.084.887-.887 1.085zm8.478-2.562h1.972v1.972h-1.972zm2.267 4.338l1.775-.296-.296-1.676-1.774.197zM8.148 4.944l.197.295.69 1.282 1.578-.887-.888-1.479-1.38.69zm-7.099 8.281l1.381.198.197-1.282-1.381-.197zm0 3.549l1.38-.197.197 1.38-1.38.197z"/></svg>