<svg xmlns="http://www.w3.org/2000/svg" width="50" height="45" viewBox="0 0 50 45"><g fill="none" fill-rule="evenodd"><path d="M1-2h48v48H1z"/><path fill="#0B1F35" d="M8 35.889V40H7v-4.111H4V35h3v-3.121H4V31h3V20h5.627c3.828 0 6.33 2.596 6.33 6.082 0 3.486-2.502 5.797-6.344 5.797H8V35h6v.889H8zM8 31h4.449C15.771 31 18 29.049 18 26.082 18 23.102 15.785 21 12.449 21H8v10zm30.11-5v-2c-3.691-.15-6.439-2.447-6.521-5.482h1.053c.137 2.42 2.475 4.348 5.469 4.498v-8.75l-.301-.082c-4.129-.998-5.729-2.406-5.729-5.018 0-2.885 2.475-4.99 6.029-5.154V2.166h.875v1.846c3.377.164 5.947 2.311 6.043 5.004h-1.053c-.096-2.119-2.27-3.883-4.99-4.047v8.436l.328.082c4.43 1.053 6.098 2.283 6.098 5.14 0 3.008-2.625 5.182-6.426 5.373v2h-.875zm0-12.787V4.969c-2.857.109-4.977 1.859-4.977 4.143.001 2.118 1.368 3.24 4.977 4.101zm.875 1.244v8.572c3.09-.109 5.373-1.955 5.373-4.348 0-2.337-1.449-3.322-5.373-4.224z"/><path fill="#0B1F35" d="M38.5 44.945L27.909 34.354l.707-.708 9.884 9.885 9.884-9.885.707.708zM21.384 11.354L11.5 1.469l-9.884 9.885-.707-.708L11.5.055l10.591 10.591z" opacity=".4"/></g></svg>
