<svg width="30" height="10" viewBox="0 0 30 10" xmlns="http://www.w3.org/2000/svg">
  <g fill="#FFF" fill-rule="evenodd">
    <path d="M10.6 9.833h2.423L14.54.173h-2.425M25.97.173c-.9 0-1.12.72-1.12.72l-3.617 8.94h2.527l.506-1.433h3.083l.284 1.434h2.227L27.92.174h-1.95zm-1.005 6.244L26.24 2.8l.716 3.617h-1.99zM14.88 7.286l-.362 2.168S15.6 10 17.255 10c1.655 0 4.152-.89 4.152-3.308 0-2.512-3.384-2.745-3.384-3.838 0-1.092 2.36-.952 3.4-.358L21.767.42S20.7 0 19.588 0c-1.204 0-4.063.546-4.063 3.198 0 2.496 3.355 2.526 3.355 3.838 0 1.31-3.008 1.076-4 .25zM5.157 1.043s-.1-.87-1.15-.87H.183L.14.337l.064.015.05.014c.037.01.088.023.142.04l.11.032.203.066.143.05c.113.04.24.088.373.143L1.35.75c.13.054.267.116.41.184l.198.102c.114.058.232.12.352.188l.227.133c.047.027.095.06.143.09l2.104 8.384H7.31L11.17.17H8.56L6.245 6.814l-.273-1.43-.816-4.34z"/>
  </g>
</svg>
