<svg xmlns="http://www.w3.org/2000/svg" width="36" height="36" version="1" viewBox="0 0 36 36"><path fill="#0B1F35" d="M24.558 34h-17a4.505 4.505 0 0 1-4.5-4.5V10.294L11.292 2h13.266c2.481 0 4.5 2.019 4.5 4.5V12h-1V6.5c0-1.93-1.57-3.5-3.5-3.5h-12.85l-7.65 7.706V29.5c0 1.93 1.57 3.5 3.5 3.5h17c1.93 0 3.5-1.57 3.5-3.5V28h1v1.5c0 2.481-2.019 4.5-4.5 4.5z"/><path fill="#0B1F35" d="M25 25v-3.535l.074-3.823-.168-.031-.063.07L21.847 25h-.7l-3.015-7.378-.167.035-.029.092.064 3.719V25h-1v-8.99h1.443l2.97 7.471h.137l.064-.064 2.944-7.407H26V25zm4-.999h5V25h-6v-8.983h1v7.984zm-20.756.964l2.795-4.498-2.727-4.408h1.092l2.087 3.83 2.243-3.879.971.036-2.734 4.421 2.786 4.485h-1.084l-2.154-3.89L9.215 25z"/></svg>