<svg xmlns="http://www.w3.org/2000/svg" width="30" height="30" version="1" viewBox="0 0 30 30"><path fill="#0B1F35" d="M19 28H6a4.005 4.005 0 0 1-3.998-3.874H2V8.293L8.293 2H19c2.206 0 4 1.794 4 4v5h-1V6c0-1.654-1.346-3-3-3H8.707L3 8.707V24c0 1.654 1.346 3 3 3h13c1.654 0 3-1.346 3-3h1c0 2.206-1.794 4-4 4z"/><path fill="#0B1F35" d="M18.85 22v-2.045l.136-3.267-.175-.033-.056.079L16.923 22h-.787l-1.851-5.329-.175.031-.025.095.134 3.162V22h-1.185v-7h1.636l1.765 5.31h.149l.052-.069L18.393 15h1.641v7zm4.184-1h3v1h-4v-7h1v6zM9.977 22l-1.472-2.914L7.034 22H5.866l2.01-3.531L5.917 15h1.154l1.413 2.875L9.92 15h1.163l-1.96 3.471L11.197 22z"/></svg>