<svg xmlns="http://www.w3.org/2000/svg" width="21" height="22" viewBox="0 0 21 22"><path fill="#FFF" fill-rule="evenodd" d="M19 7h-1V3c0-1.103-.897-2-2-2H6.707L2 5.707V6H1v-.707L6.293 0H16c1.654 0 3 1.346 3 3v4zm-3 15H4c-1.654 0-3-1.346-3-3v-1h1v1c0 1.103.897 2 2 2h12c1.103 0 2-.897 2-2v-1h1v1c0 1.654-1.346 3-3 3zm-2.184-6v-2.045l.137-3.266-.175-.033-.057.078L11.889 16h-.787l-1.851-5.328-.174.03-.026.095.134 3.163V16H8V9h1.636l1.765 5.31h.149l.053-.069L13.36 9H15v7zM18 15h3v1h-4V9h1zM4.943 16l-1.471-2.913L2 16H.832l2.011-3.531L.884 9h1.153l1.413 2.875L4.887 9H6.05l-1.96 3.471L6.163 16z"/></svg>