<svg xmlns="http://www.w3.org/2000/svg" width="31" height="32" viewBox="0 0 31 32"><g fill="#FFF" fill-rule="evenodd"><path d="M21.558 32h-17a4.505 4.505 0 0 1-4.5-4.5V8.294L8.292 0h13.266c2.481 0 4.5 2.019 4.5 4.5V10h-1V4.5c0-1.93-1.57-3.5-3.5-3.5H8.708l-7.65 7.706V27.5c0 1.93 1.57 3.5 3.5 3.5h17c1.93 0 3.5-1.57 3.5-3.5V26h1v1.5c0 2.481-2.019 4.5-4.5 4.5z"/><path d="M22 23v-3.535l.074-3.823-.168-.031-.063.07L18.847 23h-.7l-3.015-7.378-.167.035-.029.092.064 3.719V23h-1v-8.99h1.443l2.97 7.471h.137l.064-.064 2.944-7.407H23V23zm4-.999h5V23h-6v-8.983h1zm-20.756.964l2.795-4.498-2.727-4.408h1.092l2.087 3.83 2.243-3.879.971.036-2.734 4.421 2.786 4.485h-1.084l-2.154-3.89L6.215 23z"/></g></svg>