<svg xmlns="http://www.w3.org/2000/svg" width="17" height="16" viewBox="0 0 17 16"><path fill="#FFF" fill-rule="evenodd" d="M14 4.706h-1V1.467c0-.29-.251-.526-.559-.526H5.707L2 4.431v.275H1V4.04L5.293 0h7.148C13.301 0 14 .658 14 1.467v3.239zM12.5 16h-10c-.827 0-1.5-.633-1.5-1.412h1c0 .26.224.47.5.47h10c.275 0 .5-.21.5-.47h1c0 .779-.673 1.412-1.5 1.412zM7.509 6.588L8.98 10.75h.023l1.483-4.162H12v5.647h-1.157v-1.683l.111-2.495-.024-.002-1.545 4.18h-.777L7.069 8.07l-.023.003.111 2.28v1.882H6V6.588zM14 11.363h3v.872h-4V6.588h1zm-10.518.872l-1.18-2.22-1.179 2.22H0l1.706-2.848L.043 6.588h1.111l1.132 2.188 1.148-2.188h1.12l-1.663 2.8 1.758 2.847z"/></svg>