<svg xmlns="http://www.w3.org/2000/svg" width="24" height="24" version="1" viewBox="0 0 24 24"><path fill="#0B1F35" d="M20 8h-1V4c0-1.103-.897-2-2-2H7.707L3 6.707V7H2v-.707L7.293 1H17c1.654 0 3 1.346 3 3v4zm-3 15H5c-1.654 0-3-1.346-3-3v-1h1v1c0 1.103.897 2 2 2h12c1.103 0 2-.897 2-2v-1h1v1c0 1.654-1.346 3-3 3zm-2.184-6v-2.045l.137-3.266-.175-.033-.057.078L12.889 17h-.787l-1.851-5.328-.174.03-.026.095.134 3.163V17H9v-7h1.636l1.765 5.31h.149l.053-.069L14.36 10H16v7zM19 16h3v1h-4v-7h1v6zM5.943 17l-1.471-2.913L3 17H1.832l2.011-3.531L1.884 10h1.153l1.413 2.875L5.887 10H7.05l-1.96 3.471L7.163 17z"/></svg>