<svg xmlns="http://www.w3.org/2000/svg" width="25" height="26" viewBox="0 0 25 26"><g fill="#FFF" fill-rule="evenodd"><path d="M17 26H4a4.005 4.005 0 0 1-3.998-3.874H0V6.293L6.293 0H17c2.206 0 4 1.794 4 4v5h-1V4c0-1.654-1.346-3-3-3H6.707L1 6.707V22c0 1.654 1.346 3 3 3h13c1.654 0 3-1.346 3-3h1c0 2.206-1.794 4-4 4z"/><path d="M16.85 20v-2.045l.136-3.267-.175-.033-.056.079L14.923 20h-.787l-1.851-5.329-.175.031-.025.095.134 3.162V20h-1.185v-7h1.636l1.765 5.31h.149l.052-.069L16.393 13h1.641v7zm4.184-1h3v1h-4v-7h1zM7.977 20l-1.472-2.914L5.034 20H3.866l2.01-3.531L3.917 13h1.154l1.413 2.875L7.92 13h1.163l-1.96 3.471L9.197 20z"/></g></svg>