<svg width="48px" height="48px" viewBox="0 0 48 48" version="1.1" xmlns="http://www.w3.org/2000/svg"><g stroke="none" stroke-width="1" fill="none" fill-rule="evenodd"><rect x="0" y="0" width="48" height="48"/><path d="M31.5,1.5 L16.5,1.5 L16.5,17.1455 L2.23168658,39.5854654 C1.77278458,40.3071867 1.52905708,41.1447383 1.52905708,42 C1.52905708,44.4852814 3.54377571,46.5 6.02905708,46.5 L41.9706324,46.5 C42.8258789,46.5 43.6634163,46.2562811 44.3851293,45.7973944 C46.4823724,44.4639046 47.1015167,41.6827461 45.7680268,39.585503 L31.5,17.1454973 L31.5,1.5 Z" stroke="#FFFFFF"/><path d="M14.5,1.5 L33.5,1.5" stroke="#FFFFFF" stroke-linecap="square"/><rect fill="#FFFFFF" x="17" y="6" width="8" height="1"/><rect fill="#FFFFFF" x="17" y="11" width="4" height="1"/><path d="M14.9290843,29 L32.39048,29 L39.3718659,38.1845663 C40.3745022,39.5036139 40.1180003,41.3857105 38.7989527,42.3883468 C38.2769171,42.7851573 37.6392475,43 36.9835191,43 L11.0140173,43 C9.35716309,43 8.01401734,41.6568542 8.01401734,40 C8.01401734,39.3936305 8.19776657,38.8014944 8.54104267,38.301649 L14.9290843,29 Z" fill="#FFFFFF" opacity="0.300000012"/></g></svg>