<svg width="36" height="36" viewBox="0 0 36 36" xmlns="http://www.w3.org/2000/svg"><g fill="none" fill-rule="evenodd"><path d="M0 0h36v36H0z"/><path d="M23.5 1.5h-11v11.654L2.21 28.247A4 4 0 0 0 5.515 34.5h24.97a4 4 0 0 0 3.305-6.253L23.5 13.154V1.5z" stroke="#0B1F35"/><path d="M11.5 1.5h13" stroke="#0B1F35" stroke-linecap="square"/><path fill="#0B1F35" d="M13 5h6v1h-6zM13 9h3v1h-3z"/><path d="M12 21h12l4.797 6.853A2 2 0 0 1 27.16 31H8.84a2 2 0 0 1-1.638-3.147L12 21z" fill="#0B1F35" opacity=".3"/></g></svg>