<svg width="48" height="48" viewBox="0 0 48 48" xmlns="http://www.w3.org/2000/svg"><g fill="none" fill-rule="evenodd"><path d="M0 0h48v48H0z"/><path d="M31.5 1.5h-15v15.645L2.232 39.585A4.5 4.5 0 0 0 6.029 46.5h35.942a4.5 4.5 0 0 0 3.797-6.914L31.5 17.146V1.5z" stroke="#0B1F35"/><path d="M14.5 1.5h19" stroke="#0B1F35" stroke-linecap="square"/><path fill="#0B1F35" d="M17 6h8v1h-8zM17 11h4v1h-4z"/><path d="M14.93 29h17.46l6.982 9.185A3 3 0 0 1 36.984 43h-25.97a3 3 0 0 1-2.473-4.698L14.929 29z" fill="#0B1F35" opacity=".3"/></g></svg>