<svg width="24" height="24" viewBox="0 0 24 24" xmlns="http://www.w3.org/2000/svg"><g fill="none" fill-rule="evenodd"><path d="M0 0h24v24H0z"/><path d="M15.5 1.5h-7v8.656l-5.83 8.421A2.5 2.5 0 0 0 4.726 22.5h14.548a2.5 2.5 0 0 0 2.056-3.923l-5.83-8.42V1.5z" stroke="#0B1F35"/><path d="M7.5 1.5h9" stroke="#0B1F35" stroke-linecap="square"/><path fill="#0B1F35" d="M9 4h4v1H9zM9 7h2v1H9z"/><path d="M9 14h6l3.36 4.032A1.2 1.2 0 0 1 17.438 20H6.562a1.2 1.2 0 0 1-.922-1.968L9 14z" fill="#0B1F35" opacity=".3"/></g></svg>