<svg xmlns="http://www.w3.org/2000/svg" width="36" height="24" viewBox="0 0 36 24"><g fill="#FFF" fill-rule="evenodd"><path d="M18.608 14.824l.077.029.076.022.077.023.083.022.083.016.089.016.096.013.102.013.115.009.121.007.137.006.15.003.163.003.179.003h.198l.143-.003.147-.009.153-.016.157-.026.156-.035.156-.048.154-.057.146-.07.141-.087.131-.098.118-.115.108-.134.093-.154.073-.172.058-.191.035-.214.016-.288-.016-.242-.048-.204-.073-.173-.096-.14-.115-.118-.131-.093-.137-.076-.147-.064-.153-.054-.15-.048-.144-.048-.137-.048-.128-.057-.108-.067-.093-.083-.044-.061-.036-.061-.022-.06-.013-.061v-.057l.01-.055.019-.054.029-.051.038-.045.048-.044.057-.039.064-.035.07-.029.08-.025.086-.019.093-.013.128-.01.118-.006.105-.003h.096l.086.003.08.006.07.007.067.006.064.01.06.009.058.01.057.01.058.006.057.009.064.007.064.003.23-1.034-.035-.003-.039-.007-.041-.006-.045-.006-.051-.01-.061-.006-.063-.01-.074-.009-.08-.007-.092-.009-.102-.007-.112-.006-.128-.007-.137-.003-.153-.003h-.306l-.131.006-.128.007-.121.009-.115.013-.109.016-.105.019-.102.023-.096.025-.089.026-.086.032-.08.032-.077.038-.073.038-.067.042-.064.044-.061.048-.054.051-.051.055-.048.057-.045.061-.041.06-.035.067-.035.067-.029.074-.029.073-.022.08-.019.08-.019.083-.013.086-.013.089-.009.093-.01.15.003.14.016.128.026.118.038.105.045.099.054.09.061.082.067.074.073.07.077.061.083.054.086.051.089.048.089.041.09.039.092.038.09.035.089.035.083.032.083.032.08.035.073.035.067.035.061.039.054.041.045.045.035.051.025.051.016.061.004.063-.01.074-.019.07-.029.07-.035.07-.048.067-.064.058-.079.051-.106.035-.127.022-.138.007h-.134l-.134-.003-.131-.007-.13-.013-.125-.012-.121-.016-.115-.016-.109-.019-.102-.019-.095-.023-.087-.016-.073-.019-.067-.016-.054-.016-.045-.009-.198 1.002zm3.948-.718l-.01.106-.003.102.003.092.013.09.022.08.035.073.048.067.061.06.073.055.09.048.105.038.125.035.143.026.163.019.182.012h.344l.077-.009.074-.01.063-.009.061-.01.057-.009.055-.01.048-.009.044-.013.045-.013.038-.013.039-.013.035-.012.035-.016.035-.016.035-.016.032-.019.131-.872-.01.004-.025.012-.042.016-.054.016-.07.016-.083.013-.09.006h-.156l-.054-.003-.051-.003-.051-.01-.045-.006-.045-.013-.038-.016-.038-.019-.032-.019-.029-.026-.022-.031-.02-.032-.012-.039-.007-.041v-.048l.007-.054.424-2.544.808.016.178-1.018h-.788L24.707 9h-1.283l-.852 4.991zM9.991 12.753l-.083.134-.073.144-.061.153-.041.163-.029.169-.013.179.003.099.006.102.013.105.019.102.029.105.035.102.045.099.054.096.064.096.077.086.086.083.102.073.115.067.131.061.144.051.163.038.125.019.128.01.131-.003.134-.01.134-.019.134-.026.134-.035.131-.042.124-.048.121-.051.115-.057.105-.061.099-.064.086-.067.077-.07.061-.07-.013.022-.013.038-.01.057-.013.067-.013.08-.013.086-.013.096-.013.096h1.152l.182-1.018.475-2.397.026-.188-.003-.172-.029-.163-.051-.15-.07-.137-.089-.124-.105-.112-.118-.102-.128-.089-.134-.077-.144-.067-.144-.054-.144-.041-.144-.035-.137-.019-.13-.013-.16-.003-.153-.003h-.435l-.134.003-.131.006-.128.006-.125.013-.121.016-.115.019-.112.022-.109.029-.102.035-.102.042-.093.045-.329 1.085.048-.029.067-.026.083-.026.099-.025.112-.026.118-.022.131-.019.137-.022.144-.016.147-.016.147-.013.147-.01.147-.01.144-.003.137-.003.131.003.054.006.054.01.054.013.051.016.048.022.048.026.041.026.042.032.038.038.032.038.032.041.026.045.022.048.016.051.01.054.006.057v.08l-.016.089-.022.077-.01.032h-.036l-.026-.003h-.032l-.035-.003h-.042l-.045-.003h-.101l-.051-.003h-.054l-.057-.003h-.213l-.061.003-.067.003-.07.006-.077.006-.08.006-.077.01-.077.006-.077.006-.07.01-.064.006-.054.006-.048.006-.035.003-.022.003h-.006l-.157.032-.153.038-.15.051-.147.064-.14.073-.134.086-.125.093-.118.105-.105.118-.099.125zm1.13.712l.016-.077.025-.073.032-.067.045-.061.048-.057.054-.051.057-.048.061-.045.061-.035.061-.035.061-.029.054-.022.051-.022.048-.016.038-.013.029-.006.051-.016.057-.016.067-.013.07-.013.073-.013.073-.01.077-.01.073-.006h.137l.057.003.054.006.042.01.032.016.019.019.003.026-.013.061-.013.067-.013.07-.013.077-.016.08-.016.076-.016.074-.016.07-.016.048-.019.051-.026.051-.032.054-.038.054-.045.051-.051.054-.061.048-.067.048-.077.045-.086.038-.096.032-.105.029-.118.022-.124.013-.14.003-.077-.003-.08-.016-.073-.032-.07-.048-.057-.07-.038-.096-.022-.121.008-.156zM5.012 10.51h.045l.013.22.028.523.042.725.048.82.048.814.041.708.029.501.013.188h1.397l1.858-4.499h.048l-.788 4.499h1.247L10.135 9H7.881l-1.477 3.578L6.19 9H4.02l-1.05 6.009h1.248l.788-4.499zm21.354 4.499l.444-2.594.019-.102.023-.099.025-.099.032-.093.035-.092.045-.086.054-.083.061-.08.073-.07.083-.064.099-.058.108-.051.128-.041.144-.032.159-.019.179-.013h.016l.019.003.026.003h.025l.023.004.019.003.012.003h.007l.003-.019.013-.054.016-.083.025-.106.032-.118.035-.128.042-.127.048-.121.035-.09.041-.086.042-.086.044-.08.039-.067.032-.054.022-.035.006-.013h-.006l-.016-.006-.022-.004-.032-.006-.032-.006-.038-.004-.035-.006h-.032l-.141.01-.128.016-.118.025-.108.029-.102.038-.093.042-.089.051-.08.054-.08.06-.073.068-.067.07-.07.076-.067.08-.064.086-.067.09-.067.092.15-.82-1.299-.016-.855 4.908zm2.238-4.027l-.07.096-.067.105-.064.105-.058.112-.051.118-.048.121-.042.124-.038.131-.032.134-.029.137-.022.144-.016.147-.01.153-.003.15.003.147.01.14.016.137.022.131.029.128.035.124.038.118.045.112.048.108.057.105.057.099.067.096.067.089.077.086.077.08.083.077.089.07.089.067.096.061.099.057.102.051.105.048.112.042.112.038.115.032.121.025.121.022.124.019.124.013.131.006.131.003.131-.003.131-.006.128-.013.128-.016.121-.022.121-.026.121-.032.115-.038.115-.041.108-.048.108-.051.105-.057.099-.061.099-.067.093-.073.089-.077.086-.083.083-.086.08-.092.073-.099.067-.102.067-.109.057-.115.057-.118.048-.125.045-.131.042-.134.032-.14.029-.147.022-.15.019-.156.01-.163.003-.134-.003-.134-.006-.131-.013-.124-.019-.125-.026-.121-.029-.118-.035-.112-.035-.11-.048-.105-.048-.105-.058-.099-.061-.096-.064-.089-.07-.089-.077-.083-.08-.08-.083-.073-.089-.07-.096-.067-.096-.061-.105-.054-.105-.051-.112-.048-.118-.041-.118-.035-.124-.032-.128-.026-.134-.019-.137-.013-.141-.01-.144-.003-.137.003-.137.006-.134.016-.131.016-.128.026-.125.029-.121.035-.118.038-.112.045-.112.048-.109.057-.105.057-.099.064-.096.07-.093.073-.089.08-.08.086-.08.086-.076.096zm1.037 1.758l.01-.166.019-.179.019-.105.022-.109.032-.108.038-.109.042-.108.051-.102.057-.102.067-.096.07-.089.08-.08.089-.07.096-.064.105-.048.112-.038.121-.022.131-.01h.105l.096.016.089.026.083.041.073.051.067.064.057.07.051.083.041.093.035.099.025.109.016.112.01.121v.128l-.01.131-.016.137-.029.176-.032.163-.041.15-.048.137-.051.124-.061.115-.064.102-.067.089-.077.08-.08.067-.086.057-.089.045-.096.035-.099.022-.105.013-.109.003-.099-.007-.093-.013-.089-.025-.08-.035-.073-.045-.067-.057-.061-.067-.054-.08-.045-.093-.035-.102-.029-.112-.019-.128-.01-.14v-.15h.005z"/><path d="M12 24c2.158 0 4.215-.576 6.001-1.606A11.988 11.988 0 0 0 24 24c6.617 0 12-5.383 12-12S30.617 0 24 0c-2.158 0-4.214.576-6 1.606A11.991 11.991 0 0 0 12 0C5.383 0 0 5.383 0 12s5.383 12 12 12zm0-23c1.796 0 3.514.44 5.041 1.226a11.984 11.984 0 0 0-4.103 5.113l.922.389A10.985 10.985 0 0 1 18 2.778a10.98 10.98 0 0 1 4.136 4.94l.922-.39a11.991 11.991 0 0 0-4.099-5.102A10.986 10.986 0 0 1 24 1c6.065 0 11 4.935 11 11s-4.935 11-11 11c-1.796 0-3.514-.439-5.041-1.226a11.984 11.984 0 0 0 4.103-5.113l-.922-.389a10.99 10.99 0 0 1-4.14 4.95 10.986 10.986 0 0 1-4.135-4.939l-.922.39a11.981 11.981 0 0 0 4.099 5.101A10.99 10.99 0 0 1 12 23C5.935 23 1 18.065 1 12S5.935 1 12 1z"/><path d="M18.713 11.566l-.016-.141-.025-.134-.029-.125-.038-.118-.045-.108-.051-.102-.054-.093-.061-.089-.067-.08-.07-.073-.077-.067-.077-.064-.083-.054-.083-.051-.086-.045-.089-.038-.093-.035-.093-.029-.093-.026-.093-.022-.096-.019-.093-.013-.093-.01-.093-.006-.089-.006h-.086l-.192.006-.179.013-.172.022-.163.032-.153.038-.144.048-.137.054-.128.057-.121.067-.112.07-.105.077-.096.083-.093.083-.083.089-.077.093-.073.093-.064.096-.061.099-.054.099-.051.099-.045.099-.042.099-.035.096-.032.099-.026.096-.026.093-.022.089-.016.086-.016.083-.013.077-.01.077-.01.067-.016.192-.006.185v.172l.013.166.019.16.029.147.035.14.045.134.051.125.057.118.064.109.07.105.073.096.083.089.086.083.089.077.096.07.096.064.102.057.105.054.109.048.108.042.112.035.112.035.115.025.115.026.115.019.118.016.115.013.112.006.115.006h.265l.141-.003h.128l.117-.008.105-.003.099-.01.089-.01.083-.01.08-.016.073-.016.07-.019.07-.026.07-.025.067-.029.073-.035.073-.038.198-1.133-.134.077-.131.07-.134.057-.128.048-.128.042-.128.032-.128.022-.125.019-.121.01-.125.006h-.118l-.121-.003-.118-.006-.118-.013-.115-.016-.115-.016-.096-.022-.096-.032-.089-.042-.086-.051-.08-.061-.073-.064-.07-.073-.061-.077-.054-.08-.045-.083-.038-.086-.025-.086-.019-.083-.006-.086.003-.08.013-.064h2.955l.051-.281.038-.198.029-.188.016-.179.009-.169v-.16l-.003-.148zm-1.257.316l-.01.121h-1.659l.016-.083.022-.099.025-.096.032-.089.038-.083.045-.08.048-.073.051-.067.057-.064.061-.054.067-.048.07-.041.073-.035.077-.026.083-.016.083-.013h.089l.083.003.08.01.077.019.073.026.067.032.064.038.061.048.054.057.048.064.042.07.032.08.026.086.019.096.006.105v.112z"/></g></svg>