<svg xmlns="http://www.w3.org/2000/svg" width="18" height="18" version="1" viewBox="0 0 18 18"><path fill="#0B1F35" d="M11.492 3c-.876 0-1.716.188-2.492.511A6.473 6.473 0 0 0 6.508 3c-3.584 0-6.5 2.916-6.5 6.5s2.916 6.5 6.5 6.5c.876 0 1.716-.188 2.492-.511a6.473 6.473 0 0 0 2.492.511c3.584 0 6.5-2.916 6.5-6.5S15.076 3 11.492 3zm0 12c-.44 0-.866-.066-1.281-.165a6.49 6.49 0 0 0 2.288-2.811l-.921-.389A5.484 5.484 0 0 1 9 14.394a5.488 5.488 0 0 1-2.578-2.759l-.921.389a6.49 6.49 0 0 0 2.288 2.811A5.504 5.504 0 0 1 6.508 15c-3.033 0-5.5-2.467-5.5-5.5S3.475 4 6.508 4c.44 0 .866.066 1.281.165A6.482 6.482 0 0 0 5.503 6.97l.921.39A5.488 5.488 0 0 1 9 4.605a5.486 5.486 0 0 1 2.576 2.754l.921-.39a6.488 6.488 0 0 0-2.286-2.805A5.557 5.557 0 0 1 11.492 4c3.033 0 5.5 2.467 5.5 5.5s-2.467 5.5-5.5 5.5z"/><path fill="#0B1F35" d="M16.288 11.96l-.003.04h.046l.003-.034.002-.008h-.048zm-6.024-3.249l.009-.027.015-.025.019-.023.024-.022.029-.019.031-.018.036-.014.039-.013.044-.01.046-.006.064-.005.059-.003.052-.002h.048l.043.002.04.003.035.003.034.004.032.004.03.005.029.005.029.005.028.003.029.005.032.003.032.002.115-.517-.018-.002-.019-.003-.021-.003-.022-.004-.026-.004-.03-.004-.032-.004-.037-.005-.039-.003-.047-.005-.051-.003-.056-.004-.063-.003-.069-.001-.077-.002h-.153l-.065.003-.064.003-.061.005-.057.007-.054.008-.053.009-.051.011-.048.013-.045.013-.043.016-.04.016-.038.019-.037.019-.033.021-.032.022-.03.024-.028.026-.025.027-.024.029-.022.03-.021.03-.018.034-.017.033-.015.037-.014.037-.011.039-.01.04-.009.042-.007.043-.006.045-.005.046-.005.075.002.07.008.064.013.059.019.053.022.049.027.045.031.041.033.037.037.035.038.03.042.027.043.026.044.024.045.021.045.019.046.019.045.018.044.017.042.016.041.016.04.018.037.017.033.018.031.019.027.021.022.022.018.025.013.026.008.03.001.032-.005.037-.009.035-.015.035-.017.035-.024.034-.032.028-.04.026-.052.018-.064.011-.069.003h-.067l-.067-.002-.065-.003-.066-.006-.062-.007-.061-.008-.057-.008-.054-.009-.051-.01-.048-.011-.043-.008-.037-.009-.034-.008-.027-.008-.022-.005-.099.501.04.014.038.015.038.011.039.011.041.011.042.008.044.008.048.006.051.007.058.005.06.003.069.003.075.002.081.001.09.002h.099l.071-.002.074-.005.077-.008.078-.012.078-.018.078-.024.077-.029.073-.035.07-.043.066-.049.059-.058.054-.067.046-.076.037-.086.029-.096.017-.107.008-.144-.008-.121-.024-.102-.036-.086-.048-.071-.058-.059-.065-.046-.069-.038-.073-.032-.077-.027-.075-.024-.072-.024-.068-.024-.064-.029-.054-.033-.047-.042-.022-.03-.017-.03-.012-.031-.006-.03v-.029zm1.664 1.12l.212-1.271.404.008.09-.51h-.395l.099-.558h-.641l-.426 2.496-.008.057-.005.053-.002.051.002.046.006.045.012.04.017.036.024.034.03.03.037.027.045.024.052.019.063.018.071.013.082.009.091.007h.172l.038-.005.037-.005.032-.005.03-.004.029-.005.027-.005.024-.005.022-.006.023-.007.019-.006.019-.006.018-.007.017-.008.018-.008.017-.008.016-.009.066-.436-.005.002-.013.006-.021.008-.027.008-.035.008-.041.007-.045.003h-.078l-.027-.002-.026-.001-.025-.005-.023-.004-.022-.006-.019-.008-.019-.009-.016-.01-.015-.013-.011-.016-.009-.016-.007-.019-.003-.021v-.023zM7.16 8.703l-.001-.086-.015-.081-.025-.075-.036-.069-.044-.062-.053-.056-.059-.051-.064-.045-.067-.038-.072-.034-.071-.027-.072-.021-.072-.017-.069-.01-.065-.006-.08-.002-.076-.001h-.217l-.067.001-.066.004-.064.003-.062.006-.061.008-.057.01-.056.011-.054.014-.051.018-.051.021-.048.022-.164.542.024-.014.034-.013.042-.013.048-.012.056-.013.059-.011.065-.01.069-.011.072-.008.073-.008.073-.006.074-.005.073-.005.072-.002.069-.001.065.002.027.003.027.005.027.006.026.008.024.011.024.013.021.013.021.016.019.019.016.019.016.021.013.022.01.024.008.026.005.027.003.029v.04l-.008.044-.011.038-.005.016h-.018l-.012-.001h-.016l-.017-.002h-.021l-.022-.002h-.052l-.025-.001h-.027l-.029-.002h-.107l-.03.002-.034.001-.035.004-.038.003-.04.003-.038.005-.039.003-.038.003-.035.005-.032.003-.027.003-.024.003-.017.002-.012.002h-.003L5.566 9l-.077.019-.075.026-.073.032-.07.037-.067.042-.063.047-.059.052-.052.059-.05.063-.041.067-.037.071-.03.077-.021.081-.014.085-.007.089.002.049.003.051.006.053.01.051.014.053.018.051.022.049.027.048.032.048.038.043.043.042.051.037.057.034.065.03.072.026.081.019.062.01.064.005.065-.002.067-.005.067-.01.067-.013.067-.018.065-.021.062-.024.061-.026.057-.029.053-.03.049-.032.043-.034.038-.035.03-.035-.006.011-.006.019-.005.029-.006.034-.006.04-.006.043-.006.048-.006.048h.576l.093-.508.238-1.198.012-.095zm-.807.723l-.007.034-.006.035-.006.038-.008.04-.008.038-.008.037-.008.035-.008.024-.01.026-.013.025-.016.027-.019.027-.022.026-.026.027-.03.024-.033.024-.039.022-.043.019-.048.016-.052.015-.06.011-.062.006-.07.002-.038-.002-.04-.008-.037-.016-.035-.024-.029-.035-.019-.048-.011-.06.003-.078.008-.038.013-.037.016-.034.022-.03.024-.029.027-.026.029-.024.03-.022.03-.018.03-.018.03-.014.027-.011.026-.011.024-.008.019-.006.014-.003.026-.008.03-.008.034-.006.035-.006.037-.006.037-.005.037-.006.037-.003h.069l.029.002.027.003.021.005.016.008.01.01.002.013-.008.029zM3.926 7.5l-.739 1.789L3.08 7.5H1.995l-.525 3.005h.624l.394-2.25h.025l.007.11.014.262.021.362.024.41.024.407.02.354.015.251.006.094h.699l.929-2.25h.024l-.394 2.25h.624L5.052 7.5zm10.105 1.167l.01.001.013.002h.013l.011.001.009.002.007.001h.003l.001-.009.007-.027.008-.042.013-.052.016-.059.017-.064.021-.064.024-.061.017-.044.021-.044.021-.043.022-.04.019-.033.016-.027.011-.018.004-.006h-.004l-.008-.003-.011-.002-.016-.003-.016-.003-.019-.002-.017-.003h-.016l-.071.005-.063.008-.059.013-.055.014-.051.019-.046.021-.045.025-.04.027-.04.031-.036.033-.034.035-.035.039-.033.04-.032.043-.034.044-.033.047.075-.411-.65-.007-.427 2.454h.649l.222-1.298.009-.051.012-.049.012-.05.016-.046.018-.046.022-.043.027-.042.031-.04.036-.035.042-.032.049-.028.055-.026.063-.021.072-.016.08-.009.089-.006zm1.229-.64l-.069.003-.067.008-.065.008-.064.013-.062.014-.061.017-.059.019-.056.022-.056.024-.054.029-.053.029-.049.032-.048.035-.046.037-.045.04-.041.043-.04.043-.038.048-.035.048-.034.053-.032.053-.029.055-.026.059-.023.061-.021.062-.019.065-.016.067-.014.069-.011.072-.008.073-.005.077-.002.075.002.073.005.07.008.069.011.065.014.064.018.062.019.059.022.056.024.054.029.053.029.049.034.048.034.045.038.043.038.04.042.038.045.035.045.034.048.03.049.029.051.025.053.024.056.021.056.019.057.016.061.013.061.011.062.01.062.006.065.003.065.002.065-.002.065-.003.064-.006.064-.008.061-.011.061-.013.061-.016.057-.019.057-.021.054-.024.054-.026.053-.029.049-.03.049-.034.046-.037.045-.038.043-.042.042-.043.04-.046.037-.049.034-.051.033-.054.029-.057.029-.059.024-.062.022-.065.021-.067.016-.07.014-.073.011-.075.01-.078.005-.081.002-.067-.002-.067-.003-.065-.006-.062-.01-.062-.013-.061-.014-.059-.018-.056-.02-.058-.024-.053-.024-.053-.029-.049-.03-.048-.032-.045-.035-.045-.038-.042-.04-.04-.042-.035-.045-.035-.047-.034-.048-.03-.053-.027-.053-.026-.056-.024-.059-.021-.059-.018-.062-.015-.064-.013-.067-.01-.069-.006-.07-.005-.072-.002-.068.003zm.179.541l.048.008.045.013.041.021.037.026.034.032.029.035.026.041.021.046.018.049.013.054.008.056.005.061v.064l-.005.065-.008.069-.014.088-.016.081-.021.075-.027.068-.026.062-.03.057-.032.051-.034.045-.038.04-.04.034-.043.029-.044.022-.048.018-.049.011-.053.006-.054.002-.049-.003-.046-.006-.045-.013-.04-.018-.037-.022-.033-.029-.03-.034-.027-.04-.022-.046-.018-.051-.015-.056-.01-.064-.005-.07V9.37l.005-.083.01-.089.01-.053.011-.054.016-.054.019-.054.021-.054.026-.051.029-.051.034-.048.035-.045.04-.04.045-.035.048-.032.053-.024.056-.019.061-.011.065-.005h.05zm-6.097.215l-.008-.07-.013-.067-.015-.063-.019-.059-.022-.054-.026-.051-.027-.046-.03-.045-.034-.04-.035-.036-.038-.034-.038-.032-.042-.027-.041-.026-.043-.022-.045-.019-.046-.018-.047-.014-.046-.013-.046-.011-.048-.01-.046-.006-.047-.005-.046-.003-.045-.003h-.044l-.096.003-.089.007-.087.011-.081.016-.076.019-.072.024-.069.027-.064.029-.06.033-.056.035-.053.039-.048.041-.046.042-.042.044-.038.047-.036.046-.032.048-.03.049-.028.05-.025.049-.023.05-.02.049-.018.048-.016.049-.013.048-.013.046-.011.045-.008.043-.008.042-.006.038-.005.038-.005.034-.008.096-.003.092v.086l.006.083.01.08.014.073.018.07.022.068.026.062.029.059.032.054.035.053.037.048.042.045.043.042.045.038.048.035.048.032.051.029.053.027.054.024.054.021.056.018.056.018.057.013.057.013.057.01.059.008.057.006.056.003.057.003h.133l.07-.002h.064l.057-.005.053-.002.049-.005.045-.005.042-.005.04-.008.037-.008.035-.01.035-.013.035-.013.034-.014.037-.018.037-.019.098-.565-.068.039-.065.035L9 9.918l-.064.023-.064.021-.063.016-.064.011-.062.01-.061.005-.062.003h-.059l-.061-.002-.059-.003-.059-.006-.058-.008-.057-.008-.048-.011-.048-.016-.044-.021-.044-.026-.04-.03-.036-.032-.035-.037-.03-.038-.027-.04-.023-.041-.019-.043-.013-.043-.01-.042-.003-.043.002-.04.006-.032h1.478l.026-.141.019-.099.014-.094.008-.089.005-.085v-.08l-.003-.074zm-.629.158l-.005.061h-.83l.008-.042.011-.049.013-.048.016-.045.019-.041.022-.04.025-.037.026-.033.029-.032.03-.027.033-.025.035-.021.037-.018.038-.012.042-.008.041-.006h.045l.041.002.04.005.038.01.037.013.034.016.032.019.03.024.027.029.024.032.021.035.016.04.012.042.01.048.003.053v.055z"/></svg>