<svg xmlns="http://www.w3.org/2000/svg" width="24" height="24" version="1" viewBox="0 0 24 24"><path fill="#0086C7" d="M15.931 11H8.069a8.03 8.03 0 0 1 .193-1h7.475a7.889 7.889 0 0 0-.325-1H8.587c.14-.347.306-.679.492-1h5.842a7.968 7.968 0 0 0-.681-1H9.76c.29-.361.613-.694.96-1h2.558A7.977 7.977 0 0 0 12 5.079 7.955 7.955 0 0 0 8 4a8 8 0 0 0 0 16 7.955 7.955 0 0 0 4-1.079A8.03 8.03 0 0 1 10.721 18h2.558c.348-.306.67-.639.96-1H9.76a7.968 7.968 0 0 1-.681-1h5.842c.186-.321.352-.653.492-1H8.587a8.052 8.052 0 0 1-.325-1h7.475c.084-.326.151-.659.193-1H8.069c-.008-.061-.022-.12-.028-.182A8.19 8.19 0 0 1 8 12h8c0-.339-.028-.672-.069-1z"/><path fill="#EC1C2E" fill-rule="evenodd" d="M16 4a7.955 7.955 0 0 0-4 1.079A8.03 8.03 0 0 1 13.279 6h-2.558c-.348.306-.67.639-.96 1h4.479c.252.314.478.649.681 1H9.079a7.858 7.858 0 0 0-.492 1h6.826c.131.323.236.658.325 1H8.262a7.851 7.851 0 0 0-.193 1h7.862c.041.328.069.661.069 1H8c0 .276.014.549.041.818.007.062.02.121.028.182h7.862a8.03 8.03 0 0 1-.193 1H8.262c.088.342.194.677.325 1h6.826c-.14.347-.306.679-.492 1H9.079c.203.351.429.686.681 1h4.479c-.29.361-.613.694-.96 1h-2.558a8.03 8.03 0 0 0 1.279.921h.001c.044.025.085.054.129.079h.029c1.142.629 2.446 1 3.841 1a8.002 8.002 0 0 0 7.959-8.818A8.002 8.002 0 0 0 16 4z" clip-rule="evenodd"/><path fill="#FFF" fill-rule="evenodd" d="M14.664 11.55l-.039-.002-.039-.004-.035-.006-.036-.004-.035-.006-.035-.006-.037-.006-.04-.006-.041-.004-.043-.003-.049-.004-.052-.002h-.059l-.065.002-.072.004-.079.005-.056.008-.053.012-.049.016-.043.017-.039.022-.036.023-.029.028-.023.027-.018.031-.012.034-.006.033v.035l.008.037.014.038.021.037.028.037.057.051.066.041.078.035.085.03.088.029.092.029.094.034.09.039.084.047.08.056.071.073.058.086.045.106.03.125.01.149-.01.176-.022.131-.035.118-.045.105-.057.094-.066.082-.073.071-.08.061-.086.052-.09.043-.094.036-.096.029-.096.022-.096.015-.094.01-.09.006-.088.002h-.121l-.11-.002-.1-.002-.092-.002-.084-.004-.074-.004-.071-.006-.062-.008-.059-.007-.055-.01-.051-.01-.051-.014-.047-.013-.047-.014-.047-.018-.049-.017.122-.615.027.006.033.01.042.01.045.011.052.01.059.014.063.012.066.011.071.01.074.01.076.008.081.007.08.004.082.002h.082l.085-.004.078-.013.064-.022.049-.031.04-.035.029-.041.021-.044.018-.043.012-.043.006-.045-.002-.039-.01-.037-.016-.031-.021-.032-.028-.027-.033-.026-.037-.023-.041-.022-.045-.021-.049-.022-.051-.019-.051-.02-.055-.021-.055-.022-.056-.023-.055-.024-.055-.025-.055-.03-.053-.031-.051-.033-.047-.037-.045-.043-.041-.045-.037-.051-.033-.055-.028-.061-.023-.064-.016-.073-.009-.078-.002-.086.005-.092.006-.057.008-.055.008-.053.012-.051.011-.049.014-.048.018-.046.017-.045.022-.041.022-.041.025-.037.027-.037.03-.035.031-.034.033-.031.038-.029.039-.028.041-.025.045-.024.047-.023.049-.02.053-.019.054-.016.059-.016.063-.013.064-.012.067-.01.07-.008.075-.006.078-.003.08-.004h.188l.094.002.084.002.079.003.068.004.063.004.056.006.049.004.045.006.04.006.037.004.031.006.028.003.025.004.023.004.022.002-.141.635z" clip-rule="evenodd"/><path fill="#FFF" d="M15.308 10.24h.787l-.121.685h.483l-.11.625-.495-.01-.26 1.56-.004.033v.029l.004.026.008.023.012.02.013.02.018.015.019.012.024.012.023.009.028.008.027.004.031.006.032.002.033.002h.096l.055-.004.051-.008.043-.01.033-.009.025-.01.016-.008.006-.002-.08.534-.02.012-.021.01-.022.01-.021.01-.022.007-.023.008-.024.008-.027.008-.028.008-.029.006-.033.005-.036.006-.037.006-.039.006-.045.006-.047.006h-.211l-.112-.008-.1-.012-.088-.015-.076-.022-.065-.023-.055-.03-.045-.033-.037-.037-.029-.041-.022-.045-.013-.049-.008-.055-.002-.057.002-.062.006-.065.009-.071.523-3.061z"/><path fill="none" d="M11.648 12.008v-.069l-.004-.065-.012-.058-.016-.053-.019-.049-.026-.043-.029-.039-.033-.035-.038-.03-.039-.023-.041-.02-.045-.016-.047-.011-.049-.006-.051-.002h-.054l-.051.008-.051.009-.047.016-.045.022-.043.025-.041.029-.038.034-.035.039-.031.041-.029.045-.028.049-.023.051-.02.055-.016.058-.013.061-.01.051h1.018z"/><path fill="#FFF" d="M12.419 11.814l-.01-.086-.016-.082-.018-.076-.024-.072-.027-.067-.031-.063-.033-.057-.037-.055-.041-.049-.043-.045-.047-.041-.047-.039-.051-.033-.051-.031-.053-.028-.055-.023-.057-.022-.057-.018-.057-.016-.057-.014-.059-.012-.057-.008-.057-.006-.057-.004-.055-.004h-.052l-.117.004-.11.008-.106.014-.1.02-.094.024-.088.029-.084.033-.078.035-.074.041-.068.043-.065.047-.059.051-.057.051-.051.055-.047.057-.045.057-.039.059-.037.061-.033.061-.031.061-.027.061-.025.061-.022.059-.02.061-.016.059-.016.057-.014.055-.01.053-.01.051-.007.044-.006.047-.006.041-.01.117-.004.113v.106l.008.102.012.098.018.09.022.086.027.082.031.076.035.072.039.067.043.065.045.059.051.055.053.051.055.047.059.043.059.039.063.035.065.033.067.029.067.025.068.022.069.022.07.016.07.016.07.012.072.01.07.008.069.004.07.004h.163l.086-.002h.078l.07-.004.065-.002.061-.006.055-.006.051-.006.049-.01.045-.01.043-.012.043-.016.043-.016.041-.018.045-.021.045-.024.121-.695-.082.047-.08.043-.083.037-.078.029-.078.025-.078.02-.078.014-.076.012-.074.006-.076.004h-.072l-.074-.002-.072-.004-.072-.008-.071-.01-.07-.01-.059-.014-.059-.02-.055-.025-.053-.031-.049-.037-.045-.039-.043-.045-.037-.047-.033-.049-.027-.051-.024-.053-.016-.053-.012-.051-.004-.053.002-.049.008-.039h1.813l.031-.172.024-.121.018-.115.01-.11.006-.104v-.098l-.008-.092zm-.771.194l-.006.074h-1.018l.01-.051.014-.061.016-.059.02-.055.024-.051.027-.049.029-.045.031-.041.035-.039.037-.033.041-.029.043-.025.045-.022.047-.016.051-.01.051-.008h.055l.051.002.049.006.047.012.045.016.041.02.039.024.037.029.033.035.029.039.025.043.02.049.016.053.012.059.004.065v.068z"/><path fill="#FFF" fill-rule="evenodd" d="M9.741 11.61l-.018-.1-.031-.092-.043-.084-.055-.076-.064-.069-.072-.063-.078-.055-.082-.047-.088-.041-.088-.033-.088-.025-.088-.022-.086-.011-.08-.008-.098-.002-.094-.002h-.266l-.082.002-.08.004-.079.004-.076.008-.074.01-.071.011-.068.014-.067.018-.063.022-.062.025-.059.027-.202.665.029-.018.041-.016.051-.016.061-.016.069-.014.072-.014.08-.012.084-.014.088-.01.09-.01.09-.008.09-.006.09-.006.088-.002.084-.002.08.002.033.004.033.006.033.008.031.01.029.014.029.016.025.016.025.02.023.024.02.024.02.025.016.027.014.029.01.031.006.033.004.035v.05l-.01.055-.014.047-.006.02h.002-.02l-.016-.002h-.02l-.021-.002h-.025l-.027-.002h-.063l-.031-.002h-.034l-.035-.002h-.131l-.037.002-.041.002-.043.004-.047.004-.049.004-.047.006-.047.004-.047.004-.043.006-.039.004-.033.004-.029.004h-.023l-.014.002h-.004l-.095.018-.094.023-.092.031-.09.039-.086.045-.082.053-.076.057-.072.065-.066.073-.061.076-.051.082-.045.088-.037.094-.025.1-.018.104-.008.11.002.061.004.063.008.065.012.063.018.065.022.063.027.061.033.059.039.059.047.053.053.051.063.045.07.041.08.037.088.031.1.024.076.012.078.006.08-.002.082-.006.082-.012.082-.016.082-.022.08-.025.076-.029.074-.031.07-.035.065-.037.061-.039.053-.041.047-.043.037-.043-.006.009-.007.023-.006.035-.008.041-.008.049-.008.053-.008.059-.008.059h.707l.112-.624.292-1.47.016-.116-.003-.106zm-.988.993l-.008.041-.008.043-.008.047-.01.049-.01.047-.009.045-.01.043-.01.029-.012.031-.015.032-.02.033-.023.033-.027.031-.031.033-.038.03-.041.03-.047.027-.053.024-.059.02-.064.017-.072.014-.076.008-.086.002-.047-.002-.049-.01-.045-.02-.043-.029-.035-.043-.023-.059-.014-.074.004-.096.01-.047.016-.045.02-.041.027-.037.029-.035.033-.031.035-.029.037-.027.037-.022.037-.022.037-.018.033-.014.031-.014.029-.01.023-.008.018-.004.031-.01.035-.01.041-.008.043-.008.045-.008.045-.006.047-.006.045-.004h.084l.035.002.033.004.025.006.02.01.012.012.002.016-.006.038zm-5.225 1.323h-.765l.644-3.686h1.331l.131 2.194.906-2.194h1.382l-.646 3.686h-.765l.483-2.76H6.2l-1.139 2.76h-.858l-.007-.116-.018-.307-.025-.435-.03-.499-.029-.503-.026-.444-.017-.321-.008-.135h-.039.008l-.484 2.76zm12.788 0h.797l.272-1.592.012-.062.013-.061.016-.061.02-.056.021-.057.028-.053.033-.051.037-.049.045-.043.051-.039.061-.035.066-.032.078-.025.089-.02.097-.011.11-.008h.01l.012.002.015.002h.016l.014.002.011.002.008.002h.004l.002-.012.008-.033.01-.051.015-.065.02-.072.021-.079.026-.078.029-.074.022-.055.025-.053.026-.053.027-.049.024-.041.019-.033.014-.022.004-.007h-.004l-.01-.004-.014-.002-.019-.004-.02-.004-.023-.002-.022-.004h-.019l-.087.006-.078.01-.072.015-.067.018-.063.023-.056.026-.055.031-.049.033-.049.038-.045.041-.041.043-.043.047-.041.049-.039.053-.041.054-.042.057.092-.503-.796-.01-.525 3.011z" clip-rule="evenodd"/><path fill="#FFF" d="M21.235 12.229l-.004-.08-.008-.076-.012-.076-.016-.074-.018-.072-.022-.068-.023-.069-.029-.065-.029-.065-.035-.061-.037-.059-.039-.055-.043-.055-.047-.051-.049-.049-.051-.045-.055-.043-.059-.041-.059-.037-.065-.033-.065-.031-.068-.029-.072-.025-.072-.022-.076-.02-.078-.016-.082-.012-.084-.008-.086-.006-.088-.002-.084.002-.084.004-.082.01-.08.01-.078.016-.076.018-.074.022-.072.023-.069.027-.068.029-.067.035-.065.035-.061.039-.059.043-.057.045-.055.049-.051.053-.049.053-.047.059-.043.059-.041.065-.039.065-.035.068-.031.072-.029.074-.025.076-.023.08-.02.082-.018.084-.014.088-.01.09-.006.094-.002.092.002.09.006.086.01.084.014.08.018.078.021.076.024.072.027.069.029.067.035.065.035.061.041.059.041.055.047.053.047.049.051.047.055.043.055.041.059.037.061.035.063.031.065.029.069.026.068.023.07.02.074.016.074.014.076.012.076.008.08.004.08.002.08-.002.08-.004.078-.008.078-.01.074-.014.074-.016.074-.02.07-.024.071-.025.067-.029.067-.031.065-.035.061-.037.061-.041.057-.045.055-.047.053-.051.051-.053.049-.057.045-.061.041-.063.041-.067.035-.071.035-.072.029-.076.027-.08.025-.082.02-.086.018-.09.014-.092.012-.096.006-.1.002-.082-.003-.081zm-.941-.059l-.006.08-.01.084-.018.108-.02.1-.025.092-.029.084-.031.076-.037.07-.039.063-.041.055-.047.049-.049.041-.053.035-.055.027-.059.022-.061.014-.065.008-.067.002-.061-.004-.057-.008-.055-.016-.049-.022-.045-.027-.041-.035-.037-.041-.033-.049-.027-.057-.022-.063-.018-.068-.012-.078-.006-.086v-.092l.006-.102.012-.11.012-.065.014-.067.02-.067.024-.067.025-.067.031-.063.035-.063.041-.059.043-.055.049-.049.055-.043.059-.039.065-.029.068-.024.074-.014.08-.006h.065l.059.01.055.016.051.025.045.031.041.039.035.043.031.051.025.057.022.061.016.067.01.068.006.074v.083z"/></svg>