<svg xmlns="http://www.w3.org/2000/svg" width="30" height="30" version="1" viewBox="0 0 30 30"><path fill="#0086C7" d="M10 15.004V15c0-.338.018-.671.05-1h9.899a10.248 10.248 0 0 0-.15-1h-9.598c.069-.34.156-.673.258-1h9.082a10.081 10.081 0 0 0-.378-1h-8.325a10 10 0 0 1 .511-1h7.302a9.858 9.858 0 0 0-.665-1h-5.973c.264-.351.544-.687.851-1h4.271a9.994 9.994 0 0 0-1.154-1h-1.963A9.94 9.94 0 0 1 15 6.349 9.937 9.937 0 0 0 10 5C4.477 5 0 9.477 0 15s4.477 10 10 10a9.947 9.947 0 0 0 4.337-1c.226-.109.447-.224.663-.349.341-.198.668-.416.982-.651h-1.963a9.994 9.994 0 0 1-1.154-1h4.271c.307-.313.587-.649.851-1h-5.973c-.24-.32-.463-.652-.665-1h7.302a10 10 0 0 0 .511-1h-8.325a9.838 9.838 0 0 1-.378-1h9.082c.103-.327.189-.66.258-1h-9.598a9.674 9.674 0 0 1-.15-1h9.899c.033-.329.05-.662.05-1H10v.004z"/><path fill="#EC1C2E" fill-rule="evenodd" d="M20 5a9.937 9.937 0 0 0-5.982 2h1.963c.409.306.797.636 1.154 1h-4.271c-.307.313-.587.649-.851 1h5.973c.241.32.463.652.665 1h-7.302a10 10 0 0 0-.511 1h8.325c.142.325.271.658.378 1h-9.082c-.103.327-.189.66-.258 1h9.598c.067.328.117.661.15 1H10.05c-.032.329-.05.662-.05 1v.004V15h10c0 .338-.018.671-.05 1h-9.9c.034.339.084.672.15 1h9.598c-.069.34-.156.673-.258 1h-9.082c.108.342.236.675.378 1h8.325a10 10 0 0 1-.511 1h-7.302c.201.348.424.68.665 1h5.973c-.264.351-.544.687-.851 1h-4.271c.357.364.745.694 1.154 1h1.963a9.94 9.94 0 0 1-.982.651A9.943 9.943 0 0 0 20 25c5.523 0 10-4.477 10-10S25.523 5 20 5z" clip-rule="evenodd"/><path fill="#FFF" fill-rule="evenodd" d="M18.378 14.661l-.049-.003-.05-.005-.045-.007-.044-.005-.045-.008-.045-.007-.047-.008-.049-.007-.053-.005-.054-.005-.062-.005-.067-.002h-.075l-.082.002-.092.005-.099.007-.072.01-.067.015-.062.02-.054.023-.05.027-.045.03-.037.034-.03.035-.022.04-.015.042-.008.042v.045l.01.047.018.047.027.047.035.048.072.064.084.052.1.045.106.037.112.037.117.038.119.042.114.049.107.06.101.072.09.092.074.109.057.134.038.159.012.189-.012.223-.028.166-.044.149-.057.134-.072.119-.085.105-.092.089-.101.077-.11.067-.114.055-.119.044-.122.038-.121.027-.122.02-.119.012-.114.008-.112.002h-.154l-.139-.002-.126-.003-.117-.002-.107-.005-.094-.005-.09-.008-.079-.01-.074-.01-.07-.012-.064-.012-.065-.018-.06-.017-.059-.017-.06-.023-.062-.022.154-.78.035.008.042.012.052.013.057.015.067.012.075.017.079.015.085.015.089.013.094.012.097.01.102.01.102.005.104.002h.104l.107-.005.099-.017.082-.027.062-.04.05-.045.037-.052.027-.055.023-.054.015-.055.007-.057-.002-.05-.013-.047-.02-.039-.027-.04-.035-.035-.042-.032-.047-.03-.052-.027-.057-.028-.062-.027-.065-.025-.065-.024-.069-.028-.069-.027-.073-.03-.069-.03-.069-.032-.07-.037-.067-.04-.065-.042-.059-.047-.057-.055-.052-.057-.048-.064-.042-.07-.034-.077-.03-.082-.02-.092-.013-.099-.002-.109.007-.117.008-.072.01-.069.01-.067.015-.065.015-.062.017-.062.022-.057.023-.057.027-.052.027-.052.032-.048.035-.047.037-.044.04-.043.042-.039.048-.038.049-.034.052-.033.057-.029.06-.03.062-.025.067-.025.07-.02.074-.02.079-.017.082-.015.085-.012.089-.01.094-.008.1-.005.101-.005h.239l.119.003.107.002.099.005.087.005.079.005.072.008.062.005.057.007.05.008.047.005.04.007.035.005.032.005.03.005.027.002-.179.805z" clip-rule="evenodd"/><path fill="#FFF" d="M19.195 13h.998l-.154.869h.613l-.139.792-.628-.013-.33 1.979-.005.042v.037l.005.032.01.03.015.025.017.025.022.02.025.014.03.015.03.013.035.01.034.005.04.007.04.003.042.002h.122l.069-.005.065-.01.054-.012.042-.013.033-.012.02-.01.007-.002-.102.677-.025.015-.027.013-.027.012-.027.012-.028.01-.03.01-.029.01-.035.01-.035.01-.037.007-.042.008-.045.007-.047.008-.05.007-.057.008-.059.007h-.268l-.142-.01-.127-.015-.111-.02-.097-.027-.082-.03-.07-.037-.057-.042-.047-.047-.037-.052-.027-.057-.018-.063-.01-.069-.002-.072.002-.079.008-.082.012-.09.663-3.882z"/><path fill="none" d="M14.553 15.241v-.086l-.005-.082-.015-.075-.02-.067-.024-.062-.033-.054-.037-.05-.042-.045-.047-.037-.05-.03-.052-.025-.057-.02-.06-.014-.062-.008-.064-.002h-.07l-.064.01-.065.012-.059.02-.058.027-.054.032-.052.038-.047.042-.045.05-.04.052-.037.057-.035.062-.03.064-.024.07-.02.074-.018.077-.012.065h1.291z"/><path fill="#FFF" d="M15.531 14.996l-.012-.109-.02-.104-.022-.097-.03-.092-.035-.084-.04-.079-.042-.072-.047-.069-.052-.062-.055-.057-.06-.052-.06-.05-.065-.042-.065-.04-.067-.035-.07-.03-.072-.027-.072-.022-.072-.02-.072-.017-.074-.015-.072-.01-.072-.007-.072-.005-.069-.005h-.07l-.149.005-.139.01-.134.017-.127.025-.119.03-.112.037-.107.042-.099.045-.094.052-.087.055-.082.06-.074.065-.072.065-.065.07-.06.072-.057.072-.05.074-.047.077-.042.077-.04.077-.035.077-.032.077-.027.074-.022.073-.02.074-.02.072-.017.07-.012.067-.012.064-.01.06-.007.06-.007.052-.012.149-.005.144v.134l.01.129.015.124.022.114.027.109.035.104.04.097.045.092.05.084.055.082.057.074.065.07.067.065.07.06.075.055.074.05.079.045.082.042.084.037.084.032.087.027.087.027.089.02.089.02.089.015.092.012.089.01.087.005.089.005h.206l.109-.002h.099l.089-.005.082-.002.077-.007.069-.007.065-.007.062-.012.057-.012.055-.015.055-.02.055-.02.052-.022.057-.027.057-.03.154-.881-.104.06-.102.055-.106.041-.099.037-.099.032-.099.025-.099.017-.097.015-.094.007-.098.006h-.092l-.094-.002-.092-.005-.092-.01-.089-.012-.089-.012-.074-.017-.075-.025-.069-.032-.067-.04-.062-.047-.057-.05-.055-.057-.047-.06-.042-.062-.035-.065-.03-.067-.02-.067-.015-.065-.005-.067.002-.062.01-.05h2.299l.04-.218.03-.154.022-.146.012-.139.007-.132v-.124l-.005-.117zm-.978.245l-.007.094h-1.29l.012-.065.017-.077.02-.074.025-.07.03-.064.035-.062.037-.057.04-.052.045-.05.047-.042.052-.037.055-.032.057-.027.06-.02.065-.012.064-.01h.07l.065.002.062.007.06.015.057.02.052.025.05.03.047.037.042.045.037.05.032.055.025.062.02.067.015.075.005.082v.085z"/><path fill="#FFF" fill-rule="evenodd" d="M12.136 14.738l-.022-.127-.04-.117-.055-.107-.07-.097-.082-.087-.092-.079-.099-.069-.104-.06-.112-.052-.112-.042-.112-.032-.112-.027-.107-.015-.102-.01-.124-.002-.119-.002h-.337l-.104.002-.102.005-.099.005-.097.01-.094.012-.089.014-.087.017-.084.022-.079.027-.08.034-.074.035-.256.843.037-.022.052-.02.065-.02.077-.02.087-.02.092-.017.102-.015.107-.017.112-.012.114-.012.114-.01.114-.007.114-.007.112-.002.107-.002.102.002.042.005.042.007.042.01.04.012.037.017.037.02.032.02.032.025.03.03.025.03.025.032.02.035.017.037.012.04.007.042.005.045v.062l-.012.07-.017.06-.007.025h-.027l-.02-.003h-.025l-.027-.002h-.032l-.035-.002h-.081l-.04-.002h-.042l-.045-.002h-.166l-.047.002-.052.002-.055.005-.06.005-.062.005-.06.007-.06.005-.06.005-.055.007-.05.005-.042.005-.037.005-.027.003-.017.002H9.78l-.122.022-.119.03-.117.04-.114.05-.109.054-.104.067-.097.072-.092.081-.082.092-.077.097-.065.104-.057.112-.047.119-.032.127-.022.132-.01.139.002.077.005.079.01.082.015.079.022.082.027.08.035.077.042.074.05.075.06.067.067.065.079.057.089.052.102.047.112.04.127.03.097.015.099.007.102-.002.104-.008.104-.015.104-.02.104-.027.102-.032.097-.037.094-.04.089-.045.082-.047.077-.05.067-.052.06-.055.047-.055-.01.017-.01.03-.007.045-.01.052-.01.062-.01.067-.01.075-.01.074h.896l.141-.792.37-1.864.02-.146-.001-.134zm-1.254 1.258l-.01.052-.01.055-.01.06-.012.062-.012.059-.012.057-.012.055-.012.037-.015.04-.02.04-.025.042-.03.042-.035.04-.04.042-.047.037-.052.037-.06.035-.067.03-.074.025-.082.022-.092.017-.097.01-.109.002-.06-.002-.063-.012-.057-.025-.055-.037-.045-.055-.03-.074-.017-.094.005-.122.012-.06.02-.057.025-.052.035-.047.037-.045.042-.04.045-.037.048-.035.047-.027.047-.027.047-.022.042-.017.04-.017.037-.012.03-.01.022-.005.04-.012.045-.012.052-.01.055-.01.057-.01.057-.007.06-.007.057-.005h.107l.045.002.042.005.032.007.025.012.015.015.002.02-.01.045zm-6.625 1.678h-.971L4.103 13h1.688l.166 2.783L7.106 13h1.753l-.819 4.674h-.971l.613-3.5h-.037l-1.445 3.5H5.113l-.01-.146-.022-.39-.032-.551-.038-.633-.037-.638-.032-.564-.023-.407-.009-.171h-.05.01l-.613 3.5zm16.216 0h1.011l.345-2.018.015-.079.017-.077.02-.077.025-.072.027-.072.035-.067.042-.065.047-.062.057-.055.065-.049.077-.045.084-.04.099-.032.112-.025.124-.015.139-.009h.013l.014.002.02.002h.02l.018.003.014.002.01.003h.005l.003-.015.01-.042.012-.065.02-.082.025-.091.027-.1.032-.099.038-.094.027-.07.032-.067.032-.067.035-.062.03-.052.025-.042.017-.028.005-.01h-.005l-.012-.004-.018-.003-.024-.005-.025-.005-.03-.002-.027-.005h-.025l-.109.007-.1.013-.092.019-.084.023-.079.03-.072.032-.07.039-.062.043-.062.047-.057.052-.052.055-.055.059-.052.062-.05.067-.052.07-.052.072.117-.638-1.01-.013-.666 3.818z" clip-rule="evenodd"/><path fill="#FFF" d="M26.711 15.522l-.005-.102-.01-.097-.015-.097-.02-.094-.022-.092-.027-.087-.03-.087-.037-.082-.037-.082-.045-.077-.047-.074-.05-.07-.055-.07-.06-.065-.062-.062-.064-.057-.07-.055-.074-.052-.074-.047-.082-.042-.082-.04-.087-.037-.092-.032-.092-.027-.097-.025-.099-.02-.104-.015-.107-.01-.109-.007-.112-.002-.107.002-.107.005-.104.012-.102.012-.099.02-.097.022-.094.027-.092.03-.087.035-.087.037-.084.045-.082.045-.077.05-.074.055-.072.057-.07.062-.064.068-.062.067-.06.075-.055.074-.052.082-.05.082-.045.087-.04.092-.037.094-.032.097-.03.102-.025.104-.022.107-.017.112-.012.114-.007.119-.002.117.002.114.007.109.012.107.017.102.022.099.027.097.03.092.035.087.037.084.045.082.045.077.052.074.052.07.06.067.06.062.065.06.069.055.07.052.074.047.077.045.08.04.082.037.087.032.087.03.089.025.094.02.094.017.097.015.097.01.102.005.102.002.102-.002.102-.005.099-.01.099-.012.094-.017.094-.02.094-.025.089-.03.089-.032.084-.037.084-.04.082-.045.077-.047.077-.052.072-.057.07-.06.067-.065.065-.067.062-.072.057-.077.052-.079.052-.084.045-.089.045-.092.037-.097.035-.102.032-.104.025-.109.022-.114.017-.117.015-.122.007-.127.002-.104v-.106zm-1.194-.074l-.007.102-.012.107-.022.136-.025.127-.032.117-.037.107-.04.097-.047.089-.05.079-.052.07-.06.062-.062.052-.067.045-.07.035-.074.027-.077.017-.082.01-.084.002-.077-.005-.072-.01-.07-.02-.062-.027-.057-.035-.052-.045-.047-.052-.042-.062-.035-.072-.027-.079-.022-.087-.015-.099-.007-.109v-.117l.007-.129.015-.139.015-.082.017-.084.025-.084.03-.084.032-.084.04-.079.045-.079.052-.074.055-.07.062-.062.07-.055.074-.05.082-.037.087-.03.094-.017.102-.007h.082l.074.012.07.02.064.032.057.04.052.05.045.055.04.065.032.072.027.077.02.084.012.087.007.094v.096z"/></svg>