<svg xmlns="http://www.w3.org/2000/svg" width="24" height="24" viewBox="0 0 24 24"><rect width="24" height="24" fill="none"/><g fill="#0B1F35" fill-rule="nonzero" transform="translate(1 4)"><path d="M11.1246865,13.982315 L10.8906794,13.982315 C12.0202013,14.6145753 13.2916238,14.950043 14.5860424,14.9573448 C16.5075079,14.9965279 18.3658015,14.270604 19.7519181,12.9393469 C21.1380347,11.6080897 21.9383686,9.78060888 21.9767686,7.85912761 C21.880919,3.86928032 18.5762041,0.708438192 14.5860424,0.790161315 C13.2916238,0.797463111 12.0202013,1.13293079 10.8906794,1.76519115 L11.1246865,1.76519115 C9.99516459,1.13293079 8.7237421,0.797463111 7.42932345,0.790161315 C3.43916181,0.708438192 0.134446869,3.86928032 0.0385973047,7.85912761 C0.134446869,11.8489749 3.43916181,15.009817 7.42932345,14.9280939 C8.72118838,14.9297442 9.99245344,14.6043809 11.1246865,13.982315 Z M10.3251621,2.51596412 L10.3251621,2.09670129 C9.21399517,2.84301528 8.33544102,3.88714311 7.79008449,5.10954348 L7.6925815,5.34355064 L7.92658866,5.44105362 L8.47260537,5.66531049 L8.68711194,5.75306317 L8.78461492,5.53855661 C9.28286755,4.41670436 10.1088084,3.47180086 11.1539374,2.82797367 L10.9004297,2.82797367 C11.935355,3.46963945 12.7539265,4.40709072 13.2502516,5.51905601 L13.3477545,5.73356257 L13.5622611,5.64580989 L14.1082778,5.42155303 L14.342285,5.32405004 L14.244782,5.09004288 C13.7001048,3.87274016 12.8252658,2.83239115 11.7194547,2.08695099 L11.7194547,2.50621382 C12.6292939,2.05864654 13.6305926,1.82834784 14.6445442,1.83344324 C18.0271728,1.78974597 20.8146039,4.47716007 20.8944855,7.85912761 C20.8093405,11.2604755 17.9875998,13.9513781 14.5860424,13.8750617 C13.5720908,13.8801571 12.5707921,13.6498584 11.6609529,13.2022911 L11.6609529,13.6215539 C12.7721198,12.8752399 13.650674,11.8311121 14.1960305,10.6087117 L14.2935335,10.3747046 L14.0595263,10.2772016 L13.5135096,10.0529447 L13.2990031,9.96519206 L13.2015001,10.1796986 C12.7032474,11.3015509 11.8773066,12.2464544 10.8321776,12.8902816 L11.0856853,12.8902816 C10.0616067,12.2441593 9.25361494,11.3071604 8.76511432,10.1991992 L8.66761134,9.98469265 L8.45310478,10.0724453 L7.90708807,10.2967022 L7.67308091,10.3942052 L7.77058389,10.6282123 C8.31481483,11.8457948 9.18974792,12.8862558 10.2959112,13.6313042 L10.2959112,13.2120414 C9.38607197,13.6596087 8.38477326,13.8899074 7.37082166,13.884812 C3.98819308,13.9285093 1.20076195,11.2410952 1.12088042,7.85912761 C1.20602539,4.45777976 4.02776605,1.76687715 7.42932345,1.84319354 C8.43336109,1.84295242 9.42406438,2.07311581 10.3251621,2.51596412 Z"/><path d="M18.3050971,6.77719622 L18.2246495,6.78069394 L18.1465337,6.78885529 L18.0707497,6.79818255 L17.9961317,6.81217344 L17.9238454,6.82849614 L17.8527251,6.84715066 L17.7839365,6.86813699 L17.7186457,6.89145514 L17.6533549,6.91827101 L17.5903959,6.94975051 L17.5286028,6.98239591 L17.4714734,7.01737314 L17.4155098,7.05584808 L17.3618781,7.09665484 L17.3094122,7.14095932 L17.26161,7.18759561 L17.2149737,7.2342319 L17.1706693,7.28786364 L17.1298625,7.34149538 L17.0902216,7.39979075 L17.0529126,7.45808612 L17.0191013,7.5187133 L16.9887877,7.58283821 L16.9619718,7.65046083 L16.9374878,7.71924937 L16.9153355,7.78920381 L16.896681,7.86382188 L16.8803583,7.93960586 L16.8675333,8.01888756 L16.8582061,8.10050107 L16.8523765,8.18444641 L16.8500447,8.26605992 L16.8523765,8.34767344 L16.8582061,8.42462332 L16.8675333,8.5004073 L16.8803583,8.57152765 L16.896681,8.64148209 L16.9176674,8.71143653 L16.9398196,8.77556144 L16.9654696,8.83735453 L16.9934513,8.8968158 L17.0272627,8.95511117 L17.061074,9.00874291 L17.1007148,9.06237465 L17.1403557,9.11134276 L17.1846601,9.15797905 L17.2289646,9.20344944 L17.2779327,9.2454221 L17.3303986,9.28389705 L17.3828644,9.32120608 L17.438828,9.35385149 L17.4959574,9.38533099 L17.5554187,9.41331276 L17.6172118,9.44012863 L17.6825026,9.46344678 L17.7477934,9.48443311 L17.8142501,9.50192172 L17.8853705,9.51591261 L17.9564908,9.52757169 L18.0287771,9.53923076 L18.1010633,9.5450603 L18.1768473,9.54855802 L18.2526313,9.55088983 L18.3284153,9.54855802 L18.4041992,9.5450603 L18.4788173,9.53923076 L18.5534354,9.5299035 L18.6245557,9.51824443 L18.6956761,9.50308763 L18.7667964,9.48559902 L18.8332532,9.46461269 L18.8997099,9.44129454 L18.9626689,9.41564458 L19.0256279,9.3864969 L19.087421,9.3550174 L19.1445504,9.32237199 L19.2016799,9.28506295 L19.2553116,9.2442562 L19.3077775,9.20228353 L19.3579115,9.15564724 L19.4068796,9.10901094 L19.4535159,9.05771102 L19.4966544,9.00407928 L19.5362953,8.94811573 L19.5747702,8.88865445 L19.6085816,8.82569545 L19.6423929,8.76040464 L19.6703746,8.69161611 L19.6960246,8.62166167 L19.7205087,8.54704359 L19.7391632,8.47009371 L19.7554859,8.38848019 L19.7683109,8.30686668 L19.7799699,8.22058953 L19.7857995,8.13198057 L19.7881313,8.0573625 L19.7857995,7.98391034 L19.7823017,7.91278999 L19.7753063,7.84400146 L19.7636472,7.77637883 L19.7484904,7.7087562 L19.7321677,7.64346539 L19.7111814,7.5816723 L19.6878633,7.5187133 L19.6598815,7.46041793 L19.6318997,7.40212257 L19.5980884,7.34732492 L19.5631112,7.29485909 L19.5258021,7.24472507 L19.4849954,7.19575696 L19.4406909,7.14912067 L19.3940546,7.10481619 L19.3450865,7.06634124 L19.2926207,7.0278663 L19.237823,6.99055727 L19.1818595,6.95791186 L19.1200664,6.92759827 L19.0582733,6.89961649 L18.9929825,6.87280062 L18.9241939,6.84948248 L18.8554054,6.82966205 L18.7831191,6.81333935 L18.7085011,6.79934846 L18.6303853,6.78768939 L18.5499377,6.78185985 L18.4683242,6.77603031 L18.3843788,6.7736985 L18.3050971,6.77719622 Z M18.5137945,7.37297488 L18.5697581,7.38230214 L18.6222239,7.39629303 L18.6700261,7.41961118 L18.7131647,7.44759295 L18.7528055,7.48257017 L18.7866169,7.52221102 L18.8169305,7.5665155 L18.8414145,7.61781543 L18.8624008,7.67144717 L18.8775576,7.72974253 L18.8868849,7.79270153 L18.8927144,7.85915825 L18.8927144,7.92911269 L18.8868849,8.00139895 L18.8775576,8.07718293 L18.8612349,8.17511915 L18.8425804,8.26372811 L18.8180964,8.34534162 L18.7866169,8.4211256 L18.7563033,8.48991413 L18.721326,8.55287313 L18.684017,8.60883668 L18.6443762,8.65780479 L18.6000717,8.70210927 L18.5534354,8.73941831 L18.5033014,8.77089781 L18.4520014,8.79538186 L18.3960379,8.81520229 L18.3389084,8.82686136 L18.2771153,8.83385681 L18.2141563,8.83618862 L18.1570269,8.8326909 L18.1033951,8.82686136 L18.0509293,8.81170457 L18.004293,8.79188414 L17.9611544,8.76856599 L17.9226795,8.73592059 L17.8877023,8.69861155 L17.8562228,8.65430707 L17.8305728,8.60417306 L17.8095865,8.5482095 L17.7920979,8.48641641 L17.7804388,8.41646197 L17.7746093,8.33834618 L17.7746093,8.25673266 L17.7804388,8.16462598 L17.7920979,8.06668976 L17.803757,8.00839439 L17.8165819,7.94893312 L17.8352365,7.88947184 L17.8573887,7.83001057 L17.8818727,7.77054929 L17.9121863,7.71458574 L17.9459977,7.65862218 L17.9856385,7.60499045 L18.0264453,7.55602234 L18.0730816,7.51171786 L18.1255474,7.47324291 L18.1815109,7.43826569 L18.243304,7.41144982 L18.3085948,7.39046349 L18.3797152,7.37880442 L18.4554992,7.37297488 L18.5137945,7.37297488 Z"/><polygon points="16.872 7.481 16.884 7.483 16.899 7.485 16.914 7.485 16.927 7.486 16.937 7.488 16.946 7.49 16.949 7.49 16.95 7.48 16.958 7.45 16.968 7.403 16.983 7.346 17.002 7.282 17.021 7.212 17.046 7.141 17.074 7.073 17.094 7.026 17.118 6.977 17.143 6.93 17.168 6.886 17.19 6.848 17.209 6.819 17.222 6.799 17.227 6.792 17.222 6.792 17.213 6.789 17.2 6.788 17.181 6.784 17.163 6.781 17.14 6.778 17.121 6.775 17.102 6.775 17.019 6.781 16.946 6.789 16.877 6.804 16.813 6.819 16.753 6.84 16.7 6.863 16.647 6.89 16.601 6.921 16.554 6.956 16.512 6.991 16.472 7.029 16.431 7.072 16.393 7.116 16.356 7.163 16.316 7.212 16.278 7.265 16.365 6.811 15.607 6.804 15.109 9.505 15.866 9.505 16.125 8.076 16.135 8.02 16.149 7.966 16.163 7.912 16.182 7.86 16.203 7.81 16.229 7.764 16.26 7.717 16.296 7.673 16.338 7.634 16.387 7.599 16.444 7.568 16.508 7.54 16.582 7.516 16.666 7.499 16.759 7.488 16.863 7.481"/><polygon points="14.42 8.764 14.667 7.365 15.138 7.373 15.243 6.811 14.783 6.811 14.898 6.197 14.151 6.197 13.654 8.946 13.645 9.009 13.639 9.067 13.637 9.123 13.639 9.173 13.646 9.223 13.66 9.266 13.68 9.306 13.708 9.345 13.743 9.377 13.786 9.406 13.839 9.433 13.899 9.454 13.973 9.474 14.055 9.488 14.151 9.498 14.257 9.505 14.458 9.505 14.502 9.501 14.545 9.495 14.582 9.489 14.617 9.484 14.651 9.48 14.683 9.474 14.711 9.468 14.736 9.462 14.763 9.454 14.785 9.447 14.807 9.441 14.828 9.433 14.848 9.424 14.869 9.416 14.889 9.406 14.908 9.397 14.985 8.917 14.979 8.919 14.964 8.926 14.939 8.934 14.908 8.943 14.867 8.952 14.819 8.96 14.767 8.963 14.676 8.963 14.644 8.961 14.614 8.96 14.585 8.954 14.558 8.949 14.532 8.943 14.51 8.934 14.488 8.925 14.469 8.913 14.452 8.899 14.439 8.882 14.428 8.864 14.42 8.843 14.417 8.82 14.417 8.794"/><polygon points="12.48 7.53 12.491 7.501 12.508 7.473 12.53 7.448 12.558 7.424 12.592 7.402 12.628 7.383 12.67 7.367 12.716 7.353 12.767 7.341 12.821 7.336 12.895 7.33 12.964 7.326 13.025 7.324 13.081 7.324 13.131 7.326 13.177 7.33 13.218 7.333 13.258 7.338 13.295 7.343 13.33 7.347 13.364 7.353 13.398 7.359 13.43 7.362 13.464 7.367 13.502 7.371 13.539 7.373 13.673 6.804 13.652 6.802 13.63 6.798 13.605 6.795 13.58 6.79 13.549 6.787 13.514 6.782 13.477 6.777 13.434 6.771 13.388 6.769 13.334 6.763 13.274 6.76 13.209 6.755 13.135 6.752 13.055 6.752 12.965 6.748 12.787 6.748 12.711 6.752 12.636 6.755 12.565 6.761 12.499 6.768 12.436 6.777 12.374 6.788 12.315 6.799 12.259 6.813 12.206 6.828 12.156 6.846 12.109 6.863 12.065 6.884 12.022 6.905 11.984 6.929 11.946 6.952 11.911 6.979 11.879 7.007 11.849 7.037 11.821 7.069 11.796 7.102 11.771 7.135 11.75 7.172 11.731 7.209 11.713 7.249 11.697 7.29 11.684 7.333 11.672 7.378 11.662 7.424 11.654 7.471 11.647 7.521 11.641 7.571 11.635 7.653 11.637 7.731 11.647 7.801 11.662 7.866 11.684 7.924 11.71 7.978 11.741 8.028 11.777 8.074 11.816 8.114 11.859 8.153 11.903 8.186 11.952 8.216 12.002 8.244 12.054 8.271 12.106 8.294 12.158 8.315 12.212 8.335 12.265 8.355 12.316 8.373 12.365 8.392 12.413 8.409 12.459 8.429 12.502 8.448 12.541 8.468 12.577 8.489 12.608 8.512 12.634 8.535 12.655 8.563 12.67 8.591 12.68 8.625 12.681 8.66 12.675 8.701 12.664 8.739 12.647 8.778 12.627 8.816 12.599 8.854 12.562 8.885 12.515 8.913 12.455 8.933 12.38 8.945 12.3 8.948 12.221 8.948 12.143 8.947 12.067 8.943 11.991 8.936 11.918 8.929 11.847 8.92 11.781 8.911 11.718 8.901 11.658 8.89 11.602 8.878 11.552 8.87 11.509 8.86 11.469 8.85 11.438 8.842 11.412 8.836 11.297 9.388 11.343 9.404 11.388 9.42 11.432 9.432 11.478 9.444 11.525 9.455 11.574 9.465 11.626 9.474 11.682 9.481 11.741 9.488 11.809 9.494 11.879 9.497 11.959 9.501 12.047 9.503 12.141 9.503 12.246 9.505 12.361 9.505 12.444 9.503 12.53 9.498 12.62 9.489 12.711 9.476 12.802 9.456 12.893 9.43 12.983 9.398 13.068 9.36 13.149 9.313 13.226 9.258 13.295 9.194 13.358 9.121 13.412 9.037 13.455 8.942 13.489 8.837 13.509 8.718 13.518 8.56 13.509 8.427 13.481 8.314 13.439 8.221 13.383 8.141 13.315 8.076 13.239 8.026 13.159 7.984 13.074 7.949 12.984 7.919 12.896 7.893 12.813 7.866 12.733 7.839 12.659 7.808 12.596 7.772 12.541 7.725 12.515 7.692 12.495 7.66 12.481 7.625 12.474 7.592 12.474 7.561"/><path d="M11.4052574 7.60965408L11.3959301 7.53270419 11.3807733 7.45925203 11.3632847 7.38929758 11.3411324 7.32400677 11.3154825 7.2657114 11.2851689 7.20858194 11.2536894 7.15844793 11.2187122 7.10831391 11.1790713 7.06517534 11.1382646 7.02553449 11.0939601 6.98705954 11.0496556 6.95208232 11.0006875 6.92293464 10.9528853 6.89378696 10.9027513 6.87046881 10.8502854 6.84831657 10.7966537 6.82849614 10.7418561 6.81333935 10.6882243 6.79934846 10.6345926 6.78768939 10.578629 6.77603031 10.5249973 6.76903487 10.4701996 6.76437124 10.4165679 6.76087352 10.3641021 6.75737579 10.3128022 6.75737579 10.200875 6.76087352 10.0971093 6.76786896 9.99567535 6.77952803 9.90123685 6.79818255 9.81262789 6.81916888 9.72868256 6.84598475 9.64823496 6.87513244 9.57361689 6.90661194 9.50366244 6.94392097 9.43837163 6.98239591 9.37657854 7.02553449 9.32061499 7.06983897 9.26698325 7.11647526 9.21801514 7.16544337 9.17371066 7.21674329 9.131738 7.2657114 9.09442896 7.31934314 9.05945174 7.37297488 9.02680633 7.42777253 8.99765865 7.48140427 8.97084278 7.53736782 8.94752463 7.59099956 8.9265383 7.64346539 8.90788378 7.69826304 8.89272699 7.75072887 8.87757019 7.80086288 8.86474521 7.8509969 8.85541795 7.89763319 8.84609069 7.94426949 8.83909525 7.98624215 8.83326571 8.02821482 8.82743617 8.06552385 8.81810891 8.17045552 8.81461119 8.27305536 8.81461119 8.36632795 8.82160664 8.45960054 8.83326571 8.54704359 8.84958841 8.6274912 8.87057475 8.70444109 8.89622471 8.77905916 8.9265383 8.84784769 8.96034961 8.9119726 8.99765865 8.97143387 9.03846541 9.02972924 9.08160398 9.08336098 9.13057209 9.13232909 9.1807061 9.17896539 9.23317194 9.22093805 9.28913549 9.25941299 9.34509904 9.29439021 9.40456032 9.32586971 9.46635341 9.3561833 9.52931241 9.38299917 9.5922714 9.40631732 9.65756222 9.42497184 9.72285303 9.44479226 9.78930975 9.45994906 9.85576647 9.47393995 9.92222319 9.48559902 9.99101172 9.49376037 10.0574684 9.50075582 10.1227593 9.50308763 10.189216 9.50658535 10.3442817 9.50658535 10.4258952 9.50425354 10.5005132 9.50425354 10.56697 9.49958991 10.628763 9.49725809 10.6858925 9.49142856 10.7383583 9.48559902 10.7873264 9.48093539 10.8339627 9.47160813 10.8771013 9.46344678 10.9179081 9.45178771 10.9587148 9.43779682 10.9995216 9.42264002 11.0391624 9.40748323 11.082301 9.3876628 11.1254396 9.36667647 11.2396985 8.74524785 11.1604168 8.78838642 11.0846328 8.82686136 11.006517 8.85950677 10.931899 8.88515673 10.8572809 8.90847488 10.7838287 8.92596349 10.7092107 8.93762256 10.6369244 8.94928163 10.5658041 8.95394526 10.4935178 8.95744299 10.4247293 8.95744299 10.3536089 8.95627708 10.2848204 8.95277936 10.2160318 8.94694982 10.1484092 8.93762256 10.0819525 8.92946121 10.0259889 8.91780214 9.97002539 8.89914762 9.91872546 8.87582947 9.86742554 8.84784769 9.82078925 8.81403638 9.77881658 8.77905916 9.73800982 8.7382524 9.7030326 8.69627974 9.6715531 8.65197526 9.64473723 8.60767078 9.62258499 8.56103448 9.6074282 8.51323228 9.59576913 8.46659599 9.5922714 8.41995969 9.59460322 8.37565521 9.60159866 8.34067799 11.3248097 8.34067799 11.3551233 8.18444641 11.3772756 8.07601702 11.3935983 7.97108536 11.4029255 7.87431505 11.4087551 7.78104246 11.4087551 7.6924335 11.4052574 7.61081998 11.4052574 7.60965408zM10.6719016 7.78454018L10.6660721 7.8509969 9.69836897 7.8509969 9.70769623 7.8043606 9.72052121 7.75072887 9.73567801 7.69826304 9.75433253 7.64812902 9.77648477 7.60265863 9.80213473 7.55952006 9.83128241 7.5187133 9.861596 7.48140427 9.89540732 7.44642704 9.93038454 7.41727936 9.96885948 7.38929758 10.0096662 7.36597944 10.0528048 7.34615901 10.0971093 7.33333403 10.1460774 7.32400677 10.1938796 7.31817723 10.2463454 7.31817723 10.2941476 7.32050905 10.3407839 7.32517268 10.3850884 7.33683175 10.428227 7.35082264 10.4678678 7.36831125 10.5051769 7.38929758 10.5401541 7.41611345 10.5716336 7.44759295 10.5996154 7.48257017 10.6240994 7.52221102 10.6427539 7.5653496 10.6567448 7.61198589 10.6684039 7.66445172 10.6719016 7.72274709 10.6719016 7.78337427 10.6719016 7.78454018zM8.86124749 7.52221102L8.86008158 7.42660662 8.84259297 7.33799766 8.81344529 7.25521824 8.77147262 7.17943426 8.7201727 7.11064572 8.65837961 7.04885263 8.58959107 6.99288908 8.514973 6.94392097 8.43685721 6.90194831 8.35291188 6.86463927 8.27013245 6.83432568 8.18618712 6.81100753 8.10224179 6.79235301 8.02179419 6.78069394 7.94601021 6.7748644 7.85273762 6.77253259 7.43301097 6.77253259 7.35606108 6.77719622 7.28144301 6.78069394 7.20915675 6.78768939 7.13803641 6.79585074 7.07157969 6.80750981 7.00628887 6.81916888 6.94332988 6.83432568 6.8838686 6.8541461 6.82440733 6.87746425 6.76844377 6.9007824 6.57723496 7.49889288 6.60521674 7.48257017 6.64485759 7.46857928 6.6938257 7.4545884 6.74978925 7.44176342 6.81508007 7.42660662 6.8838686 7.41494755 6.95965258 7.40328847 7.04010019 7.3916294 7.12404552 7.38346805 7.20915675 7.37414079 7.29426799 7.36714534 7.38054514 7.36248171 7.46565637 7.35665218 7.5496017 7.35432036 7.63004931 7.35315446 7.70583329 7.35548627 7.73731279 7.35898399 7.76879229 7.36364762 7.80027179 7.37064307 7.83058538 7.37997033 7.85856716 7.3916294 7.88654893 7.40562029 7.91103299 7.42077708 7.93551704 7.43826569 7.95766928 7.45925203 7.9763238 7.48023836 7.99497832 7.50355651 8.01013511 7.52687465 8.02179419 7.55369052 8.03112145 7.5816723 8.03695098 7.61198589 8.0404487 7.64346539 8.0404487 7.68776987 8.03112145 7.73673798 8.01829646 7.77871064 8.01246693 7.79619925 7.99148059 7.79619925 7.97748971 7.79503335 7.95883519 7.79503335 7.93901476 7.79270153 7.91453071 7.79270153 7.88888075 7.79036972 7.82825356 7.79036972 7.79910588 7.78920381 7.76762638 7.78920381 7.73381507 7.78687199 7.60906298 7.78687199 7.57408576 7.78920381 7.53444491 7.78920381 7.49363815 7.79503335 7.44933367 7.79853107 7.40269738 7.80086288 7.3583929 7.80669242 7.31292251 7.81019014 7.26861803 7.81368786 7.22781127 7.8195174 7.19050224 7.82184922 7.15902274 7.82534694 7.13104096 7.82884466 7.11122054 7.83117647 7.09722965 7.83350829 7.09373193 7.83350829 7.00279115 7.84866508 6.91301628 7.86965142 6.82557323 7.8987991 6.740462 7.93377632 6.65884848 7.97458308 6.58073269 8.02121937 6.50728052 8.0725193 6.43849199 8.12964876 6.37786481 8.19493957 6.31956944 8.26489401 6.27176724 8.33718027 6.22862866 8.41529606 6.19365144 8.5004073 6.16916739 8.59018217 6.15284468 8.68345476 6.14468333 8.78139097 6.14701515 8.83502271 6.15051287 8.89098627 6.15750831 8.94928163 6.16916739 9.0064111 6.18549009 9.06470646 6.20647642 9.12067002 6.23212639 9.17430176 6.26360588 9.22676759 6.30091492 9.28039933 6.3452194 9.32703562 6.39535342 9.37367191 6.45481469 9.41447867 6.52127141 9.45178771 6.59705539 9.48443311 6.68100072 9.5135808 6.77543922 9.53456713 6.84772547 9.5462262 6.92234354 9.55088983 6.99812752 9.54855802 7.07624332 9.54272848 7.15435911 9.53223532 7.2324749 9.51824443 7.3105907 9.498424 7.38637467 9.47510586 7.45866093 9.44828999 7.52978128 9.42030821 7.596238 9.3876628 7.65803109 9.3550174 7.71516055 9.32004018 7.76529457 9.28273114 7.80959905 9.2442562 7.84457627 9.20578125 7.83758082 9.21744033 7.83058538 9.23842666 7.82475584 9.26990616 7.8177604 9.30721519 7.81076495 9.35151967 7.80376951 9.39815597 7.79677407 9.45178771 7.78977862 9.50425354 8.46134126 9.50425354 8.56977065 8.94461801 8.8472566 7.62714269 8.86124749 7.52221102zM7.92036025 8.31735984L7.91219889 8.35466888 7.90520345 8.39314382 7.89820801 8.43511649 7.88888075 8.47942097 7.87955349 8.52139363 7.87022623 8.56220039 7.86089897 8.60067533 7.85157171 8.6274912 7.83991264 8.65547298 7.82475584 8.68345476 7.80610132 8.71260244 7.78394908 8.74291603 7.75829912 8.77089781 7.72798553 8.8012114 7.69300831 8.82802727 7.65453337 8.85367723 7.60906298 8.87816129 7.55892896 8.89914762 7.50296541 8.91663623 7.44233823 8.93295893 7.37238379 8.94461801 7.30009753 8.95161345 7.21848401 8.95394526 7.17417953 8.95161345 7.12754324 8.9434521 7.08440467 8.92596349 7.04359791 8.89914762 7.0097866 8.86067268 6.98763436 8.80820684 6.97480938 8.74175012 6.9783071 8.65547298 6.98763436 8.61350031 7.00279115 8.57269356 7.02144567 8.53538452 7.04709563 8.50273911 7.07507741 8.47125962 7.10655691 8.44211193 7.14036822 8.41529606 7.17534544 8.39197792 7.21032266 8.37215749 7.24529988 8.35233707 7.2802771 8.33601436 7.3117566 8.32435529 7.34207019 8.31269621 7.37005197 8.30336896 7.39220421 8.29637351 7.40852691 8.2940417 7.43884051 8.28471444 7.47381773 8.27538718 7.51345858 8.26955764 7.55426533 8.2625622 7.59740391 8.25556675 7.64054248 8.25090312 7.68368105 8.24390768 7.72681962 8.24040996 7.80726723 8.24040996 7.84107855 8.24274177 7.87255804 8.2462395 7.8970421 8.25206903 7.91569662 8.26023038 7.92735569 8.27188946 7.9296875 8.28588035 7.92036025 8.31735984z"/><polygon points="5.091 6.197 4.229 8.167 4.104 6.197 2.839 6.197 2.227 9.505 2.955 9.505 3.414 7.028 3.443 7.028 3.451 7.149 3.468 7.438 3.492 7.837 3.52 8.288 3.548 8.736 3.572 9.126 3.589 9.403 3.596 9.505 4.411 9.505 5.494 7.028 5.522 7.028 5.063 9.505 5.79 9.505 6.404 6.197"/></g></svg>