<svg width="24" height="25" viewBox="0 0 24 25" xmlns="http://www.w3.org/2000/svg"><g fill="#0B1F35" fill-rule="evenodd"><path d="M12.12 18.32h-.24a7.85 7.85 0 0 0 3.79 1 7.43 7.43 0 0 0 7.58-7.28 7.43 7.43 0 0 0-7.58-7.25 7.85 7.85 0 0 0-3.79 1h.24a7.85 7.85 0 0 0-3.79-1 7.43 7.43 0 0 0-7.58 7.25 7.43 7.43 0 0 0 7.58 7.25 7.85 7.85 0 0 0 3.79-.97zM11.3 6.56v-.43a7.31 7.31 0 0 0-2.6 3.09l-.1.24.24.1.56.23.22.09.1-.22a6.24 6.24 0 0 1 2.43-2.78h-.26a6.24 6.24 0 0 1 2.41 2.76l.1.22.22-.09.56-.23.24-.1-.1-.24a7.32 7.32 0 0 0-2.59-3.08v.43a6.72 6.72 0 0 1 3-.69 6.33 6.33 0 0 1 6.41 6.18 6.33 6.33 0 0 1-6.47 6.17 6.72 6.72 0 0 1-3-.69v.43a7.31 7.31 0 0 0 2.6-3.09l.1-.24-.24-.1-.56-.23-.22-.09-.1.22a6.24 6.24 0 0 1-2.43 2.78h.26a6.24 6.24 0 0 1-2.38-2.76l-.1-.22-.22.09-.56.23-.24.1.1.24a7.31 7.31 0 0 0 2.59 3.08v-.43a6.72 6.72 0 0 1-3 .69 6.33 6.33 0 0 1-6.41-6.18 6.33 6.33 0 0 1 6.47-6.17 6.73 6.73 0 0 1 2.97.69z" fill-rule="nonzero"/><path d="M13.51 11.703l.011-.03.018-.029.023-.026.028-.024.035-.023.037-.019.043-.016.047-.015.052-.012.055-.006.077-.006.07-.003.063-.003h.057l.051.003.048.003.042.004.04.005.04.005.035.004.035.006.034.006.034.004.034.005.039.003.038.003.138-.584-.022-.002-.023-.004-.025-.004-.026-.004-.031-.004-.036-.005-.038-.004-.045-.006-.046-.003-.056-.006-.061-.003-.067-.005-.076-.004H14.1l-.092-.003h-.183l-.078.003-.077.004-.072.006-.069.007-.064.01-.064.01-.06.012-.058.015-.054.015-.051.018-.048.018-.045.022-.045.021-.04.024-.037.024-.036.027-.034.03-.03.03-.028.033-.027.034-.025.034-.021.038-.02.037-.019.042-.016.042-.013.044-.012.045-.011.048-.009.048-.007.051-.006.052-.006.084.003.08.01.071.015.067.023.06.026.055.032.052.037.046.04.042.044.04.045.033.05.031.052.029.053.027.053.024.054.022.055.02.054.02.053.02.05.019.049.018.048.02.044.02.04.02.037.02.032.025.026.024.022.028.015.03.01.034v.036l-.005.042-.01.039-.019.04-.02.039-.029.038-.038.033-.048.028-.062.02-.077.012-.082.004h-.08l-.08-.001-.078-.004-.079-.007-.074-.007-.073-.01-.068-.01-.065-.009-.06-.012-.058-.012-.052-.008-.044-.01-.04-.01-.033-.009-.026-.006-.118.566.047.017.046.016.045.012.047.012.049.012.05.01.053.01.057.007.061.007.07.006.071.003.083.004.09.002h.096l.108.003h.118l.085-.003.089-.005.092-.01.093-.012.093-.02.094-.028.092-.032.087-.04.084-.048.079-.056.07-.066.065-.075.055-.086.044-.097.035-.108.02-.121.01-.163-.01-.136-.029-.116-.043-.096-.057-.081-.07-.067-.077-.052-.083-.043-.087-.036-.092-.03-.09-.027-.086-.028-.081-.027-.077-.032-.064-.037-.057-.048-.026-.034-.02-.033-.015-.036-.007-.034v-.032l.006-.031zm1.99 1.265l.254-1.435.483.009.107-.577h-.472l.118-.63h-.766l-.51 2.82-.01.064-.005.06-.003.057.003.052.007.051.014.045.02.04.03.04.035.033.045.03.053.028.062.021.076.02.085.015.098.01.109.008h.205l.046-.005.044-.006.038-.006.036-.005.035-.005.032-.006.029-.006.026-.006.028-.008.022-.007.023-.006.022-.008.02-.01.021-.008.02-.01.02-.01.079-.492-.006.002-.016.007-.025.009-.032.01-.042.008-.049.008-.054.004h-.093l-.032-.003-.031-.001-.03-.006-.028-.005-.026-.006-.023-.01-.023-.009-.019-.012-.018-.014-.013-.018-.01-.018-.009-.022-.004-.023v-.027l.004-.03zm-5.701-1.273l-.002-.098-.018-.091-.03-.085-.042-.078-.053-.07-.063-.064-.071-.057-.077-.05-.08-.043-.086-.039-.085-.03-.086-.025-.086-.019-.082-.012-.078-.006-.096-.002h-.43l-.08.005-.076.003-.074.007-.073.009-.068.012-.067.012-.064.015-.061.02-.061.024-.058.024-.196.614.029-.017.04-.014.05-.015.058-.013.067-.015.07-.012.078-.012.083-.012.086-.009.087-.01.087-.006.089-.005.087-.006.086-.003h.083l.078.002.032.003.032.005.032.007.032.01.028.012.029.014.025.016.025.018.023.021.019.022.02.024.015.023.012.028.01.029.005.03.004.033v.045l-.01.05-.013.044-.006.018h-.021l-.015-.002h-.019l-.02-.002h-.025L8.8 11.97H8.74l-.03-.002h-.032l-.035-.002h-.128l-.036.002h-.04l-.042.006-.045.004-.048.002-.046.006-.046.004-.046.004-.042.006-.038.002-.032.004-.029.003-.02.003-.015.002h-.003l-.093.015-.093.022-.09.03-.087.036-.083.042-.08.047-.076.053-.07.059-.062.067-.06.071-.05.074-.043.08-.036.088-.025.092-.017.096-.009.1.003.055.003.057.008.06.012.059.016.06.022.057.026.055.032.054.039.055.045.048.052.048.06.041.069.039.077.033.087.03.096.022.075.012.076.004.078-.002.08-.006.08-.01.08-.015.08-.02.078-.024.074-.028.073-.029.068-.033.064-.034.058-.035.052-.039.045-.04.036-.039-.007.012-.007.022-.006.032-.008.038-.007.046-.007.048-.007.055-.007.053h.688l.112-.574.284-1.35.015-.108zm-.965.815l-.009.038-.007.04-.007.043-.01.045-.01.043-.009.042-.01.04-.009.027-.012.029-.015.029-.02.03-.022.03-.027.03-.03.03-.037.028-.039.026-.047.025-.051.022-.057.018-.063.017-.071.011-.075.008-.083.002-.046-.002-.048-.009-.044-.018-.042-.027-.034-.04-.023-.053-.013-.069.003-.088.01-.043.016-.042.019-.038.026-.034.029-.032.032-.03.035-.027.036-.024.035-.02.036-.021.036-.017.032-.012.032-.012.028-.01.023-.006.017-.003.03-.01.037-.009.04-.006.042-.007.044-.007.045-.005.044-.007.044-.004h.083l.034.003.033.003.025.006.019.009.012.012.002.014-.01.032zM5.93 10.335l-.883 2.02-.128-2.02H3.622l-.627 3.394h.746l.471-2.541h.03l.008.124.017.297.025.409.029.462.028.46.024.4.018.283.008.106h.835l1.111-2.541h.029l-.471 2.54h.746l.629-3.393H5.93zm12.084 1.318l.012.001.015.002h.016l.013.002.01.002.009.001h.004v-.01l.01-.03.009-.048.015-.059.02-.066.02-.071.025-.073.029-.07.02-.049.025-.05.025-.048.026-.045.023-.038.02-.03.012-.02.005-.008h-.005l-.01-.003-.012-.002-.02-.003-.019-.004-.022-.002-.02-.004h-.02l-.085.006-.075.009-.07.015-.066.016-.061.021-.055.024-.054.028-.048.03-.048.037-.043.035-.04.04-.042.044-.04.046-.038.047-.04.05-.04.054.09-.465-.778-.007-.51 2.77h.776l.265-1.465.011-.058.014-.055.015-.056.019-.053.021-.051.027-.048.032-.048.037-.045.043-.04.05-.035.059-.033.066-.028.075-.024.086-.018.096-.011.106-.007h.01zm1.47-.722l-.083.003-.08.009-.078.01-.077.013-.074.017-.073.02-.07.02-.067.025-.067.027-.065.033-.063.033-.059.036-.057.04-.055.041-.054.046-.049.047-.048.048-.045.055-.042.055-.04.06-.039.06-.035.062-.03.066-.028.07-.025.07-.023.071-.02.077-.016.078-.013.081-.01.084-.006.086-.002.084.002.083.006.08.01.077.013.073.017.072.021.071.023.066.026.063.03.061.034.06.034.055.041.055.04.05.046.048.046.047.05.043.054.04.053.038.058.033.058.032.061.03.064.027.067.024.067.021.068.018.073.014.073.012.074.012.074.006.078.004.077.002.078-.002.078-.004.076-.006.077-.01.073-.011.073-.016.073-.018.068-.021.068-.024.065-.026.064-.03.064-.033.058-.033.059-.038.055-.042.054-.043.051-.048.05-.048.048-.053.044-.055.041-.057.04-.06.034-.065.035-.067.029-.071.026-.072.025-.076.02-.08.016-.083.013-.084.012-.088.006-.091.002-.076-.002-.076-.004-.073-.007-.07-.012-.07-.015-.069-.017-.067-.022-.063-.024-.065-.028-.06-.029-.06-.035-.056-.035-.054-.039-.05-.042-.051-.045-.048-.048-.045-.05-.04-.054-.04-.056-.038-.057-.033-.064-.031-.063-.029-.067-.027-.07-.024-.071-.02-.074-.017-.077-.015-.08-.012-.083-.006-.083-.006-.086-.002-.082.004zm.213.61l.058.01.054.015.049.023.044.03.04.035.035.04.031.046.025.053.022.055.015.06.01.064.006.068v.072l-.006.074-.01.078-.016.1-.02.091-.025.084-.032.078-.03.07-.037.065-.038.057-.04.05-.046.046-.048.038-.051.032-.053.025-.057.02-.059.013-.063.007-.065.002-.059-.003-.055-.006-.053-.016-.048-.02-.044-.024-.04-.034-.036-.038-.032-.045-.026-.052-.022-.057-.018-.063-.012-.072-.006-.08v-.084l.006-.094.012-.1.012-.06.013-.062.02-.06.022-.062.025-.06.031-.058.035-.057.04-.055.043-.05.047-.046.054-.04.058-.035.063-.028.067-.021.073-.012.078-.006h.06zm-7.29.243l-.01-.079-.015-.075-.018-.072-.023-.067-.026-.06-.031-.058-.033-.051-.036-.052-.04-.044-.042-.04-.046-.04-.045-.036-.05-.03-.05-.03-.05-.024-.054-.022-.055-.02-.057-.016-.055-.015-.055-.012-.057-.012-.055-.007-.056-.005-.055-.003-.054-.004h-.053l-.114.004-.107.007-.104.012-.097.02-.09.02-.087.028-.082.03-.077.032-.072.039-.067.039-.063.044-.057.046-.055.048-.05.05-.046.052-.043.05-.038.056-.036.055-.034.056-.03.055-.027.057-.024.055-.021.054-.02.056-.015.054-.016.051-.013.052-.01.048-.009.048-.007.043-.006.043-.006.038-.01.108-.003.105v.095l.007.096.012.09.017.082.021.08.026.076.032.07.034.066.038.061.042.06.045.055.05.05.051.048.054.043.057.04.058.035.06.033.064.03.065.028.064.024.067.02.067.02.068.015.069.014.068.012.07.009.068.007.067.002.069.004h.159l.083-.003h.077l.068-.004.063-.003.059-.006.054-.006.05-.004.048-.01.044-.008.042-.012.042-.015.042-.015.04-.016.045-.02.044-.022.117-.637-.081.044-.078.04-.08.033-.077.027-.076.023-.076.018-.076.012-.074.012-.073.005-.074.004h-.07l-.074-.002-.07-.003-.07-.006-.07-.01-.068-.008-.058-.012-.057-.02-.053-.023-.052-.029-.048-.034-.043-.036-.042-.042-.036-.043-.032-.046-.028-.045-.023-.048-.015-.049-.012-.048-.004-.048.003-.045.007-.036h1.767l.031-.16.023-.111.017-.108.01-.1.005-.095v-.09l-.003-.084v-.002zm-.752.18l-.006.068h-.993l.01-.048.013-.055.015-.054.02-.051.022-.047.027-.044.03-.042.03-.038.035-.036.036-.03.04-.029.041-.024.045-.02.045-.013.05-.01.05-.006h.053l.05.003.047.005.045.012.045.014.04.018.039.021.035.028.033.032.028.036.026.04.019.045.014.048.012.054.004.06v.062z"/></g></svg>