<svg xmlns="http://www.w3.org/2000/svg" width="18" height="14" viewBox="0 0 18 14"><g fill="#FFF" fill-rule="evenodd"><path d="M11.492.833c-.876 0-1.716.178-2.492.483A6.802 6.802 0 0 0 6.508.833c-3.584 0-6.5 2.754-6.5 6.14 0 3.384 2.916 6.138 6.5 6.138.876 0 1.716-.177 2.492-.482a6.802 6.802 0 0 0 2.492.482c3.584 0 6.5-2.754 6.5-6.139 0-3.385-2.916-6.139-6.5-6.139zm0 11.334a5.81 5.81 0 0 1-1.281-.156 6.217 6.217 0 0 0 2.288-2.655l-.921-.367c-.517 1.157-1.444 2.061-2.578 2.605-1.134-.545-2.061-1.448-2.578-2.605l-.921.367a6.217 6.217 0 0 0 2.288 2.655 5.81 5.81 0 0 1-1.281.156c-3.033 0-5.5-2.33-5.5-5.195 0-2.864 2.467-5.194 5.5-5.194.44 0 .866.062 1.281.156a6.21 6.21 0 0 0-2.286 2.649l.921.368C6.941 3.796 7.868 2.893 9 2.35c1.132.544 2.059 1.446 2.576 2.601l.921-.368a6.215 6.215 0 0 0-2.286-2.65 5.866 5.866 0 0 1 1.281-.154c3.033 0 5.5 2.33 5.5 5.194 0 2.865-2.467 5.195-5.5 5.195z"/><path d="M10.264 6.227l.009-.025.015-.024.019-.022.024-.02.029-.019.031-.016.036-.014.039-.012.044-.01.046-.005.064-.005.059-.003.052-.002h.048l.043.002.04.003.035.003.034.004.032.004.03.004.029.005.029.005.028.003.029.004.032.003.032.002.115-.488-.018-.002-.019-.003-.021-.003-.022-.004-.026-.003-.03-.004-.032-.004-.037-.005-.039-.002-.047-.005-.051-.003-.056-.004-.063-.003h-.069l-.077-.003h-.153l-.065.003-.064.003-.061.005-.057.006-.054.008-.053.009-.051.01-.048.012-.045.013-.043.015-.04.015-.038.018-.037.018-.033.02-.032.02-.03.023-.028.024-.025.026-.024.027-.022.029-.021.028-.018.032-.017.031-.015.035-.014.035-.011.037-.01.038-.009.04-.007.04-.006.043-.005.043-.005.07.002.067.008.06.013.056.019.05.022.046.027.043.031.039.033.035.037.033.038.028.042.026.043.024.044.023.045.02.045.018.046.017.045.017.044.016.042.016.041.015.04.017.037.016.033.017.031.018.027.02.022.02.018.024.013.024.008.029.001.03-.005.035-.009.033-.015.033-.017.033-.024.032-.032.027-.04.024-.052.017-.064.01-.069.003h-.067l-.067-.001-.065-.003-.066-.006-.062-.006-.061-.008-.057-.008-.054-.008-.051-.01-.048-.01-.043-.007-.037-.009-.034-.008-.027-.007-.022-.005-.099.473.04.014.038.014.038.01.039.01.041.01.042.008.044.008.048.006.051.006.058.005.06.003.069.003.075.002h.081l.09.002h.099l.071-.002.074-.004.077-.008.078-.011.078-.017.078-.023.077-.027.073-.033.07-.04.066-.047.059-.055.054-.063.046-.072.037-.081.029-.09.017-.102.008-.136-.008-.114-.024-.097-.036-.08-.048-.068-.058-.056-.065-.043-.069-.036-.073-.03-.077-.026-.075-.022-.072-.023-.068-.023-.064-.027-.054-.031-.047-.04-.022-.028-.017-.028-.012-.03-.006-.028v-.027zm1.664 1.058l.212-1.2.404.007.09-.482h-.395l.099-.527h-.641l-.426 2.358-.008.054-.005.05-.002.048.002.043.006.043.012.037.017.034.024.033.03.028.037.025.045.023.052.018.063.017.071.012.082.009.091.006h.172l.038-.004.037-.005.032-.005.03-.004.029-.004.027-.005.024-.005.022-.005.023-.007.019-.006.019-.005.018-.007.017-.008.018-.007.017-.008.016-.008.066-.412-.005.002-.013.006-.021.007-.027.008-.035.007-.041.007-.045.003h-.078l-.027-.002-.026-.001-.025-.005-.023-.004-.022-.005-.019-.008-.019-.008-.016-.01-.015-.012-.011-.015-.009-.015-.007-.018-.003-.02v-.022zM7.16 6.22l-.001-.082-.015-.076-.025-.071-.036-.065-.044-.059-.053-.053-.059-.048-.064-.042-.067-.036-.072-.032-.071-.026-.072-.02-.072-.016-.069-.01-.065-.005-.08-.002h-.36l-.066.004-.064.003-.062.006-.061.007-.057.01-.056.01-.054.013-.051.017-.051.02-.048.02-.164.513.024-.014.034-.012.042-.012.048-.011.056-.013.059-.01.065-.01.069-.01.072-.007.073-.008.073-.006.074-.004.073-.005.072-.002.069-.001.065.002.027.003.027.004.027.006.026.008.024.01.024.012.021.013.021.015.019.018.016.018.016.02.013.02.01.023.008.024.005.026.003.027v.038l-.008.042-.011.036-.005.015h-.018l-.012-.001h-.016l-.017-.002h-.021l-.022-.002h-.052l-.025-.001h-.027l-.029-.002h-.107l-.03.002h-.034l-.035.005-.038.003-.04.002-.038.005-.039.003-.038.003-.035.005-.032.002-.027.003-.024.003-.017.002-.012.002h-.003l-.078.013-.077.018-.075.025-.073.03-.07.035-.067.04-.063.044-.059.049-.052.056-.05.06-.041.062-.037.067-.03.073-.021.077-.014.08-.007.084.002.046.003.048.006.05.01.049.014.05.018.048.022.046.027.045.032.046.038.04.043.04.051.035.057.032.065.028.072.025.081.018.062.01.064.004.065-.002.067-.005.067-.009.067-.012.067-.017.065-.02.062-.023.061-.024.057-.028.053-.028.049-.03.043-.032.038-.033.03-.033-.006.01-.006.018-.005.027-.006.032-.006.038-.006.04-.006.046-.006.045h.576l.093-.48.238-1.13.012-.09zm-.807.682l-.007.032-.006.033-.006.036-.008.038-.008.036-.008.035-.008.033-.008.023-.01.024-.013.024-.016.025-.019.026-.022.024-.026.026-.03.023-.033.022-.039.021-.043.018-.048.015-.052.014-.06.01-.062.006-.07.002-.038-.002-.04-.007-.037-.015-.035-.023-.029-.033-.019-.045-.011-.057.003-.074.008-.036.013-.035.016-.032.022-.028.024-.027.027-.025.029-.023.03-.02.03-.017.03-.017.03-.014.027-.01.026-.01.024-.008.019-.006.014-.002.026-.008.03-.008.034-.005.035-.006.037-.006.037-.004.037-.006.037-.003h.069l.029.002.027.003.021.005.016.007.01.01.002.012-.008.027zM3.926 5.083l-.739 1.69-.107-1.69H1.995L1.47 7.921h.624l.394-2.125h.025l.007.104.014.248.021.342.024.387.024.384.02.335.015.237.006.088h.699l.929-2.125h.024l-.394 2.125h.624l.526-2.838zm10.105 1.102l.01.001.013.002h.013l.011.001.009.002.007.001h.003l.001-.008.007-.026.008-.04.013-.049.016-.055.017-.06.021-.061.024-.058.017-.041.021-.042.021-.04.022-.038.019-.032.016-.025.011-.017.004-.006h-.004l-.008-.003-.011-.001-.016-.003-.016-.003-.019-.002-.017-.003h-.016l-.071.005-.063.007-.059.013-.055.013-.051.018-.046.02-.045.023-.04.026-.04.03-.036.03-.034.033-.035.037-.033.038-.032.04-.034.042-.033.045.075-.389-.65-.006-.427 2.317h.649l.222-1.226.009-.048.012-.046.012-.047.016-.044.018-.043.022-.04.027-.04.031-.038.036-.033.042-.03.049-.027.055-.024.063-.02.072-.015.08-.009.089-.006zm1.229-.604l-.069.003-.067.007-.065.008-.064.012-.062.014-.061.016-.059.018-.056.02-.056.023-.054.027-.053.028-.049.03-.048.033-.046.035-.045.038-.041.04-.04.04-.038.046-.035.046-.034.05-.032.05-.029.052-.026.055-.023.058-.021.059-.019.06-.016.064-.014.065-.011.068-.008.07-.005.072-.002.07.002.07.005.066.008.065.011.061.014.06.018.06.019.055.022.053.024.051.029.05.029.046.034.046.034.042.038.04.038.039.042.036.045.033.045.032.048.028.049.027.051.024.053.023.056.02.056.018.057.015.061.012.061.01.062.01.062.005.065.003.065.002.065-.002.065-.003.064-.005.064-.008.061-.01.061-.013.061-.015.057-.018.057-.02.054-.022.054-.025.053-.027.049-.028.049-.032.046-.035.045-.036.043-.04.042-.04.04-.044.037-.046.034-.048.033-.051.029-.054.029-.056.024-.059.022-.06.021-.064.016-.066.014-.07.011-.07.01-.074.005-.076.002-.064-.002-.063-.003-.061-.006-.059-.01-.058-.013-.058-.014-.056-.018-.053-.02-.054-.024-.05-.024-.05-.029-.047-.03-.045-.032-.043-.035-.042-.038-.04-.04-.038-.042-.033-.045-.033-.047-.032-.048-.028-.053-.026-.053-.024-.056-.023-.059-.02-.059-.017-.062-.014-.064-.012-.067-.01-.069-.005-.07-.005-.072-.002-.068.003zm.179.511l.048.008.045.012.041.02.037.024.034.03.029.034.026.038.021.044.018.046.013.05.008.054.005.057v.06l-.005.062-.008.065-.014.084-.016.076-.021.07-.027.065-.026.059-.03.054-.032.048-.034.042-.038.038-.04.032-.043.027-.044.021-.048.017-.049.01-.053.006-.054.002-.049-.003-.046-.005-.045-.013-.04-.017-.037-.02-.033-.028-.03-.032-.027-.038-.022-.043-.018-.048-.015-.053-.01-.06-.005-.067v-.07l.005-.079.01-.084.01-.05.011-.051.016-.051.019-.051.021-.051.026-.048.029-.048.034-.046.035-.042.04-.038.045-.033.048-.03.053-.023.056-.018.061-.01.065-.005h.05zm-6.097.203l-.008-.066-.013-.063-.015-.06-.019-.056L9.265 6l-.026-.049-.027-.043-.03-.043-.034-.037-.035-.034-.038-.033-.038-.03-.042-.025-.041-.025-.043-.02-.045-.019-.046-.017-.047-.013-.046-.012-.046-.01-.048-.01-.046-.006-.047-.004-.046-.003-.045-.003h-.044l-.096.003-.089.006-.087.01-.081.016-.076.018-.072.023-.069.025-.064.027-.06.032-.056.033-.053.037-.048.038-.046.04-.042.042-.038.044L7.392 6l-.032.046-.03.046-.028.047-.025.046-.023.048-.02.046-.018.045-.016.047-.013.045-.013.043-.011.043-.008.04-.008.04-.006.036-.005.036-.005.032-.008.09-.003.088v.08l.006.08.01.075.014.069.018.066.022.064.026.059.029.055.032.051.035.05.037.046.042.042.043.04.045.036.048.033.048.03.051.027.053.026.054.023.054.02.056.016.056.017.057.013.057.012.057.01.059.007.057.006.056.002.057.003h.133l.07-.002h.064l.057-.004.053-.002.049-.005.045-.005.042-.004.04-.008.037-.007.035-.01.035-.012.035-.013.034-.013.037-.017.037-.018.098-.533-.068.037-.065.033L9 7.367l-.064.022-.064.02-.063.015-.064.01-.062.01-.061.004-.062.003h-.059L8.44 7.45l-.059-.003-.059-.005-.058-.008-.057-.007-.048-.01-.048-.016-.044-.02-.044-.024-.04-.029-.036-.03-.035-.035-.03-.036-.027-.038-.023-.038-.019-.04L7.8 7.07l-.01-.04-.003-.04.002-.038.006-.03h1.478l.026-.134.019-.093.014-.09.008-.083.005-.08v-.076l-.003-.07zm-.629.15l-.005.057h-.83l.008-.04.011-.046.013-.045.016-.043.019-.039.022-.037.025-.035.026-.032.029-.03.03-.025.033-.024.035-.02.037-.017.038-.011.042-.008.041-.005h.045l.041.002.04.004.038.01.037.012.034.015.032.018.03.023.027.027.024.03.021.034.016.037.012.04.01.045.003.05v.052z"/></g></svg>