<svg xmlns="http://www.w3.org/2000/svg" width="36" height="36" version="1" viewBox="0 0 36 36"><path fill="#0086C7" d="M12 18h12c0-.338-.023-.669-.05-1h-11.9c.028-.338.074-.67.129-1h11.64a12.147 12.147 0 0 0-.213-1H12.393c.088-.34.188-.673.304-1h10.605a11.934 11.934 0 0 0-.404-1h-9.797c.157-.342.329-.676.517-1h8.763c-.2-.345-.416-.678-.648-1h-7.466c.251-.348.521-.681.807-1h5.853a12.028 12.028 0 0 0-1.007-1h-3.838A11.954 11.954 0 0 1 18 7.619 11.924 11.924 0 0 0 12 6C5.373 6 0 11.373 0 18s5.373 12 12 12c2.188 0 4.233-.595 6-1.618a12.484 12.484 0 0 1-.628-.381h1.256c.455-.302.882-.64 1.291-1h-3.838a11.879 11.879 0 0 1-1.007-1h5.853c.286-.319.556-.652.807-1h-7.466a11.78 11.78 0 0 1-.648-1h8.763c.188-.324.36-.658.517-1h-9.797c-.15-.326-.283-.659-.404-1h10.605c.116-.327.217-.66.304-1H12.393a11.747 11.747 0 0 1-.213-1h11.64c.055-.33.102-.662.129-1H12.05c-.027-.332-.05-.663-.05-1.001z"/><path fill="#EC1C2E" fill-rule="evenodd" d="M24 6c-2.188 0-4.234.595-6 1.619-.686.397-1.327.86-1.919 1.381h3.838c.356.313.691.647 1.007 1h-5.853c-.286.319-.556.652-.807 1h7.466c.232.322.448.655.648 1h-8.763c-.188.324-.36.658-.517 1h9.797c.15.326.283.659.404 1H12.697c-.116.327-.217.66-.304 1h11.213c.085.328.156.661.213 1H12.18c-.055.33-.102.662-.129 1H23.95c.027.331.05.662.05 1H12c0 .338.023.669.05 1h11.9c-.028.338-.074.67-.129 1H12.18c.057.339.129.672.213 1h11.213c-.088.34-.188.673-.304 1H12.697c.121.341.254.674.404 1h9.797c-.157.342-.329.676-.517 1h-8.763c.2.345.416.678.648 1h7.466c-.251.348-.521.681-.807 1h-5.853c.316.353.652.687 1.007 1h3.838c-.409.36-.836.698-1.291 1H17.37c.204.135.416.258.628.381A11.934 11.934 0 0 0 24 30c6.627 0 12-5.373 12-12S30.627 6 24 6z" clip-rule="evenodd"/><path fill="#FFF" fill-rule="evenodd" d="M22.374 17.105l-.064-.003-.064-.007-.057-.009-.058-.007-.057-.009-.058-.01-.06-.009-.064-.01-.067-.006-.07-.007-.08-.006-.086-.003h-.096l-.105.003-.118.006-.128.01-.093.013-.086.019-.08.025-.07.029-.064.035-.057.038-.048.045-.038.045-.029.051-.019.054-.01.054v.058l.013.06.023.061.035.061.044.06.093.083.108.067.128.058.137.048.144.047.15.048.153.055.147.063.137.077.131.093.115.118.096.14.073.172.048.205.016.242-.016.287-.035.214-.058.192-.073.172-.093.153-.108.134-.118.115-.131.099-.141.086-.146.071-.154.057-.156.048-.156.035-.157.026-.153.015-.147.01-.143.003h-.198l-.179-.003-.163-.003-.15-.003-.137-.007-.121-.006-.115-.01-.102-.012-.096-.013-.089-.016-.083-.016-.083-.022-.077-.023-.076-.022-.077-.029-.08-.029.198-1.002.045.01.054.016.067.016.073.019.087.016.095.022.102.019.109.02.115.015.121.016.125.013.13.013.131.006.134.004h.134l.138-.007.127-.022.106-.035.079-.051.064-.058.048-.067.035-.07.029-.07.019-.07.01-.074-.004-.064-.016-.06-.025-.051-.035-.051-.045-.045-.054-.042-.061-.038-.067-.035-.073-.035-.08-.035-.083-.032-.083-.032-.089-.035-.09-.035-.092-.039-.09-.038-.089-.041-.089-.048-.086-.051-.083-.055-.077-.06-.073-.07-.067-.074-.061-.083-.054-.089-.045-.099-.038-.105-.026-.119-.016-.127-.003-.141.01-.15.009-.092.013-.089.013-.087.019-.083.019-.079.022-.08.029-.074.029-.073.035-.067.035-.067.041-.061.045-.06.048-.058.051-.054.054-.051.061-.048.064-.045.067-.041.073-.038.077-.039.08-.032.086-.032.089-.025.096-.026.102-.022.105-.019.109-.016.115-.013.121-.009.128-.007.131-.006h.306l.153.003.137.003.128.007.112.006.102.006.092.01.08.006.074.01.063.009.061.007.051.009.045.007.041.006.039.007.035.003-.23 1.034z" clip-rule="evenodd"/><path fill="#FFF" d="M23.424 14.97h1.283l-.198 1.117h.788l-.178 1.018-.808-.016-.424 2.543-.007.055v.048l.007.041.012.038.02.032.022.032.029.026.032.019.038.019.038.016.045.013.045.006.051.01.051.003.054.003h.156l.09-.006.083-.013.07-.016.054-.016.042-.016.025-.013.01-.003-.131.871-.032.02-.035.015-.035.016-.035.016-.035.013-.039.013-.038.013-.045.012-.044.013-.048.01-.055.009-.057.01-.061.01-.064.009-.073.01-.077.009h-.344l-.182-.013-.163-.019-.143-.025-.125-.035-.105-.039-.09-.047-.073-.055-.061-.06-.048-.067-.035-.074-.022-.08-.013-.089-.003-.093.003-.102.01-.105.016-.115.852-4.991z"/><path fill="none" d="M17.456 17.852v-.112l-.007-.105-.019-.096-.025-.086-.032-.08-.042-.07-.047-.064-.055-.058-.06-.047-.064-.039-.067-.032-.074-.025-.076-.019-.08-.01-.083-.003h-.089l-.083.013-.083.016-.077.025-.073.035-.071.042-.067.048-.06.054-.058.064-.051.067-.048.073-.044.08-.039.083-.032.089-.025.096-.022.099-.016.083h1.659z"/><path fill="#FFF" d="M18.713 17.536l-.016-.14-.025-.134-.029-.125-.038-.118-.045-.109-.051-.102-.054-.093-.061-.089-.067-.08-.07-.073-.077-.067-.077-.064-.083-.054-.083-.051-.086-.045-.089-.038-.093-.035-.093-.029-.093-.026-.093-.022-.096-.019-.093-.013-.093-.01-.093-.006-.089-.006h-.086l-.192.006-.179.013-.172.022-.163.032-.153.038-.144.048-.137.055-.128.057-.121.067-.112.07-.105.077-.096.083-.093.083-.083.089-.077.093-.073.093-.064.096-.061.099-.054.099-.051.099-.045.099-.042.099-.035.096-.032.099-.025.096-.026.093-.022.089-.016.086-.016.083-.013.077-.01.077-.01.067-.016.192-.006.185v.172l.013.166.019.16.029.147.035.14.045.134.051.125.057.118.064.109.07.105.073.096.083.089.086.083.089.077.096.07.096.064.102.057.105.054.109.048.108.042.112.035.112.035.115.025.115.025.115.019.118.016.115.013.112.006.115.006h.265l.14-.003h.128l.115-.006.105-.003.099-.01.089-.01.083-.01.08-.016.073-.016.07-.019.07-.026.07-.025.067-.029.073-.035.073-.038.198-1.133-.134.077-.131.07-.134.057-.128.048-.128.042-.128.032-.128.022-.125.019-.121.01-.125.006h-.118l-.115-.005-.118-.006-.118-.013-.115-.016-.115-.016-.096-.022-.096-.032-.089-.042-.086-.051-.08-.061-.073-.064-.07-.073-.061-.077-.054-.08-.045-.083-.038-.086-.025-.086-.019-.083-.006-.086.003-.08.013-.064h2.955l.051-.281.038-.198.029-.188.016-.179.009-.169v-.16l-.007-.148zm-1.257.316l-.01.121h-1.659l.016-.083.022-.099.025-.096.032-.089.038-.083.045-.08.048-.073.051-.067.057-.064.061-.054.067-.048.07-.041.073-.035.077-.025.083-.016.083-.013h.089l.083.003.08.01.077.019.073.026.067.032.064.038.061.048.054.057.048.064.042.07.032.08.025.086.019.096.006.105v.111z"/><path fill="#FFF" fill-rule="evenodd" d="M14.347 17.204l-.029-.163-.051-.15-.07-.137-.089-.124-.105-.112-.118-.102-.128-.089-.134-.077-.144-.067-.144-.054-.144-.041-.144-.035-.137-.019-.13-.014-.16-.003-.153-.003h-.434l-.134.003-.131.006-.128.006-.125.013-.121.016-.115.019-.112.022-.109.029-.102.035-.102.042-.096.045-.329 1.085.048-.029.067-.025.083-.026.099-.025.112-.026.118-.022.131-.019.137-.022.144-.016.147-.016.147-.013.147-.01.147-.01.144-.003.137-.003.131.003.054.006.054.01.054.013.051.016.048.022.048.026.041.025.042.032.038.038.032.038.032.041.025.045.022.048.016.051.01.054.006.057v.08l-.016.089-.022.077-.01.032h-.033l-.026-.003h-.032l-.035-.003h-.042l-.045-.003h-.101l-.051-.003h-.054l-.057-.003h-.213l-.061.003-.067.003-.07.006-.077.006-.08.006-.077.01-.077.006-.077.006-.07.01-.064.006-.054.006-.048.006-.035.003-.022.003h-.006l-.156.029-.153.038-.15.051-.147.064-.14.073-.134.086-.125.093-.118.105-.105.118-.099.124-.083.134-.073.144-.061.153-.041.163-.029.169-.013.179.003.099.005.105.013.105.019.102.029.105.035.102.045.099.054.096.064.096.077.086.086.083.102.073.115.067.131.061.144.051.163.038.125.019.128.01.131-.003.134-.01.134-.019.134-.025.134-.035.131-.042.124-.048.121-.051.115-.057.105-.061.099-.064.086-.067.077-.07.061-.07-.013.022-.013.038-.01.057-.013.067-.013.08-.013.086-.013.096-.013.096h1.152l.182-1.018.475-2.397.026-.188-.003-.171zm-1.611 1.618l-.013.067-.013.07-.013.077-.016.08-.016.076-.016.074-.016.07-.016.048-.019.051-.026.051-.032.054-.038.054-.045.051-.051.054-.061.048-.067.048-.077.045-.086.038-.096.032-.105.029-.118.022-.124.013-.14.003-.077-.003-.08-.016-.073-.032-.07-.048-.057-.07-.038-.096-.022-.121.006-.156.016-.077.025-.073.032-.067.045-.061.048-.057.054-.051.057-.048.061-.045.061-.035.061-.035.061-.029.054-.022.051-.022.048-.016.038-.013.029-.006.051-.016.057-.016.067-.013.07-.013.073-.013.073-.01.077-.01.073-.006h.137l.057.003.054.006.042.01.032.016.019.019.003.025-.011.062zm-8.518 2.157H2.97l1.05-6.009h2.17l.214 3.577 1.477-3.577h2.254l-1.054 6.009H7.834l.788-4.5h-.048l-1.858 4.5H5.319l-.013-.188-.029-.501-.041-.709-.048-.813-.048-.821-.042-.724-.028-.524-.013-.22h-.064.013l-.788 4.5zm20.85 0h1.298l.444-2.594.019-.103.023-.099.025-.098.032-.093.035-.093.045-.086.054-.083.061-.079.073-.071.083-.064.099-.057.108-.051.128-.042.144-.031.159-.02.179-.012h.016l.019.003.026.003h.025l.023.003.019.003.012.004h.007l.003-.02.013-.054.016-.083.025-.105.032-.118.035-.128.042-.127.048-.122.035-.089.041-.086.042-.086.044-.08.039-.067.032-.055.022-.035.006-.012h-.006l-.016-.007-.022-.003-.032-.006-.032-.007-.038-.003-.035-.006h-.032l-.141.009-.128.016-.118.026-.108.028-.102.039-.093.041-.089.051-.08.055-.08.06-.073.067-.067.07-.07.077-.067.08-.064.086-.067.089-.067.093.15-.82-1.299-.016-.855 4.908z" clip-rule="evenodd"/><path fill="#FFF" d="M33.088 18.212l-.006-.131-.013-.124-.019-.125-.025-.121-.029-.118-.035-.112-.038-.112-.048-.105-.048-.105-.058-.099-.061-.096-.064-.089-.07-.089-.077-.083-.08-.08-.083-.073-.089-.07-.096-.067-.096-.061-.105-.054-.105-.051-.112-.048-.118-.041-.118-.035-.124-.032-.128-.026-.134-.019-.137-.013-.14-.01-.144-.003-.137.003-.137.006-.134.016-.131.016-.128.026-.125.029-.121.035-.118.038-.112.045-.112.048-.109.057-.105.057-.099.064-.096.07-.093.073-.089.08-.082.087-.08.086-.077.096-.07.096-.067.105-.064.105-.057.112-.051.118-.048.121-.042.125-.038.131-.032.134-.029.137-.022.144-.016.147-.01.153-.003.15.003.147.01.14.016.137.022.131.029.128.035.124.038.118.045.112.048.108.057.105.057.099.067.096.067.089.077.086.077.08.083.077.089.07.089.067.096.061.099.057.102.051.105.048.112.042.112.038.115.032.121.025.121.022.124.019.125.013.131.006.131.003.131-.003.131-.006.128-.013.128-.016.121-.022.121-.026.121-.032.115-.038.115-.041.108-.048.108-.051.105-.057.099-.061.099-.067.093-.073.089-.077.086-.083.083-.086.08-.093.073-.099.067-.102.067-.109.057-.115.057-.118.048-.125.045-.131.042-.134.032-.14.029-.147.022-.15.019-.156.01-.163.003-.134-.001-.133zm-1.535-.096l-.01.131-.016.137-.029.175-.032.163-.041.15-.048.137-.051.124-.061.115-.064.102-.067.089-.077.08-.08.067-.086.057-.089.045-.096.035-.099.022-.105.013-.108.003-.099-.006-.093-.013-.089-.025-.08-.035-.073-.045-.067-.057-.061-.067-.054-.08-.045-.093-.035-.102-.029-.112-.019-.128-.01-.14v-.15l.01-.166.019-.179.019-.105.022-.109.032-.108.038-.109.041-.108.051-.102.057-.102.067-.096.07-.089.08-.08.089-.07.096-.064.105-.048.112-.038.121-.022.131-.01h.105l.096.016.089.026.083.041.073.051.067.064.057.07.051.083.041.093.035.099.025.109.016.112.01.121v.128z"/></svg>