<svg xmlns="http://www.w3.org/2000/svg" width="24" height="16" viewBox="0 0 24 16"><g fill="none" fill-rule="evenodd"><path d="M0-4h24v24H0z"/><g fill="#0B1F35" opacity=".4"><path d="M4.063 7.13h-.004l-.481 2.625h-.763l.642-3.505h1.326l.13 2.087.903-2.087h1.378L6.55 9.755h-.763l.482-2.624h-.03L5.105 9.755H4.25l-.007-.11-.018-.292L4.2 8.94l-.03-.474-.029-.479-.026-.423-.017-.305-.008-.128h-.027zm3.043 1.31l.06-.074.064-.069.072-.06.077-.055.082-.05.085-.043.09-.037.092-.03L7.82 8l.096-.019h.004l.013-.001.022-.002.029-.004.033-.003.04-.004.042-.005.047-.004.047-.003.047-.006.049-.004.047-.003.043-.004.04-.002.038-.001h.13l.035.001h.033l.031.002h.061l.028.002h.026l.021.002h.02l.016.001h.022l.006-.018.013-.045.01-.052V7.78l-.003-.033-.007-.032-.01-.03-.013-.027-.016-.026-.02-.024-.019-.023-.023-.022-.026-.018-.025-.016-.03-.015-.028-.013-.032-.009-.033-.008-.033-.005-.033-.004-.08-.002-.083.002-.088.002-.09.006-.09.006-.09.007-.09.01-.088.009-.083.013-.08.01-.073.014-.068.015-.06.014-.051.016-.041.015-.03.017.202-.633.056-.027.063-.024.062-.02.067-.017.068-.013.07-.011.074-.01.077-.007.078-.004.08-.003.082-.002h.266l.093.002.098.002.08.007.083.011.088.02.088.025.088.031.088.04.082.044.078.052.072.06.065.065.054.072.043.08.03.087.019.096.001.1-.015.11-.29 1.398-.112.594h-.704l.008-.056.008-.056.008-.05.008-.047.008-.04.006-.033.008-.022.008-.013-.038.041-.047.041-.052.04-.06.037-.065.035-.07.033-.074.03-.076.028-.08.025-.082.02-.082.015-.082.011-.081.006-.08.002-.079-.006-.076-.011-.1-.022-.088-.03-.08-.036-.07-.039-.062-.042-.053-.049-.047-.05-.04-.056-.032-.056-.028-.057-.02-.06-.019-.061-.011-.06-.008-.061-.004-.06-.002-.057.008-.105.018-.098.025-.095.037-.09.045-.084.05-.078zm.69.415l.01-.045.015-.043.02-.039.027-.036.03-.033.033-.03.034-.028.038-.026.037-.02.037-.02.038-.018.033-.012.03-.013.03-.01.023-.007.018-.004.031-.009.035-.01.04-.007.044-.008.044-.007.045-.006.047-.006.045-.003h.083l.035.002.033.003.026.006.02.01.011.01.002.015-.008.036-.008.04-.008.04-.008.045-.01.046-.01.045-.01.043-.01.04-.009.029-.011.03-.016.03-.02.03-.023.032-.028.03-.03.032-.038.028-.041.028-.047.026-.053.022-.058.019-.064.017-.073.012-.075.008-.086.002L8 9.169l-.049-.01-.044-.018-.043-.028-.035-.04-.023-.057-.014-.07.005-.091zm4.64-1.108l.002.086v.093l-.006.1-.01.104-.017.11-.024.115-.03.164h-1.807l-.008.037-.001.047.003.05.012.048.015.05.023.05.028.049.033.047.037.044.043.043.045.037.048.036.053.03.054.024.059.019.059.013.07.01.07.008.072.008.072.003.074.002h.072l.077-.003.074-.006.076-.011.078-.013.079-.019.078-.024.078-.028.082-.033.08-.041.082-.045-.121.66-.045.023-.044.02-.041.017-.043.015-.043.015-.043.011-.044.01-.05.009-.05.006-.054.005-.06.006-.065.002-.071.005h-.079l-.086.001h-.162l-.07-.003-.068-.004-.07-.007-.073-.01-.07-.01-.07-.016-.07-.014-.07-.02-.068-.021-.066-.025-.066-.028-.064-.031-.063-.033-.058-.038-.059-.04-.054-.045-.053-.049-.05-.052-.045-.056-.043-.061-.04-.064-.034-.069-.031-.072-.028-.079-.021-.081-.018-.086-.011-.093-.008-.097v-.1l.003-.108.01-.112.006-.04.006-.044.008-.045.01-.049.01-.05.013-.052.016-.054.016-.056.02-.058.021-.056.026-.058.027-.057.031-.058.033-.058.038-.058.039-.056.044-.054.047-.054.051-.052.057-.048.059-.049.064-.045.068-.04.074-.04.078-.033.084-.031.088-.028.094-.023.1-.018.104-.013.11-.008.117-.003h.053l.054.003.057.004.057.006.057.007.058.011.057.013.057.015.057.017.057.02.054.023.052.026.051.03.05.031.048.038.047.039.043.042.04.047.038.052.033.054.031.06.028.063.023.068.018.073.015.079.01.082zm-.768.184l-.007.07h-1.013l.01-.048.013-.057.015-.056.02-.052.023-.049.027-.046.03-.043.03-.04.036-.036.037-.032.04-.028.044-.024.044-.02.047-.015.051-.01.05-.007h.055l.05.001.05.006.047.011.044.015.041.02.04.021.037.028.033.034.03.037.025.04.02.047.015.05.012.057.004.06v.066zm.704 1.716l-.05-.016.122-.585.027.006.033.01.041.008.045.011.053.01.058.013.062.011.067.011.07.01.074.01.076.006.08.008.08.004.082.002h.082l.084-.005.078-.012.065-.02.048-.03.039-.034.03-.04.02-.04.018-.041.012-.041.006-.043-.002-.037-.01-.036-.015-.03-.022-.029-.027-.026-.033-.024-.038-.023-.04-.02-.045-.02-.05-.021-.05-.019-.05-.018-.055-.02-.055-.021-.056-.023-.055-.022-.054-.024-.055-.028-.052-.03-.051-.031-.047-.036-.045-.04-.04-.044-.038-.048-.033-.052-.028-.058-.023-.061-.016-.07-.01-.074-.001-.082.006-.087.005-.054.008-.052.008-.05.012-.049.011-.046.014-.047.018-.043.017-.043.022-.039.021-.039.025-.035.028-.036.029-.033.031-.032.033-.03.037-.028.04-.025.04-.025.045-.022.047-.022.05-.019.052-.019.054-.015.059-.014.062-.014.064-.01.067-.01.07-.008.074-.005.078-.004.08-.003h.187l.094.001.083.002.079.004.068.004.063.004.056.005.049.004.045.005.038.006.038.004.03.005.028.004.025.003.024.005.022.001-.141.603-.04-.001-.038-.004-.035-.006-.036-.003-.034-.006-.036-.006-.036-.005-.04-.006-.04-.003-.043-.005-.05-.003-.052-.002h-.058l-.065.002-.072.003-.078.006-.057.008-.052.011-.05.015-.042.016-.04.02-.034.024-.03.025-.022.027-.018.03-.012.03-.006.033v.033l.008.036.014.035.021.035.027.036.057.048.066.04.078.033.084.028.088.028.092.028.093.031.09.037.084.045.08.054.07.069.059.082.045.1.029.12.01.14-.01.169-.022.124-.035.112-.045.1-.056.09-.066.078-.073.067-.08.057-.086.051-.089.041-.094.033-.095.028-.096.02-.096.016-.093.01-.09.005-.087.001h-.121l-.11-.002-.1-.001-.091-.002-.084-.004-.074-.004-.07-.005-.062-.007-.06-.008-.053-.01-.051-.009-.05-.012-.048-.014-.046-.013-.047-.017zm2.412-.418l.01-.068.52-2.911h.785l-.121.652h.481l-.108.593-.494-.009-.26 1.484-.004.032v.028l.005.024.007.022.012.019.014.018.017.015.02.011.023.011.023.01.028.007.027.004.031.006.032.001.033.002h.095l.055-.003.05-.008.043-.01.034-.009.025-.009.015-.007.007-.002-.08.508-.02.011-.021.01-.022.01-.021.008-.022.007-.023.008-.024.008-.027.007-.027.008-.03.005-.033.006-.035.005-.037.006-.039.005-.045.006-.047.005h-.21l-.111-.007-.1-.01-.087-.016-.077-.02-.064-.023-.055-.028-.045-.032-.037-.035-.03-.039-.02-.042-.014-.047-.008-.053-.002-.053.002-.06.006-.061zm2.329.526h-.794l.523-2.863.794.01-.092.478.04-.054.042-.052.039-.05.04-.047.044-.044.04-.041.045-.04.05-.035.048-.031.054-.03.057-.025.063-.022.066-.017.072-.014.078-.01.086-.006h.02l.021.004.023.002.02.004.02.003.013.003.01.003h.003l-.003.008-.014.02-.02.032-.023.039-.027.046-.026.05-.025.05-.021.053-.03.07-.025.075-.022.075-.02.068-.014.062-.01.049-.008.031-.002.011h-.004l-.008-.002-.011-.001-.014-.003h-.016l-.015-.001-.012-.002h-.01l-.11.008-.096.01-.088.02-.079.023-.066.03-.06.034-.05.037-.045.04-.038.048-.033.048-.027.05-.022.054-.02.054-.014.058-.015.058-.011.06-.271 1.512zm1.367-2.349l.047-.056.049-.05.048-.05.055-.047.057-.042.058-.041.06-.038.065-.033.067-.033.068-.028.069-.026.072-.022.074-.02.076-.018.078-.015.08-.01.082-.009.084-.003.084-.002.088.002.086.006.083.007.082.011.079.015.075.02.072.02.073.024.068.027.064.03.064.032.059.035.059.04.054.04.05.043.05.046.047.049.043.052.039.052.037.056.035.058.03.06.029.062.021.064.022.065.018.07.015.07.012.073.008.072.004.077.001.078-.001.078-.007.095-.011.091-.014.087-.017.086-.02.082-.025.078-.028.076-.03.073-.034.07-.035.066-.04.064-.042.06-.044.057-.05.054-.05.05-.053.048-.054.045-.057.043-.06.039-.06.036-.065.033-.066.03-.066.028-.07.023-.07.023-.075.018-.073.015-.074.013-.079.01-.078.007-.08.004-.08.002-.08-.002-.08-.004-.076-.007-.076-.011-.074-.013-.074-.015-.07-.018-.068-.023-.069-.024-.064-.028-.062-.03-.06-.033-.06-.036-.054-.039-.054-.04-.05-.046-.048-.046-.047-.05-.04-.052-.042-.056-.035-.058-.035-.061-.029-.063-.027-.066-.024-.068-.021-.073-.018-.074-.013-.077-.01-.08-.006-.082-.002-.085.002-.088.006-.089.01-.086.013-.084.018-.08.02-.078.023-.076.025-.073.03-.07.03-.069.036-.065.04-.062.04-.06.043-.057zm.634 1.026l.006-.097.012-.105.011-.06.014-.064.02-.063.023-.064.025-.063.031-.06.035-.059.041-.056.043-.052.049-.047.054-.04.059-.038.064-.028.068-.022.074-.013.08-.006h.065l.058.01.055.015.05.024.045.03.04.037.036.04.03.05.026.053.021.058.016.064.01.065.006.07v.075l-.007.077-.01.08-.017.102-.02.095-.025.088-.029.08-.031.072-.037.067-.04.06-.04.052-.048.046-.048.04-.053.033-.054.026-.06.02-.06.013-.064.008-.066.002-.06-.005-.058-.007-.054-.015-.05-.02-.045-.026-.04-.034-.038-.039-.033-.046-.027-.055-.022-.06-.017-.065-.012-.074-.006-.082v-.087h.003z"/><path fill-rule="nonzero" d="M12.121 14.282h-.241a7.845 7.845 0 0 0 3.787.968c4.179 0 7.583-3.25 7.583-7.25S19.846.75 15.667.75c-1.34 0-2.64.336-3.788.968h.242A7.848 7.848 0 0 0 8.333.75C4.154.75.75 4 .75 8s3.404 7.25 7.583 7.25c1.34 0 2.64-.336 3.788-.968zm-.817-11.76l-.03-.43A7.31 7.31 0 0 0 8.677 5.18l-.105.236.24.097.564.227.224.09.098-.22a6.24 6.24 0 0 1 2.433-2.777h-.264a6.238 6.238 0 0 1 2.431 2.77l.098.222.224-.091.564-.228.24-.096-.105-.237a7.315 7.315 0 0 0-2.593-3.081l-.03.43a6.722 6.722 0 0 1 2.97-.689c3.57 0 6.472 2.77 6.472 6.167s-2.901 6.167-6.472 6.167a6.722 6.722 0 0 1-2.97-.69l.03.431a7.31 7.31 0 0 0 2.595-3.088l.105-.236-.24-.097-.564-.227-.224-.09-.098.22a6.243 6.243 0 0 1-2.433 2.777h.264a6.242 6.242 0 0 1-2.43-2.77l-.098-.22-.225.09-.563.227-.24.097.105.236a7.31 7.31 0 0 0 2.593 3.081l.03-.43a6.725 6.725 0 0 1-2.97.689c-3.572 0-6.473-2.77-6.473-6.167s2.901-6.167 6.472-6.167a6.73 6.73 0 0 1 2.97.69z"/></g></g></svg>