<?xml version="1.0" encoding="UTF-8"?>
<svg width="30px" height="30px" viewBox="0 0 30 30" version="1.1" xmlns="http://www.w3.org/2000/svg" xmlns:xlink="http://www.w3.org/1999/xlink">
    <!-- Generator: Sketch 48.2 (47327) - http://www.bohemiancoding.com/sketch -->
    <title>icon_card-maestro_l_black</title>
    <desc>Created with Sketch.</desc>
    <defs></defs>
    <g id="card" stroke="none" stroke-width="1" fill="none" fill-rule="evenodd" transform="translate(-103.000000, -72.000000)">
        <g id="icon_card-maestro_l_white" transform="translate(103.000000, 77.000000)" fill="#0B1F35">
            <path d="M20.0325346,0 C18.258681,0.00537790321 16.5187841,0.489559382 14.9944743,1.402 C13.4708222,0.489722674 11.7316077,0.00553998128 9.95840266,0 C4.47589543,0 0.0155168547,4.486 0.0155168547,10 C0.0155168547,15.514 4.47589543,20 9.95840266,20 C11.7322563,19.9946221 13.4721532,19.5104406 14.9964629,18.598 C16.5200572,19.5104137 18.2593095,19.9946069 20.0325346,20 C25.5150418,20 29.9754204,15.514 29.9754204,10 C29.9754204,4.486 25.5150418,0 20.0325346,0 Z M20.0325346,19 C18.599945,18.9961255 17.1893637,18.6452276 15.920157,17.977 C17.3295946,16.9223407 18.4348839,15.5097559 19.1227605,13.884 L18.2060264,13.495 C17.5359173,15.0919125 16.4209463,16.4598587 14.9954686,17.434 C13.572622,16.4616313 12.4589008,15.0970726 11.7878937,13.504 L10.8711596,13.894 C11.5600798,15.515536 12.6641238,16.9243943 14.0707802,17.977 C12.8016154,18.6453386 11.3910066,18.9962433 9.95840266,19 C5.02374844,19 1.00980544,14.962 1.00980544,10 C1.00980544,5.038 5.02374844,1 9.95840266,1 C11.3909922,1.00387448 12.8015736,1.35477239 14.0707802,2.023 C12.6613426,3.0776593 11.5560533,4.49024411 10.8681767,6.116 L11.7849108,6.505 C12.4546765,4.9078791 13.5697203,3.53984347 14.9954686,2.566 C16.4185788,3.5385102 17.5323451,4.90347143 18.2030436,6.497 L19.1197776,6.107 C18.4308839,4.48517318 17.3268514,3.07598473 15.920157,2.023 C17.1892799,1.35455032 18.5999162,1.00363876 20.0325346,1 C24.9671888,1 28.9811318,5.038 28.9811318,10 C28.9811318,14.962 24.9671888,19 20.0325346,19 Z" id="Shape"></path>
            <path d="M16.95024,9.884 L16.9651543,9.842 L16.9870286,9.802 L17.0168573,9.767 L17.053646,9.733 L17.098389,9.703 L17.1471091,9.676 L17.201795,9.653 L17.2634409,9.633 L17.3300582,9.618 L17.401647,9.608 L17.5000815,9.601 L17.5915561,9.596 L17.6730878,9.594 L17.7476594,9.594 L17.8142767,9.596 L17.8759226,9.601 L17.9296142,9.606 L17.9823115,9.611 L18.0310317,9.618 L18.0777632,9.626 L18.1225062,9.633 L18.1672492,9.641 L18.2109979,9.646 L18.2557409,9.653 L18.3054553,9.658 L18.3541754,9.661 L18.5321531,8.856 L18.5053073,8.854 L18.4754786,8.849 L18.4436614,8.844 L18.4088613,8.839 L18.3690898,8.832 L18.3223582,8.827 L18.2726438,8.819 L18.2159693,8.812 L18.1543234,8.807 L18.0827347,8.799 L18.0041859,8.794 L17.9176828,8.789 L17.8192482,8.784 L17.7128593,8.782 L17.594539,8.779 L17.356904,8.779 L17.2564808,8.784 L17.157052,8.789 L17.0635889,8.797 L16.9750972,8.807 L16.8905826,8.819 L16.809051,8.834 L16.7305022,8.851 L16.6569248,8.871 L16.5873246,8.891 L16.5207073,8.916 L16.4590614,8.941 L16.3994041,8.971 L16.3427296,9 L16.2910266,9.033 L16.2423065,9.067 L16.1945806,9.105 L16.1528205,9.144 L16.113049,9.187 L16.0762603,9.231 L16.0414602,9.278 L16.009643,9.326 L15.9827972,9.378 L15.9559514,9.43 L15.9330827,9.487 L15.9112084,9.544 L15.8943055,9.606 L15.8793912,9.668 L15.8644768,9.733 L15.8545339,9.8 L15.8445911,9.869 L15.8366368,9.941 L15.8296767,10.058 L15.8316653,10.167 L15.8445911,10.266 L15.8644768,10.358 L15.8943055,10.44 L15.9281113,10.517 L15.9698714,10.586 L16.0175973,10.651 L16.0693003,10.708 L16.1259747,10.763 L16.1846378,10.81 L16.2492665,10.852 L16.3158838,10.892 L16.3854841,10.929 L16.45409,10.961 L16.5226959,10.991 L16.5952789,11.021 L16.6638849,11.048 L16.7324908,11.076 L16.7971195,11.1 L16.8617483,11.125 L16.9233942,11.152 L16.9800686,11.18 L17.0317716,11.207 L17.0785032,11.237 L17.1202633,11.269 L17.1550634,11.304 L17.1819092,11.344 L17.201795,11.383 L17.2147207,11.43 L17.2167093,11.48 L17.2097493,11.537 L17.194835,11.592 L17.1719663,11.646 L17.1451205,11.701 L17.1083318,11.753 L17.0586174,11.798 L16.9969715,11.838 L16.9154399,11.865 L16.8170053,11.882 L16.7106164,11.887 L16.6072104,11.887 L16.5038044,11.885 L16.402387,11.88 L16.3009695,11.87 L16.2045235,11.86 L16.1110604,11.847 L16.0225687,11.835 L15.9380542,11.82 L15.8595054,11.805 L15.7849337,11.788 L15.7183164,11.776 L15.661642,11.761 L15.609939,11.748 L15.5681788,11.736 L15.5333787,11.728 L15.3802583,12.508 L15.4419042,12.53 L15.5015615,12.552 L15.5602245,12.57 L15.6198818,12.587 L15.6845106,12.605 L15.7481451,12.617 L15.8177453,12.629 L15.8913226,12.639 L15.9698714,12.649 L16.0593574,12.657 L16.1528205,12.662 L16.2592094,12.667 L16.3755412,12.669 L16.5008215,12.672 L16.6390276,12.674 L16.7921481,12.674 L16.9035084,12.672 L17.0168573,12.664 L17.1351776,12.652 L17.2564808,12.632 L17.3767898,12.605 L17.498093,12.567 L17.6164133,12.523 L17.7297622,12.468 L17.839134,12.401 L17.9395571,12.324 L18.0310317,12.235 L18.1155462,12.13 L18.187135,12.011 L18.2438094,11.877 L18.2875581,11.728 L18.3153982,11.562 L18.3273296,11.339 L18.3153982,11.15 L18.2776152,10.991 L18.2209408,10.857 L18.1473634,10.748 L18.0588717,10.656 L17.9574543,10.584 L17.8510654,10.524 L17.7377165,10.475 L17.6193962,10.433 L17.5030644,10.395 L17.3917041,10.358 L17.2863095,10.321 L17.1868806,10.276 L17.1033604,10.224 L17.0317716,10.16 L16.9969715,10.112 L16.9701257,10.065 L16.9522285,10.018 L16.9422857,9.971 L16.9422857,9.926 L16.95024,9.884 Z M20.2453123,11.855 L20.2125008,11.867 L20.1707407,11.88 L20.1170491,11.892 L20.0524203,11.902 L19.9838144,11.907 L19.8625112,11.907 L19.8207511,11.905 L19.7809796,11.902 L19.741208,11.895 L19.7074022,11.89 L19.6726021,11.88 L19.6427734,11.867 L19.6129448,11.852 L19.5880876,11.838 L19.5662132,11.818 L19.5493103,11.793 L19.534396,11.768 L19.5244531,11.738 L19.5194817,11.706 L19.5194817,11.669 L19.5244531,11.627 L19.8525683,9.648 L20.4769816,9.661 L20.6151877,8.869 L20.0056888,8.869 L20.1588092,8 L19.1665092,8 L18.5072959,11.882 L18.4953644,11.972 L18.4874101,12.054 L18.4854215,12.133 L18.4874101,12.205 L18.497353,12.274 L18.5152502,12.337 L18.542096,12.394 L18.5788847,12.446 L18.6256162,12.493 L18.6822907,12.535 L18.7518909,12.572 L18.8334225,12.602 L18.9298685,12.629 L19.0402346,12.649 L19.1665092,12.664 L19.3067039,12.674 L19.5741675,12.674 L19.6328306,12.667 L19.689505,12.659 L19.7392194,12.652 L19.785951,12.644 L19.830694,12.637 L19.8724541,12.629 L19.9092428,12.622 L19.9440429,12.612 L19.978843,12.602 L20.0076774,12.592 L20.037506,12.582 L20.0653461,12.572 L20.0921919,12.56 L20.1190377,12.547 L20.1458835,12.535 L20.1707407,12.52 L20.2721581,11.843 L20.2651981,11.845 L20.2453123,11.855 Z M12.1498147,9.872 L12.1468318,9.738 L12.1249575,9.611 L12.0851859,9.494 L12.0305001,9.387 L11.9608999,9.29 L11.8793682,9.203 L11.7878937,9.124 L11.6894591,9.055 L11.5860531,8.995 L11.4746927,8.943 L11.3633324,8.901 L11.2519721,8.869 L11.1406118,8.842 L11.0342229,8.827 L10.9328055,8.817 L10.8095137,8.814 L10.6911933,8.811 L10.3561181,8.811 L10.2527121,8.814 L10.1512946,8.819 L10.0528601,8.824 L9.95641409,8.834 L9.86295096,8.846 L9.77545356,8.861 L9.68895046,8.878 L9.60543022,8.9 L9.52688142,8.927 L9.44733833,8.961 L9.37376098,8.996 L9.1192231,9.839 L9.15601178,9.817 L9.20771478,9.797 L9.27234354,9.777 L9.34890376,9.757 L9.43540687,9.737 L9.52688142,9.72 L9.62829885,9.705 L9.73468773,9.688 L9.84604805,9.676 L9.95939695,9.664 L10.0727459,9.654 L10.1860947,9.646 L10.2994436,9.639 L10.410804,9.636 L10.5171928,9.633 L10.6186103,9.636 L10.6603704,9.641 L10.7021305,9.648 L10.7438906,9.658 L10.7836622,9.67 L10.8204509,9.687 L10.8572395,9.707 L10.8890568,9.727 L10.920874,9.752 L10.9507027,9.782 L10.9755599,9.812 L11.0004171,9.844 L11.0203029,9.879 L11.0372058,9.916 L11.0491372,9.956 L11.0560973,9.998 L11.0610687,10.043 L11.0610687,10.105 L11.0491372,10.175 L11.0322343,10.235 L11.0252743,10.26 L10.9974342,10.26 L10.9775485,10.257 L10.9526912,10.257 L10.9258455,10.255 L10.8940282,10.255 L10.8592281,10.252 L10.779685,10.252 L10.7399135,10.249 L10.6981534,10.249 L10.6534104,10.246 L10.4883585,10.246 L10.4416269,10.249 L10.3899239,10.252 L10.335238,10.257 L10.2755807,10.262 L10.2139348,10.267 L10.1542775,10.274 L10.0946202,10.279 L10.0349629,10.284 L9.98027701,10.292 L9.93056258,10.297 L9.88880246,10.302 L9.85201379,10.307 L9.82516799,10.31 L9.80826509,10.312 L9.80528222,10.312 L9.68397902,10.334 L9.56565867,10.364 L9.44932691,10.404 L9.33597801,10.454 L9.22760056,10.51 L9.12419454,10.577 L9.02774855,10.649 L8.936274,10.73 L8.85474234,10.822 L8.77818212,10.919 L8.71355336,11.023 L8.65687891,11.135 L8.61014735,11.254 L8.57833011,11.381 L8.55645576,11.513 L8.54651288,11.652 L8.54949574,11.729 L8.55446719,11.808 L8.56441007,11.89 L8.5793244,11.969 L8.60119875,12.051 L8.62804454,12.131 L8.66284464,12.208 L8.70460476,12.282 L8.75431919,12.357 L8.81397651,12.424 L8.88059384,12.489 L8.95914264,12.546 L9.04763432,12.598 L9.14905176,12.645 L9.26041208,12.685 L9.38668673,12.715 L9.48313272,12.73 L9.58156729,12.738 L9.68298473,12.736 L9.78639074,12.728 L9.88979675,12.713 L9.99320276,12.693 L10.0966088,12.666 L10.1980262,12.634 L10.2944722,12.597 L10.3879353,12.557 L10.476427,12.512 L10.5579587,12.465 L10.6345189,12.415 L10.7011362,12.363 L10.7607935,12.308 L10.8075251,12.253 L10.7975822,12.27 L10.7876393,12.3 L10.7806793,12.345 L10.7707364,12.397 L10.7607935,12.459 L10.7508507,12.526 L10.7409078,12.6 L10.7309649,12.674 L11.6218475,12.674 L11.7620421,11.882 L12.1299289,10.018 L12.1498147,9.872 Z M10.9009882,10.996 L10.8910454,11.048 L10.8811025,11.103 L10.8711596,11.163 L10.8582338,11.225 L10.8463024,11.285 L10.8343709,11.342 L10.8214452,11.397 L10.8095137,11.434 L10.7945994,11.474 L10.7747136,11.514 L10.7498564,11.556 L10.7200277,11.598 L10.6852276,11.638 L10.6454561,11.68 L10.5987245,11.717 L10.5470215,11.754 L10.4873642,11.789 L10.4207469,11.819 L10.3471695,11.844 L10.2656378,11.866 L10.1741633,11.883 L10.0777173,11.893 L9.96933984,11.896 L9.90968252,11.893 L9.84903092,11.88 L9.79235647,11.855 L9.7376706,11.818 L9.69292761,11.763 L9.66309896,11.689 L9.64619605,11.595 L9.65116749,11.473 L9.66309896,11.413 L9.68298473,11.356 L9.70784194,11.304 L9.74264204,11.257 L9.77943072,11.212 L9.82119084,11.172 L9.86593383,11.135 L9.91365968,11.1 L9.96039124,11.073 L10.0071228,11.046 L10.0538544,11.024 L10.0956145,11.007 L10.135386,10.99 L10.1721747,10.978 L10.2020034,10.968 L10.2238777,10.963 L10.2636493,10.951 L10.3083922,10.939 L10.3600953,10.929 L10.4147811,10.919 L10.4714556,10.909 L10.52813,10.901 L10.5877873,10.894 L10.6444618,10.889 L10.7508507,10.889 L10.7955936,10.892 L10.8373538,10.897 L10.869171,10.904 L10.8940282,10.916 L10.9089425,10.931 L10.9119254,10.951 L10.9009882,10.996 Z M7.14655456,8 L6.00411698,10.783 L5.83906507,8 L4.16070595,8 L3.34837218,12.674 L4.31382639,12.674 L4.92332529,9.174 L4.96309683,9.174 L4.97204543,9.345 L4.99491407,9.753 L5.0267313,10.316 L5.06351998,10.954 L5.10130295,11.587 L5.13312018,12.138 L5.15499453,12.528 L5.16493742,12.674 L6.2457291,12.674 L7.6824761,9.174 L7.71926478,9.174 L7.10976588,12.674 L8.07522009,12.674 L8.88954244,8 L7.14655456,8 Z M22.7777653,9.815 L22.7916854,9.817 L22.8115711,9.82 L22.8314569,9.82 L22.8493541,9.822 L22.8632742,9.824 L22.873217,9.827 L22.8781885,9.827 L22.8811713,9.812 L22.8911142,9.77 L22.9030457,9.705 L22.9229315,9.623 L22.9477887,9.532 L22.9746345,9.432 L23.0064517,9.333 L23.0442347,9.239 L23.0710805,9.169 L23.1028977,9.102 L23.1347149,9.035 L23.169515,8.973 L23.1993437,8.921 L23.2242009,8.879 L23.2411038,8.851 L23.2460753,8.841 L23.2411038,8.841 L23.2291724,8.836 L23.2112752,8.834 L23.1874122,8.829 L23.162555,8.824 L23.1327264,8.822 L23.1058806,8.817 L23.0810234,8.817 L22.9726459,8.824 L22.873217,8.836 L22.7817425,8.856 L22.6982223,8.879 L22.6196735,8.909 L22.5480847,8.941 L22.4784845,8.98 L22.4168386,9.023 L22.3551927,9.07 L22.2985182,9.122 L22.2468152,9.177 L22.1921294,9.236 L22.1404264,9.298 L22.0907119,9.365 L22.0390089,9.435 L21.9873059,9.507 L22.1036377,8.869 L21.0994062,8.856 L20.43721,12.674 L21.4424358,12.674 L21.7854653,10.656 L21.8003797,10.577 L21.8172826,10.5 L21.8371683,10.423 L21.8620256,10.351 L21.8888713,10.279 L21.9236714,10.212 L21.9654316,10.147 L22.0121631,10.085 L22.0688376,10.03 L22.1334663,9.981 L22.2100266,9.936 L22.2935468,9.896 L22.3919814,9.864 L22.5033417,9.839 L22.6266335,9.824 L22.7648396,9.815 L22.7777653,9.815 Z M26.2965526,9.482 L26.2418668,9.412 L26.1822094,9.347 L26.1205635,9.285 L26.0559348,9.228 L25.9863346,9.173 L25.9127572,9.121 L25.8391799,9.074 L25.7576482,9.032 L25.6761166,8.992 L25.5896134,8.955 L25.4981389,8.923 L25.4066643,8.896 L25.3102184,8.871 L25.2117838,8.851 L25.1083778,8.836 L25.0019889,8.826 L24.8936114,8.819 L24.7822511,8.816 L24.6758622,8.819 L24.5694734,8.824 L24.4660673,8.836 L24.3646499,8.848 L24.2662153,8.868 L24.1697694,8.89 L24.0763062,8.917 L23.9848317,8.947 L23.8983286,8.982 L23.8118255,9.019 L23.7283052,9.064 L23.6467736,9.109 L23.5702133,9.159 L23.496636,9.214 L23.4250472,9.271 L23.355447,9.333 L23.2928068,9.4 L23.2311609,9.467 L23.1715036,9.542 L23.1168177,9.616 L23.0651147,9.698 L23.0154003,9.78 L22.9706573,9.867 L22.9308858,9.959 L22.8940971,10.053 L22.8622799,10.15 L22.8324512,10.252 L22.807594,10.356 L22.7857196,10.463 L22.7688167,10.575 L22.7568853,10.689 L22.748931,10.808 L22.7469424,10.925 L22.748931,11.039 L22.7568853,11.148 L22.7688167,11.255 L22.7857196,11.357 L22.807594,11.456 L22.8344398,11.553 L22.8642684,11.645 L22.8990685,11.732 L22.9358572,11.816 L22.9806002,11.898 L23.0253432,11.975 L23.0770462,12.049 L23.1287492,12.119 L23.1884065,12.186 L23.2480638,12.248 L23.3126926,12.308 L23.3812985,12.363 L23.4508987,12.415 L23.5244761,12.462 L23.6010363,12.507 L23.6795851,12.547 L23.7611167,12.584 L23.8476198,12.616 L23.934123,12.646 L24.0226146,12.671 L24.1160778,12.691 L24.2095409,12.708 L24.3059869,12.723 L24.4024329,12.733 L24.5038503,12.738 L24.6052677,12.741 L24.7066852,12.738 L24.8081026,12.733 L24.9065372,12.723 L25.0049718,12.711 L25.0984349,12.694 L25.191898,12.674 L25.2853611,12.649 L25.3738528,12.619 L25.4623445,12.587 L25.5458647,12.55 L25.629385,12.51 L25.7109167,12.465 L25.7874769,12.418 L25.8640371,12.366 L25.9356259,12.309 L26.0052261,12.249 L26.0718434,12.184 L26.1364722,12.117 L26.1981181,12.045 L26.2547925,11.968 L26.3064955,11.889 L26.3581985,11.805 L26.4029415,11.716 L26.4476845,11.624 L26.4844732,11.527 L26.5192733,11.425 L26.5510905,11.321 L26.5759477,11.212 L26.5978221,11.098 L26.614725,10.981 L26.6296393,10.859 L26.6365993,10.732 L26.6395822,10.628 L26.6365993,10.524 L26.6316279,10.422 L26.621685,10.325 L26.6067707,10.228 L26.5868849,10.134 L26.5650105,10.042 L26.5381647,9.955 L26.5083361,9.868 L26.4715474,9.786 L26.4347587,9.704 L26.3900158,9.627 L26.3432842,9.553 L26.2965526,9.482 Z M25.4524016,10.448 L25.4454416,10.55 L25.4335101,10.657 L25.4116358,10.793 L25.3867786,10.92 L25.3549613,11.037 L25.3181727,11.144 L25.2784011,11.241 L25.2316696,11.33 L25.1819551,11.409 L25.1302521,11.479 L25.0705948,11.541 L25.0089489,11.593 L24.9423316,11.638 L24.8727314,11.673 L24.799154,11.7 L24.7225938,11.717 L24.6410621,11.727 L24.5575419,11.73 L24.4809817,11.725 L24.4093929,11.715 L24.3397927,11.695 L24.2781468,11.668 L24.2214724,11.633 L24.1697694,11.588 L24.1230378,11.536 L24.0812777,11.474 L24.0464776,11.402 L24.0196318,11.323 L23.9977574,11.236 L23.9828431,11.137 L23.9758831,11.028 L23.9758831,10.911 L23.9828431,10.782 L23.9977574,10.643 L24.0126718,10.561 L24.0295747,10.477 L24.0544319,10.393 L24.0842605,10.309 L24.1160778,10.225 L24.1558493,10.146 L24.2005923,10.067 L24.2522953,9.993 L24.3069812,9.923 L24.3686271,9.861 L24.4382273,9.806 L24.5118046,9.756 L24.5933363,9.719 L24.6798394,9.689 L24.7733025,9.672 L24.87472,9.664 L24.9562516,9.664 L25.029829,9.676 L25.0994292,9.696 L25.1630636,9.728 L25.2197381,9.768 L25.2714411,9.818 L25.3161841,9.873 L25.3559556,9.938 L25.3877729,10.01 L25.4146187,10.087 L25.4345044,10.171 L25.4464359,10.258 L25.4533959,10.352 L25.4533959,10.448 L25.4524016,10.448 Z" id="Shape"></path>
            <path d="M15.5234359,9.996 L15.5105101,9.887 L15.4906243,9.783 L15.46875,9.686 L15.4389213,9.594 L15.4041212,9.51 L15.3643497,9.431 L15.3225896,9.359 L15.275858,9.29 L15.224155,9.228 L15.1694691,9.171 L15.1098118,9.119 L15.0501545,9.069 L14.9855257,9.027 L14.920897,8.987 L14.8542796,8.952 L14.7846794,8.922 L14.7130907,8.895 L14.6415019,8.873 L14.5699131,8.853 L14.4983243,8.836 L14.424747,8.821 L14.3531582,8.811 L14.2815694,8.804 L14.2099806,8.799 L14.1413747,8.794 L14.0717745,8.794 L13.9236255,8.799 L13.7854194,8.809 L13.6521847,8.826 L13.5259101,8.851 L13.4075898,8.881 L13.2962294,8.918 L13.1898406,8.96 L13.091406,9.005 L12.9979429,9.057 L12.9114397,9.112 L12.8299081,9.172 L12.7563307,9.237 L12.684742,9.302 L12.6201132,9.372 L12.5604559,9.444 L12.5037814,9.516 L12.454067,9.59 L12.4073354,9.667 L12.3655753,9.744 L12.3258038,9.821 L12.2910037,9.898 L12.2591864,9.975 L12.2323406,10.049 L12.2114606,10.122 L12.1915748,10.196 L12.171689,10.268 L12.1547861,10.338 L12.1418604,10.405 L12.1299289,10.47 L12.119986,10.53 L12.113026,10.59 L12.106066,10.642 L12.0941345,10.791 L12.0891631,10.935 L12.0891631,11.069 L12.099106,11.198 L12.1140203,11.322 L12.1358947,11.436 L12.1627404,11.545 L12.1975405,11.649 L12.2373121,11.746 L12.2820551,11.838 L12.3317695,11.922 L12.3864554,12.004 L12.4431298,12.078 L12.5077586,12.148 L12.5743759,12.213 L12.6439761,12.273 L12.7185478,12.328 L12.7921251,12.378 L12.8706739,12.423 L12.9522056,12.465 L13.0357258,12.502 L13.1192461,12.534 L13.2057492,12.561 L13.2922523,12.588 L13.380744,12.608 L13.4692356,12.628 L13.5577273,12.643 L13.6492019,12.655 L13.7376936,12.665 L13.8241967,12.67 L13.9126883,12.675 L14.1175118,12.675 L14.2258893,12.673 L14.3243238,12.673 L14.4128155,12.668 L14.4943472,12.666 L14.5709074,12.658 L14.6395133,12.651 L14.7041421,12.644 L14.765788,12.632 L14.8224624,12.619 L14.8771483,12.604 L14.9318341,12.584 L14.98652,12.564 L15.038223,12.542 L15.0948975,12.515 L15.1515719,12.485 L15.3046924,11.604 L15.2012864,11.664 L15.0998689,11.719 L14.9954686,11.761 L14.897034,11.798 L14.7985995,11.83 L14.7001649,11.855 L14.6017303,11.872 L14.5052843,11.887 L14.4118212,11.894 L14.3143809,11.9 L14.2229064,11.9 L14.1294433,11.898 L14.0379687,11.893 L13.9464942,11.883 L13.8580025,11.871 L13.7695108,11.859 L13.6959334,11.842 L13.6223561,11.817 L13.5537502,11.785 L13.4871328,11.745 L13.4254869,11.698 L13.3688125,11.648 L13.3141266,11.591 L13.2673951,11.531 L13.2256349,11.469 L13.1908348,11.404 L13.1610062,11.337 L13.1411204,11.27 L13.1262061,11.205 L13.1212346,11.138 L13.1242175,11.076 L13.1341604,11.026 L15.4200298,11.026 L15.4598014,10.808 L15.48963,10.654 L15.5115044,10.508 L15.5234359,10.369 L15.5303959,10.237 L15.5303959,10.113 L15.5234359,9.996 Z M14.5510216,10.241 L14.5430673,10.335 L13.260435,10.335 L13.2723665,10.27 L13.2892694,10.193 L13.3091552,10.119 L13.3340124,10.049 L13.3638411,9.985 L13.3986412,9.923 L13.4354298,9.866 L13.4752014,9.814 L13.5199444,9.764 L13.5666759,9.722 L13.6183789,9.685 L13.6730648,9.653 L13.7297393,9.626 L13.7893966,9.606 L13.8540253,9.593 L13.9186541,9.583 L13.9882543,9.583 L14.052883,9.586 L14.1145289,9.593 L14.1741862,9.608 L14.2308607,9.628 L14.2825637,9.653 L14.3322781,9.683 L14.3790097,9.72 L14.4207698,9.765 L14.4575585,9.815 L14.4893757,9.87 L14.5142329,9.932 L14.5341187,9.999 L14.549033,10.074 L14.5540045,10.156 L14.5540045,10.241 L14.5510216,10.241 Z" id="Shape"></path>
        </g>
    </g>
</svg>