<svg xmlns="http://www.w3.org/2000/svg" width="30" height="30" version="1" viewBox="0 0 30 30"><path fill="#0B1F35" d="M26.336 19.938l-.004.062h.072l.005-.052.002-.013h-.075zm-9.37-5.054l.015-.042.022-.04.03-.035.037-.034.045-.03.049-.027.055-.023.062-.02.067-.015.072-.01.099-.007.092-.005.082-.002h.075l.067.002.062.005.054.005.053.005.049.007.047.008.045.007.045.008.044.005.045.007.05.005.049.003.179-.805-.027-.002-.03-.005-.032-.005-.035-.005-.04-.007-.047-.005-.05-.008-.057-.007-.062-.005-.072-.008-.079-.005-.087-.005-.099-.005-.107-.002-.119-.003h-.239l-.101.005-.1.005-.094.008-.089.01-.085.012-.082.015-.079.017-.074.02-.07.02-.067.025-.062.025-.06.03-.057.029-.052.033-.049.034-.048.038-.042.039-.04.043-.037.044-.035.047-.032.048-.027.052-.027.052-.023.057-.022.057-.017.062-.015.062-.015.065-.01.067-.01.069-.008.072-.007.117.002.109.013.099.02.092.03.082.034.077.042.069.048.065.052.057.057.055.059.047.065.042.067.04.07.037.069.032.069.03.073.03.069.027.069.028.065.024.065.025.062.027.057.028.052.027.047.03.042.032.035.035.027.04.02.039.013.047.002.05-.007.057-.015.055-.023.054-.027.055-.037.052-.05.045-.062.04-.082.027-.099.017-.107.005h-.104l-.104-.002-.102-.005-.102-.01-.097-.01-.094-.013-.089-.012-.085-.015-.079-.015-.075-.017-.067-.012-.057-.015-.052-.013-.042-.012-.035-.008-.154.78.062.022.06.022.059.018.06.017.065.018.064.012.07.012.074.01.079.01.09.008.094.005.107.005.117.002.126.003.139.002h.154l.112-.002.114-.008.119-.012.122-.02.121-.027.122-.038.119-.044.114-.055.11-.067.101-.077.092-.089.085-.105.072-.119.057-.134.044-.149.028-.166.012-.223-.012-.189-.038-.159-.057-.134-.074-.109-.089-.092-.102-.072-.107-.06-.114-.049-.119-.042-.117-.038-.112-.037-.106-.037-.1-.045-.084-.052-.072-.064-.035-.048-.027-.047-.018-.047-.01-.047v-.045zm3.314 1.971l-.033.012-.042.013-.054.012-.065.01-.069.005h-.122l-.042-.002-.04-.003-.04-.007-.034-.005-.035-.01-.03-.013-.03-.015-.025-.014-.022-.02-.017-.025-.015-.025-.01-.03-.005-.032v-.037l.005-.042.33-1.979.628.013.139-.792h-.613l.154-.869h-.998l-.663 3.882-.012.09-.008.082-.002.079.002.072.01.069.018.063.027.057.037.052.047.047.057.042.07.037.082.03.097.027.111.02.127.015.141.01h.269l.059-.007.057-.008.05-.007.047-.008.045-.007.042-.008.037-.007.035-.01.035-.01.029-.01.03-.01.028-.01.027-.012.027-.013.027-.012.025-.015.102-.677-.007.002zm-8.142-1.983l-.003-.134-.022-.127-.04-.117-.055-.107-.07-.097-.082-.087-.092-.079-.099-.069-.104-.06-.112-.052-.112-.042-.112-.032-.112-.027-.107-.015-.102-.01-.124-.003-.119-.003h-.337l-.104.003-.102.005-.099.005-.097.01-.094.012-.088.015-.087.017-.084.022-.079.027-.08.034-.074.035-.256.843.037-.022.052-.02.065-.02.077-.02.087-.02.092-.017.102-.015.107-.017.112-.012.114-.012.114-.01.114-.008.114-.007.112-.003.107-.003.102.003.042.005.042.007.042.01.04.012.037.017.037.02.032.02.032.025.03.03.025.03.025.032.02.035.017.037.012.04.007.042.005.045v.062l-.012.07-.017.06-.007.025h-.028l-.02-.003h-.025l-.027-.002h-.032l-.035-.003h-.08l-.04-.003h-.042l-.045-.003h-.166l-.047.003-.052.003-.055.005-.06.005-.062.005-.06.007-.06.005-.06.005-.055.008-.05.005-.042.005-.037.005-.027.003-.017.002H9.78l-.122.022-.119.03-.117.04-.114.05-.109.056-.104.067-.097.072-.092.081-.082.092-.077.097-.065.104-.057.112-.047.119-.032.127-.022.132-.01.139.003.077.005.079.01.082.015.079.022.082.027.08.035.077.042.074.05.075.06.067.067.065.079.057.089.052.102.047.112.04.127.03.097.015.099.008.102-.002.104-.008.104-.015.104-.02.104-.027.102-.032.097-.037.094-.04.089-.045.082-.047.077-.05.067-.052.06-.055.047-.055-.01.017-.01.03-.007.045-.01.052-.01.062-.01.067-.01.074-.01.074h.896l.141-.792.37-1.864.02-.146zm-1.256 1.124l-.01.052-.01.055-.01.06-.013.062-.012.06-.012.057-.013.055-.012.037-.015.04-.02.04-.025.042-.03.042-.035.04-.04.042-.047.037-.052.037-.06.035-.067.03-.074.025-.082.022-.092.017-.097.01-.109.003-.06-.003-.061-.013-.057-.025-.055-.037-.045-.055-.03-.074-.017-.094.005-.122.012-.06.02-.057.025-.052.035-.047.037-.045.042-.04.045-.037.048-.035.047-.027.047-.027.047-.022.042-.017.04-.017.037-.012.03-.01.022-.005.04-.012.045-.012.052-.01.055-.01.057-.01.057-.008.06-.007.057-.005h.107l.045.003.042.005.032.007.025.012.015.015.003.02-.011.045zM7.106 13l-1.149 2.783L5.791 13H4.103l-.817 4.674h.971l.613-3.5h.04l.009.171.023.408.032.563.037.638.038.633.032.551.022.39.01.146H6.2l1.445-3.5h.037l-.613 3.5h.971L8.859 13zm15.721 1.815l.014.002.02.003h.02l.018.002.014.002.01.003h.005l.003-.015.01-.042.012-.065.02-.082.025-.091.027-.1.032-.099.038-.094.027-.07.032-.067.032-.067.035-.062.03-.052.025-.042.017-.028.005-.01h-.005l-.012-.005-.018-.002-.024-.005-.025-.005-.03-.002-.027-.005h-.025l-.109.007-.1.012-.092.02-.084.023-.079.03-.072.032-.07.039-.062.043-.062.047-.057.052-.052.055-.055.059-.052.062-.05.067-.052.07-.052.072.117-.638-1.01-.013-.666 3.818h1.011l.345-2.018.015-.079.017-.077.02-.077.025-.072.027-.072.035-.067.042-.065.047-.062.057-.055.065-.049.077-.045.084-.04.099-.032.112-.025.124-.015.139-.009zm3.539-.333l-.055-.07-.06-.065-.062-.062-.065-.057-.07-.055-.074-.052-.074-.047-.082-.042-.082-.04-.087-.037-.092-.032-.092-.027-.097-.025-.099-.02-.104-.015-.107-.01-.109-.007-.112-.003-.107.003-.107.005-.104.012-.102.012-.099.02-.097.022-.094.027-.092.03-.087.035-.087.037-.084.045-.082.045-.077.05-.074.055-.072.057-.07.062-.063.067-.062.067-.06.075-.055.074-.052.082-.05.082-.045.087-.04.092-.037.094-.032.097-.03.102-.025.104-.022.107-.017.112-.012.114-.008.119-.002.117.002.114.008.109.012.107.017.102.022.099.027.097.03.092.035.087.037.084.045.082.045.077.052.074.052.07.06.067.06.062.065.06.069.055.07.052.074.047.077.045.079.04.082.037.087.032.087.03.089.025.094.02.094.017.097.015.097.01.102.005.102.003.102-.003.102-.005.099-.01.099-.012.094-.017.094-.02.094-.025.089-.03.089-.032.084-.037.084-.04.082-.045.077-.047.077-.052.072-.057.07-.06.067-.065.065-.067.062-.072.057-.077.052-.079.052-.084.045-.089.045-.092.037-.097.035-.102.032-.104.025-.109.022-.114.017-.117.015-.122.007-.127.003-.104-.003-.104-.005-.102-.01-.097-.015-.097-.02-.094-.022-.092-.027-.087-.03-.087-.037-.082-.037-.082-.045-.077-.047-.074-.047-.071zm-.849.966l-.007.102-.012.107-.022.136-.025.127-.032.117-.037.107-.04.097-.047.089-.05.079-.052.07-.06.062-.062.052-.067.045-.07.035-.074.027-.077.017-.082.01-.084.003-.077-.005-.072-.01-.07-.02-.062-.027-.057-.035-.052-.045-.047-.052-.042-.062-.035-.072-.027-.079-.022-.087-.015-.099-.007-.109v-.117l.007-.129.015-.139.015-.082.017-.084.025-.084.03-.084.032-.084.04-.079.045-.079.052-.074.055-.07.062-.062.07-.055.074-.05.082-.037.087-.03.094-.017.102-.008h.082l.074.012.07.02.064.032.057.04.052.05.045.055.04.065.032.072.027.077.02.084.012.087.007.094v.096z"/><path fill="#0B1F35" d="M20.066 5a9.966 9.966 0 0 0-5.067 1.402A9.962 9.962 0 0 0 9.934 5c-5.514 0-10 4.486-10 10s4.486 10 10 10a9.966 9.966 0 0 0 5.067-1.402A9.959 9.959 0 0 0 20.066 25c5.514 0 10-4.486 10-10s-4.486-10-10-10zm0 19a8.97 8.97 0 0 1-4.136-1.023 9.965 9.965 0 0 0 3.221-4.093l-.922-.389A8.987 8.987 0 0 1 15 22.434a8.992 8.992 0 0 1-3.226-3.93l-.922.39a9.974 9.974 0 0 0 3.218 4.083A8.967 8.967 0 0 1 9.934 24c-4.963 0-9-4.038-9-9s4.037-9 9-9a8.97 8.97 0 0 1 4.136 1.023 9.965 9.965 0 0 0-3.221 4.093l.922.389A8.98 8.98 0 0 1 15 7.566a8.989 8.989 0 0 1 3.226 3.931l.922-.39a9.977 9.977 0 0 0-3.218-4.084A8.964 8.964 0 0 1 20.066 6c4.963 0 9 4.038 9 9s-4.037 9-9 9z"/><path fill="#0B1F35" d="M15.531 14.996l-.013-.109-.02-.104-.022-.097-.03-.092-.035-.084-.04-.079-.042-.072-.047-.069-.052-.062-.055-.057-.06-.052-.06-.05-.065-.042-.065-.04-.067-.035-.07-.03-.072-.027-.072-.022-.072-.02-.072-.017-.074-.015-.072-.01-.072-.007-.072-.005-.069-.005h-.07l-.149.005-.139.01-.134.017-.127.025-.119.03-.112.037-.107.042-.099.045-.094.052-.087.055-.082.06-.074.065-.072.065-.065.07-.06.072-.057.072-.05.074-.047.077-.042.077-.04.077-.035.077-.032.077-.027.074-.021.073-.02.074-.02.072-.017.07-.013.067-.012.065-.01.06-.007.06-.007.052-.012.149-.005.144v.134l.01.129.015.124.022.114.027.109.035.104.04.097.045.092.05.084.055.082.057.074.065.07.067.065.07.06.075.055.074.05.079.045.082.042.084.037.084.032.087.027.087.027.089.02.089.02.089.015.092.012.089.01.087.005.089.005h.206l.109-.002h.099l.089-.005.082-.002.077-.008.069-.007.065-.007.062-.012.057-.013.055-.015.055-.02.055-.02.052-.022.057-.027.057-.03.154-.881-.104.06-.102.055-.105.042-.099.037-.099.032-.099.025-.099.017-.097.015-.094.007-.098.006h-.092l-.094-.002-.092-.005-.092-.01-.089-.012-.089-.012-.074-.017-.074-.025-.069-.032-.067-.04-.062-.047-.057-.05-.055-.057-.047-.06-.042-.062-.035-.065-.03-.067-.02-.067-.015-.065-.005-.067.003-.062.01-.05h2.299l.04-.218.03-.154.022-.146.012-.139.007-.132v-.124l-.007-.117zm-.978.245l-.008.094h-1.29l.012-.065.017-.077.02-.074.025-.07.03-.064.035-.062.037-.057.04-.052.045-.05.047-.042.052-.037.055-.032.057-.027.06-.02.065-.013.065-.01h.07l.065.003.062.007.06.015.057.02.052.025.05.03.047.037.042.045.037.05.032.055.025.062.02.067.015.075.005.082v.085z"/></svg>