<svg xmlns="http://www.w3.org/2000/svg" width="18" height="18" version="1" viewBox="0 0 18 18"><path fill="#0086C7" d="M6.09 8h5.82a5.966 5.966 0 0 0-.259-1H6.349a5.93 5.93 0 0 1 .461-1h4.381a5.975 5.975 0 0 0-.728-1H7.537c.421-.47.914-.872 1.463-1.191A5.97 5.97 0 0 0 6 3a6 6 0 1 0 0 12 5.97 5.97 0 0 0 3-.809c-.106-.062-.212-.123-.314-.191h.628a6.025 6.025 0 0 0 1.149-1H7.537a6.032 6.032 0 0 1-.728-1h4.381a6.01 6.01 0 0 0 .461-1H6.349a5.966 5.966 0 0 1-.259-1h5.82c.055-.326.09-.659.09-1H6c0-.341.035-.674.09-1z"/><path fill="#EC1C2E" fill-rule="evenodd" d="M12 3a5.97 5.97 0 0 0-3 .809A6.031 6.031 0 0 0 7.537 5h2.926c.275.307.52.641.728 1H6.809a5.926 5.926 0 0 0-.46 1h5.302c.114.322.201.656.259 1H6.09c-.055.326-.09.659-.09 1h6c0 .341-.035.674-.09 1H6.09c.058.344.145.678.259 1h5.302a5.93 5.93 0 0 1-.461 1H6.809c.208.359.452.693.728 1h2.926c-.34.379-.724.717-1.149 1h-.628c.102.068.208.129.314.191A5.97 5.97 0 0 0 12 15a6 6 0 1 0 0-12z" clip-rule="evenodd"/><path fill="#FFF" fill-rule="evenodd" d="M11.172 8.568l-.032-.002-.032-.003-.029-.005-.028-.003-.029-.005-.029-.005-.03-.005-.032-.004-.034-.004-.035-.003-.04-.003-.043-.002h-.048l-.052.002-.059.003-.064.005-.046.006-.044.01-.039.013-.036.014-.031.018-.029.019-.024.022-.019.023-.015.025-.009.027-.005.027v.029l.006.03.012.031.017.03.022.03.047.042.054.033.064.029.068.024.072.024.075.024.077.027.073.032.069.038.065.046.058.059.048.071.036.086.024.102.008.121-.008.144-.017.107-.029.096-.037.086-.046.076-.054.067-.059.058-.066.049-.07.043-.073.035-.077.029-.078.024-.078.018-.078.012-.077.008-.074.005-.071.002h-.099l-.09-.002-.081-.001-.075-.002-.069-.003-.06-.003-.058-.005-.051-.007-.048-.006-.044-.008-.042-.008-.041-.011-.039-.011-.038-.011-.038-.015-.04-.014.099-.501.022.005.027.008.034.008.037.009.043.008.047.011.052.01.054.009.057.008.061.008.062.007.066.006.065.003.067.002h.067l.069-.003.063-.011.053-.018.04-.026.032-.028.024-.034.017-.035.015-.035.009-.035.005-.037-.001-.032-.008-.03-.013-.026-.018-.025-.022-.022-.027-.021-.031-.019-.033-.018-.037-.017-.04-.018-.041-.016-.042-.016-.044-.017-.045-.018-.046-.019-.045-.019-.045-.021-.044-.024-.043-.025-.042-.028-.038-.03-.037-.035-.033-.037-.031-.041-.027-.045-.022-.049-.019-.053-.013-.059-.008-.064-.002-.07.005-.075.005-.046.006-.045.007-.043.009-.042.01-.04.011-.039.014-.037.015-.037.017-.033.018-.034.021-.03.022-.031.024-.028.025-.027.028-.026.03-.024.032-.022.033-.021.037-.019.038-.019.04-.016.043-.016.045-.013.048-.013.051-.011.053-.009.054-.008.057-.007.061-.005.064-.003.065-.003h.153l.077.002.069.001.063.003.056.004.051.003.047.005.039.003.037.005.032.004.03.004.026.004.022.004.021.003.019.003.018.002-.115.517z" clip-rule="evenodd"/><path fill="#FFF" d="M11.697 7.5h.641l-.099.559h.395l-.09.509-.404-.008-.212 1.271-.003.027v.024l.003.021.007.019.009.016.011.016.015.013.016.01.019.009.019.008.022.007.023.003.025.005.026.001.027.002h.078l.045-.003.041-.007.035-.008.027-.008.021-.008.013-.006.005-.002-.066.436-.016.009-.017.008-.018.008-.017.008-.018.007-.019.006-.019.006-.023.007-.022.006-.024.005-.027.005-.029.005-.03.004-.032.005-.037.005-.038.005h-.172l-.091-.007-.082-.009-.071-.013-.063-.018-.052-.019-.045-.024-.037-.027-.03-.03-.024-.034-.017-.036-.012-.04-.006-.045-.002-.046.002-.051.005-.053.008-.057.426-2.496z"/><path fill="none" d="M8.713 8.941v-.056l-.003-.053-.01-.047-.013-.044-.016-.039-.02-.035-.024-.032-.028-.029-.03-.024-.032-.019-.033-.016-.037-.013-.038-.01-.04-.004-.042-.002h-.044l-.042.006-.041.008-.039.013-.036.018-.035.02-.034.024-.03.028-.029.032-.026.033-.023.037-.023.04-.019.041-.016.045-.013.048-.011.049-.008.042h.83z"/><path fill="#FFF" d="M9.342 8.783l-.008-.07-.013-.067-.015-.063-.019-.059-.022-.054-.026-.051-.027-.046-.03-.045-.034-.04-.035-.036-.038-.034-.038-.032-.042-.027-.041-.026-.043-.022-.045-.019-.046-.018-.047-.014-.046-.013-.046-.011-.048-.01-.046-.006-.047-.005-.046-.003-.045-.003h-.044l-.096.003-.089.007-.087.011-.081.016-.076.019-.072.024-.069.027-.064.029-.06.033-.056.035-.053.039-.048.041-.046.042-.042.044-.038.047-.036.046-.032.048-.03.049-.028.05-.025.049-.023.05-.021.05-.017.047-.016.049-.013.048-.013.046-.011.045-.008.043-.008.042-.006.038-.005.038-.005.034-.008.096-.003.092v.086l.006.083.01.08.014.073.018.07.022.068.026.062.029.059.032.054.035.053.037.048.041.045.043.041.045.038.048.035.048.032.051.029.053.027.054.024.054.021.056.018.056.018.057.013.057.013.057.01.059.008.057.006.056.003.057.003h.133l.07-.002h.064l.058-.004.053-.002.049-.005.045-.005.042-.005.04-.008.037-.008.035-.01.035-.013.035-.013.034-.014.037-.018.037-.019.099-.567-.069.041-.065.035L9 9.918l-.064.023-.064.021-.063.016-.064.011-.062.01-.061.005-.062.003h-.059l-.061-.002-.059-.003-.059-.006-.058-.008-.057-.008-.048-.011-.048-.016-.045-.021-.043-.026-.04-.03-.036-.032-.035-.037-.03-.038-.027-.04-.023-.041-.019-.043-.013-.043-.01-.042-.003-.043.002-.04.006-.032h1.478l.026-.14.019-.099.014-.094.008-.09.005-.085v-.08l-.003-.074zm-.629.158l-.005.061h-.83l.008-.042.011-.049.013-.048.016-.045.019-.041.022-.04.024-.037.026-.033.029-.032.03-.027.034-.025.035-.021.037-.018.038-.012.042-.008.041-.006h.045l.041.002.04.005.038.01.037.013.034.016.032.019.03.024.027.029.024.032.021.035.016.04.012.042.01.048.003.053v.055z"/><path fill="#FFF" fill-rule="evenodd" d="M7.159 8.617l-.015-.081-.025-.075-.035-.069-.045-.062-.053-.056-.059-.051-.064-.045-.067-.038-.072-.034-.071-.027-.072-.02-.072-.018-.069-.01-.065-.006-.08-.002-.076-.001h-.217l-.067.001-.066.004-.064.003-.062.006-.061.008-.057.01-.056.011-.054.014-.051.018-.051.021-.048.022-.164.542.024-.014.034-.013.041-.013.049-.012.056-.013.059-.011.065-.01.069-.011.072-.008.073-.008.073-.006.074-.005.073-.005.072-.002.069-.001.065.002.027.003.027.005.027.006.026.008.024.011.024.013.021.013.021.016.019.019.016.019.016.021.013.022.01.024.008.026.005.027.003.029v.04l-.008.044-.011.038-.005.016h-.018l-.012-.001h-.016l-.017-.002h-.021l-.022-.002h-.052l-.025-.001h-.027l-.029-.002h-.107l-.03.002-.034.001-.035.004-.038.003-.04.003-.038.005-.039.003-.038.003-.035.005-.032.003-.027.003-.024.003-.018.002-.011.002h-.003L5.566 9l-.077.019-.075.026-.073.032-.07.037-.067.042-.063.047-.059.052-.052.059-.05.063-.041.067-.037.071-.03.077-.021.081-.014.085-.007.089.002.05.003.051.006.053.01.051.014.053.018.051.022.049.027.048.032.048.038.043.043.042.051.037.057.034.065.03.072.026.081.019.062.01.064.005.065-.002.067-.005.067-.01.067-.013.067-.018.065-.021.062-.024.061-.026.057-.029.053-.03.049-.032.043-.034.038-.035.03-.035-.006.011-.006.019-.005.029-.006.034-.006.04-.006.043-.006.048-.006.048h.576l.093-.509.238-1.198.012-.095-.001-.086zm-.806.809l-.007.034-.006.035-.006.038-.008.04-.008.038-.008.037-.008.035-.008.024-.01.026-.013.025-.016.027-.019.027-.022.026-.026.027-.03.024-.034.024-.038.022-.043.019-.048.016-.052.015-.06.011-.062.006-.07.002-.038-.002-.04-.008-.037-.016-.035-.024-.029-.035-.019-.048-.011-.06.003-.078.008-.038.013-.037.016-.034.022-.03.024-.029.027-.026.029-.024.03-.022.03-.018.03-.018.03-.014.027-.011.026-.011.024-.008.019-.006.014-.003.026-.008.03-.008.034-.006.035-.006.037-.006.037-.005.037-.006.037-.003h.069l.029.002.027.003.021.005.016.008.01.01.002.013-.008.029zm-4.259 1.079H1.47L1.995 7.5H3.08l.107 1.789.739-1.789h1.126l-.526 3.005h-.624l.394-2.25h-.024l-.929 2.25h-.699l-.006-.094-.015-.251-.02-.354-.024-.407-.024-.41-.021-.362-.014-.262-.007-.11h-.032.007l-.394 2.25zm10.425 0h.649l.222-1.298.009-.051.012-.049.012-.05.016-.046.018-.046.022-.043.027-.042.031-.04.036-.035.042-.032.049-.028.055-.026.063-.021.072-.016.08-.009.089-.007h.008l.01.002.013.002h.012l.012.001.009.002.007.001h.003l.001-.009.007-.027.008-.042.013-.052.016-.059.017-.064.021-.064.024-.061.017-.044.021-.043.021-.044.022-.039.019-.034.016-.027.011-.018.004-.006h-.004l-.008-.003-.011-.002-.016-.003-.016-.003-.019-.002-.017-.003h-.016l-.071.005-.063.008-.059.013-.055.014-.051.019-.046.021-.045.025-.04.027-.04.031-.036.033-.034.035-.035.039-.033.04-.032.043-.034.044-.033.047.075-.41-.65-.008-.427 2.454z" clip-rule="evenodd"/><path fill="#FFF" d="M16.529 9.121l-.003-.065-.006-.062-.01-.062-.013-.061-.014-.059-.018-.056-.019-.056-.024-.053-.024-.053-.029-.049-.03-.048-.032-.045-.035-.045-.038-.041-.04-.04-.042-.036-.045-.035-.047-.034-.048-.03-.053-.027-.053-.026-.056-.024-.059-.021-.059-.018-.062-.015-.064-.013-.067-.01-.069-.006-.07-.005-.072-.002-.068.003-.069.003-.067.008-.065.008-.064.013-.062.014-.061.017-.059.02-.056.022-.056.024-.054.029-.053.029-.049.032-.048.034-.046.037-.045.04-.041.043-.04.043-.038.048-.035.048-.034.053-.032.053-.029.055-.026.059-.023.061-.021.062-.019.065-.016.067-.014.069-.011.072-.008.073-.005.077-.002.075.002.073.005.07.008.069.011.065.014.064.018.062.019.059.022.056.024.054.029.053.029.049.034.048.034.045.038.043.038.04.041.038.045.035.045.034.048.03.049.029.051.025.053.024.056.021.056.019.057.016.061.013.061.011.062.01.062.006.065.003.065.002.065-.002.065-.003.064-.006.064-.008.061-.011.061-.013.061-.016.057-.019.057-.021.054-.024.054-.026.053-.029.05-.03.049-.033.046-.037.045-.038.043-.042.041-.043.04-.046.037-.049.034-.051.033-.054.029-.057.029-.059.024-.062.022-.065.021-.067.016-.07.014-.073.011-.075.01-.078.005-.081.002-.067-.002-.07zm-.768-.048l-.005.065-.008.069-.014.088-.016.081-.021.075-.024.069-.026.062-.03.057-.032.051-.034.045-.038.04-.04.034-.043.029-.044.022-.048.018-.049.011-.053.006-.054.002-.049-.003-.046-.006-.045-.013-.04-.018-.037-.022-.033-.029-.03-.034-.027-.04-.022-.046-.018-.051-.015-.056-.01-.064-.005-.07V9.37l.005-.083.01-.089.01-.053.011-.054.016-.054.019-.054.021-.054.026-.051.029-.051.034-.048.035-.045.04-.04.045-.035.048-.032.053-.024.056-.019.061-.011.065-.005h.053l.048.008.045.013.041.021.037.026.034.032.029.035.026.041.021.046.018.049.013.054.008.056.005.061v.063z"/></svg>