<svg width="30" height="30" viewBox="0 0 30 30" xmlns="http://www.w3.org/2000/svg"><g fill="#0B1F35" fill-rule="evenodd"><path d="M20.033 5a9.866 9.866 0 0 0-5.039 1.402A9.862 9.862 0 0 0 9.958 5C4.476 5 .016 9.486.016 15s4.46 10 9.942 10a9.866 9.866 0 0 0 5.038-1.402A9.86 9.86 0 0 0 20.033 25c5.482 0 9.942-4.486 9.942-10s-4.46-10-9.942-10zm0 19a8.878 8.878 0 0 1-4.113-1.023 9.956 9.956 0 0 0 3.203-4.093l-.917-.389a8.976 8.976 0 0 1-3.21 3.939 8.981 8.981 0 0 1-3.208-3.93l-.917.39a9.965 9.965 0 0 0 3.2 4.083A8.875 8.875 0 0 1 9.958 24c-4.934 0-8.948-4.038-8.948-9s4.014-9 8.948-9a8.878 8.878 0 0 1 4.113 1.023 9.956 9.956 0 0 0-3.203 4.093l.917.389a8.97 8.97 0 0 1 3.21-3.939 8.978 8.978 0 0 1 3.208 3.931l.917-.39a9.968 9.968 0 0 0-3.2-4.084A8.872 8.872 0 0 1 20.033 6c4.934 0 8.948 4.038 8.948 9s-4.014 9-8.948 9z"/><path d="M16.95 14.884l.015-.042.022-.04.03-.035.037-.034.044-.03.05-.027.054-.023.061-.02.067-.015.072-.01.098-.007.092-.005.081-.002h.075l.066.002.062.005.054.005.052.005.049.007.047.008.045.007.044.008.044.005.045.007.05.005.048.003.178-.805-.027-.002-.03-.005-.031-.005-.035-.005-.04-.007-.047-.005-.05-.008-.056-.007-.062-.005-.071-.008-.079-.005-.086-.005-.099-.005-.106-.002-.118-.003h-.238l-.1.005-.1.005-.093.008-.089.01-.084.012-.082.015-.078.017-.074.02-.07.02-.066.025-.062.025-.06.03-.056.029-.052.033-.049.034-.047.038-.042.039-.04.043-.037.044-.035.047-.031.048-.027.052-.027.052-.023.057-.022.057-.017.062-.015.062-.015.065-.01.067-.01.069-.007.072-.007.117.002.109.013.099.02.092.03.082.033.077.042.069.048.065.051.057.057.055.059.047.064.042.067.04.07.037.068.032.069.03.072.03.069.027.068.028.065.024.065.025.061.027.057.028.052.027.047.03.041.032.035.035.027.04.02.039.013.047.002.05-.007.057-.015.055-.023.054-.027.055-.037.052-.05.045-.061.04-.082.027-.098.017-.106.005h-.104l-.103-.002-.102-.005-.101-.01-.096-.01-.094-.013-.088-.012-.085-.015-.078-.015-.075-.017-.067-.012-.056-.015-.052-.013-.042-.012-.035-.008-.153.78.062.022.06.022.058.018.06.017.065.018.063.012.07.012.073.01.079.01.09.008.093.005.106.005.117.002.125.003.138.002h.153l.112-.002.113-.008.118-.012.121-.02.12-.027.122-.038.118-.044.114-.055.11-.067.1-.077.091-.089.085-.105.071-.119.057-.134.044-.149.027-.166.012-.223-.012-.189-.037-.159-.057-.134-.074-.109-.088-.092-.102-.072-.106-.06-.113-.049-.119-.042-.116-.038-.111-.037-.106-.037-.1-.045-.083-.052-.071-.064-.035-.048-.027-.047-.018-.047-.01-.047v-.045l.008-.042zm3.295 1.971l-.032.012-.042.013-.054.012-.065.01-.068.005h-.121l-.042-.002-.04-.003-.04-.007-.034-.005-.034-.01-.03-.013-.03-.015-.025-.014-.022-.02-.017-.025-.015-.025-.01-.03-.005-.032v-.037l.005-.042.329-1.979.624.013.138-.792h-.61L20.16 13h-.992l-.66 3.882-.012.09-.008.082-.002.079.002.072.01.069.018.063.027.057.037.052.047.047.056.042.07.037.081.03.097.027.11.02.127.015.14.01h.267l.059-.007.057-.008.05-.007.046-.008.045-.007.041-.008.037-.007.035-.01.035-.01.029-.01.03-.01.027-.01.027-.012.027-.013.027-.012.025-.015.101-.677-.007.002-.02.01zm-8.095-1.983l-.003-.134-.022-.127-.04-.117-.054-.107-.07-.097-.082-.087-.091-.079-.099-.069-.103-.06-.111-.052-.112-.042-.111-.032-.111-.027-.107-.015-.101-.01-.123-.003-.119-.003h-.335l-.103.003-.102.005-.098.005-.097.01-.093.012-.088.015-.086.017-.084.022-.078.027-.08.034-.073.035-.255.843.037-.022.052-.02.064-.02.077-.02.086-.02.092-.017.101-.015.107-.017.111-.012.113-.012.114-.01.113-.008.113-.007.112-.003.106-.003.102.003.041.005.042.007.042.01.04.012.036.017.037.02.032.02.032.025.03.03.025.03.024.032.02.035.017.037.012.04.007.042.005.045v.062l-.012.07-.017.06-.007.025h-.028l-.02-.003h-.024l-.027-.002h-.032l-.035-.003h-.08l-.04-.003h-.04l-.046-.003h-.165l-.046.003-.052.003-.055.005-.06.005-.061.005-.06.007-.06.005-.059.005-.055.008-.05.005-.041.005-.037.005-.027.003-.017.002h-.003l-.121.022-.118.03-.117.04-.113.05-.108.056-.104.067-.096.072-.092.081-.081.092-.077.097-.064.104-.057.112-.047.119-.032.127-.022.132-.01.139.003.077.005.079.01.082.015.079.022.082.027.08.035.077.042.074.05.075.059.067.067.065.078.057.089.052.101.047.111.04.127.03.096.015.099.008.101-.002.103-.008.104-.015.103-.02.104-.027.101-.032.096-.037.094-.04.088-.045.082-.047.077-.05.066-.052.06-.055.047-.055-.01.017-.01.03-.007.045-.01.052-.01.062-.01.067-.01.074-.01.074h.89l.141-.792.368-1.864.02-.146zM10.9 15.996l-.01.052-.01.055-.01.06-.013.062-.012.06-.012.057-.013.055-.011.037-.015.04-.02.04-.025.042-.03.042-.035.04-.04.042-.046.037-.052.037-.06.035-.066.03-.074.025-.081.022-.092.017-.096.01-.109.003-.06-.003-.06-.013-.057-.025-.054-.037-.045-.055-.03-.074-.017-.094.005-.122.012-.06.02-.057.025-.052.035-.047.036-.045.042-.04.045-.037.048-.035.046-.027.047-.027.047-.022.042-.017.04-.017.036-.012.03-.01.022-.005.04-.012.044-.012.052-.01.055-.01.056-.01.057-.008.06-.007.056-.005h.107l.045.003.041.005.032.007.025.012.015.015.003.02-.011.045zM7.147 13l-1.143 2.783L5.84 13H4.161l-.813 4.674h.966l.61-3.5h.04l.008.171.023.408.032.563.037.638.037.633.032.551.022.39.01.146h1.08l1.437-3.5h.037l-.61 3.5h.966L8.89 13H7.147zm15.63 1.815l.015.002.02.003h.02l.017.002.014.002.01.003h.005l.003-.015.01-.042.012-.065.02-.082.025-.091.027-.1.031-.099.038-.094.027-.07.032-.067.032-.067.035-.062.03-.052.024-.042.017-.028.005-.01h-.005l-.012-.005-.018-.002-.024-.005-.024-.005-.03-.002-.027-.005h-.025l-.108.007-.1.012-.091.02-.084.023-.078.03-.072.032-.07.039-.061.043-.062.047-.056.052-.052.055-.055.059-.052.062-.05.067-.051.07-.052.072.117-.638-1.005-.013-.662 3.818h1.005l.343-2.018.015-.079.017-.077.02-.077.025-.072.027-.072.035-.067.041-.065.047-.062.057-.055.064-.049.077-.045.084-.04.098-.032.111-.025.124-.015.138-.009h.013zm3.52-.333l-.055-.07-.06-.065-.061-.062-.065-.057-.07-.055-.073-.052-.074-.047-.081-.042-.082-.04-.086-.037-.092-.032-.091-.027-.097-.025-.098-.02-.104-.015-.106-.01-.108-.007-.112-.003-.106.003-.107.005-.103.012-.101.012-.099.02-.096.022-.094.027-.091.03-.087.035-.086.037-.084.045-.081.045-.077.05-.073.055-.072.057-.07.062-.062.067-.062.067-.06.075-.054.074-.052.082-.05.082-.044.087-.04.092-.037.094-.032.097-.03.102-.024.104-.022.107-.017.112-.012.114-.008.119-.002.117.002.114.008.109.012.107.017.102.022.099.026.097.03.092.035.087.037.084.045.082.044.077.052.074.052.07.06.067.06.062.064.06.068.055.07.052.073.047.077.045.079.04.081.037.087.032.086.03.089.025.093.02.094.017.096.015.096.01.102.005.101.003.102-.003.101-.005.099-.01.098-.012.093-.017.094-.02.093-.025.089-.03.088-.032.084-.037.083-.04.082-.045.076-.047.077-.052.072-.057.07-.06.066-.065.064-.067.062-.072.057-.077.051-.079.052-.084.045-.089.045-.092.036-.097.035-.102.032-.104.025-.109.022-.114.017-.117.015-.122.007-.127.003-.104-.003-.104-.005-.102-.01-.097-.015-.097-.02-.094-.022-.092-.027-.087-.03-.087-.036-.082-.037-.082-.045-.077-.047-.074-.046-.071zm-.845.966l-.007.102-.011.107-.022.136-.025.127-.032.117-.037.107-.04.097-.046.089-.05.079-.052.07-.06.062-.061.052-.067.045-.07.035-.073.027-.076.017-.082.01-.083.003-.077-.005-.072-.01-.07-.02-.06-.027-.058-.035-.051-.045-.047-.052-.042-.062-.035-.072-.026-.079-.022-.087-.015-.099-.007-.109v-.117l.007-.129.015-.139.015-.082.017-.084.024-.084.03-.084.032-.084.04-.079.045-.079.051-.074.055-.07.062-.062.07-.055.073-.05.081-.037.087-.03.093-.017.102-.008h.081l.074.012.07.02.063.032.057.04.051.05.045.055.04.065.032.072.027.077.02.084.011.087.007.094v.096zM15.523 14.996l-.012-.109-.02-.104-.022-.097-.03-.092-.035-.084-.04-.079-.041-.072-.047-.069-.052-.062-.055-.057-.06-.052-.059-.05-.064-.042-.065-.04-.067-.035-.07-.03-.07-.027-.072-.022-.072-.02-.072-.017-.073-.015-.072-.01-.071-.007-.072-.005-.069-.005h-.07l-.147.005-.139.01-.133.017-.126.025-.118.03-.112.037-.106.042-.099.045-.093.052-.087.055-.081.06-.074.065-.071.065-.065.07-.06.072-.056.072-.05.074-.047.077-.041.077-.04.077-.035.077-.032.077-.027.074-.02.073-.02.074-.02.072-.017.07-.013.067-.012.065-.01.06-.007.06-.007.052-.012.149-.005.144v.134l.01.129.015.124.022.114.027.109.035.104.04.097.044.092.05.084.054.082.057.074.065.07.066.065.07.06.075.055.073.05.079.045.081.042.084.037.083.032.087.027.086.027.089.02.088.02.089.015.091.012.089.01.086.005.089.005h.205l.108-.002h.098l.089-.005.081-.002.077-.008.069-.007.064-.007.062-.012.056-.013.055-.015.055-.02.055-.02.051-.022.057-.027.057-.03.153-.881-.104.06-.101.055-.105.042-.098.037-.098.032-.099.025-.098.017-.097.015-.093.007-.098.006h-.091l-.094-.002-.091-.005-.092-.01-.088-.012-.088-.012-.074-.017-.074-.025-.068-.032-.067-.04-.062-.047-.056-.05-.055-.057-.047-.06-.041-.062-.035-.065-.03-.067-.02-.067-.015-.065-.005-.067.003-.062.01-.05h2.286l.04-.218.03-.154.022-.146.011-.139.007-.132v-.124l-.007-.117zm-.972.245l-.008.094H13.26l.012-.065.017-.077.02-.074.025-.07.03-.064.035-.062.036-.057.04-.052.045-.05.047-.042.051-.037.055-.032.057-.027.06-.02.064-.013.065-.01h.07l.064.003.062.007.06.015.056.02.052.025.05.03.046.037.042.045.037.05.031.055.025.062.02.067.015.075.005.082v.085h-.003z"/></g></svg>