<svg xmlns="http://www.w3.org/2000/svg" width="24" height="24" viewBox="0 0 24 24" fill="none"><rect width="24" height="24" fill="none"/><path fill-rule="evenodd" clip-rule="evenodd" d="M17 6H18V10H17V6ZM0 22H24V23H0V22Z" fill="#D8D8D8"/><path fill-rule="evenodd" clip-rule="evenodd" d="M6 14H8V22H6V14ZM11 14H13V22H11V14ZM16 14H18V22H16V14ZM12 0H11V6H12V3.333L17 4V0.667L12 0Z" fill="white" fill-opacity="0.3"/><path fill-rule="evenodd" clip-rule="evenodd" d="M0 22H24V23H0V22Z" fill="#D8D8D8"/><path fill-rule="evenodd" clip-rule="evenodd" d="M2 22H0V23H2H3H21H22H24V22H22V11V10H21H18V7V6H17H7H6V10H3H2V11V22ZM3 22H21V11H18H17H7H6H3V22ZM17 10V7H7V10H17Z" fill="white"/></svg>