<svg xmlns="http://www.w3.org/2000/svg" width="24" height="24" viewBox="0 0 24 24"><g fill="none" fill-rule="evenodd"><path fill="#FFF" fill-opacity=".01" d="M0 0h24v24H0z"/><path fill="#D8D8D8" d="M17 6h1v4h-1zM0 22h24v1H0z"/><path fill="#FFF" d="M2 10h1v13H2zm19 0h1v13h-1z"/><path fill="#FFF" d="M2 10h20v1H2z"/><path fill="#FFF" d="M6 6h1v5H6zm1 0h11v1H7z"/><path fill="#FFF" d="M6 14h2v8H6zm5 0h2v8h-2zm5 0h2v8h-2zM12 0h-1v6h1V3.333L17 4V.667z" opacity=".3"/><path fill="#D8D8D8" d="M0 22h24v1H0z"/><path fill="#FFF" d="M0 22h24v1H0zM17 6h1v5h-1z"/></g></svg>