<svg width="24" height="24" viewBox="0 0 24 24" fill="none" xmlns="http://www.w3.org/2000/svg"><rect width="24" height="24" fill="none"/><path d="M12 22C17.5228 22 22 17.5228 22 12C22 6.47715 17.5228 2 12 2C6.47715 2 2 6.47715 2 12C2 17.5228 6.47715 22 12 22Z" fill="#FCC900"/><path fill-rule="evenodd" clip-rule="evenodd" d="M12 2C8.95867 2 6.23447 3.35767 4.40039 5.5H19.5996C17.7655 3.35767 15.0413 2 12 2Z" fill="#292929"/><path fill-rule="evenodd" clip-rule="evenodd" d="M21.7459 14.25C21.9121 13.5268 22 12.7737 22 12C22 11.2263 21.9121 10.4732 21.7459 9.74997H2.25415C2.08786 10.4732 2 11.2263 2 12C2 12.7737 2.08786 13.5268 2.25413 14.25H21.7459Z" fill="#292929"/><path fill-rule="evenodd" clip-rule="evenodd" d="M11.975 22C8.94378 21.9926 6.22945 20.6364 4.40039 18.5H19.5996C17.7706 20.6364 15.0562 21.9926 12.025 22H11.975Z" fill="#292929"/></svg>