<svg width="36" height="36" viewBox="0 0 36 36" fill="none" xmlns="http://www.w3.org/2000/svg"><rect width="36" height="36" fill="none"/><path d="M18 33C26.2843 33 33 26.2843 33 18C33 9.71573 26.2843 3 18 3C9.71573 3 3 9.71573 3 18C3 26.2843 9.71573 33 18 33Z" fill="#FCC900"/><path fill-rule="evenodd" clip-rule="evenodd" d="M24 3H24V4.24813C22.1626 3.44534 20.1333 3 18 3C13.438 3 9.35171 5.03651 6.60059 8.25H29.3994C27.9348 6.53924 26.0918 5.16205 24 4.24813V3Z" fill="#292929"/><path fill-rule="evenodd" clip-rule="evenodd" d="M3.3812 21.375C3.13178 20.2902 3 19.1605 3 18C3 16.8395 3.13179 15.7098 3.38122 14.625H32.6188C32.8682 15.7098 33 16.8395 33 18C33 19.1605 32.8682 20.2902 32.6188 21.375H3.3812Z" fill="#292929"/><path fill-rule="evenodd" clip-rule="evenodd" d="M17.9625 33C13.4157 32.9888 9.34418 30.9547 6.60059 27.75H29.3994C27.9348 29.4607 26.0918 30.8379 24 31.7519C22.1734 32.55 20.1571 32.9948 18.0375 33H17.9625Z" fill="#292929"/></svg>