<svg width="48" height="48" viewBox="0 0 48 48" fill="none" xmlns="http://www.w3.org/2000/svg"><rect width="48" height="48" fill="none"/><path d="M24 44C35.0457 44 44 35.0457 44 24C44 12.9543 35.0457 4 24 4C12.9543 4 4 12.9543 4 24C4 35.0457 12.9543 44 24 44Z" fill="#FCC900"/><path fill-rule="evenodd" clip-rule="evenodd" d="M24 4H24C17.9173 4 12.4689 6.71535 8.80078 11H39.1992C35.531 6.71535 30.0826 4 24 4Z" fill="#292929"/><path fill-rule="evenodd" clip-rule="evenodd" d="M4.50827 28.4999C4.17571 27.0536 4 25.5473 4 24C4 22.4526 4.17572 20.9463 4.5083 19.4999H43.4917C43.8243 20.9463 44 22.4526 44 24C44 25.5473 43.8243 27.0536 43.4917 28.4999H4.50827Z" fill="#292929"/><path fill-rule="evenodd" clip-rule="evenodd" d="M23.9501 43.9999C17.8876 43.9851 12.4589 41.2729 8.80078 36.9999L39.1992 36.9999C35.5411 41.2729 30.1125 43.9851 24.0499 43.9999H23.9501Z" fill="#292929"/></svg>