<svg width="30" height="30" viewBox="0 0 30 30" fill="none" xmlns="http://www.w3.org/2000/svg"><rect width="30" height="30" fill="none"/><path d="M15 27.5C21.9036 27.5 27.5 21.9036 27.5 15C27.5 8.09644 21.9036 2.5 15 2.5C8.09644 2.5 2.5 8.09644 2.5 15C2.5 21.9036 8.09644 27.5 15 27.5Z" fill="#FCC900"/><path fill-rule="evenodd" clip-rule="evenodd" d="M23.9995 2.5H23.9995V6.32531C21.7259 3.96699 18.534 2.5 14.9995 2.5C11.1979 2.5 7.7926 4.19709 5.5 6.875H24.499C24.3379 6.68684 24.1714 6.50353 23.9995 6.32531V2.5Z" fill="#292929"/><path fill-rule="evenodd" clip-rule="evenodd" d="M2.81767 17.8125C2.60982 16.9085 2.5 15.9671 2.5 15C2.5 14.0329 2.60983 13.0915 2.81769 12.1875H27.1823C27.3902 13.0915 27.5 14.0329 27.5 15C27.5 15.9671 27.3902 16.9085 27.1823 17.8125H2.81767Z" fill="#292929"/><path fill-rule="evenodd" clip-rule="evenodd" d="M14.9683 27.5C11.1792 27.4907 7.78633 25.7956 5.5 23.125H24.499C24.3379 23.3131 24.1713 23.4965 23.9995 23.6747C21.7326 26.0261 18.5528 27.4914 15.0307 27.5H14.9683Z" fill="#292929"/></svg>