<svg xmlns="http://www.w3.org/2000/svg" width="40" height="47" viewBox="0 0 40 47"><g fill="none" fill-rule="evenodd"><path d="M-4 0h48v48H-4z"/><path fill="#0B1F35" d="M25 39c-2.2 0-4-1.8-4-4s1.8-4 4-4 4 1.8 4 4-1.8 4-4 4zm0-6c-1.1 0-2 .9-2 2s.9 2 2 2 2-.9 2-2-.9-2-2-2zm-10-4c-2.2 0-4-1.8-4-4s1.8-4 4-4 4 1.8 4 4-1.8 4-4 4zm0-6c-1.1 0-2 .9-2 2s.9 2 2 2 2-.9 2-2-.9-2-2-2zm-1.8 14.4l12.004-15.998 1.6 1.2L14.799 38.6z" opacity=".4"/><path fill="#0B1F35" d="M35.4 13H28V7.3c0-4-3.3-7.3-7.3-7.3h-1.4c-4 0-7.3 3.3-7.3 7.3V13H4.6L.4 47h39.1l-4.1-34zM13 7.3C13 3.8 15.8 1 19.3 1h1.4C24.2 1 27 3.8 27 7.3V13H13V7.3zM5.4 14h29.1l3.9 32H1.6l3.8-32z"/></g></svg>