<svg xmlns="http://www.w3.org/2000/svg" width="30" height="35" viewBox="0 0 30 35"><g fill="none" fill-rule="evenodd"><path d="M-3 0h36v36H-3z"/><path fill="#FFF" d="M18.5 28c-1.4 0-2.5-1.1-2.5-2.5s1.1-2.5 2.5-2.5 2.5 1.1 2.5 2.5-1.1 2.5-2.5 2.5zm0-4c-.8 0-1.5.7-1.5 1.5s.7 1.5 1.5 1.5 1.5-.7 1.5-1.5-.7-1.5-1.5-1.5zm-7-3C10.1 21 9 19.9 9 18.5s1.1-2.5 2.5-2.5 2.5 1.1 2.5 2.5-1.1 2.5-2.5 2.5zm0-4c-.8 0-1.5.7-1.5 1.5s.7 1.5 1.5 1.5 1.5-.7 1.5-1.5-.7-1.5-1.5-1.5zm-1.4 10.7l8.997-12.001.8.6-8.997 12z" opacity=".4"/><path fill="#FFF" d="M25.9 9H21V6.1C21 2.8 18.5.2 15.5.2h-1C11.5.2 9 2.9 9 6.1V9H4.1L.9 35h28.2L25.9 9zM10 6.1c0-2.7 2-4.9 4.5-4.9h1C18 1.1 20 3.3 20 6.1V9H10V6.1zM4.9 10h20.2L28 34H2.1l2.8-24z"/></g></svg>