<svg xmlns="http://www.w3.org/2000/svg" width="24" height="24" viewBox="0 0 20 24"><g fill="none" fill-rule="evenodd"><path d="M-2 0h24v24H-2z"/><path fill="#FFF" d="M12.5 20.5c-1.1 0-2-.9-2-2s.9-2 2-2 2 .9 2 2-.9 2-2 2zm0-3c-.6 0-1 .4-1 1s.4 1 1 1 1-.4 1-1-.4-1-1-1zm-5-2c-1.1 0-2-.9-2-2s.9-2 2-2 2 .9 2 2-.9 2-2 2zm0-3c-.6 0-1 .4-1 1s.4 1 1 1 1-.4 1-1-.4-1-1-1zm-.9 7.2l5.999-8 .8.6-5.999 8z" opacity=".4"/><path fill="#FFF" d="M17.4 7H15V4.5C15 2 13 0 10.5 0h-1C7 0 5 2 5 4.5V7H2.6L.4 24h19.1L17.4 7zM6 4.5C6 2.6 7.6 1 9.5 1h1C12.4 1 14 2.6 14 4.5V7H6V4.5zM3.4 8h13.1l1.9 15H1.6L3.4 8z"/></g></svg>
