<svg width="15" height="16" viewBox="0 0 15 16" xmlns="http://www.w3.org/2000/svg"><title>icon_format-zip_s_white</title><g fill="none" fill-rule="evenodd"><path d="M-1-1h18v18H-1z"/><g fill="#FFF"><path d="M13 4.706h-1V1.467c0-.29-.251-.526-.559-.526H4.707L1 4.431v.275H0V4.04L4.293 0h7.148C12.301 0 13 .658 13 1.467v3.239zM11.5 16h-10C.673 16 0 15.367 0 14.588h1c0 .26.224.47.5.47h10c.275 0 .5-.21.5-.47h1c0 .779-.673 1.412-1.5 1.412z"/><path d="M.412 6.645h4.073v.713l-3.12 3.832H4.56V12H.173v-.765l3.12-3.78H.413v-.81zm6.403 0h.937V12h-.937V6.645zm3.605 0h2.363c.38 0 .69.055.93.165.24.11.424.247.555.413a1.4 1.4 0 0 1 .266.54c.047.195.071.374.071.54 0 .165-.024.343-.071.536a1.403 1.403 0 0 1-.267.536c-.13.165-.314.301-.554.409-.24.107-.55.161-.93.161h-1.425V12h-.938V6.645zm.938 2.535h1.372c.105 0 .212-.015.322-.045a.923.923 0 0 0 .304-.146.75.75 0 0 0 .225-.27.927.927 0 0 0 .087-.424c0-.175-.025-.32-.075-.435a.695.695 0 0 0-.203-.274.72.72 0 0 0-.293-.139 1.588 1.588 0 0 0-.352-.037h-1.387v1.77z" fill-opacity=".9"/></g></g></svg>