<svg width="26" height="26" viewBox="0 0 26 26" xmlns="http://www.w3.org/2000/svg"><title>icon_format-zip_l_black</title><g fill="none" fill-rule="evenodd"><path d="M-2-2h30v30H-2z"/><g fill="#0B1F35"><path d="M17 26H4a4.005 4.005 0 0 1-3.998-3.874H0V6.293L6.293 0H17c2.206 0 4 1.794 4 4v5h-1V4c0-1.654-1.346-3-3-3H6.707L1 6.707V22c0 1.654 1.346 3 3 3h13c1.654 0 3-1.346 3-3h1c0 2.206-1.794 4-4 4z"/><path d="M7.22 18.2v.8h5.68v-.8H8.35l4.43-5.54v-.8H7.56v.8h4.1L7.22 18.2zm8.51-6.34V19h.95v-7.14h-.95zm5.3 3.42h1.86c.54.007.935-.103 1.185-.33.25-.227.375-.553.375-.98 0-.427-.125-.752-.375-.975-.25-.223-.645-.335-1.185-.335h-1.86v2.62zm-.95-3.42h3.13c.72 0 1.265.185 1.635.555.37.37.555.888.555 1.555 0 .667-.185 1.187-.555 1.56-.37.373-.915.557-1.635.55h-2.18V19h-.95v-7.14z"/></g></g></svg>