<svg width="20" height="22" viewBox="0 0 20 22" xmlns="http://www.w3.org/2000/svg"><title>icon_format-zip_m_black</title><g fill="none" fill-rule="evenodd"><path d="M-2-1h24v24H-2z"/><g fill="#0B1F35"><path d="M18 7h-1V3c0-1.103-.897-2-2-2H5.707L1 5.707V6H0v-.707L5.293 0H15c1.654 0 3 1.346 3 3v4zM15 22H3c-1.654 0-3-1.346-3-3v-1h1v1c0 1.103.897 2 2 2h12c1.103 0 2-.897 2-2v-1h1v1c0 1.654-1.346 3-3 3zM.224 15.184V16h5.794v-.816H1.377l4.519-5.65v-.817H.57v.816h4.182L.224 15.184zm9.221-6.467V16h.97V8.717h-.97zm5.947 3.489h1.897c.55.006.954-.106 1.209-.337.255-.231.382-.564.382-1 0-.435-.127-.766-.382-.994-.255-.228-.658-.342-1.209-.342h-1.897v2.673zm-.97-3.489h3.193c.735 0 1.29.189 1.668.566.378.378.566.906.566 1.586s-.188 1.21-.566 1.592c-.377.38-.933.567-1.668.56h-2.223V16h-.97V8.717z"/></g></g></svg>