<svg width="32" height="32" viewBox="0 0 32 32" xmlns="http://www.w3.org/2000/svg"><title>icon_format-zip_xl_white</title><g fill="none" fill-rule="evenodd"><path d="M-2-2h36v36H-2z"/><g fill="#FFF"><path d="M21.558 32h-17a4.505 4.505 0 0 1-4.5-4.5V8.294L8.292 0h13.266c2.481 0 4.5 2.019 4.5 4.5V10h-1V4.5c0-1.93-1.57-3.5-3.5-3.5H8.708l-7.65 7.706V27.5c0 1.93 1.57 3.5 3.5 3.5h17c1.93 0 3.5-1.57 3.5-3.5V26h1v1.5c0 2.481-2.019 4.5-4.5 4.5z"/><path d="M9.275 21v1h7.1v-1h-5.688l5.538-6.925v-1H9.7v1h5.125L9.275 21zm10.388-7.925V22h1.187v-8.925h-1.188zm6.375 4.275h2.325c.675.008 1.168-.13 1.48-.413.313-.283.47-.691.47-1.225 0-.533-.157-.94-.47-1.218-.312-.28-.805-.419-1.48-.419h-2.325v3.275zm-1.188-4.275h3.912c.9 0 1.582.231 2.044.694.463.462.694 1.11.694 1.944 0 .833-.231 1.483-.694 1.95-.462.466-1.143.695-2.044.687h-2.724V22H24.85v-8.925z" fill-opacity=".9"/></g></g></svg>