<svg xmlns="http://www.w3.org/2000/svg" width="24" height="24" viewBox="0 0 24 24"><rect width="24" height="24" fill="none"/><polygon points="11 0.45 11 10.27 14 12 14 5.65 11 0.45" fill="#fcb52e"/><polygon points="5.5 13.44 2.5 18.64 2.5 5.36 5.5 10.56 5.5 13.44" fill="#575faa"/><polygon points="19.5 18.64 5.5 10.56 2.5 5.36 22.5 16.91 19.5 18.64" fill="#128acb"/><polygon points="16.5 7.09 22.5 7.09 14 12 14 8.54 16.5 7.09" fill="#db195b"/><polygon points="22.5 7.09 16.5 7.09 14 5.65 11 0.45 22.5 7.09" fill="#f47732"/><polygon points="14 18.35 11 23.55 19.5 18.64 16.5 16.91 14 18.35" fill="#0c8442"/><polygon points="11 13.73 11 23.55 14 18.35 14 15.46 11 13.73" fill="#60bb46"/><polygon points="5.5 13.44 2.5 18.64 11 13.73 7.98 11.99 5.5 13.44" fill="#9151a0"/></svg>