<svg xmlns="http://www.w3.org/2000/svg" width="36" height="36" version="1" viewBox="0 0 36 36"><path fill="#0B1F35" d="M17.893 25.573s.747-.64.747-1.707-.96-1.813-2.027-1.92c-.853-.107-2.347 0-2.773 0-.427 0-1.067 0-1.493-.533l1.28-.213c.533-.107 1.6-.533 2.24-.533 0 0-.213-.32-.747-.32-.32 0-.427.107-.64.213-.32 0-.853.107-1.173-.533 0 0 .427.32.853.213.32-.107.427-.213.533-.32.213-.107.427-.213.64-.213.213 0 .427 0 .64.213.107.107.533.107.32-.107-.213-.213-.533-.427-1.067-.427-.853 0-2.347.213-2.88.427-.32.107-.64.32-.747.533 0 .107-.107.107-.427.427 0-.533.213-1.92.853-2.453.64-.64 2.453-1.067 3.093-1.173 0 0-.213-.427 0-.64.32-.32 1.28-1.067 7.04-1.067 0 0-.32.213-.427.427 0 0 2.24.107 3.52.747.213.107.64.107.747-.747l-.32-.213s0-.213.107-.32c.107-.107 0-.213-.107-.107-.213 0-.213.107-.213.107s-.32.107-.32-.107c0-.107-.32-.64-1.067-.747 0 0 .32-.533 1.173-.427 0 0 0 .32.213.213.213 0 .427-.213.427 0s.107.533.533 0c0 0 .427.213.853.107.427-.107.747-.427.853-1.067 0-.107 0-.213.107-.32.107-.107.213-.213 0-.427s-1.067-.64-1.387-.853-.96-.427-.96-1.707-.427-2.027-2.027-3.413v.427s-.427-.533-1.6-.853c0 0 .213-.533.213-.853s-.107-.533-.533-.427c-.427.107-1.92.64-2.453.747-.427.107-3.947 1.28-5.973 3.307 0 0 .533-1.28 1.493-2.56-.747.213-1.387.533-2.133.853-1.067 1.493-2.453 4.48-2.453 6.933 0 0-.64-2.133-.107-5.227a11.978 11.978 0 0 0-1.92 2.133c-.107 1.707-.107 4.053 1.28 7.36 0 0-1.493-1.067-2.773-4.587-.427 1.067-.64 2.24-.747 3.52 1.173 2.24 2.987 4.373 6.507 6.293 0 0-2.88-.427-6.187-2.88.213 1.387.747 2.56 1.493 3.733 1.813.853 4.587 1.813 8.533 1.6 0 0-2.133 1.173-6.507.853 0 0 .747.96 2.773 1.92 1.813.853 4.267.32 5.013-.213.96-.64 2.027-2.24 1.493-4.16.005.002-.422.748-1.382 1.068zm6.08-15.893c.427 0 .533.107.64.107.102 0 .399.097.518-.64h.015v1.067c0 .32-.107.32-.32.213-.107-.107-.213-.213-.32-.213-.107 0-.213.107-.107.213.107.107.32.533.213.853 0 0-.533-.96-1.067-1.387-.425-.32.322-.213.428-.213zM19.92 7.013c.533-.853 1.28-1.28 1.493-1.387s.32-.107.213 0c-.213.213-.533.747-.747.96 0 .107 0 .213.107.213.107.107.107.213 0 .213-.213 0-.533.107-.853.213-.213.108-.32-.105-.213-.212zm-3.627 6.08c.853-2.027 2.667-4.16 3.84-5.12-1.387 1.707-2.347 4.053-2.24 4.16.107-.107.427-.107.64-.213s.213.107.213.213c-.213.64-.533 1.493-.427 1.92.107.427 1.173.64 1.173.64-.213 0-1.387 0-1.6.107-.32 0-.747.107-.64-.427.107-.64.427-1.813.427-1.813-.32.107-.96.427-1.173.533-.213.214-.319.107-.213 0z"/><path fill="#0B1F35" d="M23.227 21.84c.427.213 1.28.427 1.28.427-.213-.213-.747-.853-.96-1.067a8.51 8.51 0 0 0-2.453-1.92c-1.494-.747-3.094-.747-3.307-.853-.213 0-.64 0-.427-.427.32-.427 1.92-1.707 1.92-1.707-.32 0-1.92.107-2.347.213-.426.107-.533-.106-.533-.426 0 0-.96.853-.427 1.28.107.107.213.107.533 0 .213-.107.747-.213.853-.32 0 0-.427.64-.427.853-.107.213-.107.427.32.533.427.107 2.453.747 3.733 1.707 1.28.853 2.56 2.027 3.627 4.053.96 2.027.427 3.627.32 3.84.533-.427 1.173-.96 1.707-1.493-.533-1.707-1.92-2.773-2.667-3.733a44.92 44.92 0 0 0-.745-.96zm5.333 2.24c.427-.533.747-1.173.96-1.92-1.28-1.067-3.413-2.88-6.187-3.52 0 0 3.84 1.493 5.227 5.44z"/><path fill="#0B1F35" d="M19.6 29.947c.853-.107 1.6-.32 2.347-.533.427-.96.853-3.2.427-5.013-.001-.001.106 4.159-2.774 5.546zm8.107-13.014c.747 0 1.067-.64 1.067-.64-.747.213-1.813.32-2.667.107 0 0 2.133.96 4.16 2.88.107-.533.107-.96.107-1.493v-.107c-.321-.107-2.667-.747-2.667-.747z"/><path fill="#0B1F35" d="M18 2C9.147 2 2 9.147 2 18s7.147 16 16 16 16-7.147 16-16S26.853 2 18 2zm0 30.933c-8.213 0-14.933-6.72-14.933-14.933C3.067 9.787 9.787 3.067 18 3.067S32.933 9.787 32.933 18c0 8.213-6.72 14.933-14.933 14.933z"/></svg>