<svg xmlns="http://www.w3.org/2000/svg" width="28" height="28" viewBox="0 0 28 28"><g fill="#FFF"><path d="M9.333 18.947s-2.52-.373-5.413-2.52c.187 1.213.653 2.24 1.307 3.267 1.587.747 4.013 1.587 7.467 1.4 0 0-1.867 1.027-5.693.747 0 0 .653.84 2.427 1.68 1.587.747 3.733.28 4.387-.187.84-.56 1.773-1.96 1.307-3.64 0 0-.373.653-1.213.933 0 0 .653-.56.653-1.493s-.84-1.587-1.773-1.68c-.747-.093-2.053 0-2.427 0-.373 0-.933 0-1.307-.467l1.12-.187c.467-.093 1.4-.467 1.96-.467 0 0-.187-.28-.653-.28-.28 0-.373.093-.56.187-.28 0-.747.093-1.027-.467 0 0 .373.28.747.187.28-.093.373-.187.467-.28.187-.093.373-.187.56-.187.187 0 .373 0 .56.187.093.093.467.093.28-.093-.187-.187-.467-.373-.933-.373-.747 0-2.053.187-2.52.373-.28.093-.56.28-.653.467 0 .093-.093.093-.373.373 0-.467.187-1.68.747-2.147.56-.56 2.147-.933 2.707-1.027 0 0-.187-.373 0-.56.28-.28 1.12-.933 6.16-.933 0 0-.28.187-.373.373 0 0 1.96.093 3.08.653.187.093.56.093.653-.653l-.28-.187s0-.187.093-.28c.093-.093 0-.187-.093-.093-.187 0-.187.093-.187.093s-.28.093-.28-.093c0-.093-.28-.56-.933-.653 0 0 .28-.467 1.027-.373 0 0 0 .28.187.187.187 0 .373-.187.373 0s.093.467.467 0c0 0 .373.187.747.093s.653-.373.747-.933c0-.093 0-.187.093-.28.093-.093.187-.187 0-.373-.187-.187-.933-.56-1.213-.747-.28-.187-.84-.373-.84-1.493s-.373-1.773-1.773-2.987v.373s-.373-.467-1.4-.747c0 0 .187-.467.187-.747 0-.28-.093-.467-.467-.373-.373.093-1.68.56-2.147.653-.373.093-3.453 1.12-5.227 2.893 0 0 .467-1.12 1.307-2.24-.653.187-1.213.467-1.867.747-.938 1.307-2.152 3.92-2.152 6.067 0 0-.56-1.867-.093-4.573A10.518 10.518 0 0 0 5.6 7.933c-.093 1.493-.093 3.547 1.12 6.44 0 0-1.307-.933-2.427-4.013-.373.933-.56 1.96-.653 3.08 1.027 1.96 2.613 3.827 5.693 5.507zM19.227 6.72c.373 0 .467.093.56.093.089 0 .349.085.453-.56h.014v.933c0 .28-.093.28-.28.187-.093-.093-.187-.187-.28-.187-.093 0-.187.093-.093.187.093.093.28.467.187.747 0 0-.467-.84-.933-1.213-.375-.28.278-.187.372-.187zM15.68 4.387a3.457 3.457 0 0 1 1.307-1.213c.187-.093.28-.093.187 0-.187.187-.467.653-.653.84 0 .093 0 .187.093.187.093.093.093.187 0 .187-.187 0-.467.093-.747.187-.187.092-.28-.095-.187-.188zm-3.173 5.32c.747-1.773 2.333-3.64 3.36-4.48-1.213 1.493-2.053 3.547-1.96 3.64.093-.094.373-.094.56-.187.187-.093.187.093.187.187-.187.56-.467 1.307-.373 1.68.093.373 1.027.56 1.027.56-.187 0-1.213 0-1.4.093-.28 0-.653.093-.56-.373.093-.56.373-1.587.373-1.587-.28.093-.84.373-1.027.467-.187.186-.281.093-.187 0z"/><path d="M18.573 17.36c.373.187 1.12.373 1.12.373-.187-.187-.653-.747-.84-.933a7.441 7.441 0 0 0-2.147-1.68c-1.306-.653-2.706-.653-2.893-.747-.187 0-.56 0-.373-.373.28-.373 1.68-1.493 1.68-1.493-.28 0-1.68.093-2.053.187-.374.093-.467-.094-.467-.374 0 0-.84.747-.373 1.12.093.093.187.093.467 0 .187-.093.653-.187.747-.28 0 0-.373.56-.373.747-.093.187-.093.373.28.467.373.093 2.147.653 3.267 1.493 1.12.747 2.24 1.773 3.173 3.547.84 1.773.373 3.173.28 3.36.467-.373 1.027-.84 1.493-1.307-.467-1.493-1.68-2.427-2.333-3.267-.281-.373-.655-.84-.655-.84zm4.667 1.96c.373-.467.653-1.027.84-1.68-1.12-.933-2.987-2.52-5.413-3.08 0 0 3.36 1.307 4.573 4.76z"/><path d="M15.4 24.453c.747-.093 1.4-.28 2.053-.467.373-.84.747-2.8.373-4.387.001.001.094 3.641-2.426 4.854zM21.093 12.6s1.867.84 3.64 2.52c.093-.467.093-.84.093-1.307v-.093c-.28-.093-2.333-.653-2.333-.653.653 0 .933-.56.933-.56-.653.186-1.586.28-2.333.093z"/><path d="M14 28c7.747 0 14-6.253 14-14S21.747 0 14 0 0 6.253 0 14s6.253 14 14 14zM14 .933c7.187 0 13.067 5.88 13.067 13.067S21.187 27.067 14 27.067.933 21.187.933 14 6.813.933 14 .933z"/></g></svg>