<svg xmlns="http://www.w3.org/2000/svg" width="28" height="45" viewBox="0 0 28 45"><g fill="none" fill-rule="evenodd"><path d="M-10-2h48v48h-48z"/><path fill="#0B1F35" d="M.5 7h27v26H.5z" opacity=".2"/><path fill="#0B1F35" d="M10 37h8v2h-8z" opacity=".3"/><path d="M24.5 43.5h-21c-1.7 0-3-1.3-3-3v-37c0-1.6 1.3-3 3-3h21c1.7 0 3 1.3 3 3v37.1c0 1.6-1.3 2.9-3 2.9z"/><path fill="#0B1F35" d="M3.5 0C1.6 0 0 1.6 0 3.5v37.1c0 1.9 1.6 3.5 3.5 3.5h21c1.9 0 3.5-1.6 3.5-3.5V3.5C28 1.6 26.4 0 24.5 0h-21zM27 3.5v37.1c0 1.4-1.1 2.5-2.5 2.5h-21C2.1 43.1 1 42 1 40.6V3.5C1 2.1 2.1 1 3.5 1h21C25.9 1 27 2.1 27 3.5z"/></g></svg>