<svg xmlns="http://www.w3.org/2000/svg" width="24" height="24" viewBox="0 0 24 24"><g fill="none" fill-rule="evenodd"><path d="M0 0h24v24H0z"/><path fill="#0B1F35" d="M5.5 5h13v12h-13z" opacity=".2"/><path fill="#0B1F35" d="M10 19h4v1h-4z" opacity=".3"/><path d="M18.5 21c0 .8-.7 1.5-1.5 1.5H7c-.8 0-1.5-.7-1.5-1.5V3c0-.8.7-1.5 1.5-1.5h10c.8 0 1.5.7 1.5 1.5v18z"/><path fill="#0B1F35" d="M7 1c-1.1 0-2 .9-2 2v18c0 1.1.9 2 2 2h10c1.1 0 2-.9 2-2V3c0-1.1-.9-2-2-2H7zm11 2v18c0 .6-.4 1-1 1H7c-.6 0-1-.4-1-1V3c0-.6.4-1 1-1h10c.6 0 1 .4 1 1z"/></g></svg>