<svg xmlns="http://www.w3.org/2000/svg" width="20" height="33" viewBox="0 0 20 33"><g fill="none" fill-rule="evenodd"><path d="M-8-1h36v36H-8z"/><path fill="#0B1F35" d="M.5 5h19v20H.5z" opacity=".2"/><path fill="#0B1F35" d="M7 28h6v1H7z" opacity=".3"/><path d="M19.5 31c0 .8-.7 1.5-1.5 1.5H2c-.8 0-1.5-.7-1.5-1.5V2C.5 1.2 1.2.5 2 .5h16c.8 0 1.5.7 1.5 1.5v29z"/><path fill="#0B1F35" d="M2 0C.9 0 0 .9 0 2v29c0 1.1.9 2 2 2h16c1.1 0 2-.9 2-2V2c0-1.1-.9-2-2-2H2zm17 2v29c0 .6-.4 1-1 1H2c-.6 0-1-.4-1-1V2c0-.6.4-1 1-1h16c.6 0 1 .4 1 1z"/></g></svg>