<svg xmlns="http://www.w3.org/2000/svg" width="14" height="22" viewBox="0 0 14 22"><g fill="none" fill-rule="evenodd"><path d="M-5-1h24v24H-5z"/><path fill="#FFF" d="M.5 4h13v12H.5z" opacity=".2"/><path fill="#FFF" d="M5 18h4v1H5z" opacity=".3"/><path d="M13.5 20c0 .8-.7 1.5-1.5 1.5H2c-.8 0-1.5-.7-1.5-1.5V2C.5 1.2 1.2.5 2 .5h10c.8 0 1.5.7 1.5 1.5v18z"/><path fill="#FFF" d="M2 0C.9 0 0 .9 0 2v18c0 1.1.9 2 2 2h10c1.1 0 2-.9 2-2V2c0-1.1-.9-2-2-2H2zm11 2v18c0 .6-.4 1-1 1H2c-.6 0-1-.4-1-1V2c0-.6.4-1 1-1h10c.6 0 1 .4 1 1z"/></g></svg>