<svg xmlns="http://www.w3.org/2000/svg" width="24" height="24" viewBox="0 0 24 24"><g fill="none" fill-rule="evenodd"><path d="M0 0h24v24H0z"/><path fill="#0B1F35" d="M14.9 15.3c-.3-1.8-2.1-3-2.7-5.9-.1-.3-.4-.3-.5 0-.6 2.8-2.3 4-2.7 5.8v.7c0 1.7 1.3 3 3 3s3-1.3 3-3c0-.2 0-.4-.1-.6z" opacity=".3"/><path fill="#0B1F35" d="M13.1 1.3c-.6-.5-1.6-.5-2.2 0L1 9.4c-.5.4-.6 1-.4 1.6.2.6.8 1 1.5 1H4v11h16V12h1.9c.7 0 1.3-.4 1.5-1 .2-.6.1-1.2-.4-1.6l-9.9-8.1zm9.4 9.4c-.1.2-.2.3-.5.3h-3v11H5V11H2.1c-.3 0-.5-.2-.5-.3 0-.1-.1-.3.1-.5L11.5 2c.2-.2.7-.2.9 0l9.9 8.1c.3.2.2.5.2.6z"/></g></svg>