<svg xmlns="http://www.w3.org/2000/svg" width="48" height="48" viewBox="0 0 48 48"><g fill="none"><rect width="48" height="48"/><g fill="#FFF" fill-rule="nonzero" transform="translate(.51 .8)"><path d="M22.9908361,17.9 C21.6908361,23.8 17.8908361,26.2 17.4908361,30.2 L17.4908361,30.9 C17.4908361,34.2 20.1908361,36.9 23.4908361,36.9 C26.7908361,36.9 29.4908361,34.2 29.4908361,30.9 C29.4908361,26.4 25.3908361,24.2 23.9908361,18 C23.8908361,17.3 23.0908361,17.3 22.9908361,17.9 Z" opacity=".3"/><path d="M45.4908361,18.7 L23.4908361,7.10542736e-15 L1.49083606,18.7 C-0.109163943,20.2 -0.109163943,21.2 0.0908360571,21.8 C0.490836057,22.7 1.59083606,23.2 3.29083606,23.2 L5.49083606,23.2 L5.49083606,45.2 L41.4908361,45.2 L41.4908361,23.2 L43.6908361,23.2 C45.3908361,23.2 46.5908361,22.7 46.8908361,21.8 C47.0908361,21.3 47.1908361,20.2 45.4908361,18.7 L45.4908361,18.7 Z M45.9908361,21.4 C45.7908361,21.9 44.8908361,22.2 43.6908361,22.2 L40.4908361,22.2 L40.4908361,44.2 L6.49083606,44.2 L6.49083606,22.2 L3.29083606,22.2 C2.09083606,22.2 1.19083606,21.9 0.990836057,21.4 C0.790836057,20.9 1.19083606,20.2 2.09083606,19.5 L23.4908361,1.4 L44.8908361,19.5 C45.6908361,20.2 46.0908361,21 45.9908361,21.4 Z"/></g></g></svg>