<svg xmlns="http://www.w3.org/2000/svg" width="36" height="36" viewBox="0 0 36 36"><g fill="none"><rect width="36" height="36"/><g fill="#FFF" fill-rule="nonzero" transform="translate(1.165 2.1)"><path d="M21.235,21.5 C20.735,18.7 18.135,16.9 17.235,12.7 C17.135,12.3 16.635,12.3 16.535,12.7 C15.535,16.9 13.035,18.7 12.535,21.4 C12.435,21.7 12.435,22 12.435,22.4 C12.435,24.9 14.435,26.9 16.935,26.9 C19.435,26.9 21.435,24.9 21.435,22.4 C21.335,22.1 21.335,21.8 21.235,21.5 L21.235,21.5 Z" opacity=".3"/><path d="M17.735,0.3 C17.135,-0.1 16.435,-0.1 15.835,0.3 L0.735,12.3 C0.035,12.9 -0.165,13.7 0.135,14.6 C0.435,15.4 1.135,15.9 2.035,15.9 L4.835,15.9 L4.835,32.9 L28.835,32.9 L28.835,15.9 L31.635,15.9 C32.535,15.9 33.235,15.4 33.535,14.6 C33.835,13.8 33.535,12.9 32.935,12.4 L17.735,0.3 Z M32.635,14.2 C32.535,14.5 32.235,14.9 31.735,14.9 L27.835,14.9 L27.835,31.9 L5.835,31.9 L5.835,14.9 L2.035,14.9 C1.535,14.9 1.235,14.6 1.135,14.2 C1.035,13.9 1.035,13.4 1.435,13.1 L16.535,1.1 C16.735,1 16.935,1 17.135,1.1 L32.235,13.2 C32.735,13.4 32.735,13.9 32.635,14.2 Z"/></g></g></svg>