<svg xmlns="http://www.w3.org/2000/svg" width="48" height="46" viewBox="0 0 48 46"><g fill="none" fill-rule="evenodd"><path d="M0 0h48v48H0z"/><path fill="#FFF" d="M23.5 18.7C22.2 24.6 18.4 27 18 31v.7c0 3.3 2.7 6 6 6s6-2.7 6-6c0-4.5-4.1-6.7-5.5-12.9-.1-.7-.9-.7-1-.1z" opacity=".3"/><path fill="#FFF" d="M46 19.5L24 .8 2 19.5C.4 21 .4 22 .6 22.6c.4.9 1.5 1.4 3.2 1.4H6v22h36V24h2.2c1.7 0 2.9-.5 3.2-1.4.2-.5.3-1.6-1.4-3.1zm.5 2.7c-.2.5-1.1.8-2.3.8H41v22H7V23H3.8c-1.2 0-2.1-.3-2.3-.8-.2-.5.2-1.2 1.1-1.9L24 2.2l21.4 18.1c.8.7 1.2 1.5 1.1 1.9z"/></g></svg>