<svg xmlns="http://www.w3.org/2000/svg" width="18" height="22" viewBox="0 0 18 22"><g fill="none" fill-rule="evenodd" transform="translate(-3 -1)"><path d="M0 0h24v24H0z"/><path fill="#FFF" d="M9 23h6c1.107 0 2.113-.61 2.664-1.647L21 17.665V16h-3v-1.02l3-3.316V10h-3V8.98l3-3.316V4h-3c0-1.654-1.346-3-3-3H9C7.346 1 6 2.346 6 4H3v1.665L6 8.98V10H3v1.665l3 3.316V16H3v1.665l3.335 3.686A2.983 2.983 0 0 0 9 23zm-5-6h3v-2.404L4 11.28V11h3V8.596L4 5.28V5h3V4c0-1.103.897-2 2-2h6c1.103 0 2 .897 2 2v1h3v.28l-3 3.316V11h3v.28l-3 3.316V17h3v.28l-3.121 3.45-.106.169A1.986 1.986 0 0 1 15 22H9c-.749 0-1.428-.422-1.808-1.167L4 17.28V17z"/><circle cx="12" cy="7" r="2" fill="#FFF" opacity=".3"/><circle cx="12" cy="12" r="2" fill="#FFF" opacity=".3"/><circle cx="12" cy="17" r="2" fill="#FFF" opacity=".3"/></g></svg>