<svg xmlns="http://www.w3.org/2000/svg" width="38" height="48" viewBox="0 0 38 48"><g fill="none" fill-rule="evenodd" transform="translate(-5)"><path d="M0 0h48v48H0z"/><circle cx="24" cy="11" r="5" fill="#FFF" opacity=".3"/><circle cx="24" cy="24" r="5" fill="#FFF" opacity=".3"/><circle cx="24" cy="37" r="5" fill="#FFF" opacity=".3"/><path fill="#FFF" d="M12 41.207V42.5c0 3.033 2.468 5.5 5.5 5.5h13c3.032 0 5.5-2.467 5.5-5.5v-1.293l6.854-6.854A.5.5 0 0 0 43 34v-1.5a.5.5 0 0 0-.5-.5H36v-3.793l6.854-6.854A.5.5 0 0 0 43 21v-1.5a.5.5 0 0 0-.5-.5H36v-3.793l6.854-6.854A.5.5 0 0 0 43 8V6.5a.5.5 0 0 0-.5-.5H36v-.5C36 2.467 33.532 0 30.5 0h-13A5.506 5.506 0 0 0 12 5.5V6H5.5a.5.5 0 0 0-.5.5V8c0 .133.053.26.146.354L12 15.207V19H5.5a.5.5 0 0 0-.5.5V21c0 .133.053.26.146.354L12 28.207V32H5.5a.5.5 0 0 0-.5.5V34c0 .133.053.26.146.354L12 41.207zM6 33h6.5a.5.5 0 0 0 .5-.5V28a.504.504 0 0 0-.146-.354L6 20.793V20h6.5a.5.5 0 0 0 .5-.5V15a.504.504 0 0 0-.146-.354L6 7.793V7h6.5a.5.5 0 0 0 .5-.5v-1C13 3.019 15.019 1 17.5 1h13C32.981 1 35 3.019 35 5.5v1a.5.5 0 0 0 .5.5H42v.793l-6.854 6.854A.5.5 0 0 0 35 15v4.5a.5.5 0 0 0 .5.5H42v.793l-6.854 6.854A.5.5 0 0 0 35 28v4.5a.5.5 0 0 0 .5.5H42v.793l-6.854 6.854A.5.5 0 0 0 35 41v1.5c0 2.481-2.019 4.5-4.5 4.5h-13a4.505 4.505 0 0 1-4.5-4.5V41a.504.504 0 0 0-.146-.354L6 33.793V33z"/></g></svg>