<svg width="18px" height="18px" viewBox="0 0 18 18" version="1.1" xmlns="http://www.w3.org/2000/svg"><g stroke="none" stroke-width="1" fill="none" fill-rule="evenodd"><rect opacity="0" x="0" y="0" width="18" height="18"/><g transform="translate(2.000000, 1.000000)" fill="#0B1F35"><path d="M3,3 L3,1 C3,0.44771525 3.44771525,5.45542273e-16 4,4.4408921e-16 L10.2520407,0 L14,3.36470092 L14,12 C14,12.5522847 13.5522847,13 13,13 L11,13 L11,15 C11,15.5522847 10.5522847,16 10,16 L1,16 C0.44771525,16 -1.94722899e-14,15.5522847 -1.95399252e-14,15 L-1.95399252e-14,4 C-1.96075606e-14,3.44771525 0.44771525,3 1,3 L3,3 Z M4,3 L7.25204069,3 L11,6.36470092 L11,12 L13,12 L13,3.81081181 L9.86902089,1 L4,1 L4,3 Z M6.86902089,4 L1,4 L1,15 L10,15 L10,6.81081181 L6.86902089,4 Z" fill-rule="nonzero"/><path d="M2,13 L3.65052285,9.69895429 C3.77401748,9.45196504 4.074354,9.35185287 4.32134325,9.4753475 C4.38605506,9.5077034 4.44297416,9.5537177 4.48817085,9.61021357 L5.43690749,10.7961344 C5.75548837,11.1943605 6.32567246,11.282885 6.75,11 L7.06369271,10.7908715 C7.29345706,10.6376953 7.60389173,10.6997822 7.75706796,10.9295466 C7.76146723,10.9361455 7.76570887,10.9428481 7.76978928,10.9496488 L9,13 L2,13 Z" fill-opacity="0.3"/><circle fill-opacity="0.3" cx="6" cy="8" r="1"/></g></g></svg>