<svg width="48px" height="48px" viewBox="0 0 48 48" version="1.1" xmlns="http://www.w3.org/2000/svg"><g stroke="none" stroke-width="1" fill="none" fill-rule="evenodd"><rect x="0" y="0" width="48" height="48"/><path d="M35,18.7907088 L25.8495239,10 L9,10 C7.8954305,10 7,10.8954305 7,12 L7,43 C7,44.1045695 7.8954305,45 9,45 L33,45 C34.1045695,45 35,44.1045695 35,43 L35,18.7907088 Z M9,9 L26.2520407,9 L36,18.3647009 L36,43 C36,44.6568542 34.6568542,46 33,46 L9,46 C7.34314575,46 6,44.6568542 6,43 L6,12 C6,10.3431458 7.34314575,9 9,9 Z" fill="#FFFFFF" fill-rule="nonzero"/><path d="M32.8495239,3 L42,11.7907088 L42,36 C42,37.1045695 41.1045695,38 40,38 L36,38 L36,39 L40,39 C41.6568542,39 43,37.6568542 43,36 L43,11.3647009 L33.2520407,2 L16,2 C14.3431458,2 13,3.34314575 13,5 L13,9 L14,9 L14,5 C14,3.8954305 14.8954305,3 16,3 L32.8495239,3 Z" fill="#FFFFFF" fill-rule="nonzero"/><path d="M10.9251851,36.4800531 L15.4149065,29.1040823 C15.989224,28.1605606 17.2196758,27.8612615 18.1631975,28.435579 C18.3972516,28.5780468 18.5995349,28.7670886 18.7574983,28.9909768 L21.8072184,33.3134742 C22.4440023,34.2160151 23.6918716,34.4314536 24.5944125,33.7946696 C24.6128875,33.7816347 24.63114,33.7682874 24.6491624,33.7546335 L26.1200738,32.6402575 C27.0005033,31.973236 28.2549602,32.1462374 28.9219817,33.0266669 C28.960522,33.0775379 28.9966053,33.1302246 29.0301075,33.1845459 L31.0595086,36.4750649 C31.3494222,36.9451378 31.2033743,37.5612286 30.7333014,37.8511422 C30.5755047,37.9484621 30.3937604,38 30.2083663,38 L11.7793837,38 C11.2270989,38 10.7793837,37.5522847 10.7793837,37 C10.7793837,36.8165932 10.8298233,36.6367188 10.9251851,36.4800531 Z" fill-opacity="0.3" fill="#FFFFFF"/><circle fill-opacity="0.3" fill="#FFFFFF" cx="24.5" cy="22.5" r="3.5"/></g></svg>