<svg width="36px" height="36px" viewBox="0 0 36 36" version="1.1" xmlns="http://www.w3.org/2000/svg"><g stroke="none" stroke-width="1" fill="none" fill-rule="evenodd"><rect opacity="0" x="0" y="0" width="36" height="36"/><g transform="translate(5.000000, 2.000000)" fill="#FFFFFF"><path d="M19.8120061,1 L26,7.75355646 L26,25 C26,26.1045695 25.1045695,27 24,27 L21,27 L21,28 L24,28 C25.6568542,28 27,26.6568542 27,25 L27,7.36470092 L20.2520407,0 L8,0 C6.34314575,3.04359188e-16 5,1.34314575 5,3 L5,5 L6,5 L6,3 C6,1.8954305 6.8954305,1 8,1 L19.8120061,1 Z" fill-rule="nonzero"/><path d="M14.8120061,6 L3,6 C1.8954305,6 1,6.8954305 1,8 L1,30 C1,31.1045695 1.8954305,32 3,32 L19,32 C20.1045695,32 21,31.1045695 21,30 L21,12.7535565 L14.8120061,6 Z M3,5 L15.2520407,5 L22,12.3647009 L22,30 C22,31.6568542 20.6568542,33 19,33 L3,33 C1.34314575,33 2.41027941e-15,31.6568542 0,30 L0,8 C-2.02906125e-16,6.34314575 1.34314575,5 3,5 Z" fill-rule="nonzero"/><path d="M3.88648243,25.4929799 L6.7360909,20.6486455 C7.15612013,19.9345958 8.07547273,19.6962451 8.78952242,20.1162743 C9.00062914,20.2404548 9.17811667,20.4144396 9.3064797,20.6230295 L11.3864281,24.0029456 C11.6758791,24.4733035 12.2918259,24.6199575 12.7621838,24.3305065 C12.8067687,24.3030697 12.8491302,24.2721741 12.8888778,24.2381048 L14.6625204,22.7178396 C15.0818463,22.3584175 15.7131463,22.406979 16.0725684,22.8263049 C16.0938102,22.851087 16.1138259,22.8768942 16.1325437,22.9036339 L17.8985764,25.4265377 C18.2152909,25.878987 18.1052561,26.5025174 17.6528068,26.8192319 C17.4847232,26.9368904 17.2845165,27 17.0793444,27 L4.74841664,27 C4.19613189,27 3.74841664,26.5522847 3.74841664,26 C3.74841664,25.8217072 3.7960844,25.6466565 3.88648243,25.4929799 Z" fill-opacity="0.3"/><circle fill-opacity="0.3" cx="14" cy="16" r="2"/></g></g></svg>