<svg width="36" height="36" viewBox="0 0 36 36" xmlns="http://www.w3.org/2000/svg"><g transform="translate(4 1)" fill="#FFF" fill-rule="evenodd" opacity=".8"><path d="M20.515.676l.737.324h-.44l-.297-.324zm.297.324L27 7.754V25a2 2 0 0 1-2 2h-3.473v1H25a3 3 0 0 0 3-3V7.365L21.252 0H9a3 3 0 0 0-3 3v2.703h1V3a2 2 0 0 1 2-2h11.812zm6.45 7.04L27 7.365v.389l.263.286zM27 7.365l.263.675L27 7.754v-.39zM27 25a2 2 0 0 1-2 2h-3.473v1H25a3 3 0 0 0 3-3V7.365L21.252 0H9a3 3 0 0 0-3 3v2.703h1V3a2 2 0 0 1 2-2h11.812L27 7.754V25zM20.812 1h.44l-.737-.324.297.324z" fill-rule="nonzero"/><path d="M14.812 6H3a2 2 0 0 0-2 2v22a2 2 0 0 0 2 2h16a2 2 0 0 0 2-2V12.754L14.812 6zM3 5h12.252L22 12.365V30a3 3 0 0 1-3 3H3a3 3 0 0 1-3-3V8a3 3 0 0 1 3-3z" fill-rule="nonzero"/><path d="M3.886 25.493l2.85-4.844a1.5 1.5 0 0 1 2.57-.026l2.08 3.38a1 1 0 0 0 1.503.235l1.774-1.52a1 1 0 0 1 1.47.186l1.766 2.523a1 1 0 0 1-.82 1.573H4.75a1 1 0 0 1-.863-1.507z" opacity=".3"/><rect opacity=".3" x="12" y="14" width="4" height="4" rx="2"/></g></svg>