<svg width="24" height="24" viewBox="0 0 24 24" xmlns="http://www.w3.org/2000/svg"><g transform="translate(3 1)" fill="#0B1F35" fill-rule="evenodd" opacity=".8"><path d="M8.915 5H2a1 1 0 0 0-1 1v14a1 1 0 0 0 1 1h11a1 1 0 0 0 1-1V8.861L8.915 5zM2 4h7.252L15 8.365V20a2 2 0 0 1-2 2H2a2 2 0 0 1-2-2V6a2 2 0 0 1 2-2z" fill-rule="nonzero"/><path d="M12.647.796l.605.204h-.337l-.268-.204zm.268.204L18 4.861V16a1 1 0 0 1-1 1h-2.493v1H17a2 2 0 0 0 2-2V4.365L13.252 0H6a2 2 0 0 0-2 2v2.58h1V2a1 1 0 0 1 1-1h6.915zm5.48 4.161L18 4.365v.496l.395.3zM18 4.365l.395.796-.395-.3v-.496zm0 .496V16a1 1 0 0 1-1 1h-2.493v1H17a2 2 0 0 0 2-2V4.365L13.252 0H6a2 2 0 0 0-2 2v2.58h1V2a1 1 0 0 1 1-1h6.915L18 4.861zM13.252 1l-.605-.204.268.204h.337z" fill-rule="nonzero"/><path d="M2.08 17.222l2.514-3.765a1 1 0 0 1 1.699.058l.889 1.549a1 1 0 0 0 1.673.094l.147-.2a1 1 0 0 1 1.673.094l1.263 2.2a.5.5 0 0 1-.434.748H2.495a.5.5 0 0 1-.416-.778z" opacity=".3"/><rect opacity=".3" x="7" y="9" width="3" height="3" rx="1.5"/></g></svg>