<svg width="18" height="18" viewBox="0 0 18 18" xmlns="http://www.w3.org/2000/svg"><g transform="translate(2 1)" fill="#0B1F35" fill-rule="evenodd" opacity=".8"><path d="M6.869 4H1v11h9V6.81L6.869 4zM1 3h6.252L11 6.365V15a1 1 0 0 1-1 1H1a1 1 0 0 1-1-1V4a1 1 0 0 1 1-1z" fill-rule="nonzero"/><path d="M10.252 1L9.584.744 9.869 1h.383zm-.383 0L13 3.81V12h-2.548v1H13a1 1 0 0 0 1-1V3.365L10.252 0H4a1 1 0 0 0-1 1v2.591h1V1h5.869zm3.463 3.109L13 3.365v.446l.332.298zM13 3.81v-.446l.332.744L13 3.81zm0 0V12h-2.548v1H13a1 1 0 0 0 1-1V3.365L10.252 0H4a1 1 0 0 0-1 1v2.591h1V1h5.869L13 3.81zM10.252 1L9.584.744 9.869 1h.383z" fill-rule="nonzero"/><path d="M2 13l1.65-3.301a.5.5 0 0 1 .838-.089l.949 1.186A.983.983 0 0 0 6.75 11l.314-.21a.5.5 0 0 1 .706.16L9 13H2z" opacity=".3"/><rect opacity=".3" x="5" y="7" width="2" height="2" rx="1"/></g></svg>