<svg width="48" height="48" viewBox="0 0 48 48" xmlns="http://www.w3.org/2000/svg"><g transform="translate(6 2)" fill="#FFF" fill-rule="evenodd" opacity=".8"><path d="M29 16.79L19.85 8H3a2 2 0 0 0-2 2v31a2 2 0 0 0 2 2h24a2 2 0 0 0 2-2V16.79zM3 7h17.252L30 16.365V41a3 3 0 0 1-3 3H3a3 3 0 0 1-3-3V10a3 3 0 0 1 3-3z" fill-rule="nonzero"/><path d="M26.56.721l.692.279h-.402l-.29-.279zm.29.279L36 9.79V34a2 2 0 0 1-2 2h-4.509v1H34a3 3 0 0 0 3-3V9.365L27.252 0H10a3 3 0 0 0-3 3v4.507h1V3a2 2 0 0 1 2-2h16.85zm9.457 9.086L36 9.365v.426l.307.295zM36 9.365l.307.72L36 9.792v-.426zM36 34a2 2 0 0 1-2 2h-4.509v1H34a3 3 0 0 0 3-3V9.365L27.252 0H10a3 3 0 0 0-3 3v4.507h1V3a2 2 0 0 1 2-2h16.85L36 9.79V34zM26.85 1h.402l-.693-.279.29.279z" fill-rule="nonzero"/><path d="M4.925 34.48l4.49-7.376a2 2 0 0 1 3.342-.113l3.05 4.322a2 2 0 0 0 2.842.442l1.471-1.115a2 2 0 0 1 2.91.545l2.03 3.29A1 1 0 0 1 24.208 36H5.78a1 1 0 0 1-.854-1.52z" opacity=".3"/><rect opacity=".3" x="15" y="17" width="7" height="7" rx="3.5"/></g></svg>