<svg width="24px" height="24px" viewBox="0 0 24 24" version="1.1" xmlns="http://www.w3.org/2000/svg"><g stroke="none" stroke-width="1" fill="none" fill-rule="evenodd"><rect opacity="0" x="0" y="0" width="24" height="24"/><g transform="translate(3.000000, 1.000000)" fill="#0B1F35"><path d="M4,4 L4,2 C4,0.8954305 4.8954305,2.02906125e-16 6,0 L13.2520407,0 L19,4.36470092 L19,16 C19,17.1045695 18.1045695,18 17,18 L15,18 L15,20 C15,21.1045695 14.1045695,22 13,22 L2,22 C0.8954305,22 -1.94046545e-14,21.1045695 -1.95399252e-14,20 L-1.95399252e-14,6 C-1.9675196e-14,4.8954305 0.8954305,4 2,4 L4,4 Z M5,4 L9.25204069,4 L15,8.36470092 L15,17 L17,17 C17.5522847,17 18,16.5522847 18,16 L18,4.86098402 L12.9153952,1 L6,1 C5.44771525,1 5,1.44771525 5,2 L5,4 Z M8.91539524,5 L2,5 C1.44771525,5 1,5.44771525 1,6 L1,20 C1,20.5522847 1.44771525,21 2,21 L13,21 C13.5522847,21 14,20.5522847 14,20 L14,8.86098402 L8.91539524,5 Z" fill-rule="nonzero"/><path d="M2.07921087,17.2222993 L4.59397884,13.457028 C4.90071854,12.9977577 5.52169234,12.8741073 5.98096263,13.180847 C6.10928863,13.266554 6.21603819,13.380797 6.29285572,13.5146339 L7.18195071,15.0636781 C7.45687555,15.5426716 8.06804713,15.7081019 8.54704063,15.4331771 C8.66777646,15.3638791 8.77271353,15.2701361 8.85513485,15.1579484 L9.0022655,14.9576816 C9.32925437,14.5126011 9.95514033,14.4168688 10.4002209,14.7438577 C10.5124086,14.826279 10.6061517,14.9312161 10.6754496,15.0519519 L11.9376819,17.2511023 C12.0751444,17.490599 11.9924292,17.7961848 11.7529324,17.9336472 C11.6771855,17.9771232 11.5913718,18 11.5040347,18 L2.49500208,18 C2.21885971,18 1.99500208,17.7761424 1.99500208,17.5 C1.99500208,17.4011439 2.02430608,17.3045063 2.07921087,17.2222993 Z" fill-opacity="0.3"/><circle fill-opacity="0.3" cx="8.5" cy="10.5" r="1.5"/></g></g></svg>