<svg width="30" height="30" viewBox="0 0 30 30" xmlns="http://www.w3.org/2000/svg"><g transform="translate(4 2)" fill="#0B1F35" fill-rule="evenodd" opacity=".8"><path d="M15.515.676l.737.324h-.44l-.297-.324zm.297.324L22 7.754V21a1 1 0 0 1-1 1h-2.372v1H21a2 2 0 0 0 2-2V7.365L16.252 0H6a2 2 0 0 0-2 2v2.677h1V2a1 1 0 0 1 1-1h9.812zm6.45 7.04L22 7.365v.389l.263.286zM22 7.365l.263.675L22 7.754v-.39zm0 .389V21a1 1 0 0 1-1 1h-2.372v1H21a2 2 0 0 0 2-2V7.365L16.252 0H6a2 2 0 0 0-2 2v2.677h1V2a1 1 0 0 1 1-1h9.812L22 7.754zM16.252 1l-.737-.324.297.324h.44z" fill-rule="nonzero"/><path d="M18 11.754L11.812 5H2a1 1 0 0 0-1 1v19a1 1 0 0 0 1 1h15a1 1 0 0 0 1-1V11.754zM2 4h10.252L19 11.365V25a2 2 0 0 1-2 2H2a2 2 0 0 1-2-2V6a2 2 0 0 1 2-2z" fill-rule="nonzero"/><path d="M3.427 21.252l2.726-4.77a1 1 0 0 1 1.726-.018L9.399 19a1 1 0 0 0 1.498.254l1.248-1.04a1 1 0 0 1 1.472.213l1.865 2.797a.5.5 0 0 1-.416.777H3.862a.5.5 0 0 1-.435-.748z" opacity=".3"/><rect opacity=".3" x="10" y="12" width="3" height="3" rx="1.5"/></g></svg>