<svg width="48px" height="48px" viewBox="0 0 48 48" version="1.1" xmlns="http://www.w3.org/2000/svg"><g stroke="none" stroke-width="1" fill="none" fill-rule="evenodd"><rect opacity="0" x="0" y="0" width="48" height="48"/><g transform="translate(6.000000, 2.000000)" fill="#0B1F35"><path d="M29,16.7907088 L19.8495239,8 L3,8 C1.8954305,8 1,8.8954305 1,10 L1,41 C1,42.1045695 1.8954305,43 3,43 L27,43 C28.1045695,43 29,42.1045695 29,41 L29,16.7907088 Z M7,7 L7,3 C7,1.34314575 8.34314575,-3.24835449e-15 10,-3.55271368e-15 L27.2520407,-1.77635684e-15 L37,9.36470092 L37,34 C37,35.6568542 35.6568542,37 34,37 L30,37 L30,41 C30,42.6568542 28.6568542,44 27,44 L3,44 C1.34314575,44 2.02906125e-16,42.6568542 0,41 L0,10 C-2.02906125e-16,8.34314575 1.34314575,7 3,7 L7,7 Z M8,7 L20.2520407,7 L30,16.3647009 L30,36 L34,36 C35.1045695,36 36,35.1045695 36,34 L36,9.79070881 L26.8495239,1 L10,1 C8.8954305,1 8,1.8954305 8,3 L8,7 Z" fill-rule="nonzero"/><path d="M4.9251851,34.4800531 L9.41490645,27.1040823 C9.98922399,26.1605606 11.2196758,25.8612615 12.1631975,26.435579 C12.3972516,26.5780468 12.5995349,26.7670886 12.7574983,26.9909768 L15.8072184,31.3134742 C16.4440023,32.2160151 17.6918716,32.4314536 18.5944125,31.7946696 C18.6128875,31.7816347 18.63114,31.7682874 18.6491624,31.7546335 L20.1200738,30.6402575 C21.0005033,29.973236 22.2549602,30.1462374 22.9219817,31.0266669 C22.960522,31.0775379 22.9966053,31.1302246 23.0301075,31.1845459 L25.0595086,34.4750649 C25.3494222,34.9451378 25.2033743,35.5612286 24.7333014,35.8511422 C24.5755047,35.9484621 24.3937604,36 24.2083663,36 L5.77938365,36 C5.2270989,36 4.77938365,35.5522847 4.77938365,35 C4.77938365,34.8165932 4.82982331,34.6367188 4.9251851,34.4800531 Z" fill-opacity="0.3"/><circle fill-opacity="0.3" cx="18.5" cy="20.5" r="3.5"/></g></g></svg>