<svg xmlns="http://www.w3.org/2000/svg" width="24" height="24" viewBox="0 0 24 24"><g fill="none" fill-rule="evenodd"><path d="M0 0h24v24H0z"/><path fill="#0B1F35" fill-rule="nonzero" d="M1 12.562C1 11.7 1.687 11 2.533 11H6v11H2.533C1.687 22 1 21.3 1 20.438v-7.876zM22.5 11c0-1.268-.975-2-2.34-2h-5.466l.28-.842c.51-1.987.05-3.972-1.317-5.236a2.092 2.092 0 0 0-2.648-.276C10.4 3.016 10 3.919 10 5.001v1.84l-2.45 3.436a3.272 3.272 0 0 0-.412.868 3.22 3.22 0 0 0-.138.933V22h11.285c1.31 0 2.376-1.044 2.376-2.337a2.29 2.29 0 0 0-.122-.736 2.335 2.335 0 0 0 1.42-2.139c0-.29-.055-.572-.159-.836.73-.385 1.2-1.098 1.2-1.952 0-.651-.318-1.204-.843-1.629.215-.41.343-.92.343-1.371z"/></g></svg>