<svg xmlns="http://www.w3.org/2000/svg" width="24" height="24" viewBox="0 0 24 24"><g fill="none" fill-rule="evenodd"><polygon points="0 0 24 0 24 24 0 24"/><g fill="#0B1F35" fill-rule="nonzero" transform="translate(0 3)"><path d="M4,11 L8,11 L8,13 L4,13 L4,11 Z M1,5 L21,5 L21,8 L1,8 L1,5 Z" opacity=".3"/><path d="M22,8.0013275 L21,8.0013275 L21,2.42857143 C21,1.62923673 20.3999848,1 19.6842105,1 L2.31578947,1 C1.60001521,1 1,1.62923673 1,2.42857143 L1,14.5714286 C1,15.3707633 1.60001521,16 2.31578947,16 L12.9989941,16 L12.9989941,17 L2.31578947,17 C1.03681426,17 0,15.9126915 0,14.5714286 L0,2.42857143 C0,1.08730846 1.03681426,0 2.31578947,0 L19.6842105,0 C20.9631857,0 22,1.08730846 22,2.42857143 L22,8.0013275 Z"/><polygon points="16 18.428 22.339 11 23 11.573 16.661 19"/><path d="M22 19C20.8959787 18.9986775 20.0013225 18.1040213 20 17 20 15.8976 20.8968 15 22 15 23.1032 15 24 15.8976 24 17 24 18.1024 23.1032 19 22 19zM22 15.8C21.3384 15.8 20.8 16.3384 20.8 17 20.8 17.6616 21.3384 18.2 22 18.2 22.6616 18.2 23.2 17.6616 23.2 17 23.2 16.3384 22.6616 15.8 22 15.8zM17 15C15.8959787 14.9986775 15.0013224 14.1040213 15 13 15 11.8976 15.8968 11 17 11 18.1032 11 19 11.8976 19 13 19 14.1024 18.1032 15 17 15zM17 11.8C16.3384 11.8 15.8 12.3384 15.8 13 15.8 13.6616 16.3384 14.2 17 14.2 17.6616 14.2 18.2 13.6616 18.2 13 18.2 12.3384 17.6616 11.8 17 11.8z"/></g></g></svg>