<svg fill="none" height="24" viewBox="0 0 24 24" width="24" xmlns="http://www.w3.org/2000/svg"><path d="m0 0h24v24h-24z"/><g fill="#fff"><path clip-rule="evenodd" d="m14 8h-4v12.5c0 .8284.6716 1.5 1.5 1.5h1c.8284 0 1.5-.6716 1.5-1.5zm-1.9879 2.032c-.8275 0-1.4981.6301-1.4981 1.4073v1.6883c0 .7771.6706 1.4071 1.4981 1.4071s1.4981-.63 1.4981-1.4071v-1.6883c0-.7772-.6706-1.4073-1.4981-1.4073z" fill-rule="evenodd"/><path d="m16 4h-8v1c0 1 2 3 2 3h4s2-2 2-3z"/><path d="m12.8767 13.0043c0 .4842-.3925.8767-.8767.8767s-.8767-.3925-.8767-.8767.3925-.8767.8767-.8767.8767.3925.8767.8767z"/><path d="m8.5 2.0719c-.27614 0-.5.22386-.5.5v.5h8v-.50017c0-.27614-.2239-.49983-.5-.49983z"/></g></svg>