<svg width="24" height="24" viewBox="0 0 24 24" fill="none" xmlns="http://www.w3.org/2000/svg"><rect x="0" y="0" width="24" height="24" fill="none"/><path d="M1.73223 1.73223C1 2.46447 1 3.64298 1 6C1 8.35702 1 9.53553 1.73223 10.2678C2.46447 11 3.64298 11 6 11H11V6C11 3.64298 11 2.46447 10.2678 1.73223C9.53553 1 8.35702 1 6 1C3.64298 1 2.46447 1 1.73223 1.73223ZM13.7322 1.73223C13 2.46447 13 3.64298 13 6V11H18C20.357 11 21.5355 11 22.2678 10.2678C23 9.53553 23 8.35702 23 6C23 3.64298 23 2.46447 22.2678 1.73223C21.5355 1 20.357 1 18 1C15.643 1 14.4645 1 13.7322 1.73223ZM1 18C1 15.643 1 14.4645 1.73223 13.7322C2.46447 13 3.64298 13 6 13H11V18C11 20.357 11 21.5355 10.2678 22.2678C9.53553 23 8.35702 23 6 23C3.64298 23 2.46447 23 1.73223 22.2678C1 21.5355 1 20.357 1 18ZM18 13H13V18C13 20.357 13 21.5355 13.7322 22.2678C14.4645 23 15.643 23 18 23C20.357 23 21.5355 23 22.2678 22.2678C23 21.5355 23 20.357 23 18C23 15.643 23 14.4645 22.2678 13.7322C21.5355 13 20.357 13 18 13Z" fill="#B6BCC3"/></svg>