<svg width="36" height="36" viewBox="0 0 36 36" fill="none" xmlns="http://www.w3.org/2000/svg"><rect width="36" height="36" fill="none"/><path d="M27.25 14.25H25.5V9.875C25.5 6.125 22.375 3 18.625 3H17.375C13.625 3 10.5 6.125 10.5 9.875V14.25H8.75C7.625 14.25 6.75 15.125 6.75 16.25V28.375C6.75 30.875 8.875 33 11.375 33H24.625C27.125 33 29.25 30.875 29.25 28.375V16.25C29.25 15.125 28.375 14.25 27.25 14.25ZM11.75 9.875C11.75 6.75 14.25 4.25 17.375 4.25H18.625C21.75 4.25 24.25 6.75 24.25 9.875V14.25H11.75V9.875ZM28 28.375C28 30.25 26.5 31.75 24.625 31.75H11.375C9.5 31.75 8 30.25 8 28.375V16.25C8 15.875 8.375 15.5 8.75 15.5H27.25C27.625 15.5 28 15.875 28 16.25V28.375Z" fill="#F03226"/><path opacity="0.3" d="M18 19.25C16.625 19.25 15.5 20.375 15.5 21.75C15.5 22.625 16 23.5 16.75 23.875V28H19.25V23.875C20 23.5 20.5 22.625 20.5 21.75C20.5 20.375 19.375 19.25 18 19.25Z" fill="#F03226"/></svg>