<svg width="24" height="24" viewBox="0 0 24 24" xmlns="http://www.w3.org/2000/svg"><g fill="none" fill-rule="evenodd"><path d="M0 0h24v24H0z"/><path d="M19.4 9H18V5.5c0-3-2.5-5.5-5.5-5.5h-1C8.5 0 6 2.5 6 5.5V9H4.6C3.7 9 3 9.7 3 10.6v9.7c0 2 1.7 3.7 3.7 3.7h10.6c2 0 3.7-1.7 3.7-3.7v-9.7c0-.9-.7-1.6-1.6-1.6zM7 5.5C7 3 9 1 11.5 1h1C15 1 17 3 17 5.5V9H7V5.5zm13 14.8c0 1.5-1.2 2.7-2.7 2.7H6.7C5.2 23 4 21.8 4 20.3v-9.7c0-.3.3-.6.6-.6h14.8c.3 0 .6.3.6.6v9.7z" fill="#F03226" fill-rule="nonzero"/><path d="M12 13c-1.1 0-2 .9-2 2 0 .7.4 1.4 1 1.7V20h2v-3.3c.6-.3 1-1 1-1.7 0-1.1-.9-2-2-2z" fill="#F03226" fill-rule="nonzero" opacity=".3"/></g></svg>