<svg width="48" height="48" viewBox="0 0 48 48" xmlns="http://www.w3.org/2000/svg"><g fill="none" fill-rule="evenodd"><path d="M0 0h48v48H0z"/><path d="M10 19a3 3 0 0 0-3 3v18a7 7 0 0 0 7 7h20a7 7 0 0 0 7-7V22a3 3 0 0 0-3-3H10zm3-1v-8c0-5.523 4.477-10 10-10h2c5.523 0 10 4.477 10 10v8h3a4 4 0 0 1 4 4v18a8 8 0 0 1-8 8H14a8 8 0 0 1-8-8V22a4 4 0 0 1 4-4h3zm1 0h20v-8a9 9 0 0 0-9-9h-2a9 9 0 0 0-9 9v8z" fill="#FFF" fill-rule="nonzero"/><path d="M24 26c-2.21 0-4 1.79-4 4 0 1.476.81 2.752 2 3.446V40h4v-6.554c1.19-.692 2-1.968 2-3.446 0-2.21-1.79-4-4-4z" fill="#FFF" opacity=".3"/></g></svg>