<svg width="48" height="48" viewBox="0 0 48 48" xmlns="http://www.w3.org/2000/svg"><g fill="none" fill-rule="evenodd"><path d="M0 0h48v48H0z"/><path d="M38.872 18H36v-7c0-6.064-4.934-11-11-11h-2c-6.066 0-11 4.936-11 11v7H9.128A3.133 3.133 0 0 0 6 21.128v19.484C6 44.686 9.314 48 13.388 48h21.224C38.686 48 42 44.686 42 40.614V21.13A3.133 3.133 0 0 0 38.872 18zM14 11c0-4.962 4.038-9 9-9h2c4.962 0 9 4.038 9 9v7H14v-7zm26 29.614A5.392 5.392 0 0 1 34.612 46H13.388A5.392 5.392 0 0 1 8 40.614V21.13c0-.624.506-1.13 1.128-1.13h29.744A1.13 1.13 0 0 1 40 21.128v19.486z" fill="#F03226"/><path d="M24 26c-2.21 0-4 1.79-4 4 0 1.476.81 2.752 2 3.446V40h4v-6.554c1.19-.692 2-1.968 2-3.446 0-2.21-1.79-4-4-4z" fill="#F03226" opacity=".3"/></g></svg>