<svg xmlns="http://www.w3.org/2000/svg" width="18" height="18" viewBox="0 0 18 18"><g fill="none" fill-rule="evenodd"><path d="M0 0h18v18H0z"/><path fill="#FFF" d="M14 7V4.5C14 2.226 11.859 0 9.5 0h-1C6.141 0 4 2.226 4 4.5V7h-.5C2.5 7 2 7.5 2 8.5v7c0 1.528.916 2.5 2.5 2.5h9c1.584 0 2.5-.973 2.5-2.5v-7c0-1-.5-1.5-1.5-1.5H14zM8.5 1h1C11.36 1 13 2.64 13 4.5V7H5V4.5C5 2.64 6.64 1 8.5 1zm5 16h-9C3.423 17 3 16.5 3 15.5V8.391C3 8.175 3.19 8 3.423 8H14.5c.233 0 .5.285.5.5v7c0 1-.5 1.5-1.5 1.5z" opacity=".498"/><path fill="#D8D8D8" d="M9.5 12.915V15h-1v-2.085a1.5 1.5 0 1 1 1 0z" opacity=".2"/></g></svg>