<svg width="36" height="36" viewBox="0 0 36 36" fill="none" xmlns="http://www.w3.org/2000/svg"><rect width="36" height="36" fill="none"/><path fill-rule="evenodd" clip-rule="evenodd" d="M27.295 14.25H25.5V9.875C25.5 6.085 22.4162 3 18.625 3H17.375C13.5838 3 10.5 6.085 10.5 9.875V14.25H8.705C7.6275 14.25 6.75 15.1275 6.75 16.205V28.3825C6.75 30.9287 8.82125 33 11.3675 33H24.6325C27.1787 33 29.25 30.9287 29.25 28.3837V16.2062C29.25 15.1275 28.3725 14.25 27.295 14.25ZM11.75 9.875C11.75 6.77375 14.2738 4.25 17.375 4.25H18.625C21.7262 4.25 24.25 6.77375 24.25 9.875V14.25H11.75V9.875ZM28 28.3837C28 30.24 26.49 31.75 24.6325 31.75H11.3675C9.51 31.75 8 30.24 8 28.3837V16.2062C8 15.8162 8.31625 15.5 8.705 15.5H10.5H25.5H27.295C27.6838 15.5 28 15.8163 28 16.205V28.3837Z" fill="white"/><path opacity="0.4" fill-rule="evenodd" clip-rule="evenodd" d="M18 19.25C16.6187 19.25 15.5 20.3687 15.5 21.75C15.5 22.6725 16.0062 23.47 16.75 23.9037V28H19.25V23.9037C19.9938 23.4712 20.5 22.6738 20.5 21.75C20.5 20.3687 19.3813 19.25 18 19.25Z" fill="white"/></svg>