<svg xmlns="http://www.w3.org/2000/svg" width="18" height="24" viewBox="0 0 18 24"><g fill="none"><rect x="-3" width="24" height="24"/><path d="M16.4 9L15 9 15 5.5C15 2.5 12.5 0 9.5 0L8.5 0C5.5 0 3 2.5 3 5.5L3 9 1.6 9C0.7 9 0 9.7 0 10.6L0 20.3C0 22.3 1.7 24 3.7 24L14.3 24C16.3 24 18 22.3 18 20.3L18 10.6C18 9.7 17.3 9 16.4 9L16.4 9ZM4 5.5C4 3 6 1 8.5 1L9.5 1C12 1 14 3 14 5.5L14 9 4 9 4 5.5 4 5.5ZM17 20.3C17 21.8 15.8 23 14.3 23L3.7 23C2.2 23 1 21.8 1 20.3L1 10.6C1 10.3 1.3 10 1.6 10L3 10 15 10 16.4 10C16.7 10 17 10.3 17 10.6L17 20.3 17 20.3Z" fill="#FFF"/><path d="M9 13C7.9 13 7 13.9 7 15 7 15.7 7.4 16.4 8 16.7L8 20 10 20 10 16.7C10.6 16.4 11 15.7 11 15 11 13.9 10.1 13 9 13L9 13Z" style="fill:#FFF;opacity:0.3"/></g></svg>
