<svg width="24" height="24" viewBox="0 0 24 24" xmlns="http://www.w3.org/2000/svg"><g fill="none" fill-rule="evenodd"><path d="M0 0h24v24H0z"/><path d="M12.5 17c0 1.378 1.122 2.5 2.5 2.5 1.379 0 2.5-1.122 2.5-2.5 0-1.379-1.121-2.5-2.5-2.5a2.503 2.503 0 0 0-2.5 2.5zm4 0a1.5 1.5 0 1 1-3.001-.001A1.5 1.5 0 0 1 16.5 17zM9 13.5c1.379 0 2.5-1.122 2.5-2.5 0-1.379-1.121-2.5-2.5-2.5A2.503 2.503 0 0 0 6.5 11c0 1.378 1.122 2.5 2.5 2.5zm0-4a1.5 1.5 0 1 1-.001 3.001A1.5 1.5 0 0 1 9 9.5zM7.987 17.905l7.265-8.462.759.652-7.265 8.462z" fill="#FFF" opacity=".3"/><path d="M1.922 13H3v10h18V13h1.078c1.323 0 1.729-.546 1.854-.871.12-.316.184-.971-.747-1.803L12 .845.815 10.326c-.931.832-.867 1.486-.747 1.803.125.325.531.871 1.854.871zm-.45-1.919L12 2.155l10.522 8.921c.458.41.491.653.475.696-.018.048-.228.228-.919.228H20v10H4V12H1.922c-.69 0-.9-.18-.919-.228-.017-.043.017-.288.469-.691z" fill="#FFF"/></g></svg>