<?xml version="1.0" encoding="UTF-8"?>
<svg width="24px" height="24px" viewBox="0 0 24 24" version="1.1" xmlns="http://www.w3.org/2000/svg" xmlns:xlink="http://www.w3.org/1999/xlink">
    <!-- Generator: Sketch 48.2 (47327) - http://www.bohemiancoding.com/sketch -->
    <title>icon_category-mortgaget_m_black</title>
    <desc>Created with Sketch.</desc>
    <defs></defs>
    <g id="mobile" stroke="none" stroke-width="1" fill="none" fill-rule="evenodd" transform="translate(-1705.000000, -570.000000)">
        <g id="Headings" transform="translate(64.000000, 77.000000)">
            <g id="icon_category_mortgage__m__white" transform="translate(1641.000000, 493.000000)">
                <g id="ungroup">
                    <rect id="Rectangle-path" x="0" y="0" width="24" height="24"></rect>
                    <g id="a1" opacity="0.4"></g>
                    <path d="M12.5,17 C12.5,18.378 13.622,19.5 15,19.5 C16.379,19.5 17.5,18.378 17.5,17 C17.5,15.621 16.379,14.5 15,14.5 C13.622,14.5 12.5,15.621 12.5,17 L12.5,17 Z M16.5,17 C16.5,17.828 15.828,18.5 15,18.5 C14.172,18.5 13.5,17.828 13.5,17 C13.5,16.172 14.172,15.5 15,15.5 C15.828,15.5 16.5,16.172 16.5,17 L16.5,17 Z" id="Shape" fill="#0B1F35" opacity="0.3"></path>
                    <path d="M9,13.5 C10.379,13.5 11.5,12.378 11.5,11 C11.5,9.621 10.379,8.5 9,8.5 C7.622,8.5 6.5,9.621 6.5,11 C6.5,12.378 7.622,13.5 9,13.5 L9,13.5 Z M9,9.5 C9.828,9.5 10.5,10.172 10.5,11 C10.5,11.828 9.828,12.5 9,12.5 C8.172,12.5 7.5,11.828 7.5,11 C7.5,10.172 8.172,9.5 9,9.5 L9,9.5 Z" id="Shape" fill="#0B1F35" opacity="0.3"></path>
                    <rect id="Rectangle-path" fill="#0B1F35" opacity="0.3" transform="translate(11.998795, 13.999454) rotate(-49.351473) translate(-11.998795, -13.999454) " x="6.42244092" y="13.4999667" width="11.1527081" height="1"></rect>
                    <path d="M1.922,13 L3,13 L3,23 L21,23 L21,13 L22.078,13 C23.401,13 23.807,12.454 23.932,12.129 C24.052,11.813 24.116,11.158 23.185,10.326 L12,0.845 L0.815,10.326 C-0.116,11.158 -0.052,11.812 0.068,12.129 C0.193,12.454 0.599,13 1.922,13 L1.922,13 Z M1.472,11.081 L12,2.155 L22.522,11.076 C22.98,11.486 23.013,11.729 22.997,11.772 C22.979,11.82 22.769,12 22.078,12 L20,12 L20,22 L4,22 L4,12 L1.922,12 C1.232,12 1.022,11.82 1.003,11.772 C0.986,11.729 1.02,11.484 1.472,11.081 L1.472,11.081 Z" id="Shape" fill="#0B1F35"></path>
                </g>
            </g>
        </g>
    </g>
</svg>