<svg xmlns="http://www.w3.org/2000/svg" width="36" height="36" viewBox="0 0 36 36"><path fill="none" d="M0 0h36v36H0z"/><path fill="#0B1F35" d="M18 35a17 17 0 1 1 17-17 17 17 0 0 1-17 17zm0-33a16 16 0 1 0 16 16A16 16 0 0 0 18 2z"/><path fill="#0B1F35" d="M17.91 9c3.27 0 5.46 1.89 5.46 4.53a4.53 4.53 0 0 1-2.53 4.08c-1.57.92-2 1.53-2 2.71V21h-2.79v-.81a3.76 3.76 0 0 1 2.24-3.84c1.48-.9 2-1.53 2-2.71a2.24 2.24 0 0 0-2.51-2.14 2.44 2.44 0 0 0-2.63 2.39h-2.84c.1-2.83 2.05-4.89 5.6-4.89zM15.5 25.08a1.85 1.85 0 0 1 2-1.93 1.92 1.92 0 1 1 0 3.84 1.84 1.84 0 0 1-2-1.91z" opacity=".3"/></svg>