<svg xmlns="http://www.w3.org/2000/svg" width="24" height="24" viewBox="0 0 24 24"><path fill="none" d="M0 0h24v24H0z"/><path fill="#fff" d="M12 23a11 11 0 1 1 11-11 11 11 0 0 1-11 11zm0-21a10 10 0 1 0 10 10A10 10 0 0 0 12 2z"/><path fill="#fff" d="M11.94 6c2.18 0 3.64 1.26 3.64 3a3 3 0 0 1-1.69 2.72c-1 .61-1.34 1-1.34 1.81V14H10.7v-.54a2.51 2.51 0 0 1 1.49-2.56c1-.6 1.32-1 1.32-1.81a1.49 1.49 0 0 0-1.67-1.43 1.62 1.62 0 0 0-1.75 1.59H8.21C8.27 7.37 9.57 6 11.94 6zM10.2 17a1.2 1.2 0 0 1 1.3-1.25 1.25 1.25 0 1 1 0 2.49A1.2 1.2 0 0 1 10.2 17z" opacity=".3"/></svg>