<svg xmlns="http://www.w3.org/2000/svg" width="25" height="35" viewBox="0 0 25 35"><g fill="none" fill-rule="evenodd"><path d="M-6 0h36v36H-6z"/><path fill="#FFF" d="M22.5 13h-4.75v1h4.75c.827 0 1.5.673 1.5 1.5v17c0 .827-.673 1.5-1.5 1.5h-20c-.827 0-1.5-.673-1.5-1.5v-17c0-.827.673-1.5 1.5-1.5h4.75v-1H2.5A2.503 2.503 0 0 0 0 15.5v17C0 33.879 1.122 35 2.5 35h20c1.378 0 2.5-1.121 2.5-2.5v-17c0-1.379-1.122-2.5-2.5-2.5z"/><path fill="#FFF" d="M13 23V2.707l5.146 5.147.708-.708L12.5.793 6.146 7.146l.708.708L12 2.707V23z"/></g></svg>