<svg xmlns="http://www.w3.org/2000/svg" width="22" height="22" viewBox="0 0 22 22"><g fill="#FFF"><path d="M17.697 11c0 3.72-3.059 6.697-6.697 6.697A6.67 6.67 0 0 1 4.303 11 6.67 6.67 0 0 1 11 4.303V.5C5.213.5.5 5.213.5 11S5.213 21.5 11 21.5 21.5 16.787 21.5 11h-3.803z"/><path d="M11 7.001c-2.214 0-4 1.785-4 3.999 0 2.214 1.786 4.07 4 3.999 2.214 0 4-1.785 4-3.999a3.993 3.993 0 0 0-4-3.999zm6 .499c1.406 0 2.5-1.094 2.5-2.5S18.406 2.5 17 2.5A2.468 2.468 0 0 0 14.5 5c0 1.406 1.094 2.5 2.5 2.5z"/></g></svg>