<svg xmlns="http://www.w3.org/2000/svg" width="24" height="24" version="1" viewBox="0 0 24 24"><path fill="#0B1F35" d="M18.697 12c0 3.72-3.059 6.697-6.697 6.697-3.72 0-6.697-2.976-6.697-6.697S8.28 5.303 12 5.303V1.5C6.213 1.5 1.5 6.213 1.5 12S6.213 22.5 12 22.5 22.5 17.787 22.5 12h-3.803z"/><path fill="#0B1F35" d="M12 8.001c-2.214 0-4 1.785-4 3.999s1.786 4.07 4 3.999c2.214 0 4-1.785 4-3.999s-1.786-3.999-4-3.999zm6 .499c1.406 0 2.5-1.094 2.5-2.5S19.406 3.5 18 3.5 15.5 4.594 15.5 6s1.094 2.5 2.5 2.5z"/></svg>