<svg xmlns="http://www.w3.org/2000/svg" width="30" height="30" version="1" viewBox="0 0 30 30"><path fill="#0B1F35" d="M23.291 15c0 4.606-3.787 8.291-8.291 8.291A8.257 8.257 0 0 1 6.709 15 8.257 8.257 0 0 1 15 6.709V2C7.835 2 2 7.835 2 15s5.835 13 13 13 13-5.835 13-13h-4.709z"/><path fill="#0B1F35" d="M15 9.501c-3.045 0-5.5 2.455-5.5 5.499s2.455 5.597 5.5 5.499c3.045 0 5.5-2.455 5.5-5.499S18.045 9.501 15 9.501zm10.679-1.93c0-1.828-1.422-3.25-3.25-3.25s-3.25 1.422-3.25 3.25 1.422 3.25 3.25 3.25 3.25-1.421 3.25-3.25z"/></svg>