<svg xmlns="http://www.w3.org/2000/svg" width="16" height="15" viewBox="0 0 16 15"><g fill="#FFF"><path d="M12.784 7.5c0 2.51-2.185 4.517-4.784 4.517-2.657 0-4.783-2.008-4.783-4.517 0-2.51 2.126-4.518 4.783-4.518V.417C3.866.417.5 3.596.5 7.5c0 3.904 3.366 7.083 7.5 7.083s7.5-3.179 7.5-7.083h-2.716z"/><path d="M8 4.844c-1.557 0-2.812 1.186-2.812 2.656 0 1.47 1.255 2.703 2.812 2.656 1.557 0 2.812-1.186 2.812-2.656 0-1.47-1.255-2.656-2.812-2.656zm6-1.122c0-1.062-.875-1.889-2-1.889s-2 .827-2 1.89c0 1.062.875 1.888 2 1.888s2-.826 2-1.889z"/></g></svg>