<svg xmlns="http://www.w3.org/2000/svg" width="24" height="24" version="1" viewBox="0 0 24 24"><path fill="#296A51" d="M1.5 12C1.5 6.213 6.213 1.5 12 1.5v3.803C8.28 5.303 5.303 8.28 5.303 12S8.28 18.697 12 18.697c3.638 0 6.697-2.976 6.697-6.697H22.5c0 5.787-4.713 10.5-10.5 10.5S1.5 17.787 1.5 12"/><path fill="#87B94B" d="M8 12c0-2.214 1.786-3.999 4-3.999S16 9.786 16 12s-1.786 3.999-4 3.999c-2.214.072-4-1.785-4-3.999"/><path fill="#296A51" d="M15.5 6c0-1.406 1.094-2.5 2.5-2.5s2.5 1.094 2.5 2.5-1.094 2.5-2.5 2.5-2.5-1.094-2.5-2.5"/></svg>