<svg xmlns="http://www.w3.org/2000/svg" width="26" height="26" viewBox="0 0 26 26"><g fill="#FFF"><path d="M21.291 13c0 4.606-3.787 8.291-8.291 8.291A8.257 8.257 0 0 1 4.709 13 8.257 8.257 0 0 1 13 4.709V0C5.835 0 0 5.835 0 13s5.835 13 13 13 13-5.835 13-13h-4.709z"/><path d="M13 7.501A5.49 5.49 0 0 0 7.5 13c0 3.044 2.455 5.597 5.5 5.499A5.49 5.49 0 0 0 18.5 13 5.49 5.49 0 0 0 13 7.501zm10.679-1.93c0-1.828-1.422-3.25-3.25-3.25s-3.25 1.422-3.25 3.25 1.422 3.25 3.25 3.25 3.25-1.421 3.25-3.25z"/></g></svg>