<svg xmlns="http://www.w3.org/2000/svg" width="24" height="24" viewBox="0 0 24 24"><g fill="none" fill-rule="evenodd"><path d="M0 0h24v24H0z"/><g fill="#0B1F35"><path d="M12 1C5.935 1 1 5.935 1 12s4.935 11 11 11 11-4.935 11-11S18.065 1 12 1zm0 21C6.487 22 2 17.513 2 12S6.487 2 12 2c5.514 0 10 4.487 10 10s-4.486 10-10 10z"/><path d="M11.793 15.232c.554 0 .943.397.943.957 0 .554-.389.95-.943.95-.554 0-.95-.396-.95-.95 0-.561.396-.957.95-.957zm.15-8.155c1.723 0 2.899 1.067 2.899 2.475 0 1.073-.554 1.832-1.429 2.358-.868.512-1.114.895-1.114 1.613v.444h-1.196v-.629c-.007-.902.43-1.517 1.367-2.078.793-.485 1.101-.916 1.101-1.647 0-.848-.656-1.47-1.675-1.47-1.033 0-1.689.608-1.764 1.586H8.963c.075-1.476 1.059-2.652 2.98-2.652z"/></g></g></svg>