<svg width="18" height="18" viewBox="0 0 18 18" fill="none" xmlns="http://www.w3.org/2000/svg"><rect width="18" height="18" fill="none"/><path d="M3.66699 2.99976H14.3337C14.5105 2.99976 14.68 3.06999 14.8051 3.19502C14.9301 3.32004 15.0003 3.48961 15.0003 3.66642L15.0003 14.3331C15.0003 14.5099 14.9301 14.6795 14.8051 14.8045C14.68 14.9295 14.5105 14.9998 14.3337 14.9998H3.66667C3.48986 14.9998 3.32029 14.9295 3.19526 14.8045C3.07024 14.6795 3 14.5099 3 14.3331L3.00033 3.66642C3.00033 3.48961 3.07056 3.32004 3.19559 3.19502C3.32061 3.06999 3.49018 2.99976 3.66699 2.99976ZM5.00033 8.99992V10.4998H6.50033V8.99992H5.00033ZM5.00033 11.4998V12.9999H6.50033V11.4998H5.00033ZM8.00032 8.99992V10.4998H9.50032V8.99992H8.00032ZM8.00032 11.4998V12.9999H9.50032V11.4998H8.00032ZM11.0003 8.99992V12.9999H13.0003V8.99992H11.0003ZM5.00033 4.99992V7.49976H13.0003V4.99992H5.00033Z" fill="#0B1F35"/></svg>