<svg data-name="Layer 1" xmlns="http://www.w3.org/2000/svg" viewBox="0 0 24 24" width="24" height="24"><g data-name="icon action erase m white"><path fill="none" d="M0 0h24v24H0z"/><path d="M8 19.52a1.64 1.64 0 0 0 1.19.48h11A2.81 2.81 0 0 0 23 17.19V6.81A2.81 2.81 0 0 0 20.19 4h-11A1.64 1.64 0 0 0 8 4.48l-6.32 6.35a1.65 1.65 0 0 0 0 2.34L8 19.52zm-5.64-8l6.37-6.33A.65.65 0 0 1 9.19 5h11A1.81 1.81 0 0 1 22 6.81v10.38A1.81 1.81 0 0 1 20.19 19h-11a.65.65 0 0 1-.46-.19l-6.35-6.35a.65.65 0 0 1 0-.93z" fill="#fff"/><path data-name="Shape" fill="#fff" d="M11.85 15.36l2.65-2.65 2.65 2.65.7-.71-2.64-2.64 2.64-2.65-.7-.71-2.65 2.65-2.65-2.65-.7.71 2.64 2.65-2.64 2.64.7.71z"/></g></svg>