<svg width="36" height="36" viewBox="0 0 36 36" xmlns="http://www.w3.org/2000/svg"><g fill="none" fill-rule="evenodd"><path d="M0 0h36v36H0z"/><path d="M13.922 29H30c1.761 0 3-1.235 3-3V10c0-1.765-1.239-3-3-3H13.922a1.44 1.44 0 0 0-1.033.43l-9.457 9.52C3.152 17.232 3 17.6 3 18c0 .399.152.768.43 1.049l9.46 9.52c.277.28.64.431 1.032.431zm0 1a2.44 2.44 0 0 1-1.742-.726l-9.459-9.52A2.471 2.471 0 0 1 2 18c0-.663.256-1.285.723-1.755l9.457-9.519A2.44 2.44 0 0 1 13.922 6H30c2.307 0 4 1.676 4 4v16c0 2.323-1.693 4-4 4H13.922z" fill="#FFF" fill-rule="nonzero"/><path fill="#FFF" d="M17 23l4-4 4 4 1-1.022-4-3.969L26 14l-1-1-4 4-4-4-1 1.039 4 3.97-4 3.969z"/></g></svg>