<svg xmlns="http://www.w3.org/2000/svg" width="24" height="24" viewBox="0 0 24 24"><g fill="none" fill-rule="evenodd"><path d="M0 0h24v24H0z"/><g fill="#FFF" fill-rule="nonzero"><path d="M19.049 17.936l.766.645A10.984 10.984 0 0 1 11 23C4.925 23 0 18.075 0 12S4.925 1 11 1s11 4.925 11 11v.586l1.292-1.292L24 12 21.5 14.5 19 12l.707-.707L21 12.586V12c0-5.523-4.477-10-10-10S1 6.477 1 12s4.477 10 10 10c3.3 0 6.227-1.599 8.049-4.064z"/><path opacity=".3" d="M12 6h-2v7l4.2 3.5 1.3-1.5-3.5-2.9z"/></g></g></svg>