<svg xmlns="http://www.w3.org/2000/svg" width="24" height="24" viewBox="0 0 24 24"><g fill="none"><rect width="24" height="24"/><g fill="#fff" transform="translate(2)"><path d="M18,3 L17,3 L17,4 L18,4 C18.5522847,4 19,4.44771525 19,5 L19,21 C19,21.5522847 18.5522847,22 18,22 L2,22 C1.44771525,22 1,21.5522847 1,21 L1,5 C1,4.44771525 1.44771525,4 2,4 L3,4 L3,3 L2,3 C0.8954305,3 0,3.8954305 0,5 L0,21 C0,22.1045695 0.8954305,23 2,23 L18,23 C19.1045695,23 20,22.1045695 20,21 L20,5 C20,3.8954305 19.1045695,3 18,3 Z"/><path fill-rule="nonzero" d="M16,2.00671269 L13,2.00671269 C12.5832115,0.727934822 11.5,1.73472348e-18 10,0.00939776059 C8.5,0.0187955212 7.41678852,0.727934822 7,2.00671269 L4,2.00671269 L4,7 L16,7 L16,2.00671269 Z M15,6 L5,6 L5,3.0034605 L7.78,3.0034605 C7.92666667,1.67166516 8.66666667,1.00576749 10,1.00576749 C11.3333333,1.00576749 12.0733333,1.67166516 12.22,3.0034605 L15,3.0034605 L15,6 Z"/><path fill-rule="nonzero" d="M4,11 L16,11 L16,13 L4,13 L4,11 Z M4,15 L12,15 L12,17 L4,17 L4,15 Z" opacity=".3"/></g></g></svg>