<svg width="24px" height="24px" viewBox="0 0 24 24" version="1.1" xmlns="http://www.w3.org/2000/svg" xmlns:xlink="http://www.w3.org/1999/xlink">
    <!-- Generator: Sketch 44.1 (41455) - http://www.bohemiancoding.com/sketch -->
    <title>icon_share__s__black</title>
    <desc>Created with Sketch.</desc>
    <defs></defs>
    <g id="Symbols" stroke="none" stroke-width="1" fill="none" fill-rule="evenodd">
        <g id="icon_share__s__black">
            <rect id="_ph_" x="0" y="0" width="24" height="24"></rect>
            <g id="art" transform="translate(2.000000, 0.000000)" fill="#000000">
                <path d="M17,6 C18.654,6 20,4.654 20,3 C20,1.346 18.654,0 17,0 C15.346,0 14,1.346 14,3 C14,3.263 14.045,3.514 14.109,3.757 L5.078,9.844 C4.538,9.324 3.807,9 3,9 C1.346,9 0,10.346 0,12 C0,13.654 1.346,15 3,15 C3.807,15 4.538,14.676 5.078,14.156 L14.109,20.244 C14.045,20.486 14,20.737 14,21 C14,22.654 15.346,24 17,24 C18.654,24 20,22.654 20,21 C20,19.346 18.654,18 17,18 C15.97,18 15.061,18.522 14.521,19.314 L5.667,13.345 C5.873,12.939 6,12.486 6,12 C6,11.514 5.873,11.061 5.667,10.654 L14.521,4.685 C15.061,5.478 15.97,6 17,6 L17,6 Z M17,19 C18.103,19 19,19.897 19,21 C19,22.103 18.103,23 17,23 C15.897,23 15,22.103 15,21 C15,19.897 15.897,19 17,19 L17,19 Z M3,14 C1.897,14 1,13.103 1,12 C1,10.897 1.897,10 3,10 C4.103,10 5,10.897 5,12 C5,13.103 4.103,14 3,14 L3,14 Z M17,1 C18.103,1 19,1.897 19,3 C19,4.103 18.103,5 17,5 C15.897,5 15,4.103 15,3 C15,1.897 15.897,1 17,1 L17,1 Z" id="Shape"></path>
            </g>
        </g>
    </g>
</svg>
