<?xml version="1.0" encoding="UTF-8"?>
<svg width="30px" height="30px" viewBox="0 0 30 30" version="1.1" xmlns="http://www.w3.org/2000/svg" xmlns:xlink="http://www.w3.org/1999/xlink">
    <!-- Generator: Sketch 49.1 (51147) - http://www.bohemiancoding.com/sketch -->
    <title>icon_bank-gazprombank_l_black</title>
    <desc>Created with Sketch.</desc>
    <defs></defs>
    <g id="page" stroke="none" stroke-width="1" fill="none" fill-rule="evenodd">
        <g id="газпромбанк" transform="translate(-73.000000, -97.000000)">
            <g id="black" transform="translate(19.000000, 97.000000)">
                <g id="icon_bank-gazprombank_l_black" transform="translate(54.000000, 0.000000)">
                    <rect id="Rectangle" x="0" y="0" width="30" height="30"></rect>
                    <g id="group" transform="translate(1.000000, 1.000000)" fill="#0B1F35">
                        <path d="M0.546654206,14.0471028 C0.546654206,6.64882243 6.55775701,0.632224299 13.9534206,0.632224299 C21.3325981,0.632224299 27.3437009,6.64856075 27.3437009,14.0471028 C27.3437009,21.430729 21.3325981,27.4439252 13.9534206,27.4439252 C6.55775701,27.4439252 0.546654206,21.430729 0.546654206,14.0471028 M0.0730093458,14.0471028 C0.0730093458,21.6916262 6.29685981,27.916785 13.9534206,27.916785 C21.5919252,27.916785 27.814729,21.6916262 27.814729,14.0471028 C27.814729,6.38557009 21.5921869,0.161457944 13.9534206,0.161457944 C6.29685981,0.161457944 0.0730093458,6.38557009 0.0730093458,14.0471028" id="Shape"></path>
                        <path d="M22.7828411,12.6290467 C22.6687477,12.7266542 22.5549159,12.8072523 22.4418692,12.9069533 C21.6748785,13.4912897 20.4528224,13.9654579 18.7759626,14.4069159 C15.2906168,15.3508037 12.7627664,15.4792897 9.89499065,16.1834766 C9.32583178,16.328972 8.73940187,16.5079626 8.20321495,16.7361495 C8.73940187,17.0140561 9.32583178,17.2579439 9.91252336,17.4869159 C11.0845981,17.1454206 11.6409346,16.9980935 13.3327103,16.720972 C13.9845607,16.6045234 15.9722991,16.2468037 17.4057944,15.9563364 C19.997757,15.3997383 23.7931963,14.1933832 22.7828411,12.6290467 Z M21.1057196,9.36848598 C20.5493832,9.12538318 19.8653458,8.87940187 19.1344673,8.68549533 C18.8060561,8.94639252 18.4339439,9.17327103 17.8773458,9.38758879 C18.7921869,9.54773832 19.476486,9.80863551 20.2560374,10.0219065 C20.3866168,10.0875888 21.0054953,9.51895327 21.1057196,9.36848598 Z M8.41386916,12.8410093 C11.8029159,11.8460935 15.354729,11.5375701 18.955215,10.5764112 C17.5541682,10.2019439 16.7696449,10.0376075 15.2906168,10.2179065 C13.1388037,10.4788037 10.7601121,10.9328224 8.72474766,11.5373084 C7.92478505,11.7825047 3.73891589,12.9713271 4.94605607,14.6335327 C4.94579439,14.6505421 5.66018692,13.640972 8.41386916,12.8410093 Z M6.08411215,18.5446355 C6.06762617,18.855514 6.26441121,19.1321121 6.67185047,19.4749159 C6.71973832,19.3103178 6.80242991,19.1820935 6.91652336,19.0188037 C6.63835514,18.8701682 6.36097196,18.7249346 6.08411215,18.5446355 Z M7.66545794,18.4001869 C7.92478505,18.2358505 8.23330841,18.0885234 8.57558879,17.958729 C8.10403738,17.7457196 7.59925234,17.5366355 7.11016822,17.3076636 C6.88198131,17.4542056 6.67158879,17.600486 6.50882243,17.7457196 C6.89872897,17.9749533 7.27476636,18.1861308 7.66545794,18.4001869 Z M20.6799626,11.1960748 C19.9980187,11.5218692 19.0206355,11.8463551 17.6193271,12.1899439 C16.4626916,12.4825047 13.6603364,12.8899439 10.6473271,13.541271 C9.70213084,13.7534953 7.11042991,14.3556262 5.83970093,15.4314019 C6.19820561,15.7273645 6.42613084,15.7909533 6.81708411,16.0191402 C7.33835514,15.6763364 8.05536449,15.3508037 9.11570093,15.0718505 C10.9542804,14.5851215 12.3406729,14.3739439 14.0034019,14.0981308 C15.6480748,13.8497944 18.7584299,13.199514 20.4693084,12.5790654 C21.0405607,12.3848972 21.560785,12.124 21.934729,11.8120748 C21.8201121,11.6838505 20.7126729,11.1460935 20.6799626,11.1960748 Z M21.6748785,10.5913271 C22.0158505,10.7548785 22.3277757,10.8692336 22.6198131,11.0814579 C22.8304673,10.672972 22.6998879,10.4120748 22.2623551,10.0378692 C22.0823178,10.2508785 21.8855327,10.4290841 21.6748785,10.5913271 Z M5.92213084,16.7031776 C5.61125234,16.5419813 5.41629907,16.4114019 5.15514019,16.2470654 C5.02456075,16.5419813 5.28781308,16.8654206 5.54714019,17.0140561 C5.66018692,16.8994393 5.80829907,16.8018318 5.92213084,16.7031776 Z M20.3214579,7.34986916 C20.2560374,7.57805607 20.0145047,7.85491589 19.8499065,8.03521495 C20.3554766,8.16579439 20.8767477,8.35865421 21.3642617,8.53895327 C21.2998879,8.08284112 20.7786168,7.64269159 20.3214579,7.34986916 Z M4.38945794,10.2317757 C7.94127103,7.91850467 11.8680748,6.55016822 18.5140187,7.70837383 C18.8725234,7.4951028 19.0834393,7.28314019 19.1834019,6.85973832 C17.5201495,6.25734579 15.7132336,6.0451215 13.3845234,6.07678505 C11.2976075,6.14246729 7.53409346,6.9233271 5.51626168,8.1155514 L6.13304673,7.34960748 C7.53409346,6.51588785 11.1989533,5.42545794 13.9536822,5.37573832 C15.8909159,5.32811215 16.884785,5.44063551 19.1988411,6.06003738 C18.9858318,5.67170093 18.5142804,5.47439252 17.8134953,5.14885981 C15.5829159,4.15394393 11.4281869,4.05528972 8.0242243,5.57095327 C8.44631776,5.27813084 8.87024299,5.01618692 9.42553271,4.77543925 C10.5473645,4.25259813 12.3896075,3.74650467 14.6856075,3.79543925 C16.5281121,3.82814953 18.7110654,4.4637757 20.0459065,5.7842243 C20.272785,6.06003738 20.4044112,6.3368972 20.4530841,6.55016822 C21.5123738,7.08792523 22.1302056,7.59271028 22.4722243,8.17940187 C22.6200748,8.48923364 22.6690093,8.81476636 22.6028037,9.18923364 C23.0424299,9.44908411 23.2557009,9.67831776 23.4849346,9.97428037 C23.6291215,10.2181682 23.743215,10.4929346 23.7772336,10.741271 C23.8248598,11.0647103 23.8573084,11.4402243 23.5152897,11.8806355 C23.8737944,12.0609346 24.1660935,12.5636262 24.2011589,12.7779439 C24.3793645,13.5734579 23.8575701,14.3561495 23.1908037,14.9608972 C22.4075888,15.6438879 20.6807477,16.4598131 19.2794393,16.8193645 C16.5118879,17.5185794 14.0507664,17.8134953 12.0978318,18.172 C12.9765607,18.3831776 14.1656449,18.6618692 16.1047103,18.6618692 C20.2568224,18.6618692 23.9224673,16.7039626 23.9224673,16.7039626 C23.9224673,16.7039626 23.8423925,16.9509907 23.7597009,17.1791776 C21.1206355,18.7754393 16.9355514,19.4424673 15.1419813,19.3610841 C13.3334953,19.2783925 11.8034393,19.0025794 10.3045234,18.5454206 C9.84788785,18.676785 9.3917757,18.8241121 8.95319626,19.0025794 C11.2342804,20.0451215 12.9600748,20.2740935 14.8991402,20.4195888 C16.8853084,20.5679626 20.1777944,20.0930093 22.9450841,19.0850093 C22.8147664,19.2166355 22.7498692,19.4108037 22.6205981,19.5254206 C21.2020187,20.2740935 18.2065421,21.0243364 16.6911402,21.088972 C15.1909159,21.1546542 13.367514,21.088972 11.7704673,20.7951028 C10.4021308,20.5192897 9.27663551,20.0930093 8.10456075,19.5743551 C7.89416822,19.7345047 7.79656075,19.9328598 7.74605607,20.160785 C12.325757,22.5559626 16.5919626,22.6046355 21.4647477,21.088972 L21.0225047,21.5131589 C15.6632523,23.6974206 11.4771215,22.848785 8.23409346,21.2852336 C8.12104673,21.235514 7.99072897,21.1855327 7.89416822,21.1208972 C8.204,21.6437383 10.6779439,23.4522243 13.4475888,23.6801495 C15.3552523,23.8434393 17.6839626,23.5168598 19.068785,22.9644486 L18.255215,23.3865421 C17.5858318,23.7131215 15.8113645,24.4641495 13.3334953,24.3005981 C10.0274019,24.0716262 8.16893458,22.6046355 7.3388785,21.84 C6.9468785,21.4791402 6.76971963,21.0730093 6.65457944,20.5682243 C5.9051215,20.1767477 5.43278505,19.7682617 5.0428785,19.1488598 C4.81469159,18.8073645 4.86257944,18.4012336 4.91151402,18.0563364 L5.01173832,17.7658692 C4.65218692,17.5028785 4.27719626,17.2260187 4.13091589,16.9512523 C3.80381308,16.3637757 4.00138318,15.8566355 4.22852336,15.4662056 C4.03173832,15.2382804 3.85248598,15.0100935 3.77345794,14.7821682 C3.67585047,14.521271 3.65936449,14.2580187 3.68971963,13.9665047 C3.7548785,13.4784673 4.01682243,13.0226168 4.3591028,12.6300935 C5.07454206,11.799514 6.21757009,11.1471402 8.15375701,10.5117757 C10.0614206,9.87536449 10.8273645,9.77671028 12.2608598,9.44986916 C13.9379813,9.06074766 15.9419439,8.93121495 17.6201121,8.34452336 C12.9428037,7.52990654 8.09016822,8.27884112 4.13117757,10.9985047 L4.38945794,10.2317757 Z" id="Shape"></path>
                    </g>
                </g>
            </g>
        </g>
    </g>
</svg>