<?xml version="1.0" encoding="UTF-8"?>
<svg width="24px" height="24px" viewBox="0 0 24 24" version="1.1" xmlns="http://www.w3.org/2000/svg" xmlns:xlink="http://www.w3.org/1999/xlink">
    <!-- Generator: Sketch 49.1 (51147) - http://www.bohemiancoding.com/sketch -->
    <title>icon_bank-gazprombank_m_color</title>
    <desc>Created with Sketch.</desc>
    <defs></defs>
    <g id="page" stroke="none" stroke-width="1" fill="none" fill-rule="evenodd">
        <g id="газпромбанк" transform="translate(-43.000000, -11.000000)">
            <g id="color" transform="translate(19.000000, 11.000000)">
                <g id="icon_bank-gazprombank_m_color" transform="translate(24.000000, 0.000000)">
                    <rect id="Rectangle" x="0" y="0" width="24" height="24"></rect>
                    <g id="group" transform="translate(1.000000, 1.000000)">
                        <path d="M21.6761682,11.0370093 C21.6761682,16.9543925 16.8764673,21.7563551 10.9634019,21.7563551 C5.04992523,21.7563551 0.250224299,16.9543925 0.250224299,11.0370093 C0.250224299,5.11983178 5.04992523,0.318485981 10.9634019,0.318485981 C16.8764673,0.318485981 21.6761682,5.11983178 21.6761682,11.0370093" id="Shape" fill="#FFFFFF"></path>
                        <path d="M0.429514019,11.0370093 C0.429514019,5.22407477 5.15252336,0.496747664 10.9634019,0.496747664 C16.7613271,0.496747664 21.4843364,5.22386916 21.4843364,11.0370093 C21.4843364,16.8384299 16.7613271,21.5630841 10.9634019,21.5630841 C5.15252336,21.5630841 0.429514019,16.8384299 0.429514019,11.0370093 M0.057364486,11.0370093 C0.057364486,17.0434206 4.94753271,21.9346168 10.9634019,21.9346168 C16.9650841,21.9346168 21.8544299,17.0434206 21.8544299,11.0370093 C21.8544299,5.01723364 16.9652897,0.126859813 10.9634019,0.126859813 C4.94753271,0.126859813 0.057364486,5.01723364 0.057364486,11.0370093" id="Shape" fill="#1E3262"></path>
                        <path d="M17.9008037,9.92282243 C17.8111589,9.99951402 17.7217196,10.0628411 17.6328972,10.1411776 C17.0302617,10.6002991 16.0700748,10.9728598 14.7525421,11.3197196 C12.0140561,12.0613458 10.0278879,12.1622991 7.77463551,12.7155888 C7.32743925,12.8299065 6.8666729,12.9705421 6.44538318,13.1498318 C6.8666729,13.3681869 7.32743925,13.5598131 7.78841121,13.7397196 C8.7093271,13.4714019 9.1464486,13.3556449 10.4757009,13.1379065 C10.9878692,13.0464112 12.5496636,12.7653458 13.6759813,12.5371215 C15.7125234,12.0997944 18.6946542,11.1519439 17.9008037,9.92282243 Z M16.5830654,7.36095327 C16.1459439,7.16994393 15.608486,6.9766729 15.0342243,6.82431776 C14.7761869,7.02930841 14.4838131,7.20757009 14.046486,7.37596262 C14.7652897,7.50179439 15.3029533,7.70678505 15.9154579,7.87435514 C16.0180561,7.92596262 16.5043178,7.47917757 16.5830654,7.36095327 Z M6.6108972,10.0893645 C9.27371963,9.30764486 12.0644299,9.06523364 14.8933832,8.31003738 C13.7925607,8.01581308 13.1761495,7.88669159 12.0140561,8.02835514 C10.3233458,8.23334579 8.45437383,8.59007477 6.85515888,9.06502804 C6.22661682,9.25768224 2.93771963,10.191757 3.88618692,11.4977757 C3.88598131,11.5111402 4.44728972,10.7179065 6.6108972,10.0893645 Z M4.78037383,14.570785 C4.76742056,14.8150467 4.92203738,15.0323738 5.24216822,15.3017196 C5.27979439,15.1723925 5.34476636,15.0716449 5.43441121,14.9433458 C5.21585047,14.8265607 4.99790654,14.7124486 4.78037383,14.570785 Z M6.02285981,14.4572897 C6.22661682,14.3281682 6.46902804,14.2124112 6.73796262,14.1104299 C6.36745794,13.9430654 5.97084112,13.778785 5.58656075,13.5988785 C5.40727103,13.7140187 5.24196262,13.8289533 5.11407477,13.9430654 C5.42042991,14.1231776 5.71588785,14.2891028 6.02285981,14.4572897 Z M16.2485421,8.79691589 C15.712729,9.0528972 14.944785,9.30785047 13.843757,9.57781308 C12.934972,9.80768224 10.7331215,10.1278131 8.36575701,10.6395701 C7.6231028,10.8063178 5.58676636,11.2794206 4.58833645,12.1246729 C4.87001869,12.357215 5.0491028,12.4071776 5.35628037,12.5864673 C5.76585047,12.3171215 6.32921495,12.0613458 7.16233645,11.8421682 C8.60693458,11.4597383 9.69624299,11.2938131 11.0026729,11.0771028 C12.2949159,10.8819813 14.7387664,10.3710467 16.083028,9.8835514 C16.5318692,9.73099065 16.9406168,9.526 17.2344299,9.28091589 C17.1443738,9.18016822 16.274243,8.75764486 16.2485421,8.79691589 Z M17.0302617,8.32175701 C17.2981682,8.45026168 17.5432523,8.54011215 17.7727103,8.70685981 C17.9382243,8.38590654 17.8356262,8.18091589 17.4918505,7.8868972 C17.3503925,8.05426168 17.1957757,8.19428037 17.0302617,8.32175701 Z M4.6531028,13.1239252 C4.40884112,12.997271 4.25566355,12.8946729 4.05046729,12.7655514 C3.94786916,12.997271 4.15471028,13.2514019 4.35846729,13.3681869 C4.44728972,13.2781308 4.56366355,13.2014393 4.6531028,13.1239252 Z M15.9668598,5.7748972 C15.9154579,5.95418692 15.7256822,6.17171963 15.5963551,6.31338318 C15.9935888,6.41598131 16.4031589,6.56751402 16.7862056,6.70917757 C16.7356262,6.35080374 16.3260561,6.00497196 15.9668598,5.7748972 Z M3.44885981,8.03925234 C6.23957009,6.22168224 9.32491589,5.14656075 14.546729,6.05657944 C14.8284112,5.88900935 14.9941308,5.72246729 15.0726729,5.38979439 C13.7658318,4.91648598 12.3461121,4.74973832 10.5164112,4.77461682 C8.87669159,4.8262243 5.91964486,5.43975701 4.33420561,6.37650467 L4.81882243,5.77469159 C5.91964486,5.11962617 8.79917757,4.26285981 10.9636075,4.22379439 C12.4857196,4.18637383 13.2666168,4.27478505 15.0848037,4.76145794 C14.9174393,4.45633645 14.5469346,4.30130841 13.9963178,4.04553271 C12.2437196,3.26381308 8.97928972,3.18629907 6.30474766,4.37717757 C6.63639252,4.1471028 6.96947664,3.94128972 7.4057757,3.75213084 C8.28721495,3.3413271 9.73469159,2.94368224 11.5386916,2.98213084 C12.9863738,3.00783178 14.7015514,3.50725234 15.7503551,4.54474766 C15.9286168,4.76145794 16.0320374,4.97899065 16.0702804,5.14656075 C16.9025794,5.56908411 17.3880187,5.96570093 17.6567477,6.4266729 C17.7729159,6.67011215 17.8113645,6.92588785 17.7593458,7.22011215 C18.1047664,7.42428037 18.2723364,7.60439252 18.4524486,7.83693458 C18.5657383,8.02856075 18.6553832,8.2444486 18.6821121,8.43957009 C18.7195327,8.69370093 18.745028,8.98874766 18.4762991,9.33478505 C18.7579813,9.4764486 18.9876449,9.87142056 19.0151963,10.0398131 C19.155215,10.6648598 18.7452336,11.2798318 18.2213458,11.7549907 C17.6059626,12.2916262 16.2491589,12.9327103 15.1481308,13.215215 C12.9736262,13.7645981 11.0398879,13.9963178 9.50543925,14.278 C10.1958692,14.4439252 11.1301495,14.6628972 12.6537009,14.6628972 C15.9160748,14.6628972 18.7962243,13.1245421 18.7962243,13.1245421 C18.7962243,13.1245421 18.7333084,13.3186355 18.6683364,13.4979252 C16.594785,14.7521308 13.3065047,15.2762243 11.897271,15.2122804 C10.4763178,15.1473084 9.27413084,14.9305981 8.09641121,14.5714019 C7.73762617,14.6746168 7.37925234,14.7903738 7.03465421,14.9305981 C8.82693458,15.7497383 10.1829159,15.9296449 11.7064673,16.0439626 C13.267028,16.1605421 15.8539813,15.7873645 18.0282804,14.9953645 C17.9258879,15.098785 17.8748972,15.2513458 17.7733271,15.3414019 C16.658729,15.9296449 14.3051402,16.5191215 13.1144673,16.5699065 C11.9357196,16.621514 10.5030467,16.5699065 9.2482243,16.3390093 C8.1731028,16.1222991 7.28878505,15.7873645 6.36786916,15.3798505 C6.20256075,15.5056822 6.12586916,15.6615327 6.08618692,15.8406168 C9.68452336,17.7225421 13.0365421,17.760785 16.8651589,16.5699065 L16.5176822,16.9031963 C12.3068411,18.6194019 9.01773832,17.9526168 6.46964486,16.7241121 C6.38082243,16.6850467 6.27842991,16.6457757 6.20256075,16.5949907 C6.446,17.0057944 8.38981308,18.4267477 10.5659626,18.6058318 C12.0648411,18.7341308 13.8945421,18.4775327 14.9826168,18.0434953 L14.3433832,18.3751402 C13.8174393,18.6317383 12.423215,19.2218318 10.4763178,19.0933271 C7.8786729,18.9134206 6.4184486,17.760785 5.76626168,17.16 C5.45826168,16.8764673 5.31906542,16.5573645 5.22859813,16.1607477 C4.63973832,15.8531589 4.26861682,15.5322056 3.96226168,15.0455327 C3.78297196,14.777215 3.82059813,14.4581121 3.85904673,14.1871215 L3.93779439,13.9588972 C3.65528972,13.7522617 3.36065421,13.534729 3.24571963,13.3188411 C2.98871028,12.8572523 3.14394393,12.458785 3.32241121,12.1520187 C3.16779439,11.9729346 3.02695327,11.7936449 2.96485981,11.6145607 C2.88816822,11.4095701 2.87521495,11.202729 2.89906542,10.9736822 C2.95026168,10.5902243 3.15607477,10.2320561 3.42500935,9.92364486 C3.98714019,9.27104673 4.88523364,8.75846729 6.40652336,8.25925234 C7.90540187,7.75921495 8.50721495,7.68170093 9.63353271,7.4248972 C10.951271,7.11915888 12.5258131,7.01738318 13.8443738,6.55641121 C10.1693458,5.91635514 6.35656075,6.50480374 3.24592523,8.64168224 L3.44885981,8.03925234 Z" id="Shape" fill="#1E3262"></path>
                    </g>
                </g>
            </g>
        </g>
    </g>
</svg>