<?xml version="1.0" encoding="UTF-8"?>
<svg width="36px" height="36px" viewBox="0 0 36 36" version="1.1" xmlns="http://www.w3.org/2000/svg" xmlns:xlink="http://www.w3.org/1999/xlink">
    <!-- Generator: Sketch 49.1 (51147) - http://www.bohemiancoding.com/sketch -->
    <title>icon_bank-gazprombank_xl_color</title>
    <desc>Created with Sketch.</desc>
    <defs></defs>
    <g id="page" stroke="none" stroke-width="1" fill="none" fill-rule="evenodd">
        <g id="газпромбанк" transform="translate(-109.000000, -11.000000)">
            <g id="color" transform="translate(19.000000, 11.000000)">
                <g id="icon_bank-gazprombank_xl_color" transform="translate(90.000000, 0.000000)">
                    <rect id="Rectangle" x="0" y="0" width="36" height="36"></rect>
                    <g id="group" transform="translate(1.000000, 1.000000)">
                        <path d="M33.4995327,17.0571963 C33.4995327,26.202243 26.0818131,33.6234579 16.9434393,33.6234579 C7.80442991,33.6234579 0.38671028,26.202243 0.38671028,17.0571963 C0.38671028,7.91246729 7.80442991,0.492205607 16.9434393,0.492205607 C26.0818131,0.492205607 33.4995327,7.91246729 33.4995327,17.0571963" id="Shape" fill="#FFFFFF"></path>
                        <path d="M0.663794393,17.0571963 C0.663794393,8.07357009 7.96299065,0.767700935 16.9434393,0.767700935 C25.9038692,0.767700935 33.2030654,8.07325234 33.2030654,17.0571963 C33.2030654,26.023028 25.9038692,33.3247664 16.9434393,33.3247664 C7.96299065,33.3247664 0.663794393,26.023028 0.663794393,17.0571963 M0.0886542056,17.0571963 C0.0886542056,26.3398318 7.64618692,33.8989533 16.9434393,33.8989533 C26.2187664,33.8989533 33.775028,26.3398318 33.775028,17.0571963 C33.775028,7.75390654 26.2190841,0.196056075 16.9434393,0.196056075 C7.64618692,0.196056075 0.0886542056,7.75390654 0.0886542056,17.0571963" id="Shape" fill="#1E3262"></path>
                        <path d="M27.6648785,15.335271 C27.5263364,15.4537944 27.3881121,15.5516636 27.2508411,15.672729 C26.3194953,16.3822804 24.8355701,16.9580561 22.7993832,17.4941121 C18.5671776,18.6402617 15.4976449,18.7962804 12.0153458,19.6513645 C11.3242243,19.8280374 10.6121308,20.0453832 9.96104673,20.3224673 C10.6121308,20.6599252 11.3242243,20.9560748 12.0366355,21.2341121 C13.4598692,20.8194393 14.1354206,20.6405421 16.1897196,20.3040374 C16.9812523,20.1626355 19.3949346,19.7282617 21.1356075,19.3755514 C24.2829907,18.6996822 28.8917383,17.2348224 27.6648785,15.335271 Z M25.6283738,11.3760187 C24.9528224,11.0808224 24.1222056,10.7821308 23.2347103,10.5466729 C22.8359252,10.8634766 22.3840748,11.138972 21.7082056,11.399215 C22.8190841,11.5936822 23.6500187,11.910486 24.5966168,12.1694579 C24.7551776,12.249215 25.5066729,11.558729 25.6283738,11.3760187 Z M10.2168411,15.5926542 C14.3321121,14.3845421 18.645028,14.0099065 23.0170467,12.842785 C21.3157757,12.3880748 20.3631402,12.1885234 18.5671776,12.4074579 C15.9542617,12.7242617 13.0658505,13.2755701 10.5943364,14.0095888 C9.62295327,14.3073271 4.54011215,15.7508972 6.00592523,17.7692897 C6.00560748,17.7899439 6.87308411,16.5640374 10.2168411,15.5926542 Z M7.38785047,22.518486 C7.36783178,22.8959813 7.60678505,23.2318505 8.10153271,23.6481121 C8.15968224,23.448243 8.26009346,23.2925421 8.39863551,23.0942617 C8.06085981,22.9137757 7.72403738,22.7374206 7.38785047,22.518486 Z M9.30805607,22.3430841 C9.62295327,22.1435327 9.99758879,21.9646355 10.413215,21.807028 C9.84061682,21.5483738 9.22766355,21.294486 8.6337757,21.0164486 C8.35669159,21.1943925 8.10121495,21.3720187 7.90357009,21.5483738 C8.37702804,21.826729 8.83364486,22.0831589 9.30805607,22.3430841 Z M25.1113832,13.5952336 C24.2833084,13.9908411 23.096486,14.3848598 21.3948972,14.8020748 C19.9904112,15.1573271 16.5875514,15.6520748 12.9288972,16.442972 C11.7811589,16.7006729 8.63409346,17.4318318 7.09106542,18.7381308 C7.52639252,19.097514 7.80315888,19.174729 8.27788785,19.4518131 C8.91085981,19.0355514 9.78151402,18.6402617 11.0690654,18.3015327 C13.3016262,17.7105047 14.9851028,17.4540748 17.0041308,17.1191589 C19.0012336,16.8176075 22.7780935,16.0279813 24.8555888,15.2745794 C25.5492523,15.0388037 26.1809533,14.722 26.635028,14.3432336 C26.4958505,14.1875327 25.1511028,13.5345421 25.1113832,13.5952336 Z M26.3194953,12.8608972 C26.7335327,13.0594953 27.1122991,13.1983551 27.4669159,13.4560561 C27.7227103,12.9600374 27.5641495,12.6432336 27.0328598,12.1888411 C26.814243,12.4474953 26.5752897,12.6638879 26.3194953,12.8608972 Z M7.19115888,20.2824299 C6.81366355,20.0866916 6.57693458,19.9281308 6.25981308,19.7285794 C6.10125234,20.0866916 6.42091589,20.4794393 6.73581308,20.6599252 C6.87308411,20.5207477 7.05293458,20.4022243 7.19115888,20.2824299 Z M24.6760561,8.92484112 C24.5966168,9.20192523 24.3033271,9.53811215 24.1034579,9.75704673 C24.7173645,9.91560748 25.3503364,10.1497944 25.9423178,10.368729 C25.8641495,9.8148785 25.2311776,9.28041121 24.6760561,8.92484112 Z M5.33005607,12.4242991 C9.64297196,9.6153271 14.4112336,7.9537757 22.4813084,9.36016822 C22.9166355,9.10119626 23.1727477,8.84381308 23.2941308,8.32968224 C21.2744673,7.59820561 19.0803551,7.34050467 16.2526355,7.37895327 C13.7185234,7.45871028 9.14854206,8.4068972 6.69831776,9.85459813 L7.44727103,8.92452336 C9.14854206,7.91214953 13.598729,6.58805607 16.943757,6.52768224 C19.2961121,6.46985047 20.5029533,6.60648598 23.3128785,7.35861682 C23.0542243,6.88706542 22.4816262,6.64747664 21.6306729,6.25218692 C18.9221121,5.04407477 13.8770841,4.92428037 9.74370093,6.76472897 C10.256243,6.40915888 10.7710093,6.09108411 11.4452897,5.79874766 C12.807514,5.16386916 15.0445234,4.5493271 17.8325234,4.60874766 C20.0698505,4.64846729 22.7205794,5.42029907 24.3414579,7.02370093 C24.6169533,7.35861682 24.776785,7.69480374 24.8358879,7.9537757 C26.1221682,8.60676636 26.8723925,9.21971963 27.2877009,9.93213084 C27.4672336,10.3083551 27.5266542,10.7036449 27.4462617,11.1583551 C27.9800935,11.4738879 28.2390654,11.752243 28.5174206,12.1116262 C28.6925047,12.4077757 28.8310467,12.7414206 28.8723551,13.042972 C28.9301869,13.4357196 28.9695888,13.8917009 28.5542804,14.426486 C28.9896075,14.6454206 29.3445421,15.2558318 29.3871215,15.5160748 C29.603514,16.4820561 28.9699065,17.4324673 28.1602617,18.1668037 C27.209215,18.9961495 25.1123364,19.9869159 23.4107477,20.423514 C20.0501495,21.2725607 17.0616449,21.6306729 14.6902243,22.066 C15.7572523,22.3224299 17.2011402,22.6608411 19.5557196,22.6608411 C24.5975701,22.6608411 29.0487103,20.2833832 29.0487103,20.2833832 C29.0487103,20.2833832 28.9514766,20.5833458 28.8510654,20.8604299 C25.646486,22.7987477 20.5645981,23.6087103 18.3866916,23.5098879 C16.1906729,23.4094766 14.3327477,23.0745607 12.5126355,22.5194393 C11.9581495,22.6789533 11.4042991,22.8578505 10.8717383,23.0745607 C13.6416262,24.3405047 15.7372336,24.6185421 18.0918131,24.795215 C20.5035888,24.9753832 24.5016075,24.3986542 27.8618879,23.1746542 C27.7036449,23.334486 27.6248411,23.5702617 27.4678692,23.7094393 C25.7453084,24.6185421 22.1079439,25.5295514 20.2678131,25.6080374 C18.4461121,25.6877944 16.2319813,25.6080374 14.2927103,25.2511963 C12.6311589,24.9162804 11.264486,24.3986542 9.84125234,23.7688598 C9.5857757,23.9633271 9.46725234,24.2041869 9.40592523,24.4809533 C14.9669907,27.3893832 20.1473832,27.448486 26.0643364,25.6080374 L25.5273271,26.1231215 C19.0196636,28.7754393 13.9365047,27.7449533 9.99854206,25.8463551 C9.86127103,25.7859813 9.70302804,25.7252897 9.5857757,25.6468037 C9.962,26.2816822 12.9660748,28.4777009 16.329215,28.7544673 C18.6456636,28.9527477 21.4733832,28.5561869 23.1549533,27.8854019 L22.1670467,28.3979439 C21.3542243,28.7945047 19.199514,29.7064673 16.1906729,29.5078692 C12.1761308,29.2298318 9.91942056,27.448486 8.91149533,26.52 C8.43549533,26.0818131 8.22037383,25.5886542 8.08056075,24.9757009 C7.17050467,24.5003364 6.59695327,24.0043178 6.12349533,23.2521869 C5.84641121,22.837514 5.90456075,22.3443551 5.96398131,21.9255514 L6.08568224,21.5728411 C5.64908411,21.2534953 5.19373832,20.9173084 5.01611215,20.5836636 C4.61891589,19.8702991 4.85882243,19.254486 5.13463551,18.7803925 C4.89568224,18.5036262 4.67801869,18.2265421 4.58205607,17.9497757 C4.46353271,17.632972 4.44351402,17.3133084 4.48037383,16.9593271 C4.55949533,16.3667103 4.87757009,15.8131776 5.29319626,15.3365421 C6.16194393,14.3279813 7.54990654,13.5358131 9.90099065,12.7642991 C12.2174393,11.991514 13.147514,11.8717196 14.8881869,11.4748411 C16.9246916,11.0023364 19.3580748,10.8450467 21.3958505,10.1326355 C15.7162617,9.14345794 9.8237757,10.0528785 5.01642991,13.3553271 L5.33005607,12.4242991 Z" id="Shape" fill="#1E3262"></path>
                    </g>
                </g>
            </g>
        </g>
    </g>
</svg>