<?xml version="1.0" encoding="UTF-8"?>
<svg width="18px" height="18px" viewBox="0 0 18 18" version="1.1" xmlns="http://www.w3.org/2000/svg" xmlns:xlink="http://www.w3.org/1999/xlink">
    <!-- Generator: Sketch 49.1 (51147) - http://www.bohemiancoding.com/sketch -->
    <title>icon_bank-gazprombank_s_white</title>
    <desc>Created with Sketch.</desc>
    <defs></defs>
    <g id="page" stroke="none" stroke-width="1" fill="none" fill-rule="evenodd">
        <g id="газпромбанк" transform="translate(-19.000000, -54.000000)">
            <g id="white" transform="translate(19.000000, 54.000000)">
                <g id="icon_bank-gazprombank_s_white">
                    <rect id="Rectangle" x="0" y="0" width="18" height="18"></rect>
                    <g id="group" transform="translate(1.000000, 1.000000)" fill="#FFFFFF">
                        <path d="M0.312373832,8.02691589 C0.312373832,3.7993271 3.74728972,0.361271028 7.97338318,0.361271028 C12.1900561,0.361271028 15.624972,3.79917757 15.624972,8.02691589 C15.624972,12.2461308 12.1900561,15.682243 7.97338318,15.682243 C3.74728972,15.682243 0.312373832,12.2461308 0.312373832,8.02691589 M0.0417196262,8.02691589 C0.0417196262,12.395215 3.59820561,15.9524486 7.97338318,15.9524486 C12.338243,15.9524486 15.8941308,12.395215 15.8941308,8.02691589 C15.8941308,3.6488972 12.3383925,0.0922616822 7.97338318,0.0922616822 C3.59820561,0.0922616822 0.0417196262,3.6488972 0.0417196262,8.02691589" id="Shape"></path>
                        <path d="M13.0187664,7.21659813 C12.9535701,7.27237383 12.8885234,7.31842991 12.8239252,7.37540187 C12.3856449,7.70930841 11.6873271,7.98026168 10.7291215,8.23252336 C8.73749533,8.77188785 7.29300935,8.84530841 5.65428037,9.24770093 C5.32904673,9.33084112 4.99394393,9.4331215 4.6875514,9.56351402 C4.99394393,9.72231776 5.32904673,9.86168224 5.66429907,9.99252336 C6.33405607,9.79738318 6.65196262,9.71319626 7.61869159,9.55484112 C7.99117757,9.48829907 9.12702804,9.28388785 9.94616822,9.11790654 C11.4272897,8.79985047 13.5961121,8.11050467 13.0187664,7.21659813 Z M12.0604112,5.35342056 C11.7425047,5.21450467 11.3516262,5.07394393 10.9339813,4.96314019 C10.7463178,5.1122243 10.5336822,5.24186916 10.2156262,5.36433645 C10.7383925,5.45585047 11.1294206,5.60493458 11.5748785,5.72680374 C11.6494953,5.76433645 12.0031402,5.43940187 12.0604112,5.35342056 Z M4.80792523,7.33771963 C6.74452336,6.76919626 8.77413084,6.5928972 10.8315514,6.04366355 C10.0309533,5.82968224 9.58265421,5.7357757 8.73749533,5.83880374 C7.50788785,5.98788785 6.14863551,6.2473271 4.98557009,6.59274766 C4.5284486,6.73285981 2.13652336,7.41218692 2.82631776,8.36201869 C2.82616822,8.37173832 3.23439252,7.79484112 4.80792523,7.33771963 Z M3.47663551,10.5969346 C3.46721495,10.7745794 3.57966355,10.9326355 3.81248598,11.1285234 C3.83985047,11.0344673 3.8871028,10.9611963 3.95229907,10.8678879 C3.79334579,10.7829533 3.63484112,10.6999626 3.47663551,10.5969346 Z M4.38026168,10.5143925 C4.5284486,10.420486 4.70474766,10.3362991 4.90033645,10.2621308 C4.6308785,10.1404112 4.34242991,10.0209346 4.06295327,9.89009346 C3.93256075,9.97383178 3.81233645,10.0574206 3.7193271,10.1404112 C3.94213084,10.2714019 4.15700935,10.3920748 4.38026168,10.5143925 Z M11.8171215,6.39775701 C11.4274393,6.58392523 10.8689346,6.76934579 10.0681869,6.96568224 C9.40725234,7.13285981 7.80590654,7.36568224 6.08418692,7.73786916 C5.54407477,7.85914019 4.0631028,8.20321495 3.33697196,8.81794393 C3.54183178,8.98706542 3.67207477,9.02340187 3.89547664,9.15379439 C4.19334579,8.95790654 4.60306542,8.77188785 5.20897196,8.61248598 C6.25958879,8.33435514 7.05181308,8.21368224 8.00194393,8.05607477 C8.94175701,7.91416822 10.7191028,7.54257944 11.6967477,7.18803738 C12.0231776,7.07708411 12.3204486,6.928 12.5341308,6.74975701 C12.4686355,6.67648598 11.8358131,6.36919626 11.8171215,6.39775701 Z M12.3856449,6.05218692 C12.580486,6.14564486 12.758729,6.21099065 12.9256075,6.33226168 C13.0459813,6.09884112 12.9713645,5.94975701 12.7213458,5.73592523 C12.6184673,5.85764486 12.5060187,5.95947664 12.3856449,6.05218692 Z M3.38407477,9.5446729 C3.20642991,9.45256075 3.09502804,9.37794393 2.94579439,9.28403738 C2.87117757,9.45256075 3.02160748,9.63738318 3.16979439,9.72231776 C3.23439252,9.65682243 3.31902804,9.60104673 3.38407477,9.5446729 Z M11.6122617,4.19992523 C11.5748785,4.33031776 11.4368598,4.48852336 11.3428037,4.5915514 C11.6317009,4.66616822 11.9295701,4.77637383 12.2081495,4.87940187 C12.1713645,4.61876636 11.8734953,4.36725234 11.6122617,4.19992523 Z M2.50826168,5.84672897 C4.53786916,4.52485981 6.78175701,3.74295327 10.5794393,4.40478505 C10.7842991,4.28291589 10.9048224,4.16179439 10.9619439,3.91985047 C10.011514,3.57562617 8.97899065,3.45435514 7.64829907,3.4724486 C6.4557757,3.50998131 4.30519626,3.95618692 3.15214953,4.63745794 L3.50459813,4.1997757 C4.30519626,3.72336449 6.39940187,3.10026168 7.97353271,3.07185047 C9.08052336,3.04463551 9.6484486,3.10893458 10.9707664,3.4628785 C10.8490467,3.24097196 10.5795888,3.1282243 10.1791402,2.94220561 C8.90452336,2.37368224 6.53039252,2.31730841 4.58527103,3.18340187 C4.82646729,3.01607477 5.06871028,2.86639252 5.38601869,2.72882243 C6.02706542,2.43005607 7.0797757,2.14085981 8.3917757,2.16882243 C9.44463551,2.18751402 10.6920374,2.55072897 11.4548037,3.30527103 C11.5844486,3.4628785 11.6596636,3.62108411 11.6874766,3.74295327 C12.292785,4.05024299 12.6458318,4.33869159 12.841271,4.67394393 C12.925757,4.85099065 12.9537196,5.03700935 12.9158879,5.25099065 C13.1671028,5.39947664 13.288972,5.53046729 13.4199626,5.69958879 C13.5023551,5.83895327 13.5675514,5.99596262 13.5869907,6.13786916 C13.6142056,6.32269159 13.6327477,6.53727103 13.4373084,6.78893458 C13.6421682,6.89196262 13.8091963,7.17921495 13.8292336,7.30168224 C13.9310654,7.75626168 13.6328972,8.20351402 13.2518879,8.54908411 C12.8043364,8.93936449 11.8175701,9.40560748 11.0168224,9.61106542 C9.43536449,10.0106168 8.02900935,10.1791402 6.91304673,10.384 C7.41517757,10.5046729 8.09465421,10.6639252 9.20269159,10.6639252 C11.5753271,10.6639252 13.6699813,9.5451215 13.6699813,9.5451215 C13.6699813,9.5451215 13.6242243,9.68628037 13.576972,9.8166729 C12.0689346,10.7288224 9.67745794,11.1099813 8.65256075,11.0634766 C7.61914019,11.0162243 6.74482243,10.8586168 5.88829907,10.5973832 C5.62736449,10.6724486 5.36672897,10.7566355 5.11611215,10.8586168 C6.41958879,11.4543551 7.40575701,11.5851963 8.51379439,11.6683364 C9.64874766,11.7531215 11.5301682,11.4817196 13.1114766,10.9057196 C13.0370093,10.9809346 12.9999252,11.0918879 12.9260561,11.1573832 C12.1154393,11.5851963 10.4037383,12.0139065 9.53779439,12.0508411 C8.68052336,12.0883738 7.63857944,12.0508411 6.72598131,11.8829159 C5.94407477,11.7253084 5.30093458,11.4817196 4.63117757,11.1853458 C4.51095327,11.2768598 4.45517757,11.3902056 4.42631776,11.5204486 C7.04328972,12.8891215 9.4811215,12.9169346 12.2655701,12.0508411 L12.0128598,12.2932336 C8.95042991,13.5413832 6.55835514,13.0564486 4.70519626,12.1629907 C4.64059813,12.1345794 4.56613084,12.1060187 4.51095327,12.0690841 C4.688,12.3678505 6.10168224,13.401271 7.68433645,13.531514 C8.77442991,13.6248224 10.1051215,13.4382056 10.8964486,13.1225421 L10.4315514,13.3637383 C10.0490467,13.5503551 9.03506542,13.979514 7.61914019,13.8860561 C5.72994393,13.755215 4.66796262,12.9169346 4.19364486,12.48 C3.96964486,12.2737944 3.86841121,12.0417196 3.80261682,11.753271 C3.37435514,11.5295701 3.1044486,11.2961495 2.88164486,10.9422056 C2.75125234,10.7470654 2.77861682,10.5149907 2.80657944,10.3179065 L2.86385047,10.1519252 C2.65839252,10.0016449 2.44411215,9.84343925 2.36052336,9.68642991 C2.17360748,9.35072897 2.28650467,9.06093458 2.41629907,8.83783178 C2.30385047,8.70758879 2.20142056,8.57719626 2.15626168,8.44695327 C2.10048598,8.29786916 2.09106542,8.14743925 2.10841121,7.98085981 C2.14564486,7.70198131 2.2953271,7.44149533 2.49091589,7.21719626 C2.89973832,6.74257944 3.5528972,6.36979439 4.65928972,6.00672897 C5.74938318,5.64306542 6.18706542,5.58669159 7.00620561,5.39992523 C7.96456075,5.17757009 9.10968224,5.1035514 10.0686355,4.76829907 C7.39588785,4.30280374 4.62295327,4.73076636 2.3606729,6.28485981 L2.50826168,5.84672897 Z" id="Shape"></path>
                    </g>
                </g>
            </g>
        </g>
    </g>
</svg>