<?xml version="1.0" encoding="UTF-8"?>
<svg width="24px" height="24px" viewBox="0 0 24 24" version="1.1" xmlns="http://www.w3.org/2000/svg" xmlns:xlink="http://www.w3.org/1999/xlink">
    <!-- Generator: Sketch 48.2 (47327) - http://www.bohemiancoding.com/sketch -->
    <title>icon_tool_fingerprint__m__white</title>
    <desc>Created with Sketch.</desc>
    <defs></defs>
    <g id="Artboard" stroke="none" stroke-width="1" fill="none" fill-rule="evenodd" transform="translate(-18.000000, -135.000000)">
        <g id="icon_tool_fingerprint__m__white" transform="translate(18.000000, 135.000000)">
            <g id="Group">
                <rect id="ph" x="0" y="0" width="24" height="24"></rect>
                <path d="M17.8666849,14.7614064 C17.9123968,13.4357618 17.3867102,12.1329732 16.5638963,11.1044559 C15.2611077,9.45882813 12.9755136,8.68172614 10.9184789,8.95599743 C8.93001203,9.20741278 6.96440111,10.5559133 6.14158723,12.4072445 C5.61590059,13.6186094 5.52447683,14.9442539 5.70732436,16.2241866 C6.05016347,18.5554926 7.26152834,20.6810951 8.95286797,22.3038669 C9.43284273,22.7609857 10.1642328,22.0295956 9.68425808,21.5724768 C8.26718974,20.2011204 7.21581646,18.4869248 6.80440952,16.5441698 C6.75869764,16.3841782 6.7358417,16.2241866 6.71298576,16.087051 C6.71298576,16.0641951 6.71298576,16.0184832 6.69012982,15.9956272 C6.66727387,15.8584916 6.71298576,16.1099069 6.69012982,15.9727713 C6.69012982,15.9042035 6.66727387,15.8127797 6.66727387,15.7442119 C6.64441793,15.5385084 6.62156199,15.309949 6.62156199,15.1042455 C6.62156199,14.6471267 6.66727387,14.2128638 6.75869764,13.778601 C6.94154517,12.9329311 7.3529521,12.1558292 7.94720657,11.5615747 C8.2443338,11.2644475 8.47289321,11.1044559 8.77002044,10.8758965 C9.18142738,10.6016252 9.59283431,10.3730658 10.0728091,10.2130742 C11.1698942,9.84737912 12.3126913,9.89309101 13.3869205,10.2359301 C14.1868784,10.4873455 14.8725567,10.8987524 15.4210992,11.4701509 C15.7182265,11.7672782 15.8782181,11.9729816 16.1067775,12.3615326 C16.1982012,12.4986683 16.2667691,12.6586599 16.3353369,12.8186514 C16.3581928,12.8643633 16.3810488,12.8872193 16.3810488,12.9329311 C16.4267606,13.0472109 16.3581928,12.8643633 16.4039047,12.978643 C16.4267606,13.0472109 16.4724725,13.1386346 16.4953285,13.2072024 C16.5867522,13.4814737 16.678176,13.755745 16.7238879,14.0528723 C16.7238879,14.1214401 16.7467438,14.167152 16.7467438,14.2357198 C16.7238879,14.0528723 16.7467438,14.2357198 16.7467438,14.2814317 C16.7695998,14.4642792 16.7695998,14.6471267 16.7695998,14.8071183 C16.8153116,15.4470846 17.8666849,15.4470846 17.8666849,14.7614064 L17.8666849,14.7614064 L17.8666849,14.7614064 Z" id="Shape" fill="#FFFFFF"></path>
                <path d="M11.1927502,14.7156945 C11.1698942,15.6985 11.5127333,16.6813055 11.9927081,17.5269753 C12.6783863,18.7611961 13.7754715,19.7211456 15.123972,20.1325525 C16.1753453,20.4525357 17.2267186,20.4068238 18.3238037,20.2925441 C18.598075,20.2696882 18.8494904,20.0639847 18.8494904,19.7668575 C18.8494904,19.4925862 18.620931,19.2183149 18.3238037,19.2411708 C17.432422,19.3325946 16.5410404,19.4011624 15.7182265,19.195459 C15.3525314,19.1040352 15.1011161,19.0126114 14.8268448,18.8754758 C14.6897091,18.806908 14.5525735,18.7154842 14.4154378,18.6469164 C14.34687,18.6012045 14.3011581,18.5554926 14.2325903,18.5326367 C14.1868784,18.5097807 14.1640225,18.4869248 14.1411666,18.4640689 C14.1183106,18.4412129 14.1183106,18.4412129 14.1411666,18.4640689 C14.1183106,18.4412129 14.0954547,18.4412129 14.0954547,18.418357 C13.8668953,18.2355094 13.6383359,18.00695 13.4554883,17.7783906 C13.4097764,17.7326787 13.3640646,17.6641109 13.3183527,17.618399 C13.3869205,17.6869669 13.2497849,17.5269753 13.2497849,17.5041193 C13.1583611,17.3898396 13.0897933,17.252704 12.9983695,17.1384243 C12.8612339,16.9098649 12.7469542,16.6813055 12.6326745,16.4298901 C12.6326745,16.4070342 12.6098185,16.3841782 12.6098185,16.3613223 C12.6555304,16.475602 12.6326745,16.4070342 12.6098185,16.3841782 C12.5869626,16.3156104 12.5641066,16.2698985 12.5412507,16.2013307 C12.4955388,16.087051 12.4726829,15.9727713 12.426971,15.8584916 C12.3584032,15.6527881 12.3126913,15.4470846 12.2669794,15.2413812 C12.2669794,15.2185252 12.2441235,15.0585337 12.2441235,15.1728134 C12.2669794,15.2870931 12.2441235,15.1271015 12.2441235,15.1042455 L12.2441235,14.6928386 C12.2441235,14.0528723 11.2156061,14.0528723 11.1927502,14.7156945 L11.1927502,14.7156945 L11.1927502,14.7156945 Z" id="Shape" fill="#FFFFFF"></path>
                <path d="M2.96461145,9.11598901 C2.98746739,9.07027713 3.01032333,9.04742119 3.05603521,9.00170931 C3.10174709,8.95599743 3.12460303,8.91028555 3.14745897,8.86457366 C3.17031491,8.81886178 3.26173868,8.72743802 3.14745897,8.86457366 C3.17031491,8.81886178 3.2160268,8.79600584 3.23888274,8.75029396 C3.53600997,8.3845989 3.87884908,8.01890385 4.2216882,7.67606474 C4.74737484,7.17323404 5.20449366,6.80753898 5.79874812,6.41898799 C6.50728229,5.96186917 7.26152834,5.57331817 8.03863033,5.29904688 C8.95286797,4.97906371 9.91281748,4.77336024 10.8956229,4.70479242 C11.3298858,4.68193648 11.7641487,4.68193648 12.1755556,4.70479242 C12.3812591,4.70479242 12.6098185,4.72764836 12.815522,4.72764836 C12.9298017,4.72764836 13.0669373,4.7505043 13.181217,4.77336024 C13.2497849,4.77336024 13.3183527,4.79621618 13.3869205,4.79621618 C13.5240562,4.81907212 13.2726408,4.77336024 13.4097764,4.79621618 C13.4554883,4.79621618 13.5012002,4.79621618 13.5240562,4.81907212 C14.2097344,4.93335183 14.8954126,5.09334341 15.5582349,5.32190282 C17.5238458,6.00758105 19.2837533,7.40179345 20.54083,9.11598901 C20.7008216,9.34454842 20.9979488,9.45882813 21.2493642,9.29883654 C21.4779236,9.1617009 21.5922033,8.81886178 21.4322117,8.59030237 C20.1979909,6.8761068 18.5752191,5.48189441 16.6324641,4.63622459 C15.3296755,4.06482607 13.9354631,3.7448429 12.5183947,3.67627508 C11.1698942,3.60770725 9.77568184,3.69913102 8.47289321,4.06482607 C6.78155358,4.54480083 5.2273496,5.43618253 3.90170502,6.57897957 C3.23888274,7.17323404 2.57606045,7.83605632 2.09608569,8.59030237 C1.7075347,9.1617009 2.59891639,9.68738754 2.96461145,9.11598901 L2.96461145,9.11598901 L2.96461145,9.11598901 Z" id="Shape" fill="#FFFFFF"></path>
                <path d="M4.61023919,18.6697723 C4.35882384,18.0526619 4.2216882,17.4126956 4.10740849,16.7498733 C4.08455255,16.6127376 4.06169661,16.452746 4.03884067,16.3156104 C4.03884067,16.2927545 4.01598473,16.1556188 4.03884067,16.3156104 C4.03884067,16.2698985 4.03884067,16.2470426 4.01598473,16.2013307 C4.01598473,16.1099069 3.99312879,16.0184832 3.99312879,15.9270594 C3.94741691,15.5842203 3.94741691,15.2413812 3.94741691,14.8756861 C3.94741691,14.5099911 3.97027285,14.1214401 4.01598473,13.755745 C4.01598473,13.7100331 4.01598473,13.6643213 4.03884067,13.6186094 C4.01598473,13.7328891 4.03884067,13.5957534 4.03884067,13.5728975 C4.06169661,13.4814737 4.06169661,13.39005 4.08455255,13.2986262 C4.13026443,13.0929227 4.15312037,12.8872193 4.2216882,12.7043717 C4.45024761,11.8815579 4.7245189,11.2187356 5.2273496,10.5102014 C5.45590901,10.1902182 5.7301803,9.87023506 6.05016347,9.57310783 C6.41585852,9.23026872 6.78155358,8.93314149 7.21581646,8.6588702 C8.29004568,7.97319197 9.52426649,7.49321721 10.8041992,7.3789375 C12.1984116,7.24180186 13.592624,7.44750533 14.8954126,7.95033603 C15.9239299,8.33888702 16.8610235,8.93314149 17.6152696,9.73309942 C18.0266765,10.1445064 18.3466597,10.6244811 18.6437869,11.1273118 C18.8037785,11.4015831 18.9637701,11.6987103 19.1009057,11.9958376 C19.1694736,12.1558292 19.2608973,12.3158207 19.3294651,12.4758123 C19.2837533,12.3843886 19.3066092,12.4529564 19.3294651,12.4758123 C19.398033,12.6358039 19.4437448,12.7957955 19.4894567,12.9557871 C19.5351686,13.0929227 19.5580246,13.2300584 19.5808805,13.367194 C19.6037364,13.4357618 19.6037364,13.5271856 19.6265924,13.6186094 C19.6265924,13.6643213 19.6494483,13.7100331 19.6494483,13.755745 C19.6265924,13.6186094 19.6494483,13.8243128 19.6494483,13.8471688 C19.6723043,14.0300163 19.6723043,14.2128638 19.6723043,14.4185673 L19.6723043,14.7156945 L19.6723043,14.8756861 L19.6723043,14.9671099 C19.6723043,14.921398 19.6723043,14.921398 19.6723043,14.9671099 C19.6037364,15.4242287 19.5123127,15.6756441 19.2380414,16.0413391 C19.2837533,15.9727713 19.1923295,16.1099069 19.1923295,16.1099069 C19.1466176,16.1556188 19.1237617,16.1784748 19.0780498,16.2241866 C19.009482,16.2927545 18.9409141,16.3613223 18.8952023,16.3841782 C18.6666429,16.5670258 18.3923716,16.6813055 18.1181003,16.7498733 C17.5238458,16.9327208 16.8381676,16.8870089 16.2667691,16.5898817 C15.8325062,16.3613223 15.512523,16.0413391 15.2839636,15.6070762 C15.2382517,15.5156525 15.2153958,15.4699406 15.1696839,15.3328049 C15.146828,15.2642371 15.123972,15.1728134 15.123972,15.1042455 C15.1011161,15.0128218 15.0325483,14.8299742 15.123972,15.0356777 C15.0782601,14.921398 15.123972,14.7614064 15.1011161,14.6471267 C15.1011161,14.4642792 15.0554042,14.2814317 15.0325483,14.0757282 C14.5297176,11.5615747 10.9413348,10.7844727 9.31856302,12.6586599 C8.08434221,14.0757282 8.42718133,16.1556188 9.09000361,17.7555347 C9.84424966,19.6068659 11.2841739,21.0696461 13.0669373,21.9610278 C13.6383359,22.258155 14.2554463,22.4867145 14.8725567,22.6924179 C15.512523,22.8981214 15.7867943,21.89246 15.146828,21.6867565 C14.0497428,21.3210615 12.9298017,20.7953748 12.0612759,20.0639847 C11.3298858,19.4697303 10.8270551,18.8297639 10.3699363,18.029806 C10.2785125,17.8469584 10.1870888,17.6641109 10.095665,17.4812634 C10.0499531,17.3898396 10.118521,17.5269753 10.0728091,17.4355515 C10.0499531,17.3898396 10.0270972,17.3441277 10.0270972,17.3212718 C9.98138531,17.229848 9.95852937,17.1384243 9.93567343,17.0470005 C9.82139372,16.7270173 9.72996996,16.3841782 9.66140213,16.0413391 C9.63854619,15.8813475 9.61569025,15.7442119 9.59283431,15.6070762 C9.59283431,15.5613644 9.59283431,15.5385084 9.56997837,15.5156525 C9.54712243,15.4013728 9.56997837,15.5613644 9.56997837,15.5156525 C9.56997837,15.4470846 9.54712243,15.3785168 9.54712243,15.309949 C9.47855461,14.7385505 9.56997837,14.167152 9.8671056,13.6643213 C10.5070719,12.612948 11.7641487,12.4301004 12.815522,12.8643633 C13.204073,13.0243549 13.569768,13.2986262 13.7983274,13.6643213 C14.0725987,14.0985841 14.0497428,14.5785589 14.1183106,15.1042455 C14.1411666,15.2413812 14.1183106,15.1499574 14.1183106,15.1271015 C14.1183106,15.1956693 14.1411666,15.2413812 14.1411666,15.309949 C14.1640225,15.3785168 14.1640225,15.4699406 14.1868784,15.5385084 C14.2325903,15.6985 14.3011581,15.8813475 14.369726,16.0184832 C14.4382938,16.1784748 14.5525735,16.3613223 14.6668532,16.4984579 C15.1011161,17.0698565 15.6953705,17.4812634 16.4039047,17.6869669 C17.6381255,18.0526619 19.1466176,17.7326787 19.9922874,16.7270173 C21.0208048,15.4927965 20.9065251,13.6871772 20.4265503,12.224397 C20.1065671,11.2644475 19.5580246,10.3502098 18.9409141,9.57310783 C18.2552359,8.68172614 17.3867102,7.92748009 16.3810488,7.40179345 C13.7754715,6.03043699 10.6442076,5.84758946 7.97006251,7.08181027 C6.11873129,7.92748009 4.51881543,9.36740436 3.7188575,11.2644475 C3.10174709,12.7272277 2.91889956,14.3499995 3.07889115,15.9499153 C3.17031491,16.9098649 3.35316244,17.8698144 3.67314561,18.784052 C3.69600155,18.8297639 3.7188575,18.8754758 3.7188575,18.9211877 C3.8331372,19.195459 4.06169661,19.3783065 4.35882384,19.2868827 C4.49595949,19.2640268 4.7245189,18.9440436 4.61023919,18.6697723 L4.61023919,18.6697723 L4.61023919,18.6697723 Z" id="Shape" fill="#FFFFFF"></path>
                <path d="M5.77589218,3.56199537 C5.98159565,3.42485973 6.18729912,3.33343596 6.41585852,3.21915626 C6.53013823,3.17344438 6.62156199,3.12773249 6.7358417,3.05916467 C6.75869764,3.03630873 6.94154517,2.96774091 6.87297734,2.99059685 C6.80440952,3.03630873 6.91868922,2.96774091 6.91868922,2.96774091 C6.96440111,2.94488497 7.01011299,2.92202903 7.07868081,2.89917308 C7.37580804,2.78489338 7.69579122,2.67061368 8.01577439,2.57918991 C9.82139372,2.03064733 11.7412928,1.87065574 13.6383359,2.14492703 C15.1011161,2.37348644 16.5410404,2.8534612 17.843829,3.51628349 C18.0952443,3.65341913 18.4152275,3.58485131 18.5523632,3.33343596 C18.6894988,3.10487655 18.620931,2.7391815 18.3695156,2.62490179 C16.0839215,1.48210475 13.5240562,0.864994343 10.9413348,1.02498593 C9.27285114,1.13926563 7.65007933,1.52781663 6.14158723,2.21349486 C5.84446,2.3506305 5.54733277,2.48776615 5.27306148,2.67061368 C5.04450207,2.83060526 4.93022236,3.12773249 5.09021395,3.37914784 C5.20449366,3.60770725 5.54733277,3.72198696 5.77589218,3.56199537 L5.77589218,3.56199537 L5.77589218,3.56199537 Z" id="Shape" fill="#FFFFFF"></path>
            </g>
        </g>
    </g>
</svg>