<svg width="24" height="24" viewBox="0 0 24 24" xmlns="http://www.w3.org/2000/svg"><g fill="none" fill-rule="evenodd"><path d="M0 0h24v24H0z"/><path d="M17.867 14.761c.045-1.325-.48-2.628-1.303-3.657-1.303-1.645-3.588-2.422-5.646-2.148-1.988.251-3.954 1.6-4.776 3.451-.526 1.212-.618 2.537-.435 3.817.343 2.331 1.555 4.457 3.246 6.08.48.457 1.211-.274.731-.732-1.417-1.37-2.468-3.085-2.88-5.028-.045-.16-.068-.32-.091-.457 0-.023 0-.069-.023-.091-.023-.138.023.114 0-.023 0-.069-.023-.16-.023-.229a6.023 6.023 0 0 1-.045-.64c0-.457.045-.891.137-1.325a4.472 4.472 0 0 1 1.188-2.217c.297-.298.526-.458.823-.686.402-.28.84-.502 1.303-.663 1.097-.366 2.24-.32 3.314.023.8.251 1.486.663 2.034 1.234.297.297.457.503.686.892.091.137.16.297.228.457.023.045.046.068.046.114.046.114-.023-.069.023.046.023.068.068.16.091.228.092.274.183.549.229.846 0 .068.023.114.023.183-.023-.183 0 0 0 .045.023.183.023.366.023.526.045.64 1.097.64 1.097-.046z" fill="#FFF" fill-rule="nonzero"/><path d="M11.193 14.716c-.023.982.32 1.965.8 2.811.685 1.234 1.782 2.194 3.131 2.606 1.051.32 2.103.274 3.2.16.274-.023.525-.229.525-.526 0-.274-.228-.549-.525-.526-.892.092-1.783.16-2.606-.046a4.046 4.046 0 0 1-.891-.32c-.137-.068-.274-.16-.412-.228-.068-.046-.114-.092-.182-.114a.318.318 0 0 1-.092-.069c-.023-.023-.023-.023 0 0-.023-.023-.046-.023-.046-.046a4.236 4.236 0 0 1-.64-.64c-.045-.045-.09-.114-.137-.16.069.069-.068-.091-.068-.114-.092-.114-.16-.251-.252-.366a6.887 6.887 0 0 1-.365-.708c0-.023-.023-.046-.023-.069.046.115.023.046 0 .023-.023-.068-.046-.114-.069-.183-.045-.114-.068-.228-.114-.343-.069-.205-.114-.41-.16-.617 0-.022-.023-.182-.023-.068.023.114 0-.046 0-.069v-.411c0-.64-1.028-.64-1.051.023zm-8.228-5.6a.401.401 0 0 1 .091-.114.478.478 0 0 0 .091-.137c.023-.046.115-.138 0 0 .023-.046.069-.069.092-.115.297-.365.64-.731.983-1.074.525-.503.982-.868 1.577-1.257a10.8 10.8 0 0 1 2.24-1.12c.914-.32 1.874-.526 2.857-.594a11.88 11.88 0 0 1 1.28 0c.205 0 .434.023.64.023a2 2 0 0 1 .365.045c.069 0 .137.023.206.023.137.023-.114-.023.023 0 .045 0 .091 0 .114.023.686.114 1.371.274 2.034.503 1.966.686 3.726 2.08 4.983 3.794.16.229.457.343.708.183.229-.137.343-.48.183-.709-1.234-1.714-2.857-3.108-4.8-3.954a11.634 11.634 0 0 0-4.114-.96c-1.348-.068-2.742.023-4.045.389-1.691.48-3.246 1.371-4.571 2.514-.663.594-1.326 1.257-1.806 2.011-.388.572.503 1.097.869.526z" fill="#FFF" fill-rule="nonzero"/><path d="M4.61 18.67c-.251-.617-.388-1.257-.503-1.92-.022-.137-.045-.297-.068-.434 0-.023-.023-.16 0 0 0-.046 0-.069-.023-.115 0-.091-.023-.183-.023-.274-.046-.343-.046-.686-.046-1.051 0-.366.023-.755.069-1.12 0-.046 0-.092.023-.137-.023.114 0-.023 0-.046.023-.092.023-.183.046-.274.045-.206.068-.412.137-.595.228-.822.503-1.485 1.005-2.194a6.2 6.2 0 0 1 .823-.937c.366-.343.732-.64 1.166-.914 1.074-.686 2.308-1.166 3.588-1.28a8.92 8.92 0 0 1 4.091.571c1.03.38 1.96.99 2.72 1.783.412.412.732.891 1.029 1.394.16.275.32.572.457.869.068.16.16.32.228.48-.045-.092-.022-.023 0 0 .069.16.115.32.16.48.046.137.069.274.092.411.023.069.023.16.046.252 0 .045.022.091.022.137-.022-.137 0 .068 0 .091.023.183.023.366.023.572v.548c0-.046 0-.046 0 0-.068.457-.16.709-.434 1.074l-.046.069-.114.114a.999.999 0 0 1-.183.16c-.23.176-.495.301-.777.366a2.487 2.487 0 0 1-1.851-.16 2.268 2.268 0 0 1-.983-.983 1.658 1.658 0 0 1-.114-.274.812.812 0 0 1-.046-.229c-.023-.091-.091-.274 0-.068-.046-.115 0-.275-.023-.389 0-.183-.046-.366-.068-.571-.503-2.514-4.092-3.292-5.714-1.417-1.235 1.417-.892 3.497-.229 5.097.754 1.85 2.194 3.314 3.977 4.205.571.297 1.188.526 1.806.731.64.206.914-.8.274-1.005-1.097-.366-2.217-.892-3.086-1.623-.731-.594-1.234-1.234-1.691-2.034l-.274-.549-.023-.045a.386.386 0 0 1-.046-.115 1.289 1.289 0 0 1-.091-.274 7.236 7.236 0 0 1-.275-1.006c-.022-.16-.045-.297-.068-.434 0-.046 0-.068-.023-.091-.023-.115 0 .045 0 0 0-.069-.023-.137-.023-.206-.068-.571.023-1.143.32-1.646.64-1.051 1.897-1.234 2.949-.8.388.16.754.435.982.8.275.435.252.915.32 1.44.023.137 0 .046 0 .023 0 .069.023.114.023.183.023.069.023.16.046.229.046.16.114.342.183.48.068.16.183.342.297.48.435.574 1.044.99 1.737 1.188 1.234.366 2.743.046 3.588-.96 1.029-1.234.915-3.04.435-4.503-.32-.96-.869-1.874-1.486-2.65a7.821 7.821 0 0 0-2.56-2.172c-2.606-1.372-5.737-1.554-8.41-.32-1.852.845-3.452 2.285-4.252 4.182-.617 1.463-.8 3.086-.64 4.686.091.96.274 1.92.594 2.834.023.046.046.091.046.137.114.274.343.457.64.366.137-.023.366-.343.251-.617zM5.776 3.562c.206-.137.411-.229.64-.343a2.09 2.09 0 0 0 .32-.16c.023-.023.206-.091.137-.068-.069.045.046-.023.046-.023.045-.023.091-.046.16-.069.297-.114.617-.228.937-.32a12.967 12.967 0 0 1 5.622-.434 14.19 14.19 0 0 1 4.206 1.371c.251.137.571.069.708-.183.137-.228.069-.594-.182-.708-2.286-1.143-4.846-1.76-7.429-1.6a13.852 13.852 0 0 0-4.8 1.188c-.3.13-.591.283-.868.458-.228.16-.343.457-.183.708.114.229.457.343.686.183z" fill="#FFF" fill-rule="nonzero"/></g></svg>