<svg xmlns="http://www.w3.org/2000/svg" width="36" height="36" viewBox="0 0 36 36"><g fill="none"><polygon points="0 0 36 0 36 36 0 36"/><g fill="#fff" fill-rule="nonzero" transform="translate(4 3)"><path d="M21.38,26.91 C19.59,26.91 18.02,26.46 16.73,25.58 C14.5,24.06 13.16,21.6 13.16,18.99 C13.16,18.57 13.49,18.24 13.91,18.24 C14.33,18.24 14.66,18.57 14.66,18.99 C14.66,21.1 15.74,23.1 17.57,24.33 C18.64,25.05 19.88,25.4 21.38,25.4 C21.74,25.4 22.34,25.35 22.94,25.25 C23.34,25.17 23.74,25.44 23.81,25.86 C23.89,26.26 23.61,26.66 23.19,26.73 C22.34,26.9 21.59,26.91 21.38,26.91 Z"/><path d="M10.63,29.69 C10.43,29.69 10.23,29.61 10.1,29.46 C8.8,28.16 8.09,27.32 7.09,25.5 C6.05,23.66 5.51,21.41 5.51,18.99 C5.51,14.53 9.32,10.9 14,10.9 C18.68,10.9 22.49,14.53 22.49,18.99 C22.49,19.41 22.16,19.74 21.74,19.74 C21.32,19.74 20.99,19.41 20.99,18.99 C20.99,15.36 17.85,12.4 14,12.4 C10.15,12.4 7.01,15.36 7.01,18.99 C7.01,21.15 7.49,23.15 8.4,24.76 C9.36,26.49 10.02,27.23 11.18,28.4 C11.47,28.69 11.47,29.16 11.18,29.46 C11.02,29.61 10.82,29.69 10.63,29.69 Z"/><path d="M18.36,30 C18.31,30 18.23,29.99 18.17,29.97 C15.78,29.31 14.23,28.42 12.59,26.82 C10.49,24.74 9.34,21.96 9.34,18.99 C9.34,16.56 11.4,14.58 13.95,14.58 C16.5,14.58 18.58,16.56 18.58,18.99 C18.58,20.59 19.97,21.9 21.69,21.9 C23.42,21.9 24.82,20.59 24.82,18.99 C24.82,13.33 19.94,8.74 13.94,8.74 C9.68,8.74 5.78,11.11 4.02,14.79 C3.44,16 3.14,17.43 3.14,18.99 C3.14,20.16 3.24,22 4.15,24.41 C4.3,24.8 4.1,25.23 3.71,25.36 C3.32,25.51 2.89,25.31 2.75,24.93 C2.01,22.97 1.66,21.01 1.66,18.99 C1.66,17.19 2,15.56 2.68,14.13 C4.67,9.94 9.1,7.23 13.94,7.23 C20.76,7.23 26.32,12.49 26.32,18.98 C26.32,21.41 24.25,23.39 21.69,23.39 C19.15,23.39 17.08,21.41 17.08,18.98 C17.08,17.37 15.68,16.07 13.95,16.07 C12.23,16.07 10.84,17.37 10.84,18.98 C10.84,21.54 11.82,23.94 13.64,25.74 C15.07,27.15 16.43,27.93 18.55,28.51 C18.95,28.62 19.17,29.04 19.07,29.43 C19,29.78 18.68,30 18.36,30 Z"/><path d="M1.25,11.58 C1.1,11.58 0.95,11.53 0.82,11.44 C0.47,11.2 0.39,10.74 0.64,10.4 C2.12,8.3 4.01,6.65 6.26,5.49 C10.97,3.06 17,3.05 21.73,5.48 C23.98,6.63 25.86,8.27 27.35,10.35 C27.59,10.68 27.51,11.16 27.17,11.4 C26.83,11.64 26.36,11.56 26.12,11.22 C24.77,9.33 23.06,7.85 21.03,6.81 C16.73,4.61 11.23,4.61 6.94,6.82 C4.9,7.88 3.18,9.38 1.84,11.27 C1.72,11.48 1.49,11.58 1.25,11.58 Z"/><path d="M22.72,3.7 C22.59,3.7 22.48,3.68 22.37,3.61 C19.49,2.13 17,1.5 14.01,1.5 C11.05,1.5 8.23,2.2 5.66,3.61 C5.3,3.81 4.85,3.68 4.64,3.32 C4.44,2.95 4.58,2.49 4.94,2.3 C7.73,0.78 10.79,0 14.01,0 C17.21,0 20,0.7 23.06,2.28 C23.43,2.47 23.57,2.93 23.38,3.28 C23.24,3.55 22.99,3.7 22.72,3.7 Z"/></g></g></svg>