<svg width="24px" height="24px" viewBox="0 0 24 24" version="1.1" xmlns="http://www.w3.org/2000/svg"><g stroke="none" stroke-width="1" fill="none" fill-rule="evenodd"><rect x="0" y="0" width="24" height="24"/><g transform="translate(2.000000, 1.000000)" fill="#0B1F35"><path d="M0,4.34574869 L10,0.989196777 L20,4.34574869 C18.6691081,15.4353993 15.3357747,20.9802246 10,20.9802246 C4.66422526,20.9802246 1.33089193,15.4353993 0,4.34574869 Z M0.997558594,5.00360107 C2.68440755,15.0031331 5.68522135,20.0028992 10,20.0028992 C14.3147786,20.0028992 17.3130086,15.0031331 18.9946899,5.00360107 L10,1.98919678 L0.997558594,5.00360107 Z"/><path d="M10,4 L17,6.33193875 C17.1321271,7.88619668 16.5818256,10.2194088 15.3490954,13.3315752 C14.1163651,16.4437415 12.3333333,17.999854 10,17.9999127 L10,4 Z" fill-rule="nonzero" opacity="0.3"/></g></g></svg>