<svg width="48px" height="48px" viewBox="0 0 48 48" version="1.1" xmlns="http://www.w3.org/2000/svg"><g stroke="none" stroke-width="1" fill="none" fill-rule="evenodd"><rect x="0" y="0" width="48" height="48"/><g transform="translate(2.000000, 2.000000)" fill="#0B1F35"><path d="M0,7.3877284 L22,0 L44,7.3877284 C41.0720378,31.7959095 33.7387044,44 22,44 C10.2612956,44 2.92796224,31.7959095 0,7.3877284 Z M1,8.02825981 L22.0090448,1 L43,8.02825981 C40.207298,31.3427533 33.210313,43 22.0090448,43 C10.8077767,43 3.80476172,31.3427533 1,8.02825981 Z"/><path d="M22,4 L40,9.99648903 C39.7910887,13.9932023 38.3760275,19.9929658 35.7548166,27.9957795 C33.1336057,35.9985932 28.5486668,40.0000755 22,40.0002264 L22,4 Z" fill-rule="nonzero" opacity="0.3"/></g></g></svg>