<svg xmlns="http://www.w3.org/2000/svg" width="48" height="48" viewBox="0 0 48 48"><g fill="none" fill-rule="evenodd"><path d="M0 0h48v48H0z" opacity=".1"/><g fill="#0B1F35"><path d="M6 7.415v32.27c0 1.854 1.676 4.29 3.666 4.29h28.668c1.99 0 3.666-2.436 3.666-4.29V7.415C42 5.56 40.324 4 38.334 4H9.666C7.676 4 6 5.561 6 7.415zm34.953 32.27c0 1.366-1.152 3.314-2.619 3.314H9.666c-1.467 0-2.619-1.948-2.619-3.314V7.415c0-1.366 1.152-2.44 2.619-2.44h28.668c1.467 0 2.619 1.074 2.619 2.44v32.27z"/><path fill-rule="nonzero" d="M19 4h10V2H19v2zm-1-3h12v4H18V1zm-5 45h4v-2h-4v2zm-1-3h6v4h-6v-4zm19 3h4v-2h-4v2zm-1-3h6v4h-6v-4z"/><path d="M14 11.867h2v25.266h-2zm9 0h2v25.266h-2zm9 0h2v25.266h-2z" opacity=".3"/></g></g></svg>