<svg xmlns="http://www.w3.org/2000/svg" width="36" height="36" viewBox="0 0 36 36"><g fill="none" fill-rule="evenodd"><path d="M0 0h36v36H0z" opacity=".1"/><g fill="#0B1F35"><path fill-rule="nonzero" d="M15 3h6V2h-6v1zm-1-2h8v3h-8V1zm-4 33h3v-1h-3v1zm-1-2h5v3H9v-3zm14 2h3v-1h-3v1zm-1-2h5v3h-5v-3z"/><path d="M11 10h2v17h-2zm6 0h2v17h-2zm6 0h2v17h-2z" opacity=".3"/><path d="M7.5 33A2.503 2.503 0 0 1 5 30.5v-25C5 4.121 6.122 3 7.5 3h21C29.878 3 31 4.121 31 5.5v25c0 1.379-1.122 2.5-2.5 2.5h-21zM6 5.5v25c0 .827.673 1.5 1.5 1.5h21c.827 0 1.5-.673 1.5-1.5v-25c0-.827-.673-1.5-1.5-1.5h-21C6.673 4 6 4.673 6 5.5z"/></g></g></svg>