<svg width="24" height="24" viewBox="0 0 24 24" xmlns="http://www.w3.org/2000/svg"><title>icon_category-vacation_m_white</title><g fill="none" fill-rule="evenodd"><path opacity=".1" d="M0 0h24v24H0z"/><g fill-rule="nonzero" fill="#0B1F35"><path d="M10 3h4V2h-4v1zM9 1h6v3H9V1z"/><path opacity=".3" d="M6 21h3v2H6zm9 0h3v2h-3z"/><path d="M5.5 22A2.503 2.503 0 0 1 3 19.5v-14C3 4.122 4.121 3 5.5 3h13C19.879 3 21 4.122 21 5.5v14c0 1.378-1.121 2.5-2.5 2.5h-13zM4 5.5v14c0 .827.673 1.5 1.5 1.5h13c.827 0 1.5-.673 1.5-1.5v-14c0-.827-.673-1.5-1.5-1.5h-13C4.673 4 4 4.673 4 5.5z"/><path opacity=".3" d="M9 7h1v11H9zm5 0h1v11h-1z"/></g></g></svg>