<svg xmlns="http://www.w3.org/2000/svg" width="35" height="32" viewBox="0 0 35 32"><path fill="#FFF" d="M34.516 0H23.051l-8.854 10.67L22.938 21h11.578c-13.281-11.805 0-21 0-21zM22.824 13.622a3.052 3.052 0 0 1-3.065-3.065 3.052 3.052 0 0 1 3.065-3.065 3.052 3.052 0 0 1 3.065 3.065 3.052 3.052 0 0 1-3.065 3.065zM.484 32h11.578l8.741-10.33L11.949 11H.484s13.281 9.195 0 21zm11.692-13.508a3.052 3.052 0 0 1 3.065 3.065 3.052 3.052 0 0 1-3.065 3.065 3.052 3.052 0 0 1-3.065-3.065 3.052 3.052 0 0 1 3.065-3.065z"/></svg>