<svg xmlns="http://www.w3.org/2000/svg" width="36" height="36" version="1" viewBox="0 0 36 36"><path fill="#0B1F35" d="M35.516 2H24.051l-8.854 10.67L23.938 23h11.578c-13.281-11.805 0-21 0-21zM23.824 15.622c-1.703 0-3.065-1.362-3.065-3.065s1.362-3.065 3.065-3.065 3.065 1.362 3.065 3.065-1.362 3.065-3.065 3.065zM1.484 34h11.578l8.741-10.33L12.949 13H1.484s13.281 9.195 0 21zm11.692-13.508c1.703 0 3.065 1.362 3.065 3.065s-1.362 3.065-3.065 3.065-3.065-1.362-3.065-3.065 1.362-3.065 3.065-3.065z"/></svg>