<svg xmlns="http://www.w3.org/2000/svg" width="18" height="18" version="1" viewBox="0 0 18 18"><path fill="#0B1F35" d="M9 2C5.155 2 2 5.155 2 9s3.106 7 7 7 7-3.155 7-7-3.155-7-7-7zM7.718 13.289c-.099.197-.296.247-.493.247a.902.902 0 0 1-.345-.099l-.345-.148c-1.43-.739-2.317-2.268-2.317-3.993v-.69c0-1.676.887-3.204 2.317-3.993l.296-.148a.902.902 0 0 1 .345-.099.61.61 0 0 1 .493.246c.099.148.099.296.099.493 0 .345-.247.493-.247.493-.838.395-1.331 1.233-1.331 2.17v2.465c0 .937.493 1.824 1.331 2.169.049.049.247.148.296.394a.573.573 0 0 1-.099.493zm3.698.049l-.345.148a.92.92 0 0 1-.345.099c-.246 0-.394-.099-.493-.246-.099-.148-.099-.296-.049-.493.049-.246.246-.345.296-.394.838-.394 1.331-1.232 1.331-2.169V7.817c0-.937-.493-1.824-1.331-2.169 0 0-.246-.099-.296-.394-.049-.197 0-.345.049-.493a.607.607 0 0 1 .493-.246c.099 0 .247.049.345.099l.296.148c1.43.739 2.317 2.268 2.317 3.993.049-.099.049.592.049.592-.001 1.674-.888 3.202-2.317 3.991z"/></svg>