<svg xmlns="http://www.w3.org/2000/svg" width="36" height="36" version="1" viewBox="0 0 36 36"><path fill="#4AB9E4" d="M18 3C9.761 3 3 9.761 3 18s6.655 15 15 15 15-6.761 15-15S26.239 3 18 3m-3.169 22.289c.106.106.528.317.634.845.106.423 0 .739-.211 1.056-.211.423-.634.528-1.056.528-.211 0-.528-.106-.739-.211l-.739-.317c-3.063-1.585-4.965-4.859-4.965-8.556v-1.479c0-3.592 1.901-6.866 4.965-8.556l.634-.317c.211-.106.528-.211.739-.211.423 0 .845.211 1.056.528s.211.634.211 1.056c0 .739-.528 1.056-.528 1.056-1.796.845-2.852 2.641-2.852 4.648v5.282c-.001 2.007 1.055 3.908 2.851 4.648m13.31-6.55c0 3.592-1.901 6.866-4.965 8.556l-.739.317c-.211.106-.528.211-.739.211-.528 0-.845-.211-1.056-.528-.211-.317-.211-.634-.106-1.056.106-.528.528-.739.634-.845 1.796-.845 2.852-2.641 2.852-4.648v-5.282c0-2.007-1.056-3.908-2.852-4.648 0 0-.528-.211-.634-.845-.106-.423 0-.739.106-1.056.211-.317.634-.528 1.056-.528.211 0 .528.106.739.211l.634.317c3.063 1.585 4.965 4.859 4.965 8.556.105-.21.105 1.268.105 1.268z"/></svg>