<svg xmlns="http://www.w3.org/2000/svg" width="26" height="26" viewBox="0 0 26 26"><path fill="#FFF" d="M13 0C5.859 0 0 5.859 0 13s5.768 13 13 13 13-5.859 13-13S20.141 0 13 0zm-2.38 20.965c-.183.366-.549.458-.915.458-.183 0-.458-.092-.641-.183l-.641-.275c-2.655-1.373-4.303-4.211-4.303-7.416v-1.282c0-3.113 1.648-5.951 4.303-7.415l.549-.275c.183-.092.458-.183.641-.183.366 0 .732.183.916.458.183.275.183.549.183.915 0 .641-.458.916-.458.916-1.556.732-2.472 2.289-2.472 4.028v4.577c0 1.739.916 3.387 2.472 4.028.092.092.458.275.549.732.091.367 0 .642-.183.917zm6.866.091l-.641.275c-.183.092-.458.183-.641.183-.458 0-.732-.183-.915-.458-.183-.275-.183-.549-.092-.916.092-.458.458-.641.549-.732 1.556-.732 2.472-2.289 2.472-4.028v-4.577c0-1.739-.916-3.387-2.472-4.028 0 0-.458-.183-.549-.732-.092-.366 0-.641.092-.915.183-.275.549-.458.915-.458.183 0 .458.092.641.183l.549.275c2.655 1.373 4.303 4.211 4.303 7.415.092-.183.092 1.099.092 1.099 0 3.111-1.648 5.95-4.303 7.414z"/></svg>