<svg xmlns="http://www.w3.org/2000/svg" width="16" height="23" viewBox="0 0 16 23"><g fill="none" fill-rule="evenodd"><path d="M-4 0h24v24H-4z"/><path fill="#FFF" d="M5 22a1 1 0 0 0 1 1h4a1 1 0 0 0 1-1v-2H5v2z" opacity=".3"/><path fill="#FFF" d="M10.706 17.764v-.5c0-1.093.817-1.786 1.851-2.663l.268-.229a7.984 7.984 0 0 0 1.392-1.341c1.021-1.178 1.588-2.541 1.734-4.161.031-.286.049-.576.049-.87 0-4.411-3.589-8-8-8S0 3.589 0 8c0 .294.018.584.048.86.147 1.632.717 2.998 1.73 4.163.4.494.87.948 1.374 1.329l.292.248c1.034.877 1.851 1.57 1.851 2.663v.5h5.411v.001zM4.09 13.838l-.311-.264a7.088 7.088 0 0 1-1.235-1.193c-.894-1.028-1.371-2.176-1.501-3.619A7.104 7.104 0 0 1 1 8c0-3.859 3.14-7 7-7s7 3.141 7 7c0 .257-.016.512-.044.771-.129 1.435-.606 2.582-1.5 3.61l-.011.014a7.097 7.097 0 0 1-1.248 1.198l-.287.245c-1.006.854-1.963 1.666-2.165 2.926h-3.49c-.202-1.26-1.159-2.073-2.165-2.926z"/><path fill="#FFF" d="M8 0C5.451 0 3.529 3.06 3.529 7.117c0 2.642.728 4.156 1.432 5.62.625 1.3 1.215 2.527 1.215 4.526h1c0-2.227-.668-3.616-1.313-4.959-.686-1.426-1.334-2.774-1.334-5.187 0-3.13 1.27-5.633 2.971-6.049v16.196h1V1.068c1.7.416 2.971 2.92 2.971 6.049 0 2.413-.647 3.761-1.333 5.188-.646 1.343-1.313 2.732-1.313 4.959h1c0-1.999.59-3.227 1.215-4.526.704-1.464 1.432-2.979 1.432-5.62C12.471 3.06 10.549 0 8 0z" opacity=".3"/></g></svg>