<svg xmlns="http://www.w3.org/2000/svg" width="36" height="36" viewBox="0 0 36 36"><g fill="none"><rect width="36" height="36"/><g fill="#FFF" transform="translate(0 4)"><path fill-opacity=".3" d="M18.355821,28.021996 C24.9328506,28.021996 29.3142436,26.9306532 31.5,24.7479677 C33.2329179,25.8312631 34.1889735,26.2725 34.3681667,26.0716783 C35.2683005,25.0628997 33.954465,24.5507355 33.735288,23.10571 C33.6745274,22.7051182 33.7531635,22.0247004 33.9711962,21.0644568 C30.0218083,24.1589045 24.8111386,25.7339804 18.3391872,25.7896847 C11.8672359,25.8453889 6.35515443,24.1014199 1.80294298,20.5577776 C1.91404855,21.3752518 2.00921094,21.9266323 2.08843014,22.211919 C2.2142857,22.6651541 2.63932351,22.9375483 2.4926176,23.1644158 C0.295403747,26.5622082 1.00169311,27.0900589 4.6114857,24.7479677 C7.19734627,26.9306532 11.7787914,28.021996 18.355821,28.021996 Z"/><path d="M17.861866,1 C12.7578413,1 8.45063443,1.93619915 4.93497584,3.80233548 L4.6770963,3.93921976 L4.43114402,3.78190911 C2.97097558,2.84798791 2.09141614,2.63934355 1.80162654,2.93690423 C1.53167036,3.21409963 1.78980767,3.96886546 2.83534766,5.21627348 L3.05537617,5.47878408 L2.8900607,5.77877601 C1.91486567,7.54842668 1.29872113,10.0117403 1.0521786,13.1663258 C0.807543841,16.2965008 1.42299444,19.4020328 2.90305631,22.4907918 L3.02665592,22.7487334 L2.86695711,22.9860243 C2.3030956,23.8238466 1.94529101,24.4881481 1.7943585,24.9641267 C1.68349384,25.3137479 1.70011112,25.4558778 1.74089432,25.4860646 C1.99601838,25.6749017 2.93487178,25.3543368 4.42275345,24.3601026 L4.66964227,24.1951263 L4.93264865,24.3329629 C8.60558675,26.25788 12.9132307,27.2222222 17.861866,27.2222222 C22.7408835,27.2222222 27.0766623,26.2847722 30.8748118,24.4123913 C31.1223429,24.2903655 31.4126331,24.2907304 31.6594568,24.4133173 C32.5394028,24.8494416 33.2339448,25.1180972 33.7311185,25.2199028 C34.1119754,25.2978905 34.2922245,25.2687111 34.32548,25.2260493 C34.4859636,25.0201729 34.1780799,24.2496392 33.1989987,23.0179935 L33.0197958,22.7925633 L33.1248632,22.5244342 C34.5288736,18.9414392 35.1420653,15.8186513 34.9724433,13.1591934 C34.8015638,10.4800219 34.1896111,8.01080998 33.1370567,5.74836551 L33.0021141,5.45830894 L33.2089204,5.21423219 C34.2852396,3.94394033 34.581009,3.17156401 34.3546902,2.92963979 C34.1284654,2.68781601 33.2790304,2.84715321 31.8477367,3.61199551 C31.4886434,3.80388463 31.0593476,3.81207609 30.6933001,3.63403158 C27.0844032,1.87948803 22.8087577,1 17.861866,1 Z M4.72316947,2.78488345 C8.34419671,0.926349263 12.7253991,5.50306018e-16 17.861866,0 C22.9531505,0 27.3775399,0.91008422 31.1306189,2.73472504 C31.2085571,2.77263397 31.2999592,2.77088991 31.3764358,2.73002298 C33.1925416,1.75954816 34.4149317,1.53025196 35.0849578,2.24647851 C35.7798372,2.98927223 35.4029201,4.10297548 34.175382,5.61543106 C35.2007685,7.91324956 35.7989741,10.4075602 35.9704155,13.0955421 C36.1460047,15.848558 35.5397965,19.0233564 34.1592327,22.6228409 C35.2869433,24.0931716 35.663536,25.1360863 35.114168,25.8408429 C34.5367066,26.5816393 33.2969568,26.3348933 31.2660679,25.3343527 C27.337412,27.260428 22.8674989,28.2222222 17.861866,28.2222222 C12.8745423,28.2222222 8.49567077,27.2674062 4.73111667,25.354259 C3.02036281,26.4620912 1.86438203,26.8215988 1.14595913,26.2898383 C0.338419374,25.6921155 0.672300697,24.5117692 1.87970211,22.6652285 C0.412960075,19.5051096 -0.196593043,16.3104162 0.055218684,13.0884097 C0.298752004,9.97232797 0.89562945,7.47575162 1.85485544,5.59664016 C0.678875692,4.11815453 0.349399693,2.99477342 1.08522692,2.23921406 C1.80958531,1.49543108 3.01957707,1.74083072 4.72316947,2.78488345 Z M31.3004507,25.3159325 C31.3060814,25.3141745 31.3116071,25.3119722 31.3169753,25.3093258 C31.3151656,25.3102179 31.3133558,25.3111098 31.3115459,25.3120016 L31.3004507,25.3159325 Z"/><path fill-opacity=".3" d="M18.2172212,20 C19.1111133,20 19.3919934,19.3654655 19.6276512,18.7319256 C19.7266376,18.462895 22.0495512,12.1672787 22.1193943,11.9783108 C22.1379857,11.9255987 22.125424,11.8390712 22.0435215,11.8077423 C21.9611166,11.7769107 20.7541864,11.3124474 20.6873581,11.2875832 C20.6205297,11.2622217 20.5456619,11.2990207 20.5215434,11.3651595 C20.4964199,11.4303037 19.9954585,12.8028077 19.9391819,12.9559712 L16.4962653,12.9559712 C16.4419987,12.8028077 15.9350076,11.42732 15.9123965,11.3651595 C15.8892829,11.3020044 15.8174299,11.259238 15.7460793,11.2875832 C15.6747287,11.3154311 14.4632763,11.7798944 14.3909208,11.8077423 C14.3215801,11.8345957 14.2899245,11.9126693 14.314043,11.9783108 C14.3994627,12.2140234 16.6872035,18.408691 16.8037762,18.7319256 C17.0308922,19.3560171 17.3213192,20 18.2172212,20 Z M14.1301394,8.7350241 C14.0577839,8.7350241 14,8.67535001 14,8.60274654 L14,7.13128299 C14,7.05867952 14.0577839,7 14.1301394,7 L22.3007856,7 C22.3746485,7 22.4324324,7.05867952 22.4324324,7.13128299 L22.4324324,8.60274654 C22.4324324,8.67535001 22.3746485,8.7350241 22.3007856,8.7350241 L14.1301394,8.7350241 Z M18.2091817,17.9442277 L17.0454638,14.485617 L19.3919934,14.485617 L18.2242557,17.9442277 L18.2091817,17.9442277 Z" transform="matrix(1 0 0 -1 0 27)"/></g></g></svg>