<svg xmlns="http://www.w3.org/2000/svg" width="24" height="24" viewBox="0 0 24 24"><g fill="none"><rect width="24" height="24"/><g fill="#0B1F35" transform="translate(0 3)"><path fill-opacity=".3" d="M12.2273301,18.392963 C16.4293212,18.392963 19.2285445,17.7155779 20.625,16.3608075 C21.732142,17.0331978 22.3429553,17.3070689 22.4574399,17.182421 C23.0325253,16.5562826 22.1931304,16.2383876 22.0531006,15.3414751 C22.0142814,15.092832 22.0645211,14.6705037 22.2038198,14.0744904 C19.6805997,15.581389 16.3515608,16.3521258 12.216703,16.3867008 C8.08184513,16.4212759 4.56023756,15.5457089 1.65188024,13.7599999 C1.72286435,14.2673977 1.78366254,14.6096338 1.83427481,14.7867084 C1.91468253,15.0680267 2.18623447,15.237099 2.09250569,15.3779132 C0.688730172,17.4868879 1.1399706,17.8145193 3.44622698,16.3608075 C5.09830456,17.7155779 8.02533892,18.392963 12.2273301,18.392963 Z"/><path d="M1.41743373,16.7816241 C1.42142877,16.7845812 1.42656239,16.7869399 1.43281923,16.7886816 C1.43340645,16.7927759 1.42633139,16.78821 1.41743373,16.7816241 Z M1.43281923,16.7886816 C1.55559401,16.8228585 2.11085602,16.6194554 2.9825646,16.0369612 L3.22945342,15.8719848 L3.4924598,16.0098215 C5.88036517,17.2612773 8.68385876,17.8888889 11.9092262,17.8888889 C15.1368189,17.8888889 17.996345,17.2603657 20.493722,16.0058892 L20.7189887,15.8927338 L20.9439181,16.006558 C21.9790216,16.5303659 22.5783808,16.6618678 22.5929689,16.6431535 C22.6269852,16.5995157 22.4481788,16.1520209 21.8537194,15.4042144 L21.6745166,15.1787842 L21.779584,14.9106551 C22.6937246,12.5777939 23.0919413,10.5498045 22.9822389,8.82981021 C22.8712791,7.09010218 22.4743015,5.48830849 21.7917775,4.02123699 L21.6568348,3.73118042 L21.8636412,3.48710367 C22.5175366,2.71536412 22.6842288,2.28006197 22.6221791,2.21373379 C22.5552239,2.14216179 22.1001384,2.21868864 21.2859026,2.6408473 C20.9327855,2.82392874 20.5143117,2.83109114 20.155165,2.6602027 C17.8317464,1.55482243 15.084499,1 11.9092262,1 C8.58165434,1 5.77859774,1.6092624 3.49478699,2.82152522 L3.23690745,2.9584095 L2.99095517,2.80109885 C2.09550377,2.22836968 1.58818708,2.10802675 1.47816595,2.22099824 C1.38797824,2.31360444 1.53083288,2.7312961 2.16603906,3.48914495 L2.38606757,3.75165556 L2.2207521,4.05164749 C1.59321,5.19042514 1.19403134,6.78632054 1.03376764,8.83694259 C0.875411707,10.8631542 1.27389643,12.8738875 2.23374771,14.8770128 L2.35734732,15.1349543 L2.19764851,15.3722452 C1.83543785,15.9104415 1.60727936,16.3340415 1.51398818,16.6282432 C1.47115343,16.7633263 1.46425245,16.8021794 1.43942723,16.7946113 L1.43281923,16.7886816 Z M11.9092262,8.06466005e-13 C15.2262284,8.06466005e-13 18.1194781,0.584308444 20.5848016,1.7572008 C20.6612886,1.79359469 20.7504096,1.79206933 20.8256178,1.75307597 C22.0184457,1.13462783 22.851062,0.99461569 23.3524467,1.53057251 C23.8785017,2.09290075 23.6352648,2.86995631 22.8284436,3.88763481 C23.4848591,5.38998409 23.8686512,7.01704141 23.9802111,8.76615885 C24.0958631,10.5794341 23.7044218,12.6597585 22.8130549,15.0099286 C23.5569483,15.9985955 23.8008567,16.7201767 23.3816569,17.2579471 C22.9353462,17.8304968 22.0897247,17.6790328 20.7173485,17.010584 C18.12972,18.2635732 15.1918695,18.8888889 11.9092262,18.8888889 C8.64460685,18.8888889 5.76989459,18.2703849 3.29075068,17.0299839 C2.15013956,17.7564365 1.36396531,17.9861793 0.822498542,17.5853978 C0.192681368,17.1192213 0.406712092,16.3009333 1.21142097,15.0515585 C0.264155176,12.9768153 -0.128718327,10.8769818 0.0368077205,8.75902648 C0.194282083,6.74409486 0.57537208,5.11489184 1.1883951,3.86953258 C0.420057911,2.87543631 0.210417308,2.08944221 0.761766325,1.52330807 C1.30255577,0.968016661 2.14031219,1.12153219 3.28249626,1.80544023 C5.67113177,0.599936585 8.54828778,8.06794775e-13 11.9092262,8.06466005e-13 Z"/><path fill-opacity=".3" d="M11.9196146,13.5 C12.538463,13.5 12.7329185,13.0607069 12.8960662,12.6221024 C12.9645953,12.4358504 14.5727662,8.0773468 14.6211192,7.94652284 C14.6339901,7.91002984 14.6252935,7.85012623 14.5685918,7.828437 C14.5115423,7.80709204 13.6759752,7.48554051 13.6297094,7.46832683 C13.5834437,7.45076888 13.5316121,7.47624512 13.5149146,7.52203351 C13.4975215,7.56713335 13.150702,8.51732844 13.1117413,8.6233647 L10.7281837,8.6233647 C10.6906145,8.51732844 10.3396206,7.56506771 10.3239668,7.52203351 C10.3079651,7.47831076 10.2582207,7.44870324 10.2088241,7.46832683 C10.1594276,7.48760615 9.32072974,7.80915768 9.27063746,7.828437 C9.22263236,7.84702777 9.20071698,7.90107872 9.21741441,7.94652284 C9.27655113,8.10970852 10.8603716,12.3983245 10.9410759,12.6221024 C11.09831,13.0541657 11.2993748,13.5 11.9196146,13.5 Z M9.09009653,5.70117053 C9.04000425,5.70117053 9,5.6598577 9,5.60959376 L9,4.59088823 C9,4.54062428 9.04000425,4.5 9.09009653,4.5 L14.7466977,4.5 C14.7978336,4.5 14.8378378,4.54062428 14.8378378,4.59088823 L14.8378378,5.60959376 C14.8378378,5.6598577 14.7978336,5.70117053 14.7466977,5.70117053 L9.09009653,5.70117053 Z M11.9140488,12.076773 L11.108398,9.68235024 L12.7329185,9.68235024 L11.9244847,12.076773 L11.9140488,12.076773 Z" transform="matrix(1 0 0 -1 0 18)"/></g></g></svg>