<svg xmlns="http://www.w3.org/2000/svg" width="48" height="48" viewBox="0 0 48 48"><g fill="none"><rect width="48" height="48"/><g fill="#FFF" transform="translate(0 5)"><path fill-opacity=".3" d="M24.474428,37.6847532 C33.2438008,37.6847532 39.0856581,36.2170854 42,33.2817496 C35.4937306,35.0193272 29.649853,35.866297 24.4683671,35.8226589 C19.2868813,35.7790208 13.1803081,34.932051 6.1486476,33.2817496 C9.59646169,36.2170854 15.7050551,37.6847532 24.474428,37.6847532 Z"/><path d="M23.834757,1.4300838 C16.997354,1.4300838 11.2226011,2.70134876 6.50491689,5.23762004 L6.24448089,5.37763288 L5.99631467,5.2168721 C3.98569759,3.91440487 2.74554641,3.61645291 2.2812394,4.0993206 C1.83124107,4.56730762 2.20381524,5.67063493 3.652386,7.42103677 L3.86805452,7.681643 L3.70638355,7.97878104 C2.39104391,10.396268 1.56270195,13.7503751 1.231812,18.0384681 C0.90277573,22.3025387 1.73045176,26.5324703 3.71915337,30.7359015 L3.83994502,30.9912135 L3.68362725,31.2264572 C2.26968645,33.3543065 1.8811335,34.5953443 2.22074071,34.8499353 C2.62264833,35.1512305 3.8377513,34.7544169 5.74800748,33.4929526 C6.05060806,33.2931261 6.43767525,33.2727609 6.75941241,33.4397166 C11.6297655,35.9651041 17.3195017,37.2296022 23.834757,37.2296022 C30.3724613,37.2296022 36.1852428,35.9563347 41.2789504,33.4122698 C41.561036,33.2713815 41.8930494,33.2717767 42.1745699,33.4133069 C44.3887654,34.5252153 45.6860269,34.794612 45.9390876,34.4658129 C46.2271858,34.0914898 45.7916476,32.9875091 44.4345387,31.2584418 L44.2588872,31.0346475 L44.3615418,30.7693186 C46.2443417,25.9028916 47.0677322,21.6558922 46.8394861,18.0314246 C46.6100172,14.3875379 45.7878485,11.0275974 44.3734988,7.94852185 L44.2415947,7.6613632 L44.4443598,7.41898932 C45.93563,5.63640959 46.3593591,4.51569731 45.9680236,4.09201715 C45.5920049,3.68491964 44.3958708,3.91297329 42.4175733,4.98475282 C41.9898675,5.21647041 41.476353,5.22639555 41.0400131,5.01137813 C36.1979357,2.62532639 30.4644348,1.4300838 23.834757,1.4300838 Z M23.834757,0.430083805 C30.6106079,0.430083805 36.494618,1.65670252 41.4820343,4.11437352 C41.6274809,4.18604596 41.7986523,4.18273759 41.9412208,4.1054984 C44.3064461,2.82409359 45.8809267,2.52390478 46.7026144,3.41350669 C47.5563936,4.33785252 47.0512105,5.79539246 45.4117386,7.81741878 C46.799088,10.931777 47.6075204,14.3164337 47.8375092,17.9685754 C48.0715763,21.6854803 47.2551352,25.9836619 45.3955538,30.8660625 C46.8984067,32.8315812 47.4027784,34.2036134 46.7315505,35.075733 C46.0287566,35.9888658 44.4025966,35.6511682 41.7256032,34.3068554 C36.4881109,36.9228557 30.5224896,38.2296022 23.834757,38.2296022 C17.1656894,38.2296022 11.3184383,36.9301024 6.29900108,34.3274222 C4.03400676,35.8231779 2.51398155,36.3195649 1.62091333,35.6500647 C0.646345854,34.9194676 1.09494519,33.3691866 2.69590959,30.9084444 C0.720479773,26.6342648 -0.101253327,22.3162272 0.23477598,17.9615319 C0.562599312,13.7131801 1.37145082,10.3262553 2.67063037,7.79841386 C1.09467591,5.82028749 0.650229039,4.35277352 1.56041465,3.40620323 C2.46289584,2.46764535 4.03821752,2.80553381 6.29121078,4.21893037 C11.1151891,1.6910553 16.9648013,0.430083805 23.834757,0.430083805 Z"/><path fill-opacity=".3" d="M23.8392293,28 C25.0769261,28 25.4658369,27.1214138 25.7921325,26.2442047 C25.9291905,25.8717007 29.1455324,17.1546936 29.2422383,16.8930457 C29.2679802,16.8200597 29.250587,16.7002525 29.1371837,16.656874 C29.0230846,16.6141841 27.3519504,15.971081 27.2594189,15.9366537 C27.1668873,15.9015378 27.0632241,15.9524902 27.0298293,16.044067 C26.995043,16.1342667 26.301404,18.0346569 26.2234827,18.2467294 L21.4563673,18.2467294 C21.3812289,18.0346569 20.6792413,16.1301354 20.6479336,16.044067 C20.6159302,15.9566215 20.5164414,15.8974065 20.4176483,15.9366537 C20.3188551,15.9752123 18.6414595,16.6183154 18.5412749,16.656874 C18.4452647,16.6940555 18.401434,16.8021574 18.4348288,16.8930457 C18.5531023,17.219417 21.7207433,25.7966491 21.8821517,26.2442047 C22.1966199,27.1083314 22.5987496,28 23.8392293,28 Z M18.1801931,12.4023411 C18.0800085,12.4023411 18,12.3197154 18,12.2191875 L18,10.1817765 C18,10.0812486 18.0800085,10 18.1801931,10 L29.4933954,10 C29.5956672,10 29.6756757,10.0812486 29.6756757,10.1817765 L29.6756757,12.2191875 C29.6756757,12.3197154 29.5956672,12.4023411 29.4933954,12.4023411 L18.1801931,12.4023411 Z M23.8280977,25.153546 L22.216796,20.3647005 L25.4658369,20.3647005 L23.8489695,25.153546 L23.8280977,25.153546 Z" transform="matrix(1 0 0 -1 0 38)"/></g></g></svg>