<svg xmlns="http://www.w3.org/2000/svg" width="48" height="48" viewBox="0 0 48 48"><g fill="none"><rect width="48" height="48"/><g fill="#FFF" fill-rule="nonzero" transform="translate(.2 3.4)"><path d="M15.8,18.6 L19.8,18.6 L19.8,40.6 L15.8,40.6 L15.8,18.6 Z M26.8,18.6 L30.8,18.6 L30.8,40.6 L26.8,40.6 L26.8,18.6 Z" opacity=".3"/><path d="M6.8,18.6 L7.8,18.6 L7.8,40.6 L6.8,40.6 L6.8,18.6 Z M38.8,18.6 L39.8,18.6 L39.8,40.6 L38.8,40.6 L38.8,18.6 Z M0,16.2 L0.6,17 L23.3,1.2 L46,17 L46.6,16.2 L23.3,0 L0,16.2 Z"/></g></g></svg>