<svg xmlns="http://www.w3.org/2000/svg" width="36" height="36" viewBox="0 0 36 36"><g fill="none"><rect width="36" height="36"/><g fill="#0B1F35" fill-rule="nonzero" transform="translate(.2 1.6)"><path d="M11.8,14.4 L14.8,14.4 L14.8,30.4 L11.8,30.4 L11.8,14.4 Z M19.8,14.4 L22.8,14.4 L22.8,30.4 L19.8,30.4 L19.8,14.4 Z" opacity=".3"/><path d="M4.8,14.4 L5.8,14.4 L5.8,30.4 L4.8,30.4 L4.8,14.4 Z M28.8,14.4 L29.8,14.4 L29.8,30.4 L28.8,30.4 L28.8,14.4 Z M-3.55271368e-15,12.2 L0.6,13.1 L17.5,1.3 L34.5,13.1 L35.1,12.2 L17.5,-3.55271368e-15 L-3.55271368e-15,12.2 Z"/></g></g></svg>