<svg width="48" height="48" viewBox="0 0 48 48" xmlns="http://www.w3.org/2000/svg"><g fill="none" fill-rule="evenodd"><path d="M0 0h48v48H0z"/><path d="M27.064 13.5a10.53 10.53 0 0 1 5.158 3.502A10.469 10.469 0 0 1 27.07 33.54a10.498 10.498 0 0 1-13.109-6.956c-1.695-5.533 1.426-11.39 6.97-13.081l.565 1.85c-4.523 1.38-7.067 6.154-5.685 10.665a8.564 8.564 0 0 0 10.695 5.672 8.534 8.534 0 0 0 4.203-13.482 8.597 8.597 0 0 0-4.21-2.858l.565-1.85zm0 0a10.53 10.53 0 0 1 5.158 3.502A10.469 10.469 0 0 1 27.07 33.54a10.498 10.498 0 0 1-13.109-6.956c-1.695-5.533 1.426-11.39 6.97-13.081l.565 1.85c-4.523 1.38-7.067 6.154-5.685 10.665a8.564 8.564 0 0 0 10.695 5.672 8.534 8.534 0 0 0 4.203-13.482 8.597 8.597 0 0 0-4.21-2.858l.565-1.85z" fill="#FFF" fill-rule="nonzero" opacity=".3"/><path fill="#FFF" fill-rule="nonzero" opacity=".9" d="M23.5 12v12h1V12z"/><path d="M24 46.979c12.69 0 22.979-10.288 22.979-22.979C46.979 11.31 36.69 1.021 24 1.021 11.31 1.021 1.021 11.31 1.021 24 1.021 36.69 11.31 46.979 24 46.979zM24 48C10.745 48 0 37.255 0 24S10.745 0 24 0s24 10.745 24 24-10.745 24-24 24z" fill="#FFF" fill-rule="nonzero"/></g></svg>