<svg id="arui-feather" data-name="ARUI Feather" xmlns="http://www.w3.org/2000/svg" viewBox="0 0 474.94 474.94"><defs><style>.feather-1{fill:#ee3023;}.feather-2,.feather-3{fill:#fff;}.feather-2{stroke:#fff;stroke-miterlimit:10;}</style></defs><title>feather1</title><path class="feather-1" d="M0,0H474.94a0,0,0,0,1,0,0V474.94a0,0,0,0,1,0,0H1.2a1.2,1.2,0,0,1-1.2-1.2V0A0,0,0,0,1,0,0Z"/><path class="feather-2" d="M239.31,173.07c2.51-8.7,4.75-17.08,7.42-25.32a16.42,16.42,0,0,1,4.36-7c24.32-21.48,48.8-42.78,73.19-64.17,2.18-1.91,4.43-3,7-1.22s2.31,4.27,1.21,6.95Q290,186.12,247.42,289.95a9.26,9.26,0,0,1-4,4.41C206,313.17,168.72,332,131.09,350.29a28.94,28.94,0,0,0-10.85,9.12L84.39,406.24c-2.47,3.22-5.14,4-7.57,2.24s-2.65-4.39-.07-7.77C91.51,381.35,106.34,362,121,342.6a10.64,10.64,0,0,0,2-6q.19-41.65,0-83.29a8.61,8.61,0,0,1,3.2-7.07q43.31-38.66,86.45-77.52c3.6-3.25,6.8-4,11.19-1.85C228.76,169.25,233.94,171,239.31,173.07ZM138.64,335.29l.47.48c1.05-.48,2.12-.93,3.16-1.44q46.19-23.07,92.4-46.1A11.1,11.1,0,0,0,240.5,282q36.82-90.39,73.81-180.71c.46-1.14.86-2.3,1.62-4.33-1.63,1.24-2.48,1.81-3.25,2.49-17.46,15.27-34.88,30.58-52.41,45.78A14.79,14.79,0,0,0,255,153c-2.28,8.93-5,17.74-7.58,26.59-1.31,4.48-3.6,5.64-7.93,3.95-5.93-2.31-11.78-4.83-17.76-7a4.75,4.75,0,0,0-4,.6q-41.61,37-83,74.35a7.45,7.45,0,0,0-2.16,4.94c-.14,22.29-.09,44.58-.09,66.87,0,1,0,2,0,3.71a19,19,0,0,0,1.61-1.5c5.66-7.31,11.33-14.61,16.9-22a5.6,5.6,0,0,0,.88-3.19c0-12.9-.11-25.8-.2-38.7,0-3.15,1.18-5.38,4.57-5.66,2.92-.24,5,2.06,5,5.67.09,4.82,0,9.65,0,14.47q0,6.31,0,12.61l.84.15L186.54,257q6.52-8.54,13.05-17.07c2.55-3.32,5-4,7.6-2s2.4,4.34-.18,7.83q-1,1.41-2.12,2.81l-14.34,18.76c1.51-.21,2.26-.24,3-.42,7.56-1.87,15.11-3.8,22.68-5.64,3-.73,5.85-.66,7,2.93,1,3.08-.59,5.24-4.6,6.28-7.79,2-15.5,4.63-23.42,5.82-10.34,1.54-17.37,6.56-23.35,15.15C161.41,306.48,149.78,320.72,138.64,335.29Z" transform="translate(-12.49 -11.11)"/><path class="feather-3" d="M225.35,412.94V393.39h-4.78v-9.33h4.78v-1.32c0-6,4.6-10.28,11-10.28,3.35,0,7,1,9,3.11l-3.89,6a3.11,3.11,0,0,0-2.63-1.14,2.55,2.55,0,0,0-2.75,2.33v1.32H242v9.33h-5.86v19.55Z" transform="translate(-12.49 -11.11)"/><path class="feather-3" d="M244.35,398.47c0-8.37,6.4-15.13,15.72-15.13,8.49,0,15,6.1,15,16.26v2.21H255.48c.6,1.85,2.69,3.65,6.22,3.65,1.61,0,5.2-.78,6.64-2l4.42,6.64c-2.87,2.45-8,3.58-12.31,3.58C251.41,413.66,244.35,408,244.35,398.47Zm15.72-6.94a4.49,4.49,0,0,0-4.72,3.47h9.51C264.56,393.75,263.54,391.54,260.08,391.54Z" transform="translate(-12.49 -11.11)"/><path class="feather-3" d="M295.85,412.94v-2.75c-1.61,2-5.14,3.47-8.73,3.47-4.31,0-9.92-2.93-9.92-9.51,0-7.17,5.62-9.2,9.92-9.2,3.77,0,7.17,1.19,8.73,3.17v-3c0-2-1.85-3.59-5.38-3.59a13.87,13.87,0,0,0-8,2.81l-3.65-6.64c3.89-3.11,9.27-4.36,13.63-4.36,7.18,0,14.17,2.51,14.17,12.14v17.46Zm0-7.83v-1.61c-.72-1-2.57-1.55-4.25-1.55s-3.77.6-3.77,2.39,2,2.33,3.77,2.33S295.13,406.12,295.85,405.11Z" transform="translate(-12.49 -11.11)"/><path class="feather-3" d="M314.16,404.57V393.39h-4.78v-9.33h4.78v-7.89h10.76v7.89h5.86v9.33h-5.86v8.07a2.47,2.47,0,0,0,2.39,2.69,3.92,3.92,0,0,0,2.15-.54l1.91,8.13c-1.14,1-3.65,1.91-7.29,1.91C317.69,413.66,314.16,410.61,314.16,404.57Z" transform="translate(-12.49 -11.11)"/><path class="feather-3" d="M353.7,412.94V396.86c0-3-1.61-4-4.18-4a5.7,5.7,0,0,0-4.6,2.28v17.81H334.15V373.06h10.76v14.29c1.67-1.91,4.84-4,9.92-4,6.7,0,9.63,3.95,9.63,9v20.63Z" transform="translate(-12.49 -11.11)"/><path class="feather-3" d="M368.48,398.47c0-8.37,6.4-15.13,15.72-15.13,8.49,0,15,6.1,15,16.26v2.21H379.6c.6,1.85,2.69,3.65,6.22,3.65,1.61,0,5.2-.78,6.64-2l4.42,6.64c-2.87,2.45-8,3.58-12.31,3.58C375.54,413.66,368.48,408,368.48,398.47Zm15.72-6.94a4.49,4.49,0,0,0-4.72,3.47H389C388.69,393.75,387.67,391.54,384.2,391.54Z" transform="translate(-12.49 -11.11)"/><path class="feather-3" d="M402.93,412.94V384.06h10.76v3.17a12.92,12.92,0,0,1,8.85-4v10.28a8.52,8.52,0,0,0-2.45-.3c-2.27,0-5.2.6-6.4,2v17.7Z" transform="translate(-12.49 -11.11)"/></svg>
