<svg width="48px" height="48px" viewBox="0 0 48 48" version="1.1" xmlns="http://www.w3.org/2000/svg"><g stroke="none" stroke-width="1" fill="none" fill-rule="evenodd"><polygon points="0 0 48 0 48 48 0 48"/><g transform="translate(7.000000, 11.000000)" fill="#0B1F35" fill-opacity="0.9"><path d="M17.0001459,2.24195375 C16.8647261,2.34809034 16.7322249,2.45742557 16.6026421,2.56966865 C14.3886452,4.48914163 12.9868752,7.31441046 12.9868752,10.4679757 C12.9868752,13.621541 14.3886452,16.4471007 16.6026421,18.3662828 C16.7322249,18.4788167 16.8647261,18.5881519 17.0001459,18.6942885 C17.1355657,18.5881519 17.268067,18.4788167 17.3976497,18.3662828 C19.6116467,16.4471007 21.0131248,13.621541 21.0131248,10.4679757 C21.0131248,7.31441046 19.6116467,4.48914163 17.3976497,2.56966865 C17.268067,2.45742557 17.1355657,2.34809034 17.0001459,2.24195375 Z M23.4932917,3.55271368e-14 C21.342335,3.55271368e-14 19.3425582,0.644379962 17.6769531,1.74936365 C17.7621741,1.81886131 17.8485626,1.88748661 17.9308652,1.95901977 C20.4063624,4.10443284 21.8259354,7.20594758 21.8259354,10.4679757 C21.8259354,13.7302947 20.4063624,16.8315187 17.931157,18.9772225 C17.8491463,19.0484649 17.7621741,19.1170902 17.6769531,19.1865878 C19.3425582,20.2918623 21.342335,20.9362423 23.4932917,20.9362423 C29.2962051,20.9362423 34,16.2496575 34,10.4682665 C34,4.68658477 29.2962051,3.55271368e-14 23.4932917,3.55271368e-14 Z M16.0691348,18.9772225 C16.1511455,19.0484649 16.2378259,19.1170902 16.3230469,19.1865878 C14.6577337,20.2918623 12.657665,20.9362423 10.5067083,20.9362423 C4.70379495,20.9362423 0,16.2496575 0,10.4679757 C0,4.68687556 4.70379495,3.55271368e-14 10.5067083,3.55271368e-14 C12.657665,3.55271368e-14 14.6574418,0.644379962 16.3230469,1.74936365 C16.2378259,1.81886131 16.1517292,1.88748661 16.0691348,1.95872898 C13.5936376,4.10443284 12.1743564,7.20594758 12.1743564,10.4679757 C12.1743564,13.7302947 13.5936376,16.8318094 16.0691348,18.9772225 Z M33.6710817,16.9551024 L33.6710817,16.5485847 L33.5645553,16.5485847 L33.441977,16.8280292 L33.3196906,16.5485847 L33.2131643,16.5485847 L33.2131643,16.9551024 L33.2884624,16.9551024 L33.2884624,16.648324 L33.4031606,16.9126477 L33.4810853,16.9126477 L33.5957836,16.6477424 L33.5957836,16.9551024 L33.6710817,16.9551024 Z M32.9969012,16.9551024 L32.9969012,16.6177916 L33.1329047,16.6177916 L33.1329047,16.5491663 L32.7855996,16.5491663 L32.7855996,16.6177916 L32.9221868,16.6177916 L32.9221868,16.9551024 L32.9969012,16.9551024 Z"/><path d="M28.8532787,26.0691557 L28.8532787,26.1388379 L28.9175486,26.1388379 C28.9310791,26.1388379 28.9439331,26.1354553 28.9520514,26.130043 C28.9601697,26.1246308 28.9655819,26.1151595 28.9655819,26.1036585 C28.9655819,26.0921576 28.9601697,26.0833628 28.9520514,26.0779506 C28.9439331,26.0718618 28.9310791,26.0691557 28.9175486,26.0691557 L28.8532787,26.0691557 Z M28.9182251,26.0204459 C28.9513749,26.0204459 28.9770829,26.0278877 28.995349,26.0427712 C29.0129387,26.0576548 29.0224101,26.0779506 29.0224101,26.1036585 C29.0224101,26.1253074 29.0149683,26.142897 29.0007613,26.1571041 C28.9858777,26.1706346 28.9655819,26.1794294 28.9391974,26.182812 L29.0244397,26.2809083 L28.9574636,26.2809083 L28.8783101,26.1834886 L28.8532787,26.1834886 L28.8532787,26.2809083 L28.7978036,26.2809083 L28.7978036,26.0204459 L28.9182251,26.0204459 Z M28.9006355,26.3702096 C28.9310791,26.3702096 28.9594932,26.3647974 28.9852012,26.3532965 C29.0115857,26.3417956 29.0352641,26.3262355 29.0548833,26.3066162 C29.073826,26.286997 29.0900626,26.2639951 29.100887,26.2369341 C29.112388,26.2105496 29.1184767,26.1821355 29.1184767,26.1516919 C29.1184767,26.1212482 29.112388,26.0928341 29.100887,26.0664496 C29.0900626,26.0400651 29.073826,26.0163867 29.0548833,25.9967675 C29.0352641,25.9771483 29.0115857,25.9615882 28.9852012,25.9507638 C28.9594932,25.9392628 28.9310791,25.9338506 28.9006355,25.9338506 C28.8701918,25.9338506 28.8411012,25.9392628 28.8147167,25.9507638 C28.7876557,25.9615882 28.7639773,25.9771483 28.7450346,25.9967675 C28.7254153,26.0163867 28.7091787,26.0400651 28.6983543,26.0664496 C28.6875299,26.0928341 28.6814412,26.1212482 28.6814412,26.1516919 C28.6814412,26.1821355 28.6875299,26.2105496 28.6983543,26.2369341 C28.7091787,26.2639951 28.7254153,26.286997 28.7450346,26.3066162 C28.7639773,26.3262355 28.7876557,26.3417956 28.8147167,26.3532965 C28.8411012,26.3647974 28.8701918,26.3702096 28.9006355,26.3702096 Z M28.9006355,25.8709337 C28.941227,25.8709337 28.9777594,25.8783755 29.0115857,25.8932591 C29.046765,25.9074661 29.0765321,25.9277619 29.1029166,25.9534699 C29.1286246,25.9785013 29.1489204,26.0082684 29.1644805,26.0427712 C29.1786875,26.0765975 29.1861293,26.1131299 29.1861293,26.1516919 C29.1861293,26.1902538 29.1786875,26.2267862 29.1644805,26.2606125 C29.1489204,26.2944388 29.1286246,26.3242059 29.1029166,26.3492373 C29.0765321,26.3749453 29.046765,26.3952411 29.0115857,26.4101247 C28.9777594,26.4250082 28.941227,26.43245 28.9006355,26.43245 C28.8607204,26.43245 28.822835,26.4250082 28.7876557,26.4101247 C28.7531529,26.3952411 28.7227092,26.3749453 28.6970012,26.3492373 C28.6706167,26.3242059 28.650321,26.2944388 28.6361139,26.2606125 C28.6205539,26.2267862 28.6137886,26.1902538 28.6137886,26.1516919 C28.6137886,26.1131299 28.6205539,26.0765975 28.6361139,26.0427712 C28.650321,26.0082684 28.6706167,25.9785013 28.6970012,25.9534699 C28.7227092,25.9277619 28.7531529,25.9074661 28.7876557,25.8932591 C28.822835,25.8783755 28.8607204,25.8709337 28.9006355,25.8709337 Z M24.3858417,23.3861228 C24.5096459,23.3861228 24.6875721,23.4098012 24.8235538,23.4632467 L24.6341266,24.0423526 C24.5042337,23.9889071 24.3743408,23.9713174 24.2498601,23.9713174 C23.8480038,23.9713174 23.6470757,24.2311033 23.6470757,24.697906 L23.6470757,26.282329 L23.0321139,26.282329 L23.0321139,23.457158 L23.640987,23.457158 L23.640987,23.8001565 C23.8006471,23.5518716 24.0320188,23.3861228 24.3858417,23.3861228 Z M22.1147452,24.0186742 L21.1094281,24.0186742 L21.1094281,25.2952781 C21.1094281,25.5787423 21.2095539,25.7681695 21.5173731,25.7681695 C21.6770331,25.7681695 21.8779612,25.714724 22.0606232,25.6085094 L22.2378729,26.1341699 C22.0430335,26.2701515 21.7358909,26.3533642 21.4700163,26.3533642 C20.7427512,26.3533642 20.4890541,25.9630089 20.4890541,25.306779 L20.4890541,24.0186742 L19.9160369,24.0186742 L19.9160369,23.457158 L20.4890541,23.457158 L20.4890541,22.6 L21.1094281,22.6 L21.1094281,23.457158 L22.1147452,23.457158 L22.1147452,24.0186742 Z M14.2467522,24.6214586 C14.3123752,24.2135136 14.5606601,23.9354616 14.9976957,23.9354616 C15.3934631,23.9354616 15.6478368,24.1837465 15.7127832,24.6214586 L14.2467522,24.6214586 Z M16.3514234,24.8697435 C16.3453347,23.9889071 15.8020846,23.3861228 15.0091966,23.3861228 C14.1818058,23.3861228 13.6033763,23.9889071 13.6033763,24.8697435 C13.6033763,25.767493 14.2054841,26.3526876 15.0511412,26.3526876 C15.4766758,26.3526876 15.8663546,26.2464731 16.209353,25.9569201 L15.9076226,25.5016184 C15.6715152,25.6910456 15.3697847,25.7972601 15.0863205,25.7972601 C14.690553,25.7972601 14.3299649,25.6139216 14.24134,25.1058509 L16.339246,25.1058509 C16.3453347,25.028727 16.3514234,24.9522796 16.3514234,24.8697435 Z M19.0521137,24.1783343 C18.8809527,24.0714432 18.532542,23.9354616 18.1719539,23.9354616 C17.8350441,23.9354616 17.6347925,24.0599423 17.6347925,24.2669591 C17.6347925,24.4557098 17.846545,24.5091553 18.1130961,24.5443346 L18.4019726,24.5856027 C19.0169344,24.6749041 19.3890235,24.9346899 19.3890235,25.4312597 C19.3890235,25.9690976 18.9161321,26.3533642 18.1009187,26.3533642 C17.6395282,26.3533642 17.2139936,26.2349722 16.8770838,25.9866873 L17.1666368,25.5077071 C17.3736536,25.6673672 17.6814728,25.8033488 18.1070074,25.8033488 C18.5264533,25.8033488 18.7510598,25.6795446 18.7510598,25.4603503 C18.7510598,25.3013668 18.5920763,25.2120654 18.25449,25.1653852 L17.964937,25.1241171 C17.3323856,25.0348157 16.9893871,24.7513515 16.9893871,24.2906375 C16.9893871,23.7291213 17.4507776,23.3861228 18.1658651,23.3861228 C18.6150782,23.3861228 19.0230231,23.4869251 19.3179883,23.6817645 L19.0521137,24.1783343 Z M26.6325833,23.9699644 C26.506073,23.9699644 26.3890341,23.9922897 26.2801135,24.0362639 C26.1718694,24.0809146 26.0778323,24.1431549 25.9986788,24.222985 C25.9202018,24.302815 25.8572849,24.3988816 25.8119577,24.5105084 C25.7666305,24.6221351 25.7443052,24.7452627 25.7443052,24.8792148 C25.7443052,25.0138434 25.7666305,25.1362946 25.8119577,25.2479213 C25.8572849,25.359548 25.9202018,25.4556147 25.9986788,25.5354447 C26.0778323,25.6152747 26.1718694,25.6775151 26.2801135,25.7221657 C26.3890341,25.7668164 26.506073,25.7884653 26.6325833,25.7884653 C26.7590936,25.7884653 26.8768091,25.7668164 26.9850532,25.7221657 C27.0939738,25.6775151 27.1886874,25.6152747 27.2678409,25.5354447 C27.3483474,25.4556147 27.4105878,25.359548 27.4565915,25.2479213 C27.5019187,25.1362946 27.5242441,25.0138434 27.5242441,24.8792148 C27.5242441,24.7452627 27.5019187,24.6221351 27.4565915,24.5105084 C27.4105878,24.3988816 27.3483474,24.302815 27.2678409,24.222985 C27.1886874,24.1431549 27.0939738,24.0809146 26.9850532,24.0362639 C26.8768091,23.9922897 26.7590936,23.9699644 26.6325833,23.9699644 Z M26.6325833,23.3861228 C26.8524541,23.3861228 27.0547353,23.4240082 27.2414564,23.5004556 C27.4281774,23.5762265 27.5898671,23.6810879 27.7258487,23.8143635 C27.8625069,23.947639 27.9687214,24.1052695 28.0458453,24.2865784 C28.1229693,24.4685638 28.1615312,24.6661093 28.1615312,24.8792148 C28.1615312,25.0923204 28.1229693,25.2898659 28.0458453,25.4718513 C27.9687214,25.6531601 27.8625069,25.8114671 27.7258487,25.9447427 C27.5898671,26.0780182 27.4281774,26.1822032 27.2414564,26.2586506 C27.0547353,26.3344214 26.8524541,26.3723069 26.6325833,26.3723069 C26.413389,26.3723069 26.2104313,26.3344214 26.0237103,26.2586506 C25.8376657,26.1822032 25.6766526,26.0780182 25.5413475,25.9447427 C25.4060424,25.8114671 25.3005044,25.6531601 25.2227039,25.4718513 C25.14558,25.2898659 25.107018,25.0923204 25.107018,24.8792148 C25.107018,24.6661093 25.14558,24.4685638 25.2227039,24.2865784 C25.3005044,24.1052695 25.4060424,23.947639 25.5413475,23.8143635 C25.6766526,23.6810879 25.8376657,23.5762265 26.0237103,23.5004556 C26.2104313,23.4240082 26.413389,23.3861228 26.6325833,23.3861228 Z M10.6557542,24.8697435 C10.6557542,24.3731737 10.9818396,23.9652287 11.5129122,23.9652287 C12.0209829,23.9652287 12.3639814,24.355584 12.3639814,24.8697435 C12.3639814,25.3839029 12.0209829,25.7735817 11.5129122,25.7735817 C10.9818396,25.7735817 10.6557542,25.3663133 10.6557542,24.8697435 Z M12.9430873,24.8697435 L12.9430873,23.457158 L12.3288021,23.457158 L12.3288021,23.8001565 C12.1332862,23.5457828 11.838321,23.3861228 11.4364648,23.3861228 C10.6442533,23.3861228 10.0238793,24.0064968 10.0238793,24.8697435 C10.0238793,25.7323136 10.6442533,26.3533642 11.4364648,26.3533642 C11.838321,26.3533642 12.1332862,26.1937041 12.3288021,25.9393305 L12.3288021,26.282329 L12.9430873,26.282329 L12.9430873,24.8697435 Z M9.47995267,26.282329 L9.47995267,24.5091553 C9.47995267,23.8414245 9.05441806,23.3922115 8.3690976,23.3861228 C8.00850944,23.380034 7.63574383,23.4923373 7.37595799,23.8887813 C7.18111861,23.5755499 6.87329945,23.3861228 6.44235263,23.3861228 C6.1406222,23.3861228 5.8449805,23.4747476 5.61428527,23.8055687 L5.61428527,23.457158 L5,23.457158 L5,26.282329 L5.620374,26.282329 L5.620374,24.7161721 C5.620374,24.2256911 5.8923373,23.9652287 6.31178318,23.9652287 C6.71972813,23.9652287 6.92674497,24.2311033 6.92674497,24.7100834 L6.92674497,26.282329 L7.54711897,26.282329 L7.54711897,24.7161721 C7.54711897,24.2256911 7.83125973,23.9652287 8.23852816,23.9652287 C8.65865057,23.9652287 8.85957868,24.2311033 8.85957868,24.7100834 L8.85957868,26.282329 L9.47995267,26.282329 Z"/></g></g></svg>