<svg width="48" height="48" viewBox="0 0 48 48" xmlns="http://www.w3.org/2000/svg"><g fill="none" fill-rule="evenodd"><path d="M0 0h48v48H0z"/><path d="M24 13.242a10.425 10.425 0 0 0-4.013 8.226A10.425 10.425 0 0 0 24 29.694a10.425 10.425 0 0 0 4.013-8.226A10.425 10.425 0 0 0 24 13.242zM30.493 11c-2.15 0-4.15.644-5.816 1.75.085.069.172.137.254.209a11.259 11.259 0 0 1 3.895 8.509 11.26 11.26 0 0 1-3.895 8.51c-.082.07-.169.14-.254.209a10.484 10.484 0 0 0 5.816 1.75C36.296 31.936 41 27.25 41 21.467 41 15.687 36.296 11 30.493 11zM23.07 29.977c.082.071.169.14.254.21a10.483 10.483 0 0 1-5.816 1.75C11.704 31.936 7 27.25 7 21.467 7 15.687 11.704 11 17.507 11c2.15 0 4.15.644 5.816 1.75-.085.069-.171.137-.254.209a11.26 11.26 0 0 0-3.895 8.509c0 3.262 1.42 6.364 3.895 8.51zm17.602-2.022v-.406h-.106l-.123.279-.122-.28h-.107v.407h.075v-.307l.115.265h.078l.115-.265v.307h.075zm-.674 0v-.337h.136v-.069h-.347v.069h.136v.337h.075zM35.853 37.07v.069h.065a.065.065 0 0 0 .034-.009.031.031 0 0 0 .014-.026.03.03 0 0 0-.014-.026.06.06 0 0 0-.034-.009h-.065zm.065-.05c.033 0 .06.008.077.023a.076.076 0 0 1 .027.06c0 .022-.007.04-.021.054a.11.11 0 0 1-.062.026l.085.098h-.067l-.079-.098h-.025v.098h-.055v-.26h.12zm-.017.35a.225.225 0 0 0 .154-.064.216.216 0 0 0 .046-.07.211.211 0 0 0 0-.17.212.212 0 0 0-.116-.116.205.205 0 0 0-.084-.016c-.03 0-.06.005-.086.017a.214.214 0 0 0-.133.2.223.223 0 0 0 .063.156.214.214 0 0 0 .156.064zm0-.5a.27.27 0 0 1 .11.023.279.279 0 0 1 0 .517.288.288 0 0 1-.375-.15.257.257 0 0 1-.022-.108c0-.039.007-.075.022-.11a.276.276 0 0 1 .152-.15.288.288 0 0 1 .113-.021zm-4.515-2.484c.124 0 .302.024.438.077l-.19.58a.996.996 0 0 0-.384-.072c-.402 0-.603.26-.603.727v1.584h-.615v-2.825h.609v.343a.835.835 0 0 1 .745-.414zm-2.271.633h-1.006v1.276c0 .284.1.473.408.473.16 0 .361-.053.544-.16l.177.526c-.195.136-.502.22-.768.22-.727 0-.98-.391-.98-1.047v-1.288h-.574v-.562h.573V33.6h.62v.857h1.006v.562zm-7.868.602c.065-.407.314-.686.75-.686.396 0 .65.249.716.686h-1.466zm2.104.249c-.006-.881-.549-1.484-1.342-1.484-.827 0-1.406.603-1.406 1.484 0 .897.602 1.483 1.448 1.483.426 0 .815-.107 1.158-.396l-.301-.455c-.236.189-.538.295-.822.295-.395 0-.756-.183-.845-.691h2.098c.006-.077.012-.154.012-.236zm2.701-.692a1.812 1.812 0 0 0-.88-.243c-.337 0-.537.125-.537.332 0 .189.212.242.478.277l.289.042c.615.089.987.349.987.845 0 .538-.473.922-1.288.922-.461 0-.887-.118-1.224-.366l.29-.48c.207.16.514.296.94.296.42 0 .644-.123.644-.343 0-.159-.159-.248-.497-.295l-.29-.04c-.632-.09-.975-.374-.975-.834 0-.562.462-.905 1.177-.905.45 0 .857.1 1.152.296l-.266.496zm7.58-.208a.931.931 0 0 0-.352.066.846.846 0 0 0-.468.475.972.972 0 0 0-.068.368.97.97 0 0 0 .068.369.846.846 0 0 0 .468.474.918.918 0 0 0 .353.066.916.916 0 0 0 .352-.066.845.845 0 0 0 .472-.474.97.97 0 0 0 .067-.369.972.972 0 0 0-.067-.368.86.86 0 0 0-.472-.475.929.929 0 0 0-.352-.066zm0-.584c.22 0 .423.038.61.114a1.437 1.437 0 0 1 .804.786c.077.183.116.38.116.593 0 .213-.039.41-.116.593a1.44 1.44 0 0 1-.805.787 1.602 1.602 0 0 1-.608.113c-.22 0-.423-.038-.61-.113a1.48 1.48 0 0 1-.482-.314 1.468 1.468 0 0 1-.434-1.066 1.465 1.465 0 0 1 .434-1.065c.136-.133.297-.238.483-.314.186-.076.39-.114.609-.114zM17.657 35.87c0-.497.326-.905.857-.905.508 0 .851.39.851.905 0 .514-.343.904-.851.904-.531 0-.857-.408-.857-.904zm2.287 0v-1.413h-.614v.343c-.196-.254-.49-.414-.893-.414-.792 0-1.412.62-1.412 1.484 0 .862.62 1.483 1.412 1.483.402 0 .697-.16.893-.414v.343h.614V35.87zm-3.463 1.412V35.51c0-.668-.426-1.117-1.11-1.123-.361-.006-.734.106-.994.503-.195-.313-.503-.503-.934-.503-.301 0-.597.089-.828.42v-.349H12v2.825h.62v-1.566c0-.49.272-.75.692-.75.408 0 .615.265.615.744v1.572h.62v-1.566c0-.49.284-.75.692-.75.42 0 .62.265.62.744v1.572h.621z" fill-opacity=".9" fill="#FFF"/></g></svg>