<svg width="30px" height="30px" viewBox="0 0 30 30" version="1.1" xmlns="http://www.w3.org/2000/svg"><g stroke="none" stroke-width="1" fill="none" fill-rule="evenodd"><polygon points="0 0 30 0 30 30 0 30"/><g transform="translate(3.000000, 6.000000)" fill="#0B1F35" fill-opacity="0.9"><path d="M12.000103,1.57767116 C11.9045126,1.65235987 11.8109823,1.72929947 11.7195121,1.80828535 C10.1566907,3.15902559 9.16720602,5.14717773 9.16720602,7.36635331 C9.16720602,9.58552888 10.1566907,11.5738856 11.7195121,12.9244213 C11.8109823,13.0036118 11.9045126,13.0805514 12.000103,13.1552401 C12.0956935,13.0805514 12.1892238,13.0036118 12.2806939,12.9244213 C13.8435153,11.5738856 14.832794,9.58552888 14.832794,7.36635331 C14.832794,5.14717773 13.8435153,3.15902559 12.2806939,1.80828535 C12.1892238,1.72929947 12.0956935,1.65235987 12.000103,1.57767116 Z M16.5835,3.55271368e-14 C15.0651776,3.55271368e-14 13.6535705,0.453452566 12.4778492,1.23103368 C12.5380053,1.27993944 12.5989854,1.32823132 12.6570813,1.37856947 C14.4044911,2.88830459 15.4065427,5.070852 15.4065427,7.36635331 C15.4065427,9.66205923 14.4044911,11.844402 12.6572873,13.3543418 C12.5993974,13.4044753 12.5380053,13.4527672 12.4778492,13.5016729 C13.6535705,14.2794587 15.0651776,14.7329112 16.5835,14.7329112 C20.6796742,14.7329112 24,11.4349442 24,7.36655793 C24,3.29796706 20.6796742,3.55271368e-14 16.5835,3.55271368e-14 Z M11.3429187,13.3543418 C11.4008086,13.4044753 11.4619947,13.4527672 11.5221508,13.5016729 C10.3466355,14.2794587 8.93482236,14.7329112 7.4165,14.7329112 C3.32032585,14.7329112 0,11.4349442 0,7.36635331 C0,3.29817169 3.32032585,3.55271368e-14 7.4165,3.55271368e-14 C8.93482236,3.55271368e-14 10.3464295,0.453452566 11.5221508,1.23103368 C11.4619947,1.27993944 11.4012206,1.32823132 11.3429187,1.37836484 C9.5955089,2.88830459 8.59366336,5.070852 8.59366336,7.36635331 C8.59366336,9.66205923 9.5955089,11.8446066 11.3429187,13.3543418 Z M23.7678223,11.9313683 L23.7678223,11.6453003 L23.6926273,11.6453003 L23.6061014,11.8419465 L23.5197816,11.6453003 L23.4445866,11.6453003 L23.4445866,11.9313683 L23.4977381,11.9313683 L23.4977381,11.7154873 L23.5787016,11.9014928 L23.6337073,11.9014928 L23.7146708,11.715078 L23.7146708,11.9313683 L23.7678223,11.9313683 Z M23.2919303,11.9313683 L23.2919303,11.6940015 L23.3879327,11.6940015 L23.3879327,11.6457096 L23.1427762,11.6457096 L23.1427762,11.6940015 L23.2391907,11.6940015 L23.2391907,11.9313683 L23.2919303,11.9313683 Z"/><path d="M20.3670202,18.3449614 L20.3670202,18.393997 L20.4123872,18.393997 C20.4219382,18.393997 20.4310116,18.3916167 20.4367422,18.3878081 C20.4424727,18.3839995 20.4462931,18.3773345 20.4462931,18.3692412 C20.4462931,18.3611479 20.4424727,18.354959 20.4367422,18.3511504 C20.4310116,18.3468657 20.4219382,18.3449614 20.4123872,18.3449614 L20.3670202,18.3449614 Z M20.4128648,18.3106841 C20.4362646,18.3106841 20.4544114,18.315921 20.4673052,18.3263946 C20.4797214,18.3368682 20.4864071,18.3511504 20.4864071,18.3692412 C20.4864071,18.3844756 20.4811541,18.3968535 20.4711256,18.406851 C20.4606195,18.4163725 20.4462931,18.4225614 20.4276688,18.4249418 L20.4878398,18.4939725 L20.4405626,18.4939725 L20.3846895,18.4254179 L20.3670202,18.4254179 L20.3670202,18.4939725 L20.3278613,18.4939725 L20.3278613,18.3106841 L20.4128648,18.3106841 Z M20.4004486,18.5568142 C20.4219382,18.5568142 20.4419952,18.5530056 20.460142,18.5449124 C20.4787664,18.5368191 20.4954805,18.5258694 20.5093294,18.5120633 C20.5227007,18.4982571 20.5341619,18.4820706 20.5418026,18.4630277 C20.5499209,18.4444608 20.5542189,18.4244657 20.5542189,18.4030424 C20.5542189,18.3816191 20.5499209,18.361624 20.5418026,18.3430572 C20.5341619,18.3244903 20.5227007,18.3078277 20.5093294,18.2940216 C20.4954805,18.2802154 20.4787664,18.2692657 20.460142,18.2616486 C20.4419952,18.2535553 20.4219382,18.2497467 20.4004486,18.2497467 C20.3789589,18.2497467 20.3584244,18.2535553 20.3398,18.2616486 C20.3206981,18.2692657 20.303984,18.2802154 20.2906126,18.2940216 C20.2767638,18.3078277 20.2653026,18.3244903 20.2576619,18.3430572 C20.2500211,18.361624 20.2457232,18.3816191 20.2457232,18.4030424 C20.2457232,18.4244657 20.2500211,18.4444608 20.2576619,18.4630277 C20.2653026,18.4820706 20.2767638,18.4982571 20.2906126,18.5120633 C20.303984,18.5258694 20.3206981,18.5368191 20.3398,18.5449124 C20.3584244,18.5530056 20.3789589,18.5568142 20.4004486,18.5568142 Z M20.4004486,18.2054719 C20.4291014,18.2054719 20.454889,18.2107087 20.4787664,18.2211823 C20.5035988,18.2311799 20.5246109,18.2454621 20.5432353,18.2635529 C20.5613821,18.2811676 20.5757085,18.3021148 20.5866921,18.3263946 C20.5967206,18.3501983 20.6019736,18.3759062 20.6019736,18.4030424 C20.6019736,18.4301786 20.5967206,18.4558866 20.5866921,18.4796903 C20.5757085,18.503494 20.5613821,18.5244412 20.5432353,18.5420559 C20.5246109,18.5601467 20.5035988,18.5744289 20.4787664,18.5849025 C20.454889,18.5953762 20.4291014,18.600613 20.4004486,18.600613 C20.3722733,18.600613 20.3455306,18.5953762 20.3206981,18.5849025 C20.2963432,18.5744289 20.2748536,18.5601467 20.2567068,18.5420559 C20.2380824,18.5244412 20.223756,18.503494 20.2137275,18.4796903 C20.2027439,18.4558866 20.1979684,18.4301786 20.1979684,18.4030424 C20.1979684,18.3759062 20.2027439,18.3501983 20.2137275,18.3263946 C20.223756,18.3021148 20.2380824,18.2811676 20.2567068,18.2635529 C20.2748536,18.2454621 20.2963432,18.2311799 20.3206981,18.2211823 C20.3455306,18.2107087 20.3722733,18.2054719 20.4004486,18.2054719 Z M17.2135353,16.4569012 C17.3009265,16.4569012 17.4265215,16.4735638 17.5225086,16.5111736 L17.3887953,16.9186926 C17.2971061,16.8810828 17.205417,16.8687049 17.1175483,16.8687049 C16.8338851,16.8687049 16.6920535,17.0515171 16.6920535,17.3800079 L16.6920535,18.4949722 L16.2579628,18.4949722 L16.2579628,16.5068889 L16.6877555,16.5068889 L16.6877555,16.7482582 C16.8004567,16.5735392 16.963778,16.4569012 17.2135353,16.4569012 Z M15.6104084,16.90203 L14.9007728,16.90203 L14.9007728,17.8003809 C14.9007728,17.9998557 14.9714498,18.1331563 15.1887339,18.1331563 C15.3014351,18.1331563 15.4432668,18.0955465 15.5722046,18.0208029 L15.697322,18.3907121 C15.5597883,18.4864029 15.3429818,18.54496 15.1553056,18.54496 C14.6419421,18.54496 14.4628617,18.2702655 14.4628617,17.8084741 L14.4628617,16.90203 L14.058379,16.90203 L14.058379,16.5068889 L14.4628617,16.5068889 L14.4628617,15.9037037 L14.9007728,15.9037037 L14.9007728,16.5068889 L15.6104084,16.5068889 L15.6104084,16.90203 Z M10.056531,17.3262116 C10.1028531,17.0391392 10.278113,16.843473 10.5866087,16.843473 C10.865974,16.843473 11.0455318,17.018192 11.0913764,17.3262116 L10.056531,17.3262116 Z M11.5421812,17.5009306 C11.5378833,16.8810828 11.1544127,16.4569012 10.594727,16.4569012 C10.0106864,16.4569012 9.6023833,16.8810828 9.6023833,17.5009306 C9.6023833,18.1326802 10.0274006,18.5444839 10.6243349,18.5444839 C10.9247123,18.5444839 11.1997797,18.4697403 11.4418963,18.2659808 L11.2289101,17.9455833 C11.062246,18.0788839 10.8492598,18.1536275 10.6491674,18.1536275 C10.3698021,18.1536275 10.1152693,18.0246115 10.0527106,17.6670803 L11.5335854,17.6670803 C11.5378833,17.6128079 11.5421812,17.5590116 11.5421812,17.5009306 Z M13.4485509,17.0143834 C13.3277313,16.9391638 13.0817944,16.843473 12.8272616,16.843473 C12.5894429,16.843473 12.4480888,16.9310705 12.4480888,17.076749 C12.4480888,17.2095736 12.5975612,17.2471834 12.7857149,17.2719392 L12.9896277,17.3009797 C13.4237184,17.3638214 13.6863695,17.5466337 13.6863695,17.8960717 C13.6863695,18.2745502 13.3525638,18.54496 12.7771191,18.54496 C12.4514317,18.54496 12.1510543,18.4616471 11.9132356,18.2869281 L12.117626,17.949868 C12.2637555,18.0622213 12.4810396,18.1579121 12.781417,18.1579121 C13.0774964,18.1579121 13.2360422,18.0707907 13.2360422,17.9165428 C13.2360422,17.8046655 13.1238186,17.7418238 12.8855224,17.7089747 L12.681132,17.6799343 C12.2346251,17.6170925 11.9925085,17.4176177 11.9925085,17.0934116 C11.9925085,16.6982705 12.3181959,16.4569012 12.8229636,16.4569012 C13.1400552,16.4569012 13.4280163,16.5278362 13.636227,16.6649454 L13.4485509,17.0143834 Z M18.7994706,16.8677527 C18.7101692,16.8677527 18.6275535,16.8834631 18.5506683,16.9144079 C18.4742607,16.9458288 18.4078816,16.9896276 18.3520086,17.0458042 C18.2966131,17.1019809 18.2522011,17.1695834 18.2202055,17.2481355 C18.1882098,17.3266877 18.1724507,17.413333 18.1724507,17.5075956 C18.1724507,17.6023343 18.1882098,17.6885036 18.2202055,17.7670557 C18.2522011,17.8456079 18.2966131,17.9132103 18.3520086,17.969387 C18.4078816,18.0255637 18.4742607,18.0693624 18.5506683,18.1007833 C18.6275535,18.1322042 18.7101692,18.1474385 18.7994706,18.1474385 C18.888772,18.1474385 18.9718652,18.1322042 19.0482728,18.1007833 C19.125158,18.0693624 19.1920146,18.0255637 19.2478877,17.969387 C19.3047158,17.9132103 19.3486502,17.8456079 19.3811234,17.7670557 C19.4131191,17.6885036 19.4288782,17.6023343 19.4288782,17.5075956 C19.4288782,17.413333 19.4131191,17.3266877 19.3811234,17.2481355 C19.3486502,17.1695834 19.3047158,17.1019809 19.2478877,17.0458042 C19.1920146,16.9896276 19.125158,16.9458288 19.0482728,16.9144079 C18.9718652,16.8834631 18.888772,16.8677527 18.7994706,16.8677527 Z M18.7994706,16.4569012 C18.9546735,16.4569012 19.0974602,16.4835613 19.2292633,16.5373576 C19.3610664,16.5906779 19.4752003,16.6644693 19.5711873,16.7582558 C19.6676519,16.8520423 19.7426269,16.9629674 19.7970673,17.0905552 C19.8515077,17.2186189 19.8787279,17.3576324 19.8787279,17.5075956 C19.8787279,17.6575588 19.8515077,17.7965723 19.7970673,17.9246361 C19.7426269,18.0522238 19.6676519,18.163625 19.5711873,18.2574115 C19.4752003,18.351198 19.3610664,18.4245133 19.2292633,18.4783097 C19.0974602,18.5316299 18.9546735,18.55829 18.7994706,18.55829 C18.6447452,18.55829 18.5014809,18.5316299 18.3696778,18.4783097 C18.2383523,18.4245133 18.124696,18.351198 18.0291865,18.2574115 C17.933677,18.163625 17.8591795,18.0522238 17.8042616,17.9246361 C17.7498212,17.7965723 17.722601,17.6575588 17.722601,17.5075956 C17.722601,17.3576324 17.7498212,17.2186189 17.8042616,17.0905552 C17.8591795,16.9629674 17.933677,16.8520423 18.0291865,16.7582558 C18.124696,16.6644693 18.2383523,16.5906779 18.3696778,16.5373576 C18.5014809,16.4835613 18.6447452,16.4569012 18.7994706,16.4569012 Z M7.52170885,17.5009306 C7.52170885,17.1514926 7.75188675,16.8644202 8.12676153,16.8644202 C8.4853997,16.8644202 8.72751628,17.1391147 8.72751628,17.5009306 C8.72751628,17.8627465 8.4853997,18.1369649 8.12676153,18.1369649 C7.75188675,18.1369649 7.52170885,17.8503686 7.52170885,17.5009306 Z M9.13629694,17.5009306 L9.13629694,16.5068889 L8.70268381,16.5068889 L8.70268381,16.7482582 C8.56467259,16.5692546 8.35646188,16.4569012 8.07279866,16.4569012 C7.51359054,16.4569012 7.07567949,16.8934607 7.07567949,17.5009306 C7.07567949,18.1079244 7.51359054,18.54496 8.07279866,18.54496 C8.35646188,18.54496 8.56467259,18.4326066 8.70268381,18.2536029 L8.70268381,18.4949722 L9.13629694,18.4949722 L9.13629694,17.5009306 Z M6.6917313,18.4949722 L6.6917313,17.2471834 C6.6917313,16.7772987 6.39135392,16.4611859 5.90759831,16.4569012 C5.65306549,16.4526165 5.38993682,16.5316448 5.20655858,16.8106239 C5.0690249,16.5902018 4.85174079,16.4569012 4.54754303,16.4569012 C4.33455685,16.4569012 4.12586859,16.5192669 3.96302489,16.7520668 L3.96302489,16.5068889 L3.52941176,16.5068889 L3.52941176,18.4949722 L3.96732282,18.4949722 L3.96732282,17.3928619 C3.96732282,17.0477085 4.15929692,16.8644202 4.45537636,16.8644202 C4.74333751,16.8644202 4.88946704,17.0515171 4.88946704,17.3885772 L4.88946704,18.4949722 L5.3273781,18.4949722 L5.3273781,17.3928619 C5.3273781,17.0477085 5.52794805,16.8644202 5.81543164,16.8644202 C6.11198864,16.8644202 6.25382024,17.0515171 6.25382024,17.3885772 L6.25382024,18.4949722 L6.6917313,18.4949722 Z"/></g></g></svg>