<svg width="30" height="30" viewBox="0 0 30 30" xmlns="http://www.w3.org/2000/svg"><g fill="none" fill-rule="evenodd"><path d="M0 0h30v30H0z"/><path d="M15 7.578a7.327 7.327 0 0 0 0 11.578c.096-.075.19-.152.28-.232A7.327 7.327 0 0 0 15 7.578zM19.584 6c-1.519 0-2.93.453-4.106 1.231.06.049.121.097.18.148a7.912 7.912 0 0 1 2.749 5.987 7.913 7.913 0 0 1-2.75 5.988c-.058.05-.119.099-.18.148a7.417 7.417 0 0 0 4.107 1.23c4.096 0 7.416-3.297 7.416-7.365C27 9.298 23.68 6 19.584 6zm-5.241 13.354c.058.05.119.099.18.148a7.416 7.416 0 0 1-4.106 1.23C6.32 20.733 3 17.436 3 13.367 3 9.298 6.32 6 10.416 6c1.519 0 2.93.453 4.106 1.231l-.18.147a7.913 7.913 0 0 0-2.748 5.988 7.912 7.912 0 0 0 2.749 5.988zm12.425-1.423v-.286h-.075l-.087.197-.086-.197h-.075v.286h.053v-.216l.08.186h.056l.08-.186v.216h.054zm-.476 0v-.237h.096v-.048h-.245v.048h.096v.237h.053zM23.367 24.345v.049h.045c.01 0 .019-.002.025-.006a.022.022 0 0 0 .01-.019.021.021 0 0 0-.01-.018.042.042 0 0 0-.025-.006h-.045zm.046-.034c.023 0 .041.005.054.015.013.01.02.025.02.043a.05.05 0 0 1-.016.038.077.077 0 0 1-.043.018l.06.069h-.047l-.056-.069h-.018v.069h-.04v-.183h.086zm-.013.246a.159.159 0 0 0 .109-.045.152.152 0 0 0 .033-.049.148.148 0 0 0 0-.12.15.15 0 0 0-.082-.081.145.145 0 0 0-.06-.012.151.151 0 0 0-.06.012.15.15 0 0 0-.094.141.156.156 0 0 0 .045.11c.013.013.03.024.049.032.018.008.039.012.06.012zm0-.352c.03 0 .055.006.079.016a.197.197 0 0 1 .108.259.206.206 0 0 1-.266.105.204.204 0 0 1-.107-.105.18.18 0 0 1-.016-.077.18.18 0 0 1 .016-.077.195.195 0 0 1 .107-.105.204.204 0 0 1 .08-.016zm-3.186-1.748c.087 0 .213.017.309.054l-.134.408a.705.705 0 0 0-.271-.05c-.284 0-.426.183-.426.511v1.115h-.434v-1.988h.43v.241a.59.59 0 0 1 .526-.291zm-1.604.445h-.71v.898c0 .2.071.333.289.333a.801.801 0 0 0 .383-.112l.125.37a1.02 1.02 0 0 1-.542.154c-.513 0-.692-.275-.692-.737v-.906h-.405v-.395h.405v-.603h.438v.603h.71v.395zm-5.553.424c.046-.287.221-.483.53-.483.279 0 .459.175.504.483h-1.034zm1.485.175c-.004-.62-.388-1.044-.947-1.044-.584 0-.993.424-.993 1.044 0 .632.425 1.043 1.022 1.043.3 0 .576-.074.818-.278l-.213-.32a.95.95 0 0 1-.58.208c-.28 0-.534-.13-.596-.487h1.48c.005-.054.01-.108.01-.166zm1.907-.487a1.282 1.282 0 0 0-.622-.17c-.238 0-.379.087-.379.233 0 .133.15.17.338.195l.204.029c.434.063.696.246.696.595 0 .379-.333.649-.909.649-.326 0-.626-.083-.864-.258l.205-.337c.146.112.363.208.663.208.296 0 .455-.087.455-.241 0-.112-.112-.175-.35-.208l-.205-.03c-.446-.062-.688-.261-.688-.586 0-.395.325-.636.83-.636.317 0 .605.07.813.208l-.187.35zm5.35-.146a.659.659 0 0 0-.248.046.597.597 0 0 0-.33.334.682.682 0 0 0-.049.26c0 .094.016.18.048.26a.597.597 0 0 0 .33.334.65.65 0 0 0 .25.045c.089 0 .172-.015.248-.046a.597.597 0 0 0 .333-.334.68.68 0 0 0 .048-.26.682.682 0 0 0-.048-.259.605.605 0 0 0-.582-.38zm0-.411c.156 0 .298.027.43.08a1.011 1.011 0 0 1 .568.553c.055.129.082.268.082.418 0 .15-.027.289-.082.417a1.013 1.013 0 0 1-.568.553c-.132.054-.274.08-.43.08-.154 0-.298-.026-.43-.08a1.045 1.045 0 0 1-.34-.22 1.033 1.033 0 0 1-.306-.75 1.03 1.03 0 0 1 .647-.97c.131-.054.275-.081.43-.081zM10.522 23.5c0-.35.23-.637.605-.637.358 0 .6.275.6.637s-.242.636-.6.636c-.375 0-.605-.287-.605-.636zm1.614 0v-.994h-.433v.241a.757.757 0 0 0-.63-.291c-.56 0-.997.436-.997 1.044 0 .607.438 1.044.997 1.044a.757.757 0 0 0 .63-.291v.241h.433v-.994zm-2.444.994v-1.248c0-.47-.3-.786-.784-.79-.255-.004-.518.075-.701.354a.733.733 0 0 0-.66-.354.661.661 0 0 0-.584.295v-.245h-.434v1.988h.438v-1.102c0-.345.192-.529.488-.529.288 0 .434.188.434.525v1.106h.438v-1.102c0-.345.2-.529.488-.529.297 0 .439.188.439.525v1.106h.438z" fill="#FFF" fill-opacity=".9"/></g></svg>