<svg xmlns="http://www.w3.org/2000/svg" width="48" height="48" viewBox="0 0 48 48"><g fill="none" fill-rule="evenodd"><polygon points="0 0 48 0 48 48 0 48"/><g fill="#0B1F35" fill-rule="nonzero" transform="translate(2 2)"><path d="M31,30 L38,17.9 C40.1,19.1 41.9,20.9 43.1,23 C44.3,25.1 45,27.5 45,30 L31,30 Z M7.6,0 L7.4,0 C6.6,0 6,0.6 6,1.4 L6,5.5 C6,6.4 6.6,7 7.4,7 L7.5,7 C8.4,7 9,6.4 9,5.6 L9,1.4 C9,0.6 8.4,0 7.6,0 Z M23.6,0 L23.5,0 C22.6,0 22,0.6 22,1.4 L22,5.5 C22,6.4 22.6,7 23.4,7 L23.5,7 C24.4,7 25,6.4 25,5.6 L25,1.4 C25,0.6 24.4,0 23.6,0 Z" opacity=".3"/><path d="M15,30 L3.5,30 C1.6,30 0,28.4 0,26.5 L0,6.5 C0,4.6 1.6,3 3.5,3 L6,3 L6,4 L3.5,4 C2.1,4 1,5.1 1,6.5 L1,26.5 C1,27.9 2.1,29 3.5,29 L15,29 L15,30 Z M31,14 L30,14 L30,6.5 C30,5.1 28.9,4 27.5,4 L25,4 L25,3 L27.5,3 C29.4,3 31,4.6 31,6.5 L31,14 Z M9,3 L22,3 L22,4 L9,4 L9,3 Z M31,44 C23.3,44 17,37.7 17,30 C17,22.3 23.3,16 31,16 L31,17 C23.8,17 18,22.8 18,30 C18,37.2 23.8,43 31,43 C37.1,43 42.5,38.6 43.7,32.6 L44.7,32.8 C43.4,39.3 37.6,44 31,44 Z"/><path d="M34.8,17.6 C33.6,17.2 32.3,17 31,17 L31,16 C32.4,16 33.8,16.2 35.1,16.6 L34.8,17.6 Z"/></g></g></svg>