<svg width="24" height="24" viewBox="0 0 24 24" xmlns="http://www.w3.org/2000/svg">
  <g fill="none" fill-rule="evenodd">
    <path d="M0 0h24v24H0z"/>
    <path d="M6 .5c-.6 0-1 .4-1 1v3c0 .6.4 1 1 1s1-.4 1-1v-3c0-.6-.4-1-1-1zM13 .5c-.6 0-1 .4-1 1v3c0 .6.4 1 1 1s1-.4 1-1v-3c0-.6-.4-1-1-1z" fill="#0B1F35" opacity=".3"/>
    <path d="M8 16H4c-1.1 0-2-.9-2-2V5c0-1.1.9-2 2-2h1v1H4c-.6 0-1 .4-1 1v9c0 .6.4 1 1 1h4v1zM17 7.8h-1V5c0-.6-.4-1-1-1h-1V3h1c1.1 0 2 .9 2 2v2.8zM7 3h5v1H7zM16 23c-3.9 0-7-3.1-7-7s3.1-7 7-7v1c-3.3 0-6 2.7-6 6s2.7 6 6 6c2.8 0 5.3-2 5.9-4.8l1 .2c-.7 3.2-3.6 5.6-6.9 5.6z" fill="#0B1F35"/>
    <path d="M16 16l3.5-6.1c1.1.6 1.9 1.5 2.6 2.6.7 1.1.9 2.3.9 3.5h-7z" fill="#0B1F35" opacity=".3"/>
    <path d="M17.8 10.3c-.6-.2-1.2-.3-1.8-.3V9c.7 0 1.4.1 2.1.3l-.3 1z" fill="#0B1F35"/>
  </g>
</svg>
