<svg width="48" height="48" viewBox="0 0 48 48" xmlns="http://www.w3.org/2000/svg">
  <g fill="none" fill-rule="evenodd">
    <path d="M0 0h48v48H0z"/>
    <path d="M33 32l7-12.1c2.1 1.2 3.9 3 5.1 5.1 1.2 2.1 1.9 4.5 1.9 7H33zM9.6 2h-.2C8.6 2 8 2.6 8 3.4v4.1C8 8.4 8.6 9 9.4 9h.1c.9 0 1.5-.6 1.5-1.4V3.4c0-.8-.6-1.4-1.4-1.4zM25.6 2h-.1c-.9 0-1.5.6-1.5 1.4v4.1c0 .9.6 1.5 1.4 1.5h.1c.9 0 1.5-.6 1.5-1.4V3.4c0-.8-.6-1.4-1.4-1.4z" fill="#FFF" opacity=".3"/>
    <path d="M17 32H5.5C3.6 32 2 30.4 2 28.5v-20C2 6.6 3.6 5 5.5 5H8v1H5.5C4.1 6 3 7.1 3 8.5v20C3 29.9 4.1 31 5.5 31H17v1zM33 16h-1V8.5C32 7.1 30.9 6 29.5 6H27V5h2.5C31.4 5 33 6.6 33 8.5V16zM11 5h13v1H11zM33 46c-7.7 0-14-6.3-14-14s6.3-14 14-14v1c-7.2 0-13 5.8-13 13s5.8 13 13 13c6.1 0 11.5-4.4 12.7-10.4l1 .2C45.4 41.3 39.6 46 33 46z" fill="#FFF"/>
    <path d="M36.8 19.6c-1.2-.4-2.5-.6-3.8-.6v-1c1.4 0 2.8.2 4.1.6l-.3 1z" fill="#FFF"/>
  </g>
</svg>
