<svg xmlns="http://www.w3.org/2000/svg" width="36" height="36" viewBox="0 0 36 36"><g fill="none" fill-rule="evenodd"><polygon points="0 0 36 0 36 36 0 36"/><g fill="#0B1F35" fill-rule="nonzero" transform="translate(1 1)"><path d="M6,0 C5.4,0 5,0.4 5,1 L5,4 C5,4.5 5.4,5 6,5 C6.5,5 7,4.6 7,4 L7,1 C7,0.4 6.6,0 6,0 Z M17,0 C16.4,0 16,0.4 16,1 L16,4 C16,4.5 16.4,5 17,5 C17.5,5 18,4.6 18,4 L18,1 C18,0.4 17.6,0 17,0 Z" opacity=".3"/><path d="M10,23 L2.8,23 C1.2,23 0,21.8 0,20.2 L0,4.8 C0,3.2 1.2,2 2.8,2 L5,2 L5,3 L2.8,3 C1.8,3 1,3.8 1,4.8 L1,20.3 C1,21.3 1.8,22.1 2.8,22.1 L10,22.1 L10,23 Z M23,10 L22,10 L22,4.8 C22,3.8 21.2,3 20.2,3 L18,3 L18,2 L20.2,2 C21.8,2 23,3.2 23,4.8 L23,10 Z M7,2 L16,2 L16,3 L7,3 L7,2 Z"/><path d="M23,23 L28.5,13.5 C30.2,14.5 31.6,15.9 32.5,17.5 C33.4,19.1 34,21.1 34,23 L23,23 Z" opacity=".3"/><path d="M23,34 C16.9,34 12,29.1 12,23 C12,16.9 16.9,12 23,12 L23,13 C17.5,13 13,17.5 13,23 C13,28.5 17.5,33 23,33 C27.7,33 31.8,29.6 32.8,25 L33.8,25.2 C32.7,30.3 28.2,34 23,34 Z"/><path d="M26,13.5 C25,13.2 24,13 23,13 L23,12 C24.1,12 25.2,12.2 26.3,12.5 L26,13.5 Z"/></g></g></svg>