<svg width="36" height="36" viewBox="0 0 36 36" xmlns="http://www.w3.org/2000/svg">
  <g fill="none" fill-rule="evenodd">
    <path d="M0 0h36v36H0z"/>
    <path d="M7 1c-.6 0-1 .4-1 1v3c0 .5.4 1 1 1 .5 0 1-.4 1-1V2c0-.6-.4-1-1-1zM18 1c-.6 0-1 .4-1 1v3c0 .5.4 1 1 1 .5 0 1-.4 1-1V2c0-.6-.4-1-1-1z" fill="#0B1F35" opacity=".3"/>
    <path d="M11 24H3.8C2.2 24 1 22.8 1 21.2V5.8C1 4.2 2.2 3 3.8 3H6v1H3.8C2.8 4 2 4.8 2 5.8v15.5c0 1 .8 1.8 1.8 1.8H11v.9zM24 11h-1V5.8c0-1-.8-1.8-1.8-1.8H19V3h2.2C22.8 3 24 4.2 24 5.8V11zM8 3h9v1H8z" fill="#0B1F35"/>
    <path d="M24 24l5.5-9.5c1.7 1 3.1 2.4 4 4 .9 1.6 1.5 3.6 1.5 5.5H24z" fill="#0B1F35" opacity=".3"/>
    <path d="M24 35c-6.1 0-11-4.9-11-11s4.9-11 11-11v1c-5.5 0-10 4.5-10 10s4.5 10 10 10c4.7 0 8.8-3.4 9.8-8l1 .2C33.7 31.3 29.2 35 24 35z" fill="#0B1F35"/>
    <path d="M27 14.5c-1-.3-2-.5-3-.5v-1c1.1 0 2.2.2 3.3.5l-.3 1z" fill="#0B1F35"/>
  </g>
</svg>
