<svg xmlns="http://www.w3.org/2000/svg" width="24" height="24" viewBox="0 0 24 24"><g fill="none" fill-rule="evenodd"><polygon points="0 0 24 0 24 24 0 24"/><g fill="#0B1F35" fill-rule="nonzero" transform="translate(2)"><path d="M4,0.5 C3.4,0.5 3,0.9 3,1.5 L3,4.5 C3,5.1 3.4,5.5 4,5.5 C4.6,5.5 5,5.1 5,4.5 L5,1.5 C5,0.9 4.6,0.5 4,0.5 Z M11,0.5 C10.4,0.5 10,0.9 10,1.5 L10,4.5 C10,5.1 10.4,5.5 11,5.5 C11.6,5.5 12,5.1 12,4.5 L12,1.5 C12,0.9 11.6,0.5 11,0.5 Z" opacity=".3"/><path d="M6,16 L2,16 C0.9,16 0,15.1 0,14 L0,5 C0,3.9 0.9,3 2,3 L3,3 L3,4 L2,4 C1.4,4 1,4.4 1,5 L1,14 C1,14.6 1.4,15 2,15 L6,15 L6,16 Z M15,7.8 L14,7.8 L14,5 C14,4.4 13.6,4 13,4 L12,4 L12,3 L13,3 C14.1,3 15,3.9 15,5 L15,7.8 Z M5,3 L10,3 L10,4 L5,4 L5,3 Z M14,23 C10.1,23 7,19.9 7,16 C7,12.1 10.1,9 14,9 L14,10 C10.7,10 8,12.7 8,16 C8,19.3 10.7,22 14,22 C16.8,22 19.3,20 19.9,17.2 L20.9,17.4 C20.2,20.6 17.3,23 14,23 Z"/><path d="M14,16 L17.5,9.9 C18.6,10.5 19.4,11.4 20.1,12.5 C20.8,13.6 21,14.8 21,16 L14,16 Z" opacity=".3"/><path d="M15.8,10.3 C15.2,10.1 14.6,10 14,10 L14,9 C14.7,9 15.4,9.1 16.1,9.3 L15.8,10.3 Z"/></g></g></svg>