<?xml version="1.0" encoding="UTF-8"?>
<svg width="24px" height="24px" viewBox="0 0 24 24" version="1.1" xmlns="http://www.w3.org/2000/svg" xmlns:xlink="http://www.w3.org/1999/xlink">
    <!-- Generator: Sketch 48.2 (47327) - http://www.bohemiancoding.com/sketch -->
    <title>icon_category-dress_m_black</title>
    <desc>Created with Sketch.</desc>
    <defs></defs>
    <g id="mobile" stroke="none" stroke-width="1" fill="none" fill-rule="evenodd" transform="translate(-1019.000000, -246.000000)">
        <g id="Headings" transform="translate(64.000000, 77.000000)">
            <g id="icon_category_clothing__m__white" transform="translate(955.000000, 169.000000)">
                <g id="ungroup">
                    <rect id="Rectangle-path" x="0" y="0" width="24" height="24"></rect>
                    <g id="a1" opacity="0.4"></g>
                    <path d="M23,1 L15.472,1 L15.374,1.375 C14.974,2.92 13.586,4 12,4 C10.414,4 9.026,2.92 8.626,1.375 L8.528,1 L1,1 L1,8 L5,8 L5,23 L19,23 L19,8 L23,8 L23,1 L23,1 Z M22,7 L18,7 L18,22 L6,22 L6,7 L2,7 L2,2 L7.772,2 C8.402,3.785 10.089,5 12,5 C13.911,5 15.598,3.785 16.228,2 L22,2 L22,7 L22,7 Z" id="Shape" fill="#0B1F35"></path>
                    <rect id="Rectangle-path" fill="#0B1F35" opacity="0.3" x="5.5" y="8" width="13" height="3"></rect>
                </g>
            </g>
        </g>
    </g>
</svg>