<?xml version="1.0" encoding="UTF-8"?>
<svg width="36px" height="36px" viewBox="0 0 36 36" version="1.1" xmlns="http://www.w3.org/2000/svg" xmlns:xlink="http://www.w3.org/1999/xlink">
    <!-- Generator: Sketch 48.2 (47327) - http://www.bohemiancoding.com/sketch -->
    <title>icon_category-dress_xl_white</title>
    <desc>Created with Sketch.</desc>
    <defs></defs>
    <g id="mobile" stroke="none" stroke-width="1" fill="none" fill-rule="evenodd" transform="translate(-1083.000000, -246.000000)">
        <g id="Headings" transform="translate(64.000000, 77.000000)">
            <g id="icon_category_clothing__xl__white" transform="translate(1019.000000, 169.000000)">
                <g id="ungroup">
                    <rect id="Rectangle-path" x="0" y="0" width="36" height="36"></rect>
                    <g id="a1" opacity="0.4"></g>
                    <path d="M2,11 L7.904,11 L7.904,33 L28.095,33 L28.095,11 L34,11 L34,1 L23.31,1 L23.212,1.375 C22.633,3.611 20.636,5 18,5 C15.364,5 13.367,3.611 12.788,1.375 L12.69,1 L2,1 L2,11 L2,11 Z M3,2 L11.931,2 C12.743,4.443 15.081,6 18,6 C20.919,6 23.258,4.443 24.069,2 L33,2 L33,10 L27.096,10 L27.096,32 L8.904,32 L8.904,10 L3,10 L3,2 L3,2 Z" id="Shape" fill="#FFFFFF"></path>
                    <rect id="Rectangle-path" fill="#FFFFFF" opacity="0.3" x="8.5" y="12" width="19" height="4"></rect>
                </g>
            </g>
        </g>
    </g>
</svg>