<svg xmlns="http://www.w3.org/2000/svg" width="18" height="18" viewBox="0 0 18 18" fill="none"><rect width="18" height="18" fill="none"/><path d="M9.56863 4H8V9.4902L10.9804 12L12 10.8235L9.56863 8.78431V4Z" fill="#0B1F35" fill-opacity="0.3"/><path fill-rule="evenodd" clip-rule="evenodd" d="M9 15.9333C12.8292 15.9333 15.9333 12.8292 15.9333 9C15.9333 5.17083 12.8292 2.06667 9 2.06667C5.17083 2.06667 2.06667 5.17083 2.06667 9C2.06667 12.8292 5.17083 15.9333 9 15.9333ZM9 17C13.4183 17 17 13.4183 17 9C17 4.58172 13.4183 1 9 1C4.58172 1 1 4.58172 1 9C1 13.4183 4.58172 17 9 17Z" fill="#0B1F35"/></svg>