<svg width="24px" height="24px" viewBox="0 0 24 24" version="1.1" xmlns="http://www.w3.org/2000/svg"><g stroke="none" stroke-width="1" fill="none" fill-rule="evenodd" transform="translate(-292.000000, -477.000000)"><g transform="translate(292.000000, 477.000000)"><rect x="0" y="0" width="24" height="24"/><polygon fill="#0B1F35" opacity="0.3" points="13 6 11 6 11 13 14.8 16.2 16.1 14.7 13 12.1"/><path d="M2,12 C2,17.5 6.5,22 12,22 C17.5,22 22,17.5 22,12 C22,6.5 17.5,2 12,2 C6.5,2 2,6.5 2,12 L2,12 Z M12,3 C17,3 21,7 21,12 C21,17 17,21 12,21 C7,21 3,17 3,12 C3,7 7,3 12,3 L12,3 Z" fill="#0B1F35"/></g></g></svg>