<svg xmlns="http://www.w3.org/2000/svg" width="24" height="24" viewBox="0 0 24 24"><g fill="none" fill-rule="evenodd"><path d="M0 0h24v24H0z"/><path fill="#0B1F35" fill-rule="nonzero" d="M12 23c6.075 0 11-4.925 11-11S18.075 1 12 1 1 5.925 1 12s4.925 11 11 11zm0-1C6.477 22 2 17.523 2 12S6.477 2 12 2s10 4.477 10 10-4.477 10-10 10z"/><path fill="#0B1F35" d="M13 11.315V7.99A1 1 0 0 0 12 7c-.556 0-1 .444-1 .99v3.63a.996.996 0 0 0 .016.562c.078.433.444.775.897.814l4.544 2.624a.994.994 0 0 0 1.364-.367.997.997 0 0 0-.364-1.365L13 11.315z" opacity=".3"/></g></svg>