<?xml version="1.0" encoding="UTF-8"?>
<svg width="36px" height="36px" viewBox="0 0 36 36" version="1.1" xmlns="http://www.w3.org/2000/svg" xmlns:xlink="http://www.w3.org/1999/xlink">
    <!-- Generator: Sketch 49.3 (51167) - http://www.bohemiancoding.com/sketch -->
    <title>icon_category-state_xl_white</title>
    <desc>Created with Sketch.</desc>
    <defs></defs>
    <g id="set" stroke="none" stroke-width="1" fill="none" fill-rule="evenodd">
        <g id="mobile" transform="translate(-1083.000000, -1002.000000)">
            <g id="Headings" transform="translate(64.000000, 77.000000)"></g>
            <g id="icon_category_state__xl__white-copy" transform="translate(1083.000000, 1002.000000)">
                <rect id="Rectangle-path" x="0" y="0" width="36" height="36"></rect>
                <g id="ungroup" transform="translate(0.000000, 1.000000)" fill="#FFFFFF">
                    <path d="M33.8599,14.3653 C33.4529,14.8863 29.2019,17.3943 25.2629,17.3943 C27.1569,18.9183 29.3979,19.4973 31.7679,18.8603 C29.6289,21.8573 27.0729,22.3913 24.7619,22.4553 L24.5559,22.4583 C23.0449,22.4583 21.4589,22.0303 21.4419,22.0253 L20.5509,21.7823 L20.2369,22.6513 C19.5179,24.6503 21.4929,25.9943 23.0789,27.0743 C24.2499,27.8703 25.5759,28.7733 25.5079,29.5883 C25.4549,30.2203 24.4549,30.5303 23.4469,29.8943 C23.0479,31.1553 21.9549,31.7183 20.5499,30.3623 C20.3849,31.4063 19.0949,32.6513 17.9999,32.6513 C16.9049,32.6513 15.6149,31.4063 15.4499,30.3623 C14.0459,31.7183 12.9519,31.1553 12.5529,29.8943 C11.5459,30.5303 10.5459,30.2203 10.4919,29.5883 C10.4239,28.7733 11.7509,27.8703 12.9219,27.0743 C14.5069,25.9943 16.4819,24.6503 15.7629,22.6513 L15.4489,21.7823 L14.5579,22.0253 C14.5419,22.0303 12.9559,22.4583 11.4439,22.4583 L11.2379,22.4553 C8.9269,22.3913 6.3719,21.8573 4.2319,18.8603 C6.6019,19.4973 8.8429,18.9183 10.7369,17.3943 C6.7979,17.3943 2.5479,14.8863 2.1399,14.3653 C1.4289,12.8293 0.6549,9.9293 1.1609,6.9693 C2.3109,9.2313 4.1849,10.1363 4.2909,10.1953 C5.4519,10.8433 6.7639,10.9053 6.7639,10.9053 C6.7639,10.9053 3.5039,5.4383 3.2819,3.8763 C3.1659,3.0583 3.4959,2.3403 3.8809,1.8053 C4.7649,3.7903 6.1729,5.7023 8.0839,7.5073 L8.5209,7.9203 C8.9579,8.3123 9.4049,8.6983 9.8729,9.0683 C10.0329,9.1953 10.0649,9.3643 10.0989,9.9213 C10.1279,10.3823 10.1629,10.9563 10.4669,11.5083 C11.3709,13.1393 13.2769,13.5683 14.3639,11.8863 C15.3109,10.4193 16.1849,7.0533 14.7119,3.7923 C14.3319,2.9493 13.3999,2.6263 12.5279,2.6543 L11.6119,2.2243 C11.5039,2.1743 11.3959,2.1273 11.2909,2.0863 C11.5059,1.9853 11.6979,1.8623 11.8699,1.7523 C12.1059,1.5993 12.3499,1.4423 12.5199,1.4423 C12.8479,1.4533 13.3039,1.5923 13.7889,1.7393 C14.1599,1.8513 14.5569,1.9723 14.9759,2.0613 L15.1489,2.3283 C15.2579,2.4963 15.3859,2.7323 15.4119,2.8103 C15.4799,3.0463 17.9999,11.4283 17.9999,11.4283 L17.9999,11.4273 L18.0009,11.4283 C18.0009,11.4283 20.5199,3.0463 20.5889,2.8103 C20.6139,2.7323 20.7419,2.4963 20.8509,2.3283 L21.0239,2.0613 C21.4429,1.9723 21.8399,1.8513 22.2119,1.7393 C22.6959,1.5923 23.1519,1.4533 23.4799,1.4423 C23.6499,1.4423 23.8939,1.5993 24.1309,1.7523 C24.3019,1.8623 24.4949,1.9853 24.7099,2.0863 C24.6039,2.1273 24.4969,2.1743 24.3879,2.2243 L23.4719,2.6543 C22.5999,2.6263 21.6679,2.9503 21.2889,3.7923 C19.8149,7.0533 20.6889,10.4193 21.6359,11.8863 C22.7219,13.5673 24.6289,13.1403 25.5329,11.5083 C25.8379,10.9563 25.8729,10.3823 25.9009,9.9213 C25.9349,9.3643 25.9669,9.1953 26.1279,9.0683 C26.5949,8.6983 27.0429,8.3123 27.4789,7.9203 L27.9169,7.5073 C29.8269,5.7023 31.2349,3.7903 32.1189,1.8053 C32.5049,2.3403 32.8349,3.0583 32.7179,3.8763 C32.4969,5.4383 29.2359,10.9053 29.2359,10.9053 C29.2359,10.9053 30.5479,10.8433 31.7099,10.1953 C31.8149,10.1363 33.6889,9.2313 34.8389,6.9693 C35.3449,9.9293 34.5709,12.8293 33.8599,14.3653 M34.7179,3.5243 C34.4949,7.7703 31.2819,9.2923 31.2819,9.2923 C31.2819,9.2923 33.4049,6.1553 33.7089,4.0163 C34.0489,1.6133 31.7289,0.0003 31.7289,0.0003 C30.9409,2.5793 29.3019,4.8223 27.2299,6.7793 C27.0899,6.9113 26.8099,7.1773 26.8099,7.1773 C26.3889,7.5553 25.9579,7.9283 25.5069,8.2843 C24.5999,9.0023 25.1319,10.1643 24.6579,11.0233 C23.6619,12.8243 22.5009,11.7063 21.9969,10.3503 C21.2689,8.3973 21.3429,6.1003 22.1999,4.2033 C22.5939,3.3303 24.0049,3.6873 24.7059,3.8423 C25.6799,4.0563 25.1089,4.8203 25.1089,4.8203 C25.4169,4.8223 25.6139,4.5973 25.6849,4.3043 C25.8249,3.7263 24.8129,3.1303 24.8129,3.1303 C25.4199,2.8453 26.5079,2.5283 26.8879,3.3193 C27.8749,1.5983 26.7299,1.2883 25.5439,1.2853 C24.7669,1.2843 24.2669,0.4153 23.4469,0.4433 C22.0319,0.4903 20.7819,1.3943 19.3269,1.1583 C19.3269,1.1583 19.4799,1.6553 20.0129,1.7823 C19.4349,2.6773 19.2359,3.8413 18.9339,4.8473 C18.6229,5.8833 18.3109,6.9193 17.9999,7.9553 C17.6889,6.9193 17.3779,5.8833 17.0659,4.8473 C16.7629,3.8403 16.5649,2.6773 15.9869,1.7823 C16.5199,1.6553 16.6729,1.1583 16.6729,1.1583 C15.2189,1.3933 13.9659,0.4903 12.5529,0.4433 C11.7349,0.4153 11.2309,1.2843 10.4569,1.2853 C9.2699,1.2883 8.1259,1.5983 9.1119,3.3193 C9.4739,2.5213 10.5959,2.8523 11.1869,3.1303 C11.1869,3.1303 10.1749,3.7263 10.3149,4.3043 C10.3819,4.5843 10.5859,4.8323 10.8909,4.8203 C10.8909,4.8203 10.3199,4.0563 11.2949,3.8423 C11.9979,3.6873 13.4059,3.3303 13.7999,4.2033 C14.6579,6.1023 14.7279,8.3943 14.0039,10.3503 C13.5029,11.7043 12.3389,12.8273 11.3419,11.0233 C10.8669,10.1643 11.3999,9.0023 10.4929,8.2843 C10.0429,7.9283 9.6109,7.5553 9.1899,7.1773 C9.1899,7.1773 8.9099,6.9113 8.7699,6.7793 C6.6979,4.8223 5.0589,2.5793 4.2709,0.0003 C4.2709,0.0003 1.9509,1.6133 2.2919,4.0163 C2.5949,6.1553 4.7179,9.2923 4.7179,9.2923 C4.7179,9.2923 1.5059,7.7703 1.2819,3.5243 C-0.9571,7.7163 0.2099,12.5743 1.2329,14.7853 C1.6309,15.6453 6.0909,17.9283 8.0909,17.8343 C8.0909,17.8343 4.9919,19.0553 1.7899,16.5003 C4.2669,22.2163 7.8399,23.3623 11.2109,23.4553 C12.9549,23.5033 14.8219,22.9903 14.8219,22.9903 C15.7249,25.5013 9.2599,26.8453 9.4959,29.6713 C9.6049,30.9793 10.9669,31.5243 12.0909,31.1223 C12.6199,32.0733 14.0459,32.6503 15.0769,31.8853 C16.1759,34.1583 19.8229,34.1593 20.9229,31.8853 C21.9549,32.6503 23.3809,32.0733 23.9089,31.1223 C25.0329,31.5243 26.3949,30.9793 26.5049,29.6713 C26.7399,26.8453 20.2749,25.5013 21.1779,22.9903 C21.1779,22.9903 23.0459,23.5033 24.7899,23.4553 C28.1599,23.3623 31.7329,22.2163 34.2109,16.5003 C31.0069,19.0553 27.9079,17.8343 27.9079,17.8343 C29.9089,17.9283 34.3689,15.6453 34.7669,14.7853 C35.7909,12.5743 36.9579,7.7163 34.7179,3.5243" id="Fill-1"></path>
                </g>
            </g>
        </g>
    </g>
</svg>
