<svg xmlns="http://www.w3.org/2000/svg" xmlns:xlink="http://www.w3.org/1999/xlink" width="24" height="24" viewBox="0 0 24 24"><defs><path id="a" d="M11.993.247c.667 2 2.5 3 5.5 3l1.5 3c-4.666-.666-7-2.666-7-6z"/></defs><g fill="none" fill-rule="evenodd"><path d="M0 0h24v24H0z"/><g fill="#FFF" transform="translate(1.966 7.75)"><path d="M10.023 10.124l-3.03 1.623 3.03 1.173 2.97-1.173zM.993.247c.667 2 2.5 3 5.5 3l1.5 3c-4.666-.666-7-2.666-7-6z" opacity=".3"/><use opacity=".3" transform="matrix(-1 0 0 1 30.986 0)" xlink:href="#a"/></g><path stroke="#FFF" d="M11.99 9.488s0-5.492 1.161-6.988c0 0 1.74.002 2.808 0 2.5-.004 2.5.996 2.5 1.996-.228 0-1.771-.002-2 0-2.323.029-2.147 3.827.555 3.827 2.7 0 4.465-4.507 4.5-4.425 3.252 7.686-2.34 11.646-7.434 11.646-.228 0 2.032 3.96 2.032 4.193 0 .233-3.665 1.863-4.122 1.863"/><path stroke="#FFF" d="M11.99 9.488s-.03-5.492-1.53-6.988h-3c-1.5 0-2 .496-2 1.996.228 0 .861-.002 1.09 0 2.323.029 3.117 3.827.415 3.827-2.7 0-4.465-4.507-4.5-4.425-3.252 7.686 2.34 11.646 7.434 11.646.229 0-2.032 3.96-2.032 4.193 0 .233 3.665 1.863 4.123 1.863"/></g></svg>