<svg width="24" height="24" viewBox="0 0 24 24" fill="none" xmlns="http://www.w3.org/2000/svg"><rect width="24" height="24" fill="none"/><path d="M9.5 11.9765C9.5 11.4372 9.94853 11 10.5019 11H13.4981C14.0515 11 14.5 11.4372 14.5 11.9765V14.6552C14.5 15.398 13.8823 16.0002 13.1202 16.0002C12.8501 16.0002 12.5937 16.1158 12.4189 16.3166L12.2701 16.4875C12.1286 16.65 11.8714 16.65 11.7299 16.4875L11.5811 16.3166C11.4063 16.1158 11.1499 16.0002 10.8798 16.0002C10.1177 16.0002 9.5 15.398 9.5 14.6552V11.9765Z" fill="#0B1F35" fill-opacity="0.3"/><path d="M10.6587 3.5H13.3409C13.7748 2.91471 13.9986 2.62953 14.2383 2.20521C14.9019 1.0307 14.3552 -2.16107e-05 12.0001 3.39832e-10C9.64499 2.16121e-05 9.09799 1.03061 9.76159 2.20513C10.0013 2.62944 10.2248 2.76839 10.6587 3.5Z" fill="#0B1F35" fill-opacity="0.3"/><path fill-rule="evenodd" clip-rule="evenodd" d="M13.1574 4.21966C14.0416 3.31829 15.2711 2.72937 16.5894 3.12402C16.6048 3.12863 16.62 3.13399 16.6349 3.14008C17.0818 3.32243 17.6341 3.63431 17.983 4.11811C18.1631 4.3679 18.2929 4.66952 18.3151 5.01887C18.3374 5.36816 18.2499 5.72864 18.0538 6.09262C17.93 6.32239 17.6503 6.41827 17.4116 6.31278C17.0287 6.14359 16.4015 6.02319 15.9119 6.1956C15.6839 6.27589 15.4814 6.41998 15.329 6.67075C15.1722 6.92882 15.0485 7.33336 15.0485 7.96184C15.0485 8.67768 15.1153 9.23961 15.2887 9.60984C15.3705 9.7845 15.4676 9.89761 15.5774 9.96972C15.6857 10.0409 15.8417 10.0954 16.0811 10.0954C16.4424 10.0954 16.6342 9.92784 16.7678 9.67515C16.9176 9.39158 16.9706 9.02592 16.9844 8.76044C16.9991 8.47717 17.0974 8.17237 17.3201 7.93017L20.7828 4.16343C21.3356 3.56203 22.3844 3.52303 22.8659 4.32323C24.1923 6.52747 24.3535 9.44307 23.3585 11.7563C22.3481 14.1053 20.1393 15.8352 16.8078 15.5708C16.5325 15.549 16.3271 15.3081 16.3489 15.0329C16.3708 14.7576 16.6116 14.5521 16.8869 14.574C19.7569 14.8017 21.5848 13.3492 22.4399 11.3612C23.3104 9.33736 23.1658 6.76123 22.0091 4.83883C21.9614 4.75971 21.8896 4.72075 21.8029 4.71657C21.7104 4.7121 21.6024 4.74948 21.519 4.8402L18.0563 8.60694C18.0205 8.64588 17.9881 8.71433 17.983 8.81244C17.9666 9.12792 17.9033 9.66673 17.6519 10.1424C17.3842 10.6489 16.8898 11.0954 16.0811 11.0954C15.6819 11.0954 15.327 11.0017 15.0283 10.8055C14.731 10.6102 14.5248 10.3365 14.3831 10.0339C14.1094 9.44955 14.0485 8.6947 14.0485 7.96184C14.0485 7.20828 14.1963 6.60914 14.4744 6.1514C14.7571 5.68636 15.1533 5.40254 15.5798 5.25236C16.1727 5.04359 16.8106 5.095 17.3116 5.22493C17.3187 5.17264 17.3199 5.12527 17.3172 5.08251C17.3088 4.95083 17.2608 4.82627 17.1719 4.70302C16.9866 4.44603 16.6461 4.22795 16.2799 4.07537C15.4524 3.83837 14.5984 4.17872 13.8712 4.91996C13.1379 5.66749 12.6172 6.75013 12.5025 7.75543C12.4737 8.008 12.2599 8.19874 12.0057 8.19874C11.7515 8.19874 11.5378 8.008 11.5089 7.75543C11.3943 6.75094 10.8713 5.66841 10.1351 4.92059C9.4049 4.17889 8.54784 3.83831 7.72005 4.07537C7.35383 4.22795 7.0134 4.44603 6.82808 4.70301C6.73919 4.82627 6.69118 4.95083 6.68279 5.08251C6.68006 5.12527 6.68126 5.17264 6.68835 5.22492C7.18935 5.095 7.82728 5.04359 8.42019 5.25236C8.84669 5.40254 9.24289 5.68636 9.52551 6.1514C9.8037 6.60914 9.95144 7.20828 9.95144 7.96184C9.95144 8.6947 9.89053 9.44955 9.6169 10.0339C9.47519 10.3365 9.26897 10.6102 8.97166 10.8055C8.67294 11.0017 8.31801 11.0954 7.91887 11.0954C7.11016 11.0954 6.61577 10.6489 6.34807 10.1424C6.0967 9.66673 6.03335 9.12792 6.01692 8.81244C6.01181 8.71433 5.97949 8.64588 5.94368 8.60694L2.48097 4.8402C2.39757 4.74948 2.28952 4.7121 2.19707 4.71657C2.11037 4.72075 2.03851 4.75971 1.9909 4.83883C0.834109 6.76123 0.689603 9.33736 1.5601 11.3612C2.41519 13.3492 4.24303 14.8017 7.11304 14.574C7.38832 14.5521 7.62918 14.7576 7.65102 15.0329C7.67286 15.3081 7.46741 15.549 7.19214 15.5708C3.86065 15.8352 1.65185 14.1053 0.641469 11.7563C-0.353508 9.44307 -0.192316 6.52747 1.13407 4.32323C1.61559 3.52303 2.66431 3.56203 3.21716 4.16343L6.67988 7.93017C6.90253 8.17237 7.00082 8.47717 7.01557 8.76044C7.02939 9.02592 7.08234 9.39158 7.2322 9.67515C7.36575 9.92784 7.55754 10.0954 7.91887 10.0954C8.1583 10.0954 8.31423 10.0409 8.4226 9.96972C8.53238 9.89761 8.62948 9.7845 8.71127 9.60984C8.88463 9.23961 8.95144 8.67768 8.95144 7.96184C8.95144 7.33336 8.82779 6.92882 8.67095 6.67075C8.51855 6.41998 8.31608 6.27589 8.08806 6.1956C7.59843 6.02319 6.97129 6.14359 6.58839 6.31278C6.34966 6.41827 6.06994 6.32239 5.94614 6.09262C5.75002 5.72864 5.66254 5.36816 5.68481 5.01887C5.70709 4.66952 5.83684 4.3679 6.01698 4.11811C6.36586 3.63431 6.91819 3.32243 7.36506 3.14008C7.37996 3.13399 7.39515 3.12863 7.41058 3.12402C8.72867 2.72944 9.96078 3.31813 10.8477 4.21903C11.3178 4.69657 11.7147 5.2824 12.0049 5.91119C12.2939 5.28279 12.6889 4.69718 13.1574 4.21966ZM7.15259 15.9531C7.42873 15.9531 7.65259 16.177 7.65259 16.4531V17.1795C7.65259 17.7866 7.30668 18.2296 6.88903 18.4804C6.48322 18.7242 5.97332 18.814 5.52115 18.7228C5.28627 18.6754 5.11802 18.4681 5.12004 18.2285C5.12287 17.891 5.01081 17.6816 4.88024 17.5556C4.7432 17.4234 4.55173 17.3503 4.34872 17.3503C4.14572 17.3503 3.95238 17.4235 3.81282 17.5571C3.67965 17.6846 3.56574 17.8954 3.56574 18.2329C3.56574 18.7356 3.7566 19.2171 4.34395 19.4708C4.90721 19.7141 5.52317 19.6674 6.19179 19.4258C6.86628 19.182 7.54211 18.7583 8.18737 18.3179L8.22434 18.2926C8.26737 18.2633 8.32537 18.187 8.35406 18.0338C8.53685 17.0579 9.30142 16.5747 10.0559 16.6345C10.7973 16.6933 11.484 17.2813 11.484 18.2327C11.484 18.9839 11.0874 19.5069 10.4082 20.0671C10.3969 20.0764 10.3853 20.0852 10.3732 20.0934L8.43512 21.4256C8.35887 21.478 8.32039 21.5537 8.31373 21.6204C8.30762 21.6816 8.32668 21.7321 8.3741 21.7718C9.429 22.6548 10.6915 23 11.9942 23C13.2977 23 14.5685 22.6544 15.6259 21.7711C15.6732 21.7315 15.6922 21.6813 15.6862 21.6203C15.6795 21.5537 15.6411 21.478 15.5648 21.4256L13.6267 20.0934C13.6147 20.0852 13.603 20.0764 13.5918 20.0671C12.9126 19.5069 12.5159 18.9839 12.5159 18.2327C12.5159 17.275 13.2115 16.6862 13.9577 16.6335C14.7191 16.5798 15.4826 17.0778 15.6521 18.0686C15.6742 18.1975 15.7234 18.257 15.7533 18.2774C16.4216 18.7336 17.1212 19.1809 17.8193 19.4394C18.5113 19.6957 19.1432 19.745 19.7169 19.4852C20.2652 19.2369 20.4342 18.7612 20.4342 18.2329C20.4342 17.8954 20.3203 17.6846 20.1871 17.5571C20.0476 17.4235 19.8542 17.3503 19.6512 17.3503C19.4482 17.3503 19.2568 17.4234 19.1197 17.5556C18.9891 17.6816 18.8771 17.891 18.8799 18.2285C18.8819 18.4681 18.7137 18.6754 18.4788 18.7228C18.0266 18.814 17.5167 18.7242 17.1109 18.4804C16.6933 18.2296 16.3474 17.7866 16.3474 17.1795V16.4539C16.3474 16.1777 16.5712 15.9531 16.8474 15.9531C17.1235 15.9531 17.3474 16.177 17.3474 16.4531V17.1795C17.3474 17.3624 17.4407 17.512 17.6258 17.6232C17.7182 17.6787 17.8236 17.7173 17.9303 17.7385C18.0104 17.376 18.1828 17.0701 18.4253 16.8361C18.7657 16.5075 19.2138 16.3502 19.6513 16.3503C20.0888 16.3503 20.5369 16.5076 20.8787 16.8348C21.2269 17.1682 21.4342 17.6486 21.4342 18.2329C21.4342 18.9765 21.1729 19.9236 20.1294 20.3962C19.2281 20.8043 18.3028 20.6849 17.472 20.3772C16.6473 20.0718 15.8584 19.5599 15.1895 19.1033C14.8636 18.8808 14.7171 18.533 14.6665 18.2373C14.5833 17.7514 14.2751 17.6136 14.0281 17.631C13.7657 17.6495 13.5159 17.8389 13.5159 18.2327C13.5159 18.532 13.6281 18.7975 14.2115 19.2819L16.1313 20.6015C16.7511 21.0275 16.9328 21.9823 16.267 22.5385C14.9912 23.6043 13.4764 24 11.9942 24C10.5117 24 9.00514 23.6041 7.73223 22.5386C7.0674 21.9821 7.24876 21.0276 7.86867 20.6015L9.78843 19.2819C10.3719 18.7975 10.484 18.532 10.484 18.2327C10.484 17.8409 10.237 17.652 9.97689 17.6314C9.72989 17.6118 9.42521 17.7468 9.33697 18.2179C9.28012 18.5214 9.12883 18.886 8.78813 19.1185L8.75116 19.1438C8.09899 19.589 7.33411 20.0762 6.5317 20.3662C5.72344 20.6584 4.82632 20.7684 3.94745 20.3888C2.89407 19.9339 2.56574 19.0134 2.56574 18.2329C2.56574 17.6486 2.77306 17.1682 3.12124 16.8348C3.46302 16.5076 3.91116 16.3503 4.34867 16.3503C4.78616 16.3502 5.23422 16.5075 5.57467 16.8361C5.81718 17.0701 5.98954 17.376 6.06963 17.7385C6.17636 17.7173 6.28178 17.6787 6.37413 17.6232C6.55925 17.512 6.65259 17.3624 6.65259 17.1795V16.4539C6.65259 16.1777 6.87645 15.9531 7.15259 15.9531Z" fill="#0B1F35"/></svg>