<svg width="48" height="48" viewBox="0 0 48 48" fill="none" xmlns="http://www.w3.org/2000/svg"><rect width="48" height="48" fill="none"/><path fill-rule="evenodd" clip-rule="evenodd" d="M26.725 9.2895C28.4576 7.56164 30.7807 6.51227 33.2225 7.22736C33.2382 7.23197 33.2537 7.23733 33.269 7.24341C34.1435 7.59256 35.1713 8.17119 35.8055 9.03162C36.129 9.47052 36.3557 9.99096 36.3948 10.5895C36.4338 11.1882 36.2823 11.8232 35.9168 12.4869C35.787 12.7227 35.5013 12.8212 35.2555 12.7149C34.4088 12.3489 32.9852 12.0639 31.8161 12.4666C31.2488 12.6621 30.74 13.0187 30.3662 13.6205C29.9881 14.2292 29.7246 15.1268 29.7246 16.4387C29.7246 17.8758 29.8581 19.0867 30.2594 19.9251C30.4546 20.333 30.7057 20.636 31.0234 20.8402C31.3405 21.044 31.7605 21.1728 32.3321 21.1728C32.8564 21.1728 33.2396 21.0344 33.529 20.8328C33.8232 20.6279 34.0491 20.3374 34.2211 19.9939C34.5715 19.2944 34.6631 18.4479 34.6805 17.9288C34.694 17.5288 34.8343 17.1155 35.134 16.7965L42.9271 8.50297C43.5531 7.83676 44.6635 7.82657 45.2337 8.626C48.2424 12.8444 48.7917 18.7164 46.9066 23.4129C45.0053 28.1496 40.6242 31.6909 33.8565 31.1655C33.5693 31.1432 33.3545 30.8903 33.3766 30.6007C33.3987 30.311 33.6494 30.0943 33.9365 30.1166C40.2238 30.6046 44.1985 27.3565 45.9399 23.0181C47.6974 18.6395 47.1762 13.1509 44.3871 9.24038C44.2373 9.0304 43.9061 8.99038 43.684 9.22668L35.891 17.5202C35.7924 17.6252 35.7291 17.7807 35.7229 17.9644C35.7037 18.5345 35.605 19.5641 35.152 20.4684C34.9224 20.9268 34.5932 21.3701 34.1217 21.6985C33.6454 22.0303 33.0522 22.2248 32.3321 22.2248C31.5999 22.2248 30.9769 22.0578 30.4629 21.7274C29.9495 21.3975 29.5813 20.928 29.3202 20.3825C28.8089 19.3143 28.6816 17.8951 28.6816 16.4387C28.6816 14.9901 28.9723 13.883 29.4824 13.0619C29.9967 12.234 30.7101 11.7359 31.4791 11.4711C32.7641 11.0284 34.1965 11.2357 35.1965 11.5693C35.3303 11.2241 35.3712 10.922 35.354 10.6586C35.3304 10.2963 35.1942 9.96555 34.9685 9.65933C34.5087 9.03554 33.7038 8.55156 32.9082 8.23087C30.9624 7.67196 29.0229 8.4773 27.4583 10.0376C25.8868 11.6048 24.7759 13.863 24.5296 15.9746C24.4987 16.2395 24.2762 16.4392 24.0117 16.4392C23.7473 16.4392 23.5247 16.2395 23.4938 15.9746C23.2476 13.8639 22.1315 11.6058 20.5541 10.0383C18.9834 8.47746 17.0379 7.6719 15.0918 8.23087C14.2962 8.55156 13.4913 9.03554 13.0315 9.65933C12.8058 9.96555 12.6696 10.2963 12.646 10.6586C12.6288 10.922 12.6697 11.2241 12.8035 11.5693C13.8035 11.2357 15.2359 11.0284 16.5209 11.4711C17.2899 11.7359 18.0033 12.234 18.5177 13.0619C19.0277 13.883 19.3184 14.9901 19.3184 16.4387C19.3184 17.8951 19.1911 19.3143 18.6798 20.3825C18.4187 20.928 18.0505 21.3975 17.5371 21.7274C17.0231 22.0578 16.4001 22.2248 15.668 22.2248C14.9478 22.2248 14.3546 22.0303 13.8783 21.6985C13.4068 21.3701 13.0776 20.9268 12.848 20.4684C12.395 19.5641 12.2963 18.5345 12.2771 17.9644C12.2709 17.7807 12.2076 17.6252 12.109 17.5202L4.31596 9.22668C4.09392 8.99038 3.76267 9.0304 3.61291 9.24038C0.823793 13.1509 0.302577 18.6395 2.06012 23.0181C3.80152 27.3565 7.77623 30.6046 14.0635 30.1166C14.3506 30.0943 14.6013 30.311 14.6234 30.6007C14.6455 30.8903 14.4307 31.1432 14.1435 31.1655C7.37582 31.6909 2.99466 28.1496 1.09338 23.4129C-0.791746 18.7164 -0.242444 12.8444 2.76627 8.626C3.33645 7.82657 4.44692 7.83676 5.07294 8.50297L12.866 16.7965C13.1657 17.1155 13.306 17.5288 13.3195 17.9288C13.3369 18.4479 13.4285 19.2944 13.7789 19.9939C13.9509 20.3374 14.1768 20.6279 14.471 20.8328C14.7604 21.0344 15.1436 21.1728 15.668 21.1728C16.2395 21.1728 16.6595 21.044 16.9766 20.8402C17.2943 20.636 17.5454 20.333 17.7406 19.9251C18.1419 19.0867 18.2754 17.8758 18.2754 16.4387C18.2754 15.1268 18.0119 14.2292 17.6339 13.6205C17.26 13.0187 16.7512 12.6621 16.1839 12.4666C15.0148 12.0639 13.5912 12.3489 12.7445 12.7149C12.4987 12.8212 12.213 12.7227 12.0832 12.4869C11.7177 11.8232 11.5662 11.1882 11.6052 10.5895C11.6443 9.99096 11.871 9.47052 12.1945 9.03162C12.8287 8.17119 13.8565 7.59256 14.731 7.24341C14.7463 7.23733 14.7618 7.23197 14.7776 7.22736C17.2191 6.51233 19.5478 7.56149 21.286 9.28884C22.4847 10.48 23.442 12.0274 24.011 13.6475C24.5776 12.028 25.5305 10.4807 26.725 9.2895ZM14.1035 32.8787C14.3915 32.8787 14.625 33.1142 14.625 33.4047V34.8497C14.625 35.8698 14.0364 36.6151 13.3023 37.0465C12.5793 37.4714 11.6684 37.6261 10.8745 37.4694C10.628 37.4208 10.4509 37.2019 10.4531 36.9486C10.4599 36.1633 10.1893 35.6181 9.81674 35.2663C9.43621 34.9071 8.91526 34.7181 8.37904 34.7181C7.84286 34.7181 7.31899 34.9072 6.93386 35.268C6.55661 35.6213 6.28121 36.1682 6.28121 36.9537C6.28121 37.6169 6.48849 38.3018 6.96612 38.8713C7.4415 39.4382 8.21487 39.9264 9.40917 40.1444C11.439 40.5147 13.4779 39.5304 15.3694 38.2672L16.7381 37.3531C16.873 37.2631 16.9805 37.085 17.0146 36.8408C17.1387 35.9532 17.5258 35.2747 18.0704 34.828C18.6102 34.3854 19.2751 34.1951 19.916 34.2275C21.2021 34.2925 22.4473 35.27 22.4473 36.9532C22.4473 38.2484 21.7703 39.1731 20.4264 40.2575C20.4146 40.267 20.4024 40.276 20.3899 40.2845L15.9229 43.2883C15.6429 43.4766 15.6394 43.8257 15.8327 44.0013C18.182 46.1369 21.0566 46.948 23.9883 46.948C26.9209 46.948 29.8142 46.1364 32.1673 44.0007C32.3603 43.8255 32.3573 43.4767 32.0771 43.2883L27.6102 40.2845C27.5976 40.276 27.5854 40.267 27.5737 40.2575C26.2297 39.1731 25.5527 38.2484 25.5527 36.9532C25.5527 35.27 26.7979 34.2925 28.084 34.2275C28.7249 34.1951 29.3898 34.3854 29.9296 34.828C30.4742 35.2747 30.8613 35.9532 30.9854 36.8408C31.0195 37.085 31.1271 37.2631 31.2619 37.3531L32.6306 38.2672C34.5221 39.5304 36.561 40.5147 38.5908 40.1443C39.7851 39.9264 40.5585 39.4382 41.0339 38.8713C41.5115 38.3018 41.7188 37.6169 41.7188 36.9537C41.7188 36.1682 41.4434 35.6213 41.0661 35.268C40.681 34.9072 40.1571 34.7181 39.621 34.7181C39.0847 34.7181 38.5638 34.9071 38.1833 35.2663C37.8107 35.6181 37.5401 36.1633 37.5469 36.9486C37.5491 37.2019 37.372 37.4208 37.1255 37.4694C36.3316 37.6261 35.4207 37.4714 34.6977 37.0465C33.9636 36.6151 33.375 35.8698 33.375 34.8497V33.405C33.375 33.1144 33.6085 32.8787 33.8965 32.8787C34.1845 32.8787 34.418 33.1142 34.418 33.4047V34.8497C34.418 35.4076 34.7262 35.8457 35.2227 36.1375C35.6107 36.3655 36.0841 36.4824 36.5274 36.477C36.6178 35.6465 36.9628 34.9777 37.4705 34.4983C38.0648 33.9372 38.8496 33.666 39.621 33.6661C40.3925 33.6661 41.1783 33.9373 41.7759 34.4971C42.3814 35.0642 42.7618 35.8981 42.7618 36.9537C42.7618 37.8377 42.4841 38.771 41.8302 39.5508C41.1739 40.3332 40.169 40.9255 38.7765 41.1796C36.3145 41.6288 33.9694 40.423 32.0548 39.1443L30.6862 38.2303C30.2376 37.9307 30.0162 37.4425 29.9526 36.9877C29.8614 36.3351 29.5914 35.9066 29.2716 35.6443C28.947 35.3781 28.5401 35.2578 28.1362 35.2782C27.3326 35.3188 26.5957 35.901 26.5957 36.9532C26.5957 37.7583 26.9583 38.4104 28.2077 39.4219L32.6557 42.413C33.4373 42.9386 33.6204 44.097 32.8649 44.7827C30.2766 47.1319 27.1129 48 23.9883 48C20.8632 48 17.7184 47.1316 15.1345 44.7828C14.3798 44.0968 14.5626 42.9386 15.3443 42.413L19.7923 39.4219C21.0417 38.4104 21.4043 37.7583 21.4043 36.9532C21.4043 35.901 20.6674 35.3188 19.8638 35.2782C19.4599 35.2578 19.053 35.3781 18.7284 35.6443C18.4086 35.9066 18.1386 36.3351 18.0474 36.9877C17.9838 37.4425 17.7625 37.9307 17.3138 38.2303L15.9452 39.1443C14.0306 40.423 11.6855 41.6288 9.22352 41.1796C7.831 40.9255 6.82607 40.3332 6.16984 39.5508C5.51587 38.771 5.23824 37.8377 5.23824 36.9537C5.23824 35.8981 5.61865 35.0642 6.22413 34.4971C6.82172 33.9373 7.60751 33.6661 8.37899 33.6661C9.15044 33.666 9.93518 33.9372 10.5295 34.4983C11.0372 34.9777 11.3822 35.6465 11.4726 36.477C11.9159 36.4824 12.3893 36.3655 12.7773 36.1375C13.2738 35.8457 13.582 35.4076 13.582 34.8497V33.405C13.582 33.1144 13.8155 32.8787 14.1035 32.8787Z" fill="#0B1F35"/><path d="M19 24.0037C19 22.8971 19.8971 22 21.0037 22H26.9963C28.1029 22 29 22.8971 29 24.0037V29.5C29 31.0241 27.7645 32.2596 26.2404 32.2596C25.7003 32.2596 25.1874 32.497 24.8378 32.9088L24.5401 33.2596C24.2572 33.5929 23.7428 33.5929 23.4599 33.2596L23.1622 32.9088C22.8126 32.497 22.2997 32.2596 21.7596 32.2596C20.2355 32.2596 19 31.0241 19 29.5V24.0037Z" fill="#0B1F35" fill-opacity="0.3"/><path d="M21.3175 7H26.6818C27.5496 5.82942 27.9972 5.25906 28.4767 4.41043C29.8038 2.0614 28.7105 -4.32215e-05 24.0003 6.79666e-10C19.29 4.32242e-05 18.1961 2.06123 19.5232 4.41025C20.0027 5.25888 20.4496 5.53679 21.3175 7Z" fill="#0B1F35" fill-opacity="0.3"/></svg>