<svg width="24" height="24" viewBox="0 0 24 24" xmlns="http://www.w3.org/2000/svg"><g fill="none" fill-rule="evenodd"><path d="M0 0h24v24H0z"/><path d="M22.142 10.197c-.454.437-3.296 1.947-5.553 1.731.657 1.933 2.64 1.979 3.59 1.945-1.19 1.235-2.521 1.482-3.741 1.515l-.126.002c-.943 0-1.943-.268-1.953-.271l-.892-.242-.313.869c-.561 1.561.916 2.567 1.995 3.301.55.375 1.498 1.004 1.444 1.337-.077.476-1.143.024-1.143.024s-.428 1.427-1.852.368c-.26.73-.801 1.252-1.588 1.306-.787-.054-1.328-.576-1.588-1.306-1.424 1.059-1.852-.368-1.852-.368s-1.066.452-1.143-.024c-.054-.333.893-.962 1.444-1.337 1.079-.734 2.556-1.74 1.995-3.301l-.313-.869-.892.242c-.01.003-1.01.271-1.953.271l-.126-.002c-1.22-.033-2.551-.28-3.742-1.515.95.034 2.934-.012 3.592-1.945-2.258.216-5.1-1.294-5.554-1.731-.693-1.522-.797-2.707-.722-3.834.64 1.092 2.059 2.262 3.95 1.886-1.567-2.52-3.127-4.593-2.34-5.615.525 1.552 2.015 3.25 3.678 4.556.048.704.13 1.073.323 1.527.367.865 1.398 1.241 1.998 1.086.368-.094.735-.385 1.027-.909 1.372-2.467.218-4.771.91-4.47l1.306 3.026 1.31-3.026c.692-.301-.463 2.003.91 4.47.29.524.66.815 1.027.909.6.155 1.63-.221 1.998-1.086.193-.454.275-.823.323-1.527 1.663-1.306 3.153-3.004 3.677-4.556.788 1.022-.772 3.095-2.34 5.615 1.892.376 3.31-.794 3.95-1.886.076 1.127-.028 2.312-.721 3.834m.837-6.885c-.147 2.785-2.255 3.784-2.255 3.784s1.393-2.058 1.592-3.461c.223-1.577-1.3-2.635-1.3-2.635-.551 1.806-1.734 3.365-3.227 4.709-.276.248-.558.492-.854.726-.595.471-.245 1.233-.557 1.797-.266.482-.588.647-.904.647-.653 0-1.807-2.689-.708-5.121.259-.576 1.319-.309 1.644-.238.639.141.264.643.264.643s.287.036.378-.339c.092-.38-.572-.771-.572-.771 1.12-.526 1.36.124 1.36.124.649-1.128-.102-1.333-.881-1.334-.42 0-.805-.571-1.376-.552-.75.024-1.734.626-2.703.468 0 0 .1.327.45.411 0 0-.196.301-.251.49-.045.155-1.067 3.364-1.07 3.558-.001-.194-1.023-3.403-1.068-3.558-.055-.189-.251-.49-.251-.49.349-.084.45-.411.45-.411-.97.158-1.953-.444-2.703-.468-.571-.019-.957.552-1.376.552-.78.001-1.53.206-.882 1.334 0 0 .24-.65 1.36-.124 0 0-.663.391-.571.771.09.375.378.339.378.339s-.375-.502.264-.643c.325-.071 1.385-.338 1.644.238 1.099 2.432-.055 5.121-.708 5.121-.316 0-.638-.165-.904-.647-.312-.564.038-1.326-.557-1.797a17.734 17.734 0 0 1-.854-.726C4.738 4.365 3.555 2.806 3.003 1c0 0-1.522 1.058-1.298 2.635.198 1.403 1.59 3.461 1.59 3.461s-2.107-.999-2.254-3.784C-.43 6.062.338 9.25 1.009 10.7c.262.564 3.187 2.062 4.5 2 0 0-2.033.802-4.134-.875 1.625 3.75 3.969 4.503 6.18 4.563 1.144.032 2.37-.304 2.37-.304.593 1.647-3.65 2.529-3.493 4.383.07.858.964 1.215 1.7.952.349.624 1.284 1.003 1.96.5.26.537 1.142 1.159 1.918 1.159s1.658-.622 1.918-1.159c.676.503 1.61.124 1.959-.5.737.263 1.63-.094 1.702-.952.156-1.854-4.087-2.736-3.494-4.383 0 0 1.226.336 2.37.304 2.21-.06 4.555-.813 6.18-4.563-2.101 1.677-4.134.875-4.134.875 1.313.062 4.238-1.436 4.5-2 .67-1.45 1.437-4.638-.032-7.388" fill="#FFF"/></g></svg>