<svg xmlns="http://www.w3.org/2000/svg" xmlns:xlink="http://www.w3.org/1999/xlink" width="36" height="36" viewBox="0 0 36 36"><defs><path id="a" d="M.712.727c.357 0 0 7.804 9.256 7.804l2.492 4.965C-1.842 13.496.355.727.712.727z"/></defs><g fill="none" fill-rule="evenodd"><path d="M0 0h36v36H0z"/><g fill="#FFF" transform="translate(2.712 8.448)"><path d="M15.308 18.462c-1.424 1.419-3.086 2.128-4.984 2.128l4.984 2.128 4.984-2.128c-1.9 0-3.56-.71-4.984-2.128zM29.547.727c-.357 0 .356 7.804-8.9 7.804l-2.491 4.965C32.437 12.787 29.904.727 29.547.727z" opacity=".3"/><use opacity=".3" xlink:href="#a"/></g><path stroke="#FFF" d="M18.02 14.14s.038-5.816 3.192-8.469c0 0-1.419-1.462-1.419-2.171h6.74c.7 0 1.775 1.064 1.775 2.128-.35 0-2.844-.004-3.193 0-3.548.043-3.548 6.74.577 6.739 4.126-.001 6.82-6.864 6.873-6.739 4.966 11.705-3.574 17.735-11.353 17.735-.349 0 3.104 6.03 3.104 6.384 0 .355-5.598 2.837-6.296 2.837"/><path stroke="#FFF" d="M18.02 14.14s-.039-5.816-3.193-8.469c0 0 1.419-1.462 1.419-2.171h-6.74c-.699 0-1.774 1.064-1.774 2.128.349 0 2.843-.004 3.192 0 3.548.043 3.548 6.74-.577 6.739-4.125-.001-6.82-6.864-6.872-6.739-4.967 11.705 3.573 17.735 11.352 17.735.349 0-3.104 6.03-3.104 6.384 0 .355 5.598 2.837 6.297 2.837"/></g></svg>