<svg width="24" height="24" viewBox="0 0 24 24" fill="none" xmlns="http://www.w3.org/2000/svg"><rect width="24" height="24" fill="none"/><path d="M9.5 11.9738C9.5 11.436 9.94853 11 10.5019 11H13.4981C14.0515 11 14.5 11.436 14.5 11.9738V14.6451C14.5 15.3857 13.8823 15.9862 13.1202 15.9862C12.8501 15.9862 12.5937 16.1016 12.4189 16.3018L12.2701 16.4722C12.1286 16.6343 11.8714 16.6343 11.7299 16.4722L11.5811 16.3018C11.4063 16.1016 11.1499 15.9862 10.8798 15.9862C10.1177 15.9862 9.5 15.3857 9.5 14.6451V11.9738Z" fill="white" fill-opacity="0.3"/><path d="M10.6587 3.5H13.3409C13.7748 2.91471 13.9986 2.62953 14.2383 2.20521C14.9019 1.0307 14.3552 -2.16107e-05 12.0001 3.39832e-10C9.64499 2.16121e-05 9.09799 1.03061 9.76159 2.20513C10.0013 2.62944 10.2248 2.76839 10.6587 3.5Z" fill="white" fill-opacity="0.3"/><path fill-rule="evenodd" clip-rule="evenodd" d="M13.1574 4.21966C14.0416 3.31829 15.2711 2.72937 16.5894 3.12402C16.6048 3.12863 16.62 3.13399 16.6349 3.14008C17.0818 3.32243 17.6341 3.63431 17.983 4.11811C18.1631 4.3679 18.2929 4.66952 18.3152 5.01887C18.3374 5.36816 18.25 5.72864 18.0538 6.09262C17.93 6.32239 17.6503 6.41827 17.4116 6.31278C17.0287 6.14359 16.4016 6.02319 15.9119 6.1956C15.6839 6.27589 15.4814 6.41998 15.329 6.67075C15.1722 6.92882 15.0485 7.33336 15.0485 7.96184C15.0485 8.67768 15.1153 9.23961 15.2887 9.60984C15.3705 9.7845 15.4676 9.89761 15.5774 9.96972C15.6857 10.0409 15.8417 10.0954 16.0811 10.0954C16.4424 10.0954 16.6342 9.92784 16.7678 9.67515C16.9176 9.39158 16.9706 9.02592 16.9844 8.76044C16.9992 8.47717 17.0974 8.17237 17.3201 7.93017L20.7828 4.16343C21.3357 3.56203 22.3844 3.52303 22.8659 4.32323C24.1923 6.52747 24.3535 9.44307 23.3585 11.7563C22.3481 14.1053 20.1393 15.8352 16.8078 15.5708C16.5326 15.549 16.3271 15.3081 16.349 15.0329C16.3708 14.7576 16.6117 14.5521 16.8869 14.574C19.7569 14.8017 21.5848 13.3492 22.4399 11.3612C23.3104 9.33736 23.1659 6.76123 22.0091 4.83883C21.9615 4.75971 21.8896 4.72075 21.8029 4.71657C21.7105 4.7121 21.6024 4.74948 21.519 4.8402L18.0563 8.60694C18.0205 8.64588 17.9882 8.71433 17.9831 8.81244C17.9666 9.12792 17.9033 9.66673 17.6519 10.1424C17.3842 10.6489 16.8898 11.0954 16.0811 11.0954C15.682 11.0954 15.327 11.0017 15.0283 10.8055C14.731 10.6102 14.5248 10.3365 14.3831 10.0339C14.1094 9.44955 14.0485 8.6947 14.0485 7.96184C14.0485 7.20828 14.1963 6.60914 14.4745 6.1514C14.7571 5.68636 15.1533 5.40254 15.5798 5.25236C16.1727 5.04359 16.8106 5.095 17.3116 5.22493C17.3187 5.17264 17.3199 5.12527 17.3172 5.08251C17.3088 4.95083 17.2608 4.82627 17.1719 4.70302C16.9866 4.44603 16.6461 4.22795 16.2799 4.07537C15.4524 3.83837 14.5984 4.17872 13.8713 4.91996C13.1379 5.66749 12.6172 6.75013 12.5025 7.75543C12.4737 8.008 12.26 8.19874 12.0057 8.19874C11.7515 8.19874 11.5378 8.008 11.509 7.75543C11.3943 6.75094 10.8713 5.66841 10.1351 4.92059C9.40492 4.17889 8.54786 3.83831 7.72007 4.07537C7.35385 4.22795 7.01342 4.44603 6.8281 4.70301C6.73921 4.82627 6.69121 4.95083 6.68281 5.08251C6.68008 5.12527 6.68129 5.17264 6.68837 5.22492C7.18937 5.095 7.8273 5.04359 8.42021 5.25236C8.84672 5.40254 9.24291 5.68636 9.52553 6.1514C9.80372 6.60914 9.95146 7.20828 9.95146 7.96184C9.95146 8.6947 9.89056 9.44955 9.61692 10.0339C9.47521 10.3365 9.26899 10.6102 8.97168 10.8055C8.67296 11.0017 8.31803 11.0954 7.91889 11.0954C7.11019 11.0954 6.61579 10.6489 6.3481 10.1424C6.09672 9.66673 6.03337 9.12792 6.01694 8.81244C6.01184 8.71433 5.97951 8.64588 5.94371 8.60694L2.48099 4.8402C2.39759 4.74948 2.28955 4.7121 2.19709 4.71657C2.11039 4.72075 2.03853 4.75971 1.99092 4.83883C0.834132 6.76123 0.689626 9.33736 1.56012 11.3612C2.41521 13.3492 4.24305 14.8017 7.11306 14.574C7.38834 14.5521 7.6292 14.7576 7.65104 15.0329C7.67289 15.3081 7.46744 15.549 7.19216 15.5708C3.86067 15.8352 1.65187 14.1053 0.641492 11.7563C-0.353485 9.44307 -0.192293 6.52747 1.13409 4.32323C1.61561 3.52303 2.66433 3.56203 3.21719 4.16343L6.6799 7.93017C6.90256 8.17237 7.00084 8.47717 7.01559 8.76044C7.02942 9.02592 7.08237 9.39158 7.23223 9.67515C7.36577 9.92784 7.55756 10.0954 7.91889 10.0954C8.15833 10.0954 8.31426 10.0409 8.42262 9.96972C8.5324 9.89761 8.62951 9.7845 8.71129 9.60984C8.88466 9.23961 8.95146 8.67768 8.95146 7.96184C8.95146 7.33336 8.82781 6.92882 8.67097 6.67075C8.51857 6.41998 8.31611 6.27589 8.08808 6.1956C7.59845 6.02319 6.97131 6.14359 6.58841 6.31278C6.34968 6.41827 6.06997 6.32239 5.94616 6.09262C5.75004 5.72864 5.66256 5.36816 5.68484 5.01887C5.70712 4.66952 5.83686 4.3679 6.017 4.11811C6.36588 3.63431 6.91821 3.32243 7.36508 3.14008C7.37999 3.13399 7.39518 3.12863 7.4106 3.12402C8.7287 2.72944 9.9608 3.31813 10.8477 4.21903C11.3179 4.69657 11.7147 5.2824 12.0049 5.91119C12.2939 5.28279 12.689 4.69718 13.1574 4.21966ZM7.15261 15.9531C7.42875 15.9531 7.65261 16.177 7.65261 16.4531V17.1795C7.65261 17.7866 7.3067 18.2296 6.88905 18.4804C6.48324 18.7242 5.97334 18.814 5.52118 18.7228C5.2863 18.6754 5.11805 18.4681 5.12006 18.2285C5.1229 17.891 5.01083 17.6816 4.88026 17.5556C4.74323 17.4234 4.55175 17.3503 4.34874 17.3503C4.14574 17.3503 3.95241 17.4235 3.81284 17.5571C3.67967 17.6846 3.56576 17.8954 3.56576 18.2329C3.56576 18.7356 3.75663 19.2171 4.34397 19.4708C4.90724 19.7141 5.52319 19.6674 6.19182 19.4258C6.8663 19.182 7.54214 18.7583 8.18739 18.3179L8.22436 18.2926C8.26739 18.2633 8.32539 18.187 8.35408 18.0338C8.53687 17.0579 9.30144 16.5747 10.0559 16.6345C10.7973 16.6933 11.484 17.2813 11.484 18.2327C11.484 18.9839 11.0874 19.5069 10.4082 20.0671C10.3969 20.0764 10.3853 20.0852 10.3733 20.0934L8.43514 21.4256C8.35889 21.478 8.32041 21.5537 8.31375 21.6204C8.30764 21.6816 8.3267 21.7321 8.37412 21.7718C9.42902 22.6548 10.6915 23 11.9943 23C13.2977 23 14.5685 22.6544 15.6259 21.7711C15.6733 21.7315 15.6923 21.6813 15.6862 21.6203C15.6795 21.5537 15.6411 21.478 15.5649 21.4256L13.6267 20.0934C13.6147 20.0852 13.6031 20.0764 13.5918 20.0671C12.9126 19.5069 12.516 18.9839 12.516 18.2327C12.516 17.275 13.2115 16.6862 13.9577 16.6335C14.7191 16.5798 15.4826 17.0778 15.6521 18.0686C15.6742 18.1975 15.7234 18.257 15.7533 18.2774C16.4216 18.7336 17.1212 19.1809 17.8193 19.4394C18.5113 19.6957 19.1433 19.745 19.7169 19.4852C20.2652 19.2369 20.4342 18.7612 20.4342 18.2329C20.4342 17.8954 20.3203 17.6846 20.1872 17.5571C20.0476 17.4235 19.8543 17.3503 19.6513 17.3503C19.4482 17.3503 19.2568 17.4234 19.1197 17.5556C18.9892 17.6816 18.8771 17.891 18.8799 18.2285C18.882 18.4681 18.7137 18.6754 18.4788 18.7228C18.0267 18.814 17.5168 18.7242 17.1109 18.4804C16.6933 18.2296 16.3474 17.7866 16.3474 17.1795V16.4539C16.3474 16.1777 16.5712 15.9531 16.8474 15.9531C17.1235 15.9531 17.3474 16.177 17.3474 16.4531V17.1795C17.3474 17.3624 17.4407 17.512 17.6258 17.6232C17.7182 17.6787 17.8236 17.7173 17.9303 17.7385C18.0104 17.376 18.1828 17.0701 18.4253 16.8361C18.7658 16.5075 19.2138 16.3502 19.6513 16.3503C20.0888 16.3503 20.537 16.5076 20.8787 16.8348C21.2269 17.1682 21.4342 17.6486 21.4342 18.2329C21.4342 18.9765 21.1729 19.9236 20.1294 20.3962C19.2282 20.8043 18.3029 20.6849 17.472 20.3772C16.6473 20.0718 15.8584 19.5599 15.1895 19.1033C14.8636 18.8808 14.7171 18.533 14.6665 18.2373C14.5833 17.7514 14.2751 17.6136 14.0281 17.631C13.7658 17.6495 13.516 17.8389 13.516 18.2327C13.516 18.532 13.6281 18.7975 14.2116 19.2819L16.1313 20.6015C16.7511 21.0275 16.9328 21.9823 16.267 22.5385C14.9912 23.6043 13.4764 24 11.9943 24C10.5118 24 9.00517 23.6041 7.73225 22.5386C7.06742 21.9821 7.24878 21.0276 7.86869 20.6015L9.78845 19.2819C10.3719 18.7975 10.484 18.532 10.484 18.2327C10.484 17.8409 10.237 17.652 9.97692 17.6314C9.72991 17.6118 9.42523 17.7468 9.33699 18.2179C9.28015 18.5214 9.12886 18.886 8.78815 19.1185L8.75118 19.1438C8.09901 19.589 7.33413 20.0762 6.53172 20.3662C5.72346 20.6584 4.82635 20.7684 3.94748 20.3888C2.89409 19.9339 2.56576 19.0134 2.56576 18.2329C2.56576 17.6486 2.77308 17.1682 3.12126 16.8348C3.46304 16.5076 3.91118 16.3503 4.34869 16.3503C4.78618 16.3502 5.23425 16.5075 5.57469 16.8361C5.8172 17.0701 5.98956 17.376 6.06965 17.7385C6.17639 17.7173 6.2818 17.6787 6.37415 17.6232C6.55927 17.512 6.65261 17.3624 6.65261 17.1795V16.4539C6.65261 16.1777 6.87647 15.9531 7.15261 15.9531Z" fill="white"/></svg>