<svg width="48" height="48" viewBox="0 0 48 48" fill="none" xmlns="http://www.w3.org/2000/svg"><rect width="48" height="48" fill="none"/><path fill-rule="evenodd" clip-rule="evenodd" d="M26.9303 9.2895C28.6629 7.56164 30.986 6.51227 33.4278 7.22736C33.4435 7.23197 33.459 7.23733 33.4743 7.24341C34.3488 7.59256 35.3766 8.17119 36.0108 9.03162C36.3343 9.47052 36.561 9.99096 36.6001 10.5895C36.6391 11.1882 36.4876 11.8232 36.1221 12.4869C35.9923 12.7227 35.7066 12.8212 35.4608 12.7149C34.6141 12.3489 33.1905 12.0639 32.0214 12.4666C31.4541 12.6621 30.9453 13.0187 30.5715 13.6205C30.1934 14.2292 29.9299 15.1268 29.9299 16.4387C29.9299 17.8758 30.0634 19.0867 30.4647 19.9251C30.6599 20.333 30.911 20.636 31.2287 20.8402C31.5458 21.044 31.9658 21.1728 32.5374 21.1728C33.0617 21.1728 33.4449 21.0344 33.7343 20.8328C34.0285 20.6279 34.2544 20.3374 34.4264 19.9939C34.7768 19.2944 34.8684 18.4479 34.8858 17.9288C34.8993 17.5288 35.0396 17.1155 35.3393 16.7965L43.1324 8.50297C43.7584 7.83676 44.8688 7.82657 45.439 8.626C48.4477 12.8444 48.997 18.7164 47.1119 23.4129C45.2106 28.1496 40.8295 31.6909 34.0618 31.1655C33.7746 31.1432 33.5598 30.8903 33.5819 30.6007C33.604 30.311 33.8547 30.0943 34.1418 30.1166C40.4291 30.6046 44.4038 27.3565 46.1452 23.0181C47.9027 18.6395 47.3815 13.1509 44.5924 9.24038C44.4426 9.0304 44.1114 8.99038 43.8893 9.22668L36.0963 17.5202C35.9977 17.6252 35.9344 17.7807 35.9282 17.9644C35.909 18.5345 35.8103 19.5641 35.3573 20.4684C35.1277 20.9268 34.7985 21.3701 34.327 21.6985C33.8507 22.0303 33.2575 22.2248 32.5374 22.2248C31.8052 22.2248 31.1822 22.0578 30.6682 21.7274C30.1548 21.3975 29.7866 20.928 29.5255 20.3825C29.0142 19.3143 28.8869 17.8951 28.8869 16.4387C28.8869 14.9901 29.1776 13.883 29.6877 13.0619C30.202 12.234 30.9154 11.7359 31.6844 11.4711C32.9694 11.0284 34.4018 11.2357 35.4018 11.5693C35.5356 11.2241 35.5765 10.922 35.5593 10.6586C35.5357 10.2963 35.3995 9.96555 35.1738 9.65933C34.714 9.03554 33.9091 8.55156 33.1135 8.23087C31.1677 7.67196 29.2282 8.4773 27.6636 10.0376C26.0921 11.6048 24.9812 13.863 24.7349 15.9746C24.704 16.2395 24.4815 16.4392 24.217 16.4392C23.9526 16.4392 23.73 16.2395 23.6991 15.9746C23.4529 13.8639 22.3368 11.6058 20.7594 10.0383C19.1887 8.47746 17.2432 7.6719 15.2971 8.23087C14.5015 8.55156 13.6966 9.03554 13.2368 9.65933C13.0111 9.96555 12.8749 10.2963 12.8513 10.6586C12.8341 10.922 12.875 11.2241 13.0088 11.5693C14.0088 11.2357 15.4412 11.0284 16.7262 11.4711C17.4952 11.7359 18.2086 12.234 18.723 13.0619C19.233 13.883 19.5237 14.9901 19.5237 16.4387C19.5237 17.8951 19.3964 19.3143 18.8851 20.3825C18.624 20.928 18.2558 21.3975 17.7424 21.7274C17.2284 22.0578 16.6054 22.2248 15.8733 22.2248C15.1531 22.2248 14.5599 22.0303 14.0836 21.6985C13.6121 21.3701 13.2829 20.9268 13.0533 20.4684C12.6003 19.5641 12.5016 18.5345 12.4824 17.9644C12.4762 17.7807 12.4129 17.6252 12.3143 17.5202L4.52128 9.22668C4.29924 8.99038 3.96799 9.0304 3.81823 9.24038C1.02911 13.1509 0.5079 18.6395 2.26544 23.0181C4.00684 27.3565 7.98155 30.6046 14.2688 30.1166C14.5559 30.0943 14.8066 30.311 14.8287 30.6007C14.8508 30.8903 14.636 31.1432 14.3488 31.1655C7.58114 31.6909 3.19998 28.1496 1.2987 23.4129C-0.586424 18.7164 -0.0371215 12.8444 2.97159 8.626C3.54177 7.82657 4.65224 7.83676 5.27826 8.50297L13.0713 16.7965C13.371 17.1155 13.5113 17.5288 13.5248 17.9288C13.5422 18.4479 13.6338 19.2944 13.9842 19.9939C14.1562 20.3374 14.3821 20.6279 14.6763 20.8328C14.9657 21.0344 15.3489 21.1728 15.8733 21.1728C16.4448 21.1728 16.8648 21.044 17.1819 20.8402C17.4996 20.636 17.7507 20.333 17.9459 19.9251C18.3472 19.0867 18.4807 17.8758 18.4807 16.4387C18.4807 15.1268 18.2172 14.2292 17.8392 13.6205C17.4653 13.0187 16.9565 12.6621 16.3892 12.4666C15.2201 12.0639 13.7965 12.3489 12.9498 12.7149C12.704 12.8212 12.4183 12.7227 12.2885 12.4869C11.923 11.8232 11.7715 11.1882 11.8105 10.5895C11.8496 9.99096 12.0763 9.47052 12.3998 9.03162C13.034 8.17119 14.0618 7.59256 14.9363 7.24341C14.9516 7.23733 14.9671 7.23197 14.9829 7.22736C17.4244 6.51233 19.7531 7.56149 21.4913 9.28884C22.69 10.48 23.6473 12.0274 24.2163 13.6475C24.7829 12.028 25.7358 10.4807 26.9303 9.2895ZM14.3088 32.8787C14.5968 32.8787 14.8303 33.1142 14.8303 33.4047V34.8497C14.8303 35.8698 14.2417 36.6151 13.5076 37.0465C12.7846 37.4714 11.8737 37.6261 11.0798 37.4694C10.8333 37.4208 10.6562 37.2019 10.6584 36.9486C10.6652 36.1633 10.3946 35.6181 10.022 35.2663C9.64153 34.9071 9.12058 34.7181 8.58436 34.7181C8.04818 34.7181 7.52431 34.9072 7.13918 35.268C6.76193 35.6213 6.48653 36.1682 6.48653 36.9537C6.48653 37.6169 6.69381 38.3018 7.17144 38.8713C7.64682 39.4382 8.42019 39.9264 9.61449 40.1444C11.6443 40.5147 13.6832 39.5304 15.5747 38.2672L16.9434 37.3531C17.0783 37.2631 17.1858 37.085 17.2199 36.8408C17.344 35.9532 17.7311 35.2747 18.2757 34.828C18.8155 34.3854 19.4804 34.1951 20.1213 34.2275C21.4074 34.2925 22.6526 35.27 22.6526 36.9532C22.6526 38.2484 21.9756 39.1731 20.6317 40.2575C20.6199 40.267 20.6077 40.276 20.5952 40.2845L16.1282 43.2883C15.8482 43.4766 15.8447 43.8257 16.038 44.0013C18.3873 46.1369 21.2619 46.948 24.1936 46.948C27.1262 46.948 30.0195 46.1364 32.3726 44.0007C32.5656 43.8255 32.5626 43.4767 32.2824 43.2883L27.8155 40.2845C27.8029 40.276 27.7907 40.267 27.779 40.2575C26.435 39.1731 25.758 38.2484 25.758 36.9532C25.758 35.27 27.0032 34.2925 28.2893 34.2275C28.9302 34.1951 29.5951 34.3854 30.1349 34.828C30.6795 35.2747 31.0666 35.9532 31.1907 36.8408C31.2248 37.085 31.3324 37.2631 31.4672 37.3531L32.8359 38.2672C34.7274 39.5304 36.7663 40.5147 38.7961 40.1443C39.9904 39.9264 40.7638 39.4382 41.2392 38.8713C41.7168 38.3018 41.9241 37.6169 41.9241 36.9537C41.9241 36.1682 41.6487 35.6213 41.2714 35.268C40.8863 34.9072 40.3624 34.7181 39.8263 34.7181C39.29 34.7181 38.7691 34.9071 38.3886 35.2663C38.016 35.6181 37.7454 36.1633 37.7522 36.9486C37.7544 37.2019 37.5773 37.4208 37.3308 37.4694C36.5369 37.6261 35.626 37.4714 34.903 37.0465C34.1689 36.6151 33.5803 35.8698 33.5803 34.8497V33.405C33.5803 33.1144 33.8138 32.8787 34.1018 32.8787C34.3898 32.8787 34.6233 33.1142 34.6233 33.4047V34.8497C34.6233 35.4076 34.9315 35.8457 35.428 36.1375C35.816 36.3655 36.2894 36.4824 36.7327 36.477C36.8231 35.6465 37.1681 34.9777 37.6758 34.4983C38.2701 33.9372 39.0549 33.666 39.8263 33.6661C40.5978 33.6661 41.3836 33.9373 41.9812 34.4971C42.5867 35.0642 42.9671 35.8981 42.9671 36.9537C42.9671 37.8377 42.6894 38.771 42.0355 39.5508C41.3792 40.3332 40.3743 40.9255 38.9818 41.1796C36.5198 41.6288 34.1747 40.423 32.2601 39.1443L30.8915 38.2303C30.4429 37.9307 30.2215 37.4425 30.1579 36.9877C30.0667 36.3351 29.7967 35.9066 29.4769 35.6443C29.1523 35.3781 28.7454 35.2578 28.3415 35.2782C27.5379 35.3188 26.801 35.901 26.801 36.9532C26.801 37.7583 27.1636 38.4104 28.413 39.4219L32.861 42.413C33.6426 42.9386 33.8257 44.097 33.0702 44.7827C30.4819 47.1319 27.3182 48 24.1936 48C21.0685 48 17.9237 47.1316 15.3398 44.7828C14.5851 44.0968 14.7679 42.9386 15.5496 42.413L19.9976 39.4219C21.247 38.4104 21.6096 37.7583 21.6096 36.9532C21.6096 35.901 20.8727 35.3188 20.0691 35.2782C19.6652 35.2578 19.2583 35.3781 18.9337 35.6443C18.6139 35.9066 18.3439 36.3351 18.2527 36.9877C18.1891 37.4425 17.9678 37.9307 17.5191 38.2303L16.1505 39.1443C14.2359 40.423 11.8908 41.6288 9.42884 41.1796C8.03632 40.9255 7.03139 40.3332 6.37516 39.5508C5.72119 38.771 5.44356 37.8377 5.44356 36.9537C5.44356 35.8981 5.82397 35.0642 6.42945 34.4971C7.02704 33.9373 7.81283 33.6661 8.58431 33.6661C9.35576 33.666 10.1405 33.9372 10.7348 34.4983C11.2425 34.9777 11.5875 35.6465 11.6779 36.477C12.1212 36.4824 12.5946 36.3655 12.9826 36.1375C13.4791 35.8457 13.7873 35.4076 13.7873 34.8497V33.405C13.7873 33.1144 14.0208 32.8787 14.3088 32.8787Z" fill="white"/><path d="M19.2053 24.0037C19.2053 22.8971 20.1024 22 21.209 22H27.2016C28.3082 22 29.2053 22.8971 29.2053 24.0037V29.5C29.2053 31.0241 27.9698 32.2596 26.4457 32.2596C25.9056 32.2596 25.3927 32.497 25.0431 32.9088L24.7454 33.2596C24.4625 33.5929 23.9481 33.5929 23.6652 33.2596L23.3675 32.9088C23.0179 32.497 22.505 32.2596 21.9649 32.2596C20.4408 32.2596 19.2053 31.0241 19.2053 29.5V24.0037Z" fill="white" fill-opacity="0.3"/><path d="M21.5228 7H26.8871C27.7549 5.82942 28.2025 5.25906 28.682 4.41043C30.0091 2.0614 28.9158 -4.32215e-05 24.2056 6.79666e-10C19.4953 4.32242e-05 18.4014 2.06123 19.7285 4.41025C20.208 5.25888 20.6549 5.53679 21.5228 7Z" fill="white" fill-opacity="0.3"/></svg>