<?xml version="1.0" encoding="UTF-8"?>
<svg width="24px" height="24px" viewBox="0 0 24 24" version="1.1" xmlns="http://www.w3.org/2000/svg" xmlns:xlink="http://www.w3.org/1999/xlink">
    <!-- Generator: Sketch 48.2 (47327) - http://www.bohemiancoding.com/sketch -->
    <title>icon_camera__m__black</title>
    <desc>Created with Sketch.</desc>
    <defs></defs>
    <g id="set" stroke="none" stroke-width="1" fill="none" fill-rule="evenodd">
        <g id="icon_camera__m__black">
            <rect id="_ph_" x="0" y="0" width="24" height="24"></rect>
            <g id="icon_action_photo__m__white">
                <g id="art">
                    <g id="a1" opacity="0.4"></g>
                    <rect id="Rectangle-path" x="0" y="0" width="24" height="24"></rect>
                    <path d="M22.897,21.573 C23.165,21.392 23.392,21.165 23.572,20.898 C23.852,20.484 24,20.001 24,19.5 L24,6.5 C24,5.999 23.852,5.516 23.573,5.103 C23.393,4.835 23.166,4.608 22.898,4.428 C22.484,4.147 22.001,4 21.5,4 L9,4 L9,2 L3,2 L3,4 L2.5,4 C1.122,4 0,5.121 0,6.5 L0,19.5 C0,20.879 1.122,22 2.5,22 L21.5,22 C22.001,22 22.484,21.853 22.897,21.573 L22.897,21.573 Z M1,19.5 L1,6.5 C1,5.673 1.673,5 2.5,5 L4,5 L4,3 L8,3 L8,5 L21.5,5 C21.8,5 22.09,5.089 22.338,5.256 L22.338,5.257 C22.499,5.364 22.635,5.501 22.744,5.662 C22.912,5.91 23,6.199 23,6.5 L23,19.5 C23,19.801 22.912,20.09 22.744,20.339 C22.636,20.499 22.499,20.636 22.339,20.744 C22.09,20.911 21.8,21 21.5,21 L2.5,21 C1.673,21 1,20.327 1,19.5 L1,19.5 Z" id="Shape" fill="#0F2338"></path>
                    <path d="M16,8 C13.243,8 11,10.243 11,13 C11,15.757 13.243,18 16,18 C18.757,18 21,15.757 21,13 C21,10.243 18.757,8 16,8 L16,8 Z M16,16 C14.346,16 13,14.654 13,13 C13,11.346 14.346,10 16,10 C17.654,10 19,11.346 19,13 C19,14.654 17.654,16 16,16 L16,16 Z" id="Shape" fill="#0F2338" opacity="0.3"></path>
                    <rect id="Rectangle-path" fill="#0F2338" opacity="0.3" x="4" y="9" width="5" height="3"></rect>
                </g>
            </g>
        </g>
    </g>
</svg>