<svg xmlns="http://www.w3.org/2000/svg" width="19" height="27" viewBox="0 0 19 27"><g fill="#FFF"><path d="M9.125 12.341c-.273 7.636-1.023 12-2.318 14.25A9.552 9.552 0 0 0 9.602 27c.955 0 1.909-.136 2.795-.409-1.295-2.25-2.045-6.614-2.318-14.25h-.954z"/><path d="M18.398 18c0-4.295-2.932-7.909-7.023-8.795-.205-2.932-.205-4.091-.205-5.523h-.682s.068 4.091.068 5.386C10.284 9 10.08 9 9.807 9V0h-.614v9c-.273 0-.477.068-.75.068.068-1.295.068-5.386.068-5.386H7.83c0 1.432 0 2.659-.205 5.523C3.602 10.091.602 13.636.602 18c0 3.136 1.705 5.932 4.091 7.568 3.205-3.341 3.75-12.545 3.75-13.159-.545 0-1.159.205-1.227.205-.682 4.227-2.591 7.909-4.705 9.886-.75-1.159-1.159-2.455-1.159-3.682 0-4.023 3.818-7.091 8.318-7.091 4.432 0 8.25 3.068 7.977 7.023a6.346 6.346 0 0 1-1.159 3.682c-2.182-1.977-4.023-5.523-4.705-9.886-.136 0-.75-.205-1.227-.205 0 .614.477 9.886 3.75 13.159 2.524-1.568 4.092-4.364 4.092-7.5z"/></g></svg>