<?xml version="1.0" encoding="UTF-8"?>
<svg width="36px" height="36px" viewBox="0 0 36 36" version="1.1" xmlns="http://www.w3.org/2000/svg" xmlns:xlink="http://www.w3.org/1999/xlink">
    <!-- Generator: Sketch 49.1 (51147) - http://www.bohemiancoding.com/sketch -->
    <title>icon_bank-uralsib_xl_black</title>
    <desc>Created with Sketch.</desc>
    <defs></defs>
    <g id="page" stroke="none" stroke-width="1" fill="none" fill-rule="evenodd">
        <g id="uralsib" transform="translate(-99.000000, -57.000000)">
            <g id="black" transform="translate(13.000000, 57.000000)">
                <g id="icon_bank-uralsib_xl_black" transform="translate(86.000000, 0.000000)">
                    <rect id="Rectangle" x="0" y="0" width="36" height="36"></rect>
                    <path d="M17.755,16.202 C11.922,16.202 6.972,20.179 6.972,25.394 C6.972,26.985 7.502,28.664 8.475,30.167 C11.215,27.604 13.69,22.831 14.573,17.351 C14.661,17.351 15.457,17.086 16.164,17.086 C16.164,17.881 15.457,29.813 11.303,34.144 C8.21,32.023 6,28.399 6,24.333 C6,18.676 9.889,14.08 15.104,12.931 C15.369,9.219 15.369,7.628 15.369,5.772 L16.253,5.772 C16.253,5.772 16.253,11.075 16.165,12.754 C16.519,12.754 16.784,12.666 17.137,12.666 L17.137,1 L17.932,1 L17.932,12.667 C18.286,12.667 18.551,12.667 18.904,12.755 C18.904,11.076 18.816,5.773 18.816,5.773 L19.7,5.773 C19.7,7.629 19.7,9.132 19.965,12.932 C25.268,14.081 29.069,18.765 29.069,24.334 C29.069,28.4 27.036,32.023 23.766,34.056 C19.524,29.814 18.905,17.793 18.905,16.998 C19.524,16.998 20.319,17.263 20.496,17.263 C21.38,22.92 23.766,27.516 26.594,30.079 C27.5786858,28.6827761 28.1040174,27.0145075 28.097,25.306 C28.449,20.179 23.5,16.202 17.755,16.202 Z M14.043,35.47 C15.722,32.553 16.695,26.897 17.048,16.998 L18.285,16.998 C18.639,26.897 19.611,32.554 21.29,35.47 C20.141,35.824 18.904,36 17.666,36 C16.428,36 15.192,35.823 14.043,35.47 Z" id="Shape" fill="#0B1F35" fill-rule="nonzero"></path>
                </g>
            </g>
        </g>
    </g>
</svg>