<svg xmlns="http://www.w3.org/2000/svg" width="18" height="18" version="1" viewBox="0 0 18 18"><path fill="#0B1F35" d="M15.761 10.667c0-3.023-2.063-5.566-4.942-6.189-.144-2.063-.144-.879-.144-1.886h-.48s.048.879.048 1.79c-.192-.048-.336-.048-.528-.048V0h-.431v4.333c-.192 0-.336.048-.528.048.048-.912.048-1.79.048-1.79h-.48c0 1.008 0-.129-.144 1.886a6.293 6.293 0 0 0-4.941 6.19c0 2.207 1.2 4.174 2.879 5.326 2.255-2.351 2.639-8.828 2.639-9.26-.384 0-.816.144-.864.144-.48 2.975-1.823 5.566-3.311 6.957-.528-.816-.816-1.727-.816-2.591 0-2.831 2.687-4.99 5.854-4.99 3.119 0 5.806 2.159 5.614 4.942 0 .864-.24 1.775-.816 2.591-1.535-1.391-2.831-3.886-3.311-6.957-.096 0-.528-.144-.864-.144 0 .432.336 6.957 2.639 9.26 1.776-1.104 2.879-3.071 2.879-5.278z"/><path fill="#0B1F35" d="M9.236 6.684c-.192 5.374-.72 8.444-1.631 10.028A6.726 6.726 0 0 0 9.572 17c.672 0 1.343-.096 1.967-.288-.912-1.583-1.439-4.654-1.631-10.028h-.672z"/></svg>