<svg xmlns="http://www.w3.org/2000/svg" width="18" height="18" version="1" viewBox="0 0 18 18"><path fill="#184A81" d="M9.62 6.253c-3.167 0-5.854 2.159-5.854 4.99 0 .864.288 1.775.816 2.591 1.487-1.391 2.831-3.982 3.311-6.957.048 0 .48-.144.864-.144 0 .432-.384 6.909-2.639 9.26-1.679-1.152-2.879-3.119-2.879-5.326a6.291 6.291 0 0 1 4.942-6.189c.144-2.015.144-.879.144-1.886h.48s0 .879-.048 1.79c.192 0 .336-.048.528-.048V0h.432v4.333c.192 0 .336 0 .528.048 0-.912-.048-1.79-.048-1.79h.48c0 1.008 0-.177.144 1.886 2.879.624 4.942 3.167 4.942 6.189 0 2.207-1.104 4.174-2.879 5.278-2.303-2.303-2.639-8.828-2.639-9.26.336 0 .768.144.864.144.48 3.071 1.775 5.566 3.311 6.957a4.463 4.463 0 0 0 .816-2.591c.19-2.782-2.497-4.941-5.616-4.941M7.605 16.712c.912-1.583 1.439-4.654 1.631-10.028h.672c.192 5.374.72 8.444 1.631 10.028A6.726 6.726 0 0 1 9.572 17a6.726 6.726 0 0 1-1.967-.288z"/></svg>