<svg xmlns="http://www.w3.org/2000/svg" width="30" height="30" version="1" viewBox="0 0 30 30"><path fill="#0B1F35" d="M15.125 13.341c-.273 7.636-1.023 12-2.318 14.25a9.552 9.552 0 0 0 2.795.409c.955 0 1.909-.136 2.795-.409-1.295-2.25-2.045-6.614-2.318-14.25h-.954z"/><path fill="#0B1F35" d="M24.398 19c0-4.295-2.932-7.909-7.023-8.795-.205-2.932-.205-4.091-.205-5.523h-.682s.068 4.091.068 5.386C16.284 10 16.08 10 15.807 10V1h-.614v9c-.273 0-.477.068-.75.068.068-1.295.068-5.386.068-5.386h-.681c0 1.432 0 2.659-.205 5.523-4.023.886-7.023 4.431-7.023 8.795 0 3.136 1.705 5.932 4.091 7.568 3.205-3.341 3.75-12.545 3.75-13.159-.545 0-1.159.205-1.227.205-.682 4.227-2.591 7.909-4.705 9.886-.75-1.159-1.159-2.455-1.159-3.682 0-4.023 3.818-7.091 8.318-7.091 4.432 0 8.25 3.068 7.977 7.023a6.346 6.346 0 0 1-1.159 3.682c-2.182-1.977-4.023-5.523-4.705-9.886-.136 0-.75-.205-1.227-.205 0 .614.477 9.886 3.75 13.159 2.524-1.568 4.092-4.364 4.092-7.5z"/></svg>