<svg xmlns="http://www.w3.org/2000/svg" width="17" height="24" viewBox="0 0 17 24"><g fill="#FFF"><path d="M16.08 15.833c0-3.659-2.497-6.737-5.982-7.492-.174-2.497-.174-3.485-.174-4.705h-.581s.058 3.485.058 4.588c-.232-.058-.407-.058-.639-.058V.5h-.523v7.667c-.232 0-.407.058-.639.058.058-1.104.058-4.588.058-4.588h-.581c0 1.22 0 2.265-.174 4.705C3.476 9.096.92 12.116.92 15.833c0 2.672 1.452 5.053 3.485 6.447 2.73-2.846 3.194-10.687 3.194-11.21-.465 0-.987.174-1.045.174-.581 3.601-2.207 6.737-4.008 8.422-.639-.987-.987-2.091-.987-3.136 0-3.427 3.253-6.04 7.086-6.04 3.775 0 7.028 2.614 6.795 5.982 0 1.045-.29 2.149-.987 3.136-1.859-1.684-3.427-4.705-4.008-8.422-.116 0-.639-.174-1.045-.174 0 .523.407 8.422 3.194 11.21 2.15-1.336 3.486-3.717 3.486-6.389z"/><path d="M8.181 11.013c-.232 6.505-.871 10.222-1.975 12.139a8.156 8.156 0 0 0 2.381.349c.813 0 1.626-.116 2.381-.349-1.104-1.917-1.742-5.634-1.975-12.139h-.812z"/></g></svg>