<svg xmlns="http://www.w3.org/2000/svg" width="13" height="17" viewBox="0 0 13 17"><g fill="#FFF"><path d="M12.761 10.074c0-2.855-2.063-5.256-4.942-5.845-.144-1.948-.144-.83-.144-1.781h-.48s.048.83.048 1.69c-.192-.045-.336-.045-.528-.045V0h-.431v4.092c-.192 0-.336.046-.528.046.048-.862.048-1.69.048-1.69h-.48c0 .951 0-.123-.144 1.78-2.83.59-4.941 2.946-4.941 5.846 0 2.085 1.2 3.943 2.879 5.03 2.255-2.22 2.639-8.337 2.639-8.745-.384 0-.816.136-.864.136-.48 2.81-1.823 5.257-3.311 6.57-.528-.77-.816-1.63-.816-2.447 0-2.673 2.687-4.712 5.854-4.712 3.119 0 5.806 2.039 5.614 4.667 0 .816-.24 1.676-.816 2.447-1.535-1.314-2.831-3.67-3.311-6.57-.096 0-.528-.136-.864-.136 0 .408.336 6.57 2.639 8.745 1.776-1.042 2.879-2.9 2.879-4.985z"/><path d="M6.236 6.313c-.192 5.075-.72 7.975-1.631 9.47a7.093 7.093 0 0 0 1.967.273c.672 0 1.343-.091 1.967-.272-.912-1.495-1.439-4.396-1.631-9.471h-.672z"/></g></svg>