<?xml version="1.0" encoding="UTF-8"?>
<svg width="24px" height="24px" viewBox="0 0 24 24" version="1.1" xmlns="http://www.w3.org/2000/svg" xmlns:xlink="http://www.w3.org/1999/xlink">
    <!-- Generator: Sketch 49.1 (51147) - http://www.bohemiancoding.com/sketch -->
    <title>icon_bank-uralsib_m_white</title>
    <desc>Created with Sketch.</desc>
    <defs></defs>
    <g id="page" stroke="none" stroke-width="1" fill="none" fill-rule="evenodd">
        <g id="uralsib" transform="translate(-37.000000, -17.000000)">
            <g id="white" transform="translate(13.000000, 17.000000)">
                <g id="icon_bank-uralsib_m_white" transform="translate(24.000000, 0.000000)">
                    <rect id="Rectangle" x="0" y="0" width="24" height="24"></rect>
                    <path d="M11.7251776,10.99 C7.89217761,10.99 4.63917761,13.604 4.63917761,17.03 C4.63917761,18.075 4.98717761,19.179 5.62617761,20.166 C7.42717761,18.482 9.05317761,15.345 9.63417761,11.744 C9.69217761,11.744 10.2151776,11.57 10.6791776,11.57 C10.6791776,12.093 10.2141776,19.934 7.48517761,22.78 C5.45217761,21.386 4.00017761,19.005 4.00017761,16.333 C3.97576875,12.7367261 6.46971265,9.61325106 9.98217761,8.841 C10.1561776,6.402 10.1561776,5.356 10.1561776,4.136 L10.7371776,4.136 C10.7371776,4.136 10.7371776,7.621 10.6791776,8.724 C10.9111776,8.724 11.0861776,8.666 11.3181776,8.666 L11.3181776,1 L11.8411776,1 L11.8411776,8.667 C12.0731776,8.667 12.2481776,8.667 12.4801776,8.725 C12.4801776,7.621 12.4221776,4.137 12.4221776,4.137 L13.0031776,4.137 C13.0031776,5.357 13.0031776,6.344 13.1771776,8.842 C16.6621776,9.597 19.1591776,12.675 19.1591776,16.334 C19.1591776,19.006 17.8231776,21.387 15.6741776,22.723 C12.8861776,19.935 12.4801776,12.036 12.4801776,11.513 C12.8871776,11.513 13.4091776,11.687 13.5251776,11.687 C14.1061776,15.404 15.6741776,18.424 17.5331776,20.109 C18.1799471,19.1915718 18.5249222,18.0954806 18.5201776,16.973 C18.7531776,13.604 15.5001776,10.99 11.7251776,10.99 Z M9.28617761,23.652 C10.3901776,21.735 11.0281776,18.018 11.2611776,11.513 L12.0741776,11.513 C12.3061776,18.018 12.9451776,21.735 14.0491776,23.652 C13.2931776,23.884 12.4801776,24 11.6671776,24 C10.8541776,24 10.0411776,23.884 9.28617761,23.652 Z" id="Shape" fill="#FFFFFF" fill-rule="nonzero"></path>
                </g>
            </g>
        </g>
    </g>
</svg>