<?xml version="1.0" encoding="UTF-8"?>
<svg width="30px" height="30px" viewBox="0 0 30 30" version="1.1" xmlns="http://www.w3.org/2000/svg" xmlns:xlink="http://www.w3.org/1999/xlink">
    <!-- Generator: Sketch 49.1 (51147) - http://www.bohemiancoding.com/sketch -->
    <title>icon_bank-uralsib_l_white</title>
    <desc>Created with Sketch.</desc>
    <defs></defs>
    <g id="page" stroke="none" stroke-width="1" fill="none" fill-rule="evenodd">
        <g id="uralsib" transform="translate(-65.000000, -17.000000)">
            <g id="white" transform="translate(13.000000, 17.000000)">
                <g id="icon_bank-uralsib_l_white" transform="translate(52.000000, 0.000000)">
                    <rect id="Rectangle" x="0" y="0" width="30" height="30"></rect>
                    <path d="M15.068,13.727 C10.568,13.727 6.75,16.795 6.75,20.818 C6.75,22.045 7.159,23.341 7.909,24.5 C10.023,22.523 11.932,18.841 12.614,14.614 C12.682,14.614 13.296,14.409 13.841,14.409 C13.841,15.023 13.296,24.227 10.091,27.568 C7.705,25.932 6,23.136 6,20 C6,15.636 9,12.091 13.023,11.205 C13.228,8.341 13.228,7.114 13.228,5.682 L13.91,5.682 C13.91,5.682 13.91,9.773 13.842,11.068 C14.115,11.068 14.319,11 14.592,11 L14.592,2 L15.206,2 L15.206,11 C15.479,11 15.683,11 15.956,11.068 C15.956,9.773 15.888,5.682 15.888,5.682 L16.57,5.682 C16.57,7.114 16.57,8.273 16.775,11.205 C20.866,12.091 23.798,15.705 23.798,20 C23.798,23.136 22.23,25.932 19.707,27.5 C16.434,24.227 15.957,14.955 15.957,14.341 C16.434,14.341 17.048,14.546 17.184,14.546 C17.866,18.91 19.707,22.455 21.889,24.432 C22.6482938,23.3547911 23.0533724,22.0679064 23.048,20.75 C23.318,16.795 19.5,13.727 15.068,13.727 Z M12.205,28.591 C13.5,26.341 14.25,21.977 14.523,14.341 L15.478,14.341 C15.751,21.977 16.501,26.341 17.796,28.591 C16.909,28.864 15.955,29 15,29 C14.045,29 13.091,28.864 12.205,28.591 Z" id="Shape" fill="#FFFFFF" fill-rule="nonzero"></path>
                </g>
            </g>
        </g>
    </g>
</svg>