<svg xmlns="http://www.w3.org/2000/svg" width="24" height="24" version="1" viewBox="0 0 24 24"><path fill="#184A81" d="M12.645 10.49c-3.833 0-7.086 2.614-7.086 6.04 0 1.045.348 2.149.987 3.136 1.801-1.684 3.427-4.821 4.008-8.422.058 0 .581-.174 1.045-.174 0 .523-.465 8.364-3.194 11.21-2.033-1.394-3.485-3.775-3.485-6.447a7.618 7.618 0 0 1 5.982-7.492c.174-2.439.174-3.485.174-4.705h.581s0 3.485-.058 4.588c.232 0 .407-.058.639-.058V.5h.523v7.667c.232 0 .407 0 .639.058 0-1.104-.058-4.588-.058-4.588h.581c0 1.22 0 2.207.174 4.705 3.485.755 5.982 3.833 5.982 7.492 0 2.672-1.336 5.053-3.485 6.389-2.788-2.788-3.194-10.687-3.194-11.21.407 0 .929.174 1.045.174.581 3.717 2.149 6.737 4.008 8.422a5.403 5.403 0 0 0 .987-3.136c.233-3.369-3.02-5.983-6.795-5.983m-2.439 12.662c1.104-1.917 1.742-5.634 1.975-12.139h.813c.232 6.505.871 10.222 1.975 12.139-.756.232-1.569.348-2.382.348s-1.626-.116-2.381-.348z"/></svg>