<?xml version="1.0" encoding="UTF-8"?>
<svg width="18px" height="18px" viewBox="0 0 18 18" version="1.1" xmlns="http://www.w3.org/2000/svg" xmlns:xlink="http://www.w3.org/1999/xlink">
    <!-- Generator: Sketch 49.1 (51147) - http://www.bohemiancoding.com/sketch -->
    <title>icon_bank-uralsib_s_white</title>
    <desc>Created with Sketch.</desc>
    <defs></defs>
    <g id="page" stroke="none" stroke-width="1" fill="none" fill-rule="evenodd">
        <g id="uralsib" transform="translate(-13.000000, -17.000000)">
            <g id="white" transform="translate(13.000000, 17.000000)">
                <g id="icon_bank-uralsib_s_white">
                    <rect id="Rectangle-3" x="0" y="0" width="18" height="18"></rect>
                    <path d="M9.38115791,7.253 C6.21415791,7.253 3.52715791,9.412 3.52715791,12.243 C3.52715791,13.107 3.81515791,14.018 4.34315791,14.834 C5.83015791,13.443 7.17415791,10.852 7.65415791,7.877 C7.70215791,7.877 8.13415791,7.733 8.51815791,7.733 C8.51815791,8.165 8.13415791,14.642 5.87915791,16.993 C4.20015791,15.841 3.00015791,13.874 3.00015791,11.667 C2.9792333,8.69579339 5.03997749,6.11506781 7.94215791,5.478 C8.08615791,3.463 8.08615791,4.599 8.08615791,3.592 L8.56615791,3.592 C8.56615791,3.592 8.56615791,4.471 8.51815791,5.382 C8.71015791,5.382 8.85415791,5.334 9.04615791,5.334 L9.04615791,1 L9.47815791,1 L9.47815791,5.333 C9.67015791,5.333 9.81415791,5.333 10.0061579,5.381 C10.0061579,4.469 9.95815791,3.591 9.95815791,3.591 L10.4381579,3.591 C10.4381579,4.599 10.4381579,3.414 10.5821579,5.477 C13.4611579,6.101 15.5241579,8.644 15.5241579,11.666 C15.5241579,13.873 14.4201579,15.84 12.6451579,16.944 C10.3421579,14.641 10.0061579,8.116 10.0061579,7.684 C10.3421579,7.684 10.7741579,7.828 10.8701579,7.828 C11.3501579,10.899 12.6451579,13.394 14.1811579,14.785 C14.7157758,14.0271032 15.0009911,13.1214746 14.9971579,12.194 C15.1871579,9.412 12.5001579,7.253 9.38115791,7.253 Z M7.36615791,17.712 C8.27815791,16.129 8.80515791,13.058 8.99715791,7.684 L9.66915791,7.684 C9.86115791,13.058 10.3891579,16.128 11.3001579,17.712 C10.6623762,17.9049011 9.9994705,18.001961 9.33315791,18 C8.66684531,18.001961 8.00393959,17.9049011 7.36615791,17.712 Z" id="Shape" fill="#FFFFFF" fill-rule="nonzero"></path>
                </g>
            </g>
        </g>
    </g>
</svg>