<svg xmlns="http://www.w3.org/2000/svg" width="18" height="18" viewBox="0 0 18 18" fill="none"><rect width="18" height="18" fill="none"/><path d="M8.25 1H9.75V9H8.25V1Z" fill="#0B1F35"/><path fill-rule="evenodd" clip-rule="evenodd" d="M5.78893 3.19921C3.74936 4.331 2.37143 6.50494 2.37143 8.99978C2.37143 12.6607 5.33914 15.6285 9 15.6285C12.6609 15.6285 15.6286 12.6607 15.6286 8.99978C15.6286 6.50494 14.2506 4.331 12.2111 3.19921L12.8765 2C15.3341 3.36378 17 5.98676 17 8.99978C17 13.4182 13.4183 17 9 17C4.58172 17 1 13.4182 1 8.99978C1 5.98676 2.66586 3.36378 5.12351 2L5.78893 3.19921Z" fill="#0B1F35"/></svg>