<svg width="48px" height="48px" viewBox="0 0 48 48" version="1.1" xmlns="http://www.w3.org/2000/svg"><g stroke="none" stroke-width="1" fill="none" fill-rule="evenodd"><rect x="0" y="0" width="48" height="48"/><g transform="translate(7.000000, 1.000000)" fill="#0B1F35" fill-rule="nonzero"><path d="M12,45.542 C12,46.462 12.746,47 13.667,47 L20.334,47 C21.254,47 22,46.462 22,45.542 L22,42 L12,42 L12,45.542 Z" opacity="0.3"/><path d="M21.912,39 L21.912,38.5 C21.912,35.914 23.844,34.163 26.289,31.946 C29.725,28.831 34,24.955 34,17 C34,7.626 26.374,0 17,0 C7.626,0 0,7.626 0,17 C0,24.955 4.275,28.831 7.711,31.946 C10.157,34.163 12.088,35.914 12.088,38.5 L12.088,39 L21.912,39 Z M8.383,31.205 C4.922,28.067 1,24.512 1,17 C1,8.178 8.178,1 17,1 C25.822,1 33,8.178 33,17 C33,24.512 29.078,28.067 25.617,31.205 C23.234,33.366 21.157,35.249 20.931,38 L13.068,38 C12.843,35.249 10.766,33.366 8.383,31.205 Z"/><path d="M18.833,38.5 L20.833,38.5 C20.833,34.514 22.212,31.781 23.671,28.89 C25.308,25.646 27,22.293 27,17 C27,10.903 24.357,3.85 20.618,0.91 C19.452,0.649 18.245,0.5 17,0.5 C15.755,0.5 14.548,0.649 13.382,0.91 C9.643,3.85 7,10.903 7,17 C7,22.293 8.692,25.646 10.329,28.89 C11.788,31.782 13.167,34.514 13.167,38.5 L15.167,38.5 C15.167,34.037 13.615,30.962 12.114,27.988 C10.583,24.954 9,21.816 9,17 C9,10.255 12.49,2.926 16,1.699 L16,38.5 L17,38.5 L18,38.5 L18,1.699 C21.51,2.926 25,10.255 25,17 C25,21.816 23.417,24.954 21.886,27.988 C20.385,30.962 18.833,34.037 18.833,38.5 Z" opacity="0.3"/></g></g></svg>