<svg width="36px" height="36px" viewBox="0 0 36 36" version="1.1" xmlns="http://www.w3.org/2000/svg"><g stroke="none" stroke-width="1" fill="none" fill-rule="evenodd"><rect x="0" y="0" width="36" height="36"/><g transform="translate(6.000000, 1.000000)" fill="#0B1F35" fill-rule="nonzero"><path d="M8,32.667 C8,33.403 8.597,34 9.333,34 L14.666,34 C15.403,34 16,33.403 16,32.667 L16,30 L8,30 L8,32.667 Z" opacity="0.3"/><path d="M16.078,28 L16.078,27.5 C16.078,25.682 17.24,23.628 19.241,21.882 C20.033,21.273 20.735,20.584 21.331,19.836 C22.858,18.048 23.707,15.975 23.927,13.506 C23.976,13.04 24,12.607 24,12.183 C24,5.465 18.617,0 12,0 C5.383,0 0,5.465 0,12.183 C0,12.608 0.024,13.04 0.073,13.497 C0.293,15.977 1.145,18.053 2.664,19.829 C3.26,20.579 3.966,21.269 4.737,21.863 C6.762,23.628 7.923,25.682 7.923,27.5 L7.923,28 L16.078,28 Z M5.37,21.091 C4.64,20.528 3.993,19.894 3.435,19.193 C2.025,17.545 1.273,15.707 1.068,13.401 C1.022,12.97 1,12.571 1,12.183 C1,6.017 5.935,1 12,1 C18.065,1 23,6.017 23,12.183 C23,12.572 22.978,12.97 22.931,13.41 C22.727,15.707 21.975,17.545 20.565,19.193 L20.553,19.207 C20.007,19.895 19.36,20.528 18.607,21.11 C17.366,22.19 15.333,24.344 15.1,27 L8.9,27 C8.667,24.344 6.633,22.189 5.37,21.091 Z"/><path d="M12,0 C8.206,0 5,4.95 5,10.809 C5,14.859 6.224,17.423 7.407,19.905 C8.49,22.176 9.514,24.323 9.514,27.501 L10.514,27.501 C10.514,24.097 9.393,21.747 8.309,19.475 C7.174,17.093 6,14.632 6,10.809 C6,5.858 8.517,1.491 11.5,1.045 L11.5,26.613 L12.5,26.613 L12.5,1.044 C15.483,1.49 18,5.857 18,10.808 C18,14.631 16.826,17.092 15.69,19.473 C14.606,21.745 13.485,24.095 13.485,27.499 L14.485,27.499 C14.485,24.321 15.509,22.175 16.592,19.903 C17.776,17.423 19,14.858 19,10.809 C19,4.95 15.794,0 12,0 Z" opacity="0.3"/></g></g></svg>