<svg xmlns="http://www.w3.org/2000/svg" width="24" height="24" viewBox="0 0 24 24"><path fill="none" d="M0 0h24v24H0z"/><path fill="#0B1F35" d="M14.71 17.76H9.29v-.5c0-1.09-.82-1.79-1.85-2.66l-.29-.25A8 8 0 0 1 5.78 13 7.11 7.11 0 0 1 4 8.86 8 8 0 1 1 20 8a8.1 8.1 0 0 1 0 .87A7.12 7.12 0 0 1 18.22 13a8 8 0 0 1-1.39 1.34l-.27.23c-1 .88-1.85 1.57-1.85 2.66v.5zm-4.45-1h3.49c.2-1.26 1.16-2.07 2.17-2.93l.29-.25a7.12 7.12 0 0 0 1.25-1.2A6.07 6.07 0 0 0 19 8.77 7.18 7.18 0 0 0 19 8 7 7 0 0 0 5 8a7.14 7.14 0 0 0 0 .76 6.08 6.08 0 0 0 1.5 3.62 7.08 7.08 0 0 0 1.23 1.19l.31.26c1.06.86 2.01 1.67 2.21 2.93z"/><path fill="#0B1F35" d="M9 20h6v2a1 1 0 0 1-1 1h-4a1 1 0 0 1-1-1v-2z" opacity=".4"/><path fill="#0B1F35" d="M11.18 17.26h-1A9.42 9.42 0 0 0 9 12.74a11.53 11.53 0 0 1-1.47-5.62C7.53 3.06 9.45 0 12 0v1c-1.95 0-3.47 2.69-3.47 6.12a10.56 10.56 0 0 0 1.33 5.18 10.37 10.37 0 0 1 1.32 4.96zm2.64 0h-1a10.37 10.37 0 0 1 1.31-5 10.56 10.56 0 0 0 1.33-5.19C15.47 3.69 13.95 1 12 1V0c2.55 0 4.47 3.06 4.47 7.12A11.53 11.53 0 0 1 15 12.74a9.42 9.42 0 0 0-1.18 4.52z" opacity=".3"/><path fill="#0B1F35" d="M11.5.5h1v16.76h-1z" opacity=".3"/></svg>