<svg width="24px" height="24px" viewBox="0 0 24 24" version="1.1" xmlns="http://www.w3.org/2000/svg"><g stroke="none" stroke-width="1" fill="none" fill-rule="evenodd"><rect x="0" y="0" width="24" height="24"/><g transform="translate(4.000000, 0.000000)" fill="#0B1F35" fill-rule="nonzero"><path d="M5,22 C5,22.552 5.448,23 6,23 L10,23 C10.552,23 11,22.552 11,22 L11,20 L5,20 L5,22 Z" opacity="0.3"/><path d="M10.706,17.764 L10.706,17.264 C10.706,16.171 11.523,15.478 12.557,14.601 L12.825,14.372 C13.35,13.975 13.819,13.523 14.217,13.031 C15.238,11.853 15.805,10.49 15.951,8.87 C15.982,8.584 16,8.294 16,8 C16,3.589 12.411,0 8,0 C3.589,0 0,3.589 0,8 C0,8.294 0.018,8.584 0.048,8.86 C0.195,10.492 0.765,11.858 1.778,13.023 C2.178,13.517 2.648,13.971 3.152,14.352 L3.444,14.6 C4.478,15.477 5.295,16.17 5.295,17.263 L5.295,17.763 L10.706,17.763 L10.706,17.764 Z M4.09,13.838 L3.779,13.574 C3.316,13.223 2.904,12.826 2.544,12.381 C1.65,11.353 1.173,10.205 1.043,8.762 C1.016,8.512 1,8.257 1,8 C1,4.141 4.14,1 8,1 C11.86,1 15,4.141 15,8 C15,8.257 14.984,8.512 14.956,8.771 C14.827,10.206 14.35,11.353 13.456,12.381 L13.445,12.395 C13.096,12.827 12.684,13.224 12.197,13.593 L11.91,13.838 C10.904,14.692 9.947,15.504 9.745,16.764 L6.255,16.764 C6.053,15.504 5.096,14.691 4.09,13.838 Z"/><path d="M8,0 C5.451,0 3.529,3.06 3.529,7.117 C3.529,9.759 4.257,11.273 4.961,12.737 C5.586,14.037 6.176,15.264 6.176,17.263 L7.176,17.263 C7.176,15.036 6.508,13.647 5.863,12.304 C5.177,10.878 4.529,9.53 4.529,7.117 C4.529,3.987 5.799,1.484 7.5,1.068 L7.5,17.264 L8.5,17.264 L8.5,1.068 C10.2,1.484 11.471,3.988 11.471,7.117 C11.471,9.53 10.824,10.878 10.138,12.305 C9.492,13.648 8.825,15.037 8.825,17.264 L9.825,17.264 C9.825,15.265 10.415,14.037 11.04,12.738 C11.744,11.274 12.472,9.759 12.472,7.118 C12.471,3.06 10.549,0 8,0 Z" opacity="0.3"/></g></g></svg>