<svg xmlns="http://www.w3.org/2000/svg" width="36" height="36" viewBox="0 0 36 36"><path fill="none" d="M0 0h36v36H0z"/><path fill="#0B1F35" d="M22.08 29h-8.16v-.5c0-1.82-1.16-3.87-3.19-5.64a12.06 12.06 0 0 1-2.07-2 10.9 10.9 0 0 1-2.59-6.36A12.3 12.3 0 0 1 6 13.18 12.11 12.11 0 0 1 18 1a12.11 12.11 0 0 1 12 12.18 12.34 12.34 0 0 1-.07 1.32 10.9 10.9 0 0 1-2.6 6.33 12.12 12.12 0 0 1-2.09 2c-2 1.75-3.16 3.8-3.16 5.62V29zm-7.18-1h6.2c.23-2.66 2.27-4.81 3.51-5.89a11.27 11.27 0 0 0 1.95-1.9 9.81 9.81 0 0 0 2.37-5.78 11.57 11.57 0 0 0 .07-1.25A11.11 11.11 0 0 0 18 2 11.11 11.11 0 0 0 7 13.18a11.53 11.53 0 0 0 .07 1.22 9.82 9.82 0 0 0 2.37 5.79 11.21 11.21 0 0 0 1.94 1.9c1.25 1.1 3.29 3.25 3.52 5.91z"/><path fill="#0B1F35" d="M14 31h8v2.67A1.33 1.33 0 0 1 20.67 35h-5.34A1.33 1.33 0 0 1 14 33.67V31zm2.51-2.5h-1a16.29 16.29 0 0 0-2.11-7.6 19.21 19.21 0 0 1-2.4-9.09C11 6 14.21 1 18 1v1c-3.2 0-6 4.58-6 9.81a18.38 18.38 0 0 0 2.31 8.67 17.33 17.33 0 0 1 2.2 8.02zm3.98 0h-1a17.33 17.33 0 0 1 2.21-8 18.38 18.38 0 0 0 2.3-8.69C24 6.58 21.2 2 18 2V1c3.79 0 7 5 7 10.81a19.21 19.21 0 0 1-2.41 9.1 16.29 16.29 0 0 0-2.1 7.59z" opacity=".3"/><path fill="#0B1F35" d="M17.5 1.5h1v26.11h-1z" opacity=".3"/></svg>