<svg width="48" height="48" viewBox="0 0 48 48" xmlns="http://www.w3.org/2000/svg"><g fill="none" fill-rule="evenodd"><path d="M0 0h48v48H0z"/><path d="M19 46.542c0 .92.746 1.458 1.667 1.458h6.667c.92 0 1.666-.538 1.666-1.458V43H19v3.542z" fill="#FFF" opacity=".3"/><path d="M28.912 40v-.5c0-2.586 1.932-4.337 4.377-6.554C36.725 29.831 41 25.955 41 18c0-9.374-7.626-17-17-17C14.626 1 7 8.626 7 18c0 7.955 4.275 11.831 7.711 14.946 2.446 2.217 4.377 3.968 4.377 6.554v.5h9.824zm-13.529-7.795C11.922 29.067 8 25.512 8 18 8 9.178 15.178 2 24 2s16 7.178 16 16c0 7.512-3.922 11.067-7.383 14.205-2.383 2.161-4.46 4.044-4.686 6.795h-7.863c-.225-2.751-2.302-4.634-4.685-6.795z" fill="#FFF"/><path d="M25.833 39.5h2c0-3.986 1.379-6.719 2.838-9.61C32.308 26.646 34 23.293 34 18c0-6.097-2.643-13.15-6.382-16.09A16.524 16.524 0 0 0 24 1.5c-1.245 0-2.452.149-3.618.41C16.643 4.85 14 11.903 14 18c0 5.293 1.692 8.646 3.329 11.89 1.459 2.892 2.838 5.624 2.838 9.61h2c0-4.463-1.552-7.538-3.053-10.512C17.583 25.954 16 22.816 16 18c0-6.745 3.49-14.074 7-15.301V39.5h2V2.699c3.51 1.227 7 8.556 7 15.301 0 4.816-1.583 7.954-3.114 10.988-1.501 2.974-3.053 6.049-3.053 10.512z" fill="#FFF" opacity=".3"/></g></svg>