<svg xmlns="http://www.w3.org/2000/svg" width="22" height="22" viewBox="0 0 22 22"><g fill="#FFF"><path d="M.88 6.56l5.76 3.36 12-6.88c-.32-.32-.64-.56-.96-.8L6.64 8.48l-5.2-2.96c-.24.32-.4.72-.56 1.04z"/><path d="M16.56 1.44c-.4-.24-.88-.48-1.28-.64L6.64 5.76 2.8 3.52l-.72.96 4.56 2.64 9.92-5.68z"/><path d="M.24 8.48c0 .16-.08.24-.08.4l6.48 3.76 13.52-7.76c-.16-.24-.24-.4-.4-.56-.08-.08-.08-.16-.16-.24 0-.08-.08-.08-.08-.16L6.64 11.28.48 7.68c-.08.24-.16.56-.24.8z"/><path d="M0 10.8c0 .72.08 1.44.16 2.16.24 1.28.72 2.48 1.28 3.52.8 1.36 1.84 2.56 3.12 3.44.88.64 1.76 1.12 2.8 1.44.4.16.88.24 1.36.4.64.16 1.28.24 2 .24h.64c.32 0 .72 0 1.12-.08 1.52-.16 3.04-.72 4.32-1.52 1.28-.8 2.4-1.84 3.2-3.04.88-1.28 1.52-2.72 1.84-4.24 0-.16.08-.4.08-.64.08-.48.08-1.04.08-1.52v-.32c0-.48-.08-.88-.16-1.36-.16-1.2-.56-2.32-1.12-3.36L6.64 14.08 0 10.24v.56z"/></g></svg>