<svg xmlns="http://www.w3.org/2000/svg" width="30" height="30" version="1" viewBox="0 0 30 30"><path fill="#DF493A" d="M26.979 9.954C30.459 6.783 28.5 5 25.291 5.083c2.859.301 2.558 1.053 2.558 1.655 0 .602-1.204 1.655-2.708 3.009 0 0-2.558 2.407-4.514 4.063-1.956 1.655-7.824 6.771-9.028 7.674-1.204.903-5.718 4.213-6.019 4.514-.301.15-1.053.903-1.505.451.88.879 2.527.249 3.759-.57.219.146.441.287.67.421C10.346 27.396 12.653 28 15 28c2.329 0 4.517-.573 6.5-1.702A13.116 13.116 0 0 0 28 15c0-1.757-.359-3.469-1.021-5.046zM16.112 8.845c0-.301.151-.602-.301-.752-.451-.301-1.806-1.053-2.107-1.354-.301-.151-.301-1.053.602-1.204.735-.122 5.653-.544 9-.534a12.631 12.631 0 0 0-1.792-1.289C19.355 2.576 17.132 2 14.908 2c-2.329 0-4.517.573-6.49 1.696C4.399 6.18 2 10.406 2 15c0 3.241 1.229 6.321 3.334 8.684 2.371-3.433 8.366-11.975 8.973-12.583 0 .001 1.655-2.106 1.805-2.256z"/><path fill="#FFF" d="M5.58 25.998c.301-.301 4.815-3.611 6.019-4.514 1.204-.903 7.072-6.019 9.028-7.674 1.956-1.655 4.514-4.063 4.514-4.063 1.505-1.354 2.708-2.407 2.708-3.009 0-.602.301-1.354-2.558-1.655A20.477 20.477 0 0 0 23.307 5c-3.347-.009-8.266.412-9 .534-.903.15-.903 1.053-.602 1.204.301.301 1.655 1.053 2.107 1.354.451.15.301.451.301.752-.15.15-1.806 2.257-1.806 2.257-.607.607-6.602 9.149-8.973 12.583-.567.821-.929 1.353-.958 1.411-.301.451-.752.903-.301 1.354.452.451 1.204-.301 1.505-.451z"/></svg>