<svg xmlns="http://www.w3.org/2000/svg" width="30" height="28" viewBox="0 0 30 28"><path fill="#FFF" d="M27.849 5.738c0-.602.301-1.354-2.558-1.655-.106-.011-.229-.019-.347-.027a14.13 14.13 0 0 0-2.899-2.223c-4.774-2.491-9.97-2.385-14.19.003C3.503 4.506.904 9.054.904 14c0 3.594 1.406 7.012 3.812 9.584-.2.293-.324.479-.34.511-.301.451-.752.903-.301 1.354.451.451 1.204-.301 1.505-.451.04-.04.161-.138.334-.273.631.533 1.309 1.02 2.038 1.441C9.953 27.349 12.456 28 15 28c2.521 0 4.892-.616 7.048-1.835 4.348-2.512 7.048-7.173 7.048-12.165a13.99 13.99 0 0 0-1.961-7.123c.44-.468.714-.855.714-1.139zM1.904 14c0-4.596 2.42-8.825 6.458-11.303C10.354 1.571 12.556 1 14.904 1c2.244 0 4.491.578 6.659 1.709.656.379 1.266.815 1.836 1.293-3.349-.018-8.351.409-9.093.533-.903.15-.903 1.053-.602 1.204.301.301 1.655 1.053 2.107 1.354.451.15.301.451.301.752-.15.15-1.806 2.257-1.806 2.257-.61.61-6.666 9.241-9.011 12.638-2.144-2.371-3.391-5.478-3.391-8.74zm26.192 0c0 4.636-2.509 8.966-6.544 11.297C19.552 26.427 17.348 27 15 27c-2.367 0-4.689-.603-6.543-1.698a13.073 13.073 0 0 1-1.726-1.2c1.5-1.13 4.014-2.978 4.868-3.618 1.204-.903 7.072-6.019 9.028-7.674 1.956-1.655 4.514-4.063 4.514-4.063.459-.413.883-.794 1.26-1.147a13.013 13.013 0 0 1 1.695 6.4z"/></svg>