<svg xmlns="http://www.w3.org/2000/svg" width="18" height="18" version="1" viewBox="0 0 18 18"><path fill="#DF493A" d="M16.124 5.395c1.389-1.528.336-2.378-1.32-2.335l-.001.001c1.484.174 1.335.58 1.335.907 0 .334-.669.919-1.505 1.672 0 0-1.421 1.337-2.508 2.257-1.087.92-4.347 3.762-5.016 4.263-.669.502-3.176 2.341-3.344 2.508-.155.077-.523.434-.776.289l-.012.012c.235.235.57.27.929.2.343.286.702.555 1.095.784C6.136 16.629 7.556 17 9 17c1.433 0 2.78-.353 4-1.047 2.467-1.436 4-4.1 4-6.953 0-1.273-.32-2.5-.876-3.605zm-7.509.997s.919-1.17 1.003-1.254c0-.167.084-.334-.167-.418-.251-.167-1.003-.585-1.17-.752-.168-.084-.168-.585.334-.669.463-.077 3.91-.367 5.689-.28a7.763 7.763 0 0 0-1.295-.966C11.68 1.354 10.312 1 8.943 1A7.979 7.979 0 0 0 4.95 2.044C2.476 3.573 1 6.173 1 9c0 1.971.741 3.846 2.008 5.294.03-.043.061-.085.09-.128.084-.167 5.099-7.356 5.517-7.774z"/><path fill="#FFF" d="M3.767 14.668c.167-.167 2.675-2.006 3.344-2.508.669-.502 3.929-3.344 5.016-4.263 1.087-.919 2.508-2.257 2.508-2.257.836-.752 1.505-1.337 1.505-1.672 0-.327.149-.733-1.335-.907-.032-.004-.053-.009-.086-.012a7.305 7.305 0 0 0-.413-.029c-1.779-.087-5.226.203-5.689.28-.504.083-.504.584-.336.668.167.167.919.585 1.17.752.251.084.167.251.167.418a69.394 69.394 0 0 0-1.003 1.254c-.418.418-5.433 7.607-5.517 7.774-.028.043-.059.085-.09.128-.148.208-.286.416-.078.625.019.019.04.027.06.039.254.144.622-.213.777-.29z"/></svg>