<svg xmlns="http://www.w3.org/2000/svg" width="36" height="36" version="1" viewBox="0 0 36 36"><path fill="#DF493A" d="M17.204 13.006s1.9-2.419 2.073-2.591c0-.346.173-.691-.346-.864-.518-.346-2.073-1.209-2.419-1.555-.346-.173-.346-1.209.691-1.382.93-.155 7.687-.725 11.44-.591a15.825 15.825 0 0 0-2.626-1.916C23.36 2.709 20.624 2 17.887 2c-2.867 0-5.559.706-7.987 2.088C4.953 7.145 2 12.346 2 18c0 3.976 1.492 7.765 4.066 10.671 1.628-2.406 10.349-14.876 11.138-15.665zm15.203-1.959c3.045-3.223.882-5.022-2.556-4.947 3.242.348 2.901 1.208 2.901 1.896 0 .691-1.382 1.9-3.11 3.455 0 0-2.937 2.764-5.183 4.664s-8.983 7.774-10.365 8.811-6.565 4.837-6.91 5.183c-.346.173-1.209 1.037-1.728.518.685.684 1.777.573 2.85.138.538.414 1.104.797 1.699 1.143C12.272 33.257 15.111 34 18 34c2.867 0 5.559-.706 8-2.095 4.935-2.872 8-8.2 8-13.905 0-2.442-.565-4.813-1.593-6.953z"/><path fill="#FFF" d="M7.184 30.108c.346-.346 5.528-4.146 6.91-5.183s8.12-6.91 10.365-8.811 5.183-4.664 5.183-4.664c1.728-1.555 3.11-2.764 3.11-3.455 0-.688.34-1.548-2.901-1.896l-.036-.004c-.338-.036-.74-.058-1.171-.073-3.753-.133-10.511.436-11.44.591-1.037.173-1.037 1.209-.691 1.382.346.346 1.9 1.209 2.419 1.555.518.173.346.518.346.864-.173.173-2.073 2.591-2.073 2.591-.789.789-9.51 13.259-11.138 15.666a8.885 8.885 0 0 0-.263.4c-.346.518-.864 1.037-.346 1.555.517.519 1.381-.345 1.726-.518z"/></svg>