<svg xmlns="http://www.w3.org/2000/svg" width="36" height="36" version="1" viewBox="0 0 36 36"><path fill="#0B1F35" d="M32.752 7.996c0-.691.346-1.555-2.937-1.9a16.598 16.598 0 0 0-1.098-.07 16.162 16.162 0 0 0-2.662-1.929C23.389 2.705 20.642 2 17.89 2c-2.884 0-5.588.702-8.055 2.097C4.86 7.149 1.89 12.348 1.89 18c0 4 1.523 7.81 4.142 10.722a6.909 6.909 0 0 0-.229.35c-.346.518-.864 1.037-.346 1.555s1.382-.346 1.728-.518c.022-.022.066-.06.126-.109a16.007 16.007 0 0 0 2.635 1.904C12.232 33.255 15.093 34 18 34c2.884 0 5.593-.704 8.055-2.097C31.023 29.032 34.11 23.705 34.11 18c0-3.025-.873-5.937-2.427-8.439.651-.655 1.069-1.189 1.069-1.565zM2.89 18c0-5.303 2.792-10.182 7.453-13.042C12.642 3.658 15.181 3 17.89 3c2.589 0 5.181.667 7.684 1.973.54.312 1.054.659 1.546 1.03-3.823.022-9.101.475-9.915.611-1.037.173-1.037 1.209-.691 1.382.346.346 1.9 1.209 2.419 1.555.518.173.346.518.346.864-.173.173-2.073 2.591-2.073 2.591-.725.723-8.114 11.263-10.596 14.869C4.252 25.167 2.89 21.667 2.89 18zm30.22 0c0 5.349-2.896 10.345-7.552 13.035C23.252 32.339 20.709 33 18 33c-2.731 0-5.411-.695-7.55-1.96a15.102 15.102 0 0 1-2.333-1.666c1.636-1.242 4.919-3.654 5.978-4.448 1.382-1.037 8.12-6.91 10.365-8.811s5.183-4.664 5.183-4.664c.469-.422.908-.816 1.305-1.184A15.009 15.009 0 0 1 33.11 18z"/></svg>