<svg height="48" viewBox="0 0 48 48" width="48" xmlns="http://www.w3.org/2000/svg"><g fill="none" fill-rule="evenodd"><path d="m0 0h48v48h-48z"/><g fill="#fff" transform="translate(10 2)"><path d="m10 37h8v2h-8z" fill-opacity=".3"/><path d="m3.5 0c-1.9 0-3.5 1.59637-3.5 3.49206v37.01584c0 1.8957 1.6 3.4921 3.5 3.4921h21c1.9 0 3.5-1.5964 3.5-3.4921v-37.01584c0-1.89569-1.6-3.49206-3.5-3.49206zm23.5 3.49206v37.01584c0 1.3969-1.1 2.4944-2.5 2.4944h-21c-1.4 0-2.5-1.0975-2.5-2.4944v-37.01584c0-1.39682 1.1-2.49433 2.5-2.49433h21c1.4 0 2.5 1.09751 2.5 2.49433z"/><path d="m27 7h-26v26h26zm-14 9 7 5-7 5v-3h-4v-4h4z" fill-opacity=".3"/></g></g></svg>