<svg width="18px" height="18px" viewBox="0 0 18 18" version="1.1" xmlns="http://www.w3.org/2000/svg"><g stroke="none" stroke-width="1" fill="none" fill-rule="evenodd"><rect x="0" y="0" width="18" height="18"/><circle fill="#F1463B" cx="9" cy="9" r="8"/><path d="M9,11 C8.449,11 8,10.551 8,10 L8,5 C8,4.449 8.449,4 9,4 C9.551,4 10,4.449 10,5 L10,10 C10,10.551 9.551,11 9,11 Z" fill="#FFFFFF"/><path d="M9,14 C8.449,14 8,13.551 8,13 C8,12.449 8.449,12 9,12 C9.551,12 10,12.449 10,13 C10,13.551 9.551,14 9,14 Z" fill="#FFFFFF"/></g></svg>