<svg xmlns="http://www.w3.org/2000/svg" width="24" height="24" viewBox="0 0 24 24"><g fill="none"><path d="M0 0h24v24H0z"/><path fill="#0B1F35" d="M12.304 19.735a6 6 0 1 1 1.787 1.514c-1.056.426-2.195.68-3.377.732C5.069 22.227.295 17.834.047 12.173-.199 6.51 4.174 1.716 9.819 1.471a10.19 10.19 0 0 1 8.047 3.389 1 1 0 0 1-1.487 1.337 8.195 8.195 0 0 0-6.474-2.728c-4.539.198-8.059 4.055-7.859 8.616.199 4.561 4.041 8.096 8.58 7.898a8.249 8.249 0 0 0 1.678-.248zM13 16a4 4 0 1 0 8 0 4 4 0 0 0-8 0z"/></g></svg>