<svg width="18px" height="18px" viewBox="0 0 18 18" version="1.1" xmlns="http://www.w3.org/2000/svg"><g stroke="none" stroke-width="1" fill="none" fill-rule="evenodd"><rect x="0" y="0" width="18" height="18"/><path d="M9.08133174,15.3455186 C8.47713384,14.597011 8.11610092,13.6490543 8.11610092,12.6180924 C8.11610092,10.1978188 10.1046137,8.23618482 12.5580505,8.23618482 C15.0114873,8.23618482 17,10.1978188 17,12.6180924 C17,15.0376357 15.0114873,17 12.5580505,17 C11.7764859,17 11.0421018,16.8008595 10.4041517,16.4512371 C9.62283537,16.7628679 8.77976704,16.948117 7.90436799,16.986124 C3.72523379,17.1657822 0.190922607,13.9574955 0.00732202598,9.82316568 C-0.174797905,5.68737524 3.06264299,2.18623107 7.24177718,2.00730318 C7.35282592,2.00219095 7.46387466,2 7.5749234,2 C9.73815282,2 11.7681238,2.90997614 13.1991718,4.48235065 C13.4723517,4.78251132 13.4471807,5.24407225 13.1436475,5.51355957 C12.8393739,5.78304689 12.3707483,5.75821608 12.0983087,5.45878572 C10.8863968,4.12741614 9.14589288,3.38760407 7.30544512,3.46647841 C3.9451103,3.61108136 1.33916656,6.42791762 1.48723155,9.75889771 C1.63455621,13.0898778 4.47888457,15.6715517 7.83921939,15.5269487 C8.26441302,15.5084151 8.68036154,15.4465607 9.08133174,15.3455186 Z M9.59675076,12.6180924 C9.59675076,14.2313647 10.9226727,15.5393641 12.5580505,15.5393641 C14.1934282,15.5393641 15.5193502,14.2313647 15.5193502,12.6180924 C15.5193502,11.0048201 14.1934282,9.69682068 12.5580505,9.69682068 C10.9226727,9.69682068 9.59675076,11.0048201 9.59675076,12.6180924 Z" fill="#FFFFFF" fill-rule="nonzero"/></g></svg>