<svg width="18" height="18" viewBox="0 0 18 18" xmlns="http://www.w3.org/2000/svg"><g fill="none" fill-rule="evenodd"><path d="M0 0h18v18H0z"/><path d="M9.081 15.346a4.327 4.327 0 0 1-.965-2.728c0-2.42 1.989-4.382 4.442-4.382 2.453 0 4.442 1.962 4.442 4.382S15.011 17 12.558 17c-.782 0-1.516-.2-2.154-.549a7.636 7.636 0 0 1-2.5.535c-4.179.18-7.713-3.029-7.897-7.163-.182-4.136 3.056-7.637 7.235-7.816a7.59 7.59 0 0 1 5.957 2.475c.273.3.248.762-.055 1.032a.748.748 0 0 1-1.046-.055 6.107 6.107 0 0 0-4.793-1.993c-3.36.145-5.966 2.962-5.818 6.293.148 3.33 2.992 5.913 6.352 5.768.425-.019.841-.08 1.242-.181zm.516-2.728c0 1.613 1.326 2.921 2.961 2.921 1.635 0 2.961-1.308 2.961-2.92 0-1.614-1.326-2.922-2.96-2.922-1.636 0-2.962 1.308-2.962 2.921z" fill="#0B1F35" fill-rule="nonzero"/></g></svg>