<svg xmlns="http://www.w3.org/2000/svg" width="24" height="24" viewBox="0 0 24 24"><g fill="none"><rect width="24" height="24"/><path fill="#0B1F35" fill-rule="nonzero" d="M12.3037935,19.7345738 C11.4876682,18.7096673 11,17.4116617 11,16 C11,12.686 13.686,10 17,10 C20.314,10 23,12.686 23,16 C23,19.313 20.314,22 17,22 C15.9442952,22 14.9523198,21.7273236 14.0906035,21.2485973 C13.035234,21.6753029 11.8964525,21.9289584 10.714,21.981 C5.069,22.227 0.295,17.834 0.047,12.173 C-0.199,6.51 4.174,1.716 9.819,1.471 C9.969,1.464 10.119,1.461 10.269,1.461 C13.191,1.461 15.933,2.707 17.866,4.86 C18.235,5.271 18.201,5.903 17.791,6.272 C17.38,6.641 16.747,6.607 16.379,6.197 C14.742,4.374 12.391,3.361 9.905,3.469 C5.366,3.667 1.846,7.524 2.046,12.085 C2.245,16.646 6.087,20.181 10.626,19.983 C11.2003338,19.9576225 11.7621797,19.8729273 12.3037935,19.7345738 Z M13,16 C13,18.209 14.791,20 17,20 C19.209,20 21,18.209 21,16 C21,13.791 19.209,12 17,12 C14.791,12 13,13.791 13,16 Z"/></g></svg>