<svg xmlns="http://www.w3.org/2000/svg" width="15" height="26" viewBox="0 0 15 26"><path fill="#FFF" fill-rule="evenodd" d="M1.002 18.253H.156c.173 3.16 3.021 5.553 6.844 5.741V26h1v-2h.022c4.084-.211 6.827-2.533 6.827-5.778 0-3.059-1.762-4.622-6.504-5.768L8 12.365V2.752h.035c2.948.181 5.351 2.129 5.547 4.467h.845c-.194-2.816-2.916-5.047-6.4-5.219H8V0H7v2.007C3.278 2.213.685 4.477.685 7.537c0 2.799 1.711 4.311 6.106 5.391l.209.059v10.222c-3.22-.193-5.764-2.3-5.998-4.956zm7.059-5.024c4.335 1.014 5.947 2.384 5.947 5.053 0 2.744-2.514 4.826-5.983 4.951h-.024V13.216l.06.013zM1.525 7.477c0-2.591 2.297-4.562 5.475-4.716v9.38c-3.936-.963-5.475-2.272-5.475-4.664z"/></svg>