<svg width="48" height="48" viewBox="0 0 48 48" xmlns="http://www.w3.org/2000/svg">
  <g fill="#FFF" fill-rule="evenodd">
    <path d="M7.133 14.465c-.074-.126-.17-.276-.312-.486-.048-.073-.323-.475-.404-.595-.134-.2-.244-.368-.345-.532-.816-1.32-1.008-2.265-.052-2.794.755-.42 1.784-.176 3.37.544.21.096.426.2.683.323 1.66.803 2.15 1.008 2.193.986C16.238 9.87 19.195 9 22.736 9c10.524 0 18.467 6.456 18.467 14.808 0 4.35-2.195 8.335-6.012 11.09 0 .194.02.447.058.78.08.688.24 1.702.485 3.037l.08.43-4.266 1.383-.21-.315c-.64-.955-1.14-1.662-1.5-2.117-.154-.192-.28-.335-.372-.427-2.096.623-4.36.945-6.73.945-2.41 0-5.068-.49-7.806-1.395-.122.116-.294.3-.512.553-.462.535-1.12 1.358-1.97 2.467l-.21.275-4.53-1.372.125-.467c.392-1.47.653-2.588.782-3.347.06-.365.092-.64.092-.82 0-.012-.018-.067-.053-.164-1.292-2.827-4.14-5.206-8.36-7.1L0 27.11v-5.814l.297-.132c2.8-1.244 4.184-2.452 5.747-4.732.177-.257.36-.532.598-.897.06-.09.412-.632.584-.896-.02-.046-.053-.105-.093-.175zM15.028 36.2c2.72.92 5.35 1.415 7.708 1.415 2.346 0 4.58-.33 6.638-.963.553-.17 1.087.463 2.584 2.692l2.713-.88c-.544-3.022-.634-3.975-.204-4.278 3.652-2.575 5.737-6.31 5.737-10.378 0-7.75-7.455-13.808-17.467-13.808-3.362 0-6.17.828-10.017 2.803-.353.18-.76.09-1.424-.19-.22-.09-.466-.205-.792-.362l-.87-.423c-.25-.12-.46-.22-.66-.312-1.278-.58-2.115-.78-2.472-.58-.198.108-.112.534.42 1.392.093.15.197.31.324.5l.404.592c.153.226.26.392.347.543.313.538.42.91.077 1.21l-.595.91c-.243.372-.43.652-.61.917-1.61 2.344-3.087 3.666-5.87 4.946v4.521c4.224 1.95 7.136 4.41 8.527 7.386.37.485.146 1.762-.604 4.613l2.942.89c2.1-2.73 2.643-3.333 3.163-3.157z" fill-rule="nonzero"/>
    <path d="M18.83 15.43c2.92-.89 6-.87 8.547-.01l.64-1.894c-2.95-.996-6.456-1.02-9.77-.01l.583 1.914z" fill-rule="nonzero" opacity=".3"/>
    <circle opacity=".3" cx="9.808" cy="21.269" r="1.731"/>
    <path d="M45.256 20.545c0-.716-.423-1.114-1.006-1.106-.59.007-1.05.43-1.075 1.123-.036.99.302 1.763 1.07 2.29.684-.527 1.01-1.303 1.01-2.308zm-.98 3.462c-.838.434-1.933.663-3.276.663v-1c.91 0 1.665-.106 2.274-.314.38-.13.702-.297.97-.503.27.187.597.343.98.467.71.23 1.618.35 2.737.35v1c-1.53 0-2.76-.23-3.685-.663-.387-.182-.72-.4-1-.65-.773-.694-1.142-1.648-1.1-2.83.044-1.24.95-2.073 2.062-2.088 1.13-.016 2.02.82 2.02 2.105 0 1.153-.35 2.088-1.034 2.775-.266.267-.582.497-.948.687z" fill-rule="nonzero"/>
    <path fill="none" d="M0 1h48v48H0z"/>
  </g>
</svg>
