<svg xmlns="http://www.w3.org/2000/svg" width="46" height="36" viewBox="0 0 46 36"><g fill="#FFF" fill-rule="evenodd" transform="translate(-1 -6)"><path d="M41 19.99l2.004-1.162L43 32h-2z" opacity=".3"/><path d="M24.015 7.736L3.365 18.013l20.65 10.235 20.65-10.235-20.65-10.277zm0-1.106L47.01 18.015 24.015 29.353 1.018 18.015 24.015 6.63zM11.6 36.926a23.18 23.18 0 0 0 2.808 1.597c3.013 1.453 6.09 2.446 9.606 2.446 3.51 0 6.963-.99 9.812-2.437a20.08 20.08 0 0 0 2.624-1.587c.22-.158.403-.297.549-.412L37.004 25h1L38 37s-5.577 4.97-13.985 4.97S10 37 10 37V25h1v11.508a19 19 0 0 0 .6.418z"/><ellipse cx="24" cy="18.5" opacity=".3" rx="4" ry="1.5"/></g></svg>