<svg xmlns="http://www.w3.org/2000/svg" width="30" height="28" viewBox="0 0 30 28"><g fill="#0B1F35" fill-rule="evenodd"><path d="M12.017 16h6v5h-6z" opacity=".3"/><path d="M21 18h7.002a.991.991 0 0 0 .998-.994V4.994A.994.994 0 0 0 28.008 4H1.992A.997.997 0 0 0 1 4.994v12.012A1 1 0 0 0 2.003 18H9v1H2.003A2 2 0 0 1 0 17.006V4.994C0 3.893.898 3 1.992 3h26.016C29.108 3 30 3.895 30 4.994v12.012A1.991 1.991 0 0 1 28.002 19h-7.003v-1zM3.002 26c0 .558.438 1 .988 1h22.02a1 1 0 0 0 .99-1v-7h1v7a2 2 0 0 1-1.991 2H3.99A1.99 1.99 0 0 1 2 26v-7h1l.003 7z"/><path d="M12.111 3h5.778V1H12.11v2zM11 0h8v4h-8V0z"/></g></svg>