<svg xmlns="http://www.w3.org/2000/svg" width="20" height="28" viewBox="0 0 20 28"><path fill="#FFF" d="M.947 28h18.105c.105 0 .316-.105.316-.316v-3.368c0-.105-.105-.316-.316-.316H.947c-.105 0-.316.105-.316.316v3.368c.001.105.106.316.316.316zM7.164 3.088c-.196.685-4.896 13.805-5.091 14.295-.098.196 0 .392.098.392.196 0 2.742 1.077 2.839 1.077.097 0 .294-.098.294-.196s1.077-3.035 1.175-3.329h7.05c.098.294 1.175 3.231 1.175 3.329.098.196.294.196.392.196.196 0 2.644-1.077 2.839-1.077.098-.098.098-.294.098-.392-.098-.392-4.896-13.707-5.091-14.295-.49-1.371-1.077-2.742-2.937-2.742C8.143.347 7.556 1.62 7.164 3.088zm5.385 8.91H7.653l2.35-7.343 2.546 7.343z"/></svg>