<svg xmlns="http://www.w3.org/2000/svg" width="30" height="30" version="1" viewBox="0 0 30 30"><path fill="#0B1F35" d="M15 28c7.168 0 13-5.832 13-13S22.168 2 15 2 2 7.832 2 15s5.832 13 13 13zm0-25c6.617 0 12 5.383 12 12s-5.383 12-12 12S3 21.617 3 15 8.383 3 15 3z"/><path fill="#0B1F35" d="M14.504 20.491c-.584 0-1.004.429-1.004 1.013a.974.974 0 0 0 1.004 1.004c.575 0 .996-.429.996-1.004 0-.583-.421-1.013-.996-1.013zm.273-10.447c1.415 0 2.408.904 2.408 2.149 0 .965-.413 1.57-1.521 2.289-1.239.789-1.749 1.526-1.74 2.693V18h1.169v-.658c0-.974.325-1.474 1.477-2.211 1.204-.772 1.854-1.693 1.854-2.991 0-1.789-1.485-3.14-3.604-3.14-2.268 0-3.586 1.447-3.683 3.307h1.143c.116-1.386 1.091-2.263 2.497-2.263z"/></svg>