<svg xmlns="http://www.w3.org/2000/svg" width="22" height="10" viewBox="0 0 22 10"><path fill="#FFF" fill-rule="evenodd" d="M6.39.124L4.568 4.732 3.83.813c-.087-.437-.428-.69-.808-.69H.041L0 .32c.611.133 1.307.347 1.728.576.258.14.331.263.416.595l1.397 5.403h1.852L8.231.124H6.39zm2.591 0l-1.448 6.77h1.752l1.448-6.77zm6.503 4.559c.007-1.786-2.47-1.886-2.454-2.684.006-.243.237-.501.743-.567.251-.032.943-.058 1.727.303l.307-1.436A4.726 4.726 0 0 0 14.169 0c-1.732 0-2.95.92-2.959 2.238-.011.975.87 1.518 1.533 1.843.683.332.912.545.908.841-.005.454-.545.655-1.048.663-.881.014-1.392-.238-1.799-.428l-.318 1.484c.41.188 1.165.351 1.947.359 1.842 0 3.046-.909 3.051-2.317zM18.021.62l-2.628 6.274h1.839l.365-1.011h2.247l.212 1.011h1.619L20.26.124h-1.494a.796.796 0 0 0-.745.496zm1.532 3.875h-1.452l.922-2.542.53 2.542zm-7.12 4.598h.724v-.2h-.724v-.591h.768V8.1h-1.012v1.869h1.054v-.202h-.81zm2.44-.494c-.391 0-.63.316-.63.721 0 .405.248.68.661.68.214 0 .363-.047.449-.086l-.044-.175a.873.873 0 0 1-.372.069c-.247 0-.455-.136-.46-.466h.943a.568.568 0 0 0 .008-.114c0-.246-.114-.629-.555-.629zm-.394.569c.019-.169.125-.394.375-.394.275 0 .341.241.338.394h-.713zm1.944-.375c.133 0 .225.033.283.064l.055-.186a.77.77 0 0 0-.338-.072c-.438 0-.721.302-.721.716 0 .411.263.685.668.685.18 0 .322-.047.386-.078l-.042-.183a.691.691 0 0 1-.3.064c-.266 0-.466-.191-.466-.502.001-.278.167-.508.475-.508zm1.018-.488l-.239.072v.25h-.208v.186h.208v.733c0 .158.028.277.094.352.059.063.15.102.264.102a.683.683 0 0 0 .216-.033l-.011-.186a.456.456 0 0 1-.141.017c-.136 0-.183-.094-.183-.261v-.724h.349v-.186h-.349v-.322zm.912.588h-.008l-.011-.266h-.214c.008.125.011.261.011.419v.924h.244v-.716c0-.039.003-.081.008-.114.033-.183.155-.311.327-.311.034 0 .058 0 .083.006v-.23a.468.468 0 0 0-.067-.005c-.162-.001-.312.113-.373.293zm1.295-.294c-.369 0-.666.263-.666.71 0 .424.283.691.643.691.322 0 .669-.216.669-.713 0-.408-.26-.688-.646-.688zm-.011 1.218c-.239 0-.405-.222-.405-.516 0-.253.125-.519.41-.519.289 0 .402.286.402.513.001.303-.174.522-.407.522zm1.7-1.218a.498.498 0 0 0-.444.25h-.005l-.014-.222h-.216c.008.111.011.222.011.363v.979h.244v-.807a.33.33 0 0 1 .017-.114.352.352 0 0 1 .327-.25c.23 0 .311.18.311.397v.774h.244V9.17c-.001-.46-.289-.571-.475-.571z"/></svg>