<svg xmlns="http://www.w3.org/2000/svg" width="30" height="30" version="1" viewBox="0 0 30 30"><path fill="#0B1F35" d="M19 28H6a4.005 4.005 0 0 1-3.998-3.874H2V8.293L8.293 2H19c2.206 0 4 1.794 4 4v5h-1V6c0-1.654-1.346-3-3-3H8.707L3 8.707V24c0 1.654 1.346 3 3 3h13c1.654 0 3-1.346 3-3h1c0 2.206-1.794 4-4 4z"/><path fill="#0B1F35" d="M6.981 19v2h-.947v-7h2.678c.747 0 1.305.303 1.718.688s.643 1.184.643 1.812c0 .638-.306 1.475-.72 1.854-.414.38-.894.646-1.641.646H6.981zm0-1h1.651c.452 0 .791-.141 1.014-.424s.335-.638.335-1.068-.113-.788-.337-1.076C9.418 15.144 9.082 15 8.632 15H6.981v3zm6.053 3v-7h2.071c.883 0 1.592.281 2.127.844s.802 1.289.802 2.18v.957c0 .894-.267 1.621-.802 2.18-.535.559-1.244.839-2.127.839h-2.071zm1-6v5h1.095c.589 0 1.055-.193 1.395-.58.34-.387.51-.882.51-1.486v-.876c0-.599-.17-1.091-.51-1.478-.341-.387-.806-.58-1.395-.58h-1.095zm10 3h-3v3h-1v-7h5v1h-4v2h3v1z"/></svg>