<svg xmlns="http://www.w3.org/2000/svg" width="18" height="20" viewBox="0 0 18 20"><g fill="none" fill-rule="evenodd"><path d="M-3-2h24v24H-3z"/><path fill="#0B1F35" d="M6.7 15l-1.2 2h7l-1.2-2zM6.1 5L9 10l2.9-5z" opacity=".3"/><path fill="#0B1F35" d="M15.9 20H2.1c-.5 0-1-.3-1.3-.8-.3-.5-.3-1 0-1.5L5.2 10 .8 2.2C.5 1.7.5 1.2.8.7 1 .3 1.5 0 2.1 0H16c.5 0 1 .3 1.3.8.3.5.3 1 0 1.5L12.8 10l4.5 7.8c.3.5.3 1 0 1.5-.3.4-.8.7-1.4.7zM2.1 1c-.3 0-.4.2-.5.2 0 .1-.1.3 0 .5L6.4 10l-4.8 8.2c-.1.2 0 .4 0 .5 0 .1.2.2.4.2h13.9c.3 0 .4-.2.4-.2 0-.1.1-.3 0-.5L11.6 10l4.8-8.2c.1-.2 0-.4 0-.5 0-.1-.2-.2-.4-.2H2.1V1z"/></g></svg>