<svg xmlns="http://www.w3.org/2000/svg" width="24" height="24" viewBox="0 0 24 24"><g fill="none"><rect width="24" height="24"/><path fill="#0B1F35" d="M12,0.96 C5.90277636,0.96 0.96,5.90277636 0.96,12 C0.96,18.0972236 5.90277636,23.04 12,23.04 C18.0972236,23.04 23.04,18.0972236 23.04,12 C23.04,5.90277636 18.0972236,0.96 12,0.96 Z M12,0 C18.627417,0 24,5.372583 24,12 C24,18.627417 18.627417,24 12,24 C5.372583,24 0,18.627417 0,12 C0,5.372583 5.372583,0 12,0 Z"/><polygon fill="#0B1F35" points="12 11.293 15.889 7.404 16.596 8.111 12.707 12 16.596 15.889 15.889 16.596 12 12.707 8.111 16.596 7.404 15.889 11.293 12 7.404 8.111 8.111 7.404"/></g></svg>