<svg xmlns="http://www.w3.org/2000/svg" width="36" height="36" viewBox="0 0 36 36"><g fill="none" fill-rule="evenodd"><path d="M0 0h36v36H0z" opacity=".1"/><g fill="#0B1F35"><path d="M7 21h6v3H7zm-4-9h30v3H3z" opacity=".3"/><path d="M17.7 27.999l2.48-2.48-.59-.59-3.535 3.536L19.59 32l.59-.589L17.767 29h13.234A3.003 3.003 0 0 0 34 25.999V10a2.998 2.998 0 0 0-2.996-3H4.996A2.994 2.994 0 0 0 2 10.001V26a3.004 3.004 0 0 0 3.007 3h8.014v-1H5.007A2.004 2.004 0 0 1 3 25.999V10c0-1.107.89-2 1.996-2h26.008C32.106 8 33 8.895 33 10.001V26a2.003 2.003 0 0 1-2 2l-13.3-.001z"/></g></g></svg>