<svg xmlns="http://www.w3.org/2000/svg" width="36" height="36" viewBox="0 0 36 36"><g fill="none" fill-rule="evenodd"><path stroke="#0B1F35" d="M23.515 32.377C29.098 30.107 33 24.938 33 18.5 33 9.94 26.06 3 17.5 3 8.94 3 2 9.94 2 18.5c0 6.46 3.95 11.637 9.568 13.893"/><path fill="#0B1F35" d="M12.093 20.465c-.174-.073-.372-.311-.432-.519-.065-.231-.011-.415.25-.848.335-.557.413-.855.413-1.583 0-.727-.078-1.026-.413-1.582a3.127 3.127 0 0 1-.254-.502c-.108-.367.195-.817.602-.894.345-.065.582.09.9.59.918 1.446.918 3.378-.001 4.811-.324.506-.686.685-1.065.527zm2.657 1.376a.866.866 0 0 1-.46-.57c-.031-.144.023-.303.283-.834.956-1.953.967-3.834.032-5.742-.411-.837-.42-1.004-.073-1.334.172-.163.245-.192.485-.192.404 0 .613.204.974.952.555 1.149.782 2.146.78 3.424-.002 1.313-.214 2.214-.807 3.426-.34.694-.507.878-.847.925a.79.79 0 0 1-.367-.055zm2.847 1.477c-.355-.105-.611-.544-.508-.873.024-.08.192-.447.371-.816.76-1.562 1.076-3.237.921-4.881-.127-1.352-.367-2.204-.972-3.45-.406-.837-.425-.966-.19-1.303.225-.32.785-.372 1.08-.1.204.188.838 1.524 1.083 2.28.81 2.503.686 5.19-.352 7.648-.532 1.26-.905 1.65-1.433 1.495zm2.761 1.456c-.231-.068-.466-.345-.515-.61-.032-.173.007-.293.252-.772.992-1.935 1.423-3.715 1.423-5.876 0-2.09-.381-3.714-1.33-5.662-.203-.418-.37-.806-.37-.862 0-.208.172-.508.359-.626.255-.162.683-.131.888.063.079.074.283.413.454.752a14.382 14.382 0 0 1 1.373 4.35c.142.95.17 2.75.057 3.618a14.317 14.317 0 0 1-1.3 4.435c-.407.847-.662 1.196-.875 1.196a.626.626 0 0 0-.155.024.63.63 0 0 1-.26-.03zM15.188 35.5l2.312-2.312 2.312 2.312.688-.688-2.312-2.312 2.312-2.312-.688-.688-2.312 2.312-2.312-2.312-.688.688 2.312 2.312-2.312 2.312z"/></g></svg>