<svg xmlns="http://www.w3.org/2000/svg" width="18" height="18" version="1" viewBox="0 0 18 18"><path fill="#0B1F35" d="M11.971 16c.515 0 1.192-.051 1.535-.142v-.737c-.344.091-1.02.142-1.535.142-2.732 0-5.057-1.472-5.918-4.263H13v-1H5.801c-.015-.096-.031-.21-.052-.364a8.274 8.274 0 0 1-.071-1.131c0-.173.016-.337.025-.505H13V7H5.788c.01-.069.022-.129.042-.192.636-3.323 3.152-5.061 6.141-5.061.515 0 1.192.051 1.535.142v-.747C13.163 1.051 12.486 1 11.971 1 8.557 1 5.648 2.99 5.002 6.808A1.648 1.648 0 0 0 4.965 7H3v1h1.885c-.009.166-.025.324-.025.495 0 .394.02.777.061 1.141.013.156.028.269.042.364H3v1h2.213c.907 3.273 3.601 5 6.758 5z"/></svg>