<?xml version="1.0" encoding="UTF-8"?>
<svg width="24px" height="24px" viewBox="0 0 24 24" version="1.1" xmlns="http://www.w3.org/2000/svg" xmlns:xlink="http://www.w3.org/1999/xlink">
    <!-- Generator: Sketch 48.2 (47327) - http://www.bohemiancoding.com/sketch -->
    <title>icon_category-gibdd-fines_m_white</title>
    <desc>Created with Sketch.</desc>
    <defs></defs>
    <g id="mobile" stroke="none" stroke-width="1" fill="none" fill-rule="evenodd" transform="translate(-1247.000000, -894.000000)">
        <g id="Headings" transform="translate(64.000000, 77.000000)">
            <g id="icon_category_traffic__fine_m__white" transform="translate(1183.000000, 817.000000)">
                <g id="ungroup">
                    <rect id="Rectangle-path" x="0" y="0" width="24" height="24"></rect>
                    <g id="a1" opacity="0.4"></g>
                    <path d="M9,23 L15,23 C16.107,23 17.113,22.39 17.664,21.353 L21,17.665 L21,16 L18,16 L18,14.98 L21,11.664 L21,10 L18,10 L18,8.98 L21,5.664 L21,4 L18,4 C18,2.346 16.654,1 15,1 L9,1 C7.346,1 6,2.346 6,4 L3,4 L3,5.665 L6,8.98 L6,10 L3,10 L3,11.665 L6,14.981 L6,16 L3,16 L3,17.665 L6.335,21.351 C6.852,22.368 7.873,23 9,23 L9,23 Z M4,17 L7,17 L7,14.596 L4,11.28 L4,11 L7,11 L7,8.596 L4,5.28 L4,5 L7,5 L7,4 C7,2.897 7.897,2 9,2 L15,2 C16.103,2 17,2.897 17,4 L17,5 L20,5 L20,5.28 L17,8.596 L17,11 L20,11 L20,11.28 L17,14.596 L17,17 L20,17 L20,17.28 L16.879,20.73 L16.773,20.899 C16.428,21.578 15.749,22 15,22 L9,22 C8.251,22 7.572,21.578 7.192,20.833 L4,17.28 L4,17 L4,17 Z" id="Shape" fill="#FFFFFF"></path>
                    <circle id="Oval" fill="#FFFFFF" opacity="0.3" cx="12" cy="7" r="2"></circle>
                    <circle id="Oval" fill="#FFFFFF" opacity="0.3" cx="12" cy="12" r="2"></circle>
                    <circle id="Oval" fill="#FFFFFF" opacity="0.3" cx="12" cy="17" r="2"></circle>
                </g>
            </g>
        </g>
    </g>
</svg>