<svg xmlns="http://www.w3.org/2000/svg" width="48" height="48" viewBox="0 0 48 48"><g fill="none"><rect width="48" height="48"/><path fill="#0B1F35" d="M24,0.979591837 C11.2861796,0.979591837 0.979591837,11.2861796 0.979591837,24 C0.979591837,36.7138204 11.2861796,47.0204082 24,47.0204082 C36.7138204,47.0204082 47.0204082,36.7138204 47.0204082,24 C47.0204082,11.2861796 36.7138204,0.979591837 24,0.979591837 Z M24,0 C37.254834,0 48,10.745166 48,24 C48,37.254834 37.254834,48 24,48 C10.745166,48 0,37.254834 0,24 C0,10.745166 10.745166,0 24,0 Z"/><polygon fill="#0B1F35" points="20.273 30.013 12.792 22.73 12.091 23.455 20.273 31.636 35.455 16.455 34.574 15.596"/></g></svg>