<svg width="36px" height="36px" viewBox="0 0 36 36" version="1.1" xmlns="http://www.w3.org/2000/svg"><g stroke="none" stroke-width="1" fill="none" fill-rule="evenodd"><rect x="0" y="0" width="36" height="36"/><circle stroke="#FFFFFF" opacity="0.900000036" cx="18" cy="18" r="16.5"/><path d="M18,13.5 C17.1715729,13.5 16.5,12.8284271 16.5,12 C16.5,11.1715729 17.1715729,10.5 18,10.5 C18.8284271,10.5 19.5,11.1715729 19.5,12 C19.5,12.8284271 18.8284271,13.5 18,13.5 Z M16.5,16.504394 C16.5,15.6735401 17.1657972,15 18,15 C18.8284271,15 19.5,15.6727951 19.5,16.504394 L19.5,23.995606 C19.5,24.8264599 18.8342028,25.5 18,25.5 C17.1715729,25.5 16.5,24.8272049 16.5,23.995606 L16.5,16.504394 Z" fill="#FFFFFF" opacity="0.300000012"/></g></svg>