<svg xmlns="http://www.w3.org/2000/svg" width="24" height="24" viewBox="0 0 24 24"><path fill="none" d="M0 0h24v24H0z"/><path fill="#0B1F35" d="M8 15a6 6 0 0 1-6-6V1h3v1H3v7a5 5 0 0 0 10 0V2h-2V1h3v8a6 6 0 0 1-6 6z"/><path fill="#0B1F35" d="M14.5 23A6.51 6.51 0 0 1 8 16.5v-2h1v2a5.5 5.5 0 0 0 11 0v-4h1v4a6.51 6.51 0 0 1-6.5 6.5z"/><path fill="#0B1F35" d="M20.5 13a2.5 2.5 0 1 1 2.5-2.5 2.5 2.5 0 0 1-2.5 2.5zm0-4a1.5 1.5 0 1 0 1.5 1.5A1.5 1.5 0 0 0 20.5 9z"/><path fill="#0B1F35" d="M2.5 9h11v1h-11z" opacity=".3"/></svg>