<svg xmlns="http://www.w3.org/2000/svg" width="18" height="18" version="1" viewBox="0 0 18 18"><path fill="#0B1F35" d="M14 5h-1V1.559A.56.56 0 0 0 12.441 1H5.707L2 4.707V5H1v-.707L5.293 0h7.148C13.301 0 14 .699 14 1.559V5zm-1.5 12h-10c-.827 0-1.5-.673-1.5-1.5h1a.5.5 0 0 0 .5.5h10a.5.5 0 0 0 .5-.5h1c0 .827-.673 1.5-1.5 1.5zM1 12.687V7h1.953c.695 0 1.269.222 1.719.666s.676 1.014.676 1.709v.941c0 .698-.226 1.268-.676 1.709s-1.023.662-1.719.662H1zm1.141-4.808v3.93h.754c.409 0 .729-.138.961-.414s.348-.636.348-1.081v-.948c0-.439-.116-.797-.348-1.073s-.552-.414-.961-.414h-.754zm8.871 2.646c0 .715-.233 1.307-.698 1.774-.465.467-1.068.701-1.812.701-.738 0-1.337-.234-1.798-.701-.461-.467-.691-1.059-.691-1.774v-1.05c0-.713.229-1.304.689-1.772C7.161 7.234 7.76 7 8.498 7c.744 0 1.349.234 1.815.703.466.469.7 1.059.7 1.772v1.05zM9.81 9.47c0-.455-.116-.828-.35-1.119-.233-.292-.554-.438-.962-.438s-.726.145-.951.436-.337.664-.337 1.121v1.059c0 .463.114.84.342 1.132.227.292.544.438.951.438.412 0 .733-.146.963-.438.23-.291.346-.669.346-1.132V9.47zm6.651 1.459l.008.024c.011.627-.177 1.126-.561 1.494s-.917.553-1.599.553c-.685 0-1.241-.226-1.668-.677S12 11.291 12 10.581V9.423c0-.707.208-1.288.625-1.742.417-.454.958-.681 1.625-.681.703 0 1.253.185 1.648.555.396.37.589.874.578 1.512l-.008.024h-1.109c0-.385-.09-.679-.27-.883s-.46-.306-.84-.306c-.341 0-.717.142-.917.426-.2.284-.334.646-.334 1.086v1.165c0 .446.139.81.35 1.094.211.284.6.426.96.426.356 0 .62-.098.791-.294.171-.196.256-.488.256-.875h1.106z"/></svg>