<svg xmlns="http://www.w3.org/2000/svg" width="24" height="24" version="1" viewBox="0 0 24 24"><radialGradient id="a" cx="6.593" cy="1.098" r="10.366" gradientTransform="translate(6.582 8.639) scale(.8933)" gradientUnits="userSpaceOnUse"><stop offset=".193" stop-color="#fff"/><stop offset=".227" stop-color="#f7fcff"/><stop offset=".281" stop-color="#e0f5fd"/><stop offset=".347" stop-color="#bae9fb"/><stop offset=".425" stop-color="#86d9f8"/><stop offset=".51" stop-color="#44c4f4"/><stop offset=".59" stop-color="#00aff0"/><stop offset="1" stop-color="#005f9b"/></radialGradient><path fill="url(#a)" fill-rule="evenodd" d="M20.945 10.649l-3.806-3.806a.189.189 0 0 0-.266 0l-2.53 2.53a.189.189 0 0 0 0 .266l1.241 1.241 1.74.184c.103.011.188.085.188.188v1.556l.637.637a.189.189 0 0 0 .266 0l2.53-2.53a.189.189 0 0 0 0-.266z" clip-rule="evenodd"/><radialGradient id="b" cx="6.593" cy="1.098" r="10.366" gradientTransform="translate(6.582 8.639) scale(.8933)" gradientUnits="userSpaceOnUse"><stop offset=".193" stop-color="#fff"/><stop offset=".227" stop-color="#f7fcff"/><stop offset=".281" stop-color="#e0f5fd"/><stop offset=".347" stop-color="#bae9fb"/><stop offset=".425" stop-color="#86d9f8"/><stop offset=".51" stop-color="#44c4f4"/><stop offset=".59" stop-color="#00aff0"/><stop offset="1" stop-color="#005f9b"/></radialGradient><path fill="url(#b)" fill-rule="evenodd" d="M17.512 16.635v-5.382a.19.19 0 0 0-.188-.188h-3.578a.188.188 0 0 0-.188.188v1.681l1.127 1.434c.064.081.073.193 0 .266l-1.127 1.127v.875c0 .104.085.188.188.188h3.578a.19.19 0 0 0 .188-.189z" clip-rule="evenodd"/><radialGradient id="c" cx="6.593" cy="1.098" r="10.366" gradientTransform="translate(6.582 8.639) scale(.8933)" gradientUnits="userSpaceOnUse"><stop offset=".193" stop-color="#fff"/><stop offset=".227" stop-color="#f7fcff"/><stop offset=".281" stop-color="#e0f5fd"/><stop offset=".347" stop-color="#bae9fb"/><stop offset=".425" stop-color="#86d9f8"/><stop offset=".51" stop-color="#44c4f4"/><stop offset=".59" stop-color="#00aff0"/><stop offset="1" stop-color="#005f9b"/></radialGradient><path fill="url(#c)" fill-rule="evenodd" d="M10.878 18.439l3.806-3.806a.189.189 0 0 0 0-.266l-2.53-2.53a.189.189 0 0 0-.266 0l-1.207 1.207-.225 1.793c-.013.103-.085.188-.188.188H8.699l-.617.617a.189.189 0 0 0 0 .266l2.53 2.53a.188.188 0 0 0 .266.001z" clip-rule="evenodd"/><radialGradient id="d" cx="6.593" cy="1.098" r="10.366" gradientTransform="translate(6.582 8.639) scale(.8933)" gradientUnits="userSpaceOnUse"><stop offset=".193" stop-color="#fff"/><stop offset=".227" stop-color="#f7fcff"/><stop offset=".281" stop-color="#e0f5fd"/><stop offset=".347" stop-color="#bae9fb"/><stop offset=".425" stop-color="#86d9f8"/><stop offset=".51" stop-color="#44c4f4"/><stop offset=".59" stop-color="#00aff0"/><stop offset="1" stop-color="#005f9b"/></radialGradient><path fill="url(#d)" fill-rule="evenodd" d="M4.885 15.025h5.382a.188.188 0 0 0 .188-.188v-3.578a.188.188 0 0 0-.188-.188H8.46l-1.333 1.088c-.08.065-.193.073-.266 0L5.773 11.07h-.888a.19.19 0 0 0-.188.188v3.578a.19.19 0 0 0 .188.189z" clip-rule="evenodd"/><radialGradient id="e" cx="6.593" cy="1.098" r="10.366" gradientTransform="translate(6.582 8.639) scale(.8933)" gradientUnits="userSpaceOnUse"><stop offset=".193" stop-color="#fff"/><stop offset=".227" stop-color="#f7fcff"/><stop offset=".281" stop-color="#e0f5fd"/><stop offset=".347" stop-color="#bae9fb"/><stop offset=".425" stop-color="#86d9f8"/><stop offset=".51" stop-color="#44c4f4"/><stop offset=".59" stop-color="#00aff0"/><stop offset="1" stop-color="#005f9b"/></radialGradient><path fill="url(#e)" fill-rule="evenodd" d="M6.486 2.361v5.382c0 .104.085.188.188.188h3.578a.188.188 0 0 0 .188-.188V6.034L9.325 4.633c-.064-.081-.073-.193 0-.266l1.115-1.116v-.89a.19.19 0 0 0-.188-.188H6.674a.188.188 0 0 0-.188.188z" clip-rule="evenodd"/><radialGradient id="f" cx="6.593" cy="1.098" r="10.366" gradientTransform="translate(6.582 8.639) scale(.8933)" gradientUnits="userSpaceOnUse"><stop offset=".193" stop-color="#fff"/><stop offset=".227" stop-color="#f7fcff"/><stop offset=".281" stop-color="#e0f5fd"/><stop offset=".347" stop-color="#bae9fb"/><stop offset=".425" stop-color="#86d9f8"/><stop offset=".51" stop-color="#44c4f4"/><stop offset=".59" stop-color="#00aff0"/><stop offset="1" stop-color="#005f9b"/></radialGradient><path fill="url(#f)" fill-rule="evenodd" d="M13.131.561L9.325 4.367a.189.189 0 0 0 0 .266l2.53 2.53a.189.189 0 0 0 .266 0l1.244-1.244.184-1.755c.011-.103.085-.188.188-.188h1.571l.619-.619a.189.189 0 0 0 0-.266l-2.53-2.53a.189.189 0 0 0-.266 0z" clip-rule="evenodd"/><radialGradient id="g" cx="6.593" cy="1.098" r="10.366" gradientTransform="translate(6.582 8.639) scale(.8933)" gradientUnits="userSpaceOnUse"><stop offset=".193" stop-color="#fff"/><stop offset=".227" stop-color="#f7fcff"/><stop offset=".281" stop-color="#e0f5fd"/><stop offset=".347" stop-color="#bae9fb"/><stop offset=".425" stop-color="#86d9f8"/><stop offset=".51" stop-color="#44c4f4"/><stop offset=".59" stop-color="#00aff0"/><stop offset="1" stop-color="#005f9b"/></radialGradient><path fill="url(#g)" fill-rule="evenodd" d="M19.12 3.976h-5.382a.188.188 0 0 0-.188.188v3.578a.19.19 0 0 0 .188.188h1.781l1.354-1.088c.081-.065.193-.073.266 0l1.088 1.088h.893a.188.188 0 0 0 .188-.188V4.165a.188.188 0 0 0-.188-.189z" clip-rule="evenodd"/><radialGradient id="h" cx="6.593" cy="1.098" r="10.366" gradientTransform="translate(6.582 8.639) scale(.8933)" gradientUnits="userSpaceOnUse"><stop offset=".193" stop-color="#fff"/><stop offset=".227" stop-color="#f7fcff"/><stop offset=".281" stop-color="#e0f5fd"/><stop offset=".347" stop-color="#bae9fb"/><stop offset=".425" stop-color="#86d9f8"/><stop offset=".51" stop-color="#44c4f4"/><stop offset=".59" stop-color="#00aff0"/><stop offset="1" stop-color="#005f9b"/></radialGradient><path fill="url(#h)" fill-rule="evenodd" d="M3.055 8.352l3.806 3.806a.189.189 0 0 0 .266 0l2.53-2.53a.189.189 0 0 0 0-.266L8.391 8.095l-1.717-.163c-.103-.01-.188-.085-.188-.188V6.19l-.635-.634a.189.189 0 0 0-.266 0l-2.53 2.53a.189.189 0 0 0 0 .266z" clip-rule="evenodd"/><path fill="#005388" fill-rule="evenodd" d="M17.512 11.253v1.556l.637.637-.637-2.193zm-.373-4.41l1.088 1.088h.893l-1.981-1.088zm-3.401-2.867h1.571l.619-.619-2.19.619zm-4.448.44l1.151-1.165v-.89L9.29 4.416zM6.486 7.743V6.19l-.634-.634.634 2.187zm.375 4.415L5.773 11.07h-.888l1.976 1.088zm3.407 2.867H8.699l-.617.617 2.186-.617zm4.4-.376l-1.112 1.112v.875l1.112-1.987z" clip-rule="evenodd"/><path fill="#005D99" d="M4.951 23.024a.453.453 0 0 1-.085.265.337.337 0 0 1-.128.101.477.477 0 0 1-.202.041h-.62v-.796h.624a.48.48 0 0 1 .226.051.34.34 0 0 1 .138.138.422.422 0 0 1 .047.2zm2.994.877v-.364c.001-.041-.004-.069-.016-.083-.012-.014-.034-.02-.07-.019H6.73a.411.411 0 0 1-.154-.022.169.169 0 0 1-.093-.079.325.325 0 0 1-.031-.156v-.488H7.68c.034 0 .056-.008.066-.024.011-.016.016-.041.015-.075v-.334c.001-.04-.004-.067-.015-.082-.011-.014-.033-.021-.066-.021H6.452v-.329a.344.344 0 0 1 .023-.136.187.187 0 0 1 .084-.094.363.363 0 0 1 .171-.036h1.087c.031.001.053-.006.065-.02.011-.013.017-.038.016-.074v-.364c.001-.04-.004-.067-.015-.082-.011-.012-.033-.019-.066-.019H6.589a.951.951 0 0 0-.367.066.64.64 0 0 0-.244.177.727.727 0 0 0-.135.253.961.961 0 0 0-.042.295v1.421a1.1 1.1 0 0 0 .035.287.673.673 0 0 0 .123.252.593.593 0 0 0 .242.179c.104.046.234.068.392.07H7.86c.034 0 .056-.008.069-.023a.13.13 0 0 0 .016-.076zm4.876-1.497v-.021a.736.736 0 0 0 .23-.218.923.923 0 0 0 .134-.316l.197-.764a.095.095 0 0 0 .006-.035.05.05 0 0 0-.016-.034c-.01-.01-.027-.015-.051-.016h-.479a.109.109 0 0 0-.049.009c-.017.006-.029.024-.036.051l-.192.72a.627.627 0 0 1-.091.209.39.39 0 0 1-.266.165.811.811 0 0 1-.135.01h-.343v-1.087c.006-.031.004-.051-.008-.059s-.032-.011-.06-.01h-.501a.096.096 0 0 0-.058.01c-.013.008-.019.027-.019.059v2.854c0 .031.006.051.019.058.013.008.032.011.058.01h.496c.028.002.047-.002.059-.01.012-.008.018-.028.018-.058l-.004-1.271h.351a.885.885 0 0 1 .252.028.35.35 0 0 1 .171.107.605.605 0 0 1 .112.225l.261.92c.009.027.022.044.038.051a.117.117 0 0 0 .048.009h.496c.023-.001.041-.006.051-.016a.052.052 0 0 0 .016-.034.1.1 0 0 0-.006-.036l-.265-.993a1.744 1.744 0 0 0-.054-.175.617.617 0 0 0-.075-.142.473.473 0 0 0-.118-.113.86.86 0 0 0-.187-.087zm1.801.44l.163-.542.163-.611h.026l.158.611.163.542h-.673zm.826.531l.167.556c.009.031.023.051.044.058a.21.21 0 0 0 .08.01h.509c.021-.001.036-.005.046-.015a.052.052 0 0 0 .016-.034.078.078 0 0 0-.006-.037l-.89-2.679a.49.49 0 0 0-.074-.154.182.182 0 0 0-.103-.066.685.685 0 0 0-.157-.014h-.257a.443.443 0 0 0-.145.019.208.208 0 0 0-.1.071.44.44 0 0 0-.068.144l-.89 2.679a.09.09 0 0 0 .001.061c.009.016.029.025.06.026h.501c.039 0 .068-.006.084-.02a.11.11 0 0 0 .036-.061l.167-.544h.979zm2.674-1.395a.462.462 0 0 1-.045.206.345.345 0 0 1-.14.146.483.483 0 0 1-.239.055h-.561v-.813h.556a.502.502 0 0 1 .213.041.331.331 0 0 1 .13.103.381.381 0 0 1 .066.132.412.412 0 0 1 .02.13zm-.984 1.93v-.997h.569c.16-.001.298-.019.415-.052a.965.965 0 0 0 .294-.136.841.841 0 0 0 .31-.405 1.131 1.131 0 0 0 .068-.382c0-.136-.024-.262-.069-.376a.858.858 0 0 0-.514-.492 1.213 1.213 0 0 0-.418-.07h-1.048a.336.336 0 0 0-.158.032.171.171 0 0 0-.079.091.409.409 0 0 0-.021.138v2.649c0 .033.008.057.024.071.016.013.041.019.075.019h.449c.029 0 .05-.001.065-.005a.042.042 0 0 0 .03-.026.152.152 0 0 0 .008-.059zm4.051-2.439v-.381c.001-.036-.005-.06-.017-.072-.012-.013-.035-.018-.068-.018h-2.191c-.031-.001-.053.005-.065.018-.011.012-.017.036-.016.072v.381c0 .028.006.049.02.064.013.014.033.022.061.022h.757v2.353c0 .033.008.057.024.071.015.013.04.019.075.019h.458c.042.001.07-.005.083-.018.014-.013.021-.037.019-.072v-2.353h.775c.028 0 .049-.008.063-.022.015-.015.022-.036.022-.064zM3.522 24H4.6a1.15 1.15 0 0 0 .404-.071c.124-.046.233-.112.326-.196a.929.929 0 0 0 .218-.298.917.917 0 0 0 .079-.376 1.422 1.422 0 0 0-.01-.173 1.004 1.004 0 0 0-.046-.208.76.76 0 0 0-.297-.401.992.992 0 0 0-.3-.135 1.615 1.615 0 0 0-.434-.051h-.624v-.535h1.292c.031.001.052-.005.063-.016.01-.012.015-.033.014-.065v-.381c.001-.036-.004-.061-.014-.074-.011-.014-.032-.02-.063-.02H3.539a.351.351 0 0 0-.162.031.176.176 0 0 0-.086.096.433.433 0 0 0-.026.165v2.452a.41.41 0 0 0 .02.148c.014.038.04.066.077.083a.418.418 0 0 0 .16.025zm5.086-2.713l-.039.65c-.013.222-.027.414-.042.578-.024.271-.051.92-.402.92-.036 0-.059.006-.07.019-.011.014-.016.042-.016.083v.364c0 .034.005.059.017.075.013.016.036.024.069.024.272 0 .51-.022.714-.331.063-.095.118-.201.157-.322.04-.12.071-.256.094-.405.023-.149.041-.313.056-.493.014-.179.029-.374.043-.585l.017-.3h.835v2.353c0 .031.006.052.019.063.013.01.036.015.067.014h.475a.212.212 0 0 0 .059-.006.038.038 0 0 0 .026-.023.13.13 0 0 0 .005-.048v-2.632a.414.414 0 0 0-.025-.16.188.188 0 0 0-.086-.096.41.41 0 0 0-.163-.029H8.881a.361.361 0 0 0-.159.029.176.176 0 0 0-.083.093.521.521 0 0 0-.031.165z"/></svg>