<?xml version="1.0" encoding="UTF-8"?>
<svg width="48px" height="48px" viewBox="0 0 48 48" version="1.1" xmlns="http://www.w3.org/2000/svg" xmlns:xlink="http://www.w3.org/1999/xlink">
    <!-- Generator: Sketch 48.2 (47327) - http://www.bohemiancoding.com/sketch -->
    <title>icon_overdraft_xxl_white</title>
    <desc>Created with Sketch.</desc>
    <defs></defs>
    <g id="icon_overdraft_xxl_white" stroke="none" stroke-width="1" fill="none" fill-rule="evenodd">
        <g id="Group" transform="translate(2.000000, 2.000000)">
            <path d="M22,44.5 C9.57359313,44.5 -0.5,34.4264069 -0.5,22 C-0.5,9.57359313 9.57359313,-0.5 22,-0.5 C34.4264069,-0.5 44.5,9.57359313 44.5,22 C44.5,34.4264069 34.4264069,44.5 22,44.5 Z M22.0420045,34.8420046 C29.1112494,34.8420046 34.8420046,29.1112494 34.8420046,22.0420045 C34.8420046,14.9727596 29.1112494,9.24200426 22.0420045,9.24200426 C14.9727596,9.24200426 9.24200426,14.9727596 9.24200426,22.0420045 C9.24200426,29.1112494 14.9727596,34.8420046 22.0420045,34.8420046 Z" id="Combined-Shape" stroke="#FFFFFF"></path>
            <path d="M25.4822156,34.0508349 L28.3003879,43.1896055 C25.3245027,43.8457088 23.1624096,44.1844249 21.8141087,44.2057539 C20.4658079,44.2270828 18.2955644,43.9569003 15.3033784,43.3952065 L17.9961537,34.3025159 M25.4393558,9.56095778 L28.2117882,0.30648095 C25.4549918,-0.260787619 23.4442117,-0.550218521 22.1794478,-0.561811756 C20.9146839,-0.573404992 18.6610149,-0.323063413 15.4184406,0.18921298 L18.1907498,9.44327821" id="Path-2" fill="#FFFFFF" opacity="0.300000012" transform="translate(21.801883, 21.822364) rotate(45.000000) translate(-21.801883, -21.822364) "></path>
            <path d="M25.9412191,9.61362191 L28.701429,0.399944514 C25.6000395,-0.342296999 23.3757094,-0.707042686 22.0284387,-0.694292546 C20.6811679,-0.681542406 18.5528041,-0.275604216 15.6433474,0.523522023 L18.4064444,9.74683702 L25.9412191,9.61362191 Z M25.7552967,34.277564 L28.543129,43.5834465 C25.6178981,44.2194044 23.4444741,44.5259402 22.0228571,44.5030539 C20.6012401,44.4801676 18.5356074,44.1053882 15.825959,43.3787156 L18.6253342,34.0343028 L25.7552967,34.277564 Z" id="Path-2" fill="#FFFFFF" opacity="0.300000012" transform="translate(22.172388, 21.904815) rotate(135.000000) translate(-22.172388, -21.904815) "></path>
        </g>
    </g>
</svg>