<svg width="36" height="36" viewBox="0 0 36 36" xmlns="http://www.w3.org/2000/svg"><g fill="none" fill-rule="evenodd"><path d="M0 0h36v36H0z"/><g transform="translate(3 3)" fill-rule="nonzero"><rect fill="gold" width="30" height="30" rx="15"/><path d="M16.642 8.573c.116.332 2.815 8.139 2.895 8.373.023.064.008.172-.088.21l-1.575.646c-.077.031-.165-.015-.193-.096-.03-.081-.646-1.992-.712-2.183l-3.869-.017-.773 2.2c-.028.078-.111.13-.194.096l-1.574-.645a.168.168 0 0 1-.089-.211c.1-.293 2.757-7.974 2.893-8.373C13.626 7.8 13.965 7 15.003 7c1.04 0 1.366.786 1.639 1.573zM10.155 20.8c-.086 0-.155.076-.155.168v1.865c0 .094.07.168.155.168h9.692c.085 0 .153-.074.153-.168v-1.865c0-.093-.068-.167-.153-.167h-9.692v-.001zm3.478-7.037h2.726l-1.217-4.194h-.318l-1.19 4.194z" fill="#0B1F35"/></g></g></svg>