<svg xmlns="http://www.w3.org/2000/svg" width="48" height="48" viewBox="0 0 48 48"><g fill="none" fill-rule="evenodd"><path d="M0 0h48v48H0z"/><path fill="#FFFFFF" d="M21.725 41.185l-.174 1.323c.806.105 1.629.159 2.449.159 10.293 0 18.667-8.374 18.667-18.667a18.717 18.717 0 0 0-6.046-13.753l-.957-.914h5.67V8h-8v8h1.333v-5.776l1.033.987A17.393 17.393 0 0 1 41.333 24c0 9.557-7.776 17.333-17.333 17.333-.761 0-1.528-.049-2.275-.148zM5.308 24.001a18.71 18.71 0 0 0 6.045 13.752l.958.915H6.64v1.333h8v-8h-1.333v5.775l-1.033-.988-.016-.013A17.374 17.374 0 0 1 6.64 24c0-9.557 7.776-17.333 17.334-17.333.761 0 1.528.05 2.274.148l.175-1.323a18.954 18.954 0 0 0-2.45-.158C13.684 5.335 5.309 13.708 5.309 24z"/></g></svg>
