<svg xmlns="http://www.w3.org/2000/svg" width="24" height="22" viewBox="0 0 24 22"><g fill="none" fill-rule="evenodd"><path d="M0-1h24v24H0z"/><path fill="#0B1F35" d="M14 18H1.31C.588 18 0 17.433 0 16.735V1.265C0 .567.588 0 1.31 0H21.5c.827 0 1.5.673 1.5 1.5V3h-1V1.5c0-.275-.225-.5-.5-.5H1.31c-.171 0-.31.119-.31.265v15.471c0 .145.139.264.31.264H14v1z"/><path fill="#0B1F35" d="M11 17.5h1v4h-1z"/><path fill="#0B1F35" d="M8 21h7v1H8z"/><path fill="#0B1F35" d="M15.344 16a.137.137 0 0 0-.136.138v1.724c0 .077.061.138.136.138h8.521a.137.137 0 0 0 .135-.138v-1.724a.136.136 0 0 0-.135-.138h-8.521m8.235-3.611l-2.605-7.062C20.728 4.663 20.434 4 19.499 4c-.934 0-1.239.673-1.475 1.327-.122.337-2.513 6.815-2.603 7.062a.14.14 0 0 0 .08.178l1.416.544c.074.029.149-.016.173-.081.024-.066.594-1.671.654-1.831h3.514c.059.161.624 1.763.649 1.831a.138.138 0 0 0 .174.081l1.417-.544c.088-.033.101-.124.081-.178zM18.318 9.6l1.175-3.45h.015l1.179 3.45h-2.369z" opacity=".3"/></g></svg>