<svg xmlns="http://www.w3.org/2000/svg" width="36" height="36" viewBox="0 0 36 36"><g fill="none"><rect width="36" height="36"/><path fill="#FFF" d="M18,0.972972973 C8.59623264,0.972972973 0.972972973,8.59623264 0.972972973,18 C0.972972973,27.4037674 8.59623264,35.027027 18,35.027027 C27.4037674,35.027027 35.027027,27.4037674 35.027027,18 C35.027027,8.59623264 27.4037674,0.972972973 18,0.972972973 Z M18,0 C27.9411255,0 36,8.0588745 36,18 C36,27.9411255 27.9411255,36 18,36 C8.0588745,36 0,27.9411255 0,18 C0,8.0588745 8.0588745,0 18,0 Z"/><polygon fill="#FFF" points="15.319 23.115 9.184 17.167 8.52 17.853 15.319 24.652 26.851 13.119 26.017 12.307"/></g></svg>