<svg xmlns="http://www.w3.org/2000/svg" width="34" height="33" viewBox="0 0 34 33"><g fill="none" fill-rule="evenodd"><path d="M-1-2h36v36H-1z"/><path fill="#FFF" d="M21.4 21.6c-.5-2.8-3.1-4.6-4-8.8-.1-.4-.6-.4-.7 0-1 4.2-3.5 6-4 8.7-.1.3-.1.6-.1 1 0 2.5 2 4.5 4.5 4.5s4.5-2 4.5-4.5c-.1-.3-.1-.6-.2-.9z" opacity=".3"/><path fill="#FFF" d="M17.9.4c-.6-.4-1.3-.4-1.9 0L.9 12.4c-.7.6-.9 1.4-.6 2.3.3.8 1 1.3 1.9 1.3H5v17h24V16h2.8c.9 0 1.6-.5 1.9-1.3.3-.8 0-1.7-.6-2.2L17.9.4zm14.9 13.9c-.1.3-.4.7-.9.7H28v17H6V15H2.2c-.5 0-.8-.3-.9-.7-.1-.3-.1-.8.3-1.1l15.1-12c.2-.1.4-.1.6 0l15.1 12.1c.5.2.5.7.4 1z"/></g></svg>