<?xml version="1.0" encoding="UTF-8"?>
<svg width="24px" height="24px" viewBox="0 0 24 24" version="1.1" xmlns="http://www.w3.org/2000/svg" xmlns:xlink="http://www.w3.org/1999/xlink">
    <!-- Generator: Sketch 48.2 (47327) - http://www.bohemiancoding.com/sketch -->
    <title>icon_payment-error_m_black</title>
    <desc>Created with Sketch.</desc>
    <defs></defs>
    <g id="Page-1" stroke="none" stroke-width="1" fill="none" fill-rule="evenodd">
        <g id="icon_payment-error_m_black">
            <polygon id="Shape" points="0 0 24 0 24 24 0 24"></polygon>
            <path d="M12,23 C5.9,23 1,18.1 1,12 C1,5.9 5.9,1 12,1 C18.1,1 23,5.9 23,12 C23,18.1 18.1,23 12,23 Z M12,2 C6.5,2 2,6.5 2,12 C2,17.5 6.5,22 12,22 C17.5,22 22,17.5 22,12 C22,6.5 17.5,2 12,2 Z" id="Shape" fill="#FFFFFF" fill-rule="nonzero"></path>
            <polygon id="Shape" fill="#FFFFFF" fill-rule="nonzero" points="6.626 7.334 7.333 6.627 17.303 16.597 16.596 17.304"></polygon>
            <polygon id="Shape" fill="#FFFFFF" fill-rule="nonzero" points="6.626 16.666 16.596 6.696 17.303 7.403 7.333 17.373"></polygon>
            <path d="M12,23 C5.9,23 1,18.1 1,12 C1,5.9 5.9,1 12,1 C18.1,1 23,5.9 23,12 C23,18.1 18.1,23 12,23 Z M12,2 C6.5,2 2,6.5 2,12 C2,17.5 6.5,22 12,22 C17.5,22 22,17.5 22,12 C22,6.5 17.5,2 12,2 Z" id="Shape" fill="#0B1F35" fill-rule="nonzero"></path>
            <polygon id="Shape" fill="#0B1F35" fill-rule="nonzero" points="6.626 7.334 7.333 6.627 17.303 16.597 16.596 17.304"></polygon>
            <polygon id="Shape" fill="#0B1F35" fill-rule="nonzero" points="6.626 16.666 16.596 6.696 17.303 7.403 7.333 17.373"></polygon>
        </g>
    </g>
</svg>