<svg xmlns="http://www.w3.org/2000/svg" width="41" height="46" viewBox="0 0 41 46"><g fill="none" fill-rule="evenodd"><path d="M-4 0h48v48H-4z"/><path fill="#FFF" d="M36.5 46h-32C2 46 0 44 0 41.5v-24C0 16.1 1.1 15 2.5 15H8v1H2.5c-.8 0-1.5.7-1.5 1.5v24C1 43.4 2.6 45 4.5 45h32c1.9 0 3.5-1.6 3.5-3.5v-24c0-.8-.7-1.5-1.5-1.5H33v-1h5.5c1.4 0 2.5 1.1 2.5 2.5v24c0 2.5-2 4.5-4.5 4.5z"/><path fill="#FFF" d="M20.5 38c-3.4 0-6.2-2.6-6.5-6H.5v-1H15v.5c0 3 2.5 5.5 5.5 5.5s5.5-2.5 5.5-5.5V31h14.5v1H27c-.3 3.4-3.1 6-6.5 6z"/><path fill="#FFF" d="M21 23.3V0h-1v23.3l-7.1-7.2-.8.8 8.4 8.3 8.4-8.3-.8-.8z" opacity=".3"/></g></svg>