<svg xmlns="http://www.w3.org/2000/svg" width="16" height="16" viewBox="0 0 16 16"><path fill="#FFF" fill-rule="evenodd" d="M13 4.706h-1V1.467c0-.29-.251-.526-.559-.526H4.707L1 4.431v.275H0V4.04L4.293 0h7.148C12.301 0 13 .658 13 1.467v3.239zM11.5 16h-10C.673 16 0 15.367 0 14.588h1c0 .26.224.47.5.47h10c.275 0 .5-.21.5-.47h1c0 .779-.673 1.412-1.5 1.412zM0 11.94V6.589h1.953c.695 0 1.269.21 1.719.627.45.418.676.954.676 1.609v.885c0 .657-.226 1.194-.676 1.609-.45.415-1.023.623-1.719.623H0zm1.141-4.524v3.698h.754c.409 0 .729-.13.961-.39.232-.26.348-.598.348-1.017v-.892c0-.413-.116-.75-.348-1.01-.232-.26-.552-.39-.961-.39h-.754zm8.871 2.49c0 .673-.233 1.23-.698 1.67-.465.44-1.068.66-1.812.66-.738 0-1.337-.22-1.798-.66-.461-.44-.691-.997-.691-1.67v-.988c0-.671.229-1.228.689-1.668.459-.442 1.058-.662 1.796-.662.744 0 1.349.22 1.815.662.466.441.7.997.7 1.668v.988h-.001zM8.81 8.913c0-.428-.116-.78-.35-1.053-.233-.275-.554-.412-.962-.412-.408 0-.726.136-.951.41-.225.274-.337.625-.337 1.055v.997c0 .435.114.79.342 1.065.227.275.544.412.951.412.412 0 .733-.137.963-.412.23-.274.346-.63.346-1.065v-.997H8.81zm6.651 1.373l.008.023c.011.59-.177 1.06-.561 1.406-.384.346-.917.52-1.599.52-.685 0-1.241-.212-1.668-.637-.427-.424-.641-.971-.641-1.64v-1.09c0-.665.208-1.212.625-1.639.417-.427.958-.64 1.625-.64.703 0 1.253.173 1.648.522.396.348.589.822.578 1.423l-.008.022h-1.109c0-.362-.09-.639-.27-.83-.18-.193-.46-.289-.84-.289-.341 0-.717.134-.917.401-.2.267-.334.608-.334 1.022v1.097c0 .42.139.762.35 1.03.211.267.6.4.96.4.356 0 .62-.092.791-.276.171-.185.256-.46.256-.824h1.106z"/></svg>