<svg xmlns="http://www.w3.org/2000/svg" width="18" height="18" viewBox="0 0 18 18"><path fill="#FFF" fill-rule="evenodd" d="M17 1h-4v4h1V2.707l.646.646.218.205A7.947 7.947 0 0 1 17 9c0 4.411-3.589 8-8 8-.348 0-.7-.022-1.045-.067l-.128.992c.387.05.782.075 1.173.075 4.963 0 9-4.037 9-9a8.943 8.943 0 0 0-2.637-6.364L14.719 2H17V1zM0 9a8.94 8.94 0 0 0 2.637 6.364l.644.636H1v1h4v-4H4v2.293l-.646-.646-.218-.205A7.942 7.942 0 0 1 1 9c0-4.411 3.589-8 8-8 .348 0 .7.022 1.045.067l.129-.992A9.219 9.219 0 0 0 9 0C4.038 0 0 4.037 0 9z"/></svg>