<svg xmlns="http://www.w3.org/2000/svg" width="36" height="36" version="1" viewBox="0 0 36 36"><path fill="#FFF" d="M26.188 25.83C23.289 24.384 22.742 23 22.742 20h-.244C24.74 17.735 26 13.866 26 10.071 26 5.848 25.091 1 18 1s-8 4.848-8 9.071c0 3.795 1.26 7.664 3.502 9.929h-.244c0 3-.547 4.384-3.445 5.83C6.862 27.301 0 31.012 0 36h1c0-4.554 7.087-8.192 9.26-9.276 3.063-1.528 3.903-2.597 3.99-6.061C15.324 21.498 16.577 22 18 22s2.676-.502 3.751-1.337c.087 3.464.927 4.533 3.99 6.061C27.913 27.808 35 31.446 35 36h1c0-4.988-6.862-8.699-9.812-10.17zM11 10.071C11 4.338 13.028 2 18 2s7 2.338 7 8.071C25 14.609 22.828 21 18 21s-7-6.391-7-10.929zm.797 1.91h.001z"/></svg>