<svg xmlns="http://www.w3.org/2000/svg" width="36" height="36" version="1" viewBox="0 0 36 36"><path fill="#0B1F35" d="M21.511 32c.807 0 1.858-.07 2.419-.193v-.841c-.561.14-1.613.21-2.419.21-5.377 0-9.972-3.164-11.103-9.176H21v-1H10.248a16.152 16.152 0 0 1-.116-2.009c0-.631.035-1.227.088-1.806l.023-.185H21v-1H10.409c1.138-6.019 5.722-9.176 11.102-9.176.807 0 1.858.07 2.419.21v-.841C23.369 6.07 22.317 6 21.511 6c-5.871 0-10.841 3.454-12 10H5v1h4.361l-.017.185a19.65 19.65 0 0 0-.088 1.806c0 .692.035 1.365.116 2.009H5v1h4.512c1.168 6.538 6.131 10 11.999 10z"/></svg>