<?xml version="1.0" encoding="UTF-8"?>
<svg width="24px" height="24px" viewBox="0 0 24 24" version="1.1" xmlns="http://www.w3.org/2000/svg" xmlns:xlink="http://www.w3.org/1999/xlink">
    <!-- Generator: Sketch 48.2 (47327) - http://www.bohemiancoding.com/sketch -->
    <title>icon_account-usd_m_black</title>
    <desc>Created with Sketch.</desc>
    <defs></defs>
    <g id="mobile" stroke="none" stroke-width="1" fill="none" fill-rule="evenodd" transform="translate(-292.000000, -261.000000)">
        <g id="Headings" transform="translate(64.000000, 77.000000)"></g>
        <g id="icon_tool_account_usd__m__white" transform="translate(292.000000, 261.000000)">
            <g id="ungroup">
                <rect id="Rectangle-path" x="0" y="0" width="24" height="24"></rect>
                <path d="M19,23 L5,23 C3.9,23 3,22.1 3,21 L3,3 C3,1.9 3.9,1 5,1 L15.7,1 L21,6.3 L21,21 C21,22.1 20.1,23 19,23 L19,23 Z M5,2 C4.4,2 4,2.4 4,3 L4,21 C4,21.6 4.4,22 5,22 L19,22 C19.6,22 20,21.6 20,21 L20,6.7 L15.3,2 L5,2 L5,2 Z" id="Shape" fill="#0B1F35"></path>
                <g id="Group" opacity="0.3" transform="translate(8.000000, 6.000000)" fill="#0B1F35">
                    <path d="M4.82051282,6.14728682 L4.41025641,6.04651163 L4.41025641,2.01550388 C5.74358974,2.11627907 6.66666667,2.92248062 6.76923077,4.03100775 L7.79487179,4.03100775 C7.69230769,2.41860465 6.35897436,1.20930233 4.41025641,1.10852713 L4.41025641,0 L3.38461538,0 L3.38461538,1.10852713 C1.53846154,1.31007752 0.307692308,2.51937984 0.307692308,4.03100775 C0.307692308,5.44186047 1.23076923,6.24806202 3.28205128,6.75193798 L3.38461538,6.75193798 L3.38461538,11.0852713 C2.05128205,10.8837209 1.12820513,10.0775194 1.02564103,8.96899225 L0,8.96899225 C0.102564103,10.6821705 1.43589744,11.7906977 3.38461538,11.9922481 L3.38461538,13 L4.41025641,13 L4.41025641,11.9922481 C6.56410256,11.8914729 8,10.6821705 8,8.86821705 C8,7.55813953 7.07692308,6.75193798 4.82051282,6.14728682 L4.82051282,6.14728682 Z M1.33333333,4.03100775 C1.33333333,3.02325581 2.15384615,2.21705426 3.38461538,2.01550388 L3.38461538,5.74418605 C1.94871795,5.34108527 1.33333333,4.8372093 1.33333333,4.03100775 L1.33333333,4.03100775 Z M4.41025641,11.1860465 L4.41025641,7.05426357 L4.61538462,7.05426357 C6.25641026,7.45736434 6.97435897,8.0620155 6.97435897,9.06976744 C6.87179487,10.2790698 5.84615385,11.0852713 4.41025641,11.1860465 L4.41025641,11.1860465 Z" id="Shape"></path>
                </g>
            </g>
        </g>
    </g>
</svg>