<svg width="12" height="12" viewBox="0 0 12 12" xmlns="http://www.w3.org/2000/svg"><title>icon_action_lock_xs_white</title><g fill="none" fill-rule="evenodd"><path d="M0 0h12v12H0z"/><g fill="#0B1F35"><path d="M9 4.99V3.744C9 2.228 7.716 1 6.2 1h-.4C4.284 1 3 2.228 3 3.743v1.248h-.22a.778.778 0 0 0-.78.778v4.384C2 11.172 2.829 12 3.847 12h4.306A1.849 1.849 0 0 0 10 10.154V5.773a.781.781 0 0 0-.78-.782H9zM5.8 2h.4C7.192 2 8 2.82 8 3.75V5H4V3.75C4 2.82 4.808 2 5.8 2zm2.19 9H4.01C3.453 11 3 10.442 3 9.757V6.261C3 6.117 3.095 6 3.212 6h5.576c.117 0 .212.117.212.26v3.497C9 10.442 8.547 11 7.99 11z"/><path d="M5 8.002a1 1 0 0 0 .5.864L5.509 10h1L6.5 8.866A.998.998 0 0 0 6 7a1 1 0 0 0-1 1.002z" opacity=".3"/></g></g></svg>
