<svg xmlns="http://www.w3.org/2000/svg" width="36" height="36" version="1" viewBox="0 0 36 36"><path fill="#0B1F35" d="M3.472 17.208c0 .951.106 1.902.211 2.853.317 1.69.951 3.275 1.691 4.648 1.057 1.796 2.43 3.381 4.121 4.543 1.162.845 2.325 1.479 3.698 1.902.528.211 1.162.317 1.796.528.845.212 1.69.318 2.641.318h.845c.423 0 .951 0 1.479-.106 2.008-.211 4.015-.951 5.706-2.008 1.691-1.057 3.17-2.43 4.226-4.015 1.162-1.691 2.008-3.592 2.43-5.6 0-.211.106-.528.106-.845.106-.634.106-1.374.106-2.008v-.423c0-.634-.106-1.162-.211-1.796-.211-1.585-.74-3.064-1.479-4.438L12.242 21.54l-8.77-5.072v.74zM25.343 4.845A12.565 12.565 0 0 0 23.653 4l-11.411 6.551L7.17 7.592 6.219 8.86l6.023 3.487 13.101-7.502z"/><path fill="#0B1F35" d="M3.789 14.143c0 .211-.106.317-.106.528l8.558 4.966L30.098 9.389c-.211-.317-.317-.528-.528-.74-.106-.106-.106-.211-.211-.317 0-.106-.106-.106-.106-.211l-17.011 9.721-8.136-4.755c-.106.317-.212.739-.317 1.056z"/><path fill="#0B1F35" d="M4.634 11.608l7.608 4.438 15.849-9.087c-.423-.423-.845-.74-1.268-1.057l-14.581 8.242-6.868-3.909c-.317.422-.529.95-.74 1.373z"/></svg>