<svg xmlns="http://www.w3.org/2000/svg" width="36" height="36" version="1" viewBox="0 0 36 36"><path fill="#0B1F35" d="M30.034 23.833c0-5.568-3.801-10.253-9.104-11.401-.265-3.801-.265-5.303-.265-7.159h-.884s.088 5.303.088 6.982c-.354-.088-.619-.088-.972-.088V.5h-.795v11.667c-.354 0-.619.088-.972.088.088-1.679.088-6.982.088-6.982h-.884c0 1.856 0 3.447-.265 7.159-5.215 1.149-9.104 5.745-9.104 11.401 0 4.066 2.21 7.689 5.303 9.811 4.154-4.331 4.861-16.263 4.861-17.058-.707 0-1.503.265-1.591.265-.884 5.48-3.359 10.253-6.098 12.816-.972-1.503-1.503-3.182-1.503-4.773 0-5.215 4.95-9.192 10.783-9.192 5.745 0 10.694 3.977 10.341 9.104 0 1.591-.442 3.27-1.503 4.773-2.828-2.563-5.215-7.159-6.098-12.816-.177 0-.972-.265-1.591-.265 0 .795.619 12.816 4.861 17.058 3.271-2.033 5.304-5.657 5.304-9.723z"/><path fill="#0B1F35" d="M18.014 16.497c-.354 9.899-1.326 15.556-3.005 18.472 1.149.354 2.386.53 3.624.53s2.475-.177 3.624-.53c-1.679-2.917-2.651-8.573-3.005-18.472h-1.238z"/></svg>