<svg xmlns="http://www.w3.org/2000/svg" width="24" height="24" viewBox="0 0 24 24"><g fill="none" fill-rule="evenodd"><path d="M0 0h24v24H0z"/><g fill="#0B1F35"><path d="M6 6h2v2H6V6zm10 2V6h2v4h-2V8zm-2 4h4v6h-2v-4h-2v-2zm-6 2h2v2H8v-2zm6-6v4h-2v2h-2v-2H8v2H6v-4h2V8h2v2h2V6h2v2zm-8 8h2v2H6v-2zm6 2h-2v-2h4v2h-2z" opacity=".3"/><path d="M1 5.3v13.4C1 21.1 2.9 23 5.3 23h13.4c2.4 0 4.3-1.9 4.3-4.3V5.3C23 2.9 21.1 1 18.7 1H5.3C2.9 1 1 2.9 1 5.3zM5.3 2h13.4C20.5 2 22 3.5 22 5.3v13.4c0 1.8-1.5 3.3-3.3 3.3H5.3C3.5 22 2 20.5 2 18.7V5.3C2 3.5 3.5 2 5.3 2z"/></g></g></svg>