<svg xmlns="http://www.w3.org/2000/svg" width="48" height="39" viewBox="0 0 48 39"><g fill="none" fill-rule="evenodd"><path d="M0-2h48v48H0z"/><path fill="#0B1F35" d="M43.457 4H18V0H7v4H4.543A4.548 4.548 0 0 0 0 8.543v25.914A4.548 4.548 0 0 0 4.543 39h38.913A4.548 4.548 0 0 0 48 34.457V8.543A4.548 4.548 0 0 0 43.457 4zM47 34.457A3.547 3.547 0 0 1 43.457 38H4.543A3.547 3.547 0 0 1 1 34.457V8.543A3.547 3.547 0 0 1 4.543 5H8V1h9v4h26.457A3.547 3.547 0 0 1 47 8.543v25.914z"/><path fill="#0B1F35" d="M31.5 12c-5.238 0-9.5 4.262-9.5 9.5s4.262 9.5 9.5 9.5 9.5-4.262 9.5-9.5-4.262-9.5-9.5-9.5zm0 17c-4.136 0-7.5-3.364-7.5-7.5s3.364-7.5 7.5-7.5 7.5 3.364 7.5 7.5-3.364 7.5-7.5 7.5zM8 13h10v5H8z" opacity=".3"/></g></svg>