<svg xmlns="http://www.w3.org/2000/svg" width="18" height="18" viewBox="0 0 18 18"><g fill="none"><rect width="18" height="18"/><path fill="#FFF" d="M9,0.947368421 C4.55265438,0.947368421 0.947368421,4.55265438 0.947368421,9 C0.947368421,13.4473456 4.55265438,17.0526316 9,17.0526316 C13.4473456,17.0526316 17.0526316,13.4473456 17.0526316,9 C17.0526316,4.55265438 13.4473456,0.947368421 9,0.947368421 Z M9,0 C13.9705627,0 18,4.02943725 18,9 C18,13.9705627 13.9705627,18 9,18 C4.02943725,18 0,13.9705627 0,9 C0,4.02943725 4.02943725,0 9,0 Z"/><polygon fill="#FFF" points="9 8.293 12.182 5.111 12.889 5.818 9.707 9 12.889 12.182 12.182 12.889 9 9.707 5.818 12.889 5.111 12.182 8.293 9 5.111 5.818 5.818 5.111"/></g></svg>