<svg xmlns="http://www.w3.org/2000/svg" width="36" height="36" viewBox="0 0 36 36"><path fill="none" d="M0 0h36v36H0z"/><path fill="#0B1F35" d="M.5 20.89V17A1.5 1.5 0 0 1 2 15.49h23A1.5 1.5 0 0 1 26.5 17v3.9" opacity=".4"/><path fill="#0B1F35" d="M13.5 36C7 36 0 32 0 20.89V17a2 2 0 0 1 2-2h23a2 2 0 0 1 2 2v3.9C27 32 20 36 13.5 36zM2 16a1 1 0 0 0-1 1v3.9C1 31.29 7.46 35 13.5 35S26 31.29 26 20.89V17a1 1 0 0 0-1-1H2z"/><path fill="#0B1F35" d="M24 30.81v-1c4.38-.17 9-3.68 10.85-8.15a3.27 3.27 0 0 0-.58-3.54 3.21 3.21 0 0 0-3.34-.88 5.69 5.69 0 0 0-3.88 5H26a6.66 6.66 0 0 1 4.57-5.93A4.24 4.24 0 0 1 35.73 22c-1.97 4.93-6.91 8.62-11.73 8.81z"/><path fill="#0B1F35" d="M9.49 0a2.9 2.9 0 0 1 .61.19 3.32 3.32 0 0 1 1.35 1.13 4 4 0 0 1 .76 2.52 4.21 4.21 0 0 1-.36 1.53 7.83 7.83 0 0 1-.7 1.24l-.66 1-.24.39a4 4 0 0 0-.19.42 4.19 4.19 0 0 0-.25 1.73 3.53 3.53 0 0 0 .37 1.34 3.15 3.15 0 0 0 .32.51 2.56 2.56 0 0 1-.62-.19 2.93 2.93 0 0 1-1.27-1.24A4.09 4.09 0 0 1 8.14 8a5.83 5.83 0 0 1 .17-.74 4.32 4.32 0 0 1 .29-.72 11.32 11.32 0 0 1 .69-1.17c.23-.37.43-.66.59-.95a3.64 3.64 0 0 0 .34-.82 3.91 3.91 0 0 0 .05-1.73A4.92 4.92 0 0 0 9.81.53 4 4 0 0 0 9.49 0zM14 3.75a2.9 2.9 0 0 1 .61.19A3.32 3.32 0 0 1 16 5.07a4 4 0 0 1 .76 2.52 4.21 4.21 0 0 1-.36 1.53 7.83 7.83 0 0 1-.7 1.24l-.66 1-.25.41a4 4 0 0 0-.19.42 4.19 4.19 0 0 0-.25 1.73 3.53 3.53 0 0 0 .37 1.34 3.15 3.15 0 0 0 .32.51 2.56 2.56 0 0 1-.62-.19 2.93 2.93 0 0 1-1.27-1.24 4.09 4.09 0 0 1-.46-2.58 5.83 5.83 0 0 1 .12-.76 4.32 4.32 0 0 1 .29-.71 11.32 11.32 0 0 1 .69-1.17c.23-.34.43-.66.59-.95a3.64 3.64 0 0 0 .34-.82 3.91 3.91 0 0 0 .05-1.73 4.92 4.92 0 0 0-.47-1.34 4 4 0 0 0-.3-.53z" opacity=".3"/></svg>