<svg width="24" height="24" viewBox="0 0 24 24" xmlns="http://www.w3.org/2000/svg"><g fill="none" fill-rule="evenodd"><path d="M0 0h24v24H0z"/><path d="M9.7 17l-1.2 2h7l-1.2-2H9.7zM9.1 7l2.9 5 2.9-5H9.1z" fill="#FFF" fill-rule="nonzero" opacity=".3"/><path d="M18.9 22H5.1c-.5 0-1-.3-1.3-.8-.3-.5-.3-1 0-1.5L8.2 12 3.8 4.2c-.3-.5-.3-1 0-1.5.2-.4.7-.7 1.3-.7H19c.5 0 1 .3 1.3.8.3.5.3 1 0 1.5L15.8 12l4.5 7.8c.3.5.3 1 0 1.5-.3.4-.8.7-1.4.7zM5.1 3c-.3 0-.4.2-.5.2 0 .1-.1.3 0 .5L9.4 12l-4.8 8.2c-.1.2 0 .4 0 .5 0 .1.2.2.4.2h13.9c.3 0 .4-.2.4-.2 0-.1.1-.3 0-.5L14.6 12l4.8-8.2c.1-.2 0-.4 0-.5 0-.1-.2-.2-.4-.2H5.1V3z" fill="#FFF" fill-rule="nonzero"/></g></svg>