<?xml version="1.0" encoding="UTF-8"?>
<svg width="18px" height="18px" viewBox="0 0 18 18" version="1.1" xmlns="http://www.w3.org/2000/svg" xmlns:xlink="http://www.w3.org/1999/xlink">
    <!-- Generator: Sketch 48.2 (47327) - http://www.bohemiancoding.com/sketch -->
    <title>icon_transfer-out_s_black</title>
    <desc>Created with Sketch.</desc>
    <defs></defs>
    <g id="icon_transfer-out_s_black" stroke="none" stroke-width="1" fill="none" fill-rule="evenodd">
        <g>
            <rect id="ph" opacity="0" x="0" y="0" width="18" height="18"></rect>
            <path d="M13.751618,4.66902855 L14.4760608,3.96758026 C15.432401,5.22657856 16,6.79700436 16,8.5 C16,12.6421356 12.6421356,16 8.5,16 C4.35786438,16 1,12.6421356 1,8.5 C1,6.61408649 1.69607825,4.89075077 2.8453321,3.57289549 L3.53518931,4.30447124 C2.57744459,5.43668177 2,6.90090618 2,8.5 C2,12.0898509 4.91014913,15 8.5,15 C12.0898509,15 15,12.0898509 15,8.5 C15,7.06754806 14.5366357,5.74332064 13.751618,4.66902855 Z" id="Combined-Shape" fill="#0B1F35"></path>
            <polygon id="Arrow" fill-opacity="0.899999976" fill="#0B1F35" points="5 5.4 5.81818182 6.1 7.98863636 4 7.98863636 11 9.01136364 11 9.01136364 4 11.1818182 6.1 12 5.4 8.5 2"></polygon>
        </g>
    </g>
</svg>