<svg xmlns="http://www.w3.org/2000/svg" width="16" height="22" viewBox="0 0 16 22"><path fill="#FFF" fill-rule="evenodd" d="M13.506 22c.685 0 1.611-.061 2.15-.179v-.786c-.569.113-1.477.172-2.15.172-4.699 0-8.21-2.753-9.246-7.207H14v-1H4.078l-.044-.289a12.252 12.252 0 0 1-.108-1.703c0-.317.015-.655.038-1.007H14v-1H4.071l.084-.545C5.065 3.739 8.648.808 13.506.808c.674 0 1.581.059 2.15.172V.179C15.117.061 14.19 0 13.506 0 8.05 0 4.104 3.261 3.209 8.505L3.141 9H0v1h3.049c-.022.335-.049.676-.049.993 0 .588.029 1.153.088 1.673L3.14 13H0v1h3.321c1.069 4.942 4.934 8 10.185 8z"/></svg>