<svg xmlns="http://www.w3.org/2000/svg" width="24" height="24" viewBox="0 0 24 24"><g fill="none" fill-rule="evenodd"><path d="M0 0h24v24H0z"/><path fill="#0B1F35" d="M9 15c-3 0-4.8-3.5-4.8-6.8C4.2 6 4.7 3 9 3s4.8 3 4.8 5.2C13.8 11.5 12 15 9 15zM9 4C6.3 4 5.2 5.2 5.2 8.2 5.2 11 6.7 14 9 14s3.8-3 3.8-5.8c0-3-1.1-4.2-3.8-4.2z"/><path fill="#0B1F35" d="M1 23H0c0-3.6 2.3-4.9 3.7-5.6.2-.1.4-.2.5-.3l.4-.2c1-.6 1.4-.8 1.4-3.4h1c0 3.1-.7 3.6-1.9 4.3l-.3.2-.6.3C2.8 19 1 20 1 23zm17 0h-1c0-3-1.8-4-3.2-4.7l-.6-.3-.3-.2c-1.2-.8-1.9-1.3-1.9-4.4h1c0 2.6.4 2.9 1.4 3.4l.4.2c.2.1.3.2.5.3 1.4.8 3.7 2.1 3.7 5.7zm-3-11c-.9 0-1.7-.3-2.4-.9l.6-.8c.5.4 1.1.7 1.8.7 2.3 0 3.8-3 3.8-5.8 0-3-1.1-4.2-3.8-4.2-2.3 0-3.3.8-3.7 2.8l-1-.2c.4-2.4 2-3.6 4.7-3.6 4.3 0 4.8 3 4.8 5.2C19.8 8.5 18 12 15 12z"/><path fill="#0B1F35" d="M24 20h-1c0-3-1.8-4-3.2-4.7l-.6-.3-.3-.2c-1.2-.8-1.9-1.3-1.9-4.4h1c0 2.6.4 2.9 1.4 3.4l.4.2c.2.1.3.2.5.3 1.4.8 3.7 2.1 3.7 5.7zM9 15c-3 0-4.8-3.5-4.8-6.8C4.2 6 4.7 3 9 3s4.8 3 4.8 5.2C13.8 11.5 12 15 9 15zM9 4C6.3 4 5.2 5.2 5.2 8.2 5.2 11 6.7 14 9 14s3.8-3 3.8-5.8c0-3-1.1-4.2-3.8-4.2z"/><path fill="#0B1F35" d="M1 23H0c0-3.6 2.3-4.9 3.7-5.6.2-.1.4-.2.5-.3l.4-.2c1-.6 1.4-.8 1.4-3.4h1c0 3.1-.7 3.6-1.9 4.3l-.3.2-.6.3C2.8 19 1 20 1 23zm17 0h-1c0-3-1.8-4-3.2-4.7l-.6-.3-.3-.2c-1.2-.8-1.9-1.3-1.9-4.4h1c0 2.6.4 2.9 1.4 3.4l.4.2c.2.1.3.2.5.3 1.4.8 3.7 2.1 3.7 5.7zm-3-11c-.9 0-1.7-.3-2.4-.9l.6-.8c.5.4 1.1.7 1.8.7 2.3 0 3.8-3 3.8-5.8 0-3-1.1-4.2-3.8-4.2-2.3 0-3.3.8-3.7 2.8l-1-.2c.4-2.4 2-3.6 4.7-3.6 4.3 0 4.8 3 4.8 5.2C19.8 8.5 18 12 15 12z"/><path fill="#0B1F35" d="M24 20h-1c0-3-1.8-4-3.2-4.7l-.6-.3-.3-.2c-1.2-.8-1.9-1.3-1.9-4.4h1c0 2.6.4 2.9 1.4 3.4l.4.2c.2.1.3.2.5.3 1.4.8 3.7 2.1 3.7 5.7z"/></g></svg>