<svg width="48" height="48" xmlns="http://www.w3.org/2000/svg"><g fill="none" fill-rule="evenodd"><path d="M46.734 39.588L26.238 5.27c-1.011-1.693-3.463-1.693-4.476 0L1.266 39.59c-1.037 1.733.214 3.938 2.238 3.938h40.993c2.023 0 3.274-2.205 2.237-3.941zM25.97 16.64l-.243 14.675h-3.459l-.243-14.675h3.945zm-1.98 21.812c-1.262 0-2.248-.974-2.248-2.221 0-1.245.986-2.22 2.249-2.22 1.269 0 2.264.975 2.264 2.22s-.994 2.22-2.264 2.22z" fill="#EF3124" fill-rule="nonzero"/><path d="M0 0h48v48H0z"/></g></svg>