<svg xmlns="http://www.w3.org/2000/svg" width="24" height="34" viewBox="0 0 24 34"><g fill="none" fill-rule="evenodd"><path d="M-6-1h36v36H-6z"/><path fill="#0B1F35" d="M8 32.667C8 33.403 8.597 34 9.333 34h5.333c.737 0 1.334-.597 1.334-1.333V30H8v2.667z" opacity=".3"/><path fill="#0B1F35" d="M16.078 28v-.5c0-1.818 1.162-3.872 3.163-5.618a12.103 12.103 0 0 0 2.09-2.046c1.527-1.788 2.376-3.861 2.596-6.33.049-.466.073-.899.073-1.323C24 5.465 18.617 0 12 0S0 5.465 0 12.183c0 .425.024.857.073 1.314.22 2.48 1.072 4.556 2.591 6.332.596.75 1.302 1.44 2.073 2.034 2.025 1.765 3.186 3.819 3.186 5.637v.5h8.155zM5.37 21.091a11.225 11.225 0 0 1-1.935-1.898c-1.41-1.648-2.162-3.486-2.367-5.792-.046-.431-.068-.83-.068-1.218C1 6.017 5.935 1 12 1s11 5.017 11 11.183c0 .389-.022.787-.069 1.227-.204 2.297-.956 4.135-2.366 5.783l-.012.014a11.235 11.235 0 0 1-1.946 1.903c-1.241 1.08-3.274 3.234-3.507 5.89H8.9c-.233-2.656-2.267-4.811-3.53-5.909z"/><path fill="#0B1F35" d="M12 0C8.206 0 5 4.95 5 10.809c0 4.05 1.224 6.614 2.407 9.096 1.083 2.271 2.107 4.418 2.107 7.596h1c0-3.404-1.121-5.754-2.205-8.026C7.174 17.093 6 14.632 6 10.809c0-4.951 2.517-9.318 5.5-9.764v25.568h1V1.044c2.983.446 5.5 4.813 5.5 9.764 0 3.823-1.174 6.284-2.31 8.665-1.084 2.272-2.205 4.622-2.205 8.026h1c0-3.178 1.024-5.324 2.107-7.596C17.776 17.423 19 14.858 19 10.809 19 4.95 15.794 0 12 0z" opacity=".3"/></g></svg>