<?xml version="1.0" encoding="UTF-8"?>
<svg width="24px" height="24px" viewBox="0 0 24 24" version="1.1" xmlns="http://www.w3.org/2000/svg" xmlns:xlink="http://www.w3.org/1999/xlink">
    <!-- Generator: Sketch 48.2 (47327) - http://www.bohemiancoding.com/sketch -->
    <title>icon_account-euro_m_white</title>
    <desc>Created with Sketch.</desc>
    <defs></defs>
    <g id="mobile" stroke="none" stroke-width="1" fill="none" fill-rule="evenodd" transform="translate(-292.000000, -153.000000)">
        <g id="Headings" transform="translate(64.000000, 77.000000)"></g>
        <g id="icon_tool_account_euro__m__white" transform="translate(292.000000, 153.000000)">
            <g id="ungroup">
                <rect id="Rectangle-path" x="0" y="0" width="24" height="24"></rect>
                <path d="M19,23 L5,23 C3.9,23 3,22.1 3,21 L3,3 C3,1.9 3.9,1 5,1 L15.7,1 L21,6.3 L21,21 C21,22.1 20.1,23 19,23 L19,23 Z M5,2 C4.4,2 4,2.4 4,3 L4,21 C4,21.6 4.4,22 5,22 L19,22 C19.6,22 20,21.6 20,21 L20,6.7 L15.3,2 L5,2 L5,2 Z" id="Shape" fill="#0B1F35"></path>
                <path d="M8.2,11 L7,11 L7,12 L8,12 L8,12.5 L8,13 L7,13 L7,14 L8.2,14 C8.7,16.5 10.5,18 13,18 C13.7,18 14.4,17.9 15,17.6 L15,16.7 C14.4,16.9 13.8,17 13,17 C11.1,17 9.7,15.8 9.3,13.9 L14,13.9 L14,12.9 L9.1,12.9 L9.1,12.4 L9.1,11.9 L14,11.9 L14,10.9 L9.3,10.9 C9.8,9 11.1,7.8 13,7.8 C13.8,7.8 14.4,7.9 15,8.1 L15,7.4 C14.4,7.1 13.7,7 13,7 C10.4,7 8.7,8.5 8.2,11 L8.2,11 Z" id="Shape" fill="#0B1F35" opacity="0.3"></path>
            </g>
        </g>
    </g>
</svg>