<?xml version="1.0" encoding="UTF-8"?>
<svg width="36px" height="36px" viewBox="0 0 36 36" version="1.1" xmlns="http://www.w3.org/2000/svg" xmlns:xlink="http://www.w3.org/1999/xlink">
    <!-- Generator: Sketch 48.2 (47327) - http://www.bohemiancoding.com/sketch -->
    <title>icon_account-rub_xl_white</title>
    <desc>Created with Sketch.</desc>
    <defs></defs>
    <g id="mobile" stroke="none" stroke-width="1" fill="none" fill-rule="evenodd" transform="translate(-812.000000, -153.000000)">
        <g id="Headings" transform="translate(64.000000, 77.000000)"></g>
        <g id="icon_tool_account_rub__xl__white" transform="translate(812.000000, 153.000000)">
            <g id="ungroup">
                <rect id="Rectangle-path" x="0" y="0" width="36" height="36"></rect>
                <path d="M28.2,34.1 L7.8,34.1 C6.3,34.1 5,32.8 5,31.3 L5,3.8 C5,2.3 6.3,1 7.8,1 L23.1,1 L31,8.9 L31,31.3 C31,32.9 29.7,34.1 28.2,34.1 L28.2,34.1 Z M7.8,2 C6.8,2 6,2.8 6,3.8 L6,31.3 C6,32.3 6.8,33.1 7.8,33.1 L28.2,33.1 C29.2,33.1 30,32.3 30,31.3 L30,9.3 L22.6,2 L7.8,2 L7.8,2 Z" id="Shape" fill="#0B1F35"></path>
                <path d="M13,26 L15,26 L15,24 L20,24 L20,22 L15,22 L15,20 L18.1,20 C21.1,20 23,17.8 23,15 C23,12.2 21.1,10 18.1,10 L13,10 L13,18 L11,18 L11,20 L13,20 L13,22 L11,22 L11,24 L13,24 L13,26 L13,26 Z M15,12 L17.6,12 C19.9,12 21,13.1 21,15 C21,16.9 19.9,18 17.6,18 L15,18 L15,12 L15,12 Z" id="Shape" fill="#0B1F35" opacity="0.3"></path>
            </g>
        </g>
    </g>
</svg>