<svg xmlns="http://www.w3.org/2000/svg" width="24" height="24" viewBox="0 0 24 24"><g fill="none" fill-rule="evenodd"><path d="M0 0h24v24H0z"/><path fill="#FFFFFF" fill-rule="nonzero" d="M13.9 16.005c0-.61.496-1.105 1.106-1.105h5.988c.613 0 1.106.491 1.106 1.105v4.99c0 .61-.496 1.105-1.106 1.105h-5.988a1.102 1.102 0 0 1-1.106-1.105v-4.99zm-.8 0v4.99c0 1.056.852 1.905 1.906 1.905h5.988a1.907 1.907 0 0 0 1.906-1.905v-4.99a1.902 1.902 0 0 0-1.906-1.905h-5.988a1.907 1.907 0 0 0-1.906 1.905z"/><path fill="#FFFFFF" d="M15 13h1v3h-1z"/><path fill="#FFFFFF" d="M15 17h2v2h-2z" opacity=".3"/><path fill="#FFFFFF" d="M20 13h1v3h-1z"/><path fill="#FFFFFF" d="M12 2c3.701 0 6.924 2.016 8.654 5.004L12 12V2" opacity=".2"/><path fill="#FFFFFF" d="M23 11.998c0-6.075-4.925-11-11-11s-11 4.925-11 11c0 5.738 4.394 10.45 10 10.955v-1.005c-5.046-.503-9-4.773-9-9.95 0-5.514 4.486-10 10-10s10 4.486 10 10h1z"/></g></svg>
