<svg xmlns="http://www.w3.org/2000/svg" width="18" height="18" version="1" viewBox="0 0 18 18"><path fill="#296A51" d="M1.5 9c0-4.134 3.366-7.5 7.5-7.5v2.717C6.343 4.217 4.217 6.343 4.217 9S6.343 13.783 9 13.783c2.598 0 4.783-2.126 4.783-4.783H16.5c0 4.134-3.366 7.5-7.5 7.5S1.5 13.134 1.5 9"/><path fill="#87B94B" d="M6.188 9c0-1.557 1.256-2.812 2.812-2.812S11.812 7.444 11.812 9 10.557 11.812 9 11.812c-1.557.05-2.812-1.255-2.812-2.812"/><path fill="#296A51" d="M11 5c0-1.125.875-2 2-2s2 .875 2 2-.875 2-2 2-2-.875-2-2"/></svg>