<svg width="30" height="30" viewBox="0 0 30 30" xmlns="http://www.w3.org/2000/svg"><g fill="none" fill-rule="evenodd"><path d="M0 0h30v30H0z"/><path d="M15 7.583a7.36 7.36 0 0 0-2.833 5.807A7.359 7.359 0 0 0 15 19.195a7.359 7.359 0 0 0 2.833-5.807A7.359 7.359 0 0 0 15 7.583zM19.584 6c-1.519 0-2.93.455-4.106 1.235.06.049.121.097.18.148a7.947 7.947 0 0 1 2.749 6.006 7.948 7.948 0 0 1-2.75 6.007c-.058.05-.119.098-.18.147a7.4 7.4 0 0 0 4.107 1.236c4.096 0 7.416-3.309 7.416-7.39C27 9.31 23.68 6 19.584 6zm-5.241 13.396c.058.05.119.098.18.147a7.4 7.4 0 0 1-4.107 1.236C6.32 20.779 3 17.47 3 13.389 3 9.31 6.32 6 10.416 6c1.519 0 2.93.455 4.106 1.235-.06.049-.12.097-.18.148a7.948 7.948 0 0 0-2.748 6.006 7.947 7.947 0 0 0 2.749 6.007zm12.425-1.428v-.287h-.075l-.087.198-.086-.198h-.075v.287h.053v-.216l.08.186h.056l.08-.187v.217h.054zm-.476 0v-.238h.096v-.048h-.245v.048h.096v.238h.053zm.232 6.38v.048h.044c.01 0 .019-.002.025-.006.006-.004.009-.01.009-.018a.02.02 0 0 0-.01-.018.048.048 0 0 0-.024-.006h-.044zm.045-.034c.023 0 .04.005.054.015.012.01.019.025.019.043a.05.05 0 0 1-.016.037.075.075 0 0 1-.042.018l.059.068h-.047l-.055-.068h-.017v.068h-.04v-.181h.085zm-.012.243a.149.149 0 0 0 .14-.093.148.148 0 0 0 .011-.059.148.148 0 0 0-.044-.107.148.148 0 0 0-.107-.044.154.154 0 0 0-.109.044.153.153 0 0 0 .049.247.154.154 0 0 0 .06.012zm0-.347a.197.197 0 0 1 .2.195.187.187 0 0 1-.059.137.205.205 0 0 1-.14.058.2.2 0 0 1-.201-.195.187.187 0 0 1 .058-.138.195.195 0 0 1 .142-.057zm-18.371-.697c0-.344.226-.628.597-.628.354 0 .593.271.593.628 0 .358-.239.628-.593.628-.37 0-.597-.283-.597-.628zm1.594 0v-.98h-.428v.237a.748.748 0 0 0-.622-.287c-.552 0-.985.431-.985 1.03 0 .6.433 1.03.985 1.03.28 0 .486-.11.622-.287v.239h.428v-.982zm14.469 0c0-.344.226-.628.597-.628.354 0 .593.271.593.628 0 .358-.239.628-.593.628-.37 0-.597-.283-.597-.628zm1.594 0v-1.769h-.428v1.026a.749.749 0 0 0-.623-.287c-.552 0-.984.431-.984 1.03 0 .6.432 1.03.984 1.03.28 0 .487-.11.623-.287v.239h.428v-.982zm-10.749-.648c.277 0 .454.172.499.476h-1.022c.046-.283.219-.476.523-.476zm.009-.382c-.577 0-.98.419-.98 1.03 0 .624.42 1.03 1.009 1.03a1.2 1.2 0 0 0 .807-.274l-.21-.317a.939.939 0 0 1-.573.206c-.276 0-.527-.128-.589-.48h1.463c.004-.054.008-.107.008-.165-.004-.611-.383-1.03-.935-1.03zm5.17 1.03c0-.344.227-.628.597-.628.355 0 .594.271.594.628 0 .358-.24.628-.594.628-.37 0-.597-.283-.597-.628zm1.594 0v-.98h-.428v.237c-.136-.176-.342-.287-.622-.287-.552 0-.985.431-.985 1.03 0 .6.433 1.03.985 1.03.28 0 .486-.11.622-.287v.239h.428v-.982zm-4.012 0c0 .596.416 1.03 1.05 1.03.297 0 .495-.065.709-.233l-.206-.345a.869.869 0 0 1-.515.176c-.342-.004-.593-.25-.593-.628 0-.377.251-.624.593-.628.185 0 .354.062.515.177l.206-.345c-.214-.168-.412-.234-.709-.234-.634 0-1.05.435-1.05 1.03zm5.52-1.03a.58.58 0 0 0-.519.287v-.238h-.424v1.963h.428v-1.1c0-.325.14-.506.42-.506a.7.7 0 0 1 .268.05l.132-.402a.919.919 0 0 0-.305-.054zm-11.477.205c-.206-.135-.49-.205-.804-.205-.498 0-.82.238-.82.628 0 .32.24.517.68.579l.202.028c.235.033.346.095.346.206 0 .152-.156.238-.449.238a1.05 1.05 0 0 1-.655-.205l-.202.332c.235.172.532.255.853.255.569 0 .898-.267.898-.64 0-.345-.26-.526-.688-.588l-.202-.028c-.185-.025-.334-.062-.334-.193 0-.144.14-.23.376-.23.25 0 .494.094.613.168l.186-.345zm5.524-.205a.581.581 0 0 0-.519.287v-.238h-.424v1.963h.428v-1.1c0-.325.14-.506.42-.506a.7.7 0 0 1 .268.05l.132-.402a.918.918 0 0 0-.305-.054zm-3.654.05h-.7v-.596h-.433v.595h-.4v.39h.4v.895c0 .456.177.727.684.727.185 0 .4-.058.535-.152l-.123-.366a.791.791 0 0 1-.379.111c-.214 0-.284-.131-.284-.328v-.887h.7v-.39zm-6.402 1.962v-1.232c0-.464-.297-.776-.774-.78-.252-.004-.511.074-.693.349a.723.723 0 0 0-.65-.349.653.653 0 0 0-.577.292v-.243h-.429v1.963h.433v-1.088c0-.341.19-.522.482-.522.284 0 .428.185.428.517v1.093h.433v-1.088c0-.341.197-.522.482-.522.292 0 .432.185.432.517v1.093h.433z" fill="#0F2338"/></g></svg>