<svg xmlns="http://www.w3.org/2000/svg" width="36" height="36" version="1" viewBox="0 0 36 36"><path fill="#0B1F35" d="M24.558 34h-17a4.505 4.505 0 0 1-4.5-4.5V10.294L11.292 2h13.266c2.481 0 4.5 2.019 4.5 4.5V12h-1V6.5c0-1.93-1.57-3.5-3.5-3.5h-12.85l-7.65 7.706V29.5c0 1.93 1.57 3.5 3.5 3.5h17c1.93 0 3.5-1.57 3.5-3.5V28h1v1.5c0 2.481-2.019 4.5-4.5 4.5z"/><path fill="#0B1F35" d="M21.016 25c-.872 0-1.654-.238-2.323-.708-.649-.457-.965-1.046-.963-1.798h.978c.023.556.251.989.676 1.288.439.309.989.466 1.633.466.632 0 1.143-.136 1.517-.403.384-.274.578-.652.578-1.124 0-.434-.167-.803-.496-1.095-.324-.288-.876-.522-1.687-.715-.933-.221-1.668-.549-2.187-.976-.514-.423-.764-.939-.764-1.577 0-.663.278-1.224.825-1.67.554-.45 1.284-.678 2.17-.678.954 0 1.722.261 2.282.777.541.498.814 1.08.812 1.73h-.977c-.021-.505-.206-.923-.551-1.243-.366-.339-.894-.511-1.566-.511-.627 0-1.117.145-1.457.432-.346.29-.521.674-.521 1.14 0 .42.189.773.565 1.052.358.266.944.502 1.74.701.927.228 1.639.567 2.117 1.007.471.433.71.976.71 1.614 0 .693-.278 1.235-.85 1.656-.57.421-1.332.635-2.261.635zm9.252 0L27 16h1.107l2.299 6.847.224.796h.15l.058-.074.203-.727L33.339 16h1.101l-3.267 9zm-18.775 0c-.983 0-1.793-.352-2.407-1.047-.616-.698-.93-1.59-.93-2.651v-1.589c0-1.058.313-1.949.93-2.651.614-.698 1.424-1.053 2.407-1.053 1.021 0 1.861.354 2.499 1.051.46.503.758 1.111.887 1.809h-.823a2.77 2.77 0 0 0-.621-1.231c-.483-.539-1.138-.813-1.946-.813-.767 0-1.388.274-1.846.815-.455.536-.686 1.231-.686 2.063v1.588c0 .841.23 1.539.686 2.075.458.54 1.079.815 1.846.815.812 0 1.468-.272 1.949-.81.298-.334.506-.749.618-1.234h.824a3.59 3.59 0 0 1-.888 1.812c-.636.699-1.478 1.051-2.499 1.051z"/></svg>