<svg xmlns="http://www.w3.org/2000/svg" width="16" height="24" viewBox="0 0 16 24"><g fill="none" fill-rule="evenodd" transform="translate(-4 -1)"><path d="M0 0h24v24H0z"/><circle cx="12" cy="9" r="3" fill="#FFF" opacity=".3"/><path fill="#FFF" d="M12.01 24.257L5.325 13.405A7.943 7.943 0 0 1 4 9c0-4.411 3.589-8 8-8s8 3.589 8 8a7.958 7.958 0 0 1-1.334 4.419L12.01 24.257zM12 2C8.14 2 5 5.141 5 9a6.96 6.96 0 0 0 1.167 3.866l5.842 9.482 5.814-9.468A6.97 6.97 0 0 0 19 9c0-3.859-3.14-7-7-7z"/></g></svg>