<svg xmlns="http://www.w3.org/2000/svg" width="11" height="14" viewBox="0 0 11 14"><path fill="#FFF" fill-rule="evenodd" d="M8.971 14c.515 0 1.192-.048 1.535-.133v-.687c-.344.085-1.02.132-1.535.132-2.732 0-5.057-1.374-5.918-3.979H10V8.4H2.801c-.015-.09-.031-.196-.052-.34a7.215 7.215 0 0 1-.071-1.055c0-.162.016-.315.025-.472H10V5.6H2.788c.01-.064.022-.12.042-.18C3.466 2.32 5.982.698 8.971.698c.515 0 1.192.048 1.535.133V.133C10.163.048 9.486 0 8.971 0 5.557 0 2.648 1.857 2.002 5.42c-.014.047-.026.11-.037.18H0v.933h1.885c-.009.155-.025.303-.025.462 0 .368.02.726.061 1.065.013.146.028.251.042.34H0v.933h2.213C3.12 12.388 5.814 14 8.971 14z"/></svg>