<svg xmlns="http://www.w3.org/2000/svg" width="18" height="18" version="1" viewBox="0 0 18 18"><path fill="#0B1F35" d="M6.396 4h9.583c.109-.339.199-.675.251-1H6.059c-.397.288-.77.63-1.126 1a10.503 10.503 0 0 0-1.524 2 13.227 13.227 0 0 0-1.338 3c-.022.074-.05.148-.071.222A10.779 10.779 0 0 0 6.058 15h10.123c-.296-1.86-1.679-3.686-2.984-5-.28-.282-.697-.662-1.072-1H4c.075.359.313.742.435 1h7.312c.621.547 2.331 2.162 3.105 4h-8.46a9.812 9.812 0 0 1-3.037-4c-.107-.259-.229-.512-.312-.779.022-.075.052-.147.076-.221.112-.339.239-.673.38-1h10.16c.268-.308.526-.647.775-1H3.979c.19-.349.398-.681.615-1h10.477c.189-.329.362-.662.516-1H5.359a8.164 8.164 0 0 1 1.037-1z"/></svg>