<svg xmlns="http://www.w3.org/2000/svg" width="36" height="36" viewBox="0 0 36 36"><path fill="none" d="M.25 0h36v36h-36z"/><path fill="none" d="M0 0h36v36H0z"/><path fill="#0B1F35" d="M26.5 18a.5.5 0 0 1-.5-.5v-5a.5.5 0 0 1 1 0v5a.5.5 0 0 1-.5.5z" opacity=".3"/><path fill="#0B1F35" d="M33.5 34h-12a.5.5 0 0 1-.5-.5v-16a.5.5 0 0 1 .5-.5h12a.5.5 0 0 1 .5.5v16a.5.5 0 0 1-.5.5zM22 33h11V18H22v15z"/><path fill="#0B1F35" d="M21.5 34h-19a.5.5 0 0 1-.5-.5V9.76a.5.5 0 0 1 .3-.46l19-8.3a.5.5 0 0 1 .7.46v32a.5.5 0 0 1-.5.54zM3 33h18V2.26L3 10.09V33z"/><path fill="#0B1F35" d="M26 21h3v4h-3zM7 13h3v4H7zm0 7h3v4H7zm6-10h3v4h-3zm16.5 8a.5.5 0 0 1-.5-.5v-2a.5.5 0 0 1 1 0v2a.5.5 0 0 1-.5.5z" opacity=".3"/></svg>