<svg xmlns="http://www.w3.org/2000/svg" width="36" height="36" viewBox="0 0 36 36"><path fill="none" d="M0 0h36v36H0z"/><path fill="#fff" d="M20.86 17.5H18.2A8.49 8.49 0 0 1 3 15.87V16a9 9 0 0 0 12.17 8.41L21.76 31H26v-4.24l-6.23-6.23a9 9 0 0 0 1.09-3.03z" opacity=".3"/><path fill="#fff" d="M11 22a9 9 0 1 1 8.06-13h10.65l4.5 4.5-4.5 4.5H18.47A9 9 0 0 1 11 22zm0-17a8 8 0 1 0 6.78 12.23l.14-.23h11.37l3.5-3.5-3.5-3.5H18.42l-.13-.29A8 8 0 0 0 11 5z"/><circle cx="11" cy="13" r="3" fill="#fff" opacity=".4"/></svg>