<svg width="24" height="24" viewBox="0 0 24 24" xmlns="http://www.w3.org/2000/svg"><g fill="none" fill-rule="evenodd"><path d="M0 0h24v24H0"/><path d="M13.4 24h.283l.145-.242 5.6-9.3c.392-.634.482-1.41.246-2.116l-2.7-8.002L16.86 4H12v1h4.5l-.474-.34 2.7 8c.144.433.086.882-.155 1.283l-5.6 9.3.43-.243H12v1h1.4zM12 23h-1.4l.428.242-5.6-9.3c-.24-.4-.298-.85-.154-1.284l2.7-7.998L7.5 5H12V4H7.14l-.114.34-2.7 8c-.24.72-.142 1.472.245 2.117l5.6 9.3.147.243H12v-1z" fill="#0B1F35" fill-rule="nonzero"/><path d="M13 14.732V23.5h-2v-8.768a2 2 0 1 1 2 0zM6 0h12v2H6" opacity=".3" fill="#0B1F35" fill-rule="nonzero"/></g></svg>