<svg xmlns="http://www.w3.org/2000/svg" width="24" height="24" viewBox="0 0 24 24"><path fill="none" d="M0 0h24v24H0z"/><path fill="#0B1F35" d="M20 22c-1.22 0-1.7-.9-2.17-1.77a5.87 5.87 0 0 0-1-1.45A7.8 7.8 0 0 0 12 17a7.8 7.8 0 0 0-4.85 1.79 5.87 5.87 0 0 0-1 1.45C5.7 21.11 5.22 22 4 22a2.15 2.15 0 0 1-1.55-1A14.41 14.41 0 0 1 .52 9.87C2.26 3.37 6 3.61 7.5 4c.73.2 1.28.36 1.74.5A7.68 7.68 0 0 0 12 5a7.68 7.68 0 0 0 2.76-.48c.45-.14 1-.3 1.74-.5 1.52-.41 5.25-.65 7 5.85A14.41 14.41 0 0 1 21.55 21 2.15 2.15 0 0 1 20 22zm-8-6a8.81 8.81 0 0 1 5.56 2.08 6.75 6.75 0 0 1 1.15 1.68c.45.84.69 1.24 1.29 1.24a1.48 1.48 0 0 0 .76-.65 13.28 13.28 0 0 0 1.76-10.23c-1.08-4-3.13-5.85-5.76-5.14-.76.2-1.27.37-1.76.5A8.66 8.66 0 0 1 12 6a8.66 8.66 0 0 1-3-.52c-.49-.13-1-.3-1.75-.48-2.64-.71-4.69 1.12-5.76 5.14a13.28 13.28 0 0 0 1.75 10.21A1.48 1.48 0 0 0 4 21c.6 0 .84-.4 1.29-1.24a6.75 6.75 0 0 1 1.15-1.68A8.81 8.81 0 0 1 12 16z"/><circle cx="15" cy="11" r="1" fill="#0B1F35" opacity=".3"/><circle cx="17" cy="9" r="1" fill="#0B1F35" opacity=".3"/><circle cx="17" cy="13" r="1" fill="#0B1F35" opacity=".3"/><circle cx="19" cy="11" r="1" fill="#0B1F35" opacity=".3"/><circle cx="7" cy="11" r="2" fill="#0B1F35" opacity=".3"/></svg>