<svg xmlns="http://www.w3.org/2000/svg" width="28" height="42" viewBox="0 0 28 42"><g fill="none" fill-rule="evenodd"><path d="M-10-3h48v48h-48z"/><path fill="#FFF" d="M23.9 42H4.1C1.839 42 0 40.024 0 37.595V4.405C0 1.976 1.839 0 4.1 0h19.8C26.161 0 28 1.976 28 4.405v33.19C28 40.024 26.161 42 23.9 42zM4.1 1C2.391 1 1 2.527 1 4.405v33.19C1 39.473 2.391 41 4.1 41h19.8c1.709 0 3.1-1.527 3.1-3.405V4.405C27 2.527 25.609 1 23.9 1H4.1z"/><path fill="#FFF" d="M7.61 29a.206.206 0 0 0-.204.207v2.586c0 .115.091.207.204.207h12.781a.205.205 0 0 0 .203-.207v-2.586a.205.205 0 0 0-.203-.207H7.61m12.525-5.715l-3.907-10.593c-.368-.995-.809-1.99-2.211-1.99-1.401 0-1.858 1.01-2.212 1.99-.184.505-3.77 10.222-3.904 10.593a.208.208 0 0 0 .12.267c.113.043 2.014.772 2.125.817a.202.202 0 0 0 .26-.121c.037-.099.892-2.506.98-2.747h5.271c.088.241.935 2.644.974 2.747.038.102.156.16.261.121l2.126-.817c.127-.049.147-.186.117-.267zm-7.892-4.184l1.762-5.174h.023l1.769 5.174h-3.554z" opacity=".3"/></g></svg>