<svg xmlns="http://www.w3.org/2000/svg" width="48" height="48" viewBox="0 0 48 48"><g fill="#0B1F35" fill-rule="evenodd"><path fill-rule="nonzero" d="M4 11.002v28.996C4 40.55 4.449 41 4.997 41h38.006c.549 0 .997-.45.997-1.002V11.002c0-.552-.449-1.002-.997-1.002H4.997C4.448 10 4 10.45 4 11.002zm-1 0C3 9.896 3.897 9 4.997 9h38.006C44.106 9 45 9.9 45 11.002v28.996A2.001 2.001 0 0 1 43.003 42H4.997C3.894 42 3 41.1 3 39.998V11.002z"/><path d="M4 28h40v2H4zm7 2h6v2.001a1 1 0 0 1-.99.999h-4.02a.992.992 0 0 1-.99-.999V30zm20 0h6v2.001a1 1 0 0 1-.99.999h-4.02a.992.992 0 0 1-.99-.999V30z" opacity=".3"/><path fill-rule="nonzero" d="M29.443 6.3c-.055-.137-.297-.3-.445-.3h-9.996c-.14 0-.393.17-.445.3L17.477 9h13.046l-1.08-2.7zm-11.814-.37c.205-.513.827-.929 1.373-.929h9.996c.553 0 1.166.41 1.373.929L32 10H16l1.629-4.071z"/></g></svg>