<svg xmlns="http://www.w3.org/2000/svg" width="25" height="26" viewBox="0 0 25 26"><g fill="#FFF" fill-rule="evenodd"><path d="M17 26H4a4.005 4.005 0 0 1-3.998-3.874H0V6.293L6.293 0H17c2.206 0 4 1.794 4 4v5h-1V4c0-1.654-1.346-3-3-3H6.707L1 6.707V22c0 1.654 1.346 3 3 3h13c1.654 0 3-1.346 3-3h1c0 2.206-1.794 4-4 4z"/><path d="M17.034 16.112c0 .834-.279 1.525-.837 2.07-.558.545-1.284.818-2.175.818-.886 0-1.605-.273-2.159-.818-.552-.545-.829-1.235-.829-2.07v-1.224c0-.832.276-1.521.827-2.068.551-.547 1.27-.82 2.156-.82.892 0 1.618.273 2.178.82.559.547.839 1.236.839 2.068v1.224zm-1-1.252c0-.544-.18-.989-.538-1.338-.359-.348-.853-.522-1.481-.522-.628 0-1.117.173-1.462.52-.346.347-.519.793-.519 1.34v1.265c0 .553.175 1.003.526 1.352.35.348.837.523 1.462.523.632 0 1.126-.174 1.48-.523.355-.348.532-.799.532-1.352V14.86zm-12 4.14v-7h2.071c.883 0 1.592.281 2.127.844.535.563.802 1.289.802 2.18v.957c0 .894-.267 1.621-.802 2.18-.535.559-1.244.839-2.127.839H4.034zm1-6v5h1.095c.589 0 1.055-.193 1.395-.58.34-.387.51-.882.51-1.486v-.876c0-.599-.17-1.091-.51-1.478-.341-.387-.806-.58-1.395-.58H5.034zm18.968 3.5c-.064.385-.23.712-.5.977-.355.348-.848.523-1.48.523-.624 0-1.111-.174-1.462-.523-.351-.348-.526-.799-.526-1.352V14.86c0-.547.173-.993.519-1.34.346-.347.834-.52 1.462-.52s1.122.174 1.48.523c.276.268.443.594.507.977H25c-.076-.658-.336-1.222-.805-1.68-.56-.547-1.285-.82-2.178-.82-.885 0-1.604.273-2.156.82-.551.547-.827 1.236-.827 2.068v1.224c0 .834.277 1.525.829 2.07.554.545 1.272.818 2.159.818.891 0 1.617-.273 2.175-.818.468-.457.727-1.022.803-1.682h-.998z"/></g></svg>