<svg width="48px" height="48px" viewBox="0 0 48 48" version="1.1" xmlns="http://www.w3.org/2000/svg"><g stroke="none" stroke-width="1" fill="none" fill-rule="evenodd"><rect x="0" y="0" width="48" height="48"/><circle stroke="#FFFFFF" opacity="0.900000036" cx="24.3333333" cy="24.3333333" r="22.5"/><path d="M24,18 C22.8954305,18 22,17.1045695 22,16 C22,14.8954305 22.8954305,14 24,14 C25.1045695,14 26,14.8954305 26,16 C26,17.1045695 25.1045695,18 24,18 Z M22,22.0058587 C22,20.8980535 22.8877296,20 24,20 C25.1045695,20 26,20.8970601 26,22.0058587 L26,31.9941413 C26,33.1019465 25.1122704,34 24,34 C22.8954305,34 22,33.1029399 22,31.9941413 L22,22.0058587 Z" fill="#FFFFFF" opacity="0.300000012"/></g></svg>