<svg xmlns="http://www.w3.org/2000/svg" width="45" height="44" viewBox="0 0 45 44"><g fill="none" fill-rule="evenodd"><path d="M-2-2h48v48H-2z"/><path fill="#0B1F35" d="M31 30l7-12.1c2.1 1.2 3.9 3 5.1 5.1 1.2 2.1 1.9 4.5 1.9 7H31zM7.6 0h-.2C6.6 0 6 .6 6 1.4v4.1C6 6.4 6.6 7 7.4 7h.1C8.4 7 9 6.4 9 5.6V1.4C9 .6 8.4 0 7.6 0zm16 0h-.1c-.9 0-1.5.6-1.5 1.4v4.1c0 .9.6 1.5 1.4 1.5h.1c.9 0 1.5-.6 1.5-1.4V1.4c0-.8-.6-1.4-1.4-1.4z" opacity=".3"/><path fill="#0B1F35" d="M15 30H3.5C1.6 30 0 28.4 0 26.5v-20C0 4.6 1.6 3 3.5 3H6v1H3.5C2.1 4 1 5.1 1 6.5v20C1 27.9 2.1 29 3.5 29H15v1zm16-16h-1V6.5C30 5.1 28.9 4 27.5 4H25V3h2.5C29.4 3 31 4.6 31 6.5V14zM9 3h13v1H9zm22 41c-7.7 0-14-6.3-14-14s6.3-14 14-14v1c-7.2 0-13 5.8-13 13s5.8 13 13 13c6.1 0 11.5-4.4 12.7-10.4l1 .2C43.4 39.3 37.6 44 31 44z"/><path fill="#0B1F35" d="M34.8 17.6c-1.2-.4-2.5-.6-3.8-.6v-1c1.4 0 2.8.2 4.1.6l-.3 1z"/></g></svg>
