<svg xmlns="http://www.w3.org/2000/svg" width="35" height="30" viewBox="0 0 35 30"><g fill="none" fill-rule="evenodd"><path d="M0-3h36v36H0z"/><path fill="#0B1F35" d="M6.5 13h28v3h-28zm4.5 9h6v3h-6z" opacity=".3"/><path fill="#0B1F35" d="M31.6 8H29V3.5C29 1.6 27.5 0 25.6 0H3.4C1.5 0 0 1.6 0 3.5v15C0 20.4 1.5 22 3.4 22H6v4.5C6 28.4 7.5 30 9.4 30h22.1c1.9 0 3.4-1.6 3.4-3.5v-15C35 9.6 33.5 8 31.6 8zM3.4 21C2.1 21 1 19.9 1 18.5v-15C1 2.1 2.1 1 3.4 1h22.1C26.9 1 28 2.1 28 3.5V8H9.4C7.5 8 6 9.6 6 11.5V21H3.4zM34 26.5c0 1.4-1.1 2.5-2.4 2.5H9.4C8.1 29 7 27.9 7 26.5v-15C7 10.1 8.1 9 9.4 9h22.1c1.3 0 2.4 1.1 2.4 2.5v15h.1z"/></g></svg>
