<svg xmlns="http://www.w3.org/2000/svg" width="25" height="20" viewBox="0 0 25 20"><g fill="none" fill-rule="evenodd"><path d="M0-2h24v24H0z"/><path fill="#0B1F35" d="M20.714 11h1.684a.75.75 0 0 0 .576-1.23l-3.399-4.078a.75.75 0 0 0-1.152 0L15.024 9.77A.75.75 0 0 0 15.6 11h1.684l-3.225 3.762A.751.751 0 0 0 14.631 16h8.739a.75.75 0 0 0 .569-1.238L20.714 11z" opacity=".3"/><path fill="#0B1F35" d="M18 9h2v11h-2zM2.059 11H3v9h13v-1H4v-9H2.059a.488.488 0 0 1-.472-.334.486.486 0 0 1 .16-.556l9.229-7.37 4.375 4.049.679-.734L11.024.422 1.123 8.329a1.482 1.482 0 0 0-.479 1.668A1.482 1.482 0 0 0 2.059 11z"/><path fill="#0B1F35" d="M7 11h3v4H7z" opacity=".3"/></g></svg>