<?xml version="1.0" encoding="UTF-8"?>
<svg width="48px" height="48px" viewBox="0 0 48 48" version="1.1" xmlns="http://www.w3.org/2000/svg" xmlns:xlink="http://www.w3.org/1999/xlink">
    <!-- Generator: Sketch 48.2 (47327) - http://www.bohemiancoding.com/sketch -->
    <title>icon_category-travel_xxl_white</title>
    <desc>Created with Sketch.</desc>
    <defs></defs>
    <g id="mobile" stroke="none" stroke-width="1" fill="none" fill-rule="evenodd" transform="translate(-1159.000000, -894.000000)">
        <g id="Headings" transform="translate(64.000000, 77.000000)">
            <g id="icon_category_tourism__xxl__white" transform="translate(1095.000000, 817.000000)">
                <g id="ungroup">
                    <rect id="Rectangle-path" x="0" y="0" width="48" height="48"></rect>
                    <g id="a1" opacity="0.4"></g>
                    <path d="M19,46.542 C19,47.462 19.746,48 20.667,48 L27.334,48 C28.254,48 29,47.462 29,46.542 L29,43 L19,43 L19,46.542 L19,46.542 Z" id="Shape" fill="#FFFFFF" opacity="0.3"></path>
                    <path d="M28.912,40 L28.912,39.5 C28.912,36.914 30.844,35.163 33.289,32.946 C36.725,29.831 41,25.955 41,18 C41,8.626 33.374,1 24,1 C14.626,1 7,8.626 7,18 C7,25.955 11.275,29.831 14.711,32.946 C17.157,35.163 19.088,36.914 19.088,39.5 L19.088,40 L28.912,40 L28.912,40 Z M15.383,32.205 C11.922,29.067 8,25.512 8,18 C8,9.178 15.178,2 24,2 C32.822,2 40,9.178 40,18 C40,25.512 36.078,29.067 32.617,32.205 C30.234,34.366 28.157,36.249 27.931,39 L20.068,39 C19.843,36.249 17.766,34.366 15.383,32.205 L15.383,32.205 Z" id="Shape" fill="#FFFFFF"></path>
                    <path d="M25.833,39.5 L27.833,39.5 C27.833,35.514 29.212,32.781 30.671,29.89 C32.308,26.646 34,23.293 34,18 C34,11.903 31.357,4.85 27.618,1.91 C26.452,1.649 25.245,1.5 24,1.5 C22.755,1.5 21.548,1.649 20.382,1.91 C16.643,4.85 14,11.903 14,18 C14,23.293 15.692,26.646 17.329,29.89 C18.788,32.782 20.167,35.514 20.167,39.5 L22.167,39.5 C22.167,35.037 20.615,31.962 19.114,28.988 C17.583,25.954 16,22.816 16,18 C16,11.255 19.49,3.926 23,2.699 L23,39.5 L24,39.5 L25,39.5 L25,2.699 C28.51,3.926 32,11.255 32,18 C32,22.816 30.417,25.954 28.886,28.988 C27.385,31.962 25.833,35.037 25.833,39.5 L25.833,39.5 Z" id="Shape" fill="#FFFFFF" opacity="0.3"></path>
                </g>
            </g>
        </g>
    </g>
</svg>