<svg width="18" height="18" viewBox="0 0 18 18" xmlns="http://www.w3.org/2000/svg">
  <g fill="none" fill-rule="evenodd">
    <path d="M0 0h18v18H0z"/>
    <path d="M9.027 13.3c.897.727 2.046 1.164 3.3 1.164 2.862 0 5.182-2.278 5.182-5.09 0-2.81-2.32-5.088-5.183-5.088-1.254 0-2.403.437-3.3 1.165 1.15.934 1.882 2.346 1.882 3.925 0 1.58-.733 2.99-1.883 3.924z" fill="#F79E1B"/>
    <path d="M8.973 5.45c-.897-.727-2.046-1.164-3.3-1.164C2.81 4.286.49 6.564.49 9.376c0 2.81 2.32 5.088 5.183 5.088 1.254 0 2.403-.437 3.3-1.165-1.15-.934-1.882-2.346-1.882-3.925 0-1.58.733-2.99 1.883-3.924z" fill="#EB001B"/>
    <path d="M9 5.43c1.165.932 1.91 2.353 1.91 3.945 0 1.592-.745 3.013-1.91 3.946-1.165-.932-1.91-2.353-1.91-3.945 0-1.592.745-3.013 1.91-3.946z" fill="#FF5F00"/>
  </g>
</svg>
