<?xml version="1.0" encoding="UTF-8"?>
<svg width="24px" height="25px" viewBox="0 0 24 25" version="1.1" xmlns="http://www.w3.org/2000/svg" xmlns:xlink="http://www.w3.org/1999/xlink">
    <!-- Generator: Sketch 48.2 (47327) - http://www.bohemiancoding.com/sketch -->
    <title>icon_card-maestro_m_white</title>
    <desc>Created with Sketch.</desc>
    <defs></defs>
    <g id="card" stroke="none" stroke-width="1" fill="none" fill-rule="evenodd" transform="translate(-106.000000, -35.000000)">
        <g id="icon_card-maestro_m_white" transform="translate(106.000000, 35.040201)">
            <rect id="ph" x="0" y="0" width="24" height="24"></rect>
            <g id="art" transform="translate(0.000000, 4.000000)" fill="#FFFFFF">
                <path d="M12.12,14.28 L11.88,14.28 C13.0384486,14.9284523 14.3424317,15.2725112 15.67,15.28 C17.6406735,15.3201866 19.5465573,14.575672 20.9681719,13.2103219 C22.3897865,11.8449717 23.2106166,9.97068971 23.25,8 C23.1516958,3.90797414 19.7623483,0.666183978 15.67,0.75 C14.3424317,0.757488793 13.0384486,1.10154767 11.88,1.75 L12.12,1.75 C10.9615514,1.10154767 9.65756825,0.757488793 8.33,0.75 C4.23765175,0.666183978 0.848304238,3.90797414 0.75,8 C0.848304238,12.0920259 4.23765175,15.333816 8.33,15.25 C9.65494913,15.2516926 10.9587708,14.9179968 12.12,14.28 Z M11.3,2.52 L11.3,2.09 C10.1603765,2.85542683 9.25932291,3.92629439 8.7,5.18 L8.6,5.42 L8.84,5.52 L9.4,5.75 L9.62,5.84 L9.72,5.62 C10.2310127,4.46941751 11.0781056,3.50031537 12.15,2.84 L11.89,2.84 C12.9514294,3.49809861 13.7909643,4.45955768 14.3,5.6 L14.4,5.82 L14.62,5.73 L15.18,5.5 L15.42,5.4 L15.32,5.16 C14.7613738,3.91152259 13.8641305,2.84453062 12.73,2.08 L12.73,2.51 C13.6631398,2.05097068 14.6900815,1.81477411 15.73,1.82 C19.1992565,1.77518366 22.0580727,4.53142148 22.14,8 C22.0526745,11.4884552 19.1586701,14.2482708 15.67,14.17 C14.6300815,14.1752259 13.6031398,13.9390293 12.67,13.48 L12.67,13.91 C13.8096235,13.1445732 14.7106771,12.0737056 15.27,10.82 L15.37,10.58 L15.13,10.48 L14.57,10.25 L14.35,10.16 L14.25,10.38 C13.7389873,11.5305825 12.8918944,12.4996846 11.82,13.16 L12.08,13.16 C11.0296951,12.4973308 10.2010109,11.5363357 9.7,10.4 L9.6,10.18 L9.38,10.27 L8.82,10.5 L8.58,10.6 L8.68,10.84 C9.23816849,12.0887643 10.1355083,13.1558711 11.27,13.92 L11.27,13.49 C10.3368602,13.9490293 9.30991854,14.1852259 8.27,14.18 C4.80074352,14.2248163 1.94192727,11.4685785 1.86,8 C1.9473255,4.51154484 4.84132994,1.75172918 8.33,1.83 C9.35975069,1.82975271 10.3758255,2.0658105 11.3,2.52 Z" id="Shape" fill-rule="nonzero"></path>
                <path d="M13.5102522,7.66282546 L13.5210141,7.63293131 L13.5389506,7.60423293 L13.5616702,7.57792608 L13.5903686,7.55401077 L13.6250458,7.53129122 L13.6621145,7.51215896 L13.7051621,7.49541824 L13.7517969,7.48106905 L13.8044106,7.46911139 L13.8594159,7.46313256 L13.9359449,7.45715373 L14.0064951,7.45356644 L14.0686749,7.4511749 L14.1260717,7.4511749 L14.1774896,7.45356644 L14.2253202,7.45715373 L14.267172,7.46074103 L14.3078281,7.46552409 L14.3460926,7.47030716 L14.3819655,7.47509022 L14.4166427,7.48106905 L14.45132,7.48704788 L14.4848014,7.49063518 L14.5194786,7.49541824 L14.5577431,7.49900554 L14.5960076,7.50139707 L14.7335207,6.91786334 L14.7119969,6.91547181 L14.6892774,6.91188451 L14.6641663,6.90829722 L14.6378594,6.90351415 L14.6067695,6.89992686 L14.5708965,6.89514379 L14.532632,6.89036073 L14.4883887,6.8843819 L14.4417538,6.88199037 L14.3855528,6.87601154 L14.3245688,6.87242424 L14.2576059,6.86764118 L14.1822726,6.86405388 L14.0997648,6.86405388 L14.0076908,6.86046658 L13.8247387,6.86046658 L13.7470139,6.86405388 L13.6704849,6.86764118 L13.5975432,6.87362001 L13.5293845,6.8807946 L13.4648131,6.89036073 L13.4014376,6.90112262 L13.3404535,6.91308028 L13.2830567,6.92742947 L13.2292473,6.94297443 L13.1778293,6.96091091 L13.1299987,6.9788474 L13.0845596,7.00037119 L13.0403163,7.02189497 L13.000856,7.04581029 L12.9625915,7.0697256 L12.9267185,7.09722822 L12.8932371,7.1259266 L12.8633429,7.15701651 L12.8346446,7.18930219 L12.8083377,7.2239794 L12.7832266,7.25746084 L12.7617028,7.29572535 L12.7413748,7.33279409 L12.7234383,7.37464589 L12.7066976,7.4164977 L12.6935442,7.46074103 L12.6815865,7.50618013 L12.6708246,7.55401077 L12.6624543,7.6018414 L12.6552797,7.65325933 L12.6493008,7.70467726 L12.643322,7.78838087 L12.6457135,7.86849718 L12.6552797,7.94024313 L12.6708246,8.00720602 L12.6935442,8.06699431 L12.719851,8.12199954 L12.7521367,8.17341747 L12.7892054,8.22005234 L12.8286657,8.26190414 L12.8729091,8.30136441 L12.9183482,8.33484586 L12.9685703,8.36593577 L13.0199883,8.39463415 L13.072602,8.42213676 L13.1264114,8.44605208 L13.1802209,8.46757586 L13.2352261,8.48790388 L13.2890356,8.5082319 L13.3416493,8.52736415 L13.3918714,8.54649641 L13.4408978,8.5644329 L13.4887285,8.58476091 L13.5329718,8.60389317 L13.5724321,8.62422119 L13.6095008,8.64574497 L13.6417865,8.66966029 L13.6680933,8.69357561 L13.6896171,8.72227399 L13.7051621,8.75097237 L13.7147282,8.78564957 L13.715924,8.82152255 L13.7099451,8.86337435 L13.6991832,8.90283463 L13.6812468,8.9422949 L13.6609187,8.98175517 L13.6322204,9.02001968 L13.5939559,9.05230536 L13.5461252,9.08100374 L13.4839454,9.10133175 L13.4074164,9.11328941 L13.3249085,9.11687671 L13.2447922,9.11687671 L13.1646759,9.11568094 L13.0869511,9.11209365 L13.0080306,9.10491905 L12.9338931,9.09774446 L12.8609514,9.08817833 L12.7927927,9.0786122 L12.7282214,9.06904608 L12.6672373,9.05708842 L12.6098406,9.04513076 L12.5584226,9.0367604 L12.5141793,9.02599851 L12.4735233,9.01643238 L12.4412376,9.00806202 L12.4149307,9.00208319 L12.2965499,9.56768043 L12.3443806,9.58442115 L12.3898197,9.60116187 L12.4352588,9.61311953 L12.4818936,9.62507719 L12.53092,9.63703485 L12.5811422,9.64660097 L12.6337559,9.6561671 L12.6911527,9.6633417 L12.7521367,9.67051629 L12.8214911,9.67649512 L12.8932371,9.68008242 L12.9757449,9.68366972 L13.0654274,9.68606125 L13.1622844,9.68606125 L13.2699033,9.68845278 L13.3882841,9.68845278 L13.4731835,9.68606125 L13.5616702,9.68127818 L13.6537441,9.67171206 L13.7470139,9.65855863 L13.8402836,9.63823061 L13.9335534,9.610728 L14.0256273,9.57844232 L14.1129182,9.53898205 L14.1966218,9.49115142 L14.2755424,9.43495042 L14.3460926,9.3691833 L14.4106639,9.29385005 L14.4656691,9.20775491 L14.5099125,9.11089788 L14.5445897,9.00327896 L14.5649177,8.88131084 L14.5744838,8.71868669 L14.5649177,8.58236938 L14.5362193,8.4663801 L14.4931718,8.37071883 L14.435775,8.28940675 L14.3664206,8.22244387 L14.2886958,8.17102594 L14.206188,8.12797837 L14.1188971,8.09210539 L14.0268231,8.06101548 L13.9371406,8.03470863 L13.8510455,8.00720602 L13.7697334,7.9797034 L13.6932044,7.94741773 L13.6286331,7.91034898 L13.5724321,7.86251835 L13.5461252,7.82903691 L13.5257972,7.79555546 L13.511448,7.75968249 L13.5042734,7.72620105 L13.5042734,7.69391537 L13.5102522,7.66282546 Z M15.5000066,8.92794571 L15.753509,7.49302671 L16.2365983,7.50139707 L16.3442173,6.92503794 L15.8718898,6.92503794 L15.9902706,6.29486934 L15.2237847,6.29486934 L14.7143884,9.11448518 L14.7048223,9.17905653 L14.6988435,9.23884483 L14.696452,9.29624159 L14.6988435,9.34765952 L14.7060181,9.39907745 L14.7203673,9.44332078 L14.7406953,9.48397682 L14.7693937,9.52343709 L14.8052666,9.55691854 L14.84951,9.58681268 L14.9033194,9.6143153 L14.9654993,9.63583908 L15.0408325,9.6561671 L15.1257319,9.67051629 L15.2237847,9.68127818 L15.3325994,9.68845278 L15.5382711,9.68845278 L15.5837102,9.68366972 L15.6279535,9.67769089 L15.666218,9.67171206 L15.702091,9.66692899 L15.7367682,9.66214593 L15.7690539,9.6561671 L15.7977523,9.65018827 L15.8240591,9.64420944 L15.8515617,9.63583908 L15.8742813,9.62866449 L15.8970009,9.62268566 L15.9185246,9.6143153 L15.9388527,9.60474917 L15.9603764,9.59637881 L15.9807045,9.58681268 L15.9998367,9.57724656 L16.0787573,9.08459103 L16.0727784,9.08698256 L16.0572335,9.09415716 L16.0321224,9.10252752 L15.9998367,9.11209365 L15.9579849,9.12046401 L15.9089585,9.12883437 L15.855149,9.13242167 L15.7618793,9.13242167 L15.7295936,9.13003013 L15.6985037,9.12883437 L15.6686096,9.12285554 L15.641107,9.11807248 L15.6148001,9.11209365 L15.5920806,9.10252752 L15.569361,9.09296139 L15.5502288,9.08100374 L15.5322923,9.06665455 L15.5191388,9.04871806 L15.508377,9.03078157 L15.5000066,9.00925779 L15.4964193,8.98534247 L15.4964193,8.95903562 L15.5000066,8.92794571 Z M9.7985951,7.6544551 L9.79739934,7.5564023 L9.77946285,7.46552409 L9.7495687,7.38062472 L9.70652113,7.30289994 L9.65390744,7.23234976 L9.59053185,7.16897417 L9.51998166,7.11157741 L9.44345265,7.06135524 L9.36333634,7.01830767 L9.2772412,6.98004317 L9.19234182,6.94895325 L9.10624668,6.92503794 L9.02015154,6.90590568 L8.9376437,6.89394803 L8.85991892,6.8879692 L8.76425766,6.88557767 L8.33378196,6.88557767 L8.25486141,6.89036073 L8.1783324,6.89394803 L8.10419492,6.90112262 L8.0312532,6.90949298 L7.96309455,6.92145064 L7.89613166,6.9334083 L7.83156031,6.94895325 L7.77057625,6.96928127 L7.70959219,6.99319659 L7.65219543,7.01711191 L7.45608983,7.63053978 L7.48478821,7.61379906 L7.52544425,7.59944987 L7.57566642,7.58510068 L7.63306318,7.57194725 L7.70002606,7.5564023 L7.77057625,7.54444464 L7.84830103,7.53248698 L7.93080887,7.52052932 L8.01690401,7.51215896 L8.10419492,7.50259284 L8.19148582,7.49541824 L8.27997249,7.49063518 L8.3672634,7.48465635 L8.45335854,7.48226482 L8.53586638,7.48106905 L8.61359116,7.48346058 L8.64587684,7.48704788 L8.67816252,7.49183094 L8.71044819,7.49900554 L8.7415381,7.50857166 L8.77023648,7.52052932 L8.79893486,7.53487851 L8.82404595,7.55042347 L8.84915703,7.56835996 L8.87187658,7.58988374 L8.89100883,7.61140753 L8.91014109,7.63532284 L8.92568604,7.65923816 L8.9376437,7.68674077 L8.94720983,7.71543915 L8.95318866,7.74652907 L8.95677595,7.77881474 L8.95677595,7.82425384 L8.94720983,7.87447601 L8.9340564,7.91752358 L8.92807757,7.93546007 L8.90655379,7.93546007 L8.8922046,7.9342643 L8.87307235,7.9342643 L8.85274433,7.93187277 L8.82763324,7.93187277 L8.8013264,7.92948124 L8.73914657,7.92948124 L8.70925243,7.92828547 L8.67696675,7.92828547 L8.64228954,7.92589394 L8.5143426,7.92589394 L8.47846962,7.92828547 L8.43781358,7.92828547 L8.39596178,7.9342643 L8.35052268,7.9378516 L8.30269204,7.94024313 L8.25725294,7.94622196 L8.21061807,7.94980926 L8.16517897,7.95339655 L8.12332717,7.95937538 L8.08506266,7.96176692 L8.05277698,7.96535421 L8.0240786,7.96894151 L8.00375059,7.97133304 L7.9894014,7.97372457 L7.9858141,7.97372457 L7.89254436,7.98926953 L7.80047039,8.01079331 L7.71078796,8.04068746 L7.62349705,8.07656044 L7.53979344,8.11841224 L7.45967713,8.16624287 L7.38434388,8.21885657 L7.3137937,8.2774491 L7.25161388,8.34441198 L7.19182558,8.41615793 L7.14279919,8.49029541 L7.09855585,8.57041172 L7.06268287,8.65770263 L7.03757179,8.7497766 L7.02083107,8.84543787 L7.01246071,8.9458822 L7.01485224,9.00088742 L7.01843954,9.05828418 L7.02561413,9.11807248 L7.03757179,9.176665 L7.05431251,9.23645329 L7.0758363,9.29385005 L7.10214315,9.34885528 L7.13442882,9.40266474 L7.17269333,9.45766997 L7.21813243,9.50550061 L7.26955036,9.55333124 L7.33053442,9.59518304 L7.39869307,9.63344755 L7.47641785,9.66692899 L7.56251299,9.69682314 L7.65937003,9.71834692 L7.73350751,9.73030458 L7.81003652,9.73508765 L7.8877613,9.73269611 L7.96787761,9.72671729 L8.04799392,9.71595539 L8.12811023,9.7016062 L8.20822654,9.68127818 L8.28595132,9.65736287 L8.3600888,9.62986025 L8.43303052,9.60116187 L8.50118917,9.56768043 L8.56456476,9.53419899 L8.62315729,9.49832601 L8.67457522,9.4600615 L8.72001432,9.42060123 L8.75588729,9.38114096 L8.7487127,9.39309862 L8.7415381,9.4146224 L8.73555928,9.44690808 L8.72838468,9.48517259 L8.72121009,9.53061169 L8.71403549,9.57844232 L8.7068609,9.63344755 L8.6996863,9.68725701 L9.38844742,9.68725701 L9.49965364,9.11328941 L9.78424591,7.76207402 L9.7985951,7.6544551 Z M8.83361207,8.46996739 L8.82524171,8.5082319 L8.81806712,8.54769217 L8.81089252,8.59073974 L8.8013264,8.63617885 L8.79176027,8.67922642 L8.78219414,8.72107822 L8.77262802,8.76053849 L8.76306189,8.78804111 L8.75110423,8.81673949 L8.73555928,8.84543787 L8.71642702,8.87533201 L8.69370747,8.90642192 L8.66740062,8.9351203 L8.63631071,8.96621022 L8.60043774,8.99371283 L8.56097746,9.02001968 L8.5143426,9.04513076 L8.46292467,9.06665455 L8.40552791,9.08459103 L8.34334808,9.10133175 L8.27160213,9.11328941 L8.19746465,9.12046401 L8.11376104,9.12285554 L8.06832194,9.12046401 L8.02049131,9.11209365 L7.97624797,9.09415716 L7.93439617,9.06665455 L7.89971896,9.02719427 L7.87699941,8.97338481 L7.86384598,8.90522616 L7.86743328,8.81673949 L7.87699941,8.77369192 L7.89254436,8.73184011 L7.91167662,8.69357561 L7.93798346,8.66009416 L7.96668184,8.62780848 L7.99896752,8.59791434 L8.03364473,8.57041172 L8.06951771,8.54649641 L8.10539068,8.52616839 L8.14126366,8.50584037 L8.17713663,8.48909965 L8.20942231,8.47714199 L8.24051222,8.46518433 L8.2692106,8.4556182 L8.29193015,8.44844361 L8.30867087,8.44605208 L8.33976078,8.43648595 L8.37563376,8.42691982 L8.4162898,8.420941 L8.4581416,8.4137664 L8.50238494,8.40659181 L8.54662827,8.40180874 L8.59087161,8.39463415 L8.63511495,8.39104685 L8.71762279,8.39104685 L8.7523,8.39343838 L8.78458567,8.39702568 L8.80969676,8.40300451 L8.82882901,8.41137487 L8.84078667,8.42333253 L8.8431782,8.43768172 L8.83361207,8.46996739 Z M5.9314884,6.29486934 L5.04781745,8.3157136 L4.9198705,6.29486934 L3.62246457,6.29486934 L2.99468751,9.68845278 L3.74084539,9.68845278 L4.21197713,7.14745038 L4.24187127,7.14745038 L4.25024164,7.27181003 L4.26698236,7.56835996 L4.29209344,7.97731187 L4.32079182,8.44007325 L4.3494902,8.89924733 L4.37340552,9.29982888 L4.391342,9.58322539 L4.3985166,9.68845278 L5.23435692,9.68845278 L6.34522338,7.14745038 L6.37392176,7.14745038 L5.90279002,9.68845278 L6.6489479,9.68845278 L7.27792072,6.29486934 L5.9314884,6.29486934 Z M18.0147021,7.61260329 L18.0266598,7.61379906 L18.0422048,7.61619059 L18.0577497,7.61619059 L18.0709031,7.61738636 L18.081665,7.61977789 L18.0900354,7.62097365 L18.0936227,7.62097365 L18.0948185,7.61140753 L18.1031888,7.58031761 L18.1127549,7.53248698 L18.1282999,7.47389446 L18.1474321,7.40812733 L18.1677602,7.33638138 L18.1928712,7.26343967 L18.2215696,7.19408525 L18.2418976,7.14505885 L18.2670087,7.09483669 L18.2921198,7.04700605 L18.3184267,7.00156695 L18.3411462,6.96330244 L18.3602785,6.9334083 L18.3734319,6.91308028 L18.378215,6.90590568 L18.3734319,6.90590568 L18.3638658,6.90231839 L18.3507123,6.90112262 L18.3315801,6.89753532 L18.3124478,6.89394803 L18.2897283,6.89155649 L18.2694003,6.8879692 L18.250268,6.8879692 L18.1653686,6.89394803 L18.0900354,6.90231839 L18.0194852,6.91786334 L17.9537181,6.9334083 L17.892734,6.95493208 L17.8377288,6.9788474 L17.7839193,7.00635001 L17.7360887,7.03743993 L17.6882581,7.0733129 L17.6452105,7.10918588 L17.6045545,7.14864615 L17.5627027,7.19288948 L17.5232424,7.23832859 L17.4849779,7.28615922 L17.4443218,7.33638138 L17.4048616,7.39019085 L17.494544,6.92503794 L16.7172962,6.91786334 L16.2067042,9.68845278 L16.9827562,9.68845278 L17.2482162,8.22244387 L17.2589781,8.16504711 L17.2733273,8.11004188 L17.2876765,8.05384088 L17.3068088,8.00122719 L17.3283326,7.94980926 L17.3546394,7.90197862 L17.3869251,7.85414799 L17.4239938,7.80870889 L17.4670414,7.76924862 L17.5172636,7.73337564 L17.5758561,7.70108996 L17.6416232,7.67239158 L17.7169564,7.64847627 L17.8030516,7.63053978 L17.8987129,7.61977789 L18.005136,7.61260329 L18.0147021,7.61260329 Z M19.4842983,6.89036073 L19.4017905,6.89394803 L19.3216742,6.90231839 L19.2439494,6.91188451 L19.1674204,6.9262337 L19.0932829,6.94297443 L19.0203412,6.96210668 L18.949791,6.98363046 L18.8828281,7.00754578 L18.8158652,7.03504839 L18.7512939,7.06733407 L18.6879183,7.10081552 L18.6293258,7.13668849 L18.571929,7.17614876 L18.5169238,7.21800057 L18.4631143,7.26343967 L18.4140879,7.3112703 L18.3662573,7.35910094 L18.3208182,7.41410616 L18.2789664,7.46911139 L18.2383104,7.52889968 L18.2000458,7.58868798 L18.1653686,7.6508678 L18.1342787,7.71663492 L18.1067761,7.78598934 L18.081665,7.85653952 L18.0589455,7.92828547 L18.0398132,8.00481449 L18.0230725,8.08253926 L18.0099191,8.16385134 L18.000353,8.24755495 L17.9943741,8.33365009 L17.9919826,8.4173537 L17.9943741,8.50105731 L18.000353,8.57997785 L18.0099191,8.65770263 L18.0230725,8.73064435 L18.0398132,8.8023903 L18.061337,8.87413625 L18.0840566,8.93990337 L18.1103634,9.00327896 L18.1390618,9.06426301 L18.173739,9.12405131 L18.2084162,9.17905653 L18.2490722,9.23406176 L18.2897283,9.28428393 L18.3351674,9.33211456 L18.3806065,9.37874943 L18.4308287,9.421797 L18.4846381,9.46125727 L18.5384476,9.49952178 L18.5958443,9.53300322 L18.6544369,9.5652889 L18.7154209,9.59398728 L18.7787965,9.62148989 L18.8457594,9.64540521 L18.9127223,9.66692899 L18.9808809,9.68486548 L19.0538226,9.69921467 L19.1267644,9.71117233 L19.2009018,9.72312999 L19.2750393,9.72910882 L19.3527641,9.73269611 L19.4304889,9.73508765 L19.5082137,9.73269611 L19.5859384,9.72910882 L19.6624675,9.72312999 L19.7389965,9.71356386 L19.8119382,9.7016062 L19.8848799,9.68606125 L19.9578216,9.66812476 L20.0259803,9.64660097 L20.0941389,9.62268566 L20.1587103,9.59637881 L20.2232816,9.56648466 L20.2866572,9.53419899 L20.3452497,9.50071754 L20.4038423,9.46245304 L20.4588475,9.42060123 L20.512657,9.37755366 L20.5640749,9.32972303 L20.6142971,9.2818924 L20.6621277,9.2292787 L20.706371,9.17427347 L20.7470271,9.11687671 L20.7864873,9.05589265 L20.8211646,8.9913213 L20.8558418,8.92435841 L20.8845401,8.85380823 L20.910847,8.78206228 L20.9359581,8.70553326 L20.9550903,8.62661272 L20.971831,8.54290911 L20.9849845,8.4592055 L20.9969421,8.37071883 L21.002921,8.27984063 L21.0053125,8.20331161 L21.002921,8.12797837 L20.9993337,8.05503665 L20.9921591,7.98448647 L20.9802014,7.91513205 L20.9646565,7.84577763 L20.9479157,7.77881474 L20.9263919,7.71543915 L20.9024766,7.6508678 L20.8737782,7.59107951 L20.8450799,7.53129122 L20.8104027,7.47509022 L20.7745297,7.42128076 L20.7362652,7.36986283 L20.6944134,7.31964066 L20.6489743,7.27181003 L20.6011436,7.22637093 L20.5509215,7.18691066 L20.497112,7.14745038 L20.440911,7.10918588 L20.3835143,7.07570443 L20.3201387,7.04461452 L20.2567631,7.01591614 L20.1898002,6.98841353 L20.11925,6.96449821 L20.0486998,6.94417019 L19.9745623,6.92742947 L19.8980333,6.91308028 L19.817917,6.90112262 L19.7354092,6.89514379 L19.6517056,6.88916496 L19.5656104,6.88677343 L19.4842983,6.89036073 Z M19.6983404,7.50139707 L19.7557372,7.5109632 L19.8095467,7.52531239 L19.8585731,7.5492277 L19.9028164,7.57792608 L19.9434724,7.61379906 L19.9781496,7.6544551 L20.0092396,7.6998942 L20.0343506,7.75250789 L20.0558744,7.80751312 L20.0714194,7.86730141 L20.0809855,7.93187277 L20.0869643,8.00003142 L20.0869643,8.07177737 L20.0809855,8.14591485 L20.0714194,8.22363963 L20.0546787,8.32408396 L20.0355464,8.41496217 L20.0104353,8.49866577 L19.9781496,8.57639055 L19.9470597,8.64694074 L19.9111868,8.71151209 L19.8729222,8.76890885 L19.8322662,8.81913102 L19.7868271,8.86457012 L19.7389965,8.90283463 L19.6875785,8.9351203 L19.6349648,8.96023139 L19.5775681,8.98055941 L19.5189756,8.99251706 L19.4556,8.99969166 L19.3910286,9.00208319 L19.3324361,8.99849589 L19.2774309,8.99251706 L19.2236214,8.97697211 L19.1757908,8.95664409 L19.1315474,8.93272877 L19.0920872,8.89924733 L19.0562142,8.86098282 L19.0239285,8.81554372 L18.9976217,8.76412579 L18.9760979,8.70672903 L18.9581614,8.64335344 L18.9462037,8.57160749 L18.9402249,8.49149118 L18.9402249,8.40778757 L18.9462037,8.31332207 L18.9581614,8.21287774 L18.970119,8.15308945 L18.9832725,8.09210539 L19.0024047,8.03112133 L19.0251243,7.97013728 L19.0502354,7.90915322 L19.0813253,7.85175646 L19.1160025,7.7943597 L19.1566585,7.73935447 L19.1985103,7.68913231 L19.2463409,7.6436932 L19.3001504,7.60423293 L19.3575472,7.56835996 L19.4209228,7.54085734 L19.4878856,7.51933356 L19.5608274,7.5073759 L19.6385521,7.50139707 L19.6983404,7.50139707 Z M12.4077561,7.74413753 L12.39819,7.66521699 L12.3826451,7.58988374 L12.3647086,7.51813779 L12.341989,7.4511749 L12.3156822,7.39138661 L12.2845923,7.33279409 L12.2523066,7.28137616 L12.2164336,7.22995823 L12.1757776,7.18571489 L12.1339258,7.14505885 L12.0884867,7.10559858 L12.0430476,7.0697256 L11.9928254,7.03983146 L11.943799,7.00993731 L11.8923811,6.986022 L11.8385716,6.96330244 L11.7835664,6.94297443 L11.7273654,6.92742947 L11.6723602,6.91308028 L11.6173549,6.90112262 L11.5599582,6.88916496 L11.5049529,6.88199037 L11.448752,6.8772073 L11.3937467,6.87362001 L11.3399373,6.87003271 L11.2873236,6.87003271 L11.17253,6.87362001 L11.0661069,6.8807946 L10.9620753,6.89275226 L10.8652182,6.91188451 L10.77434,6.9334083 L10.6882449,6.96091091 L10.605737,6.99080506 L10.529208,7.02309074 L10.4574621,7.06135524 L10.3904992,7.10081552 L10.3271236,7.14505885 L10.2697268,7.19049795 L10.2147216,7.23832859 L10.1644994,7.28855075 L10.1190603,7.34116445 L10.0760128,7.39138661 L10.0377483,7.44639184 L10.0018753,7.50139707 L9.96839385,7.55759806 L9.9384997,7.61260329 L9.91099709,7.67000005 L9.88708177,7.72500528 L9.86555799,7.77881474 L9.84642573,7.83501574 L9.83088078,7.8888252 L9.81533582,7.94024313 L9.8021824,7.99166106 L9.79261627,8.03949169 L9.78305015,8.08732233 L9.77587555,8.1303699 L9.76989672,8.17341747 L9.76391789,8.21168197 L9.75435177,8.3193009 L9.75076447,8.42452829 L9.75076447,8.52018956 L9.75793906,8.61585083 L9.76989672,8.70553326 L9.78663744,8.78804111 L9.80816123,8.86696165 L9.83446808,8.94349066 L9.86555799,9.01404085 L9.9002352,9.07980797 L9.9384997,9.14079203 L9.98035151,9.20058032 L10.0245948,9.25558555 L10.074817,9.30580771 L10.1262349,9.35363835 L10.1800444,9.39668592 L10.2374412,9.43614619 L10.2948379,9.47201916 L10.355822,9.50430484 L10.4191976,9.53539475 L10.4837689,9.56289737 L10.5483403,9.58681268 L10.6153032,9.60594494 L10.6822661,9.62627296 L10.7504247,9.64181791 L10.8185834,9.6561671 L10.886742,9.66812476 L10.9572922,9.67649512 L11.0254508,9.68366972 L11.0924137,9.68606125 L11.1605724,9.68964854 L11.3196092,9.68964854 L11.4033128,9.68725701 L11.4798419,9.68725701 L11.5480005,9.68247395 L11.6113761,9.68008242 L11.6699686,9.67410359 L11.7237781,9.66812476 L11.7740003,9.6633417 L11.8218309,9.65377557 L11.8660742,9.64540521 L11.907926,9.63344755 L11.9497778,9.61909836 L11.9916296,9.6035534 L12.0322857,9.58800845 L12.076529,9.56768043 L12.1207723,9.54615664 L12.2379574,8.90881346 L12.1566453,8.95305679 L12.0789205,8.99251706 L11.9988042,9.02599851 L11.9222752,9.05230536 L11.8457462,9.07622067 L11.770413,9.09415716 L11.6938839,9.10611482 L11.6197465,9.11807248 L11.5468047,9.12285554 L11.4726673,9.12644284 L11.4021171,9.12644284 L11.3291754,9.12524707 L11.2586252,9.12165977 L11.188075,9.11568094 L11.1187206,9.10611482 L11.0505619,9.09774446 L10.9931652,9.0857868 L10.9357684,9.06665455 L10.8831547,9.04273923 L10.830541,9.01404085 L10.7827104,8.97936364 L10.7396628,8.94349066 L10.697811,8.90163886 L10.661938,8.85859129 L10.6296524,8.81315219 L10.6021497,8.76771309 L10.5794302,8.71988245 L10.5638852,8.67085605 L10.5519276,8.62302542 L10.5483403,8.57519479 L10.5507318,8.52975569 L10.5579064,8.49388271 L12.3252483,8.49388271 L12.3563382,8.33365009 L12.3790578,8.22244387 L12.3957985,8.11482494 L12.4053646,8.01557638 L12.4113434,7.91991511 L12.4113434,7.82903691 L12.4077561,7.7453333 L12.4077561,7.74413753 Z M11.6556194,7.92350241 L11.6496406,7.99166106 L10.657155,7.99166106 L10.6667211,7.94383043 L10.6798745,7.8888252 L10.6954195,7.83501574 L10.7145517,7.78359781 L10.7372713,7.73696294 L10.7635781,7.6927196 L10.7934723,7.6508678 L10.8245622,7.61260329 L10.8592394,7.57673032 L10.8951124,7.54683617 L10.9345726,7.51813779 L10.9764244,7.49422247 L11.0206678,7.47389446 L11.0661069,7.46074103 L11.116329,7.4511749 L11.1653554,7.44519608 L11.2191649,7.44519608 L11.2681913,7.44758761 L11.3160219,7.45237067 L11.361461,7.46432833 L11.4057044,7.47867752 L11.4463604,7.49661401 L11.4846249,7.51813779 L11.5204979,7.54564041 L11.5527836,7.57792608 L11.581482,7.61379906 L11.606593,7.6544551 L11.6257253,7.69869843 L11.6400745,7.74652907 L11.6520321,7.80033853 L11.6556194,7.86012682 L11.6556194,7.92230664 L11.6556194,7.92350241 Z" id="Shape"></path>
            </g>
        </g>
    </g>
</svg>