<?xml version="1.0" encoding="UTF-8"?>
<svg width="24px" height="25px" viewBox="0 0 24 25" version="1.1" xmlns="http://www.w3.org/2000/svg" xmlns:xlink="http://www.w3.org/1999/xlink">
    <!-- Generator: Sketch 48.2 (47327) - http://www.bohemiancoding.com/sketch -->
    <title>icon_card-maestro_m_black</title>
    <desc>Created with Sketch.</desc>
    <defs></defs>
    <g id="card" stroke="none" stroke-width="1" fill="none" fill-rule="evenodd" transform="translate(-106.000000, -35.000000)">
        <g id="icon_card-maestro_m_white" transform="translate(107.000000, 39.040201)" fill="#0B1F35">
            <g id="art">
                <path d="M11.1246865,13.942114 L10.8906794,13.942114 C12.0202013,14.5743743 13.2916238,14.909842 14.5860424,14.9171438 C16.5075079,14.9563269 18.3658015,14.230403 19.7519181,12.8991459 C21.1380347,11.5678887 21.9383686,9.74040788 21.9767686,7.81892661 C21.880919,3.82907932 18.5762041,0.668237192 14.5860424,0.749960315 C13.2916238,0.757262111 12.0202013,1.09272979 10.8906794,1.72499015 L11.1246865,1.72499015 C9.99516459,1.09272979 8.7237421,0.757262111 7.42932345,0.749960315 C3.43916181,0.668237192 0.134446869,3.82907932 0.0385973047,7.81892661 C0.134446869,11.8087739 3.43916181,14.969616 7.42932345,14.8878929 C8.72118838,14.8895432 9.99245344,14.5641799 11.1246865,13.942114 Z M10.3251621,2.47576312 L10.3251621,2.05650029 C9.21399517,2.80281428 8.33544102,3.84694211 7.79008449,5.06934248 L7.6925815,5.30334964 L7.92658866,5.40085262 L8.47260537,5.62510949 L8.68711194,5.71286217 L8.78461492,5.49835561 C9.28286755,4.37650336 10.1088084,3.43159986 11.1539374,2.78777267 L10.9004297,2.78777267 C11.935355,3.42943845 12.7539265,4.36688972 13.2502516,5.47885501 L13.3477545,5.69336157 L13.5622611,5.60560889 L14.1082778,5.38135203 L14.342285,5.28384904 L14.244782,5.04984188 C13.7001048,3.83253916 12.8252658,2.79219015 11.7194547,2.04674999 L11.7194547,2.46601282 C12.6292939,2.01844554 13.6305926,1.78814684 14.6445442,1.79324224 C18.0271728,1.74954497 20.8146039,4.43695907 20.8944855,7.81892661 C20.8093405,11.2202745 17.9875998,13.9111771 14.5860424,13.8348607 C13.5720908,13.8399561 12.5707921,13.6096574 11.6609529,13.1620901 L11.6609529,13.5813529 C12.7721198,12.8350389 13.650674,11.7909111 14.1960305,10.5685107 L14.2935335,10.3345036 L14.0595263,10.2370006 L13.5135096,10.0127437 L13.2990031,9.92499106 L13.2015001,10.1394976 C12.7032474,11.2613499 11.8773066,12.2062534 10.8321776,12.8500806 L11.0856853,12.8500806 C10.0616067,12.2039583 9.25361494,11.2669594 8.76511432,10.1589982 L8.66761134,9.94449165 L8.45310478,10.0322443 L7.90708807,10.2565012 L7.67308091,10.3540042 L7.77058389,10.5880113 C8.31481483,11.8055938 9.18974792,12.8460548 10.2959112,13.5911032 L10.2959112,13.1718404 C9.38607197,13.6194077 8.38477326,13.8497064 7.37082166,13.844611 C3.98819308,13.8883083 1.20076195,11.2008942 1.12088042,7.81892661 C1.20602539,4.41757876 4.02776605,1.72667615 7.42932345,1.80299254 C8.43336109,1.80275142 9.42406438,2.03291481 10.3251621,2.47576312 Z" id="Shape" fill-rule="nonzero"></path>
                <path d="M12.4802239,7.49017137 L12.4907171,7.46102369 L12.5082057,7.43304191 L12.530358,7.40739195 L12.5583397,7.3840738 L12.592151,7.36192157 L12.6282942,7.34326705 L12.6702668,7.32694434 L12.7157372,7.31295346 L12.7670372,7.30129438 L12.8206689,7.29546485 L12.895287,7.28963531 L12.9640755,7.28613759 L13.0247027,7.28380577 L13.0806662,7.28380577 L13.1308002,7.28613759 L13.1774365,7.28963531 L13.2182433,7.29313303 L13.2578842,7.29779666 L13.2951932,7.30246029 L13.3301704,7.30712392 L13.3639817,7.31295346 L13.397793,7.31878299 L13.4304384,7.32228071 L13.4642498,7.32694434 L13.5015588,7.33044207 L13.5388678,7.33277388 L13.6729472,6.76381109 L13.6519608,6.76147927 L13.6298086,6.75798155 L13.6053245,6.75448383 L13.5796746,6.7498202 L13.549361,6.74632248 L13.5143838,6.74165885 L13.4770747,6.73699522 L13.4339362,6.73116568 L13.3884658,6.72883387 L13.3336681,6.72300433 L13.2742069,6.71950661 L13.208916,6.71484298 L13.1354639,6.71134526 L13.0550163,6.71134526 L12.9652414,6.70784753 L12.7868576,6.70784753 L12.7110736,6.71134526 L12.6364555,6.71484298 L12.5653352,6.72067252 L12.4988785,6.72766796 L12.4359195,6.73699522 L12.3741264,6.74748839 L12.3146651,6.75914746 L12.2587015,6.77313835 L12.2062357,6.78829514 L12.1561017,6.80578375 L12.1094654,6.82327236 L12.0651609,6.8442587 L12.0220223,6.86524503 L11.9835474,6.88856318 L11.9462384,6.91188132 L11.9112611,6.93869719 L11.8786157,6.96667897 L11.8494681,6.99699256 L11.8214863,7.02847206 L11.7958363,7.06228337 L11.7713523,7.09492878 L11.7503659,7.13223781 L11.7305455,7.16838094 L11.7130569,7.2091877 L11.6967342,7.24999446 L11.6839092,7.29313303 L11.6722501,7.33743751 L11.661757,7.3840738 L11.6535956,7.4307101 L11.6466002,7.48084412 L11.6407706,7.53097813 L11.6349411,7.61259165 L11.6372729,7.69070744 L11.6466002,7.76066188 L11.661757,7.8259527 L11.6839092,7.88424806 L11.7095592,7.9378798 L11.7410387,7.98801382 L11.7771818,8.03348421 L11.8156567,8.07429096 L11.8587953,8.11276591 L11.9030998,8.14541131 L11.9520679,8.1757249 L12.0022019,8.20370668 L12.0535018,8.23052255 L12.1059677,8.2538407 L12.1584335,8.27482703 L12.2120652,8.29464745 L12.2645311,8.31446788 L12.315831,8.3331224 L12.3647991,8.35177692 L12.4126013,8.36926553 L12.4592376,8.38908595 L12.5023762,8.40774047 L12.5408511,8.42756089 L12.5769943,8.44854723 L12.6084737,8.47186537 L12.6341237,8.49518352 L12.65511,8.5231653 L12.6702668,8.55114707 L12.6795941,8.58495839 L12.68076,8.61993561 L12.6749305,8.66074237 L12.6644373,8.69921731 L12.6469487,8.73769225 L12.6271283,8.7761672 L12.5991465,8.81347623 L12.5618375,8.84495573 L12.5152012,8.87293751 L12.454574,8.89275793 L12.3799559,8.90441701 L12.2995083,8.90791473 L12.2213925,8.90791473 L12.1432767,8.90674882 L12.0674927,8.9032511 L11.9905428,8.89625565 L11.9182566,8.88926021 L11.8471362,8.87993295 L11.7806795,8.87060569 L11.7177205,8.86127843 L11.6582592,8.84961936 L11.6022957,8.83796029 L11.5521617,8.82979893 L11.5090231,8.81930577 L11.4693823,8.80997851 L11.4379028,8.80181716 L11.4122528,8.79598762 L11.296828,9.3474618 L11.3434643,9.36378451 L11.3877687,9.38010721 L11.4320732,9.39176628 L11.4775436,9.40342536 L11.5253458,9.41508443 L11.5743139,9.42441169 L11.6256138,9.43373895 L11.6815774,9.44073439 L11.7410387,9.44772984 L11.8086613,9.45355937 L11.8786157,9.45705709 L11.9590633,9.46055482 L12.0465064,9.46288663 L12.1409449,9.46288663 L12.2458766,9.46521845 L12.3613014,9.46521845 L12.4440808,9.46288663 L12.530358,9.458223 L12.6201328,9.44889574 L12.7110736,9.43607076 L12.8020144,9.41625034 L12.8929551,9.38943447 L12.98273,9.35795497 L13.0678412,9.31948003 L13.1494548,9.27284373 L13.2264047,9.21804609 L13.2951932,9.15392118 L13.3581522,9.08046902 L13.4117839,8.99652369 L13.4549225,8.90208519 L13.4887338,8.79715353 L13.5085542,8.67823098 L13.5178815,8.51966758 L13.5085542,8.38675414 L13.4805725,8.27366112 L13.4385998,8.18038853 L13.3826362,8.10110683 L13.3150136,8.03581602 L13.2392296,7.985682 L13.158782,7.94370934 L13.0736708,7.90873212 L12.9838959,7.87841853 L12.8964529,7.85276856 L12.8125075,7.8259527 L12.7332258,7.79913683 L12.6586078,7.76765733 L12.5956488,7.7315142 L12.5408511,7.6848779 L12.5152012,7.6522325 L12.4953807,7.61958709 L12.4813898,7.58460987 L12.4743944,7.55196447 L12.4743944,7.52048497 L12.4802239,7.49017137 Z M14.4202938,8.72370136 L14.6674662,7.32461253 L15.1384927,7.33277388 L15.2434244,6.77080653 L14.782891,6.77080653 L14.8983158,6.15637335 L14.1509692,6.15637335 L13.6542927,8.90558291 L13.6449654,8.96854191 L13.6391359,9.02683728 L13.636804,9.08280083 L13.6391359,9.13293485 L13.6461313,9.18306886 L13.6601222,9.22620744 L13.6799426,9.26584829 L13.7079244,9.30432323 L13.7429016,9.33696864 L13.7860402,9.36611632 L13.838506,9.39293219 L13.8991332,9.41391852 L13.9725854,9.43373895 L14.0553648,9.44772984 L14.1509692,9.458223 L14.2570668,9.46521845 L14.4576028,9.46521845 L14.5019073,9.46055482 L14.5450459,9.45472528 L14.5823549,9.44889574 L14.6173321,9.44423211 L14.6511434,9.43956848 L14.6826229,9.43373895 L14.7106047,9.42790941 L14.7362547,9.42207987 L14.7630706,9.41391852 L14.7852228,9.40692308 L14.807375,9.40109354 L14.8283614,9.39293219 L14.8481818,9.38360493 L14.8691681,9.37544358 L14.8889885,9.36611632 L14.9076431,9.35678906 L14.984593,8.87643523 L14.9787634,8.87876704 L14.9636066,8.88576249 L14.9391226,8.89392384 L14.9076431,8.9032511 L14.8668363,8.91141245 L14.8190341,8.9195738 L14.7665683,8.92307152 L14.6756275,8.92307152 L14.644148,8.92073971 L14.6138344,8.9195738 L14.5846867,8.91374426 L14.5578709,8.90908063 L14.5322209,8.9032511 L14.5100687,8.89392384 L14.4879164,8.88459658 L14.4692619,8.87293751 L14.4517733,8.85894662 L14.4389483,8.84145801 L14.4284551,8.8239694 L14.4202938,8.80298306 L14.4167961,8.77966492 L14.4167961,8.75401496 L14.4202938,8.72370136 Z M8.86124749,7.48201002 L8.86008158,7.38640562 L8.84259297,7.29779666 L8.81344529,7.21501724 L8.77147262,7.13923326 L8.7201727,7.07044472 L8.65837961,7.00865163 L8.58959107,6.95268808 L8.514973,6.90371997 L8.43685721,6.86174731 L8.35291188,6.82443827 L8.27013245,6.79412468 L8.18618712,6.77080653 L8.10224179,6.75215201 L8.02179419,6.74049294 L7.94601021,6.7346634 L7.85273762,6.73233159 L7.43301097,6.73233159 L7.35606108,6.73699522 L7.28144301,6.74049294 L7.20915675,6.74748839 L7.13803641,6.75564974 L7.07157969,6.76730881 L7.00628887,6.77896788 L6.94332988,6.79412468 L6.8838686,6.8139451 L6.82440733,6.83726325 L6.76844377,6.8605814 L6.57723496,7.45869188 L6.60521674,7.44236917 L6.64485759,7.42837828 L6.6938257,7.4143874 L6.74978925,7.40156242 L6.81508007,7.38640562 L6.8838686,7.37474655 L6.95965258,7.36308747 L7.04010019,7.3514284 L7.12404552,7.34326705 L7.20915675,7.33393979 L7.29426799,7.32694434 L7.38054514,7.32228071 L7.46565637,7.31645118 L7.5496017,7.31411936 L7.63004931,7.31295346 L7.70583329,7.31528527 L7.73731279,7.31878299 L7.76879229,7.32344662 L7.80027179,7.33044207 L7.83058538,7.33976933 L7.85856716,7.3514284 L7.88654893,7.36541929 L7.91103299,7.38057608 L7.93551704,7.39806469 L7.95766928,7.41905103 L7.9763238,7.44003736 L7.99497832,7.46335551 L8.01013511,7.48667365 L8.02179419,7.51348952 L8.03112145,7.5414713 L8.03695098,7.57178489 L8.0404487,7.60326439 L8.0404487,7.64756887 L8.03112145,7.69653698 L8.01829646,7.73850964 L8.01246693,7.75599825 L7.99148059,7.75599825 L7.97748971,7.75483235 L7.95883519,7.75483235 L7.93901476,7.75250053 L7.91453071,7.75250053 L7.88888075,7.75016872 L7.82825356,7.75016872 L7.79910588,7.74900281 L7.76762638,7.74900281 L7.73381507,7.74667099 L7.60906298,7.74667099 L7.57408576,7.74900281 L7.53444491,7.74900281 L7.49363815,7.75483235 L7.44933367,7.75833007 L7.40269738,7.76066188 L7.3583929,7.76649142 L7.31292251,7.76998914 L7.26861803,7.77348686 L7.22781127,7.7793164 L7.19050224,7.78164822 L7.15902274,7.78514594 L7.13104096,7.78864366 L7.11122054,7.79097547 L7.09722965,7.79330729 L7.09373193,7.79330729 L7.00279115,7.80846408 L6.91301628,7.82945042 L6.82557323,7.8585981 L6.740462,7.89357532 L6.65884848,7.93438208 L6.58073269,7.98101837 L6.50728052,8.0323183 L6.43849199,8.08944776 L6.37786481,8.15473857 L6.31956944,8.22469301 L6.27176724,8.29697927 L6.22862866,8.37509506 L6.19365144,8.4602063 L6.16916739,8.54998117 L6.15284468,8.64325376 L6.14468333,8.74118997 L6.14701515,8.79482171 L6.15051287,8.85078527 L6.15750831,8.90908063 L6.16916739,8.9662101 L6.18549009,9.02450546 L6.20647642,9.08046902 L6.23212639,9.13410076 L6.26360588,9.18656659 L6.30091492,9.24019833 L6.3452194,9.28683462 L6.39535342,9.33347091 L6.45481469,9.37427767 L6.52127141,9.41158671 L6.59705539,9.44423211 L6.68100072,9.4733798 L6.77543922,9.49436613 L6.84772547,9.5060252 L6.92234354,9.51068883 L6.99812752,9.50835702 L7.07624332,9.50252748 L7.15435911,9.49203432 L7.2324749,9.47804343 L7.3105907,9.458223 L7.38637467,9.43490486 L7.45866093,9.40808899 L7.52978128,9.38010721 L7.596238,9.3474618 L7.65803109,9.3148164 L7.71516055,9.27983918 L7.76529457,9.24253014 L7.80959905,9.2040552 L7.84457627,9.16558025 L7.83758082,9.17723933 L7.83058538,9.19822566 L7.82475584,9.22970516 L7.8177604,9.26701419 L7.81076495,9.31131867 L7.80376951,9.35795497 L7.79677407,9.41158671 L7.78977862,9.46405254 L8.46134126,9.46405254 L8.56977065,8.90441701 L8.8472566,7.58694169 L8.86124749,7.48201002 Z M7.92036025,8.27715884 L7.91219889,8.31446788 L7.90520345,8.35294282 L7.89820801,8.39491549 L7.88888075,8.43921997 L7.87955349,8.48119263 L7.87022623,8.52199939 L7.86089897,8.56047433 L7.85157171,8.5872902 L7.83991264,8.61527198 L7.82475584,8.64325376 L7.80610132,8.67240144 L7.78394908,8.70271503 L7.75829912,8.73069681 L7.72798553,8.7610104 L7.69300831,8.78782627 L7.65453337,8.81347623 L7.60906298,8.83796029 L7.55892896,8.85894662 L7.50296541,8.87643523 L7.44233823,8.89275793 L7.37238379,8.90441701 L7.30009753,8.91141245 L7.21848401,8.91374426 L7.17417953,8.91141245 L7.12754324,8.9032511 L7.08440467,8.88576249 L7.04359791,8.85894662 L7.0097866,8.82047168 L6.98763436,8.76800584 L6.97480938,8.70154912 L6.9783071,8.61527198 L6.98763436,8.57329931 L7.00279115,8.53249256 L7.02144567,8.49518352 L7.04709563,8.46253811 L7.07507741,8.43105862 L7.10655691,8.40191093 L7.14036822,8.37509506 L7.17534544,8.35177692 L7.21032266,8.33195649 L7.24529988,8.31213607 L7.2802771,8.29581336 L7.3117566,8.28415429 L7.34207019,8.27249521 L7.37005197,8.26316796 L7.39220421,8.25617251 L7.40852691,8.2538407 L7.43884051,8.24451344 L7.47381773,8.23518618 L7.51345858,8.22935664 L7.55426533,8.2223612 L7.59740391,8.21536575 L7.64054248,8.21070212 L7.68368105,8.20370668 L7.72681962,8.20020896 L7.80726723,8.20020896 L7.84107855,8.20254077 L7.87255804,8.2060385 L7.8970421,8.21186803 L7.91569662,8.22002938 L7.92735569,8.23168846 L7.9296875,8.24567935 L7.92036025,8.27715884 Z M5.09070308,6.15637335 L4.22909754,8.12675679 L4.10434545,6.15637335 L2.83933596,6.15637335 L2.2272346,9.46521845 L2.95476079,9.46521845 L3.41412829,6.9876653 L3.44327598,6.9876653 L3.45143733,7.10891967 L3.46776003,7.39806469 L3.49224408,7.79680501 L3.52022586,8.24801116 L3.54820764,8.69571959 L3.57152578,9.08629855 L3.5890144,9.3626186 L3.59600984,9.46521845 L4.41097909,9.46521845 L5.49410703,6.9876653 L5.5220888,6.9876653 L5.0627213,9.46521845 L5.7902475,9.46521845 L6.40351477,6.15637335 L5.09070308,6.15637335 Z M16.872197,7.44120327 L16.883856,7.44236917 L16.8990128,7.44470099 L16.9141696,7.44470099 L16.9269946,7.4458669 L16.9374878,7.44819871 L16.9456491,7.44936462 L16.9491469,7.44936462 L16.9503128,7.44003736 L16.9584741,7.40972377 L16.9678014,7.36308747 L16.9829582,7.30595801 L17.0016127,7.24183311 L17.0214331,7.17187866 L17.0459172,7.10075832 L17.0738989,7.03313569 L17.0937194,6.98533349 L17.1182034,6.93636538 L17.1426875,6.88972908 L17.1683374,6.8454246 L17.1904897,6.80811557 L17.2091442,6.77896788 L17.2219692,6.75914746 L17.2266328,6.75215201 L17.2219692,6.75215201 L17.2126419,6.74865429 L17.1998169,6.74748839 L17.1811624,6.74399066 L17.1625079,6.74049294 L17.1403557,6.73816113 L17.1205352,6.7346634 L17.1018807,6.7346634 L17.0191013,6.74049294 L16.9456491,6.74865429 L16.8768606,6.76381109 L16.8127357,6.77896788 L16.7532744,6.79995422 L16.6996427,6.82327236 L16.6471769,6.85008823 L16.6005406,6.88040182 L16.5539043,6.91537905 L16.5119316,6.95035627 L16.4722907,6.98883121 L16.431484,7.03196978 L16.393009,7.07627426 L16.3557,7.12291056 L16.3160592,7.17187866 L16.2775842,7.2243445 L16.3650273,6.77080653 L15.6071875,6.76381109 L15.109345,9.46521845 L15.8660189,9.46521845 L16.1248504,8.03581602 L16.1353435,7.97985247 L16.1493344,7.92622073 L16.1633253,7.87142308 L16.1819798,7.82012316 L16.2029661,7.76998914 L16.2286161,7.72335285 L16.2600956,7.67671655 L16.2962387,7.63241207 L16.3382114,7.59393713 L16.3871795,7.55895991 L16.444309,7.52748041 L16.5084339,7.49949863 L16.581886,7.47618049 L16.6658314,7.45869188 L16.759104,7.44819871 L16.8628697,7.44120327 L16.872197,7.44120327 Z M18.3050971,6.73699522 L18.2246495,6.74049294 L18.1465337,6.74865429 L18.0707497,6.75798155 L17.9961317,6.77197244 L17.9238454,6.78829514 L17.8527251,6.80694966 L17.7839365,6.82793599 L17.7186457,6.85125414 L17.6533549,6.87807001 L17.5903959,6.90954951 L17.5286028,6.94219491 L17.4714734,6.97717214 L17.4155098,7.01564708 L17.3618781,7.05645384 L17.3094122,7.10075832 L17.26161,7.14739461 L17.2149737,7.1940309 L17.1706693,7.24766264 L17.1298625,7.30129438 L17.0902216,7.35958975 L17.0529126,7.41788512 L17.0191013,7.4785123 L16.9887877,7.54263721 L16.9619718,7.61025983 L16.9374878,7.67904837 L16.9153355,7.74900281 L16.896681,7.82362088 L16.8803583,7.89940486 L16.8675333,7.97868656 L16.8582061,8.06030007 L16.8523765,8.14424541 L16.8500447,8.22585892 L16.8523765,8.30747244 L16.8582061,8.38442232 L16.8675333,8.4602063 L16.8803583,8.53132665 L16.896681,8.60128109 L16.9176674,8.67123553 L16.9398196,8.73536044 L16.9654696,8.79715353 L16.9934513,8.8566148 L17.0272627,8.91491017 L17.061074,8.96854191 L17.1007148,9.02217365 L17.1403557,9.07114176 L17.1846601,9.11777805 L17.2289646,9.16324844 L17.2779327,9.2052211 L17.3303986,9.24369605 L17.3828644,9.28100508 L17.438828,9.31365049 L17.4959574,9.34512999 L17.5554187,9.37311176 L17.6172118,9.39992763 L17.6825026,9.42324578 L17.7477934,9.44423211 L17.8142501,9.46172072 L17.8853705,9.47571161 L17.9564908,9.48737069 L18.0287771,9.49902976 L18.1010633,9.5048593 L18.1768473,9.50835702 L18.2526313,9.51068883 L18.3284153,9.50835702 L18.4041992,9.5048593 L18.4788173,9.49902976 L18.5534354,9.4897025 L18.6245557,9.47804343 L18.6956761,9.46288663 L18.7667964,9.44539802 L18.8332532,9.42441169 L18.8997099,9.40109354 L18.9626689,9.37544358 L19.0256279,9.3462959 L19.087421,9.3148164 L19.1445504,9.28217099 L19.2016799,9.24486195 L19.2553116,9.2040552 L19.3077775,9.16208253 L19.3579115,9.11544624 L19.4068796,9.06880994 L19.4535159,9.01751002 L19.4966544,8.96387828 L19.5362953,8.90791473 L19.5747702,8.84845345 L19.6085816,8.78549445 L19.6423929,8.72020364 L19.6703746,8.65141511 L19.6960246,8.58146067 L19.7205087,8.50684259 L19.7391632,8.42989271 L19.7554859,8.34827919 L19.7683109,8.26666568 L19.7799699,8.18038853 L19.7857995,8.09177957 L19.7881313,8.0171615 L19.7857995,7.94370934 L19.7823017,7.87258899 L19.7753063,7.80380046 L19.7636472,7.73617783 L19.7484904,7.6685552 L19.7321677,7.60326439 L19.7111814,7.5414713 L19.6878633,7.4785123 L19.6598815,7.42021693 L19.6318997,7.36192157 L19.5980884,7.30712392 L19.5631112,7.25465809 L19.5258021,7.20452407 L19.4849954,7.15555596 L19.4406909,7.10891967 L19.3940546,7.06461519 L19.3450865,7.02614024 L19.2926207,6.9876653 L19.237823,6.95035627 L19.1818595,6.91771086 L19.1200664,6.88739727 L19.0582733,6.85941549 L18.9929825,6.83259962 L18.9241939,6.80928148 L18.8554054,6.78946105 L18.7831191,6.77313835 L18.7085011,6.75914746 L18.6303853,6.74748839 L18.5499377,6.74165885 L18.4683242,6.73582931 L18.3843788,6.7334975 L18.3050971,6.73699522 Z M18.5137945,7.33277388 L18.5697581,7.34210114 L18.6222239,7.35609203 L18.6700261,7.37941018 L18.7131647,7.40739195 L18.7528055,7.44236917 L18.7866169,7.48201002 L18.8169305,7.5263145 L18.8414145,7.57761443 L18.8624008,7.63124617 L18.8775576,7.68954153 L18.8868849,7.75250053 L18.8927144,7.81895725 L18.8927144,7.88891169 L18.8868849,7.96119795 L18.8775576,8.03698193 L18.8612349,8.13491815 L18.8425804,8.22352711 L18.8180964,8.30514062 L18.7866169,8.3809246 L18.7563033,8.44971313 L18.721326,8.51267213 L18.684017,8.56863568 L18.6443762,8.61760379 L18.6000717,8.66190827 L18.5534354,8.69921731 L18.5033014,8.73069681 L18.4520014,8.75518086 L18.3960379,8.77500129 L18.3389084,8.78666036 L18.2771153,8.79365581 L18.2141563,8.79598762 L18.1570269,8.7924899 L18.1033951,8.78666036 L18.0509293,8.77150357 L18.004293,8.75168314 L17.9611544,8.72836499 L17.9226795,8.69571959 L17.8877023,8.65841055 L17.8562228,8.61410607 L17.8305728,8.56397206 L17.8095865,8.5080085 L17.7920979,8.44621541 L17.7804388,8.37626097 L17.7746093,8.29814518 L17.7746093,8.21653166 L17.7804388,8.12442498 L17.7920979,8.02648876 L17.803757,7.96819339 L17.8165819,7.90873212 L17.8352365,7.84927084 L17.8573887,7.78980957 L17.8818727,7.73034829 L17.9121863,7.67438474 L17.9459977,7.61842118 L17.9856385,7.56478945 L18.0264453,7.51582134 L18.0730816,7.47151686 L18.1255474,7.43304191 L18.1815109,7.39806469 L18.243304,7.37124882 L18.3085948,7.35026249 L18.3797152,7.33860342 L18.4554992,7.33277388 L18.5137945,7.33277388 Z M11.4052574,7.56945308 L11.3959301,7.49250319 L11.3807733,7.41905103 L11.3632847,7.34909658 L11.3411324,7.28380577 L11.3154825,7.2255104 L11.2851689,7.16838094 L11.2536894,7.11824693 L11.2187122,7.06811291 L11.1790713,7.02497434 L11.1382646,6.98533349 L11.0939601,6.94685854 L11.0496556,6.91188132 L11.0006875,6.88273364 L10.9528853,6.85358596 L10.9027513,6.83026781 L10.8502854,6.80811557 L10.7966537,6.78829514 L10.7418561,6.77313835 L10.6882243,6.75914746 L10.6345926,6.74748839 L10.578629,6.73582931 L10.5249973,6.72883387 L10.4701996,6.72417024 L10.4165679,6.72067252 L10.3641021,6.71717479 L10.3128022,6.71717479 L10.200875,6.72067252 L10.0971093,6.72766796 L9.99567535,6.73932703 L9.90123685,6.75798155 L9.81262789,6.77896788 L9.72868256,6.80578375 L9.64823496,6.83493144 L9.57361689,6.86641094 L9.50366244,6.90371997 L9.43837163,6.94219491 L9.37657854,6.98533349 L9.32061499,7.02963797 L9.26698325,7.07627426 L9.21801514,7.12524237 L9.17371066,7.17654229 L9.131738,7.2255104 L9.09442896,7.27914214 L9.05945174,7.33277388 L9.02680633,7.38757153 L8.99765865,7.44120327 L8.97084278,7.49716682 L8.94752463,7.55079856 L8.9265383,7.60326439 L8.90788378,7.65806204 L8.89272699,7.71052787 L8.87757019,7.76066188 L8.86474521,7.8107959 L8.85541795,7.85743219 L8.84609069,7.90406849 L8.83909525,7.94604115 L8.83326571,7.98801382 L8.82743617,8.02532285 L8.81810891,8.13025452 L8.81461119,8.23285436 L8.81461119,8.32612695 L8.82160664,8.41939954 L8.83326571,8.50684259 L8.84958841,8.5872902 L8.87057475,8.66424009 L8.89622471,8.73885816 L8.9265383,8.80764669 L8.96034961,8.8717716 L8.99765865,8.93123287 L9.03846541,8.98952824 L9.08160398,9.04315998 L9.13057209,9.09212809 L9.1807061,9.13876439 L9.23317194,9.18073705 L9.28913549,9.21921199 L9.34509904,9.25418921 L9.40456032,9.28566871 L9.46635341,9.3159823 L9.52931241,9.34279817 L9.5922714,9.36611632 L9.65756222,9.38477084 L9.72285303,9.40459126 L9.78930975,9.41974806 L9.85576647,9.43373895 L9.92222319,9.44539802 L9.99101172,9.45355937 L10.0574684,9.46055482 L10.1227593,9.46288663 L10.189216,9.46638435 L10.3442817,9.46638435 L10.4258952,9.46405254 L10.5005132,9.46405254 L10.56697,9.45938891 L10.628763,9.45705709 L10.6858925,9.45122756 L10.7383583,9.44539802 L10.7873264,9.44073439 L10.8339627,9.43140713 L10.8771013,9.42324578 L10.9179081,9.41158671 L10.9587148,9.39759582 L10.9995216,9.38243902 L11.0391624,9.36728223 L11.082301,9.3474618 L11.1254396,9.32647547 L11.2396985,8.70504685 L11.1604168,8.74818542 L11.0846328,8.78666036 L11.006517,8.81930577 L10.931899,8.84495573 L10.8572809,8.86827388 L10.7838287,8.88576249 L10.7092107,8.89742156 L10.6369244,8.90908063 L10.5658041,8.91374426 L10.4935178,8.91724199 L10.4247293,8.91724199 L10.3536089,8.91607608 L10.2848204,8.91257836 L10.2160318,8.90674882 L10.1484092,8.89742156 L10.0819525,8.88926021 L10.0259889,8.87760114 L9.97002539,8.85894662 L9.91872546,8.83562847 L9.86742554,8.80764669 L9.82078925,8.77383538 L9.77881658,8.73885816 L9.73800982,8.6980514 L9.7030326,8.65607874 L9.6715531,8.61177426 L9.64473723,8.56746978 L9.62258499,8.52083348 L9.6074282,8.47303128 L9.59576913,8.42639499 L9.5922714,8.37975869 L9.59460322,8.33545421 L9.60159866,8.30047699 L11.3248097,8.30047699 L11.3551233,8.14424541 L11.3772756,8.03581602 L11.3935983,7.93088436 L11.4029255,7.83411405 L11.4087551,7.74084146 L11.4087551,7.6522325 L11.4052574,7.57061898 L11.4052574,7.56945308 Z M10.6719016,7.74433918 L10.6660721,7.8107959 L9.69836897,7.8107959 L9.70769623,7.7641596 L9.72052121,7.71052787 L9.73567801,7.65806204 L9.75433253,7.60792802 L9.77648477,7.56245763 L9.80213473,7.51931906 L9.83128241,7.4785123 L9.861596,7.44120327 L9.89540732,7.40622604 L9.93038454,7.37707836 L9.96885948,7.34909658 L10.0096662,7.32577844 L10.0528048,7.30595801 L10.0971093,7.29313303 L10.1460774,7.28380577 L10.1938796,7.27797623 L10.2463454,7.27797623 L10.2941476,7.28030805 L10.3407839,7.28497168 L10.3850884,7.29663075 L10.428227,7.31062164 L10.4678678,7.32811025 L10.5051769,7.34909658 L10.5401541,7.37591245 L10.5716336,7.40739195 L10.5996154,7.44236917 L10.6240994,7.48201002 L10.6427539,7.5251486 L10.6567448,7.57178489 L10.6684039,7.62425072 L10.6719016,7.68254609 L10.6719016,7.74317327 L10.6719016,7.74433918 Z" id="Shape"></path>
            </g>
        </g>
    </g>
</svg>