<svg xmlns="http://www.w3.org/2000/svg" width="24" height="24" viewBox="0 0 24 24"><g fill="none" fill-rule="evenodd"><path d="M0 0h24v24H0z"/><path fill="#0B1F35" d="M1.5 23.065h21a.5.5 0 0 0 .5-.5V11.5a.5.5 0 0 0-.5-.5H15V1a.5.5 0 0 0-.697-.459l-13 5.565A.5.5 0 0 0 1 6.565v16a.5.5 0 0 0 .5.5zM15 12h7v10.065h-7V12zM2 6.895l12-5.137v20.307H2V6.895z"/><path fill="#0B1F35" d="M17.5 12a.5.5 0 0 0 .5-.5V8a.5.5 0 0 0-1 0v3.5a.5.5 0 0 0 .5.5zM5 9h2v3H5zm4-2h2v3H9zm8 7h2v3h-2zM5 14h2v3H5zm14.5-4.5a.5.5 0 0 0-.5.5v1.5a.5.5 0 0 0 1 0V10a.5.5 0 0 0-.5-.5z" opacity=".3"/></g></svg>
