<svg xmlns="http://www.w3.org/2000/svg" width="36" height="36" viewBox="0 0 36 36"><path fill="none" d="M0 0h36v36H0z"/><g fill="#0B1F35"><path d="M18.5 31a.5.5 0 0 1-.5-.5 2.67 2.67 0 0 0-2.8-2.5H2.5a.5.5 0 0 1-.5-.5V5a2.08 2.08 0 0 1 2.15-2h9.4A5.25 5.25 0 0 1 19 8v22.5a.5.5 0 0 1-.5.5zM3 27h12.2a3.94 3.94 0 0 1 2.8 1.14V8a4.25 4.25 0 0 0-4.45-4h-9.4A1.08 1.08 0 0 0 3 5v22z"/><path d="M18.5 31a.5.5 0 0 1-.5-.5V8a5.25 5.25 0 0 1 5.45-5h9.4A2.08 2.08 0 0 1 35 5v22.5a.5.5 0 0 1-.5.5H21.8a2.67 2.67 0 0 0-2.8 2.5.5.5 0 0 1-.5.5zm5-27A4.25 4.25 0 0 0 19 8v20.14A3.94 3.94 0 0 1 21.8 27H34V5a1.08 1.08 0 0 0-1.15-1h-9.4z"/></g><path fill="#0B1F35" d="M2 30h14v2H2zm19 0h14v2H21zM7 9h7v2H7zm0 5h7v2H7zm0 5h7v2H7zM23 9h7v2h-7zm0 5h7v2h-7zm0 5h7v2h-7z" opacity=".3"/></svg>