<svg xmlns="http://www.w3.org/2000/svg" width="29" height="28" viewBox="0 0 29 28"><g fill="#FFF" fill-rule="evenodd"><path d="M1 9H0V6.293L6.293 0H17c2.206 0 4 1.794 4 4v4h-1V4c0-1.654-1.346-3-3-3H6.707L1 6.707V9zm9.999 17H4c-2.206 0-4-1.794-4-4V9.125h1V22c0 1.654 1.346 3 3 3h6.999v1zm6.501 1.741L6.865 15.702l4.54-6.53h12.189l4.54 6.53L17.5 27.741zM8.135 15.628L17.5 26.231l9.365-10.604-3.794-5.456H11.929l-3.794 5.457z"/><path d="M7.5 15.165h20v1h-20z"/><path d="M12.09 15.379l4.167-5.993.82.57-4.166 5.994zm5.833-5.423l.821-.57 4.167 5.992-.82.57z"/><path d="M12.044 15.868l.914-.404 5 11.321-.915.404z"/><path d="M17.04 26.783l5.005-11.318.915.405-5.006 11.318z"/></g></svg>