<svg width="36" height="36" viewBox="0 0 36 36" xmlns="http://www.w3.org/2000/svg"><g fill="none" fill-rule="evenodd"><path d="M0 0h36v36H0z"/><g fill="#FFF" fill-rule="nonzero"><path d="M28.6 33H7.4c-.7 0-1.4-.4-1.8-1-.4-.6-.4-1.4 0-2l6.9-12L5.7 6c-.4-.6-.4-1.4 0-2 .4-.6 1-1 1.8-1h21.1c.7 0 1.4.4 1.8 1 .4.6.4 1.4 0 2l-6.9 12 6.9 12c.4.6.4 1.4 0 2-.4.6-1.1 1-1.8 1zM7.4 4c-.3 0-.7.2-.9.5-.2.3-.2.7 0 1L13.7 18 6.5 30.5c-.2.3-.2.7 0 1 .2.3.6.5.9.5h21.1c.4 0 .7-.2.9-.5.2-.3.2-.7 0-1L22.3 18l7.2-12.5c.2-.3.2-.7 0-1-.2-.3-.6-.5-.9-.5H7.4z"/><path d="M22 25h-8l-2.3 3.9h12.6L22 25zm-8.3-14l4.3 7.4 4.3-7.4h-8.6z" opacity=".3"/></g></g></svg>