<svg xmlns="http://www.w3.org/2000/svg" width="24" height="24" version="1" viewBox="0 0 24 24"><path fill="#0B1F35" d="M8.805 15.852h1.76l1.101-6.763H9.905zm12.574-6.763h-1.415c-.654 0-.813.504-.813.504l-2.625 6.259h1.835l.367-1.004h2.238l.206 1.004h1.617l-1.41-6.763zm-2.145 4.371l.925-2.531.52 2.531h-1.445zm-7.322.608l-.262 1.518s.786.382 1.987.382 3.014-.622 3.014-2.315c0-1.758-2.457-1.922-2.457-2.686 0-.765 1.715-.666 2.468-.251l.251-1.452s-.775-.295-1.583-.295c-.874 0-2.948.382-2.948 2.239 0 1.747 2.435 1.769 2.435 2.686s-2.184.753-2.905.174zm-7.058-4.37s-.072-.609-.835-.609H1.245l-.033.115.047.011.036.009.105.028.076.022.15.047.104.035c.083.029.174.063.272.101l.086.036c.095.039.195.083.3.131.046.021.094.046.142.07.084.041.17.086.258.134.054.029.108.06.163.091l.105.065 1.528 5.868h1.834l2.801-6.763H7.324L5.645 13.74l-.199-1.002-.592-3.04z"/></svg>