<?xml version="1.0" encoding="UTF-8"?>
<svg width="48px" height="48px" viewBox="0 0 48 48" version="1.1" xmlns="http://www.w3.org/2000/svg" xmlns:xlink="http://www.w3.org/1999/xlink">
    <!-- Generator: Sketch 48.2 (47327) - http://www.bohemiancoding.com/sketch -->
    <title>icon_convert_xxl_black</title>
    <desc>Created with Sketch.</desc>
    <defs></defs>
    <g id="mobile" stroke="none" stroke-width="1" fill="none" fill-rule="evenodd" transform="translate(-204.000000, -369.000000)">
        <g id="Headings" transform="translate(64.000000, 77.000000)"></g>
        <g id="icon_tool_convert__xxl__white" transform="translate(204.000000, 369.000000)">
            <g id="Layer_2">
                <rect id="ph_5_" x="0" y="0" width="48" height="48"></rect>
                <path d="M32.5,8 L23.7,8 L28.8,2.9 L28.1,2.2 L21.7,8.6 L28.1,15 L28.8,14.3 L23.7,9 L32.5,9 C38.8,9 44,14.2 44,20.5 L44,21 L45,21 L45,20.5 C45,13.6 39.4,8 32.5,8 L32.5,8 Z" id="Shape" fill="#0B1F35" opacity="0.3"></path>
                <path d="M19.9,33.1 L19.2,33.8 L24.3,38.9 L15.5,38.9 C9.2,39 4,33.8 4,27.5 L4,27 L3,27 L3,27.5 C3,34.4 8.6,40 15.5,40 L24.3,40 L19.2,45.1 L19.9,45.8 L26.3,39.4 L19.9,33.1 L19.9,33.1 Z" id="Shape" fill="#0B1F35" opacity="0.3"></path>
                <path d="M6,23 L7,23 L7,18.9 L13,18.9 L13,18 L7,18 L7,14.9 L11.6,14.9 C15.4,14.9 17.9,12.6 17.9,9.1 C17.9,5.6 15.5,3 11.6,3 L6,3 L6,14 L3,14 L3,14.9 L6,14.9 L6,18 L3,18 L3,18.9 L6,18.9 L6,23 L6,23 Z M7,4 L11.4,4 C14.8,4 17,6.1 17,9.1 C17,12.1 14.8,14 11.4,14 L7,14 L7,4 L7,4 Z" id="Shape" fill="#0B1F35"></path>
                <path d="M32.6,39.5 L31.5,39.5 C31.6,42.5 34.3,44.8 38,45 L38,47 L39,47 L39,45 C42.8,44.8 45.4,42.6 45.4,39.6 C45.4,36.7 43.7,35.5 39.3,34.5 L39,34.4 L39,26 C41.7,26.2 43.9,27.9 44,30 L45,30 C44.9,27.3 42.3,25.2 39,25 L39,23.2 L38.1,23.2 L38.1,25 C34.5,25.2 32.1,27.3 32.1,30.2 C32.1,32.8 33.7,34.2 37.8,35.2 L38.1,35.3 L38.1,44 C35.1,43.9 32.8,41.9 32.6,39.5 L32.6,39.5 Z M39,35.5 C42.9,36.4 44.4,37.4 44.4,39.7 C44.4,42.1 42.1,43.9 39,44 L39,35.5 L39,35.5 Z M33.1,30.1 C33.1,27.8 35.2,26.1 38.1,26 L38.1,34.2 C34.5,33.4 33.1,32.2 33.1,30.1 L33.1,30.1 Z" id="Shape" fill="#0B1F35"></path>
            </g>
        </g>
    </g>
</svg>