<svg xmlns="http://www.w3.org/2000/svg" width="22" height="22" viewBox="0 0 22 22"><g fill="none" fill-rule="evenodd"><path d="M-1-1h24v24H-1z"/><path fill="#0B1F35" d="M11 11l5.5-9.5c1.7 1 3.1 2.4 4 4C21.4 7.1 22 9.1 22 11H11z" opacity=".3"/><path fill="#0B1F35" d="M1 11H0C0 4.9 4.9 0 11 0v1C5.5 1 1 5.5 1 11z"/><path fill="#0B1F35" d="M11 22C4.9 22 0 17.1 0 11S4.9 0 11 0v1C5.5 1 1 5.5 1 11s4.5 10 10 10c4.5 0 8.5-3.1 9.6-7.4l1 .3C20.3 18.6 15.9 22 11 22z"/><path fill="#0B1F35" d="M14 1.5c-1-.3-2-.5-3-.5V0c1.1 0 2.2.2 3.3.5l-.3 1z"/></g></svg>
