<svg xmlns="http://www.w3.org/2000/svg" width="14" height="13" viewBox="0 0 14 13"><path fill="#FFF" fill-rule="evenodd" d="M14 .929h-4v3.714h1V2.348C12.263 3.4 13 4.906 13 6.5c0 3.073-2.691 5.571-6 5.571-.266 0-.527-.016-.784-.047l-.129.921c.299.036.603.055.913.055 3.86 0 7-2.917 7-6.5 0-1.764-.781-3.43-2.118-4.643H14V.93zM0 12.071h4V8.357H3v2.295C1.737 9.6 1 8.094 1 6.5 1 3.427 3.691.929 7 .929c.266 0 .527.016.784.047l.129-.921A7.582 7.582 0 0 0 7 0C3.14 0 0 2.917 0 6.5c0 1.764.781 3.43 2.118 4.643H0v.928z"/></svg>