<svg xmlns="http://www.w3.org/2000/svg" width="16" height="9" viewBox="0 0 16 9"><path fill="#FFF" fill-rule="evenodd" d="M4.768.805l-1.301 3.11L2.94 1.27a.576.576 0 0 0-.577-.466H.234L.205.938c.436.09.933.235 1.234.389.184.094.237.177.297.401l.998 3.645h1.323L6.084.805H4.768zm6.497 3.076c.005-1.205-1.764-1.272-1.753-1.81.004-.164.169-.338.531-.383a2.49 2.49 0 0 1 1.233.205l.219-.969a3.542 3.542 0 0 0-1.17-.202c-1.237 0-2.107.62-2.114 1.51-.008.657.621 1.023 1.095 1.242.488.224.651.368.649.568-.003.306-.389.442-.748.447-.629.01-.994-.16-1.285-.29l-.227 1.002c.293.128.832.238 1.391.243 1.315 0 2.175-.612 2.179-1.563zM7.871.805H6.62L5.585 5.373h1.251zm5.738 0a.572.572 0 0 0-.533.335l-1.877 4.232h1.314l.261-.682h1.605l.152.682h1.157L14.677.804h-1.068v.001zm-.475 2.95l.659-1.715.378 1.715h-1.037zm-6.89 4.044h.724V7.61h-.724v-.558h.768v-.19H6v1.764h1.054v-.19h-.81zm2.44-.467c-.391 0-.63.299-.63.681 0 .383.247.643.66.643.214 0 .363-.045.45-.082L9.12 8.41a.918.918 0 0 1-.372.065c-.247 0-.455-.128-.46-.44h.943a.508.508 0 0 0 .008-.108c0-.232-.114-.594-.555-.594zm-.394.538c.019-.16.125-.372.375-.372.275 0 .341.227.338.372H8.29zm1.944-.354a.62.62 0 0 1 .283.06l.055-.176a.808.808 0 0 0-.338-.068c-.438 0-.721.286-.721.677 0 .388.263.647.668.647a.99.99 0 0 0 .386-.074l-.042-.173a.723.723 0 0 1-.299.06c-.266 0-.466-.18-.466-.474 0-.262.166-.48.474-.48zm1.018-.461l-.239.068v.236h-.208v.175h.208v.693c0 .149.028.261.094.332a.36.36 0 0 0 .263.097.72.72 0 0 0 .216-.032l-.011-.175a.484.484 0 0 1-.142.016c-.136 0-.183-.089-.183-.247v-.684h.349V7.36h-.349v-.304h.002zm.912.555h-.008l-.011-.251h-.214c.008.118.011.246.011.396v.872h.244v-.676a.72.72 0 0 1 .008-.108c.033-.172.155-.293.327-.293.034 0 .058 0 .083.005v-.217a.4.4 0 0 0-.44.272zm1.295-.278c-.369 0-.666.249-.666.67 0 .401.283.654.643.654.322 0 .669-.204.669-.674.001-.385-.26-.65-.646-.65zm-.011 1.15c-.239 0-.405-.209-.405-.487 0-.239.125-.49.41-.49.289 0 .402.27.402.485.001.286-.174.493-.407.493zm1.7-1.15a.503.503 0 0 0-.444.237h-.005l-.014-.21h-.216a4.4 4.4 0 0 1 .011.343v.924h.244v-.762c0-.04.005-.078.017-.108a.35.35 0 0 1 .327-.236c.23 0 .311.17.311.375v.731h.244v-.754c-.001-.435-.289-.54-.475-.54z"/></svg>