<svg xmlns="http://www.w3.org/2000/svg" width="18" height="18" version="1" viewBox="0 0 18 18"><path fill="#0B1F35" d="M14.042 14.173c-.249-.11-.474-.084-.655-.175C12.055 13.334 12 13 12 11h-.343C13.155 9.735 14 7.452 14 5.214 14 2.976 13.481 0 9 0 4.518 0 4 2.976 4 5.214 4 7.452 4.845 9.735 6.343 11H6c0 2-.055 2.334-1.386 2.999-.183.091-.407-.06-.656.049C2.478 14.701 0 16 0 18h1c0-2 2.023-2.322 3.361-2.912.266-.117.504-.098.699-.195 1.675-.836 1.903-2.383 1.934-3.434C7.587 11.8 8.257 12 9 12s1.413-.2 2.006-.541c.031 1.051.259 2.599 1.933 3.434.194.097.434-.047.699.07C14.977 15.553 17 16 17 18h1c0-2-2.478-3.174-3.958-3.827zM5 5.214C5 2.182 6.122 1 9 1c2.879 0 4 1.182 4 4.214C13 7.617 11.759 11 9 11S5 7.617 5 5.214z"/><path fill="#0B1F35" d="M5.757 6.377h.001v-.001z"/></svg>