<svg xmlns="http://www.w3.org/2000/svg" width="30" height="30" version="1" viewBox="0 0 30 30"><path fill="#266450" d="M12.551 10.638L19.627 19H29C18.249 9.443 29 2 29 2h-9.281l-7.168 8.638zm4.503-.092a2.471 2.471 0 0 1 2.481-2.481c1.378 0 2.481 1.103 2.481 2.481s-1.103 2.481-2.481 2.481a2.471 2.471 0 0 1-2.481-2.481zM18 19.638L10.832 11H1.551s10.751 7.443 0 17h9.373L18 19.638zm-6.984 2.389c-1.378 0-2.481-1.103-2.481-2.481s1.103-2.481 2.481-2.481 2.481 1.103 2.481 2.481-1.102 2.481-2.481 2.481z"/></svg>