<svg xmlns="http://www.w3.org/2000/svg" width="18" height="18" version="1" viewBox="0 0 18 18"><path fill="#0B1F35" d="M5.768 5.088L4.467 8.38 3.94 5.581a.584.584 0 0 0-.577-.493H1.234l-.029.14c.436.096.933.249 1.234.412.184.1.237.188.297.425l.998 3.859h1.323l2.027-4.836H5.768zm6.497 3.257c.005-1.276-1.764-1.347-1.753-1.917.004-.173.169-.358.531-.405a2.366 2.366 0 0 1 1.233.217l.219-1.026A3.367 3.367 0 0 0 11.325 5c-1.237 0-2.107.657-2.114 1.598-.008.696.621 1.084 1.095 1.316.488.237.651.389.649.601-.003.324-.389.468-.748.473-.629.01-.994-.17-1.285-.306l-.227 1.06c.293.136.832.252 1.391.258 1.315 0 2.175-.649 2.179-1.655zM8.871 5.088H7.62L6.585 9.924h1.251zm5.738 0a.57.57 0 0 0-.533.354l-1.877 4.481h1.314l.261-.722h1.605l.152.722h1.157l-1.011-4.836h-1.068zm-.475 3.123l.659-1.816.378 1.816h-1.037zm-6.89 4.282h.724v-.2h-.724v-.591h.768V11.5H7v1.869h1.054v-.202h-.81zM8.428 11.4h.244v1.969h-.244zm1.256.599c-.391 0-.63.316-.63.721 0 .405.247.68.66.68.214 0 .363-.047.45-.086l-.044-.175a.873.873 0 0 1-.372.069c-.247 0-.455-.136-.46-.466h.943a.568.568 0 0 0 .008-.114c0-.246-.114-.629-.555-.629zm-.394.569c.019-.169.125-.394.375-.394.275 0 .341.241.338.394H9.29zm1.944-.375c.133 0 .225.033.283.064l.055-.186a.77.77 0 0 0-.338-.072c-.438 0-.721.302-.721.716 0 .411.263.685.668.685.18 0 .322-.047.386-.078l-.042-.183a.69.69 0 0 1-.299.064c-.266 0-.466-.191-.466-.502 0-.278.166-.508.474-.508zm1.018-.488l-.239.072v.25h-.208v.186h.208v.733c0 .158.028.277.094.352.058.064.15.102.263.102a.683.683 0 0 0 .216-.033l-.011-.186a.458.458 0 0 1-.142.017c-.136 0-.183-.094-.183-.261v-.724h.349v-.186h-.349v-.322zm.912.588h-.008l-.011-.266h-.214c.008.125.011.261.011.419v.924h.244v-.716c0-.039.003-.081.008-.114.033-.183.155-.311.327-.311.034 0 .058 0 .083.006v-.23a.468.468 0 0 0-.067-.005c-.162-.001-.312.113-.373.293zm1.295-.294c-.369 0-.666.263-.666.71 0 .424.283.691.643.691.322 0 .669-.216.669-.713.001-.408-.26-.688-.646-.688zm-.011 1.218c-.239 0-.405-.222-.405-.516 0-.253.125-.519.41-.519.289 0 .402.286.402.513.001.303-.174.522-.407.522zm1.7-1.218a.498.498 0 0 0-.444.25h-.005l-.014-.222h-.216c.008.111.011.222.011.363v.979h.244v-.807a.33.33 0 0 1 .017-.114.352.352 0 0 1 .327-.25c.23 0 .311.18.311.397v.774h.244v-.799c-.001-.46-.289-.571-.475-.571z"/></svg>