<svg width="18px" height="18px" viewBox="0 0 18 18" version="1.1" xmlns="http://www.w3.org/2000/svg"><g fill="#FFFFFF" fill-rule="nonzero" stroke="none" stroke-width="1"><path d="M9,0.947368421 C4.55265438,0.947368421 0.947368421,4.55265438 0.947368421,9 C0.947368421,13.4473456 4.55265438,17.0526316 9,17.0526316 C13.4473456,17.0526316 17.0526316,13.4473456 17.0526316,9 C17.0526316,4.55265438 13.4473456,0.947368421 9,0.947368421 Z M9,0 C13.9705627,-9.4661121e-16 18,4.02943725 18,9 C18,13.9705627 13.9705627,18 9,18 C4.02943725,18 6.3107414e-16,13.9705627 0,9 C-6.3107414e-16,4.02943725 4.02943725,8.94021699e-16 9,0 Z"/><polygon points="7.81277679 11.2587693 4.70132441 8.33986188 4 9.06443378 7.81277679 12.881892 13.9128131 6.75489819 13.08167 6"/></g></svg>