<svg xmlns="http://www.w3.org/2000/svg" width="24" height="24" viewBox="0 0 24 24"><g fill="none"><rect width="24" height="24"/><path fill="#EF3124" d="M23.1667163,19.2731983 L13.2877163,2.73119834 C13.0170383,2.27772219 12.5278329,2 11.9997163,2 C11.4715996,2 10.9823942,2.27772219 10.7117163,2.73119834 L0.832716262,19.2711983 C0.555427575,19.7347687 0.54880494,20.3116281 0.815377907,20.7814423 C1.08195087,21.2512565 1.58054368,21.5414562 2.12071626,21.5411983 L21.8797163,21.5411983 C22.4198888,21.5414562 22.9184817,21.2512565 23.1850546,20.7814423 C23.4516276,20.3116281 23.4450049,19.7347687 23.1677163,19.2711983 L23.1667163,19.2731983 Z M13.2497163,7.54119834 L12.9997163,14.5411983 L10.9997163,14.5411983 L10.7497163,7.54119834 L13.2497163,7.54119834 Z M11.9937163,19.5411983 C11.5952843,19.5450041 11.2121486,19.3879954 10.930967,19.1056846 C10.6497855,18.8233737 10.4943136,18.4396118 10.4997163,18.0411983 C10.4997163,17.1911983 11.1617163,16.5411983 11.9937163,16.5411983 C12.8487163,16.5411983 13.4997163,17.1911983 13.4997163,18.0411983 C13.4997163,18.8901983 12.8497163,19.5411983 11.9937163,19.5411983 Z"/></g></svg>