<svg xmlns="http://www.w3.org/2000/svg" width="24" height="24" version="1" viewBox="0 0 24 24"><path fill="#0B1F35" d="M20 7h-1V3c0-1.103-.897-2-2-2H7.707L3 5.707V6H2v-.707L7.293 0H17c1.654 0 3 1.346 3 3v4z"/><path fill="#0B1F35" d="M11 22H5c-1.654 0-3-1.346-3-3V6h1v13c0 1.103.897 2 2 2h6v1zm4.503 1.234l-8.131-8.673L10.848 9h9.301l3.48 5.431-8.126 8.803zm-6.875-8.796l6.869 7.327 6.874-7.446L19.602 10h-8.199l-2.775 4.438z"/><path fill="#0B1F35" d="M8 14h15v1H8z"/><path fill="#0B1F35" d="M11.326 14.236l3.123-5.001.847.529-3.123 5zm4.375-4.471l.848-.53 3.125 5-.848.53z"/><path fill="#0B1F35" d="M11.297 14.713l.906-.424 3.75 8-.906.424z"/><path fill="#0B1F35" d="M15.05 22.29l3.742-8.003.906.424-3.743 8.003z"/></svg>