<svg xmlns="http://www.w3.org/2000/svg" width="18" height="18" version="1" viewBox="0 0 18 18"><path fill="#0B1F35" d="M14 5h-1V1.559A.56.56 0 0 0 12.441 1H5.707L2 4.707V5H1v-.707L5.293 0h7.148C13.301 0 14 .699 14 1.559V5zm-1.5 12h-10c-.827 0-1.5-.673-1.5-1.5h1a.5.5 0 0 0 .5.5h10c.275 0 .5-.225.5-.5h1c0 .827-.673 1.5-1.5 1.5zM7.509 7l1.471 4.422h.023L10.486 7H12v6h-1.157v-1.789l.111-2.65-.024-.003L9.385 13h-.777L7.069 8.574l-.023.004L7.157 11v2H6V7h1.509zM14 12.073h3V13h-4V7h1v5.073zM3.482 13l-1.18-2.36L1.123 13H0l1.706-3.026L.043 7h1.111l1.132 2.325L3.434 7h1.12L2.891 9.975 4.649 13z"/></svg>