<svg xmlns="http://www.w3.org/2000/svg" width="24" height="24" viewBox="0 0 24 24"><g fill="none" fill-rule="evenodd"><path d="M0 0h24v24H0z"/><path fill="#FFF" d="M17.5 10h-4.85A3.49 3.49 0 0 0 9.5 8a3.5 3.5 0 1 0 0 7 3.49 3.49 0 0 0 3.15-2h4.85l1.5-1.5-1.5-1.5zm-8 3.25a1.75 1.75 0 1 1 0-3.5 1.75 1.75 0 0 1 0 3.5z" opacity=".3"/><path fill="#FFF" d="M4.448 4A10.937 10.937 0 0 0 1 12c0 6.065 4.935 11 11 11s11-4.935 11-11S18.065 1 12 1v1c5.514 0 10 4.486 10 10s-4.486 10-10 10S2 17.514 2 12a9.94 9.94 0 0 1 3-7.143V7h1V3H2v1h2.448z"/></g></svg>