<svg width="48" height="48" xmlns="http://www.w3.org/2000/svg"><g fill="none" fill-rule="evenodd"><path d="M0 0h48v48H0z"/><path d="M26.238 5.27c-1.011-1.694-3.463-1.694-4.476 0L1.266 39.587c-1.037 1.738.212 3.943 2.238 3.943h40.993c2.023 0 3.276-2.205 2.238-3.941L26.236 5.27h.002zm-.269 11.37l-.241 14.676h-3.459l-.243-14.675h3.945-.002zm-1.977 21.813c-1.263 0-2.25-.974-2.25-2.221 0-1.245.987-2.22 2.25-2.22 1.269 0 2.264.975 2.264 2.22s-.994 2.22-2.264 2.22z" fill="#0B1F35" fill-rule="nonzero"/></g></svg>