<svg xmlns="http://www.w3.org/2000/svg" width="36" height="36" viewBox="0 0 36 36"><path fill="none" d="M0 0h36v36H0z"/><path fill="#0B1F35" d="M14 22c-4.38 0-7-5.19-7-10.21C7 8.16 7.8 4 14 4s7 4.16 7 7.79C21 16.81 18.38 22 14 22zm0-17c-4.26 0-6 2-6 6.79C8 15.61 9.86 21 14 21s6-5.39 6-9.21C20 7 18.26 5 14 5z"/><path fill="#0B1F35" d="M2 34H1c0-5.19 3.18-6.83 5.28-7.91.35-.18.67-.35 1-.52l.6-.34C9.32 24.39 10 24 10 20h1c0 4.39-.87 5.08-2.67 6.1l-.57.33c-.3.18-.65.36-1 .55C4.63 28.07 2 29.42 2 34zm25 0h-1c0-4.58-2.63-5.93-4.74-7-.37-.19-.71-.37-1-.55l-.57-.33c-1.8-1-2.67-1.71-2.67-6.1h1c0 4 .68 4.39 2.16 5.23l.6.34c.28.17.61.34 1 .52C23.82 27.17 27 28.81 27 34zm-7.5-22.75zM7.76 12.5h.01-.01zM23.5 19a5.29 5.29 0 0 1-4.21-2.22l.79-.62A4.27 4.27 0 0 0 23.5 18c3.4 0 5.5-4.49 5.5-8.64C29 4.84 27.41 3 23.5 3c-2.57 0-4.13.81-4.89 2.56l-.92-.4C18.62 3 20.52 2 23.5 2 29.26 2 30 5.93 30 9.36 30 14.1 27.57 19 23.5 19z"/><path fill="#0B1F35" d="M35 30h-1c0-4.23-2.32-5.49-4.19-6.49-.33-.18-.64-.34-.91-.51l-.51-.31c-1.58-.94-2.39-1.56-2.39-5.35h1c0 3.4.62 3.74 1.9 4.5l.53.32c.25.16.54.31.85.48 1.88 1 4.72 2.53 4.72 7.36zM29.5 9.25zM17.77 10.5z"/></svg>