<svg width="30" height="30" viewBox="0 0 30 30" xmlns="http://www.w3.org/2000/svg"><g fill="none" fill-rule="evenodd"><path d="M15 .968C7.25.968.968 7.25.968 15S7.25 29.032 15 29.032 29.032 22.75 29.032 15 22.75.968 15 .968zM15 0c8.284 0 15 6.716 15 15 0 8.284-6.716 15-15 15-8.284 0-15-6.716-15-15C0 6.716 6.716 0 15 0z" fill="#FFF" fill-rule="nonzero"/><path d="M7.566 7.566h15.836v15.836H7.566z"/><path fill="#FFF" fill-rule="nonzero" d="M12.757 18.758L8.42 14.613l-.68.701 5.016 5.015 9.853-9.853-.852-.83z"/></g></svg>