<svg xmlns="http://www.w3.org/2000/svg" width="17" height="28" viewBox="0 0 17 28"><path fill="#FFF" fill-rule="evenodd" d="M9 28v-2.01c4.287-.23 7.506-2.914 7.506-6.29 0-3.349-1.855-5-7.025-6.3L9 13.39V2.631c3.295.197 6.068 2.384 6.325 4.939h.785C15.77 4.606 12.706 2.189 9 2.003V0H8v2.007c-3.966.213-6.946 2.781-6.946 6.008 0 3.099 1.82 4.706 6.652 5.92l.294.003v11.425c-3.544-.217-6.369-2.553-6.694-5.504h-.8c.236 3.372 3.34 5.922 7.494 6.133V28h1zm.033-13.868c5.003 1.197 6.775 2.679 6.775 5.663 0 3.072-2.922 5.464-6.809 5.574V14.125l.034.007zM1.845 7.825C1.845 4.936 4.47 2.681 8 2.543v10.56c-3.898-.95-6.155-2.12-6.155-5.278z"/></svg>