<svg width="48" height="48" viewBox="0 0 48 48" xmlns="http://www.w3.org/2000/svg"><g fill="none" fill-rule="evenodd"><path d="M0 0h48v48H0z"/><path d="M16.187 31.751l2.346-14.492h3.755L19.94 31.752h-3.753zm21.155-2.152l-.783 2.152h-3.912l5.598-13.412s.34-1.08 1.733-1.08h3.018L46 31.752h-3.446l-.44-2.152h-4.772zm-14.53-1.672c1.537 1.241 6.195 1.593 6.195-.373s-5.192-2.013-5.192-5.757c0-3.978 4.423-4.797 6.286-4.797 1.722 0 3.376.631 3.376.631l-.536 3.113c-1.607-.89-5.262-1.1-5.262.538 0 1.639 5.238 1.99 5.238 5.758 0 3.627-3.865 4.96-6.426 4.96s-4.237-.819-4.237-.819l.558-3.254zM7.765 18.564l1.263 6.518.424 2.146 3.578-9.967h4.04l-5.972 14.492h-3.91L3.93 19.178c-.074-.044-.148-.095-.221-.137a14.39 14.39 0 0 0-.897-.483c-.102-.05-.208-.105-.306-.151a15.26 15.26 0 0 0-.621-.273 15.114 15.114 0 0 0-.782-.3l-.222-.073a8.842 8.842 0 0 0-.314-.101c-.061-.02-.12-.036-.172-.051a6.47 6.47 0 0 0-.208-.057l-.091-.024A3.774 3.774 0 0 0 0 17.506l.069-.247h5.916c1.628 0 1.78 1.305 1.78 1.305zm32.63 2.637l-1.972 5.423h3.082l-1.11-5.422z" fill="#0F2338"/></g></svg>