<svg xmlns="http://www.w3.org/2000/svg" width="36" height="44" viewBox="0 0 36 44"><g fill="none" fill-rule="evenodd" transform="translate(-6 -2)"><path d="M0 0h48v48H0z"/><path fill="#FFF" d="M10.5 46h27c2.481 0 4.5-2.019 4.5-4.5v-35C42 4.019 39.981 2 37.5 2h-27A4.505 4.505 0 0 0 6 6.5v35c0 2.481 2.019 4.5 4.5 4.5zM7 6.5C7 4.57 8.57 3 10.5 3h27C39.43 3 41 4.57 41 6.5v35c0 1.93-1.57 3.5-3.5 3.5h-27C8.57 45 7 43.43 7 41.5v-35z"/><path fill="#FFF" d="M24 39c6.065 0 11-4.935 11-11s-4.935-11-11-11-11 4.935-11 11 4.935 11 11 11zm0-20c3.208 0 6.022 1.693 7.616 4.226C29.532 23.825 28 25.722 28 28s1.532 4.175 3.616 4.774C30.022 35.307 27.208 37 24 37c-4.963 0-9-4.038-9-9s4.037-9 9-9zm0-11h10v4H24z" opacity=".3"/><circle cx="16" cy="10" r="3" fill="#FFF" opacity=".3"/></g></svg>