<svg xmlns="http://www.w3.org/2000/svg" width="36" height="32" viewBox="0 0 36 32"><g fill="none" fill-rule="evenodd"><path d="M0-3h36v36H0z"/><path fill="#FFF" fill-rule="nonzero" d="M1.879 4.036A3 3 0 0 0 1 6.156V27.5a3 3 0 0 0 3 3h28a3 3 0 0 0 3-3v-19a3 3 0 0 0-3-3H17.465l-2.11-3.164A3 3 0 0 0 12.86 1H6.157a3 3 0 0 0-2.121.879L1.879 4.036zm-.707-.708l2.156-2.156A4 4 0 0 1 6.157 0h6.702a4 4 0 0 1 3.328 1.781L18 4.5h14a4 4 0 0 1 4 4v19a4 4 0 0 1-4 4H4a4 4 0 0 1-4-4V6.157a4 4 0 0 1 1.172-2.829z"/><path fill="#FFF" d="M9 13.5h18v3H9zm0 6h18v3H9z" opacity=".3"/></g></svg>