<svg width="24" height="24" viewBox="0 0 24 24" xmlns="http://www.w3.org/2000/svg">
  <g fill-rule="nonzero" fill="none">
    <path d="M4.07 16.018c-.296-.516-.517-1.106-.517-1.77V7.023c-.96.22-1.696.885-2.138 1.696v4.57c.583 1.16 1.51 2.113 2.654 2.728" fill="#D4132F"/>
    <path d="M4.438 6.138h2.138c.59 0 1.106-.516 1.106-1.106C7.682 4.442 7.166 4 6.576 4H4.438c-.804-.01-1.58.307-2.147.876-.568.568-.884 1.343-.875 2.147v.96C1.93 6.875 3.11 6.137 4.438 6.137" fill="#940449"/>
    <path d="M11 4v10.25c0 1.99-1.696 3.612-3.687 3.612-2.36 0-4.72-1.327-5.9-3.54C1.49 17.42 4.07 20 7.314 20s5.9-2.58 5.9-5.75V6.137L11 4z" fill="#2865A7"/>
    <path d="M16.456 4H11l2.212 2.138h3.54c1.547 0 3.096.664 4.276 1.696C20.585 5.622 18.742 4 16.456 4z" fill="#B10540"/>
    <path d="M20.806 10.267c.22-.59.295-1.327.295-1.696-.663-.59-1.62-1.18-2.653-1.474.295.37.516 1.032.516 1.548s-.147.96-.442 1.475c-.294.44-.294 1.03.222 1.326.96.516 1.622 1.475 1.696 2.507.078.798-.103 1.6-.516 2.286 1.18-.59 2.138-1.55 2.654-2.655-.147-1.18-.664-2.285-1.77-3.318" fill="#D4132F"/>
    <path d="M17.267 17.788h-3.465c-.59 0-1.106.516-1.106 1.106 0 .59.516 1.106 1.106 1.106h3.465c2.95 0 5.456-2.507 5.382-5.604-.738 1.917-2.728 3.392-5.383 3.392" fill="#940449"/>
  </g>
</svg>
