<svg xmlns="http://www.w3.org/2000/svg" width="35" height="44" viewBox="0 0 35 44"><g fill="none" fill-rule="evenodd"><path d="M-5-2h48v48H-5z"/><path fill="#FFF" d="M31.5 44h-28C1.6 44 0 42.4 0 40.5v-37C0 1.6 1.6 0 3.5 0h21.2L35 10.3v30.2c0 1.9-1.6 3.5-3.5 3.5zM3.5 1C2.1 1 1 2.1 1 3.5v37C1 41.9 2.1 43 3.5 43h28c1.4 0 2.5-1.1 2.5-2.5V10.7L24.3 1H3.5z"/><path fill="#FFF" d="M10.3 20H7v2h3v2H7v2h3.3c1 5 4.8 8 10.2 8 1.7 0 3.2-.3 4.5-.8v-2.3c-1.2.6-2.8.6-4.7.6-3.5 0-6-2-6.9-5.4H23v-2H13v-2h10v-2h-9.6c.9-3.5 3.4-5.6 6.9-5.6 1.9 0 3.5 0 4.7.6v-2.2c-1.3-.5-2.8-.8-4.5-.8-5.4-.1-9.2 2.9-10.2 7.9z" opacity=".3"/></g></svg>