<svg width="30" height="30" viewBox="0 0 30 30" xmlns="http://www.w3.org/2000/svg"><g fill="none" fill-rule="evenodd"><path d="M0 0h30v30H0z"/><path d="M10.117 19.844l1.466-9.057h2.347l-1.467 9.057h-2.346zM23.339 18.5l-.49 1.345h-2.445l3.5-8.382s.211-.675 1.082-.675h1.886l1.878 9.057h-2.154l-.275-1.345H23.34zm-9.082-1.044c.961.775 3.872.995 3.872-.234s-3.245-1.258-3.245-3.598c0-2.486 2.765-2.998 3.93-2.998 1.076 0 2.11.395 2.11.395l-.336 1.945c-1.004-.556-3.289-.687-3.289.337 0 1.023 3.274 1.243 3.274 3.598 0 2.267-2.416 3.1-4.016 3.1s-2.648-.512-2.648-.512l.348-2.033zm-9.404-5.852l.79 4.073.264 1.342 2.237-6.23h2.525l-3.733 9.057H4.492l-2.036-7.859c-.046-.027-.092-.059-.138-.085a8.993 8.993 0 0 0-.56-.302c-.064-.032-.13-.066-.192-.095a9.538 9.538 0 0 0-.388-.17 9.446 9.446 0 0 0-.489-.188L.55 11.1a5.526 5.526 0 0 0-.196-.063l-.107-.031a4.044 4.044 0 0 0-.13-.036l-.057-.015-.06-.014.043-.154H3.74c1.018 0 1.113.816 1.113.816zm20.394 1.648l-1.233 3.389h1.926l-.693-3.39z" fill="#FFF"/></g></svg>