<svg width="24" height="24" viewBox="0 0 24 24" xmlns="http://www.w3.org/2000/svg">
  <g fill="none" fill-rule="evenodd">
    <path d="M0 0h24v24H0z"/>
    <path fill="#FFF" d="M.15 23.15l.706.706 8.233-8.232-.708-.706"/>
    <path fill="#FFF" opacity=".3" d="M15.004 5.665l-.66-.662-3.17 3.17.66.66"/>
    <path d="M14.537 20.299L3.71 9.469c.622-.46 1.383-.674 2.138-.623l-.91-.91c-.84.14-1.64.533-2.274 1.167l-.34.34 12.238 12.24.34-.34c.634-.635 1.028-1.434 1.167-2.274l-.91-.912c.05.756-.162 1.517-.623 2.14M22.862 11.228l.82-.822L13.603.324l-.823.82c-.868.87-.972 2.212-.31 3.193L9.904 6.904l.68.68 3.214-3.213-.34-.34c-.608-.61-.607-1.595.002-2.204l.14-.142 8.724 8.722-.142.142c-.61.61-1.595.61-2.205 0l-.34-.338-3.213 3.214.68.68 2.566-2.567c.98.662 2.324.56 3.192-.31M.15.857l23 23 .707-.707-23-23" fill="#FFF"/>
  </g>
</svg>
