<?xml version="1.0" encoding="UTF-8"?>
<svg width="24px" height="25px" viewBox="0 0 24 25" version="1.1" xmlns="http://www.w3.org/2000/svg" xmlns:xlink="http://www.w3.org/1999/xlink">
    <!-- Generator: Sketch 48.2 (47327) - http://www.bohemiancoding.com/sketch -->
    <title>icon_card-mastercard_m_white</title>
    <desc>Created with Sketch.</desc>
    <defs></defs>
    <g id="card" stroke="none" stroke-width="1" fill="none" fill-rule="evenodd" transform="translate(-25.000000, -35.000000)">
        <g id="icon_card-mastercard_m_white" transform="translate(26.000000, 41.000000)" fill="#FFFFFF" fill-rule="nonzero">
            <path d="M11.5012471,11.0784953 C12.6094075,11.973872 14.0293697,12.5110981 15.5799515,12.5110981 C19.1172163,12.5110981 21.9845286,9.71120236 21.9845286,6.25610158 C21.9845286,2.80100079 19.1172163,0.00215847778 15.5799515,0.00215847778 C14.0314764,0.00215847778 12.6094075,0.539384515 11.5012471,1.43476124 C12.9233161,2.58295022 13.8271199,4.31576754 13.8271199,6.25715496 C13.8271199,8.197489 12.9212093,9.9313597 11.5012471,11.0784953 Z M10.5068523,1.43476124 C9.39869191,0.539384515 7.97872976,0.00215847778 6.42814794,0.00215847778 C2.89088317,0.00215847778 0.0235708731,2.80205418 0.0235708731,6.25715496 C0.0235708731,9.71225575 2.89088317,12.5110981 6.42814794,12.5110981 C7.97662299,12.5110981 9.39869191,11.973872 10.5068523,11.0784953 C9.08478336,9.93030632 8.18097956,8.197489 8.18097956,6.25610158 C8.18097956,4.31576754 9.08689013,2.58189684 10.5068523,1.43476124 Z" id="Shape"></path>
            <path d="M10.9998362,1.58223506 C12.4398126,2.69039543 13.3594172,4.3789706 13.3594172,6.26979557 C13.3594172,8.16062055 12.4398126,9.84919572 10.9998362,10.9573561 C9.55985972,9.84919572 8.64025515,8.16062055 8.64025515,6.26979557 C8.64025515,4.3789706 9.55985972,2.69039543 10.9998362,1.58223506 Z" id="Shape"></path>
        </g>
    </g>
</svg>