<svg xmlns="http://www.w3.org/2000/svg" width="16" height="17" viewBox="0 0 16 17"><g fill="#FFF"><path d="M11.401 12.066c-.114 0-.171 0-.284.054-.171.108-.227.376-.057.59.057.108.171.162.284.215.114 0 .171 0 .284-.054.171-.162.171-.43 0-.644-.056-.054-.113-.16-.227-.16z"/><path d="M13.789 3.958C11.629.791 7.081-.015 3.556 2.186.031 4.334-1.049 8.63 1.112 11.69c1.762 2.632 5.912 3.382 8.3 2.684.91-.268 3.979-.536 6.14 1.88 0 0 .171.214.284.43 0 0 .057.107.114.053.057-.053.114-.107-.114-.483-.455-.86-1.307-1.504-2.16-1.986-.341-.162-.682-.269-.966-.376-.682-.215-1.308-.268-2.16-.376-.625-.108-1.137-.376-1.649-.698-.284-.214-.512-.43-.682-.698 0-.054-.171-.268-.171-.322 0 0-.114.484.114 1.128-2.217-.054-4.207-1.235-5.116-2.684-1.649-2.632-1.08-5.853 1.137-7.25 2.217-1.395 5.571-.375 7.39 2.149 1.137 1.557 1.478 3.435.966 4.94 0 .006-.004.012-.004.019-.943-.59-1.815-.288-1.815-.288.966-.108 1.706.644 1.706.644l.019-.036.322.304c0 .054.057.054.057.108.227.322.398.698.455 1.074 1.874-2.31 2.215-5.477.51-7.948z"/></g></svg>