<?xml version="1.0" encoding="UTF-8"?>
<svg width="48px" height="48px" viewBox="0 0 48 48" version="1.1" xmlns="http://www.w3.org/2000/svg" xmlns:xlink="http://www.w3.org/1999/xlink">
    <!-- Generator: Sketch 48.2 (47327) - http://www.bohemiancoding.com/sketch -->
    <title>icon_mypayments_xxl_black</title>
    <desc>Created with Sketch.</desc>
    <defs></defs>
    <g id="New" stroke="none" stroke-width="1" fill="none" fill-rule="evenodd">
        <g id="icon_mypayments_xxl_black">
            <rect id="ph" x="0" y="0" width="48" height="48"></rect>
            <g id="art" transform="translate(4.000000, 0.000000)" fill="#0B1F35">
                <path d="M34,6 L36.0184097,6 C38.2173813,6 40,7.79642476 40,9.98159027 L40,30 L39,30 L39,9.98159027 C39,8.64733887 38.0058594,7 36.0184097,7 L34,7 L34,6 Z M6,6 L6,7 L3.98159027,7 C2.01391602,7 1,8.1192627 1,9.98159027 L1,42.0184097 C1,43.6481934 2.05981445,45 3.98159027,45 L24,45 L24,46 L3.98159027,46 C1.78261868,46 0,44.2035752 0,42.0184097 L0,9.98159027 C0,7.78261868 1.79642476,6 3.98159027,6 L6,6 Z M8,4 L14,4 C14,4 15,0 20,0 C25,0 26,4 26,4 L32,4 L32,14 L8,14 L8,4 Z M9,5 L9,13 L31,13 L31,5 L25.4384472,5 C25.4384472,5 24.0432129,1 20,1 C15.9567871,1 14.5615528,5 14.5615528,5 L9,5 Z" id="Combined-Shape" fill-rule="nonzero"></path>
                <polygon id="Shape" points="34 46 34 40 40 40 40 39 34 39 34 33 33 33 33 39 27 39 27 40 33 40 33 46"></polygon>
                <path d="M8,22 L32,22 L32,26 L8,26 L8,22 Z M8,30 L24,30 L24,34 L8,34 L8,30 Z" id="Combined-Shape" opacity="0.300000012"></path>
            </g>
        </g>
    </g>
</svg>