<svg xmlns="http://www.w3.org/2000/svg" width="22" height="19" viewBox="0 0 22 19"><g fill="#0B1F35" fill-rule="evenodd"><path d="M20.013 6.66L21 6v7h-1zM11 6.56c.966 0 1.75-.262 1.75-.584 0-.322-.784-.583-1.75-.583-.967 0-1.751.26-1.751.583 0 .322.784.584 1.75.584z" opacity=".3"/><path d="M16.838 15.7a10.87 10.87 0 0 1-1.333.946c-1.409.852-2.931 1.359-4.505 1.359-1.574 0-3.096-.507-4.505-1.359A11.005 11.005 0 0 1 5 15.563V10H4v6s2.94 3.005 7 3.005c4.06 0 7-3.005 7-3.005v-6h-1v5.563a10.2 10.2 0 0 1-.162.137zM11 0L0 6.023l11 5.964 11-5.964L11 0zm8.9 6.018L11 10.844 2.1 6.018 11 1.146l8.9 4.872z"/></g></svg>