<svg xmlns="http://www.w3.org/2000/svg" width="24" height="24" viewBox="0 0 24 24"><g fill="none" fill-rule="evenodd"><path d="M0 0h24v24H0z"/><path fill="#FFFFFF" d="M12 15c-3.8 0-6-4.3-6-8.5 0-3 .7-6.5 6-6.5s6 3.5 6 6.5c0 4.2-2.2 8.5-6 8.5zm0-14C8.4 1 7 2.6 7 6.5 7 9.6 8.6 14 12 14s5-4.4 5-7.5C17 2.6 15.6 1 12 1z"/><path fill="#FFFFFF" d="M1 24H0c0-3.7 4.7-6.1 6.2-6.9 2-1 2.3-1.4 2.3-3.8h1c0 2.8-.5 3.5-2.9 4.7-1.3.7-5.6 2.9-5.6 6zm23 0h-1c0-3.1-4.3-5.3-5.7-6-2.4-1.2-2.9-2-2.9-4.7h1c0 2.5.4 2.9 2.3 3.8 1.6.8 6.3 3.2 6.3 6.9z"/></g></svg>