<svg xmlns="http://www.w3.org/2000/svg" width="18" height="18" version="1" viewBox="0 0 18 18"><path fill="#0B1F35" d="M14 5h-1V1.559A.56.56 0 0 0 12.441 1H5.707L2 4.707V5H1v-.707L5.293 0h7.148C13.301 0 14 .699 14 1.559V5zm-1.5 12h-10c-.827 0-1.5-.673-1.5-1.5h1a.5.5 0 0 0 .5.5h10c.275 0 .5-.225.5-.5h1c0 .827-.673 1.5-1.5 1.5zM11 13H9.764L7.266 8.9l-.026.004V13H6V7h1.24l2.499 4.096.025-.004V7H11v6zm6-.881c-.188.229-.48.434-.876.612-.398.18-.899.269-1.505.269-.77 0-1.4-.221-1.887-.665-.488-.442-.732-1.018-.732-1.726V9.392c0-.705.235-1.28.704-1.724S13.777 7 14.515 7c.767 0 1.356.173 1.764.52.408.345.617.8.625 1.363l-.008.025h-1.191c-.024-.31-.13-.556-.321-.736s-.469-.27-.835-.27c-.387 0-.699.138-.935.414-.237.276-.355.631-.355 1.067v1.224c0 .444.122.803.368 1.079.245.276.576.414.991.414.295 0 .532-.028.71-.084.179-.056.315-.125.407-.208V10.73h-1.117v-.81H17v2.199zM2 10.824V13H1V7h2.279c.689 0 1.232.176 1.628.527.395.352.593.815.593 1.389s-.198 1.036-.593 1.385c-.396.349-.939.523-1.628.523H2zM2 10h1.39c.335 0 .589-.091.762-.274.174-.183.26-.443.26-.726 0-.288-.086-.53-.258-.718S3.728 8 3.39 8H2v2z"/></svg>