<svg xmlns="http://www.w3.org/2000/svg" width="21" height="23" viewBox="0 0 21 23"><g fill="none" fill-rule="evenodd"><path d="M-2 0h24v24H-2z"/><path fill="#FFF" d="M13.25 13.5A2.252 2.252 0 0 0 11 15.75 2.252 2.252 0 0 0 13.25 18a2.252 2.252 0 0 0 2.25-2.25 2.252 2.252 0 0 0-2.25-2.25zm0 3.5a1.25 1.25 0 1 1 0-2.5 1.25 1.25 0 0 1 0 2.5zm-5.5-4.5A2.252 2.252 0 0 0 10 10.25 2.252 2.252 0 0 0 7.75 8a2.252 2.252 0 0 0-2.25 2.25 2.252 2.252 0 0 0 2.25 2.25zm0-3.5a1.25 1.25 0 1 1 0 2.5 1.25 1.25 0 0 1 0-2.5zm-1.262 7.906l7.267-8.463.758.652-7.266 8.462z" opacity=".3"/><path fill="#FFF" d="M20 12.5c0-5.07-3.995-9.212-9-9.475V0h-1v3.025C4.995 3.288 1 7.43 1 12.5a9.474 9.474 0 0 0 3.306 7.187l-1.553 2.155.812.585 1.531-2.124A9.436 9.436 0 0 0 10.5 22a9.442 9.442 0 0 0 5.284-1.61l1.489 2.065.812-.585-1.501-2.082A9.486 9.486 0 0 0 20 12.5zM10.5 21C5.813 21 2 17.187 2 12.5 2 7.813 5.813 4 10.5 4c4.687 0 8.5 3.813 8.5 8.5 0 4.687-3.813 8.5-8.5 8.5z"/><path fill="#FFF" d="M6.424 2.243l-.71-1.87A13.596 13.596 0 0 0 .529 3.899l1.477 1.349a11.571 11.571 0 0 1 4.418-3.005zm8.151 0a11.571 11.571 0 0 1 4.418 3.005l1.477-1.349A13.574 13.574 0 0 0 15.285.373l-.71 1.87z" opacity=".3"/></g></svg>