<svg xmlns="http://www.w3.org/2000/svg" width="28" height="9" viewBox="0 0 28 9"><path fill="#FFF" fill-rule="evenodd" d="M9.892 8.85h2.263L13.57.156h-2.263zM24.238.156c-.84 0-1.045.648-1.045.648l-3.376 8.047h2.359l.472-1.291h2.878l.266 1.291h2.078L26.058.156h-1.82zm-.937 5.619l1.189-3.254.669 3.254h-1.858zm-9.414.782l-.337 1.952S14.561 9 16.105 9c1.544 0 3.875-.8 3.875-2.977 0-2.261-3.159-2.471-3.159-3.454 0-.983 2.204-.857 3.173-.323l.323-1.867S19.32 0 18.281 0c-1.123 0-3.791.491-3.791 2.878 0 2.247 3.131 2.274 3.131 3.454.001 1.18-2.807.969-3.734.225zM4.813.939S4.721.156 3.739.156H.172L.13.303l.06.014.048.012C.272.338.319.35.37.365l.101.029a11.355 11.355 0 0 1 .325.104c.106.037.223.08.348.129l.116.047c.121.05.249.105.382.167.06.028.123.06.185.091a9.498 9.498 0 0 1 .541.289c.044.025.089.055.133.082l1.964 7.545h2.358L10.424.153H7.988L5.83 6.133l-.255-1.288L4.813.939z"/></svg>