<?xml version="1.0" encoding="UTF-8"?>
<svg width="24px" height="24px" viewBox="0 0 24 24" version="1.1" xmlns="http://www.w3.org/2000/svg" xmlns:xlink="http://www.w3.org/1999/xlink">
    <!-- Generator: Sketch 48.2 (47327) - http://www.bohemiancoding.com/sketch -->
    <title>icon_account-rub_m_black</title>
    <desc>Created with Sketch.</desc>
    <defs></defs>
    <g id="mobile" stroke="none" stroke-width="1" fill="none" fill-rule="evenodd" transform="translate(-748.000000, -153.000000)">
        <g id="Headings" transform="translate(64.000000, 77.000000)"></g>
        <g id="icon_tool_account_rub__m__white" transform="translate(748.000000, 153.000000)">
            <g id="ungroup">
                <rect id="Rectangle-path" x="0" y="0" width="24" height="24"></rect>
                <path d="M19,23 L5,23 C3.9,23 3,22.1 3,21 L3,3 C3,1.9 3.9,1 5,1 L15.7,1 L21,6.3 L21,21 C21,22.1 20.1,23 19,23 L19,23 Z M5,2 C4.4,2 4,2.4 4,3 L4,21 C4,21.6 4.4,22 5,22 L19,22 C19.6,22 20,21.6 20,21 L20,6.7 L15.3,2 L5,2 L5,2 Z" id="Shape" fill="#0B1F35"></path>
                <g id="Group" opacity="0.3" transform="translate(7.000000, 7.000000)" fill="#0B1F35">
                    <path d="M2,11 L3,11 L3,9 L7,9 L7,8 L3,8 L3,7 L5.3,7 C7.4,7 9,5.4 9,3.5 C9,1.6 7.4,0 5.3,0 L2,0 L2,6 L0,6 L0,7 L2,7 L2,8 L0,8 L0,9 L2,9 L2,11 L2,11 Z M3,1 L5.1,1 C6.8,1 8,2 8,3.5 C8,5 6.8,6 5.1,6 L3,6 L3,1 L3,1 Z" id="Shape"></path>
                </g>
            </g>
        </g>
    </g>
</svg>