<svg xmlns="http://www.w3.org/2000/svg" width="48" height="48" viewBox="0 0 48 48"><g fill="none" fill-rule="evenodd"><path d="M0 0h48v48H0z"/><path fill="#FFF" d="M2.579 46H45.5a.5.5 0 0 0 .5-.5V23.436a.5.5 0 0 0-.5-.5H29V2.5a.502.502 0 0 0-.697-.459L2.382 13.138a.5.5 0 0 0-.303.459V45.5a.5.5 0 0 0 .5.5zM29 23.936h16V45H29V23.936zM3.079 13.927L28 3.258V45H3.079V13.927z"/><path fill="#FFF" d="M34.5 24a.5.5 0 0 0 .5-.5v-7a.5.5 0 0 0-1 0v7a.5.5 0 0 0 .5.5zm.5 5h4v6h-4zM9 30h4v6H9zm0-11h4v6H9zm8-5h4v6h-4zm22.5 10a.5.5 0 0 0 .5-.5v-3a.5.5 0 0 0-1 0v3a.5.5 0 0 0 .5.5z" opacity=".3"/></g></svg>