<svg xmlns="http://www.w3.org/2000/svg" width="36" height="36" viewBox="0 0 36 36"><g fill="none" fill-rule="evenodd"><path d="M0 0h36v36H0z"/><path fill="#0B1F35" d="M5 12v19.465C5 33.415 6.57 35 8.5 35h18c1.93 0 3.5-1.585 3.5-3.535V12h-1v19.465C29 32.863 27.878 34 26.5 34h-18C7.122 34 6 32.863 6 31.465V12H5zM3 8.5C3 7.122 4.122 6 5.5 6h24C30.878 6 32 7.122 32 8.5V12h1V8.5C33 6.57 31.43 5 29.5 5H23V2.833C23 1.822 22.028 1 20.833 1h-6.667C12.972 1 12 1.822 12 2.833V5H5.5C3.57 5 2 6.57 2 8.5V12h1V8.5zm10-5.667c0-.451.534-.833 1.167-.833h6.667c.632 0 1.166.382 1.166.833V5h-9V2.833z"/><path fill="#0B1F35" d="M12 14h3v14h-3zm8 0h3v14h-3z" opacity=".3"/></g></svg>