<svg xmlns="http://www.w3.org/2000/svg" width="16" height="16" viewBox="0 0 16 16"><path fill="#FFF" fill-rule="evenodd" d="M13 4.706h-1V1.467c0-.29-.251-.526-.559-.526H4.707L1 4.431v.275H0V4.04L4.293 0h7.148C12.301 0 13 .658 13 1.467v3.239zM11.5 16h-10C.673 16 0 15.367 0 14.588h1c0 .26.224.47.5.47h10c.275 0 .5-.21.5-.47h1c0 .779-.673 1.412-1.5 1.412zM10 12.235H8.764L6.266 8.376l-.026.004v3.855H5V6.588h1.24l2.499 3.855.025-.003V6.588H10zm6-.829c-.188.216-.48.409-.876.576-.398.17-.899.253-1.505.253-.77 0-1.4-.208-1.887-.626-.488-.416-.732-.958-.732-1.624V8.84c0-.664.235-1.205.704-1.623.469-.418 1.073-.629 1.811-.629.767 0 1.356.163 1.764.49.408.324.617.753.625 1.282l-.008.024h-1.191c-.024-.292-.13-.523-.321-.693-.191-.17-.469-.254-.835-.254-.387 0-.699.13-.935.39-.237.26-.355.594-.355 1.004v1.152c0 .418.122.756.368 1.016.245.26.576.39.991.39.295 0 .532-.027.71-.08a1.12 1.12 0 0 0 .407-.196V10.1h-1.117v-.763H16v2.07zM1 10.187v2.048H0V6.588h2.279c.689 0 1.232.166 1.628.496.395.332.593.767.593 1.308 0 .54-.198.975-.593 1.303-.396.329-.939.492-1.628.492H1zm0-.775h1.39c.335 0 .589-.086.762-.258a.945.945 0 0 0 .26-.683.934.934 0 0 0-.258-.676c-.172-.177-.426-.266-.764-.266H1v1.883z"/></svg>