<svg xmlns="http://www.w3.org/2000/svg" width="16" height="18" viewBox="0 0 16 18"><path fill="#FFF" fill-rule="evenodd" d="M3.751 7.147h-.592a.124.124 0 0 0-.126.12v2.26c0 .066.057.12.126.12h2.544l-.412.39a.115.115 0 0 0 0 .169l1.688 1.6a.131.131 0 0 0 .178 0l1.787-1.694v.553c0 .065.057.119.126.119h2.387a.124.124 0 0 0 .126-.12V8.247l.425.403a.131.131 0 0 0 .178 0l1.688-1.6a.115.115 0 0 0 0-.168l-2.539-2.406.726.688h.596a.124.124 0 0 0 .126-.12v-2.26a.124.124 0 0 0-.126-.12h-2.543l.413-.391a.115.115 0 0 0 0-.169L8.838.505a.131.131 0 0 0-.178 0l-1.805 1.71.01-.01v-.562a.123.123 0 0 0-.126-.12H4.352a.124.124 0 0 0-.126.12v2.42l-.422-.401a.131.131 0 0 0-.178 0L1.938 5.26a.115.115 0 0 0 0 .168l1.813 1.718zM6.74 5.163a.123.123 0 0 0 .126-.12v-1.08l-.745-.884 1.688 1.6a.131.131 0 0 0 .178 0l.83-.787.123-1.11v2.262c0 .065.057.12.126.12h1.188l.903-.689-1.688 1.6a.115.115 0 0 0 0 .168l.828.785 1.161.116H9.07a.122.122 0 0 0-.126.119v1.062l.752.905-1.688-1.599a.131.131 0 0 0-.178 0l-.805.763-.15 1.133V7.265c0-.065-.057-.119-.126-.119H5.544l-.889.689 1.688-1.6a.115.115 0 0 0 0-.168l-.845-.8-1.146-.104H6.74zM3.339 15.229a.146.146 0 0 1 .07-.074.306.306 0 0 1 .143-.028h.906c.026 0 .044-.005.054-.016.01-.01.014-.03.014-.06v-.286c.001-.032-.004-.053-.012-.065-.01-.011-.029-.016-.057-.016H3.434a.823.823 0 0 0-.305.052.535.535 0 0 0-.315.34.721.721 0 0 0-.035.233v1.121a.826.826 0 0 0 .029.228c.02.073.054.139.103.199a.505.505 0 0 0 .202.14.85.85 0 0 0 .324.056h1.055c.028 0 .047-.006.057-.02.01-.012.015-.032.014-.058v-.287c.001-.033-.004-.055-.013-.066-.01-.01-.029-.017-.058-.016h-.941a.365.365 0 0 1-.128-.017.14.14 0 0 1-.077-.061.249.249 0 0 1-.026-.123v-.386h1.023c.028 0 .046-.006.055-.019.009-.013.013-.032.012-.059v-.263c.001-.031-.004-.053-.012-.064-.009-.012-.027-.017-.055-.017H3.32v-.26a.265.265 0 0 1 .019-.108zm4.882.788a.296.296 0 0 1 .143.084.47.47 0 0 1 .093.178l.218.726c.008.022.018.034.031.04a.095.095 0 0 0 .039.008h.414c.02-.001.034-.005.042-.013a.042.042 0 0 0 .013-.027c0-.01-.002-.02-.005-.029l-.221-.783a1.552 1.552 0 0 0-.045-.138.458.458 0 0 0-.063-.112.364.364 0 0 0-.099-.09.678.678 0 0 0-.153-.068v-.017a.588.588 0 0 0 .191-.172.697.697 0 0 0 .112-.25l.164-.602a.06.06 0 0 0 .005-.027.042.042 0 0 0-.013-.028c-.008-.007-.023-.01-.042-.012h-.4a.108.108 0 0 0-.041.008c-.014.004-.024.019-.03.04l-.16.568a.483.483 0 0 1-.076.165.309.309 0 0 1-.105.09.386.386 0 0 1-.117.04.67.67 0 0 1-.112.007h-.286v-.858c.005-.025.003-.04-.007-.047a.09.09 0 0 0-.05-.007h-.417a.097.097 0 0 0-.048.007c-.011.007-.016.022-.016.047v2.253c0 .024.005.04.016.046a.08.08 0 0 0 .048.008h.414a.095.095 0 0 0 .049-.008c.01-.006.015-.022.015-.046l-.004-1.004h.292a.8.8 0 0 1 .211.023zm2.505-1.269a.16.16 0 0 0-.086-.052.564.564 0 0 0-.131-.012h-.214a.41.41 0 0 0-.121.015.175.175 0 0 0-.083.056.319.319 0 0 0-.056.114l-.742 2.115a.066.066 0 0 0 .001.049c.007.012.023.019.049.02h.417c.033 0 .056-.005.07-.016a.086.086 0 0 0 .03-.049l.14-.429h.817l.139.44c.007.024.02.04.037.046a.16.16 0 0 0 .067.008h.424c.018-.001.03-.004.038-.012a.035.035 0 0 0 .013-.026.06.06 0 0 0-.005-.03l-.742-2.115a.378.378 0 0 0-.062-.122zm2.393-.008a1.077 1.077 0 0 0-.349-.056h-.874c-.056 0-.1.01-.131.026a.137.137 0 0 0-.065.072.282.282 0 0 0-.017.109v2.09c0 .027.007.046.02.056.012.01.033.016.062.016h.374a.26.26 0 0 0 .054-.004c.012-.004.021-.01.025-.02a.112.112 0 0 0 .007-.046v-.788h.474c.133 0 .248-.014.346-.04a.827.827 0 0 0 .245-.108.648.648 0 0 0 .162-.15.709.709 0 0 0 .141-.335.787.787 0 0 0-.047-.433.73.73 0 0 0-.427-.39zm.531-.042c-.01.01-.014.029-.014.057v.3c0 .022.005.04.017.05.011.012.028.018.051.018h.631v1.858c0 .026.007.045.02.056.013.01.034.016.062.016h.382c.035 0 .058-.004.07-.015.012-.01.017-.028.016-.056v-1.858h.645a.08.08 0 0 0 .053-.017c.013-.012.018-.029.018-.05v-.3c.001-.03-.004-.048-.014-.058-.01-.01-.029-.014-.057-.014h-1.826c-.026 0-.044.003-.054.013zM.745 17.032c.031.014.075.02.133.02h.899a.993.993 0 0 0 .337-.055.868.868 0 0 0 .272-.155.7.7 0 0 0 .247-.532.998.998 0 0 0-.008-.137.765.765 0 0 0-.038-.163.631.631 0 0 0-.247-.317.826.826 0 0 0-.25-.106c-.1-.026-.221-.04-.362-.04h-.522v-.423h1.077c.026 0 .043-.004.052-.013.008-.01.013-.027.012-.052v-.3c.001-.028-.004-.048-.012-.059-.009-.011-.026-.016-.052-.016H.892a.3.3 0 0 0-.135.025.14.14 0 0 0-.072.076.307.307 0 0 0-.021.13v1.935c0 .048.005.087.017.117.012.03.033.052.064.065zm5.581.005c.011.008.03.013.056.012h.396a.191.191 0 0 0 .049-.005c.011-.004.018-.01.021-.018a.103.103 0 0 0 .004-.038v-2.077a.325.325 0 0 0-.021-.126.152.152 0 0 0-.072-.076.31.31 0 0 0-.134-.025h-1.28a.316.316 0 0 0-.133.023.148.148 0 0 0-.07.074.402.402 0 0 0-.026.13l-.032.513c-.011.175-.022.327-.035.456-.02.214-.042.726-.335.726-.03 0-.049.005-.058.016-.009.01-.013.033-.013.066v.287c0 .027.004.046.014.059.01.012.029.019.057.019.227 0 .425-.017.595-.262a1.05 1.05 0 0 0 .131-.254c.033-.094.059-.202.078-.32a5.17 5.17 0 0 0 .047-.39c.012-.14.024-.294.036-.46l.014-.238h.695v1.858c.001.026.006.042.016.05z"/></svg>