<svg xmlns="http://www.w3.org/2000/svg" width="34" height="47" viewBox="0 0 34 47"><g fill="none" fill-rule="evenodd"><path d="M-7-1h48v48H-7z"/><path fill="#0B1F35" d="M12 45.542c0 .92.746 1.458 1.667 1.458h6.667c.92 0 1.666-.538 1.666-1.458V42H12v3.542z" opacity=".3"/><path fill="#0B1F35" d="M21.912 39v-.5c0-2.586 1.932-4.337 4.377-6.554C29.725 28.831 34 24.955 34 17c0-9.374-7.626-17-17-17C7.626 0 0 7.626 0 17c0 7.955 4.275 11.831 7.711 14.946 2.446 2.217 4.377 3.968 4.377 6.554v.5h9.824zM8.383 31.205C4.922 28.067 1 24.512 1 17 1 8.178 8.178 1 17 1s16 7.178 16 16c0 7.512-3.922 11.067-7.383 14.205-2.383 2.161-4.46 4.044-4.686 6.795h-7.863c-.225-2.751-2.302-4.634-4.685-6.795z"/><path fill="#0B1F35" d="M18.833 38.5h2c0-3.986 1.379-6.719 2.838-9.61C25.308 25.646 27 22.293 27 17c0-6.097-2.643-13.15-6.382-16.09A16.524 16.524 0 0 0 17 .5c-1.245 0-2.452.149-3.618.41C9.643 3.85 7 10.903 7 17c0 5.293 1.692 8.646 3.329 11.89 1.459 2.892 2.838 5.624 2.838 9.61h2c0-4.463-1.552-7.538-3.053-10.512C10.583 24.954 9 21.816 9 17c0-6.745 3.49-14.074 7-15.301V38.5h2V1.699c3.51 1.227 7 8.556 7 15.301 0 4.816-1.583 7.954-3.114 10.988-1.501 2.974-3.053 6.049-3.053 10.512z" opacity=".3"/></g></svg>