<svg xmlns="http://www.w3.org/2000/svg" width="40" height="44" viewBox="0 0 40 44"><g fill="none" fill-rule="evenodd"><path d="M-4-2h48v48H-4z"/><path fill="#FFF" d="M13 8h7v7h-7zm0 11h19v4H13zm0 8h15v4H13z" opacity=".3"/><path fill="#FFF" d="M3.5 44C1.57 44 0 42.43 0 40.5V26h7v14.5C7 42.43 5.43 44 3.5 44zM1 27v13.5C1 41.879 2.121 43 3.5 43S6 41.879 6 40.5V27H1z"/><path fill="#FFF" d="M36.5 44h-33v-1C4.879 43 6 41.879 6 40.5V0h34v40.5c0 1.93-1.57 3.5-3.5 3.5zM5.947 43H36.5c1.379 0 2.5-1.121 2.5-2.5V1H7v39.5c0 .979-.403 1.864-1.053 2.5z"/></g></svg>