<svg xmlns="http://www.w3.org/2000/svg" width="24" height="25" viewBox="0 0 24 25"><g fill="none" fill-rule="evenodd"><path d="M0 0h24v24H0z"/><path fill="#0B1F35" d="M9.613 7.316L5.5 2.29 1.387 7.316l-.774-.632L5.5.71l4.887 5.974zM18.5 24.79l-4.887-5.974.774-.632L18.5 23.21l4.113-5.026.774.632z" opacity=".4"/><path fill="#0B1F35" d="M5.92 11.035H2V18H.193v1H2v2H.193v.955H2V24h1v-2.045h4V21H3v-2h2.912C8.396 19 10 17.252 10 14.954c0-2.288-1.595-3.919-4.08-3.919zM5.631 18H3v-6h2.631C7.646 12 9 13.225 9 14.954 9 16.693 7.637 18 5.631 18zm13.837-9.93L19 7.949V2.928c1.551.154 2.645 1.059 2.794 2.371h.999C22.675 3.503 21.119 2.194 19 2.032V1h-1v1.042c-2.146.208-3.657 1.562-3.657 3.394 0 1.64.988 2.595 3.304 3.192L18 8.72v5.343c-1.669-.194-2.838-1.16-3.002-2.54H14c.169 1.936 1.745 3.259 4 3.44V16h1v-1.032c2.44-.161 4-1.521 4-3.582 0-1.716-1.023-2.676-3.532-3.316zM18 7.686c-1.829-.49-2.618-1.179-2.618-2.294 0-1.3 1.075-2.273 2.618-2.457v4.751zm1 6.392V8.98l.214.056c1.938.495 2.765 1.238 2.765 2.484 0 1.397-1.236 2.426-2.979 2.558z"/></g></svg>
