<?xml version="1.0" encoding="UTF-8"?>
<svg width="36px" height="36px" viewBox="0 0 36 36" version="1.1" xmlns="http://www.w3.org/2000/svg" xmlns:xlink="http://www.w3.org/1999/xlink">
    <!-- Generator: Sketch 48.2 (47327) - http://www.bohemiancoding.com/sketch -->
    <title>icon_category-appliances_xl_black</title>
    <desc>Created with Sketch.</desc>
    <defs></defs>
    <g id="mobile" stroke="none" stroke-width="1" fill="none" fill-rule="evenodd" transform="translate(-1083.000000, -138.000000)">
        <g id="Headings" transform="translate(64.000000, 77.000000)">
            <g id="icon_category_appliances__xl__white" transform="translate(1019.000000, 61.000000)">
                <g id="ungroup">
                    <rect id="Rectangle-path" x="0" y="0" width="36" height="36"></rect>
                    <g id="a1" opacity="0.4"></g>
                    <path d="M7.452,34 L28.548,34 C29.927,34 31.048,32.878 31.048,31.5 L31.048,4.5 C31.048,3.122 29.927,2 28.548,2 L7.452,2 C6.073,2 4.952,3.122 4.952,4.5 L4.952,31.5 C4.952,32.878 6.073,34 7.452,34 L7.452,34 Z M5.952,4.5 C5.952,3.673 6.625,3 7.452,3 L28.548,3 C29.375,3 30.048,3.673 30.048,4.5 L30.048,31.5 C30.048,32.327 29.375,33 28.548,33 L7.452,33 C6.625,33 5.952,32.327 5.952,31.5 L5.952,4.5 L5.952,4.5 Z" id="Shape" fill="#0B1F35"></path>
                    <path d="M18,28.586 C22.214,28.586 25.643,25.157 25.643,20.943 C25.643,16.729 22.214,13.3 18,13.3 C13.786,13.3 10.357,16.729 10.357,20.943 C10.357,25.157 13.786,28.586 18,28.586 L18,28.586 Z M18,15.3 C19.962,15.3 21.692,16.308 22.703,17.832 C21.657,18.48 20.952,19.621 20.952,20.943 C20.952,22.265 21.657,23.406 22.703,24.054 C21.692,25.578 19.962,26.586 18,26.586 C14.889,26.586 12.357,24.055 12.357,20.943 C12.357,17.831 14.889,15.3 18,15.3 L18,15.3 Z" id="Shape" fill="#0B1F35" opacity="0.3"></path>
                    <rect id="Rectangle-path" fill="#0B1F35" opacity="0.3" x="18" y="6" width="8" height="3"></rect>
                    <circle id="Oval" fill="#0B1F35" opacity="0.3" cx="12.5" cy="7.5" r="2"></circle>
                </g>
            </g>
        </g>
    </g>
</svg>