<svg xmlns="http://www.w3.org/2000/svg" width="30" height="30" viewBox="0 0 30 30"><g fill="none"><rect width="30" height="30"/><path fill="#FFF" d="M15,0.967741935 C7.25019787,0.967741935 0.967741935,7.25019787 0.967741935,15 C0.967741935,22.7498021 7.25019787,29.0322581 15,29.0322581 C22.7498021,29.0322581 29.0322581,22.7498021 29.0322581,15 C29.0322581,7.25019787 22.7498021,0.967741935 15,0.967741935 Z M15,0 C23.2842712,0 30,6.71572875 30,15 C30,23.2842712 23.2842712,30 15,30 C6.71572875,30 0,23.2842712 0,15 C0,6.71572875 6.71572875,0 15,0 Z"/><polygon fill="#FFF" points="12.757 18.758 8.421 14.613 7.742 15.314 12.757 20.329 22.61 10.476 21.758 9.645"/></g></svg>