<svg xmlns="http://www.w3.org/2000/svg" width="18" height="18" version="1" viewBox="0 0 18 18"><path fill="#0B1F35" d="M12.5 17h-10c-.827 0-1.5-.673-1.5-1.5V4.293L5.293 0h7.148C13.301 0 14 .699 14 1.559V5h-1V1.559A.56.56 0 0 0 12.441 1H5.707L2 4.707V15.5a.5.5 0 0 0 .5.5h10c.275 0 .5-.225.5-.5h1c0 .827-.673 1.5-1.5 1.5z"/><path fill="#0B1F35" d="M8 13H7V8H5.573v-.793L8 6.992V13zm6.462-2.071l.008.024c.011.627-.177 1.126-.561 1.494S12.993 13 12.31 13c-.685 0-1.241-.226-1.668-.677s-.641-1.032-.641-1.742V9.423c0-.707.208-1.288.625-1.742.417-.454.958-.681 1.625-.681.703 0 1.253.185 1.648.555.396.37.589.874.578 1.512l-.007.024h-1.109c0-.385-.09-.679-.27-.883s-.46-.306-.84-.306c-.341 0-.717.142-.917.426-.2.284-.334.646-.334 1.086v1.165c0 .446.139.81.35 1.094.211.284.6.426.96.426.356 0 .62-.098.791-.294.171-.196.256-.488.256-.875h1.105z"/></svg>