<svg xmlns="http://www.w3.org/2000/svg" width="36" height="36" viewBox="0 0 36 36"><g fill="none"><rect width="36" height="36"/><path fill="#0B1F35" d="M18,0.972972973 C8.59623264,0.972972973 0.972972973,8.59623264 0.972972973,18 C0.972972973,27.4037674 8.59623264,35.027027 18,35.027027 C27.4037674,35.027027 35.027027,27.4037674 35.027027,18 C35.027027,8.59623264 27.4037674,0.972972973 18,0.972972973 Z M18,0 C27.9411255,0 36,8.0588745 36,18 C36,27.9411255 27.9411255,36 18,36 C8.0588745,36 0,27.9411255 0,18 C0,8.0588745 8.0588745,0 18,0 Z"/><polygon fill="#0B1F35" points="18 17.222 23.975 11.247 24.753 12.025 18.778 18 24.753 23.975 23.975 24.753 18 18.778 12.025 24.753 11.247 23.975 17.222 18 11.247 12.025 12.025 11.247"/></g></svg>