<svg xmlns="http://www.w3.org/2000/svg" width="18" height="18" version="1" viewBox="0 0 18 18"><path fill="#1A1F71" d="M8.87 5.088L7.838 9.924H6.586L7.62 5.088h1.25zm5.264 3.122l.659-1.816.378 1.816h-1.037zm1.397 1.714h1.157l-1.011-4.836H14.61a.57.57 0 0 0-.533.354L12.2 9.923h1.314l.26-.722h1.606l.15.723zm-3.266-1.579c.005-1.276-1.764-1.347-1.753-1.917.004-.173.169-.358.53-.405a2.364 2.364 0 0 1 1.235.216l.219-1.026A3.367 3.367 0 0 0 11.326 5c-1.237 0-2.107.657-2.114 1.598-.008.696.62 1.084 1.095 1.316.488.237.65.39.649.601-.003.324-.39.468-.748.473-.63.01-.994-.17-1.285-.306l-.227 1.06c.293.134.832.251 1.39.257 1.315.002 2.175-.648 2.179-1.653M7.083 5.088L5.056 9.924H3.733l-.998-3.859c-.06-.237-.113-.324-.297-.425-.301-.163-.798-.316-1.234-.41l.029-.14h2.129c.27 0 .515.18.577.492l.527 2.8 1.3-3.292h1.317zm.886 7.405h-.724v.674h.81v.203H7V11.5h1.012v.203h-.768v.59h.724v.2zm.459-1.093h.244v1.969h-.244V11.4zm1.576 1.167c.003-.152-.064-.394-.338-.394-.25 0-.355.225-.375.394h.713zm-.716.175c.005.33.214.466.46.466a.889.889 0 0 0 .372-.069l.044.175a1.091 1.091 0 0 1-.45.086c-.412 0-.66-.275-.66-.68s.239-.72.63-.72c.442 0 .556.382.556.63 0 .05-.003.085-.008.113h-.944zm2.279.58a.935.935 0 0 1-.386.078c-.405 0-.668-.275-.668-.685 0-.413.283-.716.721-.716.144 0 .272.036.338.072l-.055.186a.592.592 0 0 0-.283-.064c-.308 0-.474.23-.474.508 0 .31.2.502.466.502.14 0 .23-.033.3-.064l.041.183zm.685-1.617v.322h.35v.186h-.35v.724c0 .167.047.261.183.261a.438.438 0 0 0 .142-.017l.011.186a.655.655 0 0 1-.216.033.346.346 0 0 1-.263-.103c-.067-.075-.094-.194-.094-.352v-.733h-.208v-.186h.208v-.25l.237-.07zm.69.741a6.64 6.64 0 0 0-.011-.42h.214l.01.267h.009c.06-.18.21-.294.374-.294.025 0 .044.003.067.005v.23c-.025-.006-.05-.006-.083-.006-.172 0-.294.128-.327.31a.805.805 0 0 0-.008.115v.716h-.244v-.924zm1.101.255c0 .294.166.516.405.516.233 0 .408-.219.408-.522 0-.227-.114-.513-.402-.513-.286 0-.41.267-.41.519m1.061-.014c0 .497-.347.713-.669.713-.36 0-.643-.266-.643-.691 0-.447.297-.71.666-.71.386 0 .646.28.646.688m.375-.297a4.92 4.92 0 0 0-.012-.363h.216l.014.222h.005a.498.498 0 0 1 .444-.25c.186 0 .474.111.474.571v.8h-.244v-.775c0-.216-.08-.397-.31-.397a.352.352 0 0 0-.328.25.355.355 0 0 0-.017.114v.807h-.244v-.979z"/></svg>