<svg xmlns="http://www.w3.org/2000/svg" width="24" height="24" viewBox="0 0 24 24"><g fill="none" fill-rule="evenodd"><path d="M0 0h24v24H0z"/><g fill="#FFF"><path d="M12.036 17.732a6.957 6.957 0 0 0 4.4 1.554c3.816 0 6.91-3.038 6.91-6.786 0-3.748-3.094-6.786-6.91-6.786a6.957 6.957 0 0 0-4.4 1.554c1.533 1.245 2.51 3.126 2.51 5.232 0 2.106-.977 3.987-2.51 5.232z" opacity=".2"/><path d="M11.964 7.268a6.957 6.957 0 0 0-4.4-1.554c-3.816 0-6.91 3.038-6.91 6.786 0 3.748 3.094 6.786 6.91 6.786a6.957 6.957 0 0 0 4.4-1.554c-1.533-1.245-2.51-3.126-2.51-5.232 0-2.106.977-3.987 2.51-5.232z" opacity=".4"/><path d="M12 7.239c1.553 1.244 2.545 3.139 2.545 5.261 0 2.122-.992 4.017-2.545 5.261-1.553-1.244-2.545-3.139-2.545-5.261 0-2.122.992-4.017 2.545-5.261z" opacity=".3"/></g></g></svg>