<svg xmlns="http://www.w3.org/2000/svg" width="36" height="36" version="1" viewBox="0 0 36 36"><path fill="#0B1F35" d="M13.435 22.834h2.515l1.573-9.661h-2.516zm14.175-1.435h3.197l.295 1.435h2.309l-2.013-9.661h-2.022c-.934 0-1.161.72-1.161.72l-3.751 8.941h2.621l.525-1.435zm2.046-5.598l.743 3.615h-2.065l1.322-3.615zm-11.782 4.484l-.374 2.169s1.123.546 2.839.546 4.306-.889 4.306-3.307c0-2.512-3.51-2.746-3.51-3.838s2.449-.952 3.526-.359l.359-2.075S23.912 13 22.758 13c-1.248 0-4.212.546-4.212 3.198 0 2.496 3.479 2.527 3.479 3.838s-3.121 1.076-4.151.249zM7.792 14.043s-.102-.87-1.193-.87H2.635l-.046.164.064.015.061.016c.037.009.087.023.14.038l.115.034c.062.018.135.042.21.067l.149.049c.114.039.241.087.375.139l.149.061c.132.054.271.115.416.182.066.031.137.067.205.101a10.85 10.85 0 0 1 .601.322c.049.028.099.062.148.091l2.183 8.383h2.62l4.002-9.661H11.32l-2.398 6.645-.284-1.431-.846-4.345z"/></svg>