<svg xmlns="http://www.w3.org/2000/svg" width="22" height="23" viewBox="0 0 22 23"><g fill="none" fill-rule="evenodd"><path d="M-1-1h24v24H-1z"/><path fill="#FFF" d="M16.5 4c-.103 0-.202.011-.304.016C15.017 1.52 12.615 0 9.5 0 5.014 0 2 3.147 2 7.833c0 4.689 3.719 8.733 6.986 9.128-.144 2.843-1.652 2.919-3.703 3.015-1.736.08-3.704.171-4.616 2.33l.922.389c.666-1.578 2.091-1.644 3.74-1.72 2.001-.093 4.466-.219 4.654-4.011 1.112-.126 2.277-.672 3.333-1.531.813.802 1.733 1.33 2.597 1.501-.156.447-.512.704-1.061 1.047C14.026 18.495 13 19.137 13 21h1c0-1.31.609-1.689 1.38-2.172.61-.381 1.348-.849 1.563-1.863C19.321 16.616 22 13.548 22 10c0-3.589-2.21-6-5.5-6zm-7 12C6.943 16 3 12.493 3 7.833 3 3.682 5.552 1 9.5 1S16 3.682 16 7.833C16 12.493 12.057 16 9.5 16zm7 0c-.74 0-1.648-.466-2.447-1.24C15.744 13.058 17 10.555 17 7.833a9.362 9.362 0 0 0-.422-2.826C19.265 5.046 21 6.993 21 10c0 3.312-2.723 6-4.5 6z"/><path fill="#FFF" d="M9.766 4.104c.144.066.369.148.612.265.498.221 1.018.572 1.393.999.078.124.192.218.262.352.077.126.161.25.228.388.14.266.27.546.367.807.108.255.19.489.255.655.067.165.117.263.117.263l.031.06a.529.529 0 0 0 .969-.06s.04-.111.09-.311c.051-.2.119-.49.115-.854.013-.182.007-.38-.031-.592a2.656 2.656 0 0 0-.147-.669 2.838 2.838 0 0 0-.299-.699 3.468 3.468 0 0 0-.466-.66 4.368 4.368 0 0 0-.609-.541 4.07 4.07 0 0 0-.679-.374 3.707 3.707 0 0 0-1.274-.284 3.713 3.713 0 0 0-.891.065C9.61 2.961 9.512 3 9.512 3l-.036.015A.528.528 0 0 0 9.488 4l.278.104z" opacity=".3"/></g></svg>