<svg xmlns="http://www.w3.org/2000/svg" width="24" height="24" viewBox="0 0 24 24"><g fill="none" fill-rule="evenodd"><path d="M0 0h24v24H0z"/><path fill="#0B1F35" d="M21.794 9.303l-.296-.269C21.475 13.712 16.785 17.5 11 17.5c-1.061 0-2.084-.13-3.05-.367l-.045.035.28.39C9.709 19.681 12.512 21 15.5 21c.479 0 .962-.034 1.439-.101L21 24.014v-4.679c1.91-1.333 3-3.265 3-5.335 0-1.737-.783-3.405-2.206-4.697z" opacity=".3"/><path fill="#0B1F35" d="M3 21.561v-6.386C1.063 13.497 0 11.313 0 9c0-4.962 4.935-9 11-9s11 4.038 11 9-4.935 9-11 9c-.991 0-1.977-.11-2.934-.326L3 21.561zM11 1C5.486 1 1 4.589 1 9c0 2.081 1.001 4.055 2.819 5.558l.181.15v4.826l3.836-2.944.233.058c.952.233 1.939.352 2.931.352 5.514 0 10-3.589 10-8s-4.486-8-10-8z"/><path fill="#0B1F35" d="M6 6h10v2H6zm0 4h7v2H6z" opacity=".3"/></g></svg>