<?xml version="1.0" encoding="UTF-8"?>
<svg width="24px" height="24px" viewBox="0 0 24 24" version="1.1" xmlns="http://www.w3.org/2000/svg" xmlns:xlink="http://www.w3.org/1999/xlink">
    <!-- Generator: Sketch 48.2 (47327) - http://www.bohemiancoding.com/sketch -->
    <title>icon_category-pets_m_black</title>
    <desc>Created with Sketch.</desc>
    <defs></defs>
    <g id="mobile" stroke="none" stroke-width="1" fill="none" fill-rule="evenodd" transform="translate(-1475.000000, -678.000000)">
        <g id="Headings" transform="translate(64.000000, 77.000000)">
            <g id="icon_category_pets__m__white" transform="translate(1411.000000, 601.000000)">
                <g id="ungroup">
                    <rect id="Rectangle-path" x="0" y="0" width="24" height="24"></rect>
                    <g id="a1" opacity="0.4"></g>
                    <path d="M4.397,17.176 C3.818,17.825 3.5,18.65 3.5,19.5 C3.5,21.43 5.07,23 7,23 C7.925,23 8.638,22.807 9.327,22.62 C10.078,22.417 10.854,22.206 12,22.206 C13.146,22.206 13.922,22.416 14.673,22.62 C15.362,22.807 16.075,23 17,23 C18.93,23 20.5,21.43 20.5,19.5 C20.5,18.651 20.182,17.827 19.604,17.178 C19.596,17.169 19.588,17.159 19.581,17.151 C19.461,17.02 19.33,16.901 19.218,16.811 L15.099,12.983 C15.089,12.974 15.079,12.966 15.07,12.959 C14.302,12.03 13.189,11.5 12,11.5 C10.812,11.5 9.7,12.029 8.934,12.955 C8.922,12.964 8.912,12.973 8.901,12.983 L4.847,16.757 C4.687,16.883 4.539,17.019 4.397,17.176 L4.397,17.176 Z M5.497,17.516 L9.514,13.779 C9.566,13.748 9.613,13.707 9.652,13.658 C10.229,12.922 11.085,12.5 12,12.5 C12.915,12.5 13.771,12.922 14.349,13.658 C14.384,13.701 14.427,13.739 14.475,13.768 L18.562,17.565 C18.646,17.633 18.725,17.703 18.829,17.808 C18.838,17.82 18.848,17.831 18.857,17.842 C19.272,18.307 19.501,18.896 19.501,19.5 C19.501,20.878 18.38,22 17.001,22 C16.21,22 15.619,21.84 14.936,21.655 C14.16,21.445 13.28,21.206 12.001,21.206 C10.722,21.206 9.843,21.444 9.066,21.655 C8.382,21.84 7.791,22 7,22 C5.621,22 4.5,20.878 4.5,19.5 C4.5,18.896 4.729,18.307 5.146,17.839 C5.244,17.73 5.351,17.633 5.497,17.516 L5.497,17.516 Z" id="Shape" fill="#0B1F35"></path>
                    <path d="M18,11 C18,12.654 19.121,14 20.5,14 C21.879,14 23,12.654 23,11 C23,9.346 21.879,8 20.5,8 C19.121,8 18,9.346 18,11 L18,11 Z M22,11 C22,12.103 21.327,13 20.5,13 C19.673,13 19,12.103 19,11 C19,9.897 19.673,9 20.5,9 C21.327,9 22,9.897 22,11 L22,11 Z" id="Shape" fill="#0B1F35"></path>
                    <path d="M18,5 C18,3.346 16.879,2 15.5,2 C14.121,2 13,3.346 13,5 C13,6.654 14.121,8 15.5,8 C16.879,8 18,6.654 18,5 L18,5 Z M14,5 C14,3.897 14.673,3 15.5,3 C16.327,3 17,3.897 17,5 C17,6.103 16.327,7 15.5,7 C14.673,7 14,6.103 14,5 L14,5 Z" id="Shape" fill="#0B1F35"></path>
                    <path d="M3.5,14 C4.879,14 6,12.654 6,11 C6,9.346 4.879,8 3.5,8 C2.121,8 1,9.346 1,11 C1,12.654 2.121,14 3.5,14 L3.5,14 Z M3.5,9 C4.327,9 5,9.897 5,11 C5,12.103 4.327,13 3.5,13 C2.673,13 2,12.103 2,11 C2,9.897 2.673,9 3.5,9 L3.5,9 Z" id="Shape" fill="#0B1F35"></path>
                    <path d="M11,5 C11,3.346 9.879,2 8.5,2 C7.121,2 6,3.346 6,5 C6,6.654 7.121,8 8.5,8 C9.879,8 11,6.654 11,5 L11,5 Z M7,5 C7,3.897 7.673,3 8.5,3 C9.327,3 10,3.897 10,5 C10,6.103 9.327,7 8.5,7 C7.673,7 7,6.103 7,5 L7,5 Z" id="Shape" fill="#0B1F35"></path>
                </g>
            </g>
        </g>
    </g>
</svg>