<svg xmlns="http://www.w3.org/2000/svg" width="18" height="14" viewBox="0 0 18 14"><g fill="#FFF" fill-rule="evenodd"><path d="M11.492.833A6.82 6.82 0 0 0 9 1.315 6.82 6.82 0 0 0 6.508.833c-3.584 0-6.5 2.754-6.5 6.14 0 3.384 2.916 6.138 6.5 6.138.876 0 1.716-.177 2.492-.482a6.802 6.802 0 0 0 2.492.482c3.584 0 6.5-2.754 6.5-6.139 0-3.385-2.916-6.139-6.5-6.139zm0 11.334a5.81 5.81 0 0 1-1.281-.156 6.217 6.217 0 0 0 2.288-2.655l-.921-.367c-.517 1.157-1.444 2.061-2.578 2.605-1.134-.545-2.061-1.448-2.578-2.605l-.921.367a6.217 6.217 0 0 0 2.288 2.655 5.81 5.81 0 0 1-1.281.156c-3.033 0-5.5-2.331-5.5-5.195 0-2.863 2.467-5.194 5.5-5.194.44 0 .866.062 1.281.156a6.212 6.212 0 0 0-2.286 2.648l.921.37C6.941 3.794 7.868 2.892 9 2.348c1.132.544 2.059 1.446 2.576 2.601l.921-.37a6.212 6.212 0 0 0-2.286-2.647 5.866 5.866 0 0 1 1.281-.155c3.033 0 5.5 2.33 5.5 5.194s-2.467 5.195-5.5 5.195z"/><path d="M6.475 6.348l.007-.015.009-.015.013-.013.014-.013.019-.011.021-.01.022-.008.024-.009.028-.003.029-.004.042-.003.038-.003.033-.002h.031l.028.002.026.001.023.002.021.003.02.002.019.003.019.002.017.003.019.003.019.003.02.003h.021l.074-.31h-.012l-.013-.004h-.013l-.014-.004-.018-.002-.019-.003-.02-.004-.025-.003-.026-.003-.029-.002-.034-.003-.036-.003-.041-.001-.045-.002h-.189l-.079.006-.071.01-.065.011-.058.016-.053.02-.046.023-.043.025-.036.03-.03.036-.027.035-.023.041-.017.045-.015.046-.01.05-.007.055-.002.087.013.074.027.062.036.052.046.043.051.036.056.028.058.026.057.021.056.02.051.02.044.02.036.023.025.029.013.034-.003.04-.006.02-.007.022-.012.023-.014.018-.021.02-.026.014-.033.012-.042.008-.043.001h-.084l-.042-.003-.041-.003-.039-.005-.038-.005-.036-.005-.035-.006-.032-.007-.029-.005-.027-.006-.024-.006-.021-.005-.016-.004L5.9 7.06l-.065.304.025.008.023.008.023.009.025.005.025.007.027.004.028.005.03.003.034.004.035.003.039.003.044.002h.099l.058.002h.062l.045-.001.048-.003.048-.004.05-.009.051-.01.049-.014.048-.018.047-.02.045-.026.041-.03.037-.036.034-.04.029-.045.023-.051.018-.057.01-.064.006-.087-.006-.074-.015-.062-.023-.052-.03-.043-.037-.035-.041-.028-.043-.024-.047-.018-.048-.016-.048-.015-.046-.014-.044-.015-.041-.018-.035-.02-.029-.026-.014-.018-.012-.018-.006-.018-.004-.018v-.016zm1.369.758l-.013.005-.019.005-.024.005-.026.005-.029.002-.032.002-.035-.003-.032-.006-.029-.008-.026-.01-.019-.015-.015-.018-.007-.022.002-.028.139-.766.256.006.053-.31h-.243l.059-.333h-.403l-.277 1.499-.005.035-.004.03v.031l.001.03.005.025.007.023.01.024.015.019.019.018.024.017.028.013.033.012.04.01.046.008.051.006.058.004h.111l.025-.003.023-.003.022-.002.019-.003.017-.002.018-.003.014-.003.015-.004.013-.005.013-.003.011-.005.011-.004.01-.005.01-.006.01-.005.01-.007.051-.255h-.003z"/><path d="M9.118 7.052l-.042.016-.041.015-.039.013-.041.008-.039.007-.04.005-.039.003-.038.002H8.76l-.038-.002-.038-.003-.037-.004-.037-.004-.038-.005-.029-.006-.029-.01-.029-.012-.026-.015-.026-.017-.024-.02-.021-.02-.02-.024-.018-.024-.016-.025-.012-.026-.01-.026-.006-.026-.003-.026.001-.025.003-.016h.944l.007-.084.022-.115.01-.105-.001-.093-.011-.083-.02-.072-.03-.064-.036-.054-.044-.047L9.1 6.03l-.052-.033-.057-.025-.058-.02-.06-.015-.06-.01-.06-.005h-.056l-.117.005-.105.016-.095.024-.084.035-.073.04-.064.048-.056.052-.047.055-.041.057-.033.06-.026.06-.022.059-.016.059-.012.052-.009.051-.005.045-.008.112.004.102.016.092.025.081.035.073.042.063.049.057.057.046.061.04.065.034.068.026.071.02.073.017.073.01.073.006h.203l.038-.001.033-.003.031-.003.029-.003.026-.003.025-.004.023-.006.023-.006.022-.007.022-.008.023-.009.023-.011.023-.012.058-.338-.039.025-.041.022zm-.751-.559l.006-.028.009-.027.01-.028.013-.024.013-.024.016-.022.017-.02.019-.02.019-.015.022-.015.022-.013.025-.012.025-.009.025-.005.026-.004h.027l.026.002.025.004.023.005.023.009.022.01.022.013.019.013.017.016.015.019.015.02.01.024.01.027.006.027.003.03.001.033-.003.035h-.532l.004-.02zm3.331-.498l.022.01.02.01.019.008.019.01.073-.381-.009-.003-.013-.006-.017-.005-.021-.007-.023-.008-.028-.008-.029-.008-.033-.009-.035-.008-.038-.007-.039-.009-.041-.004-.044-.006-.043-.005-.045-.003h-.102l-.052.003-.053.006-.049.007-.05.008-.046.01-.045.01-.045.015-.043.015-.04.016-.04.018-.039.02-.036.023-.035.023-.034.026-.033.027-.031.03-.029.03-.029.033-.026.034-.026.036-.025.038-.022.04-.022.042-.02.043-.019.045-.019.049-.016.048-.014.05-.015.054-.013.055-.012.056-.016.114-.002.108.005.097.018.092.026.084.035.076.041.07.048.062.053.054.059.049.061.04.064.033.067.028.067.02.066.015.067.006.082.004.074.002.065-.002.057-.003.051-.005.044-.005.038-.007.033-.01.026-.008.023-.01.021-.01.016-.01.013-.008.012-.01.008-.008.009-.007.065-.367-.029.025-.03.022-.034.018-.036.015-.036.01-.037.01-.038.007-.037.004-.037.003h-.07l-.032-.003-.029-.003-.026-.003-.022-.003-.019-.004-.055-.012-.049-.018-.045-.021-.04-.025-.035-.03-.03-.03-.026-.036-.022-.037-.016-.042-.013-.041-.01-.043-.005-.048-.001-.046.003-.048.006-.048.008-.05.024-.087.027-.078.031-.069.032-.06.035-.05.036-.045.038-.035.039-.03.041-.025.041-.02.04-.014.041-.012.041-.006.039-.005.038-.003h.107l.034.003.033.003.031.005.03.004.028.006.028.008.026.007.025.009.024.008zm-7.827-.378l-.475 1.07-.066-1.07h-.688l-.33 1.804h.396l.241-1.348h.022l.003.066.01.157.013.215.015.247.014.244.013.213.01.15.003.056h.447l.592-1.348h.016l-.25 1.348h.395l.338-1.804zm10.214.67h.037l.065-.353-.041.003-.039.005-.036.006-.035.01-.032.011-.031.013-.029.016-.028.017-.026.018-.025.02-.023.022-.023.022-.022.023-.022.026-.021.025-.021.028.044-.25h-.409l-.272 1.472h.41l.147-.781.006-.03.009-.03.008-.03.012-.031.015-.03.017-.03.019-.027.023-.026.026-.023.03-.023.033-.02.038-.017.042-.013.046-.011.051-.009zm-3.772-.193l.012-.026.015-.026.014-.027.015-.022.013-.02.01-.018.007-.01.003-.003h-.001l-.006-.002-.007-.001-.011-.002h-.021l-.01-.003h-.011l-.045.003-.041.005-.037.006-.035.009-.034.01-.03.014-.028.014-.026.017-.025.018-.023.02-.022.02-.022.024-.022.023-.02.027-.022.027-.022.028.053-.25h-.418l-.272 1.472h.418l.139-.781.006-.03.008-.03.007-.028.01-.028.012-.028.014-.025.018-.025.02-.023.023-.021.026-.021.032-.016.035-.015.041-.012.045-.012.05-.006.056-.005h.005l.006.002h.014l.007.003h.006l.005.002h.001l.001-.005.005-.017.006-.025.007-.03.01-.036.01-.038.013-.038zm4.878.07l-.009-.016-.012-.017-.013-.018-.015-.018-.017-.018-.019-.018-.022-.018-.023-.016-.026-.015-.029-.015-.029-.013-.033-.01-.035-.01-.038-.007-.041-.004h-.042l-.06.002-.058.008-.058.012-.058.019-.055.023-.055.03-.054.035-.051.04-.049.046-.045.049-.044.055-.038.06-.036.067-.031.07-.026.076-.022.082-.013.07-.007.07-.001.071.004.07.012.07.016.067.023.064.029.062.035.057.041.051.047.047.052.04.058.031.064.024.07.015.076.006h.029l.029-.002.028-.003.029-.004.029-.004.028-.006.028-.007.028-.01.028-.011.026-.013.026-.015.026-.018.026-.019.025-.021.025-.025.023-.027v.014l-.029.152h.403l.329-1.797h-.396l-.103.54zm-.099.459l-.004.04-.008.038-.007.037-.01.037-.012.036-.015.034-.016.034-.019.03-.02.031-.022.027-.025.025-.028.024-.029.02-.031.017-.033.015-.035.01-.037.008-.041.002-.058-.01-.048-.03-.038-.046-.029-.056-.019-.064-.01-.067-.003-.067.007-.06.009-.04.012-.04.012-.036.015-.037.016-.036.019-.033.02-.032.022-.03.025-.027.025-.023.029-.022.029-.018.033-.014.034-.012.036-.005.039-.003.031.003.028.006.026.012.025.016.022.019.019.021.018.027.014.027.012.031.01.033.006.034.002.038.001.039v.037h.001zm-1.945-.287v-.052l-.01-.047-.016-.044-.022-.041-.029-.037-.034-.033-.036-.03-.041-.027L12.915 6l-.045-.019-.045-.016-.047-.012-.045-.01-.043-.007-.041-.003H12.6l-.049-.002h-.137l-.042.001-.042.001-.041.003-.039.003-.038.006-.036.005-.036.007-.035.006-.033.01-.033.011-.032.013-.102.331.016-.008.02-.01.026-.008.032-.009.035-.006.038-.007.042-.007.044-.005.045-.006.047-.004.047-.004.048-.002.047-.001h.089l.041.002.035.002.032.009.031.012.026.018.022.02.019.025.012.028.001.03-.003.026-.004.029-.004.024-.003.01h-.006l-.013-.001-.023-.001-.028-.001h-.032l-.033-.003h-.106l-.02.001-.023.001-.025.003h-.025l-.026.004-.026.003-.023.003-.022.003-.02.001-.019.003-.015.002h-.01l-.007.002h-.003l-.049.008-.048.013-.048.015-.045.02-.045.021-.042.027-.039.029-.038.03-.034.035-.031.039-.027.04-.022.044-.019.046-.013.048-.009.051-.003.054v.03l.003.03.004.032.006.03.007.031.012.03.013.03.018.03.02.027.023.027.028.024.032.022.038.02.041.019.047.014.052.012.039.006.039.003h.041l.042-.003.041-.006.041-.007.041-.01.039-.012.036-.014.036-.016.035-.017.03-.018.029-.018.026-.02.022-.02.019-.02-.003.016v.037l-.001.05-.003.056h.365l.06-.305.153-.726.007-.055zm-.515.456l-.006.039-.007.04-.006.038-.004.015-.006.017-.007.016-.01.016-.014.018-.016.016-.017.018-.02.015-.024.017-.026.014-.028.013-.032.011-.033.01-.038.006-.041.004h-.069l-.025-.004-.023-.008-.022-.014-.018-.021-.012-.028-.007-.037.001-.046.004-.023.009-.022.01-.021.013-.019.016-.018.016-.015.019-.015.019-.012.019-.013.02-.01.017-.008.019-.008.016-.006.014-.003.012-.004.01-.001.015-.003.019-.004.019-.003.022-.003.022-.003.023-.003.025-.005.023-.003h.063l.016.002.015.004.01.004.006.006.003.009-.004.035zm-6.708-.456v-.052l-.009-.048-.015-.043-.022-.041-.029-.037-.032-.033-.036-.03-.041-.027-.043-.023-.044-.019-.045-.017-.047-.012-.045-.01-.043-.007-.041-.003h-.051l-.051-.002h-.14l-.043.001-.042.001-.041.003-.039.003-.038.006-.038.005-.035.007-.035.006-.035.01-.032.011-.032.013-.103.331.016-.008.02-.01.027-.008.032-.009.035-.006.038-.007.042-.007.043-.005.045-.006.047-.004.046-.005.048-.002.047-.001h.089l.041.002.037.003.035.009.031.012.028.018.023.02.017.025.013.028.006.03-.003.026-.007.029-.009.024-.003.01h-.004l-.015-.001-.02-.001-.026-.002h-.032l-.032-.002h-.105l-.022.002h-.023l-.023.004-.027.002-.024.003-.025.001-.025.003-.022.003-.02.001-.017.004h-.017l-.01.002-.007.002h-.003l-.051.008-.049.012-.048.015-.047.02-.043.021-.043.027-.04.029-.037.03-.035.035-.03.039-.026.04-.024.044-.018.046-.015.048-.009.051-.004.054v.03l.003.03.004.032.006.03.009.031.012.03.015.03.017.03.02.027.023.027.029.024.032.022.036.02.041.019.047.014.051.012.039.006.041.003h.042l.042-.003.044-.006.042-.008.042-.01.042-.012.039-.014.038-.016.036-.017.035-.018.031-.02.028-.02.023-.022.02-.021-.005.018-.006.04-.008.05-.01.057h.367l.058-.305.147-.726.009-.055zm-.514.457l-.009.044-.01.046-.011.04-.005.014-.007.015-.009.017-.01.016-.012.017-.014.016-.018.016-.019.014-.021.015-.025.012-.028.012-.029.01-.033.008-.038.006-.039.004h-.067l-.024-.004-.024-.008-.022-.015-.019-.02-.014-.028-.008-.037.002-.046.004-.023.009-.021.01-.02.015-.017.016-.017.017-.016.019-.014.02-.014.019-.012.02-.01.019-.009.019-.008.016-.006.016-.006.012-.003.01-.003.016-.004.017-.004.02-.004.022-.002.023-.003.024-.004.025-.003.023-.002h.044l.019.002.016.003.015.003.008.004.006.006.001.007-.007.036z"/></g></svg>