<svg xmlns="http://www.w3.org/2000/svg" width="24" height="35" viewBox="0 0 24 35"><path fill="#FFF" d="M.684 35h22.632c.132 0 .395-.132.395-.395v-4.211c0-.132-.132-.395-.395-.395H.684c-.132 0-.395.132-.395.395v4.211c0 .132.132.395.395.395zM8.455 3.86c-.245.857-6.12 17.257-6.364 17.869-.122.245 0 .49.122.49.245 0 3.427 1.346 3.549 1.346.122 0 .367-.122.367-.245s1.346-3.794 1.469-4.161h8.812c.122.367 1.469 4.039 1.469 4.161.122.245.367.245.49.245.245 0 3.305-1.346 3.549-1.346.122-.122.122-.367.122-.49-.122-.49-6.119-17.134-6.364-17.869C15.064 2.147 14.33.433 12.004.433S8.944 2.025 8.455 3.86zm6.731 11.138H9.067l2.937-9.179 3.182 9.179z"/></svg>