<?xml version="1.0" encoding="UTF-8"?>
<svg width="36px" height="36px" viewBox="0 0 36 36" version="1.1" xmlns="http://www.w3.org/2000/svg" xmlns:xlink="http://www.w3.org/1999/xlink">
    <!-- Generator: Sketch 48.2 (47327) - http://www.bohemiancoding.com/sketch -->
    <title>icon_category_grocery_xl_black</title>
    <desc>Created with Sketch.</desc>
    <defs></defs>
    <g id="mobile" stroke="none" stroke-width="1" fill="none" fill-rule="evenodd" transform="translate(-1083.000000, -462.000000)">
        <g id="Headings" transform="translate(64.000000, 77.000000)">
            <g id="icon_category_grocery__xl__white" transform="translate(1019.000000, 385.000000)">
                <g id="ungroup">
                    <rect id="Rectangle-path" x="0" y="0" width="36" height="36"></rect>
                    <g id="a1" opacity="0.4"></g>
                    <path d="M2.248,17.036 L3.055,17.036 L5.055,34 L30.944,34 L32.944,17.036 L33.751,17.036 C34.439,17.036 34.999,16.475 34.999,15.787 L34.999,11.297 C34.999,10.609 34.439,10.048 33.751,10.048 L24.833,10.048 L29.2,5.682 C29.719,5.164 30.004,4.475 30.004,3.743 C30.004,3.011 29.719,2.321 29.2,1.804 C28.165,0.767 26.357,0.767 25.322,1.804 L17.077,10.048 L2.248,10.048 C1.56,10.048 1,10.608 1,11.297 L1,15.787 C1,16.476 1.56,17.036 2.248,17.036 L2.248,17.036 Z M30.056,33 L5.944,33 L4.062,17.036 L16.556,17.036 C16.603,17.038 16.648,17.05 16.696,17.05 C16.744,17.05 16.789,17.039 16.836,17.036 L31.937,17.036 L30.056,33 L30.056,33 Z M33.752,11.048 C33.889,11.048 34,11.159 34,11.297 L34,15.787 C34,15.925 33.889,16.036 33.752,16.036 L33.063,16.036 L18.846,16.036 L23.834,11.048 L33.752,11.048 L33.752,11.048 Z M26.029,2.511 C26.358,2.182 26.796,2 27.261,2 C27.727,2 28.164,2.182 28.493,2.511 C28.822,2.84 29.004,3.278 29.004,3.742 C29.004,4.208 28.822,4.645 28.493,4.974 L23.42,10.047 L23.416,10.047 L23.416,10.051 L17.929,15.538 C17.272,16.196 16.124,16.197 15.465,15.538 C14.785,14.858 14.785,13.753 15.465,13.073 L26.029,2.511 L26.029,2.511 Z M2,11.297 C2,11.159 2.111,11.048 2.248,11.048 L16.077,11.048 L14.758,12.367 C13.754,13.371 13.705,14.96 14.587,16.036 L2.938,16.036 L2.248,16.036 C2.111,16.036 2,15.925 2,15.787 L2,11.297 L2,11.297 Z" id="Shape" fill="#0B1F35"></path>
                    <rect id="Rectangle-path" fill="#0B1F35" opacity="0.3" x="12" y="20" width="3" height="10"></rect>
                    <rect id="Rectangle-path" fill="#0B1F35" opacity="0.3" x="21" y="20" width="3" height="10"></rect>
                </g>
            </g>
        </g>
    </g>
</svg>