<svg xmlns="http://www.w3.org/2000/svg" width="24" height="24" version="1" viewBox="0 0 24 24"><path fill="#0B1F35" d="M3.858 19.442a3.76 3.76 0 0 0-.122.187c-.234.351-.585.702-.234 1.053s.936-.234 1.17-.351l.053-.046c.537.47 1.106.908 1.736 1.272C8.035 22.487 10.001 23 12 23a11.1 11.1 0 0 0 5.537-1.442c3.416-1.974 5.538-5.636 5.538-9.558 0-2.06-.597-4.04-1.648-5.75.349-.37.567-.675.567-.898 0-.468.234-1.053-1.99-1.287a8.549 8.549 0 0 0-.366-.029 11.059 11.059 0 0 0-2.106-1.597C13.783.483 9.706.564 6.384 2.444 2.966 4.542.925 8.115.925 12c0 2.787 1.088 5.43 2.933 7.442zM22.075 12c0 3.565-1.93 6.896-5.034 8.689C15.504 21.56 13.808 22 12 22c-1.822 0-3.608-.463-5.034-1.306a9.996 9.996 0 0 1-1.436-1.031c1.161-.876 3.152-2.339 3.824-2.843.936-.702 5.5-4.681 7.022-5.968 1.521-1.287 3.511-3.16 3.511-3.16.289-.26.564-.506.814-.736A10.007 10.007 0 0 1 22.075 12zM6.892 3.306C8.424 2.439 10.118 2 11.925 2c1.728 0 3.458.446 5.125 1.314.36.208.7.441 1.026.688-2.581.022-6.072.322-6.616.413-.702.117-.702.819-.468.936.234.234 1.287.819 1.638 1.053.351.117.234.351.234.585-.117.117-1.404 1.755-1.404 1.755-.476.476-5.204 7.215-7.02 9.846-1.583-1.807-2.515-4.136-2.515-6.59 0-3.535 1.863-6.789 4.967-8.694z"/></svg>