<svg id="Layer_1" data-name="Layer 1" xmlns="http://www.w3.org/2000/svg" viewBox="0 0 24 24" width="24px" height="24px"><title>icon_action_erase__m__white</title><g id="set"><g id="NFC-applepay-assets"><g id="icon_action_erase_m_white" data-name="icon action erase  m  white"><g id="art"><rect id="ph" width="24" height="24" fill="none"/><path id="Shape" d="M8,19.52A1.64,1.64,0,0,0,9.19,20h11A2.81,2.81,0,0,0,23,17.19V6.81A2.81,2.81,0,0,0,20.19,4h-11A1.64,1.64,0,0,0,8,4.48L1.68,10.83a1.65,1.65,0,0,0,0,2.34L8,19.52Zm-5.64-8L8.73,5.19A.65.65,0,0,1,9.19,5h11A1.81,1.81,0,0,1,22,6.81V17.19A1.81,1.81,0,0,1,20.19,19h-11a.65.65,0,0,1-.46-.19L2.38,12.46a.65.65,0,0,1,0-.93Z" fill="#fff"/><polygon id="Shape-2" data-name="Shape" points="11.85 15.36 14.5 12.71 17.15 15.36 17.85 14.65 15.21 12.01 17.85 9.36 17.15 8.65 14.5 11.3 11.85 8.65 11.15 9.36 13.79 12.01 11.15 14.65 11.85 15.36" fill="#fff"/></g></g></g></g></svg>
