<svg xmlns="http://www.w3.org/2000/svg" viewBox="0 0 230 300">
  <path fill="#ffffff" d="M146.35,88.33c2.23-7.79,4.23-15.3,6.6-22.68a14.72,14.72,0,0,1,3.88-6.27C178.48,40.14,200.27,21.06,222,1.9c1.94-1.71,3.94-2.69,6.23-1.09s2.06,3.82,1.08,6.22q-37.82,93-75.73,186A8.28,8.28,0,0,1,150,197c-33.31,16.85-66.5,33.71-100,50.1a25.8,25.8,0,0,0-9.66,8.17L8.44,297.17c-2.2,2.88-4.58,3.58-6.74,2s-2.36-3.93-.06-7C14.78,274.88,28,257.55,41,240.17a9.57,9.57,0,0,0,1.78-5.37q.17-37.31,0-74.6a7.73,7.73,0,0,1,2.85-6.33q38.55-34.63,77-69.43c3.2-2.91,6.05-3.58,10-1.66C137,84.9,141.57,86.47,146.35,88.33ZM56.73,233.62l.42.43c.93-.43,1.89-.83,2.81-1.29q41.12-20.66,82.25-41.29a9.92,9.92,0,0,0,5.19-5.58q32.78-81,65.7-161.86c.41-1,.77-2.06,1.44-3.88-1.45,1.11-2.21,1.62-2.89,2.23Q188.35,42.9,165,63.39a13.25,13.25,0,0,0-4.69,7c-2,8-4.45,15.89-6.75,23.82-1.17,4-3.2,5.05-7.06,3.54-5.28-2.07-10.49-4.33-15.81-6.27a4.21,4.21,0,0,0-3.56.54q-37,33.14-73.88,66.59A6.69,6.69,0,0,0,51.33,163c-.12,20-.08,39.93-.08,59.89v3.32a17,17,0,0,0,1.43-1.34c5-6.55,10.09-13.09,15-19.7a5,5,0,0,0,.78-2.86c0-11.55-.1-23.11-.18-34.66,0-2.82,1.05-4.82,4.07-5.07,2.6-.21,4.45,1.85,4.45,5.08.08,4.32,0,8.64,0,13V191.9l.75.13L99.37,163.5,111,148.21c2.27-3,4.45-3.58,6.77-1.79s2.14,3.89-.16,7q-.89,1.26-1.89,2.52l-12.76,16.8c1.34-.19,2-.21,2.67-.38,6.73-1.67,13.45-3.4,20.19-5.05,2.67-.65,5.21-.59,6.23,2.62.89,2.76-.53,4.69-4.09,5.62-6.93,1.79-13.8,4.15-20.85,5.21-9.2,1.38-15.46,5.88-20.79,13.57C77,207.82,66.65,220.57,56.73,233.62Z"/>
</svg>
