<svg width="36" height="36" viewBox="0 0 36 36" xmlns="http://www.w3.org/2000/svg">
    <g stroke="none" stroke-width="1" fill="none" fill-rule="evenodd">
        <g transform="translate(10.000000, 8.000000)">
            <path d="M5.5,21.5 C5.5,23.1568542 6.84314575,24.5 8.5,24.5 C10.1568542,24.5 11.5,23.1568542 11.5,21.5 L5.5,21.5 Z M11.5165244,18.5032329 C11.615794,16.7811408 12.2617676,15.7594073 13.7294281,14.377576 C13.7595707,14.3491961 14.0675192,14.0607513 14.1575781,13.9754579 C15.8394217,12.3826096 16.5,11.1105195 16.5,8.5 C16.5,4.081722 12.918278,0.5 8.5,0.5 C4.081722,0.5 0.5,4.081722 0.5,8.5 C0.5,11.0877909 1.16126028,12.3584506 2.84371748,13.9581767 C2.93419267,14.044203 3.24349798,14.3350694 3.27778825,14.3674908 C4.74662549,15.7562723 5.39296724,16.7828513 5.48638279,18.5025128 L8.5,18.5025128 L11.5165244,18.5032329 Z M11.9704207,18.5060398 C11.9708463,18.5060465 11.9712832,18.5060533 11.9717331,18.5060603 C11.9714422,18.5060249 11.971202,18.5059956 11.9708361,18.5059849 Z" stroke="#FFFFFF"></path>
            <path d="M9.62100208,4.26046786 C9.76500208,4.32646786 9.99000208,4.40846786 10.2330021,4.52546786 C10.7310021,4.74646786 11.2510021,5.09746786 11.6260021,5.52446786 C11.7040021,5.64846786 11.8180021,5.74246786 11.8880021,5.87646786 C11.9650021,6.00246786 12.0490021,6.12646786 12.1160021,6.26446786 C12.2560021,6.53046786 12.3860021,6.81046786 12.4830021,7.07146786 C12.5910021,7.32646786 12.6730021,7.56046786 12.7380021,7.72646786 C12.8050021,7.89146786 12.8550021,7.98946786 12.8550021,7.98946786 L12.8860021,8.04946786 C12.9450021,8.16446786 13.0460021,8.25846786 13.1760021,8.30546786 C13.4510021,8.40646786 13.7550021,8.26446786 13.8550021,7.98946786 C13.8550021,7.98946786 13.8950021,7.87846786 13.9450021,7.67846786 C13.9960021,7.47846786 14.0640021,7.18846786 14.0600021,6.82446786 C14.0730021,6.64246786 14.0670021,6.44446786 14.0290021,6.23246786 C14.0070021,6.01846786 13.9680021,5.79346786 13.8820021,5.56346786 C13.8200021,5.32946786 13.7170021,5.09346786 13.5830021,4.86446786 C13.4620021,4.63346786 13.2960021,4.40846786 13.1170021,4.20446786 C12.9250021,4.00746786 12.7280021,3.81746786 12.5080021,3.66346786 C12.2900021,3.50746786 12.0530021,3.39246786 11.8290021,3.28946786 C11.3710021,3.09246786 10.9250021,3.02546786 10.5550021,3.00546786 C10.1840021,2.98346786 9.88400208,3.03246786 9.66400208,3.07046786 C9.46500208,3.11746786 9.36700208,3.15646786 9.36700208,3.15646786 L9.33100208,3.17146786 C9.19800208,3.22546786 9.08800208,3.33246786 9.03400208,3.47646786 C8.93100208,3.75046786 9.07000208,4.05446786 9.34300208,4.15646786 C9.34300208,4.15646786 9.44400208,4.19446786 9.62100208,4.26046786 L9.62100208,4.26046786 Z" fill-opacity="0.3" fill="#FFFFFF"></path>
        </g>
    </g>
</svg>
