<svg width="36" height="36" viewBox="0 0 36 36" xmlns="http://www.w3.org/2000/svg">
    <g stroke="none" stroke-width="1" fill="none" fill-rule="evenodd">
        <g transform="translate(4.000000, 2.000000)">
            <path d="M11.5,27.5 C11.5,29.1568542 12.8431458,30.5 14.5,30.5 C16.1568542,30.5 17.5,29.1568542 17.5,27.5 L11.5,27.5 Z M17.5165244,24.5032329 C17.615794,22.7811408 18.2617676,21.7594073 19.7294281,20.377576 C19.7595707,20.3491961 20.0675192,20.0607513 20.1575781,19.9754579 C21.8394217,18.3826096 22.5,17.1105195 22.5,14.5 C22.5,10.081722 18.918278,6.5 14.5,6.5 C10.081722,6.5 6.5,10.081722 6.5,14.5 C6.5,17.0877909 7.16126028,18.3584506 8.84371748,19.9581767 C8.93419267,20.044203 9.24349798,20.3350694 9.27778825,20.3674908 C10.7466255,21.7562723 11.3929672,22.7828513 11.4863828,24.5025128 L14.5,24.5025128 L17.5165244,24.5032329 Z M11.1487381,24.5025128 C11.1271235,24.4903678 11.109526,24.4938519 11.0869417,24.5025128 L11.1487381,24.5025128 Z M17.9704207,24.5060398 C17.9708463,24.5060465 17.9712832,24.5060533 17.9717331,24.5060603 C17.9714422,24.5060249 17.971202,24.5059956 17.9708361,24.5059849 Z" stroke="#0B1F35"></path>
            <path d="M15.6210021,10.2604679 C15.7650021,10.3264679 15.9900021,10.4084679 16.2330021,10.5254679 C16.7310021,10.7464679 17.2510021,11.0974679 17.6260021,11.5244679 C17.7040021,11.6484679 17.8180021,11.7424679 17.8880021,11.8764679 C17.9650021,12.0024679 18.0490021,12.1264679 18.1160021,12.2644679 C18.2560021,12.5304679 18.3860021,12.8104679 18.4830021,13.0714679 C18.5910021,13.3264679 18.6730021,13.5604679 18.7380021,13.7264679 C18.8050021,13.8914679 18.8550021,13.9894679 18.8550021,13.9894679 L18.8860021,14.0494679 C18.9450021,14.1644679 19.0460021,14.2584679 19.1760021,14.3054679 C19.4510021,14.4064679 19.7550021,14.2644679 19.8550021,13.9894679 C19.8550021,13.9894679 19.8950021,13.8784679 19.9450021,13.6784679 C19.9960021,13.4784679 20.0640021,13.1884679 20.0600021,12.8244679 C20.0730021,12.6424679 20.0670021,12.4444679 20.0290021,12.2324679 C20.0070021,12.0184679 19.9680021,11.7934679 19.8820021,11.5634679 C19.8200021,11.3294679 19.7170021,11.0934679 19.5830021,10.8644679 C19.4620021,10.6334679 19.2960021,10.4084679 19.1170021,10.2044679 C18.9250021,10.0074679 18.7280021,9.81746786 18.5080021,9.66346786 C18.2900021,9.50746786 18.0530021,9.39246786 17.8290021,9.28946786 C17.3710021,9.09246786 16.9250021,9.02546786 16.5550021,9.00546786 C16.1840021,8.98346786 15.8840021,9.03246786 15.6640021,9.07046786 C15.4650021,9.11746786 15.3670021,9.15646786 15.3670021,9.15646786 L15.3310021,9.17146786 C15.1980021,9.22546786 15.0880021,9.33246786 15.0340021,9.47646786 C14.9310021,9.75046786 15.0700021,10.0544679 15.3430021,10.1564679 C15.3430021,10.1564679 15.4440021,10.1944679 15.6210021,10.2604679 L15.6210021,10.2604679 Z" fill-opacity="0.3" fill="#0B1F35"></path>
            <rect fill-opacity="0.3" fill="#0B1F35" x="14" y="0" width="1" height="4" rx="0.5"></rect>
            <path d="M25.5,14 L28.5,14 C28.7761424,14 29,14.2238576 29,14.5 C29,14.7761424 28.7761424,15 28.5,15 L25.5,15 C25.2238576,15 25,14.7761424 25,14.5 C25,14.2238576 25.2238576,14 25.5,14 Z M0.5,14 L3.5,14 C3.77614237,14 4,14.2238576 4,14.5 C4,14.7761424 3.77614237,15 3.5,15 L0.5,15 C0.223857625,15 3.38176876e-17,14.7761424 0,14.5 C-3.38176876e-17,14.2238576 0.223857625,14 0.5,14 Z" fill-opacity="0.3" fill="#0B1F35"></path>
            <path d="M25.5,14 L28.5,14 C28.7761424,14 29,14.2238576 29,14.5 C29,14.7761424 28.7761424,15 28.5,15 L25.5,15 C25.2238576,15 25,14.7761424 25,14.5 C25,14.2238576 25.2238576,14 25.5,14 Z M0.5,14 L3.5,14 C3.77614237,14 4,14.2238576 4,14.5 C4,14.7761424 3.77614237,15 3.5,15 L0.5,15 C0.223857625,15 3.38176876e-17,14.7761424 0,14.5 C-3.38176876e-17,14.2238576 0.223857625,14 0.5,14 Z" fill-opacity="0.3" fill="#0B1F35" transform="translate(14.500000, 14.500000) rotate(-45.000000) translate(-14.500000, -14.500000) "></path>
            <path d="M25.5,14 L28.5,14 C28.7761424,14 29,14.2238576 29,14.5 C29,14.7761424 28.7761424,15 28.5,15 L25.5,15 C25.2238576,15 25,14.7761424 25,14.5 C25,14.2238576 25.2238576,14 25.5,14 Z M0.5,14 L3.5,14 C3.77614237,14 4,14.2238576 4,14.5 C4,14.7761424 3.77614237,15 3.5,15 L0.5,15 C0.223857625,15 3.38176876e-17,14.7761424 0,14.5 C-3.38176876e-17,14.2238576 0.223857625,14 0.5,14 Z" fill-opacity="0.3" fill="#0B1F35" transform="translate(14.500000, 14.500000) rotate(45.000000) translate(-14.500000, -14.500000) "></path>
        </g>
    </g>
</svg>
