<svg xmlns="http://www.w3.org/2000/svg" width="30" height="30" viewBox="0 0 30 30"><g fill="#FFF"><path d="M27,21 L28,21 L28,24.5 C28,25.8807119 26.8807119,27 25.5,27 L3.5,27 C2.11928813,27 1,25.8807119 1,24.5 L1,8.67580353 C1,7.46389679 1.86921872,6.42652134 3.06241666,6.21439727 L21.5624167,2.92550838 C22.9218138,2.68383777 24.2197357,3.58993416 24.4614063,4.94933131 C24.4870856,5.09377744 24.5,5.24020367 24.5,5.38691465 L24.5,7.5 L23.5,7.5 L23.5,5.38691465 C23.5,5.29888806 23.4922513,5.21103232 23.4768438,5.12436464 C23.3318414,4.30872636 22.5530883,3.76506852 21.73745,3.91007088 L3.23745,7.19895977 C2.52153123,7.32623422 2,7.94865949 2,8.67580353 L2,24.5 C2,25.3284271 2.67157288,26 3.5,26 L25.5,26 C26.3284271,26 27,25.3284271 27,24.5 L27,21 Z"/><path d="M28,13 L27,13 L27,9.5 C27,8.67157288 26.3284271,8 25.5,8 L2,8 L2,7 L25.5,7 C26.8807119,7 28,8.11928813 28,9.5 L28,13 Z"/><path d="M29,14 C29,13.7238576 28.7761424,13.5 28.5,13.5 L22.5,13.5 C20.5670034,13.5 19,15.0670034 19,17 C19,18.9329966 20.5670034,20.5 22.5,20.5 L28.5,20.5 C28.7761424,20.5 29,20.2761424 29,20 L29,14 Z M30,14 L30,20 C30,20.8284271 29.3284271,21.5 28.5,21.5 L22.5,21.5 C20.0147186,21.5 18,19.4852814 18,17 C18,14.5147186 20.0147186,12.5 22.5,12.5 L28.5,12.5 C29.3284271,12.5 30,13.1715729 30,14 Z"/><circle cx="23" cy="17" r="2" opacity=".3"/></g></svg>