<svg xmlns="http://www.w3.org/2000/svg" width="24" height="24" viewBox="0 0 24 24"><g fill="#FFF"><path d="M21,17.5 L22,17.5 L22,19.5 C22,20.8807119 20.8807119,22 19.5,22 L3.5,22 C2.11928813,22 1,20.8807119 1,19.5 L1,6.31509147 C1,5.60325421 1.50030661,4.98944996 2.19752062,4.8459059 L15.9958677,2.00506974 C17.3482157,1.72664516 18.670218,2.59723208 18.9486426,3.94958005 C18.9827925,4.11545093 19,4.28436252 19,4.45371235 L19,6.5 L18,6.5 L18,4.45371235 C18,4.35210245 17.9896755,4.2507555 17.9691856,4.15123297 C17.8021308,3.33982418 17.0089294,2.81747203 16.1975206,2.98452678 L2.39917354,5.82536295 C2.16676887,5.87321097 2,6.07781238 2,6.31509147 L2,19.5 C2,20.3284271 2.67157288,21 3.5,21 L19.5,21 C20.3284271,21 21,20.3284271 21,19.5 L21,17.5 Z"/><path d="M22,10.5 L21,10.5 L21,8.5 C21,7.67157288 20.3284271,7 19.5,7 L2,7 L2,6 L19.5,6 C20.8807119,6 22,7.11928813 22,8.5 L22,10.5 Z"/><path d="M18,11 C16.3431458,11 15,12.3431458 15,14 C15,15.6568542 16.3431458,17 18,17 L23,17 L23,11 L18,11 Z M18,10 L23,10 C23.5522847,10 24,10.4477153 24,11 L24,17 C24,17.5522847 23.5522847,18 23,18 L18,18 C15.790861,18 14,16.209139 14,14 C14,11.790861 15.790861,10 18,10 Z"/><circle cx="18.5" cy="14" r="1.5" opacity=".3"/></g></svg>