<svg xmlns="http://www.w3.org/2000/svg" width="48" height="48" viewBox="0 0 48 48"><g fill="#FFF"><path d="M44,35 L45,35 L45,41.5 C45,43.4329966 43.4329966,45 41.5,45 L4.5,45 C2.56700338,45 1,43.4329966 1,41.5 L1,14.648569 C1,13.4518382 1.84809646,12.4229501 3.02282585,12.1945305 L33.8319562,6.20386627 C35.7294154,5.83491587 37.5667035,7.0740171 37.9356539,8.97147633 C37.9784523,9.19158232 38,9.4152918 38,9.63952014 L38,13 L37,13 L37,9.63952014 C37,9.47935704 36.9846088,9.31956455 36.9540385,9.16234599 C36.6905025,7.80701796 35.3781539,6.92194566 34.0228259,7.18548166 L3.21369551,13.1761459 C2.50885788,13.3131977 2,13.9305305 2,14.648569 L2,41.5 C2,42.8807119 3.11928813,44 4.5,44 L41.5,44 C42.8807119,44 44,42.8807119 44,41.5 L44,35 Z"/><path d="M45,23 L44,23 L44,16.5 C44,15.1192881 42.8807119,14 41.5,14 L2,14 L2,13 L41.5,13 C43.4329966,13 45,14.5670034 45,16.5 L45,23 Z"/><path d="M47,24 C47,23.7238576 46.7761424,23.5 46.5,23.5 L35.5,23.5 C32.4624339,23.5 30,25.9624339 30,29 C30,32.0375661 32.4624339,34.5 35.5,34.5 L46.5,34.5 C46.7761424,34.5 47,34.2761424 47,34 L47,24 Z M48,24 L48,34 C48,34.8284271 47.3284271,35.5 46.5,35.5 L35.5,35.5 C31.9101491,35.5 29,32.5898509 29,29 C29,25.4101491 31.9101491,22.5 35.5,22.5 L46.5,22.5 C47.3284271,22.5 48,23.1715729 48,24 Z"/><circle cx="36" cy="29" r="3" opacity=".3"/></g></svg>