<svg xmlns="http://www.w3.org/2000/svg" width="36" height="36" viewBox="0 0 36 36"><g fill="#0B1F35"><path d="M32.5,25 L33.5,25 L33.5,30.5 C33.5,31.8807119 32.3807119,33 31,33 L3.5,33 C2.11928813,33 1,31.8807119 1,30.5 L1,9.66363411 C1,8.45848889 1.85977925,7.42487309 3.04477685,7.20542909 L26.0447768,2.94616983 C27.402406,2.69475703 28.7067922,3.59152256 28.958205,4.9491517 C28.9860099,5.0992979 29,5.25167582 29,5.40437485 L29,8.5 L28,8.5 L28,5.40437485 C28,5.31275543 27.9916059,5.22132868 27.974923,5.13124096 C27.8240753,4.31666347 27.0414436,3.77860416 26.2268661,3.92945184 L3.22686611,8.1887111 C2.51586755,8.3203775 2,8.94054698 2,9.66363411 L2,30.5 C2,31.3284271 2.67157288,32 3.5,32 L31,32 C31.8284271,32 32.5,31.3284271 32.5,30.5 L32.5,25 Z"/><path d="M33.5,16 L32.5,16 L32.5,10.5 C32.5,9.67157288 31.8284271,9 31,9 L2,9 L2,8 L31,8 C32.3807119,8 33.5,9.11928813 33.5,10.5 L33.5,16 Z"/><path d="M35,17 C35,16.7238576 34.7761424,16.5 34.5,16.5 L27,16.5 C24.790861,16.5 23,18.290861 23,20.5 C23,22.709139 24.790861,24.5 27,24.5 L34.5,24.5 C34.7761424,24.5 35,24.2761424 35,24 L35,17 Z M36,17 L36,24 C36,24.8284271 35.3284271,25.5 34.5,25.5 L27,25.5 C24.2385763,25.5 22,23.2614237 22,20.5 C22,17.7385763 24.2385763,15.5 27,15.5 L34.5,15.5 C35.3284271,15.5 36,16.1715729 36,17 Z"/><circle cx="27" cy="20.5" r="2" opacity=".3"/></g></svg>