<svg xmlns="http://www.w3.org/2000/svg" width="18" height="18" viewBox="0 0 18 18"><g fill="#0B1F35"><path d="M15,13.5 L16,13.5 L16,15.5 C16,16.3284271 15.3284271,17 14.5,17 L1.5,17 C0.671572875,17 -7.48040518e-13,16.3284271 -7.49622586e-13,15.5 L-7.49844631e-13,4.81313756 C-7.49927898e-13,4.10262397 0.498489729,3.4895792 1.19406862,3.34466693 L11.1940686,1.26133359 C12.0050826,1.09237236 12.7995094,1.61285891 12.9684706,2.42387284 C12.9894347,2.52450033 13,2.62701617 13,2.72980422 L13,4.5 L12,4.5 L12,2.72980422 C12,2.69554154 11.9964782,2.66136959 11.9894902,2.6278271 C11.9331698,2.35748912 11.6683609,2.1839936 11.3980229,2.24031401 L1.39802287,4.32364735 C1.16616324,4.37195144 1,4.57629969 1,4.81313756 L1,15.5 C1,15.7761424 1.22385763,16 1.5,16 L14.5,16 C14.7761424,16 15,15.7761424 15,15.5 L15,13.5 Z"/><path d="M16,7.5 L15,7.5 L15,5.5 C15,5.22385763 14.7761424,5 14.5,5 L1,5 L1,4 L14.5,4 C15.3284271,4 16,4.67157288 16,5.5 L16,7.5 Z"/><path d="M17,8.5 C17,8.22385763 16.7761424,8 16.5,8 L12.5,8 C11.1192881,8 10,9.11928813 10,10.5 C10,11.8807119 11.1192881,13 12.5,13 L16.5,13 C16.7761424,13 17,12.7761424 17,12.5 L17,8.5 Z M18,8.5 L18,12.5 C18,13.3284271 17.3284271,14 16.5,14 L12.5,14 C10.5670034,14 9,12.4329966 9,10.5 C9,8.56700338 10.5670034,7 12.5,7 L16.5,7 C17.3284271,7 18,7.67157288 18,8.5 Z"/><circle cx="12.5" cy="10.5" r="1.5" opacity=".3"/></g></svg>