<svg xmlns="http://www.w3.org/2000/svg" width="24" height="24" viewBox="0 0 24 24" fill="none"><rect width="24" height="24" fill="none"/><g clip-path="url(#clip0)"><path fill-rule="evenodd" clip-rule="evenodd" d="M13.3801 20.1948C13.3801 20.1948 12.4786 20.642 11.7114 20.1948C11.8707 17.4281 12.6614 15.4101 13.7516 12.7339C14.8419 10.0577 17.6764 7.16479 17.6764 7.16479L18.1125 7.38756C18.1125 7.38756 15.931 9.68393 14.8419 12.7339C13.7527 15.7838 13.3801 20.1948 13.3801 20.1948Z" fill="#5C85AD"/><path d="M17.3074 7.96442C16.7208 8.10254 15.8538 8.23554 14.8421 8.16708C12.9551 8.03938 10.7048 7.38741 10.7048 7.38741L12.2311 6.05084L14.624 6.60774L15.2782 5.71669C15.2782 5.71669 16.6288 5.80734 17.2406 6.16222C17.5256 6.30155 17.7192 6.55238 17.85 6.81269C17.7841 6.23401 17.624 5.36722 17.2405 4.93703C16.4305 4.19613 15.0601 3.60046 15.0601 3.60046C15.0601 3.60046 16.5879 3.37443 17.4586 3.60046C18.3293 3.82648 18.7669 4.49151 18.7669 4.49151L18.5488 4.93703L19.2029 5.1598C19.2029 5.1598 19.2029 5.89411 18.8694 6.5338C19.2587 6.21927 19.6866 5.89219 19.8571 5.82813C20.2023 5.69847 20.5113 6.27365 20.5113 6.27365C20.5113 6.27365 21.2132 5.60536 22.0376 5.60536C22.862 5.60536 24 6.27365 24 6.27365C24 6.27365 23.2261 7.1647 22.4737 7.38747C21.7213 7.61023 20.7293 7.1647 20.7293 7.1647C20.7293 7.1647 20.636 7.49811 20.5113 7.61023C20.372 7.64567 19.5714 7.48638 18.933 7.34853C19.3684 7.55752 19.8574 7.77948 20.075 7.83296C20.426 7.90502 21.661 8.91304 21.3833 8.94678C20.9919 8.91304 20.5111 9.16954 20.5111 9.16954C20.5111 9.16954 21.2542 9.61078 21.3833 10.0606C21.3866 10.1472 21.4112 10.3397 21.4428 10.5866C21.5568 11.4768 21.7611 13.0735 21.3833 12.9565C20.8714 12.791 19.486 11.3484 19.2028 10.9516C19.0328 10.7134 19.0338 10.2367 19.0344 9.91938C19.0349 9.70817 19.0352 9.56761 18.9848 9.61506C18.8766 9.71721 18.4054 9.54387 18.3385 9.06554C18.3148 9.71309 18.2534 10.321 18.1127 10.5061C17.9228 11.0926 16.1503 12.7338 16.1503 12.7338C16.1503 12.7338 15.9571 10.7961 16.1503 9.83784C16.3615 9.04932 16.8477 8.4162 17.3074 7.96442Z" fill="#B2CCDC"/><path fill-rule="evenodd" clip-rule="evenodd" d="M11.7116 20.1947C11.7116 20.1947 12.5459 20.6959 13.3802 20.1947C12.7584 17.4983 12.0172 16.5077 10.8787 14.7189C9.74026 12.9301 6.32429 10.3762 6.32429 10.3762L5.93604 10.673C5.93604 10.673 8.74977 13.2216 9.81425 14.9123C10.8787 16.603 11.7116 20.1947 11.7116 20.1947Z" fill="#B2CCDC"/><path d="M6.84378 11.5308C7.69843 12.3624 8.9509 13.6469 9.66436 14.6848C9.59723 14.1312 9.49 13.4355 9.33425 12.9348C8.36554 11.9946 7.27673 11.1159 6.71167 10.6741C6.73778 10.8606 6.78352 11.1735 6.84378 11.5308Z" fill="#5C85AD"/><path d="M6.3747 8.10519C6.03882 8.65212 6.0639 9.68203 6.10823 10.2441C6.43281 9.86865 6.79001 9.47738 6.94424 9.38493C7.2594 9.19601 7.65801 9.70764 7.65801 9.70764C7.65801 9.70764 8.23072 8.92498 9.03567 8.77873C9.84061 8.63247 11.0644 9.08872 11.0644 9.08872C11.0644 9.08872 10.4589 10.1035 9.76178 10.4564C9.06468 10.8092 8.02106 10.5465 8.02106 10.5465C8.02106 10.5465 7.98611 10.8914 7.88324 11.0239C7.78332 11.0697 7.28282 11.0716 6.76298 11.0598C7.30236 11.4233 7.91377 11.9724 8.26513 12.7382C8.61529 13.6476 8.75314 15.5901 8.75314 15.5901C8.75314 15.5901 6.74593 14.2883 6.46167 13.7444C6.29308 13.587 6.13057 12.9986 5.99821 12.3647C6.01425 12.8484 5.58282 13.1031 5.45988 13.0217C5.40268 12.9839 5.42665 13.1222 5.46267 13.3302C5.51678 13.6425 5.59809 14.1119 5.47222 14.3766C5.26257 14.8176 4.153 16.4841 3.68111 16.7378C3.33191 16.9201 3.26235 15.3114 3.22357 14.4145C3.21281 14.1658 3.20442 13.9718 3.19309 13.8859C3.24329 13.4201 3.89452 12.8537 3.89452 12.8537C3.89452 12.8537 3.38183 12.6864 3.0054 12.789C2.72856 12.8051 3.7645 11.5933 4.09508 11.46C4.29855 11.3688 4.73885 11.0632 5.12887 10.7801C4.52865 11.0292 3.7736 11.3282 3.63159 11.318C3.49093 11.2297 3.34361 10.9179 3.34361 10.9179C3.34361 10.9179 2.45015 11.5326 1.67798 11.4467C0.905796 11.3608 0 10.6206 0 10.6206C0 10.6206 0.998504 9.7606 1.80345 9.61434C2.6084 9.46809 3.40635 10.0017 3.40635 10.0017C3.40635 10.0017 3.6111 9.38045 3.96996 9.4469C4.14729 9.47974 4.62023 9.72596 5.05335 9.96666C4.61991 9.39586 4.49616 8.67271 4.49616 8.67271L5.09731 8.33729L4.80934 7.93721C4.80934 7.93721 5.12452 7.20466 5.93656 6.82761C6.74861 6.45055 8.27843 6.4021 8.27843 6.4021C8.27843 6.4021 7.04077 7.23184 6.3747 8.10519Z" fill="#B2CCDC"/></g><defs><clipPath id="clip0"><rect width="24" height="24" fill="white"/></clipPath></defs></svg>