<svg xmlns="http://www.w3.org/2000/svg" width="48" height="48" viewBox="0 0 48 48" fill="none"><rect width="48" height="48" fill="none"/><path fill-rule="evenodd" clip-rule="evenodd" d="M26.7604 40.3894C26.7604 40.3894 24.9575 41.284 23.4231 40.3894C23.7417 34.8561 25.3231 30.82 27.5035 25.4676C29.684 20.1152 35.3531 14.3295 35.3531 14.3295L36.2253 14.775C36.2253 14.775 31.8623 19.3677 29.684 25.4676C27.5057 31.5675 26.7604 40.3894 26.7604 40.3894Z" fill="#5C85AD"/><path d="M34.6148 15.9288C33.4415 16.2051 31.7075 16.4711 29.6842 16.3342C25.9101 16.0788 21.4097 14.7748 21.4097 14.7748L24.4623 12.1017L29.2481 13.2155L30.5564 11.4334C30.5564 11.4334 33.2577 11.6147 34.4812 12.3244C35.0512 12.6031 35.4384 13.1048 35.6999 13.6254C35.5682 12.468 35.2481 10.7344 34.4811 9.87406C32.861 8.39225 30.1202 7.20091 30.1202 7.20091C30.1202 7.20091 33.1758 6.74886 34.9172 7.20091C36.6585 7.65296 37.5337 8.98301 37.5337 8.98301L37.0976 9.87406L38.4059 10.3196C38.4059 10.3196 38.4059 11.7882 37.7388 13.0676C38.5174 12.4385 39.3732 11.7844 39.7143 11.6563C40.4046 11.3969 41.0226 12.5473 41.0226 12.5473C41.0226 12.5473 42.4264 11.2107 44.0752 11.2107C45.724 11.2107 48 12.5473 48 12.5473C48 12.5473 46.4522 14.3294 44.9474 14.7749C43.4426 15.2205 41.4586 14.3294 41.4586 14.3294C41.4586 14.3294 41.272 14.9962 41.0226 15.2205C40.744 15.2913 39.1429 14.9728 37.866 14.6971C38.7368 15.115 39.7149 15.559 40.15 15.6659C40.852 15.81 43.3219 17.8261 42.7665 17.8936C41.9838 17.8261 41.0222 18.3391 41.0222 18.3391C41.0222 18.3391 42.5084 19.2216 42.7665 20.1212C42.7732 20.2944 42.8225 20.6795 42.8857 21.1732C43.1135 22.9536 43.5222 26.1469 42.7665 25.913C41.7428 25.5821 38.972 22.6969 38.4056 21.9033C38.0656 21.4268 38.0676 20.4734 38.0689 19.8388C38.0698 19.4163 38.0703 19.1352 37.9695 19.2301C37.7532 19.4344 36.8108 19.0877 36.6771 18.1311C36.6296 19.4262 36.5067 20.6421 36.2255 21.0123C35.8457 22.1853 32.3007 25.4675 32.3007 25.4675C32.3007 25.4675 31.9142 21.5922 32.3007 19.6757C32.7231 18.0986 33.6953 16.8324 34.6148 15.9288Z" fill="#B2CCDC"/><path fill-rule="evenodd" clip-rule="evenodd" d="M23.4231 40.3895C23.4231 40.3895 25.0918 41.392 26.7603 40.3895C25.5168 34.9968 24.0344 33.0155 21.7575 29.4379C19.4805 25.8603 12.6486 20.7526 12.6486 20.7526L11.8721 21.346C11.8721 21.346 17.4995 26.4433 19.6285 29.8247C21.7575 33.206 23.4231 40.3895 23.4231 40.3895Z" fill="#B2CCDC"/><path d="M13.6873 23.0616C15.3966 24.7247 17.9016 27.2937 19.3285 29.3697C19.1942 28.2624 18.9798 26.8711 18.6683 25.8696C16.7308 23.9891 14.5532 22.2318 13.4231 21.3481C13.4753 21.7212 13.5668 22.347 13.6873 23.0616Z" fill="#5C85AD"/><path d="M12.7494 16.2103C12.0776 17.3041 12.1278 19.3639 12.2165 20.4882C12.8656 19.7372 13.58 18.9546 13.8885 18.7697C14.5188 18.3919 15.316 19.4152 15.316 19.4152C15.316 19.4152 16.4614 17.8498 18.0713 17.5573C19.6812 17.2648 22.1287 18.1773 22.1287 18.1773C22.1287 18.1773 20.9178 20.2069 19.5236 20.9127C18.1294 21.6184 16.0421 21.0928 16.0421 21.0928C16.0421 21.0928 15.9722 21.7826 15.7665 22.0477C15.5666 22.1393 14.5656 22.143 13.526 22.1194C14.6047 22.8464 15.8275 23.9446 16.5303 25.4762C17.2306 27.2951 17.5063 31.18 17.5063 31.18C17.5063 31.18 13.4919 28.5766 12.9233 27.4887C12.5862 27.1739 12.2611 25.9971 11.9964 24.7293C12.0285 25.6966 11.1656 26.2061 10.9198 26.0432C10.8054 25.9676 10.8533 26.2444 10.9253 26.6602C11.0336 27.2849 11.1962 28.2236 10.9444 28.7531C10.5251 29.6351 8.306 32.968 7.36221 33.4756C6.66382 33.84 6.5247 30.6227 6.44713 28.8289C6.42562 28.3315 6.40884 27.9435 6.38619 27.7717C6.48659 26.84 7.78905 25.7072 7.78905 25.7072C7.78905 25.7072 6.76367 25.3726 6.01079 25.5779C5.45712 25.61 7.52901 23.1864 8.19016 22.92C8.59709 22.7374 9.47769 22.1264 10.2577 21.5601C9.05731 22.0582 7.5472 22.6562 7.26317 22.6358C6.98187 22.4592 6.68722 21.8357 6.68722 21.8357C6.68722 21.8357 4.90031 23.0651 3.35595 22.8934C1.81159 22.7216 0 21.2411 0 21.2411C0 21.2411 1.99701 19.5211 3.60691 19.2286C5.21681 18.9361 6.8127 20.0033 6.8127 20.0033C6.8127 20.0033 7.22219 18.7608 7.93992 18.8937C8.29458 18.9593 9.24047 19.4518 10.1067 19.9332C9.23981 18.7916 8.99233 17.3453 8.99233 17.3453L10.1946 16.6745L9.61868 15.8743C9.61868 15.8743 10.249 14.4092 11.8731 13.6551C13.4972 12.901 16.5569 12.8041 16.5569 12.8041C16.5569 12.8041 14.0815 14.4636 12.7494 16.2103Z" fill="#B2CCDC"/></svg>