<svg xmlns="http://www.w3.org/2000/svg" width="24" height="24" viewBox="0 0 24 24"><g fill="none" fill-rule="evenodd"><path d="M0 0h24v24H0z"/><g fill="#0B1F35" opacity=".4"><path d="M8.566 14.884L9.662 8.12h1.755l-1.097 6.763H8.566zm9.887-1.005l-.366 1.005H16.26l2.617-6.259s.158-.504.81-.504h1.41l1.404 6.763h-1.61l-.206-1.005h-2.23zm1.428-3.918l-.922 2.53h1.44l-.518-2.53zM11.662 13.1c.719.578 2.896.743 2.896-.175 0-.918-2.427-.94-2.427-2.686C12.13 8.382 14.198 8 15.069 8c.805 0 1.578.295 1.578.295l-.25 1.452c-.752-.415-2.46-.513-2.46.252 0 .764 2.448.928 2.448 2.686 0 1.693-1.806 2.315-3.003 2.315s-1.98-.382-1.98-.382l.26-1.518zM4.63 8.73l.59 3.042.199 1.001L7.09 8.122h1.89l-2.792 6.763H4.359l-1.522-5.87c-.035-.02-.07-.044-.104-.063a6.728 6.728 0 0 0-.419-.226 7.138 7.138 0 0 0-.433-.198l-.104-.043a7.071 7.071 0 0 0-.262-.097l-.103-.034a4.137 4.137 0 0 0-.147-.047c-.029-.01-.056-.017-.08-.024a3.028 3.028 0 0 0-.098-.026l-.042-.012L1 8.236l.032-.115h2.765c.761 0 .832.61.832.61z"/><path d="M10.2 16.3l12.8.3v1.1H10z" opacity=".3"/></g></g></svg>