<svg xmlns="http://www.w3.org/2000/svg" width="32" height="16" viewBox="0 0 32 16"><path fill="#FFF" fill-rule="evenodd" d="M20.193 2.046c.358-.046 1.347-.083 2.468.433l.438-2.052A6.763 6.763 0 0 0 20.759 0c-2.474 0-4.214 1.314-4.228 3.197-.016 1.393 1.243 2.169 2.19 2.633.975.474 1.302.778 1.298 1.201-.007.649-.779.936-1.497.947-1.258.02-1.988-.34-2.57-.611l-.454 2.12c.585.268 1.664.501 2.782.513 2.63 0 4.35-1.299 4.357-3.31.01-2.552-3.529-2.694-3.506-3.834.009-.346.339-.715 1.062-.81zM29.461.177h-2.135c-.481 0-.886.279-1.065.709l-3.755 8.963h2.628l.521-1.445h3.21l.303 1.445h2.313L29.461.177zm-3.085 6.245l1.318-3.632.757 3.632h-2.075zM15.85.177h-2.503l-2.068 9.671h2.502zm-6.205 0L7.042 6.76 5.988 1.163C5.864.538 5.376.177 4.834.177H.576L.517.458c.873.19 1.867.496 2.468.823.368.201.473.375.594.849l1.995 7.719h2.645L12.273.177H9.645zm3.099 14.009h1.448v-.4h-1.448v-1.181h1.536V12.2h-2.025v3.739h2.109v-.405h-1.62zm4.88-.988c-.782 0-1.259.633-1.259 1.443S16.859 16 17.685 16c.428 0 .727-.094.899-.172l-.089-.349a1.76 1.76 0 0 1-.744.139c-.493 0-.91-.272-.921-.932h1.886a1.19 1.19 0 0 0 .017-.227c.001-.495-.227-1.261-1.109-1.261zm-.788 1.137c.039-.338.25-.788.749-.788.549 0 .682.483.677.788h-1.426zm3.888-.749c.266 0 .449.067.566.128l.111-.372a1.538 1.538 0 0 0-.677-.144c-.877 0-1.442.605-1.442 1.431 0 .821.527 1.37 1.337 1.37.36 0 .643-.094.771-.155l-.083-.366a1.399 1.399 0 0 1-.599.128c-.533 0-.932-.383-.932-1.004 0-.555.332-1.016.948-1.016zm2.035-.976l-.477.144v.499h-.416v.371h.416v1.465c0 .316.055.555.189.705.116.128.299.206.527.206.189 0 .339-.033.433-.066l-.022-.372a.884.884 0 0 1-.283.034c-.272 0-.366-.188-.366-.522v-1.448h.699v-.371h-.699v-.645h-.001zm1.825 1.176h-.016l-.022-.533h-.427c.016.25.022.522.022.838v1.847h.488v-1.431c0-.078.006-.161.017-.228.066-.366.311-.622.655-.622a.77.77 0 0 1 .167.011v-.461c-.044-.005-.083-.011-.133-.011-.33.002-.629.23-.751.59zm2.59-.588c-.738 0-1.331.527-1.331 1.42 0 .849.565 1.381 1.287 1.381.644 0 1.337-.433 1.337-1.426-.001-.815-.522-1.375-1.293-1.375zm-.022 2.436c-.477 0-.81-.444-.81-1.032 0-.505.25-1.038.821-1.038.577 0 .804.572.804 1.027 0 .604-.349 1.043-.815 1.043zm3.399-2.436a.997.997 0 0 0-.888.499h-.011l-.028-.444h-.433c.016.222.022.444.022.727v1.958h.488v-1.614c0-.083.011-.166.034-.228.088-.272.338-.499.655-.499.46 0 .621.361.621.793v1.548h.489V14.34c0-.92-.577-1.142-.949-1.142z"/></svg>