<svg xmlns="http://www.w3.org/2000/svg" width="24" height="24" version="1" viewBox="0 0 24 24"><path fill="#1A1F71" d="M11.733 7.123l-1.448 6.77H8.533l1.448-6.77h1.752zm7.368 4.372l.922-2.542.53 2.542H19.1zm1.956 2.398h1.619l-1.415-6.77h-1.494a.798.798 0 0 0-.746.496l-2.628 6.274h1.839l.365-1.01h2.247l.213 1.01zm-4.573-2.21C16.49 9.897 14.014 9.797 14.03 9c.006-.243.237-.5.743-.567.25-.032.943-.058 1.727.303l.307-1.436a4.73 4.73 0 0 0-1.638-.3c-1.732 0-2.95.92-2.96 2.238-.01.975.87 1.518 1.534 1.843.683.332.912.545.908.841-.005.454-.545.655-1.048.663-.881.014-1.392-.238-1.8-.428l-.317 1.484c.41.188 1.165.351 1.947.36 1.842 0 3.046-.91 3.05-2.318M9.23 7.123l-2.838 6.77H4.54L3.143 8.49c-.085-.332-.158-.454-.416-.595-.421-.229-1.117-.443-1.728-.576l.04-.197h2.982c.379 0 .72.253.808.69l.738 3.918 1.822-4.608h1.84zm4.926 8.97h-.724v.674h.81v.203h-1.054V15.1H14.2v.203h-.768v.59h.724v.2zM14.617 15h.244v1.969h-.244V15zm1.576 1.167c.003-.152-.064-.394-.338-.394-.25 0-.355.225-.375.394h.713zm-.716.175c.005.33.214.466.46.466a.889.889 0 0 0 .372-.069l.044.175a1.091 1.091 0 0 1-.45.086c-.412 0-.66-.275-.66-.68s.239-.72.63-.72c.442 0 .556.382.556.63 0 .05-.003.085-.008.113h-.944zm2.279.58a.935.935 0 0 1-.386.078c-.405 0-.668-.275-.668-.685 0-.413.283-.716.721-.716.144 0 .272.036.338.072l-.055.186a.592.592 0 0 0-.283-.064c-.308 0-.474.23-.474.508 0 .31.2.502.466.502.14 0 .23-.033.3-.064l.041.183zm.684-1.617v.322h.35v.186h-.35v.724c0 .167.047.261.183.261a.438.438 0 0 0 .142-.017l.011.186a.655.655 0 0 1-.216.033.346.346 0 0 1-.263-.103c-.067-.075-.094-.194-.094-.352v-.733h-.208v-.186h.208v-.25l.237-.07zm.69.741c0-.158-.002-.294-.01-.42h.214l.01.267h.009c.06-.18.21-.294.374-.294.025 0 .044.003.067.005v.23c-.025-.006-.05-.006-.083-.006-.172 0-.294.128-.327.31a.805.805 0 0 0-.008.115v.716h-.244v-.924zm1.102.255c0 .294.166.516.405.516.233 0 .408-.219.408-.522 0-.227-.114-.513-.402-.513-.286 0-.41.266-.41.519m1.061-.014c0 .497-.347.713-.669.713-.36 0-.643-.266-.643-.691 0-.447.297-.71.666-.71.385 0 .646.28.646.688m.374-.297a4.92 4.92 0 0 0-.01-.363h.215l.014.222h.005a.498.498 0 0 1 .444-.25c.186 0 .474.111.474.571v.8h-.244v-.775c0-.216-.08-.397-.31-.397a.352.352 0 0 0-.328.25.355.355 0 0 0-.017.114v.807h-.244v-.979z"/></svg>