<svg xmlns="http://www.w3.org/2000/svg" width="30" height="30" version="1" viewBox="0 0 30 30"><path fill="#0B1F35" d="M17.424 11.285c.007-.277.271-.573.849-.648.286-.037 1.078-.067 1.974.346l.351-1.642A5.425 5.425 0 0 0 18.726 9c-1.979 0-3.371 1.051-3.382 2.557-.013 1.114.994 1.735 1.752 2.106.78.379 1.042.623 1.038.961-.006.519-.623.749-1.197.758-1.007.016-1.59-.272-2.056-.489l-.363 1.696c.468.215 1.331.401 2.225.411 2.104 0 3.48-1.039 3.486-2.648.008-2.041-2.823-2.155-2.805-3.067zm-2.625-2.144h-2.002l-1.655 7.737h2.001zm-4.964 0l-2.082 5.266-.844-4.477c-.099-.5-.489-.789-.923-.789H2.58l-.047.225c.699.152 1.493.397 1.975.658.294.16.379.3.475.68l1.596 6.175h2.116l3.243-7.737H9.835zm14.145 0a.91.91 0 0 0-.852.567l-3.004 7.17h2.102l.417-1.156h2.568l.243 1.156h1.851l-1.617-7.737H23.98zm-.76 4.996l1.054-2.906.606 2.906h-1.66zm-10.287 5.502h1.086v-.299h-1.086v-.886h1.152v-.304h-1.518v2.804h1.581v-.304h-1.215zM14.709 18h.366v2.954h-.366zm1.884.899c-.587 0-.944.474-.944 1.082s.37 1.019.99 1.019c.321 0 .545-.071.674-.129l-.067-.262a1.316 1.316 0 0 1-.558.104c-.37 0-.682-.204-.69-.699h1.415a.915.915 0 0 0 .013-.17c-.001-.371-.171-.945-.833-.945zm-.591.853c.029-.254.187-.591.562-.591.412 0 .512.362.508.591h-1.07zm2.916-.562c.2 0 .337.05.425.096l.083-.279a1.155 1.155 0 0 0-.508-.108c-.658 0-1.082.453-1.082 1.073 0 .616.395 1.028 1.003 1.028.27 0 .483-.071.578-.117l-.063-.275a1.042 1.042 0 0 1-.449.096c-.399 0-.699-.287-.699-.753.001-.416.25-.761.712-.761zm1.527-.732l-.358.108v.375h-.312v.279h.312v1.099c0 .237.042.416.142.528a.52.52 0 0 0 .394.153c.141 0 .254-.025.325-.05l-.017-.279a.675.675 0 0 1-.212.025c-.204 0-.275-.141-.275-.391v-1.086h.524v-.279h-.524v-.482zm1.368.882H21.8l-.017-.399h-.32c.012.187.017.391.017.628v1.386h.366v-1.073c0-.058.004-.121.012-.171.05-.275.233-.466.491-.466.05 0 .087 0 .125.008v-.346c-.033-.004-.063-.008-.1-.008-.245 0-.47.17-.561.441zm1.942-.441c-.553 0-.998.395-.998 1.065 0 .636.424 1.036.965 1.036.483 0 1.003-.325 1.003-1.069 0-.612-.391-1.032-.97-1.032zm-.016 1.826c-.358 0-.607-.333-.607-.774 0-.379.187-.778.616-.778.433 0 .603.429.603.77-.001.453-.263.782-.612.782zm2.55-1.826a.746.746 0 0 0-.666.374h-.008l-.021-.333h-.324c.012.166.017.333.017.545v1.469h.366v-1.211c0-.063.008-.125.025-.171a.528.528 0 0 1 .491-.375c.345 0 .466.271.466.595v1.161H27v-1.198c0-.69-.433-.856-.711-.856z"/></svg>