<svg xmlns="http://www.w3.org/2000/svg" width="30" height="30" version="1" viewBox="0 0 30 30"><path fill="#1A1F71" d="M14.799 9.141l-1.655 7.737h-2.002l1.655-7.737h2.002zm8.42 4.996l1.055-2.906.605 2.906h-1.66zm2.235 2.741h1.85l-1.616-7.737H23.98a.91.91 0 0 0-.852.567l-3.004 7.17h2.102l.417-1.156h2.568l.243 1.156zm-5.225-2.526c.008-2.042-2.823-2.155-2.805-3.067.007-.277.27-.573.849-.648.286-.037 1.078-.067 1.974.346l.35-1.642A5.4 5.4 0 0 0 18.727 9c-1.98 0-3.371 1.051-3.382 2.557-.013 1.114.994 1.735 1.752 2.106.78.38 1.042.623 1.038.961-.006.52-.623.75-1.197.758-1.007.016-1.59-.272-2.056-.489l-.363 1.696c.468.215 1.33.401 2.225.411 2.104.001 3.48-1.038 3.486-2.647m-8.291-5.21l-3.243 7.736H6.579l-1.596-6.175c-.097-.379-.181-.519-.475-.68-.481-.26-1.276-.506-1.975-.658l.047-.225h3.407c.434 0 .824.29.923.788l.843 4.478L9.835 9.14h2.103zm2.08 10.497h-1.086v1.01h1.215v.305h-1.581V18.15h1.519v.304h-1.153v.886h1.086v.3zm.69-1.64h.366v2.954h-.366V18zm2.363 1.751c.004-.229-.096-.59-.508-.59-.375 0-.533.336-.562.59h1.07zm-1.074.262c.008.495.32.7.69.7.262 0 .425-.047.558-.105l.067.262a1.646 1.646 0 0 1-.674.13c-.62 0-.99-.413-.99-1.02s.358-1.082.944-1.082c.662 0 .832.574.832.945a.822.822 0 0 1-.013.17h-1.414zm3.419.87a1.411 1.411 0 0 1-.578.117c-.607 0-1.003-.412-1.003-1.028 0-.62.424-1.073 1.082-1.073.216 0 .408.054.508.108l-.083.279a.897.897 0 0 0-.425-.096c-.462 0-.71.345-.71.762 0 .466.3.753.698.753.208 0 .345-.05.45-.096l.061.274zm1.027-2.426v.483h.524v.28h-.524v1.085c0 .25.071.391.275.391a.67.67 0 0 0 .212-.025l.017.28a.999.999 0 0 1-.325.05.52.52 0 0 1-.395-.155c-.1-.113-.142-.29-.142-.528V19.22h-.312v-.279h.312v-.375l.358-.108zm1.036 1.112a9.14 9.14 0 0 0-.017-.628h.32l.017.399h.012c.092-.27.316-.441.562-.441.038 0 .067.004.1.008v.346c-.038-.008-.075-.008-.125-.008-.258 0-.441.19-.491.466-.008.05-.012.112-.012.17v1.074h-.366v-1.386zm1.651.382c0 .441.25.774.607.774.35 0 .611-.329.611-.782 0-.341-.17-.77-.603-.77-.428 0-.615.4-.615.778m1.594-.02c0 .745-.52 1.069-1.003 1.069-.54 0-.965-.4-.965-1.036 0-.67.445-1.065.998-1.065.58 0 .97.42.97 1.032m.561-.446c0-.212-.004-.379-.017-.545h.324l.021.333h.008a.746.746 0 0 1 .666-.374c.28 0 .711.166.711.857v1.198h-.366v-1.16c0-.325-.12-.596-.466-.596a.528.528 0 0 0-.49.375.518.518 0 0 0-.026.171v1.211h-.366v-1.47z"/></svg>