<svg xmlns="http://www.w3.org/2000/svg" width="36" height="36" version="1" viewBox="0 0 36 36"><path fill="#1A1F71" d="M17.85 11.176l-2.07 9.672h-2.5l2.069-9.672h2.502zm10.526 6.245l1.318-3.632.757 3.632h-2.075zm2.793 3.427h2.313l-2.021-9.672h-2.135c-.481 0-.886.28-1.065.71l-3.755 8.962h2.628l.52-1.445h3.21l.305 1.445zm-6.532-3.158c.01-2.552-3.53-2.694-3.506-3.834.009-.347.339-.716 1.062-.81.358-.046 1.347-.083 2.468.433l.438-2.052a6.74 6.74 0 0 0-2.34-.427c-2.474 0-4.214 1.314-4.228 3.197-.016 1.393 1.243 2.17 2.19 2.633.975.474 1.302.778 1.298 1.202-.007.65-.78.936-1.496.947-1.258.02-1.988-.34-2.57-.61l-.454 2.12c.585.267 1.664.5 2.782.512 2.629 0 4.349-1.3 4.356-3.31m-10.363-6.515l-4.054 9.672H7.575L5.58 13.13c-.121-.474-.226-.649-.594-.849-.602-.327-1.595-.632-2.468-.823l.059-.28h4.258c.542 0 1.03.36 1.154.985l1.054 5.597 2.603-6.583h2.628zm1.918 14.01h-1.448v1.348h1.62v.405h-2.108v-3.74h2.025v.406h-1.537v1.18h1.448v.4zm.92-2.186h.488v3.939h-.488V23zm3.15 2.335c.006-.305-.128-.788-.677-.788-.5 0-.71.45-.75.788h1.427zm-1.431.35c.01.66.427.932.92.932.35 0 .567-.06.745-.139l.089.35a2.197 2.197 0 0 1-.9.171c-.825 0-1.32-.549-1.32-1.359s.478-1.443 1.26-1.443c.882 0 1.11.766 1.11 1.26 0 .1-.006.171-.017.226H18.83zm4.559 1.16a1.893 1.893 0 0 1-.77.155c-.81 0-1.338-.55-1.338-1.37 0-.827.566-1.431 1.442-1.431.288 0 .544.072.677.144l-.11.372a1.198 1.198 0 0 0-.567-.128c-.616 0-.949.46-.949 1.016 0 .62.4 1.004.932 1.004.277 0 .46-.066.6-.128l.083.366zm1.37-3.235v.644h.698v.371h-.699v1.448c0 .333.094.522.366.522a.884.884 0 0 0 .283-.034l.022.372a1.34 1.34 0 0 1-.433.066c-.228 0-.41-.078-.527-.205-.133-.15-.189-.388-.189-.705v-1.465h-.416v-.37h.416v-.5l.478-.144zm1.38 1.481c0-.316-.006-.588-.022-.838h.427l.022.533h.016c.122-.36.422-.588.749-.588.05 0 .089.006.134.011v.461c-.05-.01-.1-.01-.167-.01-.344 0-.588.254-.654.621a1.47 1.47 0 0 0-.017.228v1.431h-.488v-1.848zm2.202.511c0 .588.333 1.032.81 1.032.466 0 .815-.438.815-1.043 0-.455-.227-1.027-.804-1.027-.572 0-.82.533-.82 1.038m2.123-.028c0 .993-.694 1.426-1.337 1.426-.72 0-1.287-.533-1.287-1.381 0-.893.593-1.42 1.331-1.42.772-.001 1.293.559 1.293 1.375m.748-.594a9.85 9.85 0 0 0-.022-.727h.433l.028.444h.011a.994.994 0 0 1 .888-.499c.371 0 .95.222.95 1.143v1.598h-.489v-1.548c0-.433-.16-.793-.62-.793-.317 0-.567.228-.656.5a.68.68 0 0 0-.034.227v1.614h-.488V24.98z"/></svg>