<svg xmlns="http://www.w3.org/2000/svg" width="47" height="41" viewBox="0 0 47 41"><g fill="none" fill-rule="evenodd"><path d="M-1-4h48v48H-1z"/><path fill="#FFF" d="M30.5 25h-26A4.505 4.505 0 0 1 0 20.5v-16C0 2.019 2.019 0 4.5 0h26C32.981 0 35 2.019 35 4.5v16c0 2.481-2.019 4.5-4.5 4.5zM4.5 1C2.57 1 1 2.57 1 4.5v16C1 22.43 2.57 24 4.5 24h26c1.93 0 3.5-1.57 3.5-3.5v-16C34 2.57 32.43 1 30.5 1h-26z"/><path fill="#FFF" d="M.5 8h34v4H.5z" opacity=".3"/><path fill="#FFF" d="M42.5 41h-26a4.505 4.505 0 0 1-4.5-4.5V33h1v3.5c0 1.93 1.57 3.5 3.5 3.5h26c1.93 0 3.5-1.57 3.5-3.5v-16c0-1.93-1.57-3.5-3.5-3.5H41v-1h1.5c2.481 0 4.5 2.019 4.5 4.5v16c0 2.481-2.019 4.5-4.5 4.5z"/><path fill="#FFF" d="M36.5 33h-26A4.505 4.505 0 0 1 6 28.5V25h1v3.5c0 1.93 1.57 3.5 3.5 3.5h26c1.93 0 3.5-1.57 3.5-3.5v-16c0-1.93-1.57-3.5-3.5-3.5H35V8h1.5c2.481 0 4.5 2.019 4.5 4.5v16c0 2.481-2.019 4.5-4.5 4.5z"/><path fill="#FFF" d="M5 17h6v3H5z" opacity=".3"/></g></svg>