<svg xmlns="http://www.w3.org/2000/svg" width="24" height="21" viewBox="0 0 24 21"><g fill="none" fill-rule="evenodd"><path d="M0-1h24v24H0z"/><path fill="#FFF" d="M15.5 13h-13A2.503 2.503 0 0 1 0 10.5v-8C0 1.122 1.122 0 2.5 0h13C16.878 0 18 1.122 18 2.5v8c0 1.378-1.122 2.5-2.5 2.5zM2.5 1C1.673 1 1 1.673 1 2.5v8c0 .827.673 1.5 1.5 1.5h13c.827 0 1.5-.673 1.5-1.5v-8c0-.827-.673-1.5-1.5-1.5h-13z"/><path fill="#FFF" d="M.5 4h17v2H.5z" opacity=".3"/><path fill="#FFF" d="M21.5 21h-13A2.503 2.503 0 0 1 6 18.5v-2h1v2c0 .827.673 1.5 1.5 1.5h13c.827 0 1.5-.673 1.5-1.5v-8c0-.799-.439-1.5-.94-1.5h-1.44V8h1.44C23.13 8 24 9.122 24 10.5v8c0 1.378-1.122 2.5-2.5 2.5z"/><path fill="#FFF" d="M18.5 17h-13A2.503 2.503 0 0 1 3 14.5v-2h1v2c0 .827.673 1.5 1.5 1.5h13c.827 0 1.5-.673 1.5-1.5v-8c0-.799-.439-1.5-.94-1.5h-1.44V4h1.44C20.13 4 21 5.122 21 6.5v8c0 1.378-1.122 2.5-2.5 2.5z"/></g></svg>