<svg width="36" height="36" viewBox="0 0 36 36" xmlns="http://www.w3.org/2000/svg">
  <g fill="#FFF" fill-rule="evenodd">
    <path d="M5.582 10.074c-.045.032-.078.067-.1.103l.1-.103zm-.226.1c-.054-.094-.126-.205-.232-.362l-.303-.445c-.1-.15-.183-.278-.26-.4-.627-1.015-.775-1.748-.02-2.166.585-.324 1.367-.14 2.57.408.16.07.322.15.515.242 1.193.578 1.59.745 1.6.74C12.21 6.656 14.436 6 17.1 6c7.92 0 13.9 4.862 13.9 11.156 0 3.27-1.646 6.27-4.51 8.342 0 .123.015.31.043.554.06.516.18 1.275.364 2.275l.066.366-3.277 1.062-.18-.267c-.477-.716-.852-1.245-1.122-1.585-.103-.128-.188-.227-.254-.295-1.57.464-3.262.704-5.032.704-1.805 0-3.794-.365-5.842-1.04-.088.086-.21.217-.358.39-.346.4-.84 1.018-1.477 1.85l-.18.232-3.474-1.053.107-.396c.293-1.1.488-1.938.585-2.506.046-.27.068-.474.068-.605l-.035-.103c-.963-2.107-3.09-3.884-6.244-5.3L0 19.665V15.24l.252-.11c2.09-.93 3.122-1.83 4.29-3.533.132-.192.27-.398.448-.672l.423-.648c-.015-.03-.034-.064-.057-.103zm5.98 16.228c2.035.688 4.004 1.06 5.766 1.06 1.754 0 3.426-.247 4.963-.72.45-.14.833.31 1.974 2.007l1.956-.636c-.413-2.295-.473-2.97-.126-3.215 2.727-1.924 4.282-4.71 4.282-7.744 0-5.78-5.566-10.306-13.05-10.306-2.513 0-4.612.618-7.49 2.096-.283.146-.596.076-1.11-.14-.165-.07-.35-.154-.596-.273l-.65-.318c-.19-.09-.346-.165-.497-.233-.943-.43-1.562-.575-1.81-.438-.11.06-.05.355.333.975.07.112.148.23.243.372.058.087.264.388.303.444.114.17.195.297.26.41.248.426.334.722.053.967l-.442.677c-.18.28-.32.49-.457.688C4.038 13.835 2.927 14.832.85 15.79v3.328c3.157 1.462 5.338 3.306 6.385 5.54.295.375.13 1.313-.432 3.458l2.127.644c1.61-2.093 1.982-2.502 2.407-2.358z" fill-rule="nonzero"/>
    <path d="M14.372 11.072c2.19-.667 4.5-.652 6.41-.007l.48-1.42c-2.21-.747-4.84-.765-7.327-.008l.437 1.435z" fill-rule="nonzero" opacity=".3"/>
    <circle opacity=".3" cx="7.606" cy="15.452" r="1.298"/>
    <path d="M34.046 14.91c0-.45-.284-.705-.694-.7-.413.006-.715.275-.722.706-.01.73.233 1.306.787 1.696.45-.377.63-.94.63-1.703zm-.6 2.677c-.604.308-1.41.465-2.446.465v-.85c.653 0 1.182-.06 1.604-.18.336-.097.604-.233.813-.41.22.155.487.28.806.375.474.142 1.063.215 1.777.215v.85c-1.05 0-1.9-.16-2.555-.465-.33-.153-.61-.343-.84-.566-.547-.528-.813-1.246-.8-2.118.015-.92.702-1.53 1.537-1.54.846-.012 1.53.598 1.53 1.547 0 .867-.207 1.563-.65 2.077-.206.24-.464.44-.777.6z" fill-rule="nonzero"/>
    <path fill="none" d="M0 0h36v36H0z"/>
  </g>
</svg>
