<svg width="24" height="24" viewBox="0 0 24 24" xmlns="http://www.w3.org/2000/svg">
  <g fill="none" fill-rule="evenodd">
    <path d="M4.396 17.59l-.032-.07c.002.02.01.043.032.07zM.25 14.03L0 13.92v-3.135l.253-.112c1.372-.608 2.04-1.19 2.807-2.305.087-.127.178-.264.297-.445l.236-.36c-.033-.06-.08-.13-.144-.225l-.205-.298c-.068-.1-.124-.187-.176-.27-.46-.743-.575-1.305.036-1.644.448-.247.998-.118 1.847.267.106.048.216.1.346.163.65.315 1.004.463.94.495 2.016-1.032 3.524-1.475 5.33-1.475 5.364 0 9.43 3.297 9.43 7.58 0 2.204-1.1 4.225-3.01 5.63.002.073.01.168.024.284.04.34.12.842.242 1.506l.067.366-2.41.78-.18-.268c-.316-.474-.565-.824-.743-1.047-.038-.048-.073-.09-.103-.124-1.037.296-2.153.45-3.317.45-1.198 0-2.512-.236-3.864-.673-.048.05-.105.114-.172.19-.23.265-.557.675-.98 1.227l-.18.233-2.548-.77.106-.397c.195-.73.324-1.284.388-1.658.027-.163.042-.287.043-.366C3.726 16.126 2.33 14.963.25 14.03zm7.513 4.152c1.346.454 2.646.7 3.807.7 1.158 0 2.26-.163 3.274-.475.396-.123.61.103 1.42 1.305l1.087-.352c-.288-1.603-.306-1.95-.003-2.163 1.785-1.256 2.8-3.07 2.8-5.046 0-3.77-3.65-6.73-8.577-6.73-1.654 0-3.036.407-4.94 1.383-.243.125-.476.073-.86-.088-.115-.05-.24-.107-.407-.187l-.435-.212c-.124-.06-.23-.108-.328-.153-.586-.266-.972-.357-1.08-.297.033-.02.057.103.273.452.046.073.097.15.16.243.038.058.175.258.2.297.08.116.136.202.182.28.2.345.272.592.018.814-.09.135-.253.387-.283.432-.122.186-.216.327-.308.46-.803 1.17-1.55 1.847-2.91 2.486v2.038c2.075.973 3.52 2.198 4.235 3.684.247.275.154.852-.227 2.31l1.196.36c1.173-1.52 1.326-1.67 1.707-1.542z" fill="#0B1F35" fill-rule="nonzero"/>
    <path d="M9.22 7.946c1.246-.607 3.124-.577 4.07-.02l.507-.86c-1.24-.733-3.475-.77-5.016-.02l.44.9z" fill="#0B1F35" fill-rule="nonzero" opacity=".3"/>
    <circle fill="#0B1F35" opacity=".3" cx="4.404" cy="10.635" r="1"/>
    <path d="M22.675 11.136c.01-.267-.103-.392-.25-.397-.138-.006-.24.096-.236.316.007.39.075.667.267.857.15-.174.206-.424.218-.777zm.48 1.072c-.152.25-.374.436-.68.564-.374.157-.874.228-1.523.228v-.738c.323 0 .587-.014.803-.045.342-.05.562-.144.702-.304.148.147.37.242.697.295.228.037.507.054.846.054V13c-.642 0-1.143-.074-1.525-.228-.32-.128-.556-.312-.72-.555-.2-.294-.293-.674-.302-1.146-.013-.64.435-1.088.997-1.07.562.02.982.494.96 1.16-.013.432-.094.778-.256 1.048z" fill="#0B1F35" fill-rule="nonzero"/>
    <path fill="none" d="M0 0h24v24H0z"/>
  </g>
</svg>
