<svg xmlns="http://www.w3.org/2000/svg" width="30" height="30" version="1" viewBox="0 0 30 30"><path fill="#296A51" d="M2 15C2 7.835 7.835 2 15 2v4.709c-4.606 0-8.291 3.685-8.291 8.291s3.685 8.291 8.291 8.291c4.504 0 8.291-3.685 8.291-8.291H28c0 7.165-5.835 13-13 13S2 22.165 2 15"/><path fill="#87B94B" d="M9.5 15c0-3.044 2.455-5.499 5.5-5.499s5.5 2.455 5.5 5.499-2.455 5.499-5.5 5.499c-3.045.098-5.5-2.455-5.5-5.499"/><path fill="#296A51" d="M19.179 7.571c0-1.828 1.422-3.25 3.25-3.25s3.25 1.422 3.25 3.25-1.422 3.25-3.25 3.25-3.25-1.421-3.25-3.25"/></svg>