<svg xmlns="http://www.w3.org/2000/svg" width="22" height="22" viewBox="0 0 22 22"><g fill="none" fill-rule="evenodd"><path d="M-1-1h24v24H-1z"/><path fill="#FFF" d="M16.5 9h-4.85A3.49 3.49 0 0 0 8.5 7a3.5 3.5 0 1 0 0 7 3.49 3.49 0 0 0 3.15-2h4.85l1.5-1.5L16.5 9zm-8 3.25a1.75 1.75 0 1 1 0-3.5 1.75 1.75 0 0 1 0 3.5z" opacity=".3"/><path fill="#FFF" d="M11 22C4.935 22 0 17.065 0 11c0-3.388 1.527-6.537 4.189-8.639l.62.785A9.953 9.953 0 0 0 1 11c0 5.514 4.486 10 10 10s10-4.486 10-10S16.514 1 11 1V0c6.065 0 11 4.935 11 11s-4.935 11-11 11z"/><path fill="#FFF" d="M5 6H4V3H1V2h4z"/></g></svg>