<svg xmlns="http://www.w3.org/2000/svg" width="42" height="42" viewBox="0 0 42 42"><g fill="none" fill-rule="evenodd"><path d="M-3-3h48v48H-3z"/><path fill="#0B1F35" d="M31.5 17h-9.183A6.994 6.994 0 0 0 16 13a7 7 0 1 0 0 14 6.992 6.992 0 0 0 6.317-4H31.5l3-3-3-3zM16 23a3 3 0 1 1 0-6 3 3 0 0 1 0 6z" opacity=".3"/><path fill="#0B1F35" d="M21 42C9.42 42 0 32.579 0 21 0 14.532 2.915 8.521 7.998 4.508l.62.785C3.776 9.115 1 14.841 1 21c0 11.028 8.972 20 20 20s20-8.972 20-20S32.028 1 21 1V0c11.58 0 21 9.421 21 21s-9.42 21-21 21z"/><path fill="#0B1F35" d="M9 11H8V5H2V4h7z"/></g></svg>
