<svg xmlns="http://www.w3.org/2000/svg" width="24" height="24" viewBox="0 0 24 24"><g fill="none" fill-rule="evenodd"><path d="M0 0h24v24H0z"/><path fill="#0B1F35" fill-rule="nonzero" d="M1 4.562C1 3.7 1.687 3 2.533 3H6v11H2.533C1.687 14 1 13.3 1 12.438V4.562zm20.958 3.65c0-.95-.579-1.775-1.419-2.139a2.29 2.29 0 0 0 .122-.736C20.66 4.044 19.595 3 18.285 3H7v9.923a3.22 3.22 0 0 0 .541 1.787L10 18.16V20c0 1.082.399 1.985 1.028 2.365.321.214.722.337 1.14.337a2.09 2.09 0 0 0 1.512-.647c1.344-1.241 1.804-3.226 1.304-5.179l-.29-.876h5.467c1.364 0 2.339-.732 2.339-2 0-.452-.128-.961-.343-1.371.525-.425.843-.978.843-1.629 0-.854-.47-1.567-1.2-1.952.104-.264.158-.546.158-.836z"/></g></svg>