<svg xmlns="http://www.w3.org/2000/svg" width="24" height="25" viewBox="0 0 24 25"><g fill="none" fill-rule="evenodd"><path fill="#FFE60D" d="M9 9h2l1 1 1-1h2v9l-3 1-3-1"/><path fill="#0B1F35" d="M10.575 2.684a3.196 3.196 0 0 1 2.85.007l.352-.717a3.996 3.996 0 0 0-3.55-.007l.348.718zm-3.06 17.659c1.42.93 2.966 1.42 4.467 1.42 1.515 0 3.072-.5 4.505-1.446l-.44-.668c-2.592 1.71-5.5 1.717-8.094.023l-.438.67z"/><path fill="#0B1F35" d="M10 19.046h.8c.537 0 .84.596.842.6l.353.6.36-.6c.004-.006.308-.6.845-.6h.8c1.028 0 2-1.172 2-2.2v-8.8h-1.6v-1.7l-.033-.16c-.344-.794-1.405-1.44-2.367-1.44s-2.023.646-2.367 1.44l-.033.16c0 .508-.014 1.275 0 1.7H8v8.8c0 1.028.972 2.2 2 2.2zm3.6-12.5v1.607L12.003 9.43 10.5 8.15c-.013-.344.002-1.008 0-1.604.256-.482.88-.9 1.5-.9s1.344.418 1.6.9zm-3.6 2.5l1.997 1.6 2.143-1.6H15v4H9v-4h1zm5 5v2.8c0 .583-.417 1.2-1 1.2h-.8c-.546 0-.943.172-1.2.435-.257-.262-.654-.434-1.2-.434H10c-.583 0-1-.617-1-1.2v-2.8h6z"/><path fill="#0B1F35" d="M1.594 11.89c-.052 1.495-.432 3.35-1.116 4.267l-.3.403.462.203c.81.353 1.614.345 2.4-.024.83 1.395 1.9 1.734 3.124 2.122l.636.2v-.546c0-.528-.146-2.002-.73-3.055.56-.09 1.136-.324 1.477-.915l.254-.442-.488-.14c-.414-.12-.912-1.76-.912-3.617 0-2.153.834-2.82 2.21-3.66.633-.387.552-.827.492-1.147-.062-.34-.148-.806.44-1.788l.364-.606H9.2c-1.192 0-2.393.452-2.716 1.448-.466-.22-1.077-.61-1.386-1.065l-.367-.543-.314.573c-.717 1.303-.777 2.43-.2 3.215-.682.3-1.123.942-1.526 1.528-.58.844-1.082 1.573-2.164 1.573H.044l.09.475c.2 1.065.792 1.408 1.46 1.54zM3.35 8.756c.576-.838.968-1.353 1.706-1.353h1.398l-1.187-.74c-.824-.512-.73-1.4-.404-2.192.615.577 1.443.952 1.827 1.06l.51.145v-.53c0-.742.73-1.026 1.31-1.134-.35.833-.255 1.343-.194 1.673.014.074.033.176.028.2 0 0-.023.043-.152.12-1.47.9-2.592 1.79-2.592 4.343 0 1.157.223 3.253 1.007 4.076-.217.16-.593.29-1.283.29h-.966l.684.684c.53.53.83 1.682.925 2.563-1.023-.34-1.793-.71-2.41-1.942l-.195-.393-.374.232c-.526.327-1.046.433-1.578.32.678-1.25.99-3.198.99-4.63v-.36l-.358-.04c-.56-.06-.836-.186-.994-.516 1.16-.213 1.786-1.123 2.302-1.874z"/><path fill="#0B1F35" d="M4.75 10.14l-.7-.386c-.596 1.08-.85 2.336-.85 4.192H4c0-1.712.224-2.85.75-3.807zm16.56-1.837c-.403-.586-.845-1.23-1.527-1.528.58-.784.518-1.912-.198-3.216l-.316-.573-.368.54c-.31.457-.92.846-1.386 1.066-.323-.995-1.524-1.447-2.716-1.447h-.706l.363.605c.59.984.503 1.45.44 1.788-.06.32-.14.76.494 1.15 1.376.84 2.21 1.505 2.21 3.658 0 1.856-.498 3.496-.912 3.616l-.49.142.255.442c.34.59.917.826 1.477.916-.584 1.053-.73 2.527-.73 3.055v.546l.636-.2c1.225-.388 2.295-.728 3.124-2.124.784.368 1.59.375 2.4.023l.46-.202-.3-.402c-.682-.917-1.062-2.772-1.114-4.267.667-.132 1.258-.475 1.46-1.54l.09-.473h-.484c-1.08 0-1.582-.73-2.162-1.574zm.648 2.845l-.358.04v.358c0 1.433.312 3.38.99 4.63-.534.113-1.053.007-1.58-.32l-.372-.232-.196.393c-.617 1.233-1.386 1.602-2.41 1.94.094-.88.395-2.03.926-2.562l.683-.683h-.965c-.69 0-1.065-.132-1.283-.29.785-.823 1.008-2.92 1.008-4.076 0-2.554-1.123-3.444-2.59-4.342a.523.523 0 0 1-.152-.117c-.005-.03.013-.13.027-.204.06-.33.155-.84-.195-1.672.58.11 1.31.393 1.31 1.136v.53l.51-.145c.384-.108 1.212-.483 1.827-1.06.327.793.42 1.68-.404 2.194l-1.187.74h1.4c.737 0 1.128.514 1.705 1.352.517.75 1.144 1.66 2.303 1.874-.16.33-.436.458-.995.518z"/><path fill="#0B1F35" d="M19.25 10.14c.526.955.75 2.094.75 3.806h.8c0-1.856-.254-3.11-.85-4.193l-.7.386z"/></g></svg>