<svg xmlns="http://www.w3.org/2000/svg" width="24" height="24" viewBox="0 0 24 24"><g fill="#0B1F35" fill-rule="evenodd"><path d="M10.575 2.638a3.196 3.196 0 0 1 2.85.007l.352-.718a3.996 3.996 0 0 0-3.55-.007l.348.718zm-3.06 17.66c1.42.928 2.966 1.42 4.467 1.42 1.515 0 3.072-.5 4.505-1.447l-.44-.667c-2.592 1.71-5.5 1.72-8.094.024l-.438.67z"/><path d="M10 19h.8c.537 0 .84.596.842.6l.353.6.36-.6c.004-.006.308-.6.845-.6h.8c1.028 0 2-1.172 2-2.2V8h-1.6V6.3l-.033-.158C14.023 5.346 12.962 4.7 12 4.7s-2.023.646-2.367 1.442L9.6 6.3c0 .508-.014 1.275 0 1.7H8v8.8c0 1.028.972 2.2 2 2.2zm3.6-12.5v1.607l-1.597 1.278-1.503-1.28c-.013-.345.002-1.01 0-1.605.256-.482.88-.9 1.5-.9s1.344.418 1.6.9zM10 9l1.997 1.6L14.14 9H15v4H9V9h1zm5 5v2.8c0 .583-.417 1.2-1 1.2h-.8c-.546 0-.943.172-1.2.435-.257-.263-.654-.435-1.2-.435H10c-.583 0-1-.617-1-1.2V14h6z"/><path d="M1.594 11.844c-.052 1.495-.432 3.35-1.116 4.267l-.3.404.462.203c.81.353 1.614.345 2.4-.024.83 1.397 1.9 1.735 3.124 2.123l.636.2v-.546c0-.528-.146-2.002-.73-3.055.56-.09 1.136-.325 1.477-.916l.254-.442-.488-.142c-.414-.12-.912-1.76-.912-3.616 0-2.153.834-2.818 2.21-3.658.633-.388.552-.828.492-1.15-.062-.338-.148-.804.44-1.786l.364-.606H9.2c-1.192 0-2.393.452-2.716 1.448-.466-.22-1.077-.61-1.386-1.065l-.367-.54-.314.57c-.717 1.304-.777 2.433-.2 3.216-.682.298-1.123.94-1.526 1.527C2.11 9.1 1.608 9.83.526 9.83H.044l.09.475c.2 1.064.792 1.407 1.46 1.54zM3.35 8.71c.576-.838.968-1.352 1.706-1.352h1.398l-1.187-.74c-.824-.513-.73-1.4-.404-2.193.615.576 1.443.95 1.827 1.06l.51.144V5.1c0-.743.73-1.026 1.31-1.134-.35.83-.255 1.34-.194 1.672.014.073.033.175.028.2 0 0-.023.042-.152.12C6.722 6.856 5.6 7.746 5.6 10.3c0 1.158.223 3.254 1.007 4.076-.217.16-.593.29-1.283.29h-.966l.684.684c.53.532.83 1.682.925 2.563-1.023-.34-1.793-.71-2.41-1.94l-.195-.394-.374.23c-.526.328-1.046.434-1.578.32.678-1.25.99-3.197.99-4.63v-.36l-.358-.038c-.56-.06-.836-.187-.994-.517C2.208 10.37 2.834 9.46 3.35 8.71z"/><path d="M4.75 10.093l-.7-.385c-.596 1.082-.85 2.336-.85 4.192H4c0-1.712.224-2.85.75-3.807zm16.56-1.836c-.403-.586-.845-1.23-1.527-1.528.58-.784.518-1.913-.198-3.216l-.316-.572-.368.54c-.31.456-.92.845-1.386 1.065C17.193 3.552 15.992 3.1 14.8 3.1h-.706l.363.606c.59.982.503 1.447.44 1.786-.06.32-.14.76.494 1.15 1.376.84 2.21 1.505 2.21 3.658 0 1.856-.498 3.496-.912 3.616l-.49.142.255.442c.34.59.917.826 1.477.916-.584 1.053-.73 2.527-.73 3.055v.548l.636-.202c1.225-.387 2.295-.726 3.124-2.123.784.37 1.59.377 2.4.024l.46-.202-.3-.403c-.682-.917-1.062-2.772-1.114-4.267.667-.133 1.258-.475 1.46-1.54l.09-.474h-.484c-1.08 0-1.582-.73-2.162-1.573zm.648 2.845l-.358.04v.358c0 1.433.312 3.38.99 4.63-.534.113-1.053.008-1.58-.32l-.372-.232-.196.393c-.617 1.234-1.386 1.603-2.41 1.942.094-.88.395-2.03.926-2.562l.683-.684h-.965c-.69 0-1.065-.132-1.283-.29.785-.822 1.008-2.918 1.008-4.076 0-2.554-1.123-3.444-2.59-4.342-.124-.075-.152-.116-.152-.116-.005-.03.013-.13.027-.204.06-.332.155-.84-.195-1.672.58.108 1.31.39 1.31 1.134v.53l.51-.145c.384-.11 1.212-.484 1.827-1.06.327.793.42 1.68-.404 2.193l-1.187.74h1.4c.737 0 1.128.514 1.705 1.352.517.75 1.144 1.66 2.303 1.874-.16.33-.436.458-.995.518z"/><path d="M19.25 10.093c.526.957.75 2.095.75 3.807h.8c0-1.856-.254-3.11-.85-4.193l-.7.386z"/></g></svg>