<svg xmlns="http://www.w3.org/2000/svg" width="30" height="30" viewBox="0 0 30 30"><g fill="#FFF"><polygon fill="none" points="0 0 30 0 30 30 0 30" opacity="0"/><path d="M8.36128976,16.0776013 C7.35904451,14.3593977 6.91617225,13.4800859 6.64204175,12.4201896 C6.19962286,10.7151451 6.68219813,9.61185852 7.81322137,8.96413145 L10.1910456,7.60418249 C10.7061458,7.30866684 10.7863214,6.6313686 10.2173831,5.65664463 L7.97417226,1.80463765 C7.73951515,1.40110581 7.49704991,1.16210602 7.26860214,1.06280516 C7.03116318,0.961013744 6.77605922,0.966141141 6.42515632,1.16672482 L5.23587304,1.84791585 C3.57234299,2.79964069 1.95973401,4.76792558 1.34981176,7.02567754 C0.502269035,10.1614953 1.12443745,13.1132317 4.25420434,18.4843054 C7.38176798,23.8573628 9.65182579,25.8699536 12.8199473,26.7115317 C13.5519617,26.9060733 14.3047083,27 15.0653349,27 C16.652653,27 18.2205399,26.5820742 19.2980385,25.9651114 L20.4864498,25.2844199 C21.053896,24.95902 21.2260834,24.5607552 20.6988302,23.6527219 L18.4551034,19.8007601 C17.8831478,18.8208678 17.2406869,18.5463545 16.7200416,18.8434411 L14.3413009,20.204649 C13.2151493,20.8472862 12.0214239,20.7119257 10.7568856,19.4842825 C9.96912784,18.7186501 9.4231691,17.9003898 8.42398731,16.1838136 L8.36128976,16.0776013 Z M9.2867025,15.6781141 C9.87342435,16.6861643 10.603938,17.9411358 11.4538501,18.7671769 C12.5682365,19.849049 13.3192918,19.6364929 13.8456725,19.3361143 L16.2233724,17.9755012 C17.2851207,17.3696529 18.49708,17.8889514 19.3187474,19.2966578 L21.5629263,23.149395 C22.6131199,24.9580305 21.5077205,25.8515295 20.9839076,26.151908 L19.7950577,26.832851 C18.719187,27.4488817 17.0026725,28 15.0653349,28 C14.2590739,28 13.415581,27.9045407 12.5631011,27.677984 C9.55887981,26.8799443 6.97576307,25.1476763 3.38995538,18.9873697 C-0.199703879,12.8270632 -0.420526981,9.74309154 0.384450256,6.76476152 C1.16118268,3.88952754 3.21535106,1.85178978 4.73928724,0.979928211 L5.92813719,0.298985237 C6.67405708,-0.127399616 7.28260447,-0.0192124148 7.66262562,0.143704783 C8.1106911,0.338441746 8.50483466,0.727915671 8.83863702,1.30194423 L11.0815321,5.15340861 C11.9031995,6.56111502 11.7491369,7.86317981 10.6886724,8.47157372 L8.30968866,9.83218688 C7.7807403,10.135111 7.22226327,10.6747743 7.60998756,12.1690304 C7.90527426,13.3107236 8.63707175,14.5656951 9.22507745,15.5737453 L9.2867025,15.6781141 Z" transform="translate(4 1)"/></g></svg>