<svg height="24" viewBox="0 0 24 24" width="24" xmlns="http://www.w3.org/2000/svg"><g fill="none" fill-rule="evenodd"><path d="m0 0h24v24h-24z"/><path d="m5.1494943 22.0824454c.838.484 2.175.9171982 3.684.9171982.65793702.0010924 1.3131984-.0839672 1.949-.2531982 2.34-.627 4.352-1.988 7.145-6.828 2.796-4.84 2.968-7.26299999 2.341-9.60299999-.605-2.259-2.205-3.86-3.392-4.545l-.926-.535c-.581-.335-1.055-.25-1.351-.122-.349.153-.656.459-.916.91l-1.747 3.026c-.64 1.106-.52 2.129.306 2.607l1.853 1.069c.412.238.847.662.545 1.83599999-.23.897-.8 1.883-1.258 2.675l-.048.082.866.5c.488-.845 1.144-1.978 1.408-3.008.438-1.70299999-.309-2.54499999-1.013-2.95099999l-1.853-1.069c-.479-.277.003-1.143.06-1.241l1.748-3.027c.188-.327.35-.449.452-.494.051-.022.184-.081.448.072l.926.535c1.021.589 2.399 1.974 2.925 3.938.562 2.093.383 4.30299999-2.239 8.84399999s-4.445 5.801-6.539 6.362c-1.963.526-3.852.024-4.873-.565l-.926-.535c-.196-.113-.492-.284-.085-.992l1.747-3.026c.057-.097.569-.947 1.046-.671l1.852 1.069c.704.407 1.808.632 3.062-.599.76-.744 1.367-1.796 1.854-2.642l-.409-.291-.457-.209c-.457.792-1.026 1.778-1.688 2.427-.868.85-1.453.683-1.863.447l-1.852-1.069c-.827-.476-1.771-.068-2.411 1.038l-1.748 3.027c-.818 1.421.043 2.123.451 2.359z" fill="#FFF" fill-rule="nonzero"/></g></svg>