<svg xmlns="http://www.w3.org/2000/svg" width="18" height="22" viewBox="0 0 18 22"><g fill="none" fill-rule="evenodd"><path d="M-2-1h24v24H-2z"/><path fill="#FFF" d="M1.659 20.547l.926.535c.838.484 2.175.917 3.684.917a7.52 7.52 0 0 0 1.949-.253c2.34-.627 4.352-1.988 7.145-6.828 2.796-4.84 2.968-7.263 2.341-9.603-.605-2.259-2.205-3.86-3.392-4.545l-.926-.535c-.581-.335-1.055-.25-1.351-.122-.349.153-.656.459-.916.91L9.372 4.049c-.64 1.106-.52 2.129.306 2.607l1.853 1.069c.412.238.847.662.545 1.836-.23.897-.8 1.883-1.258 2.675l-.023.042.89.458c.488-.845 1.095-1.896 1.359-2.926.438-1.703-.309-2.545-1.013-2.951L10.178 5.79c-.479-.277.003-1.143.06-1.241l1.748-3.027c.188-.327.35-.449.452-.494.051-.022.184-.081.448.072l.926.535c1.021.589 2.399 1.974 2.925 3.938.562 2.093.383 4.303-2.239 8.844-2.622 4.541-4.445 5.801-6.539 6.362-1.963.526-3.852.024-4.873-.565l-.926-.535c-.196-.113-.492-.284-.085-.992l1.747-3.026c.057-.097.569-.947 1.046-.671l1.852 1.069c.704.407 1.808.632 3.062-.599.76-.744 1.367-1.796 1.854-2.642l-.409-.291-.457-.209c-.457.792-1.026 1.778-1.688 2.427-.868.85-1.453.683-1.863.447l-1.852-1.069c-.827-.476-1.771-.068-2.411 1.038l-1.748 3.027c-.818 1.421.043 2.123.451 2.359z"/></g></svg>