<svg width="48" height="48" viewBox="0 0 48 48" xmlns="http://www.w3.org/2000/svg"><g fill="none" fill-rule="evenodd"><path d="M0 0h48v48H0z"/><path d="M22.285.873L18.17 8h-6.786A4.39 4.39 0 0 0 7 12.384v29.231A4.39 4.39 0 0 0 11.384 46h25.232A4.39 4.39 0 0 0 41 41.616V12.384A4.39 4.39 0 0 0 36.616 8h-8.324l3.538-6.127-1.732-1L25.982 8H20.48l3.538-6.127-1.733-1zM36.616 9A3.388 3.388 0 0 1 40 12.384v29.231A3.388 3.388 0 0 1 36.616 45H11.384A3.388 3.388 0 0 1 8 41.616V12.384A3.388 3.388 0 0 1 11.384 9h25.232z" fill="#0B1F35"/><path d="M7.5 40h6.371A2.129 2.129 0 0 0 16 37.871v-1.742A2.129 2.129 0 0 0 13.871 34H7.5v6zM40.5 34h-6.371A2.129 2.129 0 0 0 32 36.129v1.742c0 1.176.953 2.129 2.129 2.129H40.5v-6zM7.5 15h33v15h-33z" fill="#0B1F35" opacity=".3"/></g></svg>