<svg width="24px" height="24px" viewBox="0 0 24 24" version="1.1" xmlns="http://www.w3.org/2000/svg"><g stroke="none" stroke-width="1" fill="none" fill-rule="evenodd"><rect x="0" y="0" width="24" height="24"/><g transform="translate(3.000000, 0.000000)" fill="#0B1F35" fill-rule="nonzero"><path d="M5,18 C5,17.448 4.552,17 4,17 L0.5,17 L0.5,20 L4,20 C4.552,20 5,19.552 5,19 L5,18 Z" opacity="0.3"/><path d="M13,18 L13,19 C13,19.552 13.448,20 14,20 L17.5,20 L17.5,17 L14,17 C13.448,17 13,17.448 13,18 Z" opacity="0.3"/><polygon opacity="0.3" points="0.5 8 17.5 8 17.5 15 0.5 15"/><path d="M8.067,0.786 L6.212,4 L2.5,4 C1.121,4 0,5.122 0,6.5 L0,20.5 C0,21.878 1.121,23 2.5,23 L15.5,23 C16.879,23 18,21.878 18,20.5 L18,6.5 C18,5.122 16.879,4 15.5,4 L10.866,4 L12.433,1.286 L11.568,0.786 L9.712,4 L7.366,4 L8.933,1.286 L8.067,0.786 Z M15.5,5 C16.327,5 17,5.673 17,6.5 L17,20.5 C17,21.327 16.327,22 15.5,22 L2.5,22 C1.673,22 1,21.327 1,20.5 L1,6.5 C1,5.673 1.673,5 2.5,5 L15.5,5 Z"/></g></g></svg>