<svg width="36" height="36" viewBox="0 0 36 36" xmlns="http://www.w3.org/2000/svg"><g fill="none" fill-rule="evenodd"><path d="M0 0h36v36H0z"/><path d="M16.817 1.054L13.962 6H8.471A3.475 3.475 0 0 0 5 9.47v21.06A3.475 3.475 0 0 0 8.471 34H27.53A3.474 3.474 0 0 0 31 30.53V9.47A3.475 3.475 0 0 0 27.529 6h-7.164l2.567-4.446-.865-.5L19.212 6h-4.096l2.567-4.446-.866-.5zM27.529 7A2.473 2.473 0 0 1 30 9.47v21.06A2.473 2.473 0 0 1 27.529 33H8.471A2.473 2.473 0 0 1 6 30.53V9.47A2.473 2.473 0 0 1 8.471 7h19.058z" fill="#0B1F35" fill-rule="nonzero"/><path d="M11.625 27.667v-1.333c0-.736-.597-1.333-1.333-1.333H5.625v4h4.667a1.335 1.335 0 0 0 1.333-1.334zm12.75-1.334v1.333c0 .736.597 1.333 1.333 1.333h4.667v-4h-4.667a1.335 1.335 0 0 0-1.333 1.334zM5.5 11h25v10h-25V11z" fill="#0B1F35" fill-rule="nonzero" opacity=".3"/></g></svg>