<svg width="36px" height="36px" viewBox="0 0 36 36" version="1.1" xmlns="http://www.w3.org/2000/svg"><g stroke="none" stroke-width="1" fill="none" fill-rule="evenodd"><rect x="0" y="0" width="36" height="36"/><g transform="translate(5.000000, 1.000000)" fill="#FFFFFF" fill-rule="nonzero"><path d="M6.625,26.667 L6.625,25.334 C6.625,24.598 6.028,24.001 5.292,24.001 L0.625,24.001 L0.625,28.001 L5.292,28.001 C6.028,28 6.625,27.403 6.625,26.667 Z" opacity="0.3"/><path d="M19.375,25.333 L19.375,26.666 C19.375,27.402 19.972,27.999 20.708,27.999 L25.375,27.999 L25.375,23.999 L20.708,23.999 C19.972,24 19.375,24.597 19.375,25.333 Z" opacity="0.3"/><polygon opacity="0.3" points="0.5 10 25.5 10 25.5 20 0.5 20"/><path d="M11.817,0.054 L8.962,5 L3.471,5 C1.557,5 0,6.557 0,8.47 L0,29.53 C0,31.443 1.557,33 3.471,33 L22.53,33 C24.443,33 26,31.443 26,29.53 L26,8.47 C26,6.557 24.443,5 22.529,5 L15.365,5 L17.932,0.554 L17.067,0.054 L14.212,5 L10.116,5 L12.683,0.554 L11.817,0.054 Z M22.529,6 C23.892,6 25,7.108 25,8.47 L25,29.53 C25,30.892 23.892,32 22.529,32 L3.471,32 C2.108,32 1,30.892 1,29.53 L1,8.47 C1,7.108 2.108,6 3.471,6 L22.529,6 Z"/></g></g></svg>