<svg width="48px" height="48px" viewBox="0 0 48 48" version="1.1" xmlns="http://www.w3.org/2000/svg"><g stroke="none" stroke-width="1" fill="none" fill-rule="evenodd"><rect x="0" y="0" width="48" height="48"/><g transform="translate(7.000000, 0.000000)" fill="#FFFFFF" fill-rule="nonzero"><path d="M0.5,40 L6.871,40 C8.047,40 9,39.047 9,37.871 L9,36.129 C9,34.953 8.047,34 6.871,34 L0.5,34 L0.5,40 Z" opacity="0.3"/><path d="M33.5,34 L27.129,34 C25.953,34 25,34.953 25,36.129 L25,37.871 C25,39.047 25.953,40 27.129,40 L33.5,40 L33.5,34 Z" opacity="0.3"/><polygon opacity="0.3" points="0.5 15 33.5 15 33.5 30 0.5 30"/><path d="M15.285,0.873 L11.17,8 L4.384,8 C1.967,8 0,9.967 0,12.384 L0,41.615 C0,44.033 1.967,46 4.384,46 L29.616,46 C32.033,46 34,44.033 34,41.616 L34,12.384 C34,9.967 32.033,8 29.616,8 L21.292,8 L24.83,1.873 L23.098,0.873 L18.982,8 L13.48,8 L17.018,1.873 L15.285,0.873 Z M29.616,9 C31.482,9 33,10.518 33,12.384 L33,41.615 C33,43.482 31.482,45 29.616,45 L4.384,45 C2.518,45 1,43.482 1,41.616 L1,12.384 C1,10.518 2.518,9 4.384,9 L29.616,9 Z"/></g></g></svg>