<svg width="24" height="24" viewBox="0 0 24 24" xmlns="http://www.w3.org/2000/svg"><g fill="none" fill-rule="evenodd"><path d="M0 0h24v24H0z"/><path d="M11.067.786L9.212 4H5.5A2.503 2.503 0 0 0 3 6.5v14C3 21.878 4.121 23 5.5 23h13c1.379 0 2.5-1.122 2.5-2.5v-14C21 5.122 19.879 4 18.5 4h-4.634l1.567-2.714-.865-.5L12.712 4h-2.346l1.567-2.714-.866-.5zM18.5 5c.827 0 1.5.673 1.5 1.5v14c0 .827-.673 1.5-1.5 1.5h-13c-.827 0-1.5-.673-1.5-1.5v-14C4 5.673 4.673 5 5.5 5h13z" fill="#0B1F35"/><path d="M8 18a1 1 0 0 0-1-1H3.5v3H7a1 1 0 0 0 1-1v-1zM16 18v1a1 1 0 0 0 1 1h3.5v-3H17a1 1 0 0 0-1 1zM3.5 8h17v7h-17z" fill="#0B1F35" opacity=".3"/></g></svg>