<svg width="24" height="24" viewBox="0 0 24 24" xmlns="http://www.w3.org/2000/svg">
  <g fill="none" fill-rule="evenodd">
    <path d="M0 0h24v24H0z"/>
    <path d="M12.036 17.732c1.195.97 2.73 1.554 4.4 1.554 3.816 0 6.91-3.038 6.91-6.786 0-3.748-3.094-6.786-6.91-6.786-1.67 0-3.205.583-4.4 1.554 1.533 1.245 2.51 3.126 2.51 5.232 0 2.106-.977 3.987-2.51 5.232z" fill="#0099DF"/>
    <path d="M11.964 7.268c-1.195-.97-2.73-1.554-4.4-1.554-3.816 0-6.91 3.038-6.91 6.786 0 3.748 3.094 6.786 6.91 6.786 1.67 0 3.205-.583 4.4-1.554-1.533-1.245-2.51-3.126-2.51-5.232 0-2.106.977-3.987 2.51-5.232z" fill="#EB001B"/>
    <path d="M12 7.24c1.553 1.243 2.545 3.138 2.545 5.26s-.992 4.017-2.545 5.26c-1.553-1.243-2.545-3.138-2.545-5.26S10.447 8.483 12 7.24z" fill="#6C6BBD"/>
  </g>
</svg>
