<svg xmlns="http://www.w3.org/2000/svg" width="30" height="18" viewBox="0 0 30 18" fill="none"><rect width="30" height="18" fill="none"/><path d="M19.3325 1.92442H10.6692V16.0741H19.3325V1.92442Z" fill="#6C6BBD"/><path d="M11.5615 9.00052C11.5604 7.63803 11.8693 6.29314 12.4647 5.06764C13.0601 3.84214 13.9265 2.76814 14.9983 1.92692C13.6709 0.883676 12.0767 0.234947 10.398 0.0548725C8.71925 -0.125202 7.02374 0.170644 5.50521 0.908597C3.98669 1.64655 2.70641 2.79684 1.81071 4.22799C0.914999 5.65915 0.440002 7.31343 0.440002 9.00177C0.440002 10.6901 0.914999 12.3444 1.81071 13.7755C2.70641 15.2067 3.98669 16.357 5.50521 17.0949C7.02374 17.8329 8.71925 18.1287 10.398 17.9487C12.0767 17.7686 13.6709 17.1199 14.9983 16.0766C13.9262 15.2351 13.0596 14.1607 12.4642 12.9348C11.8687 11.7088 11.56 10.3634 11.5615 9.00052Z" fill="#EB001B"/><path d="M29.5579 9.00052C29.5579 10.689 29.0828 12.3434 28.1869 13.7746C27.2911 15.2058 26.0106 16.3561 24.4919 17.0939C22.9732 17.8317 21.2775 18.1274 19.5987 17.9471C17.9199 17.7667 16.3257 17.1177 14.9983 16.0741C16.0697 15.2322 16.9358 14.1579 17.5314 12.9323C18.127 11.7067 18.4365 10.3619 18.4365 8.99927C18.4365 7.63665 18.127 6.29182 17.5314 5.06626C16.9358 3.84069 16.0697 2.76639 14.9983 1.92442C16.3257 0.88085 17.9199 0.231806 19.5987 0.0514727C21.2775 -0.12886 22.9732 0.166795 24.4919 0.904643C26.0106 1.64249 27.2911 2.79276 28.1869 4.22396C29.0828 5.65517 29.5579 7.30955 29.5579 8.99802V9.00052Z" fill="#0099DF"/></svg>