<svg xmlns="http://www.w3.org/2000/svg" width="24" height="24" version="1" viewBox="0 0 24 24"><path fill="#0B1F35" d="M20 8h-1V4c0-1.103-.897-2-2-2H7.707L3 6.707V7H2v-.707L7.293 1H17c1.654 0 3 1.346 3 3v4zm-3 15H5c-1.654 0-3-1.346-3-3v-1h1v1c0 1.103.897 2 2 2h12c1.103 0 2-.897 2-2v-1h1v1c0 1.654-1.346 3-3 3zM2.947 15v2H2v-7h2.678a2.45 2.45 0 0 1 1.718.688c.413.385.643 1.184.643 1.812 0 .638-.306 1.475-.72 1.854S5.425 15 4.678 15H2.947zm0-1h1.651c.452 0 .791-.141 1.014-.424.223-.282.335-.638.335-1.068s-.113-.788-.337-1.076C5.385 11.144 5.048 11 4.598 11H2.947v3zM9 17v-7h2.071c.883 0 1.592.281 2.127.844s.802 1.289.802 2.18v.957c0 .894-.267 1.621-.802 2.18-.534.559-1.243.839-2.127.839H9zm1-6v5h1.095c.589 0 1.055-.193 1.395-.58.34-.387.51-.882.51-1.486v-.876c0-.599-.17-1.091-.51-1.478-.341-.387-.806-.58-1.395-.58H10zm10 3h-3v3h-1v-7h5v1h-4v2h3v1z"/></svg>