<svg xmlns="http://www.w3.org/2000/svg" width="18" height="18" version="1" viewBox="0 0 18 18"><path fill="#0B1F35" d="M14 5h-1V1.559A.56.56 0 0 0 12.441 1H5.707L2 4.707V5H1v-.707L5.293 0h7.148C13.301 0 14 .699 14 1.559V5zm-1.5 12h-10c-.827 0-1.5-.673-1.5-1.5h1a.5.5 0 0 0 .5.5h10a.5.5 0 0 0 .5-.5h1c0 .827-.673 1.5-1.5 1.5zM2 10.824V13H1V7h2.279c.689 0 1.232.176 1.628.527.395.352.593.815.593 1.389s-.198 1.036-.593 1.385c-.396.349-.939.523-1.628.523H2zM2 10h1.39c.335 0 .589-.091.762-.274.174-.183.26-.443.26-.726 0-.288-.086-.53-.258-.718S3.728 8 3.39 8H2v2zm5 3V7h2c.734 0 1.399.234 1.874.703.475.468.626 1.069.626 1.802v.993c0 .736-.151 1.337-.626 1.803-.475.466-1.14.699-1.874.699H7zm1-5.073v4.146h.999c.432 0 .77-.145 1.014-.436.244-.291.367-.671.367-1.14v-1c0-.464-.123-.841-.367-1.132-.245-.293-.583-.438-1.014-.438H8zM16 11h-2v2h-1V7h4v.927h-3v2.146h2V11z"/></svg>