<svg xmlns="http://www.w3.org/2000/svg" width="36" height="36" version="1" viewBox="0 0 36 36"><path fill="#0B1F35" d="M24.558 34h-17a4.505 4.505 0 0 1-4.5-4.5V10.294L11.292 2h13.266c2.481 0 4.5 2.019 4.5 4.5V12h-1V6.5c0-1.93-1.57-3.5-3.5-3.5h-12.85l-7.65 7.706V29.5c0 1.93 1.57 3.5 3.5 3.5h17c1.93 0 3.5-1.57 3.5-3.5V28h1v1.5c0 2.481-2.019 4.5-4.5 4.5z"/><path fill="#0B1F35" d="M10 21.989V25H9v-8.99h3.427c.956 0 1.698.247 2.228.741s.793 1.421.793 2.228c0 .819-.264 1.791-.793 2.279s-1.271.732-2.228.732H10zm0-.985h2.427c.607 0 1.061-.188 1.359-.564.3-.376.449-.85.449-1.423s-.15-1.051-.452-1.434c-.301-.383-.754-.575-1.356-.575H10v3.996zM18 25v-8.99h3.051c1.104 0 1.99.362 2.659 1.084.667.722 1.002 1.656 1.002 2.8v1.229c0 1.149-.335 2.082-1.002 2.8-.668.718-1.555 1.077-2.659 1.077H18zm1-8.033v7.076h2c.828 0 1.481-.273 1.96-.82.478-.547.717-1.248.717-2.104v-1.24c0-.847-.239-1.544-.717-2.091-.479-.547-1.132-.821-1.96-.821h-2zM33 21h-4v4h-1v-8.99h6V17h-5v3.005h4V21z"/></svg>