<svg xmlns="http://www.w3.org/2000/svg" width="19" height="22" viewBox="0 0 19 22"><path fill="#FFF" fill-rule="evenodd" d="M18 7h-1V3c0-1.103-.897-2-2-2H5.707L1 5.707V6H0v-.707L5.293 0H15c1.654 0 3 1.346 3 3v4zm-3 15H3c-1.654 0-3-1.346-3-3v-1h1v1c0 1.103.897 2 2 2h12c1.103 0 2-.897 2-2v-1h1v1c0 1.654-1.346 3-3 3zM.947 14v2H0V9h2.678a2.45 2.45 0 0 1 1.718.688c.413.385.643 1.184.643 1.812 0 .638-.306 1.475-.72 1.854S3.425 14 2.678 14H.947zm0-1h1.651c.452 0 .791-.141 1.014-.424.223-.282.335-.638.335-1.068 0-.43-.113-.788-.337-1.076-.225-.288-.562-.432-1.012-.432H.947v3zM7 16V9h2.071c.883 0 1.592.281 2.127.844.535.563.802 1.289.802 2.18v.957c0 .894-.267 1.621-.802 2.18-.534.559-1.243.839-2.127.839H7zm1-6v5h1.095c.589 0 1.055-.193 1.395-.58.34-.387.51-.882.51-1.486v-.876c0-.599-.17-1.091-.51-1.478-.341-.387-.806-.58-1.395-.58H8zm10 3h-3v3h-1V9h5v1h-4v2h3z"/></svg>