<svg xmlns="http://www.w3.org/2000/svg" width="31" height="32" viewBox="0 0 31 32"><g fill="#FFF" fill-rule="evenodd"><path d="M21.558 32h-17a4.505 4.505 0 0 1-4.5-4.5V8.294L8.292 0h13.266c2.481 0 4.5 2.019 4.5 4.5V10h-1V4.5c0-1.93-1.57-3.5-3.5-3.5H8.708l-7.65 7.706V27.5c0 1.93 1.57 3.5 3.5 3.5h17c1.93 0 3.5-1.57 3.5-3.5V26h1v1.5c0 2.481-2.019 4.5-4.5 4.5z"/><path d="M7 19.989V23H6v-8.99h3.427c.956 0 1.698.247 2.228.741.53.494.793 1.421.793 2.228 0 .819-.264 1.791-.793 2.279s-1.271.732-2.228.732H7v-.001zm0-.985h2.427c.607 0 1.061-.188 1.359-.564.3-.376.449-.85.449-1.423 0-.573-.15-1.051-.452-1.434-.301-.383-.754-.575-1.356-.575H7v3.996zM15 23v-8.99h3.051c1.104 0 1.99.362 2.659 1.084.667.722 1.002 1.656 1.002 2.8v1.229c0 1.149-.335 2.082-1.002 2.8-.668.718-1.555 1.077-2.659 1.077H15zm1-8.033v7.076h2c.828 0 1.481-.273 1.96-.82.478-.547.717-1.248.717-2.104v-1.24c0-.847-.239-1.544-.717-2.091-.479-.547-1.132-.821-1.96-.821h-2zM30 19h-4v4h-1v-8.99h6V15h-5v3.005h4z"/></g></svg>