<svg xmlns="http://www.w3.org/2000/svg" width="16" height="16" viewBox="0 0 16 16"><path fill="#FFF" fill-rule="evenodd" d="M13 4.706h-1V1.467c0-.29-.251-.526-.559-.526H4.707L1 4.431v.275H0V4.04L4.293 0h7.148C12.301 0 13 .658 13 1.467v3.239zM11.5 16h-10C.673 16 0 15.367 0 14.588h1c0 .26.224.47.5.47h10c.275 0 .5-.21.5-.47h1c0 .779-.673 1.412-1.5 1.412zM1 10.187v2.048H0V6.588h2.279c.689 0 1.232.166 1.628.496.395.332.593.767.593 1.308 0 .54-.198.975-.593 1.303-.396.329-.939.492-1.628.492H1zm0-.775h1.39c.335 0 .589-.086.762-.258a.945.945 0 0 0 .26-.683.934.934 0 0 0-.258-.676c-.172-.177-.426-.266-.764-.266H1v1.883zm5 2.823V6.588h2c.734 0 1.399.22 1.874.662.475.44.626 1.006.626 1.696v.934c0 .693-.151 1.259-.626 1.697-.475.439-1.14.658-1.874.658H6zm1-4.774v3.902h.999c.432 0 .77-.137 1.014-.41.244-.274.367-.632.367-1.073v-.942c0-.436-.123-.791-.367-1.065-.245-.276-.583-.412-1.014-.412H7zm8 2.892h-2v1.882h-1V6.588h4v.873h-3v2.02h2z"/></svg>