<svg xmlns="http://www.w3.org/2000/svg" width="24" height="26" viewBox="0 0 24 26"><g fill="#FFF" fill-rule="evenodd"><path d="M17 26H4a4.005 4.005 0 0 1-3.998-3.874H0V6.293L6.293 0H17c2.206 0 4 1.794 4 4v5h-1V4c0-1.654-1.346-3-3-3H6.707L1 6.707V22c0 1.654 1.346 3 3 3h13c1.654 0 3-1.346 3-3h1c0 2.206-1.794 4-4 4z"/><path d="M4.981 17v2h-.947v-7h2.678a2.45 2.45 0 0 1 1.718.688c.413.385.643 1.184.643 1.812 0 .638-.306 1.475-.72 1.854-.414.38-.894.646-1.641.646H4.981zm0-1h1.651c.452 0 .791-.141 1.014-.424.223-.283.335-.638.335-1.068 0-.43-.113-.788-.337-1.076-.226-.288-.562-.432-1.012-.432H4.981v3zm6.053 3v-7h2.071c.883 0 1.592.281 2.127.844.535.563.802 1.289.802 2.18v.957c0 .894-.267 1.621-.802 2.18-.535.559-1.244.839-2.127.839h-2.071zm1-6v5h1.095c.589 0 1.055-.193 1.395-.58.34-.387.51-.882.51-1.486v-.876c0-.599-.17-1.091-.51-1.478-.341-.387-.806-.58-1.395-.58h-1.095zm10 3h-3v3h-1v-7h5v1h-4v2h3z"/></g></svg>