<svg xmlns="http://www.w3.org/2000/svg" width="48" height="48" viewBox="0 0 48 48" fill="none"><rect width="48" height="48" fill="none"/><path d="M7.5 3.5C7.5 1.84315 8.84315 0.5 10.5 0.5H30.7927L40.6113 10.3285C41.1732 10.891 41.4889 11.6536 41.4889 12.4487V44.5C41.4889 46.1569 40.1457 47.5 38.4889 47.5H10.5C8.84314 47.5 7.5 46.1569 7.5 44.5V3.5Z" fill="#F3F4F5" stroke="#E7E9EB"/><path fill-rule="evenodd" clip-rule="evenodd" d="M41.9888 14L41.9888 11L30.9999 4.76137e-06L10.4999 4.87655e-06C8.56692 4.70756e-06 6.99991 1.56701 6.99991 3.5L6.99991 14L41.9888 14Z" fill="#A489AA"/><path d="M11.6836 4.36328V10H12.8633V8.22266H13.9766C15.1641 8.22266 15.9883 7.44922 15.9883 6.30078C15.9883 5.13672 15.1953 4.36328 14.0352 4.36328H11.6836ZM12.8633 5.30078H13.7227C14.4023 5.30078 14.7891 5.64844 14.7891 6.30469C14.7891 6.94531 14.3945 7.29688 13.7188 7.29688H12.8633V5.30078ZM17.0742 4.36328V10H19.293C20.9805 10 21.9375 8.96875 21.9375 7.14453C21.9375 5.375 20.9688 4.36328 19.293 4.36328H17.0742ZM18.2539 5.33594H19.1055C20.1289 5.33594 20.7344 6 20.7344 7.16406C20.7344 8.37109 20.1484 9.02734 19.1055 9.02734H18.2539V5.33594ZM24.2383 10V7.78125H26.5312V6.84766H24.2383V5.33594H26.75V4.36328H23.0586V10H24.2383Z" fill="white"/><rect x="19" y="19" width="15" height="2" rx="1" fill="#B6BCC3"/><rect x="19" y="23" width="17" height="2" rx="1" fill="#B6BCC3"/><rect x="11" y="27" width="21" height="2" rx="1" fill="#B6BCC3"/><rect x="11" y="33" width="25" height="2" rx="1" fill="#B6BCC3"/><rect x="11" y="37" width="17" height="2" rx="1" fill="#B6BCC3"/><path opacity="0.6" d="M31 0L42 11H34.5C32.567 11 31 9.433 31 7.5V0Z" fill="white"/><rect x="12" y="20" width="4" height="4" stroke="#B6BCC3" stroke-width="2"/></svg>