<?xml version="1.0" encoding="UTF-8"?>
<svg width="36px" height="36px" viewBox="0 0 36 36" version="1.1" xmlns="http://www.w3.org/2000/svg" xmlns:xlink="http://www.w3.org/1999/xlink">
    <!-- Generator: Sketch 48.2 (47327) - http://www.bohemiancoding.com/sketch -->
    <title>icon_category-housekeeping_xl_white</title>
    <desc>Created with Sketch.</desc>
    <defs></defs>
    <g id="mobile" stroke="none" stroke-width="1" fill="none" fill-rule="evenodd" transform="translate(-1084.000000, -570.000000)">
        <g id="Headings" transform="translate(64.000000, 77.000000)">
            <g id="icon_category_house__xl__white" transform="translate(1020.000000, 493.000000)">
                <g id="ungroup">
                    <rect id="Rectangle-path" x="0" y="0" width="36" height="36"></rect>
                    <g id="a1" opacity="0.4"></g>
                    <path d="M27.161,26 L27.161,31 L30.161,31 L30.161,26 L34.999,26 C35.851,26 36.313,25.002 35.761,24.352 L30.327,17.959 L33.853,17.959 C34.728,17.959 35.181,16.914 34.583,16.275 L29.391,10.737 C28.996,10.316 28.327,10.316 27.932,10.737 L22.74,16.275 C22.141,16.914 22.594,17.959 23.47,17.959 L26.996,17.959 L21.562,24.352 C21.009,25.002 21.471,26 22.323,26 L27.161,26 Z" id="Shape" fill="#FFFFFF" opacity="0.3"></path>
                    <path d="M5,18 L5,31 L24,31 L24,30 L6,30 L6,17 L2.781,17 C2.259,17 1.951,16.655 1.838,16.332 C1.724,16.009 1.748,15.547 2.156,15.22 L16.5,3.721 L24.311,9.982 L24.936,9.202 L16.5,2.44 L1.531,14.44 C0.859,14.978 0.609,15.851 0.895,16.663 C1.18,17.475 1.92,18 2.781,18 L5,18 L5,18 Z" id="Shape" fill="#FFFFFF"></path>
                    <rect id="Rectangle-path" fill="#FFFFFF" opacity="0.3" x="11" y="18" width="4" height="6"></rect>
                </g>
            </g>
        </g>
    </g>
</svg>