<svg width="24" height="24" viewBox="0 0 24 24" xmlns="http://www.w3.org/2000/svg"><g fill="none" fill-rule="evenodd"><path d="M0 0h24v24H0z"/><path d="M22.398 13a.75.75 0 0 0 .576-1.23l-3.399-4.078a.75.75 0 0 0-1.152 0l-3.399 4.078A.75.75 0 0 0 15.6 13h1.684l-3.225 3.762A.751.751 0 0 0 14.631 18H18v4h2v-4h3.37a.75.75 0 0 0 .569-1.238L20.714 13h1.684z" fill="#0B1F35" opacity=".3"/><path d="M2.059 13H3v9h13v-1H4v-9H2.059a.488.488 0 0 1-.472-.334.486.486 0 0 1 .16-.556l9.229-7.37 4.375 4.049.679-.734-5.006-4.633-9.901 7.907a1.482 1.482 0 0 0-.479 1.668A1.482 1.482 0 0 0 2.059 13z" fill="#0B1F35"/><path fill="#0B1F35" opacity=".3" d="M7 13h3v4H7z"/></g></svg>