<svg width="48" height="48" viewBox="0 0 48 48" xmlns="http://www.w3.org/2000/svg"><g fill="none" fill-rule="evenodd"><path d="M0 0h48v48H0z"/><path d="M40.488 27h3.307c1.245 0 1.925-1.492 1.128-2.449L37.141 15l-7.782 9.556c-.797.957-.117 2.444 1.128 2.444h3.289l-6.304 7.448c-.817.953-.14 2.552 1.114 2.552H35v6h4v-6h6.696c1.255 0 1.931-1.617 1.115-2.57L40.488 27z" fill="#0B1F35" opacity=".3"/><path d="M3.973 24H6v19h26v-1H7V23H3.973c-.664 0-1.22-.362-1.416-.922-.183-.521-.006-1.06.469-1.438L21.5 6.16l10.89 8.535.617-.787L21.5 4.89 2.405 19.855c-.813.649-1.117 1.627-.792 2.553.339.967 1.265 1.592 2.36 1.592z" fill="#0B1F35"/><path fill="#0B1F35" opacity=".3" d="M13 25h6v8h-6z"/></g></svg>