<svg xmlns="http://www.w3.org/2000/svg" width="24" height="24" viewBox="0 0 24 24"><path fill="none" d="M0 0h24v24H0z"/><path fill="#0B1F35" d="M23.94 16.76L20.71 13h1.69a.75.75 0 0 0 .6-1.23l-3.4-4.08a.75.75 0 0 0-1.15 0L15 11.77a.75.75 0 0 0 .6 1.23h1.68l-3.22 3.76a.75.75 0 0 0 .57 1.24H18v4h2v-4h3.37a.75.75 0 0 0 .57-1.24z" opacity=".4"/><path fill="#0B1F35" d="M16 22H3v-9h-.94a1.5 1.5 0 0 1-.94-2.67L11 2.42l5 4.63-.68.73L11 3.74l-9.25 7.37a.5.5 0 0 0 .31.89H4v9h12v1z"/><path fill="#0B1F35" d="M7 13h3v4H7z" opacity=".3"/></svg>