<svg width="36" height="36" viewBox="0 0 36 36" xmlns="http://www.w3.org/2000/svg"><g fill="none" fill-rule="evenodd"><path d="M0 0h36v36H0z"/><path d="M27.161 26v5h3v-5h4.838a1 1 0 0 0 .762-1.648l-5.434-6.393h3.526c.875 0 1.328-1.045.73-1.684l-5.192-5.538a1 1 0 0 0-1.459 0l-5.192 5.538c-.599.639-.146 1.684.73 1.684h3.526l-5.434 6.393A1 1 0 0 0 22.323 26h4.838z" fill="#0B1F35" opacity=".3"/><path d="M5 18v13h19v-1H6V17H2.781a.978.978 0 0 1-.943-.668.978.978 0 0 1 .318-1.112L16.5 3.721l7.811 6.261.625-.78L16.5 2.44l-14.969 12a1.975 1.975 0 0 0-.636 2.223A1.976 1.976 0 0 0 2.781 18H5z" fill="#0B1F35"/><path fill="#0B1F35" opacity=".3" d="M11 18h4v6h-4z"/></g></svg>