<svg xmlns="http://www.w3.org/2000/svg" width="36" height="36" viewBox="0 0 36 36"><path fill="none" d="M0 0h36v36H0z"/><path fill="#0B1F35" d="M35.76 24.35L30.33 18h3.53a1 1 0 0 0 .73-1.68l-5.19-5.54a1 1 0 0 0-1.46 0l-5.19 5.54a1 1 0 0 0 .72 1.68H27l-5.43 6.39a1 1 0 0 0 .75 1.61h4.84v5h3v-5H35a1 1 0 0 0 .76-1.65z" opacity=".4"/><path fill="#0B1F35" d="M24 31H5V18H2.78a2 2 0 0 1-1.25-3.56l15-12 8.41 6.76-.63.8-7.81-6.28-14.34 11.5A1 1 0 0 0 2.78 17H6v13h18v1z"/><path fill="#0B1F35" d="M11 18h4v6h-4z" opacity=".3"/></svg>