<svg width="40" height="40" viewBox="0 0 40 40" xmlns="http://www.w3.org/2000/svg"><g fill="#0B1F35" fill-rule="evenodd"><path d="M10.807 9.23h-.06L6.154 24.616h9.23zM17.911 32.211H2.803C2.555 32.915 0 40.001 0 40.001h20.71s-2.548-7.086-2.799-7.79M34.154 15.106h-7.3c-.003-2.716-.005-5.334-.01-7.604h9.517c.362 0 .756-.302.882-.673L39.317.703c.128-.371-.062-.672-.425-.672H10.357v.073h.007c3.928 0 5.206 2.935 6.2 5.781.513 1.471 9.86 29.708 10.232 30.786.046.128.06-6.467.06-14.094h4.765c.362 0 .757-.302.884-.674l2.075-6.124c.126-.372-.066-.673-.426-.673"/></g></svg>