<svg width="24" height="24" viewBox="0 0 24 24" xmlns="http://www.w3.org/2000/svg"><g fill="#FFF" fill-rule="evenodd"><path d="M6.484 5.538h-.036L3.692 14.77h5.539zM10.747 19.327H1.682C1.532 19.749 0 24 0 24h12.426l-1.68-4.673M20.492 9.064h-4.38c-.001-1.63-.002-3.2-.005-4.563h5.71c.217 0 .453-.181.529-.404L23.59.422c.077-.223-.037-.404-.255-.404H6.215v.044h.003c2.357 0 3.124 1.761 3.72 3.47.308.882 5.916 17.824 6.14 18.47.027.077.035-3.88.036-8.456h2.859c.217 0 .454-.18.53-.404l1.245-3.675c.076-.223-.04-.403-.256-.403"/></g></svg>