<svg width="48" height="48" viewBox="0 0 48 48" xmlns="http://www.w3.org/2000/svg"><g fill="#0B1F35" fill-rule="evenodd"><path d="M12.968 11.077h-.071L7.385 29.538h11.077zM21.494 38.654H3.364C3.066 39.498 0 48 0 48h24.851s-3.056-8.502-3.357-9.346M40.985 18.128h-8.76c-.003-3.26-.006-6.402-.011-9.126h11.419c.434 0 .908-.362 1.058-.808l2.49-7.35c.153-.446-.075-.807-.51-.807H12.429v.088h.008c4.714 0 6.247 3.521 7.44 6.937.616 1.766 11.83 35.65 12.278 36.943.055.153.072-7.76.073-16.912h5.717c.435 0 .908-.363 1.061-.81l2.49-7.349c.152-.445-.08-.806-.511-.806"/></g></svg>