<svg width="30" height="30" viewBox="0 0 30 30" xmlns="http://www.w3.org/2000/svg"><g fill="#FFF" fill-rule="evenodd"><path d="M8.105 6.923H8.06L4.615 18.462h6.923zM13.434 24.159H2.103C1.916 24.686 0 30 0 30h15.532s-1.91-5.314-2.098-5.841M25.616 11.33H20.14c-.001-2.038-.003-4.001-.006-5.704h7.136c.272 0 .568-.226.662-.505L29.488.527c.096-.278-.047-.504-.319-.504H7.768v.055h.005c2.946 0 3.905 2.2 4.65 4.336.385 1.103 7.394 22.28 7.674 23.09.034.095.045-4.85.046-10.57h3.573c.271 0 .567-.228.663-.507l1.556-4.593c.095-.278-.05-.504-.32-.504"/></g></svg>