<svg width="18" height="18" viewBox="0 0 18 18" xmlns="http://www.w3.org/2000/svg"><g fill="#0B1F35" fill-rule="evenodd"><path d="M4.863 4.154h-.027L2.77 11.077h4.154zM8.06 14.495H1.262C1.15 14.812 0 18 0 18h9.32l-1.26-3.505M15.37 6.798h-3.286c0-1.223-.002-2.4-.004-3.422h4.282c.163 0 .34-.136.397-.303l.934-2.757c.057-.167-.028-.302-.191-.302H4.66v.033h.003c1.768 0 2.343 1.32 2.79 2.601.23.662 4.436 13.369 4.604 13.854.02.057.027-2.91.028-6.342h2.143c.163 0 .341-.136.398-.304l.934-2.756c.057-.167-.03-.302-.192-.302"/></g></svg>