<svg xmlns="http://www.w3.org/2000/svg" width="18" height="23" viewBox="0 0 18 23"><g fill="none" fill-rule="evenodd"><path d="M-3 0h24v24H-3z"/><path fill="#0B1F35" d="M8.067.786L6.212 4H2.5A2.503 2.503 0 0 0 0 6.5v14C0 21.878 1.121 23 2.5 23h13c1.379 0 2.5-1.122 2.5-2.5v-14C18 5.122 16.879 4 15.5 4h-4.634l1.567-2.714-.865-.5L9.712 4H7.366l1.567-2.714-.866-.5zM15.5 5c.827 0 1.5.673 1.5 1.5v14c0 .827-.673 1.5-1.5 1.5h-13c-.827 0-1.5-.673-1.5-1.5v-14C1 5.673 1.673 5 2.5 5h13z"/><path fill="#0B1F35" d="M5 18a1 1 0 0 0-1-1H.5v3H4a1 1 0 0 0 1-1v-1zm8 0v1a1 1 0 0 0 1 1h3.5v-3H14a1 1 0 0 0-1 1zM.5 8h17v7H.5z" opacity=".3"/></g></svg>