<svg xmlns="http://www.w3.org/2000/svg" width="34" height="46" viewBox="0 0 34 46"><g fill="none" fill-rule="evenodd"><path d="M-7 0h48v48H-7z"/><path fill="#FFF" d="M15.285.873L11.17 8H4.384A4.39 4.39 0 0 0 0 12.384v29.231A4.39 4.39 0 0 0 4.384 46h25.232A4.39 4.39 0 0 0 34 41.616V12.384A4.39 4.39 0 0 0 29.616 8h-8.324l3.538-6.127-1.732-1L18.982 8H13.48l3.538-6.127-1.733-1zM29.616 9A3.388 3.388 0 0 1 33 12.384v29.231A3.388 3.388 0 0 1 29.616 45H4.384A3.388 3.388 0 0 1 1 41.616V12.384A3.388 3.388 0 0 1 4.384 9h25.232z"/><path fill="#FFF" d="M.5 40h6.371A2.129 2.129 0 0 0 9 37.871v-1.742A2.129 2.129 0 0 0 6.871 34H.5v6zm33-6h-6.371A2.129 2.129 0 0 0 25 36.129v1.742c0 1.176.953 2.129 2.129 2.129H33.5v-6zM.5 15h33v15H.5z" opacity=".3"/></g></svg>