<svg xmlns="http://www.w3.org/2000/svg" width="26" height="33" viewBox="0 0 26 33"><g fill="none" fill-rule="evenodd"><path d="M-5-1h36v36H-5z"/><path fill="#0B1F35" d="M11.817.054L8.962 5H3.471A3.475 3.475 0 0 0 0 8.47v21.06A3.475 3.475 0 0 0 3.471 33H22.53A3.474 3.474 0 0 0 26 29.53V8.47A3.475 3.475 0 0 0 22.529 5h-7.164L17.932.554l-.865-.5L14.212 5h-4.096L12.683.554l-.866-.5zM22.529 6A2.473 2.473 0 0 1 25 8.47v21.06A2.473 2.473 0 0 1 22.529 32H3.471A2.473 2.473 0 0 1 1 29.53V8.47A2.473 2.473 0 0 1 3.471 6h19.058z"/><path fill="#0B1F35" d="M6.625 26.667v-1.333c0-.736-.597-1.333-1.333-1.333H.625v4h4.667a1.335 1.335 0 0 0 1.333-1.334zm12.75-1.334v1.333c0 .736.597 1.333 1.333 1.333h4.667v-4h-4.667a1.335 1.335 0 0 0-1.333 1.334zM.5 10h25v10H.5z" opacity=".3"/></g></svg>