<svg width="30" height="10" viewBox="0 0 30 10" xmlns="http://www.w3.org/2000/svg">
  <g fill="none" fill-rule="evenodd">
    <path d="M19.07 1.062h1.09V8.84h-2.447V4.298c0-.113-.155-.147-.204-.046l-2.012 4.112c-.142.29-.442.476-.77.476H12.2V1.062h2.368c.043 0 .077.034.077.076v4.45c0 .194.27.252.352.076l1.94-4.115c.14-.298.443-.488.776-.488h1.356zm-9.71 0h1.592V8.84H8.564V4.354c0-.12-.17-.146-.206-.03L6.97 8.84H4.982L3.595 4.323c-.036-.115-.206-.09-.206.03V8.84H1V1.062h2.824c.37 0 .697.246.8.604l1.18 4.06c.05.175.295.175.345 0l1.177-4.06c.104-.358.43-.604.8-.604H9.36zm14.085 3.635h5.363c-.4.972-1.367 1.66-2.5 1.66h-2.863V8.84H21V4.697h2.445z" fill="#269836"/>
    <path d="M17.213 5.995l-1.266 2.59c-.226.462-.7.755-1.22.755H11.7V.562h2.868c.317 0 .577.256.577.576v3.04l1.34-2.842c.223-.473.703-.774 1.228-.774h2.946V9.34h-3.447V5.995zm-9.15.99L7.342 9.34H4.61l-.107-.353-.615-2V9.34H.5V.562h3.324c.594 0 1.116.394 1.28.965l.872 3.002.87-3.003c.166-.57.688-.965 1.282-.965h3.324V9.34H8.064V6.986zm15.882-.128V9.34H20.5V4.197h9.053l-.282.69c-.484 1.18-1.65 1.97-2.963 1.97h-2.362z" stroke="#FFF"/>
    <g>
      <path d="M20.6 1.062c0 1.755 2.265 3.178 4.053 3.178h4.26c.036-.17.055-.35.055-.53 0-1.463-1.208-2.648-2.698-2.648H20.6z" fill="#1A89D6"/>
      <path d="M20.1.562h6.17c1.764 0 3.198 1.407 3.198 3.148 0 .213-.022.424-.065.632l-.083.398h-4.667c-2.192 0-4.553-1.72-4.553-3.678v-.5z" stroke="#FFF"/>
    </g>
  </g>
</svg>
