<svg fill="none" viewBox="0 0 30 10" width="30" height="10" xmlns="http://www.w3.org/2000/svg"><rect width="30" height="10" fill="none"/><g clip-path="url(#a)" clip-rule="evenodd" fill="#fff" fill-rule="evenodd"><path d="m8.0841 0.75v0.003708c-0.00371 0-1.1718-0.003708-1.4833 1.1125-0.28554 1.0235-1.0902 3.8492-1.1125 3.9271h-0.2225s-0.82324-2.8888-1.1125-3.9308c-0.3115-1.1162-1.4833-1.1125-1.4833-1.1125h-2.67v8.492h2.67v-5.0433h0.2225l1.5575 5.0433h1.8541l1.5575-5.0396h0.2225v5.0396h2.6699v-8.492h-2.6699z"/><path d="m17.837 0.75s-0.7824 0.070457-1.1495 0.88999l-1.8912 4.1533h-0.2225v-5.0433h-2.67v8.492h2.5216s0.8196-0.07417 1.1867-0.88999l1.8541-4.1533h0.2225v5.0433h2.67v-8.492h-2.5217z"/><path d="m21.545 4.6066v4.6354h2.67v-2.707h2.8924c1.2608 0 2.3288-0.80469 2.7256-1.9283h-8.288z"/><path d="m27.108 0.75h-5.937c0.2967 1.6168 1.5093 2.9147 3.0779 3.3374 0.356 0.09642 0.7305 0.14833 1.1162 0.14833h4.576c0.0408-0.19283 0.0593-0.38936 0.0593-0.59332 0-1.5983-1.2942-2.8925-2.8924-2.8925z"/></g><defs><clipPath id="a"><rect y=".75" width="30" height="8.492" fill="#fff"/></clipPath></defs></svg>