<svg xmlns="http://www.w3.org/2000/svg" width="24" height="24" viewBox="0 0 24 24"><g fill="none"><rect width="24" height="24"/><path fill="#F03226" d="M12,22 C6.4771525,22 2,17.5228475 2,12 C2,6.4771525 6.4771525,2 12,2 C17.5228475,2 22,6.4771525 22,12 C22,17.5228475 17.5228475,22 12,22 Z M12,20 C16.418278,20 20,16.418278 20,12 C20,7.581722 16.418278,4 12,4 C7.581722,4 4,7.581722 4,12 C4,16.418278 7.581722,20 12,20 Z"/><path fill="#F03226" d="M13,11.5 L16.6,14.2 C17.0418278,14.5313708 17.1313708,15.1581722 16.8,15.6 C16.4686292,16.0418278 15.8418278,16.1313708 15.4,15.8 L11.4093103,12.8069828 C11.1611331,12.6250157 11,12.3313252 11,12 C10.9999385,11.9961213 10.999958,11.9922419 11,11.9883621 L11,7 C11,6.44771525 11.4477153,6 12,6 C12.5522847,6 13,6.44771525 13,7 L13,11.5 Z"/></g></svg>