<svg xmlns="http://www.w3.org/2000/svg" width="48" height="48" viewBox="0 0 48 48"><g fill="none" fill-rule="evenodd"><path d="M0 0h48v48H0z"/><path fill="#FFF" d="M43.457 8H18V4H7v4H4.543A4.548 4.548 0 0 0 0 12.543v25.914A4.548 4.548 0 0 0 4.543 43h38.913A4.548 4.548 0 0 0 48 38.457V12.543A4.548 4.548 0 0 0 43.457 8zM47 38.457A3.547 3.547 0 0 1 43.457 42H4.543A3.547 3.547 0 0 1 1 38.457V12.543A3.547 3.547 0 0 1 4.543 9H8V5h9v4h26.457A3.547 3.547 0 0 1 47 12.543v25.914z"/><path fill="#FFF" d="M31.5 16c-5.238 0-9.5 4.262-9.5 9.5s4.262 9.5 9.5 9.5 9.5-4.262 9.5-9.5-4.262-9.5-9.5-9.5zm0 17c-4.136 0-7.5-3.364-7.5-7.5s3.364-7.5 7.5-7.5 7.5 3.364 7.5 7.5-3.364 7.5-7.5 7.5zM8 17h10v5H8z" opacity=".3"/></g></svg>