<svg xmlns="http://www.w3.org/2000/svg" width="48" height="48" viewBox="0 0 48 48"><g fill="none" fill-rule="evenodd"><path d="M0 0h48v48H0z"/><path fill="#0B1F35" d="M36 22v-3.316h6.702v-1.061H36v-3.58h4.906c4.082 0 6.694-3.381 6.694-7.274C47.6 2.877 44.988 0 40.906 0h-5.91v12.982h-3.33l-.066 1.062h3.397v3.579H31.6v1.061h3.397V22H36zm4.816-20.99c3.266 0 5.751 2.726 5.751 5.772 0 2.877-2.485 6.26-5.75 6.26h-4.771V1.009h4.77zM16 36C9.667 36 6 29.12 6 22.4 6 17.6 7.167 12 16 12s10 5.6 10 10.4C26 29.12 22.333 36 16 36zM7 22.159C7 27.444 10.172 35 15.992 35S25 27.349 25 22.159C25 15 21.007 13 15.992 13 10.977 13 7 15.001 7 22.159z"/><path fill="#0B1F35" d="M30.012 48c0-4.056-4.444-7.198-6.086-8.404-1.642-1.206-3.384-2.55-3.706-5.957l1.032-.932c.594 4.374 2.304 5.389 2.877 5.806 2.01 1.465 6.89 4.646 6.89 9.487h-1.007zM1.006 48c0-4.056 4.444-7.198 6.086-8.404 1.643-1.206 3.385-2.55 3.707-5.957l-1.032-.932c-.594 4.374-2.304 5.389-2.877 5.806C4.88 39.978 0 43.16 0 48h1.006z"/></g></svg>