<svg xmlns="http://www.w3.org/2000/svg" width="36" height="36" viewBox="0 0 36 36"><g fill="none" fill-rule="evenodd"><path d="M0 0h36v36H0z"/><path fill="#FFF" d="M27 16.5v-2.487h5.027v-1.01H27v-2.47h3.68c3.06 0 5.02-2.537 5.02-5.456C35.7 2.157 33.74 0 30.68 0H26v9.481h-2.3v1.052H26v2.47h-2.3v1.01H26V16.5h1zm3.612-15.49c2.45 0 4.164 1.782 4.164 4.067 0 2.158-1.715 4.422-4.164 4.422h-3.578v-8.49h3.578zM12 27c-4.75 0-7.5-5.16-7.5-10.2 0-3.6.875-7.8 7.5-7.8s7.5 4.2 7.5 7.8c0 5.04-2.75 10.2-7.5 10.2zM5.5 16.661C5.5 20.505 7.791 26 11.994 26c4.203 0 6.506-5.565 6.506-9.339 0-5.206-2.884-6.661-6.506-6.661C8.372 10 5.5 11.455 5.5 16.661z"/><path fill="#FFF" d="M1 36c0-3.042 3.765-5.132 4.997-6.036 1.231-.905 2.425-2.326 2.667-4.88l-.885-.75c-.446 3.28-1.782 4.238-2.212 4.551C4.059 29.983 0 32.369 0 36h1zm21.664 0c0-3.042-3.766-5.132-4.997-6.036-1.232-.905-2.426-2.326-2.667-4.88l.885-.75c.446 3.28 1.782 4.238 2.212 4.551 1.507 1.098 5.567 3.484 5.567 7.115h-1z"/></g></svg>