<svg xmlns="http://www.w3.org/2000/svg" width="24" height="24" viewBox="0 0 24 24"><g fill="none" fill-rule="evenodd"><path d="M0 0h24v24H0z"/><path fill="#0B1F35" d="M18.5 11V9.308h3.051v-.846H18.5v-1.44h2.153C22.693 7.022 24 5.33 24 3.385 24 1.438 22.694 0 20.653 0H17.5v6H16v1.022h1.5v1.44H16v.846h1.5V11h1zM20.408.964c1.633 0 2.776.898 2.776 2.42 0 1.44-1.143 2.625-2.776 2.625H18.5V.964h1.908zM8 18c-3.167 0-5-3.44-5-6.8C3 8.8 3.583 6 8 6s5 2.8 5 5.2c0 3.36-1.833 6.8-5 6.8zm-4-6.837C4 13.75 4.978 17 7.996 17S12 13.75 12 11.163C12 7.91 11.174 7 7.996 7 5.038 7 4 7.91 4 11.163z"/><path fill="#0B1F35" d="M15 24c0-2.028-2.16-3.26-3.05-3.829C11.06 19.602 10 18.766 10 17l1-1c-.086 2.32.83 2.881 1.415 3.233C13 19.585 16 21.579 16 24h-1zM1 24c0-2.028 2.16-3.26 3.05-3.829C4.94 19.602 6 18.766 6 17l-1-1c.086 2.32-.83 2.881-1.415 3.233C3 19.585 0 21.579 0 24h1z"/></g></svg>