<svg xmlns="http://www.w3.org/2000/svg" width="32" height="32" viewBox="0 0 32 32"><g fill="#FFF" fill-rule="evenodd"><path d="M16 25.5a9.5 9.5 0 1 0 0-19 9.5 9.5 0 0 0 0 19zm0-1a8.5 8.5 0 1 1 0-17 8.5 8.5 0 0 1 0 17zM5.367 30.904c.733 1.023 1.677 1.005 2.462.126.53-.594 1.024-1.583 1.498-2.873a32.247 32.247 0 0 0 .978-3.254l-.974-.228-.065.266a31.25 31.25 0 0 1-.878 2.87c-.433 1.181-.881 2.078-1.305 2.553-.38.426-.565.43-.903-.043-.377-.526-.755-1.53-1.112-3.035l-.072-.301-.3-.07c-1.588-.373-2.613-.771-3.105-1.163-.383-.304-.364-.486.076-.865.484-.416 1.366-.853 2.517-1.278a31.338 31.338 0 0 1 3.135-.948l-.23-.973c-.053.013-.15.036-.283.07a32.333 32.333 0 0 0-2.968.913c-1.254.463-2.224.944-2.822 1.458-.878.754-.973 1.67-.048 2.406.598.475 1.645.896 3.2 1.28.364 1.46.76 2.475 1.199 3.089zm21.324-29.77C25.958.11 25.014.128 24.23 1.008c-.53.593-1.024 1.582-1.498 2.873a32.246 32.246 0 0 0-.978 3.254l.974.227a31.25 31.25 0 0 1 .943-3.137c.433-1.18.882-2.077 1.305-2.552.38-.425.565-.429.903.043.377.526.756 1.53 1.113 3.036l.071.3.301.071c1.587.373 2.613.77 3.104 1.162.383.305.365.487-.076.865-.484.416-1.366.854-2.517 1.278a31.338 31.338 0 0 1-3.135.948l.23.973a32.333 32.333 0 0 0 3.251-.983c1.255-.462 2.225-.944 2.823-1.457.877-.754.972-1.67.047-2.406-.597-.476-1.645-.897-3.2-1.281-.364-1.46-.76-2.475-1.199-3.088z"/><path d="M11.5 8.5l12 12-2.742 2.743-12-12z" opacity=".3"/></g></svg>