<svg xmlns="http://www.w3.org/2000/svg" width="18" height="18" version="1" viewBox="0 0 18 18"><path fill="#0B1F35" d="M9 17c4.411 0 8-3.589 8-8s-3.589-8-8-8-8 3.589-8 8 3.589 8 8 8zM9 2c3.86 0 7 3.14 7 7s-3.14 7-7 7-7-3.14-7-7 3.14-7 7-7z"/><path fill="#0B1F35" d="M9.012 12.023c-.668 0-1.117.45-1.117 1.12 0 .662.449 1.107 1.117 1.107.664 0 1.11-.445 1.11-1.107 0-.67-.446-1.12-1.11-1.12zM7.723 7.447l.002-.037c.052-.743.554-1.186 1.341-1.186.767 0 1.283.431 1.283 1.071 0 .568-.228.888-.941 1.318-.85.509-1.185 1.057-1.156 1.896l.007.491h1.305v-.398c0-.582.214-.876.953-1.312.833-.499 1.256-1.188 1.256-2.048C11.773 5.922 10.687 5 9.132 5c-1.607 0-2.646.94-2.715 2.453l1.256.008.05-.014z"/></svg>