<svg xmlns="http://www.w3.org/2000/svg" width="36" height="36" version="1" viewBox="0 0 36 36"><path fill="#FFF" d="M18 33c8.271 0 15-6.729 15-15S26.271 3 18 3 3 9.729 3 18s6.729 15 15 15zm0-29c7.72 0 14 6.28 14 14s-6.28 14-14 14S4 25.72 4 18 10.28 4 18 4z"/><path fill="#FFF" d="M17.5 23c-.837 0-1.5.647-1.5 1.5 0 .837.663 1.5 1.5 1.5.853 0 1.5-.663 1.5-1.5 0-.853-.647-1.5-1.5-1.5zm.228-11.724c1.729 0 2.943 1.104 2.943 2.627 0 1.158-.526 1.908-1.869 2.798-1.504.976-2.127 1.876-2.116 3.291V21h1.429v-.804c0-1.19.397-1.801 1.805-2.702 1.472-.943 2.267-2.069 2.267-3.656 0-2.187-1.815-3.838-4.404-3.838-2.771 0-4.372 1.769-4.501 4.042h1.396c.138-1.694 1.331-2.766 3.05-2.766z"/></svg>