<svg xmlns="http://www.w3.org/2000/svg" width="24" height="24" version="1" viewBox="0 0 24 24"><path fill="#0B1F35" d="M12 2C6.486 2 2 6.486 2 12s4.486 10 10 10 10-4.486 10-10S17.514 2 12 2zm0 19c-4.962 0-9-4.038-9-9s4.038-9 9-9c4.963 0 9 4.038 9 9s-4.037 9-9 9z"/><path fill="#0B1F35" d="M11.793 15.232c-.554 0-.95.396-.95.957 0 .554.396.95.95.95s.943-.396.943-.95c0-.56-.389-.957-.943-.957zm.15-8.155c-1.921 0-2.905 1.176-2.98 2.652h1.169c.075-.978.731-1.586 1.764-1.586 1.019 0 1.675.622 1.675 1.47 0 .731-.308 1.162-1.101 1.647-.937.561-1.374 1.176-1.367 2.078v.629h1.196v-.444c0-.718.246-1.101 1.114-1.613.875-.526 1.429-1.285 1.429-2.358 0-1.408-1.176-2.475-2.899-2.475z"/></svg>