<svg xmlns="http://www.w3.org/2000/svg" width="24" height="24" viewBox="0 0 24 24"><g fill="none" fill-rule="evenodd"><path d="M0 0h24v24H0z"/><g fill="#FFF"><path d="M12 1C5.935 1 1 5.935 1 12s4.935 11 11 11 11-4.935 11-11S18.065 1 12 1zm0 21C6.487 22 2 17.513 2 12S6.487 2 12 2c5.514 0 10 4.487 10 10s-4.486 10-10 10z"/><path d="M11.793 15.232c-.554 0-.95.396-.95.957 0 .554.396.95.95.95.554 0 .943-.396.943-.95 0-.56-.389-.957-.943-.957zm.15-8.155c-1.921 0-2.905 1.176-2.98 2.652h1.169c.075-.978.731-1.586 1.764-1.586 1.019 0 1.675.622 1.675 1.47 0 .731-.308 1.162-1.101 1.647-.937.561-1.374 1.176-1.367 2.078v.629h1.196v-.444c0-.718.246-1.101 1.114-1.613.875-.526 1.429-1.285 1.429-2.358 0-1.408-1.176-2.475-2.899-2.475z"/></g></g></svg>