<svg height="48" viewBox="0 0 48 48" width="48" xmlns="http://www.w3.org/2000/svg"><g fill="none" fill-rule="evenodd"><path d="m0 0h48v48h-48z"/><g transform="translate(12 2.5)"><rect height="43" rx="3.5" stroke="#fff" width="24"/><path d="m5.55 2.5h-1.05c-1.1046 0-2 .89543-2 2v34c0 1.1046.8954 2 2 2h15c1.1046 0 2-.8954 2-2v-34c0-1.10457-.8954-2-2-2h-2.05c-.2316 1.14112-1.2405 2-2.45 2h-7c-1.2095 0-2.2184-.85888-2.45-2zm7.413 23.4609h1.8515l3.5332-6.9843v-1.4766h-6.0468v1.459h4.2656v.1055zm-4.5548-2.666h2.4199v-1.5117h-2.4199v-2.3906h-1.4941v2.3906h-2.4141v1.5117h2.4141v2.3965h1.4941z" fill="#fff" fill-opacity=".3"/></g></g></svg>