<svg xmlns="http://www.w3.org/2000/svg" width="44" height="44" viewBox="0 0 44 44"><g fill="none" fill-rule="evenodd"><path d="M-2-2h48v48H-2z"/><path fill="#FFF" d="M21.938 11.312c-4.641 0-7.188 2.688-7.312 6.391h3.672c.125-1.906 1.422-3.125 3.438-3.125 1.969 0 3.281 1.172 3.281 2.797 0 1.547-.656 2.375-2.594 3.547-2.156 1.266-3.062 2.672-2.922 5.016L19.516 27h3.625v-.891c0-1.547.578-2.344 2.625-3.547 2.125-1.266 3.312-2.938 3.312-5.328 0-3.453-2.859-5.922-7.14-5.922zM21.5 29c-1.567 0-2.602.987-2.602 2.508 0 1.505 1.034 2.492 2.602 2.492 1.599 0 2.602-.987 2.602-2.492 0-1.521-1.003-2.508-2.602-2.508z" opacity=".3"/><path fill="#FFF" d="M22 0C9.869 0 0 9.869 0 22s9.869 22 22 22 22-9.869 22-22S34.131 0 22 0zm0 43C10.42 43 1 33.579 1 22S10.42 1 22 1s21 9.421 21 21-9.42 21-21 21z"/></g></svg>