<svg xmlns="http://www.w3.org/2000/svg" width="34" height="34" viewBox="0 0 34 34"><g fill="none" fill-rule="evenodd"><path d="M-1-1h36v36H-1z"/><path fill="#FFF" d="M16.5 22.157c-1.205 0-2 .759-2 1.928 0 1.157.795 1.916 2 1.916 1.229 0 2-.759 2-1.916 0-1.169-.771-1.928-2-1.928zM16.908 8c-3.55 0-5.498 2.056-5.594 4.888h2.809c.096-1.458 1.088-2.39 2.63-2.39 1.506 0 2.51.896 2.51 2.139 0 1.183-.502 1.817-1.984 2.713-1.649.968-2.343 2.044-2.235 3.837l.011.813h2.773v-.681c0-1.183.442-1.793 2.008-2.713 1.625-.968 2.534-2.247 2.534-4.076 0-2.642-2.188-4.53-5.462-4.53z" opacity=".3"/><path fill="#FFF" d="M17 0C7.626 0 0 7.626 0 17c0 9.374 7.626 17 17 17 9.374 0 17-7.626 17-17 0-9.374-7.626-17-17-17zm0 33C8.178 33 1 25.822 1 17S8.178 1 17 1s16 7.178 16 16-7.178 16-16 16z"/></g></svg>