<svg xmlns="http://www.w3.org/2000/svg" width="36" height="36" viewBox="0 0 36 36" fill="none"><rect width="36" height="36" fill="none"/><path fill-rule="evenodd" clip-rule="evenodd" d="M23.5581 34H6.55811C5.36504 33.9987 4.22121 33.5241 3.37759 32.6805C2.53396 31.8369 2.05943 30.6931 2.05811 29.5V10.294L10.2921 2H23.5581C26.0391 2 28.0581 4.019 28.0581 6.5V12H27.0581V6.5C27.0581 4.57 25.4881 3 23.5581 3H10.7081L3.05811 10.706V29.5C3.05811 31.43 4.62811 33 6.55811 33H23.5581C25.4881 33 27.0581 31.43 27.0581 29.5V28H28.0581V29.5C28.0581 31.981 26.0391 34 23.5581 34Z" fill="#0B1F35"/><path d="M16.1475 16.0029H13.1768V24.2422H11.9644V16.0029H9V15H16.1475V16.0029Z" fill="#0B1F35"/><path d="M21.3612 24.2422H20.1424V15H21.3612V24.2422Z" fill="#0B1F35"/><path d="M31.2277 20.1606H27.3493V24.2422H26.1305V15H31.8561V16.0029H27.3493V19.1641H31.2277V20.1606Z" fill="#0B1F35"/></svg>