<svg xmlns="http://www.w3.org/2000/svg" width="24" height="24" viewBox="0 0 24 24" fill="none"><rect width="24" height="24" fill="none"/><path fill-rule="evenodd" clip-rule="evenodd" d="M20 8H19V4C19 2.897 18.103 2 17 2H7.707L3 6.707V7H2V6.293L7.293 1H17C18.654 1 20 2.346 20 4V8ZM17 23H5C3.346 23 2 21.654 2 20V19H3V20C3 21.103 3.897 22 5 22H17C18.103 22 19 21.103 19 20V19H20V20C20 21.654 18.654 23 17 23Z" fill="#0B1F35"/><path d="M7.62887 10.7596H5.28934V17H4.33453V10.7596H2V10H7.62887V10.7596Z" fill="#0B1F35"/><path d="M11.7349 17H10.775V10H11.7349V17Z" fill="#0B1F35"/><path d="M19.5051 13.9087H16.4507V17H15.4909V10H20V10.7596H16.4507V13.1538H19.5051V13.9087Z" fill="#0B1F35"/></svg>