<svg xmlns="http://www.w3.org/2000/svg" width="18" height="18" viewBox="0 0 18 18" fill="none"><rect width="18" height="18" fill="none"/><path fill-rule="evenodd" clip-rule="evenodd" d="M14 5.706H13V2.467C13 2.177 12.749 1.941 12.441 1.941H5.707L2 5.431V5.706H1V5.04L5.293 1H12.441C13.301 1 14 1.658 14 2.467V5.706V5.706ZM12.5 17H2.5C1.673 17 1 16.367 1 15.588H2C2 15.848 2.224 16.058 2.5 16.058H12.5C12.775 16.058 13 15.848 13 15.588H14C14 16.367 13.327 17 12.5 17Z" fill="white"/><path d="M5.22974 8.74707H3.56714V13.332H2.64795V8.74707H1V8H5.22974V8.74707Z" fill="white"/><path d="M8.89814 13.332H7.97529V8H8.89814V13.332Z" fill="white"/><path d="M15.0971 11.0725H12.9511V13.332H12.0246V8H15.412V8.74707H12.9511V10.3328H15.0971V11.0725Z" fill="white"/></svg>