<svg xmlns="http://www.w3.org/2000/svg" width="30" height="30" viewBox="0 0 30 30" fill="none"><rect width="30" height="30" fill="none"/><path fill-rule="evenodd" clip-rule="evenodd" d="M19 28H6C4.96133 27.9987 3.96378 27.594 3.21785 26.8712C2.47192 26.1484 2.03597 25.1641 2.002 24.126H2V8.293L8.293 2H19C21.206 2 23 3.794 23 6V11H22V6C22 4.346 20.654 3 19 3H8.707L3 8.707V24C3 25.654 4.346 27 6 27H19C20.654 27 22 25.654 22 24H23C23 26.206 21.206 28 19 28Z" fill="white"/><path d="M13.6289 14.7596H11.2893V21H10.3345V14.7596H8V14H13.6289V14.7596Z" fill="white"/><path d="M17.7349 21H16.775V14H17.7349V21Z" fill="white"/><path d="M25.5051 17.9087H22.4507V21H21.4909V14H26V14.7596H22.4507V17.1538H25.5051V17.9087Z" fill="white"/></svg>