<svg xmlns="http://www.w3.org/2000/svg" width="36" height="36" viewBox="0 0 36 36" fill="none"><rect width="36" height="36" fill="none"/><path d="M17.0832 3.65283C17.3858 2.78239 18.6168 2.78239 18.9194 3.65283L22.1211 12.8638C22.2546 13.2478 22.613 13.5082 23.0194 13.5165L32.769 13.7151C33.6903 13.7339 34.0707 14.9047 33.3364 15.4614L25.5656 21.3528C25.2416 21.5984 25.1048 22.0197 25.2225 22.4088L28.0463 31.7426C28.3132 32.6246 27.3172 33.3482 26.5608 32.8218L18.5565 27.2519C18.2228 27.0197 17.7798 27.0197 17.4462 27.2519L9.4418 32.8218C8.68539 33.3482 7.68948 32.6246 7.95633 31.7426L10.7802 22.4088C10.8979 22.0197 10.761 21.5984 10.4371 21.3528L2.66626 15.4614C1.93192 14.9047 2.31233 13.7339 3.23366 13.7151L12.9832 13.5165C13.3897 13.5082 13.748 13.2478 13.8815 12.8638L17.0832 3.65283Z" fill="#EF3124"/></svg>