<svg width="24" height="24" viewBox="0 0 24 24" xmlns="http://www.w3.org/2000/svg"><g fill="none" fill-rule="evenodd"><path d="M0 0h24v24H0z"/><path d="M12 5C6.888 5 2.573 7.462.164 11.755L.026 12l.138.245C2.573 16.538 6.888 19 12 19s9.427-2.462 11.836-6.755l.138-.245-.138-.245C21.427 7.462 17.112 5 12 5zm0 13c-4.642 0-8.57-2.183-10.823-6C3.43 8.183 7.358 6 12 6s8.57 2.183 10.823 6C20.57 15.817 16.642 18 12 18z" fill="#0B1F35" fill-rule="nonzero"/><circle fill="#0B1F35" fill-rule="nonzero" opacity=".3" cx="12" cy="12" r="3"/></g></svg>