<?xml version="1.0" encoding="UTF-8"?>
<svg width="24px" height="24px" viewBox="0 0 24 24" version="1.1" xmlns="http://www.w3.org/2000/svg" xmlns:xlink="http://www.w3.org/1999/xlink">
    <!-- Generator: Sketch 48.2 (47327) - http://www.bohemiancoding.com/sketch -->
    <title>icon_password-show_m_black</title>
    <desc>Created with Sketch.</desc>
    <defs></defs>
    <g id="Artboard-Copy" stroke="none" stroke-width="1" fill="none" fill-rule="evenodd" transform="translate(-183.000000, -210.000000)">
        <g id="icon_password-show_m_black" transform="translate(183.000000, 210.000000)">
            <polygon id="Shape" points="0 0 24 0 24 24 0 24"></polygon>
            <path d="M12,5 C6.888,5 2.573,7.462 0.164,11.755 L0.026,12 L0.164,12.245 C2.573,16.538 6.888,19 12,19 C17.112,19 21.427,16.538 23.836,12.245 L23.974,12 L23.836,11.755 C21.427,7.462 17.112,5 12,5 Z M12,18 C7.358,18 3.43,15.817 1.177,12 C3.43,8.183 7.358,6 12,6 C16.642,6 20.57,8.183 22.823,12 C20.57,15.817 16.642,18 12,18 Z" id="Shape" fill="#0B1F35" fill-rule="nonzero"></path>
            <circle id="Oval" fill="#0B1F35" fill-rule="nonzero" opacity="0.3" cx="12" cy="12" r="3"></circle>
        </g>
    </g>
</svg>