<svg xmlns="http://www.w3.org/2000/svg" width="30" height="30" version="1" viewBox="0 0 30 30"><path fill="#164A82" d="M7.458 18.281c-.07-1.966 1.895-2.527 2.246-3.861.211-1.123 2.106-1.966 2.527-2.808.281-.632.491-1.123 1.053-1.474-.562.07-1.123.07-1.404-.281-.491.14-1.264.211-1.404.491-.07.211-.211.351-.281.491-.281.07-.491 0-.562-.14 0-.14 0-.281.07-.491-.211.14-.351.211-.491.281-.211-.281-.281-.281-.562-.491 0-.211-.07-.562-.07-.772.07-.281.211-.421.351-.421.281 0 .562-.14.772-.281.351-.702 1.404-.983 1.685-1.755.211 0 .491 0 .702-.07-.211-.491-.281-.842-.14-1.123.281.211.491.351.772.562.491.14 1.053.351 1.544.491.842-.14 1.544-.14 1.404 1.053.281.351.562.491.842.491.07.562.14 1.193.14 1.755.421.562.281.983 0 1.334.211 1.053-.07 1.615-.632 2.036.421.913-.211 1.404-.702 1.966.14 1.264-.281 1.755-1.053 2.036.842 1.123 1.966 1.544 3.51.421 0-1.193.842-.983 1.264-.632.562-.702 1.544-1.685 2.597-2.527-.351-2.106 0-3.791-2.317-4.212-.14.351-.421.562-.702.702-.632-.491-1.334-.913-1.966-1.404.842-.632 1.755-.913 2.667-1.123.07.281.07.491 0 .772 2.738.702 2.878 1.334 3.58 4.352 1.966-1.123 4.142-1.544 5.686.562 1.966 4.984-3.65 5.195-5.124 3.791l-.14-.14-.842 1.264c.281.351.772.281 1.193.632-1.053.983-2.527.632-3.089 1.334-4.001 4.773-12.706 4.703-14.18-2.036-.14-.281-.281-.491-.491-.562-.562.491-.702 1.755-1.404 2.527-.281.07-.632 0-.842-.14.281.632-.14.632-.491.702-.562.14-1.123.14-1.685 0-.138-.073-.349-.213-.489-.283 0-.14 0-.281.07-.421 1.053-1.334 2.457-.983 3.089-2.597h.702c0-.351 0-.632.07-1.053l.421-.421c.281-.14.632-.14.983-.07.421.49.772.982 1.123 1.543zm16.988-1.685c1.123.632 2.597.421 2.527-.702-.632-1.193-1.755-.28-2.527.702z"/></svg>