<svg xmlns="http://www.w3.org/2000/svg" width="18" height="18" version="1" viewBox="0 0 18 18"><path fill="#0B1F35" d="M16.764 8.548c-.883-1.203-2.126-.963-3.249-.321-.401-1.725-.481-2.086-2.046-2.487a.825.825 0 0 0 0-.441c-.521.12-1.043.281-1.524.642.361.281.762.521 1.123.802.16-.08.321-.201.401-.401 1.324.241 1.123 1.203 1.324 2.407-.602.481-1.163 1.043-1.484 1.444-.241-.201-.722-.321-.722.361-.882.642-1.524.401-2.006-.241.441-.16.682-.441.602-1.163.281-.321.642-.602.401-1.123.321-.241.481-.562.361-1.163.16-.201.241-.441 0-.762 0-.321-.04-.682-.08-1.003-.16 0-.321-.08-.481-.281.08-.682-.321-.682-.802-.602-.282-.08-.602-.2-.883-.281-.16-.12-.281-.201-.441-.321-.08.16-.04.361.08.642-.12.04-.281.04-.401.04-.16.441-.762.602-.963 1.003-.12.08-.281.16-.441.16-.08 0-.16.08-.201.241 0 .12.04.321.04.441.16.12.201.12.321.281.08-.04.16-.08.281-.16-.04.12-.04.201-.04.281.04.08.16.12.321.08.04-.08.12-.16.16-.281.08-.16.521-.201.802-.281.16.201.481.201.802.16-.32.201-.441.482-.601.843-.241.482-1.324.963-1.444 1.605-.201.762-1.324 1.083-1.284 2.206a7.035 7.035 0 0 0-.642-.882c-.201-.04-.401-.04-.562.04l-.241.241c-.04.241-.04.401-.04.602h-.4c-.361.923-1.163.722-1.765 1.484-.04.079-.04.16-.04.24.08.04.201.12.281.16.321.08.642.08.963 0 .201-.04.441-.04.281-.401.12.08.321.12.481.08.401-.441.481-1.163.802-1.444.12.04.201.16.281.321.842 3.851 5.816 3.891 8.103 1.163.321-.401 1.163-.201 1.765-.762-.241-.201-.521-.16-.682-.361l.481-.722.08.08c.842.803 4.051.682 2.928-2.166zm-2.366 1.364c.441-.562 1.083-1.083 1.444-.401.04.642-.803.762-1.444.401z"/></svg>