<svg xmlns="http://www.w3.org/2000/svg" width="18" height="18" version="1" viewBox="0 0 18 18"><path fill="#164A82" d="M4.69 10.875c-.04-1.123 1.083-1.444 1.284-2.206.12-.642 1.203-1.123 1.444-1.605.16-.361.281-.642.602-.842-.321.04-.642.04-.802-.16-.281.08-.722.12-.802.281-.04.12-.12.201-.16.281-.16.04-.281 0-.321-.08 0-.08 0-.16.04-.281-.12.08-.201.12-.281.16-.12-.16-.16-.16-.321-.281 0-.12-.04-.321-.04-.441.04-.16.12-.241.201-.241.16 0 .321-.08.441-.16.201-.401.802-.562.963-1.003.12 0 .281 0 .401-.04-.12-.281-.16-.481-.08-.642.16.12.281.201.441.321.28.08.6.2.881.28.481-.08.882-.08.802.602.16.201.321.281.481.281.04.321.08.682.08 1.003.241.321.16.562 0 .762.12.602-.04.923-.361 1.163.241.521-.12.802-.401 1.123.08.722-.16 1.003-.602 1.163.481.642 1.123.882 2.006.241 0-.682.481-.562.722-.361.321-.401.882-.963 1.484-1.444-.201-1.203 0-2.166-1.324-2.407-.08.201-.241.321-.401.401-.361-.281-.762-.521-1.123-.802.481-.361 1.003-.521 1.524-.642.04.16.04.281 0 .441 1.564.401 1.645.762 2.046 2.487 1.123-.642 2.367-.882 3.249.321 1.123 2.848-2.086 2.968-2.928 2.166l-.08-.08-.481.722c.16.201.441.16.682.361-.602.562-1.444.361-1.765.762-2.286 2.728-7.26 2.688-8.103-1.163-.08-.16-.16-.281-.281-.321-.321.281-.401 1.003-.802 1.444-.16.04-.361 0-.481-.08.16.361-.08.361-.281.401-.321.08-.642.08-.963 0-.079-.04-.2-.12-.28-.16 0-.08 0-.16.04-.241.602-.762 1.404-.562 1.765-1.484h.401c0-.201 0-.361.04-.602l.241-.241c.16-.08.361-.08.562-.04.24.281.441.562.641.883zm9.708-.963c.642.361 1.484.241 1.444-.401-.361-.682-1.003-.16-1.444.401z"/></svg>