<svg xmlns="http://www.w3.org/2000/svg" width="16" height="11" viewBox="0 0 16 11"><path fill="#FFF" d="M15.764 5.073c-.883-1.136-2.126-.91-3.249-.303-.401-1.63-.481-1.97-2.046-2.349a.738.738 0 0 0 0-.416c-.521.113-1.043.265-1.524.606.361.265.762.492 1.123.757.16-.075.321-.19.401-.378 1.324.227 1.123 1.136 1.324 2.273-.602.454-1.163.985-1.484 1.364-.241-.19-.722-.303-.722.34-.882.607-1.524.38-2.006-.227.441-.151.682-.416.602-1.098.281-.304.642-.569.401-1.06.321-.229.481-.532.361-1.1.16-.19.241-.416 0-.719 0-.303-.04-.644-.08-.947-.16 0-.321-.076-.481-.266.08-.644-.321-.644-.802-.568C7.3.906 6.98.792 6.699.716c-.16-.113-.281-.19-.441-.303-.08.151-.04.341.08.607-.12.037-.281.037-.401.037-.16.417-.762.569-.963.948a.873.873 0 0 1-.441.15c-.08 0-.16.076-.201.228 0 .114.04.304.04.417.16.113.201.113.321.265.08-.038.16-.075.281-.15-.04.112-.04.189-.04.264.04.076.16.114.321.076.04-.075.12-.151.16-.265.08-.151.521-.19.802-.266.16.19.481.19.802.151-.32.19-.441.456-.601.797-.241.455-1.324.91-1.444 1.515-.201.72-1.324 1.023-1.284 2.084a6.675 6.675 0 0 0-.642-.833c-.201-.038-.401-.038-.562.038l-.241.227c-.04.228-.04.379-.04.569h-.4C1.444 8.143.642 7.954.04 8.673 0 8.748 0 8.824 0 8.9c.08.038.201.113.281.151.321.076.642.076.963 0 .201-.038.441-.038.281-.379a.69.69 0 0 0 .481.076c.401-.417.481-1.098.802-1.364.12.038.201.151.281.303.842 3.637 5.816 3.675 8.103 1.099.321-.379 1.163-.19 1.765-.72-.241-.19-.521-.151-.682-.34l.481-.683.08.076c.842.758 4.051.644 2.928-2.046zm-2.366 1.288c.441-.53 1.083-1.022 1.444-.378.04.606-.803.72-1.444.378z"/></svg>