<svg version="1.0" xmlns="http://www.w3.org/2000/svg" width="24" height="24" viewBox="0 0 24 24"><path fill="#164A82" d="M6.074 14.578c-.055-1.544 1.489-1.986 1.765-3.034.166-.882 1.655-1.544 1.986-2.206.221-.496.386-.882.827-1.158-.441.055-.882.055-1.103-.221-.386.111-.993.166-1.103.387-.055.165-.166.275-.221.386-.221.055-.386 0-.441-.11 0-.11 0-.221.055-.386-.165.11-.276.165-.386.221-.165-.222-.221-.222-.441-.387 0-.165-.055-.441-.055-.607.055-.221.165-.331.276-.331.221 0 .441-.11.607-.221.275-.551 1.102-.772 1.323-1.378.165 0 .386 0 .552-.055-.165-.386-.221-.662-.11-.882.22.164.385.275.606.44.386.11.827.276 1.213.386.662-.11 1.213-.11 1.103.827.221.276.441.386.662.386.055.441.11.938.11 1.379.331.441.221.772 0 1.048.165.827-.055 1.269-.496 1.599.331.717-.165 1.103-.552 1.544.11.993-.221 1.379-.827 1.599.662.882 1.544 1.213 2.758.331 0-.938.662-.772.993-.496.441-.552 1.213-1.324 2.041-1.986-.276-1.655 0-2.978-1.82-3.309-.11.276-.331.441-.552.552-.497-.385-1.048-.716-1.544-1.102.662-.496 1.379-.717 2.096-.882.055.221.055.386 0 .607 2.151.552 2.261 1.048 2.813 3.42 1.544-.882 3.254-1.213 4.468.441 1.544 3.916-2.868 4.081-4.026 2.978l-.11-.11-.662.993c.221.276.607.221.938.496-.827.772-1.986.496-2.427 1.048-3.144 3.751-9.983 3.695-11.141-1.599-.11-.221-.221-.386-.386-.441-.441.386-.552 1.379-1.103 1.986a.905.905 0 0 1-.662-.11c.221.496-.11.496-.386.552-.441.11-.882.11-1.324 0-.112-.058-.278-.168-.388-.223 0-.11 0-.221.055-.331.827-1.048 1.93-.772 2.427-2.041h.552c0-.276 0-.496.055-.827l.331-.331c.221-.11.496-.11.772-.055.331.386.606.772.882 1.213zm13.348-1.324c.882.496 2.041.331 1.986-.552-.497-.937-1.38-.22-1.986.552z"/></svg>
