<svg xmlns="http://www.w3.org/2000/svg" width="36" height="36" viewBox="0 0 36 36"><g fill="none" fill-rule="evenodd"><rect width="36" height="36"/><path fill="#0B1F35" fill-rule="nonzero" d="M19.71 30L22.85 33.15 22.15 33.85 17.79 29.5 22.15 25.15 22.85 25.85 19.71 29 31.5 29C32.3284271 29 33 28.3284271 33 27.5L33 7.5C33 6.67157288 32.3284271 6 31.5 6L21 6 21 5 31.5 5C32.8807119 5 34 6.11928813 34 7.5L34 27.5C34 28.8807119 32.8807119 30 31.5 30L19.71 30zM16.29 5L13.15 1.85 13.86 1.15 18.21 5.5 13.86 9.85 13.15 9.15 16.29 6 4.5 6C3.67157288 6 3 6.67157288 3 7.5L3 27.5C3 28.3284271 3.67157288 29 4.5 29L15 29 15 30 4.5 30C3.11928813 30 2 28.8807119 2 27.5L2 7.5C2 6.11928813 3.11928813 5 4.5 5L16.29 5z"/><rect width="30" height="4" x="3" y="12" fill="#0B1F35" opacity=".3"/><rect width="6" height="3" x="8" y="21" fill="#0B1F35" opacity=".3"/></g></svg>