<svg xmlns="http://www.w3.org/2000/svg" width="48" height="48" viewBox="0 0 48 48"><g fill="none"><path d="M0 0h48v48H0z"/><g fill="#0B1F35"><path d="M22.293 7l-4.147-4.146.708-.708L24.207 7.5l-5.353 5.354-.708-.708L22.293 8H6.5A2.5 2.5 0 0 0 4 10.5v26A2.5 2.5 0 0 0 6.5 39H19v1H6.5A3.5 3.5 0 0 1 3 36.5v-26A3.5 3.5 0 0 1 6.5 7h15.793zm3.768 32H41.5a2.5 2.5 0 0 0 2.5-2.5v-26A2.5 2.5 0 0 0 41.5 8H29V7h12.5a3.5 3.5 0 0 1 3.5 3.5v26a3.5 3.5 0 0 1-3.5 3.5H26.06l4.147 4.146-.707.708-5.354-5.354 5.354-5.354.707.708L26.061 39z"/><path opacity=".3" d="M4 16h40v6H4zM10 28h8v4h-8z"/></g></g></svg>