<svg xmlns="http://www.w3.org/2000/svg" width="24" height="24" viewBox="0 0 24 24"><g fill="none" fill-rule="evenodd"><path d="M0 0h24v24H0z"/><path fill="#FFF" fill-rule="nonzero" d="M13.7 20l1.4 1.4-.7.7-2.6-2.6 2.6-2.6.7.7-1.4 1.4H21c.6 0 1-.4 1-1V5c0-.6-.4-1-1-1h-7V3h7c1.1 0 2 .9 2 2v13c0 1.1-.9 2-2 2h-7.3zM10.3 3L8.9 1.6l.7-.7 2.6 2.6-2.6 2.6-.7-.7L10.3 4H3c-.6 0-1 .4-1 1v13c0 .6.4 1 1 1h7v1H3c-1.1 0-2-.9-2-2V5c0-1.1.9-2 2-2h7.3z"/><path fill="#FFF" opacity=".3" d="M2 8h20v3H2zM5 14h4v2H5z"/></g></svg>