<svg xmlns="http://www.w3.org/2000/svg" width="48" height="48" viewBox="0 0 48 48"><g fill="none"><rect width="48" height="48" fill="none"/><g fill="#FFFFFF" fill-rule="nonzero" transform="translate(3 2)"><path d="M19.2928932 5L15.1464466.853553391 15.8535534.146446609 21.2071068 5.5 15.8535534 10.8535534 15.1464466 10.1464466 19.2928932 6 3.5 6C2.11928813 6 1 7.11928813 1 8.5L1 34.5C1 35.8807119 2.11928813 37 3.5 37L16 37 16 38 3.5 38C1.56700338 38 0 36.4329966 0 34.5L0 8.5C0 6.56700338 1.56700338 5 3.5 5L19.2928932 5zM23.0606602 37L38.5 37C39.8807119 37 41 35.8807119 41 34.5L41 8.5C41 7.11928813 39.8807119 6 38.5 6L26 6 26 5 38.5 5C40.4329966 5 42 6.56700338 42 8.5L42 34.5C42 36.4329966 40.4329966 38 38.5 38L23.0606602 38 27.2071068 42.1464466 26.5 42.8535534 21.1464466 37.5 26.5 32.1464466 27.2071068 32.8535534 23.0606602 37z"/><rect width="40" height="6" x="1" y="14" opacity=".3"/><rect width="8" height="4" x="7" y="26" opacity=".3"/></g></g></svg>