<svg xmlns="http://www.w3.org/2000/svg" width="36" height="36" viewBox="0 0 36 36"><g fill="none" fill-rule="evenodd"><path d="M0 0h36v36H0z"/><path fill="#FFF" fill-rule="nonzero" d="M19.71 30l3.14 3.15-.7.7-4.36-4.35 4.36-4.35.7.7L19.71 29H31.5a1.5 1.5 0 0 0 1.5-1.5v-20A1.5 1.5 0 0 0 31.5 6H21V5h10.5A2.5 2.5 0 0 1 34 7.5v20a2.5 2.5 0 0 1-2.5 2.5H19.71zM16.29 5l-3.14-3.15.71-.7 4.35 4.35-4.35 4.35-.71-.7L16.29 6H4.5A1.5 1.5 0 0 0 3 7.5v20A1.5 1.5 0 0 0 4.5 29H15v1H4.5A2.5 2.5 0 0 1 2 27.5v-20A2.5 2.5 0 0 1 4.5 5h11.79z"/><path fill="#FFF" opacity=".3" d="M3 12h30v4H3zM8 21h6v3H8z"/></g></svg>