<svg width="36" height="36" viewBox="0 0 36 36" xmlns="http://www.w3.org/2000/svg"><g fill="none" fill-rule="evenodd"><path d="M0 0h36v36H0z"/><path d="M19.214 25.381a3.218 3.218 0 0 0 3.214 3.214 3.218 3.218 0 0 0 3.214-3.214 3.218 3.218 0 0 0-3.214-3.214 3.218 3.218 0 0 0-3.214 3.214zm5.429 0a2.214 2.214 0 1 1-4.427 0 2.214 2.214 0 0 1 4.427 0zM13.571 19.738a3.218 3.218 0 0 0 3.214-3.214 3.218 3.218 0 0 0-3.214-3.214 3.218 3.218 0 0 0-3.214 3.214 3.218 3.218 0 0 0 3.214 3.214zm0-5.428a2.214 2.214 0 1 1 0 4.427 2.214 2.214 0 0 1 0-4.427zM12.257 26.873l10.726-12.49.759.652-10.727 12.49z" fill="#FFF" opacity=".3"/><path d="M2.63 19h2.322v15h26.096V19h2.322a1.49 1.49 0 0 0 1.402-.967 1.49 1.49 0 0 0-.406-1.654L18.332 2.126 18 2.5l-.332-.374L1.634 16.378a1.489 1.489 0 0 0-.406 1.654c.223.588.774.968 1.402.968zm-.332-1.874L18 3.169l15.702 13.957a.489.489 0 0 1 .135.552.489.489 0 0 1-.467.322h-3.322v15H5.952V18H2.63a.49.49 0 0 1-.467-.322.489.489 0 0 1 .135-.552z" fill="#FFF"/></g></svg>