<?xml version="1.0" encoding="UTF-8"?>
<svg width="36px" height="36px" viewBox="0 0 36 36" version="1.1" xmlns="http://www.w3.org/2000/svg" xmlns:xlink="http://www.w3.org/1999/xlink">
    <!-- Generator: Sketch 48.2 (47327) - http://www.bohemiancoding.com/sketch -->
    <title>icon_category-mortgage_xl_black</title>
    <desc>Created with Sketch.</desc>
    <defs></defs>
    <g id="mobile" stroke="none" stroke-width="1" fill="none" fill-rule="evenodd" transform="translate(-1769.000000, -570.000000)">
        <g id="Headings" transform="translate(64.000000, 77.000000)">
            <g id="icon_category_mortgage__xl__white" transform="translate(1705.000000, 493.000000)">
                <g id="ungroup">
                    <rect id="Rectangle-path" x="0" y="0" width="36" height="36"></rect>
                    <g id="a1" opacity="0.4"></g>
                    <path d="M19.214,25.381 C19.214,27.153 20.656,28.595 22.428,28.595 C24.2,28.595 25.642,27.153 25.642,25.381 C25.642,23.609 24.2,22.167 22.428,22.167 C20.656,22.167 19.214,23.609 19.214,25.381 L19.214,25.381 Z M24.643,25.381 C24.643,26.604 23.652,27.595 22.429,27.595 C21.206,27.595 20.215,26.604 20.215,25.381 C20.215,24.158 21.206,23.167 22.429,23.167 C23.651,23.167 24.643,24.158 24.643,25.381 L24.643,25.381 Z" id="Shape" fill="#0B1F35" opacity="0.3"></path>
                    <path d="M13.571,19.738 C15.343,19.738 16.785,18.296 16.785,16.524 C16.785,14.752 15.343,13.31 13.571,13.31 C11.799,13.31 10.357,14.752 10.357,16.524 C10.357,18.296 11.799,19.738 13.571,19.738 L13.571,19.738 Z M13.571,14.31 C14.794,14.31 15.785,15.301 15.785,16.524 C15.785,17.747 14.794,18.738 13.571,18.738 C12.348,18.738 11.357,17.747 11.357,16.524 C11.357,15.301 12.349,14.31 13.571,14.31 L13.571,14.31 Z" id="Shape" fill="#0B1F35" opacity="0.3"></path>
                    <rect id="Rectangle-path" fill="#0B1F35" opacity="0.3" transform="translate(17.999066, 20.953354) rotate(-49.343393) translate(-17.999066, -20.953354) " x="9.76737023" y="20.4538722" width="16.4633925" height="1"></rect>
                    <path d="M2.63,19 L4.952,19 L4.952,34 L18,34 L31.048,34 L31.048,19 L33.37,19 C33.998,19 34.549,18.62 34.772,18.033 C34.995,17.446 34.835,16.796 34.366,16.379 L18.332,2.126 L18,2.5 L17.668,2.126 L1.634,16.378 C1.164,16.795 1.005,17.445 1.228,18.032 C1.451,18.62 2.002,19 2.63,19 L2.63,19 Z M2.298,17.126 L18,3.169 L33.702,17.126 C33.941,17.339 33.866,17.602 33.837,17.678 C33.809,17.753 33.689,18 33.37,18 L30.048,18 L30.048,33 L18,33 L5.952,33 L5.952,18 L2.63,18 C2.311,18 2.192,17.753 2.163,17.678 C2.134,17.602 2.059,17.339 2.298,17.126 L2.298,17.126 Z" id="Shape" fill="#0B1F35"></path>
                </g>
            </g>
        </g>
    </g>
</svg>