<svg xmlns="http://www.w3.org/2000/svg" width="24" height="24" viewBox="0 0 24 24"><path fill="none" d="M0 0h24v24H0z"/><path fill="#fff" d="M21 23H3V13H1.92C.6 13 .19 12.45.07 12.13s-.18-1 .75-1.8L12 .84l11.18 9.48c.93.83.87 1.49.75 1.8s-.53.88-1.85.88H21v10zM4 22h16V12h2.08a1.13 1.13 0 0 0 .92-.23 1 1 0 0 0-.47-.7L12 2.16 1.47 11.08a1 1 0 0 0-.47.69 1.13 1.13 0 0 0 .92.23H4v10z"/><path fill="#fff" d="M15 15.5a1.5 1.5 0 1 1-1.5 1.5 1.5 1.5 0 0 1 1.5-1.5m0-1a2.5 2.5 0 1 0 2.5 2.5 2.5 2.5 0 0 0-2.5-2.5zm-6-5A1.5 1.5 0 1 1 7.5 11 1.5 1.5 0 0 1 9 9.5m0-1a2.5 2.5 0 1 0 2.5 2.5A2.5 2.5 0 0 0 9 8.5zm-1.017 9.401l7.268-8.456.758.652-7.268 8.456z" opacity=".4"/></svg>