<svg width="48" height="48" viewBox="0 0 48 48" xmlns="http://www.w3.org/2000/svg"><g fill="none" fill-rule="evenodd"><path d="M0 0h48v48H0z"/><path d="M18 27.5c2.481 0 4.5-2.019 4.5-4.5s-2.019-4.5-4.5-4.5a4.505 4.505 0 0 0-4.5 4.5c0 2.481 2.019 4.5 4.5 4.5zm0-7a2.5 2.5 0 1 1 0 5 2.5 2.5 0 0 1 0-5zM25.5 35c0 2.481 2.019 4.5 4.5 4.5s4.5-2.019 4.5-4.5-2.019-4.5-4.5-4.5a4.505 4.505 0 0 0-4.5 4.5zm7 0a2.5 2.5 0 1 1-5 0 2.5 2.5 0 0 1 5 0zM15.152 37.767l16.176-18.835 1.517 1.303L16.669 39.07z" fill="#FFF" opacity=".3"/><path d="M3.844 25H6v22h36V25h2.156c1.739 0 2.889-.504 3.238-1.42.196-.513.279-1.591-1.358-3.055L24 1.845 1.964 20.525C.326 21.989.409 23.067.606 23.58.955 24.496 2.104 25 3.844 25zM2.62 21.279L24 3.155l21.375 18.12c.854.765 1.26 1.492 1.086 1.948-.184.479-1.066.777-2.305.777H41v22H7V24H3.844c-1.238 0-2.121-.298-2.305-.777-.174-.456.233-1.186 1.081-1.944z" fill="#FFF"/></g></svg>