<svg xmlns="http://www.w3.org/2000/svg" width="36" height="36" viewBox="0 0 36 36"><path fill="none" d="M0 0h36v36H0z"/><path fill="#0B1F35" d="M18 34H5V19H2.63a1.5 1.5 0 0 1-1-2.62l16-14.25.66.75L2.3 17.13a.5.5 0 0 0 .33.87H6v15h12v1z"/><path fill="#0B1F35" d="M31 34H18v-1h12V18h3.32a.5.5 0 0 0 .33-.87l-16-14.25.66-.75 16 14.25a1.5 1.5 0 0 1-1 2.62H31v15z"/><path fill="#0B1F35" d="M22.43 23.17a2.21 2.21 0 1 1-2.21 2.21 2.21 2.21 0 0 1 2.21-2.21m0-1a3.21 3.21 0 1 0 3.21 3.21 3.22 3.22 0 0 0-3.21-3.21zm-8.86-7.86a2.21 2.21 0 1 1-2.21 2.21 2.21 2.21 0 0 1 2.21-2.21m0-1a3.21 3.21 0 1 0 3.21 3.21 3.22 3.22 0 0 0-3.21-3.21zm-1.313 13.56l10.73-12.482.757.652-10.729 12.483z" opacity=".4"/></svg>