<?xml version="1.0" encoding="UTF-8"?>
<svg width="48px" height="48px" viewBox="0 0 48 48" version="1.1" xmlns="http://www.w3.org/2000/svg" xmlns:xlink="http://www.w3.org/1999/xlink">
    <!-- Generator: Sketch 48.2 (47327) - http://www.bohemiancoding.com/sketch -->
    <title>icon_category-mortgage_xxl_black</title>
    <desc>Created with Sketch.</desc>
    <defs></defs>
    <g id="mobile" stroke="none" stroke-width="1" fill="none" fill-rule="evenodd" transform="translate(-1845.000000, -570.000000)">
        <g id="Headings" transform="translate(64.000000, 77.000000)">
            <g id="icon_category_mortgage__xxl__white" transform="translate(1781.000000, 493.000000)">
                <g id="ungroup">
                    <rect id="Rectangle-path" x="0" y="0" width="48" height="48"></rect>
                    <g id="a1" opacity="0.4"></g>
                    <path d="M18,27.5 C20.481,27.5 22.5,25.481 22.5,23 C22.5,20.519 20.481,18.5 18,18.5 C15.519,18.5 13.5,20.519 13.5,23 C13.5,25.481 15.519,27.5 18,27.5 L18,27.5 Z M18,20.5 C19.381,20.5 20.5,21.619 20.5,23 C20.5,24.381 19.381,25.5 18,25.5 C16.619,25.5 15.5,24.381 15.5,23 C15.5,21.619 16.619,20.5 18,20.5 L18,20.5 Z" id="Shape" fill="#0B1F35" opacity="0.3"></path>
                    <path d="M25.5,35 C25.5,37.481 27.519,39.5 30,39.5 C32.481,39.5 34.5,37.481 34.5,35 C34.5,32.519 32.481,30.5 30,30.5 C27.519,30.5 25.5,32.519 25.5,35 L25.5,35 Z M32.5,35 C32.5,36.381 31.381,37.5 30,37.5 C28.619,37.5 27.5,36.381 27.5,35 C27.5,33.619 28.619,32.5 30,32.5 C31.381,32.5 32.5,33.619 32.5,35 L32.5,35 Z" id="Shape" fill="#0B1F35" opacity="0.3"></path>
                    <rect id="Rectangle-path" fill="#0B1F35" opacity="0.3" transform="translate(23.998600, 29.001000) rotate(-49.343393) translate(-23.998600, -29.001000) " x="11.585058" y="28.0010369" width="24.827084" height="1.99992621"></rect>
                    <path d="M3.844,25 L6,25 L6,47 L42,47 L42,25 L44.156,25 C45.895,25 47.045,24.496 47.394,23.58 C47.59,23.067 47.673,21.989 46.036,20.525 L24,1.845 L1.964,20.525 C0.326,21.989 0.409,23.067 0.606,23.58 C0.955,24.496 2.104,25 3.844,25 L3.844,25 Z M2.62,21.279 L24,3.155 L45.375,21.275 C46.229,22.04 46.635,22.767 46.461,23.223 C46.277,23.702 45.395,24 44.156,24 L41,24 L41,46 L7,46 L7,24 L3.844,24 C2.606,24 1.723,23.702 1.539,23.223 C1.365,22.767 1.772,22.037 2.62,21.279 L2.62,21.279 Z" id="Shape" fill="#0B1F35"></path>
                </g>
            </g>
        </g>
    </g>
</svg>