<svg width="36" height="36" viewBox="0 0 36 36" fill="none" xmlns="http://www.w3.org/2000/svg"><path d="M0 0h36v36H0z"/><path fill-rule="evenodd" clip-rule="evenodd" d="M23.558 34h-17a4.505 4.505 0 01-4.5-4.5V10.294L10.292 2h13.266c2.481 0 4.5 2.019 4.5 4.5V12h-1V6.5c0-1.93-1.57-3.5-3.5-3.5h-12.85l-7.65 7.706V29.5c0 1.93 1.57 3.5 3.5 3.5h17c1.93 0 3.5-1.57 3.5-3.5V28h1v1.5c0 2.481-2.019 4.5-4.5 4.5z" fill="#0B1F35"/><path d="M12.487 15.12h1.193v6.203c0 .838-.26 1.494-.779 1.967-.515.473-1.203.71-2.064.71-.894 0-1.59-.223-2.09-.668C8.25 22.887 8 22.263 8 21.462h1.187c0 .5.14.892.42 1.172.284.281.694.421 1.23.421.49 0 .886-.15 1.186-.45.305-.302.46-.723.464-1.264v-6.22zm5.736 5.33v3.43h-1.187v-8.76h3.319c.985 0 1.755.245 2.311.734.56.49.84 1.137.84 1.944 0 .85-.273 1.506-.821 1.967-.544.457-1.325.686-2.343.686h-2.12zm0-.944h2.132c.634 0 1.12-.144 1.458-.433.338-.293.507-.714.507-1.264 0-.52-.169-.938-.507-1.25-.337-.314-.801-.476-1.39-.488h-2.2v3.435zM32.5 22.73c-.305.426-.731.745-1.28.957-.543.209-1.178.313-1.903.313-.733 0-1.384-.166-1.953-.5a3.42 3.42 0 01-1.322-1.431c-.31-.618-.468-1.334-.476-2.148v-.764c0-1.32.315-2.342.945-3.068.635-.726 1.525-1.089 2.67-1.089.94 0 1.696.235 2.268.704.573.465.923 1.127 1.051 1.985h-1.187c-.222-1.159-.93-1.739-2.126-1.739-.795 0-1.398.273-1.81.819-.408.541-.614 1.327-.618 2.358v.716c0 .983.23 1.765.692 2.346.461.578 1.085.866 1.872.866a4.24 4.24 0 001.168-.144c.334-.096.61-.259.829-.487v-1.967h-2.083v-.939H32.5v3.213z" fill="#0B1F35"/></svg>