<svg width="30" height="30" viewBox="0 0 30 30" fill="none" xmlns="http://www.w3.org/2000/svg"><path d="M0 0h30v30H0z"/><path fill-rule="evenodd" clip-rule="evenodd" d="M19 28H6a4.005 4.005 0 01-3.998-3.874H2V8.293L8.293 2H19c2.206 0 4 1.794 4 4v5h-1V6c0-1.654-1.346-3-3-3H8.707L3 8.707V24c0 1.654 1.346 3 3 3h13c1.654 0 3-1.346 3-3h1c0 2.206-1.794 4-4 4z" fill="#0B1F35"/><path d="M11.082 14.094H12v4.824c0 .652-.2 1.162-.599 1.53-.396.368-.925.552-1.588.552-.688 0-1.223-.173-1.607-.52-.383-.346-.575-.83-.575-1.455h.913c0 .39.108.695.323.913.219.218.534.327.946.327.377 0 .681-.117.913-.35.234-.235.353-.562.356-.983v-4.838zm4.331 4.146v2.666H14.5v-6.812h2.553c.758 0 1.35.19 1.778.57.431.381.647.885.647 1.512 0 .661-.211 1.171-.633 1.53-.418.355-1.019.533-1.801.533h-1.631zm0-.735h1.64c.488 0 .862-.113 1.122-.337.26-.228.39-.555.39-.983 0-.405-.13-.73-.39-.973s-.617-.37-1.07-.38h-1.692v2.673zm10.752 2.508c-.235.33-.563.578-.984.744-.419.162-.907.243-1.465.243a2.9 2.9 0 01-1.502-.388 2.648 2.648 0 01-1.017-1.114c-.238-.48-.36-1.037-.366-1.67v-.595c0-1.026.242-1.822.727-2.386.488-.565 1.173-.847 2.054-.847.722 0 1.304.182 1.745.547.44.362.71.877.808 1.545h-.913c-.171-.902-.716-1.353-1.635-1.353-.612 0-1.076.212-1.393.637-.314.42-.473 1.032-.476 1.834v.557c0 .764.178 1.372.533 1.825.355.449.835.673 1.44.673.343 0 .642-.037.899-.112.256-.075.469-.201.637-.379v-1.53h-1.602v-.73h2.51v2.499z" fill="#0B1F35"/></svg>