<svg width="18" height="18" viewBox="0 0 18 18" fill="none" xmlns="http://www.w3.org/2000/svg"><path d="M0 0h18v18H0z"/><path fill-rule="evenodd" clip-rule="evenodd" d="M14 5.706h-1V2.467c0-.29-.251-.526-.559-.526H5.707L2 5.431v.275H1V5.04L5.293 1h7.148C13.301 1 14 1.658 14 2.467v3.239zM12.5 17h-10c-.827 0-1.5-.633-1.5-1.412h1c0 .26.224.47.5.47h10c.275 0 .5-.21.5-.47h1c0 .779-.673 1.412-1.5 1.412z" fill="#fff"/><path d="M3.638 7.722h.95v3.658c0 .499-.164.895-.493 1.19-.328.293-.76.44-1.299.44-.573 0-1.016-.137-1.328-.412C1.156 12.323 1 11.94 1 11.45h.951c0 .277.072.486.215.627.146.139.356.208.63.208.257 0 .46-.08.612-.24.153-.162.23-.386.23-.67V7.722zM7.759 11v1.938h-.955V7.722h2.102c.614 0 1.1.151 1.46.455.363.303.544.704.544 1.203 0 .512-.177.91-.532 1.193-.352.285-.847.427-1.483.427H7.759zm0-.727h1.147c.34 0 .599-.076.777-.226.18-.153.268-.373.268-.66 0-.281-.09-.506-.271-.673-.181-.17-.43-.257-.748-.262H7.76v1.82zm8.741 1.988c-.199.246-.474.432-.826.559a3.53 3.53 0 01-1.2.19c-.461 0-.869-.1-1.223-.297a2.039 2.039 0 01-.823-.85c-.191-.37-.29-.801-.298-1.293v-.409c0-.788.199-1.403.596-1.845.398-.444.952-.666 1.664-.666.612 0 1.097.143 1.457.43.36.286.576.7.65 1.24h-.937c-.105-.629-.489-.943-1.15-.943-.428 0-.754.147-.978.44-.222.292-.336.721-.344 1.287v.402c0 .563.125 1.002.374 1.314.252.31.6.466 1.045.466.489 0 .836-.105 1.042-.315V10.95h-1.132v-.688H16.5v2z" fill="#fff" fill-opacity=".9"/></svg>