<svg xmlns="http://www.w3.org/2000/svg" width="48" height="48" viewBox="0 0 48 48" fill="none"><rect width="48" height="48" fill="none"/><path d="M7.5 3.5C7.5 1.84315 8.84315 0.5 10.5 0.5H30.7927L40.6113 10.3285C41.1732 10.891 41.4889 11.6536 41.4889 12.4487V44.5C41.4889 46.1569 40.1457 47.5 38.4889 47.5H10.5C8.84314 47.5 7.5 46.1569 7.5 44.5V3.5Z" fill="#F3F4F5" stroke="#E7E9EB"/><rect x="14" y="22" width="21" height="15" stroke="#B6BCC3" stroke-width="2"/><path d="M20 31.5L20.6 30.7L19.9422 30.2067L19.331 30.7567L20 31.5ZM24 34.5L23.4 35.3L24.1903 35.8927L24.7926 35.1097L24 34.5ZM29 28L29.8064 27.4086L29.0191 26.335L28.2074 27.3903L29 28ZM33.6936 36.0914C34.0202 36.5367 34.646 36.633 35.0914 36.3064C35.5367 35.9798 35.633 35.354 35.3064 34.9086L33.6936 36.0914ZM15.669 36.7433L20.669 32.2433L19.331 30.7567L14.331 35.2567L15.669 36.7433ZM19.4 32.3L23.4 35.3L24.6 33.7L20.6 30.7L19.4 32.3ZM24.7926 35.1097L29.7926 28.6097L28.2074 27.3903L23.2074 33.8903L24.7926 35.1097ZM28.1936 28.5914L33.6936 36.0914L35.3064 34.9086L29.8064 27.4086L28.1936 28.5914Z" fill="#B6BCC3"/><path fill-rule="evenodd" clip-rule="evenodd" d="M41.9888 14L41.9888 11L30.9999 4.76137e-06L10.4999 4.87655e-06C8.56692 4.70756e-06 6.99991 1.56701 6.99991 3.5L6.99991 14L41.9888 14Z" fill="#2FC26E"/><path d="M12.8633 10V4.36328H11.6836V10H12.8633ZM20.1992 10V4.36328H18.8125L17.25 8.25H17.1797L15.6211 4.36328H14.2305V10H15.3242V6.18359H15.3867L16.8242 9.72266H17.6094L19.043 6.18359H19.1055V10H20.1992ZM26.5195 7.71094V6.99609H24.1523V7.85547H25.375L25.3711 7.96094C25.3477 8.66406 24.8125 9.13672 24.0391 9.13672C23.1094 9.13672 22.5234 8.39062 22.5234 7.16406C22.5234 5.96094 23.082 5.22266 23.9922 5.22266C24.6484 5.22266 25.1211 5.55859 25.2969 6.14844H26.4688C26.3047 4.98047 25.3242 4.21875 23.9922 4.21875C22.3516 4.21875 21.3164 5.36328 21.3164 7.17578C21.3164 9.01562 22.3438 10.1445 24.0195 10.1445C25.5586 10.1445 26.5195 9.20703 26.5195 7.71094Z" fill="white"/><path opacity="0.6" d="M31 0L42 11H34.5C32.567 11 31 9.433 31 7.5V0Z" fill="white"/><circle cx="20" cy="27" r="1" fill="#B6BCC3" stroke="#B6BCC3"/></svg>