<svg width="24" height="24" viewBox="0 0 24 24" fill="none" xmlns="http://www.w3.org/2000/svg"><path d="M0 0h24v24H0z"/><path fill-rule="evenodd" clip-rule="evenodd" d="M20 8h-1V4c0-1.103-.897-2-2-2H7.707L3 6.707V7H2v-.707L7.293 1H17c1.654 0 3 1.346 3 3v4zm-3 15H5c-1.654 0-3-1.346-3-3v-1h1v1c0 1.103.897 2 2 2h12c1.103 0 2-.897 2-2v-1h1v1c0 1.654-1.346 3-3 3z" fill="#fff"/><path d="M5.451 10.094h.918v4.824c0 .652-.2 1.162-.6 1.53-.395.368-.925.552-1.587.552-.688 0-1.223-.173-1.607-.52-.383-.346-.575-.83-.575-1.455h.913c0 .39.107.694.323.913.219.218.534.327.946.327.377 0 .681-.117.913-.35.234-.234.353-.562.356-.983v-4.838zm4.331 4.146v2.666h-.913v-6.812h2.553c.757 0 1.35.19 1.778.57.431.381.647.885.647 1.512 0 .661-.211 1.171-.633 1.53-.418.356-1.019.533-1.802.533h-1.63zm0-.735h1.64c.488 0 .862-.113 1.122-.337.26-.228.39-.555.39-.983 0-.405-.13-.73-.39-.973s-.617-.37-1.07-.38H9.782v2.673zm10.752 2.508c-.235.33-.563.578-.984.744-.419.162-.907.243-1.465.243a2.9 2.9 0 01-1.502-.388 2.648 2.648 0 01-1.017-1.114c-.238-.48-.36-1.037-.366-1.67v-.595c0-1.026.242-1.822.727-2.386.488-.565 1.173-.847 2.054-.847.722 0 1.304.182 1.744.547.441.362.71.877.809 1.545h-.913c-.171-.902-.716-1.353-1.636-1.353-.611 0-1.075.212-1.392.637-.314.42-.473 1.032-.476 1.834v.557c0 .764.178 1.372.533 1.825.355.449.835.673 1.44.673.342 0 .642-.037.899-.112.256-.075.469-.201.637-.379v-1.53h-1.603v-.73h2.51v2.499z" fill="#fff" fill-opacity=".9"/></svg>