<svg xmlns="http://www.w3.org/2000/svg" width="24" height="24" viewBox="0 0 24 24"><path fill="none" d="M0 0h24v24H0z"/><path fill="#fff" d="M17.5 12a.5.5 0 0 1-.5-.5V8a.5.5 0 0 1 1 0v3.5a.5.5 0 0 1-.5.5z" opacity=".3"/><path fill="#fff" d="M22.5 23.07h-8a.5.5 0 0 1-.5-.5V11.5a.5.5 0 0 1 .5-.5h8a.5.5 0 0 1 .5.5v11.07a.5.5 0 0 1-.5.5zm-7.5-1h7V12h-7v10.07z"/><path fill="#fff" d="M14.5 23.07h-13a.5.5 0 0 1-.5-.5v-16a.5.5 0 0 1 .3-.46l13-5.57A.5.5 0 0 1 15 1v21.57a.5.5 0 0 1-.5.5zm-12.5-1h12V1.76L2 6.9v15.17z"/><path fill="#fff" d="M5 9h2v3H5zm4-2h2v3H9zm8 7h2v3h-2zM5 14h2v3H5zm14.5-2a.5.5 0 0 1-.5-.5V10a.5.5 0 0 1 1 0v1.5a.5.5 0 0 1-.5.5z" opacity=".3"/></svg>