<svg xmlns="http://www.w3.org/2000/svg" width="44" height="44" viewBox="0 0 44 44"><g fill="none" fill-rule="evenodd"><path d="M-2-2h48v48H-2z"/><path fill="#0B1F35" d="M.579 44H43.5a.5.5 0 0 0 .5-.5V21.436a.5.5 0 0 0-.5-.5H27V.5a.502.502 0 0 0-.697-.459L.382 11.138a.5.5 0 0 0-.303.459V43.5a.5.5 0 0 0 .5.5zM27 21.936h16V43H27V21.936zM1.079 11.927L26 1.258V43H1.079V11.927z"/><path fill="#0B1F35" d="M32.5 22a.5.5 0 0 0 .5-.5v-7a.5.5 0 0 0-1 0v7a.5.5 0 0 0 .5.5zm.5 5h4v6h-4zM7 28h4v6H7zm0-11h4v6H7zm8-5h4v6h-4zm22.5 10a.5.5 0 0 0 .5-.5v-3a.5.5 0 0 0-1 0v3a.5.5 0 0 0 .5.5z" opacity=".3"/></g></svg>