<svg xmlns="http://www.w3.org/2000/svg" width="48" height="48" viewBox="0 0 48 48" fill="none"><rect width="48" height="48" fill="none"/><path d="M15.8831 46L0 16.516L16.4434 7.88635L32.3265 37.3704L15.8831 46Z" fill="#DCE8F0"/><path d="M13.4209 17.0325C12.899 16.0534 11.6653 15.6897 10.6653 16.2202C9.66532 16.7506 9.27767 17.9744 9.7995 18.9535C10.3213 19.9326 11.555 20.2963 12.555 19.7658C13.5551 19.2353 13.9427 18.0116 13.4209 17.0325Z" fill="#F8FAFB"/><path d="M23.1747 35.3334C22.6529 34.3543 21.4192 33.9906 20.4192 34.521C19.4191 35.0515 19.0315 36.2752 19.5533 37.2543C20.0752 38.2334 21.3089 38.5971 22.3089 38.0667C23.3089 37.5362 23.6965 36.3125 23.1747 35.3334Z" fill="#F8FAFB"/><path d="M22.3677 27.0727C22.3677 30.5897 19.5477 33.4407 16.069 33.4407C12.5904 33.4407 9.77037 30.5897 9.77037 27.0727C9.77037 23.5557 12.5904 20.7047 16.069 20.7047C19.5477 20.7047 22.3677 23.5557 22.3677 27.0727Z" fill="#F8FAFB"/><path d="M15.2659 39.1592L14.6938 6.24811L32.734 5.93188L33.3061 38.8429L15.2659 39.1592Z" fill="#B8D1E0"/><path d="M26.1973 12.2794C26.1779 11.1707 25.2442 10.2879 24.1118 10.3076C22.9794 10.3273 22.0771 11.2421 22.0965 12.3508C22.1159 13.4595 23.0496 14.3423 24.182 14.3226C25.3144 14.3029 26.2167 13.3881 26.1973 12.2794Z" fill="#F5F8FA"/><path d="M26.5598 33.0032C26.5404 31.8945 25.6067 31.0117 24.4743 31.0314C23.3419 31.0511 22.4396 31.9659 22.459 33.0746C22.4784 34.1834 23.4121 35.0662 24.5445 35.0465C25.677 35.0267 26.5792 34.112 26.5598 33.0032Z" fill="#F5F8FA"/><path d="M30.1869 22.0795C30.1869 25.5965 27.3669 28.4475 23.8883 28.4475C20.4096 28.4475 17.5896 25.5965 17.5896 22.0795C17.5896 18.5625 20.4096 15.7115 23.8883 15.7115C27.3669 15.7115 30.1869 18.5625 30.1869 22.0795Z" fill="#F5F8FA"/><path d="M17.6328 33.6113L31.2117 3L48.0001 10.5023L34.4213 41.1136L17.6328 33.6113Z" fill="#5C85AD"/><path d="M39.1745 13.5668C39.6266 12.5537 39.1544 11.36 38.1197 10.9004C37.085 10.4408 35.8798 10.8895 35.4277 11.9025C34.9756 12.9155 35.4478 14.1093 36.4825 14.5689C37.5172 15.0285 38.7224 14.5798 39.1745 13.5668Z" fill="#F0F5F7"/><path d="M30.7241 32.5018C31.1762 31.4888 30.7039 30.295 29.6692 29.8355C28.6346 29.3759 27.4293 29.8245 26.9772 30.8376C26.5251 31.8506 26.9974 33.0444 28.0321 33.5039C29.0667 33.9635 30.272 33.5149 30.7241 32.5018Z" fill="#F0F5F7"/><path d="M38.4936 21.9951C38.4936 25.1923 35.9299 27.7842 32.7675 27.7842C29.6051 27.7842 27.0414 25.1923 27.0414 21.9951C27.0414 18.7978 29.6051 16.206 32.7675 16.206C35.9299 16.206 38.4936 18.7978 38.4936 21.9951Z" fill="#F0F5F7"/></svg>