<svg xmlns="http://www.w3.org/2000/svg" width="24" height="24" viewBox="0 0 24 24" fill="none"><rect width="24" height="24" fill="none"/><path d="M7.94156 23.4999L0 8.75792L8.2217 4.44312L16.1633 19.1851L7.94156 23.4999Z" fill="#DCE8F0"/><path d="M6.71043 9.01625C6.44952 8.5267 5.83267 8.34486 5.33266 8.61009C4.83266 8.87532 4.63884 9.48718 4.89975 9.97673C5.16067 10.4663 5.77751 10.6481 6.27752 10.3829C6.77753 10.1177 6.97135 9.5058 6.71043 9.01625Z" fill="#F8FAFB"/><path d="M11.5874 18.1667C11.3264 17.6771 10.7096 17.4953 10.2096 17.7605C9.70957 18.0258 9.51575 18.6376 9.77667 19.1272C10.0376 19.6167 10.6544 19.7986 11.1544 19.5333C11.6544 19.2681 11.8483 18.6562 11.5874 18.1667Z" fill="#F8FAFB"/><path d="M11.1838 14.0363C11.1838 15.7948 9.77384 17.2204 8.03451 17.2204C6.29519 17.2204 4.88518 15.7948 4.88518 14.0363C4.88518 12.2779 6.29519 10.8523 8.03451 10.8523C9.77384 10.8523 11.1838 12.2779 11.1838 14.0363Z" fill="#F8FAFB"/><path d="M7.63295 20.0796L7.34692 3.62405L16.367 3.46594L16.653 19.9215L7.63295 20.0796Z" fill="#B8D1E0"/><path d="M13.0988 6.63976C13.0891 6.0854 12.6222 5.64399 12.056 5.65385C11.4898 5.66371 11.0387 6.1211 11.0484 6.67546C11.0581 7.22983 11.5249 7.67123 12.0911 7.66137C12.6573 7.65151 13.1085 7.19412 13.0988 6.63976Z" fill="#F5F8FA"/><path d="M13.28 17.0017C13.2703 16.4473 12.8035 16.0059 12.2373 16.0158C11.6711 16.0256 11.2199 16.483 11.2296 17.0374C11.2393 17.5917 11.7062 18.0332 12.2724 18.0233C12.8386 18.0134 13.2897 17.556 13.28 17.0017Z" fill="#F5F8FA"/><path d="M15.0936 11.5398C15.0936 13.2983 13.6836 14.7238 11.9443 14.7238C10.2049 14.7238 8.79492 13.2983 8.79492 11.5398C8.79492 9.78132 10.2049 8.35579 11.9443 8.35579C13.6836 8.35579 15.0936 9.78132 15.0936 11.5398Z" fill="#F5F8FA"/><path d="M8.81641 17.3057L15.6058 2L24.0001 5.75116L17.2106 21.0568L8.81641 17.3057Z" fill="#5C85AD"/><path d="M19.5873 7.28339C19.8133 6.77687 19.5772 6.17998 19.0598 5.9502C18.5425 5.72041 17.9399 5.94474 17.7138 6.45125C17.4878 6.95777 17.7239 7.55466 18.2412 7.78444C18.7586 8.01423 19.3612 7.7899 19.5873 7.28339Z" fill="#F0F5F7"/><path d="M15.362 16.7509C15.5881 16.2444 15.352 15.6475 14.8346 15.4177C14.3173 15.1879 13.7147 15.4123 13.4886 15.9188C13.2626 16.4253 13.4987 17.0222 14.016 17.252C14.5334 17.4818 15.136 17.2574 15.362 16.7509Z" fill="#F0F5F7"/><path d="M19.2468 11.4975C19.2468 13.0962 17.965 14.3921 16.3838 14.3921C14.8025 14.3921 13.5207 13.0962 13.5207 11.4975C13.5207 9.89892 14.8025 8.60298 16.3838 8.60298C17.965 8.60298 19.2468 9.89892 19.2468 11.4975Z" fill="#F0F5F7"/></svg>