<svg width="48" height="48" viewBox="0 0 48 48" fill="none" xmlns="http://www.w3.org/2000/svg"><rect width="48" height="48" fill="none"/><path d="M15.8831 46L0 16.516L16.4434 7.88635L32.3265 37.3704L15.8831 46Z" fill="#DCE8F0"/><path d="M13.4207 17.0324C12.8989 16.0533 11.6652 15.6897 10.6652 16.2201C9.66519 16.7506 9.27755 17.9743 9.79938 18.9534C10.3212 19.9325 11.5549 20.2962 12.5549 19.7657C13.5549 19.2353 13.9426 18.0115 13.4207 17.0324Z" fill="#F8FAFB"/><path d="M23.1746 35.3333C22.6528 34.3542 21.4191 33.9905 20.419 34.521C19.419 35.0514 19.0314 36.2752 19.5532 37.2543C20.075 38.2334 21.3087 38.5971 22.3088 38.0666C23.3088 37.5361 23.6964 36.3124 23.1746 35.3333Z" fill="#F8FAFB"/><path d="M22.3676 27.0726C22.3676 30.5896 19.5476 33.4407 16.0689 33.4407C12.5903 33.4407 9.77024 30.5896 9.77024 27.0726C9.77024 23.5557 12.5903 20.7046 16.0689 20.7046C19.5476 20.7046 22.3676 23.5557 22.3676 27.0726Z" fill="#F8FAFB"/><path d="M15.2659 39.1591L14.6938 6.24805L32.734 5.93182L33.3061 38.8429L15.2659 39.1591Z" fill="#B8D1E0"/><path d="M26.1973 12.2794C26.1779 11.1707 25.2442 10.2879 24.1118 10.3076C22.9794 10.3273 22.0771 11.2421 22.0965 12.3508C22.1159 13.4596 23.0496 14.3424 24.182 14.3227C25.3144 14.3029 26.2167 13.3882 26.1973 12.2794Z" fill="#F5F8FA"/><path d="M26.5598 33.0033C26.5404 31.8945 25.6067 31.0117 24.4743 31.0314C23.3419 31.0512 22.4396 31.9659 22.459 33.0747C22.4784 34.1834 23.4121 35.0662 24.5445 35.0465C25.677 35.0268 26.5792 34.112 26.5598 33.0033Z" fill="#F5F8FA"/><path d="M30.1869 22.0795C30.1869 25.5965 27.3669 28.4476 23.8883 28.4476C20.4096 28.4476 17.5896 25.5965 17.5896 22.0795C17.5896 18.5625 20.4096 15.7115 23.8883 15.7115C27.3669 15.7115 30.1869 18.5625 30.1869 22.0795Z" fill="#F5F8FA"/><path d="M17.6327 33.6113L31.2116 3L48 10.5023L34.4211 41.1136L17.6327 33.6113Z" fill="#5C85AD"/><path d="M39.1746 13.5667C39.6267 12.5537 39.1545 11.3599 38.1198 10.9004C37.0851 10.4408 35.8799 10.8895 35.4278 11.9025C34.9757 12.9155 35.4479 14.1093 36.4826 14.5689C37.5173 15.0284 38.7225 14.5798 39.1746 13.5667Z" fill="#F0F5F7"/><path d="M30.7242 32.5018C31.1763 31.4888 30.704 30.295 29.6694 29.8354C28.6347 29.3759 27.4294 29.8245 26.9773 30.8375C26.5252 31.8506 26.9975 33.0443 28.0322 33.5039C29.0668 33.9635 30.2721 33.5148 30.7242 32.5018Z" fill="#F0F5F7"/><path d="M38.4937 21.995C38.4937 25.1923 35.93 27.7842 32.7676 27.7842C29.6052 27.7842 27.0416 25.1923 27.0416 21.995C27.0416 18.7978 29.6052 16.2059 32.7676 16.2059C35.93 16.2059 38.4937 18.7978 38.4937 21.995Z" fill="#F0F5F7"/></svg>