<svg width="24" height="24" viewBox="0 0 24 24" fill="none" xmlns="http://www.w3.org/2000/svg"><rect width="24" height="24" fill="none"/><path d="M7.94156 23.5L0 8.75798L8.2217 4.44318L16.1633 19.1852L7.94156 23.5Z" fill="#DCE8F0"/><path d="M6.71043 9.01622C6.44952 8.52667 5.83267 8.34483 5.33266 8.61006C4.83266 8.87528 4.63884 9.48715 4.89975 9.9767C5.16067 10.4662 5.77751 10.6481 6.27752 10.3829C6.77753 10.1176 6.97135 9.50577 6.71043 9.01622Z" fill="#F8FAFB"/><path d="M11.5874 18.1667C11.3264 17.6771 10.7096 17.4953 10.2096 17.7605C9.70957 18.0257 9.51575 18.6376 9.77667 19.1271C10.0376 19.6167 10.6544 19.7985 11.1544 19.5333C11.6544 19.2681 11.8483 18.6562 11.5874 18.1667Z" fill="#F8FAFB"/><path d="M11.1838 14.0363C11.1838 15.7948 9.77384 17.2203 8.03451 17.2203C6.29519 17.2203 4.88518 15.7948 4.88518 14.0363C4.88518 12.2778 6.29519 10.8523 8.03451 10.8523C9.77384 10.8523 11.1838 12.2778 11.1838 14.0363Z" fill="#F8FAFB"/><path d="M7.63295 20.0795L7.34692 3.62402L16.367 3.46591L16.653 19.9214L7.63295 20.0795Z" fill="#B8D1E0"/><path d="M13.0987 6.6397C13.089 6.08533 12.6221 5.64393 12.0559 5.65379C11.4897 5.66365 11.0385 6.12104 11.0482 6.6754C11.0579 7.22977 11.5248 7.67117 12.091 7.66131C12.6572 7.65145 13.1084 7.19406 13.0987 6.6397Z" fill="#F5F8FA"/><path d="M13.2799 17.0016C13.2702 16.4473 12.8034 16.0058 12.2371 16.0157C11.6709 16.0256 11.2198 16.483 11.2295 17.0373C11.2392 17.5917 11.7061 18.0331 12.2723 18.0232C12.8385 18.0134 13.2896 17.556 13.2799 17.0016Z" fill="#F5F8FA"/><path d="M15.0935 11.5397C15.0935 13.2982 13.6835 14.7238 11.9441 14.7238C10.2048 14.7238 8.7948 13.2982 8.7948 11.5397C8.7948 9.78126 10.2048 8.35573 11.9441 8.35573C13.6835 8.35573 15.0935 9.78126 15.0935 11.5397Z" fill="#F5F8FA"/><path d="M8.81641 17.3057L15.6058 2L24.0001 5.75116L17.2106 21.0568L8.81641 17.3057Z" fill="#5C85AD"/><path d="M19.5873 7.28339C19.8133 6.77687 19.5772 6.17998 19.0598 5.9502C18.5425 5.72041 17.9399 5.94474 17.7138 6.45125C17.4878 6.95777 17.7239 7.55466 18.2412 7.78444C18.7586 8.01423 19.3612 7.7899 19.5873 7.28339Z" fill="#F0F5F7"/><path d="M15.362 16.7509C15.5881 16.2444 15.352 15.6475 14.8346 15.4177C14.3173 15.1879 13.7147 15.4123 13.4886 15.9188C13.2626 16.4253 13.4987 17.0222 14.016 17.252C14.5334 17.4818 15.136 17.2574 15.362 16.7509Z" fill="#F0F5F7"/><path d="M19.2468 11.4975C19.2468 13.0962 17.965 14.3921 16.3838 14.3921C14.8025 14.3921 13.5207 13.0962 13.5207 11.4975C13.5207 9.89892 14.8025 8.60298 16.3838 8.60298C17.965 8.60298 19.2468 9.89892 19.2468 11.4975Z" fill="#F0F5F7"/></svg>