<svg xmlns="http://www.w3.org/2000/svg" width="44" height="39" viewBox="0 0 44 39"><g fill="none" fill-rule="evenodd" transform="translate(-2 -4)"><path d="M0 0h48v48H0z"/><circle cx="24" cy="39" r="3.5" fill="#FFF" opacity=".3"/><path fill="#FFF" d="M45.5 11.4C39.2 7.1 31.7 4.9 24 4.9c-7.7 0-15.1 2.3-21.5 6.5l.7 1C9.3 8.3 16.5 6.1 24 6.1s14.7 2.2 20.8 6.3l.7-1zm-5.8 9.3C35 17.6 29.6 15.9 24 15.9s-11.1 1.7-15.7 4.8l.7 1c4.4-3 9.6-4.6 15-4.6s10.6 1.6 15 4.6l.7-1zM14.1 29l.7 1c2.7-1.9 5.9-2.9 9.2-2.9 3.3 0 6.5 1 9.2 2.9l.7-1c-2.9-2-6.3-3.1-9.9-3.1-3.6 0-7 1.1-9.9 3.1z"/></g></svg>