<svg xmlns="http://www.w3.org/2000/svg" width="36" height="33" viewBox="0 0 36 33"><g fill="none" fill-rule="evenodd" transform="translate(0 -1)"><path d="M0 0h36v36H0z"/><circle cx="18" cy="31" r="2.5" fill="#FFF" opacity=".3"/><path fill="#FFF" d="M.9 6.9l.7 1C6.5 4.8 12.2 3.1 18 3.1c5.8 0 11.5 1.7 16.4 4.9l.7-1C30 3.6 24.1 1.9 18 1.9c-6.1 0-12 1.7-17.1 5zm29.2 7.5c-3.6-2.3-7.8-3.6-12.1-3.6S9.5 12 5.9 14.4l.7 1.1C10 13.3 14 12.1 18 12.1s8 1.2 11.4 3.4l.7-1.1zM11.5 23c3.9-2.5 9-2.5 12.9 0l.7-1.1c-4.3-2.7-10-2.7-14.3 0l.7 1.1z"/></g></svg>