<svg xmlns="http://www.w3.org/2000/svg" width="24" height="22" viewBox="0 0 24 22"><g fill="none" fill-rule="evenodd"><path d="M0 0h24v24H0z"/><circle cx="12" cy="20" r="2" fill="#FFF" opacity=".3"/><path fill="#FFF" d="M12 .9C7.9.9 3.9 2.1.5 4.3l.7 1c3.2-2.1 7-3.2 10.8-3.2 3.8 0 7.6 1.1 10.8 3.2l.7-1A21.2 21.2 0 0 0 12 .9zm8.2 8.4c-2.4-1.6-5.3-2.4-8.2-2.4-2.9 0-5.7.8-8.2 2.4l.7 1.1C6.7 8.9 9.3 8.1 12 8.1s5.3.8 7.5 2.2l.7-1zm-13.1 5l.7 1.1c2.5-1.6 5.9-1.6 8.4 0l.7-1.1c-3-1.9-6.8-1.9-9.8 0z"/></g></svg>