<svg xmlns="http://www.w3.org/2000/svg" width="12" height="12" viewBox="0 0 12 12"><g fill="none" fill-rule="evenodd"><path d="M0 0h12v12H0z"/><g fill="#FFF" fill-rule="nonzero"><path d="M5.786 4C4.247 4 3 5.343 3 7v2.003c0 .55.415.997.926.997h4.148C8.585 10 9 9.554 9 9.003V7c0-1.657-1.247-3-2.786-3h-.428z"/><path d="M4.167 2.445l.144-.175c.154-.188.397-.245.789-.245.385 0 .68.08 1.05.275l.103.055.104.056c.08.043.137.07.192.093a.93.93 0 0 0 .175.055c.14.027.3.042.478.042h.565l-.86 2.04H5.093l-.927-2.196zm1.424 1.447h.818l.246-.584a1.675 1.675 0 0 1-.391-.11 2.84 2.84 0 0 1-.26-.124l-.107-.059-.095-.05c-.261-.138-.436-.187-.682-.19l.471 1.117z"/></g></g></svg>