<svg width="16" height="16" viewBox="0 0 16 16" fill="none" xmlns="http://www.w3.org/2000/svg"><rect width="16" height="16" fill="none"/><path fill-rule="evenodd" clip-rule="evenodd" d="M7.5 3.5C4.18629 3.5 1.5 6.18629 1.5 9.5V12.9508C1.5 14.3587 2.64132 15.5 4.0492 15.5H11.9508C13.3587 15.5 14.5 14.3587 14.5 12.9508V9.5C14.5 6.18629 11.8137 3.5 8.5 3.5H7.5Z" stroke="white"/><path d="M6.36364 9.72727C7.11555 9.72727 7.72727 9.11555 7.72727 8.36364C7.72727 7.61173 7.11555 7 6.36364 7C5.61173 7 5 7.61173 5 8.36364C5 9.11555 5.61173 9.72727 6.36364 9.72727ZM6.36364 7.54545C6.81551 7.54545 7.18182 7.91177 7.18182 8.36364C7.18182 8.81551 6.81551 9.18182 6.36364 9.18182C5.91177 9.18182 5.54545 8.81551 5.54545 8.36364C5.54545 7.91177 5.91177 7.54545 6.36364 7.54545ZM9.63636 10.2727C8.88445 10.2727 8.27273 10.8845 8.27273 11.6364C8.27273 12.3883 8.88445 13 9.63636 13C10.3883 13 11 12.3883 11 11.6364C11 10.8845 10.3883 10.2727 9.63636 10.2727ZM9.63636 12.4545C9.18449 12.4545 8.81818 12.0882 8.81818 11.6364C8.81818 11.1845 9.18449 10.8182 9.63636 10.8182C10.0882 10.8182 10.4545 11.1845 10.4545 11.6364C10.4545 12.0882 10.0882 12.4545 9.63636 12.4545ZM5.75955 12.1905L9.82727 7.45355L10.241 7.80891L6.17327 12.5462L5.75955 12.1905Z" fill="white" fill-opacity="0.3"/><path fill-rule="evenodd" clip-rule="evenodd" d="M9.77211 16C11.5548 16 13 14.5548 13 12.7721V9.5C13 5.91015 10.0899 3 6.5 3H7.5C11.0899 3 14 5.91015 14 9.5V12.7721C14 14.5548 12.5548 16 10.7721 16H9.77211Z" fill="white" fill-opacity="0.3"/><path fill-rule="evenodd" clip-rule="evenodd" d="M5.59961 1.61637L6.77688 3.5H9.22263L10.068 2.14736C9.72194 2.14967 9.4107 2.13255 9.13367 2.09561C9.0134 2.07958 8.8939 2.05417 8.76839 2.01929C8.65905 1.98891 8.55008 1.95302 8.41095 1.90309C8.37142 1.8889 8.13817 1.80335 8.06921 1.77888C7.53039 1.58764 7.10101 1.5 6.49976 1.5C6.08743 1.5 5.78584 1.54187 5.60491 1.61424C5.60311 1.61496 5.60135 1.61567 5.59961 1.61637Z" stroke="white"/></svg>