<svg xmlns="http://www.w3.org/2000/svg" width="12" height="12" viewBox="0 0 12 12"><g fill="none" fill-rule="evenodd"><rect width="12" height="12"/><g fill="#FFF" fill-rule="nonzero" transform="translate(3 2)"><path d="M2.78571429,2 C1.24720677,2 0,3.34314575 0,5 L0,7.0027594 C0,7.55352018 0.414588405,8 0.926009126,8 L5.07399087,8 C5.5854116,8 6,7.55352018 6,7.0027594 L6,5 C6,3.34314575 4.75279323,2 3.21428571,2 L2.78571429,2 Z"/><path d="M1.16707232,0.445292822 L1.31064945,0.270269914 C1.46534793,0.081689903 1.70793207,0.025 2.1,0.025 C2.4854668,0.025 2.77995992,0.105401075 3.15073161,0.300353125 C3.19284679,0.322778556 3.19284679,0.322778556 3.25307428,0.3552936 C3.32331304,0.393275399 3.32331304,0.393275399 3.35681586,0.41131019 C3.43726288,0.454084417 3.49427103,0.481598481 3.54923888,0.504228424 C3.61245373,0.530253604 3.66923245,0.547860117 3.72438644,0.558754733 C3.86434993,0.586401844 4.0234939,0.600527117 4.20238035,0.600616959 L4.76728062,0.60090067 L3.90633247,2.64166666 L2.09366753,2.64166666 L1.16707232,0.445292822 Z M2.59127167,1.89166666 L3.40872833,1.89166666 L3.65481881,1.30834107 C3.62926493,1.30406876 3.60400833,1.29946825 3.57904661,1.29453754 C3.47380619,1.2737493 3.37049505,1.24171355 3.26371839,1.19775423 C3.18333931,1.16466264 3.10518005,1.12694033 3.00471351,1.07352159 C2.96594871,1.0526659 2.96594871,1.0526659 2.89712729,1.01544671 C2.83696932,0.982975692 2.83696932,0.982975692 2.80168952,0.964182634 C2.54068333,0.826945372 2.36638622,0.777614931 2.12022094,0.775101972 L2.59127167,1.89166666 Z"/></g></g></svg>