<svg width="24" height="24" viewBox="0 0 24 24" fill="none" xmlns="http://www.w3.org/2000/svg"><rect width="24" height="24" fill="none"/><path fill-rule="evenodd" clip-rule="evenodd" d="M11.5 5.5C6.52944 5.5 2.5 9.52944 2.5 14.5V19.644C2.5 21.7736 4.22639 23.5 6.356 23.5H17.644C19.7736 23.5 21.5 21.7736 21.5 19.644V14.5C21.5 9.52944 17.4706 5.5 12.5 5.5H11.5Z" stroke="white"/><path d="M9.81818 14.6364C10.8207 14.6364 11.6364 13.8207 11.6364 12.8182C11.6364 11.8156 10.8207 11 9.81818 11C8.81564 11 8 11.8156 8 12.8182C8 13.8207 8.81564 14.6364 9.81818 14.6364ZM9.81818 11.7273C10.4207 11.7273 10.9091 12.2157 10.9091 12.8182C10.9091 13.4207 10.4207 13.9091 9.81818 13.9091C9.21569 13.9091 8.72727 13.4207 8.72727 12.8182C8.72727 12.2157 9.21569 11.7273 9.81818 11.7273ZM14.1818 15.3636C13.1793 15.3636 12.3636 16.1793 12.3636 17.1818C12.3636 18.1844 13.1793 19 14.1818 19C15.1844 19 16 18.1844 16 17.1818C16 16.1793 15.1844 15.3636 14.1818 15.3636ZM14.1818 18.2727C13.5793 18.2727 13.0909 17.7843 13.0909 17.1818C13.0909 16.5793 13.5793 16.0909 14.1818 16.0909C14.7843 16.0909 15.2727 16.5793 15.2727 17.1818C15.2727 17.7843 14.7843 18.2727 14.1818 18.2727ZM9.01273 17.9207L14.4364 11.6047L14.988 12.0785L9.56436 18.3949L9.01273 17.9207Z" fill="white" fill-opacity="0.3"/><path fill-rule="evenodd" clip-rule="evenodd" d="M14.644 23.9474C17.0498 23.9474 19 21.9971 19 19.5914V14.4737C19 9.57025 15.2747 5.53691 10.5 5.04943C10.8201 5.01674 11.1449 5 11.4737 5H12.5263C17.7585 5 22 9.24151 22 14.4737V19.5914C22 21.9971 20.0498 23.9474 17.644 23.9474H14.644Z" fill="white" fill-opacity="0.3"/><path fill-rule="evenodd" clip-rule="evenodd" d="M7.55078 1.93779L9.77716 5.5H14.2229L16.0583 2.56337C15.2438 2.59818 14.5362 2.57591 13.934 2.49561C13.7497 2.47105 13.5654 2.43187 13.3703 2.37766C13.1973 2.32958 13.0228 2.27211 12.798 2.19141C12.7338 2.16837 12.3443 2.02551 12.2273 1.98399C11.296 1.65348 10.5441 1.5 9.50004 1.5C8.34852 1.5 7.73387 1.67986 7.55078 1.93779Z" stroke="white"/></svg>