<svg height="24" viewBox="0 0 24 24" width="24" xmlns="http://www.w3.org/2000/svg"><g fill="none" fill-rule="evenodd"><path d="m0 0h24v24h-24z"/><path d="m11.5 5.5c-4.97056275 0-9 4.02943725-9 9v5.144c0 2.12961 1.72639 3.856 3.856 3.856h11.288c2.12961 0 3.856-1.72639 3.856-3.856v-5.144c0-4.97056275-4.0294373-9-9-9z" stroke="#0b1f35"/><path d="m9.81818182 14.6363636c1.00254548 0 1.81818178-.8156363 1.81818178-1.8181818 0-1.0025454-.8156363-1.8181818-1.81818178-1.8181818-1.00254546 0-1.81818182.8156364-1.81818182 1.8181818 0 1.0025455.81563636 1.8181818 1.81818182 1.8181818zm0-2.9090909c.60249248 0 1.09090908.4884167 1.09090908 1.0909091 0 .6024925-.4884166 1.0909091-1.09090908 1.0909091-.60249246 0-1.09090909-.4884166-1.09090909-1.0909091 0-.6024924.48841663-1.0909091 1.09090909-1.0909091zm4.36363638 3.6363637c-1.0025455 0-1.8181818.8156363-1.8181818 1.8181818 0 1.0025454.8156363 1.8181818 1.8181818 1.8181818 1.0025454 0 1.8181818-.8156364 1.8181818-1.8181818 0-1.0025455-.8156364-1.8181818-1.8181818-1.8181818zm0 2.9090909c-.6024925 0-1.0909091-.4884167-1.0909091-1.0909091 0-.6024925.4884166-1.0909091 1.0909091-1.0909091.6024924 0 1.0909091.4884166 1.0909091 1.0909091 0 .6024924-.4884167 1.0909091-1.0909091 1.0909091zm-5.16909093-.352 5.42363633-6.316.5516364.4738182-5.42363636 6.3163636z" fill="#0b1f35" fill-rule="nonzero" opacity=".3"/><path d="m14.644 23.9473684c2.4057524 0 4.356-1.9502476 4.356-4.356v-5.1176842c0-4.9034303-3.7252626-8.93677891-8.5-9.42425791.320113-.03268208.6449432-.04942629.9736842-.04942629h1.0526316c5.2321713 0 9.4736842 4.2415129 9.4736842 9.4736842v5.1176842c0 2.4057524-1.9502476 4.356-4.356 4.356z" fill="#0b1f35" opacity=".3"/><path d="m7.55074286 1.93779046 2.22638096 3.56220954h4.44575238l1.8353951-2.9366322c-.8145309.03481502-1.5221303.01254253-2.1243532-.06775385-.184263-.0245684-.3685443-.06374669-.5636071-.11795338-.1730128-.04807912-.3475304-.10555322-.5723792-.18625192-.0642038-.02304289-.4537133-.16589727-.570689-.20741375-.9312591-.33051831-1.683161-.4839949-2.7272428-.4839949-1.15152128 0-1.76616757.17985646-1.94925714.43779046z" stroke="#0b1f35"/></g></svg>