<svg xmlns="http://www.w3.org/2000/svg" width="36" height="36" viewBox="0 0 36 36"><g fill="none" fill-rule="evenodd"><polygon points="0 0 36 0 36 36 0 36"/><path stroke="#0B1F35" d="M17,8.5 C9.54415588,8.5 3.5,14.5441559 3.5,22 L3.5,29.49504 C3.5,32.8114878 6.18851217,35.5 9.50496,35.5 L26.49504,35.5 C29.8114878,35.5 32.5,32.8114878 32.5,29.49504 L32.5,22 C32.5,14.5441559 26.4558441,8.5 19,8.5 L17,8.5 Z"/><path fill="#0B1F35" fill-rule="nonzero" d="M14.7272727,22.4545455 C16.2310909,22.4545455 17.4545455,21.2310909 17.4545455,19.7272727 C17.4545455,18.2234545 16.2310909,17 14.7272727,17 C13.2234545,17 12,18.2234545 12,19.7272727 C12,21.2310909 13.2234545,22.4545455 14.7272727,22.4545455 Z M14.7272727,18.0909091 C15.6310114,18.0909091 16.3636364,18.823534 16.3636364,19.7272727 C16.3636364,20.6310114 15.6310114,21.3636364 14.7272727,21.3636364 C13.823534,21.3636364 13.0909091,20.6310114 13.0909091,19.7272727 C13.0909091,18.823534 13.823534,18.0909091 14.7272727,18.0909091 Z M21.2727273,23.5454545 C19.7689091,23.5454545 18.5454545,24.7689091 18.5454545,26.2727273 C18.5454545,27.7765455 19.7689091,29 21.2727273,29 C22.7765455,29 24,27.7765455 24,26.2727273 C24,24.7689091 22.7765455,23.5454545 21.2727273,23.5454545 Z M21.2727273,27.9090909 C20.3689886,27.9090909 19.6363636,27.176466 19.6363636,26.2727273 C19.6363636,25.3689886 20.3689886,24.6363636 21.2727273,24.6363636 C22.176466,24.6363636 22.9090909,25.3689886 22.9090909,26.2727273 C22.9090909,27.176466 22.176466,27.9090909 21.2727273,27.9090909 Z M13.5190909,27.3810909 L21.6545455,17.9070909 L22.482,18.6178182 L14.3465455,28.0923636 L13.5190909,27.3810909 Z" opacity=".3"/><path fill="#0B1F35" d="M23.183918,36 C26.7390854,36 29.621118,33.1179674 29.621118,29.5628 L29.621118,22 C29.621118,14.733291 24.0847712,8.75966505 17,8.06704471 C17.4536282,8.02269718 17.9136045,8 18.378882,8 L19,8 C26.7319865,8 33,14.2680135 33,22 L33,29.5628 C33,33.1179674 30.1179674,36 26.5628,36 L23.183918,36 Z" opacity=".3"/><path stroke="#0B1F35" d="M15.2771238,8.5 L20.7228762,8.5 L23.0558662,4.76721602 C22.0034243,4.82081374 21.096733,4.7973226 20.3339181,4.69561395 C20.1176603,4.66677957 19.9009897,4.62071533 19.6711479,4.55684377 C19.4662989,4.49991757 19.2590077,4.43165009 18.9912986,4.33556875 C18.914759,4.30809853 18.4471216,4.13659036 18.3061388,4.08655339 C17.1786569,3.68639255 16.2654954,3.5 15,3.5 C13.5252824,3.5 12.7457452,3.74670115 12.5434606,4.1261389 L15.2771238,8.5 Z"/></g></svg>