<svg xmlns="http://www.w3.org/2000/svg" width="16" height="16" viewBox="0 0 16 16"><g fill="none" fill-rule="evenodd"><polygon points="0 0 16 0 16 16 0 16"/><path stroke="#0B1F35" d="M7.5,3.5 C4.1862915,3.5 1.5,6.1862915 1.5,9.5 L1.5,12.9508 C1.5,14.3586843 2.64131572,15.5 4.0492,15.5 L11.9508,15.5 C13.3586843,15.5 14.5,14.3586843 14.5,12.9508 L14.5,9.5 C14.5,6.1862915 11.8137085,3.5 8.5,3.5 L7.5,3.5 Z"/><path fill="#0B1F35" fill-rule="nonzero" d="M6.36363636,9.72727273 C7.11554545,9.72727273 7.72727273,9.11554545 7.72727273,8.36363636 C7.72727273,7.61172727 7.11554545,7 6.36363636,7 C5.61172727,7 5,7.61172727 5,8.36363636 C5,9.11554545 5.61172727,9.72727273 6.36363636,9.72727273 Z M6.36363636,7.54545455 C6.8155057,7.54545455 7.18181818,7.91176702 7.18181818,8.36363636 C7.18181818,8.8155057 6.8155057,9.18181818 6.36363636,9.18181818 C5.91176702,9.18181818 5.54545455,8.8155057 5.54545455,8.36363636 C5.54545455,7.91176702 5.91176702,7.54545455 6.36363636,7.54545455 Z M9.63636364,10.2727273 C8.88445455,10.2727273 8.27272727,10.8844545 8.27272727,11.6363636 C8.27272727,12.3882727 8.88445455,13 9.63636364,13 C10.3882727,13 11,12.3882727 11,11.6363636 C11,10.8844545 10.3882727,10.2727273 9.63636364,10.2727273 Z M9.63636364,12.4545455 C9.1844943,12.4545455 8.81818182,12.088233 8.81818182,11.6363636 C8.81818182,11.1844943 9.1844943,10.8181818 9.63636364,10.8181818 C10.088233,10.8181818 10.4545455,11.1844943 10.4545455,11.6363636 C10.4545455,12.088233 10.088233,12.4545455 9.63636364,12.4545455 Z M5.75954545,12.1905455 L9.82727273,7.45354545 L10.241,7.80890909 L6.17327273,12.5461818 L5.75954545,12.1905455 Z" opacity=".3"/><path fill="#0B1F35" d="M9.77211342,16 C11.554826,16 13,14.554826 13,12.7721134 L13,9.5 C13,5.91014913 10.0898509,3 6.5,3 L7.5,3 C11.0898509,3 14,5.91014913 14,9.5 L14,12.7721134 C14,14.554826 12.554826,16 10.7721134,16 L9.77211342,16 Z" opacity=".3"/><path stroke="#0B1F35" d="M5.59985296,1.61636662 L6.77712382,3.5 L9.22287618,3.5 L10.0682792,2.14735515 C9.72218827,2.14967041 9.41094672,2.13255109 9.13391814,2.09561395 C9.01364483,2.07957751 8.89414188,2.05417114 8.7686371,2.01929418 C8.65929675,1.9889092 8.55032644,1.95302187 8.41119819,1.90308845 C8.37166586,1.88890021 8.13841235,1.80335343 8.06945086,1.77887792 C7.53063742,1.58764467 7.10125473,1.5 6.5,1.5 C6.08767615,1.5 5.78607905,1.54186741 5.60515172,1.61423835 C5.60335672,1.61495634 5.60159062,1.61566573 5.59985296,1.61636662 Z"/></g></svg>