<svg width="36" height="36" viewBox="0 0 36 36" fill="none" xmlns="http://www.w3.org/2000/svg"><rect width="36" height="36" fill="none"/><path fill-rule="evenodd" clip-rule="evenodd" d="M17 8.5C9.54416 8.5 3.5 14.5442 3.5 22V29.495C3.5 32.8115 6.18851 35.5 9.50496 35.5H26.495C29.8115 35.5 32.5 32.8115 32.5 29.495V22C32.5 14.5442 26.4558 8.5 19 8.5H17Z" stroke="white"/><path d="M14.7273 22.4545C16.2311 22.4545 17.4545 21.2311 17.4545 19.7273C17.4545 18.2235 16.2311 17 14.7273 17C13.2235 17 12 18.2235 12 19.7273C12 21.2311 13.2235 22.4545 14.7273 22.4545ZM14.7273 18.0909C15.631 18.0909 16.3636 18.8235 16.3636 19.7273C16.3636 20.631 15.631 21.3636 14.7273 21.3636C13.8235 21.3636 13.0909 20.631 13.0909 19.7273C13.0909 18.8235 13.8235 18.0909 14.7273 18.0909ZM21.2727 23.5455C19.7689 23.5455 18.5455 24.7689 18.5455 26.2727C18.5455 27.7765 19.7689 29 21.2727 29C22.7765 29 24 27.7765 24 26.2727C24 24.7689 22.7765 23.5455 21.2727 23.5455ZM21.2727 27.9091C20.369 27.9091 19.6364 27.1765 19.6364 26.2727C19.6364 25.369 20.369 24.6364 21.2727 24.6364C22.1765 24.6364 22.9091 25.369 22.9091 26.2727C22.9091 27.1765 22.1765 27.9091 21.2727 27.9091ZM13.5191 27.3811L21.6545 17.9071L22.482 18.6178L14.3465 28.0924L13.5191 27.3811Z" fill="white" fill-opacity="0.3"/><path fill-rule="evenodd" clip-rule="evenodd" d="M23.1839 36C26.7391 36 29.6211 33.118 29.6211 29.5628V22C29.6211 14.7333 24.0848 8.75966 17 8.06704C17.4536 8.0227 17.9136 8 18.3789 8H19C26.732 8 33 14.268 33 22V29.5628C33 33.118 30.118 36 26.5628 36H23.1839Z" fill="white" fill-opacity="0.3"/><path fill-rule="evenodd" clip-rule="evenodd" d="M15.2776 8.5H20.7234L23.0564 4.76722C22.0039 4.82081 21.0972 4.79732 20.3344 4.69561C20.1181 4.66678 19.9015 4.62072 19.6716 4.55684C19.4668 4.49992 19.2595 4.43165 18.9918 4.33557C18.9152 4.3081 18.4476 4.13659 18.3066 4.08655C17.1791 3.68639 16.266 3.5 15.0005 3.5C13.5258 3.5 12.7462 3.7467 12.5439 4.12614L15.2776 8.5Z" stroke="white"/></svg>