<svg xmlns="http://www.w3.org/2000/svg" width="36" height="36" viewBox="0 0 36 36"><g fill="none" fill-rule="evenodd"><path d="M0 0h36v36H0z"/><path stroke="#0B1F35" d="M17 8.5C9.544 8.5 3.5 14.544 3.5 22v7.495A6.005 6.005 0 0 0 9.505 35.5h16.99a6.005 6.005 0 0 0 6.005-6.005V22c0-7.456-6.044-13.5-13.5-13.5h-2z"/><path fill="#0B1F35" fill-rule="nonzero" d="M14.727 22.455a2.73 2.73 0 0 0 2.728-2.728A2.73 2.73 0 0 0 14.727 17 2.73 2.73 0 0 0 12 19.727a2.73 2.73 0 0 0 2.727 2.728zm0-4.364a1.636 1.636 0 1 1 0 3.273 1.636 1.636 0 0 1 0-3.273zm6.546 5.454a2.73 2.73 0 0 0-2.728 2.728A2.73 2.73 0 0 0 21.273 29 2.73 2.73 0 0 0 24 26.273a2.73 2.73 0 0 0-2.727-2.728zm0 4.364a1.636 1.636 0 1 1 0-3.273 1.636 1.636 0 0 1 0 3.273zm-7.754-.528l8.136-9.474.827.71-8.135 9.475-.828-.71z" opacity=".3"/><path fill="#0B1F35" d="M23.184 36a6.437 6.437 0 0 0 6.437-6.437V22c0-7.267-5.536-13.24-12.621-13.933.454-.044.914-.067 1.379-.067H19c7.732 0 14 6.268 14 14v7.563A6.437 6.437 0 0 1 26.563 36h-3.38z" opacity=".3"/><path stroke="#0B1F35" d="M15.277 8.5h5.446l2.333-3.733c-1.053.054-1.96.03-2.722-.071a4.854 4.854 0 0 1-.663-.14 9.533 9.533 0 0 1-.68-.22c-.076-.028-.544-.2-.685-.25-1.127-.4-2.04-.586-3.306-.586-1.475 0-2.254.247-2.457.626L15.277 8.5z"/></g></svg>