<svg height="24" viewBox="0 0 24 24" width="24" xmlns="http://www.w3.org/2000/svg"><g fill="none" fill-rule="evenodd"><path d="M0 0h24v24H0z"/><path d="M11.5 5.5a9 9 0 0 0-9 9v5.144A3.856 3.856 0 0 0 6.356 23.5h11.288a3.856 3.856 0 0 0 3.856-3.856V14.5a9 9 0 0 0-9-9z" stroke="#0b1f35"/><path d="M9.818 14.636a1.82 1.82 0 0 0 1.818-1.818A1.82 1.82 0 0 0 9.818 11 1.82 1.82 0 0 0 8 12.818a1.82 1.82 0 0 0 1.818 1.818zm0-2.909a1.09 1.09 0 1 1 0 2.182 1.09 1.09 0 0 1 0-2.182zm4.364 3.637a1.82 1.82 0 0 0-1.818 1.818A1.82 1.82 0 0 0 14.182 19 1.82 1.82 0 0 0 16 17.182a1.82 1.82 0 0 0-1.818-1.818zm0 2.909a1.09 1.09 0 1 1 0-2.182 1.09 1.09 0 0 1 0 2.182zm-5.17-.352l5.424-6.316.552.474-5.424 6.316z" fill="#0b1f35" fill-rule="nonzero" opacity=".3"/><path d="M14.644 23.947A4.356 4.356 0 0 0 19 19.591v-5.117c0-4.904-3.725-8.937-8.5-9.425.32-.032.645-.049.974-.049h1.052A9.474 9.474 0 0 1 22 14.474v5.117a4.356 4.356 0 0 1-4.356 4.356z" fill="#0b1f35" opacity=".3"/><path d="M7.55 1.938L9.778 5.5h4.446l1.835-2.937c-.814.035-1.522.013-2.124-.067a4.127 4.127 0 0 1-.564-.118 8.021 8.021 0 0 1-.572-.187l-.57-.207c-.932-.33-1.684-.484-2.728-.484-1.152 0-1.766.18-1.95.438z" stroke="#0b1f35"/></g></svg>