<svg width="36" height="36" viewBox="0 0 36 36" xmlns="http://www.w3.org/2000/svg"><g fill="none" fill-rule="evenodd"><path d="M0 0h36v36H0z"/><path d="M4.848 20.009h6v3h-6v-3zm-2.866-9.003h32v3.972L2.001 15l-.019-3.994z" fill="#FFF" fill-rule="nonzero" opacity=".3"/><path d="M34 15.012V7.286C34 5.47 32.445 4 30.526 4H4.474C2.555 4 1 5.471 1 7.286v16.428C1 25.53 2.555 27 4.474 27H21.81v-1H4.474C3.095 26 2 24.964 2 23.714V7.286C2 6.036 3.095 5 4.474 5h26.052C31.905 5 33 6.036 33 7.286v7.726h1zm0-7.726C34 5.47 32.445 4 30.526 4H4.474C2.555 4 1 5.471 1 7.286v16.428C1 25.53 2.555 27 4.474 27H21.81v-1H4.474C3.095 26 2 24.964 2 23.714V7.286C2 6.036 3.095 5 4.474 5h26.052C31.905 5 33 6.036 33 7.286v7.726h1V7.286z" fill="#FFF" fill-rule="nonzero"/><path fill="#FFF" d="M30 29v-5h5v-1h-5v-5h-1v5h-5v1h5v5z"/></g></svg>