<svg width="48" height="48" viewBox="0 0 48 48" xmlns="http://www.w3.org/2000/svg"><g fill="none" fill-rule="evenodd"><path d="M24 48h24V0H0v48z"/><path d="M10.5 10h26a4.505 4.505 0 0 1 4.5 4.5V22h-1v-7.5c0-1.93-1.57-3.5-3.5-3.5h-26C8.57 11 7 12.57 7 14.5v16c0 1.93 1.57 3.5 3.5 3.5H28v1H10.5A4.505 4.505 0 0 1 6 30.5v-16c0-2.481 2.019-4.5 4.5-4.5z" fill="#FFF" fill-rule="nonzero"/><path fill="#FFF" fill-rule="nonzero" opacity=".3" d="M7 18h34v4H7z"/><path fill="#FFF" d="M38 37v-5h5v-1h-5v-5h-1v5h-5v1h5v5z"/><path fill="#FFF" fill-rule="nonzero" opacity=".3" d="M10 27h6v3h-6z"/></g></svg>