<svg width="24" height="24" viewBox="0 0 24 24" xmlns="http://www.w3.org/2000/svg"><g fill="none" fill-rule="evenodd"><path d="M0 0h24v24H0z"/><path d="M5 14h4v2H5v-2zM2 8h20v3H2V8z" fill="#FFF" fill-rule="nonzero" opacity=".3"/><path d="M23 11.001h-1V5.43C22 4.629 21.4 4 20.684 4H3.316C2.6 4 2 4.63 2 5.429V17.57c0 .8.6 1.429 1.316 1.429h10.683v1H3.316C2.036 20 1 18.913 1 17.571V5.43C1 4.087 2.037 3 3.316 3h17.368C21.964 3 23 4.087 23 5.429V11z" fill="#FFF" fill-rule="nonzero"/><path fill="#FFF" d="M21 21v-3h3v-1h-3v-3h-1v3h-3v1h3v3z"/></g></svg>