<svg width="30" height="30" viewBox="0 0 30 30" xmlns="http://www.w3.org/2000/svg"><g fill="none" fill-rule="evenodd"><path d="M0 0h30v30H0z"/><path d="M6 19h5v2H6v-2zm-4-8h25v4H2v-4z" fill="#FFF" fill-rule="nonzero" opacity=".3"/><path d="M28 15V7.857A2.85 2.85 0 0 0 25.158 5H3.842A2.85 2.85 0 0 0 1 7.857v14.286A2.85 2.85 0 0 0 3.842 25h14.185v-1H3.842A1.85 1.85 0 0 1 2 22.143V7.857A1.85 1.85 0 0 1 3.842 6h21.316A1.85 1.85 0 0 1 27 7.857V15h1z" fill="#FFF" fill-rule="nonzero"/><path fill="#FFF" d="M25 18h1v9h-1z"/><path fill="#FFF" d="M30 22v1h-9v-1z"/></g></svg>