<svg width="48px" height="48px" viewBox="0 0 48 48" version="1.1" xmlns="http://www.w3.org/2000/svg"><g transform="translate(-258.000000, -23.000000) translate(258.000000, 23.000000)" stroke="none" stroke-width="1" fill="none" fill-rule="evenodd"><polygon points="23.9998 48 47.9996 48 47.9996 0 23.9998 0 0 0 0 48"/><path d="M36.5,35 L10.5,35 C8.01586091,34.9972444 6.00275556,32.9841391 6,30.5 L6,23 L7,23 L7,30.5 C7,32.43 8.57,34 10.5,34 L36.5,34 C38.43,34 40,32.43 40,30.5 L40,14.5 C40,12.57 38.43,11 36.5,11 L19,11 L19,10 L36.5,10 C38.981,10 41,12.019 41,14.5 L41,30.5 C41,32.981 38.981,35 36.5,35 Z" fill="#0B1F35" fill-rule="nonzero" transform="translate(23.500000, 22.500000) scale(-1, -1) translate(-23.500000, -22.500000) "/><polygon fill="#0B1F35" fill-rule="nonzero" opacity="0.3" points="7 18 41 18 41 22 7 22"/><polygon fill="#0B1F35" points="38 37 38 32 43 32 43 31 38 31 38 26 37 26 37 31 32 31 32 32 37 32 37 37"/><polygon fill="#0B1F35" fill-rule="nonzero" opacity="0.3" points="10 27 16 27 16 30 10 30"/></g></svg>