<svg width="24px" height="24px" viewBox="0 0 24 24" version="1.1" xmlns="http://www.w3.org/2000/svg"><g transform="translate(-76.000000, -35.000000) translate(76.000000, 35.000000)" stroke="none" stroke-width="1" fill="none" fill-rule="evenodd"><polygon points="0 0 24 0 24 24 0 24"/><path d="M5,14 L9,14 L9,16 L5,16 L5,14 Z M2,8 L22,8 L22,11 L2,11 L2,8 Z" fill="#0B1F35" fill-rule="nonzero" opacity="0.3"/><path d="M23,11.0013275 L22,11.0013275 L22,5.42857143 C22,4.62923673 21.3999848,4 20.6842105,4 L3.31578947,4 C2.60001521,4 2,4.62923673 2,5.42857143 L2,17.5714286 C2,18.3707633 2.60001521,19 3.31578947,19 L13.9989941,19 L13.9989941,20 L3.31578947,20 C2.03681426,20 1,18.9126915 1,17.5714286 L1,5.42857143 C1,4.08730846 2.03681426,3 3.31578947,3 L20.6842105,3 C21.9631857,3 23,4.08730846 23,5.42857143 L23,11.0013275 Z" fill="#0B1F35" fill-rule="nonzero"/><polygon fill="#0B1F35" points="21 21 21 18 24 18 24 17 21 17 21 14 20 14 20 17 17 17 17 18 20 18 20 21"/><path d="M23,11.0013275 L22,11.0013275 L22,5.42857143 C22,4.62923673 21.3999848,4 20.6842105,4 L3.31578947,4 C2.60001521,4 2,4.62923673 2,5.42857143 L2,17.5714286 C2,18.3707633 2.60001521,19 3.31578947,19 L13.9989941,19 L13.9989941,20 L3.31578947,20 C2.03681426,20 1,18.9126915 1,17.5714286 L1,5.42857143 C1,4.08730846 2.03681426,3 3.31578947,3 L20.6842105,3 C21.9631857,3 23,4.08730846 23,5.42857143 L23,11.0013275 Z" fill="#0B1F35" fill-rule="nonzero"/></g></svg>