<svg width="36" height="36" viewBox="0 0 36 36" xmlns="http://www.w3.org/2000/svg"><g fill="none" fill-rule="evenodd"><path d="M0 0h36v36H0z"/><path d="M4.848 21.009h6v3h-6v-3zm-2.866-9.003h32v3.972L2.001 16l-.019-3.994z" fill="#0B1F35" fill-rule="nonzero" opacity=".3"/><path d="M34 16.012V8.286C34 6.47 32.445 5 30.526 5H4.474C2.555 5 1 6.471 1 8.286v16.428C1 26.53 2.555 28 4.474 28H21.81v-1H4.474C3.095 27 2 25.964 2 24.714V8.286C2 7.036 3.095 6 4.474 6h26.052C31.905 6 33 7.036 33 8.286v7.726h1zm0-7.726C34 6.47 32.445 5 30.526 5H4.474C2.555 5 1 6.471 1 8.286v16.428C1 26.53 2.555 28 4.474 28H21.81v-1H4.474C3.095 27 2 25.964 2 24.714V8.286C2 7.036 3.095 6 4.474 6h26.052C31.905 6 33 7.036 33 8.286v7.726h1V8.286z" fill="#0B1F35" fill-rule="nonzero"/><path fill="#0B1F35" d="M30 30v-5h5v-1h-5v-5h-1v5h-5v1h5v5z"/></g></svg>