<svg width="18" height="18" viewBox="0 0 18 18" xmlns="http://www.w3.org/2000/svg"><g fill="none" fill-rule="evenodd"><path d="M0 0h18v18H0z"/><path d="M3 10h3v2H3v-2zM0 6h17v2H0V6z" fill="#FFF" fill-rule="nonzero" opacity=".3"/><path d="M17 8.037h-.773v-4.18c0-.611-.463-1.092-1.016-1.092H1.789c-.553 0-1.016.48-1.016 1.092v9.286c0 .611.463 1.092 1.016 1.092h8.256V15H1.789C.801 15 0 14.169 0 13.143V3.857C0 2.831.801 2 1.79 2h13.42C16.2 2 17 2.831 17 3.857v4.18z" fill="#FFF" fill-rule="nonzero"/><path fill="#FFF" d="M15.857 16v-2.143H18v-.714h-2.143V11h-.714v2.143H13v.714h2.143V16z"/></g></svg>