<svg xmlns="http://www.w3.org/2000/svg" width="36" height="36" viewBox="0 0 36 36" fill="none"><rect width="36" height="36" fill="none"/><path fill-rule="evenodd" clip-rule="evenodd" d="M10 15H25V18H10V15ZM10 9H19V12H10V9Z" fill="#0B1F35" fill-opacity="0.3"/><path fill-rule="evenodd" clip-rule="evenodd" d="M28.2 34.1H7.8C6.3 34.1 5 32.8 5 31.3V3.8C5 2.3 6.3 1 7.8 1H23.1L31 8.9V31.3C31 32.9 29.7 34.1 28.2 34.1ZM7.8 2C6.8 2 6 2.8 6 3.8V31.3C6 32.3 6.8 33.1 7.8 33.1H28.2C29.2 33.1 30 32.3 30 31.3V9.3L22.6 2H7.8Z" fill="#0B1F35"/><path d="M12.5 27C13.8807 27 15 25.8807 15 24.5C15 23.1193 13.8807 22 12.5 22C11.1193 22 10 23.1193 10 24.5C10 25.8807 11.1193 27 12.5 27Z" fill="#0B1F35" fill-opacity="0.3"/></svg>