<svg width="48" height="48" viewBox="0 0 48 48" fill="none" xmlns="http://www.w3.org/2000/svg"><rect width="48" height="48" fill="none"/><path fill-rule="evenodd" clip-rule="evenodd" d="M13 21H33V25H13V21ZM13 13H25V17H13V13Z" fill="white" fill-opacity="0.3"/><path fill-rule="evenodd" clip-rule="evenodd" d="M37.5 46H9.5C7.6 46 6 44.4 6 42.5V5.5C6 3.6 7.6 2 9.5 2H30.7L41 12.3V42.5C41 44.4 39.4 46 37.5 46ZM9.5 3C8.1 3 7 4.1 7 5.5V42.5C7 43.9 8.1 45 9.5 45H37.5C38.9 45 40 43.9 40 42.5V12.7L30.3 3H9.5Z" fill="white"/><path d="M16.5 38C18.433 38 20 36.433 20 34.5C20 32.567 18.433 31 16.5 31C14.567 31 13 32.567 13 34.5C13 36.433 14.567 38 16.5 38Z" fill="white" fill-opacity="0.3"/></svg>