<?xml version="1.0" encoding="UTF-8"?>
<svg width="24px" height="24px" viewBox="0 0 24 24" version="1.1" xmlns="http://www.w3.org/2000/svg" xmlns:xlink="http://www.w3.org/1999/xlink">
    <!-- Generator: Sketch 48.2 (47327) - http://www.bohemiancoding.com/sketch -->
    <title>icon_mypayments_m_black</title>
    <desc>Created with Sketch.</desc>
    <defs></defs>
    <g id="New" stroke="none" stroke-width="1" fill="none" fill-rule="evenodd">
        <g id="icon_mypayments_m_black">
            <rect id="ph" x="0" y="0" width="24" height="24"></rect>
            <g id="art" transform="translate(2.000000, 0.000000)" fill="#0B1F35">
                <path d="M17,3 L18.0092049,3 C19.1086907,3 20,3.89821238 20,4.99079514 L20,15 L19,15 L19,4.99079514 C19,4.4475782 18.5534913,4 18.0092049,4 L17,4 L17,3 Z M3,3 L3,4 L1.99079514,4 C1.4475782,4 1,4.44650875 1,4.99079514 L1,21.0092049 C1,21.5524218 1.44650875,22 1.99079514,22 L12,22 L12,23 L1.99079514,23 C0.891309342,23 0,22.1017876 0,21.0092049 L0,4.99079514 C0,3.89130934 0.898212381,3 1.99079514,3 L3,3 Z M4,2 L7,2 C7,2 7.5,0 10,0 C12.5,0 13,2 13,2 L16,2 L16,7 L4,7 L4,2 Z M5,3 L5,6 L15,6 L15,3 L12.2192236,3 L12.0298575,2.24253563 C12.0027032,2.13391849 11.8946753,1.89822112 11.6849233,1.65850461 C11.3247151,1.24683812 10.8001841,1 10,1 C9.19981587,1 8.67528487,1.24683812 8.31507669,1.65850461 C8.10532474,1.89822112 7.99729678,2.13391849 7.9701425,2.24253563 L7.78077641,3 L5,3 Z" id="Combined-Shape" fill-rule="nonzero"></path>
                <polygon id="Shape" points="17 23 17 20 20 20 20 19 17 19 17 16 16 16 16 19 13 19 13 20 16 20 16 23"></polygon>
                <path d="M4,11 L16,11 L16,13 L4,13 L4,11 Z M4,15 L12,15 L12,17 L4,17 L4,15 Z" id="Combined-Shape" opacity="0.300000012"></path>
            </g>
        </g>
    </g>
</svg>