<svg width="36" height="36" viewBox="0 0 36 36" xmlns="http://www.w3.org/2000/svg"><g fill="none" fill-rule="evenodd"><path d="M0 0h36v36H0z"/><g fill="#FFF"><path d="M28 5h2.014C32 5 33 5.805 33 7.486V22.5h-1V7.206C32 6.538 31.553 6 30.748 6H28V5zM8 5v1H5c-.6 0-1 .42-1 1v24.011C4 33.026 5 34 7.011 34H21v1h1.462-15.45C4 35 3 32.863 3 31.011V7.5C3 5.85 3.861 5 5.5 5H8zm1-2h4.5s.75-3 4.5-3 4.5 3 4.5 3H27v7H9V3zm1.005.997V9H26V3.997h-4.01s-.567-3-3.99-3-3.952 3-3.952 3h-4.043z" fill-rule="nonzero"/><path d="M29 35v-4h4v-1h-4v-4h-1v4h-4v1h4v4z"/><path d="M9 16h18v3H9v-3zm0 6h12v3H9v-3z" opacity=".3"/></g></g></svg>