<svg width="48" height="48" viewBox="0 0 48 48" xmlns="http://www.w3.org/2000/svg"><g fill="none" fill-rule="evenodd"><path d="M0 0h48v48H0z"/><g fill="#FFF"><path d="M38 6h2.018A3.99 3.99 0 0 1 44 9.982V30h-1V9.982C43 8.647 42.006 7 40.018 7H38V6zM10 6v1H7.982C6.014 7 5 8.12 5 9.982v32.036C5 43.648 6.06 45 7.982 45H28v1H7.982A3.99 3.99 0 0 1 4 42.018V9.982A3.99 3.99 0 0 1 7.982 6H10zm2-2h6s1-4 6-4 6 4 6 4h6v10H12V4zm1 1v8h22V5h-5.562S28.043 1 24 1c-4.043 0-5.438 4-5.438 4H13z" fill-rule="nonzero"/><path d="M38 46v-6h6v-1h-6v-6h-1v6h-6v1h6v6z"/><path d="M12 22h24v4H12v-4zm0 8h16v4H12v-4z" opacity=".3"/></g></g></svg>