<?xml version="1.0" encoding="UTF-8"?>
<svg width="36px" height="36px" viewBox="0 0 36 36" version="1.1" xmlns="http://www.w3.org/2000/svg" xmlns:xlink="http://www.w3.org/1999/xlink">
    <!-- Generator: Sketch 48.2 (47327) - http://www.bohemiancoding.com/sketch -->
    <title>icon_mypayments_xl_white</title>
    <desc>Created with Sketch.</desc>
    <defs></defs>
    <g id="New" stroke="none" stroke-width="1" fill="none" fill-rule="evenodd">
        <g id="icon_mypayments_xl_white">
            <rect id="ph" x="0" y="0" width="36" height="36"></rect>
            <g id="art" transform="translate(3.000000, 0.000000)" fill="#FFFFFF">
                <path d="M25,5 L27.0138073,5 C29,5 30,5.80493164 30,7.4861927 L30,22.5 L29,22.5 L29,7.2064209 C29,6.53845215 28.5530396,6 27.7477417,6 L25,6 L25,5 Z M5,5 L5,6 L2,6 C1.40068054,6 1.00024414,6.41993713 1.00024414,7 L1.00024414,31.0109863 C1.00024414,33.0257568 2,34 4.01135254,34 L18,34 L18,35 L19.4615479,35 L4.01135254,35 C1.00024414,35 0,32.8634033 0,31.0109863 L0,7.5 C0,5.85077131 0.861125868,5 2.5,5 L5,5 Z M6,3 L10.5,3 C10.5,3 11.25,0 15,0 C18.75,0 19.5,3 19.5,3 L24,3 L24,10 L6,10 L6,3 Z M7.00488281,3.99743652 L7.00488281,9 L23,9 L23,3.99743652 L18.9903564,3.99743652 C18.9903564,3.99743652 18.4233398,0.997802734 15,0.997802734 C11.5766602,0.997802734 11.0479736,3.99743652 11.0479736,3.99743652 L7.00488281,3.99743652 Z" id="Combined-Shape" fill-rule="nonzero"></path>
                <polygon id="Shape" points="26 35 26 31 30 31 30 30 26 30 26 26 25 26 25 30 21 30 21 31 25 31 25 35"></polygon>
                <path d="M6,16 L24,16 L24,19 L6,19 L6,16 Z M6,22 L18,22 L18,25 L6,25 L6,22 Z" id="Combined-Shape" opacity="0.300000012"></path>
            </g>
        </g>
    </g>
</svg>