<svg width="24" height="24" viewBox="0 0 24 24" xmlns="http://www.w3.org/2000/svg"><g fill="none" fill-rule="evenodd"><path d="M0 0h24v24H0z"/><g fill="#0B1F35"><path d="M19 3h1.01C21.108 3 22 3.898 22 4.99V15h-1V4.99a.995.995 0 0 0-.99-.99H19V3zM5 3v1H3.99a.995.995 0 0 0-.99.99v16.02c0 .542.447.99.99.99H14v1H3.99C2.892 23 2 22.102 2 21.01V4.99C2 3.892 2.898 3 3.99 3H5zm1-1h3s.5-2 3-2 3 2 3 2h3v5H6V2zm1 1v3h10V3h-2.78l-.19-.757c-.027-.11-.135-.345-.345-.584C13.325 1.247 12.8 1 12 1s-1.325.247-1.685.659c-.21.24-.318.475-.345.584L9.78 3H7z" fill-rule="nonzero"/><path d="M19 23v-3h3v-1h-3v-3h-1v3h-3v1h3v3z"/><path d="M6 11h12v2H6v-2zm0 4h8v2H6v-2z" opacity=".3"/></g></g></svg>