<?xml version="1.0" encoding="UTF-8"?>
<svg width="24px" height="24px" viewBox="0 0 24 24" version="1.1" xmlns="http://www.w3.org/2000/svg" xmlns:xlink="http://www.w3.org/1999/xlink">
    <!-- Generator: Sketch 48.2 (47327) - http://www.bohemiancoding.com/sketch -->
    <title>icon_sign_m_black</title>
    <desc>Created with Sketch.</desc>
    <defs></defs>
    <g id="Artboard-Copy" stroke="none" stroke-width="1" fill="none" fill-rule="evenodd" transform="translate(-183.000000, -167.000000)">
        <g id="icon_sign_m_black" transform="translate(183.000000, 167.000000)">
            <polyline id="Shape" points="0 0 24 0 24 24 0 24"></polyline>
            <path d="M13.4,24 L13.683,24 L13.828,23.758 L19.428,14.458 C19.82,13.824 19.91,13.048 19.674,12.342 L16.974,4.34 L16.86,4 L12,4 L12,5 L16.5,5 L16.026,4.66 L18.726,12.66 C18.87,13.093 18.812,13.542 18.571,13.943 L12.971,23.243 L13.401,23 L12,23 L12,24 L13.4,24 Z M12,23 L10.6,23 L11.028,23.242 L5.428,13.942 C5.188,13.542 5.13,13.092 5.274,12.658 L7.974,4.66 L7.5,5 L12,5 L12,4 L7.14,4 L7.026,4.34 L4.326,12.34 C4.086,13.06 4.184,13.812 4.571,14.457 L10.171,23.757 L10.318,24 L12,24 L12,23 Z" id="Shape" fill="#0B1F35" fill-rule="nonzero"></path>
            <g id="Group" opacity="0.3" transform="translate(10.000000, 11.000000)" fill="#0B1F35" fill-rule="nonzero">
                <path d="M3,3.73243561 L3,12.5 L1,12.5 L1,3.73243561 C0.40219863,3.38662619 0,2.74028236 0,2 C0,0.8954305 0.8954305,0 2,0 C3.1045695,0 4,0.8954305 4,2 C4,2.74028236 3.59780137,3.38662619 3,3.73243561 Z" id="Combined-Shape"></path>
            </g>
            <polyline id="Shape" fill="#0B1F35" fill-rule="nonzero" opacity="0.3" points="6 0 18 0 18 2 6 2"></polyline>
        </g>
    </g>
</svg>