<svg xmlns="http://www.w3.org/2000/svg" width="30" height="30" version="1" viewBox="0 0 30 30"><path fill="#0B1F35" d="M2 14.291c0 .851.095 1.702.189 2.553.284 1.513.851 2.931 1.513 4.16.945 1.607 2.174 3.025 3.687 4.065 1.04.756 2.08 1.324 3.309 1.702.473.189 1.04.284 1.607.473a9.53 9.53 0 0 0 2.364.284h.756c.378 0 .851 0 1.324-.095 1.796-.189 3.593-.851 5.105-1.796 1.513-.945 2.836-2.175 3.782-3.593a13.969 13.969 0 0 0 2.175-5.011c0-.189.095-.473.095-.756.094-.568.094-1.23.094-1.797v-.378c0-.567-.095-1.04-.189-1.607-.189-1.418-.662-2.742-1.324-3.971l-16.64 9.644L2 13.629v.662z"/><path fill="#0B1F35" d="M2.284 11.549c0 .189-.095.284-.095.473l7.658 4.444 15.978-9.171c-.189-.284-.284-.473-.473-.662-.095-.095-.095-.189-.189-.284 0-.095-.095-.095-.095-.189L9.847 14.858l-7.28-4.255c-.094.284-.189.662-.283.946z"/><path fill="#0B1F35" d="M21.571 3.229a11.233 11.233 0 0 0-1.513-.756L9.847 8.335 5.309 5.687l-.851 1.135 5.389 3.12 11.724-6.713z"/><path fill="#0B1F35" d="M3.04 9.28l6.807 3.971L24.029 5.12c-.378-.378-.756-.662-1.135-.945L9.847 11.549 3.702 8.051c-.284.378-.473.851-.662 1.229z"/></svg>