<svg xmlns="http://www.w3.org/2000/svg" width="17" height="16" viewBox="0 0 17 16"><g fill="#FFF"><path d="M.235 6.497L4.5 8.858l10.227-5.66a7.653 7.653 0 0 0-.45-.557L4.5 7.972.386 5.73a7.214 7.214 0 0 0-.151.768z"/><path d="M.672 4.85L4.5 6.968l9.07-5.02a7.754 7.754 0 0 0-.781-.6L4.5 5.868l-3.429-1.87a7.27 7.27 0 0 0-.399.852z"/><path d="M11.844.8a8.251 8.251 0 0 0-.856-.36L4.5 3.98 2.038 2.635a7.864 7.864 0 0 0-.483.598L4.5 4.864 11.844.8zM4.5 9.861L.157 7.492V7.5c0 4.173 3.582 7.556 8 7.556s8-3.383 8-7.556c0-1.263-.332-2.45-.912-3.497L4.5 9.86z"/></g></svg>