<svg xmlns="http://www.w3.org/2000/svg" width="18" height="18" version="1" viewBox="0 0 18 18"><path fill="#04713D" d="M15.728 4.444a8.036 8.036 0 0 0-.45-.589L5.5 9.5 1.386 7.125a8.039 8.039 0 0 0-.151.813l4.265 2.5 10.228-5.994z"/><path fill="#04713D" d="M14.57 3.122a7.823 7.823 0 0 0-.781-.636L5.5 7.272l-3.429-1.98c-.152.29-.283.592-.399.902L5.5 8.437l9.07-5.315z"/><path fill="#04713D" d="M12.844 1.905a8.006 8.006 0 0 0-.856-.38L5.5 5.272 3.038 3.85a8.258 8.258 0 0 0-.483.633L5.5 6.209l7.344-4.304zm3.4 3.392L5.5 11.5 1.157 8.992V9a8 8 0 0 0 16 0 7.972 7.972 0 0 0-.913-3.703z"/></svg>