<svg xmlns="http://www.w3.org/2000/svg" width="36" height="36" viewBox="0 0 36 36"><path fill="none" d="M0 0h36v36H0z"/><path fill="#fff" d="M29.6 31c-1.63 0-2.29-1.35-2.93-2.66A8.82 8.82 0 0 0 25.19 26 11.34 11.34 0 0 0 18 23a11.34 11.34 0 0 0-7.19 3 8.82 8.82 0 0 0-1.48 2.35C8.7 29.65 8 31 6.4 31a2.71 2.71 0 0 1-1.93-1.31c-2.28-2.94-4.56-10.43-2.9-16.82C2.62 8.8 4.28 6.09 6.48 4.81a6.31 6.31 0 0 1 4.94-.55c1.39.38 2.33.73 3.09 1A8.44 8.44 0 0 0 18 6a8.44 8.44 0 0 0 3.48-.72c.76-.28 1.7-.62 3.09-1a6.3 6.3 0 0 1 4.94.55c2.21 1.27 3.86 4 4.92 8.05 1.66 6.39-.62 13.88-2.9 16.83A2.71 2.71 0 0 1 29.6 31zM18 22a12.25 12.25 0 0 1 7.91 3.3 9.74 9.74 0 0 1 1.66 2.61c.65 1.34 1.07 2.1 2 2.1a2 2 0 0 0 1.14-.92c2.16-2.79 4.3-9.88 2.73-16-1-3.8-2.48-6.3-4.45-7.43a5.27 5.27 0 0 0-4.18-.45c-1.35.38-2.27.71-3 1A9.46 9.46 0 0 1 18 7a9.46 9.46 0 0 1-3.83-.79c-.74-.27-1.66-.61-3-1A5.27 5.27 0 0 0 7 5.68c-2 1.14-3.48 3.64-4.46 7.44-1.57 6.08.57 13.18 2.73 16A2 2 0 0 0 6.4 30c1 0 1.38-.76 2-2.1a9.74 9.74 0 0 1 1.66-2.61A12.25 12.25 0 0 1 18 22z"/><circle cx="22.5" cy="14.5" r="1.5" fill="#fff" opacity=".3"/><circle cx="25.5" cy="11.5" r="1.5" fill="#fff" opacity=".3"/><circle cx="25.5" cy="17.5" r="1.5" fill="#fff" opacity=".3"/><circle cx="28.5" cy="14.5" r="1.5" fill="#fff" opacity=".3"/><circle cx="10.5" cy="14" r="3" fill="#fff" opacity=".3"/></svg>