<svg xmlns="http://www.w3.org/2000/svg" width="18" height="18" version="1" viewBox="0 0 18 18"><path fill="#0B1F35" d="M8.947 12.787s.373-.32.373-.853c0-.533-.48-.907-1.013-.96-.427-.053-1.173 0-1.387 0-.213 0-.533 0-.747-.267l.64-.107c.267-.053.8-.267 1.12-.267 0 0-.107-.16-.373-.16-.16 0-.213.053-.32.107-.16 0-.427.053-.587-.267 0 0 .213.16.427.107.16-.053.213-.107.267-.16.107-.053.213-.107.32-.107s.213 0 .32.107c.053.053.267.053.16-.053a.712.712 0 0 0-.534-.214c-.427 0-1.173.107-1.44.213-.16.053-.32.16-.373.267 0 .053-.053.053-.213.213 0-.267.107-.96.427-1.227.319-.319 1.226-.532 1.546-.586 0 0-.107-.213 0-.32.16-.16.64-.533 3.52-.533 0 0-.16.107-.213.213 0 0 1.12.053 1.76.373.106.054.32.054.373-.373l-.16-.107s0-.107.053-.16c.053-.053 0-.107-.053-.053-.107 0-.107.053-.107.053s-.16.053-.16-.053c0-.053-.16-.32-.533-.373 0 0 .16-.267.587-.213 0 0 0 .16.107.107.107 0 .213-.107.213 0s.053.267.267 0c0 0 .213.107.427.053s.373-.213.427-.533c0-.053 0-.107.053-.16.053-.053.107-.107 0-.213-.107-.107-.533-.32-.693-.427-.16-.107-.48-.213-.48-.853s-.213-1.013-1.013-1.707v.213s-.213-.267-.8-.427c0 0 .107-.267.107-.427s-.053-.267-.267-.213c-.213.053-.96.32-1.227.373-.215.054-1.975.64-2.988 1.654 0 0 .267-.64.747-1.28-.374.106-.694.266-1.067.426-.533.747-1.227 2.24-1.227 3.467 0 0-.32-1.067-.053-2.613-.373.32-.693.693-.96 1.066-.053.854-.053 2.027.64 3.68 0 0-.747-.533-1.387-2.293-.213.533-.32 1.12-.373 1.76.587 1.12 1.493 2.187 3.253 3.147 0 0-1.44-.213-3.093-1.44.107.693.373 1.28.747 1.867.907.427 2.293.907 4.267.8 0 0-1.067.587-3.253.427 0 0 .373.48 1.387.96.907.427 2.133.16 2.507-.107.48-.32 1.013-1.12.747-2.08-.002-.001-.215.373-.695.533zm3.04-7.947c.213 0 .267.053.32.053.051 0 .199.048.259-.32h.008v.533c0 .16-.053.16-.16.107-.053-.053-.107-.107-.16-.107s-.107.054-.054.107.16.267.107.427c0 0-.267-.48-.533-.693-.214-.16.159-.107.213-.107zM9.96 3.507c.267-.427.64-.64.747-.693.107-.053.16-.053.107 0-.107.107-.267.373-.373.48 0 .053 0 .107.053.107.053.053.053.107 0 .107-.107 0-.267.053-.427.107-.107.052-.16-.055-.107-.108zm-1.813 3.04c.427-1.013 1.333-2.08 1.92-2.56-.693.853-1.173 2.027-1.12 2.08.053-.054.213-.054.32-.107.107-.053.107.053.107.107-.107.32-.267.747-.213.96.053.213.587.32.587.32-.107 0-.693 0-.8.053-.16 0-.373.053-.32-.213.052-.32.212-.907.212-.907a6.05 6.05 0 0 0-.587.267c-.106.106-.16.053-.106 0z"/><path fill="#0B1F35" d="M11.613 10.92c.213.107.64.213.64.213-.107-.107-.373-.427-.48-.533a4.25 4.25 0 0 0-1.227-.96C9.8 9.267 9 9.267 8.893 9.213c-.107 0-.32 0-.213-.213.16-.213.96-.853.96-.853-.16 0-.96.053-1.173.107-.214.053-.267-.054-.267-.214 0 0-.48.427-.213.64.053.053.107.053.267 0 .106-.053.373-.107.426-.16 0 0-.213.32-.213.427-.054.106-.054.213.16.266.213.053 1.227.373 1.867.853.64.427 1.28 1.013 1.813 2.027.48 1.013.213 1.813.16 1.92.267-.213.587-.48.853-.747-.267-.853-.96-1.387-1.333-1.867-.16-.212-.374-.479-.374-.479zm2.667 1.12c.213-.267.373-.587.48-.96-.64-.533-1.707-1.44-3.093-1.76 0 0 1.92.747 2.613 2.72z"/><path fill="#0B1F35" d="M9.8 14.973c.427-.053.8-.16 1.173-.267.213-.48.427-1.6.213-2.507.001.001.054 2.081-1.386 2.774zm4.053-6.506c.373 0 .533-.32.533-.32-.373.107-.907.16-1.333.053 0 0 1.067.48 2.08 1.44.053-.267.053-.48.053-.747V8.84c-.159-.053-1.333-.373-1.333-.373z"/><path fill="#0B1F35" d="M9 1C4.573 1 1 4.573 1 9s3.573 8 8 8 8-3.573 8-8-3.573-8-8-8zm0 15.467c-4.107 0-7.467-3.36-7.467-7.467 0-4.107 3.36-7.467 7.467-7.467 4.107 0 7.467 3.36 7.467 7.467 0 4.107-3.36 7.467-7.467 7.467z"/></svg>