<svg xmlns="http://www.w3.org/2000/svg" width="24" height="24" viewBox="0 0 24 24" fill="none"><rect width="24" height="24" fill="none"/><path d="M12.577 18H14.5C16.4891 18 18.3968 17.2098 19.8033 15.8033C21.2098 14.3968 22 12.4891 22 10.5C22 8.51088 21.2098 6.60322 19.8033 5.1967C18.3968 3.79018 16.4891 3 14.5 3H6.999V4H14.5C16.2239 4 17.8772 4.68482 19.0962 5.90381C20.3152 7.12279 21 8.77609 21 10.5C21 12.2239 20.3152 13.8772 19.0962 15.0962C17.8772 16.3152 16.2239 17 14.5 17H4.484L7.209 14.274L6.502 13.567L2.564 17.506L2.569 17.51L6.507 21.449L7.214 20.742L4.472 18H12.577V18ZM3.987 17.496V17.515L3.978 17.505L3.988 17.496H3.987Z" fill="white"/></svg>