<svg xmlns="http://www.w3.org/2000/svg" width="36" height="36" viewBox="0 0 36 36" fill="none"><rect width="36" height="36" fill="none"/><path fill-rule="evenodd" clip-rule="evenodd" d="M19 5H9.988V6H19C25.075 6 30 10.925 30 17C30 23.075 25.075 28 19 28L15.9929 28H7.48392L10.2089 25.274L9.50192 24.567L5.56392 28.506L5.56892 28.51L9.50692 32.449L10.2139 31.742L7.47192 29L13.114 29H19C25.627 29 31 23.627 31 17C31 10.373 25.627 5 19 5ZM6.98692 28.4969V28.515L6.97792 28.505L6.98692 28.4969Z" fill="white"/></svg>