<svg xmlns="http://www.w3.org/2000/svg" width="18" height="18" version="1" viewBox="0 0 18 18"><path fill="#EC1C2E" fill-rule="evenodd" d="M6.09 8h5.82a5.966 5.966 0 0 0-.259-1H6.349a5.93 5.93 0 0 1 .461-1h4.381a5.975 5.975 0 0 0-.728-1H7.537c.421-.47.914-.872 1.463-1.191A5.97 5.97 0 0 0 6 3a6 6 0 1 0 0 12 5.97 5.97 0 0 0 3-.809c-.106-.062-.212-.123-.314-.191h.628a6.025 6.025 0 0 0 1.149-1H7.537a6.032 6.032 0 0 1-.728-1h4.381a6.01 6.01 0 0 0 .461-1H6.349a5.966 5.966 0 0 1-.259-1h5.82c.055-.326.09-.659.09-1H6c0-.341.035-.674.09-1z" clip-rule="evenodd"/><path fill="#FBB131" d="M12 3a5.97 5.97 0 0 0-3 .809A6.031 6.031 0 0 0 7.537 5h2.926c.275.307.52.641.728 1H6.809a5.926 5.926 0 0 0-.46 1h5.302c.114.322.201.656.259 1H6.09c-.055.326-.09.659-.09 1h6c0 .341-.035.674-.09 1H6.09c.058.344.145.678.259 1h5.302a5.93 5.93 0 0 1-.461 1H6.809c.208.359.452.693.728 1h2.926c-.34.379-.724.717-1.149 1h-.628c.102.068.208.129.314.191A5.97 5.97 0 0 0 12 15a6 6 0 1 0 0-12z"/><g fill="#FFF"><path d="M5.844 8.799l.009-.02.011-.02.016-.016.018-.018.024-.015.025-.013.027-.011.031-.011.035-.005.036-.005.053-.004.047-.004.042-.002h.038l.035.002.033.002.029.002.025.004.026.003.023.004.024.003.022.004.023.004.024.003.025.004.026.002.093-.411-.015-.002-.016-.004-.017-.001-.018-.004-.022-.004-.023-.003-.026-.006-.031-.003-.032-.004-.037-.004-.042-.003-.045-.004-.051-.002-.056-.002-.062-.001h-.067l-.108.001-.098.008-.089.012-.082.017-.073.02-.065.027-.058.029-.053.035-.045.04-.038.045-.033.047-.029.055-.022.058-.018.062-.013.067-.009.071-.002.117.016.098.033.082.046.069.058.056.063.047.069.038.073.033.071.029.071.026.064.027.054.027.046.031.031.037.016.045-.004.053-.007.027-.009.029-.015.029-.018.026-.025.025-.033.02-.042.015-.053.011-.052.001h-.053l-.053-.001-.052-.002-.051-.006-.049-.005-.048-.007-.045-.008-.044-.007-.04-.009-.036-.007-.033-.008-.031-.007-.025-.007-.02-.006-.017-.003-.081.402.031.01.029.011.029.011.031.008.03.009.035.005.035.007.038.004.042.005.043.004.049.004.055.002.06.001h.063l.073.002h.078l.057-.002.06-.003.06-.006.062-.011.063-.014.062-.018.06-.024.058-.027.057-.035.05-.04.048-.045.042-.053.036-.06.029-.069.022-.075.013-.085.007-.115-.007-.098-.019-.082-.029-.069-.038-.056-.045-.046-.051-.038-.055-.031-.058-.023-.06-.022-.06-.02-.058-.018-.055-.02-.051-.024-.043-.027-.037-.035-.018-.023-.014-.024-.008-.024-.005-.023v-.022zm1.711 1.004l-.017.005-.024.007-.029.008-.032.005-.037.004-.04.002-.043-.004-.04-.007-.037-.011-.032-.013-.024-.02-.018-.024-.009-.03.001-.037.175-1.014.32.009.065-.411h-.303l.074-.44h-.503l-.348 1.983-.005.046-.005.042v.04l.001.038.006.034.009.031.013.031.018.026.023.023.031.022.035.018.042.017.049.012.058.011.064.008.072.005h.139l.031-.004.029-.003.027-.004.024-.003.021-.004.022-.004.018-.003.019-.006.016-.005.016-.006.015-.005.013-.006.012-.007.013-.007.013-.007.012-.01.064-.338-.004.002z"/><path d="M9.147 9.73l-.052.022-.051.02-.049.016-.051.011-.049.009-.05.007-.049.004-.047.002H8.7l-.047-.002-.048-.004-.047-.005-.045-.005-.048-.008-.036-.007-.036-.013-.037-.016-.033-.02-.032-.022-.029-.027-.027-.027-.026-.031-.022-.031-.02-.035-.014-.033-.013-.034-.007-.035-.004-.034.002-.033.004-.022h1.18l.009-.111.027-.153.013-.138-.002-.123-.015-.109-.025-.097-.037-.083-.045-.073-.055-.062-.06-.051-.065-.043-.071-.033-.073-.027-.074-.019-.075-.012-.074-.008-.071-.001-.147.007-.131.022-.119.032-.105.046-.091.054-.08.062-.071.069-.058.073-.051.076-.042.08-.033.079-.027.078-.02.076-.014.071-.011.067-.007.059-.01.149.005.135.02.122.031.107.044.096.053.084.062.074.071.062.076.053.082.045.085.035.089.027.091.022.091.013.091.009.089.002h.06l.056-.002h.049l.047-.002.042-.004.038-.004.036-.004.033-.005.031-.005.029-.007.029-.009.027-.009.027-.011.029-.011.029-.015.029-.015.075-.447-.053.031-.051.029zm-.938-.738l.007-.038.011-.036.013-.037.016-.033.016-.031.02-.029.022-.027.024-.025.024-.022.027-.02.027-.016.031-.015.031-.011.031-.007.033-.005.035-.002.033.004.03.004.029.007.029.011.027.015.027.016.024.018.022.022.018.025.018.027.013.031.013.036.007.036.004.04.002.044-.004.045h-.665l.005-.027zm4.164-.66l.027.013.026.012.023.011.024.013.091-.504-.011-.003-.017-.008-.021-.007-.026-.009-.029-.011-.034-.011-.037-.011-.042-.011-.043-.011-.048-.009-.049-.011-.051-.007-.054-.007-.055-.006-.056-.003-.058-.002-.069.002-.066.003-.065.008-.062.009-.062.011-.058.012-.056.015-.057.018-.053.02-.05.022-.05.024-.049.027-.045.029-.044.031-.042.034-.041.037-.039.038-.036.04-.036.044-.033.045-.033.047-.031.051-.027.053-.027.056-.026.057-.023.06-.024.063-.02.064-.018.067-.018.071-.017.073-.014.074-.02.151-.004.142.007.129.022.122.033.111.044.102.051.091.06.082.067.072.073.064.076.054.08.044.084.036.083.028.084.018.083.009.102.005.093.002.082-.002.071-.003.063-.007.055-.008.047-.009.042-.013.033-.01.029-.013.025-.013.02-.014.017-.011.014-.013.011-.011.011-.009.082-.486-.037.033-.038.029-.042.024-.045.02-.045.014-.046.013-.047.009-.047.006-.046.003h-.087l-.04-.003-.036-.004-.033-.004-.028-.005-.023-.005-.069-.017-.062-.023-.056-.028-.05-.032-.043-.039-.038-.041-.033-.048-.027-.049-.02-.054-.017-.055-.012-.058-.006-.062-.002-.062.004-.063.007-.064.011-.065.029-.117.035-.102.038-.091.04-.08.044-.067.045-.058.047-.047.049-.04.051-.033.051-.025.051-.02.051-.015.051-.009.049-.006.047-.003h.135l.042.003.042.004.038.006.038.007.034.007.035.009.033.011.031.011.03.011zm-9.784-.5l-.595 1.416-.081-1.416h-.86L.64 10.219h.494l.302-1.784h.027l.004.088.013.207.016.285.018.326.019.324.016.281.013.199.003.074h.559l.74-1.784h.02l-.313 1.784h.494l.422-2.387zm12.767.887h.046l.082-.467-.051.003-.049.006-.046.009-.043.013-.04.014-.039.018-.036.02-.035.022-.032.026-.031.025-.029.029-.029.029-.028.031-.027.035-.027.033-.026.036.055-.329h-.511l-.34 1.947h.513l.183-1.034.008-.04.011-.04.01-.04.015-.04.018-.04.022-.039.024-.036.029-.035.032-.03.037-.03.042-.027.047-.022.053-.018.058-.014.064-.011zm-4.714-.256l.014-.035.018-.034.019-.035.018-.031.016-.027.013-.022.009-.013.004-.005h-.002l-.007-.002-.009-.002-.013-.002h-.013l-.014-.001-.013-.002h-.013l-.056.003-.051.006-.047.009-.044.011-.042.014-.038.019-.035.018-.032.022-.031.023-.029.028-.028.027-.027.031-.027.031-.026.034-.027.037-.027.036.065-.329h-.522l-.34 1.947h.522l.175-1.034.007-.04.009-.039.009-.038.013-.036.014-.037.019-.034.022-.033.025-.031.029-.027.033-.027.04-.022.043-.02.051-.016.057-.015.062-.009.07-.006h.006l.007.002.009.002h.009l.009.002.008.002.005.002h.002l.002-.008.005-.022.008-.032.009-.04.012-.048.013-.05.016-.051zm6.224-.622l-.127.715-.011-.022-.014-.022-.016-.024-.018-.024-.022-.024-.024-.024-.027-.024-.029-.022-.033-.02-.036-.02-.036-.016-.042-.014-.044-.013-.047-.009-.051-.005-.053-.002-.076.004-.073.011-.073.016-.073.025-.069.031-.069.04-.067.045-.064.053-.06.06-.056.065-.055.073-.047.082-.045.087-.038.093-.033.102-.027.107-.016.093-.009.093-.002.095.005.093.015.093.02.089.029.085.036.082.044.076.051.067.058.062.065.053.073.042.08.031.087.02.095.007h.036l.036-.002.035-.004.036-.005.036-.005.035-.009.035-.009.035-.013.035-.016.033-.016.033-.02.033-.024.033-.025.031-.029.031-.033.029-.036v.018l-.036.202h.504l.411-2.378h-.497zm-.251 1.322l-.005.053-.01.05-.009.049-.013.049-.015.047-.018.045-.02.044-.024.042-.025.04-.027.036-.031.033-.035.031-.036.028-.038.022-.042.02-.044.013-.047.011-.051.004-.073-.015-.06-.04-.047-.06-.036-.075-.024-.085-.013-.089-.004-.087.009-.08.011-.053.015-.053.014-.049.018-.049.02-.047.024-.044.025-.042.027-.04.031-.035.031-.031.036-.029.036-.024.042-.018.042-.015.045-.007.049-.004.038.004.035.009.033.015.031.022.027.025.024.029.022.035.018.036.015.042.014.044.007.045.005.047.002.051v.05zm-2.431-.38v-.069l-.013-.062-.02-.058-.027-.055-.037-.049-.042-.044-.045-.04-.051-.035-.055-.031-.056-.025-.056-.022-.058-.016-.056-.013-.055-.009-.051-.004-.062-.001-.062-.002h-.17l-.053.002-.053.002-.051.004-.049.004-.047.007-.045.007-.045.009-.045.009-.042.013-.042.015-.04.016-.127.438.02-.011.025-.013.033-.011.04-.011.044-.009.047-.009.053-.009.055-.007.056-.007.058-.005.058-.005.06-.004.058-.002h.056l.055.002.051.002.044.004.04.011.038.016.033.024.027.027.024.033.014.036.007.04-.004.034-.005.038-.005.032-.004.013H13.6l-.016-.002-.029-.002-.035-.002h-.04l-.042-.002-.044-.002h-.064l-.025.002-.025.002-.029.002-.031.004-.031.002-.033.004-.031.004-.029.004-.027.004-.025.002-.024.002-.018.002-.013.002-.009.001h-.004l-.062.011-.06.016-.06.02-.056.025-.056.029-.053.035-.049.039-.047.042-.042.045-.038.051-.035.053-.027.058-.024.062-.016.064-.011.066-.004.071v.04l.004.04.005.042.007.042.009.04.015.04.016.04.022.038.025.036.029.035.035.033.04.029.047.027.051.024.058.018.065.016.049.007.049.005.051-.002.053-.004.051-.007.051-.009.051-.014.049-.015.045-.018.045-.022.044-.022.038-.024.036-.025.033-.025.027-.027.024-.027-.004.022v.049l-.002.065-.004.075h.456l.075-.404.191-.96.012-.072zm-.644.603l-.007.051-.009.053-.007.051-.005.02-.007.022-.009.022-.013.022-.018.023-.02.022-.022.024-.025.02-.029.022-.033.018-.035.016-.04.015-.041.012-.047.009-.051.005-.055.002-.031-.002-.031-.005-.031-.011-.027-.018-.022-.027-.015-.036-.009-.049.002-.062.005-.031.011-.029.013-.027.016-.025.02-.024.02-.02.024-.02.024-.016.024-.016.025-.013.022-.011.024-.011.02-.007.018-.005.015-.005.013-.002.018-.004.024-.005.024-.004.027-.005.027-.004.029-.004.029-.004.029-.004.027-.002h.027l.024.002.02.002.018.005.013.005.007.009.004.011-.004.045zm-8.386-.603v-.069l-.01-.062-.019-.058-.027-.055-.036-.049-.04-.044-.045-.04-.052-.034-.054-.031-.055-.026-.056-.021-.058-.017-.057-.012-.054-.01-.051-.003-.064-.002-.063-.002h-.175l-.054.002-.053.002-.051.003-.049.004-.047.007-.048.008-.043.009-.044.009-.044.013-.04.015-.04.016-.129.438.02-.011.026-.013.033-.011.04-.011.044-.009.046-.009.053-.009.055-.007.056-.007.058-.005.058-.005.06-.004.059-.003h.056l.055.002.051.002.047.004.044.011.038.016.035.024.029.027.021.032.016.036.007.04-.003.035-.009.038-.011.033-.004.013h-.005l-.018-.002-.026-.002-.033-.002h-.04l-.04-.002-.043-.001h-.062l-.025.001-.028.002-.029.002-.029.004-.033.002-.031.003-.03.004-.031.003-.028.004-.025.002-.022.004-.02.002-.013.001-.009.002h-.003l-.064.011-.062.016-.06.02-.058.026-.055.029-.052.034-.051.039-.046.041-.043.046-.038.051-.033.052-.029.059-.024.061-.018.064-.011.067-.005.071v.04l.004.04.005.042.007.042.011.04.015.04.018.04.022.038.025.036.029.035.036.033.04.029.045.027.051.024.058.018.064.016.049.007.051.005.053-.002.053-.004.055-.007.053-.011.052-.011.053-.016.049-.018.047-.022.045-.022.044-.025.038-.025.035-.027.029-.029.025-.029-.007.027-.007.051-.009.067-.013.075h.458l.073-.406.184-.96.01-.072zm-.641.605l-.011.058-.013.06-.015.053-.005.02-.009.02-.011.022-.013.022-.014.022-.018.02-.022.021-.024.019-.027.02-.031.016-.035.016-.036.013-.042.011-.047.007-.049.006-.055.001-.029-.001-.029-.006-.031-.011-.027-.018-.024-.027-.018-.037-.009-.049.002-.062.005-.029.011-.029.013-.025.018-.024.02-.022.022-.021.024-.018.025-.018.024-.015.025-.013.024-.013.024-.011.02-.009.02-.007.014-.005.013-.004.02-.005.021-.006.026-.005.027-.004.029-.004.029-.004.031-.003.029-.002h.055l.024.002.02.004.018.004.011.005.007.009.002.009-.009.047z"/></g></svg>