<?xml version="1.0" encoding="UTF-8"?>
<svg width="24px" height="25px" viewBox="0 0 24 25" version="1.1" xmlns="http://www.w3.org/2000/svg" xmlns:xlink="http://www.w3.org/1999/xlink">
    <!-- Generator: Sketch 48.2 (47327) - http://www.bohemiancoding.com/sketch -->
    <title>icon_card-mastercard_m_white</title>
    <desc>Created with Sketch.</desc>
    <defs></defs>
    <g id="card" stroke="none" stroke-width="1" fill="none" fill-rule="evenodd" transform="translate(-25.000000, -35.000000)">
        <g id="icon_card-mastercard_m_white" transform="translate(26.000000, 41.000000)" fill="#FFFFFF" fill-rule="nonzero">
            <path d="M11.519717,11.0963193 C12.6296606,11.9931369 14.0519078,12.5312274 15.6049848,12.5312274 C19.1479417,12.5312274 22.0198681,9.72682613 22.0198681,6.26616541 C22.0198681,2.80550468 19.1479417,0.00215847778 15.6049848,0.00215847778 C14.0540179,0.00215847778 12.6296606,0.540249017 11.519717,1.43706658 C12.9440743,2.58710323 13.8493325,4.32270899 13.8493325,6.26722049 C13.8493325,8.21067691 12.9419641,9.94733775 11.519717,11.0963193 Z M10.523722,1.43706658 C9.41377833,0.540249017 7.99153118,0.00215847778 6.43845417,0.00215847778 C2.89549724,0.00215847778 0.0235708731,2.80655976 0.0235708731,6.26722049 C0.0235708731,9.72788121 2.89549724,12.5312274 6.43845417,12.5312274 C7.98942102,12.5312274 9.41377833,11.9931369 10.523722,11.0963193 C9.09936464,9.94628267 8.19410644,8.21067691 8.19410644,6.26616541 C8.19410644,4.32270899 9.1014748,2.58604815 10.523722,1.43706658 Z" id="Shape"></path>
            <path d="M11.0174992,1.58477771 C12.4597928,2.69472134 13.3808772,4.38601376 13.3808772,6.27988144 C13.3808772,8.17374912 12.4597928,9.86504155 11.0174992,10.9749852 C9.57520549,9.86504155 8.6541211,8.17374912 8.6541211,6.27988144 C8.6541211,4.38601376 9.57520549,2.69472134 11.0174992,1.58477771 Z" id="Shape"></path>
        </g>
    </g>
</svg>