<svg width="30" height="30" viewBox="0 0 30 30" xmlns="http://www.w3.org/2000/svg"><g fill="#FFF" fill-rule="nonzero"><path d="M15.632 21.12a8.244 8.244 0 0 0 5.2 1.827c4.51 0 8.165-3.57 8.165-7.974C28.997 10.568 25.34 7 20.832 7a8.25 8.25 0 0 0-5.2 1.826c1.813 1.464 2.965 3.673 2.965 6.148 0 2.474-1.155 4.684-2.965 6.147zM14.365 8.827A8.244 8.244 0 0 0 9.165 7C4.655 7 1 10.57 1 14.974c0 4.405 3.655 7.973 8.165 7.973a8.25 8.25 0 0 0 5.2-1.826c-1.813-1.464-2.966-3.673-2.966-6.148 0-2.474 1.155-4.684 2.966-6.147z"/><path d="M15.008 9c1.836 1.413 3.008 3.565 3.008 5.976 0 2.41-1.172 4.563-3.008 5.976C13.172 19.539 12 17.386 12 14.976S13.172 10.413 15.008 9z"/></g></svg>