<svg xmlns="http://www.w3.org/2000/svg" width="36" height="36" version="1" viewBox="0 0 36 36"><path fill="#0B1F35" d="M24 6c-2.158 0-4.215.576-6.001 1.606A11.988 11.988 0 0 0 12 6C5.383 6 0 11.383 0 18s5.383 12 12 12c2.158 0 4.215-.576 6-1.606A11.991 11.991 0 0 0 24 30c6.617 0 12-5.383 12-12S30.617 6 24 6zm0 23c-1.796 0-3.514-.44-5.041-1.226a11.984 11.984 0 0 0 4.103-5.113l-.922-.389a10.984 10.984 0 0 1-4.139 4.95 10.984 10.984 0 0 1-4.135-4.94l-.922.391a11.981 11.981 0 0 0 4.099 5.101A10.994 10.994 0 0 1 12 29C5.935 29 1 24.065 1 18S5.935 7 12 7c1.796 0 3.514.439 5.041 1.226a11.981 11.981 0 0 0-4.103 5.114l.922.389a10.984 10.984 0 0 1 4.139-4.95 10.986 10.986 0 0 1 4.136 4.94l.922-.39a11.986 11.986 0 0 0-4.1-5.102A10.985 10.985 0 0 1 24 7c6.065 0 11 4.935 11 11s-4.935 11-11 11z"/><path fill="#0B1F35" d="M12.003 17.243l.017-.038.021-.038.031-.031.034-.034.045-.028.049-.024.052-.021.058-.021.066-.01.069-.01.1-.007.09-.007.079-.004h.073l.066.004.062.003.055.004.048.007.049.007.045.006.045.007.041.007.045.007.045.007.048.007.049.003.176-.78-.028-.004-.031-.007-.031-.003-.034-.007-.042-.007-.045-.007-.048-.01-.059-.007-.062-.007-.069-.007-.08-.007-.086-.007-.097-.003-.107-.004-.117-.003h-.128l-.204.003-.187.014-.169.024-.155.031-.138.038-.125.052-.11.056-.101.065-.086.076-.072.087-.063.089-.055.104-.041.111-.035.117-.024.128-.017.135-.004.221.031.186.062.156.087.131.11.107.121.09.131.072.139.063.134.055.135.048.121.052.104.052.086.059.059.069.031.086-.007.1-.014.052-.017.055-.028.056-.034.048-.049.048-.062.038-.079.028-.1.021-.101.003h-.1l-.1-.003-.1-.004-.097-.01-.093-.011-.09-.013-.086-.014-.083-.014-.076-.017-.069-.014-.063-.014-.058-.014-.049-.014-.038-.01-.031-.007-.155.764.059.02.055.021.055.021.059.014.058.017.066.01.066.014.072.007.08.01.083.007.093.007.104.004.114.003h.121l.138.003h.148l.107-.003.114-.007.114-.01.118-.021.121-.028.117-.034.114-.045.111-.052.107-.065.096-.076.09-.087.08-.1.069-.114.055-.131.042-.142.024-.162.014-.218-.014-.186-.035-.156-.055-.131-.073-.107-.086-.087-.097-.072-.103-.059-.111-.045-.114-.041-.114-.038-.11-.035-.104-.038-.097-.045-.083-.052-.069-.065-.034-.045-.028-.045-.014-.045-.01-.045v-.041zm3.251 1.907l-.031.011-.046.013-.055.014-.062.01-.069.007-.076.004-.083-.007-.076-.014-.069-.021-.062-.024-.045-.038-.035-.045-.017-.058.004-.069.331-1.928.608.017.125-.781h-.577l.141-.836h-.957l-.659 3.769-.011.087-.01.079v.076l.003.073.011.065.017.059.024.059.035.048.045.045.058.042.066.034.079.031.094.024.11.021.121.014.138.01h.263l.059-.007.055-.007.052-.006.045-.007.041-.007.041-.007.035-.007.035-.01.031-.011.031-.01.027-.01.025-.011.024-.014.024-.014.024-.013.024-.018.121-.642-.007.003z"/><path fill="#0B1F35" d="M18.28 19.012l-.1.041-.097.038-.093.031-.097.021-.093.018-.093.014-.093.007-.09.004h-.094l-.09-.004-.09-.007-.09-.01-.086-.01-.09-.014-.069-.014-.069-.024-.069-.031-.062-.038-.062-.041-.055-.052-.052-.052-.048-.059-.041-.059-.038-.066-.028-.062-.024-.066-.014-.066-.007-.066.003-.062.007-.042h2.242l.017-.211.052-.29.024-.263-.003-.235-.028-.207-.048-.183-.069-.159-.086-.138-.104-.117-.114-.097-.124-.083-.135-.062-.138-.052-.142-.034-.142-.024-.142-.014-.135-.003-.28.014-.249.041-.225.062-.2.086-.173.104-.152.117-.135.131-.111.138-.097.145-.079.152-.062.149-.052.149-.038.145-.028.135-.021.128-.014.111-.017.283.01.256.038.231.059.204.083.183.1.159.117.142.135.117.145.1.155.086.162.066.169.052.173.041.173.024.173.017.169.003h.114l.107-.003h.093l.09-.003.079-.007.073-.007.069-.007.062-.01.059-.01.055-.014.055-.017.052-.017.052-.021.055-.021.055-.028.055-.028.138-.85-.1.059-.092.056zm-1.783-1.403l.014-.072.021-.069.024-.069.031-.062.031-.059.038-.055.041-.052.045-.048.045-.042.052-.038.052-.031.059-.028.059-.021.059-.014.062-.01.066-.003.062.007.059.01.055.014.055.021.052.028.052.031.045.034.041.042.035.048.034.052.024.059.024.066.014.069.007.076.003.083-.007.086h-1.264l.01-.053zm7.911-1.254l.052.025.048.024.045.02.045.025.173-.957-.021-.007-.031-.014-.041-.014-.049-.017-.055-.021-.066-.02-.069-.021-.079-.021-.083-.021-.09-.017-.093-.021-.097-.013-.104-.014-.103-.011-.107-.007-.111-.003-.131.003-.124.007-.125.014-.117.017-.118.021-.11.024-.107.028-.107.035-.101.038-.096.041-.094.045-.093.052-.086.055-.083.059-.08.065-.079.069-.073.073-.069.076-.069.083-.062.086-.062.09-.059.097-.052.1-.052.107-.048.107-.045.114-.045.121-.038.121-.034.128-.035.134-.031.139-.028.141-.038.287-.006.27.013.245.042.231.062.211.083.193.097.173.114.156.127.138.139.121.145.103.152.083.159.069.159.052.158.035.159.017.194.01.176.004.155-.004.135-.007.121-.013.104-.014.09-.017.079-.025.062-.02.055-.025.049-.024.038-.027.031-.021.028-.024.02-.021.021-.017.156-.923-.07.063-.072.055-.08.045-.086.038-.086.027-.087.025-.09.017-.089.01-.087.007h-.166l-.076-.007-.069-.007-.062-.007-.052-.01-.044-.01-.132-.032-.117-.044-.107-.052-.094-.062-.083-.073-.072-.079-.062-.09-.052-.093-.038-.104-.031-.104-.024-.11-.011-.118-.003-.117.007-.121.014-.121.02-.124.056-.221.065-.194.073-.173.076-.152.083-.127.086-.111.09-.09.093-.076.097-.062.097-.048.096-.038.097-.028.097-.017.093-.011.09-.007h.256l.079.007.079.007.073.011.072.013.066.014.066.018.062.02.059.021.058.021zm-18.589-.95l-1.13 2.692-.155-2.692H2.9l-.784 4.536h.939l.574-3.389h.052l.007.166.024.394.031.542.034.619.035.615.031.535.024.377.007.141h1.061l1.406-3.389h.038l-.595 3.389h.94l.802-4.536zm24.258 1.686h.087l.155-.888-.097.007-.093.011-.086.017-.083.024-.076.028-.073.034-.069.038-.066.042-.062.048-.059.049-.055.055-.055.055-.052.059-.052.065-.051.063-.049.069.104-.626h-.971l-.646 3.7h.974l.349-1.965.014-.076.021-.076.02-.076.028-.076.035-.076.041-.073.045-.069.055-.066.062-.058.07-.056.079-.051.09-.042.1-.034.111-.028.12-.021zm-8.958-.487l.028-.065.035-.066.034-.066.035-.058.031-.052.024-.042.017-.024.007-.01h-.003l-.014-.004-.017-.003-.025-.004h-.024l-.027-.003-.025-.004h-.024l-.107.007-.097.011-.089.017-.083.021-.08.027-.072.035-.066.034-.062.042-.059.045-.055.052-.052.051-.052.059-.052.059-.048.066-.052.069-.052.069.125-.626h-.992l-.646 3.7h.992l.331-1.965.014-.076.018-.073.017-.072.024-.07.028-.069.034-.065.042-.062.048-.059.055-.052.062-.052.076-.041.083-.038.097-.031.107-.028.118-.017.134-.011h.011l.014.004.017.003h.017l.017.004.014.003.011.004h.003l.003-.014.011-.042.014-.062.017-.076.024-.09.024-.096.031-.097zm10.485-.356l-.138.021-.138.031-.138.048-.131.059-.131.076-.128.086-.121.1-.114.114-.107.124-.104.138-.09.155-.086.166-.073.176-.062.193-.052.204-.031.176-.017.176-.003.18.01.176.028.176.038.169.055.162.069.155.083.145.097.128.111.117.124.1.138.079.152.059.166.038.18.014h.069l.069-.004.066-.007.069-.01.069-.01.066-.017.066-.017.066-.024.066-.031.062-.031.062-.038.062-.045.062-.048.059-.055.059-.062.055-.069v.034l-.069.384h.957l.781-4.518h-.94l-.242 1.358-.021-.042-.028-.041-.031-.045-.035-.045-.041-.045-.045-.045-.052-.045-.055-.042-.062-.038-.069-.038-.069-.031-.079-.028-.083-.024-.09-.017-.097-.01-.1-.003-.144.008zm.259.833l.093-.007.073.007.066.017.062.028.059.041.052.048.045.055.042.066.034.069.028.079.024.083.014.086.01.09.003.097v.093l-.01.1-.017.097-.017.093-.024.093-.028.09-.035.086-.038.083-.045.079-.048.076-.052.069-.059.062-.066.059-.069.052-.073.041-.079.038-.083.024-.09.021-.097.007-.138-.025-.114-.076-.09-.114-.069-.142-.045-.162-.024-.169-.007-.166.017-.152.021-.1.028-.1.028-.093.035-.093.038-.09.045-.083.048-.079.052-.076.059-.066.059-.059.069-.055.069-.045.079-.035.079-.028.086-.014zm-4.014.131v-.131l-.024-.117-.038-.111-.052-.104-.069-.093-.079-.083-.087-.076-.097-.066-.103-.058-.107-.048-.107-.041-.11-.031-.107-.024-.104-.017-.097-.007-.118-.005-.118-.003h-.324l-.1.003-.1.003-.097.007-.093.007-.09.014-.086.014-.086.017-.083.017-.079.024-.079.028-.076.031-.242.833.038-.021.048-.024.062-.021.076-.021.083-.017.09-.017.1-.017.104-.014.107-.014.11-.01.111-.01.114-.007.11-.003h.107l.104.003.097.003.083.007.076.021.073.031.062.045.052.052.045.062.028.069.014.076-.007.066-.01.073-.01.062-.007.024h-.017l-.031-.003-.055-.003-.066-.004h-.076l-.079-.003-.083-.003h-.121l-.048.003-.048.003-.055.004-.059.007-.059.003-.062.007-.059.007-.055.007-.052.007-.048.003-.045.007-.035.004-.024.003-.017.003h-.007l-.117.021-.114.031-.114.038-.107.048-.107.055-.1.066-.093.073-.09.079-.079.086-.073.097-.066.1-.052.11-.045.118-.031.121-.021.128-.007.135v.076l.007.076.01.079.014.079.017.076.028.076.031.076.042.073.048.069.055.066.066.062.076.055.09.052.097.045.11.035.124.031.093.014.093.009.097-.003.1-.007.097-.014.097-.017.097-.028.093-.028.086-.035.086-.041.083-.041.072-.045.069-.048.062-.048.052-.052.045-.052-.007.042v.093l-.003.124-.007.142h.867l.142-.767.363-1.824.017-.139zm-1.223 1.147l-.014.097-.017.1-.014.097-.01.038-.014.042-.017.042-.024.041-.031.045-.038.042-.042.045-.048.038-.055.041-.062.035-.066.031-.076.028-.079.024-.09.017-.097.01-.104.003-.059-.003-.059-.01-.059-.021-.051-.036-.041-.052-.028-.069-.017-.093.003-.117.01-.059.021-.055.024-.052.031-.048.038-.045.038-.038.045-.038.045-.031.045-.031.048-.024.041-.021.045-.021.038-.014.034-.01.028-.01.024-.004.035-.007.045-.01.045-.007.052-.01.052-.007.055-.007.055-.007.055-.007.052-.003h.052l.045.003.038.004.034.01.024.01.014.017.007.021-.006.086zm-15.933-1.147v-.131l-.021-.117-.035-.111-.052-.104-.069-.093-.076-.083-.086-.076-.097-.066-.104-.059-.104-.048-.107-.041-.111-.031-.107-.024-.101-.018-.097-.007-.121-.003-.121-.003h-.332l-.103.003-.1.003-.097.007-.093.007-.09.014-.09.014-.083.017-.083.017-.083.025-.076.028-.076.031-.245.833.038-.021.048-.024.062-.021.076-.021.083-.017.09-.017.1-.017.104-.014.107-.014.111-.01.11-.01.114-.007.111-.003h.107l.104.003.097.003.09.007.083.021.073.031.066.045.053.05.042.062.031.069.014.076-.007.066-.017.073-.021.062-.007.024h-.01l-.035-.003-.048-.003-.062-.004h-.076l-.076-.003-.083-.003h-.118l-.048.003-.052.003-.055.004-.055.007-.062.003-.059.007-.059.007-.059.007-.052.007-.048.003-.041.007-.038.004-.024.003-.017.003H8.41l-.121.021-.117.031-.114.038-.11.048-.104.055-.1.066-.097.073-.087.079-.083.086-.073.097-.062.1-.055.11-.045.118-.035.121-.021.128-.01.135v.076l.007.076.01.079.014.079.021.076.028.076.034.076.042.073.048.069.055.066.069.062.076.055.086.052.097.045.111.035.121.031.093.014.098.01.1-.003.1-.007.104-.014.1-.021.1-.024.1-.031.093-.034.09-.041.086-.041.083-.048.073-.048.066-.052.055-.055.048-.055-.014.049-.014.097-.017.128-.024.142h.871l.138-.767.349-1.824.02-.139zm-1.219 1.15l-.021.111-.024.114-.028.1-.01.038-.017.038-.021.041-.024.042-.028.041-.034.038-.041.041-.046.036-.051.038-.059.031-.066.031-.069.024-.079.021-.09.014-.093.01-.104.003-.055-.003-.055-.01-.059-.021-.052-.034-.045-.052-.034-.069-.017-.093.003-.117.01-.055.021-.055.024-.048.035-.045.038-.042.042-.041.045-.035.048-.034.045-.028.048-.024.045-.024.044-.023.038-.017.038-.014.028-.01.024-.007.038-.01.041-.01.048-.01.052-.007.055-.007.055-.007.059-.007.055-.004h.104l.045.004.038.007.035.007.021.01.014.017.003.017-.017.089z"/></svg>