<?xml version="1.0" encoding="UTF-8"?>
<svg width="18px" height="18px" viewBox="0 0 18 18" version="1.1" xmlns="http://www.w3.org/2000/svg" xmlns:xlink="http://www.w3.org/1999/xlink">
    <!-- Generator: Sketch 48.2 (47327) - http://www.bohemiancoding.com/sketch -->
    <title>icon_card-mastercard_s_white</title>
    <desc>Created with Sketch.</desc>
    <defs></defs>
    <g id="card" stroke="none" stroke-width="1" fill="none" fill-rule="evenodd" transform="translate(-32.000000, -15.000000)">
        <g id="icon_card-mastercard_s_white" transform="translate(32.000000, 19.000000)" fill="#FFFFFF" fill-rule="nonzero">
            <path d="M9.35877663,8.45402064 C10.1661165,9.09569189 11.2006166,9.48069464 12.3302785,9.48069464 C14.9073197,9.48069464 16.9962732,7.4741509 16.9962732,4.99805478 C16.9962732,2.52195867 14.9073197,0.516169832 12.3302785,0.516169832 C11.2021515,0.516169832 10.1661165,0.901172582 9.35877663,1.54284383 C10.3948116,2.36569284 11.0532694,3.60751544 11.0532694,4.99880969 C11.0532694,6.38934903 10.3932768,7.63192653 9.35877663,8.45402064 Z M8.63431956,1.54284383 C7.82697969,0.901172582 6.79247956,0.516169832 5.66281768,0.516169832 C3.08577654,0.516169832 0.996822999,2.52271357 0.996822999,4.99880969 C0.996822999,7.4749058 3.08577654,9.48069464 5.66281768,9.48069464 C6.79094469,9.48069464 7.82697969,9.09569189 8.63431956,8.45402064 C7.59828456,7.63117163 6.93982676,6.38934903 6.93982676,4.99805478 C6.93982676,3.60751544 7.59981943,2.36493794 8.63431956,1.54284383 Z" id="Shape"></path>
            <path d="M8.99347836,1.64853086 C10.0425597,2.44269339 10.712529,3.65280988 10.712529,5.00786858 C10.712529,6.36292727 10.0425597,7.57304376 8.99347836,8.36720629 C7.94439699,7.57304376 7.27442769,6.36292727 7.27442769,5.00786858 C7.27442769,3.65280988 7.94439699,2.44269339 8.99347836,1.64853086 Z" id="Shape"></path>
        </g>
    </g>
</svg>