<?xml version="1.0" encoding="UTF-8"?>
<svg width="30px" height="30px" viewBox="0 0 30 30" version="1.1" xmlns="http://www.w3.org/2000/svg" xmlns:xlink="http://www.w3.org/1999/xlink">
    <!-- Generator: Sketch 48.2 (47327) - http://www.bohemiancoding.com/sketch -->
    <title>icon_card-mastercard_l_white</title>
    <desc>Created with Sketch.</desc>
    <defs></defs>
    <g id="card" stroke="none" stroke-width="1" fill="none" fill-rule="evenodd" transform="translate(-22.000000, -72.000000)">
        <g id="icon_card-mastercard_l_white-copy" transform="translate(23.000000, 79.000000)" fill="#FFFFFF" fill-rule="nonzero">
            <g id="Group-2">
                <path d="M14.6322629,14.1206172 C16.0449961,15.2620841 17.8552284,15.9469643 19.8319805,15.9469643 C24.3414462,15.9469643 27.9968262,12.3775301 27.9968262,7.97281068 C27.9968262,3.56809129 24.3414462,0 19.8319805,0 C17.8579142,0 16.0449961,0.684880149 14.6322629,1.82634706 C16.445181,3.29011052 17.5973911,5.49918473 17.5973911,7.97415358 C17.5973911,10.4477795 16.4424952,12.6581966 14.6322629,14.1206172 Z M13.3645632,1.82634706 C11.9518301,0.684880149 10.1415978,0 8.1648457,0 C3.65537993,0 0,3.56943419 0,7.97415358 C0,12.378873 3.65537993,15.9469643 8.1648457,15.9469643 C10.138912,15.9469643 11.9518301,15.2620841 13.3645632,14.1206172 C11.5516452,12.6568537 10.399435,10.4477795 10.399435,7.97281068 C10.399435,5.49918473 11.554331,3.28876762 13.3645632,1.82634706 Z" id="Shape"></path>
                <path d="M14.008101,2 C15.8438484,3.41273317 17.0162021,5.56540548 17.0162021,7.97591503 C17.0162021,10.3864246 15.8438484,12.5390969 14.008101,13.9518301 C12.1723537,12.5390969 11,10.3864246 11,7.97591503 C11,5.56540548 12.1723537,3.41273317 14.008101,2 Z" id="Shape"></path>
            </g>
        </g>
    </g>
</svg>