<svg xmlns="http://www.w3.org/2000/svg" width="36" height="36" version="1" viewBox="0 0 36 36"><path fill="#EC1C2E" fill-rule="evenodd" d="M23.95 17h-11.9c.028-.338.074-.67.129-1h11.64a12.147 12.147 0 0 0-.213-1H12.393c.088-.34.188-.673.304-1h10.605a11.934 11.934 0 0 0-.404-1h-9.797c.157-.342.329-.676.517-1h8.763c-.2-.345-.416-.678-.648-1h-7.466c.251-.348.521-.681.807-1h5.853a12.028 12.028 0 0 0-1.007-1h-3.838A11.954 11.954 0 0 1 18 7.619 11.924 11.924 0 0 0 12 6C5.373 6 0 11.373 0 18s5.373 12 12 12c2.188 0 4.233-.595 6-1.618a12.484 12.484 0 0 1-.628-.381h1.256c.455-.302.882-.64 1.291-1h-3.838a11.879 11.879 0 0 1-1.007-1h5.853c.286-.319.556-.652.807-1h-7.466a11.78 11.78 0 0 1-.648-1h8.763c.188-.324.36-.658.517-1h-9.797c-.15-.326-.283-.659-.404-1h10.605c.116-.327.217-.66.304-1H12.393a11.747 11.747 0 0 1-.213-1h11.64c.055-.33.102-.662.129-1H12.05c-.027-.332-.05-.663-.05-1.001h12c0-.338-.023-.669-.05-1z" clip-rule="evenodd"/><path fill="#FBB131" d="M24 6c-2.188 0-4.234.595-6 1.619-.686.397-1.327.86-1.919 1.381h3.838c.356.313.691.647 1.007 1h-5.853c-.286.319-.556.652-.807 1h7.466c.232.322.448.655.648 1h-8.763c-.188.324-.36.658-.517 1h9.797c.15.326.283.659.404 1H12.697c-.116.327-.217.66-.304 1h11.213c.085.328.156.661.213 1H12.18c-.055.33-.102.662-.129 1H23.95c.027.331.05.662.05 1H12c0 .338.023.669.05 1h11.9c-.028.338-.074.67-.129 1H12.18c.057.339.129.672.213 1h11.213c-.088.34-.188.673-.304 1H12.697c.121.341.254.674.404 1h9.797c-.157.342-.329.676-.517 1h-8.763c.2.345.416.678.648 1h7.466c-.251.348-.521.681-.807 1h-5.853c.316.353.652.687 1.007 1h3.838c-.409.36-.836.698-1.291 1H17.37c.204.135.416.258.628.381A11.934 11.934 0 0 0 24 30c6.627 0 12-5.373 12-12S30.627 6 24 6z"/><g fill="#FFF"><path d="M11.687 18.098l.018-.04.022-.04.033-.032.036-.037.048-.029.05-.025.055-.022.062-.022.069-.011.073-.011.105-.007.095-.007.083-.004h.077l.069.004.065.003.058.004.051.007.051.007.047.008.048.007.043.007.048.007.047.008.051.007.051.004.185-.822-.029-.004-.033-.007-.032-.004-.037-.007-.043-.007-.048-.008-.051-.01-.061-.008-.066-.007-.073-.007-.083-.008-.091-.007-.102-.004-.113-.003-.123-.004h-.135l-.214.004-.197.014-.178.026-.164.033-.145.04-.131.054-.116.058-.106.069-.091.081-.076.09-.066.095-.058.109-.043.116-.037.124-.025.135-.018.141-.004.233.033.197.065.163.091.138.116.113.128.095.138.076.145.065.142.058.142.051.127.055.109.054.091.062.062.073.033.091-.007.105-.015.055-.018.058-.029.058-.037.051-.051.051-.065.04-.084.029-.105.022-.105.004h-.106l-.105-.004-.106-.004-.102-.01-.098-.011-.094-.015-.091-.015-.088-.014-.08-.018-.072-.015-.066-.014-.062-.015-.05-.014-.041-.011-.032-.008-.164.804.062.022.058.022.058.022.062.014.062.018.069.011.069.015.077.007.083.011.087.007.099.007.109.004.12.004h.127l.145.003h.157l.112-.003.121-.008.12-.01.123-.022.127-.029.124-.037.12-.047.116-.055.113-.069.102-.08.094-.091.084-.105.073-.12.058-.138.044-.149.025-.171.015-.229-.015-.197-.036-.163-.058-.138-.077-.113-.091-.091-.101-.076-.11-.062-.116-.048-.12-.043-.12-.04-.116-.036-.109-.041-.102-.047-.087-.054-.073-.069-.037-.048-.029-.047-.014-.047-.011-.047v-.044zm3.422 2.007l-.033.011-.047.015-.058.014-.066.011-.072.008-.08.003-.088-.007-.08-.015-.072-.021-.066-.026-.047-.04-.036-.047-.019-.062.004-.073.349-2.029.64.018.131-.821h-.607l.149-.88h-1.007l-.695 3.967-.011.091-.011.083v.08l.004.077.011.069.018.062.025.062.037.05.047.048.062.043.069.037.084.032.098.026.116.022.127.014.146.011h.276l.062-.007.058-.007.055-.008.047-.007.044-.007.043-.008.037-.007.036-.011.033-.011.032-.01.03-.011.025-.011.026-.015.025-.014.025-.015.026-.018.127-.677-.007.004z"/><path d="M18.295 19.96l-.105.044-.102.04-.098.033-.102.022-.098.018-.098.015-.098.007-.095.004H17.4l-.095-.004-.095-.007-.095-.011-.091-.011-.095-.015-.073-.014-.073-.025-.073-.033-.065-.04-.065-.044-.058-.055-.054-.055-.051-.062-.044-.062-.04-.069-.029-.065-.025-.069-.014-.069-.007-.069.004-.065.008-.044h2.36l.018-.222.055-.306.025-.276-.004-.247-.029-.218-.051-.193-.073-.167-.091-.146-.109-.124-.12-.102-.131-.087-.142-.065-.146-.055-.149-.036-.149-.025-.149-.015-.142-.004-.295.015-.262.044-.236.065-.211.091-.182.109-.16.124-.142.138-.116.146-.102.153-.084.16-.066.156-.054.156-.04.153-.029.142-.022.135-.014.116-.018.298.011.269.04.244.062.214.087.193.105.167.124.149.142.124.153.106.164.091.171.069.178.055.182.044.182.026.182.018.178.004h.12l.113-.004h.098l.094-.004.084-.007.076-.007.073-.007.066-.011.062-.011.058-.015.058-.018.054-.018.055-.022.058-.022.058-.029.058-.029.145-.895-.106.062-.1.056zm-1.877-1.476l.015-.076.022-.073.025-.073.033-.065.033-.062.04-.058.044-.055.047-.051.047-.044.055-.04.055-.033.062-.029.062-.022.062-.014.065-.011.069-.004.065.007.062.011.058.015.058.022.055.029.055.033.047.036.044.044.036.051.036.055.025.062.025.069.014.073.007.08.004.087-.007.091h-1.331l.011-.055zm8.328-1.32l.054.025.051.026.047.021.048.026.181-1.007-.021-.008-.033-.014-.044-.015-.051-.018-.058-.022-.069-.022-.073-.021-.083-.022-.088-.022-.094-.018-.098-.022-.102-.015-.109-.014-.109-.011-.113-.007-.116-.004-.139.004-.131.007-.131.014-.123.019-.124.021-.116.026-.113.029-.113.036-.105.04-.102.044-.098.047-.098.055-.091.058-.087.062-.084.069-.084.073-.076.076-.073.08-.073.087-.065.091-.065.095-.062.102-.055.105-.054.113-.051.112-.048.12-.047.128-.04.127-.036.135-.037.141-.032.146-.029.149-.04.302-.008.283.015.259.044.243.065.222.087.204.102.181.12.164.135.146.145.127.153.109.16.087.167.073.167.054.168.037.167.018.203.011.186.004.164-.004.141-.007.128-.015.109-.015.094-.018.084-.025.065-.022.059-.025.051-.026.04-.029.032-.022.029-.025.022-.022.022-.018.164-.971-.073.065-.076.059-.084.047-.091.04-.091.029-.091.025-.094.019-.095.01-.091.008h-.174l-.08-.008-.073-.007-.066-.007-.054-.011-.047-.011-.139-.033-.123-.047-.113-.054-.098-.066-.087-.076-.077-.084-.065-.094-.055-.099-.04-.109-.032-.109-.026-.116-.011-.124-.003-.123.007-.128.014-.127.022-.131.058-.233.069-.203.077-.182.08-.16.087-.135.091-.116.095-.095.098-.08.102-.065.101-.051.102-.04.102-.029.102-.018.098-.011.095-.007h.269l.083.007.084.007.076.011.077.015.069.014.069.018.065.022.062.022.062.022zm-19.568-1l-1.189 2.832-.164-2.832h-1.72l-.825 4.774h.989l.603-3.567h.055l.007.175.026.414.033.571.036.651.036.647.033.564.025.396.008.149h1.116l1.48-3.567h.04l-.625 3.567h.989l.843-4.774zm25.535 1.774h.091l.163-.934-.101.007-.099.011-.091.018-.087.025-.08.03-.076.036-.073.04-.069.044-.065.05-.062.051-.058.059-.059.058-.054.062-.055.069-.054.065-.051.073.109-.658H28.92l-.68 3.894h1.026l.367-2.069.014-.08.022-.08.022-.08.029-.08.037-.08.043-.076.047-.073.059-.069.065-.062.073-.058.083-.055.095-.043.105-.037.117-.029.127-.022zm-9.429-.513l.029-.069.036-.069.036-.069.037-.062.033-.054.025-.044.018-.025.007-.011h-.003l-.015-.004-.018-.003-.025-.004h-.026l-.029-.004-.025-.003h-.026l-.113.007-.101.011-.095.018-.087.022-.084.029-.076.036-.069.037-.066.043-.062.048-.058.054-.054.055-.055.061-.054.062-.051.069-.055.073-.054.073.131-.658h-1.044l-.68 3.894h1.043l.35-2.069.014-.08.018-.076.019-.077.025-.072.029-.073.036-.069.044-.066.051-.061.058-.055.066-.054.08-.044.087-.04.102-.033.112-.029.124-.018.142-.011h.011l.014.004.018.003h.019l.018.004.014.003.011.004h.004l.004-.014.011-.044.014-.066.018-.08.026-.094.025-.102.033-.102zm12.447-1.243l-.255 1.429-.022-.044-.029-.044-.033-.047-.036-.047-.044-.047-.047-.047-.055-.047-.058-.044-.066-.04-.073-.04-.073-.033-.084-.029-.087-.025-.095-.018-.102-.011-.105-.004-.149.007-.145.022-.146.033-.145.051-.138.062-.138.08-.135.091-.127.105-.12.12-.113.131-.109.146-.095.164-.091.175-.076.185-.065.204-.055.214-.033.185-.018.185-.004.189.011.185.029.185.04.178.058.171.073.164.087.153.102.135.116.124.131.105.146.084.16.062.175.04.189.015h.073l.073-.004.069-.007.073-.011.073-.011.069-.018.069-.018.069-.025.069-.033.065-.033.065-.04.065-.047.065-.051.062-.058.062-.066.058-.073v.036l-.073.404h1.007l.822-4.756h-.986zm-.502 2.643l-.011.105-.018.103-.018.098-.025.098-.029.095-.036.091-.04.087-.047.084-.051.08-.055.073-.062.066-.069.062-.073.054-.076.044-.084.04-.087.025-.095.022-.102.007-.146-.029-.12-.08-.095-.12-.073-.149-.047-.171-.025-.178-.007-.175.018-.16.022-.105.029-.105.029-.098.036-.098.04-.095.047-.087.051-.084.055-.08.062-.069.062-.062.073-.058.073-.047.084-.036.084-.029.091-.014.098-.007.076.007.069.018.065.029.062.044.054.051.047.058.044.069.036.073.029.084.026.084.015.091.011.095.004.102v.097zm-4.862-.76v-.138l-.025-.124-.04-.116-.054-.109-.073-.098-.084-.087-.091-.08-.102-.069-.109-.062-.113-.051-.113-.044-.116-.033-.113-.025-.109-.018-.102-.007L27 17l-.124-.004h-.342l-.105.004-.105.004-.102.007-.098.007-.095.014-.091.014-.091.018-.087.018-.084.025-.084.029-.08.033-.255.876.04-.022.052-.023.065-.022.08-.022.087-.018.095-.018.105-.018.109-.015.113-.014.116-.011.116-.011.12-.007.116-.004h.113l.109.004.102.004.087.007.08.022.076.033.065.047.055.055.047.065.029.073.015.08-.007.069-.011.076-.011.065-.007.025H27.2l-.033-.004-.058-.004-.069-.004h-.08l-.084-.004-.087-.004h-.127l-.051.004-.051.004-.058.004-.062.007-.062.004-.065.007-.062.007-.058.007-.054.007-.051.004-.047.007-.036.004-.025.004-.02.005h-.007l-.124.022-.12.033-.12.04-.113.051-.113.058-.106.069-.098.076-.095.084-.084.091-.076.102-.069.105-.055.116-.047.124-.033.127-.022.135-.007.142v.08l.007.08.011.084.015.084.018.08.029.08.033.08.044.076.051.073.058.069.069.065.08.058.095.055.102.047.116.036.131.033.098.014.099.011.102-.004.105-.007.102-.014.102-.018.102-.029.098-.029.091-.036.091-.044.087-.044.076-.047.073-.051.065-.051.054-.055.047-.055-.007.044v.098l-.004.131-.007.149h.913l.149-.807.382-1.92.019-.146zm-1.287 1.208l-.015.102-.018.106-.015.102-.011.04-.014.044-.018.044-.025.044-.033.045-.04.044-.044.047-.051.04-.058.044-.065.036-.069.033-.08.029-.084.025-.095.018-.102.011-.109.004-.062-.004-.062-.011-.062-.022-.055-.036-.044-.055-.029-.073-.018-.098.004-.124.011-.062.022-.058.025-.055.033-.051.04-.047.04-.04.047-.04.047-.033.047-.033.051-.025.044-.022.047-.022.04-.015.036-.011.029-.011.025-.004.036-.007.047-.011.047-.007.055-.011.055-.007.058-.007.058-.007.058-.007.054-.004h.055l.047.004.04.004.036.011.025.011.015.018.007.022-.003.092zm-16.771-1.208v-.138l-.022-.124-.036-.116-.055-.109-.073-.098-.08-.087-.091-.08-.102-.069-.109-.062-.109-.051-.112-.044-.116-.033-.113-.025-.109-.018-.102-.007L8.953 17l-.127-.004h-.35L8.367 17l-.105.004-.102.007-.098.007-.095.014-.095.014-.087.018-.087.018-.087.025-.08.029-.08.033-.258.876.04-.022.05-.023.065-.022.08-.022.087-.018.095-.018.105-.018.109-.015.113-.014.116-.011.116-.011.12-.007.116-.004h.115l.109.004.102.004.095.007.087.022.076.033.069.047.058.055.044.065.033.073.015.08-.008.068-.018.076-.022.066-.007.025h-.011l-.036-.004-.051-.004-.065-.004h-.08l-.08-.004-.087-.004h-.125l-.051.004-.055.004-.058.004-.058.007-.065.004-.062.007-.062.007-.062.007-.055.007-.05.006-.044.007-.04.004-.025.004-.018.003h-.008l-.127.022-.124.033-.12.04-.116.051-.109.058-.105.069-.102.076-.091.084-.087.091-.076.102-.065.105-.058.116-.047.124-.038.127-.022.135-.011.142v.08l.007.08.011.084.015.084.022.08.029.08.036.08.044.076.051.073.058.068.073.065.08.058.091.055.102.047.116.036.127.033.098.014.102.012.105-.004.105-.007.109-.014.106-.022.106-.026.105-.033.098-.036.095-.044.091-.044.087-.051.076-.051.069-.055.058-.058.051-.058-.015.055-.014.102-.018.134-.025.149h.916l.146-.807.367-1.92.022-.145zm-1.284 1.211l-.022.117-.026.12-.029.105-.011.04-.018.04-.022.044-.026.044-.029.044-.036.04-.044.044-.047.036-.054.04-.061.032-.069.033-.073.025-.084.022-.094.014-.098.011-.109.004-.058-.004-.058-.011-.062-.022-.055-.036-.047-.055-.036-.073-.018-.098.004-.124.011-.058.022-.058.024-.05.036-.047.04-.044.044-.044.047-.036.051-.036.047-.029.051-.025.047-.025.047-.022.04-.018.04-.015.029-.011.025-.007.04-.011.044-.011.051-.011.054-.007.058-.007.058-.007.062-.007.058-.004h.111l.047.004.04.007.036.007.022.011.014.018.004.018-.018.093z"/></g></svg>