<svg xmlns="http://www.w3.org/2000/svg" width="18" height="18" version="1" viewBox="0 0 18 18"><path fill="#0B1F35" d="M11.492 3A6.49 6.49 0 0 0 9 3.51 6.49 6.49 0 0 0 6.508 3c-3.584 0-6.5 2.916-6.5 6.5s2.916 6.5 6.5 6.5c.876 0 1.716-.188 2.492-.511a6.473 6.473 0 0 0 2.492.511c3.584 0 6.5-2.916 6.5-6.5S15.076 3 11.492 3zm0 12c-.44 0-.866-.066-1.281-.165a6.49 6.49 0 0 0 2.288-2.811l-.921-.389A5.48 5.48 0 0 1 9 14.394a5.488 5.488 0 0 1-2.578-2.759l-.921.389a6.49 6.49 0 0 0 2.288 2.811A5.504 5.504 0 0 1 6.508 15c-3.033 0-5.5-2.468-5.5-5.5S3.475 4 6.508 4c.44 0 .866.066 1.281.165a6.485 6.485 0 0 0-2.286 2.804l.921.391A5.484 5.484 0 0 1 9 4.605a5.486 5.486 0 0 1 2.576 2.754l.921-.391a6.485 6.485 0 0 0-2.286-2.804A5.557 5.557 0 0 1 11.492 4c3.033 0 5.5 2.468 5.5 5.5s-2.467 5.5-5.5 5.5z"/><path fill="#0B1F35" d="M6.475 8.839l.007-.016.009-.016.013-.013.014-.014.019-.012.021-.01.022-.009.024-.009.028-.004.029-.004.042-.003.038-.003.033-.002h.031l.028.002.026.001.023.002.021.003.02.002.019.003.019.003.017.003.019.003.019.003.02.003.021.001.074-.328-.012-.002-.013-.003-.013-.001-.014-.003-.018-.003-.019-.003-.02-.004-.025-.003-.026-.003-.029-.003-.034-.003-.036-.003-.041-.001-.045-.002-.049-.001h-.054l-.086.001-.079.006-.071.01-.065.013-.058.016-.053.022-.046.024-.043.027-.036.032-.03.037-.027.037-.023.044-.017.047-.015.049-.01.054-.007.057-.002.093.013.078.027.066.036.055.046.045.051.038.056.03.058.027.057.023.056.02.051.022.044.022.036.024.025.03.013.036-.003.042-.006.022-.007.023-.012.024-.014.02-.021.02-.026.016-.033.012-.042.009-.043.001h-.042l-.042-.001-.042-.002-.041-.004-.039-.005-.038-.005-.036-.006-.035-.006-.032-.007-.029-.006-.027-.006-.024-.006-.021-.006-.016-.004-.013-.003-.065.322.025.008.023.009.023.009.025.006.025.007.027.004.028.006.03.003.034.004.035.003.039.003.044.002.048.001h.051l.058.002h.062l.045-.002.048-.003.048-.004.05-.009.051-.012.049-.014.048-.019.047-.022.045-.027.041-.032.037-.037.034-.042.029-.048.023-.055.018-.06.01-.068.006-.092-.006-.078-.015-.066-.023-.055-.03-.045-.037-.037-.041-.03-.043-.025-.047-.019-.048-.017-.048-.016-.046-.015-.044-.016-.041-.019-.035-.022-.029-.027-.014-.019-.012-.019-.006-.019-.004-.019v-.017zm1.369.803l-.013.005-.019.005-.024.006-.026.005-.029.002-.032.002-.035-.003-.032-.006-.029-.009-.026-.01-.019-.016-.015-.019-.007-.024.002-.029.139-.812.256.007.053-.329h-.243l.059-.352h-.403l-.277 1.587-.005.037-.004.033v.032l.001.031.005.027.007.025.01.025.015.02.019.019.024.018.028.014.033.013.04.01.046.009.051.006.058.004h.111l.025-.003.023-.003.022-.002.019-.003.017-.003.018-.003.014-.003.015-.004.013-.005.013-.004.011-.005.011-.004.01-.006.01-.006.01-.005.01-.008.051-.27-.003.001z"/><path fill="#0B1F35" d="M9.118 9.584l-.042.017-.041.016-.039.014-.041.008-.039.008-.04.005-.039.003-.038.002H8.76l-.038-.002-.038-.003-.037-.004-.037-.004-.038-.006-.029-.006-.029-.01-.029-.013-.026-.016-.026-.018-.024-.022-.021-.021-.02-.025-.018-.025-.016-.027-.012-.027-.01-.028-.006-.027-.003-.028.001-.026.003-.017h.944l.007-.089.022-.122.01-.111-.001-.099-.011-.087-.02-.077-.03-.067-.036-.058-.044-.049-.048-.041-.052-.035-.057-.026-.058-.022-.06-.015-.06-.01-.06-.006-.056-.001-.117.006-.105.017-.095.026-.084.037-.073.043-.064.05-.056.055-.047.058-.041.061-.033.064-.026.063-.022.062-.016.062-.012.056-.009.054-.005.047-.008.119.004.108.016.097.025.086.035.077.042.067.049.06.057.049.061.042.065.036.068.028.071.022.073.017.073.01.073.007.071.001h.048l.045-.001h.039l.038-.001.033-.003.031-.003.029-.003.026-.004.025-.004.023-.006.023-.007.022-.007.022-.009.023-.009.023-.012.023-.012.058-.358-.039.026-.041.023zm-.751-.591l.006-.03.009-.029.01-.029.013-.026.013-.025.016-.023.017-.022.019-.02.019-.017.022-.016.022-.013.025-.013.025-.009.025-.006.026-.004.027-.001.026.003.025.004.023.006.023.009.022.011.022.013.019.014.017.017.015.02.015.022.01.025.01.028.006.029.003.032.001.035-.003.037h-.532l.004-.022zm3.331-.528l.022.011.02.01.019.009.019.01.073-.403-.009-.003-.013-.006-.017-.006-.021-.007-.023-.009-.028-.008-.029-.009-.033-.009-.035-.009-.038-.007-.039-.009-.041-.005-.044-.006-.043-.005-.045-.003L11.346 8l-.055.001-.052.003-.053.006-.049.007-.05.009-.046.01-.045.012-.045.015-.043.016-.04.017-.04.019-.039.022-.036.023-.035.025-.034.027-.033.029-.031.031-.029.032-.029.035-.026.036-.026.038-.025.041-.022.042-.022.045-.02.045-.019.048-.019.051-.016.051-.014.054-.015.056-.013.059-.012.059-.016.121-.002.114.005.103.018.097.026.089.035.081.041.073.048.066.053.058.059.051.061.043.064.035.067.029.067.022.066.015.067.007.082.004.074.002.065-.002.057-.003.051-.005.044-.006.038-.007.033-.011.026-.008.023-.011.021-.01.016-.011.013-.009.012-.01.008-.009.009-.007.065-.389-.029.027-.03.023-.034.019-.036.016-.036.011-.037.011-.038.007-.037.004-.037.003h-.07l-.032-.003-.029-.003-.026-.003-.022-.004-.019-.004-.055-.013-.049-.019-.045-.022-.04-.026-.035-.031-.03-.033-.026-.038-.022-.039-.016-.044-.013-.044-.01-.046-.005-.05-.001-.049.003-.051.006-.051.008-.052.024-.093.027-.082.031-.073.032-.064.035-.053.036-.047.038-.038.039-.032.041-.026.041-.02.04-.016.041-.012.041-.007.039-.005.038-.003h.107l.034.003.033.003.031.005.03.005.028.006.028.008.026.008.025.009.024.009zm-7.827-.4l-.475 1.134-.066-1.134h-.688l-.33 1.91h.396l.241-1.427h.022l.003.07.01.166.013.228.015.261.014.259.013.225.01.159.003.059h.447l.592-1.427h.016l-.25 1.427h.395l.338-1.91zm10.214.71h.037l.065-.374-.041.003-.039.005-.036.007-.035.01-.032.012-.031.014-.029.016-.028.018-.026.02-.025.021-.023.023-.023.023-.022.025-.022.027-.021.027-.021.029.044-.264h-.409l-.272 1.558h.41l.147-.827.006-.032.009-.032.008-.032.012-.032.015-.032.017-.031.019-.029.023-.028.026-.024.03-.024.033-.021.038-.018.042-.014.046-.012.051-.009zm-3.772-.205l.012-.027.015-.028.014-.028.015-.024.013-.022.01-.018.007-.01.003-.004h-.001l-.006-.002-.007-.001-.011-.002h-.01l-.011-.001-.01-.002h-.011l-.045.003-.041.005-.037.007-.035.009-.034.011-.03.015-.028.014-.026.018-.025.019-.023.022-.022.021-.022.025-.022.025-.02.028-.022.029-.022.029.053-.264h-.418l-.272 1.558h.418l.139-.827.006-.032.008-.031.007-.03.01-.03.012-.029.014-.027.018-.026.02-.025.023-.022.026-.022.032-.017.035-.016.041-.013.045-.012.05-.007.056-.005h.005l.006.002.007.001h.007l.007.002.006.001.005.002h.001l.001-.006.005-.018.006-.026.007-.032.01-.038.01-.04.013-.041zm4.878.074l-.009-.017-.012-.018-.013-.019-.015-.019-.017-.019-.019-.019-.022-.019-.023-.017-.026-.016-.029-.016-.029-.013-.033-.012-.035-.01-.038-.007-.041-.004-.042-.001-.06.003-.058.008-.058.013-.058.02-.055.025-.055.032-.054.036-.051.042-.049.049-.045.052-.044.058-.038.065-.036.07-.031.074-.026.081-.022.086-.013.074-.007.074-.001.076.004.074.012.074.016.071.023.068.029.065.035.061.041.054.047.049.052.042.058.034.064.025.07.016.076.006h.029l.029-.002.028-.003.029-.004.029-.004.028-.007.028-.007.028-.01.028-.013.026-.013.026-.016.026-.019.026-.02.025-.023.025-.026.023-.029v.015l-.029.161h.403l.329-1.903h-.396l-.103.572zm-.099.486l-.004.042-.008.041-.007.039-.01.039-.012.038-.015.036-.016.036-.019.033-.02.032-.022.029-.025.026-.028.025-.029.022-.031.017-.033.016-.035.01-.037.009-.041.003-.058-.012-.048-.031-.038-.048-.029-.06-.019-.068-.01-.071-.003-.07.007-.064.009-.042.012-.042.012-.039.015-.039.016-.038.019-.035.02-.034.022-.032.025-.028.025-.025.029-.023.029-.019.033-.015.034-.012.036-.006.039-.003.031.003.028.007.026.012.025.017.022.02.019.023.018.028.014.029.012.033.01.035.006.036.002.04.001.041v.039zm-1.945-.304v-.055l-.01-.049-.016-.047-.022-.044-.029-.039-.034-.035L13 8.525l-.041-.028-.044-.025-.045-.02-.045-.017-.047-.013-.045-.01-.043-.008-.041-.003L12.6 8.4l-.049-.001h-.137l-.042.001-.042.001-.041.003-.039.003-.038.006-.036.006-.036.007-.035.007-.033.01-.033.012-.032.013-.102.351.016-.009.02-.01.026-.009.032-.009.035-.007.038-.007.042-.007.044-.006.045-.006.047-.004.047-.004.048-.003.047-.001h.045l.044.001.041.001.035.003.032.009.031.013.026.019.022.022.019.026.012.029.001.032-.003.028-.004.03-.004.026-.003.01h-.006l-.013-.001-.023-.001-.028-.001h-.032l-.033-.003-.035-.001h-.051l-.02.001-.02.001-.023.001-.025.003-.025.001-.026.003-.026.004-.023.003-.022.003-.02.001-.019.003-.015.002-.01.001-.007.001h-.003l-.049.009-.048.014-.048.016-.045.02-.045.023-.042.028-.039.031-.038.033-.034.036-.031.041-.027.042-.022.047-.019.049-.013.051-.009.054-.003.057v.032l.003.032.004.033.006.033.007.032.012.032.013.032.018.031.02.029.023.028.028.026.032.023.038.022.041.019.047.015.052.013.039.006.039.004.041-.001.042-.003.041-.006.041-.007.041-.012.039-.012.036-.015.036-.017.035-.017.03-.019.029-.02.026-.02.022-.022.019-.022-.003.018v.039l-.001.052-.003.06h.365l.06-.323.153-.768.007-.059zm-.515.483l-.006.041-.007.042-.006.041-.004.016-.006.018-.007.017-.01.017-.014.019-.016.017-.017.019-.02.016-.024.018-.026.015-.028.013-.032.012-.033.01-.038.007-.041.004-.044.001-.025-.001-.025-.004-.023-.009-.022-.014-.018-.023-.012-.029-.007-.039.001-.049.004-.025.009-.023.01-.022.013-.02.016-.019.016-.016.019-.016.019-.013.019-.013.02-.01.017-.009.019-.009.016-.006.014-.004.012-.004.01-.001.015-.003.019-.004.019-.003.022-.004.022-.003.023-.003.025-.005.023-.003.022-.001h.022l.019.001.016.002.015.004.01.004.006.007.003.009-.004.037zm-6.708-.483v-.055l-.009-.05-.015-.046-.022-.044-.029-.039-.032-.035-.036-.032-.041-.028-.043-.024-.044-.02-.045-.018-.047-.013-.045-.01-.043-.008-.041-.003-.051-.001-.051-.001h-.14l-.043.001-.042.001-.041.003-.039.003-.038.006-.038.006-.035.007-.035.007-.035.01-.032.012-.032.013-.103.351.016-.009.02-.01.027-.009.032-.009.035-.007.038-.007.042-.007.043-.006.045-.006.047-.004.046-.005.048-.003.047-.001h.045l.044.001.041.001.037.004.035.009.031.013.028.019.023.022.017.026.013.029.006.032-.003.027-.007.031-.009.026-.003.01h-.004l-.015-.001-.02-.001-.026-.002h-.032l-.032-.002-.035-.001h-.05l-.02.001-.022.002-.023.001-.023.003-.027.002-.024.003-.025.002-.025.003-.022.003-.02.001-.017.004-.017.001-.01.001-.007.002h-.003l-.051.009-.049.013-.048.016-.047.02-.043.023-.043.028-.04.031-.037.033-.035.036-.03.041-.026.042-.024.047-.018.049-.015.051-.009.054-.004.057v.032l.003.032.004.033.006.033.009.032.012.032.015.032.017.031.02.029.023.028.029.026.032.023.036.022.041.019.047.015.051.013.039.006.041.004.042-.001.042-.003.044-.006.042-.009.042-.01.042-.013.039-.015.038-.017.036-.017.035-.02.031-.02.028-.022.023-.023.02-.023-.005.02-.006.041-.008.054-.01.06h.367l.058-.323.147-.768.009-.059zm-.514.484l-.009.047-.01.048-.011.042-.005.016-.007.016-.009.018-.01.017-.012.018-.014.016-.018.017-.019.015-.021.016-.025.013-.028.013-.029.01-.033.009-.038.006-.039.004-.044.001-.023-.001-.024-.004-.024-.009-.022-.015-.019-.022-.014-.029-.008-.039.002-.049.004-.024.009-.023.01-.02.015-.019.016-.018.017-.017.019-.015.02-.015.019-.012.02-.01.019-.01.019-.009.016-.006.016-.006.012-.004.01-.003.016-.004.017-.004.02-.004.022-.003.023-.003.024-.004.025-.003.023-.002h.044l.019.002.016.003.015.003.008.004.006.007.001.007-.007.038z"/></svg>