<svg xmlns="http://www.w3.org/2000/svg" width="24" height="24" version="1" viewBox="0 0 24 24"><path fill="#EC1C2E" fill-rule="evenodd" d="M8.069 11h7.862a8.03 8.03 0 0 0-.193-1H8.262c.088-.342.194-.677.325-1h6.826a7.858 7.858 0 0 0-.492-1H9.079c.203-.351.429-.686.681-1h4.479a8.102 8.102 0 0 0-.96-1H10.72A8.039 8.039 0 0 1 12 5.079 7.955 7.955 0 0 0 8 4a8 8 0 1 0 3.87 15c.044-.025.086-.054.13-.079A7.986 7.986 0 0 0 13.279 18h-2.558a8.029 8.029 0 0 1-.96-1h4.479c.252-.314.478-.649.681-1H9.079a7.858 7.858 0 0 1-.492-1h6.826c.131-.323.236-.658.325-1H8.262a7.851 7.851 0 0 1-.193-1h7.862c.041-.328.069-.661.069-1H8c0-.339.028-.672.069-1z" clip-rule="evenodd"/><path fill="#FBB131" d="M16 4a7.955 7.955 0 0 0-4 1.079A7.986 7.986 0 0 0 10.721 6h2.559c.347.306.67.639.96 1H9.76a7.968 7.968 0 0 0-.681 1h5.842c.186.321.352.653.492 1H8.587a7.889 7.889 0 0 0-.325 1h7.476c.084.326.151.659.193 1H8.069A8.047 8.047 0 0 0 8 12h8c0 .339-.028.672-.069 1H8.069c.043.341.109.674.193 1h7.476a7.889 7.889 0 0 1-.325 1H8.587c.14.347.306.679.492 1h5.842a7.968 7.968 0 0 1-.681 1H9.76c.29.361.613.694.96 1h2.558a8.03 8.03 0 0 1-1.279.921A7.961 7.961 0 0 0 16 20a8 8 0 0 0 0-16z"/><g fill="#FFF"><path d="M8.212 11.759l.011-.024.013-.024.02-.02.022-.022.028-.017.031-.015.032-.013.037-.013.042-.007.044-.007.063-.004.057-.004.05-.002h.046l.041.002.039.002.035.002.031.004.03.005.029.004.028.005.026.004.029.004.028.005.031.004.03.002.111-.493-.017-.002-.02-.004-.019-.003-.022-.004-.026-.004-.029-.005-.03-.006-.037-.005-.04-.004-.043-.004-.051-.005-.054-.004-.061-.002-.068-.002-.074-.003h-.081l-.128.003-.118.008-.107.016-.098.019-.088.024-.078.033-.07.035-.063.041-.055.048-.046.055-.039.057-.035.065-.026.07-.022.074-.015.081-.011.085-.002.139.019.118.04.098.054.083.07.068.076.057.083.046.088.039.085.035.085.03.076.033.066.033.054.037.037.043.02.055-.004.063-.009.033-.011.035-.018.035-.021.03-.031.031-.039.024-.05.017-.064.013-.063.003h-.063l-.063-.003-.064-.002-.061-.006-.059-.007-.056-.008-.055-.009-.052-.009-.048-.011-.044-.009-.039-.008-.037-.009-.031-.009-.024-.006-.02-.005-.098.482.037.014.035.013.035.013.037.008.037.011.042.007.041.009.046.004.05.007.053.004.059.004.065.002.072.003h.076l.088.002h.093l.068-.002.072-.005.072-.006.074-.013.077-.018.074-.022.072-.028.07-.033.067-.041.061-.048.057-.055.05-.063.044-.072.035-.083.026-.089.015-.103.009-.137-.009-.118-.022-.098-.034-.083-.046-.068-.055-.054-.061-.046-.065-.037-.07-.029-.072-.026-.072-.024-.07-.022-.065-.024-.062-.028-.052-.033-.044-.041-.021-.029-.018-.028-.009-.028-.006-.029v-.026zm2.053 1.204l-.019.007-.029.009-.035.008-.039.007-.043.004-.048.002-.053-.004-.048-.009-.043-.013-.04-.015-.028-.024-.022-.028-.011-.038.002-.043.21-1.218.384.011.078-.493h-.364l.089-.528h-.604l-.417 2.381-.006.054-.007.05v.048l.003.046.006.042.011.037.015.037.022.03.028.029.038.026.041.022.05.019.059.016.07.013.076.008.087.007h.166l.037-.004.035-.005.033-.004.028-.005.027-.004.026-.004.022-.005.021-.006.02-.007.02-.006.017-.007.015-.006.016-.009.015-.009.015-.009.015-.01.077-.406-.004.002z"/><path d="M12.177 12.876l-.063.026-.061.024-.059.02-.061.013-.059.011-.059.009-.059.004-.057.002h-.059l-.057-.002-.057-.004-.057-.007-.055-.007-.057-.009-.044-.009-.044-.015-.044-.02-.039-.024-.039-.026-.035-.033-.033-.033-.031-.037-.026-.037-.024-.041-.017-.039-.015-.041-.009-.041-.004-.041.002-.039.005-.026h1.416l.011-.133.033-.183.015-.166-.002-.148-.017-.131-.031-.116-.044-.1-.055-.087-.065-.074-.072-.061-.077-.055-.085-.039-.087-.033-.089-.022-.089-.015-.089-.009-.085-.002-.177.009-.157.026-.142.039-.127.055-.109.065-.096.074-.085.083-.07.087-.061.092-.05.096-.041.094-.033.094-.024.092-.017.085-.013.081-.009.07-.011.178.007.161.024.146.037.129.052.116.063.1.074.089.085.074.092.063.098.054.103.041.107.033.109.026.109.015.109.011.107.002h.072l.068-.002h.059l.057-.002.05-.004.046-.004.044-.004.039-.007.037-.007.035-.009.035-.011.033-.011.033-.013.035-.013.035-.017.035-.017.087-.537-.063.037-.062.037zm-1.126-.886l.009-.046.013-.044.015-.044.02-.039.02-.037.024-.035.026-.033.028-.031.028-.026.033-.024.033-.02.037-.017.037-.013.037-.009.039-.007.041-.002.039.004.037.007.035.009.035.013.033.017.033.02.028.022.026.026.022.031.022.033.015.037.015.041.009.044.004.048.002.052-.004.055h-.798l.007-.032zm4.996-.792l.033.015.031.016.028.013.028.015.109-.604-.013-.005-.019-.008-.026-.009-.031-.011-.035-.013-.041-.013-.044-.013-.05-.013-.053-.013-.056-.011-.059-.013-.061-.009-.066-.009-.065-.006-.068-.005-.07-.002-.083.002-.078.005-.079.008-.074.011-.074.013-.07.016-.067.017-.068.022-.063.024-.062.026-.058.028-.059.033-.055.035-.052.037-.05.042-.051.043-.045.046-.044.048-.044.052-.039.055-.039.057-.037.061-.033.063-.033.068-.03.067-.029.072-.028.077-.024.076-.022.081-.022.085-.019.087-.018.09-.024.181-.004.17.009.155.026.146.039.133.052.122.061.109.072.098.081.088.087.076.092.066.096.052.1.044.101.032.1.022.101.011.122.007.111.002.098-.002.085-.005.077-.009.065-.008.057-.011.05-.015.039-.014.035-.015.031-.015.024-.018.019-.013.018-.015.013-.013.013-.011.098-.582-.043.039-.046.035-.05.028-.055.024-.055.018-.054.015-.057.011-.057.006-.054.005h-.105l-.048-.005-.043-.004-.04-.004-.032-.007-.029-.007-.083-.019-.074-.029-.068-.032-.058-.04-.053-.045-.046-.051-.039-.056-.033-.059-.024-.066-.019-.065-.016-.07-.006-.074-.002-.074.004-.077.009-.076.013-.079.035-.139.041-.122.046-.109.048-.096.052-.081.055-.07.057-.057.059-.048.061-.039.061-.031.061-.024.061-.017.061-.011.059-.006.057-.005h.161l.05.005.051.004.045.006.046.009.042.009.041.011.039.013.037.013.038.013zm-11.74-.6l-.714 1.7-.098-1.7H2.463l-.495 2.865h.593l.362-2.14h.033l.005.104.015.249.02.343.021.39.022.388.02.339.015.237.004.09h.67l.888-2.14h.024l-.375 2.14h.593l.507-2.865zm15.321 1.065h.054l.098-.561-.061.005-.059.006-.054.011-.052.015-.049.018-.045.022-.044.024-.041.026-.04.03-.037.031-.035.035-.035.035-.032.037-.033.041-.033.039-.03.044.065-.395h-.613l-.408 2.337h.615l.221-1.242.008-.048.014-.048.013-.048.017-.048.022-.048.026-.045.028-.044.035-.041.04-.038.043-.034.05-.033.057-.026.063-.022.07-.018.077-.013zm-5.658-.308l.018-.041.021-.042.022-.041.022-.037.02-.033.015-.026.011-.015.004-.007h-.002l-.009-.002-.011-.002-.015-.002h-.015l-.018-.003-.015-.002h-.015l-.068.005-.061.006-.057.011-.052.013-.05.018-.046.021-.041.022-.04.026-.037.029-.035.032-.032.033-.033.037-.033.037-.03.042-.033.043-.033.044.079-.395h-.626l-.408 2.337h.626l.209-1.242.009-.048.011-.045.011-.046.015-.044.017-.043.022-.042.026-.039.031-.037.035-.033.039-.033.048-.026.053-.024.061-.019.067-.018.074-.011.086-.006h.006l.009.002.011.002h.011l.011.002.008.002.007.002h.002l.002-.008.007-.026.008-.04.011-.048.016-.056.015-.062.02-.061zm7.469-.746l-.153.857-.013-.026-.017-.026-.02-.028-.022-.028-.026-.028-.028-.028-.033-.028-.035-.026-.039-.024-.044-.024-.044-.02-.05-.017-.052-.015-.057-.011-.061-.007-.063-.002-.089.004-.087.013-.087.02-.087.031-.083.037-.083.048-.081.055-.076.063-.072.072-.068.079-.065.087-.057.098-.055.105-.046.111-.039.122-.034.127-.02.111-.011.111-.002.114.007.111.017.111.024.107.035.103.044.098.052.092.061.081.07.074.078.063.087.05.096.037.105.024.113.009h.044l.044-.002.041-.004.044-.007.044-.007.041-.011.041-.011.041-.015.041-.02.039-.02.039-.024.039-.028.039-.031.037-.035.037-.039.035-.044v.022l-.044.242h.604l.493-2.854h-.589zm-.301 1.586l-.007.063-.011.062-.011.059-.015.059-.017.057-.022.055-.024.052-.028.05-.031.048-.033.044-.037.039-.041.037-.044.033-.046.026-.05.024-.052.015-.057.013-.061.004-.087-.017-.072-.048-.057-.072-.044-.089-.028-.103-.015-.107-.004-.105.011-.096.013-.063.018-.063.017-.059.022-.059.024-.057.028-.052.031-.05.033-.048.037-.041.037-.037.044-.035.044-.028.05-.022.05-.018.055-.009.059-.004.046.004.041.011.039.018.037.026.033.031.028.035.026.041.022.044.017.05.015.052.009.055.007.057.002.061v.057zm-2.918-.456v-.083l-.015-.074-.024-.07-.033-.065-.044-.059-.05-.052-.054-.048-.061-.041-.065-.037-.068-.031-.068-.026-.07-.02-.068-.015-.065-.011-.061-.004-.074-.003-.074-.002h-.206l-.063.002-.063.002-.061.004-.059.004-.057.009-.055.009-.055.011-.052.011-.05.015-.05.017-.048.02-.153.526.024-.013.031-.015.039-.013.048-.013.052-.011.057-.011.063-.011.065-.009.068-.009.07-.007.07-.007.072-.004.07-.002h.068l.065.002.061.002.052.004.048.013.046.02.039.028.033.033.028.039.017.044.009.048-.004.041-.007.046-.007.039-.004.015h-.007l-.02-.002-.035-.002-.041-.002h-.048l-.05-.002-.052-.002h-.076l-.031.002-.031.002-.035.002-.037.004-.037.002-.039.004-.037.004-.035.004-.033.004-.031.002-.028.004-.022.002-.015.002-.011.002h-.004l-.074.013-.072.02-.072.024-.068.031-.068.035-.063.041-.059.046-.057.05-.05.055-.046.061-.041.063-.033.07-.028.074-.02.076-.013.081-.004.085v.048l.004.048.007.05.009.05.011.048.017.048.02.048.026.046.031.044.035.041.041.039.048.035.057.033.061.028.07.022.078.02.059.009.059.007.061-.002.063-.004.061-.009.061-.011.061-.017.059-.018.055-.022.055-.026.052-.026.046-.028.044-.031.039-.031.033-.033.028-.033-.004.026v.059l-.002.078-.004.09h.548l.089-.484.229-1.152.009-.083zm-.772.725l-.009.061-.011.063-.009.061-.007.024-.009.026-.011.026-.015.026-.02.028-.024.026-.026.028-.031.024-.035.026-.039.022-.041.02-.048.017-.05.015-.057.011-.061.007-.065.002-.037-.002-.037-.007-.037-.013-.033-.022-.026-.033-.017-.044-.011-.056.002-.074.007-.037.013-.035.015-.033.02-.031.024-.028.024-.024.028-.024.028-.02.028-.02.031-.015.026-.013.028-.013.024-.009.022-.007.018-.007.015-.002.022-.004.028-.007.028-.004.033-.007.033-.004.035-.004.035-.004.035-.004.033-.002h.033l.028.002.024.002.022.007.015.007.009.011.004.013-.004.054zm-10.063-.725v-.083l-.013-.074-.022-.07-.033-.065-.044-.059-.048-.052-.055-.048-.06-.042-.065-.037-.065-.03-.068-.026-.07-.02-.068-.015-.065-.011-.061-.004-.076-.003-.076-.002h-.21l-.066.002-.063.002-.061.004-.059.004-.057.01-.057.009-.052.011-.052.01-.052.015-.048.017-.048.02-.155.526.024-.013.03-.015.039-.013.048-.013.052-.011.057-.011.063-.011.065-.009.068-.009.07-.007.07-.007.072-.004.07-.002h.068l.065.002.061.002.057.004.052.013.046.02.041.028.035.033.026.039.02.044.009.048-.004.043-.011.046-.013.039-.004.015h-.007l-.022-.002-.031-.002-.039-.002h-.048l-.048-.002-.052-.002h-.074l-.031.002-.033.002-.035.002-.035.004-.039.002-.037.004-.037.005-.037.004-.033.004-.031.002-.026.004-.024.002-.015.004-.011.002h-.004l-.076.013-.074.02-.072.024-.07.031-.065.035-.063.041-.061.046-.055.05-.052.055-.046.061-.039.063-.035.07-.028.074-.022.076-.013.081-.007.085v.048l.004.048.007.05.009.05.013.048.018.048.022.048.026.046.031.044.035.041.044.039.048.035.055.033.061.028.07.022.076.02.059.009.058.006.063-.002.063-.004.065-.009.063-.013.063-.015.063-.02.059-.022.057-.026.055-.026.052-.031.046-.031.041-.033.035-.035.031-.035-.007.034-.009.061-.011.08-.015.09h.55l.087-.484.22-1.152.013-.088zm-.77.727l-.013.07-.015.072-.017.063-.007.024-.011.024-.013.026-.015.026-.017.026-.022.024-.026.026-.029.022-.033.024-.037.02-.041.02-.044.015-.05.013-.057.009-.059.007-.065.002-.035-.002-.035-.007-.037-.013-.033-.022-.028-.033-.022-.044-.011-.058.002-.074.007-.035.013-.035.015-.031.022-.028.024-.026.026-.026.028-.022.031-.022.028-.017.031-.015.028-.015.028-.013.024-.011.024-.009.017-.007.015-.004.024-.007.026-.007.031-.007.033-.004.035-.004.035-.004.037-.004.035-.002h.066l.028.002.024.004.022.004.013.007.009.011.002.011-.011.056z"/></g></svg>