<svg width="36" height="36" viewBox="0 0 36 36" xmlns="http://www.w3.org/2000/svg"><g fill="none" fill-rule="evenodd"><path d="M18.774 25.7a9.821 9.821 0 0 0 6.315 2.29c5.476 0 9.916-4.475 9.916-9.995 0-5.521-4.44-9.993-9.916-9.993-2.398 0-4.6.858-6.315 2.289a9.998 9.998 0 0 1 3.6 7.705c0 3.1-1.402 5.871-3.6 7.704zm-1.54-15.41a9.821 9.821 0 0 0-6.315-2.288c-5.477 0-9.916 4.473-9.916 9.994s4.44 9.993 9.916 9.993c2.397 0 4.6-.858 6.315-2.289a9.998 9.998 0 0 1-3.601-7.705c0-3.1 1.402-5.871 3.601-7.704z" fill="#FFF" fill-rule="nonzero"/><path d="M17.991 10.514c2.23 1.77 3.654 4.469 3.654 7.49 0 3.022-1.424 5.72-3.654 7.49-2.23-1.77-3.653-4.468-3.653-7.49 0-3.021 1.424-5.72 3.653-7.49z" fill="#FFF" fill-rule="nonzero"/></g></svg>