<svg width="36" height="36" viewBox="0 0 36 36" xmlns="http://www.w3.org/2000/svg">
  <g fill="none" fill-rule="evenodd">
    <path opacity=".9" d="M0 0h36v36H0z"/>
    <path d="M18.472 22.515c1.052.85 2.4 1.36 3.872 1.36 3.358 0 6.08-2.658 6.08-5.938S25.702 12 22.344 12c-1.47 0-2.82.51-3.872 1.36 1.35 1.09 2.208 2.735 2.208 4.578 0 1.842-.86 3.488-2.208 4.577zM17.528 13.36c-1.052-.85-2.4-1.36-3.872-1.36-3.358 0-6.08 2.658-6.08 5.938s2.722 5.937 6.08 5.937c1.47 0 2.82-.51 3.872-1.36-1.35-1.09-2.208-2.735-2.208-4.578 0-1.842.86-3.488 2.208-4.577z" fill="#FFF"/>
    <path d="M17.996 13.5c1.367 1.052 2.24 2.655 2.24 4.45 0 1.795-.873 3.398-2.24 4.45-1.367-1.052-2.24-2.655-2.24-4.45 0-1.795.873-3.398 2.24-4.45z" fill="#FFF"/>
  </g>
</svg>
