<svg xmlns="http://www.w3.org/2000/svg" width="30" height="30" version="1" viewBox="0 0 30 30"><path fill="#EC1C2E" fill-rule="evenodd" d="M10 15.004V15c0-.338.018-.671.05-1h9.899a10.248 10.248 0 0 0-.15-1h-9.598c.069-.34.156-.673.258-1h9.082a10.081 10.081 0 0 0-.378-1h-8.325a10 10 0 0 1 .511-1h7.302a9.858 9.858 0 0 0-.665-1h-5.973c.264-.351.544-.687.851-1h4.271a9.994 9.994 0 0 0-1.154-1h-1.963A9.94 9.94 0 0 1 15 6.349 9.937 9.937 0 0 0 10 5C4.477 5 0 9.477 0 15s4.477 10 10 10a9.947 9.947 0 0 0 4.337-1c.226-.109.447-.224.663-.349.341-.198.668-.416.982-.651h-1.963a9.994 9.994 0 0 1-1.154-1h4.271c.307-.313.587-.649.851-1h-5.973c-.24-.32-.463-.652-.665-1h7.302a10 10 0 0 0 .511-1h-8.325a9.838 9.838 0 0 1-.378-1h9.082c.103-.327.189-.66.258-1h-9.598a9.674 9.674 0 0 1-.15-1h9.899c.033-.329.05-.662.05-1H10v.004z" clip-rule="evenodd"/><path fill="#FBB131" d="M20 5a9.937 9.937 0 0 0-5.982 2h1.963c.409.306.797.636 1.154 1h-4.271c-.307.313-.587.649-.851 1h5.973c.241.32.463.652.665 1h-7.302a10 10 0 0 0-.511 1h8.325c.142.325.271.658.378 1h-9.082c-.103.327-.189.66-.258 1h9.598c.067.328.117.661.15 1H10.05c-.032.329-.05.662-.05 1v.004V15h10c0 .338-.018.671-.05 1h-9.9c.034.339.084.672.15 1h9.598c-.069.34-.156.673-.258 1h-9.082c.108.342.236.675.378 1h8.325a10 10 0 0 1-.511 1h-7.302c.201.348.424.68.665 1h5.973c-.264.351-.544.687-.851 1h-4.271c.357.364.745.694 1.154 1h1.963a9.94 9.94 0 0 1-.982.651A9.943 9.943 0 0 0 20 25c5.523 0 10-4.477 10-10S25.523 5 20 5z"/><g fill="#FFF"><path d="M9.95 14.679l.014-.032.018-.032.026-.027.029-.029.038-.023.041-.02.043-.018.05-.017.055-.009.058-.009.084-.006.076-.005.067-.003h.061l.055.003.053.003.046.002.041.006.041.006.038.006.037.006.035.006.038.005.038.006.041.006.04.003.149-.658-.024-.003-.026-.005-.026-.003-.029-.006-.035-.006-.038-.006-.04-.008-.05-.006-.052-.006-.058-.006-.067-.006-.073-.005-.082-.003-.09-.003-.099-.003h-.107l-.172.003-.157.011-.143.021-.13.026-.117.032-.105.044-.093.046-.084.055-.073.064-.061.073-.052.076-.047.087-.035.093-.029.099-.02.108-.015.113-.003.186.027.157.052.131.073.111.093.09.102.076.11.061.117.052.113.047.113.04.102.044.088.044.072.049.05.058.026.073-.006.084-.012.044-.014.047-.023.046-.029.041-.041.041-.053.032-.066.023-.085.017-.084.003H9.67l-.084-.003-.084-.003-.082-.008-.078-.009-.076-.012-.073-.011-.069-.012-.065-.015-.058-.011-.052-.012-.049-.011-.041-.012-.032-.009-.026-.006-.131.643.049.018.047.017.046.018.05.011.049.015.055.009.056.011.061.006.067.009.07.006.078.005.087.003.096.003h.102l.116.003h.126l.09-.003.096-.006.096-.008.099-.018.102-.023.098-.029.097-.038.093-.044.09-.055.081-.064.076-.073.067-.084.058-.096.046-.111.035-.119.021-.137.011-.183-.011-.157-.029-.131-.047-.11-.061-.091-.073-.072-.081-.061-.087-.05-.094-.038-.095-.035-.097-.032-.093-.029-.087-.032-.081-.037-.07-.044-.058-.055-.029-.038-.024-.038-.011-.038-.009-.038v-.035zm2.737 1.605l-.026.009-.038.012-.046.011-.053.009-.058.006-.064.003-.07-.006-.064-.012-.058-.017-.052-.02-.038-.032-.029-.038-.015-.05.003-.058.28-1.623.511.014.105-.657h-.486l.12-.704h-.806l-.556 3.174-.009.072-.008.067v.064l.003.061.008.056.015.049.02.05.029.04.038.038.05.035.055.029.067.026.078.021.093.017.102.012.117.009h.221l.049-.006.047-.006.043-.006.038-.006.035-.006.035-.005.029-.006.029-.009.026-.009.027-.008.023-.009.02-.009.021-.011.02-.012.02-.012.021-.014.101-.541-.005.003z"/><path d="M15.236 16.168l-.084.035-.081.032-.079.026-.082.017-.079.015-.079.012-.079.006-.076.003h-.077l-.076-.003-.076-.006-.076-.009-.073-.009-.076-.012-.058-.012-.058-.02-.058-.026-.052-.032-.052-.035-.047-.044-.044-.044-.041-.049-.033-.049-.032-.055-.023-.052-.02-.055-.012-.055-.006-.055.003-.052.006-.035h1.888l.014-.177.044-.244.02-.221-.003-.198-.023-.174-.041-.154-.058-.137-.073-.116-.087-.099-.096-.081-.105-.07-.113-.052-.116-.044-.119-.029-.119-.02-.119-.012-.113-.003-.236.012-.211.034-.189.052-.169.073-.145.087-.128.099-.113.111-.093.116-.081.122-.067.128-.052.125-.044.125-.032.122-.023.114-.018.108-.012.093-.015.238.009.215.032.195.049.172.07.154.084.134.099.119.114.099.122.084.131.073.137.055.143.044.145.035.146.02.145.014.143.003h.096l.09-.003h.079l.076-.003.067-.006.061-.006.058-.006.052-.009.049-.009.046-.012.047-.014.044-.015.044-.017.047-.018.047-.023.047-.023.116-.716-.084.049-.084.05zm-1.502-1.181l.012-.061.017-.058.02-.058.026-.052.026-.049.032-.047.035-.044.038-.041.038-.035.044-.032.044-.026.049-.023.049-.017.049-.012.052-.009.055-.003.052.006.049.009.047.012.047.017.044.023.044.026.038.029.035.035.029.041.029.044.02.049.02.055.012.058.006.064.003.07-.006.073h-1.064l.009-.044zm6.662-1.056l.044.02.041.021.038.017.037.021.146-.806-.018-.006-.026-.012-.035-.011-.04-.015-.047-.017-.055-.018-.058-.017-.067-.018-.07-.017-.076-.015-.078-.017-.082-.012-.087-.012-.087-.008-.091-.006-.093-.003-.11.003-.105.006-.105.011-.099.015-.098.017-.094.021-.09.023-.09.029-.084.032-.082.035-.078.038-.079.043-.073.047-.069.05-.067.055-.067.058-.061.061-.059.064-.058.07-.052.073-.052.075-.05.082-.043.084-.044.09-.041.09-.038.096-.037.102-.032.102-.029.108-.03.113-.026.116-.023.12-.032.241-.006.227.012.207.035.195.052.177.07.163.081.145.096.131.108.117.116.101.122.088.128.07.134.058.134.043.134.029.134.015.163.009.148.003.131-.003.113-.006.102-.012.088-.011.075-.015.067-.02.052-.018.047-.02.041-.02.032-.024.026-.017.023-.021.018-.017.017-.015.131-.776-.058.052-.061.047-.067.037-.073.032-.073.024-.072.02-.076.015-.076.008-.072.006h-.14l-.064-.006-.058-.005-.053-.006-.043-.009-.038-.009-.111-.026-.098-.038-.091-.043-.078-.053-.07-.061-.061-.067-.053-.075-.043-.079-.032-.087-.026-.087-.021-.094-.008-.099-.003-.098.005-.102.012-.102.018-.105.046-.186.055-.163.062-.145.063-.128.07-.108.073-.093.076-.076.078-.064.082-.052.081-.041.082-.032.081-.023.081-.015.079-.008.076-.006h.215l.067.006.067.006.061.008.061.012.055.011.055.015.053.018.049.017.05.017zm-15.654-.8l-.951 2.266-.131-2.266H2.284l-.66 3.82h.791l.483-2.854h.044l.005.139.021.332.026.457.029.52.029.518.026.451.021.317.006.12h.893l1.184-2.854h.032l-.501 2.854h.792l.675-3.82zm20.428 1.42h.073l.131-.748-.082.006-.078.008-.073.015-.07.02-.064.024-.061.029-.058.032-.055.035-.053.04-.049.041-.047.047-.046.046-.044.05-.043.055-.044.052-.041.059.088-.527h-.818l-.544 3.116h.82l.294-1.656.012-.064.017-.064.018-.064.023-.064.029-.064.035-.061.038-.058.046-.055.053-.05.058-.046.067-.044.076-.035.084-.029.093-.023.102-.018zm-7.543-.411l.023-.055.029-.055.029-.055.029-.05.027-.043.02-.036.015-.02.005-.009h-.003l-.011-.002-.015-.003-.02-.003h-.02l-.024-.003-.02-.003h-.021l-.09.006-.081.008-.076.015-.07.017-.066.024-.062.029-.055.029-.052.035-.05.038-.046.043-.044.044-.043.049-.044.05-.041.055-.043.058-.044.059.105-.527h-.835l-.544 3.116h.835l.279-1.656.012-.064.014-.061.015-.061.02-.058.023-.058.029-.056.035-.052.041-.049.047-.044.052-.044.064-.035.07-.032.081-.026.09-.023.099-.015.114-.008h.008l.012.003.015.003h.014l.015.002.011.003.009.003h.003l.003-.011.009-.035.011-.053.015-.064.02-.075.021-.082.026-.081zm9.958-.994l-.204 1.143-.018-.035-.023-.035-.026-.038-.029-.038-.035-.038-.038-.038-.044-.038-.047-.035-.052-.032-.058-.032-.058-.026-.067-.023-.07-.02-.076-.015-.081-.009-.084-.003-.119.006-.116.018-.116.026-.116.041-.11.049-.111.064-.108.073-.102.084-.096.096-.09.105-.087.116-.076.131-.073.14-.061.148-.052.163-.044.172-.026.148-.015.148-.003.151.009.148.023.148.032.143.047.137.058.131.07.122.081.108.093.099.105.084.116.067.128.049.14.032.151.012h.058l.058-.003.055-.006.058-.009.058-.009.055-.015.055-.015.055-.02.055-.026.052-.026.052-.032.052-.038.052-.041.049-.046.049-.052.047-.058v.029l-.058.323h.806l.658-3.805h-.788zm-.402 2.114l-.009.084-.015.081-.015.079-.02.079-.023.076-.029.073-.032.07-.038.067-.041.064-.044.058-.049.052-.055.049-.058.044-.061.035-.067.032-.07.02-.076.017-.081.006-.116-.023-.096-.064-.076-.096-.058-.119-.038-.137-.02-.143-.006-.14.015-.128.017-.084.023-.084.023-.079.029-.079.032-.076.038-.07.041-.067.044-.064.049-.055.049-.049.058-.047.058-.038.067-.029.067-.023.073-.012.079-.006.061.006.055.015.052.023.049.035.044.041.038.046.035.055.029.058.023.067.02.07.012.073.009.076.003.081v.08zm-3.889-.608v-.111l-.02-.099-.032-.093-.044-.087-.058-.079-.067-.07L23 14.05l-.081-.055-.087-.049-.09-.041-.09-.035-.093-.026-.09-.02-.087-.015-.081-.006-.101-.003-.099-.003h-.273l-.085.003-.084.003-.081.006-.079.006-.076.012-.073.012-.073.015-.07.015-.067.02-.067.023-.064.026-.204.701.032-.018.041-.02.052-.017.064-.018.07-.015.076-.015.084-.014.087-.012.09-.012.093-.009.093-.009.096-.006.093-.003h.09l.087.003.082.003.07.006.064.018.061.026.052.038.044.044.038.052.023.058.012.064-.006.055-.007.062-.009.052-.006.02h-.011l-.026-.003-.047-.003-.055-.003h-.064l-.067-.003-.07-.003h-.102l-.041.003-.041.003-.047.003-.049.006-.049.003-.052.006-.05.006-.047.006-.044.006-.041.003-.038.006-.029.003-.02.003-.015.003h-.006l-.099.018-.096.026-.096.032-.09.041-.09.047-.084.055-.079.061-.076.067-.067.073-.061.081-.055.084-.044.093-.038.099-.026.102-.018.108-.006.113v.064l.006.064.009.067.012.067.015.064.023.064.026.064.035.061.041.058.047.055.055.052.064.047.076.044.082.038.093.029.105.026.079.012.079.007.081-.003.084-.006.081-.012.081-.015.081-.023.079-.023.073-.029.073-.035.07-.035.061-.038.058-.041.052-.041.044-.044.038-.044-.006.035v.079l-.003.105-.006.119h.73l.119-.646.305-1.536.017-.115zm-1.03.966l-.012.082-.014.084-.012.081-.009.032-.012.035-.015.035-.02.035-.026.038-.032.035-.035.038-.041.032-.047.035-.052.029-.055.026-.064.023-.067.02-.076.015-.081.009-.087.003-.049-.003-.049-.009-.049-.018-.044-.029-.035-.044-.023-.058-.015-.079.003-.099.009-.049.017-.047.02-.044.026-.041.032-.038.032-.032.038-.032.038-.026.038-.026.041-.02.035-.017.038-.017.032-.012.029-.009.023-.009.02-.003.029-.006.038-.009.038-.006.044-.009.044-.006.047-.006.047-.006.047-.006.044-.003h.044l.038.003.032.003.029.009.02.009.012.014.006.017-.009.076zm-13.417-.966v-.111l-.017-.098-.029-.093-.044-.087-.058-.079-.064-.07-.073-.064-.081-.055-.087-.049-.087-.041-.09-.035-.093-.026-.09-.02-.087-.015-.081-.006-.104-.003-.102-.003h-.279l-.087.003-.084.003-.082.006-.079.006-.076.012-.076.012-.07.015-.07.015-.07.02-.064.023-.064.026-.207.701.032-.018.041-.02.052-.017.064-.018.07-.015.076-.015.084-.014.089-.012.09-.012.093-.009.093-.009.096-.006.093-.003h.09l.087.003.081.003.076.006.07.018.061.026.055.038.047.044.035.052.026.058.012.064-.005.056-.015.061-.018.052-.006.02h-.008l-.029-.003-.041-.003-.052-.003h-.064l-.064-.003-.07-.003h-.099l-.041.003-.043.004-.047.003-.047.006-.052.003-.049.006-.049.006-.049.006-.044.006-.041.003-.035.006-.032.001-.02.003-.015.003h-.006l-.102.018-.098.026-.096.032-.093.041-.087.047-.084.055-.081.061-.073.067-.07.073-.061.081-.052.084-.047.093-.038.099-.029.102-.017.108-.009.113v.064l.006.064.007.067.012.067.017.064.023.064.029.064.035.061.041.058.047.055.058.052.064.047.073.044.081.038.093.029.102.026.079.012.081.008.084-.003.084-.006.087-.012.084-.017.084-.02.084-.026.079-.029.076-.035.073-.035.07-.041.061-.041.055-.044.047-.047.041-.047-.012.044-.012.081-.015.108-.02.119h.733l.116-.646.294-1.536.019-.115zm-1.027.969l-.017.093-.02.096-.023.084-.01.033-.014.032-.017.035-.02.035-.023.035-.029.032-.036.034-.038.029-.044.032-.049.026-.055.026-.058.02-.067.018-.076.012-.079.009-.087.003-.047-.003-.047-.009-.049-.018-.044-.029-.038-.044-.029-.058-.014-.078.003-.099.009-.047.017-.046.02-.041.029-.038.032-.035.035-.035.038-.029.041-.029.038-.023.041-.02.038-.02.038-.017.032-.014.032-.012.023-.009.02-.006.032-.009.035-.009.041-.009.044-.006.047-.006.047-.006.049-.006.047-.003h.086l.038.003.032.006.029.006.017.009.012.015.003.014-.015.076z"/></g></svg>