<svg width="18" height="18" viewBox="0 0 18 18" xmlns="http://www.w3.org/2000/svg"><g fill="#FFF" fill-rule="nonzero"><path d="M9.359 12.454a4.76 4.76 0 0 0 2.971 1.027c2.577 0 4.666-2.007 4.666-4.483 0-2.476-2.089-4.482-4.666-4.482A4.763 4.763 0 0 0 9.36 5.543c1.036.823 1.694 2.065 1.694 3.456 0 1.39-.66 2.633-1.694 3.455zm-.725-6.911a4.76 4.76 0 0 0-2.971-1.027C3.086 4.516.997 6.523.997 9c0 2.476 2.089 4.482 4.666 4.482a4.763 4.763 0 0 0 2.971-1.027c-1.036-.823-1.694-2.065-1.694-3.456 0-1.39.66-2.633 1.694-3.455z"/><path d="M8.993 5.649c1.05.794 1.72 2.004 1.72 3.359s-.67 2.565-1.72 3.36c-1.049-.795-1.719-2.005-1.719-3.36s.67-2.565 1.72-3.36z"/></g></svg>