<?xml version="1.0" encoding="UTF-8"?>
<svg width="36px" height="36px" viewBox="0 0 36 36" version="1.1" xmlns="http://www.w3.org/2000/svg" xmlns:xlink="http://www.w3.org/1999/xlink">
    <!-- Generator: Sketch 48.2 (47327) - http://www.bohemiancoding.com/sketch -->
    <title>icon_card-mastercard_xl_white</title>
    <desc>Created with Sketch.</desc>
    <defs></defs>
    <g id="card" stroke="none" stroke-width="1" fill="none" fill-rule="evenodd" transform="translate(-23.000000, -114.000000)">
        <g id="icon_card-mastercard_l_white" transform="translate(24.000000, 122.000000)">
            <g id="Group-2" transform="translate(0.005920, 0.012193)"></g>
            <path d="M17.7736072,17.7001015 C19.4893697,19.1307943 21.6878944,19.9892101 24.0886571,19.9892101 C29.5653973,19.9892101 34.0048513,15.5153493 34.0048513,9.99455811 C34.0048513,4.47376686 29.5653973,0.00158932466 24.0886571,0.00158932466 C21.6911563,0.00158932466 19.4893697,0.860005036 17.7736072,2.29069789 C19.9753937,4.12535108 21.3747514,6.89416254 21.3747514,9.99624127 C21.3747514,13.0966368 19.9721318,15.8671315 17.7736072,17.7001015 Z M16.2339876,2.29069789 C14.5182251,0.860005036 12.3197005,0.00158932466 9.91893767,0.00158932466 C4.44219757,0.00158932466 0.0027435569,4.47545003 0.0027435569,9.99624127 C0.0027435569,15.5170325 4.44219757,19.9892101 9.91893767,19.9892101 C12.3164385,19.9892101 14.5182251,19.1307943 16.2339876,17.7001015 C14.0322011,15.8654483 12.6328434,13.0966368 12.6328434,9.99455811 C12.6328434,6.89416254 14.035463,4.12366791 16.2339876,2.29069789 Z" id="Shape" fill="#FFFFFF" fill-rule="nonzero"></path>
            <path d="M16.9913539,2.51414856 C19.2208666,4.28484136 20.6446886,6.98295976 20.6446886,10.0042464 C20.6446886,13.0255331 19.2208666,15.7236515 16.9913539,17.4943443 C14.7618412,15.7236515 13.3380192,13.0255331 13.3380192,10.0042464 C13.3380192,6.98295976 14.7618412,4.28484136 16.9913539,2.51414856 Z" id="Shape" fill="#FFFFFF" fill-rule="nonzero"></path>
        </g>
    </g>
</svg>