<svg width="48" height="48" viewBox="0 0 48 48" xmlns="http://www.w3.org/2000/svg"><g fill="none" fill-rule="evenodd"><path d="M0 0h48v48H0z"/><path d="M24 13.242a10.425 10.425 0 0 0-4.013 8.226A10.425 10.425 0 0 0 24 29.694a10.425 10.425 0 0 0 4.013-8.226A10.425 10.425 0 0 0 24 13.242zM30.493 11c-2.15 0-4.15.644-5.816 1.75.085.069.172.137.254.209a11.259 11.259 0 0 1 3.895 8.509 11.26 11.26 0 0 1-3.895 8.51c-.082.07-.169.14-.254.209a10.484 10.484 0 0 0 5.816 1.75C36.296 31.936 41 27.25 41 21.467 41 15.687 36.296 11 30.493 11zM23.07 29.977c.082.071.169.14.254.21a10.483 10.483 0 0 1-5.816 1.75C11.704 31.936 7 27.25 7 21.467 7 15.687 11.704 11 17.507 11c2.15 0 4.15.644 5.816 1.75-.085.069-.171.137-.254.209a11.26 11.26 0 0 0-3.895 8.509c0 3.262 1.42 6.364 3.895 8.51zm17.602-2.022v-.406h-.106l-.123.279-.122-.28h-.107v.407h.075v-.307l.115.265h.078l.115-.265v.307h.075zm-.674 0v-.337h.136v-.069h-.347v.069h.136v.337h.075zm.328 9.038v.068h.063a.065.065 0 0 0 .035-.008c.008-.006.013-.015.013-.027a.029.029 0 0 0-.013-.025.067.067 0 0 0-.035-.008h-.063zm.064-.049c.033 0 .058.008.076.023a.073.073 0 0 1 .027.06.071.071 0 0 1-.021.052.106.106 0 0 1-.06.025l.083.097h-.066l-.078-.096h-.025v.096h-.055v-.257h.119zm-.016.345a.21.21 0 0 0 .197-.131.209.209 0 0 0 .017-.084.21.21 0 0 0-.063-.153.21.21 0 0 0-.151-.062.218.218 0 0 0-.155.062.217.217 0 0 0 .07.351.219.219 0 0 0 .085.017zm0-.491a.28.28 0 0 1 .281.276.265.265 0 0 1-.082.194.29.29 0 0 1-.2.082.282.282 0 0 1-.283-.276.265.265 0 0 1 .082-.196.276.276 0 0 1 .202-.08zm-26.026-.988c0-.488.32-.89.846-.89.502 0 .84.385.84.89 0 .507-.338.89-.84.89-.525 0-.846-.401-.846-.89zm2.258 0v-1.39h-.607v.338c-.192-.25-.484-.407-.881-.407-.782 0-1.395.61-1.395 1.46 0 .848.613 1.46 1.395 1.46.397 0 .689-.158.881-.408v.338h.607v-1.39zm20.497 0c0-.488.321-.89.846-.89.502 0 .84.385.84.89 0 .507-.338.89-.84.89-.525 0-.846-.401-.846-.89zm2.259 0v-2.506h-.607v1.454c-.193-.25-.485-.407-.881-.407-.782 0-1.395.61-1.395 1.46 0 .848.613 1.46 1.395 1.46.396 0 .688-.158.88-.408v.338h.608v-1.39zm-15.227-.918c.391 0 .642.244.706.674h-1.447c.064-.4.31-.674.74-.674zm.012-.54c-.817 0-1.39.592-1.39 1.458 0 .884.596 1.46 1.43 1.46.42 0 .806-.105 1.144-.39l-.297-.447a1.33 1.33 0 0 1-.811.29c-.391 0-.747-.18-.835-.68h2.072c.006-.076.012-.15.012-.233-.006-.866-.543-1.459-1.325-1.459zm7.324 1.458c0-.488.321-.89.846-.89.502 0 .84.385.84.89 0 .507-.338.89-.84.89-.525 0-.846-.401-.846-.89zm2.259 0v-1.39h-.607v.338c-.193-.25-.484-.407-.882-.407-.782 0-1.394.61-1.394 1.46 0 .848.612 1.46 1.394 1.46.398 0 .69-.158.882-.408v.338h.607v-1.39zm-5.685 0c0 .844.59 1.46 1.489 1.46.42 0 .7-.093 1.003-.331l-.291-.489c-.228.163-.467.25-.73.25-.484-.006-.84-.355-.84-.89 0-.534.356-.883.84-.89.263 0 .502.088.73.25l.291-.488c-.303-.238-.583-.33-1.003-.33-.9 0-1.489.615-1.489 1.458zm7.82-1.459a.822.822 0 0 0-.734.407v-.337h-.602v2.78h.607v-1.559c0-.46.199-.715.596-.715.122 0 .25.017.379.07l.187-.57a1.301 1.301 0 0 0-.432-.076zm-16.26.29c-.291-.19-.693-.29-1.137-.29-.706 0-1.161.337-1.161.89 0 .453.338.733.962.82l.286.04c.333.047.49.134.49.29 0 .216-.221.338-.635.338-.42 0-.724-.133-.929-.29l-.285.47c.332.245.753.361 1.208.361.805 0 1.272-.378 1.272-.907 0-.488-.368-.744-.975-.832l-.286-.04c-.262-.035-.472-.087-.472-.274 0-.203.198-.325.531-.325.356 0 .7.134.87.238l.262-.488zm7.827-.29a.824.824 0 0 0-.735.407v-.337h-.6v2.78h.606v-1.559c0-.46.199-.715.595-.715.123 0 .251.017.38.07l.186-.57a1.3 1.3 0 0 0-.432-.076zm-5.176.07h-.992v-.843h-.613v.843h-.567v.552h.567v1.268c0 .646.25 1.03.969 1.03.262 0 .566-.082.758-.216l-.175-.518c-.18.105-.38.157-.537.157-.303 0-.402-.185-.402-.465v-1.256h.992v-.552zm-9.07 2.78v-1.745c0-.657-.42-1.1-1.097-1.105-.356-.006-.724.105-.98.494-.193-.308-.497-.494-.923-.494-.297 0-.589.087-.817.413v-.343h-.607v2.78h.613v-1.542c0-.482.269-.738.683-.738.402 0 .607.262.607.732v1.548h.613v-1.542c0-.482.28-.738.682-.738.415 0 .613.262.613.732v1.548h.613z" fill="#FFF"/></g></svg>