<svg width="24" height="25" viewBox="0 0 24 25" xmlns="http://www.w3.org/2000/svg"><g fill="#FFF" fill-rule="nonzero"><path d="M12.52 17.096a6.477 6.477 0 0 0 4.085 1.435c3.543 0 6.415-2.804 6.415-6.265 0-3.46-2.872-6.264-6.415-6.264a6.482 6.482 0 0 0-4.085 1.435c1.424 1.15 2.33 2.886 2.33 4.83s-.908 3.68-2.33 4.83zm-.996-9.659a6.477 6.477 0 0 0-4.086-1.435c-3.543 0-6.414 2.805-6.414 6.265 0 3.46 2.871 6.264 6.414 6.264a6.482 6.482 0 0 0 4.086-1.435c-1.425-1.15-2.33-2.885-2.33-4.83 0-1.943.907-3.68 2.33-4.829z"/><path d="M12.017 7.585c1.443 1.11 2.364 2.801 2.364 4.695 0 1.894-.921 3.585-2.364 4.695-1.442-1.11-2.363-2.801-2.363-4.695 0-1.894.921-3.585 2.363-4.695z"/></g></svg>