<svg xmlns="http://www.w3.org/2000/svg" width="45" height="43" viewBox="0 0 45 43"><g fill="none" fill-rule="evenodd"><path d="M-1-2h48v48H-1z"/><path fill="#0B1F35" d="M34.826 16.106l-.752 3.691h2.285l-.225 1.075h-2.275L33 25h-1.094l.859-4.127h-3.311L28.596 25h-1.084l.85-4.127h-2.236l.225-1.075h2.246l.742-3.691h-2.197l.215-1.066h2.207l.84-4.04h1.084l-.83 4.04h3.311l.84-4.04H35.9l-.85 4.04h2.324l-.225 1.066h-2.323v-.001zm-5.156 3.711H33l.752-3.72h-3.34l-.742 3.72zm-15.768-1.164L13.939 25h-.872l.037-6.347-5.678 3.218L7 21.156l5.715-3.147L7 14.88l.427-.733 5.678 3.218L13.067 11h.872l-.037 6.365 5.678-3.218.427.715-5.715 3.129 5.715 3.147-.427.733z" opacity=".3"/><path fill="#0B1F35" d="M8 42.594V30.886c-5.088-3.335-8-8.2-8-13.386C0 7.851 10.093 0 22.5 0S45 7.851 45 17.5C45 27.149 34.907 35 22.5 35c-1.743 0-3.485-.158-5.183-.469L8 42.594zM22.5 1C10.645 1 1 8.402 1 17.5c0 4.916 2.832 9.542 7.769 12.693L9 30.34v10.066l8.029-6.948.238.045A27.7 27.7 0 0 0 22.5 34C34.355 34 44 26.598 44 17.5 44 8.402 34.355 1 22.5 1z"/></g></svg>