<svg xmlns="http://www.w3.org/2000/svg" width="24" height="23" viewBox="0 0 24 23"><g fill="none" fill-rule="evenodd"><path d="M0-1h24v24H0z"/><path fill="#FFF" d="M17.779 8.765l-.288 1.387h1.03l-.181.941h-1.035L16.92 13h-.947l.391-1.906h-1.27L14.703 13h-.942l.391-1.906h-1.025l.19-.941h1.025l.283-1.387h-1.021l.181-.931h1.025L15.187 6h.938l-.371 1.834h1.27L17.398 6h.947l-.381 1.834H19l-.181.931h-1.04zm-2.558 1.451h1.357l.317-1.514h-1.367l-.307 1.514zm-4.53.604l-.491.87-2.31-1.501L7.992 13h-.984l.102-2.811L4.8 11.69l-.492-.87 2.421-1.31-2.42-1.32.491-.88 2.31 1.53L7.008 6h.983L7.89 8.84l2.31-1.53.492.88L8.27 9.51z" opacity=".3"/><path fill="#FFF" d="M4 23.014v-6.438C1.454 14.772 0 12.207 0 9.5 0 4.262 5.383 0 12 0s12 4.262 12 9.5c0 5.882-6.8 10.585-14.491 9.286L4 23.014zM12 1C5.935 1 1 4.813 1 9.5c0 2.446 1.377 4.778 3.78 6.399l.22.149v4.938l4.25-3.262.218.04C16.627 19.071 23 14.824 23 9.5 23 4.813 18.065 1 12 1z"/></g></svg>