<svg xmlns="http://www.w3.org/2000/svg" width="24" height="24" version="1" viewBox="0 0 24 24"><g fill="#EB923C"><path d="M18.231 16.632c0-.143-.143-.499-.357-.571-.214-.071-.214.143-.143.285.143.357.285.642.357.713s.214-.07.143-.427zm-1.641.357c-.071-.071-.143-.214-.285-.214s-.214 0-.357.071c-.214.143-.285.499-.071.785.071.143.214.214.357.285.143 0 .214 0 .357-.071.213-.214.213-.571-.001-.856z"/><path d="M17.945 19.2c.357.143.785.285 1.213.499 1.07.642 2.14 1.498 2.71 2.639.285.499.214.571.143.642s-.143-.071-.143-.071c-.143-.285-.357-.571-.357-.571-2.71-3.21-6.562-2.853-7.703-2.496-2.996.927-8.203-.071-10.414-3.566C.684 12.21 2.039 6.504 6.462 3.65 10.884.726 16.59 1.796 19.301 6.004c2.14 3.281 1.712 7.489-.642 10.556-.071-.499-.285-.999-.571-1.427 0-.071-.071-.071-.071-.143l-.428-.428c.071-.143.143-.285.143-.428.642-1.997.214-4.494-1.213-6.562-2.282-3.352-6.491-4.708-9.272-2.853s-3.495 6.134-1.427 9.629c1.141 1.926 3.638 3.495 6.419 3.566-.285-.856-.143-1.498-.143-1.498 0 .071.214.357.214.428.214.357.499.642.856.927.642.428 1.284.785 2.068.927 1.071.145 1.855.216 2.711.502z"/><path d="M17.589 14.635s-.927-.999-2.14-.856c0 0 1.141-.428 2.354.428"/></g></svg>