<svg xmlns="http://www.w3.org/2000/svg" width="21" height="21" viewBox="0 0 21 21"><g fill="#FFF"><path d="M15.874 14.061c-.214-.071-.214.143-.143.285.143.357.285.642.357.713.071.071.214-.071.143-.428 0-.142-.143-.498-.357-.57zm-1.569.714c-.143 0-.214 0-.357.071-.214.143-.285.499-.071.785.071.143.214.214.357.285.143 0 .214 0 .357-.071.214-.214.214-.571 0-.856-.072-.072-.144-.214-.286-.214z"/><path d="M17.301 4.004C14.59-.204 8.884-1.274 4.462 1.65.039 4.504-1.316 10.21 1.395 14.275c2.211 3.495 7.418 4.494 10.414 3.566 1.141-.357 4.993-.713 7.703 2.496 0 0 .214.285.357.571 0 0 .071.143.143.071.071-.071.143-.143-.143-.642-.571-1.141-1.641-1.997-2.71-2.639-.428-.214-.856-.357-1.213-.499-.856-.285-1.641-.357-2.71-.499-.785-.143-1.427-.499-2.068-.927-.357-.285-.642-.571-.856-.927 0-.071-.214-.357-.214-.428 0 0-.143.642.143 1.498-2.782-.071-5.278-1.641-6.419-3.566-2.071-3.496-1.357-7.775 1.424-9.63 2.781-1.855 6.99-.499 9.272 2.853 1.427 2.068 1.854 4.565 1.213 6.562 0 .009-.005.017-.005.026-1.183-.785-2.277-.383-2.277-.383 1.213-.143 2.14.856 2.14.856l.024-.048.404.404c0 .071.071.071.071.143.285.428.499.927.571 1.427 2.353-3.066 2.781-7.275.642-10.556z"/></g></svg>