<svg xmlns="http://www.w3.org/2000/svg" width="26" height="27" viewBox="0 0 26 27"><g fill="#FFF"><path d="M20.409 18.079c-.275-.092-.275.183-.183.367.183.459.367.825.459.917.092.092.275-.092.183-.55 0-.184-.183-.642-.459-.734zm-2.017.917c-.183 0-.275 0-.459.092-.275.183-.367.642-.092 1.009.092.183.275.275.458.367.183 0 .275 0 .459-.092.275-.275.275-.734 0-1.1-.091-.093-.183-.276-.366-.276z"/><path d="M22.244 5.148C18.759-.262 11.422-1.638 5.737 2.122.051 5.79-1.692 13.127 1.793 18.354c2.843 4.494 9.537 5.777 13.389 4.585 1.467-.459 6.419-.917 9.904 3.21 0 0 .275.367.459.734 0 0 .092.183.183.092.092-.092.183-.183-.183-.825-.734-1.467-2.109-2.568-3.485-3.393-.55-.275-1.1-.459-1.559-.642-1.1-.367-2.109-.458-3.485-.642-1.009-.183-1.834-.642-2.659-1.192-.459-.367-.825-.734-1.101-1.192 0-.092-.275-.459-.275-.55 0 0-.183.825.183 1.926-3.577-.092-6.786-2.109-8.254-4.585C2.251 11.386 3.168 5.884 6.744 3.5c3.577-2.384 8.987-.642 11.922 3.668 1.834 2.659 2.384 5.869 1.559 8.437 0 .011-.006.022-.007.034-1.521-1.009-2.928-.492-2.928-.492 1.559-.183 2.751 1.1 2.751 1.1l.031-.061.52.52c0 .092.092.092.092.183.367.55.642 1.192.734 1.834 3.026-3.946 3.577-9.356.826-13.575z"/></g></svg>