<svg xmlns="http://www.w3.org/2000/svg" width="24" height="24" viewBox="0 0 24 24"><g fill="none" fill-rule="evenodd"><polygon points="0 0 24 0 24 24 0 24"/><path fill="#0B1F35" fill-rule="nonzero" d="M20.5,22 L3.5,22 C2.11997342,21.9983469 1.00165306,20.8800266 1,19.5 L1,4.5 C1,3.121 2.122,2 3.5,2 L20.5,2 C21.878,2 23,3.121 23,4.5 L23,19.5 C23,20.879 21.878,22 20.5,22 Z M3.5,3 C2.673,3 2,3.673 2,4.5 L2,19.5 C2,20.327 2.673,21 3.5,21 L20.5,21 C21.327,21 22,20.327 22,19.5 L22,4.5 C22,3.673 21.327,3 20.5,3 L3.5,3 Z"/><path fill="#0B1F35" fill-rule="nonzero" d="M14,18 C10.691,18 8,15.309 8,12 C8,8.691 10.691,6 14,6 C17.309,6 20,8.691 20,12 C20,15.309 17.309,18 14,18 Z M14,7 C11.243,7 9,9.243 9,12 C9,14.757 11.243,17 14,17 C16.757,17 19,14.757 19,12 C19,9.243 16.757,7 14,7 Z" opacity=".3"/><circle cx="14" cy="12" r="2" fill="#0B1F35" fill-rule="nonzero" opacity=".3"/><path fill="#0B1F35" fill-rule="nonzero" d="M5,22 L8,22 L8,23 L5,23 L5,22 Z M16,22 L19,22 L19,23 L16,23 L16,22 Z" opacity=".3"/></g></svg>