<svg xmlns="http://www.w3.org/2000/svg" width="22" height="21" viewBox="0 0 22 21"><g fill="none" fill-rule="evenodd" transform="translate(-1 -2)"><path d="M0 0h24v24H0z"/><path fill="#FFF" d="M20.5 22h-17A2.503 2.503 0 0 1 1 19.5v-15C1 3.121 2.122 2 3.5 2h17C21.878 2 23 3.121 23 4.5v15c0 1.379-1.122 2.5-2.5 2.5zM3.5 3C2.673 3 2 3.673 2 4.5v15c0 .827.673 1.5 1.5 1.5h17c.827 0 1.5-.673 1.5-1.5v-15c0-.827-.673-1.5-1.5-1.5h-17z"/><path fill="#FFF" d="M14 18c-3.309 0-6-2.691-6-6s2.691-6 6-6 6 2.691 6 6-2.691 6-6 6zm0-11c-2.757 0-5 2.243-5 5s2.243 5 5 5 5-2.243 5-5-2.243-5-5-5z" opacity=".3"/><circle cx="14" cy="12" r="2" fill="#FFF" opacity=".3"/><path fill="#FFF" d="M5 22h3v1H5zm11 0h3v1h-3z" opacity=".3"/></g></svg>