<svg xmlns="http://www.w3.org/2000/svg" width="44" height="42" viewBox="0 0 44 42"><g fill="none" fill-rule="evenodd" transform="translate(-2 -4)"><path d="M0 0h48v48H0z"/><path fill="#0B1F35" d="M28 34c-6.065 0-11-4.935-11-11s4.935-11 11-11 11 4.935 11 11-4.935 11-11 11zm0-21c-5.514 0-10 4.486-10 10s4.486 10 10 10 10-4.486 10-10-4.486-10-10-10z" opacity=".3"/><circle cx="28" cy="23" r="4" fill="#0B1F35" opacity=".3"/><path fill="#0B1F35" d="M41.5 43h-35A4.505 4.505 0 0 1 2 38.5v-30C2 6.019 4.019 4 6.5 4h35C43.981 4 46 6.019 46 8.5v30c0 2.481-2.019 4.5-4.5 4.5zM6.5 5C4.57 5 3 6.57 3 8.5v30C3 40.43 4.57 42 6.5 42h35c1.93 0 3.5-1.57 3.5-3.5v-30C45 6.57 43.43 5 41.5 5h-35z"/><path fill="#0B1F35" d="M15 46H8v-4h7v4zm-6-1h5v-2H9v2zm30 1h-7v-4h7v4zm-6-1h5v-2h-5v2z"/></g></svg>
