<svg xmlns="http://www.w3.org/2000/svg" width="41" height="43" viewBox="0 0 41 43"><g fill="none" fill-rule="evenodd"><path d="M-4-3h48v48H-4z"/><path fill="#FFF" d="M8.461 37.932c-3.17.209-6.763.446-8.422 4.374l.922.389c1.418-3.359 4.404-3.556 7.565-3.765 3.54-.233 7.493-.51 8.312-6.139 1.343-.106 2.084-.791 2.084-.791l-1.057-1.115c2.206-.363 4.298-1.58 6.105-3.298 1.634 1.724 3.569 2.898 5.356 3.271l-.988.939s.482.382 1.277.583c-.469.996-1.315 1.593-2.255 2.24-1.534 1.055-3.272 2.251-3.272 5.448h1c0-2.672 1.379-3.62 2.839-4.625 1.039-.714 2.168-1.508 2.723-2.948 1.297-.029 2.013-.698 2.013-.698l-.905-.954c4.353-.95 9.209-6.554 9.209-12.801C40.967 11.438 36.761 7 30.5 7c-.685 0-1.353.067-2.002.175C26.355 2.71 22.055 0 16.5 0 8.425 0 3 5.727 3 14.25c0 6.897 5.549 15.522 12.104 16.627L13.922 32s.741.585 1.924.76c-.713 4.729-3.837 4.938-7.385 5.172zM30.5 8c5.751 0 9.467 3.941 9.467 10.042C39.967 24.865 34.224 30 30.5 30c-1.815 0-4.015-1.195-5.834-3.129C27.855 23.469 30 18.531 30 14.25c0-2.259-.391-4.313-1.101-6.124A11.218 11.218 0 0 1 30.5 8zM4 14.25C4 6.201 8.906 1 16.5 1S29 6.201 29 14.25C29 23.236 21.417 30 16.5 30S4 23.236 4 14.25z"/><path fill="#FFF" d="M17.289 7.07l.522.226c.208.079.43.195.667.299.239.102.477.249.724.378.119.074.241.145.367.212.116.081.231.166.352.24.225.171.464.327.66.529.22.174.396.393.591.593.161.232.364.427.504.683.158.239.321.479.443.75.159.246.271.523.39.788.136.255.241.522.34.776.09.254.214.481.29.701.071.219.149.413.216.574.133.323.233.514.233.514l.063.121a1.062 1.062 0 0 0 1.937-.121s.081-.217.181-.61c.051-.196.109-.437.157-.716.063-.279.061-.604.075-.959a4.972 4.972 0 0 0-.051-1.164 6.196 6.196 0 0 0-.284-1.315c-.078-.226-.145-.458-.241-.689l-.346-.685c-.233-.459-.577-.888-.919-1.295a7.235 7.235 0 0 0-1.201-1.059 6.802 6.802 0 0 0-1.333-.735 6.784 6.784 0 0 0-1.317-.408 7.37 7.37 0 0 0-1.186-.143 5.868 5.868 0 0 0-.984.026c-.283.012-.557.078-.764.109-.209.035-.33.098-.433.124l-.148.048a1.06 1.06 0 0 0-.046 2c-.003.001.195.076.541.208z" opacity=".3"/></g></svg>