<svg xmlns="http://www.w3.org/2000/svg" width="33" height="34" viewBox="0 0 33 34"><g fill="none" fill-rule="evenodd"><path d="M-2-1h36v36H-2z"/><path fill="#0B1F35" d="M24.093 6c-.324 0-.645.017-.955.049 0 0-.068.007-.189.029C21.328 2.307 17.931 0 13.5 0 7.22 0 3 4.621 3 11.5c0 5.799 4.696 13.095 10.078 13.465-.156 4.722-2.654 4.852-5.799 4.998-2.53.117-5.398.249-6.705 3.343l.922.389c1.061-2.513 3.377-2.619 5.829-2.732 3.09-.144 6.572-.321 6.751-6.01 1.836-.171 3.587-1.13 5.092-2.569 1.349 1.449 2.928 2.378 4.366 2.574-.213.99-.916 1.434-1.783 1.976-1.185.74-2.658 1.66-2.658 4.317h1c0-2.103 1.014-2.736 2.188-3.469.954-.596 2.014-1.277 2.26-2.817 3.508-.365 7.552-4.92 7.552-10.214 0-5.234-3.215-8.751-8-8.751zM13.5 24C9.763 24 4 18.633 4 11.5 4 5.121 7.729 1 13.5 1S23 5.121 23 11.5c0 7.133-5.763 12.5-9.5 12.5zm10.593 0c-1.292 0-2.892-.89-4.232-2.338C22.336 18.921 24 14.947 24 11.5c0-1.625-.243-3.118-.685-4.46a8.32 8.32 0 0 1 .778-.04c4.252 0 7 3.042 7 7.75 0 5.278-4.246 9.25-7 9.25z"/><path fill="#0B1F35" d="M13.993 5.905c.216.099.554.222.917.397.748.332 1.528.858 2.09 1.499.117.186.288.327.393.528.115.189.242.374.342.582.21.399.405.819.55 1.21.163.383.284.733.382.982.1.248.175.396.175.396l.046.09a.794.794 0 0 0 1.454-.09s.061-.166.135-.467c.076-.3.179-.735.172-1.281.019-.273.01-.569-.047-.889a4.067 4.067 0 0 0-.22-1.003 4.19 4.19 0 0 0-.448-1.048 5.075 5.075 0 0 0-.699-.989 6.41 6.41 0 0 0-.914-.811c-.326-.235-.682-.406-1.018-.56a5.548 5.548 0 0 0-1.911-.427 5.573 5.573 0 0 0-1.337.098c-.298.07-.446.129-.446.129l-.055.022a.793.793 0 0 0 .02 1.478c.002-.001.153.055.419.154z" opacity=".3"/></g></svg>