<svg xmlns="http://www.w3.org/2000/svg" width="36" height="36" viewBox="0 0 36 36"><g fill="none" fill-rule="evenodd"><path d="M0 0h36v36H0z"/><rect width="36" height="36" fill="#EF3124" rx="18"/><path fill="#FFF" d="M19.97 9.849c.14.39 3.378 9.566 3.474 9.841.028.076.01.203-.105.248-.114.045-1.797.722-1.89.758-.093.037-.198-.017-.232-.113-.035-.095-.775-2.341-.854-2.565l-4.643-.02-.928 2.585c-.033.092-.133.154-.232.113l-1.889-.758a.196.196 0 0 1-.107-.248c.12-.344 3.308-9.372 3.472-9.841.315-.91.722-1.849 1.968-1.849 1.247 0 1.639.924 1.966 1.849zm-7.784 14.37c-.103 0-.186.089-.186.198v2.192c0 .11.083.197.186.197h11.63c.102 0 .184-.087.184-.197v-2.192c0-.11-.082-.197-.184-.197h-11.63zm4.174-8.271h3.271l-1.461-4.93h-.381l-1.429 4.93z"/></g></svg>