<svg width="18" height="18" viewBox="0 0 18 18" xmlns="http://www.w3.org/2000/svg">
  <g fill="none" fill-rule="evenodd">
    <path d="M0 0h18v18H0"/>
    <rect fill="#EF3124" fill-rule="nonzero" width="18" height="18" rx="9"/>
    <path d="M9.895 5.57c.064.178 1.537 4.352 1.58 4.477.013.035.005.092-.048.113l-.86.345c-.04.017-.09-.008-.105-.052-.016-.043-.352-1.064-.388-1.166l-2.112-.01-.422 1.176c-.015.042-.06.07-.106.052l-.86-.345c-.042-.02-.064-.068-.047-.113.054-.156 1.504-4.263 1.58-4.476.142-.413.327-.84.894-.84.568 0 .746.42.895.84zm-3.54 6.537c-.047 0-.085.04-.085.09v.997c0 .05.038.09.085.09h5.29c.046 0 .083-.04.083-.09v-.997c0-.05-.037-.09-.084-.09h-5.29zm1.898-3.762H9.74l-.664-2.242h-.173l-.65 2.242z" fill="#FFF" fill-rule="nonzero"/>
  </g>
</svg>
