<svg width="24px" height="24px" viewBox="0 0 24 24" version="1.1" xmlns="http://www.w3.org/2000/svg"><g stroke="none" stroke-width="1" fill="none" fill-rule="evenodd"><polygon points="0 0 24 0 24 24 0 24"/><rect fill="#EF3124" fill-rule="nonzero" x="0" y="0" width="24" height="24" rx="12"/><path d="M7.474,18.111 L16.527,18.111 C16.58,18.111 16.685,18.061 16.685,17.961 L16.685,16.371 C16.685,16.321 16.632,16.222 16.527,16.222 L7.474,16.222 C7.421,16.222 7.316,16.272 7.316,16.372 L7.316,17.962 C7.316,18.012 7.368,18.112 7.474,18.112 L7.474,18.111 Z M10.582,6.347 C10.484,6.671 8.134,12.867 8.036,13.097 C7.987,13.19 8.036,13.282 8.085,13.282 C8.183,13.282 9.456,13.792 9.505,13.792 C9.554,13.792 9.652,13.745 9.652,13.699 C9.652,13.652 10.19,12.265 10.239,12.127 L13.764,12.127 C13.813,12.266 14.351,13.653 14.351,13.699 C14.4,13.791 14.498,13.791 14.547,13.791 C14.645,13.791 15.869,13.282 15.967,13.282 C16.016,13.236 16.016,13.143 16.016,13.097 C15.967,12.912 13.568,6.624 13.47,6.347 C13.225,5.7 12.931,5.052 12.001,5.052 C11.072,5.052 10.778,5.654 10.582,6.347 Z M13.275,10.555 L10.827,10.555 L12.002,7.087 L13.275,10.555 Z" fill="#FFFFFF" fill-rule="nonzero"/></g></svg>