<svg xmlns="http://www.w3.org/2000/svg" width="36" height="36" viewBox="0 0 36 36"><rect fill="none" width="36" height="36"/><circle cx="18" cy="18" r="18" fill="#EF3124" fill-rule="nonzero"/><path fill="#FFF" fill-rule="nonzero" d="M.186 16.219C.083 16.219-1.77635684e-15 16.308-1.77635684e-15 16.417L-1.77635684e-15 18.609C-1.77635684e-15 18.719.083 18.806.186 18.806L11.816 18.806C11.918 18.806 12 18.719 12 18.609L12 16.417C12 16.307 11.918 16.22 11.816 16.22L.186 16.22.186 16.219zM7.97 1.849C8.11 2.239 11.348 11.415 11.444 11.69 11.472 11.766 11.454 11.893 11.339 11.938 11.225 11.983 9.542 12.66 9.449 12.696 9.356 12.733 9.251 12.679 9.217 12.583 9.182 12.488 8.442 10.242 8.363 10.018L3.72 9.998 2.792 12.583C2.759 12.675 2.659 12.737 2.56 12.696L.671 11.938C.574975591 11.8970241.527924321 11.7879707.564 11.69.684 11.346 3.872 2.318 4.036 1.849 4.351.939 4.758-3.55271368e-15 6.004-3.55271368e-15 7.251-3.55271368e-15 7.643.924 7.97 1.849zM4.36 7.948L7.631 7.948 6.17 3.018 5.789 3.018 4.36 7.948z" transform="translate(12 8)"/></svg>