<svg xmlns="http://www.w3.org/2000/svg" width="30" height="30" viewBox="0 0 30 30"><g fill="none" fill-rule="evenodd"><polygon points="0 0 30 0 30 30 0 30"/><path fill="#0B1F35" fill-rule="nonzero" d="M15,28.75 C22.593875,28.75 28.75,22.593875 28.75,15 C28.75,7.4060875 22.593875,1.25 15,1.25 C7.4060875,1.25 1.25,7.4060875 1.25,15 C1.25,22.593875 7.4060875,28.75 15,28.75 Z"/><path fill="#FFF" fill-rule="nonzero" d="M16.250125,16.25 L16.562625,7.5 L13.437625,7.5 L13.750125,16.25 L16.250125,16.25 Z M13.66425,21.955625 C14.01575,22.3085 14.494625,22.50475 14.992625,22.5 C16.062625,22.5 16.875125,21.68625 16.875125,20.625 C16.875125,19.5625 16.061375,18.75 14.992625,18.75 C13.952625,18.75 13.125125,19.5625 13.125125,20.625 C13.118375,21.123 13.31275,21.60275 13.66425,21.955625 Z"/></g></svg>