<svg xmlns="http://www.w3.org/2000/svg" width="48" height="48" viewBox="0 0 48 48"><g fill="none" fill-rule="evenodd"><polygon points="0 0 48 0 48 48 0 48"/><path fill="#0B1F35" fill-rule="nonzero" d="M24,46 C36.1502,46 46,36.1502 46,24 C46,11.84974 36.1502,2 24,2 C11.84974,2 2,11.84974 2,24 C2,36.1502 11.84974,46 24,46 Z"/><path fill="#FFF" fill-rule="nonzero" d="M26.0002,26 L26.5002,12 L21.5002,12 L22.0002,26 L26.0002,26 Z M21.8628,35.129 C22.4252,35.6936 23.1914,36.0076 23.9882,36 C25.7002,36 27.0002,34.698 27.0002,33 C27.0002,31.3 25.6982,30 23.9882,30 C22.3242,30 21.0002,31.3 21.0002,33 C20.9894,33.7968 21.3004,34.5644 21.8628,35.129 Z"/></g></svg>