<svg xmlns="http://www.w3.org/2000/svg" width="18" height="18" viewBox="0 0 18 18"><g fill="none" fill-rule="evenodd"><polygon points="0 0 18 0 18 18 0 18"/><path fill="#EF3124" fill-rule="nonzero" d="M9,17.25 C13.556325,17.25 17.25,13.556325 17.25,9 C17.25,4.4436525 13.556325,0.75 9,0.75 C4.4436525,0.75 0.75,4.4436525 0.75,9 C0.75,13.556325 4.4436525,17.25 9,17.25 Z"/><path fill="#FFF" fill-rule="nonzero" d="M9.750075,9.75 L9.937575,4.5 L8.062575,4.5 L8.250075,9.75 L9.750075,9.75 Z M8.19855,13.173375 C8.40945,13.3851 8.696775,13.50285 8.995575,13.5 C9.637575,13.5 10.125075,13.01175 10.125075,12.375 C10.125075,11.7375 9.636825,11.25 8.995575,11.25 C8.371575,11.25 7.875075,11.7375 7.875075,12.375 C7.871025,12.6738 7.98765,12.96165 8.19855,13.173375 Z"/></g></svg>