<svg xmlns="http://www.w3.org/2000/svg" width="24" height="24" viewBox="0 0 24 24"><g fill="none" fill-rule="evenodd"><polygon points="0 0 24 0 24 24 0 24"/><path fill="#0B1F35" fill-rule="nonzero" d="M12,23 C18.0751,23 23,18.0751 23,12 C23,5.92487 18.0751,1 12,1 C5.92487,1 1,5.92487 1,12 C1,18.0751 5.92487,23 12,23 Z"/><path fill="#FFF" fill-rule="nonzero" d="M13.0001,13 L13.2501,6 L10.7501,6 L11.0001,13 L13.0001,13 Z M10.9314,17.5645 C11.2126,17.8468 11.5957,18.0038 11.9941,18 C12.8501,18 13.5001,17.349 13.5001,16.5 C13.5001,15.65 12.8491,15 11.9941,15 C11.1621,15 10.5001,15.65 10.5001,16.5 C10.4947,16.8984 10.6502,17.2822 10.9314,17.5645 Z"/></g></svg>