<svg xmlns="http://www.w3.org/2000/svg" width="24" height="24" version="1" viewBox="0 0 24 24"><path fill="#0B1F35" d="M20 4h-4v4h1V5.707l.646.646.218.205A7.947 7.947 0 0 1 20 12c0 4.411-3.589 8-8 8-.348 0-.7-.022-1.045-.067l-.128.992c.387.05.782.075 1.173.075 4.963 0 9-4.037 9-9a8.943 8.943 0 0 0-2.637-6.364L17.719 5H20V4zM3 12a8.94 8.94 0 0 0 2.637 6.364l.644.636H4v1h4v-4H7v2.293l-.646-.646-.218-.205A7.942 7.942 0 0 1 4 12c0-4.411 3.589-8 8-8 .348 0 .7.022 1.045.067l.129-.992A9.219 9.219 0 0 0 12 3c-4.962 0-9 4.037-9 9z"/></svg>