<svg xmlns="http://www.w3.org/2000/svg" width="24" height="24" viewBox="0 0 24 24"><path fill="#FFF" fill-rule="evenodd" d="M22 1h-5v5h1V2.623l1.749 1.575A10.927 10.927 0 0 1 23 12.006c0 6.065-4.935 11-11 11a11.2 11.2 0 0 1-.957-.041l-.086.996c.344.029.691.045 1.043.045 6.617 0 12-5.383 12-12 0-3.222-1.26-6.246-3.563-8.533L18.802 2H22V1zM0 11.994c0 3.222 1.26 6.246 3.563 8.533L5.198 22H2v1h5v-5H6v3.377l-1.749-1.575A10.927 10.927 0 0 1 1 11.994c0-6.065 4.935-11 11-11 .322 0 .643.014.957.041l.086-.996A12.397 12.397 0 0 0 12-.006c-6.617 0-12 5.383-12 12z"/></svg>