<svg xmlns="http://www.w3.org/2000/svg" width="30" height="30" version="1" viewBox="0 0 30 30"><path fill="#0B1F35" d="M25 4h-5v5h1V5.623l1.749 1.575A10.927 10.927 0 0 1 26 15.006c0 6.065-4.935 11-11 11a11.2 11.2 0 0 1-.957-.041l-.086.996c.344.029.691.045 1.043.045 6.617 0 12-5.383 12-12 0-3.222-1.26-6.246-3.563-8.533L21.802 5H25V4zM3 14.994c0 3.222 1.26 6.246 3.563 8.533L8.198 25H5v1h5v-5H9v3.377l-1.749-1.575A10.927 10.927 0 0 1 4 14.994c0-6.065 4.935-11 11-11 .322 0 .643.014.957.041l.086-.996A12.397 12.397 0 0 0 15 2.994c-6.617 0-12 5.383-12 12z"/></svg>