<svg xmlns="http://www.w3.org/2000/svg" width="36" height="36" version="1" viewBox="0 0 36 36"><path fill="#0B1F35" d="M18 31a13.08 13.08 0 0 1-1.706-.111l-.131.992c.605.079 1.222.119 1.837.119 7.72 0 14-6.28 14-14 0-3.91-1.652-7.669-4.534-10.315L26.748 7H31V6h-6v6h1V7.668l.775.74v.001l.012.01A13.036 13.036 0 0 1 31 18c0 7.168-5.832 13-13 13zM3.981 18.001c0 3.911 1.652 7.669 4.534 10.314l.718.686H4.981v1h6v-6h-1v4.331l-.775-.741-.012-.01a13.03 13.03 0 0 1-4.213-9.58c0-7.168 5.832-13 13-13 .571 0 1.146.037 1.706.111l.131-.992a14.215 14.215 0 0 0-1.837-.119c-7.719 0-14 6.28-14 14z"/></svg>