<svg xmlns="http://www.w3.org/2000/svg" width="36" height="36" viewBox="0 0 36 36" fill="none"><rect width="36" height="36" fill="none"/><path fill-rule="evenodd" clip-rule="evenodd" d="M10 2H26V8H10V2ZM11 3V7H25V3H11Z" fill="white"/><path fill-rule="evenodd" clip-rule="evenodd" d="M27 4H28C28.5523 4 29 4.44772 29 5V32C29 32.5523 28.5523 33 28 33H8C7.44772 33 7 32.5523 7 32V5C7 4.44772 7.44772 4 8 4H9V3H8C6.89543 3 6 3.89543 6 5V32C6 33.1046 6.89543 34 8 34H28C29.1046 34 30 33.1046 30 32V5C30 3.89543 29.1046 3 28 3H27V4Z" fill="white"/><path d="M26 11H10V22H26V11Z" fill="white" fill-opacity="0.3"/><path d="M26 25H10V30H26V25Z" fill="white" fill-opacity="0.3"/></svg>