<svg xmlns="http://www.w3.org/2000/svg" width="24" height="24" viewBox="0 0 24 24" fill="none"><rect width="24" height="24" fill="none"/><path fill-rule="evenodd" clip-rule="evenodd" d="M7 1H17V5H7V1ZM8 2V4H16V2H8Z" fill="#0B1F35"/><path fill-rule="evenodd" clip-rule="evenodd" d="M18 3C18.5523 3 19 3.44772 19 4V21C19 21.5523 18.5523 22 18 22H6C5.44772 22 5 21.5523 5 21V4C5 3.44772 5.44772 3 6 3V2C4.89543 2 4 2.89543 4 4V21C4 22.1046 4.89543 23 6 23H18C19.1046 23 20 22.1046 20 21V4C20 2.89543 19.1046 2 18 2V3Z" fill="#0B1F35"/><path d="M17 7H7V15H17V7Z" fill="#0B1F35" fill-opacity="0.3"/><path d="M17 17H7V20H17V17Z" fill="#0B1F35" fill-opacity="0.3"/></svg>