<svg xmlns="http://www.w3.org/2000/svg" width="48" height="48" viewBox="0 0 48 48" fill="none"><rect width="48" height="48" fill="none"/><path fill-rule="evenodd" clip-rule="evenodd" d="M13 2H35V10H13V2ZM14 3V9H34V3H14Z" fill="#0B1F35"/><path fill-rule="evenodd" clip-rule="evenodd" d="M36 5H37C38.1046 5 39 5.89543 39 7V43C39 44.1046 38.1046 45 37 45H11C9.89543 45 9 44.1046 9 43V7C9 5.89543 9.89543 5 11 5H12V4H11C9.34315 4 8 5.34315 8 7V43C8 44.6569 9.34315 46 11 46H37C38.6569 46 40 44.6569 40 43V7C40 5.34315 38.6569 4 37 4H36V5Z" fill="#0B1F35"/><path d="M35 14H13V30H35V14Z" fill="#0B1F35" fill-opacity="0.3"/><path d="M35 34H13V40H35V34Z" fill="#0B1F35" fill-opacity="0.3"/></svg>