<svg xmlns="http://www.w3.org/2000/svg" width="30" height="30" version="1" viewBox="0 0 30 30"><path fill="#0B1F35" d="M22 25H8.359c.993-.358 4.096-1.763 4.096-5.329 0-1.309-.357-2.537-.751-3.671H18v-1h-6.661l-.044-.12c-.611-1.621-1.243-3.297-1.243-5.157 0-3.045 2.274-4.937 5.935-4.937 2.004 0 3.694.399 4.598.827v-.778C19.753 4.425 17.981 4 15.927 4 11.747 4 9.15 6.187 9.15 9.708c0 1.882.661 3.646 1.192 5.064l.085.228H6v1h4.792c.475 1.328.793 2.482.793 3.686 0 2.402-1.644 4.302-4.55 5.314H6v1h16v-1z"/></svg>