<svg xmlns="http://www.w3.org/2000/svg" width="16" height="22" viewBox="0 0 16 22"><path fill="#FFF" fill-rule="evenodd" d="M16 21H2.359c.993-.358 4.096-1.763 4.096-5.329 0-1.309-.357-2.537-.751-3.671H12v-1H5.339l-.044-.12c-.611-1.621-1.243-3.297-1.243-5.157 0-3.045 2.274-4.937 5.935-4.937 2.004 0 3.694.399 4.598.827V.835C13.753.425 11.981 0 9.927 0 5.747 0 3.15 2.187 3.15 5.708c0 1.882.661 3.646 1.192 5.064l.085.228H0v1h4.792c.475 1.328.793 2.482.793 3.686 0 2.402-1.644 4.302-4.55 5.314H0v1h16v-1z"/></svg>