<svg xmlns="http://www.w3.org/2000/svg" width="15" height="20" viewBox="0 0 15 20"><path fill="#FFF" fill-rule="evenodd" d="M15 19H2.7l-.04.001a5.037 5.037 0 0 0 3.69-4.773A10.348 10.348 0 0 0 5.741 11H12v-1H5.418l-.054-.136A13.202 13.202 0 0 1 4.25 5.179C4.25 2.462 6.389.706 9.694.706a9.828 9.828 0 0 1 4.155.728V.76a10.36 10.36 0 0 0-4.25-.755c-3.793 0-6.15 1.982-6.15 5.166A12.943 12.943 0 0 0 4.54 9.749c.031.085.06.169.088.251H1v1h3.97c.395 1.032.629 2.11.68 3.224 0 2.369-1.739 4.155-4.9 5.041V20H15v-1z"/></svg>