<svg xmlns="http://www.w3.org/2000/svg" width="19" height="26" viewBox="0 0 19 26"><path fill="#FFF" fill-rule="evenodd" d="M18.816 25.188H2.048v-.071c2.295-.671 5.313-2.453 5.313-6.284 0-1.747-.512-3.389-1.13-5.013h7.961v-.812H5.931c-.759-2.012-1.553-4.042-1.553-6.301 0-3.424 2.418-5.895 7.008-5.895 2.665 0 4.73.565 5.719 1.112v-.865C16.221.6 14.05 0 11.35 0 6.319 0 3.495 2.736 3.495 6.69c0 2.312.759 4.36 1.518 6.319H.777v.812h4.536c.635 1.677 1.2 3.301 1.2 5.013 0 3.707-3.018 5.419-6.513 6.319V26h18.816v-.812z"/></svg>