<svg xmlns="http://www.w3.org/2000/svg" width="24" height="24" version="1" viewBox="0 0 24 24"><path fill="#0B1F35" d="M19 21H6.7l-.04.001a5.037 5.037 0 0 0 3.69-4.773A10.348 10.348 0 0 0 9.741 13H16v-1H9.418l-.054-.136A13.202 13.202 0 0 1 8.25 7.179c0-2.717 2.139-4.473 5.444-4.473a9.828 9.828 0 0 1 4.155.728V2.76a10.36 10.36 0 0 0-4.25-.755c-3.793 0-6.15 1.982-6.15 5.166a12.943 12.943 0 0 0 1.091 4.578c.031.085.06.169.088.251H5v1h3.97c.395 1.032.629 2.11.68 3.224 0 2.369-1.739 4.155-4.9 5.041V22H19v-1z"/></svg>