<svg xmlns="http://www.w3.org/2000/svg" width="36" height="36" version="1" viewBox="0 0 36 36"><path fill="#0B1F35" d="M26.816 30.188H10.048v-.071c2.295-.671 5.313-2.453 5.313-6.284 0-1.747-.512-3.389-1.13-5.013h7.961v-.812h-8.261c-.759-2.012-1.553-4.042-1.553-6.301 0-3.424 2.418-5.895 7.008-5.895 2.665 0 4.73.565 5.719 1.112v-.865C24.221 5.6 22.05 5 19.35 5c-5.031 0-7.855 2.736-7.855 6.69 0 2.312.759 4.36 1.518 6.319H8.777v.812h4.536c.635 1.677 1.2 3.301 1.2 5.013 0 3.707-3.018 5.419-6.513 6.319V31h18.816v-.812z"/></svg>