<svg width="24" height="24" viewBox="0 0 24 24" fill="none" xmlns="http://www.w3.org/2000/svg"><rect width="24" height="24" fill="none"/><path fill-rule="evenodd" clip-rule="evenodd" d="M16.5 2C16.2239 2 16 2.22486 16 2.50224V4L19 6.5V2.50224C19 2.22486 18.7761 2 18.5 2H16.5ZM3 10.4425C3 9.97858 3.21467 9.54076 3.58143 9.25666L11.3876 3.20992C11.7481 2.93068 12.2519 2.93068 12.6124 3.20992L20.4186 9.25666C20.7853 9.54076 21 9.97858 21 10.4425V19.4999C21 20.3283 20.3284 20.9999 19.5 20.9999H4.5C3.67157 20.9999 3 20.3283 3 19.4999V10.4425ZM10 13H14V19H10V13Z" fill="#0B1F35"/></svg>