<svg width="30" height="30" viewBox="0 0 30 30" fill="none" xmlns="http://www.w3.org/2000/svg"><rect width="30" height="30" fill="none"/><path fill-rule="evenodd" clip-rule="evenodd" d="M20.625 2.5C20.2798 2.5 20 2.78108 20 3.1278V5L23.75 8.125V3.1278C23.75 2.78108 23.4702 2.5 23.125 2.5H20.625ZM3.75 12.8692C3.75 12.4053 3.96467 11.9675 4.33143 11.6834L14.3876 3.89376C14.7481 3.61451 15.2519 3.61451 15.6124 3.89376L25.6686 11.6834C26.0353 11.9675 26.25 12.4053 26.25 12.8692V24.7498C26.25 25.5783 25.5784 26.2498 24.75 26.2498H5.25C4.42157 26.2498 3.75 25.5783 3.75 24.7498V12.8692ZM12.5 16.25H17.5V23.75H12.5V16.25Z" fill="#0B1F35"/></svg>