<svg width="18" height="18" viewBox="0 0 18 18" fill="none" xmlns="http://www.w3.org/2000/svg"><rect width="18" height="18" fill="none"/><path fill-rule="evenodd" clip-rule="evenodd" d="M12.375 1.5C12.1679 1.5 12 1.66865 12 1.87668V3L14.25 4.875V1.87668C14.25 1.66865 14.0821 1.5 13.875 1.5H12.375ZM2.25 8.0158C2.25 7.55187 2.46467 7.11405 2.83143 6.82995L8.38762 2.52608C8.74812 2.24684 9.25188 2.24684 9.61238 2.52609L15.1686 6.82995C15.5353 7.11405 15.75 7.55187 15.75 8.0158V14.25C15.75 15.0784 15.0784 15.75 14.25 15.75H3.75C2.92157 15.75 2.25 15.0784 2.25 14.25V8.0158ZM7.5 9.75H10.5V14.25H7.5V9.75Z" fill="#0B1F35"/></svg>