<svg width="48" height="48" viewBox="0 0 48 48" fill="none" xmlns="http://www.w3.org/2000/svg"><rect width="48" height="48" fill="none"/><path fill-rule="evenodd" clip-rule="evenodd" d="M33 4C32.4477 4 32 4.44972 32 5.00449V8L38 13V5.00449C38 4.44972 37.5523 4 37 4H33ZM6 20.1493C6 19.6854 6.21467 19.2476 6.58143 18.9635L23.3876 5.94528C23.7481 5.66603 24.2519 5.66603 24.6124 5.94527L41.4186 18.9635C41.7853 19.2476 42 19.6854 42 20.1493V40.4996C42 41.328 41.3284 41.9996 40.5 41.9996H7.5C6.67157 41.9996 6 41.328 6 40.4996V20.1493ZM20 26H28V38H20V26Z" fill="#0B1F35"/></svg>