<svg width="36" height="36" viewBox="0 0 36 36" fill="none" xmlns="http://www.w3.org/2000/svg"><rect width="36" height="36" fill="none"/><path fill-rule="evenodd" clip-rule="evenodd" d="M24.75 3C24.3358 3 24 3.33729 24 3.75337V6L28.5 9.75V3.75337C28.5 3.33729 28.1642 3 27.75 3H24.75ZM4.5 15.2959C4.5 14.832 4.71467 14.3942 5.08143 14.1101L17.3876 4.5776C17.7481 4.29835 18.2519 4.29835 18.6124 4.5776L30.9186 14.1101C31.2853 14.3942 31.5 14.832 31.5 15.2959V29.9998C31.5 30.8282 30.8284 31.4998 30 31.4998H6C5.17157 31.4998 4.5 30.8282 4.5 29.9998V15.2959ZM15 19.5H21V28.5H15V19.5Z" fill="#0B1F35"/></svg>