<svg xmlns="http://www.w3.org/2000/svg" width="36" height="36" viewBox="0 0 36 36"><g fill="none" fill-rule="evenodd"><polygon points="0 0 36 0 36 36 0 36"/><path fill="#0B1F35" fill-rule="nonzero" d="M8,2 C6.8954305,2 6,2.8954305 6,4 L6,31 C6,32.1045695 6.8954305,33 8,33 L29,33 C30.1045695,33 31,32.1045695 31,31 L31,4 C31,2.8954305 30.1045695,2 29,2 L8,2 Z M8,1 L29,1 C30.6568542,1 32,2.34314575 32,4 L32,31 C32,32.6568542 30.6568542,34 29,34 L8,34 C6.34314575,34 5,32.6568542 5,31 L5,4 C5,2.34314575 6.34314575,1 8,1 Z"/><path fill="#0B1F35" d="M10 13L25 13 25 16 10 16 10 13zM10 7L20.5 7 20.5 10 10 10 10 7zM10 19L16 19 16 22 10 22 10 19zM21.6 26.0717163C20.6284426 25.3549827 20 24.2138569 20 22.9285714 20 20.7588813 21.790861 19 24 19 26.209139 19 28 20.7588813 28 22.9285714 28 24.2138569 27.3715574 25.3549827 26.4 26.0717163L26.4 30 24 28.3647858 21.6 30 21.6 26.0717163z" opacity=".3"/></g></svg>