<svg xmlns="http://www.w3.org/2000/svg" width="48" height="48" viewBox="0 0 48 48"><g fill="none" fill-rule="evenodd"><polygon points="0 0 48 0 48 48 0 48"/><path fill="#0B1F35" fill-rule="nonzero" d="M10,3 C8.34314575,3 7,4.34314575 7,6 L7,42 C7,43.6568542 8.34314575,45 10,45 L38,45 C39.6568542,45 41,43.6568542 41,42 L41,6 C41,4.34314575 39.6568542,3 38,3 L10,3 Z M10,2 L38,2 C40.209139,2 42,3.790861 42,6 L42,42 C42,44.209139 40.209139,46 38,46 L10,46 C7.790861,46 6,44.209139 6,42 L6,6 C6,3.790861 7.790861,2 10,2 Z"/><path fill="#0B1F35" d="M14 18L34 18 34 22 14 22 14 18zM14 10L28 10 28 14 14 14 14 10zM14 26L22 26 22 30 14 30 14 26zM28 35.0003662C26.7855533 34.0881599 26 32.6358178 26 31 26 28.2385763 28.2385763 26 31 26 33.7614237 26 36 28.2385763 36 31 36 32.6358178 35.2144467 34.0881599 34 35.0003662L34 40 31 37.9188183 28 40 28 35.0003662z" opacity=".3"/></g></svg>