<svg xmlns="http://www.w3.org/2000/svg" width="24" height="24" viewBox="0 0 24 24"><g fill="none" fill-rule="evenodd"><polygon points="0 0 24 0 24 24 0 24"/><path fill="#0B1F35" fill-rule="nonzero" d="M5,2 C4.44771525,2 4,2.44771525 4,3 L4,21 C4,21.5522847 4.44771525,22 5,22 L19,22 C19.5522847,22 20,21.5522847 20,21 L20,3 C20,2.44771525 19.5522847,2 19,2 L5,2 Z M5,1 L19,1 C20.1045695,1 21,1.8954305 21,3 L21,21 C21,22.1045695 20.1045695,23 19,23 L5,23 C3.8954305,23 3,22.1045695 3,21 L3,3 C3,1.8954305 3.8954305,1 5,1 Z"/><path fill="#0B1F35" d="M7 9.113L17 9.113 17 11.113 7 11.113 7 9.113zM7 5.113L14 5.113 14 7.113 7 7.113 7 5.113zM7 13.113L11 13.113 11 15.113 7 15.113 7 13.113zM14 17.5001831C13.3927766 17.0440799 13 16.3179089 13 15.5 13 14.1192881 14.1192881 13 15.5 13 16.8807119 13 18 14.1192881 18 15.5 18 16.3179089 17.6072234 17.0440799 17 17.5001831L17 20 15.5 18.9594092 14 20 14 17.5001831z" opacity=".3"/></g></svg>