<svg width="36" height="36" viewBox="0 0 36 36" xmlns="http://www.w3.org/2000/svg"><g fill="none" fill-rule="evenodd"><path d="M0 0h36v36H0z"/><path d="M26.021 3A9.919 9.919 0 0 0 18 7.056 9.919 9.919 0 0 0 9.979 3C4.477 3 0 7.477 0 12.979c0 .383.027.78.085 1.244.849 7.643 9.299 13.868 17.88 19.589l.277.185.277-.185c7.999-5.332 16.6-11.688 17.401-19.635.055-.438.08-.829.08-1.198C36 7.477 31.523 3 26.021 3zm8.907 11.068c-.715 7.086-8.407 13.188-16.685 18.727-8.289-5.538-16.371-11.546-17.164-18.69A8.866 8.866 0 0 1 1 12.979C1 8.028 5.028 4 9.979 4a8.935 8.935 0 0 1 7.598 4.21l.423.672.423-.672A8.935 8.935 0 0 1 26.021 4C30.972 4 35 8.028 35 12.979c0 .328-.023.681-.072 1.089z" fill="#0B1F35"/><path d="M25.953 27.525c-3.473-1.429-5.803-1.597-6.32-4.025C21.56 22.452 23 19.947 23 17.5c0-3.065-1.404-5.5-5-5.5s-5 2.435-5 5.5c0 2.447 1.44 4.952 3.367 6-.516 2.426-2.844 2.596-6.313 4.023 2.552 2.049 5.379 4 8.189 5.874 2.757-1.838 5.481-3.751 7.929-5.757-.075-.036-.14-.082-.219-.115z" fill="#0B1F35" opacity=".3"/></g></svg>