<svg xmlns="http://www.w3.org/2000/svg" width="46" height="40" viewBox="0 0 46 40"><g fill="none" fill-rule="evenodd"><path d="M-1-5h48v48H-1z"/><path d="M33.313.5c-4.349 0-8.156 2.285-10.312 5.713C20.843 2.785 17.037.5 12.688.5 5.957.5.5 5.957.5 12.688c0 .519.043 1.027.106 1.528.708 6.369 5.746 12.016 12.17 17.173 4.465-1.837 7.463-2.346 8.126-5.469-2.479-1.347-3.772-4.999-3.772-8.146 0-3.94 1.246-6.514 5.87-6.514 4.624 0 5.87 2.574 5.87 6.514 0 3.147-1.293 6.799-3.772 8.146.663 3.123 3.662 3.631 8.127 5.469.102.042.185.1.282.148 6.363-5.215 11.246-10.928 11.897-17.386.058-.481.096-.968.096-1.464C45.5 5.957 40.044.5 33.313.5z"/><path fill="#0B1F35" d="M33.312 0A12.613 12.613 0 0 0 23 5.316 12.613 12.613 0 0 0 12.688 0C5.691 0 0 5.691 0 12.688c0 .488.035.994.109 1.585 1.085 9.766 11.921 17.745 22.926 25.082l.277.185.277-.185C33.847 32.517 44.875 24.37 45.9 14.212c.067-.561.1-1.06.1-1.524C46 5.691 40.309 0 33.312 0zm11.594 14.103c-.927 9.192-10.892 17.08-21.594 24.234-10.713-7.154-21.18-14.917-22.21-24.183C1.032 13.6 1 13.134 1 12.688 1 6.243 6.243 1 12.688 1c4.034 0 7.731 2.049 9.889 5.48l.423.673.423-.673C25.582 3.049 29.279 1 33.312 1 39.757 1 45 6.243 45 12.688c0 .43-.029.876-.094 1.415z"/><path fill="#0B1F35" d="M33.225 31.39c-4.465-1.838-7.464-2.346-8.127-5.469 2.479-1.347 3.772-4.999 3.772-8.146 0-3.94-1.246-6.514-5.87-6.514-4.624 0-5.87 2.574-5.87 6.514 0 3.147 1.293 6.799 3.772 8.146-.663 3.123-3.662 3.631-8.126 5.469 3.281 2.634 6.923 5.14 10.536 7.549 3.544-2.363 7.047-4.822 10.194-7.401-.096-.048-.179-.106-.281-.148z" opacity=".3"/></g></svg>