<svg width="24" height="24" viewBox="0 0 24 24" xmlns="http://www.w3.org/2000/svg"><g fill="none" fill-rule="evenodd"><path d="M0 0h24v24H0z"/><path d="M17.271 2A6.683 6.683 0 0 0 12 4.555 6.683 6.683 0 0 0 6.729 2 6.737 6.737 0 0 0 0 8.729c0 .286.023.566.057.837.566 5.094 6.152 9.213 11.825 12.996l.277.185.277-.185c5.289-3.526 10.977-7.733 11.51-13.025.033-.266.054-.533.054-.808A6.737 6.737 0 0 0 17.271 2zm5.682 7.428c-.46 4.559-5.425 8.517-10.793 12.117C6.78 17.944 1.562 14.043 1.05 9.448A5.878 5.878 0 0 1 1 8.729 5.735 5.735 0 0 1 6.729 3a5.699 5.699 0 0 1 4.847 2.687l.424.671.423-.672A5.703 5.703 0 0 1 17.271 3 5.735 5.735 0 0 1 23 8.729c0 .234-.019.462-.047.699z" fill="#0B1F35"/><path d="M17.226 18.288c-2.282-.939-3.814-1.2-4.153-2.796C14.339 14.803 15 12.937 15 11.329 15 9.315 14.363 8 12 8s-3 1.315-3 3.329c0 1.608.661 3.474 1.927 4.163-.339 1.594-1.869 1.857-4.148 2.794 1.677 1.346 3.534 2.629 5.381 3.86 1.812-1.208 3.602-2.465 5.21-3.783-.049-.024-.092-.053-.144-.075z" fill="#0B1F35" opacity=".3"/></g></svg>