<svg xmlns="http://www.w3.org/2000/svg" width="24" height="24" viewBox="0 0 24 24"><path fill="none" d="M0 0h24v24H0z"/><path fill="#fff" d="M13.07 15.49c1.27-.69 1.93-2.55 1.93-4.16 0-2-.64-3.33-3-3.33s-3 1.32-3 3.33c0 1.61.66 3.47 1.93 4.16-.34 1.59-1.87 1.86-4.15 2.79 1.68 1.35 3.53 2.63 5.38 3.86 1.81-1.21 3.6-2.46 5.21-3.78l-.14-.08c-2.29-.93-3.82-1.19-4.16-2.79z" opacity=".3"/><path fill="#fff" d="M12.16 22.75l-.28-.18C6.21 18.78.62 14.66.06 9.57A6.69 6.69 0 0 1 6.73 2 6.68 6.68 0 0 1 12 4.55a6.72 6.72 0 0 1 12 4.18 6.78 6.78 0 0 1-.05.81c-.53 5.29-6.22 9.5-11.51 13zM6.73 3a5.69 5.69 0 0 0-5.68 6.45c.51 4.59 5.73 8.5 11.11 12.1C17.53 17.94 22.49 14 23 9.43a5.93 5.93 0 0 0 0-.7 5.72 5.72 0 0 0-10.58-3l-.42.63-.42-.67A5.7 5.7 0 0 0 6.73 3z"/></svg>