<svg width="48" height="48" viewBox="0 0 48 48" xmlns="http://www.w3.org/2000/svg"><g fill="none" fill-rule="evenodd"><path d="M0 0h48v48H0z"/><path d="M34.313 5.5c-4.349 0-8.156 2.285-10.312 5.713C21.843 7.785 18.037 5.5 13.688 5.5 6.957 5.5 1.5 10.957 1.5 17.688c0 .519.043 1.027.106 1.528.708 6.369 5.746 12.016 12.17 17.173 4.465-1.837 7.463-2.346 8.126-5.469-2.479-1.347-3.772-4.999-3.772-8.146 0-3.94 1.246-6.514 5.87-6.514 4.624 0 5.87 2.574 5.87 6.514 0 3.147-1.293 6.799-3.772 8.146.663 3.123 3.662 3.631 8.127 5.469.102.042.185.1.282.148 6.363-5.215 11.246-10.928 11.897-17.386.058-.481.096-.968.096-1.464 0-6.73-5.456-12.187-12.187-12.187z"/><path d="M34.312 5A12.613 12.613 0 0 0 24 10.316 12.613 12.613 0 0 0 13.688 5C6.691 5 1 10.691 1 17.688c0 .488.035.994.109 1.585 1.085 9.766 11.921 17.745 22.926 25.082l.277.185.277-.185C34.847 37.517 45.875 29.37 46.9 19.212c.067-.561.1-1.06.1-1.524C47 10.691 41.309 5 34.312 5zm11.594 14.103c-.927 9.192-10.892 17.08-21.594 24.234-10.713-7.154-21.18-14.917-22.21-24.183C2.032 18.6 2 18.134 2 17.688 2 11.243 7.243 6 13.688 6c4.034 0 7.731 2.049 9.889 5.48l.423.673.423-.673C26.582 8.049 30.279 6 34.312 6 40.757 6 46 11.243 46 17.688c0 .43-.029.876-.094 1.415z" fill="#FFF"/><path d="M34.225 36.39c-4.465-1.838-7.464-2.346-8.127-5.469 2.479-1.347 3.772-4.999 3.772-8.146 0-3.94-1.246-6.514-5.87-6.514-4.624 0-5.87 2.574-5.87 6.514 0 3.147 1.293 6.799 3.772 8.146-.663 3.123-3.662 3.631-8.126 5.469 3.281 2.634 6.923 5.14 10.536 7.549 3.544-2.363 7.047-4.822 10.194-7.401-.096-.048-.179-.106-.281-.148z" fill="#FFF" opacity=".3"/></g></svg>