<?xml version="1.0" encoding="UTF-8"?>
<svg width="48px" height="48px" viewBox="0 0 48 48" version="1.1" xmlns="http://www.w3.org/2000/svg" xmlns:xlink="http://www.w3.org/1999/xlink">
    <!-- Generator: Sketch 48.2 (47327) - http://www.bohemiancoding.com/sketch -->
    <title>icon_category_family_xxl_white</title>
    <desc>Created with Sketch.</desc>
    <defs></defs>
    <g id="mobile" stroke="none" stroke-width="1" fill="none" fill-rule="evenodd" transform="translate(-1159.000000, -354.000000)">
        <g id="Headings" transform="translate(64.000000, 77.000000)">
            <g id="icon_category_family__xxl__white" transform="translate(1095.000000, 277.000000)">
                <g id="ungroup">
                    <rect id="Rectangle-path" x="0" y="0" width="48" height="48"></rect>
                    <g id="a1" opacity="0.4"></g>
                    <path d="M34.313,5.5 C29.964,5.5 26.157,7.785 24.001,11.213 C21.843,7.785 18.037,5.5 13.688,5.5 C6.957,5.5 1.5,10.957 1.5,17.688 C1.5,18.207 1.543,18.715 1.606,19.216 C2.314,25.585 7.352,31.232 13.776,36.389 C18.241,34.552 21.239,34.043 21.902,30.92 C19.423,29.573 18.13,25.921 18.13,22.774 C18.13,18.834 19.376,16.26 24,16.26 C28.624,16.26 29.87,18.834 29.87,22.774 C29.87,25.921 28.577,29.573 26.098,30.92 C26.761,34.043 29.76,34.551 34.225,36.389 C34.327,36.431 34.41,36.489 34.507,36.537 C40.87,31.322 45.753,25.609 46.404,19.151 C46.462,18.67 46.5,18.183 46.5,17.687 C46.5,10.957 41.044,5.5 34.313,5.5 L34.313,5.5 Z" id="Shape"></path>
                    <path d="M34.312,5 C30.186,5 26.385,6.974 24,10.316 C21.615,6.974 17.814,5 13.688,5 C6.691,5 1,10.691 1,17.688 C1,18.176 1.035,18.682 1.109,19.273 C2.194,29.039 13.03,37.018 24.035,44.355 L24.312,44.54 L24.589,44.355 C34.847,37.517 45.875,29.37 46.9,19.212 C46.967,18.651 47,18.152 47,17.688 C47,10.691 41.309,5 34.312,5 L34.312,5 Z M45.906,19.103 C44.979,28.295 35.014,36.183 24.312,43.337 C13.599,36.183 3.132,28.42 2.102,19.154 C2.032,18.6 2,18.134 2,17.688 C2,11.243 7.243,6 13.688,6 C17.722,6 21.419,8.049 23.577,11.48 L24,12.153 L24.423,11.48 C26.582,8.049 30.279,6 34.312,6 C40.757,6 46,11.243 46,17.688 C46,18.118 45.971,18.564 45.906,19.103 L45.906,19.103 Z" id="Shape" fill="#FFFFFF"></path>
                    <path d="M34.225,36.39 C29.76,34.552 26.761,34.044 26.098,30.921 C28.577,29.574 29.87,25.922 29.87,22.775 C29.87,18.835 28.624,16.261 24,16.261 C19.376,16.261 18.13,18.835 18.13,22.775 C18.13,25.922 19.423,29.574 21.902,30.921 C21.239,34.044 18.24,34.552 13.776,36.39 C17.057,39.024 20.699,41.53 24.312,43.939 C27.856,41.576 31.359,39.117 34.506,36.538 C34.41,36.49 34.327,36.432 34.225,36.39 L34.225,36.39 Z" id="Shape" fill="#FFFFFF" opacity="0.3"></path>
                </g>
            </g>
        </g>
    </g>
</svg>