<?xml version="1.0" encoding="UTF-8"?>
<svg width="24px" height="24px" viewBox="0 0 24 24" version="1.1" xmlns="http://www.w3.org/2000/svg" xmlns:xlink="http://www.w3.org/1999/xlink">
    <!-- Generator: Sketch 48.2 (47327) - http://www.bohemiancoding.com/sketch -->
    <title>icon_category_family_m_black</title>
    <desc>Created with Sketch.</desc>
    <defs></defs>
    <g id="mobile" stroke="none" stroke-width="1" fill="none" fill-rule="evenodd" transform="translate(-1019.000000, -354.000000)">
        <g id="Headings" transform="translate(64.000000, 77.000000)">
            <g id="icon_category_family__m__white" transform="translate(955.000000, 277.000000)">
                <g id="ungroup">
                    <rect id="Rectangle-path" x="0" y="0" width="24" height="24"></rect>
                    <g id="a1" opacity="0.4"></g>
                    <path d="M17.271,2 C15.194,2 13.272,2.942 12,4.555 C10.728,2.942 8.806,2 6.729,2 C3.019,2 0,5.019 0,8.729 C0,9.015 0.023,9.295 0.057,9.566 C0.623,14.66 6.209,18.779 11.882,22.562 L12.159,22.747 L12.436,22.562 C17.725,19.036 23.413,14.829 23.946,9.537 C23.979,9.271 24,9.004 24,8.729 C24,5.019 20.981,2 17.271,2 L17.271,2 Z M22.953,9.428 C22.493,13.987 17.528,17.945 12.16,21.545 C6.78,17.944 1.562,14.043 1.05,9.448 C1.021,9.212 1,8.973 1,8.729 C1,5.57 3.57,3 6.729,3 C8.706,3 10.518,4.004 11.576,5.687 L12,6.358 L12.423,5.686 C13.482,4.004 15.294,3 17.271,3 C20.43,3 23,5.57 23,8.729 C23,8.963 22.981,9.191 22.953,9.428 L22.953,9.428 Z" id="Shape" fill="#0B1F35"></path>
                    <path d="M17.226,18.288 C14.944,17.349 13.412,17.088 13.073,15.492 C14.339,14.803 15,12.937 15,11.329 C15,9.315 14.363,8 12,8 C9.637,8 9,9.315 9,11.329 C9,12.937 9.661,14.803 10.927,15.492 C10.588,17.086 9.058,17.349 6.779,18.286 C8.456,19.632 10.313,20.915 12.16,22.146 C13.972,20.938 15.762,19.681 17.37,18.363 C17.321,18.339 17.278,18.31 17.226,18.288 L17.226,18.288 Z" id="Shape" fill="#0B1F35" opacity="0.3"></path>
                </g>
            </g>
        </g>
    </g>
</svg>