<?xml version="1.0" encoding="UTF-8"?>
<svg width="36px" height="36px" viewBox="0 0 36 36" version="1.1" xmlns="http://www.w3.org/2000/svg" xmlns:xlink="http://www.w3.org/1999/xlink">
    <!-- Generator: Sketch 48.2 (47327) - http://www.bohemiancoding.com/sketch -->
    <title>icon_category_family_xl_white</title>
    <desc>Created with Sketch.</desc>
    <defs></defs>
    <g id="mobile" stroke="none" stroke-width="1" fill="none" fill-rule="evenodd" transform="translate(-1083.000000, -354.000000)">
        <g id="Headings" transform="translate(64.000000, 77.000000)">
            <g id="icon_category_family__xl__white" transform="translate(1019.000000, 277.000000)">
                <g id="ungroup">
                    <rect id="Rectangle-path" x="0" y="0" width="36" height="36"></rect>
                    <g id="a1" opacity="0.4"></g>
                    <path d="M26.021,3 C22.827,3 19.881,4.503 18,7.056 C16.119,4.503 13.173,3 9.979,3 C4.477,3 0,7.477 0,12.979 C0,13.362 0.027,13.759 0.085,14.223 C0.934,21.866 9.384,28.091 17.965,33.812 L18.242,33.997 L18.519,33.812 C26.518,28.48 35.119,22.124 35.92,14.177 C35.975,13.739 36,13.348 36,12.979 C36,7.477 31.523,3 26.021,3 L26.021,3 Z M34.928,14.068 C34.213,21.154 26.521,27.256 18.243,32.795 C9.954,27.257 1.872,21.249 1.079,14.105 C1.025,13.678 1,13.319 1,12.979 C1,8.028 5.028,4 9.979,4 C13.078,4 15.918,5.573 17.577,8.21 L18,8.882 L18.423,8.21 C20.082,5.573 22.922,4 26.021,4 C30.972,4 35,8.028 35,12.979 C35,13.307 34.977,13.66 34.928,14.068 L34.928,14.068 Z" id="Shape" fill="#FFFFFF"></path>
                    <path d="M25.953,27.525 C22.48,26.096 20.15,25.928 19.633,23.5 C21.56,22.452 23,19.947 23,17.5 C23,14.435 21.596,12 18,12 C14.404,12 13,14.435 13,17.5 C13,19.947 14.44,22.452 16.367,23.5 C15.851,25.926 13.523,26.096 10.054,27.523 C12.606,29.572 15.433,31.523 18.243,33.397 C21,31.559 23.724,29.646 26.172,27.64 C26.097,27.604 26.032,27.558 25.953,27.525 L25.953,27.525 Z" id="Shape" fill="#FFFFFF" opacity="0.3"></path>
                </g>
            </g>
        </g>
    </g>
</svg>