<svg xmlns="http://www.w3.org/2000/svg" width="36" height="36" viewBox="0 0 36 36"><path fill="none" d="M0 0h36v36H0z"/><path fill="#fff" d="M19.63 23.5a7.11 7.11 0 0 0 3.37-6c0-3.06-1.4-5.5-5-5.5s-5 2.44-5 5.5a7.11 7.11 0 0 0 3.37 6c-.52 2.43-2.84 2.6-6.31 4 2.55 2 5.38 4 8.19 5.87 2.76-1.84 5.48-3.75 7.93-5.76l-.18-.08c-3.52-1.43-5.85-1.6-6.37-4.03z" opacity=".3"/><path fill="#fff" d="M18.24 34l-.24-.19C9.38 28.09.93 21.87.09 14.22A9.87 9.87 0 0 1 0 13a10 10 0 0 1 18-5.94 10 10 0 0 1 17.92 7.12c-.8 7.95-9.4 14.3-17.4 19.63zM10 4a8.92 8.92 0 0 0-8.9 10.11c.77 7.14 8.9 13.15 17.14 18.68 8.28-5.54 16-11.64 16.68-18.73A9.13 9.13 0 0 0 35 13a9 9 0 0 0-16.58-4.79l-.42.67-.42-.67A8.93 8.93 0 0 0 10 4z"/></svg>