<svg xmlns="http://www.w3.org/2000/svg" width="36" height="36" viewBox="0 0 36 36"><g fill="#FFF" fill-rule="evenodd"><path fill-rule="nonzero" d="M5.474 9L8.2 6.274l-.707-.707-3.938 3.939.004.004 3.939 3.939.707-.707L5.463 10h18.55V9H5.474zm25.042 17l-2.725-2.726.707-.707 3.938 3.939-.005.004-3.938 3.939-.707-.707L30.528 27H12.007v-1h18.51zm.497.496v.019l.009-.01-.01-.009z"/><circle cx="6.5" cy="26.5" r="2.5" opacity=".3" transform="matrix(-1 0 0 1 13 0)"/><circle cx="29.5" cy="9.5" r="2.5" opacity=".3" transform="matrix(-1 0 0 1 59 0)"/></g></svg>