<svg xmlns="http://www.w3.org/2000/svg" width="24" height="24" viewBox="0 0 24 24"><g fill="none" fill-rule="evenodd"><path d="M0 0h24v24H0z"/><path fill="#0B1F35" d="M3.5 14A2.503 2.503 0 0 1 1 11.5v-8C1 2.122 2.121 1 3.5 1h13C17.879 1 19 2.122 19 3.5V7h-1V3.5c0-.827-.673-1.5-1.5-1.5h-13C2.673 2 2 2.673 2 3.5v8c0 .827.673 1.5 1.5 1.5H6v1H3.5z"/><path fill="#0B1F35" d="M1.5 5h17v2h-17zM15 16l4-6.928A7.999 7.999 0 0 1 23 16h-8z" opacity=".3"/><path fill="#0B1F35" d="M15.497 23c-4.136 0-7.5-3.364-7.5-7.5s3.364-7.5 7.5-7.5v1a6.508 6.508 0 0 0-6.5 6.5c0 3.584 2.916 6.5 6.5 6.5 2.921 0 5.498-1.983 6.269-4.822l.965.262c-.888 3.274-3.863 5.56-7.234 5.56z"/><path fill="#0B1F35" d="M17.175 9.231A6.44 6.44 0 0 0 15.497 9V8c.636 0 1.288.089 1.939.266l-.261.965z"/></g></svg>