<svg xmlns="http://www.w3.org/2000/svg" width="36" height="36" version="1" viewBox="0 0 36 36"><path fill="#0B1F35" d="M18.438 32C19.826 32 21 30.855 21 29.5V23h-1v6.5c0 .813-.716 1.5-1.562 1.5h-14C3.632 31 3 30.341 3 29.5v-23C3 5.659 3.632 5 4.438 5h14C19.284 5 20 5.687 20 6.5V12h1V6.5C21 5.145 19.826 4 18.438 4h-14C3.07 4 2 5.098 2 6.5v23C2 30.902 3.07 32 4.438 32h14z"/><path fill="#0B1F35" d="M26.459 11.854L31.605 17H12.188v1h19.418l-5.146 5.146.707.707L33.52 17.5l-6.354-6.354-.707.708zm5.603 5.689v-.086l.043.043-.043.043z"/></svg>