<svg xmlns="http://www.w3.org/2000/svg" width="33" height="46" viewBox="0 0 33 46"><g fill="none" fill-rule="evenodd"><path d="M-8 0h48v48H-8z"/><path fill="#0B1F35" d="M30.5 17h-7v1h7c.827 0 1.5.673 1.5 1.5v24c0 .827-.673 1.5-1.5 1.5h-28c-.827 0-1.5-.673-1.5-1.5v-24c0-.827.673-1.5 1.5-1.5h7v-1h-7A2.503 2.503 0 0 0 0 19.5v24C0 44.879 1.122 46 2.5 46h28c1.378 0 2.5-1.121 2.5-2.5v-24c0-1.379-1.122-2.5-2.5-2.5z"/><path fill="#0B1F35" d="M8.854 9.854L16 2.707V30h1V2.707l7.146 7.147.708-.708L16.5.793 8.146 9.146z"/></g></svg>
