<svg xmlns="http://www.w3.org/2000/svg" width="14" height="16" viewBox="0 0 14 16"><g fill="#FFF" fill-rule="evenodd"><path d="M11.5 16h-10C.673 16 0 15.367 0 14.588V4.04L4.293 0h7.148C12.301 0 13 .658 13 1.467v3.239h-1V1.467c0-.29-.251-.526-.559-.526H4.707L1 4.431v10.157c0 .26.224.47.5.47h10c.275 0 .5-.21.5-.47h1c0 .779-.673 1.412-1.5 1.412z"/><path d="M7 12.235H6V7.53H4.573v-.746L7 6.581zm6.462-1.949l.008.023c.011.59-.177 1.06-.561 1.406-.384.346-.916.52-1.599.52-.685 0-1.241-.212-1.668-.637-.427-.424-.641-.971-.641-1.64v-1.09c0-.665.208-1.212.625-1.639.417-.427.958-.64 1.625-.64.703 0 1.253.173 1.648.522.396.348.589.822.578 1.423l-.007.022h-1.109c0-.362-.09-.639-.27-.83-.18-.193-.46-.289-.84-.289-.341 0-.717.134-.917.401-.2.267-.334.608-.334 1.022v1.097c0 .42.139.762.35 1.03.211.267.6.4.96.4.356 0 .62-.092.791-.276.171-.185.256-.46.256-.824h1.105z"/></g></svg>