<svg xmlns="http://www.w3.org/2000/svg" width="24" height="24" version="1" viewBox="0 0 24 24"><path fill="#0B1F35" d="M20 8h-1V4c0-1.103-.897-2-2-2H7.707L3 6.707V7H2v-.707L7.293 1H17c1.654 0 3 1.346 3 3v4z"/><path fill="#0B1F35" d="M17 23H5c-1.654 0-3-1.346-3-3V6.999h1V20c0 1.103.897 2 2 2h12c1.103 0 2-.897 2-2v-1h1v1c0 1.654-1.346 3-3 3z"/><path fill="#0B1F35" d="M10 17H9v-6H7.172v-.749L10 10v7zm7.968-2.5c-.064.385-.23.712-.5.977-.355.349-.848.523-1.48.523-.624 0-1.111-.174-1.462-.523-.351-.348-.526-.799-.526-1.351V12.86c0-.547.173-.993.519-1.34s.834-.52 1.462-.52 1.122.174 1.48.523c.276.268.443.594.507.977h.997c-.076-.658-.336-1.222-.805-1.68-.56-.547-1.285-.82-2.178-.82-.885 0-1.604.273-2.156.82-.55.547-.826 1.236-.826 2.068v1.224c0 .834.277 1.525.829 2.07.554.545 1.273.818 2.159.818.891 0 1.617-.273 2.175-.818.468-.457.728-1.022.803-1.682h-.998z"/></svg>