<svg xmlns="http://www.w3.org/2000/svg" width="21" height="26" viewBox="0 0 21 26"><g fill="#FFF" fill-rule="evenodd"><path d="M17 26H4a4.005 4.005 0 0 1-3.998-3.874H0V6.293L6.293 0H17c2.206 0 4 1.794 4 4v4h-1V4c0-1.654-1.346-3-3-3H6.707L1 6.707V22c0 1.654 1.346 3 3 3h13c1.654 0 3-1.346 3-3h1c0 2.206-1.794 4-4 4z"/><path d="M12.034 19h-1v-6H9.206v-.749L12.034 12zm7.968-2.5c-.064.385-.23.712-.5.977-.355.349-.848.523-1.481.523-.624 0-1.111-.174-1.462-.523-.351-.348-.526-.799-.526-1.352V14.86c0-.547.173-.993.519-1.34.346-.347.835-.52 1.463-.52.628 0 1.122.174 1.48.523.276.268.443.594.507.977H21c-.076-.658-.336-1.222-.805-1.68-.56-.547-1.285-.82-2.178-.82-.885 0-1.604.273-2.156.82-.551.547-.827 1.236-.827 2.068v1.224c0 .834.277 1.525.829 2.07.553.545 1.272.818 2.159.818.891 0 1.617-.273 2.175-.818.467-.457.727-1.022.803-1.682h-.998z"/></g></svg>