<svg xmlns="http://www.w3.org/2000/svg" width="36" height="36" version="1" viewBox="0 0 36 36"><path fill="#0B1F35" d="M24.558 34h-17a4.505 4.505 0 0 1-4.5-4.5V10.294L11.292 2h13.266c2.481 0 4.5 2.019 4.5 4.5V12h-1V6.5c0-1.93-1.57-3.5-3.5-3.5h-12.85l-7.65 7.706V29.5c0 1.93 1.57 3.5 3.5 3.5h17c1.93 0 3.5-1.57 3.5-3.5V28h1v1.5c0 2.481-2.019 4.5-4.5 4.5z"/><path fill="#0B1F35" d="M21 25h-1v-7.991l-2.058-.211v-.455L21 16.01V25zm7.338 0c-.983 0-1.793-.352-2.407-1.047-.616-.698-.93-1.59-.93-2.651v-1.589c0-1.058.313-1.949.93-2.651.614-.698 1.424-1.053 2.407-1.053 1.021 0 1.861.354 2.499 1.051.46.503.758 1.111.887 1.809H30.9a2.77 2.77 0 0 0-.621-1.231c-.483-.539-1.138-.813-1.946-.813-.767 0-1.388.274-1.846.815-.455.536-.686 1.231-.686 2.063v1.588c0 .841.23 1.539.686 2.075.458.54 1.079.815 1.846.815.812 0 1.468-.272 1.949-.81.298-.334.506-.749.618-1.234h.824a3.59 3.59 0 0 1-.888 1.812C30.2 24.648 29.358 25 28.338 25z"/></svg>