<svg xmlns="http://www.w3.org/2000/svg" width="18" height="22" viewBox="0 0 18 22"><g fill="#FFF" fill-rule="evenodd"><path d="M18 7h-1V3c0-1.103-.897-2-2-2H5.707L1 5.707V6H0v-.707L5.293 0H15c1.654 0 3 1.346 3 3v4z"/><path d="M15 22H3c-1.654 0-3-1.346-3-3V5.999h1V19c0 1.103.897 2 2 2h12c1.103 0 2-.897 2-2v-1h1v1c0 1.654-1.346 3-3 3z"/><path d="M8 16H7v-6H5.172v-.749L8 9zm7.968-2.5c-.064.385-.23.712-.5.977-.355.349-.848.523-1.48.523-.624 0-1.111-.174-1.462-.523-.351-.348-.526-.799-.526-1.351V11.86c0-.547.173-.993.519-1.34.346-.347.834-.52 1.462-.52s1.122.174 1.48.523c.276.268.443.594.507.977h.997c-.076-.658-.336-1.222-.805-1.68-.56-.547-1.285-.82-2.178-.82-.885 0-1.604.273-2.156.82-.55.547-.826 1.236-.826 2.068v1.224c0 .834.277 1.525.829 2.07.554.545 1.273.818 2.159.818.891 0 1.617-.273 2.175-.818.468-.457.728-1.022.803-1.682h-.998z"/></g></svg>