<svg xmlns="http://www.w3.org/2000/svg" width="48" height="48" viewBox="0 0 48 48" fill="none"><rect width="48" height="48" fill="none"/><path d="M27.9997 33.3334H26.6664V22.6787L23.9224 22.3974V21.7907L27.9997 21.3467V33.3334ZM37.7837 33.3334C36.473 33.3334 35.393 32.864 34.5744 31.9374C33.753 31.0067 33.3344 29.8174 33.3344 28.4027V26.284C33.3344 24.8734 33.7517 23.6854 34.5744 22.7494C35.393 21.8187 36.473 21.3454 37.7837 21.3454C39.145 21.3454 40.265 21.8174 41.1157 22.7467C41.729 23.4174 42.1264 24.228 42.2984 25.1587H41.1997C41.0664 24.5505 40.7816 23.9859 40.3717 23.5174C39.7277 22.7987 38.8544 22.4334 37.777 22.4334C36.7544 22.4334 35.9264 22.7987 35.3157 23.52C34.709 24.2347 34.401 25.1614 34.401 26.2707V28.388C34.401 29.5094 34.7077 30.44 35.3157 31.1547C35.9264 31.8747 36.7544 32.2414 37.777 32.2414C38.8597 32.2414 39.7344 31.8787 40.3757 31.1614C40.773 30.716 41.0504 30.1627 41.1997 29.516H42.2984C42.1428 30.418 41.7319 31.2565 41.1144 31.932C40.2664 32.864 39.1437 33.3334 37.7837 33.3334Z" fill="#0B1F35"/><path fill-rule="evenodd" clip-rule="evenodd" d="M38 38C38 41.3137 35.3137 44 32 44H11C7.68629 44 5 41.3137 5 38V14.9013L15.4273 4H32C35.3137 4 38 6.68629 38 10V16H39V10C39 6.13401 35.866 3 32 3H15L4 14.5V38C4 41.866 7.13401 45 11 45H32C35.866 45 39 41.866 39 38H38Z" fill="#0B1F35"/></svg>