<svg width="24" height="24" viewBox="0 0 24 24" fill="none" xmlns="http://www.w3.org/2000/svg"><rect width="24" height="24" fill="none"/><path opacity="0.3" d="M12 12L17.5 2.5C19.2 3.5 20.6 4.9 21.5 6.5C22.4 8.1 23 10.1 23 12H12Z" fill="#0B1F35"/><path d="M2 12H1C1 5.9 5.9 1 12 1V2C6.5 2 2 6.5 2 12Z" fill="#0B1F35"/><path d="M12 23C5.9 23 1 18.1 1 12C1 5.9 5.9 1 12 1V2C6.5 2 2 6.5 2 12C2 17.5 6.5 22 12 22C16.5 22 20.5 18.9 21.6 14.6L22.6 14.9C21.3 19.6 16.9 23 12 23Z" fill="#0B1F35"/><path d="M15 2.5C14 2.2 13 2 12 2V1C13.1 1 14.2 1.2 15.3 1.5L15 2.5Z" fill="#0B1F35"/></svg>