<svg xmlns="http://www.w3.org/2000/svg" width="44" height="44" viewBox="0 0 44 44"><g fill="none" fill-rule="evenodd"><path d="M-2-2h48v48H-2z"/><path fill="#FFF" d="M22 22L33 2.9c3.3 1.9 6.1 4.7 8.1 8.1 2 3.4 2.9 7.1 2.9 11H22z" opacity=".3"/><path fill="#FFF" d="M22 44C9.9 44 0 34.1 0 22S9.9 0 22 0v1C10.4 1 1 10.4 1 22s9.4 21 21 21c9.4 0 17.8-6.4 20.3-15.6l1 .3C40.6 37.3 31.9 44 22 44z"/><path fill="#FFF" d="M1 22H0C0 9.9 9.9 0 22 0v1C10.4 1 1 10.4 1 22zM28.2 2c-2-.6-4.1-1-6.2-1V0c2.2 0 4.4.3 6.5 1l-.3 1z"/></g></svg>