<svg xmlns="http://www.w3.org/2000/svg" width="32" height="32" viewBox="0 0 32 32"><g fill="none" fill-rule="evenodd"><path d="M-2-2h36v36H-2z"/><path fill="#FFF" d="M16 16l8-13.9c2.4 1.4 4.5 3.4 5.9 5.9 1.4 2.4 2.1 5.2 2.1 8H16z" opacity=".3"/><path fill="#FFF" d="M1 16H0C0 7.2 7.2 0 16 0v1C7.7 1 1 7.7 1 16z"/><path fill="#FFF" d="M16 32C7.2 32 0 24.8 0 16S7.2 0 16 0v1C7.7 1 1 7.7 1 16s6.7 15 15 15c6.7 0 12.7-4.6 14.5-11.1l1 .3C29.5 27.1 23.2 32 16 32z"/><path fill="#FFF" d="M1 16H0C0 7.2 7.2 0 16 0v1C7.7 1 1 7.7 1 16zM20.8 1.8C19.3 1.3 17.7 1 16 1V0c1.8 0 3.5.3 5.2.9l-.4.9z"/></g></svg>