<?xml version="1.0" encoding="UTF-8"?>
<svg width="36px" height="36px" viewBox="0 0 36 36" version="1.1" xmlns="http://www.w3.org/2000/svg" xmlns:xlink="http://www.w3.org/1999/xlink">
    <!-- Generator: Sketch 49.1 (51147) - http://www.bohemiancoding.com/sketch -->
    <title>icon_account_info_black_xl</title>
    <desc>Created with Sketch.</desc>
    <defs></defs>
    <g id="set" stroke="none" stroke-width="1" fill="none" fill-rule="evenodd">
        <g id="cards" transform="translate(-128.000000, -303.000000)">
            <rect id="Rectangle-path" x="128" y="303" width="36" height="36"></rect>
            <path d="M156.2,337.1 L135.8,337.1 C134.3,337.1 133,335.8 133,334.3 L133,306.8 C133,305.3 134.3,304 135.8,304 L151.1,304 L159,311.9 L159,334.3 C159,335.9 157.7,337.1 156.2,337.1 L156.2,337.1 Z M135.8,305 C134.8,305 134,305.8 134,306.8 L134,334.3 C134,335.3 134.8,336.1 135.8,336.1 L156.2,336.1 C157.2,336.1 158,335.3 158,334.3 L158,312.3 L150.6,305 L135.8,305 L135.8,305 Z" id="Shape" fill="#0B1F35"></path>
            <path d="M145.5,313 C146.6,313 147.5,313.9 147.5,315 C147.5,316.1 146.6,317 145.5,317 C144.4,317 143.5,316.1 143.5,315 C143.5,313.9 144.4,313 145.5,313" id="Shape" fill="#0B1F35" opacity="0.3"></path>
            <rect id="Rectangle-path" fill="#0B1F35" opacity="0.3" x="144" y="320" width="3" height="9"></rect>
        </g>
    </g>
</svg>