<svg width="18" height="18" viewBox="0 0 18 18" fill="none" xmlns="http://www.w3.org/2000/svg"><rect width="18" height="18" fill="none"/><path fill-rule="evenodd" clip-rule="evenodd" d="M14.25 17.25H3.75C2.925 17.25 2.25 16.575 2.25 15.75V2.25C2.25 1.425 2.925 0.75 3.75 0.75H11.775L15.75 4.72499V15.75C15.75 16.575 15.075 17.25 14.25 17.25ZM3.75 1.5C3.3 1.5 3 1.8 3 2.25V15.75C3 16.2 3.3 16.5 3.75 16.5H14.25C14.7 16.5 15 16.2 15 15.75V5.02501L11.475 1.5H3.75Z" fill="#0B1F35"/><path opacity="0.3" fill-rule="evenodd" clip-rule="evenodd" d="M9 5.625C9.6 5.625 10.125 6.15 10.125 6.75C10.125 7.35 9.6 7.875 9 7.875C8.4 7.875 7.875 7.35 7.875 6.75C7.875 6.15 8.4 5.625 9 5.625Z" fill="#0B1F35"/><path opacity="0.3" d="M9.75 9H8.25V13.5H9.75V9Z" fill="#0B1F35"/></svg>