<?xml version="1.0" encoding="UTF-8"?>
<svg width="48px" height="48px" viewBox="0 0 48 48" version="1.1" xmlns="http://www.w3.org/2000/svg" xmlns:xlink="http://www.w3.org/1999/xlink">
    <!-- Generator: Sketch 49.1 (51147) - http://www.bohemiancoding.com/sketch -->
    <title>icon_account_info_white_xxl</title>
    <desc>Created with Sketch.</desc>
    <defs></defs>
    <g id="set" stroke="none" stroke-width="1" fill="none" fill-rule="evenodd">
        <g id="cards" transform="translate(-201.000000, -230.000000)">
            <g id="icon_tool_account_info__xxl__white" transform="translate(204.000000, 230.000000)">
                <g id="ungroup">
                    <rect id="Rectangle-path" x="0" y="0" width="48" height="48"></rect>
                    <path d="M36.5,46 L8.5,46 C6.6,46 5,44.4 5,42.5 L5,5.5 C5,3.6 6.6,2 8.5,2 L29.7,2 L40,12.3 L40,42.5 C40,44.4 38.4,46 36.5,46 L36.5,46 Z M8.5,3 C7.1,3 6,4.1 6,5.5 L6,42.5 C6,43.9 7.1,45 8.5,45 L36.5,45 C37.9,45 39,43.9 39,42.5 L39,12.7 L29.3,3 L8.5,3 L8.5,3 Z" id="Shape" fill="#FFFFFF"></path>
                    <path d="M22,14 C23.6,14 25,15.4 25,17 C25,18.6 23.6,20 22,20 C20.4,20 19,18.6 19,17 C19,15.4 20.4,14 22,14" id="Shape" fill="#FFFFFF" opacity="0.3"></path>
                    <rect id="Rectangle-path" fill="#FFFFFF" opacity="0.3" x="20" y="23" width="4" height="12"></rect>
                    <g id="Group" opacity="0.3"></g>
                </g>
            </g>
        </g>
    </g>
</svg>