<svg xmlns="http://www.w3.org/2000/svg" width="12" height="12" viewBox="0 0 12 12"><g fill="#FFF" fill-rule="evenodd"><rect width="12" height="12" fill="none"/><path d="M6,10.75 C8.62335,10.75 10.75,8.62335 10.75,6 C10.75,3.37665 8.62335,1.25 6,1.25 C3.37665,1.25 1.25,3.37665 1.25,6 C1.25,8.62335 3.37665,10.75 6,10.75 Z M8.22226,7.64481 C8.10089,7.67486 7.96821,7.65984 7.85138,7.5925 L5.95638,6.498 C5.72888,6.478 5.54538,6.3055 5.50688,6.088 C5.47816,5.99788 5.47574,5.90145 5.49988,5.81 L5.49988,3.995 C5.49988,3.76362 5.65934,3.56888 5.87721,3.51488 C5.65924,3.56881 5.49968,3.7636 5.49968,3.99505 L5.49968,5.81005 C5.47554,5.9015 5.47797,5.99793 5.50668,6.08805 C5.54518,6.30555 5.72868,6.47805 5.95618,6.49805 L7.85118,7.59255 C7.96808,7.65992 8.10084,7.67492 8.22226,7.64481 Z M5.29968,3.99505 C5.29968,3.61029 5.61253,3.30005 5.99967,3.30005 C6.38355,3.30003 6.69583,3.60919 6.69967,3.99305 L6.69968,3.99505 L6.69968,5.54208 L8.45092,6.55319 C8.61215,6.6457 8.72995,6.79858 8.77827,6.97809 C8.82662,7.15771 8.80124,7.34954 8.7081,7.51055 C8.51392,7.84464 8.08595,7.95869 7.75115,7.76574 L5.89119,6.69147 C5.59955,6.64567 5.36824,6.42033 5.3122,6.13604 C5.27835,6.02235 5.27408,5.90198 5.29968,5.78631 L5.29968,3.99505 Z"/></g></svg>