<svg xmlns="http://www.w3.org/2000/svg" width="24" height="24" viewBox="0 0 24 24"><path fill="none" d="M0 0h24v24H0z"/><path fill="#0B1F35" d="M10.5 18C7.12 18 3 13.77 3 8.83 3 4.15 6 1 10.5 1S18 4.15 18 8.83c0 4.94-4.12 9.17-7.5 9.17zm0-16C6.55 2 4 4.68 4 8.83 4 13.49 7.94 17 10.5 17S17 13.49 17 8.83C17 4.68 14.45 2 10.5 2z"/><path fill="#0B1F35" d="M10.51 4a2.31 2.31 0 0 1 .3-.09 3.77 3.77 0 0 1 2.19.22 4 4 0 0 1 .68.37 4.28 4.28 0 0 1 .61.54 3.42 3.42 0 0 1 .47.66 2.81 2.81 0 0 1 .3.7 2.7 2.7 0 0 1 .15.67 2.41 2.41 0 0 1 0 .59 3.17 3.17 0 0 1-.11.85c0 .2-.09.31-.09.31a.53.53 0 0 1-1 .06v-.06s0-.1-.12-.26-.15-.4-.25-.65a7 7 0 0 0-.37-.81c-.07-.1-.16-.25-.27-.38s-.18-.23-.26-.35a4.14 4.14 0 0 0-1.39-1c-.24-.12-.47-.2-.61-.26L10.49 5a.53.53 0 0 1 0-1z" opacity=".3"/><path fill="#0B1F35" d="M17.5 18a5.1 5.1 0 0 1-3.5-1.94l.75-.66A4.19 4.19 0 0 0 17.5 17c1.78 0 4.5-2.69 4.5-6 0-3-1.77-5-4.5-5h-.55l-.1-1a6.32 6.32 0 0 1 .66 0C20.79 5 23 7.41 23 11c0 3.77-3 7-5.5 7zM2.59 23.69l-.92-.39c.91-2.15 2.88-2.24 4.61-2.3 2.16-.12 3.72-.2 3.72-3.5h1c0 4.26-2.59 4.38-4.67 4.47-1.65.08-3.08.15-3.74 1.72z"/><path fill="#0B1F35" d="M15 22h-1a3.18 3.18 0 0 1 1.85-3A1.78 1.78 0 0 0 17 17.52l1 .07a2.76 2.76 0 0 1-1.62 2.23A2.21 2.21 0 0 0 15 22z"/></svg>