<svg xmlns="http://www.w3.org/2000/svg" width="36" height="36" viewBox="0 0 36 36"><path fill="none" d="M0 0h36v36H0z"/><path fill="#fff" d="M15.5 26C9.94 26 5 18.45 5 12.5 5 5.62 9.22 1 15.5 1S26 5.62 26 12.5C26 18.45 21.06 26 15.5 26zm0-24C9.73 2 6 6.12 6 12.5 6 19.63 11.76 25 15.5 25S25 19.63 25 12.5C25 6.12 21.27 2 15.5 2z"/><path fill="#fff" d="M15.61 5.25a3.47 3.47 0 0 1 .45-.13 5.65 5.65 0 0 1 3.25.33 6 6 0 0 1 1 .56 6.43 6.43 0 0 1 .91.81 5.13 5.13 0 0 1 .7 1 4.22 4.22 0 0 1 .45 1 4 4 0 0 1 .22 1 3.61 3.61 0 0 1 0 .89 4.75 4.75 0 0 1-.11 1.29c-.07.3-.14.47-.14.47a.79.79 0 0 1-1.45.09v-.09s-.07-.15-.17-.4-.22-.6-.38-1a10.53 10.53 0 0 0-.55-1.21c-.1-.21-.23-.39-.34-.58S19.12 9 19 8.8a6.21 6.21 0 0 0-2.09-1.5c-.36-.17-.7-.3-.91-.39l-.42-.16a.79.79 0 0 1 0-1.48z" opacity=".3"/><path fill="#fff" d="M26.09 26A7.41 7.41 0 0 1 21 23.18l-.19-.18.72-.69.18.19a6.55 6.55 0 0 0 4.38 2.5c2.75 0 7-4 7-9.25 0-4.71-2.75-7.75-7-7.75a8.25 8.25 0 0 0-.86 0 3.38 3.38 0 0 0-.43.09l-.26-1a3.94 3.94 0 0 1 .6-.09 9.28 9.28 0 0 1 1 0c4.79 0 8 3.52 8 8.75C34.09 21.27 29.69 26 26.09 26zM3.5 34.69l-.92-.39c1.3-3.09 4.17-3.22 6.7-3.3 3.25-.15 5.81-.27 5.81-5.46h1c0 6.15-3.6 6.31-6.77 6.46-2.45.08-4.76.18-5.82 2.69z"/><path fill="#fff" d="M22.09 32.25h-1a4.55 4.55 0 0 1 2.66-4.32c1-.61 1.75-1.09 1.84-2.38l1 .07c-.13 1.79-1.29 2.52-2.31 3.16-1.17.73-2.19 1.37-2.19 3.47z"/></svg>