<?xml version="1.0" encoding="UTF-8"?>
<svg width="48px" height="48px" viewBox="0 0 48 48" version="1.1" xmlns="http://www.w3.org/2000/svg" xmlns:xlink="http://www.w3.org/1999/xlink">
    <!-- Generator: Sketch 48.2 (47327) - http://www.bohemiancoding.com/sketch -->
    <title>icon_category-holiday_xxl_white</title>
    <desc>Created with Sketch.</desc>
    <defs></defs>
    <g id="mobile" stroke="none" stroke-width="1" fill="none" fill-rule="evenodd" transform="translate(-1844.000000, -462.000000)">
        <g id="Headings" transform="translate(64.000000, 77.000000)">
            <g id="icon_category_holiday__xxl__white" transform="translate(1780.000000, 385.000000)">
                <g id="ungroup">
                    <rect id="Rectangle-path" x="0" y="0" width="48" height="48"></rect>
                    <g id="a1" opacity="0.4"></g>
                    <path d="M12.461,40.932 C9.291,41.141 5.698,41.378 4.039,45.306 L4.961,45.695 C6.379,42.336 9.365,42.139 12.526,41.93 C16.066,41.697 20.019,41.42 20.838,35.791 C22.181,35.685 22.922,35 22.922,35 L21.865,33.885 C24.071,33.522 26.163,32.305 27.97,30.587 C29.604,32.311 31.539,33.485 33.326,33.858 L32.338,34.797 C32.338,34.797 32.82,35.179 33.615,35.38 C33.146,36.376 32.3,36.973 31.36,37.62 C29.826,38.675 28.088,39.871 28.088,43.068 L29.088,43.068 C29.088,40.396 30.467,39.448 31.927,38.443 C32.966,37.729 34.095,36.935 34.65,35.495 C35.947,35.466 36.663,34.797 36.663,34.797 L35.758,33.843 C40.111,32.893 44.967,27.289 44.967,21.042 C44.967,14.438 40.761,10 34.5,10 C33.815,10 33.147,10.067 32.498,10.175 C30.355,5.71 26.055,3 20.5,3 C12.425,3 7,8.727 7,17.25 C7,24.147 12.549,32.772 19.104,33.877 L17.922,35 C17.922,35 18.663,35.585 19.846,35.76 C19.133,40.489 16.009,40.698 12.461,40.932 L12.461,40.932 Z M34.5,11 C40.251,11 43.967,14.941 43.967,21.042 C43.967,27.865 38.224,33 34.5,33 C32.685,33 30.485,31.805 28.666,29.871 C31.855,26.469 34,21.531 34,17.25 C34,14.991 33.609,12.937 32.899,11.126 C33.421,11.051 33.953,11 34.5,11 L34.5,11 Z M8,17.25 C8,9.201 12.906,4 20.5,4 C28.094,4 33,9.201 33,17.25 C33,26.236 25.417,33 20.5,33 C15.583,33 8,26.236 8,17.25 L8,17.25 Z" id="Shape" fill="#FFFFFF"></path>
                    <path d="M21.289,10.07 C21.434,10.133 21.609,10.209 21.811,10.296 C22.019,10.375 22.241,10.491 22.478,10.595 C22.717,10.697 22.955,10.844 23.202,10.973 C23.321,11.047 23.443,11.118 23.569,11.185 C23.685,11.266 23.8,11.351 23.921,11.425 C24.146,11.596 24.385,11.752 24.581,11.954 C24.801,12.128 24.977,12.347 25.172,12.547 C25.333,12.779 25.536,12.974 25.676,13.23 C25.834,13.469 25.997,13.709 26.119,13.98 C26.278,14.226 26.39,14.503 26.509,14.768 C26.645,15.023 26.75,15.29 26.849,15.544 C26.939,15.798 27.063,16.025 27.139,16.245 C27.21,16.464 27.288,16.658 27.355,16.819 C27.488,17.142 27.588,17.333 27.588,17.333 L27.651,17.454 C27.768,17.678 27.965,17.862 28.221,17.957 C28.771,18.162 29.383,17.883 29.588,17.333 C29.588,17.333 29.669,17.116 29.769,16.723 C29.82,16.527 29.878,16.286 29.926,16.007 C29.989,15.728 29.987,15.403 30.001,15.048 C30.025,14.692 30.02,14.303 29.95,13.884 C29.898,13.466 29.826,13.025 29.666,12.569 C29.588,12.343 29.521,12.111 29.425,11.88 C29.311,11.654 29.195,11.426 29.079,11.195 C28.846,10.736 28.502,10.307 28.16,9.9 C27.791,9.505 27.396,9.138 26.959,8.841 C26.534,8.53 26.071,8.298 25.626,8.106 C25.176,7.916 24.733,7.782 24.309,7.698 C23.889,7.608 23.485,7.573 23.123,7.555 C22.76,7.529 22.427,7.554 22.139,7.581 C21.856,7.593 21.582,7.659 21.375,7.69 C21.166,7.725 21.045,7.788 20.942,7.814 C20.845,7.845 20.794,7.862 20.794,7.862 C20.502,7.96 20.246,8.186 20.129,8.497 C19.923,9.045 20.2,9.656 20.748,9.862 C20.745,9.863 20.943,9.938 21.289,10.07 L21.289,10.07 Z" id="Shape" fill="#FFFFFF" opacity="0.3"></path>
                </g>
            </g>
        </g>
    </g>
</svg>