<svg xmlns="http://www.w3.org/2000/svg" width="36" height="36" viewBox="0 0 36 36"><path fill="none" d="M0 0h36v36H0z"/><path fill="#fff" d="M18.5 34A14.5 14.5 0 1 1 33 19.5 14.52 14.52 0 0 1 18.5 34zm0-28A13.5 13.5 0 1 0 32 19.5 13.52 13.52 0 0 0 18.5 6z"/><path fill="#fff" d="M6.889 34.011l2.695-3.74.811.585-2.695 3.74zm19.55-2.993l.81-.585 2.62 3.634-.81.585z"/><path fill="#fff" d="M23 22a2 2 0 1 1-2 2 2 2 0 0 1 2-2m0-1a3 3 0 1 0 3 3 3 3 0 0 0-3-3zm-9-8a2 2 0 1 1-2 2 2 2 0 0 1 2-2m0-1a3 3 0 1 0 3 3 3 3 0 0 0-3-3zm-1.428 13.976L23.657 13.06l.76.65L13.33 26.628z" opacity=".4"/><path fill="#fff" d="M18 0h1v5.34h-1z"/><path fill="#fff" d="M5.15 7.66L3.67 6.31a20.19 20.19 0 0 1 7.71-5.25l.71 1.87a18.19 18.19 0 0 0-6.94 4.73zm26.7 0a18.19 18.19 0 0 0-6.95-4.72l.71-1.87a20.2 20.2 0 0 1 7.71 5.25z" opacity=".3"/></svg>