<svg xmlns="http://www.w3.org/2000/svg" width="24" height="24" viewBox="0 0 24 24"><path fill="none" d="M0 0h24v24H0z"/><path fill="#0B1F35" d="M12.5 22a9.5 9.5 0 1 1 9.5-9.5 9.51 9.51 0 0 1-9.5 9.5zm0-18a8.5 8.5 0 1 0 8.5 8.5A8.51 8.51 0 0 0 12.5 4z"/><path fill="#0B1F35" d="M4.757 21.838l1.765-2.45.812.585-1.766 2.45zm12.798-1.768l.811-.586 1.714 2.377-.81.585z"/><path fill="#0B1F35" d="M15.25 14.5A1.25 1.25 0 1 1 14 15.75a1.25 1.25 0 0 1 1.25-1.25m0-1a2.25 2.25 0 1 0 2.25 2.25 2.25 2.25 0 0 0-2.25-2.25zM9.75 9a1.25 1.25 0 1 1-1.25 1.25A1.25 1.25 0 0 1 9.75 9m0-1A2.25 2.25 0 1 0 12 10.25 2.25 2.25 0 0 0 9.75 8zm-1.268 8.91l7.262-8.46.76.65-7.263 8.462z" opacity=".4"/><path fill="#0B1F35" d="M12 0h1v3.5h-1z"/><path fill="#0B1F35" d="M4 5.25L2.53 3.9A13.59 13.59 0 0 1 7.71.37l.71 1.87A11.58 11.58 0 0 0 4 5.25zm17 0a11.58 11.58 0 0 0-4.42-3l.71-1.87a13.59 13.59 0 0 1 5.18 3.52z" opacity=".3"/></svg>