<?xml version="1.0" encoding="UTF-8"?>
<svg width="36px" height="36px" viewBox="0 0 36 36" version="1.1" xmlns="http://www.w3.org/2000/svg" xmlns:xlink="http://www.w3.org/1999/xlink">
    <!-- Generator: Sketch 48.2 (47327) - http://www.bohemiancoding.com/sketch -->
    <title>icon_category-loans_xl_white</title>
    <desc>Created with Sketch.</desc>
    <defs></defs>
    <g id="mobile" stroke="none" stroke-width="1" fill="none" fill-rule="evenodd" transform="translate(-1311.000000, -246.000000)">
        <g id="Headings" transform="translate(64.000000, 77.000000)">
            <g id="icon_category_depts__xl__white" transform="translate(1247.000000, 169.000000)">
                <g id="ungroup">
                    <rect id="Rectangle-path" x="0" y="0" width="36" height="36"></rect>
                    <rect id="Rectangle-path" fill="#FFFFFF" opacity="0.4" transform="translate(18.500984, 19.842858) rotate(-49.355205) translate(-18.500984, -19.842858) " x="9.98906089" y="19.3428334" width="17.023846" height="1.0000497"></rect>
                    <g id="a1" opacity="0.4"></g>
                    <path d="M23,27 C24.654,27 26,25.654 26,24 C26,22.346 24.654,21 23,21 C21.346,21 20,22.346 20,24 C20,25.654 21.346,27 23,27 L23,27 Z M23,22 C24.105,22 25,22.895 25,24 C25,25.105 24.105,26 23,26 C21.895,26 21,25.105 21,24 C21,22.895 21.895,22 23,22 L23,22 Z" id="Shape" fill="#FFFFFF" opacity="0.3"></path>
                    <path d="M14,18 C15.654,18 17,16.654 17,15 C17,13.346 15.654,12 14,12 C12.346,12 11,13.346 11,15 C11,16.654 12.346,18 14,18 L14,18 Z M14,13 C15.105,13 16,13.895 16,15 C16,16.105 15.105,17 14,17 C12.895,17 12,16.105 12,15 C12,13.895 12.895,13 14,13 L14,13 Z" id="Shape" fill="#FFFFFF" opacity="0.3"></path>
                    <path d="M33,19.5 C33,11.674 26.763,5.292 19,5.025 L19,0 L18,0 L18,5.025 C10.237,5.292 4,11.674 4,19.5 C4,24 6.061,28.028 9.288,30.689 L6.888,34.017 L7.7,34.603 L10.09,31.289 C12.464,32.988 15.363,34 18.5,34 C21.556,34 24.389,33.044 26.73,31.424 L29.052,34.644 L29.864,34.059 L27.531,30.824 C30.859,28.166 33,24.081 33,19.5 L33,19.5 Z M18.5,33 C11.056,33 5,26.944 5,19.5 C5,12.056 11.056,6 18.5,6 C25.944,6 32,12.056 32,19.5 C32,26.944 25.944,33 18.5,33 L18.5,33 Z" id="Shape" fill="#FFFFFF"></path>
                    <path d="M12.091,2.932 L11.382,1.062 C8.456,2.171 5.789,3.985 3.669,6.307 L5.146,7.656 C7.056,5.564 9.457,3.931 12.091,2.932 L12.091,2.932 Z" id="Shape" fill="#FFFFFF" opacity="0.3"></path>
                    <path d="M25.616,1.062 L24.907,2.932 C27.54,3.931 29.942,5.564 31.852,7.656 L33.329,6.307 C31.208,3.985 28.541,2.171 25.616,1.062 L25.616,1.062 Z" id="Shape" fill="#FFFFFF" opacity="0.3"></path>
                </g>
            </g>
        </g>
    </g>
</svg>