<svg xmlns="http://www.w3.org/2000/svg" width="36" height="36" version="1" viewBox="0 0 36 36"><path fill="#184A81" d="M18.721 15.702c-5.833 0-10.783 3.977-10.783 9.192 0 1.591.53 3.27 1.503 4.773 2.74-2.563 5.215-7.336 6.098-12.816.088 0 .884-.265 1.591-.265 0 .795-.707 12.727-4.861 17.058-3.093-2.121-5.303-5.745-5.303-9.811 0-5.657 3.889-10.253 9.104-11.402.265-3.712.265-5.303.265-7.159h.884s0 5.303-.088 6.982c.354 0 .619-.088.972-.088V.5h.795v11.667c.354 0 .619 0 .972.088 0-1.679-.088-6.982-.088-6.982h.884c0 1.856 0 3.359.265 7.159 5.303 1.149 9.104 5.833 9.104 11.402 0 4.066-2.033 7.689-5.303 9.722-4.242-4.242-4.861-16.263-4.861-17.058.619 0 1.414.265 1.591.265.884 5.657 3.27 10.253 6.098 12.816a8.223 8.223 0 0 0 1.503-4.773c.352-5.127-4.597-9.104-10.342-9.104M15.009 34.97c1.679-2.917 2.652-8.573 3.005-18.472h1.237c.354 9.899 1.326 15.556 3.005 18.472-1.149.354-2.386.53-3.624.53s-2.474-.177-3.623-.53z"/></svg>