<svg width="24px" height="24px" viewBox="0 0 24 24" version="1.1" xmlns="http://www.w3.org/2000/svg"><g fill="#FFFFFF" fill-rule="nonzero" stroke="none" stroke-width="1"><path d="M12,0.96 C5.90277636,0.96 0.96,5.90277636 0.96,12 C0.96,18.0972236 5.90277636,23.04 12,23.04 C18.0972236,23.04 23.04,18.0972236 23.04,12 C23.04,5.90277636 18.0972236,0.96 12,0.96 Z M12,0 C18.627417,-1.17239551e-15 24,5.372583 24,12 C24,18.627417 18.627417,24 12,24 C5.372583,24 7.99360578e-16,18.627417 0,12 C-8.52651283e-16,5.372583 5.372583,1.22568622e-15 12,0 Z"/><polygon points="10.0145455 15.1203034 6.67327143 11.9683667 6 12.6639557 10.0145455 16.6785012 17.8690909 8.82395572 17.02361 8"/></g></svg>