<svg width="36px" height="36px" viewBox="0 0 36 36" version="1.1" xmlns="http://www.w3.org/2000/svg"><g transform="translate(-222.000000, -302.000000) translate(222.000000, 302.000000)" fill="#0B1F35" fill-rule="nonzero" stroke="none" stroke-width="1"><path d="M18,0.972972973 C8.59623264,0.972972973 0.972972973,8.59623264 0.972972973,18 C0.972972973,27.4037674 8.59623264,35.027027 18,35.027027 C27.4037674,35.027027 35.027027,27.4037674 35.027027,18 C35.027027,8.59623264 27.4037674,0.972972973 18,0.972972973 Z M18,0 C27.9411255,-1.83636889e-15 36,8.0588745 36,18 C36,27.9411255 27.9411255,36 18,36 C8.0588745,36 1.24224955e-15,27.9411255 0,18 C-1.1882387e-15,8.0588745 8.0588745,1.83636889e-15 18,0 Z"/><polygon points="15.3189455 23.1149814 9.18401493 17.1667604 8.52008766 17.8526956 15.3189455 24.6515534 26.8511853 13.1193135 26.0174387 12.3067933"/></g></svg>