<svg width="30px" height="30px" viewBox="0 0 30 30" version="1.1" xmlns="http://www.w3.org/2000/svg"><g stroke="none" stroke-width="1" fill="none" fill-rule="evenodd"><path d="M15,0.967741935 C7.25019787,0.967741935 0.967741935,7.25019787 0.967741935,15 C0.967741935,22.7498021 7.25019787,29.0322581 15,29.0322581 C22.7498021,29.0322581 29.0322581,22.7498021 29.0322581,15 C29.0322581,7.25019787 22.7498021,0.967741935 15,0.967741935 Z M15,0 C23.2842712,-1.50417313e-15 30,6.71572875 30,15 C30,23.2842712 23.2842712,30 15,30 C6.71572875,30 1.02068891e-15,23.2842712 0,15 C-9.66968441e-16,6.71572875 6.71572875,1.50417313e-15 15,0 Z" fill="#FFFFFF" fill-rule="nonzero"/><rect x="7.5659824" y="7.5659824" width="15.8357771" height="15.8357771"/><polygon fill="#FFFFFF" fill-rule="nonzero" points="12.7565982 18.7583704 8.42063652 14.6132729 7.74193548 15.3144715 12.7565982 20.3291343 22.6099707 10.4757618 21.7576714 9.64516129"/></g></svg>