<svg width="48px" height="48px" viewBox="0 0 48 48" version="1.1" xmlns="http://www.w3.org/2000/svg"><g fill="#FFFFFF" fill-rule="nonzero" stroke="none" stroke-width="1"><path d="M24,0.979591837 C11.2861796,0.979591837 0.979591837,11.2861796 0.979591837,24 C0.979591837,36.7138204 11.2861796,47.0204082 24,47.0204082 C36.7138204,47.0204082 47.0204082,36.7138204 47.0204082,24 C47.0204082,11.2861796 36.7138204,0.979591837 24,0.979591837 Z M24,0 C37.254834,-2.39264391e-15 48,10.745166 48,24 C48,37.254834 37.254834,48 24,48 C10.745166,48 1.63134812e-15,37.254834 0,24 C-1.63134812e-15,10.745166 10.745166,2.44702218e-15 24,0 Z"/><polygon points="20.2727273 30.013241 12.7922335 22.7299736 12.0909091 23.4545455 20.2727273 31.6363636 35.4545455 16.4545455 34.5738362 15.5962582"/></g></svg>