<svg xmlns="http://www.w3.org/2000/svg" width="24" height="24" viewBox="0 0 24 24"><g fill="none" fill-rule="evenodd"><path d="M0 0h24v24H0z"/><path fill="#0B1F35" fill-rule="nonzero" d="M15.635 21.59c5.084-5.298 5.084-13.883 0-19.18a.6.6 0 0 1 .866-.832c5.53 5.763 5.53 15.08 0 20.843a.6.6 0 0 1-.866-.831zm-3.79-2.931c3.531-3.678 3.531-9.641 0-13.32a.6.6 0 0 1 .867-.83c3.975 4.142 3.975 10.838 0 14.98a.6.6 0 1 1-.866-.83zm-3.789-2.138c2.396-2.497 2.396-6.546 0-9.042a.6.6 0 1 1 .866-.831c2.841 2.96 2.841 7.743 0 10.703a.6.6 0 0 1-.866-.83zm-3.789-2.305c1.173-1.222 1.173-3.211 0-4.434a.6.6 0 1 1 .866-.83c1.619 1.686 1.619 4.408 0 6.095a.6.6 0 0 1-.866-.83z"/></g></svg>