<?xml version="1.0" encoding="UTF-8"?>
<svg width="24px" height="24px" viewBox="0 0 24 24" version="1.1" xmlns="http://www.w3.org/2000/svg" xmlns:xlink="http://www.w3.org/1999/xlink">
    <!-- Generator: Sketch 48.2 (47327) - http://www.bohemiancoding.com/sketch -->
    <title>icon_message_m_black</title>
    <desc>Created with Sketch.</desc>
    <defs></defs>
    <g id="Artboard-2" stroke="none" stroke-width="1" fill="none" fill-rule="evenodd" transform="translate(-46.000000, -254.000000)">
        <g id="icon_message_m_white" transform="translate(46.000000, 254.000000)">
            <g id="art">
                <rect id="Rectangle-path" x="0" y="0" width="24" height="24"></rect>
                <path d="M6,20 L3.5,20 C2.673,20 2,19.327 2,18.5 L2,5.5 C2,4.673 2.673,4 3.5,4 L20.5,4 C21.327,4 22,4.673 22,5.5 L22,15 L22,18.5 C22,19.327 21.327,20 20.5,20 L6,20 Z M21,15 L21,5.5 C21,5.224 20.776,5 20.5,5 L3.5,5 C3.224,5 3,5.224 3,5.5 L3,18.5 C3,18.776 3.224,19 3.5,19 L6,19 L20.5,19 C20.776,19 21,18.776 21,18.5 L21,15 Z" id="Combined-Shape" fill="#0B1F35"></path>
                <polygon id="Shape" fill="#0B1F35" opacity="0.4" points="12 12.606 2.218 5.913 2.782 5.087 12 11.394 21.218 5.087 21.782 5.913"></polygon>
            </g>
        </g>
    </g>
</svg>