<svg width="24px" height="24px" viewBox="0 0 24 24" version="1.1" xmlns="http://www.w3.org/2000/svg"><g stroke="none" stroke-width="1" fill="none" fill-rule="evenodd"><rect x="0" y="0" width="24" height="24"/><path d="M12,22 C6.4771525,22 2,17.5228475 2,12 C2,6.4771525 6.4771525,2 12,2 C17.5228475,2 22,6.4771525 22,12 L22,22 L12,22 Z M20,12 C20,7.581722 16.418278,4 12,4 C7.581722,4 4,7.581722 4,12 C4,16.418278 7.581722,20 12,20 L20,20 L20,12 Z" fill="#B5BBC2" fill-rule="nonzero"/><circle fill="#B5BBC2" cx="14.5" cy="13" r="1.5"/><circle fill="#B5BBC2" cx="9.5" cy="13" r="1.5"/></g></svg>