<svg width="24" height="24" viewBox="0 0 24 24" fill="none" xmlns="http://www.w3.org/2000/svg"><rect x="0" y="0" width="24" height="24" fill="none"/><path d="M23 11.5C23 4.11 20.25 2 12 2C3.75 2 1 4.11 1 11.5C1 18.89 3.9 21 12 21C12.65 21 13.25 21 13.84 21L18.22 24C18.2949 24.0506 18.3821 24.08 18.4724 24.085C18.5627 24.09 18.6526 24.0704 18.7327 24.0283C18.8127 23.9863 18.8798 23.9233 18.9269 23.8461C18.974 23.7689 18.9992 23.6804 19 23.59V20C21.85 18.7 23 16.14 23 11.5ZM7 8H17C17.2652 8 17.5196 8.10536 17.7071 8.29289C17.8946 8.48043 18 8.73478 18 9C18 9.26522 17.8946 9.51957 17.7071 9.70711C17.5196 9.89464 17.2652 10 17 10H7C6.73478 10 6.48043 9.89464 6.29289 9.70711C6.10536 9.51957 6 9.26522 6 9C6 8.73478 6.10536 8.48043 6.29289 8.29289C6.48043 8.10536 6.73478 8 7 8ZM6 13C6 12.7348 6.10536 12.4804 6.29289 12.2929C6.48043 12.1054 6.73478 12 7 12H13C13.2652 12 13.5196 12.1054 13.7071 12.2929C13.8946 12.4804 14 12.7348 14 13C14 13.2652 13.8946 13.5196 13.7071 13.7071C13.5196 13.8946 13.2652 14 13 14H7C6.73478 14 6.48043 13.8946 6.29289 13.7071C6.10536 13.5196 6 13.2652 6 13Z" fill="#B6BCC3"/></svg>