<svg width="18" height="18" viewBox="0 0 18 18" xmlns="http://www.w3.org/2000/svg"><g fill="#FFF" fill-rule="evenodd"><path fill-rule="nonzero" opacity=".3" d="M1.655 14.411l-.582-.433 2.182-2.89.581.434zM13.027 7.892l-.494-.53 3.856-3.544.494.53zM6.243 6.607l-2.86 3.866-.586-.428L6.22 5.418l2.818 3.517 3.13-2.797.487.536L8.95 9.985z"/><path d="M11.988 11.633a5.263 5.263 0 0 0 1.176-3.315C13.164 5.385 10.762 3 7.809 3 4.856 3 2.455 5.385 2.455 8.318c0 2.932 2.401 5.317 5.354 5.317a5.345 5.345 0 0 0 3.338-1.167l3.383 3.36c.232.23.609.23.841 0a.588.588 0 0 0 0-.836l-3.383-3.36zm-8.94-3.315c0-2.607 2.137-4.727 4.76-4.727 2.626 0 4.76 2.12 4.76 4.727a4.685 4.685 0 0 1-1.216 3.144l-.377.374a4.754 4.754 0 0 1-3.166 1.209c-2.624 0-4.76-2.12-4.76-4.727z"/></g></svg>