<svg width="40" height="40" viewBox="0 0 40 40" xmlns="http://www.w3.org/2000/svg"><g fill="#0B1F35" fill-rule="evenodd"><path fill-rule="nonzero" opacity=".3" d="M3.2 30.27l-.792-.596 4.826-6.444.793.596zM28.393 15.685l-.673-.728 8.53-7.905.674.729zM6.625 21.184l.001.007.005-.001.291-.397-.007-.005-.29.396zm6.948-9.457l.005-.007-.006-.007-.005.007.006.007zm13.665.88V12.6h-.004l-.366.33.005.006.365-.33zm-13.634.754l-6.475 8.826L6 20.5l7.54-10.42 6.264 7.882 7.143-6.44L28 13.362l-8.437 7.5-5.959-7.5z"/><path d="M26.306 24.257a11.801 11.801 0 0 0 2.6-7.395C28.906 10.322 23.592 5 17.06 5 10.53 5 5.218 10.32 5.218 16.862c0 6.542 5.312 11.861 11.843 11.861a11.76 11.76 0 0 0 7.384-2.602l7.482 7.494a1.316 1.316 0 1 0 1.861-1.864l-7.482-7.494zM6.532 16.862c0-5.814 4.725-10.544 10.529-10.544 5.806 0 10.529 4.73 10.529 10.544 0 2.696-1.025 5.148-2.692 7.015l-.833.835a10.465 10.465 0 0 1-7.004 2.695c-5.804 0-10.529-4.73-10.529-10.545z"/></g></svg>