<svg width="30" height="30" viewBox="0 0 30 30" xmlns="http://www.w3.org/2000/svg"><g fill="#FFF" fill-rule="evenodd"><path fill-rule="nonzero" opacity=".3" d="M2.025 23.675l-.8-.6 3.75-5 .8.6zM21.586 12.375l-.679-.734 6.628-6.133.68.734zM10.016 10.448L5.049 17.21 4 16l5.968-8.02 4.863 6.11 5.467-4.92L21 10.5l-6.35 5.772z"/><path d="M19.886 18.941a9.148 9.148 0 0 0 2.02-5.737C21.906 8.129 17.778 4 12.703 4 7.628 4 3.5 8.129 3.5 13.204c0 5.075 4.128 9.202 9.203 9.202 2.17 0 4.162-.757 5.737-2.019l5.814 5.814a1.024 1.024 0 0 0 1.446-1.446l-5.814-5.814zM4.521 13.204c0-4.512 3.672-8.182 8.182-8.182 4.511 0 8.181 3.67 8.181 8.182a8.14 8.14 0 0 1-2.091 5.442l-.648.648a8.138 8.138 0 0 1-5.442 2.09c-4.51 0-8.182-3.67-8.182-8.18z"/></g></svg>