<svg width="24px" height="24px" viewBox="0 0 24 24" version="1.1" xmlns="http://www.w3.org/2000/svg"><g stroke="none" stroke-width="1" fill="none" fill-rule="evenodd"><rect fill="#D8D8D8" opacity="0" x="0" y="0" width="24" height="24"/><g transform="translate(1.000000, 3.000000)" fill="#0B1F35"><polygon fill-rule="nonzero" opacity="0.3" points="0.9 15.8 0.1 15.2 3.1 11.2 3.9 11.8"/><polygon fill-rule="nonzero" opacity="0.3" points="16.5369737 6.77324798 15.8578317 6.03924115 21.160429 1.13299659 21.839571 1.86700341"/><polygon fill-rule="nonzero" opacity="0.3" points="7.20954342 4.99402627 3.27670418 10.3472306 2.47081323 9.75516664 7.17784307 3.34816875 11.0527069 8.21771666 15.3562993 4.34437286 16.0252746 5.08765751 10.9318572 9.67186418"/><path d="M15.1091874,11.952875 C16.1181874,10.692875 16.7251874,9.098875 16.7251874,7.362875 C16.7251874,3.302875 13.4221874,-0.000125 9.36218743,-0.000125 C5.30218743,-0.000125 2.00018743,3.302875 2.00018743,7.362875 C2.00018743,11.422875 5.30218743,14.724875 9.36218743,14.724875 C11.0981874,14.724875 12.6921874,14.118875 13.9521874,13.109875 L18.6031874,17.760875 C18.9231874,18.079875 19.4411874,18.079875 19.7601874,17.760875 C20.0791874,17.440875 20.0801874,16.922875 19.7601874,16.603875 L15.1091874,11.952875 Z M2.81718743,7.362875 C2.81718743,3.753875 5.75418743,0.817875 9.36218743,0.817875 C12.9711874,0.817875 15.9071874,3.753875 15.9071874,7.362875 C15.9071874,9.035875 15.2701874,10.557875 14.2341874,11.716875 L13.7161874,12.234875 C12.5581874,13.270875 11.0351874,13.907875 9.36218743,13.907875 C5.75418743,13.907875 2.81718743,10.971875 2.81718743,7.362875 L2.81718743,7.362875 Z"/></g></g></svg>