<svg width="48" height="48" viewBox="0 0 48 48" xmlns="http://www.w3.org/2000/svg"><g fill="#0B1F35" fill-rule="evenodd"><path fill-rule="nonzero" opacity=".3" d="M3.4 37.3l-.8-.6 6-8 .8.6zM34.734 19.18l-.679-.735L44.66 8.633l.68.734zM16.387 14.342l.204.256-.204-.256-.193.264.193-.264zm.204.256l7.228 9.084-7.228-9.084zm-.172 1.39l-8.162 11.11L7 25.5l9.356-12.804 7.75 9.74 8.978-8.082 1.338 1.487-10.558 9.503-7.445-9.356z"/><path d="M32.218 29.906a14.636 14.636 0 0 0 3.232-9.18C35.45 12.606 28.844 6 20.724 6 12.604 6 6 12.606 6 20.726c0 8.12 6.604 14.724 14.724 14.724 3.472 0 6.66-1.212 9.18-3.23l9.302 9.302a1.636 1.636 0 1 0 2.314-2.314l-9.302-9.302zm-24.584-9.18c0-7.218 5.874-13.09 13.09-13.09 7.218 0 13.09 5.872 13.09 13.09 0 3.346-1.274 6.39-3.346 8.708l-1.036 1.036c-2.316 2.072-5.362 3.346-8.708 3.346-7.216 0-13.09-5.872-13.09-13.09z"/></g></svg>