<svg width="30px" height="30px" viewBox="0 0 30 30" version="1.1" xmlns="http://www.w3.org/2000/svg"><g stroke="none" stroke-width="1" fill="none" fill-rule="evenodd"><rect fill="#D8D8D8" opacity="0" x="0" y="0" width="30" height="30"/><g transform="translate(1.000000, 4.000000)" fill="#FFFFFF"><polygon fill-rule="nonzero" opacity="0.3" points="1.025 19.675 0.225 19.075 3.975 14.075 4.775 14.675"/><polygon fill-rule="nonzero" opacity="0.3" points="20.5863244 8.37480912 19.9071823 7.64080229 26.535429 1.50799659 27.214571 2.24200341"/><polygon fill-rule="nonzero" opacity="0.3" points="9.01589182 6.44826503 4.0486006 13.209519 3 12 8.9683413 3.97947874 13.8309899 10.0903774 19.2975734 5.17031167 20 6.5 13.6497152 12.2715987"/><path d="M18.8864843,14.9410937 C20.1477343,13.3660937 20.9064843,11.3735937 20.9064843,9.20359375 C20.9064843,4.12859375 16.7777343,-0.00015625 11.7027343,-0.00015625 C6.62773428,-0.00015625 2.50023428,4.12859375 2.50023428,9.20359375 C2.50023428,14.2785937 6.62773428,18.4060937 11.7027343,18.4060937 C13.8727343,18.4060937 15.8652343,17.6485937 17.4402343,16.3873437 L23.2539843,22.2010937 C23.6539843,22.5998438 24.3014843,22.5998438 24.7002343,22.2010937 C25.0989843,21.8010937 25.1002343,21.1535937 24.7002343,20.7548437 L18.8864843,14.9410937 Z M3.52148428,9.20359375 C3.52148428,4.69234375 7.19273428,1.02234375 11.7027343,1.02234375 C16.2139843,1.02234375 19.8839843,4.69234375 19.8839843,9.20359375 C19.8839843,11.2948437 19.0877343,13.1973437 17.7927343,14.6460937 L17.1452343,15.2935937 C15.6977343,16.5885937 13.7939843,17.3848437 11.7027343,17.3848437 C7.19273428,17.3848437 3.52148428,13.7148437 3.52148428,9.20359375 L3.52148428,9.20359375 Z"/></g></g></svg>