<svg width="48px" height="48px" viewBox="0 0 48 48" version="1.1" xmlns="http://www.w3.org/2000/svg"><g stroke="none" stroke-width="1" fill="none" fill-rule="evenodd"><rect fill="#D8D8D8" opacity="0" x="0" y="0" width="48" height="48"/><g transform="translate(2.000000, 6.000000)" fill="#0B1F35"><polygon fill-rule="nonzero" opacity="0.3" points="1.4 31.3 0.6 30.7 6.6 22.7 7.4 23.3"/><polygon fill-rule="nonzero" opacity="0.3" points="32.7343765 13.1794925 32.0552344 12.4454857 42.660429 2.63299659 43.339571 3.36700341"/><path d="M14.3873865,8.34219502 L14.5909352,8.59799505 L14.3873865,8.34219502 L14.1938388,8.6056434 L14.3873865,8.34219502 Z M14.5909352,8.59799505 L21.8191529,17.6817083 L14.5909352,8.59799505 Z M14.4190868,9.98805254 L6.25737636,21.0974067 L5,19.5 L14.3556861,6.69633749 L22.1054139,16.4354333 L31.084241,8.35425808 L32.4221916,9.84082737 L21.8637143,19.3437284 L14.4190868,9.98805254 Z" fill-rule="nonzero" opacity="0.3"/><path d="M30.2183749,23.90575 C32.2363749,21.38575 33.4503749,18.19775 33.4503749,14.72575 C33.4503749,6.60575 26.8443749,-0.00025 18.7243749,-0.00025 C10.6043749,-0.00025 4.00037485,6.60575 4.00037485,14.72575 C4.00037485,22.84575 10.6043749,29.44975 18.7243749,29.44975 C22.1963749,29.44975 25.3843749,28.23775 27.9043749,26.21975 L37.2063749,35.52175 C37.8463749,36.15975 38.8823749,36.15975 39.5203749,35.52175 C40.1583749,34.88175 40.1603749,33.84575 39.5203749,33.20775 L30.2183749,23.90575 Z M5.63437485,14.72575 C5.63437485,7.50775 11.5083749,1.63575 18.7243749,1.63575 C25.9423749,1.63575 31.8143749,7.50775 31.8143749,14.72575 C31.8143749,18.07175 30.5403749,21.11575 28.4683749,23.43375 L27.4323749,24.46975 C25.1163749,26.54175 22.0703749,27.81575 18.7243749,27.81575 C11.5083749,27.81575 5.63437485,21.94375 5.63437485,14.72575 L5.63437485,14.72575 Z"/></g></g></svg>