<svg width="24" height="24" viewBox="0 0 24 24" xmlns="http://www.w3.org/2000/svg"><g fill="#FFF" fill-rule="evenodd"><path fill-rule="nonzero" opacity=".3" d="M1.9 18.8l-.8-.6 3-4 .8.6zM17.537 9.773l-.68-.734 5.303-4.906.68.734zM8.21 7.994l-3.933 5.353-.806-.592 4.707-6.407 3.875 4.87 4.303-3.874.67.744-5.094 4.584z"/><path d="M16.11 14.953a7.318 7.318 0 0 0 1.615-4.59c0-4.06-3.303-7.363-7.363-7.363C6.302 3 3 6.303 3 10.363c0 4.06 3.302 7.362 7.362 7.362 1.736 0 3.33-.606 4.59-1.615l4.651 4.65a.819.819 0 0 0 1.157-1.156l-4.65-4.651zm-12.293-4.59a6.553 6.553 0 0 1 6.545-6.545 6.552 6.552 0 0 1 6.545 6.545 6.512 6.512 0 0 1-1.673 4.354l-.518.518a6.51 6.51 0 0 1-4.354 1.673 6.553 6.553 0 0 1-6.545-6.545z"/></g></svg>