<svg width="18px" height="18px" viewBox="0 0 18 18" version="1.1" xmlns="http://www.w3.org/2000/svg"><g stroke="none" stroke-width="1" fill="none" fill-rule="evenodd"><rect fill="#D8D8D8" opacity="0" x="0" y="0" width="18" height="18"/><g transform="translate(1.000000, 3.000000)" fill="#0B1F35"><polygon fill-rule="nonzero" opacity="0.3" points="0.654545455 11.4111111 0.0727272727 10.9777778 2.25454545 8.08888889 2.83636364 8.52222222"/><polygon fill-rule="nonzero" opacity="0.3" points="12.02689 4.8917902 11.5329685 4.36167416 15.3894029 0.818275312 15.8833244 1.34839135"/><polygon fill-rule="nonzero" opacity="0.3" points="5.2433043 3.60679675 2.38305759 7.4729999 1.79695508 7.04539813 5.22024951 2.41812187 8.03833232 5.93501759 11.1682177 3.13760262 11.6547452 3.67441931 7.95044156 6.98523524"/><path d="M10.9884999,8.63263194 C11.7223181,7.72263194 12.1637727,6.57140972 12.1637727,5.31763194 C12.1637727,2.38540972 9.76159086,-9.02777778e-05 6.80886358,-9.02777778e-05 C3.85613631,-9.02777778e-05 1.45468176,2.38540972 1.45468176,5.31763194 C1.45468176,8.24985417 3.85613631,10.6346319 6.80886358,10.6346319 C8.07140904,10.6346319 9.23068176,10.1969653 10.1470454,9.46824306 L13.5295909,12.8272986 C13.7623181,13.0576875 14.1390454,13.0576875 14.3710454,12.8272986 C14.6030454,12.5961875 14.6037727,12.2220764 14.3710454,11.9916875 L10.9884999,8.63263194 Z M2.04886358,5.31763194 C2.04886358,2.71113194 4.18486358,0.5906875 6.80886358,0.5906875 C9.43359086,0.5906875 11.5688636,2.71113194 11.5688636,5.31763194 C11.5688636,6.52590972 11.1055909,7.62513194 10.3521363,8.4621875 L9.97540904,8.83629861 C9.13322722,9.58452083 8.02559086,10.0445764 6.80886358,10.0445764 C4.18486358,10.0445764 2.04886358,7.92413194 2.04886358,5.31763194 L2.04886358,5.31763194 Z"/></g></g></svg>