<svg width="40px" height="40px" viewBox="0 0 40 40" version="1.1" xmlns="http://www.w3.org/2000/svg"><g stroke="none" stroke-width="1" fill="none" fill-rule="evenodd"><rect fill="#D8D8D8" opacity="0" x="0" y="0" width="40" height="40"/><g transform="translate(2.000000, 5.000000)" fill="#0B1F35"><polygon fill-rule="nonzero" opacity="0.3" points="1.20082418 25.2699742 0.407871471 24.6744702 5.23395843 18.2300258 6.02691114 18.8255298"/><polygon fill-rule="nonzero" opacity="0.3" points="26.3932763 10.6854308 25.7201064 9.95691281 34.2503716 2.05240769 34.9235415 2.78092565"/><path d="M4.62497781,16.1838479 L4.62601566,16.1906313 L4.6309056,16.1898831 L4.92210972,15.792914 L4.91538413,15.7879664 L4.62497781,16.1838479 Z M11.5726114,6.72695726 L11.5776988,6.72002219 L11.5723147,6.71324582 L11.5672273,6.72018089 L11.5726114,6.72695726 Z M25.2378833,7.6068953 L25.2382352,7.60020209 L25.2335352,7.59995499 L24.8676117,7.92979004 L24.8730039,7.93578922 L25.2378833,7.6068953 Z M11.6040325,8.36066216 L5.12941325,17.1868562 L4,15.5 L11.5408936,5.07954092 L17.8035963,12.9617073 L24.9473044,6.52253243 L26,8.36066216 L17.5628764,15.8603952 L11.6040325,8.36066216 Z" fill-rule="nonzero" opacity="0.3"/><path d="M24.3060841,19.2574097 C25.929258,17.2274097 26.9057363,14.6592986 26.9057363,11.8624097 C26.9057363,5.32129861 21.5922146,-0.000201388889 15.0609102,-0.000201388889 C8.52960586,-0.000201388889 3.21769282,5.32129861 3.21769282,11.8624097 C3.21769282,18.4035208 8.52960586,23.7234097 15.0609102,23.7234097 C17.8536059,23.7234097 20.4178667,22.7470764 22.4448233,21.1214653 L29.9268667,28.6147431 C30.4416493,29.1286875 31.2749537,29.1286875 31.7881276,28.6147431 C32.3013015,28.0991875 32.3029102,27.2646319 31.7881276,26.7506875 L24.3060841,19.2574097 Z M4.53199716,11.8624097 C4.53199716,6.04790972 9.2567363,1.3176875 15.0609102,1.3176875 C20.8666928,1.3176875 25.5898233,6.04790972 25.5898233,11.8624097 C25.5898233,14.5577986 24.5650841,17.0099097 22.8984754,18.8771875 L22.0651711,19.7117431 C20.2023015,21.3808542 17.752258,22.4071319 15.0609102,22.4071319 C9.2567363,22.4071319 4.53199716,17.6769097 4.53199716,11.8624097 L4.53199716,11.8624097 Z"/></g></g></svg>