<svg xmlns="http://www.w3.org/2000/svg" width="36" height="36" viewBox="0 0 36 36"><rect width="36" height="36" fill="none"/><path fill="#0b1f35" d="M31.61,25.72 C31.26,28.7 30.58,31.31 25.88,32.96 C24.48,33.44 23.18,33.68 21.88,33.68 C19.13,33.68 16.74,32.6 13.97,31.35 L13.25,31.03 C8.93,29.09 5.81,27.48 5.74,27.45 C5.17,27.19 4.73,26.74 4.52,26.16 C4.3,25.58 4.33,24.96 4.6,24.41 C4.99,23.6 5.81,23.09 6.73,23.09 C7.08,23.09 7.41,23.16 7.72,23.3 L12.67,25.66 C12.92,25.78 13.22,25.74 13.43,25.56 C13.64,25.38 13.71,25.1 13.62,24.84 L6.38,5.85 C6.05,4.99 6.1,3.84 7.29,3.42 C7.49,3.35 7.68,3.32 7.86,3.32 C8.55,3.32 9.17,3.86 9.51,4.75 L13.89,16.33 C14.02,16.67 14.41,16.84 14.77,16.72 C15.12,16.59 15.31,16.22 15.18,15.87 L14.55,14.22 C14.03,12.86 15.13,11.91 15.99,11.61 C16.2,11.54 16.41,11.5 16.62,11.5 C17.39,11.5 18.08,11.97 18.34,12.66 L19.19,14.91 L19.2,14.93 C19.33,15.28 19.72,15.45 20.08,15.33 C20.43,15.2 20.62,14.83 20.49,14.48 L20.09,13.42 C19.76,12.52 20.26,11.52 21.19,11.19 C21.39,11.12 21.6,11.09 21.82,11.09 C22.58,11.09 23.27,11.55 23.53,12.25 L24.54,14.9 L24.55,14.93 C24.68,15.27 25.07,15.45 25.43,15.33 C25.79,15.2 25.97,14.82 25.84,14.48 L25.24,12.9 C25.45,12.69 25.9,12.35 26.2,12.25 C26.37,12.19 26.56,12.16 26.75,12.16 C27.41,12.16 27.99,12.49 28.17,12.96 C29.22,15.74 31.88,23.44 31.61,25.72 M29.46,12.51 C29.08,11.51 27.99,10.84 26.75,10.84 C26.4,10.84 26.05,10.9 25.73,11.01 C25.44,11.11 25.07,11.32 24.73,11.58 C24.22,10.49 23.07,9.77 21.82,9.77 C21.44,9.77 21.07,9.83 20.72,9.95 C20,10.21 19.43,10.69 19.07,11.28 C18.47,10.6 17.58,10.18 16.62,10.18 C16.25,10.18 15.88,10.25 15.52,10.37 C14.77,10.63 14.08,11.12 13.62,11.77 L10.8,4.3 C10.25,2.86 9.15,2 7.86,2 C7.52,2 7.17,2.06 6.82,2.18 C5.14,2.77 4.41,4.5 5.09,6.3 L11.74,23.74 L8.32,22.11 C7.81,21.89 7.28,21.77 6.73,21.77 C5.29,21.77 3.97,22.59 3.35,23.85 C2.93,24.72 2.89,25.7 3.23,26.61 C3.57,27.52 4.25,28.24 5.13,28.63 C5.16,28.65 8.31,30.27 12.67,32.22 L13.38,32.54 C16.18,33.81 18.82,35 21.88,35 C23.34,35 24.8,34.74 26.34,34.2 C31.77,32.3 32.6,29.04 32.97,25.87 C33.34,22.82 29.62,12.93 29.46,12.51"/></svg>