<svg width="24" height="24" viewBox="0 0 24 24" xmlns="http://www.w3.org/2000/svg"><g fill="none" fill-rule="evenodd"><path d="M0 0h24v24H0z"/><path d="M12 23C5.9 23 1 18.1 1 12S5.9 1 12 1s11 4.9 11 11-4.9 11-11 11zm0-21C6.5 2 2 6.5 2 12s4.5 10 10 10 10-4.5 10-10S17.5 2 12 2z" fill="#FFF" fill-rule="nonzero"/><path fill="#FFF" fill-rule="nonzero" d="M6.626 7.334l.707-.707 9.97 9.97-.707.707z"/><path fill="#FFF" fill-rule="nonzero" d="M6.626 16.666l9.97-9.97.707.707-9.97 9.97z"/><path d="M12 23C5.9 23 1 18.1 1 12S5.9 1 12 1s11 4.9 11 11-4.9 11-11 11zm0-21C6.5 2 2 6.5 2 12s4.5 10 10 10 10-4.5 10-10S17.5 2 12 2z" fill="#0B1F35" fill-rule="nonzero"/><path fill="#0B1F35" fill-rule="nonzero" d="M6.626 7.334l.707-.707 9.97 9.97-.707.707z"/><path fill="#0B1F35" fill-rule="nonzero" d="M6.626 16.666l9.97-9.97.707.707-9.97 9.97z"/></g></svg>