<svg xmlns="http://www.w3.org/2000/svg" width="22" height="22" viewBox="0 0 22 22"><g fill="none" fill-rule="evenodd"><path d="M-1-1h24v24H-1z"/><path fill="#FFF" d="M11 22C4.9 22 0 17.1 0 11S4.9 0 11 0s11 4.9 11 11-4.9 11-11 11zm0-21C5.5 1 1 5.5 1 11s4.5 10 10 10 10-4.5 10-10S16.5 1 11 1z"/><path fill="#FFF" d="M5.626 6.334l.707-.707 9.97 9.97-.707.707z"/><path fill="#FFF" d="M5.626 15.666l9.97-9.97.707.707-9.97 9.97z"/><path fill="#FFF" d="M11 22C4.9 22 0 17.1 0 11S4.9 0 11 0s11 4.9 11 11-4.9 11-11 11zm0-21C5.5 1 1 5.5 1 11s4.5 10 10 10 10-4.5 10-10S16.5 1 11 1z"/><path fill="#FFF" d="M5.626 6.334l.707-.707 9.97 9.97-.707.707z"/><path fill="#FFF" d="M5.626 15.666l9.97-9.97.707.707-9.97 9.97z"/></g></svg>