<svg xmlns="http://www.w3.org/2000/svg" width="30" height="30" version="1" viewBox="0 0 30 30"><path fill="#0B1F35" d="M29 2h-9.281l-7.168 8.638L19.627 19H29C18.249 9.443 29 2 29 2zm-9.465 11.027a2.471 2.471 0 0 1-2.481-2.481 2.471 2.471 0 0 1 2.481-2.481 2.471 2.471 0 0 1 2.481 2.481 2.471 2.471 0 0 1-2.481 2.481zM1.551 28h9.373L18 19.638 10.832 11H1.551s10.752 7.443 0 17zm9.465-10.935a2.471 2.471 0 0 1 2.481 2.481 2.471 2.471 0 0 1-2.481 2.481 2.471 2.471 0 0 1-2.481-2.481 2.471 2.471 0 0 1 2.481-2.481z"/></svg>