<svg xmlns="http://www.w3.org/2000/svg" width="28" height="26" viewBox="0 0 28 26"><path fill="#FFF" d="M28 0h-9.281l-7.168 8.638L18.627 17H28C17.249 7.443 28 0 28 0zm-9.465 11.027a2.471 2.471 0 0 1-2.481-2.481 2.471 2.471 0 0 1 2.481-2.481 2.471 2.471 0 0 1 2.481 2.481 2.471 2.471 0 0 1-2.481 2.481zM.551 26h9.373L17 17.638 9.832 9H.551s10.752 7.443 0 17zm9.465-10.935a2.471 2.471 0 0 1 2.481 2.481 2.471 2.471 0 0 1-2.481 2.481 2.471 2.471 0 0 1-2.481-2.481 2.471 2.471 0 0 1 2.481-2.481z"/></svg>