<svg xmlns="http://www.w3.org/2000/svg" width="36" height="36" version="1" viewBox="0 0 36 36"><path fill="#266450" d="M15.197 12.67L23.938 23h11.578c-13.281-11.805 0-21 0-21H24.051l-8.854 10.67zm5.562-.113a3.052 3.052 0 0 1 3.065-3.065c1.703 0 3.065 1.362 3.065 3.065s-1.362 3.065-3.065 3.065a3.053 3.053 0 0 1-3.065-3.065zm1.044 11.113L12.949 13H1.484s13.281 9.195 0 21h11.578l8.741-10.33zm-8.627 2.952c-1.703 0-3.065-1.362-3.065-3.065s1.362-3.065 3.065-3.065 3.065 1.362 3.065 3.065-1.363 3.065-3.065 3.065z"/></svg>