<svg xmlns="http://www.w3.org/2000/svg" width="36" height="36" viewBox="0 0 36 36"><g fill="none" fill-rule="evenodd"><path d="M0 0h36v36H0z"/><path fill="#0B1F35" d="M26.2 6h-6.5l3.6-3.6-.7-.7-4.9 4.9 4.9 4.9.7-.7L19.7 7h6.5c2.4 0 4.8 1.1 6.4 2.9l.8-.7C31.6 7.2 29 6 26.2 6zM12.9 24.6l-.7.7 3.6 3.6H9.2c-2.4 0-4.8-1.1-6.4-2.9l-.8.7c1.8 2 4.4 3.2 7.1 3.2h6.5L12 33.5l.7.7 4.9-4.9-4.7-4.7z" opacity=".3"/><path fill="#0B1F35" d="M12.513 20c.142 0 .284-.003.419-.008L15 19.805v-.694l-2.045.185c-.147.007-.294.01-.439.01h-.001c-4.028 0-7.446-2.619-8.344-6.306H13v-1H3.999l-.05-.43a10.848 10.848 0 0 1-.107-1.515A6.113 6.113 0 0 1 3.878 9H13V8H4.023l.032-.274C4.74 3.711 8.343.797 12.623.797c.11 0 .22.002.339.006L15 .988V.194L12.941.008A10.61 10.61 0 0 0 12.543 0C7.838 0 3.826 3.341 3.208 7.778L3.166 8H0v1h3.026a13.37 13.37 0 0 0 .078 2.532l.055.468H0v1h3.33c.951 4.089 4.715 7 9.183 7zm9.987 8.5h-1c.2 3 2.8 5.1 6.5 5.2V36h1v-2.3c3.3-.3 5.5-2.3 5.5-5.2 0-2.5-1.6-3.8-5.1-4.7l-.4-.1v-8c2.4.3 4 1.8 4.2 3.8h1c-.1-2.4-2.2-4.3-5.2-4.7V13h-1v1.7c-3.3 0-6 2.1-6 5 0 2.3 1.5 3.7 4.9 4.6l1.1.3v8.3c-3.1-.2-5.3-1.9-5.5-4.4zm4.8-5.2c-2.9-.7-4.3-1.8-4.3-3.6 0-2.3 2.2-4 5-4v7.8l-.7-.2zm1.8 1.5c3.1.8 4.4 1.9 4.4 3.8 0 2.2-1.8 3.8-4.5 4.1v-8l.1.1z"/></g></svg>
