<svg width="36" height="36" viewBox="0 0 36 36" xmlns="http://www.w3.org/2000/svg"><g fill="none" fill-rule="evenodd"><path d="M0 0h36v36H0z"/><path d="M26.2 6h-6.5l3.6-3.6-.7-.7-4.9 4.9 4.9 4.9.7-.7L19.7 7h6.5c2.4 0 4.8 1.1 6.4 2.9l.8-.7C31.6 7.2 29 6 26.2 6zM12.9 24.6l-.7.7 3.6 3.6H9.2c-2.4 0-4.8-1.1-6.4-2.9l-.8.7c1.8 2 4.4 3.2 7.1 3.2h6.5L12 33.5l.7.7 4.9-4.9-4.7-4.7z" fill="#FFF" opacity=".3"/><path d="M3 20h1v-4h5.8v-1H4v-3h4.3C12 12 14 9.9 14 6.5S12 1 8.3 1H3v10H0v1h3v3H0v1h3v4zM4 2h4.2C11.4 2 13 3.6 13 6.5S11.4 11 8.2 11H4V2zM22.5 28.5h-1c.2 3 2.8 5.1 6.5 5.2V36h1v-2.3c3.3-.3 5.5-2.3 5.5-5.2 0-2.5-1.6-3.8-5.1-4.7l-.4-.1v-8c2.4.3 4 1.8 4.2 3.8h1c-.1-2.4-2.2-4.3-5.2-4.7V13h-1v1.7c-3.3 0-6 2.1-6 5 0 2.3 1.5 3.7 4.9 4.6l1.1.3v8.3c-3.1-.2-5.3-1.9-5.5-4.4zm4.8-5.2c-2.9-.7-4.3-1.8-4.3-3.6 0-2.3 2.2-4 5-4v7.8l-.7-.2zm1.8 1.5c3.1.8 4.4 1.9 4.4 3.8 0 2.2-1.8 3.8-4.5 4.1v-8l.1.1z" fill="#FFF"/></g></svg>