<svg xmlns="http://www.w3.org/2000/svg" width="43" height="45" viewBox="0 0 43 45"><g fill="none" fill-rule="evenodd"><path d="M-3-2h48v48H-3z"/><path fill="#FFF" d="M29.5 6h-8.8L25.8.9l-.7-.7-6.4 6.4 6.4 6.4.7-.7L20.7 7h8.8C35.8 7 41 12.2 41 18.5v.5h1v-.5C42 11.6 36.4 6 29.5 6zM16.9 31.1l-.7.7 5.1 5.1h-8.8C6.2 37 1 31.8 1 25.5V25H0v.5C0 32.4 5.6 38 12.5 38h8.8l-5.1 5.1.7.7 6.4-6.4-6.4-6.3z" opacity=".3"/><path fill="#FFF" d="M3 21h1v-4.1h6V16H4v-3.1h4.6c3.8 0 6.3-2.3 6.3-5.8S12.5 1 8.6 1H3v11H0v.9h3V16H0v.9h3V21zM4 2h4.4C11.8 2 14 4.1 14 7.1c0 3-2.2 4.9-5.6 4.9H4V2zm25.6 35.5h-1.1c.1 3 2.8 5.3 6.5 5.5v2h1v-2c3.8-.2 6.4-2.4 6.4-5.4 0-2.9-1.7-4.1-6.1-5.1l-.3-.1V24c2.7.2 4.9 1.9 5 4h1c-.1-2.7-2.7-4.8-6-5v-1.8h-.9V23c-3.6.2-6 2.3-6 5.2 0 2.6 1.6 4 5.7 5l.3.1V42c-3-.1-5.3-2.1-5.5-4.5zm6.4-4c3.9.9 5.4 1.9 5.4 4.2 0 2.4-2.3 4.2-5.4 4.3v-8.5zm-5.9-5.4c0-2.3 2.1-4 5-4.1v8.2c-3.6-.8-5-2-5-4.1z"/></g></svg>