<svg xmlns="http://www.w3.org/2000/svg" width="24" height="24" viewBox="0 0 24 24"><g fill="none" fill-rule="evenodd"><path d="M0 0h24v24H0z"/><path fill="#0B1F35" d="M8.9 16.1l-.7.7 2.1 2.1H6.5c-1.6 0-3.1-.7-4.1-1.9l-.8.7c1.2 1.4 3 2.2 4.9 2.2h3.8L8.2 22l.7.7 3.4-3.4-3.4-3.2zM17.5 4h-3.8l2.1-2.1-.7-.7-3.4 3.4L15.1 8l.7-.7L13.7 5h3.8c1.6 0 3.1.7 4.1 1.9l.8-.7c-1.3-1.4-3-2.2-4.9-2.2z" opacity=".3"/><path fill="#0B1F35" d="M15 19.5h-1c.2 1.9 1.7 3.3 4 3.4v1h1v-1c2.4-.2 4-1.5 4-3.6 0-1.7-1-2.7-3.5-3.3l-.5-.1v-5c1.6.2 2.6 1.1 2.8 2.4h1c-.1-1.8-1.7-3.1-3.8-3.3V9h-1v1c-2.1.2-3.7 1.6-3.7 3.4 0 1.6 1 2.6 3.3 3.2l.4.1V22c-1.7-.1-2.8-1.1-3-2.5zm.4-6.1c0-1.3 1.1-2.3 2.6-2.5v4.8c-1.8-.5-2.6-1.2-2.6-2.3zm3.8 3.6c1.9.5 2.8 1.2 2.8 2.5 0 1.4-1.2 2.4-3 2.6V17h.2z"/><path fill="#0B1F35" fill-rule="nonzero" d="M3.05 8A9.732 9.732 0 0 1 3 7c0-.349.017-.682.05-1H9V5H3.218C3.862 2.318 5.91 1 9 1a5.99 5.99 0 0 1 1.709.247l.165-.993A7.007 7.007 0 0 0 9 0C5.698 0 2.93 1.459 2.193 5H0v1h2.045C2.015 6.319 2 6.652 2 7s.015.681.045 1H0v1h2.193C2.93 12.541 5.698 14 9 14c.64 0 1.261-.086 1.85-.247l-.196-.984A5.98 5.98 0 0 1 9 13c-3.09 0-5.138-1.318-5.782-4H9V8H3.05z"/></g></svg>