<svg width="24" height="24" viewBox="0 0 24 24" xmlns="http://www.w3.org/2000/svg"><g fill="none" fill-rule="evenodd"><path d="M0 0h24v24H0z"/><path d="M8.9 16.1l-.7.7 2.1 2.1H6.5c-1.6 0-3.1-.7-4.1-1.9l-.8.7c1.2 1.4 3 2.2 4.9 2.2h3.8L8.2 22l.7.7 3.4-3.4-3.4-3.2zM17.5 4h-3.8l2.1-2.1-.7-.7-3.4 3.4L15.1 8l.7-.7L13.7 5h3.8c1.6 0 3.1.7 4.1 1.9l.8-.7c-1.3-1.4-3-2.2-4.9-2.2z" fill="#FFF" opacity=".3"/><path d="M2 14h1v-2h4v-1H3V9h2.9C8.4 9 10 7.3 10 5S8.4 1 5.9 1H2v7H.2v1H2v2H.2v1H2v2zM3 2h2.6C7.6 2 9 3.2 9 5c0 1.7-1.4 3-3.4 3H3V2zM15 19.5h-1c.2 1.9 1.7 3.3 4 3.4v1h1v-1c2.4-.2 4-1.5 4-3.6 0-1.7-1-2.7-3.5-3.3l-.5-.1v-5c1.6.2 2.6 1.1 2.8 2.4h1c-.1-1.8-1.7-3.1-3.8-3.3V9h-1v1c-2.1.2-3.7 1.6-3.7 3.4 0 1.6 1 2.6 3.3 3.2l.4.1V22c-1.7-.1-2.8-1.1-3-2.5zm.4-6.1c0-1.3 1.1-2.3 2.6-2.5v4.8c-1.8-.5-2.6-1.2-2.6-2.3zm3.8 3.6c1.9.5 2.8 1.2 2.8 2.5 0 1.4-1.2 2.4-3 2.6V17h.2z" fill="#FFF"/></g></svg>