<svg width="48" height="48" viewBox="0 0 48 48" xmlns="http://www.w3.org/2000/svg"><g fill="none" fill-rule="evenodd"><path d="M0 0h48v48H0z"/><path d="M32.5 8h-8.8l5.1-5.1-.7-.7-6.4 6.4 6.4 6.4.7-.7L23.7 9h8.8C38.8 9 44 14.2 44 20.5v.5h1v-.5C45 13.6 39.4 8 32.5 8zM19.9 33.1l-.7.7 5.1 5.1h-8.8C9.2 39 4 33.8 4 27.5V27H3v.5C3 34.4 8.6 40 15.5 40h8.8l-5.1 5.1.7.7 6.4-6.4-6.4-6.3z" fill="#FFF" opacity=".3"/><path d="M6 23h1v-4.1h6V18H7v-3.1h4.6c3.8 0 6.3-2.3 6.3-5.8S15.5 3 11.6 3H6v11H3v.9h3V18H3v.9h3V23zM7 4h4.4C14.8 4 17 6.1 17 9.1c0 3-2.2 4.9-5.6 4.9H7V4zM32.6 39.5h-1.1c.1 3 2.8 5.3 6.5 5.5v2h1v-2c3.8-.2 6.4-2.4 6.4-5.4 0-2.9-1.7-4.1-6.1-5.1l-.3-.1V26c2.7.2 4.9 1.9 5 4h1c-.1-2.7-2.7-4.8-6-5v-1.8h-.9V25c-3.6.2-6 2.3-6 5.2 0 2.6 1.6 4 5.7 5l.3.1V44c-3-.1-5.3-2.1-5.5-4.5zm6.4-4c3.9.9 5.4 1.9 5.4 4.2 0 2.4-2.3 4.2-5.4 4.3v-8.5zm-5.9-5.4c0-2.3 2.1-4 5-4.1v8.2c-3.6-.8-5-2-5-4.1z" fill="#FFF"/></g></svg>