<svg xmlns="http://www.w3.org/2000/svg" width="16" height="17" viewBox="0 0 16 17"><g fill="#FFF"><path d="M10.268 4.2L8.502 5.826l.362.385-.905.812-.86-.812.453-.385-1.856-1.668c-1.449-1.111-2.943.6-2.988 2.267l.543-.428 1.63 1.625.589-.47v-.984l.362.257V7.75l.678.641-3.576 3.335 1.494 1.411 3.486-3.335 3.576 3.421 1.494-1.41-3.576-3.378.679-.641V6.467l.407-.342V7.15l.543.428 1.675-1.582.543.385c.318-1.112-1.493-3.592-2.987-2.181z"/><path d="M0 16.056h16V.944H0v15.112zM1 1.889h14V15.11H1V1.89z"/></g></svg>