<svg xmlns="http://www.w3.org/2000/svg" width="30" height="30" version="1" viewBox="0 0 30 30"><path fill="#0B1F35" d="M20.216 4.53l-4.061 3.957.833.937-2.082 1.978-1.978-1.978 1.041-.937L9.7 4.426C6.368 1.718 2.932 5.883 2.828 9.944l1.25-1.041 3.748 3.957 1.354-1.145V9.32l.833.625v3.228l1.562 1.562-8.226 8.122 3.436 3.436 8.018-8.122 8.226 8.33 3.436-3.436-8.226-8.226 1.562-1.562v-3.228l.937-.833v2.499l1.25 1.041 3.853-3.853 1.25.937c.726-2.707-3.439-8.746-6.875-5.31z"/><path fill="#0B1F35" d="M1 29h28V1H1v28zM2 2h26v26H2V2z"/></svg>