<svg xmlns="http://www.w3.org/2000/svg" width="36" height="36" version="1" viewBox="0 0 36 36"><path fill="#FDEB3F" d="M3 33h30V3H3v30zm9.239-26.494l4.64 4.414-1.132 1.019 2.15 2.15 2.264-2.15-.905-1.019 4.414-4.301c3.735-3.735 8.262 2.829 7.47 5.772l-1.358-1.019-4.188 4.188-1.358-1.132v-2.716l-1.019.905v3.509l-1.698 1.698 8.941 8.941-3.734 3.735-8.941-9.054-8.715 8.828-3.735-3.735 8.941-8.828-1.698-1.698v-3.509l-.905-.679v2.603l-1.471 1.245-4.074-4.301-1.358 1.132c.112-4.413 3.847-8.94 7.469-5.998z"/><path fill="#191919" d="M2 2v32h32V2H2zm31 31H3V3h30v30z"/><path fill="#191919" d="M10.202 15.674l1.471-1.245v-2.603l.905.679v3.509l1.698 1.698-8.941 8.828 3.735 3.735 8.715-8.828 8.941 9.054 3.735-3.735-8.941-8.941 1.698-1.698v-3.509l1.019-.905v2.716l1.358 1.132 4.188-4.188 1.358 1.019c.792-2.943-3.735-9.507-7.47-5.772l-4.414 4.301.905 1.019-2.264 2.15-2.15-2.15 1.132-1.019-4.64-4.414c-3.622-2.943-7.357 1.585-7.47 5.998l1.358-1.132 4.074 4.301z"/></svg>