<svg xmlns="http://www.w3.org/2000/svg" width="18" height="18" version="1" viewBox="0 0 18 18"><path fill="#FDEB3F" d="M2 16h14V2H2v14zM6.696 4.402l1.856 1.766-.453.408.86.86.905-.86-.362-.408 1.766-1.72c1.494-1.494 3.305 1.132 2.988 2.309l-.543-.407-1.675 1.675-.543-.453V6.485l-.407.362V8.25l-.68.68 3.576 3.576L12.49 14l-3.576-3.622-3.486 3.531-1.494-1.494L7.51 8.884l-.679-.679V6.802l-.362-.272v1.041l-.588.498-1.63-1.72-.543.453c.045-1.766 1.539-3.577 2.988-2.4z"/><path fill="#191919" d="M1 1v16h16V1H1zm15 15H2V2h14v14z"/><path fill="#191919" d="M5.881 8.069l.589-.498V6.53l.362.272v1.403l.678.679-3.576 3.531 1.494 1.494 3.486-3.531L12.49 14l1.494-1.494-3.576-3.576.679-.679V6.847l.407-.362v1.087l.543.453 1.675-1.675.543.407c.317-1.177-1.494-3.803-2.988-2.309l-1.766 1.72.362.407-.905.86-.86-.86.453-.407-1.855-1.766c-1.449-1.177-2.943.634-2.988 2.4l.543-.453 1.63 1.72z"/></svg>