<svg xmlns="http://www.w3.org/2000/svg" width="36" height="36" version="1" viewBox="0 0 36 36"><path fill="#0B1F35" d="M23.67 6.619l-4.414 4.301.905 1.019-2.264 2.15-2.15-2.15 1.132-1.019-4.64-4.414c-3.622-2.943-7.357 1.585-7.47 5.998l1.358-1.132 4.074 4.301 1.471-1.245v-2.603l.905.679v3.509l1.698 1.698-8.941 8.828 3.735 3.735 8.715-8.828 8.941 9.054 3.735-3.735-8.941-8.941 1.698-1.698v-3.509l1.019-.905v2.716l1.358 1.132 4.188-4.188 1.358 1.019c.792-2.942-3.735-9.507-7.47-5.772z"/><path fill="#0B1F35" d="M2 34h32V2H2v32zM3 3h30v30H3V3z"/></svg>