<svg xmlns="http://www.w3.org/2000/svg" width="32" height="32" viewBox="0 0 32 32"><g fill="#FFF"><path d="M21.67 4.619L17.256 8.92l.905 1.019-2.264 2.15-2.15-2.15 1.132-1.019-4.64-4.414c-3.622-2.943-7.357 1.585-7.47 5.998l1.358-1.132 4.074 4.301 1.471-1.245V9.825l.905.679v3.509l1.698 1.698-8.941 8.828 3.735 3.735 8.715-8.828 8.941 9.054 3.735-3.735-8.941-8.941 1.698-1.698v-3.509l1.019-.905v2.716l1.358 1.132 4.188-4.188 1.358 1.019c.792-2.942-3.735-9.507-7.47-5.772z"/><path d="M0 32h32V0H0v32zM1 1h30v30H1V1z"/></g></svg>