<svg xmlns="http://www.w3.org/2000/svg" width="22" height="22" viewBox="0 0 22 22"><g fill="#FFF"><path d="M6.218 9.573l.902-.763V7.213l.555.417v2.152l1.041 1.041-5.483 5.414 2.29 2.29 5.344-5.414 5.483 5.553 2.29-2.29-5.483-5.483 1.041-1.041V7.699l.625-.555V8.81l.833.694 2.568-2.568.833.625c.486-1.805-2.29-5.83-4.581-3.54L11.77 6.658l.555.625-1.388 1.319-1.319-1.319.694-.625-2.845-2.707c-2.221-1.804-4.512.972-4.581 3.679l.833-.694 2.499 2.637z"/><path d="M22 0H0v22h22V0zm-1 21H1V1h20v20z"/></g></svg>