<svg xmlns="http://www.w3.org/2000/svg" width="24" height="24" version="1" viewBox="0 0 24 24"><path fill="#0B1F35" d="M7.218 10.573l.902-.763V8.213l.555.417v2.152l1.041 1.041-5.483 5.414 2.29 2.29 5.344-5.414 5.483 5.553 2.29-2.29-5.483-5.483 1.041-1.041V8.699l.625-.555V9.81l.833.694 2.568-2.568.833.625c.486-1.805-2.29-5.83-4.581-3.54L12.77 7.658l.555.625-1.388 1.319-1.319-1.319.694-.625-2.845-2.707c-2.221-1.804-4.512.972-4.581 3.679l.833-.694 2.499 2.637z"/><path fill="#0B1F35" d="M23 1H1v22h22V1zm-1 21H2V2h20v20z"/></svg>