<svg xmlns="http://www.w3.org/2000/svg" width="24" height="24" version="1" viewBox="0 0 24 24"><path fill="#FDEB3F" d="M2 22h20V2H2v20zM8.467 4.951l2.846 2.707-.694.625 1.319 1.319 1.388-1.319-.556-.625 2.707-2.637c2.29-2.29 5.067 1.735 4.581 3.54l-.833-.625-2.568 2.568-.833-.694V8.144l-.625.555v2.152l-1.041 1.041 5.483 5.483-2.29 2.29-5.483-5.553-5.344 5.414-2.29-2.29 5.483-5.414-1.041-1.041V8.63l-.556-.417V9.81l-.902.763-2.499-2.637-.833.694c.069-2.707 2.36-5.483 4.581-3.679z"/><path fill="#191919" d="M1 1v22h22V1H1zm21 21H2V2h20v20z"/><path fill="#191919" d="M7.218 10.573l.902-.763V8.213l.555.417v2.152l1.041 1.041-5.483 5.414 2.29 2.29 5.344-5.414 5.483 5.553 2.29-2.29-5.483-5.483 1.041-1.041V8.699l.625-.555V9.81l.833.694 2.568-2.568.833.625c.486-1.805-2.29-5.83-4.581-3.54L12.77 7.658l.555.625-1.388 1.319-1.319-1.319.694-.625-2.845-2.707c-2.221-1.804-4.512.972-4.581 3.679l.833-.694 2.499 2.637z"/></svg>