<svg xmlns="http://www.w3.org/2000/svg" width="30" height="30" version="1" viewBox="0 0 30 30"><path fill="#FDEB3F" d="M2 28h26V2H2v26zM9.7 4.426l4.269 4.061-1.041.937 1.978 1.978 2.082-1.978-.833-.937 4.061-3.957c3.436-3.436 7.601 2.603 6.872 5.31l-1.25-.937-3.853 3.853-1.25-1.041v-2.5l-.935.833v3.228l-1.562 1.562 8.226 8.226-3.436 3.436-8.226-8.33-8.018 8.122-3.436-3.436 8.226-8.122-1.562-1.562V9.944l-.833-.624v2.395L7.826 12.86 4.077 8.903l-1.25 1.041C2.932 5.883 6.368 1.718 9.7 4.426z"/><path fill="#191919" d="M1 1v28h28V1H1zm27 27H2V2h26v26z"/><path fill="#191919" d="M7.826 12.86l1.354-1.145V9.32l.833.625v3.228l1.562 1.562-8.226 8.122 3.436 3.436 8.018-8.122 8.226 8.33 3.436-3.436-8.226-8.226 1.562-1.562v-3.228l.937-.833v2.499l1.25 1.041 3.853-3.853 1.25.937c.729-2.707-3.436-8.746-6.872-5.31l-4.061 3.957.833.937-2.082 1.978-1.978-1.978 1.041-.937L9.7 4.426C6.368 1.718 2.932 5.883 2.828 9.944l1.25-1.041 3.748 3.957z"/></svg>