<svg xmlns="http://www.w3.org/2000/svg" width="22" height="22" viewBox="0 0 22 22"><g fill="none" fill-rule="evenodd"><path d="M-1-1h24v24H-1z"/><path fill="#FFF" d="M10.5 14.754c-.781 0-1.297.492-1.297 1.25 0 .75.516 1.242 1.297 1.242.797 0 1.297-.492 1.297-1.242 0-.758-.5-1.25-1.297-1.25zM10.938 5C8.572 5 7.273 6.37 7.209 8.259h1.872c.064-.972.725-1.594 1.753-1.594 1.004 0 1.673.598 1.673 1.426 0 .789-.335 1.211-1.323 1.809-1.1.645-1.562 1.363-1.49 2.558l.009.542h1.849v-.454c0-.789.295-1.195 1.339-1.809 1.084-.645 1.689-1.498 1.689-2.717 0-1.761-1.458-3.02-3.642-3.02z" opacity=".3"/><path fill="#FFF" d="M11 0C4.935 0 0 4.935 0 11s4.935 11 11 11 11-4.935 11-11S17.065 0 11 0zm0 21C5.486 21 1 16.514 1 11S5.486 1 11 1s10 4.486 10 10-4.486 10-10 10z"/></g></svg>