<svg xmlns="http://www.w3.org/2000/svg" width="48" height="48" viewBox="0 0 48 48"><g fill="none" fill-rule="evenodd"><path d="M0 0h48v48H0z"/><path stroke="#FFF" d="M35.5 21h.001"/><path d="M0 0h48v48H0z"/><path fill="#FFF" d="M40.541 29.525a44.83 44.83 0 0 1-.783-.454l-.509-.302c-2.183-1.283-3.189-1.882-3.244-7.158C37.936 18.969 39 15.127 39 11.357 39 6.535 37.977 1 30 1c-4.24 0-6.893 1.557-8.129 4.712C20.693 5.265 19.266 5 17.5 5 9.08 5 8 10.765 8 15.786c0 4.431 1.433 8.951 3.995 11.671-.051 5.542-1.011 5.839-3.057 7.016-.221.128-.453.453-.695.599-.241.145-.504.295-.783.454C4.669 37.117 0 39.783 0 47h1c0-6.637 4.186-9.073 6.956-10.655.286-.163.555-.365.802-.513.237-.142.463-.369.679-.493 2.212-1.273 3.365-2.193 3.538-6.988C14.266 29.381 15.779 30 17.5 30c1.721 0 3.234-.619 4.526-1.648.173 4.795 1.326 5.716 3.538 6.988.216.124.442.447.679.589.247.148.516.302.802.465C29.814 37.975 34 40.363 34 47h1c0-7.217-4.669-9.931-7.459-11.523-.279-.159-.542-.358-.783-.502-.242-.146-.474-.375-.695-.502-2.046-1.176-3.007-1.474-3.057-7.016 1.052-1.116 1.916-2.531 2.565-4.125C26.881 24.439 28.368 25 30 25c1.975 0 3.665-.865 5.035-2.262.207 4.611 1.406 5.542 3.707 6.894l.501.297c.247.148.516.302.802.465C42.814 31.975 47 34.363 47 41h1c0-7.217-4.669-9.883-7.459-11.475zM22.106 27H22l.001.1C20.792 28.267 19.3 29 17.5 29c-1.8 0-3.292-.733-4.501-1.9L13 27h-.106C10.236 24.341 9 19.541 9 15.786 9 8.835 11.462 6 17.5 6S26 8.835 26 15.786c0 3.755-1.236 8.555-3.894 11.214zM30 24c-1.5 0-2.862-.571-4.057-1.683A20.611 20.611 0 0 0 27 15.786c0-3.68-.593-7.751-4.218-9.667C23.859 3.323 26.155 2 30 2c5.682 0 8 2.711 8 9.357C38 16.607 35.518 24 30 24z"/></g></svg>