<svg xmlns="http://www.w3.org/2000/svg" width="24" height="24" viewBox="0 0 24 24"><g fill="none" fill-rule="evenodd"><path d="M0 0h24v24H0z"/><path fill="#FFF" d="M20.3 14.332c-.196-.106-.38-.248-.542-.345l-.256-.236c-.986-.58-1.435-.733-1.494-3.156C19.257 9.271 20 7.202 20 5.214 20 1.754 18.318 0 15 0c-2.144 0-3.521.734-4.212 2.221A6.873 6.873 0 0 0 9 2C4.518 2 4 5.221 4 7.643c0 2.231.714 4.506 1.994 5.925-.053 2.443-.473 2.544-1.4 3.078l-.351.426c-.163.097-.347.196-.543.302C2.316 18.121 0 19.372 0 23h1c0-3.031 1.761-4.038 3.176-4.801.21-.114.407-.276.582-.38l.335-.306c1.031-.594 1.65-1.255 1.839-3.134a3.753 3.753 0 0 0 4.137-.001c.189 1.88.808 2.541 1.839 3.134l.335.417c.174.104.371.211.582.325C15.239 19.018 17 19.969 17 23h1c0-3.628-2.316-4.934-3.7-5.681-.196-.106-.38-.26-.542-.358l-.351-.316c-.927-.534-1.348-.635-1.4-3.078.503-.557.92-1.245 1.239-2.012A3.629 3.629 0 0 0 15 12c.76 0 1.455-.228 2.072-.62.198 1.895.844 2.598 1.923 3.232l.248.316c.174.104.371.211.582.325C21.239 16.018 23 16.969 23 20h1c0-3.628-2.316-4.921-3.7-5.668zM11.157 13H11c0 .057.004.101.005.156C10.438 13.683 9.764 14 9 14c-.764 0-1.438-.317-2.005-.844.001-.055.005-.099.005-.156h-.157C5.674 11.791 5 9.667 5 7.643 5 4.302 6.122 3 9 3s4 1.302 4 4.643c0 2.024-.674 4.148-1.843 5.357zm6.032-3H17c0 .065.005.115.005.177-.576.511-1.253.823-2.005.823-.509 0-.984-.144-1.421-.414A10.61 10.61 0 0 0 14 7.643c0-1.8-.29-4.039-2.277-5.072C12.258 1.492 13.288 1 15 1c2.766 0 4 1.3 4 4.214 0 1.769-.689 3.664-1.811 4.786z"/></g></svg>