<svg xmlns="http://www.w3.org/2000/svg" width="36" height="36" viewBox="0 0 36 36"><g fill="none" fill-rule="evenodd"><path d="M0 0h36v36H0z"/><path fill="#0B1F35" d="M30.282 22.627c-.31-.167-.598-.321-.85-.479a20.896 20.896 0 0 0-.531-.32c-1.252-.741-1.836-1.096-1.895-4.299C28.921 15.721 30 12.508 30 9.357 30 5.932 29.261 2 23.5 2c-2.798 0-4.632.927-5.615 2.803C16.912 4.302 15.653 4 14 4c-6.205 0-7 4.161-7 7.786 0 3.213 1.077 6.49 2.997 8.438-.026 3.784-.704 4.178-2.159 5.003-.188.106-.387.22-.596.345-.284.17-.609.338-.958.518C4.18 27.174 1 28.813 1 34h1c0-4.577 2.63-5.933 4.743-7.022.37-.19.714-.368 1.015-.549.201-.121.393-.229.574-.332 1.646-.933 2.509-1.595 2.646-5.046.881.598 1.892.949 3.022.949s2.141-.351 3.022-.95c.138 3.451 1 4.113 2.646 5.046.181.103.373.211.574.332.301.181.645.358 1.015.549C23.37 28.067 26 29.423 26 34h1c0-5.187-3.18-6.826-5.284-7.911-.349-.18-.675-.348-.958-.518-.209-.125-.408-.238-.596-.345-1.455-.824-2.132-1.218-2.159-5.003.752-.763 1.374-1.728 1.853-2.816C20.896 18.448 22.141 19 23.5 19c.936 0 1.78-.269 2.533-.726.157 2.962.916 3.559 2.359 4.413.161.095.331.195.509.308.269.168.576.334.906.512C31.675 24.514 34 25.766 34 30h1c0-4.831-2.839-6.361-4.718-7.373zM14 21c-4.139 0-6-5.388-6-9.214C8 6.966 9.738 5 14 5c4.262 0 6 1.966 6 6.786C20 15.612 18.139 21 14 21zm9.5-3c-1.232 0-2.319-.551-3.24-1.625.484-1.438.74-3.022.74-4.589 0-2.351-.345-4.921-2.273-6.441C19.524 3.753 21.043 3 23.5 3 27.407 3 29 4.842 29 9.357 29 13.514 26.897 18 23.5 18z"/></g></svg>
