<svg xmlns="http://www.w3.org/2000/svg" width="22" height="22" viewBox="0 0 22 22"><g fill="#FFF" fill-rule="evenodd"><path d="M17.5 0h-13A4.505 4.505 0 0 0 0 4.5v13C0 19.981 2.019 22 4.5 22h13c2.481 0 4.5-2.019 4.5-4.5v-13C22 2.019 19.981 0 17.5 0zM21 17.5c0 1.93-1.57 3.5-3.5 3.5h-13C2.57 21 1 19.43 1 17.5v-13C1 2.57 2.57 1 4.5 1h13C19.43 1 21 2.57 21 4.5v13z"/><path d="M14.148 10.424v-.064c.516-.215.92-.551 1.213-1.007.293-.457.439-.978.439-1.563 0-.505-.106-.951-.318-1.338a2.307 2.307 0 0 0-.963-.927 3.845 3.845 0 0 0-1.277-.423C12.788 5.034 12.12 5 11.239 5H7v12h4.803c.833 0 1.519-.075 2.059-.226a4.205 4.205 0 0 0 1.487-.758c.381-.295.685-.669.911-1.12.226-.451.338-.975.338-1.572 0-.817-.223-1.465-.669-1.946-.446-.48-1.039-.798-1.781-.954zM9.998 7.2h.21c.537 0 .941.004 1.213.012.271.008.506.055.705.141.21.091.364.239.463.443.099.204.149.403.149.596 0 .263-.046.494-.137.693-.091.199-.258.355-.5.467-.22.102-.434.159-.641.169-.207.011-.568.016-1.084.016h-.379V7.2h.001zm3.308 6.846a1.2 1.2 0 0 1-.6.52 2.558 2.558 0 0 1-.919.218c-.301.011-.844.016-1.628.016h-.161v-3.006h.556c.537 0 .966.004 1.285.012.32.008.571.047.753.117.301.108.527.266.677.475.15.21.226.5.226.87a1.57 1.57 0 0 1-.189.778z"/></g></svg>