<svg xmlns="http://www.w3.org/2000/svg" width="18" height="18" version="1" viewBox="0 0 18 18"><path fill="#0B1F35" d="M13.5 1h-9C2.57 1 1 2.57 1 4.5v9C1 15.43 2.57 17 4.5 17h9c1.93 0 3.5-1.57 3.5-3.5v-9C17 2.57 15.43 1 13.5 1zM16 13.5c0 1.379-1.122 2.5-2.5 2.5h-9A2.503 2.503 0 0 1 2 13.5v-9C2 3.121 3.122 2 4.5 2h9C14.878 2 16 3.121 16 4.5v9z"/><path fill="#0B1F35" d="M10.908 8.616v-.043c.344-.143.613-.367.809-.672a1.89 1.89 0 0 0 .293-1.042 1.83 1.83 0 0 0-.212-.892 1.546 1.546 0 0 0-.642-.618 2.577 2.577 0 0 0-.852-.282C10.001 5.022 9.556 5 8.969 5H6.143v8h3.202c.555 0 1.013-.05 1.373-.15.36-.1.69-.269.991-.505.254-.197.457-.446.607-.747.15-.301.226-.65.226-1.048 0-.544-.149-.977-.446-1.298-.298-.32-.693-.532-1.188-.636zM8.142 6.467h.14c.358 0 .628.003.809.008.18.005.336.037.469.094.14.061.243.159.309.295a.91.91 0 0 1 .099.398c0 .176-.03.33-.091.462a.65.65 0 0 1-.333.312 1.154 1.154 0 0 1-.427.112c-.138.008-.379.011-.723.011h-.252V6.467zm2.205 4.564a.804.804 0 0 1-.4.347c-.208.09-.412.138-.612.145-.201.007-.562.011-1.085.011h-.108V9.529h.371c.358 0 .644.003.857.008.213.005.38.031.502.078.201.072.351.177.451.317s.15.333.15.58c0 .194-.042.367-.126.519z"/></svg>