<svg xmlns="http://www.w3.org/2000/svg" width="36" height="36" version="1" viewBox="0 0 36 36"><g fill="#EB923C"><path d="M26.908 24.651c0-.201-.201-.705-.503-.805-.302-.101-.302.201-.201.403.201.503.403.906.503 1.007s.301-.101.201-.605zm-2.316.504c-.101-.101-.201-.302-.403-.302-.201 0-.302 0-.503.101-.302.201-.403.705-.101 1.107.101.201.302.302.503.403.201 0 .302 0 .503-.101.303-.302.303-.806.001-1.208z"/><path d="M26.505 28.275c.503.201 1.107.403 1.711.705 1.51.906 3.02 2.114 3.825 3.725.403.705.302.805.201.906-.101.101-.201-.101-.201-.101a6.106 6.106 0 0 0-.503-.805c-3.825-4.53-9.262-4.027-10.872-3.523-4.228 1.309-11.577-.101-14.698-5.033-3.825-5.739-1.912-13.793 4.329-17.82 6.241-4.127 14.295-2.617 18.12 3.322 3.02 4.631 2.416 10.57-.906 14.899-.101-.705-.403-1.409-.805-2.013 0-.101-.101-.101-.101-.201l-.604-.604c.101-.201.201-.403.201-.604.906-2.819.302-6.342-1.711-9.262-3.221-4.731-9.161-6.644-13.087-4.027s-4.933 8.658-2.013 13.59c1.611 2.718 5.134 4.933 9.06 5.033-.403-1.208-.201-2.114-.201-2.114 0 .101.302.503.302.604.302.503.705.906 1.208 1.309.906.604 1.812 1.107 2.919 1.309 1.511.202 2.618.303 3.826.705z"/><path d="M26.002 21.833s-1.309-1.409-3.02-1.208c0 0 1.611-.604 3.322.604"/></g></svg>