<svg xmlns="http://www.w3.org/2000/svg" width="16" height="15" viewBox="0 0 16 15"><g fill="#FFF" fill-rule="evenodd"><path d="M11.955 5.13c.078-.027.14-.09.203-.134.281-.205.464-.474.598-.82l-.229.12c-.236.113-.637.275-.946.301-.363-.313-.744-.56-1.459-.548l-.225.025a2.37 2.37 0 0 0-.41.12c-.524.215-.88.615-1.045 1.171-.066.222-.092.59-.009.82a3.73 3.73 0 0 1-.829-.102c-.975-.226-1.583-.533-2.257-1.03a3.32 3.32 0 0 1-.55-.498c-.051-.062-.131-.114-.167-.184l-.009-.004a1.914 1.914 0 0 0-.198.455c-.183.663.107 1.22.415 1.582.093.11.244.178.337.28h.01c-.07.025-.192-.009-.252-.021a2.137 2.137 0 0 1-.388-.101l-.189-.086c-.003.733.389 1.21.869 1.495.156.091.376.217.604.228-.122.098-.644.054-.825.034.227.55.574.917 1.172 1.117.154.051.342.096.55.093-.11.124-.346.225-.5.31-.32.176-.691.29-1.108.378-.168.034-.346.028-.528.055-.201.03-.411-.017-.59-.022l.162.094c.164.095.337.178.522.255a7.01 7.01 0 0 0 1.085.335c.796.186 1.919.103 2.613-.101 1.935-.57 3.156-1.9 3.618-3.86.079-.337.091-.72.086-1.12l.288-.216c.238-.18.461-.431.626-.679v-.004c-.314.093-.644.264-1.045.268V5.13z"/><path d="M12.5 0h-9C1.57 0 0 1.472 0 3.281v8.438C0 13.529 1.57 15 3.5 15h9c1.93 0 3.5-1.472 3.5-3.281V3.28C16 1.471 14.43 0 12.5 0zM15 11.719c0 1.293-1.122 2.344-2.5 2.344h-9c-1.378 0-2.5-1.051-2.5-2.344V3.28C1 1.988 2.122.937 3.5.937h9c1.378 0 2.5 1.051 2.5 2.344v8.438z"/></g></svg>