<svg xmlns="http://www.w3.org/2000/svg" width="18" height="18" version="1" viewBox="0 0 18 18"><path fill="#0B1F35" d="M12.955 6.473c.078-.03.14-.096.203-.144.281-.219.464-.506.598-.874l-.229.127c-.236.121-.637.294-.946.322-.363-.334-.744-.597-1.459-.585-.076.008-.151.018-.225.027a2.26 2.26 0 0 0-.41.127c-.524.23-.88.657-1.045 1.25-.066.236-.092.63-.009.874-.295 0-.581-.047-.829-.108-.975-.242-1.583-.569-2.257-1.1a3.406 3.406 0 0 1-.55-.53c-.051-.066-.131-.122-.167-.197l-.009-.004a2.114 2.114 0 0 0-.198.485c-.183.708.107 1.302.415 1.688.093.117.244.19.337.299h.01c-.07.026-.192-.01-.252-.023a2.03 2.03 0 0 1-.388-.108l-.189-.091a1.795 1.795 0 0 0 .869 1.594c.156.098.376.232.604.244-.122.104-.644.057-.825.036.227.587.574.978 1.172 1.191.154.055.342.103.55.099-.11.133-.346.24-.5.331-.32.188-.691.31-1.108.403-.168.037-.346.03-.528.059-.201.033-.411-.018-.59-.023l.162.1c.164.101.337.19.522.272a6.7 6.7 0 0 0 1.085.357c.796.199 1.919.11 2.613-.108 1.935-.607 3.156-2.026 3.618-4.116.079-.36.091-.768.086-1.196l.288-.23c.238-.192.461-.46.626-.724v-.004c-.314.099-.644.281-1.045.285v-.005z"/><path fill="#0B1F35" d="M13.5 1h-9C2.57 1 1 2.57 1 4.5v9C1 15.43 2.57 17 4.5 17h9c1.93 0 3.5-1.57 3.5-3.5v-9C17 2.57 15.43 1 13.5 1zM16 13.5c0 1.379-1.122 2.5-2.5 2.5h-9A2.503 2.503 0 0 1 2 13.5v-9C2 3.121 3.122 2 4.5 2h9C14.878 2 16 3.121 16 4.5v9z"/></svg>