<svg xmlns="http://www.w3.org/2000/svg" width="24" height="24" version="1" viewBox="0 0 24 24"><path fill="#0B1F35" d="M17.66 8.225c.117-.045.209-.143.303-.215.42-.327.693-.756.894-1.306l-.342.189c-.353.181-.952.44-1.413.481-.542-.5-1.112-.892-2.18-.873-.113.012-.225.027-.336.04a3.368 3.368 0 0 0-.612.189c-.783.343-1.315.981-1.561 1.867-.098.353-.138.942-.014 1.305a5.291 5.291 0 0 1-1.238-.161c-1.458-.363-2.365-.851-3.372-1.645a5.08 5.08 0 0 1-.821-.791c-.076-.095-.195-.178-.249-.291l-.013-.006a3.164 3.164 0 0 0-.296.724c-.273 1.058.159 1.945.619 2.522.139.174.366.283.505.446h.015c-.105.039-.286-.015-.377-.034a3.093 3.093 0 0 1-.579-.161l-.282-.136c-.004 1.168.581 1.928 1.299 2.381.233.147.562.347.902.365-.182.155-.962.084-1.232.053.339.878.858 1.461 1.75 1.779.23.082.511.154.822.148-.164.198-.516.358-.747.495-.478.281-1.032.463-1.655.601-.252.055-.516.044-.788.088-.3.049-.614-.026-.881-.034l.242.149c.246.151.503.284.78.406.5.22 1.032.387 1.621.534 1.189.297 2.866.164 3.903-.161 2.89-.907 4.715-3.027 5.404-6.148.118-.537.135-1.147.128-1.786l.428-.344c.355-.287.689-.687.935-1.082v-.007c-.469.148-.963.42-1.562.426v-.007z"/><path fill="#0B1F35" d="M18.5 1h-13A4.505 4.505 0 0 0 1 5.5v13C1 20.981 3.019 23 5.5 23h13c2.481 0 4.5-2.019 4.5-4.5v-13C23 3.019 20.981 1 18.5 1zM22 18.5c0 1.93-1.57 3.5-3.5 3.5h-13C3.57 22 2 20.43 2 18.5v-13C2 3.57 3.57 2 5.5 2h13C20.43 2 22 3.57 22 5.5v13z"/></svg>