<svg xmlns="http://www.w3.org/2000/svg" width="35" height="44" viewBox="0 0 35 44"><g fill="none" fill-rule="evenodd"><path d="M-6-2h48v48H-6z"/><path fill="#FFF" d="M31.5 44h-28C1.6 44 0 42.4 0 40.5v-37C0 1.6 1.6 0 3.5 0h21.2L35 10.3v30.2c0 1.9-1.6 3.5-3.5 3.5zM3.5 1C2.1 1 1 2.1 1 3.5v37C1 41.9 2.1 43 3.5 43h28c1.4 0 2.5-1.1 2.5-2.5V10.7L24.3 1H3.5z"/><path fill="#FFF" d="M10.8 25.9c0 2.1 1.3 3.6 3.7 3.6 2.4 0 3.7-1.5 3.7-3.6V16H21v10.2c0 3.4-2.5 5.8-6.5 5.8S8 29.6 8 26.2V16h2.8v9.9zm23.7-.9l-3.2-9h-3.2l-5.7 16h2.9l1.4-4.1h5.9L34 32h.5v-7zm-7.1.7l2.2-6.8h.1l2.2 6.8h-4.5z" opacity=".3"/></g></svg>