<svg width="48" height="48" viewBox="0 0 48 48" xmlns="http://www.w3.org/2000/svg"><g fill="none" fill-rule="evenodd"><path d="M0 0h48v48H0z"/><path d="M37.5 46h-28C7.6 46 6 44.4 6 42.5v-37C6 3.6 7.6 2 9.5 2h21.2L41 12.3v30.2c0 1.9-1.6 3.5-3.5 3.5zM9.5 3C8.1 3 7 4.1 7 5.5v37C7 43.9 8.1 45 9.5 45h28c1.4 0 2.5-1.1 2.5-2.5V12.7L30.3 3H9.5z" fill="#FFF"/><path d="M16.8 27.9c0 2.1 1.3 3.6 3.7 3.6 2.4 0 3.7-1.5 3.7-3.6V18H27v10.2c0 3.4-2.5 5.8-6.5 5.8S14 31.6 14 28.2V18h2.8v9.9zM40.5 27l-3.2-9h-3.2l-5.7 16h2.9l1.4-4.1h5.9L40 34h.5v-7zm-7.1.7l2.2-6.8h.1l2.2 6.8h-4.5z" fill="#FFF" opacity=".3"/></g></svg>