<?xml version="1.0" encoding="UTF-8"?>
<svg width="24px" height="24px" viewBox="0 0 24 24" version="1.1" xmlns="http://www.w3.org/2000/svg" xmlns:xlink="http://www.w3.org/1999/xlink">
    <!-- Generator: Sketch 48.2 (47327) - http://www.bohemiancoding.com/sketch -->
    <title>icon_account-text_m_white</title>
    <desc>Created with Sketch.</desc>
    <defs></defs>
    <g id="mobile" stroke="none" stroke-width="1" fill="none" fill-rule="evenodd" transform="translate(-64.000000, -261.000000)">
        <g id="Headings" transform="translate(64.000000, 77.000000)"></g>
        <g id="icon_tool_account_text__m__white" transform="translate(64.000000, 261.000000)">
            <g id="ungroup">
                <rect id="Rectangle-path" x="0" y="0" width="24" height="24"></rect>
                <path d="M19,23 L5,23 C3.9,23 3,22.1 3,21 L3,3 C3,1.9 3.9,1 5,1 L15.7,1 L21,6.3 L21,21 C21,22.1 20.1,23 19,23 L19,23 Z M5,2 C4.4,2 4,2.4 4,3 L4,21 C4,21.6 4.4,22 5,22 L19,22 C19.6,22 20,21.6 20,21 L20,6.7 L15.3,2 L5,2 L5,2 Z" id="Shape" fill="#FFFFFF"></path>
                <path d="M7.9,14 C7.9,15.2 8.6,16.1 10,16.1 C11.4,16.1 12.1,15.2 12.1,14 L12.1,9 L13,9 L13,14.1 C13,15.8 11.9,17 10,17 C8.1,17 7,15.8 7,14.1 L7,9 L7.9,9 L7.9,14 L7.9,14 Z" id="Shape" fill="#FFFFFF" opacity="0.3"></path>
                <path d="M20.5,14.9 L18.4,9 L17.4,9 L14.5,17 L15.5,17 L16.3,14.7 L19.4,14.7 L20.2,17 L20.5,17 L20.5,14.9 L20.5,14.9 Z M16.6,13.9 L17.9,10.3 L17.9,10.3 L19.2,13.9 L16.6,13.9 L16.6,13.9 Z" id="Shape" fill="#FFFFFF" opacity="0.3"></path>
                <g id="Group" opacity="0.3"></g>
            </g>
        </g>
    </g>
</svg>