<svg xmlns="http://www.w3.org/2000/svg" width="26" height="34" viewBox="0 0 26 34"><g fill="none" fill-rule="evenodd"><path d="M-5-1h36v36H-5z"/><path fill="#FFF" d="M23.2 33.1H2.8c-1.5 0-2.8-1.3-2.8-2.8V2.8C0 1.3 1.3 0 2.8 0h15.3L26 7.9v22.4c0 1.6-1.3 2.8-2.8 2.8zM2.8 1C1.8 1 1 1.8 1 2.8v27.5c0 1 .8 1.8 1.8 1.8h20.4c1 0 1.8-.8 1.8-1.8v-22L17.6 1H2.8z"/><path fill="#FFF" d="M6.9 19.5c0 1.7 1.1 2.9 3.1 2.9s3.1-1.2 3.1-2.9V12H15v7.7c0 2.5-1.9 4.3-5 4.3s-5-1.8-5-4.3V12h1.9v7.5zm18.6 0L22.8 12h-2l-4.3 12h1.9l1.1-3.2h4.6l1.1 3.2h.3v-4.5zm-5.5-.2l1.8-5.3 1.8 5.3H20z" opacity=".3"/></g></svg>