<svg xmlns="http://www.w3.org/2000/svg" width="18" height="22" viewBox="0 0 18 22"><g fill="none" fill-rule="evenodd"><path d="M-3-1h24v24H-3z"/><path fill="#0B1F35" d="M16 22H2c-1.1 0-2-.9-2-2V2C0 .9.9 0 2 0h10.7L18 5.3V20c0 1.1-.9 2-2 2zM2 1c-.6 0-1 .4-1 1v18c0 .6.4 1 1 1h14c.6 0 1-.4 1-1V5.7L12.3 1H2z"/><path fill="#0B1F35" d="M4.9 13c0 1.2.7 2.1 2.1 2.1 1.4 0 2.1-.9 2.1-2.1V8h.9v5.1c0 1.7-1.1 2.9-3 2.9s-3-1.2-3-2.9V8h.9v5zm12.6.9L15.4 8h-1l-2.9 8h1l.8-2.3h3.1l.8 2.3h.3v-2.1zm-3.9-1l1.3-3.6 1.3 3.6h-2.6z" opacity=".3"/></g></svg>
