<svg width="18" height="18" viewBox="0 0 18 18" fill="none" xmlns="http://www.w3.org/2000/svg"><rect width="18" height="18" fill="none"/><path fill-rule="evenodd" clip-rule="evenodd" d="M14.25 17.25H3.75C2.925 17.25 2.25 16.575 2.25 15.75V2.25C2.25 1.425 2.925 0.75 3.75 0.75H11.775L15.75 4.725V15.75C15.75 16.575 15.075 17.25 14.25 17.25ZM3.75 1.5C3.3 1.5 3 1.8 3 2.25V15.75C3 16.2 3.3 16.5 3.75 16.5H14.25C14.7 16.5 15 16.2 15 15.75V5.025L11.475 1.5H3.75Z" fill="white"/><path opacity="0.3" fill-rule="evenodd" clip-rule="evenodd" d="M5.925 10.5C5.925 11.4 6.45 12.075 7.5 12.075C8.55 12.075 9.075 11.4 9.075 10.5V6.75H9.75V10.575C9.75 11.85 8.925 12.75 7.5 12.75C6.075 12.75 5.25 11.85 5.25 10.575V6.75H5.925V10.5Z" fill="white"/><path opacity="0.3" fill-rule="evenodd" clip-rule="evenodd" d="M15.375 11.175L13.8 6.75H13.05L10.875 12.75H11.625L12.225 11.025H14.55L15.15 12.75H15.375V11.175ZM12.45 10.425L13.425 7.725L14.4 10.425H12.45Z" fill="white"/></svg>