<?xml version="1.0" encoding="UTF-8"?>
<svg width="36px" height="36px" viewBox="0 0 36 36" version="1.1" xmlns="http://www.w3.org/2000/svg" xmlns:xlink="http://www.w3.org/1999/xlink">
    <!-- Generator: Sketch 48.2 (47327) - http://www.bohemiancoding.com/sketch -->
    <title>icon_account-text_xl_white</title>
    <desc>Created with Sketch.</desc>
    <defs></defs>
    <g id="mobile" stroke="none" stroke-width="1" fill="none" fill-rule="evenodd" transform="translate(-128.000000, -261.000000)">
        <g id="Headings" transform="translate(64.000000, 77.000000)"></g>
        <g id="icon_tool_account_text__xl__white" transform="translate(128.000000, 261.000000)">
            <g id="ungroup">
                <rect id="Rectangle-path" x="0" y="0" width="36" height="36"></rect>
                <path d="M28.2,34.1 L7.8,34.1 C6.3,34.1 5,32.8 5,31.3 L5,3.8 C5,2.3 6.3,1 7.8,1 L23.1,1 L31,8.9 L31,31.3 C31,32.9 29.7,34.1 28.2,34.1 L28.2,34.1 Z M7.8,2 C6.8,2 6,2.8 6,3.8 L6,31.3 C6,32.3 6.8,33.1 7.8,33.1 L28.2,33.1 C29.2,33.1 30,32.3 30,31.3 L30,9.3 L22.6,2 L7.8,2 L7.8,2 Z" id="Shape" fill="#FFFFFF"></path>
                <path d="M11.9,20.5 C11.9,22.2 13,23.4 15,23.4 C17,23.4 18.1,22.2 18.1,20.5 L18.1,13 L20,13 L20,20.7 C20,23.2 18.1,25 15,25 C11.9,25 10,23.2 10,20.7 L10,13 L11.9,13 L11.9,20.5 L11.9,20.5 Z" id="Shape" fill="#FFFFFF" opacity="0.3"></path>
                <path d="M30.5,20.5 L27.8,13 L25.8,13 L21.5,25 L23.4,25 L24.5,21.8 L29.1,21.8 L30.2,25 L30.5,25 L30.5,20.5 L30.5,20.5 Z M25,20.3 L26.8,15 L26.8,15 L28.6,20.3 L25,20.3 L25,20.3 Z" id="Shape" fill="#FFFFFF" opacity="0.3"></path>
                <g id="Group" opacity="0.3"></g>
            </g>
        </g>
    </g>
</svg>