<svg width="24" height="24" viewBox="0 0 24 24" xmlns="http://www.w3.org/2000/svg"><g fill="none" fill-rule="evenodd"><path d="M0 0h24v24H0z"/><path d="M19 23H5c-1.1 0-2-.9-2-2V3c0-1.1.9-2 2-2h10.7L21 6.3V21c0 1.1-.9 2-2 2zM5 2c-.6 0-1 .4-1 1v18c0 .6.4 1 1 1h14c.6 0 1-.4 1-1V6.7L15.3 2H5z" fill="#0B1F35"/><path d="M7.9 14c0 1.2.7 2.1 2.1 2.1 1.4 0 2.1-.9 2.1-2.1V9h.9v5.1c0 1.7-1.1 2.9-3 2.9s-3-1.2-3-2.9V9h.9v5zM20.5 14.9L18.4 9h-1l-2.9 8h1l.8-2.3h3.1l.8 2.3h.3v-2.1zm-3.9-1l1.3-3.6 1.3 3.6h-2.6z" fill="#0B1F35" opacity=".3"/></g></svg>