<svg xmlns="http://www.w3.org/2000/svg" width="18" height="18" viewBox="0 0 18 18"><rect width="18" height="18" fill="none"/><g fill="#0B1F35" transform="translate(2)"><path d="M10.12,16.73 C9.99,16.73 9.86,16.68 9.77,16.58 C9.57,16.38 9.57,16.07 9.77,15.87 C13.77,11.87 13.77,5.37 9.77,1.37 C9.57,1.17 9.57,0.86 9.77,0.66 C9.97,0.46 10.28,0.46 10.48,0.66 C14.87,5.05 14.87,12.18 10.48,16.57 C10.38,16.68 10.25,16.73 10.12,16.73 Z"/><path d="M7.12,14.5 C6.99,14.5 6.86,14.45 6.77,14.35 C6.57,14.15 6.57,13.84 6.77,13.64 C9.54,10.87 9.54,6.37 6.77,3.6 C6.57,3.4 6.57,3.09 6.77,2.89 C6.97,2.69 7.28,2.69 7.48,2.89 C10.64,6.05 10.64,11.19 7.48,14.35 C7.38,14.45 7.25,14.5 7.12,14.5 Z"/><path d="M4.12 12.88C3.99 12.88 3.86 12.83 3.77 12.73 3.57 12.53 3.57 12.22 3.77 12.02 5.64 10.15 5.64 7.1 3.77 5.23 3.57 5.03 3.57 4.72 3.77 4.52 3.97 4.32 4.28 4.32 4.48 4.52 6.74 6.78 6.74 10.46 4.48 12.73 4.38 12.83 4.25 12.88 4.12 12.88zM1.12 11.12C.99 11.12.86 11.07.77 10.97.57 10.77.57 10.46.77 10.26 1.68 9.35 1.68 7.87.77 6.97.57 6.77.57 6.46.77 6.26.97 6.06 1.28 6.06 1.48 6.26 2.11 6.89 2.46 7.72 2.46 8.61 2.46 9.5 2.11 10.33 1.48 10.96 1.38 11.08 1.25 11.12 1.12 11.12z"/></g></svg>