<svg xmlns="http://www.w3.org/2000/svg" width="24" height="24" viewBox="0 0 24 24"><g fill="none" fill-rule="evenodd"><path d="M0 0h24v24H0z"/><path fill="#FFFFFF" d="M3 20c1.654 0 3-1.346 3-3s-1.346-3-3-3-3 1.346-3 3 1.346 3 3 3zm0-5c1.103 0 2 .897 2 2s-.897 2-2 2-2-.897-2-2 .897-2 2-2zm6-8c0 1.654 1.346 3 3 3s3-1.346 3-3-1.346-3-3-3-3 1.346-3 3zm5 0c0 1.103-.897 2-2 2s-2-.897-2-2 .897-2 2-2 2 .897 2 2zm4 6c0 1.654 1.346 3 3 3s3-1.346 3-3-1.346-3-3-3-3 1.346-3 3zm3-2c1.103 0 2 .897 2 2s-.897 2-2 2-2-.897-2-2 .897-2 2-2z"/><path fill="#FFFFFF" d="M2 19.289V23h2v-3.711a2.491 2.491 0 0 1-1 .211c-.356 0-.693-.077-1-.211zm0-4.578a2.491 2.491 0 0 1 1-.211c.356 0 .693.077 1 .211V1H2v13.711zm9-10a2.491 2.491 0 0 1 1-.211c.356 0 .693.077 1 .211V1h-2v3.711zm0 4.578V23h2V9.289a2.491 2.491 0 0 1-1 .211c-.356 0-.693-.077-1-.211zm9 1.422a2.491 2.491 0 0 1 1-.211c.356 0 .693.077 1 .211V1h-2v9.711zm0 4.578V23h2v-7.711a2.491 2.491 0 0 1-1 .211c-.356 0-.693-.077-1-.211z" opacity=".3"/></g></svg>