<svg xmlns="http://www.w3.org/2000/svg" width="30" height="30" version="1" viewBox="0 0 30 30"><g fill="#EB923C"><path d="M22.868 20.813c0-.183-.183-.642-.459-.734-.275-.092-.275.183-.183.367.183.459.367.825.459.917.091.091.275-.092.183-.55zm-2.109.458c-.092-.092-.183-.275-.367-.275s-.275 0-.459.092c-.275.183-.367.642-.092 1.009.092.183.275.275.459.367.183 0 .275 0 .459-.092.275-.276.275-.734 0-1.101z"/><path d="M22.501 24.114c.459.183 1.009.367 1.559.642 1.376.825 2.751 1.926 3.485 3.393.367.642.275.734.183.825-.092.092-.183-.092-.183-.092a5.553 5.553 0 0 0-.459-.734c-3.485-4.127-8.437-3.668-9.904-3.21-3.852 1.192-10.546-.092-13.389-4.585C.308 15.127 2.051 7.79 7.736 4.122c5.686-3.76 13.022-2.384 16.507 3.026 2.751 4.218 2.201 9.629-.825 13.572-.092-.642-.367-1.284-.734-1.834 0-.092-.092-.092-.092-.183l-.55-.55c.092-.183.183-.367.183-.55.825-2.568.275-5.777-1.559-8.437-2.935-4.31-8.345-6.053-11.922-3.668S4.25 13.385 6.91 17.878c1.467 2.476 4.677 4.494 8.254 4.585-.367-1.1-.183-1.926-.183-1.926 0 .092.275.459.275.55.275.459.642.825 1.1 1.192.825.55 1.651 1.009 2.659 1.192 1.377.184 2.386.276 3.486.643z"/><path d="M22.043 18.245s-1.192-1.284-2.751-1.1c0 0 1.467-.55 3.026.55"/></g></svg>