<svg xmlns="http://www.w3.org/2000/svg" width="18" height="18" version="1" viewBox="0 0 18 18"><g fill="#EB923C"><path d="M13.936 12.662c0-.114-.114-.398-.284-.455-.171-.057-.171.114-.114.227.114.284.227.512.284.568.057.058.171-.056.114-.34zm-1.307.284c-.057-.057-.114-.171-.227-.171-.114 0-.171 0-.284.057-.171.114-.227.398-.057.625.057.114.171.171.284.227.114 0 .171 0 .284-.057.17-.169.17-.453 0-.681z"/><path d="M13.709 14.709c.284.114.625.227.966.398.853.512 1.705 1.194 2.16 2.103.227.398.171.455.114.512-.057.057-.114-.057-.114-.057a3.578 3.578 0 0 0-.284-.455c-2.16-2.558-5.23-2.274-6.14-1.99-2.388.739-6.538-.057-8.3-2.842-2.16-3.24-1.08-7.788 2.445-10.062C8.081-.015 12.629.838 14.789 4.192c1.705 2.615 1.364 5.969-.512 8.414a2.812 2.812 0 0 0-.455-1.137c0-.057-.057-.057-.057-.114l-.341-.341c.057-.114.114-.227.114-.341.512-1.592.171-3.581-.966-5.23C10.753 2.77 7.399 1.69 5.181 3.168s-2.786 4.889-1.137 7.675c.91 1.535 2.899 2.786 5.116 2.842-.227-.682-.114-1.194-.114-1.194 0 .057.171.284.171.341.171.284.398.512.682.739.512.341 1.023.625 1.649.739.853.114 1.479.171 2.161.399z"/><path d="M13.425 11.07s-.739-.796-1.705-.682c0 0 .91-.341 1.876.341"/></g></svg>