<svg xmlns="http://www.w3.org/2000/svg" width="30" height="30" version="1" viewBox="0 0 30 30"><path fill="#0B1F35" d="M22.409 20.079c-.275-.092-.275.183-.183.367.183.459.367.825.459.917.092.092.275-.092.183-.55 0-.184-.183-.642-.459-.734zm-2.017.917c-.183 0-.275 0-.459.092-.275.183-.367.642-.092 1.009.092.183.275.275.458.367.183 0 .275 0 .459-.092.275-.275.275-.734 0-1.1-.091-.093-.183-.276-.366-.276z"/><path fill="#0B1F35" d="M24.244 7.148C20.759 1.738 13.422.362 7.737 4.122 2.051 7.79.308 15.127 3.793 20.354c2.843 4.494 9.537 5.777 13.389 4.585 1.467-.459 6.419-.917 9.904 3.21 0 0 .275.367.459.734 0 0 .092.183.183.092.092-.092.183-.183-.183-.825-.734-1.467-2.109-2.568-3.485-3.393-.55-.275-1.1-.459-1.559-.642-1.1-.367-2.109-.458-3.485-.642-1.009-.183-1.834-.642-2.659-1.192-.459-.367-.825-.734-1.101-1.192 0-.092-.275-.459-.275-.55 0 0-.183.825.183 1.926-3.577-.092-6.786-2.109-8.254-4.585C4.251 13.386 5.168 7.884 8.744 5.5c3.577-2.384 8.987-.642 11.922 3.668 1.834 2.659 2.384 5.869 1.559 8.437 0 .011-.006.022-.007.034-1.521-1.009-2.928-.492-2.928-.492 1.559-.183 2.751 1.1 2.751 1.1l.031-.061.52.52c0 .092.092.092.092.183.367.55.642 1.192.734 1.834 3.026-3.946 3.577-9.356.826-13.575z"/></svg>