<svg xmlns="http://www.w3.org/2000/svg" width="36" height="36" version="1" viewBox="0 0 36 36"><path fill="#0B1F35" d="M26.404 23.846c-.302-.101-.302.201-.201.403.201.503.403.906.503 1.007.101.101.302-.101.201-.604.001-.202-.201-.705-.503-.806zm-2.214 1.007c-.201 0-.302 0-.503.101-.302.201-.403.705-.101 1.107.101.201.302.302.503.403.201 0 .302 0 .503-.101.302-.302.302-.805 0-1.208-.1-.101-.201-.302-.402-.302z"/><path fill="#0B1F35" d="M28.418 9.652c-3.825-5.94-11.879-7.45-18.12-3.322-6.242 4.027-8.154 12.08-4.329 17.818 3.121 4.933 10.47 6.342 14.698 5.033 1.611-.503 7.047-1.007 10.872 3.523 0 0 .302.403.503.805 0 0 .101.201.201.101s.201-.201-.201-.906c-.805-1.611-2.315-2.819-3.825-3.725-.604-.302-1.208-.503-1.711-.705-1.208-.403-2.315-.503-3.825-.705-1.107-.201-2.013-.705-2.919-1.309-.503-.403-.906-.805-1.208-1.309 0-.101-.302-.503-.302-.604 0 0-.201.906.201 2.114-3.926-.101-7.45-2.315-9.06-5.033-2.919-4.933-1.913-10.973 2.013-13.59 3.926-2.617 9.866-.705 13.087 4.027 2.013 2.919 2.617 6.443 1.711 9.262 0 .012-.007.025-.008.037-1.67-1.108-3.214-.54-3.214-.54 1.711-.201 3.02 1.208 3.02 1.208l.034-.067.57.57c0 .101.101.101.101.201.403.604.705 1.309.805 2.013 3.322-4.327 3.926-10.267.906-14.897z"/></svg>