<svg xmlns="http://www.w3.org/2000/svg" width="18" height="18" version="1" viewBox="0 0 18 18"><path fill="#0B1F35" d="M13.652 12.207c-.171-.057-.171.114-.114.227.114.284.227.512.284.568.057.057.171-.057.114-.341 0-.113-.114-.397-.284-.454zm-1.251.569c-.114 0-.171 0-.284.057-.171.114-.227.398-.057.625.057.114.171.171.284.227.114 0 .171 0 .284-.057.171-.171.171-.455 0-.682-.056-.057-.113-.17-.227-.17z"/><path fill="#0B1F35" d="M14.789 4.191C12.629.837 8.081-.016 4.556 2.315 1.031 4.589-.049 9.137 2.112 12.378c1.762 2.786 5.912 3.581 8.3 2.842.91-.284 3.979-.568 6.14 1.99 0 0 .171.227.284.455 0 0 .057.114.114.057s.114-.114-.114-.512c-.455-.91-1.307-1.592-2.16-2.103-.341-.171-.682-.284-.966-.398-.682-.227-1.308-.284-2.16-.398-.625-.114-1.137-.398-1.649-.739-.284-.227-.512-.455-.682-.739 0-.057-.171-.284-.171-.341 0 0-.114.512.114 1.194-2.217-.057-4.207-1.307-5.116-2.842-1.649-2.786-1.08-6.197 1.137-7.675s5.571-.398 7.39 2.274c1.137 1.649 1.478 3.638.966 5.23 0 .007-.004.014-.004.021-.943-.625-1.815-.305-1.815-.305.966-.114 1.706.682 1.706.682l.019-.038.322.322c0 .057.057.057.057.114.227.341.398.739.455 1.137 1.874-2.445 2.215-5.799.51-8.415z"/></svg>