<svg width="18" height="18" viewBox="0 0 18 18" fill="none" xmlns="http://www.w3.org/2000/svg"><path d="M0 0h18v18H0z"/><path fill-rule="evenodd" clip-rule="evenodd" d="M14 5.706h-1V2.467c0-.29-.251-.526-.559-.526H5.707L2 5.431v.275H1V5.04L5.293 1h7.148C13.301 1 14 1.658 14 2.467v3.239zM12.5 17h-10c-.827 0-1.5-.633-1.5-1.412h1c0 .26.224.47.5.47h10c.275 0 .5-.21.5-.47h1c0 .779-.673 1.412-1.5 1.412z" fill="#0B1F35"/><path d="M3.205 10.945H1.93v2.065H1V7.65h2.12c.618 0 1.096.139 1.432.416.336.277.504.678.504 1.204 0 .358-.087.659-.261.902-.172.24-.412.425-.722.555l1.204 2.235v.048H4.28l-1.075-2.065zm-1.274-.748h1.193c.314 0 .56-.078.736-.235.177-.16.265-.377.265-.652 0-.287-.082-.51-.247-.666-.162-.157-.405-.238-.729-.243H1.931v1.796zm7.867 1.565H7.722l-.434 1.248h-.969l2.025-5.36h.836l2.028 5.36h-.972l-.438-1.248zm-1.815-.751h1.554L8.76 8.787l-.777 2.224zm6.444-.066h-1.24v2.065h-.932V7.65h2.088c.618 0 1.096.139 1.432.416.336.277.504.678.504 1.204 0 .358-.087.659-.261.902a1.65 1.65 0 01-.722.555l1.204 2.235v.048h-.998l-1.075-2.065zm-1.24-.748h1.16c.314 0 .559-.078.736-.235.176-.16.265-.377.265-.652 0-.287-.083-.51-.247-.666-.162-.157-.405-.238-.729-.243h-1.185v1.796z" fill="#0B1F35"/></svg>