<svg width="36" height="36" viewBox="0 0 36 36" fill="none" xmlns="http://www.w3.org/2000/svg"><path d="M0 0h36v36H0z"/><path fill-rule="evenodd" clip-rule="evenodd" d="M23.558 34h-17a4.505 4.505 0 01-4.5-4.5V10.294L10.292 2h13.266c2.481 0 4.5 2.019 4.5 4.5V12h-1V6.5c0-1.93-1.57-3.5-3.5-3.5h-12.85l-7.65 7.706V29.5c0 1.93 1.57 3.5 3.5 3.5h17c1.93 0 3.5-1.57 3.5-3.5V28h1v1.5c0 2.481-2.019 4.5-4.5 4.5z" fill="#fff"/><path d="M11.788 20.36H9.18V24H8v-9h3.463c1.004 0 1.775.23 2.313.692.543.462.814 1.134.814 2.015 0 .56-.15 1.05-.453 1.465-.297.417-.713.728-1.248.934l2.093 3.82V24h-1.26l-1.934-3.64zm-2.607-.971H11.5c.583 0 1.046-.153 1.39-.458.346-.305.52-.713.52-1.224 0-.556-.166-.982-.496-1.28-.327-.296-.8-.446-1.42-.45H9.18v3.412zm13.284 2.262h-3.732L17.895 24h-1.212l3.402-9h1.028l3.409 9h-1.206l-.85-2.349zm-3.377-.977h3.029l-1.518-4.209-1.511 4.21zm11.2-.314h-2.575V24h-1.181v-9h3.431c1.004 0 1.775.23 2.313.692.543.462.814 1.134.814 2.015 0 .56-.15 1.05-.453 1.465-.297.417-.713.728-1.248.934l2.093 3.82V24h-1.26l-1.934-3.64zm-2.575-.971H30c.583 0 1.046-.153 1.39-.458.346-.305.52-.713.52-1.224 0-.556-.166-.982-.497-1.28-.326-.296-.799-.446-1.42-.45h-2.28v3.412z" fill="#fff" fill-opacity=".9"/></svg>