<svg width="24" height="24" viewBox="0 0 24 24" fill="none" xmlns="http://www.w3.org/2000/svg"><path d="M0 0h24v24H0z"/><path fill-rule="evenodd" clip-rule="evenodd" d="M20 8h-1V4c0-1.103-.897-2-2-2H7.707L3 6.707V7H2v-.707L7.293 1H17c1.654 0 3 1.346 3 3v4zm-3 15H5c-1.654 0-3-1.346-3-3v-1h1v1c0 1.103.897 2 2 2h12c1.103 0 2-.897 2-2v-1h1v1c0 1.654-1.346 3-3 3z" fill="#fff"/><path d="M4.951 14.133H2.942v2.876H2V9.9h2.692c.801 0 1.416.183 1.846.548.433.364.65.895.65 1.592a1.9 1.9 0 01-.362 1.157c-.237.329-.57.574-.996.737l1.67 3.018v.058H6.494l-1.543-2.876zm-2.009-.766h1.78c.465 0 .835-.12 1.108-.362.277-.24.415-.563.415-.966 0-.44-.132-.777-.395-1.011-.26-.235-.638-.353-1.133-.357H2.942v2.696zm10.601 1.787h-2.979l-.669 1.855H8.93l2.714-7.11h.82l2.72 7.11h-.961l-.68-1.855zm-2.695-.772h2.416l-1.21-3.325-1.207 3.325zm8.791-.249h-2.061v2.876h-.943V9.9h2.745c.8 0 1.416.183 1.846.548.433.364.649.895.649 1.592 0 .442-.12.828-.361 1.157-.238.329-.57.574-.996.737l1.67 3.018v.058h-1.006l-1.543-2.876zm-2.061-.766h1.831c.466 0 .835-.12 1.109-.362.276-.24.415-.563.415-.966 0-.44-.132-.777-.396-1.011-.26-.235-.638-.353-1.133-.357h-1.826v2.696z" fill="#fff" fill-opacity=".9"/></svg>