<svg width="48" height="48" viewBox="0 0 48 48" fill="none" xmlns="http://www.w3.org/2000/svg"><rect width="48" height="48" fill="none"/><path d="M17 18H14V21H11V24H14V27H17V24H20V21H17V18Z" fill="white" fill-opacity="0.3"/><path d="M34 19.5C34 20.3284 33.3284 21 32.5 21C31.6716 21 31 20.3284 31 19.5C31 18.6716 31.6716 18 32.5 18C33.3284 18 34 18.6716 34 19.5Z" fill="white" fill-opacity="0.3"/><path d="M35.5 24C36.3284 24 37 23.3284 37 22.5C37 21.6716 36.3284 21 35.5 21C34.6716 21 34 21.6716 34 22.5C34 23.3284 34.6716 24 35.5 24Z" fill="white" fill-opacity="0.3"/><path d="M34 25.5C34 26.3284 33.3284 27 32.5 27C31.6716 27 31 26.3284 31 25.5C31 24.6716 31.6716 24 32.5 24C33.3284 24 34 24.6716 34 25.5Z" fill="white" fill-opacity="0.3"/><path d="M29.5 24C30.3284 24 31 23.3284 31 22.5C31 21.6716 30.3284 21 29.5 21C28.6716 21 28 21.6716 28 22.5C28 23.3284 28.6716 24 29.5 24Z" fill="white" fill-opacity="0.3"/><rect x="23" y="2" width="2" height="8" fill="white" fill-opacity="0.3"/><path fill-rule="evenodd" clip-rule="evenodd" d="M12.3402 10C8.85789 10 5.92056 12.6288 5.48864 16.1318L3.04159 35.9779C2.64731 39.1756 5.10674 42 8.28548 42C9.8094 42 11.2591 41.3331 12.2626 40.1704L17.5884 34H30.4116L35.7374 40.1704C36.7409 41.3331 38.1906 42 39.7145 42C42.8933 42 45.3527 39.1756 44.9584 35.9779L42.5114 16.1318C42.0794 12.6288 39.1421 10 35.6598 10H12.3402ZM12.3359 11C9.28992 11 6.72684 13.2805 6.37387 16.3047L4.02831 36.4013C3.74251 38.85 5.65708 41 8.12341 41C9.31229 41 10.4433 40.487 11.2262 39.5926L16.9971 33H31.0029L36.7738 39.5926C37.5567 40.487 38.6877 41 39.8766 41C42.3429 41 44.2575 38.85 43.9717 36.4013L41.6261 16.3047C41.2732 13.2805 38.7101 11 35.6641 11H12.3359Z" fill="white"/></svg>