<svg width="48" height="48" viewBox="0 0 48 48" fill="none" xmlns="http://www.w3.org/2000/svg"><rect width="48" height="48" fill="none"/><path fill-rule="evenodd" clip-rule="evenodd" d="M30.8395 33L37.0322 39.707C37.7958 40.5341 38.859 41 39.968 41C42.3765 41 44.272 38.8498 43.9679 36.38L41.4902 16.2539C41.1192 13.2404 38.6019 11 35.6418 11H12.3582C9.39814 11 6.88081 13.2404 6.50982 16.2539L4.0321 36.38C3.72805 38.8498 5.62347 41 8.032 41C9.14104 41 10.2042 40.5341 10.9678 39.707L17.1605 33H30.8395ZM30.4017 34L36.2975 40.3854C37.2486 41.4155 38.5773 42 39.968 42C42.9943 42 45.3358 39.3069 44.9604 36.2579L42.4827 16.1318C42.0514 12.6288 39.1187 10 35.6418 10H12.3582C8.88134 10 5.94857 12.6288 5.51731 16.1318L3.03959 36.2579C2.66423 39.3069 5.00571 42 8.032 42C9.42269 42 10.7513 41.4155 11.7025 40.3854L17.5983 34H30.4017Z" fill="#0B1F35"/><path d="M25 2H23V10H25V2Z" fill="#0B1F35" fill-opacity="0.3"/><path d="M17 18H14V21H11V24H14V27H17V24H20V21H17V18Z" fill="#0B1F35" fill-opacity="0.3"/><path d="M32.5 21C33.3284 21 34 20.3284 34 19.5C34 18.6716 33.3284 18 32.5 18C31.6716 18 31 18.6716 31 19.5C31 20.3284 31.6716 21 32.5 21Z" fill="#0B1F35" fill-opacity="0.3"/><path d="M34 25.5C34 26.3284 33.3284 27 32.5 27C31.6716 27 31 26.3284 31 25.5C31 24.6716 31.6716 24 32.5 24C33.3284 24 34 24.6716 34 25.5Z" fill="#0B1F35" fill-opacity="0.3"/><path d="M37 22.5C37 23.3284 36.3284 24 35.5 24C34.6716 24 34 23.3284 34 22.5C34 21.6716 34.6716 21 35.5 21C36.3284 21 37 21.6716 37 22.5Z" fill="#0B1F35" fill-opacity="0.3"/><path d="M31 22.5C31 23.3284 30.3284 24 29.5 24C28.6716 24 28 23.3284 28 22.5C28 21.6716 28.6716 21 29.5 21C30.3284 21 31 21.6716 31 22.5Z" fill="#0B1F35" fill-opacity="0.3"/></svg>