<svg width="36" height="36" viewBox="0 0 36 36" fill="none" xmlns="http://www.w3.org/2000/svg"><rect width="36" height="36" fill="none"/><path fill-rule="evenodd" clip-rule="evenodd" d="M29.0509 14.3375C30.8204 14.7264 32.1086 16.3628 31.9829 18.2494L31.4998 25.5V27C31.4998 28.2426 30.4924 29.25 29.2498 29.25C28.0072 29.25 26.9998 28.2426 26.9998 27V25.5H8.9998V27C8.9998 28.2426 7.99244 29.25 6.7498 29.25C5.50715 29.25 4.4998 28.2426 4.4998 27L4.49949 25.5L4.01612 18.2494C3.89032 16.3624 5.17916 14.7257 6.94915 14.3372C7.59381 12.1993 7.97373 11.0544 8.64501 10.1698C9.41726 9.15205 10.4625 8.37438 11.6592 7.92713C12.8021 7.5 14.1448 7.5 16.8302 7.5H19.1698C21.8552 7.5 23.1979 7.5 24.3408 7.92713C25.5375 8.37438 26.5827 9.15205 27.355 10.1698C28.0263 11.0545 28.4062 12.1994 29.0509 14.3375ZM11.3178 10.8307C10.6775 11.4625 10.3683 12.3917 9.75 14.25H26.25C25.6281 12.3877 25.3172 11.4566 24.6736 10.8246C24.4017 10.5575 24.0908 10.3335 23.7514 10.1602C22.948 9.75 21.9663 9.75 20.003 9.75H15.9898C14.0313 9.75 13.0521 9.75 12.2504 10.1581C11.9068 10.333 11.5923 10.5599 11.3178 10.8307ZM27 21.75C28.2426 21.75 29.25 20.7426 29.25 19.5C29.25 18.2574 28.2426 17.25 27 17.25C25.7574 17.25 24.75 18.2574 24.75 19.5C24.75 20.7426 25.7574 21.75 27 21.75ZM9 21.75C10.2426 21.75 11.25 20.7426 11.25 19.5C11.25 18.2574 10.2426 17.25 9 17.25C7.75736 17.25 6.75 18.2574 6.75 19.5C6.75 20.7426 7.75736 21.75 9 21.75Z" fill="#0B1F35"/><path d="M1.87458 9.375L6.7498 9.74987L5.24984 13.5L3.85697 12.9952C2.98817 12.6803 2.03207 12.3274 1.67625 11.4745C1.36635 10.7317 1.40106 9.84875 1.87458 9.375Z" fill="#0B1F35"/><path d="M34.1245 9.375L29.25 9.75L30.7498 13.5L32.1427 12.9952C33.0114 12.6803 33.9675 12.3274 34.3233 11.4746C34.6331 10.7318 34.5983 9.84876 34.1245 9.375Z" fill="#0B1F35"/></svg>