<svg width="48" height="48" viewBox="0 0 48 48" fill="none" xmlns="http://www.w3.org/2000/svg"><rect width="48" height="48" fill="none"/><path fill-rule="evenodd" clip-rule="evenodd" d="M38.7346 19.1166C41.0938 19.6351 42.8115 21.817 42.6438 24.3326L41.9997 34V36C41.9997 37.6569 40.6566 39 38.9997 39C37.3429 39 35.9997 37.6569 35.9997 36V34H11.9997V36C11.9997 37.6569 10.6566 39 8.99973 39C7.34287 39 5.99973 37.6569 5.99973 36L5.99933 34L5.35483 24.3326C5.18709 21.8165 6.90555 19.6343 9.26554 19.1163C10.1251 16.2657 10.6316 14.7392 11.5267 13.5597C12.5563 12.2027 13.95 11.1658 15.5456 10.5695C17.0695 10 18.8597 10 22.4403 10H25.5597C29.1403 10 30.9305 10 32.4544 10.5695C34.05 11.1658 35.4437 12.2027 36.4733 13.5597C37.3684 14.7393 37.875 16.2658 38.7346 19.1166ZM15.0904 14.4409C14.2366 15.2834 13.8244 16.5222 13 19H35C34.1708 16.517 33.7562 15.2755 32.8982 14.4327C32.5357 14.0767 32.121 13.778 31.6685 13.547C30.5974 13 29.2885 13 26.6707 13H21.3198C18.7085 13 17.4028 13 16.3339 13.5441C15.8758 13.7774 15.4563 14.0798 15.0904 14.4409ZM36 29C37.6569 29 39 27.6569 39 26C39 24.3431 37.6569 23 36 23C34.3431 23 33 24.3431 33 26C33 27.6569 34.3431 29 36 29ZM12 29C13.6569 29 15 27.6569 15 26C15 24.3431 13.6569 23 12 23C10.3431 23 9 24.3431 9 26C9 27.6569 10.3431 29 12 29Z" fill="#0B1F35"/><path d="M2.49943 12.5L8.99973 12.9998L6.99978 18L5.14263 17.3269C3.98422 16.9071 2.70943 16.4365 2.23501 15.2994C1.82181 14.309 1.86808 13.1317 2.49943 12.5Z" fill="#0B1F35"/><path d="M45.4994 12.5L39 13L40.9998 18L42.8569 17.3269C44.0153 16.9071 45.29 16.4365 45.7644 15.2994C46.1775 14.309 46.1311 13.1317 45.4994 12.5Z" fill="#0B1F35"/></svg>