<svg width="24" height="24" viewBox="0 0 24 24" fill="none" xmlns="http://www.w3.org/2000/svg"><rect width="24" height="24" fill="none"/><path fill-rule="evenodd" clip-rule="evenodd" d="M19.3673 9.55831C20.5469 9.81757 21.4058 10.9085 21.3219 12.1663L20.9999 17V18C20.9999 18.8284 20.3283 19.5 19.4999 19.5C18.6714 19.5 17.9999 18.8284 17.9999 18V17H5.99986V18C5.99986 18.8284 5.32829 19.5 4.49986 19.5C3.67144 19.5 2.99986 18.8284 2.99986 18L2.99966 17L2.67742 12.1663C2.59355 10.9082 3.45277 9.81713 4.63277 9.55815C5.06254 8.13287 5.31582 7.36962 5.76334 6.77985C6.27817 6.10137 6.97498 5.58292 7.77279 5.28476C8.53473 5 9.42987 5 11.2202 5H12.7798C14.5701 5 15.4653 5 16.2272 5.28476C17.025 5.58292 17.7218 6.10137 18.2367 6.77985C18.6842 7.36964 18.9375 8.13292 19.3673 9.55831ZM7.5452 7.22046C7.11832 7.64168 6.91221 8.26112 6.5 9.5H17.5C17.0854 8.2585 16.8781 7.63774 16.4491 7.21637C16.2678 7.03836 16.0605 6.88902 15.8343 6.77348C15.2987 6.5 14.6442 6.5 13.3353 6.5H10.6599C9.35423 6.5 8.7014 6.5 8.16695 6.77207C7.93789 6.88868 7.72817 7.03992 7.5452 7.22046ZM18 14.5C18.8284 14.5 19.5 13.8284 19.5 13C19.5 12.1716 18.8284 11.5 18 11.5C17.1716 11.5 16.5 12.1716 16.5 13C16.5 13.8284 17.1716 14.5 18 14.5ZM6 14.5C6.82843 14.5 7.5 13.8284 7.5 13C7.5 12.1716 6.82843 11.5 6 11.5C5.17157 11.5 4.5 12.1716 4.5 13C4.5 13.8284 5.17157 14.5 6 14.5Z" fill="#0B1F35"/><path d="M1.24972 6.25L4.49986 6.49991L3.49989 9L2.57131 8.66347C1.99211 8.45356 1.35472 8.21825 1.1175 7.64968C0.910903 7.15449 0.934042 6.56583 1.24972 6.25Z" fill="#0B1F35"/><path d="M22.7497 6.25L19.5 6.5L20.4999 9L21.4285 8.66346C22.0076 8.45355 22.645 8.21826 22.8822 7.64972C23.0887 7.15452 23.0655 6.56584 22.7497 6.25Z" fill="#0B1F35"/></svg>