<svg width="18" height="18" viewBox="0 0 18 18" fill="none" xmlns="http://www.w3.org/2000/svg"><rect width="18" height="18" fill="none"/><path fill-rule="evenodd" clip-rule="evenodd" d="M14.5255 7.16873C15.4102 7.36318 16.0543 8.18138 15.9914 9.12472L15.7499 12.75V13.5C15.7499 14.1213 15.2462 14.625 14.6249 14.625C14.0036 14.625 13.4999 14.1213 13.4999 13.5V12.75H4.4999V13.5C4.4999 14.1213 3.99622 14.625 3.3749 14.625C2.75358 14.625 2.2499 14.1213 2.2499 13.5L2.24975 12.75L2.00806 9.12472C1.94516 8.18118 2.58958 7.36285 3.47458 7.16861C3.7969 6.09965 3.98687 5.52722 4.3225 5.08489C4.70863 4.57602 5.23124 4.18719 5.82959 3.96357C6.40105 3.75 7.0724 3.75 8.41512 3.75H9.58489C10.9276 3.75 11.599 3.75 12.1704 3.96357C12.7688 4.18719 13.2914 4.57602 13.6775 5.08489C14.0131 5.52723 14.2031 6.09969 14.5255 7.16873ZM5.6589 5.41534C5.33874 5.73126 5.18416 6.19584 4.875 7.125H13.125C12.8141 6.19387 12.6586 5.72831 12.3368 5.41228C12.2009 5.27877 12.0454 5.16676 11.8757 5.08011C11.474 4.875 10.9832 4.875 10.0015 4.875H7.99492C7.01567 4.875 6.52605 4.875 6.12522 5.07905C5.95341 5.16651 5.79613 5.27994 5.6589 5.41534ZM13.5 10.875C14.1213 10.875 14.625 10.3713 14.625 9.75C14.625 9.12868 14.1213 8.625 13.5 8.625C12.8787 8.625 12.375 9.12868 12.375 9.75C12.375 10.3713 12.8787 10.875 13.5 10.875ZM4.5 10.875C5.12132 10.875 5.625 10.3713 5.625 9.75C5.625 9.12868 5.12132 8.625 4.5 8.625C3.87868 8.625 3.375 9.12868 3.375 9.75C3.375 10.3713 3.87868 10.875 4.5 10.875Z" fill="#0B1F35"/><path d="M0.937288 4.6875L3.3749 4.87493L2.62492 6.75L1.92848 6.4976C1.49408 6.34017 1.01604 6.16369 0.838127 5.73726C0.683177 5.36587 0.700532 4.92437 0.937288 4.6875Z" fill="#0B1F35"/><path d="M17.0623 4.6875L14.625 4.875L15.3749 6.75L16.0714 6.49759C16.5057 6.34016 16.9838 6.1637 17.1616 5.73729C17.3166 5.36589 17.2991 4.92438 17.0623 4.6875Z" fill="#0B1F35"/></svg>