<svg width="30" height="30" viewBox="0 0 30 30" fill="none" xmlns="http://www.w3.org/2000/svg"><rect width="30" height="30" fill="none"/><path fill-rule="evenodd" clip-rule="evenodd" d="M24.2091 11.9479C25.6836 12.272 26.7572 13.6356 26.6524 15.2079L26.2498 21.25V22.5C26.2498 23.5355 25.4104 24.375 24.3748 24.375C23.3393 24.375 22.4998 23.5355 22.4998 22.5V21.25H7.49983V22.5C7.49983 23.5355 6.66036 24.375 5.62483 24.375C4.5893 24.375 3.74983 23.5355 3.74983 22.5L3.74958 21.25L3.34677 15.2079C3.24193 13.6353 4.31597 12.2714 5.79096 11.9477C6.32817 10.1661 6.64478 9.21203 7.20417 8.47481C7.84772 7.62671 8.71873 6.97865 9.71599 6.60594C10.6684 6.25 11.7873 6.25 14.0252 6.25H15.9748C18.2127 6.25 19.3316 6.25 20.284 6.60594C21.2813 6.97865 22.1523 7.62671 22.7958 8.47481C23.3552 9.21205 23.6718 10.1662 24.2091 11.9479ZM9.43151 9.02557C8.8979 9.5521 8.64026 10.3264 8.125 11.875H21.875C21.3568 10.3231 21.0977 9.54718 20.5614 9.02046C20.3348 8.79795 20.0756 8.61127 19.7928 8.46685C19.1234 8.125 18.3053 8.125 16.6692 8.125H13.3249C11.6928 8.125 10.8768 8.125 10.2087 8.46509C9.92236 8.61085 9.66021 8.7999 9.43151 9.02557ZM22.5 18.125C23.5355 18.125 24.375 17.2855 24.375 16.25C24.375 15.2145 23.5355 14.375 22.5 14.375C21.4645 14.375 20.625 15.2145 20.625 16.25C20.625 17.2855 21.4645 18.125 22.5 18.125ZM7.5 18.125C8.53553 18.125 9.375 17.2855 9.375 16.25C9.375 15.2145 8.53553 14.375 7.5 14.375C6.46447 14.375 5.625 15.2145 5.625 16.25C5.625 17.2855 6.46447 18.125 7.5 18.125Z" fill="#0B1F35"/><path d="M1.56215 7.8125L5.62483 8.12489L4.37486 11.25L3.21414 10.8293C2.49014 10.5669 1.69339 10.2728 1.39688 9.5621C1.13863 8.94311 1.16755 8.20729 1.56215 7.8125Z" fill="#0B1F35"/><path d="M28.4371 7.8125L24.375 8.125L25.6249 11.25L26.7856 10.8293C27.5095 10.5669 28.3063 10.2728 28.6027 9.56215C28.8609 8.94315 28.8319 8.2073 28.4371 7.8125Z" fill="#0B1F35"/></svg>