<svg width="24" height="24" viewBox="0 0 24 24" xmlns="http://www.w3.org/2000/svg"><g fill="none" fill-rule="evenodd"><path d="M0-1h24v24H0z"/><path d="M20.489 10.048v-1H16c-.083-1.473-.336-2.84-.771-4.048h3.517V4H14.8C13.978 2.265 12.777.903 11.24.062L11 .5l-.24-.438C9.237.895 8.028 2.262 7.202 4H3.253v1h3.543c-.444 1.217-.709 2.581-.793 4.048H1.511v1h4.448c.005 1.816.302 3.485.837 4.952H3.253v1h3.949c.826 1.738 2.035 3.105 3.557 3.938l.48-.877c-1.205-.66-2.178-1.725-2.9-3.061h1.738v-1H7.871c-.579-1.434-.907-3.107-.913-4.952h13.531zm-9.488-8.95c1.105.67 2.008 1.657 2.678 2.902h-5.34c.672-1.243 1.568-2.237 2.662-2.902zM7.871 5h6.271c.476 1.187.768 2.548.857 4.048H7.002c.09-1.49.387-2.854.869-4.048z" fill="#FFF" opacity=".3"/><path d="M20.966 9.288A9.976 9.976 0 0 0 11 0C5.486 0 1 4.486 1 10s4.486 10 10 10c.626 0 1.246-.069 1.854-.184.77.765 1.573 1.501 2.327 2.188.339.31.668.609.979.899l.341.317.341-.317c.311-.29.64-.59.979-.899C20.573 19.491 24 16.361 24 13.332c0-1.916-1.286-3.521-3.034-4.044zM11 19c-4.963 0-9-4.037-9-9s4.037-9 9-9a8.975 8.975 0 0 1 8.946 8.112c-.063-.003-.122-.019-.186-.019-.937 0-2.23.468-3.013 1.513a4.33 4.33 0 0 0-.248.369 4.33 4.33 0 0 0-.248-.369c-.782-1.045-2.076-1.513-3.013-1.513A4.243 4.243 0 0 0 9 13.332c0 1.889 1.333 3.817 3.004 5.611A9.063 9.063 0 0 1 11 19zm6.145 2.267c-.22.201-.436.397-.645.59l-.645-.59C13.246 18.885 10 15.921 10 13.332a3.243 3.243 0 0 1 3.239-3.239c.665 0 1.641.348 2.212 1.112.374.5.549.994.549 1.552h1c0-.558.175-1.052.549-1.552.571-.765 1.547-1.112 2.212-1.112A3.243 3.243 0 0 1 23 13.332c0 2.589-3.246 5.553-5.855 7.935z" fill="#FFF"/></g></svg>