<svg xmlns="http://www.w3.org/2000/svg" width="48" height="48" viewBox="0 0 48 48"><path fill="none" d="M0 0h48v48H0z"/><path fill="#0B1F35" d="M22 41a19 19 0 1 1 18.9-20.94l-1 .1A18 18 0 1 0 22 40v1z"/><path fill="#0B1F35" d="M32.32 45.74l-.32-.32-1.89-1.74c-5.28-4.79-11.81-10.76-11.81-16.4a7.73 7.73 0 0 1 7.7-7.72 7.13 7.13 0 0 1 5.44 2.74 7.28 7.28 0 0 1 .85 1.44 7.28 7.28 0 0 1 .85-1.44 7.13 7.13 0 0 1 5.44-2.74 7.73 7.73 0 0 1 7.72 7.72c0 5.65-6.53 11.61-11.79 16.4l-1.89 1.74zM26 20.56a6.73 6.73 0 0 0-6.72 6.72c0 5.2 6.35 11 11.46 15.67l1.56 1.43 1.56-1.43C39 38.28 45.34 32.48 45.34 27.28a6.73 6.73 0 0 0-6.72-6.72A6.17 6.17 0 0 0 34 22.89a5.26 5.26 0 0 0-1.15 3.28h-1a5.26 5.26 0 0 0-1.15-3.28 6.17 6.17 0 0 0-4.7-2.33z"/><path fill="none" d="M13.36 12H6.45a18.38 18.38 0 0 0-2.9 9h8.13a27.91 27.91 0 0 1 1.68-9zm6-8.29A18.45 18.45 0 0 0 7.94 10h6.29a17.21 17.21 0 0 1 5.13-6.29zM11.8 23H3.55a18.38 18.38 0 0 0 2.9 9h7a27.91 27.91 0 0 1-1.65-9zm16.97-13h7.28a18.44 18.44 0 0 0-12.6-6.43A17.13 17.13 0 0 1 28.77 10zM14.35 34H7.94a18.45 18.45 0 0 0 11.56 6.31A17.24 17.24 0 0 1 14.35 34z"/><path fill="#0B1F35" d="M22 41v-1a18.06 18.06 0 0 0 4.61-.6l.26 1A19.09 19.09 0 0 1 22 41z"/><path fill="none" d="M21.5 4.67a14.43 14.43 0 0 0-5 5.33h10a14.43 14.43 0 0 0-5-5.33z"/><path fill="none" d="M21.5 4.67a14.43 14.43 0 0 0-5 5.33h10a14.43 14.43 0 0 0-5-5.33zM15.51 12a25.41 25.41 0 0 0-1.83 9h8.78a7.18 7.18 0 0 1 3.54-.94 6.61 6.61 0 0 1 3.3 1 25.45 25.45 0 0 0-1.84-9h-12z"/><path fill="none" d="M21.5 4.67a14.43 14.43 0 0 0-5 5.33h10a14.43 14.43 0 0 0-5-5.33zM15.64 32h4.56a9.94 9.94 0 0 1-1.4-4.72A7.18 7.18 0 0 1 20.21 23H13.8a25.41 25.41 0 0 0 1.84 9z"/><path fill="#0B1F35" d="M15.64 32a25.41 25.41 0 0 1-1.83-9h6.41a7.25 7.25 0 0 1 2.25-2h-8.79a25.41 25.41 0 0 1 1.83-9h12a25.45 25.45 0 0 1 1.84 9 6.12 6.12 0 0 1 1.74 1.55c.1.13.18.27.27.41V22a28.38 28.38 0 0 0-1.71-10h7.92a18.54 18.54 0 0 0-1.5-2h-7.3a17.13 17.13 0 0 0-5.32-6.43c-.48 0-1-.07-1.45-.07a18.55 18.55 0 0 0-2.64.21A17.21 17.21 0 0 0 14.23 10H7.94a18.53 18.53 0 0 0-1.48 2h6.91a27.91 27.91 0 0 0-1.69 9H3.55c0 .33-.05.66-.05 1s0 .67.05 1h8.25a27.91 27.91 0 0 0 1.69 9h-7a18.54 18.54 0 0 0 1.48 2h6.41a17.24 17.24 0 0 0 5.15 6.31l3.28.16.19-.37-.88-.48A14.26 14.26 0 0 1 16.61 34h4.87a20 20 0 0 1-1.28-2h-4.56zM21.5 4.67a14.43 14.43 0 0 1 5 5.33h-10a14.43 14.43 0 0 1 5-5.33z" opacity=".3"/></svg>