<?xml version="1.0" encoding="UTF-8"?>
<svg width="36px" height="36px" viewBox="0 0 36 36" version="1.1" xmlns="http://www.w3.org/2000/svg" xmlns:xlink="http://www.w3.org/1999/xlink">
    <!-- Generator: Sketch 48.2 (47327) - http://www.bohemiancoding.com/sketch -->
    <title>icon_category-charity_xl_white</title>
    <desc>Created with Sketch.</desc>
    <defs></defs>
    <g id="mobile" stroke="none" stroke-width="1" fill="none" fill-rule="evenodd" transform="translate(-1768.000000, -139.000000)">
        <g id="Headings" transform="translate(64.000000, 77.000000)">
            <g id="icon_category_charity__xl__white" transform="translate(1704.000000, 61.000000)">
                <g id="ungroup">
                    <rect id="Rectangle-path" x="0" y="0" width="36" height="36"></rect>
                    <g id="a1" opacity="0.4"></g>
                    <path d="M30.233,16 L30.233,15 L23.31,15 C23.232,12.412 22.774,10.054 21.986,8 L27.87,8 L27.87,7 L21.564,7 C20.352,4.372 18.551,2.322 16.248,1.062 L16.008,1.5 L15.768,1.062 C13.488,2.309 11.686,4.372 10.469,7 L4.63,7 L4.63,8 L10.046,8 C9.247,10.066 8.787,12.433 8.711,15 L1.767,15 L1.767,16 L8.699,16 C8.728,18.972 9.269,21.688 10.248,24 L4.63,24 L4.63,25 L10.713,25 C11.922,27.389 13.636,29.271 15.768,30.438 L17.75,30.333 L16.248,29.561 C14.429,28.565 12.936,26.995 11.836,24.999 L14.865,24.999 L13.865,23.999 L11.337,23.999 C10.302,21.731 9.728,19.006 9.698,15.999 L30.233,15.999 L30.233,16 Z M16.009,2.084 C17.884,3.179 19.394,4.858 20.464,7 L11.578,7 C12.651,4.861 14.153,3.169 16.009,2.084 L16.009,2.084 Z M11.12,8 L20.915,8 C21.747,10.021 22.228,12.385 22.309,15 L9.71,15 C9.79,12.406 10.276,10.034 11.12,8 L11.12,8 Z" id="Shape" fill="#FFFFFF" opacity="0.3"></path>
                    <path d="M30.986,15.148 C30.541,7.204 23.992,1 16.008,1 C7.732,1 1,7.729 1,16 C1,24.271 7.732,31 16.008,31 C16.885,31 17.757,30.904 18.616,30.753 C19.93,32.059 21.325,33.313 22.624,34.479 C23.157,34.958 23.674,35.421 24.162,35.869 L24.5,36.178 L24.838,35.869 C25.326,35.422 25.843,34.958 26.376,34.479 C30.664,30.631 36,25.842 36,21.277 C36,18.277 33.849,15.764 30.986,15.148 L30.986,15.148 Z M16.008,30 C8.284,30 2,23.72 2,16 C2,8.28 8.284,2 16.008,2 C23.397,2 29.463,7.694 29.971,15.017 C29.855,15.011 29.74,15 29.623,15 C28.225,15 26.291,15.688 25.121,17.225 C24.871,17.554 24.665,17.883 24.5,18.217 C24.335,17.883 24.129,17.554 23.878,17.225 C22.709,15.688 20.775,15 19.377,15 C15.86,15 13,17.816 13,21.277 C13,24.153 15.119,27.117 17.759,29.88 C17.178,29.953 16.594,30 16.008,30 L16.008,30 Z M24.5,34.823 C24.11,34.469 23.706,34.106 23.292,33.735 C21.898,32.484 20.393,31.129 19.005,29.726 C16.249,26.934 14,23.996 14,21.277 C14,18.367 16.412,16 19.377,16 C20.491,16 22.126,16.572 23.082,17.83 C23.708,18.653 24,19.466 24,20.389 L25,20.389 C25,19.466 25.292,18.654 25.917,17.83 C26.874,16.572 28.509,16 29.623,16 C32.588,16 35,18.367 35,21.277 C35,25.396 29.848,30.02 25.708,33.735 C25.294,34.106 24.89,34.469 24.5,34.823 Z" id="Shape" fill="#FFFFFF"></path>
                </g>
            </g>
        </g>
    </g>
</svg>