<svg width="48" height="48" viewBox="0 0 48 48" xmlns="http://www.w3.org/2000/svg"><g fill="none" fill-rule="evenodd"><path d="M0 0h48v48H0z"/><path d="M13.364 12H6.451a18.377 18.377 0 0 0-2.9 9h8.127c.098-3.289.679-6.329 1.686-9zM19.361 3.71A18.45 18.45 0 0 0 7.936 10h6.29c1.282-2.592 3.021-4.728 5.135-6.29zM11.802 23H3.551a18.377 18.377 0 0 0 2.9 9h7.038c-1.007-2.671-1.588-5.711-1.687-9zM28.775 10h7.282c-3.098-3.626-7.563-6.039-12.606-6.431 2.2 1.573 4.003 3.762 5.324 6.431zM14.35 34H7.936a18.444 18.444 0 0 0 11.565 6.311C17.38 38.746 15.637 36.599 14.35 34zM21.5 4.669C19.464 5.906 17.766 7.723 16.481 10H26.52c-1.286-2.277-2.984-4.094-5.02-5.331z"/><path d="M21.5 4.669C19.464 5.906 17.766 7.723 16.481 10H26.52c-1.286-2.277-2.984-4.094-5.02-5.331zM15.51 12c-1.093 2.608-1.728 5.658-1.834 9H22.459a7.184 7.184 0 0 1 3.562-.944c1.008 0 2.224.325 3.305.98-.103-3.356-.739-6.418-1.836-9.036H15.51z"/><path d="M21.5 4.669C19.464 5.906 17.766 7.723 16.481 10H26.52c-1.286-2.277-2.984-4.094-5.02-5.331zM15.635 32h4.563c-.87-1.586-1.398-3.172-1.398-4.722A7.18 7.18 0 0 1 20.213 23h-6.411c.105 3.342.74 6.392 1.833 9z"/><path d="M22 41c1.555 0 3.096-.195 4.592-.566a185.297 185.297 0 0 0 3.493 3.248c.655.599 1.292 1.18 1.893 1.739l.341.317.341-.317a238.69 238.69 0 0 1 1.893-1.739c5.251-4.793 11.785-10.759 11.785-16.404 0-3.471-2.303-6.413-5.46-7.383A18.93 18.93 0 0 0 22 3C11.523 3 3 11.523 3 22s8.523 19 19 19zm23.337-13.722c0 5.204-6.354 11.005-11.459 15.666-.536.489-1.059.966-1.56 1.43-.501-.464-1.023-.94-1.56-1.43C25.653 38.283 19.3 32.482 19.3 27.278a6.73 6.73 0 0 1 6.722-6.723c1.396 0 3.444.73 4.644 2.335.787 1.051 1.153 2.093 1.153 3.276h1c0-1.184.366-2.226 1.153-3.276 1.199-1.604 3.247-2.335 4.643-2.335a6.731 6.731 0 0 1 6.722 6.723zM22 4a17.925 17.925 0 0 1 17.833 15.661 7.652 7.652 0 0 0-1.219-.106c-1.691 0-4.03.846-5.443 2.735-.356.477-.64.953-.853 1.439a7.25 7.25 0 0 0-.853-1.439c-1.413-1.89-3.753-2.735-5.444-2.735-4.258 0-7.722 3.465-7.722 7.723 0 4.133 3.504 8.436 7.44 12.326A18.065 18.065 0 0 1 22 40c-9.925 0-18-8.075-18-18S12.075 4 22 4z" fill="#FFF"/><path d="M36.057 10h-7.282c-1.321-2.669-3.123-4.858-5.323-6.431A18.357 18.357 0 0 0 22 3.5c-.898 0-1.775.086-2.639.21-2.114 1.562-3.853 3.699-5.136 6.29h-6.29a18.558 18.558 0 0 0-1.485 2h6.913c-1.007 2.671-1.589 5.711-1.687 9H3.55c-.018.333-.05.662-.05 1 0 .338.033.667.051 1h8.252c.099 3.289.68 6.329 1.687 9H6.451c.451.701.946 1.369 1.485 2h6.414c1.286 2.599 3.029 4.746 5.15 6.311l3.278.163.204-.372-.877-.479c-2.254-1.234-4.113-3.167-5.5-5.623h4.869a19.896 19.896 0 0 1-1.276-2h-4.563c-1.093-2.608-1.728-5.658-1.834-9h6.411a7.24 7.24 0 0 1 2.247-2H13.676c.106-3.342.74-6.392 1.834-9h11.98c1.097 2.618 1.733 5.68 1.836 9.036.654.397 1.26.914 1.739 1.555.099.132.18.273.269.41h.013v-1c0-3.676-.603-7.059-1.712-10h7.924A18.23 18.23 0 0 0 36.057 10zm-19.576 0c1.286-2.277 2.983-4.094 5.019-5.331 2.036 1.237 3.734 3.055 5.019 5.331H16.481z" fill="#FFF" opacity=".3"/></g></svg>