<?xml version="1.0" encoding="UTF-8"?>
<svg width="24px" height="24px" viewBox="0 0 24 24" version="1.1" xmlns="http://www.w3.org/2000/svg" xmlns:xlink="http://www.w3.org/1999/xlink">
    <!-- Generator: Sketch 48.2 (47327) - http://www.bohemiancoding.com/sketch -->
    <title>icon_category-charity_m_black</title>
    <desc>Created with Sketch.</desc>
    <defs></defs>
    <g id="mobile" stroke="none" stroke-width="1" fill="none" fill-rule="evenodd" transform="translate(-1704.000000, -139.000000)">
        <g id="Headings" transform="translate(64.000000, 77.000000)">
            <g id="icon_category_charity__m__white" transform="translate(1640.000000, 61.000000)">
                <g id="ungroup">
                    <rect id="Rectangle-path" x="0" y="0" width="24" height="24"></rect>
                    <g id="a1" opacity="0.4"></g>
                    <path d="M20.489,11.048 L20.489,10.048 L16,10.048 C15.917,8.575 15.664,7.208 15.229,6 L18.746,6 L18.746,5 L14.8,5 C13.978,3.265 12.777,1.903 11.24,1.062 L11,1.5 L10.76,1.062 C9.237,1.895 8.028,3.262 7.202,5 L3.253,5 L3.253,6 L6.796,6 C6.352,7.217 6.087,8.581 6.003,10.048 L1.511,10.048 L1.511,11.048 L5.959,11.048 C5.964,12.864 6.261,14.533 6.796,16 L3.253,16 L3.253,17 L7.202,17 C8.028,18.738 9.237,20.105 10.759,20.938 L11.239,20.061 C10.034,19.401 9.061,18.336 8.339,17 L10.077,17 L10.077,16 L7.871,16 C7.292,14.566 6.964,12.893 6.958,11.048 L20.489,11.048 L20.489,11.048 Z M11.001,2.098 C12.106,2.768 13.009,3.755 13.679,5 L8.339,5 C9.011,3.757 9.907,2.763 11.001,2.098 L11.001,2.098 Z M7.871,6 L14.142,6 C14.618,7.187 14.91,8.548 14.999,10.048 L7.002,10.048 C7.092,8.558 7.389,7.194 7.871,6 L7.871,6 Z" id="Shape" fill="#0B1F35" opacity="0.3"></path>
                    <path d="M20.966,10.288 C20.599,5.062 16.271,1 11,1 C5.486,1 1,5.486 1,11 C1,16.514 5.486,21 11,21 C11.626,21 12.246,20.931 12.854,20.816 C13.624,21.581 14.427,22.317 15.181,23.004 C15.52,23.314 15.849,23.613 16.16,23.903 L16.501,24.22 L16.842,23.903 C17.153,23.613 17.482,23.313 17.821,23.004 C20.573,20.491 24,17.361 24,14.332 C24,12.416 22.714,10.811 20.966,10.288 L20.966,10.288 Z M11,20 C6.037,20 2,15.963 2,11 C2,6.037 6.037,2 11,2 C15.66,2 19.499,5.528 19.946,10.112 C19.883,10.109 19.824,10.093 19.76,10.093 C18.823,10.093 17.53,10.561 16.747,11.606 C16.656,11.728 16.573,11.851 16.499,11.975 C16.425,11.851 16.342,11.728 16.251,11.606 C15.469,10.561 14.175,10.093 13.238,10.093 C10.901,10.093 9,11.994 9,14.332 C9,16.221 10.333,18.149 12.004,19.943 C11.672,19.98 11.337,20 11,20 L11,20 Z M17.145,22.267 C16.925,22.468 16.709,22.664 16.5,22.857 C16.291,22.665 16.075,22.468 15.855,22.267 C13.246,19.885 10,16.921 10,14.332 C10,12.546 11.453,11.093 13.239,11.093 C13.904,11.093 14.88,11.441 15.451,12.205 C15.825,12.705 16,13.199 16,13.757 L17,13.757 C17,13.199 17.175,12.705 17.549,12.205 C18.12,11.44 19.096,11.093 19.761,11.093 C21.547,11.093 23,12.546 23,14.332 C23,16.921 19.754,19.885 17.145,22.267 L17.145,22.267 Z" id="Shape" fill="#0B1F35"></path>
                </g>
            </g>
        </g>
    </g>
</svg>