<svg xmlns="http://www.w3.org/2000/svg" width="24" height="24" viewBox="0 0 24 24"><path fill="none" d="M0 0h24v24H0z"/><g fill="#0B1F35"><path d="M11 21a10 10 0 1 1 10-10.48h-1a9 9 0 1 0-7.07 9.23l.21 1A10 10 0 0 1 11 21z"/><path d="M16.5 24.22l-.34-.32-1-.9C12.43 20.49 9 17.36 9 14.33a4.24 4.24 0 0 1 4.24-4.24 4 4 0 0 1 3 1.51 4.44 4.44 0 0 1 .25.37 4.44 4.44 0 0 1 .25-.37 4 4 0 0 1 3-1.51A4.24 4.24 0 0 1 24 14.33c0 3-3.43 6.16-6.18 8.67l-1 .9zm-3.26-13.13A3.24 3.24 0 0 0 10 14.33c0 2.59 3.25 5.55 5.86 7.93l.64.59.64-.59c2.61-2.38 5.86-5.34 5.86-7.93a3.24 3.24 0 0 0-3.24-3.24 2.94 2.94 0 0 0-2.21 1.11 2.5 2.5 0 0 0-.55 1.56h-1a2.5 2.5 0 0 0-.55-1.55 2.94 2.94 0 0 0-2.21-1.12z"/><g opacity=".4"><path d="M7 11H6c0-4.58 1.8-8.29 4.8-9.94l.48.88C8.56 3.41 7 6.79 7 11zm3.76 9.94C7.75 19.29 6 15.58 6 11h1c0 4.21 1.6 7.59 4.28 9.06z"/><path d="M15 10.56c-.11-4.05-1.67-7.2-4.28-8.62l.48-.88c2.93 1.6 4.67 5.05 4.8 9.47z"/><path d="M3.25 5h15.49v1H3.25zm-1.74 5.05h18.98v1H1.51zM3.25 16h6.82v1H3.25z"/></g></g></svg>