<svg width="36" height="36" viewBox="0 0 36 36" xmlns="http://www.w3.org/2000/svg"><g fill="none" fill-rule="evenodd"><path d="M0-1h36v36H0z"/><path d="M30.233 15v-1H23.31c-.078-2.588-.536-4.946-1.324-7h5.884V6h-6.306c-1.212-2.628-3.013-4.678-5.316-5.938l-.24.438-.24-.438c-2.28 1.247-4.082 3.31-5.299 5.938H4.63v1h5.416c-.799 2.066-1.259 4.433-1.335 7H1.767v1h6.932c.029 2.972.57 5.688 1.549 8H4.63v1h6.083c1.209 2.389 2.923 4.271 5.055 5.438l1.982-.105-1.502-.772c-1.819-.996-3.312-2.566-4.412-4.562h3.029l-1-1h-2.528c-1.035-2.268-1.609-4.993-1.639-8h20.535V15zM16.009 1.084C17.884 2.179 19.394 3.858 20.464 6h-8.886c1.073-2.139 2.575-3.831 4.431-4.916zM11.12 7h9.795c.832 2.021 1.313 4.385 1.394 7H9.71c.08-2.594.566-4.966 1.41-7z" fill="#0B1F35" opacity=".3"/><path d="M30.986 14.148C30.541 6.204 23.992 0 16.008 0 7.732 0 1 6.729 1 15s6.732 15 15.008 15c.877 0 1.749-.096 2.608-.247 1.314 1.306 2.709 2.56 4.008 3.726.533.479 1.05.942 1.538 1.39l.338.309.338-.309c.488-.447 1.005-.911 1.538-1.39C30.664 29.631 36 24.842 36 20.277c0-3-2.151-5.513-5.014-6.129zM16.008 29C8.284 29 2 22.72 2 15S8.284 1 16.008 1a13.972 13.972 0 0 1 13.963 13.017c-.116-.006-.231-.017-.348-.017-1.398 0-3.332.688-4.502 2.225-.25.329-.456.658-.621.992a6.061 6.061 0 0 0-.622-.992C22.709 14.688 20.775 14 19.377 14 15.86 14 13 16.816 13 20.277c0 2.876 2.119 5.84 4.759 8.603-.581.073-1.165.12-1.751.12zm8.492 4.823c-.39-.354-.794-.717-1.208-1.088-1.394-1.251-2.899-2.606-4.287-4.009C16.249 25.934 14 22.996 14 20.277 14 17.367 16.412 15 19.377 15c1.114 0 2.749.572 3.705 1.83.626.823.918 1.636.918 2.559h1c0-.923.292-1.735.917-2.559.957-1.258 2.592-1.83 3.706-1.83C32.588 15 35 17.367 35 20.277c0 4.119-5.152 8.743-9.292 12.458-.414.371-.818.734-1.208 1.088z" fill="#0B1F35"/></g></svg>