<svg xmlns="http://www.w3.org/2000/svg" width="36" height="36" viewBox="0 0 36 36"><path fill="none" d="M0 0h36v36H0z"/><g fill="#fff"><path d="M16 31a15 15 0 1 1 15-15.72h-1A14 14 0 1 0 16 30a14.17 14.17 0 0 0 3-.32l.21 1A15.12 15.12 0 0 1 16 31z"/><path d="M24.5 36.18l-.34-.31-1.54-1.39C18.34 30.63 13 25.84 13 21.28A6.33 6.33 0 0 1 19.38 15a5.93 5.93 0 0 1 4.5 2.22 6.07 6.07 0 0 1 .62 1 6.13 6.13 0 0 1 .62-1 5.93 5.93 0 0 1 4.5-2.22A6.33 6.33 0 0 1 36 21.28c0 4.56-5.34 9.35-9.62 13.2l-1.54 1.39zM19.38 16A5.33 5.33 0 0 0 14 21.28c0 4.12 5.15 8.74 9.29 12.46l1.21 1.09 1.21-1.09C29.85 30 35 25.4 35 21.28A5.33 5.33 0 0 0 29.62 16a5 5 0 0 0-3.71 1.83 4.07 4.07 0 0 0-.91 2.56h-1a4.07 4.07 0 0 0-.92-2.56 5 5 0 0 0-3.7-1.83z"/><g opacity=".4"><path d="M9.69 15.75h-1c0-6.75 2.65-12.26 7.08-14.69l.48.88c-4.11 2.25-6.56 7.41-6.56 13.81zm6.08 14.69C11.34 28 8.69 22.52 8.69 15.75h1c0 6.4 2.45 11.56 6.56 13.81z"/><path d="M22.31 15.08c-.17-6.17-2.56-11-6.55-13.15l.48-.88c4.31 2.36 6.88 7.46 7.07 14z"/><path d="M4.63 7h23.24v1H4.63zm-2.86 8h28.47v1H1.77zm2.86 9h10.24v1H4.63z"/></g></g></svg>