<svg width="36" height="36" viewBox="0 0 36 36" xmlns="http://www.w3.org/2000/svg"><g fill="none" fill-rule="evenodd"><path d="M0 0h36v36H0z"/><g transform="translate(2 4)" fill="#0B1F35"><path d="M16.87 1.53a1 1 0 0 0-1.74 0L1.21 26.006a1 1 0 0 0 .869 1.494H29.92a1 1 0 0 0 .87-1.494L16.868 1.53zm.868-.495L31.66 25.511A2 2 0 0 1 29.92 28.5H2.08A2 2 0 0 1 .34 25.511L14.261 1.035a2 2 0 0 1 3.477 0z" fill-rule="nonzero" opacity=".9"/><path d="M16 9a1.41 1.41 0 0 1 1.406 1.517l-.588 7.724a.82.82 0 1 1-1.637 0l-.587-7.724A1.41 1.41 0 0 1 16 9z" opacity=".3"/><rect opacity=".3" x="14.5" y="21" width="3" height="3" rx="1.5"/></g></g></svg>