<svg width="36" height="36" viewBox="0 0 36 36" fill="none" xmlns="http://www.w3.org/2000/svg"><rect width="36" height="36" fill="none"/><path opacity="0.9" d="M18.8692 5.52986C18.7802 5.37347 18.6507 5.24397 18.4943 5.15502C18.0143 4.88197 17.4037 5.04979 17.1307 5.52986L3.20958 30.0056C3.12387 30.1563 3.07881 30.3267 3.07881 30.5C3.07881 31.0523 3.52653 31.5 4.07881 31.5L31.9212 31.5C32.0945 31.5 32.2649 31.4549 32.4156 31.3692C32.8956 31.0962 33.0635 30.4857 32.7904 30.0056L18.8692 5.52986ZM19.7384 5.03545L33.6596 29.5112C34.2057 30.4713 33.8701 31.6924 32.91 32.2385C32.6086 32.4099 32.2679 32.5 31.9212 32.5L4.07881 32.5C2.97424 32.5 2.07881 31.6046 2.07881 30.5C2.07881 30.1533 2.16893 29.8126 2.34034 29.5112L16.2614 5.03546C16.8075 4.07533 18.0286 3.73969 18.9887 4.28578C19.3015 4.46368 19.5605 4.72268 19.7384 5.03545Z" fill="white"/><path opacity="0.3" fill-rule="evenodd" clip-rule="evenodd" d="M18 13C18.7788 13 19.4102 13.6313 19.4102 14.4101C19.4102 14.4458 19.4088 14.4815 19.4061 14.5171L18.8185 22.2414C18.7859 22.6694 18.4292 23 18 23C17.5709 23 17.2141 22.6694 17.1816 22.2414L16.594 14.5171C16.5349 13.7406 17.1165 13.0631 17.8931 13.0041C17.9287 13.0014 17.9643 13 18 13Z" fill="white"/><path opacity="0.3" d="M19.5 26.5C19.5 25.6716 18.8284 25 18 25C17.1716 25 16.5 25.6716 16.5 26.5C16.5 27.3284 17.1716 28 18 28C18.8284 28 19.5 27.3284 19.5 26.5Z" fill="white"/></svg>