<svg width="24" height="24" viewBox="0 0 24 24" fill="none" xmlns="http://www.w3.org/2000/svg"><rect width="24" height="24" fill="none"/><path opacity="0.9" d="M12.4337 3.41033C12.3895 3.3333 12.3256 3.26942 12.2486 3.22526C12.009 3.08791 11.7035 3.17077 11.5661 3.41033L2.19725 19.7513C2.15385 19.827 2.13101 19.9127 2.13101 20C2.13101 20.2761 2.35487 20.5 2.63101 20.5L21.3688 20.5C21.456 20.5 21.5418 20.4772 21.6175 20.4338C21.857 20.2964 21.9399 19.9909 21.8025 19.7513L12.4337 3.41033ZM13.3012 2.91294L22.6701 19.2539C23.0821 19.9726 22.8335 20.8892 22.1149 21.3013C21.8878 21.4315 21.6306 21.5 21.3688 21.5L2.63101 21.5C1.80258 21.5 1.13101 20.8284 1.13101 20C1.13101 19.7382 1.19952 19.481 1.32972 19.2539L10.6986 2.91294C11.1107 2.19426 12.0273 1.94568 12.746 2.35773C12.9771 2.49022 13.1687 2.68186 13.3012 2.91294Z" fill="white"/><path opacity="0.3" fill-rule="evenodd" clip-rule="evenodd" d="M12 8C12.564 8 13.0212 8.4572 13.0212 9.02117C13.0212 9.04799 13.0202 9.07479 13.0181 9.10152L12.596 14.4492C12.5714 14.7602 12.312 15 12 15C11.6881 15 11.4286 14.7602 11.4041 14.4492L10.982 9.10152C10.9377 8.53929 11.3575 8.04754 11.9197 8.00317C11.9464 8.00106 11.9732 8 12 8Z" fill="white"/><path opacity="0.3" d="M13 17C13 16.4477 12.5523 16 12 16C11.4477 16 11 16.4477 11 17C11 17.5523 11.4477 18 12 18C12.5523 18 13 17.5523 13 17Z" fill="white"/></svg>