<svg width="24px" height="24px" viewBox="0 0 24 24" version="1.1" xmlns="http://www.w3.org/2000/svg"><g stroke="none" stroke-width="1" fill="none" fill-rule="evenodd"><rect x="0" y="0" width="24" height="24"/><g transform="translate(1.000000, 2.000000)" fill="#0B1F35"><path d="M11.4336671,1.41033508 C11.3895037,1.33330633 11.3256247,1.26942732 11.2485959,1.22526387 C11.0090344,1.08791436 10.7034876,1.17077356 10.5661381,1.41033508 L1.19725236,17.7513067 C1.15385182,17.8270048 1.13101686,17.9127428 1.13101686,18 C1.13101686,18.2761424 1.35487449,18.5 1.63101686,18.5 L20.3687883,18.5 C20.4560455,18.5 20.5417835,18.477165 20.6174816,18.4337645 C20.8570432,18.296415 20.9399024,17.9908682 20.8025528,17.7513067 L11.4336671,1.41033508 Z M12.3011961,0.912948492 L21.6700819,17.2539201 C22.0821304,17.9726047 21.8335528,18.889245 21.1148682,19.3012935 C20.8877739,19.4314951 20.6305598,19.5 20.3687883,19.5 L1.63101686,19.5 C0.80258974,19.5 0.131016864,18.8284271 0.131016864,18 C0.131016864,17.7382285 0.199521731,17.4810145 0.329723352,17.2539201 L9.69860909,0.912948492 C10.1106576,0.19426393 11.0272979,-0.0543136784 11.7459825,0.357734864 C11.9770688,0.490225198 12.1687058,0.681862229 12.3011961,0.912948492 Z" fill-rule="nonzero" opacity="0.900000036" transform="translate(11.000030, 9.829387) rotate(-360.000000) translate(-11.000030, -9.829387) "/><path d="M11.0000374,6 L11.0000374,6 C11.5640166,6 12.0212121,6.4571955 12.0212121,7.02117473 C12.0212121,7.04798794 12.0201561,7.07479074 12.0180464,7.10152082 L11.5959791,12.4492396 C11.5714379,12.760185 11.3119497,13 11.0000374,13 L11.0000374,13 C10.6881251,13 10.4286369,12.760185 10.4040957,12.4492396 L9.98202839,7.10152082 C9.93765447,6.53928997 10.3574605,6.04753964 10.9196913,6.00316572 C10.9464214,6.00105606 10.9732242,6 11.0000374,6 Z" opacity="0.300000012"/><rect opacity="0.300000012" x="10" y="14" width="2" height="2" rx="1"/></g></g></svg>