<svg width="30" height="30" viewBox="0 0 30 30" fill="none" xmlns="http://www.w3.org/2000/svg"><rect width="30" height="30" fill="none"/><path opacity="0.9" d="M15.4362 3.30235C15.3912 3.22189 15.3248 3.15546 15.2443 3.1104C15.0034 2.97548 14.6987 3.06142 14.5637 3.30235L2.26986 25.2557C2.22806 25.3303 2.20612 25.4145 2.20612 25.5C2.20612 25.7761 2.42997 26 2.70612 26H27.2939C27.3794 26 27.4635 25.9781 27.5382 25.9363C27.7791 25.8013 27.865 25.4966 27.7301 25.2557L15.4362 3.30235ZM16.3088 2.81375L28.6026 24.7671C29.0074 25.4899 28.7496 26.404 28.0268 26.8088C27.8029 26.9342 27.5505 27 27.2939 27H2.70612C1.87769 27 1.20612 26.3284 1.20612 25.5C1.20612 25.2434 1.27196 24.991 1.39736 24.7671L13.6912 2.81375C14.096 2.09094 15.0101 1.83312 15.7329 2.2379C15.9743 2.37307 16.1736 2.57237 16.3088 2.81375Z" fill="#0B1F35"/><path opacity="0.3" fill-rule="evenodd" clip-rule="evenodd" d="M15 10.5C15.5583 10.5 16.011 10.9526 16.011 11.511C16.011 11.5337 16.0102 11.5564 16.0087 11.5791L15.5773 17.9604C15.5568 18.2641 15.3044 18.5 15 18.5C14.6956 18.5 14.4433 18.2641 14.4227 17.9604L13.9914 11.5791C13.9537 11.0221 14.3748 10.54 14.9318 10.5023C14.9545 10.5008 14.9773 10.5 15 10.5Z" fill="#0B1F35"/><path opacity="0.3" d="M16.25 21.25C16.25 20.5596 15.6904 20 15 20C14.3096 20 13.75 20.5596 13.75 21.25C13.75 21.9404 14.3096 22.5 15 22.5C15.6904 22.5 16.25 21.9404 16.25 21.25Z" fill="#0B1F35"/></svg>