<svg width="36px" height="36px" viewBox="0 0 36 36" version="1.1" xmlns="http://www.w3.org/2000/svg"><g stroke="none" stroke-width="1" fill="none" fill-rule="evenodd"><rect x="0" y="0" width="36" height="36"/><g transform="translate(2.000000, 4.000000)" fill="#0B1F35"><path d="M16.8691554,1.52985627 C16.7802044,1.37346643 16.6507086,1.24397127 16.4943184,1.15502092 C16.0142525,0.881972994 15.4037331,1.04979423 15.1306852,1.52986014 L1.20957429,26.005603 C1.12387194,26.1562827 1.07881051,26.3266528 1.07881051,26.5 C1.07881051,27.0522847 1.52652576,27.5 2.07881051,27.5 L29.9211763,27.5 C30.094525,27.5 30.2648966,27.4549378 30.4155772,27.369234 C30.8956419,27.096184 31.0634604,26.4856638 30.7904103,26.0055991 L16.8691554,1.52985627 Z M17.7383895,1.03545541 L31.6596444,25.5111983 C32.2057445,26.4713277 31.8701074,27.6923679 30.909978,28.238468 C30.6086168,28.4098756 30.2678738,28.5 29.9211763,28.5 L2.07881051,28.5 C0.974241007,28.5 0.078810507,27.6045695 0.078810507,26.5 C0.078810507,26.1533056 0.168933376,25.8125654 0.340338066,25.511206 L14.261449,1.03546314 C14.8075448,0.0753313216 16.0285836,-0.26031115 16.9887154,0.285784696 C17.3014959,0.463685396 17.5604874,0.72267572 17.7383895,1.03545541 Z" fill-rule="nonzero" opacity="0.900000036" transform="translate(16.000166, 14.261956) rotate(-360.000000) translate(-16.000166, -14.261956) "/><path d="M16.0000389,9 L16.0000389,9 C16.7788388,9 17.4101808,9.63134203 17.4101808,10.4101419 C17.4101808,10.4458361 17.4088255,10.4815175 17.4061179,10.5171088 L16.8184919,18.2414456 C16.7859368,18.6693825 16.4292123,19 16.0000389,19 L16.0000389,19 C15.5708655,19 15.214141,18.6693825 15.1815859,18.2414456 L14.5939599,10.5171088 C14.5348837,9.74055283 15.116516,9.06313907 15.893072,9.00406286 C15.9286633,9.00135526 15.9643447,9 16.0000389,9 Z" opacity="0.300000012"/><rect opacity="0.300000012" x="14.5" y="21" width="3" height="3" rx="1.5"/></g></g></svg>