<svg width="24" height="24" viewBox="0 0 24 24" xmlns="http://www.w3.org/2000/svg"><g fill="none" fill-rule="evenodd"><path d="M0 0h24v24H0z"/><g transform="translate(1 2)" fill="#FFF"><path d="M11.434 1.41a.5.5 0 0 0-.868 0L1.197 17.751a.5.5 0 0 0 .434.749h18.738a.5.5 0 0 0 .434-.749l-9.37-16.34zM12.3.913l9.37 16.34a1.5 1.5 0 0 1-1.302 2.247H1.63A1.5 1.5 0 0 1 .33 17.254L9.699.913a1.5 1.5 0 0 1 2.602 0z" fill-rule="nonzero" opacity=".9"/><path d="M11 6a1.021 1.021 0 0 1 1.018 1.102l-.422 5.347a.598.598 0 1 1-1.192 0l-.422-5.347A1.021 1.021 0 0 1 11 6z" opacity=".3"/><rect opacity=".3" x="10" y="14" width="2" height="2" rx="1"/></g></g></svg>