<svg width="18" height="18" viewBox="0 0 18 18" fill="none" xmlns="http://www.w3.org/2000/svg"><rect width="18" height="18" fill="none"/><path opacity="0.9" d="M9.43061 2.66349C9.38761 2.59058 9.32681 2.52978 9.2539 2.48679C9.01604 2.34651 8.7095 2.42563 8.56923 2.66349L1.44395 14.746C1.39857 14.823 1.37463 14.9107 1.37463 15C1.37463 15.2761 1.59849 15.5 1.87463 15.5L16.1252 15.5C16.2145 15.5 16.3022 15.4761 16.3792 15.4307C16.6171 15.2904 16.6962 14.9839 16.5559 14.746L9.43061 2.66349ZM10.292 2.15552L17.4173 14.238C17.8381 14.9516 17.6007 15.8712 16.8872 16.2921C16.6563 16.4282 16.3932 16.5 16.1252 16.5L1.87463 16.5C1.04621 16.5 0.374634 15.8284 0.374634 15C0.374634 14.732 0.446435 14.4689 0.582571 14.238L7.70786 2.15552C8.12867 1.44193 9.04829 1.2046 9.76187 1.62541C9.9806 1.7544 10.163 1.9368 10.292 2.15552Z" fill="white"/><path opacity="0.3" fill-rule="evenodd" clip-rule="evenodd" d="M9.00003 6C9.49735 6 9.9005 6.40315 9.9005 6.90046C9.9005 6.93022 9.89902 6.95996 9.89608 6.98957L9.54646 10.5052C9.51853 10.7861 9.28226 11 9.00003 11C8.7178 11 8.48153 10.7861 8.4536 10.5052L8.10399 6.98957C8.05478 6.4947 8.41606 6.05363 8.91093 6.00442C8.94054 6.00148 8.97028 6 9.00003 6Z" fill="white"/><path opacity="0.3" d="M10 13C10 12.4477 9.55228 12 9 12C8.44772 12 8 12.4477 8 13C8 13.5523 8.44772 14 9 14C9.55228 14 10 13.5523 10 13Z" fill="white"/></svg>