<svg width="18" height="18" viewBox="0 0 18 18" xmlns="http://www.w3.org/2000/svg"><g fill="none" fill-rule="evenodd"><path d="M0 0h18v18H0z"/><g transform="translate(0 1)" fill="#FFF"><path d="M9.43 1.663a.5.5 0 0 0-.86 0L1.443 13.746a.5.5 0 0 0 .43.754h14.251a.5.5 0 0 0 .43-.754L9.432 1.663zm.862-.507l7.125 12.082a1.5 1.5 0 0 1-1.292 2.262H1.875a1.5 1.5 0 0 1-1.292-2.262L7.708 1.156a1.5 1.5 0 0 1 2.584 0z" fill-rule="nonzero" opacity=".9"/><path d="M9 5a.9.9 0 0 1 .896.99l-.35 3.515a.55.55 0 1 1-1.093 0L8.105 5.99A.9.9 0 0 1 9 5z" opacity=".3"/><rect opacity=".3" x="8" y="11" width="2" height="2" rx="1"/></g></g></svg>