<svg width="18px" height="18px" viewBox="0 0 18 18" version="1.1" xmlns="http://www.w3.org/2000/svg"><g stroke="none" stroke-width="1" fill="none" fill-rule="evenodd"><polygon points="0 0 18 0 18 18 0 18"/><g transform="translate(0.000000, 1.000000)" fill="#0B1F35"><path d="M9.43060982,1.66348925 C9.38761459,1.59058115 9.32681457,1.52978113 9.25390648,1.4867859 C9.01604421,1.34651419 8.70950605,1.42562698 8.56923435,1.66348925 L1.44394878,13.7460156 C1.39857032,13.822965 1.37463652,13.9106668 1.37463652,14 C1.37463652,14.2761424 1.59849415,14.5 1.87463652,14.5 L16.1252076,14.5 C16.2145408,14.5 16.3022426,14.4760662 16.379192,14.4306877 C16.6170543,14.290416 16.6961671,13.9838779 16.5558954,13.7460156 L9.43060982,1.66348925 Z M10.2919853,1.15552046 L17.4172709,13.2380468 C17.838086,13.9516336 17.6007476,14.8712481 16.8871608,15.2920632 C16.6563126,15.4281986 16.3932072,15.5 16.1252076,15.5 L1.87463652,15.5 C1.0462094,15.5 0.374636522,14.8284271 0.374636522,14 C0.374636522,13.7320005 0.446437916,13.468895 0.582573306,13.2380468 L7.70785887,1.15552046 C8.12867399,0.441933651 9.04828845,0.204595303 9.76187526,0.625410424 C9.98059955,0.754396117 10.1629996,0.936796169 10.2919853,1.15552046 Z" fill-rule="nonzero" opacity="0.900000036" transform="translate(9.000041, 7.958618) rotate(-360.000000) translate(-9.000041, -7.958618) "/><path d="M9.00003366,5 L9.00003366,5 C9.49734583,5 9.90049701,5.40315118 9.90049701,5.90046335 C9.90049701,5.93022054 9.89902195,5.95995943 9.89607727,5.98957056 L9.54646347,9.50521472 C9.51853489,9.78605876 9.28226295,10 9.00003366,10 L9.00003366,10 C8.71780436,10 8.48153243,9.78605876 8.45360385,9.50521472 L8.10399004,5.98957056 C8.05477749,5.49469933 8.41605523,5.05363229 8.91092645,5.00441974 C8.94053758,5.00147506 8.97027647,5 9.00003366,5 Z" opacity="0.300000012"/><rect opacity="0.300000012" x="8" y="11" width="2" height="2" rx="1"/></g></g></svg>