<svg width="30px" height="30px" viewBox="0 0 30 30" version="1.1" xmlns="http://www.w3.org/2000/svg"><g stroke="none" stroke-width="1" fill="none" fill-rule="evenodd"><rect x="0" y="0" width="30" height="30"/><g transform="translate(1.000000, 2.000000)" fill="#FFFFFF"><path d="M14.436253,1.30234814 C14.3911949,1.22188727 14.3247626,1.15545491 14.2443017,1.11039682 C14.0033658,0.975472723 13.6986711,1.06141226 13.563747,1.30234814 L1.26987089,23.2556983 C1.22807267,23.330338 1.2061239,23.4144537 1.2061239,23.5 C1.2061239,23.7761424 1.42998153,24 1.7061239,24 L26.2938761,24 C26.3794224,24 26.4635381,23.9780512 26.5381778,23.936253 C26.7791137,23.8013289 26.8650532,23.4966342 26.7301291,23.2556983 L14.436253,1.30234814 Z M15.308759,0.813744773 L27.6026351,22.7670949 C28.0074074,23.4899026 27.7495888,24.4039867 27.0267812,24.808759 C26.8028621,24.9341537 26.5505151,25 26.2938761,25 L1.7061239,25 C0.877696778,25 0.206123903,24.3284271 0.206123903,23.5 C0.206123903,23.243361 0.271970197,22.991014 0.397364879,22.7670949 L12.691241,0.813744773 C13.0960133,0.0909371225 14.0100974,-0.166881482 14.7329051,0.237890802 C14.9742877,0.373065072 15.1735848,0.572362148 15.308759,0.813744773 Z" fill-rule="nonzero" opacity="0.900000036"/><path d="M14.0000255,8.5 L14.0000255,8.5 C14.5583616,8.5 15.0109824,8.95262081 15.0109824,9.51095688 C15.0109824,9.53370477 15.0102146,9.55644618 15.0086803,9.57914227 L14.5773033,15.9604289 C14.5567724,16.264138 14.3044278,16.5 14.0000255,16.5 L14.0000255,16.5 C13.6956232,16.5 13.4432786,16.264138 13.4227477,15.9604289 L12.9913707,9.57914227 C12.9537129,9.02207759 13.3747754,8.5399598 13.9318401,8.50230205 C13.9545362,8.50076779 13.9772776,8.5 14.0000255,8.5 Z" opacity="0.300000012"/><rect opacity="0.300000012" x="12.75" y="18" width="2.5" height="2.5" rx="1.25"/></g></g></svg>