<svg xmlns="http://www.w3.org/2000/svg" width="48" height="48" viewBox="0 0 48 48"><path fill="#0B1F35" fill-rule="evenodd" d="M45.11 20.948c-.518.777-5.832 4.088-10.542 3.73 2.33 2.986 6.967 1.974 8.258 1.5-2.974 4.707-6.645 5.508-9.945 5.6l-.279.003c-2.028 0-4.148-.572-4.17-.578l-.89-.243-.315.87c-.86 2.394 1.516 4.012 3.612 5.437 1.684 1.147 3.427 2.332 3.323 3.582-.072.856-1.302 1.606-2.872.761 0 0-1.434 3.054-3.829.703-.542 1.621-2.334 2.663-3.462 2.746-1.128-.083-2.92-1.125-3.462-2.746-2.396 2.351-3.829-.703-3.829-.703-1.57.845-2.8.095-2.872-.76-.105-1.25 1.638-2.436 3.323-3.583 2.096-1.425 4.472-3.043 3.611-5.438l-.313-.869-.892.243c-.02.006-2.142.578-4.17.578l-.278-.004c-3.3-.09-6.972-.892-9.945-5.599 1.291.474 5.928 1.486 8.257-1.5-4.71.358-10.024-2.953-10.542-3.73-1.01-2.19-2.132-6.526-1.095-10.808 1.662 4.42 5.037 5.711 7.162 5.67-1.29-1.77-4.216-6.137-4.577-8.68-.2-1.407.513-2.594 1.177-3.365 1.088 2.66 2.903 5.213 5.401 7.627.262.258.533.514.814.768.34.306.661.585.972.848l.013.01c.264.224.523.438.774.636.32.254.367.57.415 1.345.037.603.08 1.287.444 1.95.563 1.017 1.655 1.991 2.911 1.793 1.2-.19 1.882-1.539 2.293-2.55 1.168-2.872 1.082-6.269-.192-9.089-.465-1.028-1.596-1.343-2.645-1.306l-1.27-.596c-.652-.306-1.256-.474-1.798-.5a7.04 7.04 0 0 1 .416-.015c.674 0 1.21-.345 1.683-.65.364-.234.708-.455 1.033-.455h.001c.471.015 1.09.203 1.743.402.518.157 1.075.326 1.66.443l.297.46c.747 1.147.982 2.713 1.37 4.007l1.152 3.833.958 3.186.958-3.186s2.048-6.814 2.138-7.125c.04-.137.235-.488.383-.716l.298-.459c.584-.117 1.141-.286 1.66-.443.653-.199 1.272-.387 1.765-.402.967 0 1.65 1.103 2.694 1.105.157.001.295.006.417.014-.543.027-1.146.195-1.799.501l-1.264.596c-1.05-.037-2.185.274-2.65 1.306-1.883 4.166-.772 8.457.433 10.324 1.301 2.014 3.511 1.451 4.578-.479.365-.662.407-1.346.444-1.949.048-.775.096-1.09.415-1.345a29.4 29.4 0 0 0 .773-.635v.001c.005-.004.01-.009.014-.01.31-.265.631-.544.972-.85l.096-.09c2.874-2.612 4.93-5.396 6.12-8.305.663.771 1.376 1.958 1.177 3.365-.362 2.543-3.286 6.91-4.577 8.68 2.125.041 5.5-1.25 7.162-5.67 1.037 4.282-.084 8.618-1.096 10.808m.826-14.323c-.293 5.571-4.509 7.568-4.509 7.568s2.786-4.116 3.184-6.923C45.058 4.117 42.013 2 42.013 2c-1.034 3.384-3.184 6.327-5.903 8.895l-.552.522c-.552.497-1.118.985-1.709 1.453-1.19.942-.49 2.467-1.114 3.594-.516.932-1.646 1.8-2.536.853-.824-.876-1.198-2.257-1.41-3.403a11.06 11.06 0 0 1 .23-5.064c.235-.81.458-1.735 1.362-1.98.778-.213 1.65.003 2.416.171 1.28.281.53 1.284.53 1.284.404.014.665-.302.756-.677.183-.759-1.145-1.542-1.145-1.542.775-.362 2.246-.8 2.724.25 1.294-2.259-.208-2.666-1.765-2.67-.824 0-1.587-1.105-2.696-1.105l-.056.001c-1.852.06-3.502 1.247-5.406.938 0 0 .201.653.901.82 0 0-.394.603-.505.981-.09.31-2.136 7.117-2.136 7.117s-2.047-6.807-2.137-7.117c-.11-.378-.505-.982-.505-.982.7-.166.901-.819.901-.819-1.904.308-3.554-.878-5.406-.938h-.055c-1.11 0-1.873 1.103-2.697 1.104-1.556.004-3.058.411-1.764 2.67.477-1.05 1.95-.612 2.723-.25 0 0-1.328.783-1.144 1.542.091.375.351.691.756.677 0 0-.75-1.003.53-1.284.917-.2 2.767-.676 3.287.473 1.125 2.492 1.22 5.497.27 8.062-.246.662-.619 1.626-1.26 2.018-.89.544-1.83-.398-2.236-1.13-.623-1.127.077-2.652-1.114-3.594a35.427 35.427 0 0 1-1.709-1.453A27.882 27.882 0 0 1 10.176 9.1l.004.048C8.277 7.012 6.791 4.64 5.984 2c0 0-3.045 2.117-2.598 5.27.4 2.807 3.184 6.923 3.184 6.923s-4.216-1.997-4.509-7.568C-.876 12.125.655 18.5 1.998 21.401c.522 1.128 6.375 4.125 9 4 0 0-4.068 1.603-8.27-1.75 1.538 3.55 3.95 6.88 7.683 8.288 2.99 1.128 6.365 1.033 9.418.23.858 2.385-3.278 4.227-4.719 5.318-.952.721-2.068 1.647-2.252 2.904-.28 1.92 1.711 3.046 3.388 2.447.693 1.248 2.564 2.006 3.917 1 1.443 2.984 6.227 2.985 7.672 0 1.352 1.006 3.223.248 3.917-1 1.644.588 3.614-.48 3.398-2.37-.147-1.293-1.295-2.248-2.263-2.98-1.44-1.092-5.577-2.934-4.718-5.32 3.05.808 6.43.898 9.417-.229 3.734-1.409 6.145-4.739 7.683-8.288-4.202 3.353-8.269 1.75-8.269 1.75 2.625.125 8.477-2.872 9-4 1.342-2.9 2.874-9.276-.064-14.776"/></svg>
