<svg xmlns="http://www.w3.org/2000/svg" width="36" height="36" viewBox="0 0 36 36"><g fill="none" fill-rule="evenodd"><path d="M0 0h36v36H0z"/><path fill="#0B1F35" d="M33.86 15.365c-.407.521-4.658 3.03-8.597 3.03 1.894 1.523 4.135 2.102 6.505 1.465-2.14 2.997-4.695 3.531-7.006 3.595l-.206.003c-1.511 0-3.097-.428-3.114-.433l-.891-.243-.314.87c-.72 1.998 1.256 3.342 2.842 4.422 1.17.796 2.497 1.7 2.429 2.514-.053.632-1.053.942-2.061.306-.4 1.261-1.492 1.824-2.897.468-.165 1.044-1.455 2.29-2.55 2.29-1.095 0-2.385-1.246-2.55-2.29-1.404 1.356-2.498.793-2.897-.468-1.007.636-2.007.326-2.061-.306-.068-.815 1.259-1.718 2.43-2.514 1.585-1.08 3.56-2.424 2.84-4.423l-.313-.869-.891.243c-.016.005-1.602.433-3.114.433l-.206-.003c-2.311-.064-4.866-.598-7.006-3.595 2.37.637 4.61.058 6.505-1.466-3.94 0-8.19-2.508-8.597-3.029C1.429 13.83.655 10.93 1.16 7.97c1.15 2.262 3.025 3.167 3.13 3.226 1.162.648 2.474.71 2.474.71s-3.26-5.467-3.482-7.029c-.116-.818.214-1.536.599-2.07.884 1.984 2.292 3.896 4.203 5.701l.437.413c.437.392.884.778 1.352 1.148.16.127.192.296.226.853.029.461.064 1.035.368 1.587.904 1.631 2.81 2.06 3.897.378.947-1.467 1.82-4.833.348-8.094-.38-.843-1.312-1.166-2.184-1.138l-.916-.43a5.745 5.745 0 0 0-.321-.138c.215-.1.407-.224.579-.334.236-.153.48-.31.65-.31.328.011.784.15 1.269.297.37.112.768.233 1.187.322l.173.267c.109.168.237.404.263.482.068.236 2.588 8.618 2.588 8.618s2.52-8.382 2.589-8.618c.025-.078.153-.314.262-.482l.173-.267c.419-.089.816-.21 1.188-.322.484-.147.94-.286 1.268-.297.17 0 .414.157.65.31a5 5 0 0 0 .58.334 5.77 5.77 0 0 0-.322.138l-.916.43c-.872-.028-1.804.296-2.183 1.138-1.474 3.261-.6 6.627.347 8.094 1.086 1.681 2.993 1.254 3.897-.378.305-.552.34-1.126.368-1.587.034-.557.066-.726.227-.853.467-.37.915-.756 1.35-1.148l.439-.413c1.91-1.805 3.318-3.717 4.202-5.702.386.535.716 1.253.599 2.071-.221 1.562-3.482 7.03-3.482 7.03s1.312-.063 2.474-.71c.105-.06 1.979-.965 3.129-3.227.506 2.96-.268 5.86-.98 7.396m.859-10.84c-.223 4.245-3.436 5.767-3.436 5.767s2.123-3.137 2.427-5.276C34.049 2.613 31.729 1 31.729 1c-.788 2.58-2.427 4.822-4.5 6.78l-.42.397c-.42.378-.851.751-1.302 1.107-.907.718-.375 1.88-.85 2.74-.995 1.8-2.156.682-2.66-.674-.728-1.953-.654-4.25.203-6.147.394-.873 1.805-.516 2.506-.36.974.213.403.977.403.977.308.002.505-.223.576-.516.14-.578-.872-1.174-.872-1.174.607-.285 1.695-.602 2.075.19.987-1.722-.158-2.032-1.344-2.035-.777 0-1.277-.87-2.097-.842-1.415.047-2.665.951-4.12.715 0 0 .153.497.686.624-.578.895-.777 2.06-1.08 3.065L18 8.955a3665.77 3665.77 0 0 0-.934-3.108c-.303-1.007-.501-2.17-1.08-3.065.534-.127.687-.624.687-.624-1.454.235-2.707-.668-4.12-.715-.818-.028-1.322.841-2.096.842-1.187.003-2.331.313-1.345 2.034.362-.798 1.484-.467 2.075-.189 0 0-1.012.596-.872 1.174.067.28.27.528.576.516 0 0-.571-.764.404-.978.703-.155 2.11-.512 2.505.361.858 1.9.928 4.191.204 6.147-.501 1.354-1.665 2.477-2.662.673-.475-.859.058-2.02-.85-2.739-.45-.356-.881-.729-1.302-1.107l-.42-.398C6.698 5.822 5.059 3.58 4.27 1c0 0-2.32 1.613-1.978 4.016.303 2.14 2.426 5.276 2.426 5.276S1.506 8.77 1.282 4.524c-2.24 4.192-1.072 9.05-.05 11.261.399.86 4.859 3.143 6.859 3.05 0 0-3.1 1.22-6.301-1.335 2.477 5.716 6.05 6.862 9.42 6.955 1.745.048 3.612-.465 3.612-.465.903 2.511-5.562 3.855-5.326 6.681.109 1.308 1.47 1.853 2.595 1.451.529.951 1.955 1.528 2.986.763 1.099 2.273 4.746 2.274 5.846 0 1.032.765 2.458.188 2.986-.763 1.124.402 2.486-.143 2.596-1.45.235-2.827-6.23-4.17-5.327-6.682 0 0 1.868.513 3.612.465 3.37-.093 6.943-1.239 9.42-6.955-3.203 2.555-6.302 1.334-6.302 1.334 2 .094 6.46-2.189 6.859-3.049 1.024-2.21 2.19-7.069-.05-11.26"/></g></svg>
