<svg xmlns="http://www.w3.org/2000/svg" width="24" height="24" viewBox="0 0 24 24"><g fill="none" fill-rule="evenodd"><path d="M0 0h24v24H0z"/><path fill="#FFFFFF" d="M22.131 10.197c-.454.437-3.296 1.947-5.553 1.731.657 1.933 2.64 1.979 3.591 1.945-1.19 1.235-2.522 1.482-3.742 1.515l-.126.002c-.943 0-1.943-.268-1.953-.271l-.892-.242-.313.869c-.56 1.561.916 2.567 1.995 3.301.551.375 1.498 1.004 1.444 1.337-.077.476-1.143.024-1.143.024s-.428 1.427-1.852.368c-.259.73-.8 1.252-1.588 1.306-.787-.054-1.329-.576-1.588-1.306-1.424 1.059-1.85-.368-1.85-.368s-1.068.452-1.145-.024c-.054-.333.894-.962 1.444-1.337 1.08-.734 2.556-1.74 1.996-3.301l-.314-.869-.89.242c-.01.003-1.01.271-1.955.271l-.126-.002c-1.219-.033-2.55-.28-3.742-1.515.951.034 2.934-.012 3.591-1.945-2.257.216-5.099-1.294-5.553-1.731-.693-1.522-.797-2.707-.72-3.834.638 1.092 2.057 2.262 3.95 1.886-1.569-2.52-2.862-4.755-2.37-5.297.8 1.507 2.044 2.932 3.706 4.237l.001.001c.048.704.13 1.073.322 1.527C7.874 11.354 9.602 11.836 12 12.88c2.398-1.044 4.125-1.526 5.243-4.163.193-.454.275-.823.323-1.527 1.663-1.306 3.153-3.004 3.677-4.556.788 1.022-.772 3.095-2.34 5.615 1.892.376 3.311-.794 3.951-1.886.075 1.127-.029 2.312-.722 3.834m.837-6.885c-.147 2.785-2.255 3.784-2.255 3.784s1.393-2.058 1.592-3.461c.222-1.577-1.3-2.635-1.3-2.635-.552 1.806-1.735 3.365-3.228 4.709-.276.248-.558.492-.854.726-.595.471-.245 1.233-.557 1.797-.266.482-.588.647-.904.647-.653 0-1.807-2.689-.708-5.121.26-.576 1.32-.309 1.644-.238.64.141.264.643.264.643s.287.036.378-.339c.092-.38-.572-.771-.572-.771 1.121-.526 1.361.124 1.361.124.648-1.128-.103-1.333-.882-1.334-.419 0-.805-.571-1.376-.552-.75.024-1.734.626-2.703.468 0 0 .101.327.45.411 0 0-.196.301-.25.49-.046.155-1.07 3.371-1.07 3.559 0-.188-1.023-3.404-1.068-3.559-.056-.189-.252-.49-.252-.49.35-.084.45-.411.45-.411-.969.158-1.953-.444-2.703-.468-.57-.019-.957.552-1.376.552-.778.001-1.529.206-.882 1.334 0 0 .24-.65 1.361-.124 0 0-.664.391-.572.771.091.375.378.339.378.339s-.375-.502.265-.643c.324-.071 1.385-.338 1.643.238 1.1 2.432-.054 5.121-.708 5.121-.316 0-.637-.165-.904-.647-.312-.564.038-1.326-.557-1.797a17.223 17.223 0 0 1-.855-.727C4.73 4.365 3.544 2.806 2.992 1c0 0-1.522 1.058-1.298 2.635.2 1.403 1.591 3.461 1.591 3.461S1.177 6.097 1.03 3.312C-.438 6.062.327 9.25.998 10.7c.262.564 3.188 2.062 4.5 2 0 0-2.033.802-4.134-.875 1.625 3.75 3.97 4.503 6.18 4.563 1.145.032 2.37-.304 2.37-.304.593 1.647-3.649 2.529-3.494 4.383.071.858.965 1.215 1.702.952.348.624 1.283 1.003 1.96.5.26.537 1.142 1.159 1.917 1.159.776 0 1.658-.622 1.918-1.159.676.503 1.611.124 1.96-.5.736.263 1.63-.094 1.701-.952.156-1.854-4.087-2.736-3.494-4.383 0 0 1.226.336 2.37.304 2.211-.06 4.555-.813 6.18-4.563-2.1 1.677-4.134.875-4.134.875 1.313.062 4.238-1.436 4.5-2 .671-1.45 1.437-4.638-.032-7.388"/></g></svg>
