<svg xmlns="http://www.w3.org/2000/svg" width="26" height="34" viewBox="0 0 26 34"><g fill="none" fill-rule="evenodd"><path d="M-5-1h36v36H-5z"/><path fill="#0B1F35" d="M23.2 33.1H2.8c-1.5 0-2.8-1.3-2.8-2.8V2.8C0 1.3 1.3 0 2.8 0h15.3L26 7.9v22.4c0 1.6-1.3 2.8-2.8 2.8zM2.8 1C1.8 1 1 1.8 1 2.8v27.5c0 1 .8 1.8 1.8 1.8h20.4c1 0 1.8-.8 1.8-1.8v-22L17.6 1H2.8z"/><path fill="#0B1F35" d="M8 25h2v-2h5v-2h-5v-2h3.1c3 0 4.9-2.2 4.9-5s-1.9-5-4.9-5H8v8H6v2h2v2H6v2h2v2zm2-14h2.6c2.3 0 3.4 1.1 3.4 3s-1.1 3-3.4 3H10v-6z" opacity=".3"/></g></svg>
