<svg xmlns="http://www.w3.org/2000/svg" width="35" height="44" viewBox="0 0 35 44"><g fill="none" fill-rule="evenodd"><path d="M-6-2h48v48H-6z"/><path fill="#0B1F35" d="M31.5 44h-28C1.6 44 0 42.4 0 40.5v-37C0 1.6 1.6 0 3.5 0h21.2L35 10.3v30.2c0 1.9-1.6 3.5-3.5 3.5zM3.5 1C2.1 1 1 2.1 1 3.5v37C1 41.9 2.1 43 3.5 43h28c1.4 0 2.5-1.1 2.5-2.5V10.7L24.3 1H3.5z"/><path fill="#0B1F35" d="M12 34h3v-3h7v-3h-7v-2h4.5c4.3 0 6.8-3 6.8-7s-2.4-7-6.7-7H12v11H9.1v3H12v2H9.1v3H12v3zm3-19h3.6c3 0 4.4 1.6 4.4 4 0 2.5-1.4 4-4.4 4H15v-8z" opacity=".3"/></g></svg>
