<?xml version="1.0" encoding="UTF-8"?>
<svg width="36px" height="36px" viewBox="0 0 36 36" version="1.1" xmlns="http://www.w3.org/2000/svg" xmlns:xlink="http://www.w3.org/1999/xlink">
    <!-- Generator: Sketch 48.2 (47327) - http://www.bohemiancoding.com/sketch -->
    <title>icon_account-rub_xl_black</title>
    <desc>Created with Sketch.</desc>
    <defs></defs>
    <g id="mobile" stroke="none" stroke-width="1" fill="none" fill-rule="evenodd" transform="translate(-812.000000, -153.000000)">
        <g id="Headings" transform="translate(64.000000, 77.000000)"></g>
        <g id="icon_tool_account_rub__xl__white" transform="translate(812.000000, 153.000000)">
            <g id="ungroup">
                <rect id="Rectangle-path" x="0" y="0" width="36" height="36"></rect>
                <path d="M28.2,34.1 L7.8,34.1 C6.3,34.1 5,32.8 5,31.3 L5,3.8 C5,2.3 6.3,1 7.8,1 L23.1,1 L31,8.9 L31,31.3 C31,32.9 29.7,34.1 28.2,34.1 L28.2,34.1 Z M7.8,2 C6.8,2 6,2.8 6,3.8 L6,31.3 C6,32.3 6.8,33.1 7.8,33.1 L28.2,33.1 C29.2,33.1 30,32.3 30,31.3 L30,9.3 L22.6,2 L7.8,2 L7.8,2 Z" id="Shape" fill="#0B1F35"></path>
                <g id="Group" opacity="0.3" transform="translate(11.000000, 10.000000)" fill="#0B1F35">
                    <path d="M2,16 L4,16 L4,14 L9,14 L9,12 L4,12 L4,10 L7.1,10 C10.1,10 12,7.8 12,5 C12,2.2 10.1,0 7.1,0 L2,0 L2,8 L0,8 L0,10 L2,10 L2,12 L0,12 L0,14 L2,14 L2,16 L2,16 Z M4,2 L6.6,2 C8.9,2 10,3.1 10,5 C10,6.9 8.9,8 6.6,8 L4,8 L4,2 L4,2 Z" id="Shape"></path>
                </g>
            </g>
        </g>
    </g>
</svg>