<svg width="18" height="18" viewBox="0 0 18 18" fill="none" xmlns="http://www.w3.org/2000/svg"><rect width="18" height="18" fill="none"/><path fill-rule="evenodd" clip-rule="evenodd" d="M14.25 17.25H3.75C2.925 17.25 2.25 16.575 2.25 15.75V2.25C2.25 1.425 2.925 0.75 3.75 0.75H11.775L15.75 4.725V15.75C15.75 16.575 15.075 17.25 14.25 17.25ZM3.75 1.5C3.3 1.5 3 1.8 3 2.25V15.75C3 16.2 3.3 16.5 3.75 16.5H14.25C14.7 16.5 15 16.2 15 15.75V5.025L11.475 1.5H3.75Z" fill="white"/><path opacity="0.3" fill-rule="evenodd" clip-rule="evenodd" d="M6.75 13.5H7.5V12H10.5V11.25H7.5V10.5H9.225C10.8 10.5 12 9.3 12 7.875C12 6.45 10.8 5.25 9.225 5.25H6.75V9.75H5.25V10.5H6.75V11.25H5.25V12H6.75V13.5ZM7.5 6H9.075C10.35 6 11.25 6.75 11.25 7.875C11.25 9 10.35 9.75 9.075 9.75H7.5V6Z" fill="white"/></svg>