<svg width="48" height="48" viewBox="0 0 48 48" xmlns="http://www.w3.org/2000/svg"><g fill="none" fill-rule="evenodd"><path d="M0 0h48v48H0z"/><path d="M37.5 46h-28C7.6 46 6 44.4 6 42.5v-37C6 3.6 7.6 2 9.5 2h21.2L41 12.3v30.2c0 1.9-1.6 3.5-3.5 3.5zM9.5 3C8.1 3 7 4.1 7 5.5v37C7 43.9 8.1 45 9.5 45h28c1.4 0 2.5-1.1 2.5-2.5V12.7L30.3 3H9.5z" fill="#0B1F35"/><path d="M18 36h3v-3h7v-3h-7v-2h4.5c4.3 0 6.8-3 6.8-7s-2.4-7-6.7-7H18v11h-2.9v3H18v2h-2.9v3H18v3zm3-19h3.6c3 0 4.4 1.6 4.4 4 0 2.5-1.4 4-4.4 4H21v-8z" opacity=".3" fill="#0B1F35"/></g></svg>