<svg width="24" height="24" viewBox="0 0 24 24" xmlns="http://www.w3.org/2000/svg">
  <g fill="none" fill-rule="evenodd">
    <path d="M0 0h24v24H0"/>
    <path d="M20 23H4c-1.4 0-2.5-1.1-2.5-2.5v-12C1.5 7.7 2.2 7 3 7h4.5v1H3c-.3 0-.5.2-.5.5v12c0 .8.7 1.5 1.5 1.5h16c.8 0 1.5-.7 1.5-1.5v-12c0-.3-.2-.5-.5-.5h-4.5V7H21c.8 0 1.5.7 1.5 1.5v12c0 1.4-1.1 2.5-2.5 2.5z" fill="#FFF" fill-rule="nonzero"/>
    <path d="M2 22v-6h7.5v.5c0 1.4 1.1 2.5 2.5 2.5s2.5-1.1 2.5-2.5V16H22v6H2z" fill="#FFF" fill-rule="nonzero" opacity=".2"/>
    <path fill="#FFF" fill-rule="nonzero" d="M7.6 4.4l.8.7L11.5 2v10.2h1V2l3.1 3.1.8-.7L12 0"/>
  </g>
</svg>
