<svg width="24" height="24" viewBox="0 0 24 24" xmlns="http://www.w3.org/2000/svg"><title>icon_category-salary_s_white</title><g fill="none" fill-rule="evenodd"><path opacity=".1" d="M0 0h24v24H0z"/><g fill-rule="nonzero" fill="#0B1F35"><path d="M12 18.5a6.5 6.5 0 1 0 0-13 6.5 6.5 0 0 0 0 13zm0-1a5.5 5.5 0 1 1 0-11 5.5 5.5 0 0 1 0 11zm7.612-15.842c-.554-.774-1.31-.76-1.901-.098-.371.416-.708 1.09-1.03 1.969a19.705 19.705 0 0 0-.658 2.188l.973.228c.03-.127.087-.353.169-.645.135-.488.288-.974.454-1.426.282-.769.573-1.352.838-1.648.186-.209.183-.209.342.014.236.33.482.98.715 1.965l.071.301.301.07c1.037.244 1.7.502 2.004.744.165.13.165.13-.055.32-.304.26-.878.545-1.627.821a18.9 18.9 0 0 1-1.425.457c-.293.082-.519.14-.646.17l.23.973a20.287 20.287 0 0 0 2.187-.661c.853-.315 1.515-.643 1.932-1.002.658-.565.734-1.298.027-1.86-.408-.326-1.095-.607-2.1-.862-.24-.94-.503-1.603-.8-2.018zM4.437 22.4c.555.775 1.31.76 1.902.098.37-.415.708-1.09 1.03-1.969a20.285 20.285 0 0 0 .658-2.188l-.974-.228c-.03.127-.087.353-.168.645-.136.488-.288.975-.454 1.427-.283.768-.574 1.35-.838 1.647-.186.209-.183.209-.343-.014-.236-.33-.481-.98-.715-1.965l-.07-.301-.302-.07c-1.036-.244-1.7-.501-2.004-.743-.165-.132-.165-.13.056-.32.304-.261.877-.546 1.627-.822a18.9 18.9 0 0 1 1.425-.457c.292-.082.518-.14.645-.17l-.23-.972c-.139.032-.378.093-.685.18-.51.142-1.022.304-1.501.48-.854.315-1.515.644-1.933 1.002-.658.565-.734 1.298-.027 1.861.408.325 1.095.606 2.1.861.24.94.504 1.603.801 2.018z"/><path opacity=".3" d="M8.754 6.754l8.486 8.486-2 2-8.485-8.486z"/></g></g></svg>