<svg width="24px" height="24px" viewBox="0 0 24 24" version="1.1" xmlns="http://www.w3.org/2000/svg"><g stroke="none" stroke-width="1" fill="none" fill-rule="evenodd"><rect x="0" y="0" width="24" height="24"/><g transform="translate(2.000000, 2.000000)"><path d="M2,3 L18,3 C19.1045695,3 20,3.8954305 20,5 L20,17 C20,18.1045695 19.1045695,19 18,19 L2,19 C0.8954305,19 1.3527075e-16,18.1045695 0,17 L0,5 C-1.3527075e-16,3.8954305 0.8954305,3 2,3 Z M2,4 C1.44771525,4 1,4.44771525 1,5 L1,17 C1,17.5522847 1.44771525,18 2,18 L18,18 C18.5522847,18 19,17.5522847 19,17 L19,5 C19,4.44771525 18.5522847,4 18,4 L2,4 Z" fill="#FFFFFF"/><polyline stroke="#FFFFFF" stroke-linecap="square" fill-rule="nonzero" points="5.5 0.5 9 3.5 11 3.5 14.5 0.5"/><polygon fill="#FFFFFF" opacity="0.300000012" points="1 6 19 6 19 16 1 16"/><rect fill="#FFFFFF" x="5" y="20" width="10" height="1"/></g></g></svg>