<svg width="36px" height="36px" viewBox="0 0 36 36" version="1.1" xmlns="http://www.w3.org/2000/svg"><g stroke="none" stroke-width="1" fill="none" fill-rule="evenodd"><rect x="0" y="0" width="36" height="36"/><g transform="translate(2.000000, 2.500000)"><path d="M3,3.5 L29,3.5 C30.6568542,3.5 32,4.84314575 32,6.5 L32,26.5 C32,28.1568542 30.6568542,29.5 29,29.5 L3,29.5 C1.34314575,29.5 2.02906125e-16,28.1568542 0,26.5 L0,6.5 C-2.02906125e-16,4.84314575 1.34314575,3.5 3,3.5 Z M3,4.5 C1.8954305,4.5 1,5.3954305 1,6.5 L1,26.5 C1,27.6045695 1.8954305,28.5 3,28.5 L29,28.5 C30.1045695,28.5 31,27.6045695 31,26.5 L31,6.5 C31,5.3954305 30.1045695,4.5 29,4.5 L3,4.5 Z" fill="#FFFFFF"/><polyline stroke="#FFFFFF" stroke-linecap="square" fill-rule="nonzero" points="10 0 14 4 18 4 22 0"/><rect fill="#FFFFFF" opacity="0.300000012" x="1" y="7.5" width="30" height="18"/><rect fill="#FFFFFF" x="8" y="30.5" width="15" height="1"/></g></g></svg>