<svg xmlns="http://www.w3.org/2000/svg" width="24" height="24" viewBox="0 0 24 24"><g fill="none"><polygon points="0 0 24 0 24 24 0 24"/><g fill="#FFF" fill-rule="nonzero" transform="translate(1 1)"><path fill-opacity=".3" d="M5,20.1190926 C5.81826373,20.1190926 6.56001287,19.7914947 7.10124593,19.2603003 L2.87645424,15 C2.33486896,15.5427163 2,16.291798 2,17.1190926 C2,18.7759469 3.34314575,20.1190926 5,20.1190926 Z"/><path d="M14.5639116,22.2340634 C14.2399116,22.2340634 13.8039116,22.1110634 13.3279116,21.6340634 L0.599911628,8.90706343 C-0.0950883723,8.21206343 -0.0390883723,7.60306343 0.0559116277,7.30106343 C0.151911628,6.99906343 0.454911628,6.46906343 1.42191163,6.29906343 L5.30691163,5.61206343 L8.73191163,2.18806343 C10.1364041,0.779737533 12.0459638,-0.0081403824 14.0349116,6.34307437e-05 C16.0439116,6.34307437e-05 17.9279116,0.777063431 19.3389116,2.18806343 L20.0459116,2.89506343 C21.4542954,4.29992638 22.2421597,6.20981311 22.2339116,8.19906343 C22.2421154,10.1880113 21.4542375,12.097571 20.0459116,13.5020634 L16.6219116,16.9270634 L15.9349116,20.8130634 C15.7649116,21.7790634 15.2349116,22.0840634 14.9329116,22.1780634 C14.8379116,22.2080634 14.7129116,22.2340634 14.5639116,22.2340634 Z M14.0339116,1.00006343 C12.3101241,0.992619434 10.6550596,1.67538755 9.43791163,2.89606343 L5.79091163,6.54206343 L1.59591163,7.28406343 C1.21691163,7.35006343 1.04391163,7.49206343 1.00991163,7.60206343 C0.974911628,7.71206343 1.03391163,7.92706343 1.30691163,8.20006343 L14.0349116,20.9280634 C14.3059116,21.1990634 14.5209116,21.2610634 14.6329116,21.2250634 C14.7429116,21.1910634 14.8849116,21.0190634 14.9509116,20.6400634 L15.6919116,16.4440634 L19.3379116,12.7970634 C20.5586821,11.5799787 21.2414673,9.92487283 21.2339116,8.20106343 C21.2413998,6.47697347 20.5586454,4.82158196 19.3379116,3.60406343 L18.6309116,2.89706343 C17.4138744,1.67548948 15.7582555,0.992281057 14.0339116,1.00006343 Z"/></g></g></svg>