<svg xmlns="http://www.w3.org/2000/svg" width="23" height="24" viewBox="0 0 23 24"><g fill="none" fill-rule="evenodd"><path d="M0 0h24v24H0z"/><path fill="#FFF" d="M15.181 23.133c-.324 0-.76-.123-1.236-.6L1.217 9.806C.522 9.111.578 8.502.673 8.2c.096-.302.399-.832 1.366-1.002l3.885-.687 3.425-3.424A7.446 7.446 0 0 1 14.652.899c2.009 0 3.893.777 5.304 2.188l.707.707a7.448 7.448 0 0 1 2.188 5.304 7.446 7.446 0 0 1-2.188 5.303l-3.424 3.425-.687 3.886c-.17.966-.7 1.271-1.002 1.365-.095.03-.22.056-.369.056zm-.53-21.234a6.451 6.451 0 0 0-4.596 1.896L6.408 7.441l-4.195.742c-.379.066-.552.208-.586.318-.035.11.024.325.297.598l12.728 12.728c.271.271.486.333.598.297.11-.034.252-.206.318-.585l.741-4.196 3.646-3.647A6.45 6.45 0 0 0 21.851 9.1a6.453 6.453 0 0 0-1.896-4.597l-.707-.707a6.448 6.448 0 0 0-4.597-1.897z"/><path fill="#FFF" d="M8.288 19.705a3 3 0 1 1-4.243-4.243" opacity=".4"/></g></svg>