<svg xmlns="http://www.w3.org/2000/svg" width="42" height="43" viewBox="0 0 42 43"><g fill="none" fill-rule="evenodd"><path d="M-3-2h48v48H-3z"/><path fill="#0B1F35" d="M26.478 42.538c-.9 0-1.774-.356-2.452-1.034L1.496 18.975a3.444 3.444 0 0 1-.759-3.813A3.446 3.446 0 0 1 3.971 13h5.523l7.543-7.558c.068-.079.138-.157.214-.233C19.985 2.475 23.642 1.002 27.497.98a14.456 14.456 0 0 1 10.26 4.264c5.662 5.663 5.678 14.862.034 20.506a4.213 4.213 0 0 1-.233.214l-.137.121L30 33.506v5.523a3.445 3.445 0 0 1-2.161 3.233 3.548 3.548 0 0 1-1.361.276zM3.971 14c-1.231 0-2 .797-2.31 1.543-.309.746-.329 1.854.542 2.725l22.529 22.529c.871.871 1.977.851 2.725.542.746-.31 1.543-1.078 1.543-2.31v-5.938l7.9-7.883c.062-.054.124-.107.184-.167 5.254-5.254 5.238-13.818-.034-19.092a13.46 13.46 0 0 0-9.555-3.971 13.416 13.416 0 0 0-9.537 3.937c-.06.06-.113.122-.167.184l-.145.161L9.908 14H3.971z"/><path fill="#0B1F35" d="M14.4 37.536a6 6 0 0 1-8.485-8.485" opacity=".3"/></g></svg>