<svg xmlns="http://www.w3.org/2000/svg" width="24" height="24" viewBox="0 0 24 24"><g fill="none" fill-rule="evenodd"><path d="M0 0h24v24H0z"/><path fill="#0B1F35" fill-rule="nonzero" d="M12 0c6.627 0 12 5.373 12 12s-5.373 12-12 12S0 18.627 0 12h1c0 6.075 4.925 11 11 11s11-4.925 11-11S18.075 1 12 1V0zm0 0c6.627 0 12 5.373 12 12s-5.373 12-12 12S0 18.627 0 12h1c0 6.075 4.925 11 11 11s11-4.925 11-11S18.075 1 12 1V0z"/><path fill="#0B1F35" d="M14.289 13.303l.011.011 3.546-6.734c.264-.501.07-.68-.422-.422l-6.348 3.337a2.701 2.701 0 1 0 3.213 3.808z" opacity=".3"/></g></svg>