<svg width="36" height="36" viewBox="0 0 36 36" fill="none" xmlns="http://www.w3.org/2000/svg"><rect width="36" height="36" fill="none"></rect><path d="M18 0C27.9405 0 36 8.0595 36 18C36 27.9405 27.9405 36 18 36C8.0595 36 0 27.9405 0 18H1.5C1.5 27.1125 8.8875 34.5 18 34.5C27.1125 34.5 34.5 27.1125 34.5 18C34.5 8.8875 27.1125 1.5 18 1.5V0ZM18 0C27.9405 0 36 8.0595 36 18C36 27.9405 27.9405 36 18 36C8.0595 36 0 27.9405 0 18H1.5C1.5 27.1125 8.8875 34.5 18 34.5C27.1125 34.5 34.5 27.1125 34.5 18C34.5 8.8875 27.1125 1.5 18 1.5V0Z" fill="white"/><path opacity="0.3" fill-rule="evenodd" clip-rule="evenodd" d="M21.4335 19.9551L21.45 19.9716L26.769 9.8706C27.165 9.1191 26.874 8.8506 26.136 9.2376L16.614 14.2431C15.977 14.443 15.3992 14.7973 14.9322 15.2744C14.4651 15.7515 14.1231 16.3366 13.9368 16.9777C13.7504 17.6188 13.7253 18.296 13.8638 18.9492C14.0023 19.6023 14.3001 20.2111 14.7307 20.7214C15.1612 21.2317 15.7112 21.6277 16.3317 21.8741C16.9522 22.1205 17.624 22.2098 18.2874 22.134C18.9507 22.0581 19.585 21.8195 20.1339 21.4394C20.6828 21.0593 21.1292 20.5494 21.4335 19.9551V19.9551Z" fill="white"/></svg>
