<svg width="36" height="36" viewBox="0 0 36 36" fill="none" xmlns="http://www.w3.org/2000/svg"><path d="M18 0C27.9405 0 36 8.0595 36 18C36 27.9405 27.9405 36 18 36C8.0595 36 0 27.9405 0 18H1.5C1.5 27.1125 8.8875 34.5 18 34.5C27.1125 34.5 34.5 27.1125 34.5 18C34.5 8.8875 27.1125 1.5 18 1.5V0ZM18 0C27.9405 0 36 8.0595 36 18C36 27.9405 27.9405 36 18 36C8.0595 36 0 27.9405 0 18H1.5C1.5 27.1125 8.8875 34.5 18 34.5C27.1125 34.5 34.5 27.1125 34.5 18C34.5 8.8875 27.1125 1.5 18 1.5V0Z" fill="white"/><path opacity="0.3" fill-rule="evenodd" clip-rule="evenodd" d="M20.5585 20.8115L20.5748 20.8279L25.8249 10.803C26.2157 10.0571 25.9285 9.79067 25.2001 10.1748L15.8015 15.1425C15.1727 15.341 14.6025 15.6926 14.1415 16.166C13.6804 16.6395 13.3429 17.2202 13.159 17.8565C12.975 18.4928 12.9503 19.165 13.087 19.8132C13.2237 20.4614 13.5176 21.0656 13.9426 21.572C14.3676 22.0785 14.9104 22.4715 15.5229 22.7161C16.1354 22.9606 16.7985 23.0492 17.4532 22.974C18.1079 22.8987 18.734 22.6619 19.2758 22.2846C19.8176 21.9074 20.2582 21.4013 20.5585 20.8115V20.8115Z" fill="white"/></svg>