<svg width="36" height="36" xmlns="http://www.w3.org/2000/svg"><g fill="none" fill-rule="evenodd"><path d="M0 0h36v36H0z"/><path d="M19.678 4.953c-.758-1.27-2.597-1.27-3.356 0L.95 30.69c-.778 1.303.159 2.957 1.678 2.957h30.745c1.517 0 2.457-1.654 1.678-2.956L19.677 4.953h.001zm-.2 8.528l-.182 11.006h-2.594l-.182-11.006h2.958zM17.993 29.84c-.947 0-1.687-.731-1.687-1.666 0-.934.74-1.666 1.687-1.666.952 0 1.698.732 1.698 1.666 0 .934-.745 1.666-1.698 1.666z" fill="#0B1F35" fill-rule="nonzero"/></g></svg>