<svg width="30" height="30" viewBox="0 0 30 30" xmlns="http://www.w3.org/2000/svg"><rect width="30" height="30" fill="none"/><g fill="#0B1F35" transform="translate(1, 3)"><path d="M24,24 L23,24 C23,20.9 18.7,18.7 17.3,18 C14.9,16.8 14.4,16 14.4,13.3 L15.4,13.3 C15.4,15.8 15.8,16.2 17.7,17.1 C19.3,17.9 24,20.3 24,24 Z M1,24 L0,24 C0,20.3 4.7,17.9 6.2,17.1 C8.2,16.1 8.5,15.7 8.5,13.3 L9.5,13.3 C9.5,16.1 9,16.8 6.6,18 C5.3,18.7 1,20.9 1,24 Z"/><path d="M12,15 C8.2,15 6,10.7 6,6.5 C6,3.5 6.7,0 12,0 C17.3,0 18,3.5 18,6.5 C18,10.7 15.8,15 12,15 L12,15 Z M12,1 C8.4,1 7,2.6 7,6.5 C7,9.6 8.6,14 12,14 C15.4,14 17,9.6 17,6.5 C17,2.6 15.6,1 12,1 L12,1 Z"/><path d="M24,7 L19.95,7 L19.95,8 L24,8 L24,12 L25,12 L25,8 L28.95,8 L28.95,7 L25,7 L25,3 L24,3 L24,7 Z"/></g></svg>