<svg xmlns="http://www.w3.org/2000/svg" width="24" height="24" viewBox="0 0 24 24"><g fill="none"><rect width="24" height="24"/><path fill="#FFF" d="M6.97691,15.3968 C7.5693,15.7794 8.24681,16 8.99995,16 C9.75559,16 10.4351,15.778 11.0289,15.393 C11.172,17.6221 11.8415,18.0943 12.9,18.8 L13.2,19 L13.8,19.3 C15.2,20 17,21 17,24 L18,24 C18,20.4141 15.718,19.1102 14.3165,18.3094 L14.3,18.3 C14.2,18.25 14.125,18.2 14.05,18.15 C13.975,18.1 13.9,18.05 13.8,18 L13.4,17.8 C12.4182,17.3091 12.0148,17.011 12.0004,14.5399 C13.1574,13.2146 13.8,11.1716 13.8,9.2 C13.8,7 13.3,4 8.99995,4 C4.69995,4 4.19995,7 4.19995,9.2 C4.19995,11.1718 4.84263,13.2151 5.99997,14.5404 C5.99588,17.0633 5.60685,17.2965 4.64478,17.8732 C4.62999,17.882 4.61506,17.891 4.6,17.9 L4.2,18.1 C4.1,18.2 3.90001,18.3 3.70002,18.4 L3.7,18.4 C2.3,19.1 0,20.4 0,24 L1,24 C1,21 2.8,20 4.2,19.3 L4.8,19 L5.1,18.8 C6.17353,18.1738 6.8469,17.7076 6.97691,15.3968 Z M5.19995,9.2 C5.19995,6.2 6.29995,5 8.99995,5 C11.7,5 12.8,6.2 12.8,9.2 C12.8,12 11.3,15 8.99995,15 C6.69995,15 5.19995,12 5.19995,9.2 Z"/><polygon fill="#FFF" points="20 1 19 1 19 5 15 5 15 6 19 6 19 10 20 10 20 6 24 6 24 5 20 5"/></g></svg>