<svg xmlns="http://www.w3.org/2000/svg" width="48" height="48" viewBox="0 0 48 48" fill="none"><rect width="48" height="48" fill="none"/><path d="M7.5 3.5C7.5 1.84315 8.84315 0.5 10.5 0.5H30.7927L40.6113 10.3285C41.1732 10.891 41.4889 11.6536 41.4889 12.4487V44.5C41.4889 46.1569 40.1457 47.5 38.4889 47.5H10.5C8.84314 47.5 7.5 46.1569 7.5 44.5V3.5Z" fill="#F3F4F5" stroke="#E7E9EB"/><path fill-rule="evenodd" clip-rule="evenodd" d="M41.9888 14L41.9888 11L30.9999 4.76137e-06L10.4999 4.87655e-06C8.56692 4.70756e-06 6.99991 1.56701 6.99991 3.5L6.99991 14L41.9888 14Z" fill="#4A90E2"/><path d="M14.2305 10V5.33594H15.9219V4.36328H11.3594V5.33594H13.0508V10H14.2305ZM16.625 10H17.8984L19.125 8.0625H19.1953L20.4062 10H21.75L19.9219 7.17969L21.7773 4.36328H20.457L19.2695 6.35938H19.1992L18.0234 4.36328H16.6367L18.4258 7.16016L16.625 10ZM25.3477 10V5.33594H27.0391V4.36328H22.4766V5.33594H24.168V10H25.3477Z" fill="white"/><rect x="11" y="19" width="26" height="2" rx="1" fill="#B6BCC3"/><rect x="11" y="23" width="19" height="2" rx="1" fill="#B6BCC3"/><rect x="11" y="27" width="24" height="2" rx="1" fill="#B6BCC3"/><rect x="11" y="34" width="16" height="2" rx="1" fill="#B6BCC3"/><rect x="11" y="38" width="21" height="2" rx="1" fill="#B6BCC3"/><path opacity="0.6" d="M31 0L42 11H34.5C32.567 11 31 9.433 31 7.5V0Z" fill="white"/></svg>