<svg xmlns="http://www.w3.org/2000/svg" width="36" height="36" version="1" viewBox="0 0 36 36"><path fill="#0B1F35" d="M24.558 34h-17a4.505 4.505 0 0 1-4.5-4.5V10.294L11.292 2h13.266c2.481 0 4.5 2.019 4.5 4.5V12h-1V6.5c0-1.93-1.57-3.5-3.5-3.5h-12.85l-7.65 7.706V29.5c0 1.93 1.57 3.5 3.5 3.5h17c1.93 0 3.5-1.57 3.5-3.5V28h1v1.5c0 2.481-2.019 4.5-4.5 4.5z"/><path fill="#0B1F35" d="M14 16.966h-3v8.027h-1v-8.027H7v-.956h7v.956zm18 0h-3v8.027h-1v-8.027h-3v-.956h7v.956zm-15.7 7.999l2.795-4.498-2.726-4.408h1.091l2.087 3.83 2.244-3.879.97.036-2.734 4.421 2.786 4.485h-1.084l-2.154-3.89L17.271 25z"/></svg>