<svg xmlns="http://www.w3.org/2000/svg" width="25" height="26" viewBox="0 0 25 26"><g fill="#FFF" fill-rule="evenodd"><path d="M17 26H4a4.005 4.005 0 0 1-3.998-3.874H0V6.293L6.293 0H17c2.206 0 4 1.794 4 4v5h-1V4c0-1.654-1.346-3-3-3H6.707L1 6.707V22c0 1.654 1.346 3 3 3h13c1.654 0 3-1.346 3-3h1c0 2.206-1.794 4-4 4z"/><path d="M10.034 13h-2v6h-1v-6h-2v-1h5zm14 0h-2v6h-1v-6h-2v-1h5zm-8.056 6l-1.472-2.914L13.034 19h-1.168l2.011-3.531L11.918 12h1.153l1.413 2.875L15.921 12h1.163l-1.96 3.471L17.197 19z"/></g></svg>