<svg xmlns="http://www.w3.org/2000/svg" width="29" height="32" viewBox="0 0 29 32"><g fill="#FFF" fill-rule="evenodd"><path d="M21.558 32h-17a4.505 4.505 0 0 1-4.5-4.5V8.294L8.292 0h13.266c2.481 0 4.5 2.019 4.5 4.5V10h-1V4.5c0-1.93-1.57-3.5-3.5-3.5H8.708l-7.65 7.706V27.5c0 1.93 1.57 3.5 3.5 3.5h17c1.93 0 3.5-1.57 3.5-3.5V26h1v1.5c0 2.481-2.019 4.5-4.5 4.5z"/><path d="M11 14.966H8v8.027H7v-8.027H4v-.956h7zm18 0h-3v8.027h-1v-8.027h-3v-.956h7zm-15.7 7.999l2.795-4.498-2.726-4.408h1.091l2.087 3.83 2.244-3.879.97.036-2.734 4.421 2.786 4.485h-1.084l-2.154-3.89L14.271 23z"/></g></svg>