<svg xmlns="http://www.w3.org/2000/svg" width="30" height="30" version="1" viewBox="0 0 30 30"><path fill="#0B1F35" d="M19 28H6a4.005 4.005 0 0 1-3.998-3.874H2V8.293L8.293 2H19c2.206 0 4 1.794 4 4v5h-1V6c0-1.654-1.346-3-3-3H8.707L3 8.707V24c0 1.654 1.346 3 3 3h13c1.654 0 3-1.346 3-3h1c0 2.206-1.794 4-4 4z"/><path fill="#0B1F35" d="M12.034 15h-2v6h-1v-6h-2v-1h5v1zm14 0h-2v6h-1v-6h-2v-1h5v1zm-8.056 6l-1.472-2.914L15.034 21h-1.168l2.011-3.531L13.918 14h1.153l1.413 2.875L17.921 14h1.163l-1.96 3.471L19.197 21z"/></svg>