<svg xmlns="http://www.w3.org/2000/svg" width="17" height="16" viewBox="0 0 17 16"><path fill="#FFF" fill-rule="evenodd" d="M14 4.706h-1V1.467c0-.29-.251-.526-.559-.526H5.707L2 4.431v.275H1V4.04L5.293 0h7.148C13.301 0 14 .658 14 1.467v3.239zM12.5 16h-10c-.827 0-1.5-.633-1.5-1.412h1c0 .26.224.47.5.47h10c.275 0 .5-.21.5-.47h1c0 .779-.673 1.412-1.5 1.412zM5 7.53H3v4.705H2V7.53H0v-.94h5zm12 0h-2v4.705h-1V7.53h-2v-.94h5zm-7.344 4.705l-1.179-2.22-1.18 2.22H6.174L7.88 9.387 6.218 6.588h1.11L8.46 8.776l1.148-2.188h1.12l-1.663 2.8 1.759 2.847z"/></svg>