<svg width="30px" height="30px" viewBox="0 0 30 30" version="1.1" xmlns="http://www.w3.org/2000/svg"><g transform="translate(-387.000000, -116.000000) translate(387.000000, 116.000000)" stroke="none" stroke-width="1" fill="none" fill-rule="evenodd"><rect x="0" y="0" width="30" height="30"/><g transform="translate(2.000000, 2.000000)" fill-rule="nonzero"><path d="M21.125,0 L9.75,0 C7.06103061,0.00823579873 4.8832358,2.18603061 4.875,4.875 L16.25,4.875 C18.9389694,4.8832358 21.1167642,7.06103061 21.125,9.75 L21.125,21.125 C23.8139694,21.1167642 25.9917642,18.9389694 26,16.25 L26,4.875 C25.9917642,2.18603061 23.8139694,0.00823579873 21.125,0 Z" fill="#14478E"/><path d="M4.875,16.25 L4.875,4.875 C2.18580348,4.88268974 0.00768974304,7.06080348 0,9.75 L0,21.125 C0.00768974304,23.8141965 2.18580348,25.9923103 4.875,26 L16.25,26 C18.9389694,25.9917642 21.1167642,23.8139694 21.125,21.125 L9.75,21.125 C7.06103061,21.1167642 4.8832358,18.9389694 4.875,16.25 Z" fill="#DC6831"/><path d="M17.541,10.324 C18.027,10.162 18.595,9.756 18.595,8.702 C18.595,7.567 17.703,6.999 16.325,6.999 L14.055,6.999 L14.055,9.756 L12.677,9.756 C10.893,9.756 10.488,10.972 10.488,11.621 C10.488,12.594 11.056,12.999 12.029,13.486 C12.678,13.729 13.407,14.054 13.407,14.621 C13.407,14.945 13.083,15.432 12.353,15.432 L11.218,15.432 C11.38,15.108 11.461,14.702 11.461,14.378 C11.461,13.892 11.299,12.189 8.866,12.189 L7,12.189 L7,19 L8.378,19 L8.378,16 L8.946,16.568 L12.595,16.568 C14.298,16.568 15.19,15.676 15.19,14.622 C15.19,14.298 15.109,13.892 15.028,13.73 L16.487,13.73 C18.676,13.73 19.163,12.676 19.163,11.865 C18.9883356,11.0679718 18.3459235,10.4576406 17.541,10.324 Z M8.946,15.757 L8.297,15.757 L8.297,13.487 L8.946,13.487 C9.757,13.487 10.081,13.973 10.081,14.541 C10.081,15.109 9.757,15.757 8.946,15.757 Z M14.216,11.541 L14.216,13.163 C13.892,13.001 13.486,12.839 13.162,12.595 C12.676,12.433 12.27,12.109 12.27,11.622 C12.27,11.379 12.432,10.892 13.243,10.892 L14.865,10.892 L14.216,11.541 Z M15.595,8.216 L16.244,8.216 C17.298,8.216 17.298,8.865 17.298,9.027 C17.298,9.27 17.136,9.838 16.244,9.838 L15.595,9.838 L15.595,8.216 Z M16.324,12.838 L15.513,12.838 L15.513,10.973 L16.324,10.973 C17.297,10.973 17.459,11.459 17.459,11.865 C17.541,12.432 17.216,12.838 16.324,12.838 Z" fill="#14478E"/></g></g></svg>