<svg xmlns="http://www.w3.org/2000/svg" width="48" height="47" viewBox="0 0 48 47"><g fill="none" fill-rule="evenodd"><path d="M0 0h48v48H0z"/><path fill="#FFF" d="M48 26.473c0-4.042-2.154-7.673-5.578-10.229.037.416.078.832.078 1.256 0 9.389-9.402 17-21 17-2.044 0-4.014-.246-5.881-.687 3.083 3.991 8.586 6.66 14.881 6.66 1.061 0 2.095-.088 3.104-.233L42 47v-9.992c3.67-2.566 6-6.329 6-10.535z" opacity=".3"/><path fill="#FFF" d="M6 41.608V29.62c-3.872-3.277-6-7.573-6-12.12C0 7.851 9.645 0 21.5 0S43 7.851 43 17.5C43 27.149 33.355 35 21.5 35c-2.024 0-4.036-.233-5.985-.692L6 41.608zM21.5 1C10.196 1 1 8.402 1 17.5c0 4.314 2.066 8.398 5.819 11.501l.181.15v10.43l8.286-6.358.233.058c1.944.477 3.956.719 5.981.719C32.804 34 42 26.598 42 17.5 42 8.402 32.804 1 21.5 1z"/><path fill="#FFF" d="M11 11h20v4H11zm0 9h14v4H11z" opacity=".3"/></g></svg>