<svg width="36" height="36" viewBox="0 0 36 36" xmlns="http://www.w3.org/2000/svg"><g fill="none" fill-rule="evenodd"><path d="M0 0h36v36H0z"/><path d="M3.996 33H8c1.103 0 2-.897 2-2v-2h15.996v2c0 1.103.897 2 2 2H32c1.103 0 2-.897 2-2V19.688c0-1.245-.138-3.04-.796-4.523L28.749 5.079A3.504 3.504 0 0 0 25.55 3H10.445a3.501 3.501 0 0 0-3.198 2.08L2.793 15.164c-.659 1.483-.797 3.279-.797 4.523V31c0 1.103.897 2 2 2zm-1-13.312c0-.94.092-2.725.711-4.119L8.161 5.485A2.502 2.502 0 0 1 10.445 4H25.55c.987 0 1.884.583 2.284 1.484l4.455 10.085c.619 1.394.711 3.179.711 4.119V31c0 .551-.449 1-1 1h-4.004c-.551 0-1-.449-1-1v-2.5a.5.5 0 0 0-.5-.5H9.5a.5.5 0 0 0-.5.5V31c0 .551-.449 1-1 1H3.996c-.551 0-1-.449-1-1V19.688z" fill="#0B1F35"/><path fill="#0B1F35" opacity=".3" d="M25.312 7H10.688l-4.002 9h22.628zM7 24h4a1 1 0 0 0 1-1v-2a1 1 0 0 0-1-1H7a1 1 0 0 0-1 1v2a1 1 0 0 0 1 1zM25 20a1 1 0 0 0-1 1v2a1 1 0 0 0 1 1h4a1 1 0 0 0 1-1v-2a1 1 0 0 0-1-1h-4z"/></g></svg>