<?xml version="1.0" encoding="UTF-8"?>
<svg width="48px" height="48px" viewBox="0 0 48 48" version="1.1" xmlns="http://www.w3.org/2000/svg" xmlns:xlink="http://www.w3.org/1999/xlink">
    <!-- Generator: Sketch 48.2 (47327) - http://www.bohemiancoding.com/sketch -->
    <title>icon_category_car_xxl_black</title>
    <desc>Created with Sketch.</desc>
    <defs></defs>
    <g id="mobile" stroke="none" stroke-width="1" fill="none" fill-rule="evenodd" transform="translate(-1616.000000, -138.000000)">
        <g id="Headings" transform="translate(64.000000, 77.000000)">
            <g id="icon_category_car__xxl__white" transform="translate(1552.000000, 61.000000)">
                <g id="ungroup">
                    <rect id="Rectangle-path" x="0" y="0" width="48" height="48"></rect>
                    <path d="M4.497,44 L10.447,44 C11.855,44 13,42.855 13,41.447 L13,38 L35,38 L35,41.447 C35,42.855 36.145,44 37.553,44 L43.503,44 C44.91,44 46.055,42.855 46.055,41.447 L46.055,26.651 C46.055,24.965 45.868,22.535 44.981,20.536 L38.885,6.735 C38.147,5.074 36.495,4 34.677,4 L13.323,4 C11.505,4 9.853,5.074 9.114,6.736 L3.02,20.535 C2.132,22.535 1.945,24.965 1.945,26.651 L1.945,41.447 C1.945,42.855 3.09,44 4.497,44 L4.497,44 Z M2.945,26.651 C2.945,25.35 3.073,22.878 3.934,20.94 L10.029,7.141 C10.606,5.84 11.9,5 13.323,5 L34.677,5 C36.1,5 37.394,5.84 37.971,7.14 L44.067,20.941 C44.927,22.878 45.056,25.35 45.056,26.651 L45.056,41.447 C45.056,42.303 44.36,43 43.504,43 L37.554,43 C36.697,43 36,42.303 36,41.447 L36,37.5 C36,37.224 35.776,37 35.5,37 L12.5,37 C12.224,37 12,37.224 12,37.5 L12,41.447 C12,42.303 11.303,43 10.447,43 L4.497,43 C3.641,43 2.945,42.303 2.945,41.447 L2.945,26.651 L2.945,26.651 Z" id="Shape" fill="#0B1F35"></path>
                    <polygon id="Shape" fill="#0B1F35" opacity="0.3" points="33.753 9 14.253 9 8.917 21 39.088 21"></polygon>
                    <path d="M9,32 L15,32 C15.552,32 16,31.552 16,31 L16,27 C16,26.448 15.552,26 15,26 L9,26 C8.448,26 8,26.448 8,27 L8,31 C8,31.552 8.448,32 9,32 L9,32 Z" id="Shape" fill="#0B1F35" opacity="0.3"></path>
                    <path d="M33,26 C32.448,26 32,26.448 32,27 L32,31 C32,31.552 32.448,32 33,32 L39,32 C39.552,32 40,31.552 40,31 L40,27 C40,26.448 39.552,26 39,26 L33,26 L33,26 Z" id="Shape" fill="#0B1F35" opacity="0.3"></path>
                </g>
            </g>
        </g>
    </g>
</svg>