<svg xmlns="http://www.w3.org/2000/svg" width="36" height="36" viewBox="0 0 36 36"><path fill="none" d="M0 0h36v36H0z"/><g fill="#fff"><path d="M32 33h-4a2 2 0 0 1-2-2v-2h-8a.5.5 0 1 1 0-1h8.5a.5.5 0 0 1 .5.5V31a1 1 0 0 0 1 1h4a1 1 0 0 0 1-1V19.69a10.93 10.93 0 0 0-.71-4.12L27.83 5.48A2.5 2.5 0 0 0 25.55 4H18a.5.5 0 0 1 0-1h7.55a3.5 3.5 0 0 1 3.2 2.08l4.45 10.08a11.66 11.66 0 0 1 .8 4.52V31a2 2 0 0 1-2 2z"/><path d="M8 33H4a2 2 0 0 1-2-2V19.69a11.66 11.66 0 0 1 .8-4.52L7.25 5.08A3.5 3.5 0 0 1 10.45 3H18a.5.5 0 0 1 0 1h-7.55a2.5 2.5 0 0 0-2.29 1.48L3.71 15.57A10.92 10.92 0 0 0 3 19.69V31a1 1 0 0 0 1 1h4a1 1 0 0 0 1-1v-2.5a.5.5 0 0 1 .5-.5H18a.5.5 0 0 1 0 1h-8v2a2 2 0 0 1-2 2z"/></g><path fill="#fff" d="M10.28 7.91A1.68 1.68 0 0 1 11.69 7h12.62a1.68 1.68 0 0 1 1.41.91l3.19 7.17a.6.6 0 0 1-.59.91H7.69a.6.6 0 0 1-.59-.91z" opacity=".3"/><rect width="6" height="4" x="6" y="20" fill="#fff" opacity=".3" rx="1" ry="1"/><rect width="6" height="4" x="24" y="20" fill="#fff" opacity=".3" rx="1" ry="1"/></svg>