<?xml version="1.0" encoding="UTF-8"?>
<svg width="24px" height="24px" viewBox="0 0 24 24" version="1.1" xmlns="http://www.w3.org/2000/svg" xmlns:xlink="http://www.w3.org/1999/xlink">
    <!-- Generator: Sketch 48.2 (47327) - http://www.bohemiancoding.com/sketch -->
    <title>icon_category_car_m_white</title>
    <desc>Created with Sketch.</desc>
    <defs></defs>
    <g id="mobile" stroke="none" stroke-width="1" fill="none" fill-rule="evenodd" transform="translate(-1476.000000, -138.000000)">
        <g id="Headings" transform="translate(64.000000, 77.000000)">
            <g id="icon_category_car__m__white" transform="translate(1412.000000, 61.000000)">
                <g id="ungroup">
                    <rect id="Rectangle-path" x="0" y="0" width="24" height="24"></rect>
                    <g id="a1" opacity="0.4"></g>
                    <path d="M2.497,22 L5.497,22 C6.324,22 6.997,21.327 6.997,20.5 L6.997,19 L11.997,19 L11.998,19 L11.999,19 L16.999,19 L16.999,20.5 C16.999,21.327 17.672,22 18.499,22 L21.499,22 C22.326,22 22.999,21.327 22.999,20.5 L22.999,13.292 C22.999,12.446 22.904,11.225 22.454,10.209 L19.484,3.484 C19.084,2.583 18.188,2 17.2,2 L11.998,2 L6.797,2 C5.81,2 4.914,2.583 4.512,3.485 L1.543,10.208 C1.092,11.224 0.997,12.445 0.997,13.291 L0.997,20.5 C0.997,21.327 1.67,22 2.497,22 L2.497,22 Z M1.997,13.292 C1.997,12.679 2.057,11.515 2.457,10.614 L5.426,3.891 C5.667,3.35 6.205,3 6.797,3 L11.999,3 L17.2,3 C17.792,3 18.33,3.35 18.57,3.89 L21.54,10.614 C21.94,11.515 22,12.678 22,13.292 L22,20.5 C22,20.776 21.776,21 21.5,21 L18.5,21 C18.224,21 18,20.776 18,20.5 L18,18.5 C18,18.224 17.776,18 17.5,18 L12,18 L11.999,18 L11.998,18 L6.498,18 C6.222,18 5.998,18.224 5.998,18.5 L5.998,20.5 C5.998,20.776 5.774,21 5.498,21 L2.498,21 C2.222,21 1.998,20.776 1.998,20.5 L1.998,13.292 L1.997,13.292 Z" id="Shape" fill="#FFFFFF"></path>
                    <polygon id="Shape" fill="#FFFFFF" opacity="0.3" points="16.875 5 7.125 5 4.457 11 19.543 11"></polygon>
                    <path d="M5,16 L7,16 C7.552,16 8,15.552 8,15 L8,14 C8,13.448 7.552,13 7,13 L5,13 C4.448,13 4,13.448 4,14 L4,15 C4,15.552 4.448,16 5,16 L5,16 Z" id="Shape" fill="#FFFFFF" opacity="0.3"></path>
                    <path d="M17,13 C16.448,13 16,13.448 16,14 L16,15 C16,15.552 16.448,16 17,16 L19,16 C19.552,16 20,15.552 20,15 L20,14 C20,13.448 19.552,13 19,13 L17,13 L17,13 Z" id="Shape" fill="#FFFFFF" opacity="0.3"></path>
                </g>
            </g>
        </g>
    </g>
</svg>