<?xml version="1.0" encoding="UTF-8"?>
<svg width="36px" height="36px" viewBox="0 0 36 36" version="1.1" xmlns="http://www.w3.org/2000/svg" xmlns:xlink="http://www.w3.org/1999/xlink">
    <!-- Generator: Sketch 48.2 (47327) - http://www.bohemiancoding.com/sketch -->
    <title>icon_category_car_xl_black</title>
    <desc>Created with Sketch.</desc>
    <defs></defs>
    <g id="mobile" stroke="none" stroke-width="1" fill="none" fill-rule="evenodd" transform="translate(-1540.000000, -138.000000)">
        <g id="Headings" transform="translate(64.000000, 77.000000)">
            <g id="icon_category_car__xl__white" transform="translate(1476.000000, 61.000000)">
                <g id="ungroup">
                    <rect id="Rectangle-path" x="0" y="0" width="36" height="36"></rect>
                    <path d="M3.996,33 L8,33 C9.103,33 10,32.103 10,31 L10,29 L17.996,29 L17.998,29 L18,29 L25.996,29 L25.996,31 C25.996,32.103 26.893,33 27.996,33 L32,33 C33.103,33 34,32.103 34,31 L34,19.688 C34,18.443 33.862,16.648 33.204,15.165 L28.749,5.079 C28.187,3.816 26.932,3 25.55,3 L17.998,3 L10.445,3 C9.063,3 7.808,3.816 7.247,5.08 L2.793,15.164 C2.134,16.647 1.996,18.443 1.996,19.687 L1.996,31 C1.996,32.103 2.893,33 3.996,33 L3.996,33 Z M2.996,19.688 C2.996,18.748 3.088,16.963 3.707,15.569 L8.161,5.485 C8.562,4.583 9.458,4 10.445,4 L17.998,4 L25.55,4 C26.537,4 27.434,4.583 27.834,5.484 L32.289,15.569 C32.908,16.963 33,18.748 33,19.688 L33,31 C33,31.551 32.551,32 32,32 L27.996,32 C27.445,32 26.996,31.551 26.996,31 L26.996,28.5 C26.996,28.224 26.772,28 26.496,28 L18,28 L17.998,28 L17.996,28 L9.5,28 C9.224,28 9,28.224 9,28.5 L9,31 C9,31.551 8.551,32 8,32 L3.996,32 C3.445,32 2.996,31.551 2.996,31 L2.996,19.688 L2.996,19.688 Z" id="Shape" fill="#0B1F35"></path>
                    <polygon id="Shape" fill="#0B1F35" opacity="0.3" points="25.312 7 10.688 7 6.686 16 29.314 16"></polygon>
                    <path d="M7,24 L11,24 C11.552,24 12,23.552 12,23 L12,21 C12,20.448 11.552,20 11,20 L7,20 C6.448,20 6,20.448 6,21 L6,23 C6,23.552 6.448,24 7,24 L7,24 Z" id="Shape" fill="#0B1F35" opacity="0.3"></path>
                    <path d="M25,20 C24.448,20 24,20.448 24,21 L24,23 C24,23.552 24.448,24 25,24 L29,24 C29.552,24 30,23.552 30,23 L30,21 C30,20.448 29.552,20 29,20 L25,20 L25,20 Z" id="Shape" fill="#0B1F35" opacity="0.3"></path>
                </g>
            </g>
        </g>
    </g>
</svg>