<svg width="24" height="24" viewBox="0 0 24 24" xmlns="http://www.w3.org/2000/svg"><g fill="none" fill-rule="evenodd"><path d="M0 0h24v24H0z"/><path d="M2.497 22h3c.827 0 1.5-.673 1.5-1.5V19h10.002v1.5c0 .827.673 1.5 1.5 1.5h3c.827 0 1.5-.673 1.5-1.5v-7.208c0-.846-.095-2.067-.545-3.083l-2.97-6.725A2.5 2.5 0 0 0 17.2 2H6.797c-.987 0-1.883.583-2.285 1.485l-2.969 6.723c-.451 1.016-.546 2.237-.546 3.083V20.5c0 .827.673 1.5 1.5 1.5zm-.5-8.708c0-.613.06-1.777.46-2.678l2.969-6.723A1.503 1.503 0 0 1 6.797 3H17.2c.592 0 1.13.35 1.37.89l2.97 6.724c.4.901.46 2.064.46 2.678V20.5a.5.5 0 0 1-.5.5h-3a.5.5 0 0 1-.5-.5v-2a.5.5 0 0 0-.5-.5H6.498a.5.5 0 0 0-.5.5v2a.5.5 0 0 1-.5.5h-3a.5.5 0 0 1-.5-.5v-7.208h-.001z" fill="#FFF"/><path fill="#FFF" opacity=".3" d="M16.875 5h-9.75l-2.668 6h15.086zM5 16h2a1 1 0 0 0 1-1v-1a1 1 0 0 0-1-1H5a1 1 0 0 0-1 1v1a1 1 0 0 0 1 1zM17 13a1 1 0 0 0-1 1v1a1 1 0 0 0 1 1h2a1 1 0 0 0 1-1v-1a1 1 0 0 0-1-1h-2z"/></g></svg>