<svg xmlns="http://www.w3.org/2000/svg" width="24" height="24" viewBox="0 0 24 24"><path fill="none" d="M0 0h24v24H0z"/><g fill="#fff"><path d="M21.5 22h-3a1.5 1.5 0 0 1-1.5-1.5V19h-5a.5.5 0 0 1 0-1h5.5a.5.5 0 0 1 .5.5v2a.5.5 0 0 0 .5.5h3a.5.5 0 0 0 .5-.5v-7.21a7.12 7.12 0 0 0-.46-2.68l-3-6.72A1.5 1.5 0 0 0 17.2 3H12a.5.5 0 0 1 0-1h5.2a2.5 2.5 0 0 1 2.28 1.48l3 6.72a7.94 7.94 0 0 1 .52 3.09v7.21a1.5 1.5 0 0 1-1.5 1.5z"/><path d="M5.5 22h-3A1.5 1.5 0 0 1 1 20.5v-7.21a7.93 7.93 0 0 1 .55-3.08l3-6.72A2.5 2.5 0 0 1 6.8 2H12a.5.5 0 0 1 0 1H6.8a1.5 1.5 0 0 0-1.37.89l-3 6.72A7.11 7.11 0 0 0 2 13.29v7.21a.5.5 0 0 0 .5.5h3a.5.5 0 0 0 .5-.5v-2a.5.5 0 0 1 .5-.5H12a.5.5 0 0 1 0 1H7v1.5A1.5 1.5 0 0 1 5.5 22z"/></g><path fill="#fff" d="M6.72 5.91A1.68 1.68 0 0 1 8.13 5h7.75a1.68 1.68 0 0 1 1.41.91l1.86 4.17a.6.6 0 0 1-.59.91H5.46a.6.6 0 0 1-.59-.91z" opacity=".3"/><rect width="4" height="3" x="4" y="13" fill="#fff" opacity=".3" rx="1" ry="1"/><rect width="4" height="3" x="16" y="13" fill="#fff" opacity=".3" rx="1" ry="1"/></svg>