<svg width="48" height="48" viewBox="0 0 48 48" xmlns="http://www.w3.org/2000/svg"><g fill="none" fill-rule="evenodd"><path d="M0 0h48v48H0z"/><path d="M4.497 44h5.95A2.556 2.556 0 0 0 13 41.447V38h22v3.447A2.556 2.556 0 0 0 37.553 44h5.95a2.555 2.555 0 0 0 2.552-2.553V26.651c0-1.686-.187-4.116-1.074-6.115L38.885 6.735A4.61 4.61 0 0 0 34.677 4H13.323a4.61 4.61 0 0 0-4.209 2.736L3.02 20.535c-.888 2-1.075 4.43-1.075 6.116v14.796A2.555 2.555 0 0 0 4.497 44zM2.945 26.651c0-1.301.128-3.773.989-5.711l6.095-13.799A3.606 3.606 0 0 1 13.323 5h21.354c1.423 0 2.717.84 3.294 2.14l6.096 13.801c.86 1.937.989 4.409.989 5.71v14.796c0 .856-.696 1.553-1.552 1.553h-5.95A1.555 1.555 0 0 1 36 41.447V37.5a.5.5 0 0 0-.5-.5h-23a.5.5 0 0 0-.5.5v3.947c0 .856-.697 1.553-1.553 1.553h-5.95a1.554 1.554 0 0 1-1.552-1.553V26.651z" fill="#0B1F35"/><path fill="#0B1F35" opacity=".3" d="M33.753 9h-19.5L8.917 21h30.171zM9 32h6a1 1 0 0 0 1-1v-4a1 1 0 0 0-1-1H9a1 1 0 0 0-1 1v4a1 1 0 0 0 1 1zM33 26a1 1 0 0 0-1 1v4a1 1 0 0 0 1 1h6a1 1 0 0 0 1-1v-4a1 1 0 0 0-1-1h-6z"/></g></svg>