<svg width="48" height="48" viewBox="0 0 48 48" fill="none" xmlns="http://www.w3.org/2000/svg"><path d="M3.5 6H33.5C35.433 6 37 7.567 37 9.5V13H44.5C46.433 13 48 14.567 48 16.5V38.5C48 40.433 46.433 42 44.5 42H14.5C12.567 42 11 40.433 11 38.5V35H3.5C1.567 35 0 33.433 0 31.5V9.5C0 7.567 1.567 6 3.5 6ZM3.5 7C2.11929 7 1 8.11929 1 9.5V31.5C1 32.8807 2.11929 34 3.5 34H11V16.5C11 14.567 12.567 13 14.5 13H36V9.5C36 8.11929 34.8807 7 33.5 7H3.5ZM14.5 14C13.1193 14 12 15.1193 12 16.5V38.5C12 39.8807 13.1193 41 14.5 41H44.5C45.8807 41 47 39.8807 47 38.5V16.5C47 15.1193 45.8807 14 44.5 14H14.5Z" fill="white"/><path d="M14.5 13H1V18H11V16.5C11 14.567 12.567 13 14.5 13Z" fill="white" fill-opacity="0.3"/><path fill-rule="evenodd" clip-rule="evenodd" d="M34.8532 30.1273L31.5617 20.5929C31.2715 19.6619 30.8825 18.9205 29.6286 18.9205C28.3747 18.9205 27.9916 19.6562 27.6607 20.5929L24.224 30.1273H26.4996L27.2949 28.052H31.6778L32.4325 30.1273H34.8532ZM31.0451 25.9767H27.9567L29.5183 21.4109H29.5706L31.0451 25.9767Z" fill="white" fill-opacity="0.3"/><path d="M23.8047 33.0328H35.1247V35.5232H23.8047V33.0328Z" fill="white" fill-opacity="0.3"/></svg>