<svg xmlns="http://www.w3.org/2000/svg" width="48" height="48" viewBox="0 0 48 48"><g fill="none"><rect width="48" height="48" fill="none"/><g fill="#0B1F35" fill-rule="nonzero" transform="translate(0 6)"><path d="M3.5,0 L33.5,0 C35.433,0 37,1.567 37,3.5 L37,7 L44.5,7 C46.433,7 48,8.567 48,10.5 L48,32.5 C48,34.433 46.433,36 44.5,36 L14.5,36 C12.567,36 11,34.433 11,32.5 L11,29 L3.5,29 C1.567,29 0,27.433 0,25.5 L0,3.5 C0,1.567 1.567,0 3.5,0 Z M3.5,1 C2.11929,1 1,2.11929 1,3.5 L1,25.5 C1,26.8807 2.11929,28 3.5,28 L11,28 L11,10.5 C11,8.567 12.567,7 14.5,7 L36,7 L36,3.5 C36,2.11929 34.8807,1 33.5,1 L3.5,1 Z M14.5,8 C13.1193,8 12,9.11929 12,10.5 L12,32.5 C12,33.8807 13.1193,35 14.5,35 L44.5,35 C45.8807,35 47,33.8807 47,32.5 L47,10.5 C47,9.11929 45.8807,8 44.5,8 L14.5,8 Z"/><path d="M14.5,7 L1,7 L1,12 L11,12 L11,10.5 C11,8.567 12.567,7 14.5,7 Z" opacity=".3"/><path d="M24.015 27.7144L34.9885 27.7144C35.0851498 27.7144 35.1635 27.7927502 35.1635 27.8894L35.1635 29.875C35.1635 29.9716498 35.0851498 30.05 34.9885 30.05L24.015 30.05C23.9183502 30.05 23.84 29.9716498 23.84 29.875L23.84 27.8894C23.84 27.7927502 23.9183502 27.7144 24.015 27.7144zM29.50176 12.55C30.70295 12.55 31.08031 13.402791 31.39522 14.2569 31.52942 14.61937 34.6493 23.0932 34.7423 23.3476 34.7676 23.4188 34.7516 23.5361 34.64 23.577 34.5297 23.6191 32.90866 24.2439 32.81963 24.2782 32.72928 24.3111 32.62829 24.2624 32.5964 24.174 32.56318 24.0857 31.89084 22.23912 31.8151 22.03087 31.59187 22.03087 27.41564 22.03087 27.19241 22.03087 27.11668 22.23781 26.43769 24.0897 26.4058 24.174 26.37391 24.2584 26.27691 24.3151 26.18257 24.2782 26.08823 24.2413 24.459193 23.6139 24.360866 23.577 24.269183 23.5414 24.227993 23.4372 24.259883 23.3476 24.374154 23.03 27.44753 14.69186 27.60432 14.2569 27.9086 13.417289 28.30058 12.55 29.50176 12.55zM29.49246 15.31794L27.92854 19.97336 31.08031 19.97336 29.51239 15.31794 29.49246 15.31794z" opacity=".35"/></g></g></svg>