<svg width="36" height="36" viewBox="0 0 36 36" fill="none" xmlns="http://www.w3.org/2000/svg"><path d="M2.5 4H25.5C26.8807 4 28 5.11929 28 6.5V9H33.5C34.8807 9 36 10.1193 36 11.5V28.5C36 29.8807 34.8807 31 33.5 31H10.5C9.11929 31 8 29.8807 8 28.5V26H2.5C1.11929 26 0 24.8807 0 23.5V6.5C0 5.11929 1.11929 4 2.5 4ZM2.5 5C1.67157 5 1 5.67157 1 6.5V23.5C1 24.3284 1.67157 25 2.5 25H8V11.5C8 10.1193 9.11929 9 10.5 9H27V6.5C27 5.67157 26.3284 5 25.5 5H2.5ZM10.5 10C9.67157 10 9 10.6716 9 11.5V28.5C9 29.3284 9.67157 30 10.5 30H33.5C34.3284 30 35 29.3284 35 28.5V11.5C35 10.6716 34.3284 10 33.5 10H10.5Z" fill="white"/><path d="M10.5 9H1V13H8V11.5C8 10.1193 9.11929 9 10.5 9Z" fill="white" fill-opacity="0.3"/><path fill-rule="evenodd" clip-rule="evenodd" d="M26.2217 22.2358L23.6047 14.6554C23.374 13.9152 23.0647 13.3258 22.0678 13.3258C21.0709 13.3258 20.7663 13.9106 20.5032 14.6554L17.7709 22.2358H19.5801L20.2124 20.5858H23.6971L24.2971 22.2358H26.2217ZM23.194 18.9358H20.7386L21.9801 15.3058H22.0217L23.194 18.9358Z" fill="white" fill-opacity="0.3"/><path d="M17.4375 24.5458H26.4375V26.5258H17.4375V24.5458Z" fill="white" fill-opacity="0.3"/></svg>