<svg xmlns="http://www.w3.org/2000/svg" width="36" height="36" viewBox="0 0 36 36"><g fill="none"><rect width="36" height="36" fill="none"/><g fill="#FFFFFF" transform="translate(0 4)"><path fill-rule="nonzero" d="M2.5,0 L25.5,0 C26.8807,0 28,1.11929 28,2.5 L28,5 L33.5,5 C34.8807,5 36,6.11929 36,7.5 L36,24.5 C36,25.8807 34.8807,27 33.5,27 L10.5,27 C9.11929,27 8,25.8807 8,24.5 L8,22 L2.5,22 C1.11929,22 0,20.8807 0,19.5 L0,2.5 C0,1.11929 1.11929,0 2.5,0 Z M2.5,1 C1.67157,1 1,1.67157 1,2.5 L1,19.5 C1,20.3284 1.67157,21 2.5,21 L8,21 L8,7.5 C8,6.11929 9.11929,5 10.5,5 L27,5 L27,2.5 C27,1.67157 26.3284,1 25.5,1 L2.5,1 Z M10.5,6 C9.67157,6 9,6.67157 9,7.5 L9,24.5 C9,25.3284 9.67157,26 10.5,26 L33.5,26 C34.3284,26 35,25.3284 35,24.5 L35,7.5 C35,6.67157 34.3284,6 33.5,6 L10.5,6 Z"/><path d="M10.5,5 L1,5 L1,9 L8,9 L8,7.5 C8,6.11929 9.11929,5 10.5,5 Z" opacity=".3"/><path fill-rule="nonzero" d="M17.6922914 21.1315L26.3077086 21.1315C26.3745725 21.1315 26.398819 21.1384619 26.4232634 21.151535 26.4477079 21.164608 26.466892 21.1837921 26.479965 21.2082366 26.4930381 21.232681 26.5 21.2569275 26.5 21.3237914L26.5 22.8077086C26.5 22.8745725 26.4930381 22.898819 26.479965 22.9232634 26.466892 22.9477079 26.4477079 22.966892 26.4232634 22.979965 26.398819 22.9930381 26.3745725 23 26.3077086 23L17.6922914 23C17.6254275 23 17.601181 22.9930381 17.5767366 22.979965 17.5522921 22.966892 17.533108 22.9477079 17.520035 22.9232634 17.5069619 22.898819 17.5 22.8745725 17.5 22.8077086L17.5 21.3237914C17.5 21.2569275 17.5069619 21.232681 17.520035 21.2082366 17.533108 21.1837921 17.5522921 21.164608 17.5767366 21.151535 17.601181 21.1384619 17.6254275 21.1315 17.6922914 21.1315zM22 9C22.95471 9 23.25463 9.682233 23.50493 10.36552 23.61159 10.65549 26.09129 17.43459 26.16522 17.6381 26.18529 17.69504 26.17261 17.78888 26.0839 17.82157 25.99624 17.85531 24.70781 18.35512 24.63706 18.38254 24.56524 18.4089 24.48498 18.36989 24.45963 18.29924 24.43323 18.22859 23.89885 16.7513 23.83865 16.5847 23.66123 16.5847 20.34194 16.5847 20.16452 16.5847 20.10432 16.75024 19.56466 18.23175 19.53931 18.29924 19.51396 18.36672 19.43687 18.41207 19.36189 18.38254 19.2869 18.35302 17.992138 17.8511 17.913987 17.82157 17.841117 17.7931 17.808379 17.7098 17.833725 17.6381 17.924549 17.38397 20.36728 10.71349 20.4919 10.36552 20.73375 9.693832 21.04529 9 22 9zM21.99261 11.21436L20.74959 14.93869 23.25464 14.93869 22.00845 11.21436 21.99261 11.21436z" opacity=".35"/></g></g></svg>