<svg width="24" height="24" viewBox="0 0 24 24" fill="none" xmlns="http://www.w3.org/2000/svg"><path d="M2 2H17C18.1046 2 19 2.89543 19 4V6H22C23.1046 6 24 6.89543 24 8V19C24 20.1046 23.1046 21 22 21H7C5.89543 21 5 20.1046 5 19V17H2C0.895431 17 0 16.1046 0 15V4C0 2.89543 0.895431 2 2 2ZM2 3C1.44772 3 1 3.44772 1 4V15C1 15.5523 1.44772 16 2 16H5V8C5 6.89543 5.89543 6 7 6H18V4C18 3.44772 17.5523 3 17 3H2ZM7 7C6.44772 7 6 7.44772 6 8V19C6 19.5523 6.44772 20 7 20H22C22.5523 20 23 19.5523 23 19V8C23 7.44772 22.5523 7 22 7H7Z" fill="white"/><path d="M7 6H1V9H5V8C5 6.89543 5.89543 6 7 6Z" fill="white" fill-opacity="0.3"/><path fill-rule="evenodd" clip-rule="evenodd" d="M17.1483 15.039L15.5258 10.3392C15.3828 9.88029 15.191 9.51485 14.5729 9.51485C13.9549 9.51485 13.766 9.87746 13.6029 10.3392L11.9089 15.039H13.0306L13.4226 14.016H15.5831L15.9551 15.039H17.1483ZM15.2712 12.993H13.7488L14.5186 10.7424H14.5443L15.2712 12.993Z" fill="white" fill-opacity="0.3"/><path d="M11.7021 16.4713H17.2821V17.6989H11.7021V16.4713Z" fill="white" fill-opacity="0.3"/></svg>