<svg xmlns="http://www.w3.org/2000/svg" width="24" height="24" viewBox="0 0 24 24"><g fill="none"><rect width="24" height="24" fill="none"/><g fill="#0B1F35" fill-rule="nonzero" transform="translate(0 2)"><path d="M2,0 L17,0 C18.1046,0 19,0.895431 19,2 L19,4 L22,4 C23.1046,4 24,4.89543 24,6 L24,17 C24,18.1046 23.1046,19 22,19 L7,19 C5.89543,19 5,18.1046 5,17 L5,15 L2,15 C0.895431,15 0,14.1046 0,13 L0,2 C0,0.895431 0.895431,0 2,0 Z M2,1 C1.44772,1 1,1.44772 1,2 L1,13 C1,13.5523 1.44772,14 2,14 L5,14 L5,6 C5,4.89543 5.89543,4 7,4 L18,4 L18,2 C18,1.44772 17.5523,1 17,1 L2,1 Z M7,5 C6.44772,5 6,5.44772 6,6 L6,17 C6,17.5523 6.44772,18 7,18 L22,18 C22.5523,18 23,17.5523 23,17 L23,6 C23,5.44772 22.5523,5 22,5 L7,5 Z"/><path d="M7,4 L1,4 L1,7 L5,7 L5,6 C5,4.895431 5.89543,4 7,4 Z" opacity=".3"/><path d="M11.81 14.83886L17.1942 14.83886C17.2494285 14.83886 17.2942 14.8836315 17.2942 14.93886L17.2942 15.9C17.2942 15.9552285 17.2494285 16 17.1942 16L11.81 16C11.7547715 16 11.71 15.9552285 11.71 15.9L11.71 14.93886C11.71 14.8836315 11.7547715 14.83886 11.81 14.83886zM14.5021 7.3C15.09446 7.3 15.28056 7.723959 15.43586 8.148573 15.50204 8.32877 17.04061 12.54149 17.08648 12.66796 17.09893 12.70334 17.09106 12.76166 17.03602 12.78198 16.98163 12.80294 16.18221 13.11354 16.1383 13.13058 16.09375 13.14696 16.04395 13.12272 16.02822 13.07881 16.01184 13.03491 15.68027 12.11688 15.64292 12.01335L13.36324 12.01335C13.32589 12.11622 12.99105 13.03688 12.97532 13.07881 12.9596 13.12075 12.91176 13.14893 12.86524 13.13058 12.81871 13.11223 12.015355 12.80032 11.966865 12.78198 11.921652 12.76428 11.901339 12.71252 11.917065 12.66796 11.973418 12.51004 13.48905 8.36481 13.56638 8.148573 13.71643 7.731167 13.90974 7.3 14.5021 7.3zM14.49751 8.67606L13.72626 10.99047 15.28056 10.99047 14.50734 8.67606 14.49751 8.67606z" opacity=".35"/></g></g></svg>