<svg width="24" height="24" viewBox="0 0 24 24" fill="none" xmlns="http://www.w3.org/2000/svg"><path d="M2 2H17C18.1046 2 19 2.89543 19 4V6H22C23.1046 6 24 6.89543 24 8V19C24 20.1046 23.1046 21 22 21H7C5.89543 21 5 20.1046 5 19V17H2C0.895431 17 0 16.1046 0 15V4C0 2.89543 0.895431 2 2 2ZM2 3C1.44772 3 1 3.44772 1 4V15C1 15.5523 1.44772 16 2 16H5V8C5 6.89543 5.89543 6 7 6H18V4C18 3.44772 17.5523 3 17 3H2ZM7 7C6.44772 7 6 7.44772 6 8V19C6 19.5523 6.44772 20 7 20H22C22.5523 20 23 19.5523 23 19V8C23 7.44772 22.5523 7 22 7H7Z" fill="#0B1F35"/><path d="M7 6H1V9H5V8C5 6.89543 5.89543 6 7 6Z" fill="#0B1F35" fill-opacity="0.3"/><path fill-rule="evenodd" clip-rule="evenodd" d="M17.1408 15.0316L15.5183 10.3318C15.3752 9.87285 15.1835 9.5074 14.5654 9.5074C13.9473 9.5074 13.7584 9.87001 13.5953 10.3318L11.9013 15.0316H13.023L13.415 14.0086H15.5755L15.9475 15.0316H17.1408ZM15.2636 12.9856H13.7413L14.511 10.735H14.5368L15.2636 12.9856Z" fill="#0B1F35" fill-opacity="0.3"/><path d="M11.6946 16.4638H17.2746V17.6914H11.6946V16.4638Z" fill="#0B1F35" fill-opacity="0.3"/></svg>