<svg xmlns="http://www.w3.org/2000/svg" width="36" height="36" viewBox="0 0 36 36"><g fill="none"><path d="M0 0h36v36H0z"/><g fill="#FFF"><path d="M2.5 4h23A2.5 2.5 0 0 1 28 6.5V9h5.5a2.5 2.5 0 0 1 2.5 2.5v17a2.5 2.5 0 0 1-2.5 2.5h-23A2.5 2.5 0 0 1 8 28.5V26H2.5A2.5 2.5 0 0 1 0 23.5v-17A2.5 2.5 0 0 1 2.5 4zm0 1A1.5 1.5 0 0 0 1 6.5v17A1.5 1.5 0 0 0 2.5 25H8V11.5A2.5 2.5 0 0 1 10.5 9H27V6.5A1.5 1.5 0 0 0 25.5 5h-23zm8 5A1.5 1.5 0 0 0 9 11.5v17a1.5 1.5 0 0 0 1.5 1.5h23a1.5 1.5 0 0 0 1.5-1.5v-17a1.5 1.5 0 0 0-1.5-1.5h-23z"/><path d="M10.5 9H1v4h7v-1.5A2.5 2.5 0 0 1 10.5 9z" opacity=".3"/><path d="M17.692 25.131h8.616c.067 0 .09.007.115.02a.136.136 0 0 1 .057.057c.013.025.02.049.02.116v1.484c0 .067-.007.09-.02.115a.136.136 0 0 1-.057.057c-.024.013-.048.02-.115.02h-8.616c-.067 0-.09-.007-.115-.02a.136.136 0 0 1-.057-.057c-.013-.024-.02-.048-.02-.115v-1.484c0-.067.007-.091.02-.116a.136.136 0 0 1 .057-.056c.024-.014.048-.02.115-.02zM22 13c.955 0 1.255.682 1.505 1.366l2.66 7.272c.02.057.008.15-.081.184l-1.447.56a.14.14 0 0 1-.177-.083c-.027-.07-.561-1.548-.621-1.714h-3.674c-.06.165-.6 1.647-.626 1.714-.025.068-.102.113-.177.084-.075-.03-1.37-.532-1.448-.561a.145.145 0 0 1-.08-.184c.09-.254 2.533-6.925 2.658-7.272C20.734 13.694 21.045 13 22 13zm-.007 2.214L20.75 18.94h2.505l-1.247-3.725h-.015z" opacity=".35"/></g></g></svg>