<svg width="30" height="30" viewBox="0 0 30 30" fill="none" xmlns="http://www.w3.org/2000/svg"><path fill-rule="evenodd" clip-rule="evenodd" d="M27.8 8H23V6.2C23 5 22 4 20.8 4H2.2C1 4 0 5 0 6.2V19.7C0 21 1 22 2.2 22H7V23.8C7 25 8 26 9.2 26H27.7C28.9 26 29.9 25 29.9 23.8V10.2C30 9 29 8 27.8 8ZM29 23.8C29 24.5 28.4 25 27.8 25H9.2C8.6 25 8 24.4 8 23.8V10.2C8 9.6 8.6 9 9.2 9H27.7C28.4 9 28.9 9.6 28.9 10.2V23.8H29ZM2.2 21C1.6 21 1 20.4 1 19.8V6.2C1 5.6 1.6 5 2.2 5H20.7C21.4 5 22 5.6 22 6.2V8H9.2C8 8 7 9 7 10.2V21H2.2Z" fill="white"/><path fill-rule="evenodd" clip-rule="evenodd" d="M21.7856 18.7967L19.7502 12.9008C19.5707 12.3251 19.3302 11.8667 18.5548 11.8667C17.7794 11.8667 17.5425 12.3216 17.3379 12.9008L15.2128 18.7967H16.62L17.1117 17.5133H19.822L20.2887 18.7967H21.7856ZM19.4307 16.23H17.521L18.4866 13.4067H18.5189L19.4307 16.23Z" fill="white" fill-opacity="0.3"/><path d="M14.9535 20.5933H21.9535V22.1333H14.9535V20.5933Z" fill="white" fill-opacity="0.3"/><path fill-rule="evenodd" clip-rule="evenodd" d="M7 10.2C7 9.1 7.9 8.2 9 8H1V11.5H7V10.2Z" fill="white" fill-opacity="0.3"/></svg>