<svg xmlns="http://www.w3.org/2000/svg" width="30" height="30" viewBox="0 0 30 30"><g fill="none" fill-rule="evenodd"><path d="M0 0h30v30H0z"/><path fill="#FFF" d="M27.8 8H23V6.2C23 5 22 4 20.8 4H2.2C1 4 0 5 0 6.2v13.5C0 21 1 22 2.2 22H7v1.8C7 25 8 26 9.2 26h18.5c1.2 0 2.2-1 2.2-2.2V10.2C30 9 29 8 27.8 8zM29 23.8c0 .7-.6 1.2-1.2 1.2H9.2c-.6 0-1.2-.6-1.2-1.2V10.2C8 9.6 8.6 9 9.2 9h18.5c.7 0 1.2.6 1.2 1.2v13.6h.1zM2.2 21c-.6 0-1.2-.6-1.2-1.2V6.2C1 5.6 1.6 5 2.2 5h18.5c.7 0 1.3.6 1.3 1.2V8H9.2C8 8 7 9 7 10.2V21H2.2z"/><path fill="#FFF" d="M21.9 21h-6.8-.1V22.4c0 .1 0 .1.1.1H22V21.1c0-.1 0-.1-.1-.1zm-.2-2.7l-2.1-5.7c-.2-.5-.4-1.1-1.2-1.1-.8 0-1 .5-1.2 1.1-.1.3-2 5.5-2.1 5.7v.1l.1.1 1.1.4c.1 0 .1 0 .1-.1s.4-1.2.5-1.3h2.8c0 .1.5 1.3.5 1.3s0 .1.1.1h.1l1.1-.4c.2-.1.2-.1.2-.2zm-4.2-2.1l1-2.9 1 2.9h-2z" opacity=".35"/><path fill="#FFF" d="M7 10.2c0-1.1.9-2 2-2.2H1v3.5h6v-1.3z" opacity=".3"/></g></svg>