<svg xmlns="http://www.w3.org/2000/svg" width="48" height="48" viewBox="0 0 48 48"><g fill="none"><path d="M0 0h48v48H0z"/><g fill="#0B1F35"><path d="M3.5 6h30A3.5 3.5 0 0 1 37 9.5V13h7.5a3.5 3.5 0 0 1 3.5 3.5v22a3.5 3.5 0 0 1-3.5 3.5h-30a3.5 3.5 0 0 1-3.5-3.5V35H3.5A3.5 3.5 0 0 1 0 31.5v-22A3.5 3.5 0 0 1 3.5 6zm0 1A2.5 2.5 0 0 0 1 9.5v22A2.5 2.5 0 0 0 3.5 34H11V16.5a3.5 3.5 0 0 1 3.5-3.5H36V9.5A2.5 2.5 0 0 0 33.5 7h-30zm11 7a2.5 2.5 0 0 0-2.5 2.5v22a2.5 2.5 0 0 0 2.5 2.5h30a2.5 2.5 0 0 0 2.5-2.5v-22a2.5 2.5 0 0 0-2.5-2.5h-30z"/><path d="M14.5 13H1v5h10v-1.5a3.5 3.5 0 0 1 3.5-3.5z" opacity=".3"/><path d="M24.015 33.714h10.974c.096 0 .175.079.175.175v1.986a.175.175 0 0 1-.175.175H24.015a.175.175 0 0 1-.175-.175v-1.986c0-.096.078-.175.175-.175zm5.487-15.164c1.201 0 1.578.853 1.893 1.707l3.347 9.09c.026.072.01.19-.102.23l-1.82.701a.175.175 0 0 1-.224-.104l-.78-2.143h-4.624c-.075.207-.754 2.059-.786 2.143-.032.084-.13.141-.223.104l-1.822-.701a.18.18 0 0 1-.101-.23c.114-.317 3.188-8.655 3.344-9.09.305-.84.697-1.707 1.898-1.707zm-.01 2.768l-1.563 4.655h3.151l-1.568-4.655h-.02z" opacity=".35"/></g></g></svg>