<svg xmlns="http://www.w3.org/2000/svg" width="24" height="24" viewBox="0 0 24 24"><g fill="none"><path d="M0 0h24v24H0z"/><g fill="#0B1F35"><path d="M2 2h15a2 2 0 0 1 2 2v2h3a2 2 0 0 1 2 2v11a2 2 0 0 1-2 2H7a2 2 0 0 1-2-2v-2H2a2 2 0 0 1-2-2V4a2 2 0 0 1 2-2zm0 1a1 1 0 0 0-1 1v11a1 1 0 0 0 1 1h3V8a2 2 0 0 1 2-2h11V4a1 1 0 0 0-1-1H2zm5 4a1 1 0 0 0-1 1v11a1 1 0 0 0 1 1h15a1 1 0 0 0 1-1V8a1 1 0 0 0-1-1H7z"/><path d="M7 6H1v3h4V8a2 2 0 0 1 2-2z" opacity=".3"/><path d="M11.81 16.839h5.384a.1.1 0 0 1 .1.1v.961a.1.1 0 0 1-.1.1H11.81a.1.1 0 0 1-.1-.1v-.961a.1.1 0 0 1 .1-.1zM14.502 9.3c.592 0 .779.424.934.849.066.18 1.605 4.392 1.65 4.519.013.035.005.094-.05.114l-.898.349a.086.086 0 0 1-.11-.052l-.385-1.066h-2.28l-.388 1.066c-.015.042-.063.07-.11.052-.046-.019-.85-.33-.898-.349a.09.09 0 0 1-.05-.114c.056-.158 1.572-4.303 1.65-4.52.15-.417.343-.848.935-.848zm-.004 1.376l-.772 2.314h1.555l-.774-2.314h-.01z" opacity=".35"/></g></g></svg>