<svg width="30" height="30" viewBox="0 0 30 30" fill="none" xmlns="http://www.w3.org/2000/svg"><path fill-rule="evenodd" clip-rule="evenodd" d="M27.8 8H23V6.2C23 5 22 4 20.8 4H2.2C1 4 0 5 0 6.2V19.7C0 21 1 22 2.2 22H7V23.8C7 25 8 26 9.2 26H27.7C28.9 26 29.9 25 29.9 23.8V10.2C30 9 29 8 27.8 8ZM29 23.8C29 24.5 28.4 25 27.8 25H9.2C8.6 25 8 24.4 8 23.8V10.2C8 9.6 8.6 9 9.2 9H27.7C28.4 9 28.9 9.6 28.9 10.2V23.8H29ZM2.2 21C1.6 21 1 20.4 1 19.8V6.2C1 5.6 1.6 5 2.2 5H20.7C21.4 5 22 5.6 22 6.2V8H9.2C8 8 7 9 7 10.2V21H2.2Z" fill="#0B1F35"/><path fill-rule="evenodd" clip-rule="evenodd" d="M21.7856 18.7693L19.7502 12.8735C19.5707 12.2978 19.3302 11.8393 18.5548 11.8393C17.7794 11.8393 17.5425 12.2942 17.3379 12.8735L15.2127 18.7693H16.6199L17.1117 17.486H19.822L20.2886 18.7693H21.7856ZM19.4307 16.2027H17.5209L18.4866 13.3793H18.5189L19.4307 16.2027Z" fill="#0B1F35" fill-opacity="0.3"/><path d="M14.9534 20.566H21.9534V22.106H14.9534V20.566Z" fill="#0B1F35" fill-opacity="0.3"/><path fill-rule="evenodd" clip-rule="evenodd" d="M7 10.2C7 9.1 7.9 8.2 9 8H1V11.5H7V10.2Z" fill="#0B1F35" fill-opacity="0.3"/></svg>