<svg xmlns="http://www.w3.org/2000/svg" width="24" height="24" viewBox="0 0 24 24" fill="none"><rect width="24" height="24" fill="none"/><path d="M18.9228 15.2505C18.6997 15.4741 18.339 15.4741 18.1159 15.2505L17.3091 14.4436C17.0854 14.2205 17.0854 13.8593 17.3091 13.6368L18.9229 12.0231C19.146 11.7999 19.5066 11.7999 19.7297 12.0231L20.5365 12.8299C20.7602 13.0524 20.7602 13.4136 20.5365 13.6367L18.9228 15.2505Z" fill="#B2CCDC"/><path d="M10.3637 6.69125C10.1406 6.91492 9.77994 6.91492 9.55686 6.69125L8.75003 5.88442C8.52636 5.6613 8.52636 5.30013 8.75003 5.07759L10.3638 3.46385C10.5869 3.24073 10.9475 3.24073 11.1706 3.46385L11.9774 4.27068C12.2011 4.49322 12.2011 4.85443 11.9774 5.07751L10.3637 6.69125Z" fill="#B2CCDC"/><path d="M2.94541 14.2072C4.08666 14.2072 9.22229 14.7778 9.22229 14.7778C9.22229 14.7778 9.79291 19.9134 9.79291 21.0546C9.79291 22.1959 8.65167 22.1959 8.08105 21.6252C7.51043 21.0546 5.79856 18.2015 5.79856 18.2015C5.79856 18.2015 2.94545 16.4896 2.37483 15.919C1.80421 15.3484 1.80417 14.2072 2.94541 14.2072Z" fill="#5C85AD"/><path d="M4.08645 5.09939C5.79832 5.07716 18.352 5.64778 18.352 5.64778C18.352 5.64778 18.8793 18.2015 18.901 19.9134C18.9227 21.6252 17.3249 22.197 16.6972 19.9139C16.0695 17.6309 13.7871 10.2128 13.7871 10.2128C13.7871 10.2128 5.82402 7.69285 4.0836 7.30141C1.80396 6.78899 2.37459 5.12165 4.08645 5.09939Z" fill="#5C85AD"/><path d="M17.2112 3.3651C18.3525 2.22386 21.2056 1.65324 21.7762 2.22386C22.3468 2.79448 21.7762 5.64759 20.635 6.78883C19.4937 7.93008 9.79312 17.0601 9.79312 17.0601C9.79312 17.0601 6.08408 19.6279 5.22815 18.7719C4.37221 17.916 6.94001 14.207 6.94001 14.207C6.94001 14.207 16.07 4.50634 17.2112 3.3651Z" fill="#B2CCDC"/></svg>