<svg xmlns="http://www.w3.org/2000/svg" width="48" height="48" viewBox="0 0 48 48" fill="none"><rect width="48" height="48" fill="none"/><path d="M40.6152 31.8012C40.0797 32.338 39.2143 32.338 38.6788 31.8012L36.7425 29.8648C36.2056 29.3293 36.2056 28.4625 36.7425 27.9284L40.6154 24.0554C41.1509 23.5199 42.0164 23.5199 42.5518 24.0554L44.4882 25.9918C45.025 26.5259 45.025 27.3928 44.4882 27.9282L40.6152 31.8012Z" fill="#B2CCDC"/><path d="M20.0725 11.2591C19.537 11.7959 18.6715 11.7959 18.1361 11.2591L16.1997 9.32269C15.6629 8.7872 15.6629 7.92039 16.1997 7.3863L20.0727 3.51332C20.6082 2.97782 21.4737 2.97782 22.0091 3.51332L23.9455 5.44971C24.4823 5.9838 24.4823 6.85071 23.9455 7.38611L20.0725 11.2591Z" fill="#B2CCDC"/><path d="M2.26899 29.2971C5.00798 29.2971 17.3335 30.6666 17.3335 30.6666C17.3335 30.6666 18.703 42.992 18.703 45.731C18.703 48.47 15.964 48.47 14.5945 47.1005C13.225 45.731 9.11655 38.8836 9.11655 38.8836C9.11655 38.8836 2.26909 34.7751 0.899592 33.4056C-0.469901 32.0361 -0.469995 29.2971 2.26899 29.2971Z" fill="#5C85AD"/><path d="M5.00719 7.43841C9.11567 7.38507 39.2446 8.75456 39.2446 8.75456C39.2446 8.75456 40.51 38.8835 40.5621 42.992C40.6142 47.1005 36.7796 48.4727 35.2731 42.9934C33.7666 37.514 28.2887 19.7105 28.2887 19.7105C28.2887 19.7105 9.17736 13.6627 5.00035 12.7233C-0.470778 11.4935 0.898715 7.49185 5.00719 7.43841Z" fill="#5C85AD"/><path d="M36.5066 3.27637C39.2455 0.537381 46.093 -0.832112 47.4625 0.537381C48.832 1.90687 47.4625 8.75434 44.7235 11.4933C41.9845 14.2323 18.7031 36.1443 18.7031 36.1443C18.7031 36.1443 9.80135 42.307 7.74711 40.2528C5.69287 38.1985 11.8556 29.2968 11.8556 29.2968C11.8556 29.2968 33.7675 6.01535 36.5066 3.27637Z" fill="#B2CCDC"/></svg>