<svg xmlns="http://www.w3.org/2000/svg" width="24" height="24" viewBox="0 0 24 24"><g fill="none"><path d="M0 0h24v24H0z"/><path fill="#0B1F35" d="M5 9.717V20a1 1 0 0 0 1 1h12a1 1 0 0 0 1-1V9.717l-7-5.222-7 5.222zM.201 10.802L12 2l11.799 8.802a.5.5 0 0 1-.3.901H21V20a3 3 0 0 1-3 3H6a3 3 0 0 1-3-3v-8.297H.5a.5.5 0 0 1-.299-.9z" opacity=".3"/><path fill="#0B1F35" d="M12 13.564A1.731 1.731 0 0 1 13.286 13c.946 0 1.714.833 1.714 1.667 0 .382 0 .833-.857 1.666-.313.305-1.028.86-2.143 1.667-1.115-.807-1.83-1.362-2.143-1.667C9 15.5 9 15.05 9 14.667 9 13.833 9.768 13 10.714 13c.512 0 .972.218 1.286.564z" opacity=".3"/></g></svg>