<svg width="24" height="24" viewBox="0 0 24 24" fill="none" xmlns="http://www.w3.org/2000/svg"><rect x="0" y="0" width="24" height="24" fill="none"/><path d="M2 18.987V10.9108C2 9.49757 2 8.79095 2.29473 8.17607C2.58947 7.5612 3.14032 7.11862 4.24204 6.23346L9.4951 2.01297C10.6961 1.04805 11.2966 0.565594 12.0005 0.565613C12.7045 0.565631 13.3049 1.04812 14.5059 2.0131L19.7582 6.23346C20.8598 7.11862 21.4106 7.5612 21.7053 8.17605C22 8.79089 22 9.49747 22 10.9106V18.987C22 20.4073 22 21.1175 21.5118 21.5588C21.0237 22 20.238 22 18.6667 22H16.7273C15.7845 22 15.3131 22 15.0202 21.7071C14.7273 21.4142 14.7273 20.9428 14.7273 20V16.9783C14.7273 16.4236 14.2298 15.9739 13.6162 15.9739H10.3838C9.77019 15.9739 9.27273 16.4236 9.27273 16.9783V20C9.27273 20.9428 9.27273 21.4142 8.97983 21.7071C8.68694 22 8.21554 22 7.27273 22H5.33333C3.76198 22 2.97631 22 2.48816 21.5588C2 21.1175 2 20.4073 2 18.987Z" fill="#B6BCC3"/></svg>