<svg width="24" height="24" viewBox="0 0 24 24" xmlns="http://www.w3.org/2000/svg"><g fill="none" fill-rule="evenodd"><path d="M0 0h24v24H0z"/><path d="M19 23H5c-1.1 0-2-.9-2-2V3c0-1.1.9-2 2-2h10.7L21 6.3V21c0 1.1-.9 2-2 2zM5 2c-.6 0-1 .4-1 1v18c0 .6.4 1 1 1h14c.6 0 1-.4 1-1V6.7L15.3 2H5z" fill="#0B1F35"/><path d="M8.2 11H7v1h1v1H7v1h1.2c.5 2.5 2.3 4 4.8 4 .7 0 1.4-.1 2-.4v-.9c-.6.2-1.2.3-2 .3-1.9 0-3.3-1.2-3.7-3.1H14v-1H9.1v-1H14v-1H9.3C9.8 9 11.1 7.8 13 7.8c.8 0 1.4.1 2 .3v-.7c-.6-.3-1.3-.4-2-.4-2.6 0-4.3 1.5-4.8 4z" opacity=".3" fill="#0B1F35"/></g></svg>