<svg width="48" height="48" viewBox="0 0 48 48" xmlns="http://www.w3.org/2000/svg"><g fill="none" fill-rule="evenodd"><path d="M0 0h48v48H0z"/><path d="M36.5 46h-28C6.6 46 5 44.4 5 42.5v-37C5 3.6 6.6 2 8.5 2h21.2L40 12.3v30.2c0 1.9-1.6 3.5-3.5 3.5zM8.5 3C7.1 3 6 4.1 6 5.5v37C6 43.9 7.1 45 8.5 45h28c1.4 0 2.5-1.1 2.5-2.5V12.7L29.3 3H8.5z" fill="#FFF"/><path d="M15.3 22H12v2h3v2h-3v2h3.3c1 5 4.8 8 10.2 8 1.7 0 3.2-.3 4.5-.8v-2.3c-1.2.6-2.8.6-4.7.6-3.5 0-6-2-6.9-5.4H28v-2H18v-2h10v-2h-9.6c.9-3.5 3.4-5.6 6.9-5.6 1.9 0 3.5 0 4.7.6v-2.2c-1.3-.5-2.8-.8-4.5-.8-5.4-.1-9.2 2.9-10.2 7.9z" opacity=".3" fill="#FFF"/></g></svg>