<svg width="18" height="18" viewBox="0 0 18 18" fill="none" xmlns="http://www.w3.org/2000/svg"><rect width="18" height="18" fill="none"/><path fill-rule="evenodd" clip-rule="evenodd" d="M14.25 17.25H3.75C2.925 17.25 2.25 16.575 2.25 15.75V2.25C2.25 1.425 2.925 0.75 3.75 0.75H11.775L15.75 4.725V15.75C15.75 16.575 15.075 17.25 14.25 17.25ZM3.75 1.5C3.3 1.5 3 1.8 3 2.25V15.75C3 16.2 3.3 16.5 3.75 16.5H14.25C14.7 16.5 15 16.2 15 15.75V5.025L11.475 1.5H3.75Z" fill="white"/><path opacity="0.3" fill-rule="evenodd" clip-rule="evenodd" d="M6.15 8.25H5.25V9H6V9.375V9.75H5.25V10.5H6.15C6.525 12.375 7.875 13.5 9.75 13.5C10.275 13.5 10.8 13.425 11.25 13.2V12.525C10.8 12.675 10.35 12.75 9.75 12.75C8.325 12.75 7.275 11.85 6.975 10.425H10.5V9.675H6.825V9.3V8.925H10.5V8.175H6.975C7.35 6.75 8.325 5.85 9.75 5.85C10.35 5.85 10.8 5.925 11.25 6.075V5.55C10.8 5.325 10.275 5.25 9.75 5.25C7.8 5.25 6.525 6.375 6.15 8.25Z" fill="white"/></svg>