<svg width="36" height="36" viewBox="0 0 36 36" xmlns="http://www.w3.org/2000/svg"><g fill="none" fill-rule="evenodd"><path d="M0 0h36v36H0z"/><path d="M28.2 34.1H7.8c-1.5 0-2.8-1.3-2.8-2.8V3.8C5 2.3 6.3 1 7.8 1h15.3L31 8.9v22.4c0 1.6-1.3 2.8-2.8 2.8zM7.8 2C6.8 2 6 2.8 6 3.8v27.5c0 1 .8 1.8 1.8 1.8h20.4c1 0 1.8-.8 1.8-1.8v-22L22.6 2H7.8z" fill="#FFF"/><path d="M20.5 11c1.4 0 2.5.2 3.5.6v-2c-1-.4-2.2-.6-3.5-.6-4.2 0-7.1 2.2-8.1 6H10v2h2v2h-2v2h2.4c1 3.8 3.9 6 8.1 6 1.3 0 2.5-.2 3.5-.6v-2c-1 .5-2.1.6-3.5.6-2.8 0-4.8-1.5-5.7-4H22v-2h-7.6c0-.3-.1-.7-.1-1 0-.3 0-.7.1-1H22v-2h-7.2c.9-2.5 2.9-4 5.7-4z" fill="#FFF" opacity=".3"/></g></svg>