<svg xmlns="http://www.w3.org/2000/svg" width="18" height="22" viewBox="0 0 18 22"><g fill="none" fill-rule="evenodd"><path d="M-3-1h24v24H-3z"/><path fill="#FFF" d="M16 22H2c-1.1 0-2-.9-2-2V2C0 .9.9 0 2 0h10.7L18 5.3V20c0 1.1-.9 2-2 2zM2 1c-.6 0-1 .4-1 1v18c0 .6.4 1 1 1h14c.6 0 1-.4 1-1V5.7L12.3 1H2z"/><path fill="#FFF" d="M5.2 10H4v1h1v1H4v1h1.2c.5 2.5 2.3 4 4.8 4 .7 0 1.4-.1 2-.4v-.9c-.6.2-1.2.3-2 .3-1.9 0-3.3-1.2-3.7-3.1H11v-1H6.1v-1H11v-1H6.3C6.8 8 8.1 6.8 10 6.8c.8 0 1.4.1 2 .3v-.7c-.6-.3-1.3-.4-2-.4-2.6 0-4.3 1.5-4.8 4z" opacity=".3"/></g></svg>