<svg xmlns="http://www.w3.org/2000/svg" width="26" height="34" viewBox="0 0 26 34"><g fill="none" fill-rule="evenodd"><path d="M-5-1h36v36H-5z"/><path fill="#FFF" d="M23.2 33.1H2.8c-1.5 0-2.8-1.3-2.8-2.8V2.8C0 1.3 1.3 0 2.8 0h15.3L26 7.9v22.4c0 1.6-1.3 2.8-2.8 2.8zM2.8 1C1.8 1 1 1.8 1 2.8v27.5c0 1 .8 1.8 1.8 1.8h20.4c1 0 1.8-.8 1.8-1.8v-22L17.6 1H2.8z"/><path fill="#FFF" d="M15.5 10c1.4 0 2.5.2 3.5.6v-2c-1-.4-2.2-.6-3.5-.6-4.2 0-7.1 2.2-8.1 6H5v2h2v2H5v2h2.4c1 3.8 3.9 6 8.1 6 1.3 0 2.5-.2 3.5-.6v-2c-1 .5-2.1.6-3.5.6-2.8 0-4.8-1.5-5.7-4H17v-2H9.4c0-.3-.1-.7-.1-1 0-.3 0-.7.1-1H17v-2H9.8c.9-2.5 2.9-4 5.7-4z" opacity=".3"/></g></svg>