<?xml version="1.0" encoding="UTF-8"?>
<svg width="36px" height="36px" viewBox="0 0 36 36" version="1.1" xmlns="http://www.w3.org/2000/svg" xmlns:xlink="http://www.w3.org/1999/xlink">
    <!-- Generator: Sketch 48.2 (47327) - http://www.bohemiancoding.com/sketch -->
    <title>Slice 2</title>
    <desc>Created with Sketch.</desc>
    <defs></defs>
    <g id="NFS" stroke="none" stroke-width="1" fill="none" fill-rule="evenodd">
        <g id="icon_tool_copy__xl__white">
            <rect id="ph" x="0" y="0" width="36" height="36"></rect>
            <path d="M10,13.2413026 L17.3386967,6 L29.5,6 C30.8807119,6 32,7.11928813 32,8.5 L32,31.5 C32,32.8807119 30.8807119,34 29.5,34 L12.5,34 C11.1192881,34 10,32.8807119 10,31.5 L10,13.2413026 Z M11,13.758464 L11,31.4 C11,32.2836556 11.7163444,33 12.6,33 L29.4,33 C30.2836556,33 31,32.2836556 31,31.4 L31,8.6 C31,7.7163444 30.2836556,7 29.4,7 L17.7027437,7 L11,13.758464 Z" id="Combined-Shape" fill="#FFFFFF"></path>
            <path d="M27,6 L26,6 L26,3.6 C26,2.7163444 25.2836556,2 24.4,2 L12.7027437,2 L6,8.75846396 L6,26.4 C6,27.2836556 6.7163444,28 7.6,28 L10,28 L10,29 L7.5,29 C6.11928813,29 5,27.8807119 5,26.5 L5,8.24130256 L12.3386967,1 L24.5,1 C25.8807119,1 27,2.11928813 27,3.5 L27,6 Z" id="Combined-Shape" fill="#FFFFFF" opacity="0.300000012"></path>
            <rect id="Rectangle" fill="#FFFFFF" opacity="0.300000012" x="15" y="14" width="8" height="3"></rect>
            <rect id="Rectangle-Copy" fill="#FFFFFF" opacity="0.300000012" x="15" y="19" width="12" height="3"></rect>
            <circle id="Oval" fill="#FFFFFF" opacity="0.3" cx="17" cy="26" r="2"></circle>
        </g>
    </g>
</svg>
