<svg xmlns="http://www.w3.org/2000/svg" width="30" height="30" version="1" viewBox="0 0 30 30"><path fill="#0B1F35" d="M15 23c3.96 0 5.657-3.151 5.737-6.303 0-2.182-.727-4.606-1.939-6.626C17.586 8.131 16.212 7 15 7s-2.586 1.212-3.798 3.071c-1.212 2.02-1.939 4.444-1.939 6.626C9.263 19.849 11.04 23 15 23z"/><path fill="#0B1F35" d="M1 3.887v22.227A2.89 2.89 0 0 0 3.888 29h22.225A2.89 2.89 0 0 0 29 26.113V3.887C29 2.322 27.678 1 26.112 1H3.888A2.89 2.89 0 0 0 1 3.887zm2 0C3 3.398 3.398 3 3.888 3h22.225c.455 0 .887.431.887.887v22.227a.888.888 0 0 1-.888.886H3.888A.888.888 0 0 1 3 26.113V3.887z"/></svg>