<svg xmlns="http://www.w3.org/2000/svg" width="32" height="32" viewBox="0 0 32 32"><g fill="#FFF"><path d="M16 26c4.95 0 7.071-3.939 7.172-7.879 0-2.727-.909-5.758-2.424-8.283C19.232 7.414 17.515 6 16 6c-1.515 0-3.232 1.515-4.747 3.838-1.515 2.525-2.424 5.556-2.424 8.283C8.828 22.061 11.05 26 16 26z"/><path d="M0 28.823A3.181 3.181 0 0 0 3.178 32h25.645A3.181 3.181 0 0 0 32 28.823V3.177C32 1.455 30.545 0 28.822 0H3.178A3.181 3.181 0 0 0 0 3.177v25.646zM2 3.177C2 2.528 2.528 2 3.178 2h25.645C29.428 2 30 2.572 30 3.177v25.646c0 .649-.528 1.177-1.178 1.177H3.178C2.528 30 2 29.472 2 28.823V3.177z"/></g></svg>