<svg xmlns="http://www.w3.org/2000/svg" width="20" height="20" viewBox="0 0 20 20"><g fill="#FFF"><path d="M10 16c2.97 0 4.242-2.364 4.303-4.727 0-1.636-.545-3.455-1.455-4.97C11.939 4.849 10.909 4 10 4c-.909 0-1.939.909-2.849 2.303-.909 1.515-1.455 3.333-1.455 4.97C5.697 13.636 7.03 16 10 16z"/><path d="M0 18.548C0 19.349.651 20 1.452 20h17.096c.801 0 1.452-.651 1.452-1.452V1.452C20 .678 19.321 0 18.548 0H1.452C.651 0 0 .651 0 1.452v17.096zM1 1.452C1 1.203 1.203 1 1.452 1h17.096c.224 0 .452.228.452.452v17.097a.453.453 0 0 1-.452.451H1.452A.453.453 0 0 1 1 18.548V1.452z"/></g></svg>