<svg xmlns="http://www.w3.org/2000/svg" width="46" height="40" viewBox="0 0 46 40"><g fill="none" fill-rule="evenodd"><path d="M-1-4h48v48H-1z"/><path fill="#0B1F35" d="M3.497 40h5.95A2.556 2.556 0 0 0 12 37.447V34h22v3.447A2.556 2.556 0 0 0 36.553 40h5.95a2.555 2.555 0 0 0 2.552-2.553V22.651c0-1.686-.187-4.116-1.074-6.115L37.885 2.735A4.61 4.61 0 0 0 33.677 0H12.323a4.61 4.61 0 0 0-4.209 2.736L2.02 16.535c-.888 2-1.075 4.43-1.075 6.116v14.796A2.555 2.555 0 0 0 3.497 40zM1.945 22.651c0-1.301.128-3.773.989-5.711L9.029 3.141A3.606 3.606 0 0 1 12.323 1h21.354c1.423 0 2.717.84 3.294 2.14l6.096 13.801c.86 1.937.989 4.409.989 5.71v14.796c0 .856-.696 1.553-1.552 1.553h-5.95A1.555 1.555 0 0 1 35 37.447V33.5a.5.5 0 0 0-.5-.5h-23a.5.5 0 0 0-.5.5v3.947C11 38.303 10.303 39 9.447 39h-5.95a1.554 1.554 0 0 1-1.552-1.553V22.651z"/><path fill="#0B1F35" d="M32.753 5h-19.5L7.917 17h30.171zM8 28h6a1 1 0 0 0 1-1v-4a1 1 0 0 0-1-1H8a1 1 0 0 0-1 1v4a1 1 0 0 0 1 1zm24-6a1 1 0 0 0-1 1v4a1 1 0 0 0 1 1h6a1 1 0 0 0 1-1v-4a1 1 0 0 0-1-1h-6z" opacity=".3"/></g></svg>