<svg xmlns="http://www.w3.org/2000/svg" width="33" height="30" viewBox="0 0 33 30"><g fill="none" fill-rule="evenodd"><path d="M-1-3h36v36H-1z"/><path fill="#FFF" d="M2.996 30H7c1.103 0 2-.897 2-2v-2h15.996v2c0 1.103.897 2 2 2H31c1.103 0 2-.897 2-2V16.688c0-1.245-.138-3.04-.796-4.523L27.749 2.079A3.504 3.504 0 0 0 24.55 0H9.445a3.501 3.501 0 0 0-3.198 2.08L1.793 12.164c-.659 1.483-.797 3.279-.797 4.523V28c0 1.103.897 2 2 2zm-1-13.312c0-.94.092-2.725.711-4.119L7.161 2.485A2.502 2.502 0 0 1 9.445 1H24.55c.987 0 1.884.583 2.284 1.484l4.455 10.085c.619 1.394.711 3.179.711 4.119V28c0 .551-.449 1-1 1h-4.004c-.551 0-1-.449-1-1v-2.5a.5.5 0 0 0-.5-.5H8.5a.5.5 0 0 0-.5.5V28c0 .551-.449 1-1 1H2.996c-.551 0-1-.449-1-1V16.688z"/><path fill="#FFF" d="M24.312 4H9.688l-4.002 9h22.628zM6 21h4a1 1 0 0 0 1-1v-2a1 1 0 0 0-1-1H6a1 1 0 0 0-1 1v2a1 1 0 0 0 1 1zm18-4a1 1 0 0 0-1 1v2a1 1 0 0 0 1 1h4a1 1 0 0 0 1-1v-2a1 1 0 0 0-1-1h-4z" opacity=".3"/></g></svg>