<svg xmlns="http://www.w3.org/2000/svg" width="22" height="20" viewBox="0 0 22 20"><g fill="none" fill-rule="evenodd"><path d="M-1-2h24v24H-1z"/><path fill="#0B1F35" d="M1.497 20h3c.827 0 1.5-.673 1.5-1.5V17h10.002v1.5c0 .827.673 1.5 1.5 1.5h3c.827 0 1.5-.673 1.5-1.5v-7.208c0-.846-.095-2.067-.545-3.083l-2.97-6.725A2.5 2.5 0 0 0 16.2 0H5.797C4.81 0 3.914.583 3.512 1.485L.543 8.208c-.451 1.016-.546 2.237-.546 3.083V18.5c0 .827.673 1.5 1.5 1.5zm-.5-8.708c0-.613.06-1.777.46-2.678l2.969-6.723A1.503 1.503 0 0 1 5.797 1H16.2c.592 0 1.13.35 1.37.89l2.97 6.724c.4.901.46 2.064.46 2.678V18.5a.5.5 0 0 1-.5.5h-3a.5.5 0 0 1-.5-.5v-2a.5.5 0 0 0-.5-.5H5.498a.5.5 0 0 0-.5.5v2a.5.5 0 0 1-.5.5h-3a.5.5 0 0 1-.5-.5v-7.208H.997z"/><path fill="#0B1F35" d="M15.875 3h-9.75L3.457 9h15.086zM4 14h2a1 1 0 0 0 1-1v-1a1 1 0 0 0-1-1H4a1 1 0 0 0-1 1v1a1 1 0 0 0 1 1zm12-3a1 1 0 0 0-1 1v1a1 1 0 0 0 1 1h2a1 1 0 0 0 1-1v-1a1 1 0 0 0-1-1h-2z" opacity=".3"/></g></svg>