<svg width="48" height="48" viewBox="0 0 48 48" fill="none" xmlns="http://www.w3.org/2000/svg"><rect width="48" height="48" fill="none"/><path d="M11.5595 6.37278C11.8702 5.34856 12.9457 4.77211 13.9618 5.08525L46.6381 15.1551C47.6542 15.4682 48.2261 16.5524 47.9154 17.5766L42.4405 35.6272C42.1298 36.6514 41.0543 37.2279 40.0381 36.9147L7.36192 26.8449C6.34581 26.5318 5.77392 25.4476 6.08458 24.4234L11.5595 6.37278Z" fill="#B8D1E0"/><rect y="19" width="37" height="23" rx="1.96023" fill="#5C85AD"/><path fill-rule="nonzero" clip-rule="nonzero" d="M4.06867 27.5447C4.13118 27.3854 5.63617 23.1154 5.69894 22.8923C5.8242 22.4145 6.01223 22 6.60808 22C7.20393 22 7.39196 22.4463 7.54873 22.8923C7.57193 22.963 7.79648 23.5998 8.07184 24.3806L8.07217 24.3815C8.54183 25.7133 9.1593 27.4643 9.179 27.5447C9.179 27.5767 9.179 27.6405 9.14774 27.6723C9.11652 27.6723 8.90533 27.7597 8.69392 27.8472C8.48207 27.9349 8.27001 28.0227 8.2386 28.0227C8.20709 28.0227 8.14433 28.0227 8.11308 27.9589C8.11308 27.9376 7.95713 27.4985 7.84542 27.184C7.79096 27.0306 7.74701 26.9069 7.73676 26.8756H5.4794C5.46943 26.9058 5.42811 27.0221 5.37627 27.1681C5.26424 27.4834 5.10308 27.9371 5.10308 27.9589C5.10308 27.991 5.04032 28.0227 5.00907 28.0227C4.99614 28.0227 4.84906 27.9628 4.67662 27.8924C4.43219 27.7928 4.13672 27.6723 4.09993 27.6723C4.06867 27.6723 4.03742 27.6085 4.06867 27.5447ZM7.42754 25.7998L6.60835 23.41L5.85352 25.7998H7.42754Z" fill="white"/><path d="M9.50587 31H3.70824C3.64087 31 3.60706 30.9315 3.60706 30.8972V29.8008C3.60706 29.7323 3.67443 29.6979 3.70824 29.6979H9.50587C9.57324 29.6979 9.60706 29.7664 9.60706 29.8008V30.8972C9.60706 30.9656 9.53968 31 9.50587 31Z" fill="white"/><rect x="2.60706" y="34" width="26" height="5" rx="1.46925" fill="white" fill-opacity="0.3"/><path opacity="0.8" fill-rule="evenodd" clip-rule="evenodd" d="M32.1069 39C33.4876 39 34.6069 37.8807 34.6069 36.5C34.6069 35.1193 33.4876 34 32.1069 34C30.7262 34 29.6069 35.1193 29.6069 36.5C29.6069 37.8807 30.7262 39 32.1069 39Z" fill="white"/></svg>