<svg xmlns="http://www.w3.org/2000/svg" width="48" height="48" viewBox="0 0 48 48" fill="none"><rect width="48" height="48" fill="none"/><path d="M11.5595 6.37278C11.8702 5.34856 12.9457 4.77211 13.9618 5.08525L46.6381 15.1551C47.6542 15.4682 48.2261 16.5524 47.9154 17.5766L42.4405 35.6272C42.1298 36.6514 41.0543 37.2279 40.0381 36.9147L7.36192 26.8449C6.34581 26.5318 5.77392 25.4476 6.08458 24.4234L11.5595 6.37278Z" fill="#B8D1E0"/><rect y="19" width="37" height="23" rx="1.96023" fill="#5C85AD"/><path fill-rule="evenodd" clip-rule="evenodd" d="M4.06855 27.5447C4.13106 27.3854 5.63605 23.1154 5.69881 22.8923C5.82408 22.4145 6.01211 22 6.60796 22C7.20381 22 7.39184 22.4463 7.54861 22.8923C7.57181 22.963 7.79636 23.5998 8.07172 24.3806L8.07205 24.3815C8.54171 25.7133 9.15918 27.4643 9.17887 27.5447C9.17887 27.5767 9.17887 27.6405 9.14762 27.6723C9.1164 27.6723 8.9052 27.7597 8.6938 27.8472C8.48195 27.9349 8.26989 28.0227 8.23848 28.0227C8.20697 28.0227 8.14421 28.0227 8.11295 27.9589C8.11295 27.9376 7.95701 27.4985 7.8453 27.184C7.79083 27.0306 7.74688 26.9069 7.73664 26.8756H5.47928C5.46931 26.9058 5.42798 27.0221 5.37614 27.1681C5.26411 27.4834 5.10296 27.9371 5.10296 27.9589C5.10296 27.991 5.0402 28.0227 5.00895 28.0227C4.99602 28.0227 4.84894 27.9628 4.67649 27.8924C4.43207 27.7928 4.1366 27.6723 4.0998 27.6723C4.06855 27.6723 4.0373 27.6085 4.06855 27.5447ZM7.42742 25.7998L6.60822 23.41L5.8534 25.7998H7.42742Z" fill="white"/><path d="M9.50575 31H3.70812C3.64075 31 3.60693 30.9315 3.60693 30.8972V29.8008C3.60693 29.7323 3.67431 29.6979 3.70812 29.6979H9.50575C9.57312 29.6979 9.60693 29.7664 9.60693 29.8008V30.8972C9.60693 30.9656 9.53956 31 9.50575 31Z" fill="white"/><rect x="2.60693" y="34" width="26" height="5" rx="1.46925" fill="white" fill-opacity="0.3"/><path opacity="0.8" fill-rule="evenodd" clip-rule="evenodd" d="M32.1069 39C33.4876 39 34.6069 37.8807 34.6069 36.5C34.6069 35.1193 33.4876 34 32.1069 34C30.7262 34 29.6069 35.1193 29.6069 36.5C29.6069 37.8807 30.7262 39 32.1069 39Z" fill="white"/></svg>