<svg xmlns="http://www.w3.org/2000/svg" width="24" height="24" viewBox="0 0 24 24" fill="none"><rect width="24" height="24" fill="none"/><path d="M5.35086 4.15984C5.61542 3.29449 6.5314 2.80746 7.39674 3.07203L22.84 7.7935C23.7053 8.05807 24.1924 8.97404 23.9278 9.83939L21.5135 17.7363C21.2489 18.6017 20.3329 19.0887 19.4676 18.8241L4.02435 14.1026C3.159 13.8381 2.67197 12.9221 2.93653 12.0568L5.35086 4.15984Z" fill="#B8D1E0"/><rect y="9" width="19" height="12" rx="2" fill="#5C85AD"/><path fill-rule="evenodd" clip-rule="evenodd" d="M3.45879 14.0741C3.49669 13.9858 4.4094 11.6184 4.44747 11.4947C4.52343 11.2298 4.63746 11 4.99882 11C5.36017 11 5.47421 11.2474 5.56928 11.4947C5.58335 11.5339 5.71953 11.8869 5.88652 12.3199C6.17135 13.0582 6.54602 14.0295 6.55796 14.0741C6.55796 14.0919 6.55796 14.1272 6.53901 14.1448C6.52007 14.1448 6.39199 14.1933 6.26378 14.2418C6.13531 14.2905 6.0067 14.3391 5.98765 14.3391C5.96854 14.3391 5.93048 14.3391 5.91153 14.3038C5.91153 14.2919 5.81696 14.0485 5.74921 13.8741C5.71618 13.7891 5.68952 13.7205 5.68331 13.7031H4.31433C4.30828 13.7199 4.28322 13.7844 4.25178 13.8653C4.18384 14.0401 4.08611 14.2916 4.08611 14.3038C4.08611 14.3215 4.04805 14.3391 4.0291 14.3391C4.02126 14.3391 3.93206 14.3059 3.82748 14.2669C3.67924 14.2116 3.50006 14.1448 3.47774 14.1448C3.45879 14.1448 3.43983 14.1095 3.45879 14.0741ZM5.49579 13.1067L4.99898 11.7817L4.54121 13.1067H5.49579Z" fill="white"/><path d="M6.93863 16H3.06137C3.02051 16 3 15.962 3 15.943V15.3351C3 15.2972 3.04086 15.2781 3.06137 15.2781H6.93863C6.97949 15.2781 7 15.3161 7 15.3351V15.943C7 15.9809 6.95914 16 6.93863 16Z" fill="white"/><rect x="2" y="17" width="12" height="2" rx="0.41" fill="white" fill-opacity="0.3"/><path opacity="0.8" fill-rule="evenodd" clip-rule="evenodd" d="M16 19C16.5523 19 17 18.5523 17 18C17 17.4477 16.5523 17 16 17C15.4477 17 15 17.4477 15 18C15 18.5523 15.4477 19 16 19Z" fill="white"/></svg>