<svg xmlns="http://www.w3.org/2000/svg" width="36" height="36" version="1" viewBox="0 0 36 36"><path fill="#0B1F35" d="M18 28c4.95 0 7.071-3.939 7.172-7.879 0-2.727-.909-5.758-2.424-8.283C21.232 9.414 19.515 8 18 8s-3.232 1.515-4.747 3.838c-1.515 2.525-2.424 5.556-2.424 8.283C10.828 24.061 13.05 28 18 28z"/><path fill="#0B1F35" d="M2 30.823A3.181 3.181 0 0 0 5.178 34h25.645A3.181 3.181 0 0 0 34 30.823V5.177C34 3.455 32.545 2 30.822 2H5.178A3.181 3.181 0 0 0 2 5.177v25.646zM4 5.177C4 4.528 4.528 4 5.178 4h25.645C31.428 4 32 4.572 32 5.177v25.646c0 .649-.528 1.177-1.178 1.177H5.178C4.528 32 4 31.472 4 30.823V5.177z"/></svg>