<svg xmlns="http://www.w3.org/2000/svg" width="28" height="28" viewBox="0 0 28 28"><g fill="#FFF"><path d="M14 22c3.96 0 5.657-3.151 5.737-6.303 0-2.182-.727-4.606-1.939-6.626C16.586 7.131 15.212 6 14 6c-1.212 0-2.586 1.212-3.798 3.071-1.212 2.02-1.939 4.444-1.939 6.626C8.263 18.849 10.04 22 14 22z"/><path d="M0 2.887v22.227A2.89 2.89 0 0 0 2.888 28h22.225A2.89 2.89 0 0 0 28 25.113V2.887C28 1.322 26.678 0 25.112 0H2.888A2.89 2.89 0 0 0 0 2.887zm2 0C2 2.398 2.398 2 2.888 2h22.225c.455 0 .887.431.887.887v22.227a.888.888 0 0 1-.888.886H2.888A.888.888 0 0 1 2 25.113V2.887z"/></g></svg>