<svg xmlns="http://www.w3.org/2000/svg" width="22" height="22" viewBox="0 0 22 22"><g fill="none" fill-rule="evenodd"><path d="M-1-1h24v24H-1z"/><path fill="#0B1F35" d="M19.5 20c1.379 0 2.5-1.121 2.5-2.5V5.799l-3.212-3.212-.707.707L21 6.213V17.5c0 .827-.673 1.5-1.5 1.5s-1.5-.673-1.5-1.5V8h-3V2.5C15 1.121 13.879 0 12.5 0h-9A2.502 2.502 0 0 0 1 2.5V21H0v1h16v-1h-1V9h2v8.5c0 1.379 1.121 2.5 2.5 2.5zM14 21H2V2.5C2 1.673 2.673 1 3.5 1h9c.827 0 1.5.673 1.5 1.5V21z"/><path fill="#0B1F35" d="M4 3h8v6H4z" opacity=".3"/></g></svg>