<svg xmlns="http://www.w3.org/2000/svg" width="42" height="42" viewBox="0 0 42 42"><g fill="none" fill-rule="evenodd"><path d="M-3-3h48v48H-3z"/><path fill="#0B1F35" d="M37.375 37h.155c2.59 0 4.47-1.611 4.47-3.831V11.024l-6.669-5.898-.662.748L41 11.476v21.693C41 35.114 39.201 36 37.53 36h-.155C35.695 36 34 35.125 34 33.169V16h-6V4.5C28 2.019 25.981 0 23.5 0h-16A4.505 4.505 0 0 0 3 4.5V41H0v1h31v-1h-3V17h5v16.169C33 35.425 34.799 37 37.375 37zM27 16v25H4V4.5C4 2.57 5.57 1 7.5 1h16C25.43 1 27 2.57 27 4.5V16z"/><path fill="#0B1F35" d="M7 6h17v11H7zm4 15h9v4h-9z" opacity=".3"/></g></svg>