<svg xmlns="http://www.w3.org/2000/svg" width="35" height="34" viewBox="0 0 35 34"><g fill="none" fill-rule="evenodd"><path d="M0-1h36v36H0z"/><path fill="#0B1F35" d="M26 33h-2V13h4v14.214c0 2.043 1.537 3.644 3.5 3.644s3.5-1.601 3.5-3.644V8.935l-5.159-4.801-.682.732L34 9.37v17.844c0 1.507-1.075 2.644-2.5 2.644S29 28.721 29 27.214V12h-5V3.643C24 1.634 22.326 0 20.27 0H5.73C3.674 0 2 1.634 2 3.643V33H0v1h26v-1zm-3 0H3V3.643C3 2.186 4.225 1 5.73 1h14.54C21.775 1 23 2.186 23 3.643V33z"/><path fill="#0B1F35" d="M6 5h14v9H6zm3 12h8v3H9z" opacity=".3"/></g></svg>