<svg xmlns="http://www.w3.org/2000/svg" width="34" height="34" viewBox="0 0 34 34"><g fill="none" fill-rule="evenodd"><path d="M-1-1h36v36H-1z"/><path fill="#0B1F35" d="M6 0c-.6 0-1 .4-1 1v3c0 .5.4 1 1 1 .5 0 1-.4 1-1V1c0-.6-.4-1-1-1zm11 0c-.6 0-1 .4-1 1v3c0 .5.4 1 1 1 .5 0 1-.4 1-1V1c0-.6-.4-1-1-1z" opacity=".3"/><path fill="#0B1F35" d="M10 23H2.8C1.2 23 0 21.8 0 20.2V4.8C0 3.2 1.2 2 2.8 2H5v1H2.8C1.8 3 1 3.8 1 4.8v15.5c0 1 .8 1.8 1.8 1.8H10v.9zm13-13h-1V4.8c0-1-.8-1.8-1.8-1.8H18V2h2.2C21.8 2 23 3.2 23 4.8V10zM7 2h9v1H7z"/><path fill="#0B1F35" d="M23 23l5.5-9.5c1.7 1 3.1 2.4 4 4 .9 1.6 1.5 3.6 1.5 5.5H23z" opacity=".3"/><path fill="#0B1F35" d="M23 34c-6.1 0-11-4.9-11-11s4.9-11 11-11v1c-5.5 0-10 4.5-10 10s4.5 10 10 10c4.7 0 8.8-3.4 9.8-8l1 .2C32.7 30.3 28.2 34 23 34z"/><path fill="#0B1F35" d="M26 13.5c-1-.3-2-.5-3-.5v-1c1.1 0 2.2.2 3.3.5l-.3 1z"/></g></svg>
