<svg xmlns="http://www.w3.org/2000/svg" width="21" height="23" viewBox="0 0 21 23"><g fill="none" fill-rule="evenodd"><path d="M-2 0h24v24H-2z"/><path fill="#0B1F35" d="M4 .5c-.6 0-1 .4-1 1v3c0 .6.4 1 1 1s1-.4 1-1v-3c0-.6-.4-1-1-1zm7 0c-.6 0-1 .4-1 1v3c0 .6.4 1 1 1s1-.4 1-1v-3c0-.6-.4-1-1-1z" opacity=".3"/><path fill="#0B1F35" d="M6 16H2c-1.1 0-2-.9-2-2V5c0-1.1.9-2 2-2h1v1H2c-.6 0-1 .4-1 1v9c0 .6.4 1 1 1h4v1zm9-8.2h-1V5c0-.6-.4-1-1-1h-1V3h1c1.1 0 2 .9 2 2v2.8zM5 3h5v1H5zm9 20c-3.9 0-7-3.1-7-7s3.1-7 7-7v1c-3.3 0-6 2.7-6 6s2.7 6 6 6c2.8 0 5.3-2 5.9-4.8l1 .2c-.7 3.2-3.6 5.6-6.9 5.6z"/><path fill="#0B1F35" d="M14 16l3.5-6.1c1.1.6 1.9 1.5 2.6 2.6.7 1.1.9 2.3.9 3.5h-7z" opacity=".3"/><path fill="#0B1F35" d="M15.8 10.3c-.6-.2-1.2-.3-1.8-.3V9c.7 0 1.4.1 2.1.3l-.3 1z"/></g></svg>
