<svg xmlns="http://www.w3.org/2000/svg" width="32" height="27" viewBox="0 0 32 27"><path fill="#FFF" d="M10.156 3h21.05l.811-3H9.132C4.835 3.116 1.504 8.628 0 14c1.504 5.372 4.835 9.884 9.132 13h22.777c-.509-3.199-2.45-6.365-4.648-8.999a35.977 35.977 0 0 0-2.82-3H5.653A18.732 18.732 0 0 0 7.295 18h15.916c1.733 1.771 3.408 3.872 4.514 6H10.14a21.527 21.527 0 0 1-5.2-5.999 20.642 20.642 0 0 1-1.437-3c-.129-.334-.26-.666-.371-1.006.106-.336.232-.664.351-.995h21.055a24.042 24.042 0 0 0 2.719-3H4.783c.35-.688.721-1.359 1.121-2h22.768a27.81 27.81 0 0 0 1.687-3H8.122c.65-.74 1.329-1.417 2.034-2z"/></svg>