<svg xmlns="http://www.w3.org/2000/svg" width="30" height="30" version="1" viewBox="0 0 30 30"><path fill="#0B1F35" d="M10.118 6H27.58c.227-.679.404-1.351.508-2H9.441A15.98 15.98 0 0 0 7.21 6c-.582.62-1.127 1.29-1.638 2-.46.639-.888 1.308-1.284 2a24.413 24.413 0 0 0-1.035 2c-.3.66-.565 1.328-.801 2-.164.469-.321.939-.452 1.407.057.202.132.394.195.593.216.686.469 1.353.756 2a19.843 19.843 0 0 0 6.49 7.999H28c-.459-2.883-2.344-5.732-4.362-7.999a29.933 29.933 0 0 0-1.958-2H6.438c.284.689.615 1.358.998 2h13.439c1.38 1.36 3.346 3.565 4.435 6H10.109a17.92 17.92 0 0 1-4.953-5.999 17.174 17.174 0 0 1-.855-2c-.071-.199-.151-.395-.215-.596.146-.473.31-.942.488-1.404h18.033a21.047 21.047 0 0 0 1.719-2H5.476c.35-.693.725-1.366 1.135-2h19.073c.397-.652.766-1.322 1.089-2H8.098A15.176 15.176 0 0 1 10.118 6z"/></svg>