<svg width="30px" height="30px" viewBox="0 0 30 30" version="1.1" xmlns="http://www.w3.org/2000/svg"><g transform="translate(-67.000000, -56.000000) translate(6.000000, 56.000000) translate(61.000000, 0.000000)" stroke="none" stroke-width="1" fill="none" fill-rule="evenodd"><rect x="0" y="0" width="30" height="30"/><g transform="translate(1.000000, 5.000000)" fill="#FFFFFF" fill-rule="nonzero"><polyline points="22.1378301 20.8 28 10.4024823 22.1378301 0 20 0 25.8625738 10.4024823 20 20.8 22.1378301 20.8"/><path d="M23.7511218,10.5472314 L17.8125233,0.292423529 C17.8125233,0.292423529 5.92510075,0.287121569 5.92428271,0.292423529 C10.2914165,1.16316863 13.5791398,5.0156549 13.5791398,9.62550588 C13.5791398,9.94607059 13.564415,10.2617412 13.5329203,10.5749647 C16.2680541,12.2552784 18.0873865,15.2243765 18.0873865,18.6115137 C18.0873865,19.3521569 18.0121263,20.1066667 17.8464722,20.7971451 L23.7511218,10.5472314"/><path d="M17.8464722,20.7971451 C17.063194,15.0106667 12.0804812,10.5472314 6.07234887,10.5472314 C8.33751579,10.5472314 9.79936241,8.94318431 9.8009985,6.80486275 C9.8009985,5.60254118 8.54284511,2.08938039 5.92428271,0.292423529 L0,10.5472314 L5.93778045,20.8 L17.8464722,20.7971451"/></g></g></svg>