<svg xmlns="http://www.w3.org/2000/svg" width="36" height="36" viewBox="0 0 36 36"><g fill="none" fill-rule="evenodd"><path d="M0 0h36v36H0z"/><path fill="#0B1F35" fill-rule="nonzero" d="M9 11a2 2 0 0 0-2 2v16a2 2 0 0 0 2 2h23a2 2 0 0 0 2-2V13a2 2 0 0 0-2-2H9zm0-1h23a3 3 0 0 1 3 3v16a3 3 0 0 1-3 3H9a3 3 0 0 1-3-3V13a3 3 0 0 1 3-3z"/><circle cx="12.5" cy="16.5" r="2.5" fill="#0B1F35" fill-rule="nonzero" opacity=".3"/><path fill="#0B1F35" fill-rule="nonzero" d="M15.684 28h-4.756a1 1 0 0 1-.696-1.718l3.966-3.841a1.5 1.5 0 0 1 2.087 0l2.24 2.169 4.266-5.093a1.5 1.5 0 0 1 2.3 0l5.731 6.84A1 1 0 0 1 30.056 28H15.684z" opacity=".3"/><path fill="#0B1F35" fill-rule="nonzero" d="M30 10V7a3 3 0 0 0-3-3H4a3 3 0 0 0-3 3v16a3 3 0 0 0 3 3h2v-1H4a2 2 0 0 1-2-2V7a2 2 0 0 1 2-2h23a2 2 0 0 1 2 2v3h1zm0 0V7a3 3 0 0 0-3-3H4a3 3 0 0 0-3 3v16a3 3 0 0 0 3 3h2v-1H4a2 2 0 0 1-2-2V7a2 2 0 0 1 2-2h23a2 2 0 0 1 2 2v3h1z"/></g></svg>