<svg xmlns="http://www.w3.org/2000/svg" width="48" height="48" viewBox="0 0 48 48"><g fill="none" fill-rule="evenodd"><path d="M0 0h48v48H0z"/><path fill="#FFF" fill-rule="nonzero" d="M11 14a2 2 0 0 0-2 2v23a2 2 0 0 0 2 2h32a2 2 0 0 0 2-2V16a2 2 0 0 0-2-2H11zm0-1h32a3 3 0 0 1 3 3v23a3 3 0 0 1-3 3H11a3 3 0 0 1-3-3V16a3 3 0 0 1 3-3z"/><circle cx="16" cy="21" r="3" fill="#FFF" fill-rule="nonzero" opacity=".3"/><path fill="#FFF" fill-rule="nonzero" d="M20.87 37h-6.974a1 1 0 0 1-.728-1.686L19.21 28.9a1.5 1.5 0 0 1 2.184 0l3.128 3.323 5.773-7.554a1.5 1.5 0 0 1 2.384 0l8.196 10.725A1 1 0 0 1 40.08 37H20.87z" opacity=".3"/><path fill="#FFF" fill-rule="nonzero" d="M40.667 13V9a4 4 0 0 0-4-4H6a4 4 0 0 0-4 4v21.333a4 4 0 0 0 4 4h2.667v-1H6a3 3 0 0 1-3-3V9a3 3 0 0 1 3-3h30.667a3 3 0 0 1 3 3v4h1zm0-4a4 4 0 0 0-4-4H6a4 4 0 0 0-4 4v21.333a4 4 0 0 0 4 4h2.667v-1H6a3 3 0 0 1-3-3V9a3 3 0 0 1 3-3h30.667a3 3 0 0 1 3 3v4h1V9z"/></g></svg>