<svg xmlns="http://www.w3.org/2000/svg" width="24" height="24" viewBox="0 0 24 24"><g fill="none" fill-rule="evenodd"><path d="M0 0h24v24H0z"/><path fill="#0B1F35" fill-rule="nonzero" d="M6 8a1 1 0 0 0-1 1v10a1 1 0 0 0 1 1h15a1 1 0 0 0 1-1V9a1 1 0 0 0-1-1H6zm0-1h15a2 2 0 0 1 2 2v10a2 2 0 0 1-2 2H6a2 2 0 0 1-2-2V9a2 2 0 0 1 2-2z"/><circle cx="8" cy="11" r="1" fill="#0B1F35" fill-rule="nonzero" opacity=".3"/><path fill="#0B1F35" fill-rule="nonzero" d="M10.655 18H7.487a.5.5 0 0 1-.367-.84l2.537-2.739a1 1 0 0 1 1.467 0l1.226 1.324 2.434-3.238a1 1 0 0 1 1.598 0L19.91 17.2a.5.5 0 0 1-.4.8h-8.855z" opacity=".3"/><path fill="#0B1F35" fill-rule="nonzero" d="M20 7V4.91C20 3.854 19.12 3 18.034 3H2.966C1.88 3 1 3.855 1 4.91v10.18C1 16.146 1.88 17 2.966 17h1.31v-1h-1.31c-.54 0-.966-.414-.966-.91V4.91c0-.496.426-.91.966-.91h15.068c.54 0 .966.414.966.91V7h1zm0 0V4.91C20 3.854 19.12 3 18.034 3H2.966C1.88 3 1 3.855 1 4.91v10.18C1 16.146 1.88 17 2.966 17h1.31v-1h-1.31c-.54 0-.966-.414-.966-.91V4.91c0-.496.426-.91.966-.91h15.068c.54 0 .966.414.966.91V7h1z"/></g></svg>