<svg xmlns="http://www.w3.org/2000/svg" width="18" height="24" viewBox="0 0 18 24"><g fill="none" fill-rule="evenodd"><path d="M-3 0h24v24H-3z"/><path fill="#FFF" d="M4.742 21.612l2.125 1.5 2.125-1.5 2.126 1.499 2.129-1.5 2.13 1.501L18 21.259V2.741L15.377.887l-2.13 1.501-2.129-1.5-2.126 1.499-2.125-1.5-2.125 1.5L2.62.887 0 2.741v18.518l2.62 1.854 2.122-1.501zM1 3.259l1.62-1.146 2.122 1.5 2.125-1.5 2.125 1.5 2.126-1.501 2.129 1.5 2.13-1.499L17 3.259v17.482l-1.623 1.146-2.13-1.499-2.129 1.5-2.126-1.501-2.125 1.5-2.125-1.5-2.122 1.5L1 20.741V3.259z"/><path fill="#FFF" d="M4 11h10v2H4zm7 4h3v2h-3zm-7 0h5v2H4zm0-8h6v2H4z" opacity=".3"/></g></svg>