<svg xmlns="http://www.w3.org/2000/svg" width="24" height="24" viewBox="0 0 24 24"><g fill="none" fill-rule="evenodd"><path d="M0 0h24v24H0z"/><path fill="#0B1F35" d="M7.742 21.612l2.125 1.5 2.125-1.5 2.126 1.499 2.129-1.5 2.13 1.501L21 21.259V2.741L18.377.887l-2.13 1.501-2.129-1.5-2.126 1.499-2.125-1.5-2.125 1.5L5.62.887 3 2.741v18.518l2.62 1.854 2.122-1.501zM4 3.259l1.62-1.146 2.122 1.5 2.125-1.5 2.125 1.5 2.126-1.501 2.129 1.5 2.13-1.499L20 3.259v17.482l-1.623 1.146-2.13-1.499-2.129 1.5-2.126-1.501-2.125 1.5-2.125-1.5-2.122 1.5L4 20.741V3.259z"/><path fill="#0B1F35" d="M7 11h10v2H7zm7 4h3v2h-3zm-7 0h5v2H7zm0-8h6v2H7z" opacity=".3"/></g></svg>