<svg xmlns="http://www.w3.org/2000/svg" width="28" height="34" viewBox="0 0 28 34"><g fill="none" fill-rule="evenodd"><path d="M-4-1h36v36H-4z"/><path fill="#0B1F35" d="M20.271 3.103L17.127.889l-3.138 2.213L10.851.888 7.714 3.102 4.581.888.952 3.455v27.09l3.629 2.567 3.134-2.214 3.137 2.214 3.138-2.214 3.138 2.213 3.144-2.214 3.143 2.215 3.635-2.567V3.455L23.415.888l-3.144 2.215zm5.777 26.924l-2.635 1.86-3.143-2.213-3.144 2.214-3.138-2.215-3.138 2.214-3.137-2.214-3.134 2.214-2.629-1.86V3.973l2.629-1.86 3.134 2.214 3.137-2.214 3.138 2.214 3.138-2.215 3.144 2.214 3.143-2.213 2.635 1.86v26.054z"/><path fill="#0B1F35" d="M6 15h15v3H6zm10 6h4v3h-4zM6 21h7v3H6zM6 9h9v3H6z" opacity=".3"/></g></svg>