<svg xmlns="http://www.w3.org/2000/svg" width="36" height="44" viewBox="0 0 36 44"><g fill="none" fill-rule="evenodd"><path d="M-6-2h48v48H-6z"/><path fill="#FFF" d="M26.293 3.817L22.136.888l-4.15 2.928L13.837.887 9.689 3.816 5.544.887.904 4.17v35.66l4.639 3.282 4.145-2.929 4.148 2.929 4.149-2.929 4.15 2.928 4.157-2.929 4.157 2.93 4.646-3.282V4.17L30.45.888l-4.157 2.929zm7.803 35.495l-3.646 2.575-4.157-2.928-4.157 2.929-4.15-2.93-4.149 2.929-4.148-2.929-4.145 2.929-3.639-2.575V4.688l3.639-2.575 4.145 2.929 4.148-2.929 4.149 2.929 4.15-2.93 4.157 2.929 4.157-2.928 3.646 2.575v34.624z"/><path fill="#FFF" d="M8 20.048h20v3.905H8zM21 28h5v4h-5zM8 28h9v4H8zm0-16h12v4H8z" opacity=".3"/></g></svg>