<?xml version="1.0" encoding="UTF-8"?>
<svg width="12px" height="12px" viewBox="0 0 12 12" version="1.1" xmlns="http://www.w3.org/2000/svg" xmlns:xlink="http://www.w3.org/1999/xlink">
    <!-- Generator: Sketch 48.2 (47327) - http://www.bohemiancoding.com/sketch -->
    <title>icon_account-shared_xs_white</title>
    <desc>Created with Sketch.</desc>
    <defs></defs>
    <g id="icon" stroke="none" stroke-width="1" fill="none" fill-rule="evenodd">
        <g id="icon_account-shared_xs_white">
            <g>
                <rect id="_ph_" x="0" y="0" width="12" height="12"></rect>
                <g id="Group" transform="translate(0.000000, 1.000000)" fill="#FFF">
                    <path d="M8.8163,5 L7.7223,5 C7.3753,5.595 6.7373,6 6.0003,6 L3.0003,6 C1.8973,6 1.0003,5.103 1.0003,4 L1.0003,3 C1.0003,1.897 1.8973,1 3.0003,1 L6.0003,1 C6.7373,1 7.3753,1.405 7.7223,2 L8.8163,2 C8.4033,0.837 7.3043,0 6.0003,0 L3.0003,0 C1.3433,0 0.0003,1.343 0.0003,3 L0.0003,4 C0.0003,5.657 1.3433,7 3.0003,7 L6.0003,7 C7.3043,7 8.4033,6.163 8.8163,5" id="Fill-1"></path>
                    <path d="M9,3 L6,3 C4.696,3 3.597,3.837 3.184,5 L4.278,5 C4.625,4.405 5.263,4 6,4 L9,4 C10.103,4 11,4.897 11,6 L11,7 C11,8.103 10.103,9 9,9 L6,9 C5.263,9 4.625,8.595 4.278,8 L3.184,8 C3.597,9.163 4.696,10 6,10 L9,10 C10.657,10 12,8.657 12,7 L12,6 C12,4.343 10.657,3 9,3" id="Fill-3"></path>
                </g>
            </g>
        </g>
    </g>
</svg>