<svg width="24" height="24" viewBox="0 0 24 24" xmlns="http://www.w3.org/2000/svg">
  <g fill="none" fill-rule="evenodd">
    <path d="M0 0h24v24H0z"/>
    <path d="M15 11h1c-.002 2.21-1.793 4-4.003 4H5.004C2.794 15 1 13.208 1 10.997V8.003C1 5.793 2.793 4 5.004 4h6.993c2.21 0 4 1.79 4.003 4h-1c-.002-1.655-1.348-3-3.003-3H5.004C3.348 5 2 6.347 2 8.003v2.994C2 12.653 3.348 14 5.004 14h6.993c1.655 0 3-1.345 3.003-3zm3.997-2C21.207 9 23 10.792 23 13.003v2.994C23 18.207 21.208 20 18.997 20h-6.993C9.794 20 8.002 18.21 8 16h1c.002 1.655 1.35 3 3.004 3h6.993C20.653 19 22 17.653 22 15.997v-2.994C22 11.347 20.653 10 18.997 10h-6.993C10.35 10 9.002 11.345 9 13H8c.002-2.21 1.794-4 4.004-4h6.993z" fill="#FFF"/>
  </g>
</svg>
