<svg width="12" height="12" viewBox="0 0 12 12" xmlns="http://www.w3.org/2000/svg"><g fill="none" fill-rule="evenodd"><path d="M0 0h12v12H0z"/><g fill="#FFF"><path d="M8.816 6H7.722C7.375 6.595 6.737 7 6 7H3c-1.103 0-2-.897-2-2V4c0-1.103.897-2 2-2h3c.737 0 1.375.405 1.722 1h1.094A2.99 2.99 0 0 0 6 1H3a3 3 0 0 0-3 3v1a3 3 0 0 0 3 3h3a2.99 2.99 0 0 0 2.816-2"/><path d="M9 4H6a2.99 2.99 0 0 0-2.816 2h1.094c.347-.595.985-1 1.722-1h3c1.103 0 2 .897 2 2v1c0 1.103-.897 2-2 2H6a1.993 1.993 0 0 1-1.722-1H3.184A2.99 2.99 0 0 0 6 11h3a3 3 0 0 0 3-3V7a3 3 0 0 0-3-3"/></g></g></svg>