<svg width="24" height="24" viewBox="0 0 24 24" xmlns="http://www.w3.org/2000/svg">
  <g fill="none" fill-rule="evenodd">
    <path d="M0 0h24v24H0"/>
    <g fill-rule="nonzero" fill="#0B1F35">
      <path d="M20 23H4c-1.4 0-2.5-1.1-2.5-2.5v-12C1.5 7.7 2.2 7 3 7h2.5v1H3c-.3 0-.5.2-.5.5v12c0 .8.7 1.5 1.5 1.5h16c.8 0 1.5-.7 1.5-1.5v-12c0-.3-.2-.5-.5-.5h-2.5V7H21c.8 0 1.5.7 1.5 1.5v12c0 1.4-1.1 2.5-2.5 2.5z"/>
      <path d="M2 22v-6h7.5v.5c0 1.4 1.1 2.5 2.5 2.5s2.5-1.1 2.5-2.5V16H22v6H2z" opacity=".2"/>
      <path d="M12.5 10.8V0h-1v10.8L8.4 7.6l-.8.8 4.4 4.3 4.4-4.3-.8-.8"/>
    </g>
  </g>
</svg>
