<svg xmlns="http://www.w3.org/2000/svg" width="24" height="24" viewBox="0 0 24 24"><rect width="24" height="24" fill="none"/><path d="M2.5,22V16H10v.5a2.5,2.5,0,0,0,5,0V16h7.5v6Z" fill="#0b1f35" opacity="0.2"/><polygon points="13 10.8 13 0 12 0 12 10.8 8.9 7.6 8.1 8.4 12.5 12.7 16.9 8.4 16.1 7.6 13 10.8" fill="#0b1f35"/><path d="M21.5,7H19V8h2.5a.51.51,0,0,1,.5.5v12A1.5,1.5,0,0,1,20.5,22H4.5A1.5,1.5,0,0,1,3,20.5V8.5A.51.51,0,0,1,3.5,8H6V7H3.5A1.5,1.5,0,0,0,2,8.5v12A2.5,2.5,0,0,0,4.5,23h16A2.5,2.5,0,0,0,23,20.5V8.5A1.5,1.5,0,0,0,21.5,7Z" fill="#0b1f35"/></svg>