<svg width="24px" height="24px" viewBox="0 0 24 24" version="1.1" xmlns="http://www.w3.org/2000/svg" xmlns:xlink="http://www.w3.org/1999/xlink"><defs><polygon id="a" points="0.00452830189 0.0694695341 15.9638491 0.0694695341 15.9638491 22 0.00452830189 22"/></defs><g stroke="none" stroke-width="1" fill="none" fill-rule="evenodd"><g transform="translate(-11.000000, -112.000000) translate(11.000000, 112.000000)"><rect x="0" y="0" width="24" height="24"/><g transform="translate(4.000000, 1.000000)"><mask id="b" fill="white"><use xlink:href="#a"/></mask><path d="M0.000226415094,10.947957 C0.000226415094,9.71650896 0.0990188679,8.93507527 2.53992453,7.03132616 C4.56075472,5.45529032 11.0380377,0.0694695341 11.0380377,0.0694695341 L11.0380377,9.0601362 L15.9638491,9.0601362 L15.9638491,22 L1.53879245,22 C0.692603774,22 0,21.2763656 0,20.3921864 L0.000226415094,10.947957" fill="#FFFFFF" mask="url(#b)"/><polyline fill-opacity="0.3" fill="#0B1F35" mask="url(#b)" points="11.0380377 9.0601362 11.0380377 14.2695627 1.98649057 20.7122509 13.430566 16.8218781 13.430566 9.0601362 11.0380377 9.0601362"/><path d="M6.90173585,8.79069534 C7.43101887,8.13172043 8.20407547,7.89902509 8.6285283,8.27121147 C9.05298113,8.64339785 8.96815094,9.47939785 8.43879245,10.1383728 C7.90981132,10.7972688 7.1365283,11.0296487 6.71207547,10.6574624 C6.28754717,10.2853548 6.37260377,9.4495914 6.90173585,8.79069534" fill-opacity="0.5" fill="#0B1F35" mask="url(#b)"/></g></g></g></svg>