<svg width="30px" height="30px" viewBox="0 0 30 30" version="1.1" xmlns="http://www.w3.org/2000/svg" xmlns:xlink="http://www.w3.org/1999/xlink"><defs><polygon id="a" points="0.00566037736 0.0868369176 19.9548113 0.0868369176 19.9548113 27.5 0.00566037736 27.5"/></defs><g stroke="none" stroke-width="1" fill="none" fill-rule="evenodd"><g transform="translate(-7.000000, -82.000000) translate(7.000000, 82.000000)"><rect x="0" y="0" width="30" height="30"/><g transform="translate(5.000000, 1.250000)"><mask id="b" fill="white"><use xlink:href="#a"/></mask><path d="M0.000283018868,13.6849462 C0.000283018868,12.1456362 0.123773585,11.1688441 3.17490566,8.78915771 C5.7009434,6.8191129 13.7975472,0.0868369176 13.7975472,0.0868369176 L13.7975472,11.3251703 L19.9548113,11.3251703 L19.9548113,27.5 L1.92349057,27.5 C0.865754717,27.5 0,26.595457 0,25.490233 L0.000283018868,13.6849462" fill-opacity="0.5" fill="#0B1F35" mask="url(#b)"/><polyline fill="#0B1F35" mask="url(#b)" points="13.7975472 11.3251703 13.7975472 17.8369534 2.48311321 25.8903136 16.7882075 21.0273477 16.7882075 11.3251703 13.7975472 11.3251703"/><path d="M8.62716981,10.9883692 C9.28877358,10.1646505 10.2550943,9.87378136 10.7856604,10.3390143 C11.3162264,10.8042473 11.2101887,11.8492473 10.5484906,12.6729659 C9.88726415,13.496586 8.92066038,13.7870609 8.39009434,13.321828 C7.85943396,12.8566935 7.96575472,11.8119892 8.62716981,10.9883692" fill="#0B1F35" mask="url(#b)"/></g></g></g></svg>