<?xml version="1.0" encoding="UTF-8"?>
<svg width="18px" height="18px" viewBox="0 0 18 18" version="1.1" xmlns="http://www.w3.org/2000/svg" xmlns:xlink="http://www.w3.org/1999/xlink">
    <!-- Generator: Sketch 49.3 (51167) - http://www.bohemiancoding.com/sketch -->
    <title>icon_bank-yandexmoney_s_color</title>
    <desc>Created with Sketch.</desc>
    <defs>
        <polygon id="path-1" points="0.00339622642 0.0521021505 11.9728868 0.0521021505 11.9728868 16.5 0.00339622642 16.5"></polygon>
    </defs>
    <g id="Page-1" stroke="none" stroke-width="1" fill="none" fill-rule="evenodd">
        <g id="Artboard" transform="translate(-31.000000, -56.000000)">
            <g id="icon_bank-yandexmoney_s_color" transform="translate(31.000000, 56.000000)">
                <rect id="Rectangle" x="0" y="0" width="18" height="18"></rect>
                <g id="art" transform="translate(3.000000, 0.750000)">
                    <g id="Group">
                        <mask id="mask-2" fill="white">
                            <use xlink:href="#path-1"></use>
                        </mask>
                        <g id="Clip-2"></g>
                        <path d="M0.000169811321,8.21096774 C0.000169811321,7.28738172 0.0742641509,6.70130645 1.9049434,5.27349462 C3.42056604,4.09146774 8.2785283,0.0521021505 8.2785283,0.0521021505 L8.2785283,6.79510215 L11.9728868,6.79510215 L11.9728868,16.5 L1.15409434,16.5 C0.51945283,16.5 0,15.9572742 0,15.2941398 L0.000169811321,8.21096774" id="Fill-1" fill="#FACA22" mask="url(#mask-2)"></path>
                        <polyline id="Fill-4" fill="#C9A521" mask="url(#mask-2)" points="8.2785283 6.79510215 8.2785283 10.702172 1.48986792 15.5341882 10.0729245 12.6164086 10.0729245 6.79510215 8.2785283 6.79510215"></polyline>
                        <path d="M5.17630189,6.59302151 C5.57326415,6.09879032 6.1530566,5.92426882 6.47139623,6.2034086 C6.78973585,6.48254839 6.72611321,7.10954839 6.32909434,7.60377957 C5.93235849,8.09795161 5.35239623,8.27223656 5.0340566,7.99309677 C4.71566038,7.71401613 4.77945283,7.08719355 5.17630189,6.59302151" id="Fill-5" fill="#6F8F9D" mask="url(#mask-2)"></path>
                    </g>
                </g>
            </g>
        </g>
        <g id="s"></g>
    </g>
</svg>