<?xml version="1.0" encoding="UTF-8"?>
<svg width="36px" height="36px" viewBox="0 0 36 36" version="1.1" xmlns="http://www.w3.org/2000/svg" xmlns:xlink="http://www.w3.org/1999/xlink">
    <!-- Generator: Sketch 49.3 (51167) - http://www.bohemiancoding.com/sketch -->
    <title>icon_bank-yandexmoney_xl_color</title>
    <desc>Created with Sketch.</desc>
    <defs>
        <polygon id="path-1" points="0.00679245283 0.104204301 23.9457736 0.104204301 23.9457736 33 0.00679245283 33"></polygon>
    </defs>
    <g id="Page-1" stroke="none" stroke-width="1" fill="none" fill-rule="evenodd">
        <g id="Artboard-4" transform="translate(-9.000000, -35.000000)">
            <g id="icon_bank-yandexmoney_xl_color" transform="translate(9.000000, 35.000000)">
                <rect id="Rectangle" x="0" y="0" width="36" height="36"></rect>
                <g id="art" transform="translate(6.000000, 1.500000)">
                    <g id="Group">
                        <mask id="mask-2" fill="white">
                            <use xlink:href="#path-1"></use>
                        </mask>
                        <g id="Clip-2"></g>
                        <path d="M0.000339622642,16.4219355 C0.000339622642,14.5747634 0.148528302,13.4026129 3.80988679,10.5469892 C6.84113208,8.18293548 16.5570566,0.104204301 16.5570566,0.104204301 L16.5570566,13.5902043 L23.9457736,13.5902043 L23.9457736,33 L2.30818868,33 C1.03890566,33 0,31.9145484 0,30.5882796 L0.000339622642,16.4219355" id="Fill-1" fill="#FACA22" mask="url(#mask-2)"></path>
                        <polyline id="Fill-4" fill="#C9A521" mask="url(#mask-2)" points="16.5570566 13.5902043 16.5570566 21.4043441 2.97973585 31.0683763 20.1458491 25.2328172 20.1458491 13.5902043 16.5570566 13.5902043"></polyline>
                        <path d="M10.3526038,13.186043 C11.1465283,12.1975806 12.3061132,11.8485376 12.9427925,12.4068172 C13.5794717,12.9650968 13.4522264,14.2190968 12.6581887,15.2075591 C11.864717,16.1959032 10.7047925,16.5444731 10.0681132,15.9861935 C9.43132075,15.4280323 9.55890566,14.1743871 10.3526038,13.186043" id="Fill-5" fill="#6F8F9D" mask="url(#mask-2)"></path>
                    </g>
                </g>
            </g>
        </g>
        <g id="XL"></g>
    </g>
</svg>