<svg width="48" height="48" viewBox="0 0 48 48" xmlns="http://www.w3.org/2000/svg"><g fill="none" fill-rule="evenodd"><path d="M0 0h48v48H0z"/><path fill="#FFF" fill-rule="nonzero" opacity=".3" d="M36 46.219l9.936-11.923.768.64L36 47.781 25.296 34.936l.768-.64z"/><path d="M19.963 20.51l.499.04-.081.998-.498-.04C10.02 20.71 5.206 24.82 5.206 34c0 9.175 4.807 13.176 14.666 12.167l.497-.05.102.994-.497.05C9.544 48.23 4.206 43.788 4.206 34c0-9.782 5.33-14.332 15.757-13.49z" fill="#FFF" fill-rule="nonzero"/><path fill="#FFF" fill-rule="nonzero" d="M.5 31.5v-1h17v1zM.5 37.5v-1h17v1zM35.5.5h1v29h-1z"/><path d="M44.022 8.553l-.997.067c-.233-3.448-2.525-5.141-7.092-5.141-4.39 0-6.41 1.666-6.41 5.107 0 2.926 1.945 4.437 6.931 6.37.238.093 1.044.403 1.129.435 4.686 1.809 6.44 3.05 6.44 5.62 0 4.87-3.267 6.852-8.757 6.563-4.653-.245-7.298-2.44-7.78-6.504l.994-.118c.42 3.555 2.648 5.403 6.839 5.624 4.988.262 7.705-1.386 7.705-5.565 0-1.96-1.518-3.034-5.801-4.687l-1.13-.435c-5.355-2.076-7.57-3.797-7.57-7.303 0-4.04 2.506-6.107 7.41-6.107 5.05 0 7.818 2.045 8.09 6.074z" fill="#FFF" fill-rule="nonzero"/><path fill="#FFF" fill-rule="nonzero" opacity=".3" d="M12 1.778L2.064 13.7l-.768-.64L12 .216 22.704 13.06l-.768.64z"/></g></svg>