<svg width="36" height="36" viewBox="0 0 36 36" xmlns="http://www.w3.org/2000/svg"><g fill="none" fill-rule="evenodd"><path d="M0 0h36v36H0z"/><path fill="#FFF" fill-rule="nonzero" opacity=".3" d="M34.436 24.796l.768.64L27 35.281l-8.204-9.845.768-.64L27 33.719z"/><path d="M14.982 15.258l.499.04-.08.997-.5-.04C7.577 15.663 4.03 18.691 4.03 25.5c0 6.805 3.539 9.75 10.861 9.001l.498-.05.101.994-.497.05C7.099 36.304 3.03 32.918 3.03 25.5c0-7.412 4.061-10.88 11.952-10.242z" fill="#FFF" fill-rule="nonzero"/><path fill="#FFF" fill-rule="nonzero" d="M.5 23.5v-1h13v1zM.5 28.5v-1h13v1zM26.5.25h1v22h-1z"/><path d="M33.142 6.406l-.998.067c-.17-2.513-1.83-3.739-5.194-3.739-3.228 0-4.683 1.2-4.683 3.706 0 2.207 1.441 3.34 5.115 4.732l.931.35c3.502 1.316 4.83 2.25 4.83 4.236 0 3.739-2.52 5.268-6.7 5.047-3.548-.186-5.584-1.875-5.952-4.988l.993-.118c.308 2.602 1.927 3.945 5.011 4.108 3.68.194 5.648-1 5.648-4.049 0-1.374-1.085-2.136-4.182-3.3-.039-.016-.73-.274-.933-.351-4.04-1.53-5.76-2.883-5.76-5.667 0-3.106 1.94-4.706 5.682-4.706 3.848 0 5.983 1.578 6.192 4.672z" fill="#FFF" fill-rule="nonzero"/><path fill="#FFF" fill-rule="nonzero" opacity=".3" d="M9 2.279l-7.436 8.923-.768-.64L9 .717l8.204 9.845-.768.64z"/></g></svg>