<svg width="24" height="24" viewBox="0 0 24 24" xmlns="http://www.w3.org/2000/svg"><g fill="none" fill-rule="evenodd"><path d="M0 0h24v24H0z"/><path fill="#FFF" fill-rule="nonzero" d="M17.5 0h1v15h-1z"/><path d="M22.26 4.26l-.997.067c-.106-1.579-1.134-2.338-3.296-2.338-2.067 0-2.956.733-2.956 2.304 0 1.348.91 2.059 3.305 2.976l.593.226c2.422.922 3.353 1.579 3.353 3.01 0 2.608-1.772 3.683-4.642 3.532-2.442-.129-3.87-1.313-4.125-3.473l.993-.117c.195 1.65 1.205 2.487 3.184 2.591 2.37.125 3.59-.616 3.59-2.533 0-.82-.69-1.307-2.709-2.075l-.595-.227c-2.762-1.058-3.947-1.984-3.947-3.91 0-2.17 1.375-3.304 3.956-3.304 2.645 0 4.148 1.11 4.294 3.27z" fill="#FFF" fill-rule="nonzero"/><path fill="#FFF" fill-rule="nonzero" opacity=".3" d="M22.936 16.296l.768.64L18 23.781l-5.704-6.845.768-.64L18 22.219z"/><path d="M10.002 10.006l.498.04-.08.997-.499-.04C5.131 10.616 2.853 12.56 2.853 17c0 4.434 2.271 6.325 7.058 5.835l.497-.051.102.995-.498.05c-5.358.549-8.159-1.783-8.159-6.829 0-5.042 2.794-7.427 8.149-6.994z" fill="#FFF" fill-rule="nonzero"/><path fill="#FFF" fill-rule="nonzero" d="M0 16v-1h9v1zM0 19v-1h9v1z"/><path fill="#FFF" fill-rule="nonzero" opacity=".33" d="M1.064 7.703l-.768-.64L6 .216l5.704 6.845-.768.64L6 1.78z"/></g></svg>