<svg xmlns="http://www.w3.org/2000/svg" width="25" height="26" viewBox="0 0 25 26"><g fill="#FFF" fill-rule="evenodd"><path d="M17 26H4a4.005 4.005 0 0 1-3.998-3.874H0V6.293L6.293 0H17c2.206 0 4 1.794 4 4v5h-1V4c0-1.654-1.346-3-3-3H6.707L1 6.707V22c0 1.654 1.346 3 3 3h13c1.654 0 3-1.346 3-3h1c0 2.206-1.794 4-4 4z"/><path d="M4.981 17v2h-.947v-7h2.678a2.45 2.45 0 0 1 1.718.688c.413.385.643 1.184.643 1.812 0 .638-.306 1.475-.72 1.854-.414.38-.894.646-1.641.646H4.981zm0-1h1.651c.452 0 .791-.141 1.014-.424.223-.283.335-.638.335-1.068 0-.43-.113-.788-.337-1.076-.226-.288-.562-.432-1.012-.432H4.981v3zm8 1v2h-.947v-7h2.678a2.45 2.45 0 0 1 1.718.688c.413.385.643 1.184.643 1.812 0 .638-.306 1.475-.72 1.854s-.894.646-1.641.646h-1.731zm0-1h1.651c.452 0 .791-.141 1.014-.424.223-.282.335-.638.335-1.068 0-.43-.113-.788-.337-1.076-.226-.288-.562-.432-1.012-.432h-1.651v3zm11.053-3h-2v6h-1v-6h-2v-1h5z"/></g></svg>