<svg xmlns="http://www.w3.org/2000/svg" width="18" height="18" version="1" viewBox="0 0 18 18"><path fill="#0B1F35" d="M14 5h-1V1.559A.56.56 0 0 0 12.441 1H5.707L2 4.707V5H1v-.707L5.293 0h7.148C13.301 0 14 .699 14 1.559V5zm-1.5 12h-10c-.827 0-1.5-.673-1.5-1.5h1a.5.5 0 0 0 .5.5h10a.5.5 0 0 0 .5-.5h1c0 .827-.673 1.5-1.5 1.5zM17 8h-2v5h-1V8h-2V7h5v1zM2 10.824V13H1V7h2.279c.689 0 1.232.176 1.628.527.395.352.593.815.593 1.389s-.198 1.036-.593 1.385c-.396.349-.939.523-1.628.523H2zM2 10h1.39c.335 0 .589-.091.762-.274.174-.183.26-.443.26-.726 0-.288-.086-.53-.258-.718S3.728 8 3.39 8H2v2zm6 .824V13H7V7h2.279c.689 0 1.232.176 1.628.527s.593.815.593 1.389-.198 1.036-.593 1.385-.939.523-1.628.523H8zM8 10h1.39c.335 0 .589-.091.762-.274s.26-.443.26-.726c0-.288-.086-.53-.258-.718S9.728 8 9.39 8H8v2z"/></svg>