<svg xmlns="http://www.w3.org/2000/svg" width="36" height="36" version="1" viewBox="0 0 36 36"><path fill="#0B1F35" d="M24.558 34h-17a4.505 4.505 0 0 1-4.5-4.5V10.294L11.292 2h13.266c2.481 0 4.5 2.019 4.5 4.5V12h-1V6.5c0-1.93-1.57-3.5-3.5-3.5h-12.85l-7.65 7.706V29.5c0 1.93 1.57 3.5 3.5 3.5h17c1.93 0 3.5-1.57 3.5-3.5V28h1v1.5c0 2.481-2.019 4.5-4.5 4.5z"/><path fill="#0B1F35" d="M9 21.989V25H8v-8.99h3.427c.956 0 1.698.247 2.228.741s.793 1.421.793 2.228c0 .819-.264 1.791-.793 2.279s-1.271.732-2.228.732H9zm0-.985h2.427c.607 0 1.061-.188 1.359-.564.3-.376.449-.85.449-1.423s-.15-1.051-.452-1.434c-.301-.383-.754-.575-1.356-.575H9v3.996zm9 .985V25h-1v-8.99h3.427c.956 0 1.698.247 2.228.741s.793 1.421.793 2.228c0 .819-.264 1.791-.793 2.279s-1.271.732-2.228.732H18zm0-.985h2.427c.607 0 1.061-.188 1.359-.564.3-.376.449-.85.449-1.423s-.15-1.051-.452-1.434c-.301-.383-.754-.575-1.356-.575H18v3.996zm14-4.038h-3v8.027h-1v-8.027h-3v-.956h7v.956z"/></svg>