<svg xmlns="http://www.w3.org/2000/svg" width="30" height="30" version="1" viewBox="0 0 30 30"><path fill="#0B1F35" d="M19 28H6a4.005 4.005 0 0 1-3.998-3.874H2V8.293L8.293 2H19c2.206 0 4 1.794 4 4v5h-1V6c0-1.654-1.346-3-3-3H8.707L3 8.707V24c0 1.654 1.346 3 3 3h13c1.654 0 3-1.346 3-3h1c0 2.206-1.794 4-4 4z"/><path fill="#0B1F35" d="M6.981 19v2h-.947v-7h2.678c.747 0 1.305.303 1.718.688s.643 1.184.643 1.812c0 .638-.306 1.475-.72 1.854-.414.38-.894.646-1.641.646H6.981zm0-1h1.651c.452 0 .791-.141 1.014-.424s.335-.638.335-1.068-.113-.788-.337-1.076C9.418 15.144 9.082 15 8.632 15H6.981v3zm8 1v2h-.947v-7h2.678c.747 0 1.305.303 1.718.688s.643 1.184.643 1.812c0 .638-.306 1.475-.72 1.854s-.894.646-1.641.646h-1.731zm0-1h1.651c.452 0 .791-.141 1.014-.424.223-.282.335-.638.335-1.068s-.113-.788-.337-1.076c-.226-.288-.562-.432-1.012-.432h-1.651v3zm11.053-3h-2v6h-1v-6h-2v-1h5v1z"/></svg>