<svg xmlns="http://www.w3.org/2000/svg" width="24" height="24" version="1" viewBox="0 0 24 24"><path fill="#0B1F35" d="M20 8h-1V4c0-1.103-.897-2-2-2H7.707L3 6.707V7H2v-.707L7.293 1H17c1.654 0 3 1.346 3 3v4zm-3 15H5c-1.654 0-3-1.346-3-3v-1h1v1c0 1.103.897 2 2 2h12c1.103 0 2-.897 2-2v-1h1v1c0 1.654-1.346 3-3 3zM2.947 15v2H2v-7h2.678a2.45 2.45 0 0 1 1.718.688c.413.385.643 1.184.643 1.812 0 .638-.306 1.475-.72 1.854S5.425 15 4.678 15H2.947zm0-1h1.651c.452 0 .791-.141 1.014-.424.223-.282.335-.638.335-1.068s-.113-.788-.337-1.076C5.385 11.144 5.048 11 4.598 11H2.947v3zm8 1v2H10v-7h2.678c.747 0 1.305.303 1.718.688s.643 1.184.643 1.812c0 .638-.306 1.475-.72 1.854-.414.38-.894.646-1.641.646h-1.731zm0-1h1.651c.452 0 .791-.141 1.014-.424.223-.282.335-.638.335-1.068s-.113-.788-.337-1.076c-.225-.288-.562-.432-1.011-.432h-1.651v3zM22 11h-2v6h-1v-6h-2v-1h5v1z"/></svg>