<svg xmlns="http://www.w3.org/2000/svg" width="16" height="16" viewBox="0 0 16 16"><path fill="#FFF" fill-rule="evenodd" d="M13 4.706h-1V1.467c0-.29-.251-.526-.559-.526H4.707L1 4.431v.275H0V4.04L4.293 0h7.148C12.301 0 13 .658 13 1.467v3.239zM11.5 16h-10C.673 16 0 15.367 0 14.588h1c0 .26.224.47.5.47h10c.275 0 .5-.21.5-.47h1c0 .779-.673 1.412-1.5 1.412zM16 7.53h-2v4.705h-1V7.53h-2v-.94h5zM1 10.187v2.048H0V6.588h2.279c.689 0 1.232.166 1.628.496.395.332.593.767.593 1.308 0 .54-.198.975-.593 1.303-.396.329-.939.492-1.628.492H1zm0-.775h1.39c.335 0 .589-.086.762-.258a.945.945 0 0 0 .26-.683.934.934 0 0 0-.258-.676c-.172-.177-.426-.266-.764-.266H1v1.883zm6 .775v2.048H6V6.588h2.279c.689 0 1.232.166 1.628.496.396.33.593.767.593 1.308 0 .54-.198.975-.593 1.303-.395.329-.939.492-1.628.492H7zm0-.775h1.39c.335 0 .589-.086.762-.258a.949.949 0 0 0 .26-.683.934.934 0 0 0-.258-.676c-.172-.177-.426-.266-.764-.266H7v1.883z"/></svg>