<svg xmlns="http://www.w3.org/2000/svg" width="28" height="20" viewBox="0 0 28 20"><path fill="#FFF" d="M11.232 6.612c-.421.842-2.316 1.685-2.527 2.808-.351 1.334-2.316 1.895-2.246 3.861a12.37 12.37 0 0 0-1.123-1.544c-.351-.07-.702-.07-.983.07l-.421.421c-.07.421-.07.702-.07 1.053h-.703c-.632 1.615-2.036 1.263-3.089 2.597-.07.141-.07.281-.07.422.14.07.351.211.491.281.562.14 1.123.14 1.685 0 .351-.07.772-.07.491-.702.211.14.562.211.842.14.702-.772.842-2.036 1.404-2.527.211.07.351.281.491.562 1.474 6.739 10.179 6.809 14.18 2.036.562-.702 2.036-.351 3.089-1.334-.421-.351-.913-.281-1.193-.632l.842-1.264.14.14c1.474 1.404 7.09 1.193 5.124-3.791-1.544-2.106-3.72-1.685-5.686-.562-.702-3.018-.842-3.65-3.58-4.352.07-.281.07-.491 0-.772-.913.211-1.825.491-2.667 1.123.632.491 1.334.913 1.966 1.404.281-.14.562-.351.702-.702 2.317.421 1.966 2.106 2.317 4.212-1.053.842-2.036 1.825-2.597 2.527-.421-.351-1.264-.562-1.264.632-1.544 1.123-2.667.702-3.51-.421.772-.281 1.193-.772 1.053-2.036.491-.562 1.123-1.053.702-1.966.562-.421.842-.983.632-2.036.281-.351.421-.772 0-1.334 0-.562-.07-1.193-.14-1.755-.281 0-.562-.14-.842-.491.14-1.193-.562-1.193-1.404-1.053-.491-.14-1.053-.351-1.544-.491-.281-.211-.491-.351-.772-.562-.14.281-.07.632.14 1.123-.211.07-.491.07-.702.07-.281.772-1.334 1.053-1.685 1.755-.211.14-.491.281-.772.281-.14 0-.281.14-.351.421 0 .211.07.562.07.772.281.211.351.211.562.491.14-.07.281-.14.491-.281-.07.211-.07.351-.07.491.07.14.281.211.562.14.07-.14.211-.281.281-.491.14-.281.913-.351 1.404-.491.281.351.842.351 1.404.281-.563.353-.774.845-1.054 1.476zm14.741 4.282c.07 1.123-1.404 1.334-2.527.702.772-.982 1.895-1.895 2.527-.702z"/></svg>