<svg xmlns="http://www.w3.org/2000/svg" width="36" height="36" version="1" viewBox="0 0 36 36"><path fill="#164A82" d="M9.381 21.75c-.08-2.246 2.166-2.888 2.567-4.412.241-1.284 2.407-2.246 2.888-3.209.321-.722.562-1.284 1.203-1.685-.642.08-1.284.08-1.605-.321-.562.16-1.444.241-1.605.562-.08.241-.241.401-.321.562-.321.08-.562 0-.642-.16 0-.16 0-.321.08-.562-.241.16-.401.241-.562.321-.241-.321-.321-.321-.642-.562 0-.241-.08-.642-.08-.882.08-.321.241-.481.401-.481.321 0 .642-.16.882-.321.401-.802 1.605-1.123 1.925-2.006.241 0 .562 0 .802-.08-.241-.562-.321-.963-.16-1.284.321.241.562.401.882.642.562.16 1.203.401 1.765.562.963-.16 1.765-.16 1.605 1.203.321.401.642.562.963.562.08.642.16 1.364.16 2.006.481.642.321 1.123 0 1.524.241 1.203-.08 1.845-.722 2.327.481 1.043-.241 1.605-.802 2.246.16 1.444-.321 2.006-1.203 2.327.963 1.284 2.246 1.765 4.011.481 0-1.364.963-1.123 1.444-.722.642-.802 1.765-1.925 2.968-2.888-.401-2.407 0-4.332-2.647-4.814-.16.401-.481.642-.802.802-.722-.562-1.524-1.043-2.246-1.605.963-.722 2.006-1.043 3.049-1.284.08.321.08.562 0 .882 3.129.802 3.289 1.524 4.091 4.974 2.246-1.284 4.733-1.765 6.498.642 2.246 5.696-4.172 5.937-5.856 4.332l-.16-.16-.963 1.444c.321.401.882.321 1.364.722-1.203 1.123-2.888.722-3.53 1.524-4.573 5.455-14.521 5.375-16.205-2.327-.16-.321-.321-.562-.562-.642-.642.562-.802 2.006-1.605 2.888-.321.08-.722 0-.963-.16.321.722-.16.722-.562.802a3.92 3.92 0 0 1-1.925 0c-.158-.08-.399-.24-.559-.32 0-.16 0-.321.08-.481 1.203-1.524 2.808-1.123 3.53-2.968h.802c0-.401 0-.722.08-1.203l.481-.481c.321-.16.722-.16 1.123-.08.482.559.884 1.121 1.285 1.763zm19.414-1.926c1.284.722 2.968.481 2.888-.802-.722-1.364-2.005-.321-2.888.802z"/></svg>