<svg xmlns="http://www.w3.org/2000/svg" width="24" height="24" version="1" viewBox="0 0 24 24"><path fill="#0B1F35" d="M9.825 9.338c-.331.662-1.82 1.324-1.986 2.206-.276 1.048-1.82 1.489-1.765 3.034a9.877 9.877 0 0 0-.882-1.213c-.276-.056-.552-.056-.772.055l-.331.331c-.055.331-.055.552-.055.827h-.552c-.496 1.269-1.6.993-2.427 2.041-.055.11-.055.22-.055.331.11.055.276.165.386.221.441.11.882.11 1.324 0 .276-.055.607-.055.386-.552.165.11.441.165.662.11.552-.607.662-1.599 1.103-1.986.165.055.276.221.386.441 1.158 5.295 7.997 5.35 11.141 1.599.441-.552 1.599-.276 2.427-1.048-.331-.276-.717-.221-.938-.496l.662-.993.11.11c1.158 1.103 5.571.938 4.026-2.978-1.213-1.655-2.923-1.324-4.468-.441-.552-2.372-.662-2.868-2.813-3.42a1.137 1.137 0 0 0 0-.607c-.717.165-1.434.386-2.096.882.496.386 1.048.717 1.544 1.103.221-.11.441-.276.552-.552 1.82.331 1.544 1.655 1.82 3.309-.827.662-1.599 1.434-2.041 1.986-.331-.276-.993-.441-.993.496-1.213.882-2.096.552-2.758-.331.607-.221.938-.607.827-1.599.386-.441.882-.827.552-1.544.441-.331.662-.772.496-1.599.221-.276.331-.607 0-1.048 0-.441-.055-.938-.11-1.379-.221 0-.441-.11-.662-.386.11-.938-.441-.938-1.103-.827-.386-.11-.827-.276-1.213-.386-.219-.164-.384-.275-.605-.44-.11.221-.055.496.11.883-.165.055-.386.055-.551.055-.221.606-1.048.827-1.324 1.378-.165.11-.386.221-.607.221-.11 0-.221.11-.276.331 0 .165.055.441.055.607.221.165.276.165.441.386.11-.055.221-.11.386-.221-.054.166-.054.276-.054.386.055.11.221.165.441.11.055-.11.165-.221.221-.386.11-.221.717-.276 1.103-.386.221.276.662.276 1.103.221-.441.276-.607.662-.827 1.158zm11.582 3.365c.055.882-1.103 1.048-1.986.552.607-.773 1.49-1.49 1.986-.552z"/></svg>