<svg xmlns="http://www.w3.org/2000/svg" width="24" height="24" viewBox="0 0 24 24" fill="none"><rect width="24" height="24" fill="none"/><path d="M22 12C22 6.477 17.523 2 12 2C6.477 2 2 6.477 2 12C2 17.523 6.477 22 12 22C17.523 22 22 17.523 22 12ZM1 12C1 5.925 5.925 1 12 1C18.075 1 23 5.925 23 12C23 18.075 18.075 23 12 23C5.925 23 1 18.075 1 12Z" fill="#0B1F35"/><path opacity="0.3" fill-rule="evenodd" clip-rule="evenodd" d="M8.25 7H10.25V17H8.25V7ZM13.75 7H15.75V17H13.75V7Z" fill="#0B1F35"/></svg>