<svg xmlns="http://www.w3.org/2000/svg" width="24" height="19" viewBox="0 0 24 19"><g fill="none" fill-rule="evenodd" transform="translate(0 -3)"><path d="M0 0h24v24H0z"/><path fill="#FFF" d="M4 22.006c1.222 0 1.704-.898 2.169-1.768.268-.498.543-1.014.978-1.447C7.87 18.068 9.912 17 12 17c2.088 0 4.13 1.068 4.853 1.791.434.434.71.949.978 1.447.465.869.947 1.768 2.169 1.768.499 0 1.021-.351 1.551-1.042 1.466-1.91 3.093-6.757 1.932-11.094-1.742-6.5-5.466-6.256-6.987-5.848-.733.197-1.284.363-1.739.5C13.638 4.86 13.175 5 12 5s-1.638-.14-2.757-.478c-.455-.137-1.006-.303-1.739-.5C5.983 3.614 2.259 3.37.517 9.87c-1.162 4.337.466 9.184 1.932 11.094.53.691 1.052 1.042 1.551 1.042zM1.483 10.129c1.078-4.021 3.126-5.849 5.763-5.14.72.192 1.262.356 1.709.491C10.102 5.826 10.678 6 12 6c1.322 0 1.898-.174 3.045-.52.447-.135.989-.299 1.709-.491 2.637-.709 4.685 1.119 5.763 5.14 1.075 4.012-.415 8.474-1.759 10.226-.41.534-.686.651-.758.651-.597 0-.839-.402-1.288-1.239-.288-.536-.613-1.145-1.152-1.683C16.694 17.219 14.397 16 12 16s-4.694 1.219-5.56 2.084c-.539.538-.864 1.146-1.152 1.683-.449.837-.691 1.239-1.288 1.239-.072 0-.348-.117-.758-.651-1.345-1.752-2.834-6.214-1.759-10.226z"/><circle cx="15" cy="11" r="1" fill="#FFF" opacity=".3"/><circle cx="17" cy="9" r="1" fill="#FFF" opacity=".3"/><circle cx="17" cy="13" r="1" fill="#FFF" opacity=".3"/><circle cx="19" cy="11" r="1" fill="#FFF" opacity=".3"/><circle cx="7" cy="11" r="2" fill="#FFF" opacity=".3"/></g></svg>