<svg xmlns="http://www.w3.org/2000/svg" width="34" height="27" viewBox="0 0 34 27"><g fill="none" fill-rule="evenodd" transform="translate(-1 -4)"><path d="M0 0h36v36H0z"/><path fill="#0B1F35" d="M34.431 12.865c-1.053-4.067-2.707-6.776-4.915-8.051-1.469-.848-3.178-1.038-4.945-.547-1.388.385-2.332.73-3.09 1.008C20.206 5.743 19.504 6 18 6c-1.504 0-2.206-.257-3.481-.725-.758-.277-1.702-.623-3.09-1.008-1.766-.49-3.475-.3-4.944.547-2.208 1.274-3.862 3.983-4.915 8.051-1.655 6.392.623 13.88 2.905 16.827C5.146 30.56 5.794 31 6.402 31c1.634 0 2.294-1.351 2.933-2.656.4-.817.813-1.663 1.477-2.35C11.755 25.017 14.754 23 18 23c3.246 0 6.245 2.017 7.188 2.994.664.687 1.077 1.532 1.477 2.35.639 1.305 1.299 2.656 2.933 2.656.608 0 1.257-.44 1.928-1.308 2.282-2.947 4.56-10.435 2.905-16.827zM30.735 29.08c-.525.679-.932.92-1.137.92-.963 0-1.38-.757-2.034-2.096-.414-.846-.883-1.805-1.656-2.605C24.675 24.023 21.438 22 18 22c-3.438 0-6.675 2.023-7.907 3.299-.773.801-1.243 1.76-1.656 2.605C7.782 29.243 7.365 30 6.402 30c-.206 0-.612-.241-1.138-.92-2.155-2.785-4.302-9.882-2.728-15.965.984-3.798 2.48-6.299 4.447-7.435 1.25-.72 2.655-.87 4.179-.45 1.349.375 2.272.713 3.013.984C15.466 6.688 16.319 7 18 7s2.534-.312 3.825-.785c.741-.271 1.664-.609 3.013-.984 1.524-.421 2.93-.271 4.178.45 1.967 1.136 3.463 3.637 4.447 7.435 1.575 6.082-.572 13.179-2.728 15.964z"/><circle cx="22.5" cy="14.5" r="1.5" fill="#0B1F35" opacity=".3"/><circle cx="25.5" cy="11.5" r="1.5" fill="#0B1F35" opacity=".3"/><circle cx="25.5" cy="17.5" r="1.5" fill="#0B1F35" opacity=".3"/><circle cx="28.5" cy="14.5" r="1.5" fill="#0B1F35" opacity=".3"/><circle cx="10.5" cy="14" r="3" fill="#0B1F35" opacity=".3"/></g></svg>