<svg xmlns="http://www.w3.org/2000/svg" width="46" height="35" viewBox="0 0 46 35"><g fill="none" fill-rule="evenodd" transform="translate(-1 -7)"><path d="M0 0h48v48H0z"/><path fill="#0B1F35" d="M46.228 19.016C43.854 10.156 39.13 7 35.5 7c-2.213 0-4.337.757-6.392 1.489-1.818.648-3.536 1.26-5.108 1.26-1.572 0-3.29-.612-5.108-1.26C16.837 7.757 14.713 7 12.5 7 8.87 7 4.146 10.156 1.772 19.015c-2.233 8.333.788 17.328 3.647 21.054C6.389 41.332 7.345 42 8.185 42c2.431 0 3.918-1.929 5.493-3.972C15.856 35.203 18.326 32 24 32c5.674 0 8.144 3.203 10.322 6.028C35.896 40.071 37.384 42 39.815 42c.84 0 1.796-.668 2.766-1.932 2.859-3.725 5.88-12.72 3.647-21.052zm-4.44 20.444c-.74.964-1.478 1.54-1.973 1.54-1.939 0-3.158-1.581-4.701-3.582C32.909 34.559 30.166 31 24 31s-8.909 3.559-11.114 6.418C11.343 39.419 10.125 41 8.185 41c-.495 0-1.233-.576-1.973-1.54-2.734-3.563-5.62-12.182-3.475-20.186C4.965 10.962 9.241 8 12.5 8c2.04 0 4.082.728 6.056 1.431 1.902.678 3.699 1.318 5.444 1.318s3.542-.641 5.444-1.318C31.418 8.728 33.46 8 35.5 8c3.259 0 7.535 2.962 9.762 11.274 2.145 8.004-.74 16.622-3.474 20.186z"/><circle cx="34" cy="16" r="2" fill="#0B1F35" opacity=".3"/><circle cx="36" cy="25" r="2" fill="#0B1F35" opacity=".3"/><circle cx="31" cy="21" r="2" fill="#0B1F35" opacity=".3"/><circle cx="39" cy="20" r="2" fill="#0B1F35" opacity=".3"/><circle cx="14" cy="21" r="5.5" fill="#0B1F35" opacity=".3"/></g></svg>