<svg width="48" height="48" viewBox="0 0 48 48" xmlns="http://www.w3.org/2000/svg"><g fill="none" fill-rule="evenodd"><path d="M0 0h48v48H0z"/><path d="M2.479 22h2.495l3.087 24H39.94l3.087-24h2.495c.842 0 1.478-.607 1.478-1.414v-5.869c0-.811-.632-1.717-1.479-1.717H33.368l5.025-5.025A3.474 3.474 0 0 0 39.418 5.5c0-.936-.364-1.814-1.025-2.475-1.322-1.322-3.627-1.321-4.949 0L23.468 13H2.479C1.632 13 1 13.906 1 14.717v5.869C1 21.393 1.636 22 2.479 22zm36.582 23H8.939L5.982 22h14.846a3.5 3.5 0 0 0 1.654.433c.572 0 1.139-.155 1.655-.433h17.881l-2.957 23zm6.46-31c.194 0 .479.378.479.717v5.869c0 .284-.248.414-.479.414H25.368l6.999-7h13.154zM34.15 3.732A2.484 2.484 0 0 1 35.918 3c.667 0 1.295.26 1.768.732.473.472.732 1.1.732 1.768 0 .668-.26 1.296-.732 1.768L24.251 20.703a2.505 2.505 0 0 1-3.536 0 2.484 2.484 0 0 1-.732-1.769c0-.667.26-1.295.732-1.768L34.15 3.732zM2 14.717c0-.339.285-.717.479-.717h19.989l-2.46 2.46a3.477 3.477 0 0 0-.337 4.54H2.479C2.248 21 2 20.87 2 20.586v-5.869z" fill="#FFF"/><path fill="#FFF" opacity=".3" d="M16 26h4v14h-4zM28 26h4v14h-4z"/></g></svg>