<?xml version="1.0" encoding="UTF-8"?>
<svg width="24px" height="24px" viewBox="0 0 24 24" version="1.1" xmlns="http://www.w3.org/2000/svg" xmlns:xlink="http://www.w3.org/1999/xlink">
    <!-- Generator: Sketch 48.2 (47327) - http://www.bohemiancoding.com/sketch -->
    <title>icon_category_grocery_m_black</title>
    <desc>Created with Sketch.</desc>
    <defs></defs>
    <g id="mobile" stroke="none" stroke-width="1" fill="none" fill-rule="evenodd" transform="translate(-1019.000000, -462.000000)">
        <g id="Headings" transform="translate(64.000000, 77.000000)">
            <g id="icon_category_grocery__m__white" transform="translate(955.000000, 385.000000)">
                <g id="ungroup">
                    <rect id="Rectangle-path" x="0" y="1" width="24" height="24"></rect>
                    <g id="a1" opacity="0.4" transform="translate(0.000000, 1.000000)"></g>
                    <path d="M23,7 L16.966,7 L19.6,4.366 C20.379,3.587 20.379,2.32 19.6,1.541 C18.821,0.762 17.553,0.762 16.774,1.541 L11.314,7 L1,7 C0.448,7 0,7.448 0,8 L0,11 C0,11.552 0.448,12 1,12 L2.04,12 L3.04,24 L20.96,24 L21.96,12 L23,12 C23.552,12 24,11.552 24,11 L24,8 C24,7.448 23.552,7 23,7 L23,7 Z M17.48,2.248 C17.674,2.054 17.93,1.956 18.186,1.956 C18.442,1.956 18.698,2.054 18.892,2.248 C19.281,2.637 19.281,3.27 18.892,3.659 L11.834,10.717 C11.653,10.9 11.415,10.989 11.175,11 L11.086,11 C10.846,10.989 10.608,10.9 10.424,10.717 C10.035,10.328 10.035,9.695 10.424,9.305 L17.48,2.248 L17.48,2.248 Z M1.957,11 L1,11 L1,8 L10.314,8 L9.717,8.598 C9.067,9.249 8.968,10.237 9.403,11 L1.957,11 L1.957,11 Z M20.04,23 L3.96,23 L3.043,12 L11.048,12 C11.075,12.001 11.103,12.008 11.13,12.008 C11.157,12.008 11.184,12.001 11.212,12 L20.957,12 L20.04,23 L20.04,23 Z M23,11 L22.043,11 L12.966,11 L15.966,8 L23,8 L23,11 L23,11 Z" id="Shape" fill="#0B1F35"></path>
                    <rect id="Rectangle-path" fill="#0B1F35" opacity="0.3" x="8" y="14" width="2" height="7"></rect>
                    <rect id="Rectangle-path" fill="#0B1F35" opacity="0.3" x="14" y="14" width="2" height="7"></rect>
                </g>
            </g>
        </g>
    </g>
</svg>