<svg xmlns="http://www.w3.org/2000/svg" width="36" height="36" viewBox="0 0 36 36"><path fill="none" d="M0 0h36v36H0z"/><path fill="#0B1F35" d="M30.94 34H5.06L2.94 16h30.12zm-25-1h24.12l1.88-16H4.06z"/><path fill="#0B1F35" d="M33.75 17H2.25A1.25 1.25 0 0 1 1 15.79V11.3A1.25 1.25 0 0 1 2.25 10h15v1h-15a.25.25 0 0 0-.25.3v4.49a.25.25 0 0 0 .25.25h31.5a.25.25 0 0 0 .25-.25V11.3a.25.25 0 0 0-.25-.3H23.42v-1h10.33A1.25 1.25 0 0 1 35 11.3v4.49A1.25 1.25 0 0 1 33.75 17z"/><path fill="#0B1F35" d="M16.7 17a2.74 2.74 0 0 1-1.94-4.68L25.32 1.8a2.81 2.81 0 0 1 3.88 0 2.74 2.74 0 0 1 0 3.88L18.64 16.25a2.72 2.72 0 0 1-1.94.75zM27.26 2a1.73 1.73 0 0 0-1.26.51L15.46 13.07a1.74 1.74 0 0 0 0 2.46 1.78 1.78 0 0 0 2.46 0L28.49 5a1.74 1.74 0 0 0-1.23-3z"/><path fill="#0B1F35" d="M12 20h3v10h-3zm9 0h3v10h-3z" opacity=".3"/></svg>