<svg width="36" height="36" viewBox="0 0 36 36" xmlns="http://www.w3.org/2000/svg"><g fill="none" fill-rule="evenodd"><path d="M0 0h36v36H0z"/><path d="M2.248 17.036h.807l2 16.964h25.889l2-16.964h.807a1.25 1.25 0 0 0 1.248-1.249v-4.49a1.25 1.25 0 0 0-1.248-1.249h-8.918L29.2 5.682a2.721 2.721 0 0 0 .804-1.939 2.72 2.72 0 0 0-.804-1.939c-1.035-1.037-2.843-1.037-3.878 0l-8.245 8.244H2.248A1.25 1.25 0 0 0 1 11.297v4.49c0 .689.56 1.249 1.248 1.249zM30.056 33H5.944L4.062 17.036h12.494c.047.002.092.014.14.014.048 0 .093-.011.14-.014h15.101L30.056 33zm3.696-21.952c.137 0 .248.111.248.249v4.49a.248.248 0 0 1-.248.249H18.846l4.988-4.988h9.918zm-7.723-8.537A1.732 1.732 0 0 1 27.261 2c.466 0 .903.182 1.232.511.329.329.511.767.511 1.231 0 .466-.182.903-.511 1.232l-5.073 5.073h-.004v.004l-5.487 5.487c-.657.658-1.805.659-2.464 0a1.744 1.744 0 0 1 0-2.465L26.029 2.511zM2 11.297c0-.138.111-.249.248-.249h13.829l-1.319 1.319a2.737 2.737 0 0 0-.171 3.669H2.248A.248.248 0 0 1 2 15.787v-4.49z" fill="#0B1F35"/><path fill="#0B1F35" opacity=".3" d="M12 20h3v10h-3zM21 20h3v10h-3z"/></g></svg>