<?xml version="1.0" encoding="UTF-8"?>
<svg width="48px" height="48px" viewBox="0 0 48 48" version="1.1" xmlns="http://www.w3.org/2000/svg" xmlns:xlink="http://www.w3.org/1999/xlink">
    <!-- Generator: Sketch 48.2 (47327) - http://www.bohemiancoding.com/sketch -->
    <title>icon_category_grocery_xxl_white</title>
    <desc>Created with Sketch.</desc>
    <defs></defs>
    <g id="mobile" stroke="none" stroke-width="1" fill="none" fill-rule="evenodd" transform="translate(-1159.000000, -462.000000)">
        <g id="Headings" transform="translate(64.000000, 77.000000)">
            <g id="icon_category_grocery__xxl__white" transform="translate(1095.000000, 385.000000)">
                <g id="ungroup">
                    <rect id="Rectangle-path" x="0" y="0" width="48" height="48"></rect>
                    <g id="a1" opacity="0.4"></g>
                    <path d="M2.479,22 L4.974,22 L8.061,46 L39.94,46 L43.027,22 L45.522,22 C46.364,22 47,21.393 47,20.586 L47,14.717 C47,13.906 46.368,13 45.521,13 L33.368,13 L38.393,7.975 C39.054,7.315 39.418,6.436 39.418,5.5 C39.418,4.564 39.054,3.686 38.393,3.025 C37.071,1.703 34.766,1.704 33.444,3.025 L23.468,13 L2.479,13 C1.632,13 1,13.906 1,14.717 L1,20.586 C1,21.393 1.636,22 2.479,22 L2.479,22 Z M39.061,45 L8.939,45 L5.982,22 L20.828,22 C21.345,22.278 21.911,22.433 22.482,22.433 C23.054,22.433 23.621,22.278 24.137,22 L42.018,22 L39.061,45 L39.061,45 Z M45.521,14 C45.715,14 46,14.378 46,14.717 L46,20.586 C46,20.87 45.752,21 45.521,21 L25.368,21 L32.367,14 L45.521,14 L45.521,14 Z M34.15,3.732 C34.622,3.26 35.25,3 35.918,3 C36.585,3 37.213,3.26 37.686,3.732 C38.159,4.204 38.418,4.832 38.418,5.5 C38.418,6.168 38.158,6.796 37.686,7.268 L24.251,20.703 C23.276,21.676 21.689,21.678 20.715,20.703 C20.242,20.23 19.983,19.602 19.983,18.934 C19.983,18.267 20.243,17.639 20.715,17.166 L34.15,3.732 L34.15,3.732 Z M2,14.717 C2,14.378 2.285,14 2.479,14 L22.468,14 L20.008,16.46 C19.347,17.121 18.983,18 18.983,18.935 C18.983,19.691 19.231,20.403 19.671,21 L2.479,21 C2.248,21 2,20.87 2,20.586 L2,14.717 L2,14.717 Z" id="Shape" fill="#FFFFFF"></path>
                    <rect id="Rectangle-path" fill="#FFFFFF" opacity="0.3" x="16" y="26" width="4" height="14"></rect>
                    <rect id="Rectangle-path" fill="#FFFFFF" opacity="0.3" x="28" y="26" width="4" height="14"></rect>
                </g>
            </g>
        </g>
    </g>
</svg>