<svg xmlns="http://www.w3.org/2000/svg" width="24" height="24" viewBox="0 0 24 24"><path fill="none" d="M0 0h24v24H0z"/><path fill="#0B1F35" d="M21 23H3L2 10h20zM4 22h16l1-11H3z"/><path fill="#0B1F35" d="M23 11H1a1 1 0 0 1-1-1V7a1 1 0 0 1 1-1h10.52v1H1v3h22V7h-7.38V6H23a1 1 0 0 1 1 1v3a1 1 0 0 1-1 1z"/><path fill="#0B1F35" d="M11.13 11a2 2 0 0 1-1.41-3.4L16.78.54a2 2 0 1 1 2.82 2.83l-7.06 7.06a2 2 0 0 1-1.41.57zm7.06-10a1 1 0 0 0-.71.29L10.42 8.3a1 1 0 1 0 1.41 1.41l7.06-7.06a1 1 0 0 0-.7-1.65z"/><path fill="#0B1F35" d="M8 13h2v7H8zm6 0h2v7h-2z" opacity=".3"/></svg>