<svg width="36" height="36" viewBox="0 0 36 36" xmlns="http://www.w3.org/2000/svg">
  <g fill-rule="nonzero" fill="none">
    <path d="M5.25 24.434c-.472-.826-.826-1.77-.826-2.833V10.033C2.89 10.386 1.708 11.448 1 12.747v7.32c.935 1.857 2.42 3.382 4.25 4.367" fill="#D4132F"/>
    <path d="M5.84 8.615h3.423c.944 0 1.77-.826 1.77-1.77 0-.946-.825-1.654-1.77-1.654H5.84C3.125 5.193 1 7.318 1 10.033v1.535c.826-1.77 2.715-2.952 4.84-2.952M25.08 5.192h-8.734l3.542 3.423h5.666c2.48 0 4.958 1.063 6.846 2.715-.708-3.54-3.66-6.138-7.32-6.138z" fill="#B10540"/>
    <path d="M16.346 5.192V21.6c0 3.187-2.715 5.784-5.902 5.784-3.777 0-7.555-2.125-9.444-5.666.118 4.958 4.25 9.09 9.444 9.09 5.194 0 9.444-4.132 9.444-9.208V8.615l-3.542-3.423z" fill="#2865A7"/>
    <path d="M32.046 15.226c.354-.944.472-2.125.472-2.715-1.062-.943-2.597-1.888-4.25-2.36.472.59.826 1.653.826 2.48 0 .825-.236 1.534-.708 2.36-.472.708-.472 1.653.354 2.125 1.535.826 2.597 2.36 2.715 4.014.125 1.276-.164 2.56-.826 3.658 1.888-.944 3.422-2.48 4.25-4.25-.237-1.89-1.063-3.66-2.834-5.312" fill="#D4132F"/>
    <path d="M26.38 27.267h-5.548c-.944 0-1.77.826-1.77 1.77 0 .945.825 1.772 1.77 1.772h5.548c4.722 0 8.735-4.015 8.617-8.973-1.18 3.07-4.367 5.43-8.617 5.43" fill="#B10540"/>
  </g>
</svg>
