<svg xmlns="http://www.w3.org/2000/svg" width="30" height="30" version="1" viewBox="0 0 30 30"><g fill="#FFF"><path d="M2.365 16.58a7.747 7.747 0 0 0 3.25 3.34c-.361-.632-.632-1.354-.632-2.167V8.907c-1.174.27-2.077 1.083-2.618 2.076v5.597z"/><path d="M2.365 8.907v1.174c.632-1.354 2.076-2.257 3.701-2.257h2.618c.722 0 1.354-.632 1.354-1.354s-.632-1.264-1.354-1.264H6.066a3.66 3.66 0 0 0-3.701 3.701zm7.222 15.887c3.972 0 7.222-3.159 7.222-7.041v-9.93h4.333c1.896 0 3.791.812 5.236 2.076-.542-2.708-2.798-4.694-5.597-4.694H14.1v12.548c0 2.437-2.076 4.423-4.514 4.423-2.889 0-5.777-1.625-7.222-4.333.091 3.792 3.251 6.951 7.223 6.951z"/><path d="M28.273 16.941c-.181-1.444-.812-2.798-2.167-4.062.271-.722.361-1.625.361-2.076-.812-.722-1.986-1.444-3.25-1.805.361.451.632 1.264.632 1.896s-.181 1.174-.542 1.805c-.361.542-.361 1.264.271 1.625 1.174.632 1.986 1.805 2.076 3.069.09.903-.09 1.896-.632 2.798 1.445-.723 2.619-1.896 3.251-3.25z"/><path d="M28.363 17.934c-.903 2.347-3.34 4.152-6.59 4.152H17.53c-.722 0-1.354.632-1.354 1.354s.632 1.354 1.354 1.354h4.243c3.611 0 6.68-3.069 6.59-6.86z"/></g></svg>