<svg xmlns="http://www.w3.org/2000/svg" width="24" height="24" version="1" viewBox="0 0 24 24"><path fill="#0B1F35" d="M1.415 13.29a6.326 6.326 0 0 0 2.654 2.728c-.295-.516-.516-1.106-.516-1.77V7.023c-.959.221-1.696.885-2.138 1.696v4.571z"/><path fill="#0B1F35" d="M1.415 7.982c.516-1.106 1.696-1.843 3.023-1.843h2.138c.59 0 1.106-.516 1.106-1.106C7.682 4.442 7.166 4 6.576 4H4.438a2.99 2.99 0 0 0-3.023 3.023v.959zM7.313 20c3.244 0 5.899-2.581 5.899-5.751V6.138h3.539c1.548 0 3.097.664 4.276 1.696C20.585 5.622 18.742 4 16.456 4H11v10.249c0 1.991-1.696 3.613-3.687 3.613-2.359 0-4.719-1.327-5.899-3.539C1.488 17.419 4.069 20 7.313 20z"/><path fill="#0B1F35" d="M18.742 11.447c.958.516 1.622 1.475 1.696 2.507a3.728 3.728 0 0 1-.516 2.286c1.18-.59 2.138-1.548 2.654-2.654-.147-1.18-.664-2.286-1.77-3.318.221-.59.295-1.327.295-1.696-.664-.59-1.622-1.18-2.654-1.475.295.369.516 1.032.516 1.548s-.147.959-.442 1.475c-.295.442-.295 1.032.221 1.327z"/><path fill="#0B1F35" d="M22.65 14.396c-.737 1.917-2.728 3.392-5.383 3.392h-3.465c-.59 0-1.106.516-1.106 1.106S13.212 20 13.802 20h3.465c2.95 0 5.456-2.507 5.383-5.604z"/></svg>