<svg width="30" height="30" viewBox="0 0 30 30" xmlns="http://www.w3.org/2000/svg">
  <g fill-rule="nonzero" fill="none">
    <path d="M5.615 19.92c-.36-.632-.632-1.354-.632-2.167V8.907c-1.174.27-2.077 1.083-2.618 2.076v5.597c.715 1.42 1.85 2.587 3.25 3.34" fill="#D4132F"/>
    <path d="M6.066 7.823h2.618c.722 0 1.354-.632 1.354-1.354 0-.723-.632-1.264-1.354-1.264H6.066c-.985-.01-1.933.375-2.63 1.072-.696.696-1.082 1.644-1.07 2.63v1.173c.63-1.354 2.075-2.257 3.7-2.257" fill="#940449"/>
    <path d="M14.1 5.206v12.548c0 2.437-2.076 4.423-4.514 4.423-2.89 0-5.777-1.625-7.222-4.333.09 3.79 3.25 6.95 7.222 6.95 3.972 0 7.222-3.158 7.222-7.04v-9.93L14.1 5.206z" fill="#2865A7"/>
    <path d="M20.78 5.206H14.1l2.708 2.618h4.333c1.897 0 3.793.812 5.237 2.076-.542-2.708-2.798-4.694-5.597-4.694z" fill="#B10540"/>
    <path d="M26.106 12.88c.27-.723.36-1.626.36-2.077-.81-.722-1.985-1.444-3.25-1.805.362.45.633 1.264.633 1.896 0 .632-.182 1.174-.543 1.805-.36.54-.36 1.263.27 1.624 1.175.632 1.987 1.805 2.077 3.07.09.902-.09 1.895-.632 2.797 1.444-.72 2.618-1.895 3.25-3.25-.18-1.444-.812-2.798-2.166-4.06" fill="#D4132F"/>
    <path d="M21.773 22.086H17.53c-.722 0-1.354.632-1.354 1.354 0 .722.632 1.354 1.354 1.354h4.243c3.61 0 6.68-3.07 6.59-6.86-.903 2.347-3.34 4.152-6.59 4.152" fill="#940449"/>
  </g>
</svg>
