<?xml version="1.0" encoding="UTF-8"?>
<svg width="18px" height="18px" viewBox="0 0 18 18" version="1.1" xmlns="http://www.w3.org/2000/svg" xmlns:xlink="http://www.w3.org/1999/xlink">
    <!-- Generator: Sketch 49.2 (51160) - http://www.bohemiancoding.com/sketch -->
    <title>icon_bank-uralskiy_s_white</title>
    <desc>Created with Sketch.</desc>
    <defs></defs>
    <g id="page" stroke="none" stroke-width="1" fill="none" fill-rule="evenodd">
        <g id="uralsib" transform="translate(-9.000000, -11.000000)">
            <g id="icon_bank-uralskiy_s_white" transform="translate(9.000000, 11.000000)">
                <rect id="Rectangle" x="0" y="0" width="18" height="18"></rect>
                <g id="Group" transform="translate(1.000000, 3.000000)" fill="#FFFFFF" fill-rule="nonzero">
                    <path d="M2.027,9.014 C1.807,8.627 1.64,8.184 1.64,7.687 L1.64,2.267 C0.92,2.433 0.368,2.931 0.036,3.539 L0.036,6.967 C0.474,7.837 1.169,8.551 2.026,9.013" id="Shape"></path>
                    <path d="M2.304,1.604 L3.908,1.604 C4.35,1.604 4.738,1.217 4.738,0.774 C4.738,0.334 4.35,7.65175683e-17 3.908,7.65175683e-17 L2.303,7.65175683e-17 C1.7,-0.007 1.119,0.23 0.693,0.656 C0.265,1.083 0.029,1.664 0.035,2.266 L0.035,2.986 C0.422,2.156 1.307,1.604 2.303,1.604" id="Shape"></path>
                    <path d="M7.225,0 L7.225,7.687 C7.225,9.18 5.953,10.397 4.46,10.397 C2.69,10.397 0.92,9.402 0.036,7.743 C0.092,10.065 2.026,12 4.46,12 C6.893,12 8.884,10.065 8.884,7.687 L8.884,1.604 L7.224,0 L7.225,0 Z" id="Shape"></path>
                    <path d="M11.317,0 L7.225,0 L8.885,1.604 L11.538,1.604 C12.7,1.604 13.861,2.101 14.746,2.876 C14.414,1.216 13.032,0 11.316,0 L11.317,0 Z" id="Shape"></path>
                    <path d="M14.58,4.7 C14.746,4.258 14.8,3.705 14.8,3.428 C14.225,2.92 13.546,2.543 12.81,2.322 C13.03,2.598 13.197,3.096 13.197,3.482 C13.197,3.87 13.087,4.202 12.865,4.589 C12.645,4.919 12.645,5.362 13.031,5.583 C13.751,5.97 14.249,6.689 14.304,7.463 C14.364,8.061 14.227,8.663 13.917,9.177 C14.802,8.735 15.521,8.017 15.907,7.187 C15.797,6.303 15.411,5.474 14.581,4.699" id="Shape"></path>
                    <path d="M11.926,10.34 L9.326,10.34 C8.874,10.352 8.509,10.717 8.498,11.17 C8.508,11.623 8.874,11.988 9.328,12 L11.926,12 C14.138,12 16.018,10.12 15.963,7.796 C15.41,9.236 13.916,10.341 11.926,10.341" id="Shape"></path>
                </g>
            </g>
        </g>
    </g>
</svg>