<svg xmlns="http://www.w3.org/2000/svg" width="22" height="16" viewBox="0 0 22 16"><g fill="#FFF"><path d="M.415 9.29a6.326 6.326 0 0 0 2.654 2.728c-.295-.516-.516-1.106-.516-1.77V3.023c-.959.221-1.696.885-2.138 1.696V9.29z"/><path d="M.415 3.982c.516-1.106 1.696-1.843 3.023-1.843h2.138c.59 0 1.106-.516 1.106-1.106C6.682.442 6.166 0 5.576 0H3.438A2.99 2.99 0 0 0 .415 3.023v.959zM6.313 16c3.244 0 5.899-2.581 5.899-5.751V2.138h3.539c1.548 0 3.097.664 4.276 1.696C19.585 1.622 17.742 0 15.456 0H10v10.249c0 1.991-1.696 3.613-3.687 3.613-2.359 0-4.719-1.327-5.899-3.539C.488 13.419 3.069 16 6.313 16z"/><path d="M17.742 7.447c.958.516 1.622 1.475 1.696 2.507a3.728 3.728 0 0 1-.516 2.286c1.18-.59 2.138-1.548 2.654-2.654-.147-1.18-.664-2.286-1.77-3.318.221-.59.295-1.327.295-1.696-.664-.59-1.622-1.18-2.654-1.475.295.369.516 1.032.516 1.548s-.147.959-.442 1.475c-.295.442-.295 1.032.221 1.327z"/><path d="M21.65 10.396c-.737 1.917-2.728 3.392-5.383 3.392h-3.465c-.59 0-1.106.516-1.106 1.106 0 .59.516 1.106 1.106 1.106h3.465c2.95 0 5.456-2.507 5.383-5.604z"/></g></svg>