<svg xmlns="http://www.w3.org/2000/svg" width="16" height="13" viewBox="0 0 16 13"><g fill="#FFF"><path d="M.036 7.414a4.605 4.605 0 0 0 1.991 1.933c-.221-.366-.387-.783-.387-1.254V2.974C.921 3.131.368 3.601.036 4.176v3.238z"/><path d="M3.907 2.348c.442 0 .83-.365.83-.784 0-.418-.387-.73-.83-.73H2.304c-1.272 0-2.268.94-2.268 2.14v.68c.387-.784 1.272-1.306 2.267-1.306h1.604zm.553 9.819c2.433 0 4.424-1.828 4.424-4.074V2.348h2.654c1.161 0 2.323.47 3.207 1.202-.331-1.567-1.713-2.717-3.428-2.717H7.225v7.26c0 1.41-1.272 2.56-2.765 2.56-1.77 0-3.539-.94-4.424-2.507.056 2.193 1.991 4.02 4.424 4.02z"/><path d="M12.81 3.027c.221.26.387.731.387 1.097 0 .365-.111.679-.332 1.044-.221.314-.221.731.166.94.719.366 1.217 1.045 1.272 1.776a2.52 2.52 0 0 1-.387 1.618c.885-.417 1.604-1.096 1.991-1.88-.11-.835-.497-1.618-1.327-2.35a3.66 3.66 0 0 0 .221-1.201 5.411 5.411 0 0 0-1.991-1.044z"/><path d="M15.963 8.197c-.553 1.358-2.046 2.403-4.037 2.403H9.327c-.442 0-.829.365-.829.783 0 .417.387.784.829.784h2.599c2.212 0 4.092-1.776 4.037-3.97z"/></g></svg>