<svg width="18" height="18" viewBox="0 0 18 18" xmlns="http://www.w3.org/2000/svg">
  <g fill-rule="nonzero" fill="none">
    <path d="M3.027 12.014c-.22-.387-.387-.83-.387-1.327v-5.42c-.72.166-1.272.664-1.604 1.272v3.428c.438.87 1.133 1.584 1.99 2.046" fill="#D4132F"/>
    <path d="M3.304 4.604h1.604c.442 0 .83-.387.83-.83 0-.44-.388-.774-.83-.774H3.303c-.603-.007-1.184.23-1.61.656-.428.427-.664 1.008-.658 1.61v.72c.387-.83 1.272-1.382 2.268-1.382" fill="#940449"/>
    <path d="M8.225 3v7.687c0 1.493-1.272 2.71-2.765 2.71-1.77 0-3.54-.995-4.424-2.654C1.092 13.065 3.026 15 5.46 15c2.433 0 4.424-1.935 4.424-4.313V4.604L8.224 3z" fill="#2865A7"/>
    <path d="M12.317 3H8.225l1.66 1.604h2.653c1.162 0 2.323.497 3.208 1.272C15.414 4.216 14.032 3 12.316 3z" fill="#B10540"/>
    <path d="M15.58 7.7c.166-.442.22-.995.22-1.272-.575-.508-1.254-.885-1.99-1.106.22.276.387.774.387 1.16 0 .388-.11.72-.332 1.107-.22.33-.22.773.166.994.72.387 1.218 1.106 1.273 1.88.06.598-.077 1.2-.387 1.714.885-.442 1.604-1.16 1.99-1.99-.11-.884-.496-1.713-1.326-2.488" fill="#D4132F"/>
    <path d="M12.926 13.34h-2.6c-.452.012-.817.377-.828.83.01.453.376.818.83.83h2.598c2.212 0 4.092-1.88 4.037-4.204-.553 1.44-2.047 2.545-4.037 2.545" fill="#940449"/>
  </g>
</svg>
