<?xml version="1.0" encoding="UTF-8"?>
<svg width="30px" height="30px" viewBox="0 0 30 30" version="1.1" xmlns="http://www.w3.org/2000/svg" xmlns:xlink="http://www.w3.org/1999/xlink">
    <!-- Generator: Sketch 49.1 (51147) - http://www.bohemiancoding.com/sketch -->
    <title>icon_bank-uralskiy_l_white</title>
    <desc>Created with Sketch.</desc>
    <defs></defs>
    <g id="page" stroke="none" stroke-width="1" fill="none" fill-rule="evenodd">
        <g id="uralsib" transform="translate(-4.000000, -82.000000)">
            <g id="icon_bank-uralskiy_l_white" transform="translate(4.000000, 82.000000)">
                <rect id="Rectangle" x="0" y="0" width="30" height="30"></rect>
                <g id="Group" transform="translate(2.000000, 5.000000)" fill="#FFFFFF" fill-rule="nonzero">
                    <path d="M3.615,14.92 C3.255,14.288 2.983,13.566 2.983,12.753 L2.983,3.907 C1.809,4.177 0.906,4.99 0.365,5.983 L0.365,11.58 C1.08,13 2.215,14.167 3.615,14.92" id="Shape"></path>
                    <path d="M4.066,2.823 L6.684,2.823 C7.406,2.823 8.038,2.191 8.038,1.469 C8.038,0.746 7.406,0.205 6.684,0.205 L4.066,0.205 C3.081,0.195 2.133,0.58 1.436,1.277 C0.74,1.973 0.354,2.921 0.366,3.907 L0.366,5.08 C0.996,3.726 2.441,2.823 4.066,2.823" id="Shape"></path>
                    <path d="M12.1,0.206 L12.1,12.754 C12.1,15.191 10.024,17.177 7.586,17.177 C4.696,17.177 1.809,15.552 0.364,12.844 C0.454,16.634 3.614,19.794 7.586,19.794 C11.558,19.794 14.808,16.636 14.808,12.754 L14.808,2.824 L12.1,0.206 Z" id="Shape"></path>
                    <path d="M18.78,0.206 L12.1,0.206 L14.808,2.824 L19.141,2.824 C21.038,2.824 22.934,3.636 24.378,4.9 C23.836,2.192 21.58,0.206 18.781,0.206 L18.78,0.206 Z" id="Shape"></path>
                    <path d="M24.106,7.88 C24.376,7.157 24.466,6.254 24.466,5.803 C23.656,5.081 22.481,4.359 21.216,3.998 C21.578,4.448 21.849,5.262 21.849,5.894 C21.849,6.526 21.667,7.068 21.306,7.699 C20.946,8.239 20.946,8.962 21.576,9.323 C22.751,9.955 23.563,11.128 23.653,12.393 C23.743,13.295 23.563,14.288 23.021,15.19 C24.465,14.47 25.639,13.295 26.271,11.94 C26.091,10.496 25.459,9.142 24.105,7.88" id="Shape"></path>
                    <path d="M19.773,17.086 L15.53,17.086 C14.808,17.086 14.176,17.718 14.176,18.44 C14.176,19.162 14.808,19.794 15.53,19.794 L19.773,19.794 C23.383,19.794 26.453,16.724 26.363,12.934 C25.46,15.281 23.023,17.086 19.773,17.086" id="Shape"></path>
                </g>
            </g>
        </g>
    </g>
</svg>