<svg xmlns="http://www.w3.org/2000/svg" width="18" height="18" version="1" viewBox="0 0 18 18"><path fill="#0B1F35" d="M1.036 9.968a4.737 4.737 0 0 0 1.991 2.046c-.221-.387-.387-.829-.387-1.327v-5.42c-.719.166-1.272.664-1.604 1.272v3.429z"/><path fill="#0B1F35" d="M4.907 4.604c.442 0 .83-.387.83-.83S5.35 3 4.907 3H3.304a2.243 2.243 0 0 0-2.268 2.267v.719c.387-.829 1.272-1.382 2.267-1.382h1.604zM5.46 15c2.433 0 4.424-1.935 4.424-4.313V4.604h2.654c1.161 0 2.323.498 3.207 1.272C15.414 4.217 14.032 3 12.317 3H8.225v7.687c0 1.493-1.272 2.71-2.765 2.71-1.77 0-3.539-.995-4.424-2.654C1.092 13.065 3.027 15 5.46 15z"/><path fill="#0B1F35" d="M13.81 5.323c.221.276.387.774.387 1.161s-.111.719-.332 1.106c-.221.332-.221.774.166.995.719.387 1.217 1.106 1.272 1.88a2.794 2.794 0 0 1-.387 1.714c.885-.442 1.604-1.161 1.991-1.991-.11-.884-.497-1.713-1.327-2.488.166-.442.221-.995.221-1.272a5.318 5.318 0 0 0-1.991-1.105z"/><path fill="#0B1F35" d="M16.963 10.797c-.553 1.438-2.046 2.544-4.037 2.544h-2.599a.85.85 0 0 0-.829.829c0 .442.387.83.829.83h2.599c2.212 0 4.092-1.88 4.037-4.203z"/></svg>