<svg xmlns="http://www.w3.org/2000/svg" width="34" height="26" viewBox="0 0 34 26"><g fill="#FFF"><path d="M0 15.066a10.13 10.13 0 0 0 4.25 4.368c-.472-.826-.826-1.771-.826-2.833V5.032C1.889 5.386.708 6.448 0 7.747v7.319z"/><path d="M0 6.566c.826-1.771 2.715-2.951 4.84-2.951h3.423c.944 0 1.771-.826 1.771-1.771C10.034.9 9.208.191 8.263.191H4.84C2.125.192 0 2.317 0 5.032v1.534zm9.444 19.242c5.194 0 9.444-4.132 9.444-9.208V3.615h5.666c2.479 0 4.958 1.062 6.847 2.715-.708-3.541-3.659-6.138-7.319-6.138h-8.735V16.6c0 3.187-2.715 5.784-5.902 5.784-3.777 0-7.555-2.125-9.444-5.666.117 4.958 4.249 9.09 9.443 9.09z"/><path d="M33.879 15.538c-.236-1.889-1.062-3.659-2.833-5.312.354-.944.472-2.125.472-2.715-1.062-.944-2.597-1.889-4.25-2.361.472.59.826 1.653.826 2.479 0 .826-.236 1.535-.708 2.361-.472.708-.472 1.653.354 2.125 1.535.826 2.597 2.361 2.715 4.014a5.965 5.965 0 0 1-.826 3.659c1.889-.945 3.424-2.479 4.25-4.25z"/><path d="M33.997 16.836c-1.18 3.069-4.368 5.43-8.617 5.43h-5.548c-.944 0-1.771.826-1.771 1.771s.826 1.771 1.771 1.771h5.548c4.722 0 8.735-4.014 8.617-8.972z"/></g></svg>