<svg width="24" height="24" viewBox="0 0 24 24" fill="none" xmlns="http://www.w3.org/2000/svg"><rect width="24" height="24" fill="none"/><path d="M20.9967 23.16H2.99669V13.16H1.91669C0.59669 13.16 0.18669 12.61 0.0666902 12.29C-0.0533098 11.97 -0.11331 11.29 0.81669 10.49L11.9967 1L23.1767 10.48C24.1067 11.31 24.0467 11.97 23.9267 12.28C23.8067 12.59 23.3967 13.16 22.0767 13.16H20.9967V23.16ZM3.99669 22.16H19.9967V12.16H22.0767C22.2375 12.1906 22.4031 12.1859 22.562 12.1462C22.7208 12.1065 22.8692 12.0327 22.9967 11.93C22.974 11.7861 22.9203 11.649 22.8391 11.528C22.7579 11.4071 22.6513 11.3054 22.5267 11.23L11.9967 2.32L1.46669 11.24C1.34326 11.3144 1.23736 11.4145 1.15624 11.5336C1.07512 11.6527 1.02069 11.7879 0.99669 11.93C1.12422 12.0327 1.27254 12.1065 1.4314 12.1462C1.59025 12.1859 1.75583 12.1906 1.91669 12.16H3.99669V22.16Z" fill="#0B1F35"/><path d="M9 16C9 14.3431 10.3431 13 12 13C13.6569 13 15 14.3431 15 16V23H12H9V16Z" fill="#0B1F35" fill-opacity="0.3"/></svg>