<svg width="18" height="18" viewBox="0 0 18 18" fill="none" xmlns="http://www.w3.org/2000/svg"><rect width="18" height="18" fill="none"/><path fill-rule="evenodd" clip-rule="evenodd" d="M15 15.9296C15 16.4819 14.5523 16.9296 14 16.9296H4C3.44772 16.9296 3 16.4819 3 15.9296V10.507H2.63613C1.50038 10.507 0.953217 9.11478 1.78507 8.34151L8.31915 2.26757C8.70295 1.91081 9.29705 1.91081 9.68085 2.26757L16.2149 8.34151C17.0468 9.11478 16.4996 10.507 15.3639 10.507H15V15.9296ZM9 3L2.46592 9.07394C2.29955 9.22859 2.40898 9.50704 2.63613 9.50704H4V15.9296H14V9.50704H15.3639C15.591 9.50704 15.7005 9.22859 15.5341 9.07394L9 3Z" fill="#0B1F35" fill-opacity="0.95"/><path d="M7 12C7 10.8954 7.89543 10 9 10V10C10.1046 10 11 10.8954 11 12V16H9H7V12Z" fill="#0B1F35" fill-opacity="0.3"/></svg>