<svg width="48" height="48" viewBox="0 0 48 48" fill="none" xmlns="http://www.w3.org/2000/svg"><rect width="48" height="48" fill="none"/><path fill-rule="evenodd" clip-rule="evenodd" d="M46.0001 19.5L24.0001 0.800003L2.00011 19.5C0.400113 21 0.400113 22 0.600113 22.6C1.00011 23.5 2.10011 24 3.80011 24H6.00011V46H42.0001V24H44.2001C45.9001 24 47.1001 23.5 47.4001 22.6C47.6001 22.1 47.7001 21 46.0001 19.5V19.5ZM46.5001 22.2C46.3001 22.7 45.4001 23 44.2001 23H41.0001V45H7.00011V23H3.80011C2.60011 23 1.70011 22.7 1.50011 22.2C1.30011 21.7 1.70011 21 2.60011 20.3L24.0001 2.2L45.4001 20.3C46.2001 21 46.6001 21.8 46.5001 22.2Z" fill="#0B1F35"/><path d="M18 32C18 28.6863 20.6863 26 24 26V26C27.3137 26 30 28.6863 30 32V46H24H18V32Z" fill="#0B1F35" fill-opacity="0.3"/></svg>