<svg xmlns="http://www.w3.org/2000/svg" width="28" height="28" viewBox="0 0 28 28"><g fill="#FFF"><path d="M19.216 3.53l-4.061 3.957.833.937-2.082 1.978-1.978-1.978 1.041-.937L8.7 3.426C5.368.718 1.932 4.883 1.828 8.944l1.25-1.041 3.748 3.957 1.354-1.145V8.32l.833.625v3.228l1.562 1.562-8.226 8.122 3.436 3.436 8.018-8.122 8.226 8.33 3.436-3.436-8.226-8.226 1.562-1.562V9.049l.937-.833v2.499l1.25 1.041 3.853-3.853 1.25.937c.726-2.707-3.439-8.746-6.875-5.31z"/><path d="M0 28h28V0H0v28zM1 1h26v26H1V1z"/></g></svg>