<svg xmlns="http://www.w3.org/2000/svg" width="18" height="18" version="1" viewBox="0 0 18 18"><path fill="#0B1F35" d="M11.268 4.448l-1.766 1.72.362.407-.905.86-.86-.86.453-.407-1.856-1.766c-1.449-1.177-2.943.634-2.988 2.4l.543-.453 1.63 1.72.589-.498V6.53l.362.272v1.403l.678.679-3.576 3.531 1.494 1.494 3.486-3.531L12.49 14l1.494-1.494-3.576-3.576.679-.679V6.847l.407-.362v1.087l.543.453 1.675-1.675.543.407c.318-1.177-1.493-3.803-2.987-2.309z"/><path fill="#0B1F35" d="M1 17h16V1H1v16zM2 2h14v14H2V2z"/></svg>