<svg xmlns="http://www.w3.org/2000/svg" width="18" height="18" version="1" viewBox="0 0 18 18"><path fill="#EE3424" d="M9.002 2.173c.93 0 1.224.685 1.469 1.371.098.294 2.497 6.952 2.546 7.147 0 .049 0 .147-.049.196-.098 0-1.322.539-1.42.539-.049 0-.147 0-.196-.098 0-.049-.539-1.518-.587-1.664H7.239c-.049.146-.587 1.615-.587 1.664 0 .049-.098.098-.147.098-.049 0-1.322-.539-1.42-.539-.049 0-.098-.098-.049-.196.098-.245 2.448-6.805 2.546-7.147.196-.734.49-1.371 1.42-1.371zM4.474 14c-.053 0-.158.053-.158.158v1.684c0 .053.052.158.158.158h9.053c.053 0 .158-.053.158-.158v-1.684c0-.053-.053-.158-.158-.158H4.474zm4.528-9.673L7.827 7.999h2.448L9.002 4.327z"/></svg>