<svg xmlns="http://www.w3.org/2000/svg" width="10" height="14" viewBox="0 0 10 14"><path fill="#FFF" d="M.474 13.111h9.053c.053 0 .158-.05.158-.15v-1.59c0-.05-.053-.149-.158-.149H.474c-.053 0-.158.05-.158.15v1.59c0 .05.052.15.158.15zM3.582 1.347c-.098.324-2.448 6.52-2.546 6.75-.049.093 0 .185.049.185.098 0 1.371.51 1.42.51.049 0 .147-.047.147-.093 0-.047.538-1.434.587-1.572h3.525c.049.139.587 1.526.587 1.572.049.092.147.092.196.092.098 0 1.322-.509 1.42-.509.049-.046.049-.139.049-.185-.049-.185-2.448-6.473-2.546-6.75C6.225.7 5.931.052 5.001.052c-.929 0-1.223.602-1.419 1.295zm2.693 4.208H3.827l1.175-3.468 1.273 3.468z"/></svg>