<svg xmlns="http://www.w3.org/2000/svg" width="36" height="36" version="1" viewBox="0 0 36 36"><path fill="#EE3424" d="M18.004.434c2.325 0 3.06 1.713 3.672 3.427.245.734 6.242 17.379 6.364 17.869 0 .122 0 .367-.122.49-.245 0-3.304 1.346-3.549 1.346-.122 0-.367 0-.49-.245 0-.122-1.346-3.794-1.469-4.161h-8.812c-.122.367-1.469 4.039-1.469 4.161s-.245.245-.367.245-3.304-1.346-3.549-1.346c-.122 0-.245-.245-.122-.49.244-.613 6.119-17.013 6.364-17.87.489-1.835 1.224-3.426 3.549-3.426zM6.684 30c-.132 0-.395.132-.395.395v4.211c0 .131.132.394.395.394h22.632c.132 0 .395-.132.395-.395v-4.211c0-.132-.132-.395-.395-.395H6.684zm11.32-24.181l-2.937 9.179h6.119l-3.182-9.179z"/></svg>