<svg xmlns="http://www.w3.org/2000/svg" width="24" height="24" version="1" viewBox="0 0 24 24"><path fill="#0B1F35" d="M8.478 14.992c0-.073.808-2.276.881-2.497h5.287c.073.22.881 2.423.881 2.497.073.147.22.147.294.147.147 0 1.983-.808 2.13-.808.073-.073.073-.22.073-.294-.073-.294-3.672-10.281-3.818-10.721-.367-1.028-.808-2.056-2.203-2.056-1.395 0-1.836.955-2.13 2.056-.147.514-3.672 10.354-3.819 10.721-.073.147 0 .294.073.294.147 0 2.056.808 2.13.808s.221-.073.221-.147zm3.525-10.501l1.909 5.507H10.24l1.763-5.507zM4.974 19.237v2.526c0 .079.079.237.237.237H18.79c.079 0 .237-.079.237-.237v-2.526c0-.079-.079-.237-.237-.237H5.211c-.079 0-.237.079-.237.237z"/></svg>