<?xml version="1.0" encoding="UTF-8"?>
<svg width="48px" height="48px" viewBox="0 0 48 48" version="1.1" xmlns="http://www.w3.org/2000/svg" xmlns:xlink="http://www.w3.org/1999/xlink">
    <!-- Generator: Sketch 48.2 (47327) - http://www.bohemiancoding.com/sketch -->
    <title>icon_category-rent_xxl_black</title>
    <desc>Created with Sketch.</desc>
    <defs></defs>
    <g id="mobile" stroke="none" stroke-width="1" fill="none" fill-rule="evenodd" transform="translate(-1843.000000, -678.000000)">
        <g id="Headings" transform="translate(64.000000, 77.000000)">
            <g id="icon_category_rent__xxl__white" transform="translate(1779.000000, 601.000000)">
                <g id="ungroup">
                    <rect id="Rectangle-path" x="0" y="0" width="48" height="48"></rect>
                    <g id="a1" opacity="0.4"></g>
                    <circle id="Oval" fill="#0B1F35" opacity="0.3" cx="14.5" cy="16.5" r="4.5"></circle>
                    <path d="M24.591,11 C22.568,7.291 18.73,5 14.5,5 C8.159,5 3,10.159 3,16.5 C3,22.841 8.159,28 14.5,28 C18.73,28 22.568,25.709 24.591,22 L39.457,22 L44.957,16.5 L39.457,11 L24.591,11 L24.591,11 Z M39.043,21 L23.984,21 L23.844,21.272 C22.036,24.806 18.455,27 14.5,27 C8.71,27 4,22.29 4,16.5 C4,10.71 8.71,6 14.5,6 C18.455,6 22.036,8.194 23.844,11.728 L23.984,12 L39.043,12 L43.543,16.5 L39.043,21 L39.043,21 Z" id="Shape" fill="#0B1F35"></path>
                    <path d="M26,22 C26,21.83 25.983,21.664 25.962,21.5 L24.29,21.5 C22.468,25.059 18.773,27.5 14.5,27.5 C11.319,27.5 8.461,26.141 6.453,23.982 C6.361,23.895 6.263,23.815 6.174,23.725 C6.995,28.422 11.068,32 16,32 C17.307,32 18.547,31.732 19.691,31.276 L28.414,40 L34,40 L34,34.414 L25.277,25.69 C25.732,24.547 26,23.307 26,22 L26,22 Z" id="Shape" fill="#0B1F35" opacity="0.3"></path>
                </g>
            </g>
        </g>
    </g>
</svg>