<svg xmlns="http://www.w3.org/2000/svg" width="24" height="24" viewBox="0 0 24 24"><path fill="none" d="M0 0h24v24H0z"/><path fill="#0B1F35" d="M7 15a6 6 0 1 1 5.19-9h7.52l3 3-3 3h-7.52A6 6 0 0 1 7 15zM7 4a5 5 0 1 0 4.45 7.27l.14-.27h7.7l2-2-2-2h-7.7l-.14-.27A5 5 0 0 0 7 4z"/><circle cx="7" cy="9" r="2" fill="#0B1F35" opacity=".4"/><path fill="#0B1F35" d="M13 12a4.9 4.9 0 0 0-.05-.5h-1.06a5.49 5.49 0 0 1-8.81 1.36 5 5 0 0 0 6.76 3.78L14.21 21H17v-2.79l-4.36-4.36A5 5 0 0 0 13 12z" opacity=".3"/></svg>