<svg xmlns="http://www.w3.org/2000/svg" width="42" height="35" viewBox="0 0 42 35"><g fill="none" fill-rule="evenodd" transform="translate(-3 -5)"><path d="M0 0h48v48H0z"/><circle cx="14.5" cy="16.5" r="4.5" fill="#FFF" opacity=".3"/><path fill="#FFF" d="M24.591 11A11.454 11.454 0 0 0 14.5 5C8.159 5 3 10.159 3 16.5S8.159 28 14.5 28c4.23 0 8.068-2.291 10.091-6h14.866l5.5-5.5-5.5-5.5H24.591zm14.452 10H23.984l-.14.272A10.458 10.458 0 0 1 14.5 27C8.71 27 4 22.29 4 16.5S8.71 6 14.5 6c3.955 0 7.536 2.194 9.344 5.728l.14.272h15.059l4.5 4.5-4.5 4.5z"/><path fill="#FFF" d="M26 22c0-.17-.017-.336-.038-.5H24.29c-1.822 3.559-5.517 6-9.79 6a10.958 10.958 0 0 1-8.047-3.518c-.092-.087-.19-.167-.279-.257C6.995 28.422 11.068 32 16 32a9.936 9.936 0 0 0 3.691-.724L28.414 40H34v-5.586l-8.723-8.724A9.946 9.946 0 0 0 26 22z" opacity=".3"/></g></svg>