<svg width="36" height="36" viewBox="0 0 36 36" xmlns="http://www.w3.org/2000/svg"><g fill="none" fill-rule="evenodd"><path d="M0 0h36v36H0z"/><circle fill="#0B1F35" opacity=".3" cx="11" cy="13" r="3"/><path d="M19.056 9A9.018 9.018 0 0 0 11 4c-4.962 0-9 4.037-9 9s4.038 9 9 9a8.95 8.95 0 0 0 7.474-4h11.233l4.5-4.5-4.5-4.5H19.056zm10.237 8H17.925l-.147.234A7.956 7.956 0 0 1 11 21c-4.411 0-8-3.589-8-8s3.589-8 8-8a8.018 8.018 0 0 1 7.284 4.706l.133.294h10.875l3.5 3.5-3.499 3.5z" fill="#0B1F35"/><path d="M20.859 17.5h-2.657c-1.503 2.399-4.162 4-7.202 4-3.686 0-6.816-2.351-7.993-5.632-.001.044-.007.087-.007.132a9 9 0 0 0 9 9 8.955 8.955 0 0 0 3.172-.586L21.757 31H26v-4.243l-6.231-6.229a9.01 9.01 0 0 0 1.09-3.028z" fill="#0B1F35" opacity=".3"/></g></svg>