<svg xmlns="http://www.w3.org/2000/svg" width="21" height="23" viewBox="0 0 21 23"><g fill="none" fill-rule="evenodd"><path d="M-2 0h24v24H-2z"/><path fill="#0B1F35" d="M13 17l-2.5-2.5L8 17V7.5h5z" opacity=".3"/><path fill="#0B1F35" d="M20 23V13h1V7H0v6h1v10h19zM1 8h19v4h-4v1h3v9H2v-9h3v-1H1V8zm15.1-2.9l.6.8c.8-.5 1.3-1.4 1.4-2.4.1-.9-.3-1.7-.9-2.3C15.4-.2 13 .8 10.5 4 8 .8 5.6-.2 3.9 1.2c-.6.6-1 1.4-.9 2.3.1 1 .6 1.9 1.4 2.4l.6-.8c-.6-.4-1-1-1-1.7 0-.5.2-1.1.6-1.4 1.3-1 3.1 0 5.2 2.6l.8 1 .8-1C13.3 2 15.2 1 16.4 2c.4.3.6.9.6 1.4 0 .7-.4 1.3-.9 1.7z"/></g></svg>