<svg xmlns="http://www.w3.org/2000/svg" width="41" height="43" viewBox="0 0 41 43"><g fill="none" fill-rule="evenodd"><path d="M-4-2h48v48H-4z"/><path fill="#0B1F35" d="M25 32.4l-4.5-5-4.5 5v-18h9z" opacity=".3"/><path fill="#0B1F35" d="M39 43V25h2V14H0v11h2v18h37zM1 15h39v9h-7v1h5v17H3V25h5v-1H1v-9zm32.6-3.4l.5.8c1.9-1.2 3.1-3.2 3.2-5.4.1-2-.6-3.8-2-4.9C34 1 32.4.6 30.7.8 27.5 1.2 24.1 4 20.4 9 16.7 4 13.3 1.2 10.1.8 8.5.5 6.9 1 5.5 2.1c-1.4 1.2-2.1 3-2 4.9.1 2.2 1.4 4.2 3.2 5.4l.5-.8c-1.6-1-2.6-2.7-2.8-4.6 0-1.7.6-3.2 1.8-4.1C7.3 2 8.6 1.6 10 1.8c3 .4 6.4 3.2 10 8.4l.4.6.4-.6c3.7-5.2 7-8 10-8.4 1.4-.2 2.7.2 3.8 1.1 1.2.9 1.7 2.4 1.6 4.1 0 1.9-1 3.6-2.6 4.6z"/></g></svg>