<svg xmlns="http://www.w3.org/2000/svg" width="31" height="33" viewBox="0 0 31 33"><g fill="none" fill-rule="evenodd"><path d="M-3-1h36v36H-3z"/><path fill="#0B1F35" d="M19 25.5l-3.5-3.7-3.5 3.7v-14h7z" opacity=".3"/><path fill="#0B1F35" d="M29 33V19h2v-8H0v8h2v14h27zM1 12h29v6h-6v1h4v13H3V19h4v-1H1v-6zm23.3-3.9l.6.8c1.2-.8 2-2.2 2.1-3.7.1-1.4-.4-2.6-1.4-3.4-.8-.6-1.6-1-2.6-1-2.2 0-4.8 1.9-7.5 5.4C12.8 2.7 10.2.8 8 .8c-.9 0-1.8.3-2.6 1-1 .8-1.5 2-1.4 3.4.1 1.5.9 2.8 2.1 3.7l.6-.8c-1-.7-1.6-1.7-1.7-2.9-.1-1 .3-2 1-2.5C8.2.9 11.3 2.5 14.7 7l.8 1 .8-1C19.7 2.5 22.8.9 25 2.7c.7.6 1.1 1.5 1 2.5-.1 1.2-.7 2.2-1.7 2.9z"/></g></svg>