<svg xmlns="http://www.w3.org/2000/svg" width="24" height="24" viewBox="0 0 24 24"><g fill="#FFF"><polygon fill="none" points="0 0 24 0 24 24 0 24" opacity="0"/><g transform="translate(1)"><polygon points="13 17 10.5 14.5 8 17 8 7.5 13 7.5" opacity=".3"/><path d="M20,23 L20,13 L21,13 L21,7 L0,7 L0,13 L1,13 L1,23 L20,23 Z M1,8 L20,8 L20,12 L16,12 L16,13 L19,13 L19,22 L2,22 L2,13 L5,13 L5,12 L1,12 L1,8 Z M16.1,5.1 L16.7,5.9 C17.5,5.4 18,4.5 18.1,3.5 C18.2,2.6 17.8,1.8 17.2,1.2 C15.4,-0.2 13,0.8 10.5,4 C8,0.8 5.6,-0.2 3.9,1.2 C3.3,1.8 2.9,2.6 3,3.5 C3.1,4.5 3.6,5.4 4.4,5.9 L5,5.1 C4.4,4.7 4,4.1 4,3.4 C4,2.9 4.2,2.3 4.6,2 C5.9,1 7.7,2 9.8,4.6 L10.6,5.6 L11.4,4.6 C13.3,2 15.2,1 16.4,2 C16.8,2.3 17,2.9 17,3.4 C17,4.1 16.6,4.7 16.1,5.1 Z"/></g></g></svg>