<svg xmlns="http://www.w3.org/2000/svg" width="48" height="48" viewBox="0 0 48 48"><g fill="none" fill-rule="evenodd"><rect width="48" height="48"/><path fill="#0B1F35" fill-rule="nonzero" d="M3.5,26.9393346 L10.2739,20.1654 C11.7742,18.6651 14.2194,18.7072 15.667,20.2583 L25.5505,30.8477 C26.3838,31.7406 27.7773,31.8056 28.6902,30.9941 L33.3875,26.8187 C34.8715,25.4996 37.1266,25.5659 38.5305,26.9698 L44.5,32.9393 L44.5,6 C44.5,4.61929 43.3807,3.5 42,3.5 L6,3.5 C4.61929,3.5 3.5,4.61929 3.5,6 L3.5,26.9393346 Z M3.5,29.0606 L3.5,42 C3.5,43.3807 4.61929,44.5 6,44.5 L42,44.5 C43.3807,44.5 44.5,43.3807 44.5,42 L44.5,35.0606 L37.4699,28.0305 C36.6275,27.1881 35.2745,27.1484 34.3841,27.9398 L29.6867,32.1153 C28.1653,33.4676 25.8428,33.3593 24.4539,31.8712 L14.5705,21.2818 C13.7018,20.3511 12.2348,20.3259 11.3346,21.226 L3.5,29.0606 Z M6,2 L42,2 C44.2091,2 46,3.79086 46,6 L46,42 C46,44.2091 44.2091,46 42,46 L6,46 C3.79086,46 2,44.2091 2,42 L2,6 C2,3.79086 3.79086,2 6,2 Z M32.5,19 C30.567,19 29,17.433 29,15.5 C29,13.567 30.567,12 32.5,12 C34.433,12 36,13.567 36,15.5 C36,17.433 34.433,19 32.5,19 Z"/></g></svg>