<svg xmlns="http://www.w3.org/2000/svg" width="36" height="36" viewBox="0 0 36 36"><g fill="none" fill-rule="evenodd"><rect width="36" height="36"/><path fill="#FFF" fill-rule="nonzero" d="M6,3.5 C4.61929,3.5 3.5,4.61929 3.5,6 L3.5,20.0345 L8.4672,15.3777 C9.60731,14.3089 11.4078,14.4037 12.4293,15.5865 L19.2164,23.4453 C19.6782,23.98 20.4911,24.026 21.0103,23.5467 L24.6307,20.2048 C25.6864,19.2303 27.3144,19.2327 28.3672,20.2104 L32.5,24.048 L32.5,6 C32.5,4.61929 31.3807,3.5 30,3.5 L6,3.5 Z M3.5,22.0906 L3.5,30 C3.5,31.3807 4.61929,32.5 6,32.5 L30,32.5 C31.3807,32.5 32.5,31.3807 32.5,30 L32.5,26.0949 L27.3465,21.3096 C26.868,20.8652 26.128,20.8641 25.6481,21.307 L22.0277,24.6489 C20.8855,25.7033 19.0972,25.6021 18.0812,24.4257 L11.2941,16.5669 C10.8298,16.0293 10.0113,15.9862 9.49311,16.472 L3.5,22.0906 Z M2,6 C2,3.79086 3.79086,2 6,2 L30,2 C32.2091,2 34,3.79086 34,6 L34,30 C34,32.2091 32.2091,34 30,34 L6,34 C3.79086,34 2,32.2091 2,30 L2,6 Z M24.5,14 C23.1193,14 22,12.8807 22,11.5 C22,10.1193 23.1193,9 24.5,9 C25.8807,9 27,10.1193 27,11.5 C27,12.8807 25.8807,14 24.5,14 Z"/></g></svg>