<svg xmlns="http://www.w3.org/2000/svg" width="18" height="18" viewBox="0 0 18 18"><g fill="none" fill-rule="evenodd"><rect width="18" height="18"/><path fill="#FFF" fill-rule="nonzero" d="M4,2 C2.89543,2 2,2.89543 2,4 L2,9.79286 L3.93934,7.85352 C4.52513,7.26774 5.47487,7.26774 6.06066,7.85352 L9.69875,11.4916 C9.8835,11.6764 10.1793,11.6877 10.3777,11.5177 L12.5329,9.67037 C13.0887,9.19402 13.9071,9.18833 14.4694,9.65692 L16,10.9325 L16,4 C16,2.89543 15.1046,2 14,2 L4,2 Z M2,11.2071 L2,14 C2,15.1046 2.89543,16 4,16 L14,16 C15.1046,16 16,15.1046 16,14 L16,12.2342 L13.8292,10.4251 C13.6417,10.2689 13.3689,10.2708 13.1837,10.4296 L11.0285,12.2769 C10.4334,12.787 9.54588,12.753 8.99164,12.1987 L5.35355,8.56063 C5.15829,8.36537 4.84171,8.36537 4.64645,8.56063 L2,11.2071 Z M1,4 C1,2.34315 2.34315,1 4,1 L14,1 C15.6569,1 17,2.34315 17,4 L17,14 C17,15.6569 15.6569,17 14,17 L4,17 C2.34315,17 1,15.6569 1,14 L1,4 Z M12,7 C11.4477,7 11,6.55228 11,6 C11,5.44772 11.4477,5 12,5 C12.5523,5 13,5.44772 13,6 C13,6.55228 12.5523,7 12,7 Z"/></g></svg>