<svg xmlns="http://www.w3.org/2000/svg" width="30" height="30" viewBox="0 0 30 30"><g fill="none" fill-rule="evenodd"><rect width="30" height="30"/><path fill="#0B1F35" fill-rule="nonzero" d="M21,11 C19.8954,11 19,10.1046 19,9 C19,7.89543 19.8954,7 21,7 C22.1046,7 23,7.89543 23,9 C23,10.1046 22.1046,11 21,11 Z M5,2.5 C3.61929,2.5 2.5,3.61929 2.5,5 L2.5,16.2403 L5.9105,12.9663 C7.07216,11.8511 8.93918,11.9682 9.95239,13.2198 L15.7448,20.3751 C16.1981,20.9351 17.0298,20.9969 17.561,20.51 L20.6127,17.7126 C21.6806,16.7337 23.3249,16.7512 24.3718,17.7525 L27.5,20.7448 L27.5,5 C27.5,3.61929 26.3807,2.5 25,2.5 L5,2.5 Z M2.5,18.3197 L2.5,24 L2.5,25 C2.5,26.3807 3.61929,27.5 5,27.5 L25,27.5 C26.3807,27.5 27.5,26.3807 27.5,25 L27.5,24 L27.5,22.8205 L23.3349,18.8365 C22.8591,18.3813 22.1117,18.3734 21.6263,18.8184 L18.5746,21.6158 C17.406,22.6869 15.5763,22.5509 14.5789,21.3189 L8.78652,14.1636 C8.32597,13.5947 7.47732,13.5414 6.9493,14.0484 L2.5,18.3197 Z M29,24 L29,25 C29,27.2091 27.2091,29 25,29 L5,29 C2.79086,29 1,27.2091 1,25 L1,24 L1,17.6803 L1,5 C1,2.79086 2.79086,1 5,1 L25,1 C27.2091,1 29,2.79086 29,5 L29,22.1795 L29,24 Z"/></g></svg>