<svg xmlns="http://www.w3.org/2000/svg" width="24" height="24" viewBox="0 0 24 24"><g fill="none" fill-rule="evenodd"><rect width="24" height="24"/><path fill="#0B1F35" fill-rule="nonzero" d="M16.5,9 C15.6716,9 15,8.32843 15,7.5 C15,6.67157 15.6716,6 16.5,6 C17.3284,6 18,6.67157 18,7.5 C18,8.32843 17.3284,9 16.5,9 Z M4,2 C2.89543,2 2,2.89543 2,4 L2,13.7929 L5.93934,9.85352 C6.52513,9.26774 7.47487,9.26774 8.06066,9.85352 L13.7293,15.5222 C13.9076,15.7005 14.1908,15.7181 14.3899,15.5633 L17.4962,13.1473 C18.0933,12.6828 18.9429,12.7357 19.4778,13.2706 L22,15.7929 L22,4 C22,2.89543 21.1046,2 20,2 L4,2 Z M2,15.2071 L2,20 C2,21.1046 2.89543,22 4,22 L20,22 C21.1046,22 22,21.1046 22,20 L22,17.2071 L18.7707,13.9777 C18.5924,13.7994 18.3092,13.7818 18.1101,13.9366 L15.0038,16.3527 C14.4067,16.8171 13.5571,16.7642 13.0222,16.2293 L7.35355,10.5606 C7.15829,10.3654 6.84171,10.3654 6.64645,10.5606 L2,15.2071 Z M1,4 C1,2.34315 2.34315,1 4,1 L20,1 C21.6569,1 23,2.34315 23,4 L23,20 C23,21.6569 21.6569,23 20,23 L4,23 C2.34315,23 1,21.6569 1,20 L1,4 Z"/></g></svg>