<svg width="18" height="18" viewBox="0 0 18 18" fill="none" xmlns="http://www.w3.org/2000/svg"><rect width="18" height="18" fill="none"/><path fill-rule="evenodd" clip-rule="evenodd" d="M1.5 3C1.5 2.17157 2.17157 1.5 3 1.5H6.38461C7.21304 1.5 7.88462 2.17157 7.88462 3V6.38461C7.88462 7.21304 7.21304 7.88462 6.38462 7.88462H3C2.17157 7.88462 1.5 7.21304 1.5 6.38462V3ZM3 2.5C2.72386 2.5 2.5 2.72386 2.5 3V6.38462C2.5 6.66076 2.72386 6.88462 3 6.88462H6.38462C6.66076 6.88462 6.88462 6.66076 6.88462 6.38461V3C6.88462 2.72386 6.66076 2.5 6.38461 2.5H3Z" fill="#0B1F35"/><path fill-rule="evenodd" clip-rule="evenodd" d="M1.5 11.3846C1.5 10.5562 2.17157 9.88464 3 9.88464H6.38461C7.21304 9.88464 7.88462 10.5562 7.88462 11.3846V14.7693C7.88462 15.5977 7.21304 16.2693 6.38462 16.2693H3C2.17157 16.2693 1.5 15.5977 1.5 14.7693V11.3846ZM3 10.8846C2.72386 10.8846 2.5 11.1085 2.5 11.3846V14.7693C2.5 15.0454 2.72386 15.2693 3 15.2693H6.38462C6.66076 15.2693 6.88462 15.0454 6.88462 14.7693V11.3846C6.88462 11.1085 6.66076 10.8846 6.38461 10.8846H3Z" fill="#0B1F35"/><path fill-rule="evenodd" clip-rule="evenodd" d="M11.3846 1.5C10.5562 1.5 9.88464 2.17157 9.88464 3V6.38462C9.88464 7.21304 10.5562 7.88462 11.3846 7.88462H14.7693C15.5977 7.88462 16.2693 7.21304 16.2693 6.38461V3C16.2693 2.17157 15.5977 1.5 14.7693 1.5H11.3846ZM10.8846 3C10.8846 2.72386 11.1085 2.5 11.3846 2.5H14.7693C15.0454 2.5 15.2693 2.72386 15.2693 3V6.38461C15.2693 6.66076 15.0454 6.88462 14.7693 6.88462H11.3846C11.1085 6.88462 10.8846 6.66076 10.8846 6.38462V3Z" fill="#0B1F35"/><path fill-rule="evenodd" clip-rule="evenodd" d="M13.1786 16C13.3166 16 13.4286 15.8881 13.4286 15.75V13.4286H15.75C15.8881 13.4286 16 13.3166 16 13.1786V12.8214C16 12.6834 15.8881 12.5714 15.75 12.5714H13.4286V10.25C13.4286 10.1119 13.3166 10 13.1786 10H12.8214C12.6834 10 12.5714 10.1119 12.5714 10.25V12.5714H10.25C10.1119 12.5714 10 12.6834 10 12.8214V13.1786C10 13.3166 10.1119 13.4286 10.25 13.4286H12.5714V15.75C12.5714 15.8881 12.6834 16 12.8214 16H13.1786Z" fill="#0B1F35"/></svg>