<svg width="18" height="18" viewBox="0 0 18 18" xmlns="http://www.w3.org/2000/svg"><g fill="none"><path opacity=".547" d="M0 0h18v18H0z"/><g fill="#FFF"><path d="M9 1.5C4.864 1.5 1.5 4.864 1.5 9s3.364 7.5 7.5 7.5 7.5-3.364 7.5-7.5S13.136 1.5 9 1.5zm0 14A6.508 6.508 0 0 1 2.5 9c0-3.584 2.916-6.5 6.5-6.5s6.5 2.916 6.5 6.5-2.916 6.5-6.5 6.5z"/><path d="M8.996 4.883c-.476 0-.871.369-.871.812 0 .453.395.822.871.822.485 0 .879-.369.879-.822 0-.443-.395-.812-.879-.812zM8.5 8.033h1V12.7h-1z"/></g></g></svg>