<svg width="18px" height="18px" viewBox="0 0 18 18" version="1.1" xmlns="http://www.w3.org/2000/svg"><g stroke="none" stroke-width="1" fill="none" fill-rule="evenodd"><rect x="0" y="0" width="18" height="18"/><circle stroke="#FFFFFF" opacity="0.900000036" cx="9" cy="9" r="7.5"/><path d="M9,6.75 C8.58578644,6.75 8.25,6.41421356 8.25,6 C8.25,5.58578644 8.58578644,5.25 9,5.25 C9.41421356,5.25 9.75,5.58578644 9.75,6 C9.75,6.41421356 9.41421356,6.75 9,6.75 Z M8.25,8.252197 C8.25,7.83677007 8.58289862,7.5 9,7.5 C9.41421356,7.5 9.75,7.84446716 9.75,8.252197 L9.75,11.997803 C9.75,12.4132299 9.41710138,12.75 9,12.75 C8.58578644,12.75 8.25,12.4055328 8.25,11.997803 L8.25,8.252197 Z" fill="#FFFFFF" opacity="0.300000012"/></g></svg>