<svg width="24" height="24" viewBox="0 0 24 24" xmlns="http://www.w3.org/2000/svg"><g fill="none" fill-rule="evenodd"><path d="M0 0h24v24H0z"/><path d="M22.436 9H12V5.5C12 2.468 9.532 0 6.5 0h-1A5.507 5.507 0 0 0 0 5.5V9h1V5.5C1 3.019 3.019 1 5.5 1h1C8.981 1 11 3.019 11 5.5V9H7.564C6.702 9 6 9.702 6 10.564v9.742A3.698 3.698 0 0 0 9.693 24h10.613A3.698 3.698 0 0 0 24 20.307v-9.742C24 9.702 23.298 9 22.436 9zM23 20.307A2.696 2.696 0 0 1 20.307 23H9.693A2.696 2.696 0 0 1 7 20.307v-9.742c0-.312.253-.565.564-.565h14.871c.312 0 .565.253.565.564v9.743z" fill="#0B1F35" fill-rule="nonzero"/><path d="M15 13c-1.1 0-2 .9-2 2 0 .7.4 1.4 1 1.7V20h2v-3.3c.6-.3 1-1 1-1.7 0-1.1-.9-2-2-2z" fill="#0F2338" fill-rule="nonzero" opacity=".3"/></g></svg>