<svg width="24" height="24" viewBox="0 0 24 24" xmlns="http://www.w3.org/2000/svg">
  <g fill="none" fill-rule="evenodd">
    <path d="M0 0h24v24H0z"/>
    <path fill="#FFF" fill-rule="nonzero" d="M.146 23.146l8.233-8.232.706.707-8.232 8.234"/>
    <path fill="#FFF" fill-rule="nonzero" opacity=".3" d="M14.34 5L9 10.338l.662.662L15 5.66"/>
    <path d="M14.534 20.295c.724-.98.842-2.304.267-3.41l-.63-1.215 5.463-5.464.34.34c.61.608 1.597.607 2.205-.002l.142-.14-8.723-8.724-.14.142c-.61.608-.61 1.595-.003 2.205l.34.34L8.33 9.83 7.115 9.2c-1.106-.576-2.43-.458-3.41.266l10.83 10.83zm1.12-3.853c.844 1.623.538 3.605-.755 4.898l-.34.34L2.32 9.44l.34-.34c1.293-1.292 3.275-1.598 4.898-.754l.59.306 4.32-4.318c-.663-.98-.56-2.324.308-3.192l.82-.822L23.68 10.403l-.822.82c-.868.87-2.21.972-3.192.31l-4.318 4.32.306.59z" fill="#FFF" fill-rule="nonzero"/>
  </g>
</svg>
