<svg xmlns="http://www.w3.org/2000/svg" width="24" height="24" viewBox="0 0 24 24" fill="none"><rect width="24" height="24" fill="none"/><path d="M4.30753 6.59327C4.1693 5.72049 4.76476 4.9009 5.63754 4.76267L16.6407 3.01993C17.5135 2.8817 18.3331 3.47716 18.4713 4.34994L19.4389 10.4589C19.5771 11.3317 18.9817 12.1513 18.1089 12.2895L7.10569 14.0323C6.23292 14.1705 5.41333 13.575 5.2751 12.7023L4.30753 6.59327Z" fill="#5C85AD"/><path d="M2 8.38158C2 7.61855 2.61318 7 3.36957 7H18.6304C19.3868 7 20 7.61855 20 8.38158V20.6184C20 21.3814 19.3868 22 18.6304 22H3.36956C2.61317 22 2 21.3814 2 20.6184V8.38158Z" fill="#A5C2D6"/><path d="M12 13.25C12 12.5596 12.6529 12 13.4583 12H20.5417C21.3471 12 22 12.5596 22 13.25V15.75C22 16.4404 21.3471 17 20.5417 17H13.4583C12.6529 17 12 16.4404 12 15.75V13.25Z" fill="#D2E0EB"/><path fill-rule="evenodd" clip-rule="evenodd" d="M19.25 15.75C19.9404 15.75 20.5 15.1904 20.5 14.5C20.5 13.8096 19.9404 13.25 19.25 13.25C18.5596 13.25 18 13.8096 18 14.5C18 15.1904 18.5596 15.75 19.25 15.75Z" fill="#5C85AD"/></svg>