<svg xmlns="http://www.w3.org/2000/svg" width="48" height="48" viewBox="0 0 48 48" fill="none"><rect width="48" height="48" fill="none"/><path d="M7.26881 11.361C7.09602 10.2701 7.84035 9.24557 8.93132 9.07278L34.4885 5.02492C35.5795 4.85212 36.604 5.59645 36.7767 6.68742L39.2097 22.0483C39.3825 23.1393 38.6381 24.1638 37.5472 24.3366L11.99 28.3844C10.899 28.5572 9.87453 27.8129 9.70174 26.7219L7.26881 11.361Z" fill="#5C85AD"/><rect x="3" y="12.9973" width="38" height="30" rx="2.4" fill="#A5C2D6"/><rect x="25" y="22.9973" width="20" height="11" rx="2.4" fill="#D2E0EB"/><path fill-rule="evenodd" clip-rule="evenodd" d="M40.5 30.9973C41.8807 30.9973 43 29.878 43 28.4973C43 27.1166 41.8807 25.9973 40.5 25.9973C39.1193 25.9973 38 27.1166 38 28.4973C38 29.878 39.1193 30.9973 40.5 30.9973Z" fill="#5C85AD"/></svg>