<svg width="18" height="18" viewBox="0 0 18 18" fill="none" xmlns="http://www.w3.org/2000/svg"><rect width="18" height="18" fill="none"/><path fill-rule="evenodd" clip-rule="evenodd" d="M14.5252 7.16873C15.4099 7.36318 16.0541 8.18138 15.9912 9.12472L15.7497 12.75V13.5C15.7497 14.1213 15.246 14.625 14.6247 14.625C14.0033 14.625 13.4997 14.1213 13.4997 13.5V13H4.49965V13.5C4.49965 14.1213 3.99597 14.625 3.37465 14.625C2.75333 14.625 2.24965 14.1213 2.24965 13.5L2.2495 12.75L2.00782 9.12472C1.94492 8.18118 2.58934 7.36285 3.47433 7.16861C3.79666 6.09965 3.98662 5.52722 4.32226 5.08489C4.70839 4.57602 5.23099 4.18719 5.82935 3.96357C6.4008 3.75 7.07216 3.75 8.41487 3.75H9.58464C10.9274 3.75 11.5987 3.75 12.1702 3.96357C12.7685 4.18719 13.2911 4.57602 13.6773 5.08489C14.0129 5.52723 14.2029 6.09969 14.5252 7.16873ZM5.65866 5.41534C5.33849 5.73126 5.18391 6.07084 4.87476 7H13.1248C12.8138 6.06887 12.6583 5.72831 12.3366 5.41228C12.2006 5.27877 12.0451 5.16676 11.8754 5.08011C11.4738 4.875 10.9829 4.875 10.0013 4.875H7.99467C7.01543 4.875 6.52581 4.875 6.12497 5.07905C5.95317 5.16651 5.79588 5.27994 5.65866 5.41534ZM13.4998 10.875C14.1211 10.875 14.6248 10.3713 14.6248 9.75C14.6248 9.12868 14.1211 8.625 13.4998 8.625C12.8784 8.625 12.3748 9.12868 12.3748 9.75C12.3748 10.3713 12.8784 10.875 13.4998 10.875ZM4.49976 10.875C5.12108 10.875 5.62476 10.3713 5.62476 9.75C5.62476 9.12868 5.12108 8.625 4.49976 8.625C3.87844 8.625 3.37476 9.12868 3.37476 9.75C3.37476 10.3713 3.87844 10.875 4.49976 10.875Z" fill="#FFF"/><path d="M0.937044 4.6875L3.37465 4.87493L2.62467 6.75L1.92824 6.4976C1.49384 6.34017 1.01579 6.16369 0.837883 5.73726C0.682933 5.36587 0.700288 4.92437 0.937044 4.6875Z" fill="#FFF"/><path d="M17.062 4.6875L14.6248 4.875L15.3747 6.75L16.0711 6.49759C16.5055 6.34016 16.9835 6.1637 17.1614 5.73729C17.3163 5.36589 17.2989 4.92438 17.062 4.6875Z" fill="#FFF"/></svg>