<svg width="24" height="24" viewBox="0 0 24 24" xmlns="http://www.w3.org/2000/svg"><g fill="none" fill-rule="evenodd"><path d="M0 0h24v24H0z"/><path d="M4.397 17.176A3.492 3.492 0 0 0 3.5 19.5C3.5 21.43 5.07 23 7 23c.925 0 1.638-.193 2.327-.38.751-.203 1.527-.414 2.673-.414 1.146 0 1.922.21 2.673.414.689.187 1.402.38 2.327.38 1.93 0 3.5-1.57 3.5-3.5 0-.849-.318-1.673-.896-2.322l-.023-.027a3.368 3.368 0 0 0-.363-.34l-4.119-3.828a.522.522 0 0 0-.029-.024A3.968 3.968 0 0 0 12 11.5c-1.188 0-2.3.529-3.066 1.455a.443.443 0 0 0-.033.028l-4.054 3.774c-.16.126-.308.262-.45.419zm1.1.34l4.017-3.737a.512.512 0 0 0 .138-.121A2.974 2.974 0 0 1 12 12.5c.915 0 1.771.422 2.349 1.158a.492.492 0 0 0 .126.11l4.087 3.797c.084.068.163.138.267.243l.028.034c.415.465.644 1.054.644 1.658 0 1.378-1.121 2.5-2.5 2.5-.791 0-1.382-.16-2.065-.345-.776-.21-1.656-.449-2.935-.449-1.279 0-2.158.238-2.935.449C8.382 21.84 7.791 22 7 22a2.503 2.503 0 0 1-2.5-2.5 2.5 2.5 0 0 1 .997-1.984zM18 11c0 1.654 1.121 3 2.5 3s2.5-1.346 2.5-3-1.121-3-2.5-3S18 9.346 18 11zm4 0c0 1.103-.673 2-1.5 2s-1.5-.897-1.5-2 .673-2 1.5-2 1.5.897 1.5 2zM18 5c0-1.654-1.121-3-2.5-3S13 3.346 13 5s1.121 3 2.5 3S18 6.654 18 5zm-4 0c0-1.103.673-2 1.5-2s1.5.897 1.5 2-.673 2-1.5 2S14 6.103 14 5zM3.5 14C4.879 14 6 12.654 6 11S4.879 8 3.5 8 1 9.346 1 11s1.121 3 2.5 3zm0-5c.827 0 1.5.897 1.5 2s-.673 2-1.5 2S2 12.103 2 11s.673-2 1.5-2zM11 5c0-1.654-1.121-3-2.5-3S6 3.346 6 5s1.121 3 2.5 3S11 6.654 11 5zM7 5c0-1.103.673-2 1.5-2s1.5.897 1.5 2-.673 2-1.5 2S7 6.103 7 5z" fill="#FFF"/></g></svg>