<svg width="48" height="48" viewBox="0 0 48 48" xmlns="http://www.w3.org/2000/svg"><g fill="none" fill-rule="evenodd"><path d="M0 0h48v48H0z"/><path d="M9.893 33.667A6.01 6.01 0 0 0 8 38.031c0 3.309 2.691 6 6 6 .256 0 .505-.021.728-.049 1.406-.109 2.577-.5 3.817-.916C20.111 42.542 21.731 42 24 42s3.889.542 5.455 1.066c1.24.415 2.411.807 3.793.913.247.031.496.052.752.052 3.309 0 6-2.691 6-6a5.968 5.968 0 0 0-1.676-4.153l-.001.001c-.012-.015-.023-.029-.037-.042a4.145 4.145 0 0 0-.184-.176l-9.275-8.83a.385.385 0 0 0-.075-.058A7.27 7.27 0 0 0 24 23a7.27 7.27 0 0 0-4.747 1.769.543.543 0 0 0-.081.062L9.92 33.638a.244.244 0 0 0-.027.029zm.751.663l8.878-8.45.126-.121.159-.151a.478.478 0 0 0 .05-.039A6.268 6.268 0 0 1 24 24c1.522 0 2.994.557 4.144 1.569a.608.608 0 0 0 .048.037l.169.16.07-.075a.47.47 0 0 0 .053.003l.221-.291-.228.474 9.099 8.662.028.032A4.978 4.978 0 0 1 39 38.031c0 2.757-2.243 5-5 5-.213 0-.421-.018-.651-.046-1.282-.099-2.396-.472-3.576-.867C28.206 41.594 26.432 41 24 41c-2.432 0-4.206.594-5.772 1.118-1.18.395-2.294.768-3.601.869a4.988 4.988 0 0 1-.627.044c-2.757 0-5-2.243-5-5a4.95 4.95 0 0 1 1.644-3.701zM36 20.5c0 3.033 2.019 5.5 4.5 5.5s4.5-2.467 4.5-5.5-2.019-5.5-4.5-5.5-4.5 2.467-4.5 5.5zm8 0c0 2.481-1.57 4.5-3.5 4.5S37 22.981 37 20.5s1.57-4.5 3.5-4.5 3.5 2.019 3.5 4.5zM35 10.5C35 7.467 32.981 5 30.5 5S26 7.467 26 10.5s2.019 5.5 4.5 5.5 4.5-2.467 4.5-5.5zm-8 0C27 8.019 28.57 6 30.5 6S34 8.019 34 10.5 32.43 15 30.5 15 27 12.981 27 10.5zM7.5 26c2.481 0 4.5-2.467 4.5-5.5S9.981 15 7.5 15 3 17.467 3 20.5 5.019 26 7.5 26zm0-10c1.93 0 3.5 2.019 3.5 4.5S9.43 25 7.5 25 4 22.981 4 20.5 5.57 16 7.5 16zM23 10.5C23 7.467 20.981 5 18.5 5S14 7.467 14 10.5s2.019 5.5 4.5 5.5 4.5-2.467 4.5-5.5zm-8 0C15 8.019 16.57 6 18.5 6S22 8.019 22 10.5 20.43 15 18.5 15 15 12.981 15 10.5z" fill="#0B1F35"/><path d="M19.995 33.073l10.609 1.904c.971.174 1.581-1.013.874-1.701l-5.635-5.484a2 2 0 0 0-2.809.019l-3.57 3.57a1 1 0 0 0 .531 1.692z" fill="#0B1F35" opacity=".3"/></g></svg>