<?xml version="1.0" encoding="UTF-8"?>
<svg width="36px" height="36px" viewBox="0 0 36 36" version="1.1" xmlns="http://www.w3.org/2000/svg" xmlns:xlink="http://www.w3.org/1999/xlink">
    <!-- Generator: Sketch 48.2 (47327) - http://www.bohemiancoding.com/sketch -->
    <title>icon_category-pets_xl_black</title>
    <desc>Created with Sketch.</desc>
    <defs></defs>
    <g id="mobile" stroke="none" stroke-width="1" fill="none" fill-rule="evenodd" transform="translate(-1539.000000, -678.000000)">
        <g id="Headings" transform="translate(64.000000, 77.000000)">
            <g id="icon_category_pets__xl__white" transform="translate(1475.000000, 601.000000)">
                <g id="ungroup">
                    <rect id="Rectangle-path" x="0" y="0" width="36" height="36"></rect>
                    <g id="a1" opacity="0.4"></g>
                    <path d="M6.335,24.558 C5.475,25.498 5,26.695 5,27.929 C5,30.725 7.327,33 10.188,33 C11.593,33 12.639,32.724 13.748,32.431 C14.94,32.116 16.172,31.79 18.001,31.79 C19.83,31.79 21.062,32.116 22.254,32.431 C23.361,32.724 24.407,33 25.812,33 C28.673,33 31,30.725 31,27.929 C31,26.696 30.525,25.498 29.665,24.558 L29.664,24.558 C29.654,24.546 29.644,24.534 29.634,24.522 C29.456,24.331 29.261,24.159 29.081,24.018 L22.644,18.185 C22.629,18.172 22.613,18.159 22.595,18.148 C21.45,16.781 19.781,16 18,16 C16.221,16 14.555,16.779 13.409,18.141 C13.389,18.154 13.371,18.169 13.353,18.185 L7.003,23.95 C6.754,24.141 6.538,24.336 6.335,24.558 L6.335,24.558 Z M7.643,24.717 L13.943,19.001 C14.005,18.969 14.061,18.925 14.106,18.869 C15.062,17.681 16.481,17 18,17 C19.519,17 20.938,17.681 21.895,18.869 C21.934,18.916 21.984,18.956 22.041,18.986 L28.436,24.78 C28.58,24.893 28.717,25.011 28.889,25.183 C28.901,25.2 28.914,25.216 28.928,25.231 C29.619,25.988 30,26.946 30,27.929 C30,30.174 28.121,32 25.812,32 C24.537,32 23.551,31.74 22.507,31.464 C21.313,31.148 19.959,30.79 18,30.79 C16.041,30.79 14.687,31.148 13.492,31.464 C12.448,31.74 11.463,32 10.188,32 C7.879,32 6,30.174 6,27.929 C6,26.947 6.381,25.989 7.079,25.226 C7.235,25.056 7.409,24.899 7.643,24.717 L7.643,24.717 Z" id="Shape" fill="#0B1F35"></path>
                    <path d="M16,6.5 C16,4.019 14.43,2 12.5,2 C10.57,2 9,4.019 9,6.5 C9,8.981 10.57,11 12.5,11 C14.43,11 16,8.981 16,6.5 L16,6.5 Z M10,6.5 C10,4.57 11.121,3 12.5,3 C13.879,3 15,4.57 15,6.5 C15,8.43 13.879,10 12.5,10 C11.121,10 10,8.43 10,6.5 L10,6.5 Z" id="Shape" fill="#0B1F35"></path>
                    <path d="M26,6.5 C26,4.019 24.43,2 22.5,2 C20.57,2 19,4.019 19,6.5 C19,8.981 20.57,11 22.5,11 C24.43,11 26,8.981 26,6.5 L26,6.5 Z M20,6.5 C20,4.57 21.121,3 22.5,3 C23.879,3 25,4.57 25,6.5 C25,8.43 23.879,10 22.5,10 C21.121,10 20,8.43 20,6.5 L20,6.5 Z" id="Shape" fill="#0B1F35"></path>
                    <path d="M27,14.5 C27,16.981 28.57,19 30.5,19 C32.43,19 34,16.981 34,14.5 C34,12.019 32.43,10 30.5,10 C28.57,10 27,12.019 27,14.5 L27,14.5 Z M33,14.5 C33,16.43 31.879,18 30.5,18 C29.121,18 28,16.43 28,14.5 C28,12.57 29.121,11 30.5,11 C31.879,11 33,12.57 33,14.5 L33,14.5 Z" id="Shape" fill="#0B1F35"></path>
                    <path d="M5.5,19 C7.43,19 9,16.981 9,14.5 C9,12.019 7.43,10 5.5,10 C3.57,10 2,12.019 2,14.5 C2,16.981 3.57,19 5.5,19 L5.5,19 Z M5.5,11 C6.879,11 8,12.57 8,14.5 C8,16.43 6.879,18 5.5,18 C4.121,18 3,16.43 3,14.5 C3,12.57 4.121,11 5.5,11 L5.5,11 Z" id="Shape" fill="#0B1F35"></path>
                    <path d="M14.442,23.981 L23.674,25.638 C24.159,25.725 24.464,25.131 24.111,24.788 L18.946,19.762 C18.554,19.381 17.928,19.385 17.541,19.772 L14.176,23.137 C13.891,23.421 14.044,23.91 14.442,23.981 L14.442,23.981 Z" id="Shape" fill="#0B1F35" opacity="0.3"></path>
                </g>
            </g>
        </g>
    </g>
</svg>