<?xml version="1.0" encoding="UTF-8"?>
<svg width="48px" height="48px" viewBox="0 0 48 48" version="1.1" xmlns="http://www.w3.org/2000/svg" xmlns:xlink="http://www.w3.org/1999/xlink">
    <!-- Generator: Sketch 48.2 (47327) - http://www.bohemiancoding.com/sketch -->
    <title>icon_category-pets_xxl_black</title>
    <desc>Created with Sketch.</desc>
    <defs></defs>
    <g id="mobile" stroke="none" stroke-width="1" fill="none" fill-rule="evenodd" transform="translate(-1615.000000, -678.000000)">
        <g id="Headings" transform="translate(64.000000, 77.000000)">
            <g id="icon_category_pets__xxl__white" transform="translate(1551.000000, 601.000000)">
                <g id="ungroup">
                    <rect id="Rectangle-path" x="0" y="0" width="48" height="48"></rect>
                    <g id="a1" opacity="0.4"></g>
                    <path d="M9.893,33.667 C8.689,34.799 8,36.387 8,38.031 C8,41.34 10.691,44.031 14,44.031 C14.256,44.031 14.505,44.01 14.728,43.982 C16.134,43.873 17.305,43.482 18.545,43.066 C20.111,42.542 21.731,42 24,42 C26.269,42 27.889,42.542 29.455,43.066 C30.695,43.481 31.866,43.873 33.248,43.979 C33.495,44.01 33.744,44.031 34,44.031 C37.309,44.031 40,41.34 40,38.031 C40,36.478 39.405,35.003 38.324,33.878 L38.323,33.879 C38.311,33.864 38.3,33.85 38.286,33.837 C38.241,33.79 38.193,33.745 38.102,33.661 L28.827,24.831 C28.805,24.809 28.779,24.789 28.752,24.773 C27.427,23.629 25.742,23 24,23 C22.26,23 20.576,23.628 19.253,24.769 C19.224,24.787 19.197,24.808 19.172,24.831 L9.92,33.638 C9.91,33.647 9.901,33.657 9.893,33.667 L9.893,33.667 Z M10.644,34.33 L19.522,25.88 C19.526,25.877 19.644,25.763 19.648,25.759 L19.807,25.608 C19.825,25.596 19.841,25.583 19.857,25.569 C21.006,24.557 22.478,24 24,24 C25.522,24 26.994,24.557 28.144,25.569 C28.159,25.582 28.175,25.594 28.192,25.606 L28.361,25.766 L28.431,25.691 C28.449,25.693 28.466,25.694 28.484,25.694 L28.705,25.403 L28.477,25.877 L37.576,34.539 C37.585,34.55 37.595,34.56 37.604,34.571 C38.504,35.509 39,36.738 39,38.031 C39,40.788 36.757,43.031 34,43.031 C33.787,43.031 33.579,43.013 33.349,42.985 C32.067,42.886 30.953,42.513 29.773,42.118 C28.206,41.594 26.432,41 24,41 C21.568,41 19.794,41.594 18.228,42.118 C17.048,42.513 15.934,42.886 14.627,42.987 C14.421,43.013 14.213,43.031 14,43.031 C11.243,43.031 9,40.788 9,38.031 C9,36.628 9.571,35.326 10.607,34.366 C10.62,34.355 10.632,34.343 10.644,34.33 L10.644,34.33 Z" id="Shape" fill="#0B1F35"></path>
                    <path d="M36,20.5 C36,23.533 38.019,26 40.5,26 C42.981,26 45,23.533 45,20.5 C45,17.467 42.981,15 40.5,15 C38.019,15 36,17.467 36,20.5 L36,20.5 Z M44,20.5 C44,22.981 42.43,25 40.5,25 C38.57,25 37,22.981 37,20.5 C37,18.019 38.57,16 40.5,16 C42.43,16 44,18.019 44,20.5 L44,20.5 Z" id="Shape" fill="#0B1F35"></path>
                    <path d="M35,10.5 C35,7.467 32.981,5 30.5,5 C28.019,5 26,7.467 26,10.5 C26,13.533 28.019,16 30.5,16 C32.981,16 35,13.533 35,10.5 L35,10.5 Z M27,10.5 C27,8.019 28.57,6 30.5,6 C32.43,6 34,8.019 34,10.5 C34,12.981 32.43,15 30.5,15 C28.57,15 27,12.981 27,10.5 L27,10.5 Z" id="Shape" fill="#0B1F35"></path>
                    <path d="M7.5,26 C9.981,26 12,23.533 12,20.5 C12,17.467 9.981,15 7.5,15 C5.019,15 3,17.467 3,20.5 C3,23.533 5.019,26 7.5,26 L7.5,26 Z M7.5,16 C9.43,16 11,18.019 11,20.5 C11,22.981 9.43,25 7.5,25 C5.57,25 4,22.981 4,20.5 C4,18.019 5.57,16 7.5,16 L7.5,16 Z" id="Shape" fill="#0B1F35"></path>
                    <path d="M23,10.5 C23,7.467 20.981,5 18.5,5 C16.019,5 14,7.467 14,10.5 C14,13.533 16.019,16 18.5,16 C20.981,16 23,13.533 23,10.5 L23,10.5 Z M15,10.5 C15,8.019 16.57,6 18.5,6 C20.43,6 22,8.019 22,10.5 C22,12.981 20.43,15 18.5,15 C16.57,15 15,12.981 15,10.5 L15,10.5 Z" id="Shape" fill="#0B1F35"></path>
                    <path d="M19.995,33.073 L30.604,34.977 C31.575,35.151 32.185,33.964 31.478,33.276 L25.843,27.792 C25.059,27.029 23.807,27.038 23.034,27.811 L19.464,31.381 C18.893,31.953 19.2,32.931 19.995,33.073 L19.995,33.073 Z" id="Shape" fill="#0B1F35" opacity="0.3"></path>
                </g>
            </g>
        </g>
    </g>
</svg>