<svg xmlns="http://www.w3.org/2000/svg" width="42" height="40" viewBox="0 0 42 40"><g fill="none" fill-rule="evenodd"><path d="M-3-5h48v48H-3z"/><path fill="#FFF" d="M6.893 28.667A6.01 6.01 0 0 0 5 33.031c0 3.309 2.691 6 6 6 .256 0 .505-.021.728-.049 1.406-.109 2.577-.5 3.817-.916C17.111 37.542 18.731 37 21 37s3.889.542 5.455 1.066c1.24.415 2.411.807 3.793.913.247.031.496.052.752.052 3.309 0 6-2.691 6-6a5.968 5.968 0 0 0-1.676-4.153l-.001.001c-.012-.015-.023-.029-.037-.042a4.145 4.145 0 0 0-.184-.176l-9.275-8.83a.385.385 0 0 0-.075-.058A7.27 7.27 0 0 0 21 18a7.27 7.27 0 0 0-4.747 1.769.543.543 0 0 0-.081.062L6.92 28.638a.244.244 0 0 0-.027.029zm.751.663l8.878-8.45.126-.121.159-.151a.478.478 0 0 0 .05-.039A6.268 6.268 0 0 1 21 19c1.522 0 2.994.557 4.144 1.569a.608.608 0 0 0 .048.037l.169.16.07-.075a.47.47 0 0 0 .053.003l.221-.291-.228.474 9.099 8.662.028.032A4.978 4.978 0 0 1 36 33.031c0 2.757-2.243 5-5 5-.213 0-.421-.018-.651-.046-1.282-.099-2.396-.472-3.576-.867C25.206 36.594 23.432 36 21 36c-2.432 0-4.206.594-5.772 1.118-1.18.395-2.294.768-3.601.869a4.988 4.988 0 0 1-.627.044c-2.757 0-5-2.243-5-5a4.95 4.95 0 0 1 1.644-3.701zM33 15.5c0 3.033 2.019 5.5 4.5 5.5s4.5-2.467 4.5-5.5-2.019-5.5-4.5-5.5-4.5 2.467-4.5 5.5zm8 0c0 2.481-1.57 4.5-3.5 4.5S34 17.981 34 15.5s1.57-4.5 3.5-4.5 3.5 2.019 3.5 4.5zm-9-10C32 2.467 29.981 0 27.5 0S23 2.467 23 5.5s2.019 5.5 4.5 5.5S32 8.533 32 5.5zm-8 0C24 3.019 25.57 1 27.5 1S31 3.019 31 5.5 29.43 10 27.5 10 24 7.981 24 5.5zM4.5 21C6.981 21 9 18.533 9 15.5S6.981 10 4.5 10 0 12.467 0 15.5 2.019 21 4.5 21zm0-10C6.43 11 8 13.019 8 15.5S6.43 20 4.5 20 1 17.981 1 15.5 2.57 11 4.5 11zM20 5.5C20 2.467 17.981 0 15.5 0S11 2.467 11 5.5s2.019 5.5 4.5 5.5S20 8.533 20 5.5zm-8 0C12 3.019 13.57 1 15.5 1S19 3.019 19 5.5 17.43 10 15.5 10 12 7.981 12 5.5z"/><path fill="#FFF" d="M16.995 28.073l10.609 1.904c.971.174 1.581-1.013.874-1.701l-5.635-5.484a2 2 0 0 0-2.809.019l-3.57 3.57a1 1 0 0 0 .531 1.692z" opacity=".3"/></g></svg>