<svg xmlns="http://www.w3.org/2000/svg" width="24" height="24" viewBox="0 0 24 24"><path fill="none" d="M0 0h24v24H0z"/><path fill="#0B1F35" d="M17 23a8.34 8.34 0 0 1-2.33-.38 9.3 9.3 0 0 0-2.67-.41 9.3 9.3 0 0 0-2.67.41A8.34 8.34 0 0 1 7 23a3.49 3.49 0 0 1-2.6-5.82 3.56 3.56 0 0 1 .45-.42L8.9 13a4 4 0 0 1 6.14 0l4.12 3.83a3.35 3.35 0 0 1 .36.34A3.49 3.49 0 0 1 17 23zm-5-1.79a10.26 10.26 0 0 1 2.93.45A7.33 7.33 0 0 0 17 22a2.49 2.49 0 0 0 1.86-4.16 3 3 0 0 0-.27-.24l-4.09-3.8a.5.5 0 0 1-.13-.11 3 3 0 0 0-4.7 0 .51.51 0 0 1-.14.12l-4 3.74a2.89 2.89 0 0 0-.35.32A2.49 2.49 0 0 0 7 22a7.33 7.33 0 0 0 2.07-.35 10.26 10.26 0 0 1 2.93-.44zM20.5 14a2.79 2.79 0 0 1-2.5-3 2.79 2.79 0 0 1 2.5-3 2.79 2.79 0 0 1 2.5 3 2.79 2.79 0 0 1-2.5 3zm0-5a1.81 1.81 0 0 0-1.5 2 1.81 1.81 0 0 0 1.5 2 1.81 1.81 0 0 0 1.5-2 1.81 1.81 0 0 0-1.5-2zm-5-1A2.79 2.79 0 0 1 13 5a2.79 2.79 0 0 1 2.5-3A2.79 2.79 0 0 1 18 5a2.79 2.79 0 0 1-2.5 3zm0-5A1.81 1.81 0 0 0 14 5a1.81 1.81 0 0 0 1.5 2A1.81 1.81 0 0 0 17 5a1.81 1.81 0 0 0-1.5-2zm-12 11A2.79 2.79 0 0 1 1 11a2.79 2.79 0 0 1 2.5-3A2.79 2.79 0 0 1 6 11a2.79 2.79 0 0 1-2.5 3zm0-5A1.81 1.81 0 0 0 2 11a1.81 1.81 0 0 0 1.5 2A1.81 1.81 0 0 0 5 11a1.81 1.81 0 0 0-1.5-2zm5-1A2.79 2.79 0 0 1 6 5a2.79 2.79 0 0 1 2.5-3A2.79 2.79 0 0 1 11 5a2.79 2.79 0 0 1-2.5 3zm0-5A1.81 1.81 0 0 0 7 5a1.81 1.81 0 0 0 1.5 2A1.81 1.81 0 0 0 10 5a1.81 1.81 0 0 0-1.5-2z"/></svg>