<svg xmlns="http://www.w3.org/2000/svg" width="36" height="36" viewBox="0 0 36 36"><path fill="none" d="M0 0h36v36H0z"/><path fill="#fff" d="M25.81 33a12.91 12.91 0 0 1-3.56-.57 15.1 15.1 0 0 0-4.25-.64 15.1 15.1 0 0 0-4.25.64 12.91 12.91 0 0 1-3.56.57A5.14 5.14 0 0 1 5 27.93a5 5 0 0 1 1.33-3.37A5.08 5.08 0 0 1 7 24l6.35-5.77h.06a6 6 0 0 1 9.19 0L29.08 24a5 5 0 0 1 .55.5A5 5 0 0 1 31 27.93 5.14 5.14 0 0 1 25.81 33zM18 30.79a16.14 16.14 0 0 1 4.51.67 12.11 12.11 0 0 0 3.3.54A4.14 4.14 0 0 0 30 27.93a4 4 0 0 0-1.07-2.7 4.9 4.9 0 0 0-.45-.4L22 19a.48.48 0 0 1-.15-.12 5 5 0 0 0-7.79 0 .5.5 0 0 1-.16.13l-6.3 5.72a4.46 4.46 0 0 0-.56.51A4 4 0 0 0 6 27.93 4.14 4.14 0 0 0 10.19 32a12.11 12.11 0 0 0 3.3-.54 16.14 16.14 0 0 1 4.51-.67zM12.5 11C10.57 11 9 9 9 6.5S10.57 2 12.5 2 16 4 16 6.5 14.43 11 12.5 11zm0-8C11.12 3 10 4.57 10 6.5s1.12 3.5 2.5 3.5S15 8.43 15 6.5 13.88 3 12.5 3zm10 8C20.57 11 19 9 19 6.5S20.57 2 22.5 2 26 4 26 6.5 24.43 11 22.5 11zm0-8C21.12 3 20 4.57 20 6.5s1.12 3.5 2.5 3.5S25 8.43 25 6.5 23.88 3 22.5 3zm8 16c-1.93 0-3.5-2-3.5-4.5s1.57-4.5 3.5-4.5 3.5 2 3.5 4.5-1.57 4.5-3.5 4.5zm0-8c-1.38 0-2.5 1.57-2.5 3.5s1.12 3.5 2.5 3.5 2.5-1.57 2.5-3.5-1.12-3.5-2.5-3.5zm-25 8C3.57 19 2 17 2 14.5S3.57 10 5.5 10 9 12 9 14.5 7.43 19 5.5 19zm0-8C4.12 11 3 12.57 3 14.5S4.12 18 5.5 18 8 16.43 8 14.5 6.88 11 5.5 11z"/><path fill="#fff" d="M14.18 23.14l3.36-3.36a1 1 0 0 1 1.4 0l5.16 5a.5.5 0 0 1-.44.85L14.44 24a.5.5 0 0 1-.26-.86z" opacity=".3"/></svg>