<svg width="36" height="36" viewBox="0 0 36 36" xmlns="http://www.w3.org/2000/svg"><g fill="none" fill-rule="evenodd"><path d="M0 0h36v36H0z"/><path d="M6.335 24.558C5.475 25.498 5 26.695 5 27.929 5 30.725 7.327 33 10.188 33c1.405 0 2.451-.276 3.56-.569 1.192-.315 2.424-.641 4.253-.641 1.829 0 3.061.326 4.253.641 1.107.293 2.153.569 3.558.569C28.673 33 31 30.725 31 27.929a4.999 4.999 0 0 0-1.335-3.371h-.001l-.03-.036a4.874 4.874 0 0 0-.553-.504l-6.437-5.833a.37.37 0 0 0-.049-.037A5.97 5.97 0 0 0 18 16a5.977 5.977 0 0 0-4.591 2.141.471.471 0 0 0-.056.044l-6.35 5.765a5.056 5.056 0 0 0-.668.608zm1.308.159l6.3-5.716a.505.505 0 0 0 .163-.132A4.977 4.977 0 0 1 18 17a4.98 4.98 0 0 1 3.895 1.869.48.48 0 0 0 .146.117l6.395 5.794c.144.113.281.231.453.403a.454.454 0 0 0 .039.048A4.007 4.007 0 0 1 30 27.929C30 30.174 28.121 32 25.812 32c-1.275 0-2.261-.26-3.305-.536-1.194-.316-2.548-.674-4.507-.674-1.959 0-3.313.358-4.508.674-1.044.276-2.029.536-3.304.536C7.879 32 6 30.174 6 27.929c0-.982.381-1.94 1.079-2.703.156-.17.33-.327.564-.509zM16 6.5C16 4.019 14.43 2 12.5 2S9 4.019 9 6.5s1.57 4.5 3.5 4.5S16 8.981 16 6.5zm-6 0C10 4.57 11.121 3 12.5 3S15 4.57 15 6.5 13.879 10 12.5 10 10 8.43 10 6.5zM26 6.5C26 4.019 24.43 2 22.5 2S19 4.019 19 6.5s1.57 4.5 3.5 4.5S26 8.981 26 6.5zm-6 0C20 4.57 21.121 3 22.5 3S25 4.57 25 6.5 23.879 10 22.5 10 20 8.43 20 6.5zM27 14.5c0 2.481 1.57 4.5 3.5 4.5s3.5-2.019 3.5-4.5-1.57-4.5-3.5-4.5-3.5 2.019-3.5 4.5zm6 0c0 1.93-1.121 3.5-2.5 3.5S28 16.43 28 14.5s1.121-3.5 2.5-3.5 2.5 1.57 2.5 3.5zM5.5 19C7.43 19 9 16.981 9 14.5S7.43 10 5.5 10 2 12.019 2 14.5 3.57 19 5.5 19zm0-8C6.879 11 8 12.57 8 14.5S6.879 18 5.5 18 3 16.43 3 14.5 4.121 11 5.5 11z" fill="#0B1F35"/><path d="M14.442 23.981l9.232 1.657c.485.087.79-.507.437-.85l-5.165-5.026a1 1 0 0 0-1.405.01l-3.365 3.365a.499.499 0 0 0 .266.844z" fill="#0B1F35" opacity=".3"/></g></svg>