<svg xmlns="http://www.w3.org/2000/svg" width="36" height="36" version="1" viewBox="0 0 36 36"><path fill="#FFFFFF" d="M3 21.5C3 23.43 4.57 25 6.5 25H10v8h16v-8h3.5c1.93 0 3.5-1.57 3.5-3.5v-10C33 9.57 31.43 8 29.5 8H25V3H11v5H6.5C4.57 8 3 9.57 3 11.5v10zM25 32H11V19h14v13zM24 4v9H12V4h12zM4 11.5C4 10.121 5.121 9 6.5 9H11v4H8.5v1h19v-1H25V9h4.5c1.379 0 2.5 1.121 2.5 2.5v10c0 1.379-1.121 2.5-2.5 2.5H26v-6H10v6H6.5A2.502 2.502 0 0 1 4 21.5v-10z"/><path fill="#FFFFFF" d="M13 25h10v1H13zm0 3h8v1h-8zm0-6h6v1h-6z"/></svg>
