<svg xmlns="http://www.w3.org/2000/svg" width="30" height="30" version="1" viewBox="0 0 30 30"><path fill="#0B1F35" d="M2 17.5C2 18.879 3.121 20 4.5 20H8v7h14v-7h3.5c1.379 0 2.5-1.121 2.5-2.5v-9C28 7.121 26.879 6 25.5 6H21V2H9v4H4.5A2.502 2.502 0 0 0 2 8.5v9zM21 26H9v-9h12v9zM10 3h10v7H10V3zM3 8.5C3 7.673 3.673 7 4.5 7H9v3H6.99v1h16v-1H21V7h4.5c.827 0 1.5.673 1.5 1.5v9c0 .827-.673 1.5-1.5 1.5H22v-3H8v3H4.5c-.827 0-1.5-.673-1.5-1.5v-9z"/><path fill="#0B1F35" d="M11 19h8v1h-8zm0 3h6v1h-6z"/></svg>