<svg xmlns="http://www.w3.org/2000/svg" width="24" height="24" viewBox="0 0 24 24"><g fill="none" fill-rule="evenodd"><path d="M0 0h24v24H0z"/><path fill="#0B1F35" fill-rule="nonzero" d="M10.262 6.315a5.944 5.944 0 1 0 3.473-.001l-.293.956a4.93 4.93 0 0 1 3.286 3.284 4.947 4.947 0 0 1-4.82 6.391 4.946 4.946 0 0 1-1.354-9.673l-.292-.957z" opacity=".3"/><path fill="#0B1F35" fill-rule="nonzero" d="M11.5 6.037v6.222h1V6.037z"/><path fill="#0B1F35" fill-rule="nonzero" d="M12 23.5C5.649 23.5.5 18.351.5 12S5.649.5 12 .5 23.5 5.649 23.5 12 18.351 23.5 12 23.5zm0-1c5.799 0 10.5-4.701 10.5-10.5S17.799 1.5 12 1.5 1.5 6.201 1.5 12 6.201 22.5 12 22.5z"/></g></svg>