<svg width="24px" height="24px" viewBox="0 0 24 24" version="1.1" xmlns="http://www.w3.org/2000/svg"><g stroke="none" stroke-width="1" fill="none" fill-rule="evenodd"><polygon points="0 0 24 0 24 24 0 24"/><path d="M10.262,6.315 C7.44693117,7.17580422 5.68597174,9.96742929 6.1215747,12.87876 C6.55717765,15.7900907 9.05810992,17.9440374 12.0018483,17.9431898 C14.9455867,17.9423422 17.4452782,15.7869556 17.8792045,12.8753746 C18.3131308,9.96379348 16.5505641,7.17318297 13.735,6.314 L13.442,7.27 C15.0167789,7.74763134 16.24941,8.97951217 16.728,10.554 C17.1905224,12.0686377 16.8999259,13.7131623 15.946332,14.9775645 C14.9927381,16.2419667 13.4914293,16.9733896 11.908,16.945 C9.47907764,16.8967205 7.44482398,15.0915656 7.10804628,12.6856197 C6.77126858,10.2796739 8.23168765,7.98534431 10.554,7.272 L10.262,6.315 Z" fill="#FFFFFF" fill-rule="nonzero" opacity="0.3"/><polygon fill="#FFFFFF" fill-rule="nonzero" points="11.5 6.037 11.5 12.259 12.5 12.259 12.5 6.037"/><path d="M12,23.5 C5.649,23.5 0.5,18.351 0.5,12 C0.5,5.649 5.649,0.5 12,0.5 C18.351,0.5 23.5,5.649 23.5,12 C23.5,18.351 18.351,23.5 12,23.5 Z M12,22.5 C17.799,22.5 22.5,17.799 22.5,12 C22.5,6.201 17.799,1.5 12,1.5 C6.201,1.5 1.5,6.201 1.5,12 C1.5,17.799 6.201,22.5 12,22.5 Z" fill="#FFFFFF" fill-rule="nonzero"/></g></svg>