<svg width="36" height="36" viewBox="0 0 36 36" fill="none" xmlns="http://www.w3.org/2000/svg"><rect width="36" height="36" fill="none"/><path opacity="0.3" d="M15.393 9.47318C11.1704 10.7644 8.52895 14.9518 9.18236 19.3188C9.83576 23.6858 13.5872 26.9167 18.0028 26.9155C22.4184 26.9142 26.1679 23.6811 26.8188 19.3137C27.4697 14.9464 24.8258 10.7605 20.6025 9.47168L20.163 10.9057C22.5252 11.6221 24.3741 13.4699 25.092 15.8317C25.7858 18.1036 25.3499 20.5704 23.9195 22.467C22.4891 24.3636 20.2371 25.4608 17.862 25.4182C14.2186 25.3458 11.1672 22.638 10.6621 19.0291C10.1569 15.4202 12.3475 11.9787 15.831 10.9087L15.393 9.47318Z" fill="#0B1F35"/><path d="M17.25 9.05566V18.3887H18.75V9.05566H17.25Z" fill="#0B1F35"/><path d="M18 35.25C8.4735 35.25 0.75 27.5265 0.75 18C0.75 8.4735 8.4735 0.75 18 0.75C27.5265 0.75 35.25 8.4735 35.25 18C35.25 27.5265 27.5265 35.25 18 35.25ZM18 33.75C26.6985 33.75 33.75 26.6985 33.75 18C33.75 9.3015 26.6985 2.25 18 2.25C9.3015 2.25 2.25 9.3015 2.25 18C2.25 26.6985 9.3015 33.75 18 33.75Z" fill="#0B1F35"/></svg>