<?xml version="1.0" encoding="UTF-8"?>
<svg width="24px" height="24px" viewBox="0 0 24 24" version="1.1" xmlns="http://www.w3.org/2000/svg" xmlns:xlink="http://www.w3.org/1999/xlink">
    <!-- Generator: Sketch 48.2 (47327) - http://www.bohemiancoding.com/sketch -->
    <title>icon_account-usd_m_white</title>
    <desc>Created with Sketch.</desc>
    <defs></defs>
    <g id="mobile" stroke="none" stroke-width="1" fill="none" fill-rule="evenodd" transform="translate(-292.000000, -261.000000)">
        <g id="Headings" transform="translate(64.000000, 77.000000)"></g>
        <g id="icon_tool_account_usd__m__white" transform="translate(292.000000, 261.000000)">
            <g id="ungroup">
                <rect id="Rectangle-path" x="0" y="0" width="24" height="24"></rect>
                <path d="M19,23 L5,23 C3.9,23 3,22.1 3,21 L3,3 C3,1.9 3.9,1 5,1 L15.7,1 L21,6.3 L21,21 C21,22.1 20.1,23 19,23 L19,23 Z M5,2 C4.4,2 4,2.4 4,3 L4,21 C4,21.6 4.4,22 5,22 L19,22 C19.6,22 20,21.6 20,21 L20,6.7 L15.3,2 L5,2 L5,2 Z" id="Shape" fill="#FFFFFF"></path>
                <g id="Group" opacity="0.3" transform="translate(7.000000, 6.000000)" fill="#FFFFFF">
                    <path d="M5.4,6.1 L5,6 L5,2 C6.3,2.1 7.2,2.9 7.3,4 L8.3,4 C8.2,2.4 6.9,1.2 5,1.1 L5,0 L4,0 L4,1.1 C2.2,1.3 1,2.5 1,4 C1,5.4 1.9,6.2 3.9,6.7 L4,6.7 L4,11 C2.7,10.8 1.8,10 1.7,8.9 L0.7,8.9 C0.8,10.6 2.1,11.7 4,11.9 L4,12.9 L5,12.9 L5,11.9 C7.1,11.8 8.5,10.6 8.5,8.8 C8.5,7.5 7.6,6.7 5.4,6.1 L5.4,6.1 Z M2,4 C2,3 2.8,2.2 4,2 L4,5.7 C2.6,5.3 2,4.8 2,4 L2,4 Z M5,11.1 L5,7 L5.2,7 C6.8,7.4 7.5,8 7.5,9 C7.4,10.2 6.4,11 5,11.1 L5,11.1 Z" id="Shape"></path>
                </g>
            </g>
        </g>
    </g>
</svg>