<svg width="18" height="18" viewBox="0 0 18 18" fill="none" xmlns="http://www.w3.org/2000/svg"><rect width="18" height="18" fill="none"/><path fill-rule="evenodd" clip-rule="evenodd" d="M14.25 17.25H3.75C2.925 17.25 2.25 16.575 2.25 15.75V2.25C2.25 1.425 2.925 0.75 3.75 0.75H11.775L15.75 4.725V15.75C15.75 16.575 15.075 17.25 14.25 17.25ZM3.75 1.5C3.3 1.5 3 1.8 3 2.25V15.75C3 16.2 3.3 16.5 3.75 16.5H14.25C14.7 16.5 15 16.2 15 15.75V5.025L11.475 1.5H3.75Z" fill="white"/><path opacity="0.3" fill-rule="evenodd" clip-rule="evenodd" d="M9.61538 9.11046L9.30769 9.03488V6.01163C10.3077 6.08721 11 6.69186 11.0769 7.52326H11.8462C11.7692 6.31395 10.7692 5.40698 9.30769 5.3314V4.5H8.53846V5.3314C7.15385 5.48256 6.23077 6.38953 6.23077 7.52326C6.23077 8.5814 6.92308 9.18605 8.46154 9.56395H8.53846V12.814C7.53846 12.6628 6.84615 12.0581 6.76923 11.2267H6C6.07692 12.5116 7.07692 13.343 8.53846 13.4942V14.25H9.30769V13.4942C10.9231 13.4186 12 12.5116 12 11.1512C12 10.1686 11.3077 9.56395 9.61538 9.11046ZM7 7.52326C7 6.76744 7.61538 6.16279 8.53846 6.01163V8.80814C7.46154 8.50581 7 8.12791 7 7.52326ZM9.30769 12.8895V9.7907H9.46154C10.6923 10.093 11.2308 10.5465 11.2308 11.3023C11.1538 12.2093 10.3846 12.814 9.30769 12.8895Z" fill="white"/></svg>