<?xml version="1.0" encoding="UTF-8"?>
<svg width="48px" height="48px" viewBox="0 0 48 48" version="1.1" xmlns="http://www.w3.org/2000/svg" xmlns:xlink="http://www.w3.org/1999/xlink">
    <!-- Generator: Sketch 48.2 (47327) - http://www.bohemiancoding.com/sketch -->
    <title>icon_account-usd_xxl_white</title>
    <desc>Created with Sketch.</desc>
    <defs></defs>
    <g id="mobile" stroke="none" stroke-width="1" fill="none" fill-rule="evenodd" transform="translate(-432.000000, -261.000000)">
        <g id="Headings" transform="translate(64.000000, 77.000000)"></g>
        <g id="icon_tool_account_usd__xxl__white" transform="translate(432.000000, 261.000000)">
            <g id="ungroup">
                <rect id="Rectangle-path" x="0" y="0" width="48" height="48"></rect>
                <path d="M36.5,46 L8.5,46 C6.6,46 5,44.4 5,42.5 L5,5.5 C5,3.6 6.6,2 8.5,2 L29.7,2 L40,12.3 L40,42.5 C40,44.4 38.4,46 36.5,46 L36.5,46 Z M8.5,3 C7.1,3 6,4.1 6,5.5 L6,42.5 C6,43.9 7.1,45 8.5,45 L36.5,45 C37.9,45 39,43.9 39,42.5 L39,12.7 L29.3,3 L8.5,3 L8.5,3 Z" id="Shape" fill="#FFFFFF"></path>
                <g id="Group" opacity="0.3" transform="translate(13.000000, 11.000000)" fill="#FFFFFF">
                    <path d="M17.1,18.4 C17.1,15.2 15.2,13.4 10.6,12.3 L10,12.1 L10,4.6 C12.3,4.9 13.8,6.3 14,8.4 L16.8,8.4 C16.7,5 13.9,2.5 10,2.1 L10,0 L8,0 L8,2 C3.9,2.3 1,4.8 1,8.3 C1,11.3 2.8,13.1 7,14.2 L8,14.5 L8,22.5 C5.3,22.2 3.4,20.7 3.2,18.6 L0.4,18.6 C0.7,22.3 3.6,24.8 8,25.1 L8,27.1 L10,27.1 L10,25 C14.4,24.5 17.1,22.1 17.1,18.4 L17.1,18.4 Z M3.9,8.2 C3.9,6.3 5.5,4.9 8,4.6 L8,11.6 C5.1,10.8 3.9,9.8 3.9,8.2 L3.9,8.2 Z M10,22.4 L10,14.9 C12.9,15.7 14.2,16.8 14.2,18.7 C14.2,20.7 12.5,22.1 10,22.4 L10,22.4 Z" id="Shape"></path>
                </g>
            </g>
        </g>
    </g>
</svg>