<svg xmlns="http://www.w3.org/2000/svg" width="18" height="22" viewBox="0 0 18 22"><g fill="none" fill-rule="evenodd"><path d="M-3-1h24v24H-3z"/><path fill="#FFF" d="M16 22H2c-1.1 0-2-.9-2-2V2C0 .9.9 0 2 0h10.7L18 5.3V20c0 1.1-.9 2-2 2zM2 1c-.6 0-1 .4-1 1v18c0 .6.4 1 1 1h14c.6 0 1-.4 1-1V5.7L12.3 1H2z"/><path fill="#FFF" d="M9.4 11.1L9 11V7c1.3.1 2.2.9 2.3 2h1c-.1-1.6-1.4-2.8-3.3-2.9V5H8v1.1C6.2 6.3 5 7.5 5 9c0 1.4.9 2.2 2.9 2.7H8V16c-1.3-.2-2.2-1-2.3-2.1h-1c.1 1.7 1.4 2.8 3.3 3v1h1v-1c2.1-.1 3.5-1.3 3.5-3.1 0-1.3-.9-2.1-3.1-2.7zM6 9c0-1 .8-1.8 2-2v3.7c-1.4-.4-2-.9-2-1.7zm3 7.1V12h.2c1.6.4 2.3 1 2.3 2-.1 1.2-1.1 2-2.5 2.1z" opacity=".3"/></g></svg>