<svg width="24" height="24" viewBox="0 0 24 24" xmlns="http://www.w3.org/2000/svg"><g fill="none" fill-rule="evenodd"><path d="M0 0h24v24H0z"/><path d="M19 23H5c-1.1 0-2-.9-2-2V3c0-1.1.9-2 2-2h10.7L21 6.3V21c0 1.1-.9 2-2 2zM5 2c-.6 0-1 .4-1 1v18c0 .6.4 1 1 1h14c.6 0 1-.4 1-1V6.7L15.3 2H5z" fill="#0B1F35"/><path d="M12.82 12.147l-.41-.1V8.016c1.334.1 2.257.906 2.36 2.015h1.025c-.103-1.612-1.436-2.822-3.385-2.922V6h-1.025v1.109c-1.847.201-3.077 1.41-3.077 2.922 0 1.41.923 2.217 2.974 2.72h.103v4.334c-1.334-.201-2.257-1.007-2.36-2.116H8c.103 1.713 1.436 2.822 3.385 3.023V19h1.025v-1.008c2.154-.1 3.59-1.31 3.59-3.124 0-1.31-.923-2.116-3.18-2.72zm-3.487-2.116c0-1.008.82-1.814 2.052-2.015v3.728c-1.436-.403-2.052-.907-2.052-1.713zm3.077 7.155v-4.132h.205c1.641.403 2.36 1.008 2.36 2.016-.103 1.21-1.129 2.015-2.565 2.116z" opacity=".3" fill="#0B1F35"/></g></svg>