<svg xmlns="http://www.w3.org/2000/svg" width="26" height="34" viewBox="0 0 26 34"><g fill="none" fill-rule="evenodd"><path d="M-5-1h36v36H-5z"/><path fill="#FFF" d="M23.2 33.1H2.8c-1.5 0-2.8-1.3-2.8-2.8V2.8C0 1.3 1.3 0 2.8 0h15.3L26 7.9v22.4c0 1.6-1.3 2.8-2.8 2.8zM2.8 1C1.8 1 1 1.8 1 2.8v27.5c0 1 .8 1.8 1.8 1.8h20.4c1 0 1.8-.8 1.8-1.8v-22L17.6 1H2.8z"/><path fill="#FFF" d="M19 20.1c0-2.4-1.4-3.7-4.8-4.5l-.2-.1V10c1.6.3 2.6 1.3 2.7 2.7h2.1c-.1-2.5-2-4.3-4.8-4.6V6h-2v2.1c-2.9.3-4.8 2.1-4.8 4.6 0 2.2 1.3 3.6 4.4 4.3l.4.1v6c-1.8-.3-3-1.4-3.2-2.9H6.7c.2 2.7 2.2 4.5 5.3 4.7V27h2v-2.1c3.1-.3 5-2.1 5-4.8zm-9.7-7.5c0-1.4 1.1-2.3 2.7-2.6v5c-1.9-.6-2.7-1.3-2.7-2.4zM14 23.1v-5.4c2 .6 2.9 1.4 2.9 2.7 0 1.3-1.2 2.4-2.9 2.7z" opacity=".3"/></g></svg>