<?xml version="1.0" encoding="UTF-8"?>
<svg width="36px" height="36px" viewBox="0 0 36 36" version="1.1" xmlns="http://www.w3.org/2000/svg" xmlns:xlink="http://www.w3.org/1999/xlink">
    <!-- Generator: Sketch 48.2 (47327) - http://www.bohemiancoding.com/sketch -->
    <title>icon_account-usd_xl_black</title>
    <desc>Created with Sketch.</desc>
    <defs></defs>
    <g id="mobile" stroke="none" stroke-width="1" fill="none" fill-rule="evenodd" transform="translate(-356.000000, -261.000000)">
        <g id="Headings" transform="translate(64.000000, 77.000000)"></g>
        <g id="icon_tool_account_usd__xl__white" transform="translate(356.000000, 261.000000)">
            <g id="ungroup">
                <rect id="Rectangle-path" x="0" y="0" width="36" height="36"></rect>
                <path d="M28.2,34.1 L7.8,34.1 C6.3,34.1 5,32.8 5,31.3 L5,3.8 C5,2.3 6.3,1 7.8,1 L23.1,1 L31,8.9 L31,31.3 C31,32.9 29.7,34.1 28.2,34.1 L28.2,34.1 Z M7.8,2 C6.8,2 6,2.8 6,3.8 L6,31.3 C6,32.3 6.8,33.1 7.8,33.1 L28.2,33.1 C29.2,33.1 30,32.3 30,31.3 L30,9.3 L22.6,2 L7.8,2 L7.8,2 Z" id="Shape" fill="#0B1F35"></path>
                <path d="M24,21.1 C24,18.7 22.6,17.4 19.2,16.6 L19,16.5 L19,11 C20.6,11.3 21.6,12.3 21.7,13.7 L23.8,13.7 C23.7,11.2 21.8,9.4 19,9.1 L19,7 L17,7 L17,9.1 C14.1,9.4 12.2,11.2 12.2,13.7 C12.2,15.9 13.5,17.3 16.6,18 L17,18.1 L17,24.1 C15.2,23.8 14,22.7 13.8,21.2 L11.7,21.2 C11.9,23.9 13.9,25.7 17,25.9 L17,28 L19,28 L19,25.9 C22.1,25.6 24,23.8 24,21.1 L24,21.1 Z M14.3,13.6 C14.3,12.2 15.4,11.3 17,11 L17,16 C15.1,15.4 14.3,14.7 14.3,13.6 L14.3,13.6 Z M19,24.1 L19,18.7 C21,19.3 21.9,20.1 21.9,21.4 C21.9,22.7 20.7,23.8 19,24.1 L19,24.1 Z" id="Shape" fill="#0B1F35" opacity="0.3"></path>
                <g id="Group" opacity="0.3"></g>
            </g>
        </g>
    </g>
</svg>