<svg width="36" height="36" viewBox="0 0 36 36" xmlns="http://www.w3.org/2000/svg"><g fill="none" fill-rule="evenodd"><path d="M0 0h36v36H0z"/><path d="M28.2 34.1H7.8c-1.5 0-2.8-1.3-2.8-2.8V3.8C5 2.3 6.3 1 7.8 1h15.3L31 8.9v22.4c0 1.6-1.3 2.8-2.8 2.8zM7.8 2C6.8 2 6 2.8 6 3.8v27.5c0 1 .8 1.8 1.8 1.8h20.4c1 0 1.8-.8 1.8-1.8v-22L22.6 2H7.8z" fill="#0B1F35"/><path d="M24 21.1c0-2.4-1.4-3.7-4.8-4.5l-.2-.1V11c1.6.3 2.6 1.3 2.7 2.7h2.1c-.1-2.5-2-4.3-4.8-4.6V7h-2v2.1c-2.9.3-4.8 2.1-4.8 4.6 0 2.2 1.3 3.6 4.4 4.3l.4.1v6c-1.8-.3-3-1.4-3.2-2.9h-2.1c.2 2.7 2.2 4.5 5.3 4.7V28h2v-2.1c3.1-.3 5-2.1 5-4.8zm-9.7-7.5c0-1.4 1.1-2.3 2.7-2.6v5c-1.9-.6-2.7-1.3-2.7-2.4zM19 24.1v-5.4c2 .6 2.9 1.4 2.9 2.7 0 1.3-1.2 2.4-2.9 2.7z" fill="#0B1F35" opacity=".3"/></g></svg>