<svg xmlns="http://www.w3.org/2000/svg" width="35" height="44" viewBox="0 0 35 44"><g fill="none" fill-rule="evenodd"><path d="M-5-2h48v48H-5z"/><path fill="#0B1F35" d="M31.5 44h-28C1.6 44 0 42.4 0 40.5v-37C0 1.6 1.6 0 3.5 0h21.2L35 10.3v30.2c0 1.9-1.6 3.5-3.5 3.5zM3.5 1C2.1 1 1 2.1 1 3.5v37C1 41.9 2.1 43 3.5 43h28c1.4 0 2.5-1.1 2.5-2.5V10.7L24.3 1H3.5z"/><path fill="#0B1F35" d="M25.1 27.4c0-3.2-1.9-5-6.5-6.1l-.6-.2v-7.5c2.3.3 3.8 1.7 4 3.8h2.8c-.1-3.4-2.9-5.9-6.8-6.3V9h-2v2c-4.1.3-7 2.8-7 6.3 0 3 1.8 4.8 6 5.9l1 .3v8c-2.7-.3-4.6-1.8-4.8-3.9H8.4c.3 3.7 3.2 6.2 7.6 6.5v2h2V34c4.4-.5 7.1-2.9 7.1-6.6zM11.9 17.2c0-1.9 1.6-3.3 4.1-3.6v7c-2.9-.8-4.1-1.8-4.1-3.4zM18 31.4v-7.5c2.9.8 4.2 1.9 4.2 3.8 0 2-1.7 3.4-4.2 3.7z" opacity=".3"/></g></svg>
