<svg width="24" height="24" viewBox="0 0 24 24" xmlns="http://www.w3.org/2000/svg"><g fill="none" fill-rule="evenodd"><path d="M0 0h24v24H0z"/><path d="M19 23H5c-1.1 0-2-.9-2-2V3c0-1.1.9-2 2-2h10.7L21 6.3V21c0 1.1-.9 2-2 2zM5 2c-.6 0-1 .4-1 1v18c0 .6.4 1 1 1h14c.6 0 1-.4 1-1V6.7L15.3 2H5z" fill="#FFF"/><path d="M12.4 12.1L12 12V8c1.3.1 2.2.9 2.3 2h1c-.1-1.6-1.4-2.8-3.3-2.9V6h-1v1.1c-1.8.2-3 1.4-3 2.9 0 1.4.9 2.2 2.9 2.7h.1V17c-1.3-.2-2.2-1-2.3-2.1h-1c.1 1.7 1.4 2.8 3.3 3v1h1v-1c2.1-.1 3.5-1.3 3.5-3.1 0-1.3-.9-2.1-3.1-2.7zM9 10c0-1 .8-1.8 2-2v3.7c-1.4-.4-2-.9-2-1.7zm3 7.1V13h.2c1.6.4 2.3 1 2.3 2-.1 1.2-1.1 2-2.5 2.1z" opacity=".3" fill="#FFF"/></g></svg>