<svg xmlns="http://www.w3.org/2000/svg" width="18" height="17" viewBox="0 0 18 17"><path fill="#FFF" d="M16.138 3.748c0-.316.167-.71-1.421-.868a7.52 7.52 0 0 0-.377-.027 8.11 8.11 0 0 0-1.323-.923C10.299.591 7.341.644 4.914 1.94 2.43 3.379.947 5.832.947 8.5c0 1.873.759 3.65 2.047 5.02-.142.19-.264.38-.063.57.16.15.386.046.573-.07.444.392.929.75 1.467 1.044 1.146.64 2.577.992 4.029.992a8.452 8.452 0 0 0 4.026-.991c2.484-1.356 4.027-3.872 4.027-6.565 0-1.491-.486-2.92-1.331-4.135.257-.255.416-.464.416-.617zM1.947 8.5c0-2.338 1.305-4.49 3.475-5.748a7.413 7.413 0 0 1 3.525-.863c1.211 0 2.424.295 3.589.869.05.027.094.062.144.09-1.731.049-3.721.214-4.065.268-.502.08-.502.552-.334.632.167.157.919.552 1.17.71.251.08.167.237.167.395a66.333 66.333 0 0 0-1.003 1.184c-.342.323-3.766 4.932-5.04 6.677C2.547 11.54 1.947 10.057 1.947 8.5zm14.106 0c0 2.357-1.352 4.56-3.522 5.745A7.428 7.428 0 0 1 9 15.111c-1.275 0-2.525-.306-3.524-.863a7.056 7.056 0 0 1-1.154-.805c.819-.584 2.297-1.61 2.788-1.958.669-.474 3.929-3.158 5.016-4.026a76.66 76.66 0 0 0 2.508-2.131l.357-.304A6.342 6.342 0 0 1 16.053 8.5z"/></svg>