<svg xmlns="http://www.w3.org/2000/svg" width="18" height="18" version="1" viewBox="0 0 18 18"><path fill="#0B1F35" d="M16.138 3.968c0-.334.167-.752-1.421-.919a7.108 7.108 0 0 0-.377-.028 8.12 8.12 0 0 0-1.323-.977C10.299.626 7.341.682 4.914 2.053 2.43 3.577.947 6.175.947 9c0 1.983.759 3.864 2.047 5.315-.142.201-.264.403-.063.604.16.159.386.048.573-.075.444.416.929.795 1.467 1.106C6.117 16.627 7.548 17 9 17a8.079 8.079 0 0 0 4.026-1.049A8.06 8.06 0 0 0 17.053 9a7.98 7.98 0 0 0-1.331-4.378c.257-.27.416-.492.416-.654zM1.947 9c0-2.475 1.305-4.754 3.475-6.086A7.085 7.085 0 0 1 8.947 2c1.211 0 2.424.313 3.589.92.05.029.094.066.144.096-1.731.051-3.721.226-4.065.283-.502.084-.502.585-.334.669.167.167.919.585 1.17.752.251.084.167.251.167.418a69.394 69.394 0 0 0-1.003 1.254c-.342.342-3.766 5.222-5.04 7.07A7.013 7.013 0 0 1 1.947 9zm14.106 0a7.057 7.057 0 0 1-3.522 6.083A7.1 7.1 0 0 1 9 16c-1.275 0-2.525-.324-3.524-.914a7.065 7.065 0 0 1-1.154-.852c.819-.619 2.297-1.705 2.788-2.073.669-.502 3.929-3.344 5.016-4.263 1.087-.919 2.508-2.257 2.508-2.257l.357-.322A6.998 6.998 0 0 1 16.053 9z"/></svg>