<svg xmlns="http://www.w3.org/2000/svg" width="48" height="48" viewBox="0 0 48 48"><rect width="48" height="48" fill="none"/><g fill="#0B1F35" transform="translate(3 4)"><path d="M27.8395,31 L14.1605,31 L7.9678,37.707 C7.2042,38.5341 6.14104,39 5.032,39 C2.62347,39 0.72805,36.8498 1.0321,34.38 L3.50982,14.2539 C3.88081,11.2404 6.39814,9 9.3582,9 L32.6418,9 C35.6019,9 38.1192,11.2404 38.4902,14.2539 L40.9679,34.38 C41.272,36.8498 39.3765,39 36.968,39 C35.859,39 34.7958,38.5341 34.0322,37.707 L27.8395,31 Z M27.4017,32 L33.2975,38.3854 C34.2486,39.4155 35.5773,40 36.968,40 C39.9943,40 42.3358,37.3069 41.9604,34.2579 L39.4827,14.1318 C39.0514,10.6288 36.1187,8 32.6418,8 L9.3582,8 C5.88134,8 2.94857,10.6288 2.51731,14.1318 L0.03959,34.2579 C-0.33577,37.3069 2.00571,40 5.032,40 C6.42269,40 7.7513,39.4155 8.7025,38.3854 L14.5983,32 L27.4017,32 Z"/><polygon fill-opacity=".3" points="22 0 20 0 20 8 22 8"/><polygon fill-opacity=".3" points="14 16 11 16 11 19 8 19 8 22 11 22 11 25 14 25 14 22 17 22 17 19 14 19"/><path fill-opacity=".3" d="M29.5 19C30.3284 19 31 18.3284 31 17.5 31 16.6716 30.3284 16 29.5 16 28.6716 16 28 16.6716 28 17.5 28 18.3284 28.6716 19 29.5 19zM31 23.5C31 24.3284 30.3284 25 29.5 25 28.6716 25 28 24.3284 28 23.5 28 22.6716 28.6716 22 29.5 22 30.3284 22 31 22.6716 31 23.5zM34 20.5C34 21.3284 33.3284 22 32.5 22 31.6716 22 31 21.3284 31 20.5 31 19.6716 31.6716 19 32.5 19 33.3284 19 34 19.6716 34 20.5zM28 20.5C28 21.3284 27.3284 22 26.5 22 25.6716 22 25 21.3284 25 20.5 25 19.6716 25.6716 19 26.5 19 27.3284 19 28 19.6716 28 20.5z"/></g></svg>