<svg width="36" height="36" viewBox="0 0 36 36" xmlns="http://www.w3.org/2000/svg"><g fill="none" fill-rule="evenodd"><path d="M0 1h36v36H0z"/><path d="M29 9.8h-4.9V6.9c0-3.3-2.5-5.9-5.5-5.9h-1c-3 0-5.5 2.7-5.5 5.9v2.9H7.2L4 35.8h28.2L29 9.8zM13.1 6.9c0-2.7 2-4.9 4.5-4.9h1c2.5-.1 4.5 2.1 4.5 4.9v2.9h-10V6.9zM8 10.8h20.2l2.9 24H5.2l2.8-24z" fill="#0B1F35" fill-rule="nonzero"/><path d="M17.936 15c1.587 0 2.103 1.151 2.539 2.341.159.476 4.325 12.022 4.444 12.379.04.079 0 .238-.12.317-.158.04-2.3.913-2.42.952-.118.04-.237-.04-.316-.159-.04-.119-.952-2.619-1.032-2.896h-6.15c-.12.278-.992 2.817-1.032 2.896-.04.119-.16.198-.278.159-.12-.04-2.301-.913-2.42-.952-.12-.04-.198-.198-.12-.317.16-.436 4.246-11.784 4.445-12.379.357-1.19.873-2.341 2.46-2.341zm0 3.769l-2.063 6.348h4.206l-2.143-6.348z" fill="#0B1F35" fill-rule="nonzero" opacity=".3"/></g></svg>