<svg width="36px" height="36px" viewBox="0 0 36 36" version="1.1" xmlns="http://www.w3.org/2000/svg"><g transform="translate(0.000000, 1.000000)" stroke="none" stroke-width="1" fill="none" fill-rule="evenodd"><polygon points="0 0 36 0 36 36 0 36"/><path d="M29,8.8 L24.1,8.8 L24.1,5.9 C24.1,2.6 21.6,0 18.6,0 L17.6,0 C14.6,0 12.1,2.7 12.1,5.9 L12.1,8.8 L7.2,8.8 L4,34.8 L32.2,34.8 L29,8.8 Z M13.1,5.9 C13.1,3.2 15.1,1 17.6,1 L18.6,1 C21.1,0.9 23.1,3.1 23.1,5.9 L23.1,8.8 L13.1,8.8 L13.1,5.9 Z M8,9.8 L28.2,9.8 L31.1,33.8 L5.2,33.8 L8,9.8 Z" fill="#0B1F35" fill-rule="nonzero"/><path d="M17.9357891,14 C19.5227891,14 20.0387891,15.151 20.4747891,16.341 C20.6337891,16.817 24.7997891,28.363 24.9187891,28.72 C24.9587891,28.799 24.9187891,28.958 24.7997891,29.037 C24.6407891,29.077 22.4987891,29.95 22.3797891,29.989 C22.2607891,30.029 22.1417891,29.949 22.0627891,29.83 C22.0227891,29.711 21.1107891,27.211 21.0307891,26.934 L14.8807891,26.934 C14.7617891,27.212 13.8887891,29.751 13.8487891,29.83 C13.8087891,29.949 13.6897891,30.028 13.5707891,29.989 C13.4517891,29.949 11.2697891,29.076 11.1507891,29.037 C11.0317891,28.997 10.9527891,28.839 11.0317891,28.72 C11.1907891,28.284 15.2767891,16.936 15.4757891,16.341 C15.8327891,15.151 16.3487891,14 17.9357891,14 Z M17.9357891,17.769 L15.8727891,24.117 L20.0787891,24.117 L17.9357891,17.769 Z" fill="#0B1F35" fill-rule="nonzero" opacity="0.3"/></g></svg>