<svg width="24" height="24" viewBox="0 0 24 24" xmlns="http://www.w3.org/2000/svg"><g fill="none" fill-rule="evenodd"><path d="M0 0h24v24H0z"/><path d="M19.4 7H17V4.5C17 2 15 0 12.5 0h-1C9 0 7 2 7 4.5V7H4.6L2.4 24h19.1L19.4 7zM8 4.5C8 2.6 9.6 1 11.5 1h1C14.4 1 16 2.6 16 4.5V7H8V4.5zM5.4 8h13.1l1.9 15H3.6L5.4 8z" fill="#0B1F35"/><path d="M16.166 19.389l-2.605-7.062c-.246-.664-.54-1.327-1.475-1.327-.934 0-1.239.673-1.475 1.327-.122.337-2.513 6.815-2.603 7.062a.14.14 0 0 0 .08.178l1.416.544c.074.029.15-.016.173-.081.024-.066.594-1.671.654-1.831h3.514c.06.161.624 1.763.65 1.831.026.07.103.105.173.081l1.417-.544c.088-.033.101-.124.081-.178zm-5.26-2.789l1.174-3.45h.015l1.18 3.45h-2.37z" fill="#0B1F35" fill-rule="nonzero" opacity=".3"/><path d="M0 0h24v24H0z"/></g></svg>