<svg xmlns="http://www.w3.org/2000/svg" width="24" height="24" viewBox="0 0 24 24"><path fill="none" d="M0 0h24v24H0z"/><path fill="#fff" d="M18.5 23h-13A2.5 2.5 0 0 1 3 20.51v-17A2.5 2.5 0 0 1 5.5 1h13A2.5 2.5 0 0 1 21 3.51v17A2.5 2.5 0 0 1 18.5 23zM5.5 2A1.5 1.5 0 0 0 4 3.51v17A1.5 1.5 0 0 0 5.5 22h13a1.5 1.5 0 0 0 1.5-1.5v-17A1.5 1.5 0 0 0 18.5 2h-13z"/><path fill="#fff" d="M12 4h5v2h-5z" opacity=".3"/><circle cx="8" cy="5" r="1.75" fill="#fff" opacity=".3"/><g fill="#fff" opacity=".4"><path d="M12 19a5 5 0 1 1 5-5 5 5 0 0 1-5 5zm0-9a4 4 0 1 0 4 4 4 4 0 0 0-4-4z"/><path d="M15.8 11.61a2.48 2.48 0 0 0 0 4.78 4.43 4.43 0 0 0 0-4.78z"/></g></svg>