<?xml version="1.0" encoding="UTF-8"?>
<svg width="48px" height="48px" viewBox="0 0 48 48" version="1.1" xmlns="http://www.w3.org/2000/svg" xmlns:xlink="http://www.w3.org/1999/xlink">
    <!-- Generator: Sketch 48.2 (47327) - http://www.bohemiancoding.com/sketch -->
    <title>icon_category-appliances_xxl_white</title>
    <desc>Created with Sketch.</desc>
    <defs></defs>
    <g id="mobile" stroke="none" stroke-width="1" fill="none" fill-rule="evenodd" transform="translate(-1159.000000, -138.000000)">
        <g id="Headings" transform="translate(64.000000, 77.000000)">
            <g id="icon_category_appliances__xxl__white" transform="translate(1095.000000, 61.000000)">
                <g id="ungroup">
                    <rect id="Rectangle-path" x="0" y="0" width="48" height="48"></rect>
                    <g id="a1" opacity="0.4"></g>
                    <path d="M10.5,46 L37.5,46 C39.981,46 42,43.981 42,41.5 L42,6.5 C42,4.019 39.981,2 37.5,2 L10.5,2 C8.019,2 6,4.019 6,6.5 L6,41.5 C6,43.981 8.019,46 10.5,46 L10.5,46 Z M7,6.5 C7,4.57 8.57,3 10.5,3 L37.5,3 C39.43,3 41,4.57 41,6.5 L41,41.5 C41,43.43 39.43,45 37.5,45 L10.5,45 C8.57,45 7,43.43 7,41.5 L7,6.5 L7,6.5 Z" id="Shape" fill="#FFFFFF"></path>
                    <path d="M24,39 C30.065,39 35,34.065 35,28 C35,21.935 30.065,17 24,17 C17.935,17 13,21.935 13,28 C13,34.065 17.935,39 24,39 L24,39 Z M24,19 C27.208,19 30.022,20.693 31.616,23.226 C29.532,23.825 28,25.722 28,28 C28,30.278 29.532,32.175 31.616,32.774 C30.022,35.307 27.208,37 24,37 C19.037,37 15,32.962 15,28 C15,23.038 19.037,19 24,19 L24,19 Z" id="Shape" fill="#FFFFFF" opacity="0.3"></path>
                    <rect id="Rectangle-path" fill="#FFFFFF" opacity="0.3" x="24" y="8" width="10" height="4"></rect>
                    <circle id="Oval" fill="#FFFFFF" opacity="0.3" cx="16" cy="10" r="3"></circle>
                </g>
            </g>
        </g>
    </g>
</svg>