<svg xmlns="http://www.w3.org/2000/svg" width="36" height="36" viewBox="0 0 36 36"><path fill="none" d="M0 0h36v36H0z"/><path fill="#fff" d="M28.55 34H7.45A2.5 2.5 0 0 1 5 31.5v-27A2.5 2.5 0 0 1 7.45 2h21.1A2.5 2.5 0 0 1 31 4.5v27a2.5 2.5 0 0 1-2.45 2.5zM7.45 3A1.5 1.5 0 0 0 6 4.5v27A1.5 1.5 0 0 0 7.45 33h21.1A1.5 1.5 0 0 0 30 31.5v-27A1.5 1.5 0 0 0 28.55 3H7.45z"/><path fill="#fff" d="M18 6h8v3h-8z" opacity=".3"/><circle cx="12.5" cy="7.5" r="2" fill="#fff" opacity=".3"/><g fill="#fff" opacity=".4"><path d="M18 28.59a7.64 7.64 0 1 1 7.64-7.64A7.65 7.65 0 0 1 18 28.59zm0-13.29a5.64 5.64 0 1 0 5.64 5.64A5.65 5.65 0 0 0 18 15.3z"/><path d="M23.61 17.42a3.67 3.67 0 0 0 0 7.05 6.54 6.54 0 0 0 0-7.05z"/></g></svg>