<?xml version="1.0" encoding="UTF-8"?>
<svg width="24px" height="24px" viewBox="0 0 24 24" version="1.1" xmlns="http://www.w3.org/2000/svg" xmlns:xlink="http://www.w3.org/1999/xlink">
    <!-- Generator: Sketch 48.2 (47327) - http://www.bohemiancoding.com/sketch -->
    <title>icon_category-appliances_m_black</title>
    <desc>Created with Sketch.</desc>
    <defs></defs>
    <g id="mobile" stroke="none" stroke-width="1" fill="none" fill-rule="evenodd" transform="translate(-1019.000000, -138.000000)">
        <g id="Headings" transform="translate(64.000000, 77.000000)">
            <g id="icon_category_appliances__m__white" transform="translate(955.000000, 61.000000)">
                <g id="ungroup">
                    <rect id="Rectangle-path" x="0" y="0" width="24" height="24"></rect>
                    <g id="a1" opacity="0.4"></g>
                    <path d="M5.5,23.006 L18.5,23.006 C19.879,23.006 21,21.884 21,20.506 L21,3.506 C21,2.128 19.879,1.006 18.5,1.006 L5.5,1.006 C4.121,1.006 3,2.128 3,3.506 L3,20.506 C3,21.884 4.121,23.006 5.5,23.006 L5.5,23.006 Z M4,3.506 C4,2.679 4.673,2.006 5.5,2.006 L18.5,2.006 C19.327,2.006 20,2.679 20,3.506 L20,20.506 C20,21.333 19.327,22.006 18.5,22.006 L5.5,22.006 C4.673,22.006 4,21.333 4,20.506 L4,3.506 L4,3.506 Z" id="Shape" fill="#0B1F35"></path>
                    <path d="M12,19 C14.757,19 17,16.757 17,14 C17,11.243 14.757,9 12,9 C9.243,9 7,11.243 7,14 C7,16.757 9.243,19 12,19 L12,19 Z M12,10 C13.395,10 14.622,10.72 15.338,11.805 C14.546,12.223 14,13.042 14,14 C14,14.958 14.546,15.777 15.338,16.195 C14.622,17.28 13.395,18 12,18 C9.794,18 8,16.206 8,14 C8,11.794 9.794,10 12,10 L12,10 Z" id="Shape" fill="#0B1F35" opacity="0.3"></path>
                    <rect id="Rectangle-path" fill="#0B1F35" opacity="0.3" x="12" y="4" width="5" height="2"></rect>
                    <circle id="Oval" fill="#0B1F35" opacity="0.3" cx="8" cy="5" r="1.75"></circle>
                </g>
            </g>
        </g>
    </g>
</svg>