<svg xmlns="http://www.w3.org/2000/svg" width="48" height="48" viewBox="0 0 48 48" fill="none"><rect width="48" height="48" fill="none"/><path fill-rule="evenodd" clip-rule="evenodd" d="M41.9349 8.72727C32.3611 7.60815 24 3 24 3C24 3 15.6389 7.60815 6.06514 8.72727C6.06514 8.72727 3.93763 35.279 24 45C36.3567 39.0127 40.2957 26.6406 41.4986 18.02C42.2487 12.6442 41.9349 8.72727 41.9349 8.72727Z" fill="#5C85AD"/><path fill-rule="evenodd" clip-rule="evenodd" d="M18.9435 24.1678C19.0713 23.8468 22.1473 15.2466 22.2756 14.7971C22.5316 13.8349 22.9159 13 24.1338 13C25.3517 13 25.736 13.8988 26.0564 14.7971C26.1038 14.9396 26.5628 16.2221 27.1256 17.7948L27.1263 17.7967C28.0862 20.4791 29.3482 24.0058 29.3885 24.1678C29.3885 24.2323 29.3885 24.3607 29.3246 24.4247C29.2608 24.4247 28.8291 24.6008 28.397 24.7771C27.9641 24.9538 27.5306 25.1306 27.4664 25.1306C27.402 25.1306 27.2737 25.1306 27.2099 25.0021C27.2099 24.9591 26.8911 24.0747 26.6628 23.4412C26.5515 23.1324 26.4616 22.8831 26.4407 22.82H21.8269C21.8065 22.8809 21.722 23.1152 21.6161 23.4091C21.3871 24.0443 21.0577 24.958 21.0577 25.0021C21.0577 25.0666 20.9295 25.1306 20.8656 25.1306C20.8392 25.1306 20.5385 25.0098 20.1861 24.8681C19.6865 24.6674 19.0826 24.4247 19.0074 24.4247C18.9435 24.4247 18.8796 24.2962 18.9435 24.1678ZM25.8087 20.6532L24.1343 15.8399L22.5916 20.6532H25.8087Z" fill="white"/><path d="M30.0566 31.1272H18.2068C18.0691 31.1272 18 30.9893 18 30.92V28.7118C18 28.5738 18.1377 28.5046 18.2068 28.5046H30.0566C30.1943 28.5046 30.2634 28.6425 30.2634 28.7118V30.92C30.2634 31.0579 30.1257 31.1272 30.0566 31.1272Z" fill="white"/></svg>