<svg xmlns="http://www.w3.org/2000/svg" width="24" height="24" viewBox="0 0 24 24" fill="none"><rect width="24" height="24" fill="none"/><path fill-rule="evenodd" clip-rule="evenodd" d="M21.9638 4C16.6451 3.41379 12 1 12 1C12 1 7.35495 3.41379 2.03619 4C2.03619 4 0.854241 17.908 12 23C18.8649 19.8638 21.0532 13.3832 21.7214 8.8676C22.1382 6.05172 21.9638 4 21.9638 4Z" fill="#5C85AD"/><path fill-rule="evenodd" clip-rule="evenodd" d="M9.68897 11.8059C9.74589 11.6599 11.1165 7.74572 11.1737 7.54118C11.2878 7.10323 11.459 6.72327 12.0016 6.72327C12.5443 6.72327 12.7155 7.13235 12.8583 7.54118C12.8794 7.60601 13.0839 8.18972 13.3347 8.90548C13.7624 10.1263 14.3251 11.7322 14.343 11.8059C14.343 11.8353 14.343 11.8938 14.3145 11.9229C14.2861 11.9229 14.0938 12.003 13.9012 12.0832C13.7083 12.1636 13.5152 12.2441 13.4866 12.2441C13.4579 12.2441 13.4007 12.2441 13.3723 12.1856C13.3723 12.1661 13.2302 11.7636 13.1285 11.4753C13.0789 11.3347 13.0389 11.2213 13.0295 11.1925H10.9737C10.9647 11.2203 10.927 11.3269 10.8798 11.4607C10.7778 11.7497 10.631 12.1656 10.631 12.1856C10.631 12.215 10.5739 12.2441 10.5454 12.2441C10.5336 12.2441 10.3997 12.1891 10.2426 12.1247C10.02 12.0333 9.75094 11.9229 9.71743 11.9229C9.68897 11.9229 9.6605 11.8644 9.68897 11.8059ZM12.7479 10.2064L12.0019 8.01576L11.3145 10.2064H12.7479Z" fill="white"/><path d="M14.9147 14.9901H9.09215C9.0308 14.9901 9 14.9274 9 14.8959V13.8908C9 13.8281 9.06136 13.7966 9.09215 13.7966H14.9147C14.976 13.7966 15.0068 13.8593 15.0068 13.8908V14.8959C15.0068 14.9586 14.9455 14.9901 14.9147 14.9901Z" fill="white"/></svg>