<svg width="24" height="24" viewBox="0 0 24 24" fill="none" xmlns="http://www.w3.org/2000/svg"><rect width="24" height="24" fill="none"/><path fill-rule="nonzero" clip-rule="nonzero" d="M21.9638 4C16.6451 3.41379 12 1 12 1C12 1 7.35495 3.41379 2.03619 4C2.03619 4 0.854241 17.908 12 23C18.8649 19.8638 21.0532 13.3832 21.7214 8.8676C22.1382 6.05172 21.9638 4 21.9638 4Z" fill="#5C85AD"/><path fill-rule="nonzero" clip-rule="nonzero" d="M9.68897 11.806C9.74589 11.6599 11.1165 7.74578 11.1737 7.54124C11.2878 7.10329 11.459 6.72333 12.0016 6.72333C12.5443 6.72333 12.7155 7.13241 12.8583 7.54124C12.8794 7.60608 13.0839 8.18978 13.3347 8.90554C13.7624 10.1264 14.3251 11.7323 14.343 11.806C14.343 11.8353 14.343 11.8938 14.3145 11.9229C14.2861 11.9229 14.0938 12.0031 13.9012 12.0833C13.7083 12.1637 13.5152 12.2442 13.4866 12.2442C13.4579 12.2442 13.4007 12.2442 13.3723 12.1857C13.3723 12.1661 13.2302 11.7636 13.1285 11.4753C13.0789 11.3348 13.0389 11.2213 13.0295 11.1926H10.9737C10.9647 11.2203 10.927 11.327 10.8798 11.4607C10.7778 11.7498 10.631 12.1656 10.631 12.1857C10.631 12.2151 10.5739 12.2442 10.5454 12.2442C10.5336 12.2442 10.3997 12.1892 10.2426 12.1247C10.02 12.0334 9.75094 11.9229 9.71743 11.9229C9.68897 11.9229 9.6605 11.8645 9.68897 11.806ZM12.7479 10.2065L12.0019 8.01582L11.3145 10.2065H12.7479Z" fill="white"/><path d="M14.9147 14.9902H9.09215C9.0308 14.9902 9 14.9274 9 14.8959V13.8909C9 13.8281 9.06136 13.7966 9.09215 13.7966H14.9147C14.976 13.7966 15.0068 13.8594 15.0068 13.8909V14.8959C15.0068 14.9587 14.9455 14.9902 14.9147 14.9902Z" fill="white"/></svg>