<svg xmlns="http://www.w3.org/2000/svg" width="34" height="35" viewBox="0 0 34 35"><g fill="none" fill-rule="evenodd"><path d="M-1 0h36v36H-1z"/><path fill="#0B1F35" d="M17 21c-5 0-8-6.1-8-11.9C9 4.8 9.9 0 17 0s8 4.8 8 9.1c0 5.8-3 11.9-8 11.9zm0-20c-5 0-7 2.3-7 8.1 0 4.5 2.2 10.9 7 10.9s7-6.4 7-10.9C24 3.3 22 1 17 1z"/><path fill="#0B1F35" d="M1 34.6H0c0-5.4 6.6-8.9 8.8-10 2.9-1.5 3.5-2.1 3.5-6h1c0 4-.6 5.1-4 6.9-2.1 1-8.3 4.2-8.3 9.1zm33 0h-1c0-4.8-6.2-8.1-8.3-9.1-3.4-1.7-4-2.8-4-6.9h1c0 3.9.6 4.5 3.5 6 2.2 1.1 8.8 4.5 8.8 10z"/></g></svg>
