<svg xmlns="http://www.w3.org/2000/svg" width="46" height="47" viewBox="0 0 46 47"><g fill="none" fill-rule="evenodd"><path d="M-1 0h48v48H-1z"/><path fill="#0B1F35" d="M23 28c-6.9 0-11-8.1-11-15.9C12 6.5 13.2 0 23 0s11 6.5 11 12.1C34 19.9 29.9 28 23 28zm0-27c-7.1 0-10 3.2-10 11.1C13 18.3 16.1 27 23 27s10-8.7 10-14.9C33 4.2 30.1 1 23 1z"/><path fill="#0B1F35" d="M1 47H0c0-7 9-11.5 11.9-13 4.1-2 5.1-3.8 5.1-8.7h1c0 5.4-1.2 7.4-5.6 9.6C9.6 36.4 1 40.6 1 47zm45 0h-1c0-6.4-8.6-10.7-11.4-12.1-4.4-2.2-5.6-4.3-5.6-9.6h1c0 5 1 6.7 5.1 8.7C37 35.5 46 40 46 47z"/></g></svg>
