<svg xmlns="http://www.w3.org/2000/svg" width="24" height="24" viewBox="0 0 24 24"><path fill="none" d="M0 0h24v24H0z"/><path fill="#0B1F35" d="M18.5 8h-15A1.5 1.5 0 0 1 2 6.5v-4A1.5 1.5 0 0 1 3.5 1h15A1.5 1.5 0 0 1 20 2.5v4A1.5 1.5 0 0 1 18.5 8zm-15-6a.5.5 0 0 0-.5.5v4a.5.5 0 0 0 .5.5h15a.5.5 0 0 0 .5-.5v-4a.5.5 0 0 0-.5-.5h-15z"/><path fill="#0B1F35" d="M12 13h-1v-1.61a1.5 1.5 0 0 1 1.5-1.5h9a.5.5 0 0 0 .5-.5V5.5a.5.5 0 0 0-.5-.5H20V4h1.5A1.5 1.5 0 0 1 23 5.5v3.89a1.5 1.5 0 0 1-1.5 1.5h-9a.5.5 0 0 0-.5.5V13z"/><rect width="3" height="10" x="10" y="13" fill="#0B1F35" opacity=".3" rx=".75" ry=".75"/></svg>