<svg xmlns="http://www.w3.org/2000/svg" width="41" height="44" viewBox="0 0 41 44"><g fill="none" fill-rule="evenodd"><path d="M-5-3h48v48H-5z"/><path fill="#0B1F35" d="M41 10.5C41 8.019 38.981 6 36.5 6H35V3.5C35 1.57 33.43 0 31.5 0h-28C1.57 0 0 1.57 0 3.5v6C0 11.43 1.57 13 3.5 13h28c1.93 0 3.5-1.57 3.5-3.5V7h1.5c1.93 0 3.5 1.57 3.5 3.5v4c0 1.93-1.57 3.5-3.5 3.5h-14a4.505 4.505 0 0 0-4.5 4.5V26h1v-3.5c0-1.93 1.57-3.5 3.5-3.5h14c2.481 0 4.5-2.019 4.5-4.5v-4zm-7-1c0 1.379-1.122 2.5-2.5 2.5h-28A2.503 2.503 0 0 1 1 9.5v-6C1 2.121 2.122 1 3.5 1h28C32.878 1 34 2.121 34 3.5v6z"/><path fill="#0B1F35" d="M20.129 26h-3.258A1.871 1.871 0 0 0 15 27.871v14.258c0 1.033.838 1.871 1.871 1.871h3.258A1.871 1.871 0 0 0 22 42.129V27.871A1.871 1.871 0 0 0 20.129 26zM28 3h2v2h-2zm-3 3h2v2h-2zm-3-3h2v2h-2zm-3 3h2v2h-2zm-3-3h2v2h-2zm-6 0h2v2h-2zm3 3h2v2h-2z" opacity=".3"/></g></svg>