<svg width="48" height="48" viewBox="0 0 48 48" xmlns="http://www.w3.org/2000/svg"><g fill="none" fill-rule="evenodd"><path d="M0 0h48v48H0z"/><path d="M46 13.5c0-2.481-2.019-4.5-4.5-4.5H40V6.5C40 4.57 38.43 3 36.5 3h-28C6.57 3 5 4.57 5 6.5v6C5 14.43 6.57 16 8.5 16h28c1.93 0 3.5-1.57 3.5-3.5V10h1.5c1.93 0 3.5 1.57 3.5 3.5v4c0 1.93-1.57 3.5-3.5 3.5h-14a4.505 4.505 0 0 0-4.5 4.5V29h1v-3.5c0-1.93 1.57-3.5 3.5-3.5h14c2.481 0 4.5-2.019 4.5-4.5v-4zm-7-1c0 1.379-1.122 2.5-2.5 2.5h-28A2.503 2.503 0 0 1 6 12.5v-6C6 5.121 7.122 4 8.5 4h28C37.878 4 39 5.121 39 6.5v6z" fill="#FFF"/><path d="M25.129 29h-3.258A1.871 1.871 0 0 0 20 30.871v14.258c0 1.033.838 1.871 1.871 1.871h3.258A1.871 1.871 0 0 0 27 45.129V30.871A1.871 1.871 0 0 0 25.129 29zM33 6h2v2h-2zM30 9h2v2h-2zM27 6h2v2h-2zM24 9h2v2h-2zM21 6h2v2h-2zM15 6h2v2h-2zM18 9h2v2h-2z" fill="#FFF" opacity=".3"/></g></svg>