<svg xmlns="http://www.w3.org/2000/svg" width="36" height="36" viewBox="0 0 36 36"><path fill="none" d="M0 0h36v36H0z"/><path fill="#0B1F35" d="M27 11H4a2 2 0 0 1-2-2V3a2 2 0 0 1 2-2h23a2 2 0 0 1 2 2v6a2 2 0 0 1-2 2zM4 2a1 1 0 0 0-1 1v6a1 1 0 0 0 1 1h23a1 1 0 0 0 1-1V3a1 1 0 0 0-1-1H4z"/><path fill="#0B1F35" d="M17 19h-1v-3a2 2 0 0 1 2-2h14a1 1 0 0 0 1-1V7a1 1 0 0 0-1-1h-3.5V5H32a2 2 0 0 1 2 2v6a2 2 0 0 1-2 2H18a1 1 0 0 0-1 1v3z"/><rect width="5" height="15" x="14" y="19" fill="#0B1F35" opacity=".3" rx="1" ry="1"/><path fill="#0B1F35" d="M17 4h2v2h-2zm-6 0h2v2h-2zm12 0h2v2h-2zm-3 2h2v2h-2zm-6 0h2v2h-2z" opacity=".3"/></svg>