<?xml version="1.0" encoding="UTF-8"?>
<svg width="36px" height="36px" viewBox="0 0 36 36" version="1.1" xmlns="http://www.w3.org/2000/svg" xmlns:xlink="http://www.w3.org/1999/xlink">
    <!-- Generator: Sketch 48.2 (47327) - http://www.bohemiancoding.com/sketch -->
    <title>icon_category-repairs_xl_black</title>
    <desc>Created with Sketch.</desc>
    <defs></defs>
    <g id="mobile" stroke="none" stroke-width="1" fill="none" fill-rule="evenodd" transform="translate(-1083.000000, -786.000000)">
        <g id="Headings" transform="translate(64.000000, 77.000000)">
            <g id="icon_category_repairs__xl__white" transform="translate(1019.000000, 709.000000)">
                <g id="ungroup">
                    <rect id="Rectangle-path" x="0" y="0" width="36" height="36"></rect>
                    <g id="a1" opacity="0.4"></g>
                    <path d="M32,14 L18,14 C16.897,14 16,14.897 16,16 L16,19 L17,19 L17,16 C17,15.448 17.449,15 18,15 L32,15 C33.103,15 34,14.103 34,13 L34,7 C34,5.897 33.103,5 32,5 L29,5 L29,3.015 C29,1.903 28.096,1 26.985,1 L4.015,1 C2.904,1 2,1.903 2,3.015 L2,8.986 C2,10.097 2.904,11 4.015,11 L26.986,11 C28.096,11 29,10.097 29,8.985 L29,6 L32,6 C32.551,6 33,6.448 33,7 L33,13 C33,13.552 32.551,14 32,14 L32,14 Z M28,8.985 C28,9.545 27.545,10 26.985,10 L4.015,10 C3.455,10 3,9.545 3,8.985 L3,3.015 C3,2.455 3.455,2 4.015,2 L26.986,2 C27.545,2 28,2.455 28,3.015 L28,8.985 L28,8.985 Z" id="Shape" fill="#0B1F35"></path>
                    <path d="M18,19 L15,19 C14.448,19 14,19.448 14,20 L14,33 C14,33.552 14.448,34 15,34 L18,34 C18.552,34 19,33.552 19,33 L19,20 C19,19.448 18.552,19 18,19 L18,19 Z" id="Shape" fill="#0B1F35" opacity="0.3"></path>
                    <rect id="Rectangle-path" fill="#0B1F35" opacity="0.3" x="17" y="4" width="2" height="2"></rect>
                    <rect id="Rectangle-path" fill="#0B1F35" opacity="0.3" x="11" y="4" width="2" height="2"></rect>
                    <rect id="Rectangle-path" fill="#0B1F35" opacity="0.3" x="23" y="4" width="2" height="2"></rect>
                    <rect id="Rectangle-path" fill="#0B1F35" opacity="0.3" x="20" y="6" width="2" height="2"></rect>
                    <rect id="Rectangle-path" fill="#0B1F35" opacity="0.3" x="14" y="6" width="2" height="2"></rect>
                </g>
            </g>
        </g>
    </g>
</svg>