<svg width="36" height="36" viewBox="0 0 36 36" xmlns="http://www.w3.org/2000/svg"><g fill="none" fill-rule="evenodd"><path d="M0 0h36v36H0z"/><path d="M32 14H18c-1.103 0-2 .897-2 2v3h1v-3c0-.552.449-1 1-1h14c1.103 0 2-.897 2-2V7c0-1.103-.897-2-2-2h-3V3.015A2.017 2.017 0 0 0 26.985 1H4.015A2.017 2.017 0 0 0 2 3.015v5.971C2 10.097 2.904 11 4.015 11h22.971C28.096 11 29 10.097 29 8.985V6h3c.551 0 1 .448 1 1v6c0 .552-.449 1-1 1zm-4-5.015c0 .56-.455 1.015-1.015 1.015H4.015C3.455 10 3 9.545 3 8.985v-5.97C3 2.455 3.455 2 4.015 2h22.971C27.545 2 28 2.455 28 3.015v5.97z" fill="#FFF"/><path d="M18 19h-3a1 1 0 0 0-1 1v13a1 1 0 0 0 1 1h3a1 1 0 0 0 1-1V20a1 1 0 0 0-1-1zM17 4h2v2h-2zM11 4h2v2h-2zM23 4h2v2h-2zM20 6h2v2h-2zM14 6h2v2h-2z" fill="#FFF" opacity=".3"/></g></svg>