<?xml version="1.0" encoding="UTF-8"?>
<svg width="48px" height="48px" viewBox="0 0 48 48" version="1.1" xmlns="http://www.w3.org/2000/svg" xmlns:xlink="http://www.w3.org/1999/xlink">
    <!-- Generator: Sketch 48.2 (47327) - http://www.bohemiancoding.com/sketch -->
    <title>icon_category-repairs_xxl_black</title>
    <desc>Created with Sketch.</desc>
    <defs></defs>
    <g id="mobile" stroke="none" stroke-width="1" fill="none" fill-rule="evenodd" transform="translate(-1159.000000, -786.000000)">
        <g id="Headings" transform="translate(64.000000, 77.000000)">
            <g id="icon_category_repairs__xxl__white" transform="translate(1095.000000, 709.000000)">
                <g id="ungroup">
                    <rect id="Rectangle-path" x="0" y="0" width="48" height="48"></rect>
                    <g id="a1" opacity="0.4"></g>
                    <path d="M46,13.5 C46,11.019 43.981,9 41.5,9 L40,9 L40,6.5 C40,4.57 38.43,3 36.5,3 L8.5,3 C6.57,3 5,4.57 5,6.5 L5,12.5 C5,14.43 6.57,16 8.5,16 L36.5,16 C38.43,16 40,14.43 40,12.5 L40,10 L41.5,10 C43.43,10 45,11.57 45,13.5 L45,17.5 C45,19.43 43.43,21 41.5,21 L27.5,21 C25.019,21 23,23.019 23,25.5 L23,29 L24,29 L24,25.5 C24,23.57 25.57,22 27.5,22 L41.5,22 C43.981,22 46,19.981 46,17.5 L46,13.5 L46,13.5 Z M39,12.5 C39,13.879 37.878,15 36.5,15 L8.5,15 C7.122,15 6,13.879 6,12.5 L6,6.5 C6,5.121 7.122,4 8.5,4 L36.5,4 C37.878,4 39,5.121 39,6.5 L39,12.5 L39,12.5 Z" id="Shape" fill="#0B1F35"></path>
                    <path d="M25.129,29 L21.871,29 C20.838,29 20,29.838 20,30.871 L20,45.129 C20,46.162 20.838,47 21.871,47 L25.129,47 C26.162,47 27,46.162 27,45.129 L27,30.871 C27,29.838 26.162,29 25.129,29 L25.129,29 Z" id="Shape" fill="#0B1F35" opacity="0.3"></path>
                    <rect id="Rectangle-path" fill="#0B1F35" opacity="0.3" x="33" y="6" width="2" height="2"></rect>
                    <rect id="Rectangle-path" fill="#0B1F35" opacity="0.3" x="30" y="9" width="2" height="2"></rect>
                    <rect id="Rectangle-path" fill="#0B1F35" opacity="0.3" x="27" y="6" width="2" height="2"></rect>
                    <rect id="Rectangle-path" fill="#0B1F35" opacity="0.3" x="24" y="9" width="2" height="2"></rect>
                    <rect id="Rectangle-path" fill="#0B1F35" opacity="0.3" x="21" y="6" width="2" height="2"></rect>
                    <rect id="Rectangle-path" fill="#0B1F35" opacity="0.3" x="15" y="6" width="2" height="2"></rect>
                    <rect id="Rectangle-path" fill="#0B1F35" opacity="0.3" x="18" y="9" width="2" height="2"></rect>
                </g>
            </g>
        </g>
    </g>
</svg>