<svg width="24" height="24" viewBox="0 0 24 24" xmlns="http://www.w3.org/2000/svg"><g fill="none" fill-rule="evenodd"><path d="M0 0h24v24H0z"/><path d="M23 5.5c0-.827-.673-1.5-1.5-1.5H20V2.5c0-.827-.673-1.5-1.5-1.5h-15C2.673 1 2 1.673 2 2.5v4C2 7.327 2.673 8 3.5 8h15c.827 0 1.5-.673 1.5-1.5V5h1.5a.5.5 0 0 1 .5.5v3.889a.5.5 0 0 1-.5.5h-9c-.827 0-1.5.673-1.5 1.5V13h1v-1.611a.5.5 0 0 1 .5-.5h9c.827 0 1.5-.673 1.5-1.5V5.5zm-4 1a.5.5 0 0 1-.5.5h-15a.5.5 0 0 1-.5-.5v-4a.5.5 0 0 1 .5-.5h15a.5.5 0 0 1 .5.5v4z" fill="#0B1F35"/><path d="M12.25 13h-1.5a.75.75 0 0 0-.75.75v8.5c0 .414.336.75.75.75h1.5a.75.75 0 0 0 .75-.75v-8.5a.75.75 0 0 0-.75-.75z" fill="#0B1F35" opacity=".3"/></g></svg>