<svg xmlns="http://www.w3.org/2000/svg" width="24" height="24" version="1" viewBox="0 0 24 24"><path fill="#0B1F35" d="M15.513 22c.142 0 .284-.003.419-.008L18 21.805v-.694l-2.045.185c-.147.007-.294.01-.439.01h-.001c-4.028 0-7.446-2.619-8.344-6.306H16v-1H6.999l-.05-.43a10.848 10.848 0 0 1-.107-1.515A6.113 6.113 0 0 1 6.878 11H16v-1H7.023l.032-.274c.685-4.015 4.288-6.929 8.568-6.929.11 0 .22.002.339.006L18 2.988v-.794l-2.059-.186A10.61 10.61 0 0 0 15.543 2c-4.705 0-8.717 3.341-9.335 7.778L6.166 10H3v1h3.026a13.37 13.37 0 0 0 .078 2.532l.055.468H3v1h3.33c.951 4.089 4.715 7 9.183 7z"/></svg>