<svg xmlns="http://www.w3.org/2000/svg" width="19" height="26" viewBox="0 0 19 26"><path fill="#FFF" fill-rule="evenodd" d="M16.511 26c.807 0 1.858-.07 2.419-.193v-.841c-.561.14-1.613.21-2.419.21-5.377 0-9.972-3.164-11.103-9.176H16v-1H5.248a16.152 16.152 0 0 1-.116-2.009c0-.631.035-1.227.088-1.806L5.243 11H16v-1H5.409C6.547 3.981 11.131.824 16.511.824c.807 0 1.858.07 2.419.21V.193C18.369.07 17.317 0 16.511 0c-5.871 0-10.841 3.454-12 10H0v1h4.361l-.017.185a19.65 19.65 0 0 0-.088 1.806c0 .692.035 1.365.116 2.009H0v1h4.512c1.168 6.538 6.131 10 11.999 10z"/></svg>