<svg xmlns="http://www.w3.org/2000/svg" width="30" height="30" version="1" viewBox="0 0 30 30"><path fill="#0B1F35" d="M18.506 26c.685 0 1.611-.061 2.15-.179v-.786c-.569.113-1.477.172-2.15.172-4.699 0-8.21-2.753-9.246-7.207H19v-1H9.078l-.044-.289a12.252 12.252 0 0 1-.108-1.703c0-.317.015-.655.038-1.007H19v-1H9.071l.084-.545c.91-4.717 4.493-7.648 9.351-7.648.674 0 1.581.059 2.15.172v-.801C20.117 4.061 19.19 4 18.506 4 13.05 4 9.104 7.261 8.209 12.505L8.141 13H5v1h3.049c-.022.335-.049.676-.049.993 0 .588.029 1.153.088 1.673L8.14 17H5v1h3.321c1.069 4.942 4.934 8 10.185 8z"/></svg>