<svg xmlns="http://www.w3.org/2000/svg" width="15" height="20" viewBox="0 0 15 20"><path fill="#FFF" fill-rule="evenodd" d="M12.513 20c.142 0 .284-.003.419-.008L15 19.805v-.694l-2.045.185c-.147.007-.294.01-.439.01h-.001c-4.028 0-7.446-2.619-8.344-6.306H13v-1H3.999l-.05-.43a10.848 10.848 0 0 1-.107-1.515A6.113 6.113 0 0 1 3.878 9H13V8H4.023l.032-.274C4.74 3.711 8.343.797 12.623.797c.11 0 .22.002.339.006L15 .988V.194L12.941.008A10.61 10.61 0 0 0 12.543 0C7.838 0 3.826 3.341 3.208 7.778L3.166 8H0v1h3.026a13.37 13.37 0 0 0 .078 2.532l.055.468H0v1h3.33c.951 4.089 4.715 7 9.183 7z"/></svg>