<svg xmlns="http://www.w3.org/2000/svg" width="36" height="36" viewBox="0 0 36 36"><g fill="none" fill-rule="evenodd"><path fill="#FFF" d="M16.22 31.947l-.731.56 2.592 3.38 4.28-5.58-.73-.56-3.55 4.625z"/><path stroke="#FFF" d="M24.515 32.377C30.098 30.107 34 24.938 34 18.5 34 9.94 27.06 3 18.5 3 9.94 3 3 9.94 3 18.5c0 6.46 3.95 11.637 9.568 13.893"/><path fill="#FFF" d="M12.133 21.36c-.189-.078-.405-.337-.47-.563-.07-.252-.012-.452.272-.923.365-.605.45-.93.45-1.721 0-.792-.085-1.117-.45-1.722a3.402 3.402 0 0 1-.276-.546c-.118-.4.212-.888.655-.972.375-.071.633.098.978.641 1 1.573 1 3.675 0 5.234-.353.55-.746.745-1.159.573zm2.89 1.498a.942.942 0 0 1-.5-.62c-.034-.156.025-.33.308-.907 1.04-2.125 1.052-4.171.034-6.246-.446-.912-.456-1.093-.078-1.452.186-.178.265-.209.527-.209.44 0 .667.223 1.06 1.036.604 1.25.85 2.335.849 3.724-.002 1.429-.233 2.41-.878 3.728-.37.755-.552.954-.922 1.006a.86.86 0 0 1-.4-.06zm3.098 1.606c-.386-.113-.665-.591-.553-.95.027-.086.209-.485.404-.887.826-1.7 1.17-3.521 1.002-5.31-.139-1.47-.4-2.396-1.058-3.753-.442-.91-.462-1.05-.205-1.417.244-.348.853-.405 1.173-.109.222.205.912 1.658 1.178 2.48.881 2.723.747 5.646-.382 8.321-.58 1.37-.985 1.794-1.559 1.625zm3.004 1.585c-.252-.074-.508-.376-.561-.665-.035-.187.007-.318.274-.839 1.08-2.104 1.549-4.041 1.549-6.392 0-2.272-.416-4.04-1.447-6.16-.222-.454-.403-.876-.403-.937 0-.226.187-.553.39-.68.278-.177.743-.144.966.067.086.081.308.45.495.819a15.645 15.645 0 0 1 1.493 4.733c.155 1.033.185 2.99.062 3.935a15.574 15.574 0 0 1-1.415 4.825c-.442.921-.72 1.3-.952 1.3a.68.68 0 0 0-.168.026.686.686 0 0 1-.283-.032z"/></g></svg>