<svg width="36" height="36" viewBox="0 0 36 36" xmlns="http://www.w3.org/2000/svg"><g fill="none" fill-rule="evenodd"><path d="M0 0h36v36H0z"/><path d="M4.059 32.126c.512 0 1.024-.195 1.414-.585l3.276-3.276.081.081c.378.378.88.586 1.414.586.534 0 1.036-.208 1.414-.586l5.244-5.244.26.26c.378.378.88.586 1.414.586.534 0 1.036-.208 1.414-.586L30.611 12.74c.378-.377.586-.879.586-1.414 0-.534-.208-1.036-.586-1.414l-8.326-8.326c-.757-.757-2.074-.755-2.829 0L8.834 12.208a2.005 2.005 0 0 0 0 2.828l.261.261-5.243 5.243c-.378.378-.586.88-.586 1.414 0 .534.208 1.036.586 1.414l.08.08-3.276 3.276a2.004 2.004 0 0 0 0 2.829l1.988 1.987a1.99 1.99 0 0 0 1.415.586zm5.482-19.211L20.163 2.293a.997.997 0 0 1 1.415 0l8.326 8.326a.997.997 0 0 1 0 1.414L19.282 22.655a.999.999 0 0 1-1.414 0l-8.327-8.326a1.003 1.003 0 0 1 0-1.414zm-4.982 8.332l5.243-5.243 6.392 6.392-5.243 5.243a.999.999 0 0 1-1.414 0l-4.978-4.978a1 1 0 0 1 0-1.414zm-3.197 6.185l3.276-3.276 3.402 3.403-3.275 3.275a1 1 0 0 1-1.415 0l-1.988-1.987a1.004 1.004 0 0 1 0-1.415z" fill="#0B1F35"/><path fill="#0B1F35" opacity=".3" d="M30.18 24.111l2.275 1.389-.619-2.592 2.024-1.734-2.656-.213L30.18 18.5l-1.023 2.461-2.657.213 2.024 1.734-.618 2.592zM33.204 30.961L32.18 28.5l-1.023 2.461-2.657.213 2.024 1.734-.618 2.592 2.274-1.389 2.275 1.389-.619-2.592 2.024-1.734zM23.204 28.961L22.18 26.5l-1.023 2.461-2.657.213 2.024 1.734-.618 2.592 2.274-1.389 2.275 1.389-.619-2.592 2.024-1.734zM14.71 11.626l5.958-5.958 1.414 1.415-5.957 5.957z"/></g></svg>