<svg xmlns="http://www.w3.org/2000/svg" width="36" height="36" viewBox="0 0 36 36"><path fill="none" d="M0 0h36v36H0z"/><g fill="#0B1F35"><path d="M10.24 28.93a2 2 0 0 1-1.41-.59l-5-5a2 2 0 0 1 0-2.83l6-6 7.81 7.81-6 6a2 2 0 0 1-1.4.61zM9.8 16l-5.24 5.25a1 1 0 0 0 0 1.41l5 5a1 1 0 0 0 1.41 0l5.24-5.24z"/><path d="M18.58 23.95a2 2 0 0 1-1.41-.59L8.83 15a2 2 0 0 1 0-2.83L19.46 1.59a2 2 0 0 1 2.83 0l8.33 8.33a2 2 0 0 1 0 2.83L20 23.36a2 2 0 0 1-1.42.59zM20.87 2a1 1 0 0 0-.71.29L9.54 12.92a1 1 0 0 0 0 1.41l8.33 8.33a1 1 0 0 0 1.41 0L29.9 12a1 1 0 0 0 0-1.41l-8.32-8.3a1 1 0 0 0-.71-.29zM4.06 32.13a2 2 0 0 1-1.42-.58l-2-2a2 2 0 0 1 0-2.83l4-4 4.82 4.82-4 4a2 2 0 0 1-1.4.59zm.58-8l-3.28 3.3a1 1 0 0 0 0 1.42l2 2a1 1 0 0 0 1.42 0L8 27.56z"/></g><path fill="#0B1F35" d="M30.18 18.5l1.02 2.46 2.66.21-2.02 1.74.61 2.59-2.27-1.39-2.27 1.39.61-2.59-2.02-1.74 2.66-.21 1.02-2.46zm2 10l1.02 2.46 2.66.21-2.02 1.74.61 2.59-2.27-1.39-2.27 1.39.61-2.59-2.02-1.74 2.66-.21 1.02-2.46zm-10-2l1.02 2.46 2.66.21-2.02 1.74.61 2.59-2.27-1.39-2.27 1.39.61-2.59-2.02-1.74 2.66-.21 1.02-2.46zm-7.479-14.872l5.954-5.954 1.414 1.414-5.954 5.954z" opacity=".3"/></svg>