<?xml version="1.0" encoding="UTF-8"?>
<svg width="36px" height="36px" viewBox="0 0 36 36" version="1.1" xmlns="http://www.w3.org/2000/svg" xmlns:xlink="http://www.w3.org/1999/xlink">
    <!-- Generator: Sketch 48.2 (47327) - http://www.bohemiancoding.com/sketch -->
    <title>icon_category-hobby_xl_black</title>
    <desc>Created with Sketch.</desc>
    <defs></defs>
    <g id="mobile" stroke="none" stroke-width="1" fill="none" fill-rule="evenodd" transform="translate(-1540.000000, -462.000000)">
        <g id="Headings" transform="translate(64.000000, 77.000000)">
            <g id="icon_category_hobby__xl__white" transform="translate(1476.000000, 385.000000)">
                <g id="ungroup">
                    <rect id="Rectangle-path" x="0" y="0" width="36" height="36"></rect>
                    <g id="a1" opacity="0.4"></g>
                    <path d="M4.059,32.126 C4.571,32.126 5.083,31.931 5.473,31.541 L8.749,28.265 L8.83,28.346 C9.208,28.724 9.71,28.932 10.244,28.932 C10.778,28.932 11.28,28.724 11.658,28.346 L16.902,23.102 L17.162,23.362 C17.54,23.74 18.042,23.948 18.576,23.948 C19.11,23.948 19.612,23.74 19.99,23.362 L30.611,12.74 C30.989,12.363 31.197,11.861 31.197,11.326 C31.197,10.792 30.989,10.29 30.611,9.912 L22.285,1.586 C21.528,0.829 20.211,0.831 19.456,1.586 L8.834,12.208 C8.056,12.988 8.056,14.256 8.834,15.036 L9.095,15.297 L3.852,20.54 C3.474,20.918 3.266,21.42 3.266,21.954 C3.266,22.488 3.474,22.99 3.852,23.368 L3.932,23.448 L0.656,26.724 C-0.123,27.504 -0.123,28.773 0.656,29.553 L2.644,31.54 C3.033,31.931 3.546,32.126 4.059,32.126 L4.059,32.126 Z M9.541,12.915 L20.163,2.293 C20.358,2.098 20.614,2 20.87,2 C21.127,2 21.383,2.098 21.578,2.293 L29.904,10.619 C30.092,10.808 30.197,11.059 30.197,11.326 C30.197,11.594 30.093,11.845 29.904,12.033 L19.282,22.655 C18.891,23.046 18.259,23.046 17.868,22.655 L9.541,14.329 C9.152,13.939 9.152,13.305 9.541,12.915 L9.541,12.915 Z M4.559,21.247 L9.802,16.004 L16.194,22.396 L10.951,27.639 C10.56,28.03 9.928,28.03 9.537,27.639 L4.559,22.661 C4.169,22.271 4.169,21.637 4.559,21.247 L4.559,21.247 Z M1.362,27.432 L4.638,24.156 L8.04,27.559 L4.765,30.834 C4.374,31.226 3.741,31.225 3.35,30.834 L1.362,28.847 C0.973,28.457 0.973,27.821 1.362,27.432 L1.362,27.432 Z" id="Shape" fill="#0B1F35"></path>
                    <polygon id="Shape" fill="#0B1F35" opacity="0.3" points="30.18 24.111 32.455 25.5 31.836 22.908 33.86 21.174 31.204 20.961 30.18 18.5 29.157 20.961 26.5 21.174 28.524 22.908 27.906 25.5"></polygon>
                    <polygon id="Shape" fill="#0B1F35" opacity="0.3" points="33.204 30.961 32.18 28.5 31.157 30.961 28.5 31.174 30.524 32.908 29.906 35.5 32.18 34.111 34.455 35.5 33.836 32.908 35.86 31.174"></polygon>
                    <polygon id="Shape" fill="#0B1F35" opacity="0.3" points="23.204 28.961 22.18 26.5 21.157 28.961 18.5 29.174 20.524 30.908 19.906 33.5 22.18 32.111 24.455 33.5 23.836 30.908 25.86 29.174"></polygon>
                    <rect id="Rectangle-path" fill="#0B1F35" opacity="0.3" transform="translate(18.396679, 9.353948) rotate(-45.000000) translate(-18.396679, -9.353948) " x="14.1842189" y="8.35395784" width="8.4249192" height="1.99998082"></rect>
                </g>
            </g>
        </g>
    </g>
</svg>