<svg width="48" height="48" viewBox="0 0 48 48" xmlns="http://www.w3.org/2000/svg"><g fill="none" fill-rule="evenodd"><path d="M0 0h48v48H0z"/><path d="M2.082 37.742l2.391 2.392c.487.487 1.128.73 1.768.73.641 0 1.28-.243 1.768-.73l4.189-4.189.131.131c.487.487 1.128.73 1.768.73.641 0 1.281-.243 1.769-.73l6.688-6.688.359.359c.487.487 1.127.73 1.768.73.64 0 1.28-.243 1.768-.73L39.806 16.39a2.503 2.503 0 0 0 0-3.535L29.362 2.412a2.501 2.501 0 0 0-3.536 0L12.47 15.769a2.484 2.484 0 0 0-.732 1.769c0 .667.26 1.295.732 1.768l.359.359-6.688 6.687a2.503 2.503 0 0 0 0 3.536l.131.131-4.189 4.189a2.5 2.5 0 0 0-.001 3.534zm11.095-21.266L26.533 3.119c.283-.283.66-.439 1.062-.439.4 0 .777.156 1.061.439L39.097 13.56a1.503 1.503 0 0 1 0 2.121L25.739 29.039a1.504 1.504 0 0 1-2.121 0l-.569-.569-9.156-9.156-.716-.716a1.502 1.502 0 0 1 0-2.122zM6.848 27.058l6.688-6.687 8.31 8.31-6.688 6.688a1.504 1.504 0 0 1-2.122 0l-3.094-3.094-2.963-2.963-.131-.132a1.502 1.502 0 0 1 0-2.122zm-4.059 7.856l4.189-4.189 2.256 2.256 2.256 2.256-4.189 4.189a1.503 1.503 0 0 1-2.121 0l-2.391-2.392a1.5 1.5 0 0 1 0-2.12z" fill="#FFF"/><path fill="#FFF" opacity=".3" d="M40.285 27.309l-1.324-3.185-1.325 3.185-3.438.275 2.619 2.244-.8 3.356 2.944-1.798 2.943 1.798-.8-3.356 2.62-2.244zM30.759 36.76l-1.324-3.185-1.325 3.185-3.438.276 2.62 2.244-.801 3.355 2.944-1.798 2.943 1.798-.8-3.355 2.62-2.244zM43.372 39.876l-1.325-3.185-1.324 3.185-3.439.275 2.62 2.244-.8 3.355 2.943-1.798 2.944 1.798-.801-3.355 2.62-2.244zM19.67 14.664l7.997-7.997 1.415 1.415-7.997 7.996z"/></g></svg>