<svg xmlns="http://www.w3.org/2000/svg" width="24" height="24" viewBox="0 0 24 24"><path fill="none" d="M0 0h24v24H0z"/><g fill="#0B1F35"><path d="M6.95 19a1.49 1.49 0 0 1-1.06-.44L2.57 15.2a1.5 1.5 0 0 1 0-2.12L6.65 9l5.44 5.44L8 18.51a1.49 1.49 0 0 1-1.05.49zm-.3-8.6l-3.37 3.38a.5.5 0 0 0 0 .71l3.32 3.32a.5.5 0 0 0 .35.15.5.5 0 0 0 .35-.15l3.38-3.38z"/><path d="M12.5 15.63a1.49 1.49 0 0 1-1.06-.44L5.89 9.64a1.5 1.5 0 0 1 0-2.12L13 .44A1.49 1.49 0 0 1 14 0a1.49 1.49 0 0 1 1.06.44L20.65 6a1.5 1.5 0 0 1 0 2.12l-7.08 7.08a1.49 1.49 0 0 1-1.07.43zM14 1a.5.5 0 0 0-.35.15L6.6 8.23a.5.5 0 0 0 0 .71l5.55 5.55a.5.5 0 0 0 .71 0l7.08-7.09a.5.5 0 0 0 0-.71l-5.55-5.54A.5.5 0 0 0 14 1zM2.83 21.08a1.49 1.49 0 0 1-1.06-.44L.44 19.32a1.5 1.5 0 0 1 0-2.12l2.77-2.77 3.45 3.45-2.77 2.77a1.49 1.49 0 0 1-1.06.43zm.39-5.25l-2.07 2.08a.5.5 0 0 0 0 .71l1.33 1.33a.5.5 0 0 0 .71 0l2.07-2.07z"/></g><path fill="#0B1F35" d="M20 12.04l.7 1.67 1.8.15-1.37 1.17.42 1.76-1.55-.94-1.55.94.43-1.76-1.38-1.17 1.8-.15.7-1.67zM15 17l.7 1.67 1.8.15-1.37 1.17.42 1.76-1.55-.94-1.54.94.42-1.76-1.38-1.17 1.8-.15L15 17zm6.62 1.64l.7 1.67 1.8.14-1.37 1.18.41 1.76-1.54-.94-1.55.94.43-1.76-1.38-1.18 1.81-.14.69-1.67z" opacity=".3"/></svg>