<?xml version="1.0" encoding="UTF-8"?>
<svg width="48px" height="48px" viewBox="0 0 48 48" version="1.1" xmlns="http://www.w3.org/2000/svg" xmlns:xlink="http://www.w3.org/1999/xlink">
    <!-- Generator: Sketch 48.2 (47327) - http://www.bohemiancoding.com/sketch -->
    <title>icon_category-hobby_xxl_white</title>
    <desc>Created with Sketch.</desc>
    <defs></defs>
    <g id="mobile" stroke="none" stroke-width="1" fill="none" fill-rule="evenodd" transform="translate(-1616.000000, -462.000000)">
        <g id="Headings" transform="translate(64.000000, 77.000000)">
            <g id="icon_category_hobby__xxl__white" transform="translate(1552.000000, 385.000000)">
                <g id="ungroup">
                    <rect id="Rectangle-path" x="0" y="0" width="48" height="48"></rect>
                    <g id="a1" opacity="0.4"></g>
                    <path d="M2.082,37.742 L4.473,40.134 C4.96,40.621 5.601,40.864 6.241,40.864 C6.882,40.864 7.521,40.621 8.009,40.134 L12.198,35.945 L12.329,36.076 C12.816,36.563 13.457,36.806 14.097,36.806 C14.738,36.806 15.378,36.563 15.866,36.076 L22.554,29.388 L22.913,29.747 C23.4,30.234 24.04,30.477 24.681,30.477 C25.321,30.477 25.961,30.234 26.449,29.747 L39.806,16.39 C40.781,15.414 40.78,13.828 39.806,12.855 L29.362,2.412 C28.385,1.435 26.799,1.437 25.826,2.412 L12.47,15.769 C11.997,16.242 11.738,16.87 11.738,17.538 C11.738,18.205 11.998,18.833 12.47,19.306 L12.829,19.665 L6.141,26.352 C5.166,27.327 5.166,28.914 6.141,29.888 L6.272,30.019 L2.083,34.208 C1.107,35.182 1.107,36.768 2.082,37.742 L2.082,37.742 Z M13.177,16.476 L26.533,3.119 C26.816,2.836 27.193,2.68 27.595,2.68 C27.995,2.68 28.372,2.836 28.656,3.119 L39.097,13.56 C39.681,14.144 39.681,15.096 39.097,15.681 L25.739,29.039 C25.151,29.623 24.2,29.622 23.618,29.039 L23.049,28.47 L13.893,19.314 L13.177,18.598 C12.592,18.013 12.592,17.061 13.177,16.476 L13.177,16.476 Z M6.848,27.058 L13.536,20.371 L21.846,28.681 L15.158,35.369 C14.575,35.952 13.623,35.954 13.036,35.369 L9.942,32.275 L6.979,29.312 L6.848,29.18 C6.263,28.595 6.263,27.643 6.848,27.058 L6.848,27.058 Z M2.789,34.914 L6.978,30.725 L9.234,32.981 L11.49,35.237 L7.301,39.426 C6.718,40.009 5.767,40.011 5.18,39.426 L2.789,37.034 C2.204,36.45 2.204,35.499 2.789,34.914 L2.789,34.914 Z" id="Shape" fill="#FFFFFF"></path>
                    <polygon id="Shape" fill="#FFFFFF" opacity="0.3" points="40.285 27.309 38.961 24.124 37.636 27.309 34.198 27.584 36.817 29.828 36.017 33.184 38.961 31.386 41.904 33.184 41.104 29.828 43.724 27.584"></polygon>
                    <polygon id="Shape" fill="#FFFFFF" opacity="0.3" points="30.759 36.76 29.435 33.575 28.11 36.76 24.672 37.036 27.292 39.28 26.491 42.635 29.435 40.837 32.378 42.635 31.578 39.28 34.198 37.036"></polygon>
                    <polygon id="Shape" fill="#FFFFFF" opacity="0.3" points="43.372 39.876 42.047 36.691 40.723 39.876 37.284 40.151 39.904 42.395 39.104 45.75 42.047 43.952 44.991 45.75 44.19 42.395 46.81 40.151"></polygon>
                    <rect id="Rectangle-path" fill="#FFFFFF" opacity="0.3" transform="translate(24.376071, 11.373325) rotate(-45.000000) translate(-24.376071, -11.373325) " x="18.7216257" y="10.3733347" width="11.3088915" height="1.99998082"></rect>
                </g>
            </g>
        </g>
    </g>
</svg>