<svg width="24" height="24" viewBox="0 0 24 24" xmlns="http://www.w3.org/2000/svg"><g fill="none" fill-rule="evenodd"><path d="M0 0h24v24H0z"/><path d="M0 18.259c0 .4.156.778.439 1.062l1.325 1.325c.283.283.66.439 1.061.439.401 0 .777-.156 1.061-.439l2.073-2.073c.273.243.619.382.989.382h.001c.4 0 .777-.156 1.061-.439l3.377-3.377.056.056c.293.293.677.438 1.061.438.385 0 .769-.146 1.062-.438l7.081-7.082a1.501 1.501 0 0 0 0-2.121L15.096.441A1.488 1.488 0 0 0 14.034 0h-.001c-.401 0-.777.156-1.06.439L5.892 7.521a1.49 1.49 0 0 0-.44 1.061c0 .401.156.777.439 1.06l.056.056-3.378 3.378a1.491 1.491 0 0 0-.05 2.044L.44 17.199c-.284.282-.44.658-.44 1.06zM6.599 8.228l7.082-7.081A.492.492 0 0 1 14.033 1h.001a.5.5 0 0 1 .354.146l5.551 5.551a.5.5 0 0 1 0 .707l-7.081 7.082a.502.502 0 0 1-.708 0L9.374 11.71l-2.72-2.72-.055-.055a.496.496 0 0 1 0-.707zm-3.323 5.554l3.378-3.378 2.013 2.013 2.013 2.013-3.377 3.377a.495.495 0 0 1-.354.146h-.001a.499.499 0 0 1-.353-.146l-3.319-3.318a.5.5 0 0 1 0-.707zm-2.13 4.124l2.066-2.066 2.032 2.032-2.066 2.066a.5.5 0 0 1-.707 0l-1.325-1.325a.498.498 0 0 1 0-.707z" fill="#0B1F35"/><path fill="#0B1F35" opacity=".3" d="M20 15.851l1.545.943-.42-1.761 1.375-1.178-1.805-.144L20 12.039l-.695 1.672-1.805.144 1.375 1.178-.42 1.761zM15.695 18.672L15 17l-.695 1.672-1.805.144 1.375 1.178-.42 1.761L15 20.812l1.545.943-.42-1.761 1.375-1.178zM22.315 20.307l-.695-1.672-.695 1.672-1.805.145 1.375 1.177-.42 1.762 1.545-.944 1.545.944-.42-1.762 1.375-1.177z"/></g></svg>