<?xml version="1.0" encoding="UTF-8"?>
<svg width="24px" height="24px" viewBox="0 0 24 24" version="1.1" xmlns="http://www.w3.org/2000/svg" xmlns:xlink="http://www.w3.org/1999/xlink">
    <!-- Generator: Sketch 48.2 (47327) - http://www.bohemiancoding.com/sketch -->
    <title>icon_category-hobby_m_black</title>
    <desc>Created with Sketch.</desc>
    <defs></defs>
    <g id="mobile" stroke="none" stroke-width="1" fill="none" fill-rule="evenodd" transform="translate(-1475.000000, -462.000000)">
        <g id="Headings" transform="translate(64.000000, 77.000000)">
            <g id="icon_category_hobby__m__white" transform="translate(1411.000000, 385.000000)">
                <g id="ungroup">
                    <rect id="Rectangle-path" x="0" y="0" width="24" height="24"></rect>
                    <g id="a1" opacity="0.4"></g>
                    <path d="M0,18.259 C0,18.659 0.156,19.037 0.439,19.321 L1.764,20.646 C2.047,20.929 2.424,21.085 2.825,21.085 C3.226,21.085 3.602,20.929 3.886,20.646 L5.959,18.573 C6.232,18.816 6.578,18.955 6.948,18.955 L6.949,18.955 C7.349,18.955 7.726,18.799 8.01,18.516 L11.387,15.139 L11.443,15.195 C11.736,15.488 12.12,15.633 12.504,15.633 C12.889,15.633 13.273,15.487 13.566,15.195 L20.647,8.113 C21.232,7.528 21.232,6.577 20.647,5.992 L15.096,0.441 C14.812,0.156 14.435,0 14.034,0 L14.033,0 C13.632,0 13.256,0.156 12.973,0.439 L5.892,7.521 C5.608,7.804 5.452,8.182 5.452,8.582 C5.452,8.983 5.608,9.359 5.891,9.642 L5.947,9.698 L2.569,13.076 C2.007,13.638 2,14.531 2.519,15.12 L0.44,17.199 C0.156,17.481 0,17.857 0,18.259 L0,18.259 Z M6.599,8.228 L13.681,1.147 C13.775,1.052 13.9,1 14.033,1 L14.034,1 C14.168,1 14.293,1.052 14.388,1.146 L19.939,6.697 C20.134,6.892 20.134,7.209 19.939,7.404 L12.858,14.486 C12.664,14.68 12.346,14.682 12.15,14.486 L9.374,11.71 L6.654,8.99 L6.599,8.935 C6.504,8.84 6.452,8.715 6.452,8.582 C6.452,8.448 6.504,8.322 6.599,8.228 L6.599,8.228 Z M3.276,13.782 L6.654,10.404 L8.667,12.417 L10.68,14.43 L7.303,17.807 C7.208,17.902 7.083,17.953 6.949,17.953 L6.948,17.953 C6.815,17.953 6.69,17.901 6.595,17.807 L3.276,14.489 C3.081,14.294 3.081,13.978 3.276,13.782 L3.276,13.782 Z M1.146,17.906 L3.212,15.84 L5.244,17.872 L3.178,19.938 C2.983,20.133 2.666,20.133 2.471,19.938 L1.146,18.613 C1.052,18.519 1,18.393 1,18.259 C1,18.126 1.052,18.001 1.146,17.906 L1.146,17.906 Z" id="Shape" fill="#0B1F35"></path>
                    <polygon id="Shape" fill="#0B1F35" opacity="0.3" points="20 15.851 21.545 16.794 21.125 15.033 22.5 13.855 20.695 13.711 20 12.039 19.305 13.711 17.5 13.855 18.875 15.033 18.455 16.794"></polygon>
                    <polygon id="Shape" fill="#0B1F35" opacity="0.3" points="15.695 18.672 15 17 14.305 18.672 12.5 18.816 13.875 19.994 13.455 21.755 15 20.812 16.545 21.755 16.125 19.994 17.5 18.816"></polygon>
                    <polygon id="Shape" fill="#0B1F35" opacity="0.3" points="22.315 20.307 21.62 18.635 20.925 20.307 19.12 20.452 20.495 21.629 20.075 23.391 21.62 22.447 23.165 23.391 22.745 21.629 24.12 20.452"></polygon>
                </g>
            </g>
        </g>
    </g>
</svg>