<?xml version="1.0" encoding="UTF-8"?>
<svg width="36px" height="36px" viewBox="0 0 36 36" version="1.1" xmlns="http://www.w3.org/2000/svg" xmlns:xlink="http://www.w3.org/1999/xlink">
    <!-- Generator: Sketch 48.2 (47327) - http://www.bohemiancoding.com/sketch -->
    <title>icon_card-googlepay_xl_white</title>
    <desc>Created with Sketch.</desc>
    <defs></defs>
    <g id="Page-1" stroke="none" stroke-width="1" fill="none" fill-rule="evenodd">
        <g id="icon_card-googlepay_xl_white">
            <g id="Group">
                <polygon id="Shape" points="0 0 36 0 36 36 0 36"></polygon>
                <g id="ForSCREEN_logomarkwShape_GooglePay_RGB_580x350px" transform="translate(2.000000, 12.000000)" fill="#FFFFFF" fill-rule="nonzero">
                    <path d="M14.9797101,6.14528428 L14.9797101,9.76624303 L13.8309922,9.76624303 L13.8309922,0.826220736 L16.877592,0.826220736 C17.6128531,0.812050632 18.3232281,1.09260383 18.8503902,1.60535117 C19.3520013,2.07190139 19.6476579,2.71865859 19.6722799,3.40325814 C19.696902,4.08785769 19.4484712,4.75418333 18.9816722,5.25556299 C18.9395764,5.30051282 18.89534,5.34474916 18.8503902,5.38684504 C18.3176514,5.8948495 17.660052,6.1486139 16.877592,6.14813824 L14.9797101,6.14813824 L14.9797101,6.14528428 Z M14.9797101,1.92499443 L14.9797101,5.04651059 L16.9025641,5.04651059 C17.3296011,5.05916863 17.7422104,4.89132753 18.0391527,4.58416945 C18.4775422,4.13007489 18.6013011,3.45756779 18.3532877,2.87715712 C18.1052742,2.29674645 17.5337365,1.92134435 16.9025641,1.92428094 L14.9797101,1.92426383 L14.9797101,1.92499443 Z" id="Shape"></path>
                    <path d="M22.3215162,3.44829431 C23.1705686,3.44829431 23.8407729,3.67518395 24.3321293,4.12896321 C24.8234857,4.58274247 25.068926,5.20490524 25.0684504,5.99545151 L25.0684504,9.76624303 L23.9696767,9.76624303 L23.9696767,8.91719064 L23.9197324,8.91719064 C23.4440728,9.61641026 22.8114456,9.96602007 22.0218506,9.96602007 C21.347841,9.96602007 20.7839465,9.76624303 20.3301672,9.36668896 C19.889135,8.99529728 19.6390719,8.4448441 19.6494983,7.8683612 C19.6494983,7.23525827 19.8887551,6.73177258 20.3672687,6.35790412 C20.8457822,5.98403567 21.4845931,5.79662579 22.2837012,5.79567447 C22.9657971,5.79567447 23.5275511,5.92053512 23.9689632,6.17025641 L23.9689632,5.90769231 C23.9727767,5.51344312 23.7984318,5.13853593 23.4944928,4.88740245 C23.190221,4.61456879 22.7943687,4.46631524 22.3857302,4.47215162 C21.7440654,4.47215162 21.2362988,4.74280193 20.8624303,5.28410256 L19.8507023,4.64695652 C20.4072241,3.84784838 21.2308287,3.44829431 22.3215162,3.44829431 Z M20.8353177,7.89333333 C20.8338739,8.18993221 20.9757816,8.46896413 21.2163211,8.64249721 C21.4704637,8.842185 21.7857412,8.94803357 22.1088963,8.94216276 C22.593622,8.94127472 23.0582448,8.74834468 23.4010256,8.40561873 C23.7815533,8.04744705 23.9718172,7.62720178 23.9718172,7.14488294 C23.6136455,6.85948718 23.1142029,6.71797845 22.4734894,6.72035674 C22.0068673,6.72035674 21.6177778,6.83285024 21.3062207,7.05783724 C20.9915719,7.2825864 20.8353177,7.55727982 20.8353177,7.89333333 Z" id="Shape"></path>
                    <polygon id="Shape" points="31.3756968 3.64807135 27.5399777 12.463233 26.3541583 12.463233 27.7775697 9.38238573 25.2553846 3.6516388 26.5039911 3.6516388 28.3269565 8.04673356 28.3519287 8.04673356 30.1249498 3.6516388"></polygon>
                    <path d="M10.337748,5.36472687 C10.3383045,5.01464957 10.3087042,4.66517495 10.2492754,4.32017837 L5.40468227,4.32017837 L5.40468227,6.2986845 L8.17944259,6.2986845 C8.06470713,6.93722334 7.69407223,7.50116572 7.15344482,7.85979933 L7.15344482,9.14408027 L8.80945373,9.14408027 C9.77908584,8.25007804 10.337748,6.92798216 10.337748,5.36472687 Z" id="Shape"></path>
                    <path d="M5.40468227,10.3848384 C6.7909922,10.3848384 7.95826087,9.92963211 8.80945373,9.14479376 L7.15344482,7.86051282 C6.69253066,8.17088071 6.09890747,8.35210702 5.40468227,8.35210702 C4.06474916,8.35210702 2.92744705,7.44882943 2.52075808,6.2316165 L0.814804905,6.2316165 L0.814804905,7.55513935 C1.68699732,9.29003781 3.46288098,10.3848854 5.40468227,10.3848384 Z" id="Shape"></path>
                    <path d="M2.52075808,6.23090301 C2.30601885,5.59303211 2.30601885,4.9023971 2.52075808,4.2645262 L2.52075808,2.94100334 L0.814804905,2.94100334 C0.0854552386,4.39233206 0.0854552386,6.10309715 0.814804905,7.55442586 L2.52075808,6.23090301 Z" id="Shape"></path>
                    <path d="M5.40468227,2.14403567 C6.13731207,2.13191264 6.84525655,2.4087338 7.37534002,2.91460424 L8.84156076,1.4483835 C7.91190488,0.574998552 6.68015667,0.095544974 5.40468227,0.110590858 C3.46272255,0.110679365 1.68679876,1.20582777 0.814804905,2.94100334 L2.52075808,4.2645262 C2.92744705,3.04731327 4.06474916,2.14403567 5.40468227,2.14403567 Z" id="Shape"></path>
                </g>
            </g>
        </g>
    </g>
</svg>