<svg xmlns="http://www.w3.org/2000/svg" width="24" height="24" viewBox="0 0 24 24"><rect width="24" height="24" fill="none"/><path fill="#FFF" fill-rule="nonzero" d="M0 10.562C0 9.7.687 9 1.533 9L5 9 5 20 1.533 20C.687 20 0 19.3 0 18.438L0 10.562zM4 10L1.533 10C1.2309414 10.0087191.992718635 10.2599033 1 10.562L1 18.438C1 18.752 1.243 19 1.533 19L4 19 4 10zM7 10.077C6.99983387 9.63772368 7.1299918 9.2082721 7.374 8.843L9.907 5.29 10 5.16 10 3C10 2.239 10.252 1.668 10.544 1.491 10.9852804 1.18433521 11.5842193 1.24503561 11.955 1.634 13.057 2.654 13.43 4.259 13.015 5.876L12.525 7.342 12.306 8 19.161 8C20.025 8 20.5 8.357 20.5 9 20.5 9.41 20.318 9.934 20.106 10.146L19.64 10.61 20.211 10.935C20.717 11.222 21 11.595 21 12 21 12.587 20.598 13.05 19.965 13.207L19.226 13.39 19.688 13.995C19.863 14.225 19.958 14.5 19.958 14.788 19.958 15.461 19.443 16.028 18.758 16.113L17.922 16.216 18.413 16.9C18.573 17.124 18.661 17.387 18.661 17.663 18.661 18.399 18.047 19 17.285 19L6.99999984 19 7 10.077zM21.5 9C21.5 7.732 20.525 7 19.16 7L13.694 7 13.974 6.158C14.484 4.171 14.024 2.186 12.657.922 11.9543204.207744814 10.843869.0920029022 10.009.646 9.4 1.016 9 1.919 9 3.001L9 4.841 6.55 8.277C6.37070236 8.5444833 6.23187259 8.83696933 6.138 9.145 6.0464559 9.44754097 5.99995723 9.76191242 6 10.078L5.99999997 20 17.285 20C18.595 20 19.661 18.956 19.661 17.663 19.6608381 17.4126472 19.6196246 17.1640152 19.539 16.927 20.3970214 16.5615541 20.9553004 15.7205973 20.959 14.788 20.959 14.498 20.904 14.216 20.8 13.952 21.53 13.567 22 12.854 22 12 22 11.349 21.682 10.796 21.157 10.371 21.372 9.961 21.5 9.451 21.5 9z" transform="translate(1 2)"/></svg>