<svg xmlns="http://www.w3.org/2000/svg" width="24" height="24" viewBox="0 0 24 24"><g fill="none" fill-rule="evenodd"><path d="M0 0h24v24H0z"/><path fill="#FFFFFF" fill-rule="nonzero" d="M5 12H2.533a.549.549 0 0 0-.533.562v7.876c0 .314.243.562.533.562H5v-9zm-4 .562C1 11.7 1.687 11 2.533 11H6v11H2.533C1.687 22 1 21.3 1 20.438v-7.876zM22.5 11c0-1.268-.975-2-2.34-2h-5.466l.28-.842c.51-1.987.05-3.972-1.317-5.236a2.092 2.092 0 0 0-2.648-.276C10.4 3.016 10 3.919 10 5.001v1.84l-2.45 3.436a3.272 3.272 0 0 0-.412.868 3.22 3.22 0 0 0-.138.933V22h11.285c1.31 0 2.376-1.044 2.376-2.337a2.29 2.29 0 0 0-.122-.736 2.335 2.335 0 0 0 1.42-2.139c0-.29-.055-.572-.159-.836.73-.385 1.2-1.098 1.2-1.952 0-.651-.318-1.204-.843-1.629.215-.41.343-.92.343-1.371zM8 12.077a2.22 2.22 0 0 1 .374-1.234l2.533-3.553.093-.13V5c0-.761.252-1.332.544-1.509a1.09 1.09 0 0 1 1.411.143c1.102 1.02 1.475 2.625 1.06 4.242l-.49 1.466-.219.658h6.855c.864 0 1.339.357 1.339 1 0 .41-.182.934-.394 1.146l-.466.464.571.325c.506.287.789.66.789 1.065 0 .587-.402 1.05-1.035 1.207l-.739.183.462.605c.175.23.27.505.27.793 0 .673-.515 1.24-1.2 1.325l-.836.103.491.684c.16.224.248.487.248.763 0 .736-.614 1.337-1.376 1.337H8v-8.923z"/></g></svg>
