<svg xmlns="http://www.w3.org/2000/svg" width="24" height="24" viewBox="0 0 24 24"><path fill="none" d="M0 0h24v24H0z"/><path fill="#0B1F35" d="M7 11h10v2H7zm7 4h3v2h-3zm-7 0h5v2H7zm0-8h6v2H7z" opacity=".3"/><path fill="#0B1F35" d="M5.62 23.11L3 21.26V2.74L5.62.89l2.12 1.5L9.87.89 12 2.39l2.13-1.5 2.13 1.5 2.13-1.5L21 2.74v18.52l-2.62 1.85-2.13-1.5-2.13 1.5-2.12-1.5-2.12 1.5-2.12-1.5zM12 20.39l2.13 1.5 2.13-1.5 2.13 1.5L20 20.74V3.26l-1.62-1.15-2.13 1.5-2.13-1.5L12 3.61l-2.13-1.5-2.13 1.5-2.12-1.5L4 3.26v17.48l1.62 1.15 2.12-1.5 2.13 1.5z"/></svg>