<svg width="48" height="48" viewBox="0 0 48 48" xmlns="http://www.w3.org/2000/svg">
  <g fill="none" fill-rule="evenodd">
    <path opacity=".2" d="M0 0h48v48H0z"/>
    <g opacity=".6" fill="#FEFEFE" fill-rule="nonzero">
      <path d="M6.574 10.032l-.139-.974a3.99 3.99 0 0 0-3.066 2.284l.901.412a2.99 2.99 0 0 1 2.304-1.722M26.431 10h4V9h-4zM34.431 10h4V9h-4zM3 27.285h1v-4H3zM9 39v-1H7.007a3.027 3.027 0 0 1-1.445-.367l-.47.861A3.97 3.97 0 0 0 7.007 39H9zM44 32.146V35c0 .289-.041.575-.121.849l.941.276c.106-.36.18-.731.18-1.124v-2.855h-1zM3 19.285h1v-4H3zM4 31.285H3V35c0 .098.022.189.029.285l.978-.071A2.914 2.914 0 0 1 4 35v-3.715zM44.907 12.153a3.993 3.993 0 0 0-2.511-2.888l-.346.924a3.024 3.024 0 0 1 1.883 2.174l.974-.21zM42.12 38.822l-.274-.942a3.06 3.06 0 0 1-.842.12H38.14v1h2.863c.39 0 .76-.074 1.116-.178M30.141 39h4v-1h-4zM44 28.146h1v-4h-1zM18.431 10h4V9h-4zM44 20.146h1v-4h-1zM22.141 39h4v-1h-4zM10.431 10h4V9h-4zM18.14 39v-1H13v1h4z"/>
    </g>
  </g>
</svg>
