<svg xmlns="http://www.w3.org/2000/svg" width="48" height="48" viewBox="0 0 48 48"><g fill="none" fill-rule="evenodd"><polygon points="24 48 48 48 48 0 24 0 0 0 0 48"/><path fill="#FFF" fill-rule="nonzero" d="M36.5,35 L10.5,35 C8.01586091,34.9972444 6.00275556,32.9841391 6,30.5 L6,23 L7,23 L7,30.5 C7,32.43 8.57,34 10.5,34 L36.5,34 C38.43,34 40,32.43 40,30.5 L40,14.5 C40,12.57 38.43,11 36.5,11 L19,11 L19,10 L36.5,10 C38.981,10 41,12.019 41,14.5 L41,30.5 C41,32.981 38.981,35 36.5,35 Z" transform="rotate(180 23.5 22.5)"/><polygon fill="#FFF" fill-rule="nonzero" points="7 18 41 18 41 22 7 22" opacity=".3"/><polygon fill="#FFF" fill-rule="nonzero" points="37.5 30.793 42.146 26.146 42.854 26.854 38.207 31.5 42.854 36.146 42.146 36.854 37.5 32.207 32.854 36.854 32.146 36.146 36.793 31.5 32.146 26.854 32.854 26.146"/><polygon fill="#FFF" fill-rule="nonzero" points="10 27 16 27 16 30 10 30" opacity=".3"/></g></svg>