<svg xmlns="http://www.w3.org/2000/svg" width="24" height="24" viewBox="0 0 24 24"><g fill="none" fill-rule="evenodd"><polygon points="0 0 24 0 24 24 0 24"/><path fill="#FFF" fill-rule="nonzero" d="M5,14 L9,14 L9,16 L5,16 L5,14 Z M2,8 L22,8 L22,11 L2,11 L2,8 Z" opacity=".3"/><path fill="#FFF" fill-rule="nonzero" d="M23,11.0013275 L22,11.0013275 L22,5.42857143 C22,4.62923673 21.3999848,4 20.6842105,4 L3.31578947,4 C2.60001521,4 2,4.62923673 2,5.42857143 L2,17.5714286 C2,18.3707633 2.60001521,19 3.31578947,19 L13.9989941,19 L13.9989941,20 L3.31578947,20 C2.03681426,20 1,18.9126915 1,17.5714286 L1,5.42857143 C1,4.08730846 2.03681426,3 3.31578947,3 L20.6842105,3 C21.9631857,3 23,4.08730846 23,5.42857143 L23,11.0013275 Z"/><polygon fill="#FFF" fill-rule="nonzero" points="20.5 16.793 23.146 14.146 23.854 14.854 21.207 17.5 23.854 20.146 23.146 20.854 20.5 18.207 17.854 20.854 17.146 20.146 19.793 17.5 17.146 14.854 17.854 14.146"/><path fill="#FFF" fill-rule="nonzero" d="M23,11.0013275 L22,11.0013275 L22,5.42857143 C22,4.62923673 21.3999848,4 20.6842105,4 L3.31578947,4 C2.60001521,4 2,4.62923673 2,5.42857143 L2,17.5714286 C2,18.3707633 2.60001521,19 3.31578947,19 L13.9989941,19 L13.9989941,20 L3.31578947,20 C2.03681426,20 1,18.9126915 1,17.5714286 L1,5.42857143 C1,4.08730846 2.03681426,3 3.31578947,3 L20.6842105,3 C21.9631857,3 23,4.08730846 23,5.42857143 L23,11.0013275 Z"/></g></svg>