<svg xmlns="http://www.w3.org/2000/svg" width="36" height="36" viewBox="0 0 36 36"><g fill="none" fill-rule="evenodd"><polygon points="0 0 36 0 36 36 0 36"/><path fill="#FFF" fill-rule="nonzero" d="M4.84787941,21.0089575 L10.8478794,21.0089575 L10.8478794,24.0089575 L4.84787941,24.0089575 L4.84787941,21.0089575 Z M1.98205874,12.0062596 L33.9820587,12.0062596 L33.9820587,15.9783274 L2.00065926,16 L1.98205874,12.0062596 Z" opacity=".3"/><polygon fill="#FFF" fill-rule="nonzero" points="30.5 23.793 34.646 19.646 35.354 20.354 31.207 24.5 35.354 28.646 34.646 29.354 30.5 25.207 26.354 29.354 25.646 28.646 29.793 24.5 25.646 20.354 26.354 19.646"/><path fill="#FFF" fill-rule="nonzero" d="M34,16.0115239 L34,8.28571429 C34,6.47106439 32.4447786,5 30.5263158,5 L4.47368421,5 C2.5552214,5 1,6.47106439 1,8.28571429 L1,24.7142857 C1,26.5289356 2.5552214,28 4.47368421,28 L21.810471,28 L21.810471,27 L4.47368421,27 C3.09544945,27 2,25.9638281 2,24.7142857 L2,8.28571429 C2,7.03617188 3.09544945,6 4.47368421,6 L30.5263158,6 C31.9045505,6 33,7.03617188 33,8.28571429 L33,16.0115239 L34,16.0115239 Z M34,8.28571429 C34,6.47106439 32.4447786,5 30.5263158,5 L4.47368421,5 C2.5552214,5 1,6.47106439 1,8.28571429 L1,24.7142857 C1,26.5289356 2.5552214,28 4.47368421,28 L21.810471,28 L21.810471,27 L4.47368421,27 C3.09544945,27 2,25.9638281 2,24.7142857 L2,8.28571429 C2,7.03617188 3.09544945,6 4.47368421,6 L30.5263158,6 C31.9045505,6 33,7.03617188 33,8.28571429 L33,16.0115239 L34,16.0115239 L34,8.28571429 Z"/></g></svg>