<svg xmlns="http://www.w3.org/2000/svg" width="18" height="18" viewBox="0 0 18 18"><g fill="none" fill-rule="evenodd"><rect width="18" height="18"/><path fill="#FFF" fill-rule="nonzero" d="M3,10 L6,10 L6,12 L3,12 L3,10 Z M0,6 L17,6 L17,8 L0,8 L0,6 Z" opacity=".3"/><polygon fill="#FFF" fill-rule="nonzero" points="15.5 12.973 17.473 11 18 11.527 16.027 13.5 18 15.473 17.473 16 15.5 14.027 13.527 16 13 15.473 14.973 13.5 13 11.527 13.527 11"/><path fill="#FFF" fill-rule="nonzero" d="M17,8.03684394 L16.2272727,8.03684394 L16.2272727,3.85714286 C16.2272727,3.24588691 15.7636246,2.76470588 15.2105263,2.76470588 L1.78947368,2.76470588 C1.23637539,2.76470588 0.772727273,3.24588691 0.772727273,3.85714286 L0.772727273,13.1428571 C0.772727273,13.7541131 1.23637539,14.2352941 1.78947368,14.2352941 L10.0446773,14.2352941 L10.0446773,15 L1.78947368,15 C0.801174658,15 0,14.1685288 0,13.1428571 L0,3.85714286 C0,2.83147118 0.801174658,2 1.78947368,2 L15.2105263,2 C16.1988253,2 17,2.83147118 17,3.85714286 L17,8.03684394 Z"/></g></svg>