<svg xmlns="http://www.w3.org/2000/svg" width="32" height="25" viewBox="0 0 32 25"><g fill="none" fill-rule="evenodd"><path d="M-2-7h36v36H-2z" opacity=".2"/><path fill="#0B1F35" d="M5 14h6v3H5zM1 5h30v3H1z" opacity=".3"/><path fill="#0B1F35" d="M15.7 20.999l2.48-2.48-.59-.59-3.535 3.536L17.59 25l.59-.589L15.767 22h13.234A3.003 3.003 0 0 0 32 18.999V3a2.998 2.998 0 0 0-2.996-3H2.996A2.994 2.994 0 0 0 0 3.001V19a3.004 3.004 0 0 0 3.007 3h8.014v-1H3.007A2.004 2.004 0 0 1 1 18.999V3c0-1.107.89-2 1.996-2h26.008C30.106 1 31 1.895 31 3.001V19a2.003 2.003 0 0 1-2 2l-13.3-.001z"/></g></svg>