<svg xmlns="http://www.w3.org/2000/svg" width="22" height="20" viewBox="0 0 22 20"><g fill="none" fill-rule="evenodd"><path d="M-1-4h24v24H-1z" opacity=".2"/><path fill="#FFF" d="M0 4h22v2H0zm4 7h4v2H4z" opacity=".3"/><path fill="#FFF" d="M11.507 16H19c1.102 0 2-.897 2-2.001V3a1.998 1.998 0 0 0-1.996-2H2.996A1.994 1.994 0 0 0 1 3.001V14c0 1.104.898 2 2.007 2H8.02v1H3.007A3.004 3.004 0 0 1 0 13.999V3a2.994 2.994 0 0 1 2.996-3h16.008A2.998 2.998 0 0 1 22 3.001V14a3.003 3.003 0 0 1-3 3h-7.472l1.846 1.847-.471.471-2.829-2.828 2.829-2.829.471.472L11.507 16z"/></g></svg>