<svg xmlns="http://www.w3.org/2000/svg" width="44" height="34" viewBox="0 0 44 34"><g fill="none" fill-rule="evenodd"><path d="M-2-9h48v48H-2z"/><path fill="#0B1F35" d="M21.954 28.996l3.036-3.036-.707-.707-4.243 4.242 4.243 4.243.707-.707-3.035-3.035L40.001 30A4.002 4.002 0 0 0 44 26V4c0-2.213-1.792-4-4.002-4H4.002A4.001 4.001 0 0 0 0 4v22c0 2.213 1.795 4 4.008 4h12.097v-1H4.008A3.001 3.001 0 0 1 1 26V4c0-1.656 1.345-3 3.002-3h35.996C41.658 1 43 2.34 43 4v22c0 1.655-1.346 3-2.999 3l-18.047-.004z"/><path fill="#0B1F35" d="M1 6h42v4H1zm5 14h8v4H6z" opacity=".3"/></g></svg>