<svg xmlns="http://www.w3.org/2000/svg" width="12" height="12" viewBox="0 0 12 12"><g fill="none" fill-rule="evenodd" transform="translate(2 2)"><rect width="8" height="8"/><path fill="#FFF" fill-rule="nonzero" d="M5.33333333,2.66666667 L2.66666667,2.66666667 L2.66666667,2 C2.66666667,1.26466667 3.26466667,0.666666667 4,0.666666667 C4.73533333,0.666666667 5.33333333,1.26466667 5.33333333,2 L5.33333333,2.66666667 Z M4,6 C3.632,6 3.33333333,5.70133333 3.33333333,5.33333333 C3.33333333,4.96533333 3.632,4.66666667 4,4.66666667 C4.368,4.66666667 4.66666667,4.96533333 4.66666667,5.33333333 C4.66666667,5.70133333 4.368,6 4,6 Z M6.66666667,2.66666667 L6,2.66666667 L6,2 C6,0.895333333 5.10466667,0 4,0 C2.89533333,0 2,0.895333333 2,2 L2,2.66666667 L1.33333333,2.66666667 C0.965333333,2.66666667 0.666666667,2.96533333 0.666666667,3.33333333 L0.666666667,6.66666667 C0.666666667,7.40333333 1.26333333,8 2,8 L6,8 C6.73666667,8 7.33333333,7.40333333 7.33333333,6.66666667 L7.33333333,3.33333333 C7.33333333,2.96533333 7.03466667,2.66666667 6.66666667,2.66666667 Z"/></g></svg>