<svg width="36px" height="36px" viewBox="0 0 36 36" version="1.1" xmlns="http://www.w3.org/2000/svg"><g stroke="none" stroke-width="1" fill="none" fill-rule="evenodd"><rect fill-rule="nonzero" x="0" y="0" width="36" height="36"/><g transform="translate(0.000000, 7.000000)"><path d="M7.94308532,0.5 L16.4074516,0.5 C17.58872,0.5 18.2598139,1.45392859 17.905195,2.6272551 L12.8421904,19.3761376 C12.4845915,20.5460714 11.2383593,21.5 10.0576869,21.5 L1.59153264,21.5 C0.412052226,21.5 -0.26023373,20.5460714 0.0949811901,19.3761376 L5.16036978,2.6272551 C5.51379671,1.45392859 6.75943292,0.5 7.94308532,0.5" fill="#C92D3B"/><path d="M16.7802517,0.5 L26.3160959,0.5 C27.4726103,0.5 26.888807,1.45392859 26.5373573,2.6272551 L21.5785316,19.3761376 C21.2311686,20.5460714 21.2533531,21.5 20.0945034,21.5 L10.5586593,21.5 C9.39922581,21.5 8.74478224,20.5460714 9.09389665,19.3761376 L14.0527224,2.6272551 C14.4024206,1.45392859 15.6231535,0.5 16.7802517,0.5" fill="#223D67"/><path d="M25.9430213,0.5 L34.406636,0.5 C35.5902666,0.5 36.2607522,1.45392859 35.9043519,2.6272551 L30.8420363,19.3761376 C30.48504,20.5460714 29.2364467,21.5 28.0540081,21.5 L19.5939693,21.5 C18.4109346,21.5 17.739853,20.5460714 18.0950614,19.3761376 L23.1603569,2.6272551 C23.5143733,1.45392859 24.7581987,0.5 25.9430213,0.5" fill="#167274"/></g></g></svg>