<svg width="24px" height="24px" viewBox="0 0 24 24" version="1.1" xmlns="http://www.w3.org/2000/svg"><g stroke="none" stroke-width="1" fill="none" fill-rule="evenodd"><rect fill-rule="nonzero" x="0" y="0" width="24" height="24"/><g transform="translate(0.000000, 5.000000)"><path d="M5.29539021,0 L10.9383011,0 C11.7258133,0 12.1732093,0.635952394 11.9367967,1.41817007 L8.56146028,12.5840918 C8.32306101,13.3640476 7.49223953,14 6.70512459,14 L1.06102176,14 C0.274701484,14 -0.173489153,13.3640476 0.0633207934,12.5840918 L3.44024652,1.41817007 C3.67586447,0.635952394 4.50628861,0 5.29539021,0" fill="#C92D3B"/><path d="M11.1868345,0 L17.5440639,0 C18.3150736,0 17.9258713,0.635952394 17.6915716,1.41817007 L14.3856877,12.5840918 C14.1541124,13.3640476 14.1689021,14 13.3963356,14 L7.03910619,14 C6.26615054,14 5.82985482,13.3640476 6.06259777,12.5840918 L9.36848161,1.41817007 C9.60161375,0.635952394 10.4154356,0 11.1868345,0" fill="#223D67"/><path d="M17.2953475,0 L22.9377573,0 C23.7268444,0 24.1738348,0.635952394 23.9362346,1.41817007 L20.5613576,12.5840918 C20.32336,13.3640476 19.4909645,14 18.702672,14 L13.0626462,14 C12.2739564,14 11.8265687,13.3640476 12.0633743,12.5840918 L15.4402379,1.41817007 C15.6762489,0.635952394 16.5054658,0 17.2953475,0" fill="#167274"/></g></g></svg>