<svg width="48" height="48" viewBox="0 0 48 48" xmlns="http://www.w3.org/2000/svg"><g fill="none" fill-rule="evenodd"><path d="M0 0h48v48H0z"/><path d="M10.59 10h11.287c1.575 0 2.47 1.272 1.997 2.836l-6.751 22.332C16.646 36.728 14.984 38 13.41 38H2.122C.549 38-.347 36.728.127 35.168L6.88 12.836C7.352 11.272 9.013 10 10.59 10" fill="#C92D3B"/><path d="M22.374 10h12.714c1.542 0 .764 1.272.295 2.836l-6.612 22.332c-.463 1.56-.433 2.832-1.978 2.832H14.078c-1.546 0-2.418-1.272-1.953-2.832l6.612-22.332C19.203 11.272 20.831 10 22.374 10" fill="#223D67"/><path d="M34.59 10h11.286c1.578 0 2.472 1.272 1.996 2.836l-6.75 22.332c-.475 1.56-2.14 2.832-3.717 2.832h-11.28c-1.577 0-2.472-1.272-1.998-2.832l6.753-22.332C31.352 11.272 33.01 10 34.59 10" fill="#167274"/></g></svg>