<svg width="36" height="36" viewBox="0 0 36 36" xmlns="http://www.w3.org/2000/svg"><g fill="none" fill-rule="evenodd"><path d="M0 0h36v36H0z"/><path d="M7.943 7.5h8.464c1.182 0 1.853.954 1.498 2.127l-5.063 16.75c-.357 1.17-1.604 2.123-2.784 2.123H1.592c-1.18 0-1.852-.954-1.497-2.124L5.16 9.627C5.514 8.454 6.76 7.5 7.943 7.5" fill="#C92D3B"/><path d="M16.78 7.5h9.536c1.157 0 .573.954.221 2.127l-4.958 16.75c-.348 1.17-.326 2.123-1.484 2.123h-9.536c-1.16 0-1.814-.954-1.465-2.124l4.959-16.749c.35-1.173 1.57-2.127 2.727-2.127" fill="#223D67"/><path d="M25.943 7.5h8.464c1.183 0 1.854.954 1.497 2.127l-5.062 16.75c-.357 1.17-1.606 2.123-2.788 2.123h-8.46c-1.183 0-1.854-.954-1.499-2.124L23.16 9.627c.354-1.173 1.598-2.127 2.783-2.127" fill="#167274"/></g></svg>