<svg width="24" height="24" viewBox="0 0 24 24" xmlns="http://www.w3.org/2000/svg"><g fill="none" fill-rule="evenodd"><path d="M0 0h24v24H0z"/><path d="M5.295 5h5.643c.788 0 1.235.636.999 1.418L8.56 17.584C8.323 18.364 7.492 19 6.705 19H1.061c-.786 0-1.234-.636-.998-1.416L3.44 6.418C3.676 5.636 4.506 5 5.295 5" fill="#C92D3B"/><path d="M11.187 5h6.357c.771 0 .382.636.148 1.418l-3.306 11.166c-.232.78-.217 1.416-.99 1.416H7.04c-.773 0-1.21-.636-.976-1.416L9.368 6.418C9.602 5.636 10.415 5 11.187 5" fill="#223D67"/><path d="M17.295 5h5.643c.789 0 1.236.636.998 1.418l-3.375 11.166c-.238.78-1.07 1.416-1.858 1.416h-5.64c-.789 0-1.236-.636-1-1.416L15.44 6.418C15.676 5.636 16.505 5 17.295 5" fill="#167274"/></g></svg>