<svg width="48px" height="48px" viewBox="0 0 48 48" version="1.1" xmlns="http://www.w3.org/2000/svg"><g stroke="none" stroke-width="1" fill="none" fill-rule="evenodd"><rect fill-rule="nonzero" x="0" y="0" width="48" height="48"/><g transform="translate(0.000000, 10.000000)"><path d="M10.5907804,0 L21.8766021,0 C23.4516266,0 24.3464186,1.27190479 23.8735934,2.83634014 L17.1229206,25.1681835 C16.646122,26.7280952 14.9844791,28 13.4102492,28 L2.12204352,28 C0.549402968,28 -0.346978306,26.7280952 0.126641587,25.1681835 L6.88049305,2.83634014 C7.35172895,1.27190479 9.01257723,0 10.5907804,0" fill="#C92D3B"/><path d="M22.373669,0 L35.0881278,0 C36.6301471,0 35.8517426,1.27190479 35.3831431,2.83634014 L28.7713754,25.1681835 C28.3082248,26.7280952 28.3378041,28 26.7926712,28 L14.0782124,28 C12.5323011,28 11.6597096,26.7280952 12.1251955,25.1681835 L18.7369632,2.83634014 C19.2032275,1.27190479 20.8308713,0 22.373669,0" fill="#223D67"/><path d="M34.590695,0 L45.8755146,0 C47.4536888,0 48.3476697,1.27190479 47.8724692,2.83634014 L41.1227151,25.1681835 C40.64672,26.7280952 38.981929,28 37.4053441,28 L26.1252924,28 C24.5479129,28 23.6531374,26.7280952 24.1267486,25.1681835 L30.8804759,2.83634014 C31.3524978,1.27190479 33.0109316,0 34.590695,0" fill="#167274"/></g></g></svg>