<svg xmlns="http://www.w3.org/2000/svg" width="36" height="36" viewBox="0 0 36 36"><path fill="none" d="M0 0h36v36H0z"/><path fill="#fff" d="M18 22c-5 0-8-6.07-8-11.93C10 5.85 10.91 1 18 1s8 4.85 8 9.07C26 15.93 23 22 18 22zm0-20c-5 0-7 2.34-7 8.07C11 14.61 13.17 21 18 21s7-6.39 7-10.93C25 4.34 23 2 18 2z"/><path fill="#fff" d="M2 35H1c0-5 6.18-7.86 8.81-9.17 2.9-1.45 3.44-2.83 3.44-5.83h1c0 4-.75 5.1-4 6.72C7.79 28 2 30.59 2 35zm33 0h-1c0-4.41-5.79-7-8.26-8.28-3.25-1.62-4-2.72-4-6.72h1c0 3 .55 4.38 3.45 5.83C28.82 27.14 35 30 35 35zM11.8 11.98z"/></svg>