<svg xmlns="http://www.w3.org/2000/svg" width="24" height="24" viewBox="0 0 24 24"><path fill="none" d="M0 0h24v24H0z"/><path fill="#0B1F35" d="M12 15c-3.76 0-6-4.32-6-8.5 0-3 .68-6.5 6-6.5s6 3.47 6 6.5c0 4.18-2.24 8.5-6 8.5zm0-14C8.45 1 7 2.59 7 6.5 7 9.61 8.55 14 12 14s5-4.39 5-7.5C17 2.59 15.55 1 12 1z"/><path fill="#0B1F35" d="M1 24H0c0-3.75 4.69-6.23 6.23-7 2-1 2.32-1 2.32-4h1c0 3-.46 3.69-2.87 4.89C5.27 18.59 1 20.87 1 24zm23 0h-1c0-3.13-4.27-5.41-5.67-6.11-2.42-1.2-2.87-1.89-2.87-4.89h1c0 3 .35 3 2.32 4 1.53.77 6.22 3.25 6.22 7zM7.68 8.5z"/></svg>