<svg xmlns="http://www.w3.org/2000/svg" width="48" height="48" viewBox="0 0 48 48"><g fill="none" fill-rule="evenodd"><path d="M0 0h48v48H0z"/><path fill="#0B1F35" d="M35.325 34.523c-4.261-2.127-5.285-3.343-5.323-8.11C33.199 23.309 35 17.852 35 12.5 35 6.681 33.75 0 24 0S13 6.681 13 12.5c0 5.352 1.801 10.811 4.999 13.915-.029 4.819-1.044 5.941-5.323 8.077C9.209 36.221 0 41 0 48h1c0-7 8.807-10.929 12.122-12.582 4.072-2.032 5.659-3.45 5.856-8.163C20.426 28.347 22.104 29 24 29c1.896 0 3.573-.653 5.02-1.744.186 4.75 1.769 6.09 5.859 8.131C38.193 37.04 47 41 47 48h1c0-7-9.209-11.748-12.675-13.477zM24 28c-6.897 0-10-9.063-10-15.5C14 4.332 16.897 1 24 1s10 3.332 10 11.5C34 18.937 30.897 28 24 28z"/></g></svg>