<svg xmlns="http://www.w3.org/2000/svg" width="16" height="17" viewBox="0 0 16 17"><g fill="#FFF"><path d="M8 4.722c-.606 0-1.293.573-1.899 1.45-.606.954-.97 2.098-.97 3.129 0 1.488.889 2.977 2.869 2.977 1.98 0 2.828-1.489 2.869-2.976 0-1.03-.364-2.175-.97-3.13-.606-.915-1.293-1.45-1.899-1.45z"/><path d="M16 2.126c0-.63-.585-1.182-1.251-1.182H1.251C.562.944 0 1.475 0 2.126v12.747c0 .652.562 1.183 1.251 1.183h13.497c.69 0 1.252-.531 1.252-1.182V2.126zm-1 12.748c0 .13-.113.237-.251.237H1.251c-.138 0-.251-.107-.251-.237V2.126c0-.13.113-.237.251-.237h13.497c.118 0 .252.126.252.237v12.748z"/></g></svg>