<svg xmlns="http://www.w3.org/2000/svg" width="18" height="18" version="1" viewBox="0 0 18 18"><path fill="#0B1F35" d="M9 5c-.606 0-1.293.606-1.899 1.535-.606 1.01-.97 2.222-.97 3.313C6.131 11.424 7.02 13 9 13s2.828-1.576 2.869-3.151c0-1.091-.364-2.303-.97-3.313C10.293 5.566 9.606 5 9 5z"/><path fill="#0B1F35" d="M17 2.251C17 1.585 16.415 1 15.749 1H2.251C1.562 1 1 1.562 1 2.251v13.497C1 16.438 1.562 17 2.251 17h13.497c.69 0 1.252-.562 1.252-1.251V2.251zm-1 13.498a.252.252 0 0 1-.251.251H2.251A.252.252 0 0 1 2 15.749V2.251C2 2.113 2.113 2 2.251 2h13.497c.118 0 .252.134.252.251v13.498z"/></svg>