<svg xmlns="http://www.w3.org/2000/svg" width="24" height="24" version="1" viewBox="0 0 24 24"><path fill="#0B1F35" d="M12 18c2.97 0 4.242-2.364 4.303-4.727 0-1.636-.545-3.455-1.455-4.97C13.939 6.849 12.909 6 12 6s-1.939.909-2.849 2.303c-.909 1.515-1.455 3.333-1.455 4.97C7.697 15.636 9.03 18 12 18z"/><path fill="#0B1F35" d="M2 20.548C2 21.349 2.651 22 3.452 22h17.096c.801 0 1.452-.651 1.452-1.452V3.452C22 2.678 21.321 2 20.548 2H3.452C2.651 2 2 2.651 2 3.452v17.096zM3 3.452C3 3.203 3.203 3 3.452 3h17.096c.224 0 .452.228.452.452v17.097a.453.453 0 0 1-.452.451H3.452A.453.453 0 0 1 3 20.548V3.452z"/></svg>