<svg xmlns="http://www.w3.org/2000/svg" width="24" height="24" viewBox="0 0 24 24"><rect fill="none" width="24" height="24"/><g fill="#0B1F35" fill-rule="nonzero" transform="translate(1 1)"><path d="M14.611,16.025 L20.296,21.71 C20.6864653,22.1004653 21.3195347,22.1004653 21.71,21.71 C22.1004653,21.3195347 22.1004653,20.6864653 21.71,20.296 L16.025,14.611 L14.611,16.025 Z"/><path d="M9,18 C13.9705627,18 18,13.9705627 18,9 C18,4.02943725 13.9705627,0 9,0 C4.02943725,0 0,4.02943725 0,9 C0,13.9705627 4.02943725,18 9,18 Z M9,17 C4.581722,17 1,13.418278 1,9 C1,4.581722 4.581722,1 9,1 C13.418278,1 17,4.581722 17,9 C17,13.418278 13.418278,17 9,17 Z"/></g></svg>