<svg xmlns="http://www.w3.org/2000/svg" width="36" height="36" version="1" viewBox="0 0 36 36"><path fill="#0B1F35" d="M18 34H7.558a4.505 4.505 0 0 1-4.5-4.5V10.294L11.292 2h13.266c2.481 0 4.5 2.019 4.5 4.5V10h-1V6.5c0-1.93-1.57-3.5-3.5-3.5h-12.85l-7.65 7.706V29.5c0 1.93 1.57 3.5 3.5 3.5H18v1z"/><path fill="#0B1F35" d="M23 35.237L10.374 21.559 15.723 13h14.555l5.349 8.559L23 35.237zM11.626 21.441L23 33.763l11.374-12.321L29.723 14H16.277l-4.651 7.441z"/><path fill="#0B1F35" d="M11 21h24v1H11z"/><path fill="#0B1F35" d="M16.577 21.236l4.996-8.002.847.529-4.996 8.002zm6.999-7.471l.847-.53 5 8-.847.53z"/><path fill="#0B1F35" d="M16.548 21.71l.909-.42 6 13-.909.42z"/><path fill="#0B1F35" d="M22.543 34.288l6.01-12.996.908.42-6.01 12.996z"/></svg>