<svg xmlns="http://www.w3.org/2000/svg" width="18" height="17" viewBox="0 0 18 17"><g fill="#FFF" fill-rule="evenodd"><path d="M8 16.056H1.5c-.827 0-1.5-.636-1.5-1.417V4.054L4.293 0h7.148C12.301 0 13 .66 13 1.472v3.25h-1v-3.25c0-.29-.251-.528-.559-.528H4.707L1 4.446v10.193c0 .26.224.472.5.472H8v.945z"/><path d="M10.5 16.752l-6.626-6.78 2.849-4.305h7.555l2.849 4.305-6.627 6.78zM5.126 9.86l5.374 5.498 5.374-5.498-2.151-3.25H7.277L5.126 9.86z"/><path d="M4.5 9.444h12v1h-12z"/><path d="M7.1 9.777l2.498-4 .848.529-2.498 4zm3.545-3.373l.848-.53 2.362 3.778-.848.53z"/><path d="M7.13 10.127l.91-.42 2.833 6.14-.909.42z"/><path d="M10.07 16.036l3.004-6.498.908.42-3.004 6.498z"/></g></svg>