<svg xmlns="http://www.w3.org/2000/svg" width="30" height="30" version="1" viewBox="0 0 30 30"><path fill="#0B1F35" d="M3 11H2V8.293L8.293 2H19c2.206 0 4 1.794 4 4v4h-1V6c0-1.654-1.346-3-3-3H8.707L3 8.707V11zm9.999 17H6c-2.206 0-4-1.794-4-4V11.125h1V24c0 1.654 1.346 3 3 3h6.999v1zm6.501 1.741L8.865 17.702l4.54-6.53h12.189l4.54 6.53L19.5 29.741zm-9.365-12.113L19.5 28.231l9.365-10.604-3.794-5.456H13.929l-3.794 5.457z"/><path fill="#0B1F35" d="M9.5 17.165h20v1h-20z"/><path fill="#0B1F35" d="M14.09 17.379l4.166-5.993.82.57-4.166 5.993zm5.833-5.423l.82-.57 4.167 5.992-.82.57z"/><path fill="#0B1F35" d="M14.043 17.868l.914-.403 5 11.321-.914.404z"/><path fill="#0B1F35" d="M19.039 28.783l5.006-11.318.914.404-5.006 11.318z"/></svg>