<svg xmlns="http://www.w3.org/2000/svg" width="33" height="34" viewBox="0 0 33 34"><g fill="#FFF" fill-rule="evenodd"><path d="M15 32H4.558a4.505 4.505 0 0 1-4.5-4.5V8.294L8.292 0h13.266c2.481 0 4.5 2.019 4.5 4.5V8h-1V4.5c0-1.93-1.57-3.5-3.5-3.5H8.708l-7.65 7.706V27.5c0 1.93 1.57 3.5 3.5 3.5H15v1z"/><path d="M20 33.237L7.374 19.559 12.723 11h14.555l5.349 8.559L20 33.237zM8.626 19.441L20 31.763l11.374-12.321L26.723 12H13.277l-4.651 7.441z"/><path d="M8 19h24v1H8z"/><path d="M13.577 19.235l4.996-8.002.849.53-4.997 8.002zm6.999-7.47l.848-.53 5 8-.848.53z"/><path d="M13.548 19.71l.909-.42 6 13.001-.908.42z"/><path d="M19.543 32.288l6.01-12.996.908.42-6.01 12.996z"/></g></svg>