<svg xmlns="http://www.w3.org/2000/svg" width="18" height="18" version="1" viewBox="0 0 18 18"><path fill="#0B1F35" d="M9 17H2.5c-.827 0-1.5-.673-1.5-1.5V4.293L5.293 0h7.148C13.301 0 14 .699 14 1.559V5h-1V1.559A.56.56 0 0 0 12.441 1H5.707L2 4.707V15.5a.5.5 0 0 0 .5.5H9v1z"/><path fill="#0B1F35" d="M11.5 17.737l-6.626-7.179L7.723 6h7.555l2.849 4.559-6.627 7.178zm-5.374-7.296l5.374 5.821 5.374-5.821L14.723 7H8.277l-2.151 3.441z"/><path fill="#0B1F35" d="M5.5 10h12v1h-12z"/><path fill="#0B1F35" d="M8.077 10.235l2.498-4.001.847.53-2.498 4zm3.499-3.47l.847-.53 2.5 4.001-.847.53z"/><path fill="#0B1F35" d="M8.047 10.71l.909-.42 3 6.5-.909.42z"/><path fill="#0B1F35" d="M11.045 16.789l3.004-6.498.909.42-3.005 6.498z"/></svg>