<svg xmlns="http://www.w3.org/2000/svg" width="24" height="24" version="1" viewBox="0 0 24 24"><path fill="#0B1F35" d="M20 8h-1V4c0-1.103-.897-2-2-2H7.707L3 6.707V7H2v-.707L7.293 1H17c1.654 0 3 1.346 3 3v4zm-3 15H5c-1.654 0-3-1.346-3-3v-1h1v1c0 1.103.897 2 2 2h12c1.103 0 2-.897 2-2v-1h1v1c0 1.654-1.346 3-3 3zm1.847-6l-2.307-6.8h1.266l1.495 5.068.102.451h.16l.047-.078.082-.37 1.501-5.071h1.267L20.148 17zM6.969 14.5c-.064.385-.23.712-.5.977-.355.349-.849.523-1.481.523-.624 0-1.111-.174-1.462-.523-.351-.348-.526-.799-.526-1.351V12.86c0-.547.173-.993.519-1.34S4.353 11 4.982 11c.628 0 1.122.174 1.48.523.276.268.443.594.507.977h.997c-.076-.658-.336-1.222-.805-1.68-.56-.547-1.286-.82-2.178-.82-.885 0-1.604.273-2.156.82-.551.547-.827 1.236-.827 2.068v1.224c0 .834.277 1.525.829 2.07.554.545 1.273.818 2.159.818.891 0 1.617-.273 2.175-.818.468-.457.728-1.022.803-1.682h-.997zm5.647 2.5c-.717 0-1.351-.191-1.883-.57a1.673 1.673 0 0 1-.738-1.354h.983c.038.393.189.696.451.9.289.227.688.342 1.187.342.425 0 .761-.096.999-.286a.99.99 0 0 0 .379-.811c0-.339-.119-.616-.354-.824-.216-.189-.567-.358-1.075-.516-.808-.24-1.422-.524-1.826-.847-.379-.302-.563-.705-.563-1.232 0-.525.214-.945.653-1.282.451-.345 1.041-.52 1.755-.52.718 0 1.307.195 1.751.581.395.344.602.745.628 1.223h-.979a1.229 1.229 0 0 0-.378-.754c-.252-.242-.604-.364-1.046-.364-.42 0-.756.102-.997.303a1.026 1.026 0 0 0-.381.818c0 .315.14.574.416.77.237.17.627.342 1.19.524.745.213 1.311.494 1.683.834.352.32.53.75.53 1.276 0 .553-.206.976-.628 1.294-.436.329-1.027.495-1.757.495z"/></svg>