<svg xmlns="http://www.w3.org/2000/svg" width="17" height="16" viewBox="0 0 17 16"><path fill="#FFF" fill-rule="evenodd" d="M14 4.706h-1V1.467c0-.29-.251-.526-.559-.526H5.707L2 4.431v.275H1V4.04L5.293 0h7.148C13.301 0 14 .658 14 1.467v3.239zM12.5 16h-10c-.827 0-1.5-.633-1.5-1.412h1c0 .26.224.47.5.47h10c.275 0 .5-.21.5-.47h1c0 .779-.673 1.412-1.5 1.412zm-2.98-5.355a.621.621 0 0 0-.238-.51c-.159-.127-.438-.248-.835-.362-.694-.188-1.219-.412-1.574-.67-.356-.259-.533-.614-.533-1.063 0-.45.204-.818.611-1.104.408-.285.927-.428 1.56-.428.641 0 1.163.16 1.566.481.404.32.598.716.585 1.186l-.008.023H9.52a.78.78 0 0 0-.27-.617c-.18-.157-.434-.235-.759-.235-.312 0-.554.066-.725.196a.605.605 0 0 0-.256.501c0 .187.091.34.274.459.183.12.499.245.947.379.644.168 1.131.39 1.462.667.331.277.497.64.497 1.09 0 .47-.197.84-.591 1.113-.394.27-.914.407-1.56.407-.636 0-1.19-.154-1.662-.462-.472-.308-.702-.74-.689-1.295l.008-.023h1.138c0 .327.106.566.318.718.212.153.508.228.887.228.317 0 .561-.062.729-.184a.583.583 0 0 0 .252-.495zm-5.059-.359l.008.023c.011.59-.177 1.06-.561 1.406-.384.346-.917.52-1.599.52-.685 0-1.241-.212-1.668-.637C.214 11.174 0 10.627 0 9.958v-1.09c0-.665.208-1.212.625-1.639.417-.427.958-.64 1.625-.64.703 0 1.253.173 1.648.522.396.348.589.822.578 1.423l-.007.022h-1.11c0-.362-.09-.639-.27-.83-.18-.193-.459-.29-.839-.29-.341 0-.717.134-.917.401-.2.267-.334.608-.334 1.022v1.097c0 .42.139.762.35 1.03.211.267.6.4.96.4.356 0 .62-.092.791-.276.171-.185.256-.46.256-.824h1.105zm9.871.448l.072.307h.024l.068-.298 1.27-4.155H17l-1.983 5.647h-1.202l-1.979-5.647h1.234z"/></svg>