<svg xmlns="http://www.w3.org/2000/svg" width="18" height="18" version="1" viewBox="0 0 18 18"><path fill="#0B1F35" d="M14 5h-1V1.559A.56.56 0 0 0 12.441 1H5.707L2 4.707V5H1v-.707L5.293 0h7.148C13.301 0 14 .699 14 1.559V5zm-1.5 12h-10c-.827 0-1.5-.673-1.5-1.5h1a.5.5 0 0 0 .5.5h10a.5.5 0 0 0 .5-.5h1c0 .827-.673 1.5-1.5 1.5zm-2.98-5.69a.677.677 0 0 0-.238-.541c-.159-.136-.438-.264-.835-.385-.694-.2-1.219-.438-1.574-.713-.356-.274-.533-.651-.533-1.129s.204-.869.611-1.172c.408-.303.927-.455 1.56-.455.641 0 1.163.17 1.566.511.404.34.598.761.585 1.26l-.008.024H9.52c0-.27-.09-.488-.27-.655-.18-.167-.434-.25-.759-.25-.312 0-.554.07-.725.208a.657.657 0 0 0-.256.533c0 .198.091.36.274.487.183.127.499.261.947.403.644.179 1.131.415 1.462.709.331.294.497.679.497 1.158 0 .499-.197.893-.591 1.182-.394.288-.914.433-1.56.433-.636 0-1.19-.164-1.662-.491s-.702-.786-.689-1.376l.008-.024h1.138c0 .347.106.601.318.763s.508.242.887.242c.317 0 .561-.066.729-.196s.252-.307.252-.526zm-5.059-.381l.008.024c.011.627-.177 1.126-.561 1.494S2.991 13 2.309 13c-.685 0-1.241-.226-1.668-.677S0 11.291 0 10.581V9.423c0-.707.208-1.288.625-1.742C1.042 7.227 1.583 7 2.25 7c.703 0 1.253.185 1.648.555.396.37.589.874.578 1.512l-.007.024h-1.11c0-.385-.09-.679-.27-.883s-.459-.307-.839-.307c-.341 0-.717.142-.917.426-.2.284-.334.646-.334 1.086v1.165c0 .446.139.81.35 1.094.211.284.6.426.96.426.356 0 .62-.098.791-.294.171-.196.256-.488.256-.875h1.105zm9.871.476l.072.326h.024l.068-.317L15.766 7H17l-1.983 6h-1.202l-1.979-6h1.234l1.262 4.405z"/></svg>