<svg xmlns="http://www.w3.org/2000/svg" width="30" height="30" version="1" viewBox="0 0 30 30"><path fill="#0B1F35" d="M19 28H6a4.005 4.005 0 0 1-3.998-3.874H2V8.293L8.293 2H19c2.206 0 4 1.794 4 4v5h-1V6c0-1.654-1.346-3-3-3H8.707L3 8.707V24c0 1.654 1.346 3 3 3h13c1.654 0 3-1.346 3-3h1c0 2.206-1.794 4-4 4z"/><path fill="#0B1F35" d="M22.881 21l-2.308-6.8h1.267l1.495 5.068.102.451h.16l.047-.079.082-.369 1.501-5.071h1.267L24.182 21zm-11.879-2.5c-.064.385-.23.712-.5.977-.355.349-.848.523-1.48.523-.624 0-1.111-.174-1.462-.523-.351-.348-.526-.799-.526-1.352V16.86c0-.547.173-.993.519-1.34S8.387 15 9.015 15s1.122.174 1.48.523c.276.268.443.594.507.977H12c-.076-.658-.336-1.222-.805-1.68-.56-.547-1.286-.82-2.178-.82-.885 0-1.604.273-2.156.82-.551.547-.827 1.236-.827 2.068v1.224c0 .834.277 1.525.829 2.07.554.545 1.272.818 2.159.818.891 0 1.617-.273 2.175-.818.468-.457.727-1.022.803-1.682h-.998zM16.65 21c-.717 0-1.351-.191-1.883-.57a1.673 1.673 0 0 1-.738-1.354h.983c.038.393.189.696.451.9.289.227.688.342 1.187.342.425 0 .761-.096.999-.286a.99.99 0 0 0 .379-.811c0-.339-.119-.616-.354-.824-.216-.189-.567-.358-1.075-.516-.808-.24-1.422-.524-1.826-.847-.379-.302-.563-.705-.563-1.232 0-.525.214-.945.653-1.282.451-.345 1.041-.52 1.755-.52.718 0 1.307.195 1.751.581.395.344.602.745.628 1.223h-.979a1.229 1.229 0 0 0-.378-.754c-.252-.242-.604-.364-1.046-.364-.42 0-.756.102-.997.303a1.026 1.026 0 0 0-.381.818c0 .315.14.574.416.77.237.17.627.342 1.19.524.745.213 1.311.494 1.683.834.352.32.53.75.53 1.276 0 .553-.206.976-.628 1.294-.437.329-1.028.495-1.757.495z"/></svg>