<svg xmlns="http://www.w3.org/2000/svg" width="24" height="24" viewBox="0 0 24 24"><g fill="none" fill-rule="evenodd"><path d="M0 0h24v24H0z"/><path fill="#FFFFFF" d="M12 15c-3.8 0-6-4.3-6-8.5 0-3 .7-6.5 6-6.5s6 3.5 6 6.5c0 4.2-2.2 8.5-6 8.5zm0-14C8.4 1 7 2.6 7 6.5 7 9.6 8.6 14 12 14s5-4.4 5-7.5C17 2.6 15.6 1 12 1z"/><path fill="#FFFFFF" d="M11.435 19.715c-.54-.389-.935-1.249-.935-1.802 0-.732.684-.913 1.492-.913.807 0 1.508.18 1.508.913 0 .548-.387 1.397-.92 1.79.7.884 1.42 3.041 1.42 4.27h-4c0-1.223.73-3.368 1.435-4.258z" opacity=".3"/><path fill="#FFFFFF" d="M1 23c0-3.7 3.7-5.1 5.2-5.9 2-1 2.3-1.4 2.3-3.8h1c0 2.8-.5 3.5-2.9 4.7-1.3.7-4.6 1.9-4.6 5H1zm21 0c0-3.1-3.3-4.3-4.7-5-2.4-1.2-2.9-2-2.9-4.7h1c0 2.5.4 2.9 2.3 3.8 1.6.8 5.3 2.2 5.3 5.9h-1z"/></g></svg>