<svg xmlns="http://www.w3.org/2000/svg" width="24" height="24" viewBox="0 0 24 24"><g fill="none" fill-rule="evenodd"><path d="M.923 0h22.154v24H.923z"/><path fill="#FFF" d="M12 1.241a.46.46 0 0 1 .44.345l2.12 7.068c.06.207.238.346.438.346h6.86c.446 0 .633.62.27.905l-5.549 4.368a.524.524 0 0 0-.168.559l2.12 7.068c.105.351-.153.657-.44.657a.43.43 0 0 1-.27-.098l-5.55-4.368a.436.436 0 0 0-.542 0l-5.55 4.368a.43.43 0 0 1-.27.098c-.287 0-.545-.306-.44-.657l2.12-7.068a.523.523 0 0 0-.168-.559L1.87 9.905C1.51 9.62 1.696 9 2.142 9h6.86c.2 0 .377-.139.44-.345l2.12-7.068A.456.456 0 0 1 12 1.241zm0-1c-.602 0-1.13.417-1.317 1.037L8.667 8H2.142c-.601 0-1.13.417-1.316 1.036-.185.62.017 1.294.503 1.677l5.278 4.154L4.59 21.59c-.138.463-.068.952.193 1.342.263.391.683.624 1.126.624.291 0 .572-.1.812-.289L12 19.112l5.278 4.155c.24.189.52.289.812.289.443 0 .864-.233 1.126-.624.26-.39.332-.879.193-1.342l-2.016-6.722 5.278-4.154c.486-.383.688-1.057.503-1.677C22.988 8.417 22.459 8 21.858 8h-6.525l-2.016-6.723C13.131.657 12.602.241 12 .241z"/></g></svg>