<svg width="18" height="18" viewBox="0 0 18 18" fill="none" xmlns="http://www.w3.org/2000/svg"><rect width="18" height="18" fill="none"/><path fill-rule="evenodd" clip-rule="evenodd" d="M9.72885 12.372C9.72885 11.4173 11.0622 11.2656 11.2616 12.2886C11.2941 12.4556 11.3707 12.617 11.5115 12.7124C12.4564 13.3531 13.6197 14.0315 14.6503 13.5403C15.1943 13.281 15.4093 12.8106 15.4093 12.3722C15.4093 11.0587 13.5658 11.0587 13.5769 12.372C13.1077 12.466 12.4775 12.1846 12.4775 11.6216V10.1203C17.2418 10.4958 18.4439 4.86648 16.0618 2.05182L13.5162 4.80208C13.2117 5.13107 13.061 5.56433 12.9122 5.99235C12.8798 6.08559 12.8474 6.17857 12.8136 6.27017C12.687 6.61307 12.4333 6.93046 11.9277 6.93046C11.0115 6.93046 10.8283 6.08626 10.8283 5.05406C10.8283 3.08467 12.3859 3.27179 13.0272 3.55325C13.4853 2.70887 12.779 2.18731 12.1895 1.9484C10.6451 1.48921 9.18736 3.27176 9.00412 4.8666C8.82088 3.27176 7.35494 1.48921 5.81047 1.9484C5.22098 2.18731 4.51469 2.70887 4.9728 3.55325C5.61415 3.27179 7.1717 3.08467 7.1717 5.05406C7.1717 6.08626 6.98846 6.93046 6.07225 6.93046C5.5667 6.93046 5.31298 6.61307 5.18639 6.27017C5.15258 6.17857 5.12025 6.08559 5.08783 5.99235C4.93899 5.56433 4.78834 5.13106 4.48383 4.80208L1.93819 2.05182C-0.443948 4.86648 0.758239 10.4958 5.52252 10.1203V11.6216C5.52252 12.1846 4.89229 12.466 4.42307 12.372C4.43419 11.0587 2.59066 11.0587 2.59066 12.3722C2.59066 12.8106 2.80569 13.281 3.34973 13.5403C4.38033 14.0315 5.54357 13.3531 6.48853 12.7124C6.62929 12.617 6.70588 12.4556 6.73841 12.2886C6.93778 11.2656 8.27115 11.4173 8.27115 12.372C8.27115 12.7473 8.08791 13.0289 7.62981 13.4042L6.64385 14.0773C6.14619 14.417 6.05702 15.1307 6.56381 15.4567C7.30869 15.9358 8.15021 16.125 8.99588 16.125C9.84197 16.125 10.6881 15.9356 11.4356 15.456C11.9428 15.1306 11.8538 14.417 11.3561 14.0773L10.3702 13.4042C9.91209 13.0289 9.72885 12.7473 9.72885 12.372ZM7.96266 7.125C7.70714 7.125 7.5 7.33214 7.5 7.58766V9.42842C7.5 9.94492 7.91871 10.3636 8.43522 10.3636C8.52894 10.3636 8.61769 10.4058 8.67689 10.4785L8.83651 10.6743C8.9209 10.7779 9.0791 10.7779 9.16349 10.6743L9.32311 10.4785C9.38231 10.4058 9.47106 10.3636 9.56478 10.3636C10.0813 10.3636 10.5 9.94493 10.5 9.42842V7.58766C10.5 7.33214 10.2929 7.125 10.0373 7.125H7.96266Z" fill="#0B1F35"/></svg>