<svg width="24" height="24" viewBox="0 0 24 24" fill="none" xmlns="http://www.w3.org/2000/svg"><rect width="24" height="24" fill="none"/><path fill-rule="evenodd" clip-rule="evenodd" d="M12.9718 16.496C12.9718 15.2231 14.7496 15.0208 15.0154 16.3849C15.0588 16.6074 15.1609 16.8227 15.3486 16.9499C16.6086 17.8041 18.1596 18.7086 19.5337 18.0537C20.2591 17.708 20.5458 17.0808 20.5458 16.4963C20.5458 14.745 18.0877 14.745 18.1026 16.496C17.4769 16.6214 16.6366 16.2461 16.6366 15.4955V13.4938C22.989 13.9944 24.5919 6.48864 21.4157 2.73576L17.828 6.61186C17.4572 7.01251 17.2926 7.55611 17.1665 8.08728C17.037 8.63296 16.7114 9.24061 15.9037 9.24061C14.6821 9.24061 14.4377 8.11502 14.4377 6.73875C14.4377 4.11289 16.5145 4.36239 17.3696 4.73767C17.9804 3.61183 17.0387 2.91641 16.2527 2.59786C14.1934 1.98562 12.2498 4.36235 12.0055 6.48881C11.7612 4.36235 9.80659 1.98562 7.74729 2.59786C6.9613 2.91641 6.01959 3.61183 6.6304 4.73767C7.48553 4.36239 9.56227 4.11289 9.56227 6.73875C9.56227 8.11502 9.31795 9.24061 8.09633 9.24061C7.2886 9.24061 6.96302 8.63296 6.83349 8.08728C6.7074 7.55611 6.54281 7.01251 6.17197 6.61186L2.58426 2.73576C-0.591931 6.48864 1.01098 13.9944 7.36337 13.4938V15.4955C7.36337 16.2461 6.52306 16.6214 5.89743 16.496C5.91225 14.745 3.45421 14.745 3.45421 16.4963C3.45421 17.0808 3.74092 17.708 4.46631 18.0537C5.84044 18.7086 7.39142 17.8041 8.65137 16.9499C8.83906 16.8227 8.94118 16.6074 8.98455 16.3849C9.25038 15.0208 11.0282 15.2231 11.0282 16.496C11.0282 16.9964 10.7839 17.3719 10.1731 17.8723L8.54578 18.9832C8.04811 19.3229 7.95848 20.0318 8.44083 20.3929C9.50745 21.1915 10.7476 21.5 11.9945 21.5C13.2417 21.5 14.489 21.1914 15.5586 20.3923C16.0414 20.0317 15.9519 19.3229 15.4542 18.9832L13.8269 17.8723C13.2161 17.3719 12.9718 16.9964 12.9718 16.496ZM10.6169 9.5C10.2762 9.5 10 9.77619 10 10.1169V12.5712C10 13.2599 10.5583 13.8182 11.247 13.8182C11.3719 13.8182 11.4903 13.8744 11.5692 13.9713L11.782 14.2325C11.8945 14.3706 12.1055 14.3706 12.218 14.2325L12.4308 13.9713C12.5097 13.8744 12.6281 13.8182 12.753 13.8182C13.4417 13.8182 14 13.2599 14 12.5712V10.1169C14 9.77619 13.7238 9.5 13.3831 9.5H10.6169Z" fill="#0B1F35"/></svg>