<svg width="36" height="36" viewBox="0 0 36 36" fill="none" xmlns="http://www.w3.org/2000/svg"><rect width="36" height="36" fill="none"/><path fill-rule="evenodd" clip-rule="evenodd" d="M19.4577 24.744C19.4577 22.8346 22.1244 22.5313 22.5232 24.5773C22.5882 24.9111 22.7414 25.234 23.0229 25.4249C24.9129 26.7062 27.2393 28.063 29.3005 27.0806C30.3886 26.5619 30.8187 25.6212 30.8187 24.7444C30.8187 22.1174 27.1316 22.1174 27.1539 24.744C26.2154 24.932 24.9549 24.3691 24.9549 23.2433V20.2407C34.4835 20.9916 36.8879 9.73297 32.1236 4.10364L26.4518 10.2314C26.0809 10.6321 25.902 11.1698 25.8277 11.7107C25.7057 12.5983 25.2815 13.8609 23.8555 13.8609C22.0231 13.8609 21.6566 12.1725 21.6566 10.1081C21.6566 6.16933 24.7717 6.54358 26.0544 7.1065C26.9706 5.41774 25.558 4.37462 24.3791 3.8968C21.2901 2.97842 18.3747 6.54352 18.0082 9.73321C17.6418 6.54352 14.7099 2.97842 11.6209 3.8968C10.442 4.37462 9.02939 5.41774 9.9456 7.1065C11.2283 6.54358 14.3434 6.16933 14.3434 10.1081C14.3434 12.1725 13.9769 13.8609 12.1445 13.8609C10.7185 13.8609 10.2943 12.5983 10.1723 11.7107C10.098 11.1698 9.91909 10.6321 9.54825 10.2314L3.87639 4.10364C-0.887896 9.73297 1.51648 20.9916 11.045 20.2407V23.2433C11.045 24.3691 9.78459 24.932 8.84615 24.744C8.86838 22.1174 5.18131 22.1174 5.18131 24.7444C5.18131 25.6212 5.61137 26.5619 6.69947 27.0805C8.76065 28.063 11.0871 26.7062 12.9771 25.4249C13.2586 25.234 13.4118 24.9111 13.4768 24.5773C13.8756 22.5313 16.5423 22.8346 16.5423 24.744C16.5423 25.4946 16.1758 26.0579 15.2596 26.8084L12.3496 28.795C11.852 29.1347 11.763 29.8396 12.2191 30.2335C13.913 31.6966 15.9463 32.25 17.9918 32.25C20.0374 32.25 22.083 31.6965 23.7805 30.2331C24.2369 29.8396 24.148 29.1347 23.6504 28.795L20.7404 26.8084C19.8242 26.0579 19.4577 25.4946 19.4577 24.744ZM15.9253 14.25C15.4143 14.25 15 14.6643 15 15.1753V18.8568C15 19.8898 15.8374 20.7273 16.8704 20.7273C17.0579 20.7273 17.2354 20.8116 17.3538 20.9569L17.673 21.3487C17.8418 21.5558 18.1582 21.5558 18.327 21.3487L18.6462 20.9569C18.7646 20.8116 18.9421 20.7273 19.1296 20.7273C20.1626 20.7273 21 19.8899 21 18.8568V15.1753C21 14.6643 20.5857 14.25 20.0747 14.25H15.9253Z" fill="#0B1F35"/></svg>