<svg width="30" height="30" viewBox="0 0 30 30" fill="none" xmlns="http://www.w3.org/2000/svg"><rect width="30" height="30" fill="none"/><path fill-rule="evenodd" clip-rule="evenodd" d="M16.2147 20.62C16.2147 19.0289 18.437 18.7761 18.7693 20.4811C18.8235 20.7593 18.9512 21.0283 19.1858 21.1874C20.7607 22.2552 22.6995 23.3858 24.4171 22.5671C25.3239 22.135 25.6822 21.351 25.6822 20.6203C25.6822 18.4312 22.6097 18.4312 22.6282 20.62C21.8462 20.7767 20.7958 20.3076 20.7958 19.3694V16.8672C28.7363 17.493 30.7399 8.11081 26.7697 3.4197L22.1399 8.42164C21.7691 8.82229 21.5951 9.36183 21.5011 9.89962C21.3744 10.6249 20.9943 11.5508 19.8796 11.5508C18.3526 11.5508 18.0472 10.1438 18.0472 8.42343C18.0472 5.14111 20.6431 5.45298 21.712 5.92208C22.4755 4.51479 21.2984 3.64552 20.3159 3.24733C17.7418 2.48202 15.3123 5.45294 15.0069 8.11101C14.7015 5.45294 12.2582 2.48202 9.68412 3.24733C8.70163 3.64552 7.52449 4.51479 8.288 5.92208C9.35691 5.45298 11.9528 5.14111 11.9528 8.42343C11.9528 10.1438 11.6474 11.5508 10.1204 11.5508C9.00568 11.5508 8.6256 10.6249 8.49887 9.89962C8.4049 9.36183 8.23095 8.82228 7.86011 8.42164L3.23032 3.4197C-0.739914 8.11081 1.26373 17.493 9.20421 16.8672V19.3694C9.20421 20.3076 8.15382 20.7767 7.37179 20.62C7.39032 18.4312 4.31776 18.4312 4.31776 20.6203C4.31776 21.351 4.67614 22.135 5.58289 22.5671C7.30055 23.3858 9.23928 22.2552 10.8142 21.1874C11.0488 21.0283 11.1765 20.7593 11.2307 20.4811C11.563 18.7761 13.7853 19.0289 13.7853 20.62C13.7853 21.2455 13.4799 21.7149 12.7163 22.3404L10.4477 23.8891C9.95004 24.2288 9.86075 24.9352 10.3275 25.3163C11.7094 26.4447 13.3466 26.875 14.9931 26.875C16.64 26.875 18.2868 26.4446 19.672 25.3158C20.1392 24.9352 20.05 24.2288 19.5523 23.8891L17.2837 22.3404C16.5201 21.7149 16.2147 21.2455 16.2147 20.62ZM13.2711 11.875C12.8452 11.875 12.5 12.2202 12.5 12.6461V15.714C12.5 16.5749 13.1979 17.2727 14.0587 17.2727C14.2149 17.2727 14.3628 17.343 14.4615 17.4641L14.7275 17.7906C14.8682 17.9632 15.1318 17.9632 15.2725 17.7906L15.5385 17.4641C15.6372 17.343 15.7851 17.2727 15.9413 17.2727C16.8021 17.2727 17.5 16.5749 17.5 15.714V12.6461C17.5 12.2202 17.1548 11.875 16.7289 11.875H13.2711Z" fill="#0B1F35"/></svg>