<svg width="48" height="48" viewBox="0 0 48 48" fill="none" xmlns="http://www.w3.org/2000/svg"><rect width="48" height="48" fill="none"/><path fill-rule="evenodd" clip-rule="evenodd" d="M25.9436 32.992C25.9436 30.4462 29.4992 30.0417 30.0309 32.7697C30.1176 33.2149 30.3219 33.6453 30.6973 33.8998C33.2172 35.6082 36.3191 37.4173 39.0674 36.1074C40.5182 35.4159 41.0916 34.1616 41.0916 32.9925C41.0916 29.4899 36.1755 29.4899 36.2051 32.992C34.9539 33.2427 33.2733 32.4922 33.2733 30.991V26.9876C45.978 27.9888 49.1839 12.9773 42.8315 5.47152L35.0755 13.851C34.7046 14.2516 34.5208 14.7872 34.4696 15.3307C34.359 16.5062 33.8667 18.4812 31.8073 18.4812C29.3641 18.4812 28.8755 16.23 28.8755 13.4775C28.8755 8.22578 33.0289 8.72478 34.7392 9.47534C35.9608 7.22366 34.0774 5.83283 32.5054 5.19573C28.3868 3.97123 24.4996 8.7247 24.011 12.9776C23.5223 8.7247 19.6132 3.97123 15.4946 5.19573C13.9226 5.83283 12.0392 7.22366 13.2608 9.47534C14.9711 8.72478 19.1245 8.22578 19.1245 13.4775C19.1245 16.23 18.6359 18.4812 16.1927 18.4812C14.1333 18.4812 13.641 16.5062 13.5304 15.3307C13.4792 14.7872 13.2954 14.2516 12.9245 13.851L5.16852 5.47152C-1.18386 12.9773 2.02197 27.9888 14.7267 26.9876V30.991C14.7267 32.4922 13.0461 33.2427 11.7949 32.992C11.8245 29.4899 6.90842 29.4899 6.90842 32.9925C6.90842 34.1616 7.48183 35.4159 8.93262 36.1074C11.6809 37.4173 14.7828 35.6082 17.3027 33.8998C17.6781 33.6453 17.8824 33.2149 17.9691 32.7697C18.5008 30.0417 22.0564 30.4462 22.0564 32.992C22.0564 33.9928 21.5678 34.7439 20.3462 35.7446L16.1535 38.6068C15.6558 38.9465 15.5675 39.6498 16.0098 40.059C18.323 42.1989 21.1472 43 23.989 43C26.831 43 29.6729 42.1988 31.9898 40.0587C32.4325 39.6498 32.3442 38.9465 31.8465 38.6068L27.6538 35.7446C26.4322 34.7439 25.9436 33.9928 25.9436 32.992ZM21 19C20.4477 19 20 19.4477 20 20V25.1424C20 26.5198 21.1166 27.6364 22.4939 27.6364C22.7438 27.6364 22.9805 27.7488 23.1384 27.9426L23.6124 28.5243C23.8125 28.7698 24.1875 28.7698 24.3876 28.5243L24.8616 27.9426C25.0195 27.7488 25.2562 27.6364 25.5061 27.6364C26.8834 27.6364 28 26.5198 28 25.1424V20C28 19.4477 27.5523 19 27 19H21Z" fill="#0B1F35"/></svg>