<svg xmlns="http://www.w3.org/2000/svg" width="32" height="48" viewBox="0 0 32 48"><g fill="none" fill-rule="evenodd"><path d="M-8 0h48v48H-8z"/><path fill="#0B1F35" d="M19 48h-3v-1h2.5l11.1-18.4c.5-.9.7-2 .3-2.9L24.6 10H16V9h9.4l5.5 16.3c.4 1.3.3 2.6-.4 3.8L19 48zm-3 0h-3L1.5 29.1c-.7-1.1-.8-2.5-.4-3.8L6.6 9H16v1H7.4L2.1 25.6c-.3 1-.2 2 .3 2.9L13.5 47H16v1z"/><path fill="#0B1F35" d="M4 0h24v4H4zm12 22c-2.2 0-4 1.8-4 4 0 1.5.8 2.8 2 3.4V47h4V29.4c1.2-.7 2-2 2-3.4 0-2.2-1.8-4-4-4z" opacity=".3"/></g></svg>
