<svg xmlns="http://www.w3.org/2000/svg" width="23" height="36" viewBox="0 0 23 36"><g fill="none" fill-rule="evenodd"><path d="M-7 0h36v36H-7z"/><path fill="#0B1F35" d="M13.8 36H9.1L.5 21.3c-.5-.9-.6-1.9-.3-2.9L4.4 6h14.2l4.2 12.3c.3 1 .2 2-.3 2.9L13.8 36zm-4.1-1h3.6l8.3-14.2c.4-.6.5-1.4.2-2.1L17.9 7H5.1L1.2 18.7c-.2.7-.2 1.5.2 2.1L9.7 35z"/><path fill="#0B1F35" d="M3 0h17v3H3zm8.5 16c-1.7 0-3 1.3-3 3 0 1.1.6 2.1 1.5 2.6v13.9h3V21.6c.9-.5 1.5-1.5 1.5-2.6 0-1.7-1.3-3-3-3z" opacity=".3"/></g></svg>
