<svg xmlns="http://www.w3.org/2000/svg" width="24" height="24" viewBox="0 0 24 24"><g fill="none"><rect width="24" height="24"/><path fill="#F03226" d="M8.12286716,15.5 L19.3434924,15.5 C19.8901665,15.5 20.3333333,15.9477153 20.3333333,16.5 C20.3333333,17.0522847 19.8901665,17.5 19.3434924,17.5 L8.12286716,17.5 L8.90770531,18.2928932 C9.29426223,18.6834175 9.29426223,19.3165825 8.90770531,19.7071068 C8.52114838,20.0976311 7.89441578,20.0976311 7.50785886,19.7071068 L4.33333333,16.5 L7.50785886,13.2928932 C7.89441578,12.9023689 8.52114838,12.9023689 8.90770531,13.2928932 C9.29426223,13.6834175 9.29426223,14.3165825 8.90770531,14.7071068 L8.12286716,15.5 Z" transform="matrix(-1 0 0 1 24.667 0)"/><path fill="#F03226" d="M7.12286716,6.5 L18.3434924,6.5 C18.8901665,6.5 19.3333333,6.94771525 19.3333333,7.5 C19.3333333,8.05228475 18.8901665,8.5 18.3434924,8.5 L7.12286716,8.5 L7.90770531,9.29289322 C8.29426223,9.68341751 8.29426223,10.3165825 7.90770531,10.7071068 C7.52114838,11.0976311 6.89441578,11.0976311 6.50785886,10.7071068 L3.33333333,7.5 L6.50785886,4.29289322 C6.89441578,3.90236893 7.52114838,3.90236893 7.90770531,4.29289322 C8.29426223,4.68341751 8.29426223,5.31658249 7.90770531,5.70710678 L7.12286716,6.5 Z"/></g></svg>