<svg xmlns="http://www.w3.org/2000/svg" width="24" height="24" viewBox="0 0 24 24"><g fill="none" opacity=".3"><path d="M0 0h24v24H0z"/><path fill="#0B1F35" d="M16.544 15.5H5.324a.995.995 0 0 0-.99 1c0 .552.443 1 .99 1h11.22l-.785.793a1.007 1.007 0 0 0 0 1.414.983.983 0 0 0 1.4 0l3.175-3.207-3.175-3.207a.983.983 0 0 0-1.4 0 1.007 1.007 0 0 0 0 1.414l.785.793zM7.123 6.5h11.22c.547 0 .99.448.99 1s-.443 1-.99 1H7.123l.785.793c.386.39.386 1.024 0 1.414a.983.983 0 0 1-1.4 0L3.333 7.5l3.175-3.207a.983.983 0 0 1 1.4 0c.386.39.386 1.024 0 1.414l-.785.793z"/></g></svg>