<svg width="24" height="24" viewBox="0 0 24 24" fill="none" xmlns="http://www.w3.org/2000/svg"><rect x="0" y="0" width="24" height="24" fill="none"/><path d="M13,8l-2,0v3l2,0c1.5,0,2-0.5,2-1.5C15,8.5,14.5,8,13,8z" fill="#B6BCC3"/><path d="M21.4,2.6C19.8,1,17.2,1,12,1S4.2,1,2.6,2.6S1,6.8,1,12s0,7.8,1.6,9.4S6.8,23,12,23s7.8,0,9.4-1.6
	S23,17.2,23,12S23,4.2,21.4,2.6z M13.5,13L11,13v1h2.5c0.5,0,1,0.4,1,1c0,0.6-0.4,1-1,1H11v1c0,0.6-0.4,1-1,1s-1-0.4-1-1v-1H8.5
	c-0.6,0-1-0.4-1-1s0.4-1,1-1H9v-1H8.5c-0.6,0-1-0.4-1-1c0-0.5,0.4-1,1-1L9,11V7c0-0.6,0.5-1,1-1l3.5,0C15,6,17,7,17,9.5
	S15,13,13.5,13z" fill="#F03226"/></svg>