<svg width="24" height="24" viewBox="0 0 24 24" fill="none" xmlns="http://www.w3.org/2000/svg"><rect width="24" height="24" fill="none"/><path d="M23 11C23 13.6512 22.0621 16.0833 20.5 17.9826H18.2604L20.2361 23H18L17.625 22H6.3766L6.00169 23H3.76562L5.74106 17.9826H3.5C1.9379 16.0833 1 13.6512 1 11C1 4.92487 5.92487 0 12 0C18.0751 0 23 4.92487 23 11ZM7.1264 20H16.8751L16.1187 17.9826H7.88273L7.1264 20ZM10 4C8.89542 4 8 4.89543 8 6V10.5C8 10.7761 8.22385 11 8.5 11H15.5C15.7762 11 16 10.7761 16 10.5V6C16 4.89543 15.1046 4 14 4H10ZM15 15C15.5523 15 16 14.5523 16 14C16 13.4477 15.5523 13 15 13C14.4477 13 14 13.4477 14 14C14 14.5523 14.4477 15 15 15ZM9 15C9.55228 15 10 14.5523 10 14C10 13.4477 9.55228 13 9 13C8.44772 13 8 13.4477 8 14C8 14.5523 8.44772 15 9 15Z" fill="#0B1F35"/></svg>