<svg xmlns="http://www.w3.org/2000/svg" width="31" height="34" viewBox="0 0 31 34"><g fill="none" fill-rule="evenodd"><path d="M-3 0h36v36H-3z"/><path fill="#FFF" d="M27.5 34h-24C1.6 34 0 32.4 0 30.5V13c0-1.1.9-2 2-2h6v1H2c-.6 0-1 .4-1 1v17.5C1 31.9 2.1 33 3.5 33h24c1.4 0 2.5-1.1 2.5-2.5V13c0-.6-.4-1-1-1h-6v-1h6c1.1 0 2 .9 2 2v17.5c0 1.9-1.6 3.5-3.5 3.5z"/><path fill="#FFF" d="M15.5 28c-2.4 0-4.2-1.7-4.5-4H.5v-1H12v.5c0 1.7 1.2 3.5 3.5 3.5 2.2 0 3.5-1.8 3.5-3.5V23h11.5v1H20c-.3 2-1.9 4-4.5 4z"/><path fill="#FFF" d="M9.1 6.4l.8.7L15 2v16h1V2l5.1 5.1.8-.7L15.5 0z" opacity=".3"/></g></svg>