<svg xmlns="http://www.w3.org/2000/svg" width="21" height="23" viewBox="0 0 21 23"><g fill="none" fill-rule="evenodd"><path d="M-2 0h24v24H-2z"/><path fill="#FFF" d="M18.5 23h-16C1.1 23 0 21.9 0 20.5v-12C0 7.7.7 7 1.5 7H6v1H1.5c-.3 0-.5.2-.5.5v12c0 .8.7 1.5 1.5 1.5h16c.8 0 1.5-.7 1.5-1.5v-12c0-.3-.2-.5-.5-.5H15V7h4.5c.8 0 1.5.7 1.5 1.5v12c0 1.4-1.1 2.5-2.5 2.5z"/><path fill="#FFF" d="M10.5 19c-1.8 0-3.2-1.3-3.5-3H.5v-1H8v.5c0 1.4 1.1 2.5 2.5 2.5s2.5-1.1 2.5-2.5V15h7.5v1H14c-.3 1.7-1.7 3-3.5 3z"/><path fill="#FFF" d="M6.1 4.4l.8.7L10 2v10.2h1V2l3.1 3.1.8-.7L10.5 0z" opacity=".3"/></g></svg>