<?xml version="1.0" encoding="UTF-8"?>
<svg width="24px" height="24px" viewBox="0 0 24 24" version="1.1" xmlns="http://www.w3.org/2000/svg" xmlns:xlink="http://www.w3.org/1999/xlink">
    <!-- Generator: Sketch 48.2 (47327) - http://www.bohemiancoding.com/sketch -->
    <title>icon_category-restaurants_m_black</title>
    <desc>Created with Sketch.</desc>
    <defs></defs>
    <g id="mobile" stroke="none" stroke-width="1" fill="none" fill-rule="evenodd" transform="translate(-1247.000000, -786.000000)">
        <g id="Headings" transform="translate(64.000000, 77.000000)">
            <g id="icon_category_restaurants__m__white" transform="translate(1183.000000, 709.000000)">
                <g id="ungroup">
                    <rect id="Rectangle-path" x="0" y="0" width="24" height="24"></rect>
                    <g id="a1" opacity="0.4"></g>
                    <path d="M20.093,11.036 C19.349,11.283 18.586,11.792 17.995,12.474 L18,10.995 C18,10.739 17.898,10.496 17.712,10.309 C17.511,10.108 17.227,9.993 16.933,9.993 L1.066,9.993 C0.771,9.993 0.487,10.109 0.286,10.31 C0.101,10.497 -0.001,10.74 -2.54109884e-21,10.995 L0.009,13.759 C0.009,21.31 4.653,24 9,24 C11.453,24 14.001,23.141 15.756,21.036 C19.06,20.911 22.534,18.341 23.747,15.073 C24.221,13.797 24.031,12.587 23.226,11.753 C22.445,10.945 21.217,10.663 20.093,11.036 L20.093,11.036 Z M9,23 C3.996,23 1.009,19.545 1.009,13.759 L1.006,12.851 L1.067,10.993 L16.934,10.993 L17.001,10.993 L16.992,13.76 C16.991,19.546 14.003,23 9,23 L9,23 Z M22.809,14.725 C21.824,17.379 19.178,19.511 16.504,19.954 C17.259,18.683 17.781,17.086 17.938,15.089 C17.963,13.65 19.201,12.385 20.407,11.985 C21.166,11.733 21.99,11.915 22.506,12.448 C23.042,13.002 23.149,13.811 22.809,14.725 L22.809,14.725 Z" id="Shape" fill="#0B1F35"></path>
                    <path d="M6.589,2.948 C6.481,3.139 6.348,3.35 6.194,3.579 C6.044,3.812 5.877,4.066 5.734,4.359 C5.657,4.508 5.601,4.648 5.542,4.834 C5.511,4.939 5.45,5.164 5.428,5.326 C5.333,5.987 5.485,6.602 5.737,7.044 C5.986,7.494 6.334,7.757 6.587,7.873 C6.842,7.991 7.003,7.991 6.998,8 C6.998,8 6.898,7.876 6.786,7.658 C6.67,7.442 6.57,7.127 6.54,6.767 C6.519,6.405 6.56,5.995 6.707,5.615 C6.744,5.517 6.761,5.482 6.834,5.333 L7.001,5.059 C7.147,4.843 7.295,4.624 7.443,4.404 C7.602,4.16 7.775,3.891 7.907,3.575 C8.055,3.243 8.127,2.911 8.145,2.558 C8.167,1.872 7.937,1.278 7.637,0.877 C7.345,0.463 6.99,0.238 6.738,0.125 C6.478,0.009 6.328,0.011 6.328,0 C6.328,0 6.427,0.133 6.537,0.351 C6.654,0.568 6.78,0.885 6.85,1.247 C6.913,1.612 6.925,2.022 6.816,2.399 C6.771,2.574 6.685,2.777 6.589,2.948 L6.589,2.948 Z" id="Shape" fill="#0B1F35" opacity="0.3"></path>
                    <path d="M9.589,5.448 C9.481,5.639 9.348,5.85 9.194,6.079 C9.044,6.312 8.877,6.566 8.734,6.859 C8.657,7.008 8.601,7.148 8.542,7.334 C8.511,7.439 8.45,7.664 8.428,7.826 C8.333,8.487 8.485,9.102 8.737,9.544 C8.986,9.994 9.334,10.257 9.587,10.373 C9.843,10.491 10.003,10.491 9.998,10.5 C9.998,10.5 9.898,10.376 9.786,10.158 C9.67,9.942 9.57,9.627 9.54,9.267 C9.519,8.905 9.56,8.495 9.707,8.115 C9.744,8.017 9.761,7.982 9.834,7.833 L10.001,7.559 C10.147,7.343 10.295,7.124 10.443,6.904 C10.602,6.659 10.775,6.39 10.907,6.075 C11.055,5.743 11.127,5.411 11.145,5.058 C11.167,4.372 10.937,3.778 10.637,3.377 C10.345,2.963 9.99,2.738 9.738,2.625 C9.478,2.509 9.328,2.511 9.328,2.5 C9.328,2.5 9.427,2.633 9.537,2.851 C9.654,3.068 9.78,3.385 9.85,3.747 C9.913,4.112 9.925,4.522 9.816,4.899 C9.771,5.074 9.685,5.277 9.589,5.448 L9.589,5.448 Z" id="Shape" fill="#0B1F35" opacity="0.3"></path>
                </g>
            </g>
        </g>
    </g>
</svg>