<svg width="36" height="36" viewBox="0 0 36 36" xmlns="http://www.w3.org/2000/svg"><g fill="none" fill-rule="evenodd"><path d="M0 0h36v36H0z"/><path d="M25 15.49H2a1.5 1.5 0 0 0-1.5 1.5v3.898h26V16.99a1.5 1.5 0 0 0-1.5-1.5z" fill="#FFF" opacity=".3"/><path d="M30.568 16.291c-1.321.438-2.678 1.447-3.568 2.786V16.99c0-1.103-.897-2-2-2H2c-1.103 0-2 .897-2 2v3.898C0 32.03 6.974 36 13.5 36c3.995 0 8.151-1.499 10.779-5.209 4.734-.321 9.517-3.955 11.452-8.755.666-1.651.373-3.372-.782-4.603-1.129-1.202-2.849-1.651-4.381-1.142zM13.5 35C7.457 35 1 31.293 1 20.888V16.99c0-.551.449-1 1-1h23c.551 0 1 .449 1 1v3.898C26 31.293 19.543 35 13.5 35zm21.303-13.338c-1.667 4.135-5.777 7.436-9.847 8.051 1.107-1.956 1.827-4.43 1.991-7.495h.052c-.01-2.307 1.966-4.342 3.883-4.978 1.165-.388 2.474-.042 3.337.878.882.939 1.1 2.264.584 3.544z" fill="#FFF"/><path d="M9.884 4.422c-.163.286-.363.603-.594.947-.225.35-.475.731-.69 1.17a4.19 4.19 0 0 0-.286.712 5.613 5.613 0 0 0-.171.737c-.144.992.084 1.916.462 2.578.374.675.896 1.07 1.274 1.243.384.178.624.177.617.191 0 0-.151-.185-.317-.514-.174-.323-.323-.796-.368-1.335a4.182 4.182 0 0 1 .25-1.728c.056-.147.081-.2.191-.422l.251-.411.664-.982c.238-.367.497-.77.695-1.243a4.21 4.21 0 0 0 .357-1.526c.033-1.028-.312-1.92-.763-2.522A3.319 3.319 0 0 0 10.107.19C9.717.014 9.492.017 9.492 0c0 0 .148.2.313.526.175.326.364.801.47 1.344.095.547.113 1.163-.051 1.729a3.592 3.592 0 0 1-.34.823zM14.384 8.172c-.163.285-.363.602-.594.947-.225.35-.476.731-.69 1.169a4.258 4.258 0 0 0-.286.712 5.839 5.839 0 0 0-.171.738c-.144.992.084 1.916.462 2.578.374.675.896 1.07 1.274 1.243.384.178.624.177.617.191 0 0-.151-.185-.317-.514-.174-.323-.323-.796-.368-1.335a4.182 4.182 0 0 1 .25-1.728c.056-.147.081-.2.191-.422l.251-.411.664-.982c.238-.367.497-.77.695-1.243a4.21 4.21 0 0 0 .357-1.526c.033-1.028-.312-1.92-.763-2.522a3.319 3.319 0 0 0-1.349-1.127c-.39-.174-.614-.171-.614-.188 0 0 .148.2.313.526.175.326.364.801.47 1.344.095.547.113 1.163-.051 1.729a3.666 3.666 0 0 1-.341.821z" fill="#FFF" opacity=".3"/></g></svg>