<svg xmlns="http://www.w3.org/2000/svg" width="47" height="46" viewBox="0 0 47 46"><g fill="none" fill-rule="evenodd"><path d="M-1-1h48v48H-1z"/><path fill="#0B1F35" d="M41.5 21c-2.969 0-5.255 1.231-6.513 3.326L35 20.504a1.43 1.43 0 0 0-.428-1.017A1.707 1.707 0 0 0 33.366 19H1.634c-.458 0-.897.177-1.206.487A1.43 1.43 0 0 0 0 20.504l.018 5.513C.018 40.75 9.049 46 17.5 46c6.332 0 10.658-2.494 13.424-6.174 3.422-.102 7.109-1.587 10.431-4.233 3.642-2.9 5.646-6.13 5.645-9.094A5.509 5.509 0 0 0 41.5 21zm-24 24C7.18 45 1.018 37.904 1.018 26.017L1 20.501a.44.44 0 0 1 .136-.308.704.704 0 0 1 .498-.193h31.732c.194 0 .375.07.498.193a.437.437 0 0 1 .136.308l-.019 5.519C33.981 43.631 21.367 45 17.5 45zm23.232-10.189c-2.863 2.28-6.113 3.689-9.084 3.975 1.905-2.982 2.914-6.591 3.225-10.243h.033c0-4.824 3.407-6.543 6.595-6.543a4.508 4.508 0 0 1 4.5 4.5c.001 2.653-1.87 5.604-5.269 8.311z"/><path fill="#0B1F35" d="M34.5 20.5a1 1 0 0 0-1-1H20.522a15.58 15.58 0 0 0-.088-.162 5.603 5.603 0 0 1-.286-.748 5.009 5.009 0 0 1-.146-.953 5.228 5.228 0 0 1 .341-2.164c.078-.181.108-.238.243-.525.068-.131.2-.336.31-.516l.842-1.242c.302-.467.634-.982.886-1.588.061-.141.146-.357.189-.486l.056-.19c.045-.14.047-.185.072-.282.08-.337.132-.673.137-1.002a5.123 5.123 0 0 0-.986-3.231c-.581-.783-1.258-1.214-1.748-1.421-.5-.219-.786-.211-.789-.228-.016 0 .184.264.388.679.212.421.452 1.023.561 1.717.119.687.116 1.466-.083 2.166-.054.174-.1.347-.178.507l-.125.274c-.054.116-.076.144-.129.243-.206.356-.458.756-.751 1.193-.286.444-.604.929-.878 1.491a5.91 5.91 0 0 0-.372.911 5.652 5.652 0 0 0-.216.948c-.18 1.277.124 2.456.611 3.305.354.608.791 1.03 1.191 1.305H1.5a1 1 0 0 0-1 1V25h34v-4.5z" opacity=".3"/><path fill="#0B1F35" d="M14.871 10.186c.068-.131.2-.336.31-.516l.842-1.242c.302-.467.634-.982.886-1.588.061-.141.146-.357.189-.486l.056-.19c.045-.14.047-.185.072-.282.08-.337.132-.673.137-1.002a5.123 5.123 0 0 0-.986-3.231C15.796.866 15.119.435 14.629.228c-.5-.219-.786-.211-.789-.228-.016 0 .184.264.388.679.212.421.452 1.023.561 1.717.119.687.116 1.466-.083 2.166-.054.174-.1.347-.178.507l-.125.274c-.054.116-.076.144-.129.243-.206.356-.458.756-.751 1.193-.286.444-.604.929-.878 1.491a5.91 5.91 0 0 0-.372.911 5.652 5.652 0 0 0-.216.948c-.18 1.277.124 2.456.611 3.305.499.856 1.163 1.359 1.654 1.573.243.116.447.165.584.193l.208.038-.114-.179c-.081-.102-.169-.284-.28-.483a5.603 5.603 0 0 1-.286-.748 5.009 5.009 0 0 1-.146-.953 5.228 5.228 0 0 1 .341-2.164c.078-.182.107-.238.242-.525z" opacity=".3"/></g></svg>