<?xml version="1.0" encoding="UTF-8"?>
<svg width="48px" height="48px" viewBox="0 0 48 48" version="1.1" xmlns="http://www.w3.org/2000/svg" xmlns:xlink="http://www.w3.org/1999/xlink">
    <!-- Generator: Sketch 48.2 (47327) - http://www.bohemiancoding.com/sketch -->
    <title>icon_category-restaurants_xxl_white</title>
    <desc>Created with Sketch.</desc>
    <defs></defs>
    <g id="mobile" stroke="none" stroke-width="1" fill="none" fill-rule="evenodd" transform="translate(-1389.000000, -786.000000)">
        <g id="Headings" transform="translate(64.000000, 77.000000)">
            <g id="icon_category_restaurants__xxl__white" transform="translate(1325.000000, 709.000000)">
                <g id="ungroup">
                    <rect id="Rectangle-path" x="0" y="0" width="48" height="48"></rect>
                    <g id="a1" opacity="0.4"></g>
                    <path d="M42.4999953,22 C39.5309957,22 37.2449959,23.231 35.9869961,25.326 L35.9999961,21.504 C36.0009961,21.126 35.8489961,20.765 35.5719961,20.487 C35.2629962,20.177 34.8239962,20 34.3659963,20 L2.63399982,20 C2.17599987,20 1.73699992,20.177 1.42799995,20.487 C1.15099998,20.765 0.999,21.126 1,21.504 L1.018,27.017 C1.018,41.75 10.048999,47 18.499998,47 C24.8319973,47 29.1579968,44.506 31.9239965,40.826 C35.3459961,40.724 39.0329957,39.239 42.3549954,36.593 C45.9969949,33.693 48.0009947,30.463 47.9999947,27.499 C47.9979947,24.467 45.529995,22 42.4999953,22 L42.4999953,22 Z M18.5,46 C8.18,46 2.018,38.904 2.018,27.017 L2,21.501 C2,21.36 2.074,21.256 2.136,21.193 C2.258,21.071 2.439,21 2.634,21 L34.366,21 C34.56,21 34.741,21.07 34.864,21.193 C34.926,21.255 35,21.359 35,21.501 L34.981,27.02 C34.981,44.631 22.367,46 18.5,46 L18.5,46 Z M41.732,35.811 C38.869,38.091 35.619,39.5 32.648,39.786 C34.553,36.804 35.562,33.195 35.873,29.543 L35.906,29.543 C35.906,24.719 39.313,23 42.501,23 C44.98,23 46.999,25.019 47.001,27.5 C47.002,30.153 45.131,33.104 41.732,35.811 L41.732,35.811 Z" id="Shape" fill="#FFFFFF"></path>
                    <path d="M35.5,21.5 C35.5,20.948 35.052,20.5 34.5,20.5 L21.522,20.5 C21.493,20.446 21.466,20.396 21.434,20.338 C21.328,20.131 21.24,19.867 21.148,19.59 C21.074,19.298 21.021,18.979 21.002,18.637 C20.967,17.955 21.061,17.18 21.343,16.473 C21.421,16.292 21.451,16.235 21.586,15.948 C21.654,15.817 21.786,15.612 21.896,15.432 C22.174,15.022 22.456,14.606 22.738,14.19 C23.04,13.723 23.372,13.208 23.624,12.602 C23.685,12.461 23.77,12.245 23.813,12.116 L23.869,11.926 C23.914,11.786 23.916,11.741 23.941,11.644 C24.021,11.307 24.073,10.971 24.078,10.642 C24.13,9.319 23.666,8.183 23.092,7.411 C22.511,6.628 21.834,6.197 21.344,5.99 C20.844,5.771 20.558,5.779 20.555,5.762 C20.539,5.762 20.739,6.026 20.943,6.441 C21.155,6.862 21.395,7.464 21.504,8.158 C21.623,8.845 21.62,9.624 21.421,10.324 C21.367,10.498 21.321,10.671 21.243,10.831 L21.118,11.105 C21.064,11.221 21.042,11.249 20.989,11.348 C20.783,11.704 20.531,12.104 20.238,12.541 C19.952,12.985 19.634,13.47 19.36,14.032 C19.215,14.319 19.103,14.585 18.988,14.943 C18.924,15.138 18.806,15.578 18.772,15.891 C18.592,17.168 18.896,18.347 19.383,19.196 C19.737,19.804 20.174,20.226 20.574,20.501 L2.5,20.501 C1.948,20.501 1.5,20.949 1.5,21.501 L1.5,26 L35.5,26 L35.5,21.5 L35.5,21.5 Z" id="Shape" fill="#FFFFFF" opacity="0.3"></path>
                    <path d="M15.871,11.186 C15.939,11.055 16.071,10.85 16.181,10.67 C16.459,10.26 16.741,9.844 17.023,9.428 C17.325,8.961 17.657,8.446 17.909,7.84 C17.97,7.699 18.055,7.483 18.098,7.354 L18.154,7.164 C18.199,7.024 18.201,6.979 18.226,6.882 C18.306,6.545 18.358,6.209 18.363,5.88 C18.415,4.557 17.951,3.421 17.377,2.649 C16.796,1.866 16.119,1.435 15.629,1.228 C15.129,1.009 14.843,1.017 14.84,1 C14.824,1 15.024,1.264 15.228,1.679 C15.44,2.1 15.68,2.702 15.789,3.396 C15.908,4.083 15.905,4.862 15.706,5.562 C15.652,5.736 15.606,5.909 15.528,6.069 L15.403,6.343 C15.349,6.459 15.327,6.487 15.274,6.586 C15.068,6.942 14.816,7.342 14.523,7.779 C14.237,8.223 13.919,8.708 13.645,9.27 C13.5,9.557 13.388,9.823 13.273,10.181 C13.209,10.376 13.091,10.816 13.057,11.129 C12.877,12.406 13.181,13.585 13.668,14.434 C14.167,15.29 14.831,15.793 15.322,16.007 C15.565,16.123 15.769,16.172 15.906,16.2 C16.042,16.225 16.114,16.238 16.114,16.238 C16.114,16.238 16.074,16.176 16,16.059 C15.919,15.957 15.831,15.775 15.72,15.576 C15.614,15.369 15.526,15.105 15.434,14.828 C15.36,14.536 15.307,14.217 15.288,13.875 C15.253,13.193 15.347,12.418 15.629,11.711 C15.707,11.529 15.736,11.473 15.871,11.186 L15.871,11.186 Z" id="Shape" fill="#FFFFFF" opacity="0.3"></path>
                </g>
            </g>
        </g>
    </g>
</svg>