<svg width="24" height="24" viewBox="0 0 24 24" xmlns="http://www.w3.org/2000/svg"><g fill="none" fill-rule="evenodd"><path d="M0 0h24v24H0z"/><path d="M20.093 11.036c-.744.247-1.507.756-2.098 1.438L18 10.995a.968.968 0 0 0-.288-.686 1.106 1.106 0 0 0-.779-.316H1.066c-.295 0-.579.116-.78.317a.965.965 0 0 0-.286.685l.009 2.764C.009 21.31 4.653 24 9 24c2.453 0 5.001-.859 6.756-2.964 3.304-.125 6.778-2.695 7.991-5.963.474-1.276.284-2.486-.521-3.32-.781-.808-2.009-1.09-3.133-.717zM9 23c-5.004 0-7.991-3.455-7.991-9.241l-.003-.908.061-1.858H17.001l-.009 2.767C16.991 19.546 14.003 23 9 23zm13.809-8.275c-.985 2.654-3.631 4.786-6.305 5.229.755-1.271 1.277-2.868 1.434-4.865.025-1.439 1.263-2.704 2.469-3.104.759-.252 1.583-.07 2.099.463.536.554.643 1.363.303 2.277z" fill="#FFF"/><path d="M6.589 2.948a9.783 9.783 0 0 1-.395.631c-.15.233-.317.487-.46.78a2.865 2.865 0 0 0-.192.475 3.91 3.91 0 0 0-.114.492 2.731 2.731 0 0 0 .309 1.718c.249.45.597.713.85.829.255.118.416.118.411.127 0 0-.1-.124-.212-.342a2.352 2.352 0 0 1-.246-.891c-.021-.362.02-.772.167-1.152.037-.098.054-.133.127-.282l.167-.274.442-.655c.159-.244.332-.513.464-.829.148-.332.22-.664.238-1.017A2.69 2.69 0 0 0 7.637.877a2.226 2.226 0 0 0-.899-.752c-.26-.116-.41-.114-.41-.125 0 0 .099.133.209.351.117.217.243.534.313.896.063.365.075.775-.034 1.152a2.426 2.426 0 0 1-.227.549zM9.589 5.448a9.783 9.783 0 0 1-.395.631c-.15.233-.317.487-.46.78a2.865 2.865 0 0 0-.192.475 3.91 3.91 0 0 0-.114.492 2.731 2.731 0 0 0 .309 1.718c.249.45.597.713.85.829.256.118.416.118.411.127 0 0-.1-.124-.212-.342a2.352 2.352 0 0 1-.246-.891c-.021-.362.02-.772.167-1.152.037-.098.054-.133.127-.282l.167-.274.442-.655c.159-.245.332-.514.464-.829.148-.332.22-.664.238-1.017a2.69 2.69 0 0 0-.508-1.681 2.226 2.226 0 0 0-.899-.752c-.26-.116-.41-.114-.41-.125 0 0 .099.133.209.351.117.217.243.534.313.896.063.365.075.775-.034 1.152a2.426 2.426 0 0 1-.227.549z" fill="#FFF" opacity=".3"/></g></svg>