<svg xmlns="http://www.w3.org/2000/svg" width="24" height="24" viewBox="0 0 24 24"><path fill="none" d="M0 0h24v24H0z"/><path fill="#fff" d="M9 24c-4.35 0-9-2.69-9-10.24V11a1 1 0 0 1 .29-.69 1.11 1.11 0 0 1 .78-.31h15.86a1.11 1.11 0 0 1 .78.32A1 1 0 0 1 18 11v2.76C18 21.31 13.35 24 9 24zM1.07 11L1 12.85v.91C1 19.55 4 23 9 23s8-3.45 8-9.24V11H1.07z"/><path fill="#fff" d="M15.51 21v-1a8.4 8.4 0 0 0 7.3-5.32 2.08 2.08 0 0 0-.3-2.28 2 2 0 0 0-2.1-.46 3.62 3.62 0 0 0-2.47 3.16h-1a4.61 4.61 0 0 1 3.15-4.1 3 3 0 0 1 3.13.72 3.07 3.07 0 0 1 .52 3.32A9.45 9.45 0 0 1 15.51 21z"/><path fill="#fff" d="M6.33 0a1.94 1.94 0 0 1 .41.13 2.22 2.22 0 0 1 .9.75 2.69 2.69 0 0 1 .51 1.68 2.81 2.81 0 0 1-.24 1 5.22 5.22 0 0 1-.46.83L7 5.06l-.17.27a2.64 2.64 0 0 0-.13.28 2.79 2.79 0 0 0-.17 1.15 2.35 2.35 0 0 0 .25.89A2.1 2.1 0 0 0 7 8a1.71 1.71 0 0 1-.41-.13A2 2 0 0 1 5.74 7a2.72 2.72 0 0 1-.31-1.72 3.89 3.89 0 0 1 .11-.49 2.88 2.88 0 0 1 .19-.47 7.55 7.55 0 0 1 .46-.78c.15-.23.29-.44.4-.63a2.43 2.43 0 0 0 .23-.51 2.61 2.61 0 0 0 0-1.15 3.28 3.28 0 0 0-.28-.9A2.67 2.67 0 0 0 6.33 0zm3 2.5a1.94 1.94 0 0 1 .41.13 2.22 2.22 0 0 1 .9.75 2.69 2.69 0 0 1 .51 1.68 2.81 2.81 0 0 1-.24 1 5.22 5.22 0 0 1-.46.83l-.45.67-.17.27a2.64 2.64 0 0 0-.13.28 2.79 2.79 0 0 0-.17 1.15 2.35 2.35 0 0 0 .25.89 2.1 2.1 0 0 0 .21.34 1.71 1.71 0 0 1-.41-.13 2 2 0 0 1-.85-.83 2.72 2.72 0 0 1-.31-1.72 3.89 3.89 0 0 1 .11-.49 2.88 2.88 0 0 1 .19-.47 7.55 7.55 0 0 1 .46-.78c.15-.23.29-.44.4-.63a2.43 2.43 0 0 0 .24-.54 2.61 2.61 0 0 0 0-1.15 3.28 3.28 0 0 0-.31-.9 2.67 2.67 0 0 0-.18-.35z" opacity=".3"/></svg>