<?xml version="1.0" encoding="UTF-8"?>
<svg width="36px" height="36px" viewBox="0 0 36 36" version="1.1" xmlns="http://www.w3.org/2000/svg" xmlns:xlink="http://www.w3.org/1999/xlink">
    <!-- Generator: Sketch 48.2 (47327) - http://www.bohemiancoding.com/sketch -->
    <title>icon_category-restaurants_xl_white</title>
    <desc>Created with Sketch.</desc>
    <defs></defs>
    <g id="mobile" stroke="none" stroke-width="1" fill="none" fill-rule="evenodd" transform="translate(-1312.000000, -786.000000)">
        <g id="Headings" transform="translate(64.000000, 77.000000)">
            <g id="icon_category_restaurants__xl__white" transform="translate(1248.000000, 709.000000)">
                <g id="ungroup">
                    <rect id="Rectangle-path" x="0" y="0" width="36" height="36"></rect>
                    <g id="a1" opacity="0.4"></g>
                    <path d="M25,15.49 L13.5,15.49 L2,15.49 C1.172,15.49 0.5,16.162 0.5,16.99 L0.5,20.888 L26.5,20.888 L26.5,16.99 C26.5,16.161 25.828,15.49 25,15.49 L25,15.49 Z" id="Shape" fill="#FFFFFF" opacity="0.3"></path>
                    <path d="M30.568,16.291 C29.247,16.729 27.89,17.738 27,19.077 L27,16.99 C27,15.887 26.103,14.99 25,14.99 L2,14.99 C0.897,14.99 0,15.887 0,16.99 L0,20.888 C0,32.03 6.974,36 13.5,36 C17.495,36 21.651,34.501 24.279,30.791 C29.013,30.47 33.796,26.836 35.731,22.036 C36.397,20.385 36.104,18.664 34.949,17.433 C33.82,16.231 32.1,15.782 30.568,16.291 L30.568,16.291 Z M13.5,35 C7.457,35 1,31.293 1,20.888 L1,16.99 C1,16.439 1.449,15.99 2,15.99 L25,15.99 C25.551,15.99 26,16.439 26,16.99 L26,20.888 C26,31.293 19.543,35 13.5,35 L13.5,35 Z M34.803,21.662 C33.136,25.797 29.026,29.098 24.956,29.713 C26.063,27.757 26.783,25.283 26.947,22.218 L26.999,22.218 C26.989,19.911 28.965,17.876 30.882,17.24 C32.047,16.852 33.356,17.198 34.219,18.118 C35.101,19.057 35.319,20.382 34.803,21.662 L34.803,21.662 Z" id="Shape" fill="#FFFFFF"></path>
                    <path d="M9.884,4.422 C9.721,4.708 9.521,5.025 9.29,5.369 C9.065,5.719 8.815,6.1 8.6,6.539 C8.485,6.762 8.401,6.972 8.314,7.251 C8.266,7.408 8.176,7.746 8.143,7.988 C7.999,8.98 8.227,9.904 8.605,10.566 C8.979,11.241 9.501,11.636 9.879,11.809 C10.263,11.987 10.503,11.986 10.496,12 C10.496,12 10.345,11.815 10.179,11.486 C10.005,11.163 9.856,10.69 9.811,10.151 C9.779,9.608 9.841,8.993 10.061,8.423 C10.117,8.276 10.142,8.223 10.252,8.001 L10.503,7.59 C10.722,7.266 10.944,6.937 11.167,6.608 C11.405,6.241 11.664,5.838 11.862,5.365 C12.084,4.867 12.191,4.369 12.219,3.839 C12.252,2.811 11.907,1.919 11.456,1.317 C11.019,0.697 10.486,0.358 10.107,0.19 C9.717,0.014 9.492,0.017 9.492,0 C9.492,0 9.64,0.2 9.805,0.526 C9.98,0.852 10.169,1.327 10.275,1.87 C10.37,2.417 10.388,3.033 10.224,3.599 C10.157,3.862 10.028,4.166 9.884,4.422 L9.884,4.422 Z" id="Shape" fill="#FFFFFF" opacity="0.3"></path>
                    <path d="M14.384,8.172 C14.221,8.457 14.021,8.774 13.79,9.119 C13.565,9.469 13.314,9.85 13.1,10.288 C12.985,10.512 12.901,10.722 12.814,11 C12.767,11.158 12.676,11.496 12.643,11.738 C12.499,12.73 12.727,13.654 13.105,14.316 C13.479,14.991 14.001,15.386 14.379,15.559 C14.763,15.737 15.003,15.736 14.996,15.75 C14.996,15.75 14.845,15.565 14.679,15.236 C14.505,14.913 14.356,14.44 14.311,13.901 C14.279,13.358 14.341,12.743 14.561,12.173 C14.617,12.026 14.642,11.973 14.752,11.751 L15.003,11.34 C15.222,11.016 15.444,10.687 15.667,10.358 C15.905,9.991 16.164,9.588 16.362,9.115 C16.584,8.617 16.691,8.119 16.719,7.589 C16.752,6.561 16.407,5.669 15.956,5.067 C15.519,4.447 14.986,4.108 14.607,3.94 C14.217,3.766 13.993,3.769 13.993,3.752 C13.993,3.752 14.141,3.952 14.306,4.278 C14.481,4.604 14.67,5.079 14.776,5.622 C14.871,6.169 14.889,6.785 14.725,7.351 C14.657,7.612 14.528,7.916 14.384,8.172 L14.384,8.172 Z" id="Shape" fill="#FFFFFF" opacity="0.3"></path>
                </g>
            </g>
        </g>
    </g>
</svg>