<svg width="48px" height="48px" viewBox="0 0 48 48" version="1.1" xmlns="http://www.w3.org/2000/svg"><g stroke="none" stroke-width="1" fill="none" fill-rule="evenodd"><polygon points="0 0 48 0 48 48 0 48"/><g transform="translate(1.000000, 17.000000)" fill="#FFFFFF" fill-opacity="0.9" fill-rule="nonzero"><path d="M29.6844571,0.1014 L31.4745143,0.101385477 L31.4745143,12.7400108 L27.4580571,12.74 L27.4580571,5.3586 C27.4580571,5.1766 27.2030857,5.1194 27.1216,5.2845 L23.8188,11.9665 C23.5806289,12.4420335 23.0896598,12.7420869 22.5531429,12.74 L18.4,12.7400108 L18.4,0.101385477 L22.2902857,0.1014 C22.3599429,0.1014 22.4177714,0.156 22.4177714,0.2236 L22.4177714,7.4542 C22.4177714,7.7701 22.8593714,7.865 22.9960571,7.5777 L26.1832,0.8918 C26.4179506,0.406721089 26.9143631,0.0989497881 27.4580571,0.1014 L29.6844571,0.1014 Z M13.7342857,0.1014 L16.3497143,0.1014 L16.3497143,12.74 L12.4252571,12.74 L12.4252571,5.4509 C12.4252571,5.2533 12.1466286,5.2117 12.0888,5.4002 L9.80982857,12.74 L6.53988571,12.74 L4.26091429,5.4002 C4.20308571,5.2117 3.92445714,5.2533 3.92445714,5.4509 L3.92445714,12.74 L0,12.74 L0,0.1014 L4.63942857,0.1014 C5.24794286,0.1014 5.78548571,0.5005 5.95502857,1.0829 L7.89097143,7.6817 C7.97377143,7.9638 8.37725714,7.9638 8.45874286,7.6817 L10.3946857,1.0829 C10.5655429,0.5005 11.1017714,0.1014 11.7102857,0.1014 L13.7342857,0.1014 Z M36.8749143,6.0073 L45.6845714,6.0073 C44.9945442,7.64712527 43.3718111,8.71256721 41.5761143,8.7048 L36.8749143,8.7048 L36.8749143,12.74 L32.8571429,12.74 L32.8571429,6.0073 L36.8749143,6.0073 Z"/><path d="M32.2,0.1014 C32.2,2.9536 35.9194286,5.265 38.8581714,5.265 L45.8567429,5.265 C45.9170351,4.98157682 45.9474265,4.69272952 45.9474286,4.4031 C45.9474286,2.0267 43.9628571,0.1014 41.5156571,0.1014 L32.2,0.1014 Z" opacity="0.5"/></g></g></svg>