<svg width="48" height="48" viewBox="0 0 48 48" xmlns="http://www.w3.org/2000/svg"><g fill="none" fill-rule="evenodd"><path d="M0 0h48v48H0z"/><g fill="#FFF" fill-opacity=".9" fill-rule="nonzero"><path d="M30.684 17.101h1.79V29.74h-4.016v-7.381c0-.182-.255-.24-.336-.074l-3.303 6.682c-.238.475-.73.775-1.266.773H19.4V17.101h3.89c.07 0 .128.055.128.123v7.23c0 .316.441.411.578.124l3.187-6.686a1.408 1.408 0 0 1 1.275-.79h2.226zm-15.95 0h2.616V29.74h-3.925v-7.29c0-.197-.278-.238-.336-.05l-2.28 7.34H7.54L5.262 22.4c-.058-.188-.337-.147-.337.05v7.29H1V17.101h4.64c.608 0 1.145.4 1.315.982l1.936 6.599c.083.282.486.282.568 0l1.936-6.6a1.37 1.37 0 0 1 1.315-.98h2.024zm23.14 5.906h8.81a4.43 4.43 0 0 1-4.108 2.698h-4.701v4.035h-4.018v-6.733h4.018z"/><path d="M33.2 17.101c0 2.853 3.72 5.164 6.658 5.164h6.999c.06-.283.09-.572.09-.862 0-2.376-1.984-4.302-4.431-4.302H33.2z" opacity=".5"/></g></g></svg>