<svg xmlns="http://www.w3.org/2000/svg" width="24" height="24" viewBox="0 0 24 24"><g fill="none" fill-rule="evenodd"><path d="M0 0h24v24H0z"/><g fill="#FFFFFF" opacity=".4"><path d="M15.058 8.719h.907V15.2h-2.037v-3.785c0-.094-.13-.123-.17-.038l-1.676 3.426a.714.714 0 0 1-.642.397H9.333V8.72h1.974c.035 0 .064.028.064.063v3.708c0 .161.224.21.293.063l1.618-3.43a.713.713 0 0 1 .646-.404h1.13zm-8.092 0h1.327V15.2h-1.99v-3.738c0-.101-.142-.122-.171-.026L4.976 15.2H3.318L2.16 11.436c-.03-.096-.17-.075-.17.026V15.2H0V8.72h2.353c.31 0 .582.205.668.503l.981 3.384a.15.15 0 0 0 .289 0l.981-3.384a.696.696 0 0 1 .668-.503h1.026zm11.738 3.028h4.47a2.247 2.247 0 0 1-2.085 1.384h-2.385v2.07h-2.037v-3.455h2.037z"/><path d="M16.37 8.719c0 1.462 1.887 2.648 3.377 2.648h3.55c.03-.143.046-.291.046-.442 0-1.219-1.007-2.206-2.248-2.206H16.37z" opacity=".6"/></g></g></svg>
