<svg width="30" height="30" viewBox="0 0 30 30" xmlns="http://www.w3.org/2000/svg"><g fill="none" fill-rule="evenodd"><path d="M0 0h30v30H0z"/><g fill="#FFF" fill-opacity=".9" fill-rule="nonzero"><path d="M19.36 11.066h1.167v8.243h-2.62v-4.814c0-.119-.166-.156-.219-.049l-2.154 4.358a.918.918 0 0 1-.825.505H12v-8.243h2.537c.046 0 .083.036.083.08v4.715c0 .206.288.268.377.081l2.079-4.36a.918.918 0 0 1 .831-.516h1.452zm-10.403 0h1.706v8.243h-2.56v-4.754c0-.129-.181-.156-.219-.033l-1.486 4.787H4.265L2.78 14.522c-.038-.123-.22-.096-.22.033v4.754H0v-8.243h3.026c.397 0 .747.26.858.64l1.262 4.304c.054.184.317.184.37 0l1.263-4.304a.893.893 0 0 1 .858-.64h1.32zm15.092 3.852h5.745a2.89 2.89 0 0 1-2.68 1.759H24.05v2.632h-2.62v-4.391h2.62z"/><path d="M21 11.066c0 1.86 2.426 3.368 4.342 3.368h4.565c.039-.185.059-.374.059-.562 0-1.55-1.295-2.806-2.89-2.806H21z" opacity=".5"/></g></g></svg>