<svg width="30px" height="30px" viewBox="0 0 30 30" version="1.1" xmlns="http://www.w3.org/2000/svg"><g stroke="none" stroke-width="1" fill="none" fill-rule="evenodd"><polygon points="0 0 30 0 30 30 0 30"/><g transform="translate(0.000000, 11.000000)" fill="#FFFFFF" fill-opacity="0.9" fill-rule="nonzero"><path d="M19.3594286,0.0661304348 L20.5268571,0.0661209636 L20.5268571,8.30870271 L17.9074286,8.30869565 L17.9074286,3.49473913 C17.9074286,3.37604348 17.7411429,3.33873913 17.688,3.44641304 L15.534,7.80423913 C15.378671,8.1143697 15.0584738,8.31005664 14.7085714,8.30869565 L12,8.30870271 L12,0.0661209636 L14.5371429,0.0661304348 C14.5825714,0.0661304348 14.6202857,0.10173913 14.6202857,0.145826087 L14.6202857,4.86143478 C14.6202857,5.06745652 14.9082857,5.12934783 14.9974286,4.94197826 L17.076,0.581608696 C17.2290982,0.265252884 17.5528455,0.0645324705 17.9074286,0.0661304348 L19.3594286,0.0661304348 Z M8.95714286,0.0661304348 L10.6628571,0.0661304348 L10.6628571,8.30869565 L8.10342857,8.30869565 L8.10342857,3.55493478 C8.10342857,3.42606522 7.92171429,3.39893478 7.884,3.52186957 L6.39771429,8.30869565 L4.26514286,8.30869565 L2.77885714,3.52186957 C2.74114286,3.39893478 2.55942857,3.42606522 2.55942857,3.55493478 L2.55942857,8.30869565 L0,8.30869565 L0,0.0661304348 L3.02571429,0.0661304348 C3.42257143,0.0661304348 3.77314286,0.326413043 3.88371429,0.70623913 L5.14628571,5.00980435 C5.20028571,5.19378261 5.46342857,5.19378261 5.51657143,5.00980435 L6.77914286,0.70623913 C6.89057143,0.326413043 7.24028571,0.0661304348 7.63714286,0.0661304348 L8.95714286,0.0661304348 Z M24.0488571,3.91780435 L29.7942857,3.91780435 C29.344268,4.98725561 28.2859638,5.68210905 27.1148571,5.67704348 L24.0488571,5.67704348 L24.0488571,8.30869565 L21.4285714,8.30869565 L21.4285714,3.91780435 L24.0488571,3.91780435 Z"/><path d="M21,0.0661304348 C21,1.92626087 23.4257143,3.43369565 25.3422857,3.43369565 L29.9065714,3.43369565 C29.9458925,3.24885445 29.9657129,3.06047578 29.9657143,2.87158696 C29.9657143,1.32176087 28.6714286,0.0661304348 27.0754286,0.0661304348 L21,0.0661304348 Z" opacity="0.5"/></g></g></svg>