<svg xmlns="http://www.w3.org/2000/svg" width="36" height="36" viewBox="0 0 36 36"><g fill="none" fill-rule="evenodd"><path d="M0 0h36v36H0z"/><g fill="#0B1F35" opacity=".7"><path d="M23.586 13.078h1.362V22.8h-3.056v-5.678c0-.14-.194-.184-.256-.057l-2.513 5.14a1.07 1.07 0 0 1-.963.595H15v-9.722h2.96c.053 0 .097.042.097.094v5.562c0 .243.336.316.44.095l2.425-5.143a1.07 1.07 0 0 1 .97-.608h1.694zm-12.136 0h1.99V22.8h-2.986v-5.607c0-.152-.212-.184-.256-.039L8.464 22.8H5.976l-1.734-5.646c-.044-.145-.256-.113-.256.039V22.8H1v-9.722h3.53c.463 0 .872.307 1.001.755l1.473 5.076c.063.217.37.217.432 0l1.473-5.076c.13-.448.538-.755 1.001-.755h1.54zm17.607 4.543h6.703a3.37 3.37 0 0 1-3.126 2.075h-3.577V22.8H26v-5.179h3.057z"/><path d="M25.5 13.078c0 2.194 2.83 3.972 5.066 3.972h5.325a3.22 3.22 0 0 0 .069-.663c0-1.828-1.51-3.309-3.372-3.309H25.5z" opacity=".5"/></g></g></svg>