<svg xmlns="http://www.w3.org/2000/svg" width="22" height="16" viewBox="0 0 22 16"><g fill="none" fill-rule="evenodd"><path d="M-1-4h24v24H-1z"/><path fill="#0B1F35" d="M7.023 15.516c.312.312.727.484 1.169.484h11A2.811 2.811 0 0 0 22 13.192V2.808A2.811 2.811 0 0 0 19.192 0h-11c-.442 0-.857.172-1.169.484L.677 6.83A1.643 1.643 0 0 0 .192 8c0 .442.172.857.484 1.169l6.347 6.347zM1.384 7.538L7.73 1.191A.652.652 0 0 1 8.192 1h11A1.81 1.81 0 0 1 21 2.808v10.385A1.81 1.81 0 0 1 19.192 15h-11a.649.649 0 0 1-.462-.191L1.384 8.463a.65.65 0 0 1 0-.925z"/><path fill="#0B1F35" d="M10.854 11.359L13.5 8.713l2.646 2.646.708-.707-2.647-2.646 2.647-2.647-.708-.707L13.5 7.299l-2.646-2.647-.708.707 2.647 2.647-2.647 2.646z"/></g></svg>