<svg xmlns="http://www.w3.org/2000/svg" width="43" height="30" viewBox="0 0 43 30"><g fill="none" fill-rule="evenodd"><path d="M-2-9h48v48H-2z"/><path fill="#FFF" d="M38.758 0H15.5c-.633 0-1.228.247-1.677.694L1.194 13.324a2.373 2.373 0 0 0 0 3.353l12.629 12.63A2.365 2.365 0 0 0 15.5 30h23.258A4.247 4.247 0 0 0 43 25.758V4.242A4.247 4.247 0 0 0 38.758 0zM42 25.758A3.245 3.245 0 0 1 38.758 29H15.5c-.366 0-.71-.143-.97-.401L1.901 15.969a1.372 1.372 0 0 1 0-1.938L14.53 1.402c.26-.259.604-.402.97-.402h23.258A3.245 3.245 0 0 1 42 4.242v21.516z"/><path fill="#FFF" d="M34.646 8.159L28.5 14.305l-6.146-6.146-.708.707 6.147 6.146-6.147 6.147.708.707 6.146-6.147 6.146 6.147.708-.707-6.147-6.147 6.147-6.146z"/></g></svg>