<svg xmlns="http://www.w3.org/2000/svg" width="24" height="24" viewBox="0 0 24 24"><path fill="none" d="M0 0h24v24H0z"/><path fill="#fff" d="M9 15c-3.13 0-5-3.74-5-7.36C4 5.22 4.52 2 9 2s5 3.22 5 5.64C14 11.26 12.13 15 9 15zM9 3C6.12 3 5 4.3 5 7.64 5 10.7 6.53 14 9 14s4-3.3 4-6.36C13 4.3 11.88 3 9 3z"/><path fill="#fff" d="M1 23H0c0-3.63 2.32-4.88 3.7-5.63l.54-.3.35-.43C5.59 16.07 6 16 6 13h1c0 3-.65 3.79-1.91 4.51l-.33.31c-.17.1-.37.27-.58.38C2.76 19 1 20 1 23zm17 0h-1c0-3-1.76-4-3.18-4.75l-.58-.33-.33-.42C11.65 16.79 11 16 11 13h1c0 3 .41 3.07 1.41 3.65l.35.35c.16.1.35.25.54.36A6 6 0 0 1 18 23zM12.5 7.67zM15 12a3.69 3.69 0 0 1-2.32-.81l.62-.79a2.71 2.71 0 0 0 1.7.6c2.36 0 4-3 4-5.79C19 2.3 17.77 1 15 1c-1.92 0-3 .61-3.45 2l-.95-.34C11.21.87 12.65 0 15 0c3.32 0 5 1.75 5 5.21C20 8.49 18 12 15 12z"/><path fill="#fff" d="M24 20h-1c0-3-1.76-4-3.18-4.75l-.58-.33-.24-.31c-1.32-.77-2-1.61-2-4.61h1c0 3 .44 3.13 1.5 3.75l.26.25c.16.1.35.24.54.35A5.94 5.94 0 0 1 24 20zM18.5 4.67zM4.68 8.5z"/></svg>