<?xml version="1.0" encoding="UTF-8"?>
<svg width="24px" height="24px" viewBox="0 0 24 24" version="1.1" xmlns="http://www.w3.org/2000/svg" xmlns:xlink="http://www.w3.org/1999/xlink">
    <!-- Generator: Sketch 48.2 (47327) - http://www.bohemiancoding.com/sketch -->
    <title>icon_category-person_m_black</title>
    <desc>Created with Sketch.</desc>
    <defs></defs>
    <g id="mobile" stroke="none" stroke-width="1" fill="none" fill-rule="evenodd" transform="translate(-748.000000, -585.000000)">
        <g id="Headings" transform="translate(64.000000, 77.000000)"></g>
        <g id="icon_tool_payment_to_person__m__white" transform="translate(748.000000, 585.000000)">
            <g id="ungroup">
                <rect id="Rectangle-path" x="0" y="0" width="24" height="24"></rect>
                <path d="M9,15 C6,15 4.2,11.5 4.2,8.2 C4.2,6 4.7,3 9,3 C13.3,3 13.8,6 13.8,8.2 C13.8,11.5 12,15 9,15 L9,15 Z M9,4 C6.3,4 5.2,5.2 5.2,8.2 C5.2,11 6.7,14 9,14 C11.3,14 12.8,11 12.8,8.2 C12.8,5.2 11.7,4 9,4 L9,4 Z" id="Shape" fill="#0B1F35"></path>
                <path d="M1,23 L0,23 C0,19.4 2.3,18.1 3.7,17.4 C3.9,17.3 4.1,17.2 4.2,17.1 L4.6,16.9 C5.6,16.3 6,16.1 6,13.5 L7,13.5 C7,16.6 6.3,17.1 5.1,17.8 L4.8,18 C4.6,18.1 4.4,18.2 4.2,18.3 C2.8,19 1,20 1,23 L1,23 Z" id="Shape" fill="#0B1F35"></path>
                <path d="M18,23 L17,23 C17,20 15.2,19 13.8,18.3 C13.6,18.2 13.4,18.1 13.2,18 L12.9,17.8 C11.7,17 11,16.5 11,13.4 L12,13.4 C12,16 12.4,16.3 13.4,16.8 L13.8,17 C14,17.1 14.1,17.2 14.3,17.3 C15.7,18.1 18,19.4 18,23 L18,23 Z" id="Shape" fill="#0B1F35"></path>
                <path d="M15,12 C14.1,12 13.3,11.7 12.6,11.1 L13.2,10.3 C13.7,10.7 14.3,11 15,11 C17.3,11 18.8,8 18.8,5.2 C18.8,2.2 17.7,1 15,1 C12.7,1 11.7,1.8 11.3,3.8 L10.3,3.6 C10.7,1.2 12.3,0 15,0 C19.3,0 19.8,3 19.8,5.2 C19.8,8.5 18,12 15,12 L15,12 Z" id="Shape" fill="#0B1F35"></path>
                <path d="M24,20 L23,20 C23,17 21.2,16 19.8,15.3 L19.2,15 L18.9,14.8 C17.7,14 17,13.5 17,10.4 L18,10.4 C18,13 18.4,13.3 19.4,13.8 L19.8,14 C20,14.1 20.1,14.2 20.3,14.3 C21.7,15.1 24,16.4 24,20 L24,20 Z" id="Shape" fill="#0B1F35"></path>
                <path d="M9,15 C6,15 4.2,11.5 4.2,8.2 C4.2,6 4.7,3 9,3 C13.3,3 13.8,6 13.8,8.2 C13.8,11.5 12,15 9,15 L9,15 Z M9,4 C6.3,4 5.2,5.2 5.2,8.2 C5.2,11 6.7,14 9,14 C11.3,14 12.8,11 12.8,8.2 C12.8,5.2 11.7,4 9,4 L9,4 Z" id="Shape" fill="#0B1F35"></path>
                <path d="M1,23 L0,23 C0,19.4 2.3,18.1 3.7,17.4 C3.9,17.3 4.1,17.2 4.2,17.1 L4.6,16.9 C5.6,16.3 6,16.1 6,13.5 L7,13.5 C7,16.6 6.3,17.1 5.1,17.8 L4.8,18 C4.6,18.1 4.4,18.2 4.2,18.3 C2.8,19 1,20 1,23 L1,23 Z" id="Shape" fill="#0B1F35"></path>
                <path d="M18,23 L17,23 C17,20 15.2,19 13.8,18.3 C13.6,18.2 13.4,18.1 13.2,18 L12.9,17.8 C11.7,17 11,16.5 11,13.4 L12,13.4 C12,16 12.4,16.3 13.4,16.8 L13.8,17 C14,17.1 14.1,17.2 14.3,17.3 C15.7,18.1 18,19.4 18,23 L18,23 Z" id="Shape" fill="#0B1F35"></path>
                <path d="M15,12 C14.1,12 13.3,11.7 12.6,11.1 L13.2,10.3 C13.7,10.7 14.3,11 15,11 C17.3,11 18.8,8 18.8,5.2 C18.8,2.2 17.7,1 15,1 C12.7,1 11.7,1.8 11.3,3.8 L10.3,3.6 C10.7,1.2 12.3,0 15,0 C19.3,0 19.8,3 19.8,5.2 C19.8,8.5 18,12 15,12 L15,12 Z" id="Shape" fill="#0B1F35"></path>
                <path d="M24,20 L23,20 C23,17 21.2,16 19.8,15.3 L19.2,15 L18.9,14.8 C17.7,14 17,13.5 17,10.4 L18,10.4 C18,13 18.4,13.3 19.4,13.8 L19.8,14 C20,14.1 20.1,14.2 20.3,14.3 C21.7,15.1 24,16.4 24,20 L24,20 Z" id="Shape" fill="#0B1F35"></path>
                <g id="Group" opacity="0.3"></g>
            </g>
        </g>
    </g>
</svg>