<svg width="36" height="36" viewBox="0 0 36 36" xmlns="http://www.w3.org/2000/svg"><g fill="none" fill-rule="evenodd"><path d="M0 0h36v36H0z"/><path d="M14 22c-4.4 0-7.1-5.2-7.1-10.2C6.9 8.2 7.7 4 14 4s7.1 4.2 7.1 7.8c0 5-2.7 10.2-7.1 10.2zm0-17c-4.3 0-6.1 2-6.1 6.8 0 3.8 1.9 9.2 6.1 9.2 4.2 0 6.1-5.4 6.1-9.2C20.1 7 18.3 5 14 5z" fill="#FFF"/><path d="M22 18c-.9 0-1.8-.3-2.6-.8l.5-.8c.6.4 1.4.6 2.1.6 3.4 0 5.5-4.5 5.5-8.6C27.5 3.8 25.9 2 22 2c-2.7 0-4.3.9-5 3l-1-.4c.9-2.4 2.8-3.6 6-3.6 5.8 0 6.5 3.9 6.5 7.4 0 4.7-2.4 9.6-6.5 9.6zM2 35H1c0-5.5 3.5-7.5 5.7-8.7.2-.1.5-.3.7-.4l.5-.3c1.6-.9 2.3-1.3 2.3-5.5h1c0 4.5-.9 5.3-2.8 6.4l-.5.3c-.2.1-.4.3-.7.4C5 28.4 2 30.1 2 35zM27 35h-1c0-4.9-3-6.6-5.1-7.8-.3-.1-.5-.3-.7-.4l-.5-.3c-1.9-1.1-2.8-1.8-2.8-6.4h1c0 4.2.7 4.6 2.3 5.5l.5.3c.2.1.4.3.7.4 2.1 1.2 5.6 3.2 5.6 8.7z" fill="#FFF"/><path d="M35 31h-1c0-4.9-3-6.6-5.1-7.8-.3-.1-.5-.3-.7-.4l-.3-.2c-2-1.2-3-2-3-6.6h1c0 4.3.8 4.8 2.5 5.8l.3.2c.2.1.4.3.7.4 2.1 1.1 5.6 3.1 5.6 8.6z" fill="#FFF"/></g></svg>