<svg xmlns="http://www.w3.org/2000/svg" width="48" height="48" viewBox="0 0 48 48"><path fill="none" d="M0 0h48v48H0z"/><path fill="#0B1F35" d="M17.5 30C11.55 30 8 22.77 8 15.79 8 10.76 9.08 5 17.5 5S27 10.76 27 15.79C27 22.77 23.45 30 17.5 30zm0-24C11.46 6 9 8.83 9 15.79 9 21.27 11.64 29 17.5 29S26 21.27 26 15.79C26 8.83 23.54 6 17.5 6z"/><path fill="#0B1F35" d="M30 25a6.87 6.87 0 0 1-5-2.19l.71-.71A5.91 5.91 0 0 0 30 24c5.52 0 8-7.39 8-12.64C38 4.71 35.68 2 30 2c-4 0-6.37 1.43-7.37 4.5l-1-.31C22.82 2.7 25.54 1 30 1c8 0 9 5.54 9 10.36C39 18.06 35.63 25 30 25zM1 47H0c0-7.22 4.67-9.88 7.46-11.47l.78-.45c.24-.15.47-.47.7-.6C11 33.26 12 33 12 27h1c0 6-1.16 7-3.56 8.34-.22.12-.44.35-.68.49s-.52.35-.8.51C5.19 37.93 1 40.36 1 47zm34 0h-1c0-6.64-4.19-9-7-10.61l-.8-.46c-.24-.14-.46-.46-.68-.59C23.16 34 22 33 22 27h1c0 6 1 6.26 3.06 7.47.22.13.45.36.7.5s.5.34.78.5C30.33 37.07 35 39.78 35 47zM24.5 15.83z"/><path fill="#0B1F35" d="M48 41h-1c0-6.64-4.19-9-7-10.61l-.8-.46-.5-.3c-2.46-1.47-3.7-2.43-3.7-8.17h1c0 5.43 1 6 3.25 7.31l.51.3.78.45C43.33 31.12 48 33.78 48 41zM36.5 9.83h-.01.01zM8.85 17.5h.01-.01z"/></svg>