<svg width="48" height="48" viewBox="0 0 48 48" xmlns="http://www.w3.org/2000/svg"><g fill="none" fill-rule="evenodd"><path d="M0 0h48v48H0z"/><path d="M18 30c-5.6 0-9-6.6-9-13.1C9 12.3 10 7 18 7s9 5.3 9 9.9c0 6.5-3.4 13.1-9 13.1zm0-22c-5.7 0-8 2.6-8 8.9 0 5 2.5 12.1 8 12.1s8-7.1 8-12.1c0-6.3-2.3-8.9-8-8.9z" fill="#FFF"/><path d="M30.4 24c-1.8 0-3.5-.7-4.9-2.1l.7-.7c1.2 1.2 2.6 1.8 4.2 1.8 5.3 0 7.6-6.7 7.6-11.5 0-6-2.2-8.5-7.6-8.5C26 3 23.7 4.7 23 8.4l-1-.2C22.8 4 25.5 2 30.4 2 38 2 39 7.1 39 11.5c0 6.1-3.2 12.5-8.6 12.5zM2 47H1c0-7.4 4.5-10 7.2-11.6l.6-.3c.4-.2.7-.4 1-.6 1.9-1 3.1-1.7 3.1-6.9h1c0 5.5-1.3 6.5-3.6 7.8-.3.2-.7.4-1 .6l-.6.3C6 37.8 2 40.2 2 47zM35 47h-1c0-6.8-4-9.2-6.7-10.7l-.6-.3c-.4-.2-.7-.4-1-.6-2.3-1.3-3.6-2.2-3.6-7.8h1c0 5.2 1.2 5.8 3.1 6.9.3.2.7.4 1 .6l.6.3C30.5 37 35 39.6 35 47z" fill="#FFF"/><path d="M47 41h-1c0-6.8-4-9.2-6.7-10.7l-.6-.3c-.4-.2-.7-.4-1-.6-2.3-1.2-3.6-2.2-3.6-7.5h1c0 5 1.2 5.6 3.1 6.6.3.2.7.4 1 .6l.6.3C42.5 31 47 33.6 47 41z" fill="#FFF"/></g></svg>