<svg xmlns="http://www.w3.org/2000/svg" width="36" height="36" viewBox="0 0 36 36"><path fill="none" d="M0 0h36v36H0z"/><circle cx="18" cy="9" r="3" fill="#0B1F35" opacity=".3"/><circle cx="18" cy="18" r="3" fill="#0B1F35" opacity=".3"/><circle cx="18" cy="27" r="3" fill="#0B1F35" opacity=".3"/><path fill="#0B1F35" d="M22.43 35h-8.86A3.73 3.73 0 0 1 10 31.5v-1.77L5 25.3V23h5v-2.27l-5-4.28V14h5v-2.26L5 7.6V5h5a4.2 4.2 0 0 1 4.19-4h7.62A4.2 4.2 0 0 1 26 5h5v2.6l-5 4.14V14h5v2.45l-5 4.28V23h5v2.3l-5 4.42v1.78a3.73 3.73 0 0 1-3.57 3.5zM6 24.85l5 4.42v2.23a2.75 2.75 0 0 0 2.57 2.5h8.86A2.71 2.71 0 0 0 25 31.5v-2.23l5-4.42V24h-5v-3.73L30 16v-1h-5v-3.74l5-4.14V6h-5v-.81A3.19 3.19 0 0 0 21.81 2h-7.62A3.19 3.19 0 0 0 11 5.19V6H6v1.13l5 4.14V15H6v1l5 4.28V24H6v.85z"/></svg>