<?xml version="1.0" encoding="UTF-8"?>
<svg width="48px" height="48px" viewBox="0 0 48 48" version="1.1" xmlns="http://www.w3.org/2000/svg" xmlns:xlink="http://www.w3.org/1999/xlink">
    <!-- Generator: Sketch 48.2 (47327) - http://www.bohemiancoding.com/sketch -->
    <title>icon_category-gibdd-fines_xxl_white</title>
    <desc>Created with Sketch.</desc>
    <defs></defs>
    <g id="mobile" stroke="none" stroke-width="1" fill="none" fill-rule="evenodd" transform="translate(-1387.000000, -894.000000)">
        <g id="Headings" transform="translate(64.000000, 77.000000)">
            <g id="icon_category_traffic__fine_xl__white" transform="translate(1323.000000, 817.000000)">
                <g id="ungroup">
                    <rect id="Rectangle-path" x="0" y="0" width="48" height="48"></rect>
                    <g id="a1" opacity="0.4"></g>
                    <circle id="Oval" fill="#FFFFFF" opacity="0.3" cx="24" cy="11" r="5"></circle>
                    <circle id="Oval" fill="#FFFFFF" opacity="0.3" cx="24" cy="24" r="5"></circle>
                    <circle id="Oval" fill="#FFFFFF" opacity="0.3" cx="24" cy="37" r="5"></circle>
                    <path d="M12,41.207 L12,42.5 C12,45.533 14.468,48 17.5,48 L30.5,48 C33.532,48 36,45.533 36,42.5 L36,41.207 L42.854,34.353 C42.947,34.26 43,34.133 43,34 L43,32.5 C43,32.224 42.776,32 42.5,32 L36,32 L36,28.207 L42.854,21.353 C42.947,21.26 43,21.133 43,21 L43,19.5 C43,19.224 42.776,19 42.5,19 L36,19 L36,15.207 L42.854,8.353 C42.947,8.26 43,8.133 43,8 L43,6.5 C43,6.224 42.776,6 42.5,6 L36,6 L36,5.5 C36,2.467 33.532,0 30.5,0 L17.5,0 C14.468,0 12,2.467 12,5.5 L12,6 L5.5,6 C5.224,6 5,6.224 5,6.5 L5,8 C5,8.133 5.053,8.26 5.146,8.354 L12,15.207 L12,19 L5.5,19 C5.224,19 5,19.224 5,19.5 L5,21 C5,21.133 5.053,21.26 5.146,21.354 L12,28.207 L12,32 L5.5,32 C5.224,32 5,32.224 5,32.5 L5,34 C5,34.133 5.053,34.26 5.146,34.354 L12,41.207 L12,41.207 Z M6,33 L12.5,33 C12.776,33 13,32.776 13,32.5 L13,28 C13,27.867 12.947,27.74 12.854,27.646 L6,20.793 L6,20 L12.5,20 C12.776,20 13,19.776 13,19.5 L13,15 C13,14.867 12.947,14.74 12.854,14.646 L6,7.793 L6,7 L12.5,7 C12.776,7 13,6.776 13,6.5 L13,5.5 C13,3.019 15.019,1 17.5,1 L30.5,1 C32.981,1 35,3.019 35,5.5 L35,6.5 C35,6.776 35.224,7 35.5,7 L42,7 L42,7.793 L35.146,14.647 C35.053,14.74 35,14.867 35,15 L35,19.5 C35,19.776 35.224,20 35.5,20 L42,20 L42,20.793 L35.146,27.647 C35.053,27.74 35,27.867 35,28 L35,32.5 C35,32.776 35.224,33 35.5,33 L42,33 L42,33.793 L35.146,40.647 C35.053,40.74 35,40.867 35,41 L35,42.5 C35,44.981 32.981,47 30.5,47 L17.5,47 C15.019,47 13,44.981 13,42.5 L13,41 C13,40.867 12.947,40.74 12.854,40.646 L6,33.793 L6,33 L6,33 Z" id="Shape" fill="#FFFFFF"></path>
                </g>
            </g>
        </g>
    </g>
</svg>