<svg xmlns="http://www.w3.org/2000/svg" width="24" height="24" viewBox="0 0 24 24"><path fill="none" d="M0 0h24v24H0z"/><circle cx="12" cy="7" r="2" fill="#fff" opacity=".3"/><circle cx="12" cy="12" r="2" fill="#fff" opacity=".3"/><circle cx="12" cy="17" r="2" fill="#fff" opacity=".3"/><path fill="#fff" d="M15 23H9a3 3 0 0 1-2.67-1.65L3 17.66V16h3v-1l-3-3.34V10h3V9L3 5.66V4h3a3 3 0 0 1 3-3h6a3 3 0 0 1 3 3h3v1.66L18 9v1h3v1.66L18 15v1h3v1.66l-3.34 3.69A3 3 0 0 1 15 23zM4 17.28l3.19 3.55A2 2 0 0 0 9 22h6a2 2 0 0 0 1.77-1.1l.11-.17L20 17.28V17h-3v-2.4l3-3.32V11h-3V8.6l3-3.32V5h-3V4a2 2 0 0 0-2-2H9a2 2 0 0 0-2 2v1H4v.28L7 8.6V11H4v.28l3 3.32V17H4v.28z"/></svg>