<svg width="36" height="36" viewBox="0 0 36 36" xmlns="http://www.w3.org/2000/svg"><g fill="none" fill-rule="evenodd"><path d="M0 0h36v36H0z"/><path d="M10 31.5c0 1.799 1.735 3.5 3.571 3.5h8.857C24.265 35 26 33.299 26 31.5v-1.773l5.048-4.422V23H26v-2.269l5.048-4.279V14H26v-2.263l5.048-4.136V5h-5.052a4.196 4.196 0 0 0-4.187-4H14.19a4.197 4.197 0 0 0-4.187 4H5v2.599l5 4.136V14H5v2.451l5 4.279V23H5v2.303l5 4.422V31.5zm-4-6.647V24h5v-3.73l-5-4.279V15h5v-3.735L6 7.128V6h5v-.81A3.194 3.194 0 0 1 14.19 2h7.619A3.194 3.194 0 0 1 25 5.19V6h5.048v1.127L25 11.263V15h5.048v.989L25 20.269V24h5.048v.852L25 29.273V31.5c0 1.262-1.273 2.5-2.571 2.5h-8.857C12.298 34 11 32.738 11 31.5v-2.225l-5-4.422z" fill="#0B1F35"/><circle fill="#0B1F35" opacity=".3" cx="18" cy="9" r="3"/><circle fill="#0B1F35" opacity=".3" cx="18" cy="18" r="3"/><circle fill="#0B1F35" opacity=".3" cx="18" cy="27" r="3"/></g></svg>