<?xml version="1.0" encoding="UTF-8"?>
<svg width="36px" height="36px" viewBox="0 0 36 36" version="1.1" xmlns="http://www.w3.org/2000/svg" xmlns:xlink="http://www.w3.org/1999/xlink">
    <!-- Generator: Sketch 48.2 (47327) - http://www.bohemiancoding.com/sketch -->
    <title>icon_category-gibdd-fines_xl_white</title>
    <desc>Created with Sketch.</desc>
    <defs></defs>
    <g id="mobile" stroke="none" stroke-width="1" fill="none" fill-rule="evenodd" transform="translate(-1311.000000, -894.000000)">
        <g id="Headings" transform="translate(64.000000, 77.000000)">
            <g id="icon_category_traffic__fine_l__white" transform="translate(1247.000000, 817.000000)">
                <g id="ungroup">
                    <rect id="Rectangle-path" x="0" y="0" width="36" height="36"></rect>
                    <g id="a1" opacity="0.4"></g>
                    <path d="M10,31.5 C10,33.299 11.735,35 13.571,35 L22.428,35 C24.265,35 26,33.299 26,31.5 L26,29.727 L31.048,25.305 L31.048,23 L26,23 L26,20.731 L31.048,16.452 L31.048,14 L26,14 L26,11.737 L31.048,7.601 L31.048,5 L25.996,5 C25.895,2.777 24.057,1 21.809,1 L14.19,1 C11.943,1 10.104,2.777 10.003,5 L5,5 L5,7.599 L10,11.735 L10,14 L5,14 L5,16.451 L10,20.73 L10,23 L5,23 L5,25.303 L10,29.725 L10,31.5 L10,31.5 Z M6,24.853 L6,24 L11,24 L11,20.27 L6,15.991 L6,15 L11,15 L11,11.265 L6,7.128 L6,6 L11,6 L11,5.19 C11,3.431 12.432,2 14.19,2 L21.809,2 C23.568,2 25,3.431 25,5.19 L25,6 L30.048,6 L30.048,7.127 L25,11.263 L25,15 L30.048,15 L30.048,15.989 L25,20.269 L25,24 L30.048,24 L30.048,24.852 L25,29.273 L25,31.5 C25,32.762 23.727,34 22.429,34 L13.572,34 C12.298,34 11,32.738 11,31.5 L11,29.275 L6,24.853 L6,24.853 Z" id="Shape" fill="#FFFFFF"></path>
                    <circle id="Oval" fill="#FFFFFF" opacity="0.3" cx="18" cy="9" r="3"></circle>
                    <circle id="Oval" fill="#FFFFFF" opacity="0.3" cx="18" cy="18" r="3"></circle>
                    <circle id="Oval" fill="#FFFFFF" opacity="0.3" cx="18" cy="27" r="3"></circle>
                </g>
            </g>
        </g>
    </g>
</svg>