<svg xmlns="http://www.w3.org/2000/svg" width="24" height="24" version="1" viewBox="0 0 24 24"><path fill="#FFF" d="M12 2C6.477 2 2 6.477 2 12s4.477 10 10 10 10-4.477 10-10S17.523 2 12 2zm.004 16.5c-.857 0-1.504-.643-1.504-1.497 0-.858.646-1.503 1.504-1.503.853 0 1.496.646 1.496 1.503 0 .854-.643 1.497-1.496 1.497zm1.773-6.872c-.866.51-1.006.835-1.006 1.415v.707h-1.727v-.895c-.007-.993.445-1.689 1.511-2.327.742-.454.991-.82.991-1.45 0-.737-.579-1.233-1.441-1.233-.906 0-1.465.499-1.532 1.37l-.019.238H8.862l.014-.271c.091-1.781 1.378-2.933 3.278-2.933 1.852 0 3.195 1.163 3.195 2.766.001 1.089-.543 1.992-1.572 2.613z"/></svg>