<svg xmlns="http://www.w3.org/2000/svg" width="30" height="30" version="1" viewBox="0 0 30 30"><path fill="#FFF" d="M15 2C7.82 2 2 7.82 2 15s5.82 13 13 13 13-5.82 13-13S22.18 2 15 2zm.005 20.75c-1 0-1.755-.75-1.755-1.745 0-1 .755-1.755 1.755-1.755.995 0 1.745.755 1.745 1.755 0 .995-.75 1.745-1.745 1.745zm2.415-7.698c-1.065.682-1.245 1.046-1.245 1.791V18H14.01v-1.324c-.01-1.312.561-2.216 1.968-3.115 1.087-.708 1.287-1.184 1.287-1.869 0-.972-.784-1.65-1.905-1.65-1.156 0-1.901.675-1.995 1.805l-.037.458h-2.126l.027-.525C11.346 9.52 13.024 8 15.404 8c2.374 0 4.096 1.531 4.096 3.64 0 1.416-.661 2.5-2.08 3.412z"/></svg>