<svg xmlns="http://www.w3.org/2000/svg" width="36" height="36" version="1" viewBox="0 0 36 36"><path fill="#0B1F35" d="M18 3C9.716 3 3 9.716 3 18c0 8.284 6.716 15 15 15s15-6.716 15-15c0-8.284-6.716-15-15-15zm-.174 24.5c-.965 0-1.75-.785-1.75-1.75 0-.981.769-1.75 1.75-1.75s1.75.769 1.75 1.75-.769 1.75-1.75 1.75zm2.84-9.344c-1.428.915-1.818 1.491-1.818 2.682V22h-2.127v-1.383c-.012-1.581.689-2.685 2.422-3.81 1.395-.927 1.888-1.656 1.888-2.788 0-1.505-1.189-2.556-2.892-2.556-1.718 0-2.871 1.046-3.01 2.73l-.021.267h-2.086l.018-.308c.156-2.782 2.23-4.652 5.156-4.652 2.929 0 5.054 1.871 5.054 4.449 0 1.738-.821 3.073-2.584 4.207z"/></svg>