<svg xmlns="http://www.w3.org/2000/svg" width="18" height="18" version="1" viewBox="0 0 18 18"><path fill="#0B1F35" d="M9 1C4.589 1 1 4.589 1 9s3.589 8 8 8 8-3.589 8-8-3.589-8-8-8zm.004 14c-.886 0-1.504-.614-1.504-1.493C7.5 12.62 8.118 12 9.004 12c.881 0 1.496.62 1.496 1.507 0 .879-.615 1.493-1.496 1.493zm1.762-5.877c-.757.446-.891.696-.891 1.175V11h-1.95l-.011-.8c-.034-.996.378-1.679 1.377-2.277.751-.453.878-.73.878-1.181 0-.533-.434-.877-1.104-.877-.696 0-1.122.372-1.167 1.02l-.017.232-.238.069H5.931l.01-.26C6.012 5.118 7.265 4 9.135 4c1.834 0 3.115 1.104 3.115 2.686 0 1.027-.5 1.847-1.484 2.437z"/></svg>