<svg xmlns="http://www.w3.org/2000/svg" width="36" height="36" version="1" viewBox="0 0 36 36"><path fill="#0B1F35" d="M24.558 34h-17a4.505 4.505 0 0 1-4.5-4.5V10.294L11.292 2h13.266c2.481 0 4.5 2.019 4.5 4.5V12h-1V6.5c0-1.93-1.57-3.5-3.5-3.5h-12.85l-7.65 7.706V29.5c0 1.93 1.57 3.5 3.5 3.5h17c1.93 0 3.5-1.57 3.5-3.5V28h1v1.5c0 2.481-2.019 4.5-4.5 4.5z"/><path fill="#0B1F35" d="M21.437 24.995c-.983 0-1.793-.352-2.407-1.047-.616-.698-.93-1.59-.93-2.651v-1.589c0-1.058.313-1.949.93-2.651.614-.698 1.424-1.053 2.407-1.053 1.02 0 1.861.354 2.499 1.051.64.698.965 1.591.965 2.652v1.589c0 1.061-.325 1.952-.965 2.649-.637.698-1.478 1.05-2.499 1.05zm-.005-8.173c-.767 0-1.388.274-1.846.814-.455.537-.686 1.231-.686 2.064v1.588c0 .841.23 1.539.686 2.076.458.54 1.079.814 1.846.814.812 0 1.468-.272 1.949-.81.478-.535.719-1.235.719-2.08V19.7c0-.834-.242-1.528-.722-2.066-.484-.538-1.138-.812-1.946-.812zm8.906 8.173c-.983 0-1.793-.352-2.407-1.047-.616-.698-.93-1.59-.93-2.651v-1.589c0-1.058.313-1.949.93-2.651.614-.698 1.424-1.053 2.407-1.053 1.021 0 1.861.354 2.499 1.051.46.503.758 1.111.887 1.809H32.9a2.77 2.77 0 0 0-.621-1.231c-.483-.539-1.138-.813-1.946-.813-.767 0-1.388.274-1.846.815-.455.536-.686 1.231-.686 2.063v1.588c0 .841.23 1.539.686 2.075.458.54 1.079.815 1.846.815.812 0 1.468-.272 1.949-.81.298-.334.506-.749.618-1.234h.824a3.59 3.59 0 0 1-.888 1.812c-.636.699-1.478 1.051-2.498 1.051zM9 25v-9h3.051c1.104 0 1.99.362 2.659 1.085.667.723 1.002 1.658 1.002 2.803v1.23c0 1.15-.335 2.084-1.002 2.803-.668.719-1.555 1.079-2.659 1.079H9zm1-8.042v7.084h2c.828 0 1.481-.274 1.96-.821.478-.548.717-1.249.717-2.106v-1.242c0-.848-.239-1.546-.717-2.093-.479-.547-1.132-.822-1.96-.822h-2z"/></svg>