<svg xmlns="http://www.w3.org/2000/svg" width="48" height="48" viewBox="0 0 48 48" fill="none"><rect width="48" height="48" fill="none"/><path d="M41.4889 12.4487V44.5C41.4889 46.1569 40.1457 47.5 38.4889 47.5H10.5C8.84314 47.5 7.5 46.1569 7.5 44.5V3.5C7.5 1.84315 8.84315 0.5 10.5 0.5H30.7927L40.6113 10.3285C41.1732 10.891 41.4889 11.6536 41.4889 12.4487Z" fill="#F3F4F5" stroke="#E7E9EB"/><path fill-rule="evenodd" clip-rule="evenodd" d="M41.9888 14L41.9888 11L30.9999 4.76137e-06L10.4999 4.87655e-06C8.56692 4.70756e-06 6.99991 1.56701 6.99991 3.5L6.99991 14L41.9888 14Z" fill="#4A90E2"/><path d="M11.6836 4.36328V10H13.9023C15.5898 10 16.5469 8.96875 16.5469 7.14453C16.5469 5.375 15.5781 4.36328 13.9023 4.36328H11.6836ZM12.8633 5.33594H13.7148C14.7383 5.33594 15.3438 6 15.3438 7.16406C15.3438 8.37109 14.7578 9.02734 13.7148 9.02734H12.8633V5.33594ZM20.1328 4.21875C18.4727 4.21875 17.418 5.35156 17.418 7.17969C17.418 9.00391 18.457 10.1445 20.1328 10.1445C21.7969 10.1445 22.8438 9.00391 22.8438 7.17969C22.8438 5.35547 21.793 4.21875 20.1328 4.21875ZM20.1328 5.21875C21.0469 5.21875 21.6367 5.98047 21.6367 7.17969C21.6367 8.375 21.0508 9.14453 20.1328 9.14453C19.2031 9.14453 18.625 8.375 18.625 7.17969C18.625 5.98047 19.2148 5.21875 20.1328 5.21875ZM26.3594 10.1445C27.7188 10.1445 28.7109 9.32031 28.8086 8.11719H27.6602C27.5469 8.73828 27.0391 9.13672 26.3633 9.13672C25.4727 9.13672 24.9219 8.38672 24.9219 7.17969C24.9219 5.97266 25.4727 5.22266 26.3594 5.22266C27.0312 5.22266 27.543 5.65234 27.6562 6.30469H28.8047C28.7188 5.09375 27.6953 4.21875 26.3594 4.21875C24.7227 4.21875 23.7148 5.34766 23.7148 7.17969C23.7148 9.01172 24.7266 10.1445 26.3594 10.1445Z" fill="white"/><rect x="11" y="19" width="26" height="2" rx="1" fill="#B6BCC3"/><rect x="11" y="23" width="19" height="2" rx="1" fill="#B6BCC3"/><rect x="11" y="27" width="24" height="2" rx="1" fill="#B6BCC3"/><rect x="11" y="34" width="16" height="2" rx="1" fill="#B6BCC3"/><rect x="11" y="38" width="21" height="2" rx="1" fill="#B6BCC3"/><path opacity="0.6" d="M31 0L42 11H34.5C32.567 11 31 9.433 31 7.5V0Z" fill="white"/></svg>