<svg xmlns="http://www.w3.org/2000/svg" width="24" height="24" version="1" viewBox="0 0 24 24"><path fill="#0B1F35" d="M20 8h-1V4c0-1.103-.897-2-2-2H7.707L3 6.707V7H2v-.707L7.293 1H17c1.654 0 3 1.346 3 3v4zm-3 15H5c-1.654 0-3-1.346-3-3v-1h1v1c0 1.103.897 2 2 2h12c1.103 0 2-.897 2-2v-1h1v1c0 1.654-1.346 3-3 3zm-2-8.888c0 .834-.279 1.525-.837 2.07-.558.545-1.284.818-2.175.818-.886 0-1.605-.273-2.159-.818-.552-.545-.829-1.235-.829-2.07v-1.224c0-.832.276-1.521.827-2.068.551-.547 1.27-.82 2.156-.82.892 0 1.618.273 2.178.82.559.547.839 1.236.839 2.068v1.224zm-1-1.252c0-.544-.18-.989-.538-1.338S12.61 11 11.981 11c-.628 0-1.117.173-1.462.52-.345.347-.519.793-.519 1.34v1.265c0 .553.175 1.003.526 1.352.35.349.837.523 1.462.523.632 0 1.126-.174 1.48-.523s.532-.799.532-1.351V12.86zM2 17v-7h2.071c.883 0 1.592.281 2.127.844S7 12.133 7 13.024v.957c0 .894-.267 1.621-.802 2.18-.534.559-1.243.839-2.127.839H2zm1-6v5h1.095c.589 0 1.055-.193 1.395-.58.34-.386.51-.882.51-1.486v-.876c0-.599-.17-1.091-.51-1.478-.34-.387-.806-.58-1.395-.58H3zm18.969 3.5c-.064.385-.23.712-.5.977-.355.349-.849.523-1.481.523-.624 0-1.111-.174-1.462-.523-.351-.348-.526-.799-.526-1.351V12.86c0-.547.173-.993.519-1.34s.834-.52 1.463-.52c.628 0 1.122.174 1.48.523.276.268.443.594.507.977h.997c-.076-.658-.336-1.222-.805-1.68-.56-.547-1.285-.82-2.178-.82-.885 0-1.604.273-2.156.82-.551.547-.827 1.236-.827 2.068v1.224c0 .834.277 1.525.829 2.07.554.545 1.273.818 2.159.818.891 0 1.617-.273 2.175-.818.468-.457.728-1.022.803-1.682h-.997z"/></svg>