<?xml version="1.0" encoding="UTF-8"?>
<svg width="48px" height="48px" viewBox="0 0 48 48" version="1.1" xmlns="http://www.w3.org/2000/svg" xmlns:xlink="http://www.w3.org/1999/xlink">
    <!-- Generator: Sketch 49.3 (51167) - http://www.bohemiancoding.com/sketch -->
    <title>icon_settings_xxl_white</title>
    <desc>Created with Sketch.</desc>
    <defs>
        <polygon id="path-1" points="24.0002 48 48 48 48 0 24.0002 0 0.0004 0 0.0004 48 24.0002 48"></polygon>
    </defs>
    <g id="Page-1" stroke="none" stroke-width="1" fill="none" fill-rule="evenodd">
        <g id="icon_settings_xxl_white">
            <path d="M24,14 C18.478,14 14,18.478 14,24 C14,29.522 18.478,34 24,34 C29.522,34 34,29.522 34,24 C34,18.478 29.522,14 24,14 M24,16 C28.412,16 32,19.588 32,24 C32,28.412 28.412,32 24,32 C19.588,32 16,28.412 16,24 C16,19.588 19.588,16 24,16" id="Fill-1" fill="#FFFFFF"></path>
            <mask id="mask-2" fill="white">
                <use xlink:href="#path-1"></use>
            </mask>
            <g id="Clip-4"></g>
            <path d="M26.0744,0 L21.9264,0 C20.7944,0 19.8084,0.77 19.5324,1.868 L19.0364,3.854 C18.7464,5.014 17.9204,5.964 16.8124,6.412 C16.7484,6.438 16.6844,6.466 16.6204,6.492 C16.1584,6.686 15.6704,6.78 15.1844,6.78 C14.5204,6.78 13.8604,6.602 13.2764,6.252 L11.7404,5.33 C11.2144,5.014 10.6804,4.866 10.1804,4.866 C9.5364,4.866 8.9464,5.112 8.4964,5.562 L5.5624,8.496 C4.7624,9.296 4.6104,10.538 5.1924,11.51 L6.2504,13.274 C6.8584,14.288 6.9484,15.53 6.4924,16.62 C6.4644,16.684 6.4384,16.748 6.4124,16.812 C5.9624,17.92 5.0124,18.746 3.8524,19.036 L1.8684,19.532 C0.7704,19.808 0.0004,20.794 0.0004,21.926 L0.0004,26.074 C0.0004,27.206 0.7704,28.192 1.8684,28.468 L3.8524,28.964 C5.0124,29.254 5.9624,30.08 6.4124,31.188 C6.4384,31.252 6.4644,31.316 6.4924,31.378 C6.9484,32.47 6.8584,33.712 6.2504,34.726 L5.1924,36.49 C4.6104,37.462 4.7624,38.704 5.5624,39.504 L8.4964,42.438 C8.9724,42.912 9.6024,43.16 10.2404,43.16 C10.6764,43.16 11.1144,43.044 11.5084,42.808 L13.2744,41.75 C13.8604,41.398 14.5204,41.22 15.1864,41.22 C15.6724,41.22 16.1604,41.316 16.6204,41.508 C16.6844,41.534 16.7484,41.562 16.8124,41.588 C17.9204,42.036 18.7464,42.986 19.0364,44.146 L19.5324,46.132 C19.8084,47.23 20.7944,48 21.9264,48 L26.0744,48 C27.2064,48 28.1924,47.23 28.4664,46.132 L28.9644,44.146 C29.2544,42.986 30.0804,42.036 31.1884,41.588 C31.2524,41.562 31.3164,41.534 31.3784,41.508 C31.8404,41.314 32.3284,41.22 32.8144,41.22 C33.4784,41.22 34.1384,41.398 34.7244,41.748 L36.2604,42.67 C36.7864,42.986 37.3184,43.134 37.8184,43.134 C38.4624,43.134 39.0524,42.888 39.5044,42.438 L42.4364,39.504 C43.2384,38.704 43.3904,37.462 42.8084,36.49 L41.7504,34.726 C41.1404,33.712 41.0504,32.47 41.5084,31.378 C41.5344,31.316 41.5604,31.252 41.5864,31.188 C42.0364,30.08 42.9864,29.254 44.1464,28.964 L46.1324,28.468 C47.2304,28.192 48.0004,27.206 48.0004,26.074 L48.0004,21.926 C48.0004,20.794 47.2304,19.808 46.1324,19.532 L44.1464,19.036 C42.9864,18.746 42.0364,17.92 41.5864,16.812 C41.5604,16.748 41.5344,16.684 41.5084,16.62 C41.0504,15.53 41.1404,14.288 41.7504,13.274 L42.8084,11.51 C43.3904,10.538 43.2384,9.296 42.4364,8.496 L39.5044,5.562 C39.0284,5.088 38.3964,4.84 37.7584,4.84 C37.3224,4.84 36.8844,4.956 36.4904,5.192 L34.7264,6.25 C34.1404,6.602 33.4784,6.78 32.8144,6.78 C32.3284,6.78 31.8404,6.684 31.3784,6.492 C31.3144,6.466 31.2524,6.438 31.1884,6.412 C30.0804,5.964 29.2544,5.016 28.9644,3.856 L28.5324,2.128 C28.1924,0.77 27.2064,0 26.0744,0 M26.0744,2 C26.3904,2 26.5344,2.384 26.5924,2.614 L27.0244,4.34 C27.4664,6.112 28.7424,7.578 30.4344,8.266 L30.6064,8.336 C31.3104,8.632 32.0524,8.78 32.8144,8.78 C33.8504,8.78 34.8664,8.498 35.7544,7.966 L37.5204,6.906 C37.5924,6.862 37.6744,6.84 37.7584,6.84 C37.8324,6.84 37.9704,6.858 38.0904,6.976 L41.0224,9.91 C41.1744,10.062 41.2044,10.296 41.0924,10.48 L40.0344,12.244 C39.1024,13.798 38.9644,15.722 39.6644,17.394 L39.7344,17.564 C40.4204,19.258 41.8904,20.534 43.6624,20.976 L45.6464,21.474 C45.8544,21.526 46.0004,21.712 46.0004,21.926 L46.0004,26.074 C46.0004,26.288 45.8544,26.474 45.6464,26.526 L43.6624,27.024 C41.8904,27.466 40.4204,28.742 39.7344,30.434 L39.6644,30.606 C38.9644,32.276 39.1024,34.202 40.0344,35.756 L41.0924,37.52 C41.2044,37.704 41.1744,37.938 41.0224,38.09 L38.0904,41.024 C38.0124,41.1 37.9304,41.134 37.8184,41.134 C37.6684,41.134 37.4804,41.07 37.2904,40.956 L35.7544,40.034 C34.8664,39.5 33.8504,39.218 32.8164,39.218 C32.0544,39.218 31.3104,39.368 30.6064,39.664 L30.4364,39.734 C28.7424,40.422 27.4664,41.89 27.0224,43.662 L26.5264,45.646 C26.4744,45.854 26.2884,46 26.0744,46 L21.9264,46 C21.7104,46 21.5244,45.854 21.4724,45.646 L20.9764,43.662 C20.5344,41.89 19.2584,40.422 17.5664,39.734 L17.3944,39.664 C16.6904,39.368 15.9464,39.22 15.1864,39.22 C14.1504,39.22 13.1344,39.502 12.2444,40.034 L10.4804,41.094 C10.4064,41.138 10.3264,41.16 10.2404,41.16 C10.1684,41.16 10.0304,41.142 9.9104,41.024 L6.9764,38.09 C6.8244,37.938 6.7964,37.704 6.9064,37.52 L7.9664,35.756 C8.8984,34.202 9.0364,32.276 8.3364,30.608 L8.2664,30.436 C7.5784,28.742 6.1104,27.466 4.3384,27.024 L2.3524,26.526 C2.1444,26.474 2.0004,26.288 2.0004,26.074 L2.0004,21.926 C2.0004,21.712 2.1444,21.526 2.3524,21.474 L4.3384,20.976 C6.1104,20.534 7.5784,19.258 8.2664,17.566 L8.3364,17.394 C9.0364,15.722 8.8984,13.798 7.9664,12.244 L6.9064,10.48 C6.7964,10.296 6.8244,10.062 6.9764,9.91 L9.9104,6.976 C9.9884,6.9 10.0684,6.866 10.1804,6.866 C10.3304,6.866 10.5184,6.93 10.7104,7.044 L12.2464,7.966 C13.1344,8.5 14.1504,8.78 15.1844,8.78 C15.9464,8.78 16.6904,8.632 17.3924,8.336 L17.5644,8.266 C19.2584,7.578 20.5344,6.11 20.9764,4.338 L21.4724,2.354 C21.5244,2.146 21.7104,2 21.9264,2 L26.0744,2" id="Fill-3" fill="#FFFFFF" mask="url(#mask-2)"></path>
        </g>
    </g>
</svg>