<svg xmlns="http://www.w3.org/2000/svg" width="36" height="36" viewBox="0 0 36 36" fill="none"><rect width="36" height="36" fill="none"/><g clip-path="url(#clip0)"><path fill-rule="evenodd" clip-rule="evenodd" d="M18 10.5C13.8585 10.5 10.5 13.8585 10.5 18C10.5 22.1415 13.8585 25.5 18 25.5C22.1415 25.5 25.5 22.1415 25.5 18C25.5 13.8585 22.1415 10.5 18 10.5ZM18 12C21.309 12 24 14.691 24 18C24 21.309 21.309 24 18 24C14.691 24 12 21.309 12 18C12 14.691 14.691 12 18 12Z" fill="#0B1F35" fill-opacity="0.3"/><mask id="a" mask-type="alpha" maskUnits="userSpaceOnUse" x="0" y="0" width="36" height="36"><path d="M18.0002 36H36.0001V0H18.0002H0.000366211V36H18.0002Z" fill="white"/></mask><g mask="url(#a)"><path fill-rule="evenodd" clip-rule="evenodd" d="M19.5559 0H16.4449C15.5959 0 14.8564 0.5775 14.6494 1.401L14.2774 2.8905C14.0599 3.7605 13.4404 4.473 12.6094 4.809C12.5614 4.8285 12.5134 4.8495 12.4654 4.869C12.1189 5.0145 11.7529 5.085 11.3884 5.085C10.8904 5.085 10.3954 4.9515 9.95737 4.689L8.80537 3.9975C8.41087 3.7605 8.01037 3.6495 7.63537 3.6495C7.15237 3.6495 6.70987 3.834 6.37237 4.1715L4.17187 6.372C3.57187 6.972 3.45787 7.9035 3.89437 8.6325L4.68787 9.9555C5.14387 10.716 5.21137 11.6475 4.86937 12.465C4.84837 12.513 4.82887 12.561 4.80937 12.609C4.47187 13.44 3.75937 14.0595 2.88937 14.277L1.40137 14.649C0.577866 14.856 0.000366211 15.5955 0.000366211 16.4445V19.5555C0.000366211 20.4045 0.577866 21.144 1.40137 21.351L2.88937 21.723C3.75937 21.9405 4.47187 22.56 4.80937 23.391C4.82887 23.439 4.84837 23.487 4.86937 23.5335C5.21137 24.3525 5.14387 25.284 4.68787 26.0445L3.89437 27.3675C3.45787 28.0965 3.57187 29.028 4.17187 29.628L6.37237 31.8285C6.72937 32.184 7.20187 32.37 7.68037 32.37C8.00737 32.37 8.33587 32.283 8.63136 32.106L9.95587 31.3125C10.3954 31.0485 10.8904 30.915 11.3899 30.915C11.7544 30.915 12.1204 30.987 12.4654 31.131C12.5134 31.1505 12.5614 31.1715 12.6094 31.191C13.4404 31.527 14.0599 32.2395 14.2774 33.1095L14.6494 34.599C14.8564 35.4225 15.5959 36 16.4449 36H19.5559C20.4049 36 21.1444 35.4225 21.3499 34.599L21.7234 33.1095C21.9409 32.2395 22.5604 31.527 23.3914 31.191C23.4394 31.1715 23.4874 31.1505 23.5339 31.131C23.8804 30.9855 24.2464 30.915 24.6109 30.915C25.1089 30.915 25.6039 31.0485 26.0434 31.311L27.1954 32.0025C27.5899 32.2395 27.9889 32.3505 28.3639 32.3505C28.8469 32.3505 29.2894 32.166 29.6284 31.8285L31.8274 29.628C32.4289 29.028 32.5429 28.0965 32.1064 27.3675L31.3129 26.0445C30.8554 25.284 30.7879 24.3525 31.1314 23.5335C31.1509 23.487 31.1704 23.439 31.1899 23.391C31.5274 22.56 32.2399 21.9405 33.1099 21.723L34.5994 21.351C35.4229 21.144 36.0004 20.4045 36.0004 19.5555V16.4445C36.0004 15.5955 35.4229 14.856 34.5994 14.649L33.1099 14.277C32.2399 14.0595 31.5274 13.44 31.1899 12.609C31.1704 12.561 31.1509 12.513 31.1314 12.465C30.7879 11.6475 30.8554 10.716 31.3129 9.9555L32.1064 8.6325C32.5429 7.9035 32.4289 6.972 31.8274 6.372L29.6284 4.1715C29.2714 3.816 28.7974 3.63 28.3189 3.63C27.9919 3.63 27.6634 3.717 27.3679 3.894L26.0449 4.6875C25.6054 4.9515 25.1089 5.085 24.6109 5.085C24.2464 5.085 23.8804 5.013 23.5339 4.869C23.4859 4.8495 23.4394 4.8285 23.3914 4.809C22.5604 4.473 21.9409 3.762 21.7234 2.892L21.3994 1.596C21.1444 0.5775 20.4049 0 19.5559 0ZM19.5559 1.5C19.7929 1.5 19.9009 1.788 19.9444 1.9605L20.2684 3.255C20.5999 4.584 21.5569 5.6835 22.8259 6.1995L22.9549 6.252C23.4829 6.474 24.0394 6.585 24.6109 6.585C25.3879 6.585 26.1499 6.3735 26.8159 5.9745L28.1404 5.1795C28.1944 5.1465 28.2559 5.13 28.3189 5.13C28.3744 5.13 28.4779 5.1435 28.5679 5.232L30.7669 7.4325C30.8809 7.5465 30.9034 7.722 30.8194 7.86L30.0259 9.183C29.3269 10.3485 29.2234 11.7915 29.7484 13.0455L29.8009 13.173C30.3154 14.4435 31.4179 15.4005 32.7469 15.732L34.2349 16.1055C34.3909 16.1445 34.5004 16.284 34.5004 16.4445V19.5555C34.5004 19.716 34.3909 19.8555 34.2349 19.8945L32.7469 20.268C31.4179 20.5995 30.3154 21.5565 29.8009 22.8255L29.7484 22.9545C29.2234 24.207 29.3269 25.6515 30.0259 26.817L30.8194 28.14C30.9034 28.278 30.8809 28.4535 30.7669 28.5675L28.5679 30.768C28.5094 30.825 28.4479 30.8505 28.3639 30.8505C28.2514 30.8505 28.1104 30.8025 27.9679 30.717L26.8159 30.0255C26.1499 29.625 25.3879 29.4135 24.6124 29.4135C24.0409 29.4135 23.4829 29.526 22.9549 29.748L22.8274 29.8005C21.5569 30.3165 20.5999 31.4175 20.2669 32.7465L19.8949 34.2345C19.8559 34.3905 19.7164 34.5 19.5559 34.5H16.4449C16.2829 34.5 16.1434 34.3905 16.1044 34.2345L15.7324 32.7465C15.4009 31.4175 14.4439 30.3165 13.1749 29.8005L13.0459 29.748C12.5179 29.526 11.9599 29.415 11.3899 29.415C10.6129 29.415 9.85087 29.6265 9.18337 30.0255L7.86037 30.8205C7.80487 30.8535 7.74487 30.87 7.68037 30.87C7.62637 30.87 7.52287 30.8565 7.43287 30.768L5.23237 28.5675C5.11837 28.4535 5.09737 28.278 5.17987 28.14L5.97487 26.817C6.67387 25.6515 6.77737 24.207 6.25237 22.956L6.19987 22.827C5.68387 21.5565 4.58287 20.5995 3.25387 20.268L1.76437 19.8945C1.60837 19.8555 1.50037 19.716 1.50037 19.5555V16.4445C1.50037 16.284 1.60837 16.1445 1.76437 16.1055L3.25387 15.732C4.58287 15.4005 5.68387 14.4435 6.19987 13.1745L6.25237 13.0455C6.77737 11.7915 6.67387 10.3485 5.97487 9.183L5.17987 7.86C5.09737 7.722 5.11837 7.5465 5.23237 7.4325L7.43287 5.232C7.49137 5.175 7.55137 5.1495 7.63537 5.1495C7.74787 5.1495 7.88887 5.1975 8.03287 5.283L9.18487 5.9745C9.85087 6.375 10.6129 6.585 11.3884 6.585C11.9599 6.585 12.5179 6.474 13.0444 6.252L13.1734 6.1995C14.4439 5.6835 15.4009 4.5825 15.7324 3.2535L16.1044 1.7655C16.1434 1.6095 16.2829 1.5 16.4449 1.5H19.5559Z" fill="#0B1F35"/></g></g><defs><clipPath id="clip0"><path d="M0 0H36V36H0V0Z" fill="white"/></clipPath></defs></svg>