<?xml version="1.0" encoding="UTF-8"?>
<svg width="40px" height="40px" viewBox="0 0 40 40" version="1.1" xmlns="http://www.w3.org/2000/svg" xmlns:xlink="http://www.w3.org/1999/xlink">
    <!-- Generator: Sketch 49.3 (51167) - http://www.bohemiancoding.com/sketch -->
    <title>icon_settings_xl_white</title>
    <desc>Created with Sketch.</desc>
    <defs>
        <polygon id="path-1" points="20.0001667 40 40 40 40 0 20.0001667 0 0.000333333333 0 0.000333333333 40 20.0001667 40"></polygon>
    </defs>
    <g id="Page-1" stroke="none" stroke-width="1" fill="none" fill-rule="evenodd">
        <g id="icon_settings_xl_white">
            <path d="M20,11.6666667 C15.3983333,11.6666667 11.6666667,15.3983333 11.6666667,20 C11.6666667,24.6016667 15.3983333,28.3333333 20,28.3333333 C24.6016667,28.3333333 28.3333333,24.6016667 28.3333333,20 C28.3333333,15.3983333 24.6016667,11.6666667 20,11.6666667 M20,13.3333333 C23.6766667,13.3333333 26.6666667,16.3233333 26.6666667,20 C26.6666667,23.6766667 23.6766667,26.6666667 20,26.6666667 C16.3233333,26.6666667 13.3333333,23.6766667 13.3333333,20 C13.3333333,16.3233333 16.3233333,13.3333333 20,13.3333333" id="Fill-1" fill="#FFFFFF"></path>
            <mask id="mask-2" fill="white">
                <use xlink:href="#path-1"></use>
            </mask>
            <g id="Clip-4"></g>
            <path d="M21.7286667,0 L18.272,0 C17.3286667,0 16.507,0.641666667 16.277,1.55666667 L15.8636667,3.21166667 C15.622,4.17833333 14.9336667,4.97 14.0103333,5.34333333 C13.957,5.365 13.9036667,5.38833333 13.8503333,5.41 C13.4653333,5.57166667 13.0586667,5.65 12.6536667,5.65 C12.1003333,5.65 11.5503333,5.50166667 11.0636667,5.21 L9.78366667,4.44166667 C9.34533333,4.17833333 8.90033333,4.055 8.48366667,4.055 C7.947,4.055 7.45533333,4.26 7.08033333,4.635 L4.63533333,7.08 C3.96866667,7.74666667 3.842,8.78166667 4.327,9.59166667 L5.20866667,11.0616667 C5.71533333,11.9066667 5.79033333,12.9416667 5.41033333,13.85 C5.387,13.9033333 5.36533333,13.9566667 5.34366667,14.01 C4.96866667,14.9333333 4.177,15.6216667 3.21033333,15.8633333 L1.557,16.2766667 C0.642,16.5066667 0.000333333333,17.3283333 0.000333333333,18.2716667 L0.000333333333,21.7283333 C0.000333333333,22.6716667 0.642,23.4933333 1.557,23.7233333 L3.21033333,24.1366667 C4.177,24.3783333 4.96866667,25.0666667 5.34366667,25.99 C5.36533333,26.0433333 5.387,26.0966667 5.41033333,26.1483333 C5.79033333,27.0583333 5.71533333,28.0933333 5.20866667,28.9383333 L4.327,30.4083333 C3.842,31.2183333 3.96866667,32.2533333 4.63533333,32.92 L7.08033333,35.365 C7.477,35.76 8.002,35.9666667 8.53366667,35.9666667 C8.897,35.9666667 9.262,35.87 9.59033333,35.6733333 L11.062,34.7916667 C11.5503333,34.4983333 12.1003333,34.35 12.6553333,34.35 C13.0603333,34.35 13.467,34.43 13.8503333,34.59 C13.9036667,34.6116667 13.957,34.635 14.0103333,34.6566667 C14.9336667,35.03 15.622,35.8216667 15.8636667,36.7883333 L16.277,38.4433333 C16.507,39.3583333 17.3286667,40 18.272,40 L21.7286667,40 C22.672,40 23.4936667,39.3583333 23.722,38.4433333 L24.137,36.7883333 C24.3786667,35.8216667 25.067,35.03 25.9903333,34.6566667 C26.0436667,34.635 26.097,34.6116667 26.1486667,34.59 C26.5336667,34.4283333 26.9403333,34.35 27.3453333,34.35 C27.8986667,34.35 28.4486667,34.4983333 28.937,34.79 L30.217,35.5583333 C30.6553333,35.8216667 31.0986667,35.945 31.5153333,35.945 C32.052,35.945 32.5436667,35.74 32.9203333,35.365 L35.3636667,32.92 C36.032,32.2533333 36.1586667,31.2183333 35.6736667,30.4083333 L34.792,28.9383333 C34.2836667,28.0933333 34.2086667,27.0583333 34.5903333,26.1483333 C34.612,26.0966667 34.6336667,26.0433333 34.6553333,25.99 C35.0303333,25.0666667 35.822,24.3783333 36.7886667,24.1366667 L38.4436667,23.7233333 C39.3586667,23.4933333 40.0003333,22.6716667 40.0003333,21.7283333 L40.0003333,18.2716667 C40.0003333,17.3283333 39.3586667,16.5066667 38.4436667,16.2766667 L36.7886667,15.8633333 C35.822,15.6216667 35.0303333,14.9333333 34.6553333,14.01 C34.6336667,13.9566667 34.612,13.9033333 34.5903333,13.85 C34.2086667,12.9416667 34.2836667,11.9066667 34.792,11.0616667 L35.6736667,9.59166667 C36.1586667,8.78166667 36.032,7.74666667 35.3636667,7.08 L32.9203333,4.635 C32.5236667,4.24 31.997,4.03333333 31.4653333,4.03333333 C31.102,4.03333333 30.737,4.13 30.4086667,4.32666667 L28.9386667,5.20833333 C28.4503333,5.50166667 27.8986667,5.65 27.3453333,5.65 C26.9403333,5.65 26.5336667,5.57 26.1486667,5.41 C26.0953333,5.38833333 26.0436667,5.365 25.9903333,5.34333333 C25.067,4.97 24.3786667,4.18 24.137,3.21333333 L23.777,1.77333333 C23.4936667,0.641666667 22.672,0 21.7286667,0 M21.7286667,1.66666667 C21.992,1.66666667 22.112,1.98666667 22.1603333,2.17833333 L22.5203333,3.61666667 C22.8886667,5.09333333 23.952,6.315 25.362,6.88833333 L25.5053333,6.94666667 C26.092,7.19333333 26.7103333,7.31666667 27.3453333,7.31666667 C28.2086667,7.31666667 29.0553333,7.08166667 29.7953333,6.63833333 L31.267,5.755 C31.327,5.71833333 31.3953333,5.7 31.4653333,5.7 C31.527,5.7 31.642,5.715 31.742,5.81333333 L34.1853333,8.25833333 C34.312,8.385 34.337,8.58 34.2436667,8.73333333 L33.362,10.2033333 C32.5853333,11.4983333 32.4703333,13.1016667 33.0536667,14.495 L33.112,14.6366667 C33.6836667,16.0483333 34.9086667,17.1116667 36.3853333,17.48 L38.0386667,17.895 C38.212,17.9383333 38.3336667,18.0933333 38.3336667,18.2716667 L38.3336667,21.7283333 C38.3336667,21.9066667 38.212,22.0616667 38.0386667,22.105 L36.3853333,22.52 C34.9086667,22.8883333 33.6836667,23.9516667 33.112,25.3616667 L33.0536667,25.505 C32.4703333,26.8966667 32.5853333,28.5016667 33.362,29.7966667 L34.2436667,31.2666667 C34.337,31.42 34.312,31.615 34.1853333,31.7416667 L31.742,34.1866667 C31.677,34.25 31.6086667,34.2783333 31.5153333,34.2783333 C31.3903333,34.2783333 31.2336667,34.225 31.0753333,34.13 L29.7953333,33.3616667 C29.0553333,32.9166667 28.2086667,32.6816667 27.347,32.6816667 C26.712,32.6816667 26.092,32.8066667 25.5053333,33.0533333 L25.3636667,33.1116667 C23.952,33.685 22.8886667,34.9083333 22.5186667,36.385 L22.1053333,38.0383333 C22.062,38.2116667 21.907,38.3333333 21.7286667,38.3333333 L18.272,38.3333333 C18.092,38.3333333 17.937,38.2116667 17.8936667,38.0383333 L17.4803333,36.385 C17.112,34.9083333 16.0486667,33.685 14.6386667,33.1116667 L14.4953333,33.0533333 C13.9086667,32.8066667 13.2886667,32.6833333 12.6553333,32.6833333 C11.792,32.6833333 10.9453333,32.9183333 10.2036667,33.3616667 L8.73366667,34.245 C8.672,34.2816667 8.60533333,34.3 8.53366667,34.3 C8.47366667,34.3 8.35866667,34.285 8.25866667,34.1866667 L5.81366667,31.7416667 C5.687,31.615 5.66366667,31.42 5.75533333,31.2666667 L6.63866667,29.7966667 C7.41533333,28.5016667 7.53033333,26.8966667 6.947,25.5066667 L6.88866667,25.3633333 C6.31533333,23.9516667 5.092,22.8883333 3.61533333,22.52 L1.96033333,22.105 C1.787,22.0616667 1.667,21.9066667 1.667,21.7283333 L1.667,18.2716667 C1.667,18.0933333 1.787,17.9383333 1.96033333,17.895 L3.61533333,17.48 C5.092,17.1116667 6.31533333,16.0483333 6.88866667,14.6383333 L6.947,14.495 C7.53033333,13.1016667 7.41533333,11.4983333 6.63866667,10.2033333 L5.75533333,8.73333333 C5.66366667,8.58 5.687,8.385 5.81366667,8.25833333 L8.25866667,5.81333333 C8.32366667,5.75 8.39033333,5.72166667 8.48366667,5.72166667 C8.60866667,5.72166667 8.76533333,5.775 8.92533333,5.87 L10.2053333,6.63833333 C10.9453333,7.08333333 11.792,7.31666667 12.6536667,7.31666667 C13.2886667,7.31666667 13.9086667,7.19333333 14.4936667,6.94666667 L14.637,6.88833333 C16.0486667,6.315 17.112,5.09166667 17.4803333,3.615 L17.8936667,1.96166667 C17.937,1.78833333 18.092,1.66666667 18.272,1.66666667 L21.7286667,1.66666667" id="Fill-3" fill="#FFFFFF" mask="url(#mask-2)"></path>
        </g>
    </g>
</svg>