<svg xmlns="http://www.w3.org/2000/svg" width="30" height="30" viewBox="0 0 30 30" fill="none"><rect width="30" height="30" fill="none"/><g clip-path="url(#clip0)"><path fill-rule="evenodd" clip-rule="evenodd" d="M15 8.75C11.5487 8.75 8.75 11.5487 8.75 15C8.75 18.4513 11.5487 21.25 15 21.25C18.4513 21.25 21.25 18.4513 21.25 15C21.25 11.5487 18.4513 8.75 15 8.75ZM15 10C17.7575 10 20 12.2425 20 15C20 17.7575 17.7575 20 15 20C12.2425 20 10 17.7575 10 15C10 12.2425 12.2425 10 15 10Z" fill="#0B1F35" fill-opacity="0.3"/><mask id="a" mask-type="alpha" maskUnits="userSpaceOnUse" x="0" y="0" width="30" height="30"><path d="M15.0001 30H30V0H15.0001H0.000244141V30H15.0001Z" fill="white"/></mask><g mask="url(#a)"><path fill-rule="evenodd" clip-rule="evenodd" d="M16.2965 0H13.704C12.9965 0 12.3802 0.48125 12.2077 1.1675L11.8977 2.40875C11.7165 3.13375 11.2002 3.7275 10.5077 4.0075C10.4677 4.02375 10.4277 4.04125 10.3877 4.0575C10.099 4.17875 9.79399 4.2375 9.49024 4.2375C9.07524 4.2375 8.66274 4.12625 8.29774 3.9075L7.33774 3.33125C7.00899 3.13375 6.67524 3.04125 6.36274 3.04125C5.96024 3.04125 5.59149 3.195 5.31024 3.47625L3.47649 5.31C2.97649 5.81 2.88149 6.58625 3.24524 7.19375L3.90649 8.29625C4.28649 8.93 4.34274 9.70625 4.05774 10.3875C4.04024 10.4275 4.02399 10.4675 4.00774 10.5075C3.72649 11.2 3.13274 11.7163 2.40774 11.8975L1.16774 12.2075C0.481494 12.38 0.000244141 12.9963 0.000244141 13.7037V16.2962C0.000244141 17.0037 0.481494 17.62 1.16774 17.7925L2.40774 18.1025C3.13274 18.2838 3.72649 18.8 4.00774 19.4925C4.02399 19.5325 4.04024 19.5725 4.05774 19.6112C4.34274 20.2938 4.28649 21.07 3.90649 21.7038L3.24524 22.8062C2.88149 23.4137 2.97649 24.19 3.47649 24.69L5.31024 26.5238C5.60774 26.82 6.00149 26.975 6.40024 26.975C6.67274 26.975 6.94649 26.9025 7.19274 26.755L8.29649 26.0938C8.66274 25.8738 9.07524 25.7625 9.49149 25.7625C9.79524 25.7625 10.1002 25.8225 10.3877 25.9425C10.4277 25.9587 10.4677 25.9762 10.5077 25.9925C11.2002 26.2725 11.7165 26.8662 11.8977 27.5912L12.2077 28.8325C12.3802 29.5188 12.9965 30 13.704 30H16.2965C17.004 30 17.6202 29.5188 17.7915 28.8325L18.1027 27.5912C18.284 26.8662 18.8002 26.2725 19.4927 25.9925C19.5327 25.9762 19.5727 25.9587 19.6115 25.9425C19.9002 25.8212 20.2052 25.7625 20.509 25.7625C20.924 25.7625 21.3365 25.8738 21.7027 26.0925L22.6627 26.6688C22.9915 26.8663 23.324 26.9587 23.6365 26.9587C24.039 26.9587 24.4077 26.805 24.6902 26.5238L26.5227 24.69C27.024 24.19 27.119 23.4137 26.7552 22.8062L26.094 21.7038C25.7127 21.07 25.6565 20.2938 25.9427 19.6112C25.959 19.5725 25.9752 19.5325 25.9915 19.4925C26.2727 18.8 26.8665 18.2838 27.5915 18.1025L28.8327 17.7925C29.519 17.62 30.0002 17.0037 30.0002 16.2962V13.7037C30.0002 12.9963 29.519 12.38 28.8327 12.2075L27.5915 11.8975C26.8665 11.7163 26.2727 11.2 25.9915 10.5075C25.9752 10.4675 25.959 10.4275 25.9427 10.3875C25.6565 9.70625 25.7127 8.93 26.094 8.29625L26.7552 7.19375C27.119 6.58625 27.024 5.81 26.5227 5.31L24.6902 3.47625C24.3927 3.18 23.9977 3.025 23.599 3.025C23.3265 3.025 23.0527 3.0975 22.8065 3.245L21.704 3.90625C21.3377 4.12625 20.924 4.2375 20.509 4.2375C20.2052 4.2375 19.9002 4.1775 19.6115 4.0575C19.5715 4.04125 19.5327 4.02375 19.4927 4.0075C18.8002 3.7275 18.284 3.135 18.1027 2.41L17.8327 1.33C17.6202 0.48125 17.004 0 16.2965 0ZM16.2965 1.25C16.494 1.25 16.584 1.49 16.6202 1.63375L16.8902 2.7125C17.1665 3.82 17.964 4.73625 19.0215 5.16625L19.129 5.21C19.569 5.395 20.0327 5.4875 20.509 5.4875C21.1565 5.4875 21.7915 5.31125 22.3465 4.97875L23.4502 4.31625C23.4952 4.28875 23.5465 4.275 23.599 4.275C23.6452 4.275 23.7315 4.28625 23.8065 4.36L25.639 6.19375C25.734 6.28875 25.7527 6.435 25.6827 6.55L25.0215 7.6525C24.439 8.62375 24.3527 9.82625 24.7902 10.8713L24.834 10.9775C25.2627 12.0363 26.1815 12.8337 27.289 13.11L28.529 13.4213C28.659 13.4538 28.7502 13.57 28.7502 13.7037V16.2962C28.7502 16.43 28.659 16.5463 28.529 16.5788L27.289 16.89C26.1815 17.1663 25.2627 17.9637 24.834 19.0212L24.7902 19.1287C24.3527 20.1725 24.439 21.3762 25.0215 22.3475L25.6827 23.45C25.7527 23.565 25.734 23.7113 25.639 23.8062L23.8065 25.64C23.7577 25.6875 23.7065 25.7087 23.6365 25.7087C23.5427 25.7087 23.4252 25.6688 23.3065 25.5975L22.3465 25.0212C21.7915 24.6875 21.1565 24.5112 20.5102 24.5112C20.034 24.5112 19.569 24.605 19.129 24.79L19.0227 24.8337C17.964 25.2638 17.1665 26.1812 16.889 27.2887L16.579 28.5287C16.5465 28.6587 16.4302 28.75 16.2965 28.75H13.704C13.569 28.75 13.4527 28.6587 13.4202 28.5287L13.1102 27.2887C12.834 26.1812 12.0365 25.2638 10.979 24.8337L10.8715 24.79C10.4315 24.605 9.96649 24.5125 9.49149 24.5125C8.84399 24.5125 8.20899 24.6887 7.65274 25.0212L6.55024 25.6838C6.50399 25.7113 6.45399 25.725 6.40024 25.725C6.35524 25.725 6.26899 25.7137 6.19399 25.64L4.36024 23.8062C4.26524 23.7113 4.24774 23.565 4.31649 23.45L4.97899 22.3475C5.56149 21.3762 5.64774 20.1725 5.21024 19.13L5.16649 19.0225C4.73649 17.9637 3.81899 17.1663 2.71149 16.89L1.47024 16.5788C1.34024 16.5463 1.25024 16.43 1.25024 16.2962V13.7037C1.25024 13.57 1.34024 13.4538 1.47024 13.4213L2.71149 13.11C3.81899 12.8337 4.73649 12.0363 5.16649 10.9788L5.21024 10.8713C5.64774 9.82625 5.56149 8.62375 4.97899 7.6525L4.31649 6.55C4.24774 6.435 4.26524 6.28875 4.36024 6.19375L6.19399 4.36C6.24274 4.3125 6.29274 4.29125 6.36274 4.29125C6.45649 4.29125 6.57399 4.33125 6.69399 4.4025L7.65399 4.97875C8.20899 5.3125 8.84399 5.4875 9.49024 5.4875C9.96649 5.4875 10.4315 5.395 10.8702 5.21L10.9777 5.16625C12.0365 4.73625 12.834 3.81875 13.1102 2.71125L13.4202 1.47125C13.4527 1.34125 13.569 1.25 13.704 1.25H16.2965Z" fill="#0B1F35"/></g></g><defs><clipPath id="clip0"><path d="M0 0H30V30H0V0Z" fill="white"/></clipPath></defs></svg>