<?xml version="1.0" encoding="UTF-8"?>
<svg width="18px" height="18px" viewBox="0 0 18 18" version="1.1" xmlns="http://www.w3.org/2000/svg" xmlns:xlink="http://www.w3.org/1999/xlink">
    <!-- Generator: Sketch 49.3 (51167) - http://www.bohemiancoding.com/sketch -->
    <title>icon_settings_s_black</title>
    <desc>Created with Sketch.</desc>
    <defs>
        <polygon id="path-1" points="9.000075 18 18 18 18 0 9.000075 0 0.00015 0 0.00015 18 9.000075 18"></polygon>
    </defs>
    <g id="Page-1" stroke="none" stroke-width="1" fill="none" fill-rule="evenodd">
        <g id="icon_settings_s_black">
            <path d="M9,5.25 C6.92925,5.25 5.25,6.92925 5.25,9 C5.25,11.07075 6.92925,12.75 9,12.75 C11.07075,12.75 12.75,11.07075 12.75,9 C12.75,6.92925 11.07075,5.25 9,5.25 M9,6 C10.6545,6 12,7.3455 12,9 C12,10.6545 10.6545,12 9,12 C7.3455,12 6,10.6545 6,9 C6,7.3455 7.3455,6 9,6" id="Fill-1" fill-opacity="0.3" fill="#0B1F35"></path>
            <mask id="mask-2" fill="white">
                <use xlink:href="#path-1"></use>
            </mask>
            <g id="Clip-4"></g>
            <path d="M9.7779,0 L8.2224,0 C7.7979,0 7.42815,0.28875 7.32465,0.7005 L7.13865,1.44525 C7.0299,1.88025 6.72015,2.2365 6.30465,2.4045 C6.28065,2.41425 6.25665,2.42475 6.23265,2.4345 C6.0594,2.50725 5.8764,2.5425 5.69415,2.5425 C5.44515,2.5425 5.19765,2.47575 4.97865,2.3445 L4.40265,1.99875 C4.2054,1.88025 4.00515,1.82475 3.81765,1.82475 C3.57615,1.82475 3.3549,1.917 3.18615,2.08575 L2.0859,3.186 C1.7859,3.486 1.7289,3.95175 1.94715,4.31625 L2.3439,4.97775 C2.5719,5.358 2.60565,5.82375 2.43465,6.2325 C2.42415,6.2565 2.4144,6.2805 2.40465,6.3045 C2.2359,6.72 1.87965,7.02975 1.44465,7.1385 L0.70065,7.3245 C0.2889,7.428 0.00015,7.79775 0.00015,8.22225 L0.00015,9.77775 C0.00015,10.20225 0.2889,10.572 0.70065,10.6755 L1.44465,10.8615 C1.87965,10.97025 2.2359,11.28 2.40465,11.6955 C2.4144,11.7195 2.42415,11.7435 2.43465,11.76675 C2.60565,12.17625 2.5719,12.642 2.3439,13.02225 L1.94715,13.68375 C1.7289,14.04825 1.7859,14.514 2.0859,14.814 L3.18615,15.91425 C3.36465,16.092 3.6009,16.185 3.84015,16.185 C4.00365,16.185 4.1679,16.1415 4.31565,16.053 L4.9779,15.65625 C5.19765,15.52425 5.44515,15.4575 5.6949,15.4575 C5.87715,15.4575 6.06015,15.4935 6.23265,15.5655 C6.25665,15.57525 6.28065,15.58575 6.30465,15.5955 C6.72015,15.7635 7.0299,16.11975 7.13865,16.55475 L7.32465,17.2995 C7.42815,17.71125 7.7979,18 8.2224,18 L9.7779,18 C10.2024,18 10.57215,17.71125 10.6749,17.2995 L10.86165,16.55475 C10.9704,16.11975 11.28015,15.7635 11.69565,15.5955 C11.71965,15.58575 11.74365,15.57525 11.7669,15.5655 C11.94015,15.49275 12.12315,15.4575 12.3054,15.4575 C12.5544,15.4575 12.8019,15.52425 13.02165,15.6555 L13.59765,16.00125 C13.7949,16.11975 13.9944,16.17525 14.1819,16.17525 C14.4234,16.17525 14.64465,16.083 14.81415,15.91425 L15.91365,14.814 C16.2144,14.514 16.2714,14.04825 16.05315,13.68375 L15.6564,13.02225 C15.42765,12.642 15.3939,12.17625 15.56565,11.76675 C15.5754,11.7435 15.58515,11.7195 15.5949,11.6955 C15.76365,11.28 16.1199,10.97025 16.5549,10.8615 L17.29965,10.6755 C17.7114,10.572 18.00015,10.20225 18.00015,9.77775 L18.00015,8.22225 C18.00015,7.79775 17.7114,7.428 17.29965,7.3245 L16.5549,7.1385 C16.1199,7.02975 15.76365,6.72 15.5949,6.3045 C15.58515,6.2805 15.5754,6.2565 15.56565,6.2325 C15.3939,5.82375 15.42765,5.358 15.6564,4.97775 L16.05315,4.31625 C16.2714,3.95175 16.2144,3.486 15.91365,3.186 L14.81415,2.08575 C14.63565,1.908 14.39865,1.815 14.1594,1.815 C13.9959,1.815 13.83165,1.8585 13.6839,1.947 L13.0224,2.34375 C12.80265,2.47575 12.5544,2.5425 12.3054,2.5425 C12.12315,2.5425 11.94015,2.5065 11.7669,2.4345 C11.7429,2.42475 11.71965,2.41425 11.69565,2.4045 C11.28015,2.2365 10.9704,1.881 10.86165,1.446 L10.69965,0.798 C10.57215,0.28875 10.2024,0 9.7779,0 M9.7779,0.75 C9.8964,0.75 9.9504,0.894 9.97215,0.98025 L10.13415,1.6275 C10.2999,2.292 10.7784,2.84175 11.4129,3.09975 L11.4774,3.126 C11.7414,3.237 12.01965,3.2925 12.3054,3.2925 C12.6939,3.2925 13.0749,3.18675 13.4079,2.98725 L14.07015,2.58975 C14.09715,2.57325 14.1279,2.565 14.1594,2.565 C14.18715,2.565 14.2389,2.57175 14.2839,2.616 L15.3834,3.71625 C15.4404,3.77325 15.45165,3.861 15.40965,3.93 L15.0129,4.5915 C14.6634,5.17425 14.61165,5.89575 14.87415,6.52275 L14.9004,6.5865 C15.15765,7.22175 15.7089,7.70025 16.3734,7.866 L17.1174,8.05275 C17.1954,8.07225 17.25015,8.142 17.25015,8.22225 L17.25015,9.77775 C17.25015,9.858 17.1954,9.92775 17.1174,9.94725 L16.3734,10.134 C15.7089,10.29975 15.15765,10.77825 14.9004,11.41275 L14.87415,11.47725 C14.61165,12.1035 14.6634,12.82575 15.0129,13.4085 L15.40965,14.07 C15.45165,14.139 15.4404,14.22675 15.3834,14.28375 L14.2839,15.384 C14.25465,15.4125 14.2239,15.42525 14.1819,15.42525 C14.12565,15.42525 14.05515,15.40125 13.9839,15.3585 L13.4079,15.01275 C13.0749,14.8125 12.6939,14.70675 12.30615,14.70675 C12.0204,14.70675 11.7414,14.763 11.4774,14.874 L11.41365,14.90025 C10.7784,15.15825 10.2999,15.70875 10.1334,16.37325 L9.9474,17.11725 C9.9279,17.19525 9.85815,17.25 9.7779,17.25 L8.2224,17.25 C8.1414,17.25 8.07165,17.19525 8.05215,17.11725 L7.86615,16.37325 C7.7004,15.70875 7.2219,15.15825 6.5874,14.90025 L6.5229,14.874 C6.2589,14.763 5.9799,14.7075 5.6949,14.7075 C5.3064,14.7075 4.9254,14.81325 4.59165,15.01275 L3.93015,15.41025 C3.9024,15.42675 3.8724,15.435 3.84015,15.435 C3.81315,15.435 3.7614,15.42825 3.7164,15.384 L2.61615,14.28375 C2.55915,14.22675 2.54865,14.139 2.5899,14.07 L2.9874,13.4085 C3.3369,12.82575 3.38865,12.1035 3.12615,11.478 L3.0999,11.4135 C2.8419,10.77825 2.2914,10.29975 1.6269,10.134 L0.88215,9.94725 C0.80415,9.92775 0.75015,9.858 0.75015,9.77775 L0.75015,8.22225 C0.75015,8.142 0.80415,8.07225 0.88215,8.05275 L1.6269,7.866 C2.2914,7.70025 2.8419,7.22175 3.0999,6.58725 L3.12615,6.52275 C3.38865,5.89575 3.3369,5.17425 2.9874,4.5915 L2.5899,3.93 C2.54865,3.861 2.55915,3.77325 2.61615,3.71625 L3.7164,2.616 C3.74565,2.5875 3.77565,2.57475 3.81765,2.57475 C3.8739,2.57475 3.9444,2.59875 4.0164,2.6415 L4.5924,2.98725 C4.9254,3.1875 5.3064,3.2925 5.69415,3.2925 C5.9799,3.2925 6.2589,3.237 6.52215,3.126 L6.58665,3.09975 C7.2219,2.84175 7.7004,2.29125 7.86615,1.62675 L8.05215,0.88275 C8.07165,0.80475 8.1414,0.75 8.2224,0.75 L9.7779,0.75" id="Fill-3" fill="#0B1F35" mask="url(#mask-2)"></path>
        </g>
    </g>
</svg>