<?xml version="1.0" encoding="UTF-8"?>
<svg width="30px" height="30px" viewBox="0 0 30 30" version="1.1" xmlns="http://www.w3.org/2000/svg" xmlns:xlink="http://www.w3.org/1999/xlink">
    <!-- Generator: Sketch 49.3 (51167) - http://www.bohemiancoding.com/sketch -->
    <title>icon_settings_l_black</title>
    <desc>Created with Sketch.</desc>
    <defs>
        <polygon id="path-1" points="15.000125 30 30 30 30 0 15.000125 0 0.00025 0 0.00025 30 15.000125 30"></polygon>
    </defs>
    <g id="Page-1" stroke="none" stroke-width="1" fill="none" fill-rule="evenodd">
        <g id="icon_settings_l_black">
            <path d="M15,8.75 C11.54875,8.75 8.75,11.54875 8.75,15 C8.75,18.45125 11.54875,21.25 15,21.25 C18.45125,21.25 21.25,18.45125 21.25,15 C21.25,11.54875 18.45125,8.75 15,8.75 M15,10 C17.7575,10 20,12.2425 20,15 C20,17.7575 17.7575,20 15,20 C12.2425,20 10,17.7575 10,15 C10,12.2425 12.2425,10 15,10" id="Fill-1" fill-opacity="0.3" fill="#0B1F35"></path>
            <mask id="mask-2" fill="white">
                <use xlink:href="#path-1"></use>
            </mask>
            <g id="Clip-4"></g>
            <path d="M16.2965,0 L13.704,0 C12.9965,0 12.38025,0.48125 12.20775,1.1675 L11.89775,2.40875 C11.7165,3.13375 11.20025,3.7275 10.50775,4.0075 C10.46775,4.02375 10.42775,4.04125 10.38775,4.0575 C10.099,4.17875 9.794,4.2375 9.49025,4.2375 C9.07525,4.2375 8.66275,4.12625 8.29775,3.9075 L7.33775,3.33125 C7.009,3.13375 6.67525,3.04125 6.36275,3.04125 C5.96025,3.04125 5.5915,3.195 5.31025,3.47625 L3.4765,5.31 C2.9765,5.81 2.8815,6.58625 3.24525,7.19375 L3.9065,8.29625 C4.2865,8.93 4.34275,9.70625 4.05775,10.3875 C4.04025,10.4275 4.024,10.4675 4.00775,10.5075 C3.7265,11.2 3.13275,11.71625 2.40775,11.8975 L1.16775,12.2075 C0.4815,12.38 0.00025,12.99625 0.00025,13.70375 L0.00025,16.29625 C0.00025,17.00375 0.4815,17.62 1.16775,17.7925 L2.40775,18.1025 C3.13275,18.28375 3.7265,18.8 4.00775,19.4925 C4.024,19.5325 4.04025,19.5725 4.05775,19.61125 C4.34275,20.29375 4.2865,21.07 3.9065,21.70375 L3.24525,22.80625 C2.8815,23.41375 2.9765,24.19 3.4765,24.69 L5.31025,26.52375 C5.60775,26.82 6.0015,26.975 6.40025,26.975 C6.67275,26.975 6.9465,26.9025 7.19275,26.755 L8.2965,26.09375 C8.66275,25.87375 9.07525,25.7625 9.4915,25.7625 C9.79525,25.7625 10.10025,25.8225 10.38775,25.9425 C10.42775,25.95875 10.46775,25.97625 10.50775,25.9925 C11.20025,26.2725 11.7165,26.86625 11.89775,27.59125 L12.20775,28.8325 C12.38025,29.51875 12.9965,30 13.704,30 L16.2965,30 C17.004,30 17.62025,29.51875 17.7915,28.8325 L18.10275,27.59125 C18.284,26.86625 18.80025,26.2725 19.49275,25.9925 C19.53275,25.97625 19.57275,25.95875 19.6115,25.9425 C19.90025,25.82125 20.20525,25.7625 20.509,25.7625 C20.924,25.7625 21.3365,25.87375 21.70275,26.0925 L22.66275,26.66875 C22.9915,26.86625 23.324,26.95875 23.6365,26.95875 C24.039,26.95875 24.40775,26.805 24.69025,26.52375 L26.52275,24.69 C27.024,24.19 27.119,23.41375 26.75525,22.80625 L26.094,21.70375 C25.71275,21.07 25.6565,20.29375 25.94275,19.61125 C25.959,19.5725 25.97525,19.5325 25.9915,19.4925 C26.27275,18.8 26.8665,18.28375 27.5915,18.1025 L28.83275,17.7925 C29.519,17.62 30.00025,17.00375 30.00025,16.29625 L30.00025,13.70375 C30.00025,12.99625 29.519,12.38 28.83275,12.2075 L27.5915,11.8975 C26.8665,11.71625 26.27275,11.2 25.9915,10.5075 C25.97525,10.4675 25.959,10.4275 25.94275,10.3875 C25.6565,9.70625 25.71275,8.93 26.094,8.29625 L26.75525,7.19375 C27.119,6.58625 27.024,5.81 26.52275,5.31 L24.69025,3.47625 C24.39275,3.18 23.99775,3.025 23.599,3.025 C23.3265,3.025 23.05275,3.0975 22.8065,3.245 L21.704,3.90625 C21.33775,4.12625 20.924,4.2375 20.509,4.2375 C20.20525,4.2375 19.90025,4.1775 19.6115,4.0575 C19.5715,4.04125 19.53275,4.02375 19.49275,4.0075 C18.80025,3.7275 18.284,3.135 18.10275,2.41 L17.83275,1.33 C17.62025,0.48125 17.004,0 16.2965,0 M16.2965,1.25 C16.494,1.25 16.584,1.49 16.62025,1.63375 L16.89025,2.7125 C17.1665,3.82 17.964,4.73625 19.0215,5.16625 L19.129,5.21 C19.569,5.395 20.03275,5.4875 20.509,5.4875 C21.1565,5.4875 21.7915,5.31125 22.3465,4.97875 L23.45025,4.31625 C23.49525,4.28875 23.5465,4.275 23.599,4.275 C23.64525,4.275 23.7315,4.28625 23.8065,4.36 L25.639,6.19375 C25.734,6.28875 25.75275,6.435 25.68275,6.55 L25.0215,7.6525 C24.439,8.62375 24.35275,9.82625 24.79025,10.87125 L24.834,10.9775 C25.26275,12.03625 26.1815,12.83375 27.289,13.11 L28.529,13.42125 C28.659,13.45375 28.75025,13.57 28.75025,13.70375 L28.75025,16.29625 C28.75025,16.43 28.659,16.54625 28.529,16.57875 L27.289,16.89 C26.1815,17.16625 25.26275,17.96375 24.834,19.02125 L24.79025,19.12875 C24.35275,20.1725 24.439,21.37625 25.0215,22.3475 L25.68275,23.45 C25.75275,23.565 25.734,23.71125 25.639,23.80625 L23.8065,25.64 C23.75775,25.6875 23.7065,25.70875 23.6365,25.70875 C23.54275,25.70875 23.42525,25.66875 23.3065,25.5975 L22.3465,25.02125 C21.7915,24.6875 21.1565,24.51125 20.51025,24.51125 C20.034,24.51125 19.569,24.605 19.129,24.79 L19.02275,24.83375 C17.964,25.26375 17.1665,26.18125 16.889,27.28875 L16.579,28.52875 C16.5465,28.65875 16.43025,28.75 16.2965,28.75 L13.704,28.75 C13.569,28.75 13.45275,28.65875 13.42025,28.52875 L13.11025,27.28875 C12.834,26.18125 12.0365,25.26375 10.979,24.83375 L10.8715,24.79 C10.4315,24.605 9.9665,24.5125 9.4915,24.5125 C8.844,24.5125 8.209,24.68875 7.65275,25.02125 L6.55025,25.68375 C6.504,25.71125 6.454,25.725 6.40025,25.725 C6.35525,25.725 6.269,25.71375 6.194,25.64 L4.36025,23.80625 C4.26525,23.71125 4.24775,23.565 4.3165,23.45 L4.979,22.3475 C5.5615,21.37625 5.64775,20.1725 5.21025,19.13 L5.1665,19.0225 C4.7365,17.96375 3.819,17.16625 2.7115,16.89 L1.47025,16.57875 C1.34025,16.54625 1.25025,16.43 1.25025,16.29625 L1.25025,13.70375 C1.25025,13.57 1.34025,13.45375 1.47025,13.42125 L2.7115,13.11 C3.819,12.83375 4.7365,12.03625 5.1665,10.97875 L5.21025,10.87125 C5.64775,9.82625 5.5615,8.62375 4.979,7.6525 L4.3165,6.55 C4.24775,6.435 4.26525,6.28875 4.36025,6.19375 L6.194,4.36 C6.24275,4.3125 6.29275,4.29125 6.36275,4.29125 C6.4565,4.29125 6.574,4.33125 6.694,4.4025 L7.654,4.97875 C8.209,5.3125 8.844,5.4875 9.49025,5.4875 C9.9665,5.4875 10.4315,5.395 10.87025,5.21 L10.97775,5.16625 C12.0365,4.73625 12.834,3.81875 13.11025,2.71125 L13.42025,1.47125 C13.45275,1.34125 13.569,1.25 13.704,1.25 L16.2965,1.25" id="Fill-3" fill="#0B1F35" mask="url(#mask-2)"></path>
        </g>
    </g>
</svg>