<svg xmlns="http://www.w3.org/2000/svg" width="24" height="24" viewBox="0 0 24 24" fill="none"><rect width="24" height="24" fill="none"/><path fill-rule="evenodd" clip-rule="evenodd" d="M12 7C9.239 7 7 9.239 7 12C7 14.761 9.239 17 12 17C14.761 17 17 14.761 17 12C17 9.239 14.761 7 12 7ZM12 8C14.206 8 16 9.794 16 12C16 14.206 14.206 16 12 16C9.794 16 8 14.206 8 12C8 9.794 9.794 8 12 8Z" fill="white"/><mask id="a" mask-type="alpha" maskUnits="userSpaceOnUse" x="0" y="0" width="24" height="24"><path d="M24 24V0H12.0001H0.000244141V24H12.0001H24Z" fill="white"/></mask><g mask="url(#a)"><path fill-rule="evenodd" clip-rule="evenodd" d="M13.0372 0H10.9632C10.3972 0 9.90424 0.385 9.76624 0.934L9.51824 1.927C9.37324 2.507 8.96024 2.982 8.40624 3.206C8.37424 3.219 8.34224 3.233 8.31024 3.246C8.07924 3.343 7.83524 3.39 7.59224 3.39C7.26024 3.39 6.93024 3.301 6.63824 3.126L5.87024 2.665C5.60724 2.507 5.34024 2.433 5.09024 2.433C4.76824 2.433 4.47324 2.556 4.24824 2.781L2.78124 4.248C2.38124 4.648 2.30524 5.269 2.59624 5.755L3.12524 6.637C3.42924 7.144 3.47424 7.765 3.24624 8.31C3.23224 8.342 3.21924 8.374 3.20624 8.406C2.98124 8.96 2.50624 9.373 1.92624 9.518L0.934244 9.766C0.385244 9.904 0.000244141 10.397 0.000244141 10.963V13.037C0.000244141 13.603 0.385244 14.096 0.934244 14.234L1.92624 14.482C2.50624 14.627 2.98124 15.04 3.20624 15.594C3.21924 15.626 3.23224 15.658 3.24624 15.689C3.47424 16.235 3.42924 16.856 3.12524 17.363L2.59624 18.245C2.30524 18.731 2.38124 19.352 2.78124 19.752L4.24824 21.219C4.48624 21.456 4.80124 21.58 5.12024 21.58C5.33824 21.58 5.55724 21.522 5.75424 21.404L6.63724 20.875C6.93024 20.699 7.26024 20.61 7.59324 20.61C7.83624 20.61 8.08024 20.658 8.31024 20.754C8.34224 20.767 8.37424 20.781 8.40624 20.794C8.96024 21.018 9.37324 21.493 9.51824 22.073L9.76624 23.066C9.90424 23.615 10.3972 24 10.9632 24H13.0372C13.6032 24 14.0962 23.615 14.2332 23.066L14.4822 22.073C14.6272 21.493 15.0402 21.018 15.5942 20.794C15.6262 20.781 15.6582 20.767 15.6892 20.754C15.9202 20.657 16.1642 20.61 16.4072 20.61C16.7392 20.61 17.0692 20.699 17.3622 20.874L18.1302 21.335C18.3932 21.493 18.6592 21.567 18.9092 21.567C19.2312 21.567 19.5262 21.444 19.7522 21.219L21.2182 19.752C21.6192 19.352 21.6952 18.731 21.4042 18.245L20.8752 17.363C20.5702 16.856 20.5252 16.235 20.7542 15.689C20.7672 15.658 20.7802 15.626 20.7932 15.594C21.0182 15.04 21.4932 14.627 22.0732 14.482L23.0662 14.234C23.6152 14.096 24.0002 13.603 24.0002 13.037V10.963C24.0002 10.397 23.6152 9.904 23.0662 9.766L22.0732 9.518C21.4932 9.373 21.0182 8.96 20.7932 8.406C20.7802 8.374 20.7672 8.342 20.7542 8.31C20.5252 7.765 20.5702 7.144 20.8752 6.637L21.4042 5.755C21.6952 5.269 21.6192 4.648 21.2182 4.248L19.7522 2.781C19.5142 2.544 19.1982 2.42 18.8792 2.42C18.6612 2.42 18.4422 2.478 18.2452 2.596L17.3632 3.125C17.0702 3.301 16.7392 3.39 16.4072 3.39C16.1642 3.39 15.9202 3.342 15.6892 3.246C15.6572 3.233 15.6262 3.219 15.5942 3.206C15.0402 2.982 14.6272 2.508 14.4822 1.928L14.2662 1.064C14.0962 0.385 13.6032 0 13.0372 0ZM13.0372 1C13.1952 1 13.2672 1.192 13.2962 1.307L13.5122 2.17C13.7332 3.056 14.3712 3.789 15.2172 4.133L15.3032 4.168C15.6552 4.316 16.0262 4.39 16.4072 4.39C16.9252 4.39 17.4332 4.249 17.8772 3.983L18.7602 3.453C18.7962 3.431 18.8372 3.42 18.8792 3.42C18.9162 3.42 18.9852 3.429 19.0452 3.488L20.5112 4.955C20.5872 5.031 20.6022 5.148 20.5462 5.24L20.0172 6.122C19.5512 6.899 19.4822 7.861 19.8322 8.697L19.8672 8.782C20.2102 9.629 20.9452 10.267 21.8312 10.488L22.8232 10.737C22.9272 10.763 23.0002 10.856 23.0002 10.963V13.037C23.0002 13.144 22.9272 13.237 22.8232 13.263L21.8312 13.512C20.9452 13.733 20.2102 14.371 19.8672 15.217L19.8322 15.303C19.4822 16.138 19.5512 17.101 20.0172 17.878L20.5462 18.76C20.6022 18.852 20.5872 18.969 20.5112 19.045L19.0452 20.512C19.0062 20.55 18.9652 20.567 18.9092 20.567C18.8342 20.567 18.7402 20.535 18.6452 20.478L17.8772 20.017C17.4332 19.75 16.9252 19.609 16.4082 19.609C16.0272 19.609 15.6552 19.684 15.3032 19.832L15.2182 19.867C14.3712 20.211 13.7332 20.945 13.5112 21.831L13.2632 22.823C13.2372 22.927 13.1442 23 13.0372 23H10.9632C10.8552 23 10.7622 22.927 10.7362 22.823L10.4882 21.831C10.2672 20.945 9.62924 20.211 8.78324 19.867L8.69724 19.832C8.34524 19.684 7.97324 19.61 7.59324 19.61C7.07524 19.61 6.56724 19.751 6.12224 20.017L5.24024 20.547C5.20324 20.569 5.16324 20.58 5.12024 20.58C5.08424 20.58 5.01524 20.571 4.95524 20.512L3.48824 19.045C3.41224 18.969 3.39824 18.852 3.45324 18.76L3.98324 17.878C4.44924 17.101 4.51824 16.138 4.16824 15.304L4.13324 15.218C3.78924 14.371 3.05524 13.733 2.16924 13.512L1.17624 13.263C1.07224 13.237 1.00024 13.144 1.00024 13.037V10.963C1.00024 10.856 1.07224 10.763 1.17624 10.737L2.16924 10.488C3.05524 10.267 3.78924 9.629 4.13324 8.783L4.16824 8.697C4.51824 7.861 4.44924 6.899 3.98324 6.122L3.45324 5.24C3.39824 5.148 3.41224 5.031 3.48824 4.955L4.95524 3.488C4.99424 3.45 5.03424 3.433 5.09024 3.433C5.16524 3.433 5.25924 3.465 5.35524 3.522L6.12324 3.983C6.56724 4.25 7.07524 4.39 7.59224 4.39C7.97324 4.39 8.34524 4.316 8.69624 4.168L8.78224 4.133C9.62924 3.789 10.2672 3.055 10.4882 2.169L10.7362 1.177C10.7622 1.073 10.8552 1 10.9632 1H13.0372Z" fill="white"/></g></svg>