<svg xmlns="http://www.w3.org/2000/svg" width="18" height="18" viewBox="0 0 18 18" fill="none"><rect width="18" height="18" fill="none"/><path fill-rule="evenodd" clip-rule="evenodd" d="M9 5.25C6.92925 5.25 5.25 6.92925 5.25 9C5.25 11.0708 6.92925 12.75 9 12.75C11.0708 12.75 12.75 11.0708 12.75 9C12.75 6.92925 11.0708 5.25 9 5.25ZM9 6C10.6545 6 12 7.3455 12 9C12 10.6545 10.6545 12 9 12C7.3455 12 6 10.6545 6 9C6 7.3455 7.3455 6 9 6Z" fill="#0B1F35" fill-opacity="0.3"/><mask id="a" mask-type="alpha" maskUnits="userSpaceOnUse" x="0" y="0" width="18" height="18"><path d="M9.00005 18H18V0H9.00005H0.00012207V18H9.00005Z" fill="white"/></mask><g mask="url(#a)"><path fill-rule="evenodd" clip-rule="evenodd" d="M9.77787 0H8.22237C7.79787 0 7.42812 0.28875 7.32462 0.7005L7.13862 1.44525C7.02987 1.88025 6.72012 2.2365 6.30462 2.4045C6.28062 2.41425 6.25662 2.42475 6.23262 2.4345C6.05937 2.50725 5.87637 2.5425 5.69412 2.5425C5.44512 2.5425 5.19762 2.47575 4.97862 2.3445L4.40262 1.99875C4.20537 1.88025 4.00512 1.82475 3.81762 1.82475C3.57612 1.82475 3.35487 1.917 3.18612 2.08575L2.08587 3.186C1.78587 3.486 1.72887 3.95175 1.94712 4.31625L2.34387 4.97775C2.57187 5.358 2.60562 5.82375 2.43462 6.2325C2.42412 6.2565 2.41437 6.2805 2.40462 6.3045C2.23587 6.72 1.87962 7.02975 1.44462 7.1385L0.700622 7.3245C0.288872 7.428 0.00012207 7.79775 0.00012207 8.22225V9.77775C0.00012207 10.2022 0.288872 10.572 0.700622 10.6755L1.44462 10.8615C1.87962 10.9703 2.23587 11.28 2.40462 11.6955C2.41437 11.7195 2.42412 11.7435 2.43462 11.7668C2.60562 12.1763 2.57187 12.642 2.34387 13.0223L1.94712 13.6838C1.72887 14.0483 1.78587 14.514 2.08587 14.814L3.18612 15.9143C3.36462 16.092 3.60087 16.185 3.84012 16.185C4.00362 16.185 4.16787 16.1415 4.31562 16.053L4.97787 15.6562C5.19762 15.5243 5.44512 15.4575 5.69487 15.4575C5.87712 15.4575 6.06012 15.4935 6.23262 15.5655C6.25662 15.5753 6.28062 15.5857 6.30462 15.5955C6.72012 15.7635 7.02987 16.1198 7.13862 16.5548L7.32462 17.2995C7.42812 17.7113 7.79787 18 8.22237 18H9.77787C10.2024 18 10.5721 17.7113 10.6749 17.2995L10.8616 16.5548C10.9704 16.1198 11.2801 15.7635 11.6956 15.5955C11.7196 15.5857 11.7436 15.5753 11.7669 15.5655C11.9401 15.4928 12.1231 15.4575 12.3054 15.4575C12.5544 15.4575 12.8019 15.5243 13.0216 15.6555L13.5976 16.0012C13.7949 16.1197 13.9944 16.1752 14.1819 16.1752C14.4234 16.1752 14.6446 16.083 14.8141 15.9143L15.9136 14.814C16.2144 14.514 16.2714 14.0483 16.0531 13.6838L15.6564 13.0223C15.4276 12.642 15.3939 12.1763 15.5656 11.7668C15.5754 11.7435 15.5851 11.7195 15.5949 11.6955C15.7636 11.28 16.1199 10.9703 16.5549 10.8615L17.2996 10.6755C17.7114 10.572 18.0001 10.2022 18.0001 9.77775V8.22225C18.0001 7.79775 17.7114 7.428 17.2996 7.3245L16.5549 7.1385C16.1199 7.02975 15.7636 6.72 15.5949 6.3045C15.5851 6.2805 15.5754 6.2565 15.5656 6.2325C15.3939 5.82375 15.4276 5.358 15.6564 4.97775L16.0531 4.31625C16.2714 3.95175 16.2144 3.486 15.9136 3.186L14.8141 2.08575C14.6356 1.908 14.3986 1.815 14.1594 1.815C13.9959 1.815 13.8316 1.8585 13.6839 1.947L13.0224 2.34375C12.8026 2.47575 12.5544 2.5425 12.3054 2.5425C12.1231 2.5425 11.9401 2.5065 11.7669 2.4345C11.7429 2.42475 11.7196 2.41425 11.6956 2.4045C11.2801 2.2365 10.9704 1.881 10.8616 1.446L10.6996 0.798C10.5721 0.28875 10.2024 0 9.77787 0ZM9.77787 0.75C9.89637 0.75 9.95037 0.894 9.97212 0.98025L10.1341 1.6275C10.2999 2.292 10.7784 2.84175 11.4129 3.09975L11.4774 3.126C11.7414 3.237 12.0196 3.2925 12.3054 3.2925C12.6939 3.2925 13.0749 3.18675 13.4079 2.98725L14.0701 2.58975C14.0971 2.57325 14.1279 2.565 14.1594 2.565C14.1871 2.565 14.2389 2.57175 14.2839 2.616L15.3834 3.71625C15.4404 3.77325 15.4516 3.861 15.4096 3.93L15.0129 4.5915C14.6634 5.17425 14.6116 5.89575 14.8741 6.52275L14.9004 6.5865C15.1576 7.22175 15.7089 7.70025 16.3734 7.866L17.1174 8.05275C17.1954 8.07225 17.2501 8.142 17.2501 8.22225V9.77775C17.2501 9.858 17.1954 9.92775 17.1174 9.94725L16.3734 10.134C15.7089 10.2997 15.1576 10.7782 14.9004 11.4128L14.8741 11.4773C14.6116 12.1035 14.6634 12.8257 15.0129 13.4085L15.4096 14.07C15.4516 14.139 15.4404 14.2267 15.3834 14.2837L14.2839 15.384C14.2546 15.4125 14.2239 15.4253 14.1819 15.4253C14.1256 15.4253 14.0551 15.4012 13.9839 15.3585L13.4079 15.0127C13.0749 14.8125 12.6939 14.7067 12.3061 14.7067C12.0204 14.7067 11.7414 14.763 11.4774 14.874L11.4136 14.9003C10.7784 15.1583 10.2999 15.7087 10.1334 16.3732L9.94737 17.1173C9.92787 17.1952 9.85812 17.25 9.77787 17.25H8.22237C8.14137 17.25 8.07162 17.1952 8.05212 17.1173L7.86612 16.3732C7.70037 15.7087 7.22187 15.1583 6.58737 14.9003L6.52287 14.874C6.25887 14.763 5.97987 14.7075 5.69487 14.7075C5.30637 14.7075 4.92537 14.8132 4.59162 15.0127L3.93012 15.4102C3.90237 15.4268 3.87237 15.435 3.84012 15.435C3.81312 15.435 3.76137 15.4282 3.71637 15.384L2.61612 14.2837C2.55912 14.2267 2.54862 14.139 2.58987 14.07L2.98737 13.4085C3.33687 12.8257 3.38862 12.1035 3.12612 11.478L3.09987 11.4135C2.84187 10.7782 2.29137 10.2997 1.62687 10.134L0.882122 9.94725C0.804122 9.92775 0.750122 9.858 0.750122 9.77775V8.22225C0.750122 8.142 0.804122 8.07225 0.882122 8.05275L1.62687 7.866C2.29137 7.70025 2.84187 7.22175 3.09987 6.58725L3.12612 6.52275C3.38862 5.89575 3.33687 5.17425 2.98737 4.5915L2.58987 3.93C2.54862 3.861 2.55912 3.77325 2.61612 3.71625L3.71637 2.616C3.74562 2.5875 3.77562 2.57475 3.81762 2.57475C3.87387 2.57475 3.94437 2.59875 4.01637 2.6415L4.59237 2.98725C4.92537 3.1875 5.30637 3.2925 5.69412 3.2925C5.97987 3.2925 6.25887 3.237 6.52212 3.126L6.58662 3.09975C7.22187 2.84175 7.70037 2.29125 7.86612 1.62675L8.05212 0.88275C8.07162 0.80475 8.14137 0.75 8.22237 0.75H9.77787Z" fill="#0B1F35"/></g></svg>