<?xml version="1.0" encoding="UTF-8"?>
<svg width="24px" height="24px" viewBox="0 0 24 24" version="1.1" xmlns="http://www.w3.org/2000/svg" xmlns:xlink="http://www.w3.org/1999/xlink">
    <!-- Generator: Sketch 49.3 (51167) - http://www.bohemiancoding.com/sketch -->
    <title>icon_settings_m_black</title>
    <desc>Created with Sketch.</desc>
    <defs>
        <polygon id="path-1" points="12.0001 24 24 24 24 0 12.0001 0 0.0002 0 0.0002 24 12.0001 24"></polygon>
    </defs>
    <g id="Page-1" stroke="none" stroke-width="1" fill="none" fill-rule="evenodd">
        <g id="icon_settings_m_black">
            <path d="M12,7 C9.239,7 7,9.239 7,12 C7,14.761 9.239,17 12,17 C14.761,17 17,14.761 17,12 C17,9.239 14.761,7 12,7 M12,8 C14.206,8 16,9.794 16,12 C16,14.206 14.206,16 12,16 C9.794,16 8,14.206 8,12 C8,9.794 9.794,8 12,8" id="Fill-1" fill-opacity="0.3" fill="#0B1F35"></path>
            <mask id="mask-2" fill="white">
                <use xlink:href="#path-1"></use>
            </mask>
            <g id="Clip-4"></g>
            <path d="M13.0372,0 L10.9632,0 C10.3972,0 9.9042,0.385 9.7662,0.934 L9.5182,1.927 C9.3732,2.507 8.9602,2.982 8.4062,3.206 C8.3742,3.219 8.3422,3.233 8.3102,3.246 C8.0792,3.343 7.8352,3.39 7.5922,3.39 C7.2602,3.39 6.9302,3.301 6.6382,3.126 L5.8702,2.665 C5.6072,2.507 5.3402,2.433 5.0902,2.433 C4.7682,2.433 4.4732,2.556 4.2482,2.781 L2.7812,4.248 C2.3812,4.648 2.3052,5.269 2.5962,5.755 L3.1252,6.637 C3.4292,7.144 3.4742,7.765 3.2462,8.31 C3.2322,8.342 3.2192,8.374 3.2062,8.406 C2.9812,8.96 2.5062,9.373 1.9262,9.518 L0.9342,9.766 C0.3852,9.904 0.0002,10.397 0.0002,10.963 L0.0002,13.037 C0.0002,13.603 0.3852,14.096 0.9342,14.234 L1.9262,14.482 C2.5062,14.627 2.9812,15.04 3.2062,15.594 C3.2192,15.626 3.2322,15.658 3.2462,15.689 C3.4742,16.235 3.4292,16.856 3.1252,17.363 L2.5962,18.245 C2.3052,18.731 2.3812,19.352 2.7812,19.752 L4.2482,21.219 C4.4862,21.456 4.8012,21.58 5.1202,21.58 C5.3382,21.58 5.5572,21.522 5.7542,21.404 L6.6372,20.875 C6.9302,20.699 7.2602,20.61 7.5932,20.61 C7.8362,20.61 8.0802,20.658 8.3102,20.754 C8.3422,20.767 8.3742,20.781 8.4062,20.794 C8.9602,21.018 9.3732,21.493 9.5182,22.073 L9.7662,23.066 C9.9042,23.615 10.3972,24 10.9632,24 L13.0372,24 C13.6032,24 14.0962,23.615 14.2332,23.066 L14.4822,22.073 C14.6272,21.493 15.0402,21.018 15.5942,20.794 C15.6262,20.781 15.6582,20.767 15.6892,20.754 C15.9202,20.657 16.1642,20.61 16.4072,20.61 C16.7392,20.61 17.0692,20.699 17.3622,20.874 L18.1302,21.335 C18.3932,21.493 18.6592,21.567 18.9092,21.567 C19.2312,21.567 19.5262,21.444 19.7522,21.219 L21.2182,19.752 C21.6192,19.352 21.6952,18.731 21.4042,18.245 L20.8752,17.363 C20.5702,16.856 20.5252,16.235 20.7542,15.689 C20.7672,15.658 20.7802,15.626 20.7932,15.594 C21.0182,15.04 21.4932,14.627 22.0732,14.482 L23.0662,14.234 C23.6152,14.096 24.0002,13.603 24.0002,13.037 L24.0002,10.963 C24.0002,10.397 23.6152,9.904 23.0662,9.766 L22.0732,9.518 C21.4932,9.373 21.0182,8.96 20.7932,8.406 C20.7802,8.374 20.7672,8.342 20.7542,8.31 C20.5252,7.765 20.5702,7.144 20.8752,6.637 L21.4042,5.755 C21.6952,5.269 21.6192,4.648 21.2182,4.248 L19.7522,2.781 C19.5142,2.544 19.1982,2.42 18.8792,2.42 C18.6612,2.42 18.4422,2.478 18.2452,2.596 L17.3632,3.125 C17.0702,3.301 16.7392,3.39 16.4072,3.39 C16.1642,3.39 15.9202,3.342 15.6892,3.246 C15.6572,3.233 15.6262,3.219 15.5942,3.206 C15.0402,2.982 14.6272,2.508 14.4822,1.928 L14.2662,1.064 C14.0962,0.385 13.6032,0 13.0372,0 M13.0372,1 C13.1952,1 13.2672,1.192 13.2962,1.307 L13.5122,2.17 C13.7332,3.056 14.3712,3.789 15.2172,4.133 L15.3032,4.168 C15.6552,4.316 16.0262,4.39 16.4072,4.39 C16.9252,4.39 17.4332,4.249 17.8772,3.983 L18.7602,3.453 C18.7962,3.431 18.8372,3.42 18.8792,3.42 C18.9162,3.42 18.9852,3.429 19.0452,3.488 L20.5112,4.955 C20.5872,5.031 20.6022,5.148 20.5462,5.24 L20.0172,6.122 C19.5512,6.899 19.4822,7.861 19.8322,8.697 L19.8672,8.782 C20.2102,9.629 20.9452,10.267 21.8312,10.488 L22.8232,10.737 C22.9272,10.763 23.0002,10.856 23.0002,10.963 L23.0002,13.037 C23.0002,13.144 22.9272,13.237 22.8232,13.263 L21.8312,13.512 C20.9452,13.733 20.2102,14.371 19.8672,15.217 L19.8322,15.303 C19.4822,16.138 19.5512,17.101 20.0172,17.878 L20.5462,18.76 C20.6022,18.852 20.5872,18.969 20.5112,19.045 L19.0452,20.512 C19.0062,20.55 18.9652,20.567 18.9092,20.567 C18.8342,20.567 18.7402,20.535 18.6452,20.478 L17.8772,20.017 C17.4332,19.75 16.9252,19.609 16.4082,19.609 C16.0272,19.609 15.6552,19.684 15.3032,19.832 L15.2182,19.867 C14.3712,20.211 13.7332,20.945 13.5112,21.831 L13.2632,22.823 C13.2372,22.927 13.1442,23 13.0372,23 L10.9632,23 C10.8552,23 10.7622,22.927 10.7362,22.823 L10.4882,21.831 C10.2672,20.945 9.6292,20.211 8.7832,19.867 L8.6972,19.832 C8.3452,19.684 7.9732,19.61 7.5932,19.61 C7.0752,19.61 6.5672,19.751 6.1222,20.017 L5.2402,20.547 C5.2032,20.569 5.1632,20.58 5.1202,20.58 C5.0842,20.58 5.0152,20.571 4.9552,20.512 L3.4882,19.045 C3.4122,18.969 3.3982,18.852 3.4532,18.76 L3.9832,17.878 C4.4492,17.101 4.5182,16.138 4.1682,15.304 L4.1332,15.218 C3.7892,14.371 3.0552,13.733 2.1692,13.512 L1.1762,13.263 C1.0722,13.237 1.0002,13.144 1.0002,13.037 L1.0002,10.963 C1.0002,10.856 1.0722,10.763 1.1762,10.737 L2.1692,10.488 C3.0552,10.267 3.7892,9.629 4.1332,8.783 L4.1682,8.697 C4.5182,7.861 4.4492,6.899 3.9832,6.122 L3.4532,5.24 C3.3982,5.148 3.4122,5.031 3.4882,4.955 L4.9552,3.488 C4.9942,3.45 5.0342,3.433 5.0902,3.433 C5.1652,3.433 5.2592,3.465 5.3552,3.522 L6.1232,3.983 C6.5672,4.25 7.0752,4.39 7.5922,4.39 C7.9732,4.39 8.3452,4.316 8.6962,4.168 L8.7822,4.133 C9.6292,3.789 10.2672,3.055 10.4882,2.169 L10.7362,1.177 C10.7622,1.073 10.8552,1 10.9632,1 L13.0372,1" id="Fill-3" fill="#0B1F35" mask="url(#mask-2)"></path>
        </g>
    </g>
</svg>