<svg width="36" height="36" viewBox="0 0 36 36" fill="none" xmlns="http://www.w3.org/2000/svg"><rect width="36" height="36" fill="none"/><path d="M18 0.972973C8.59623 0.972973 0.972973 8.59623 0.972973 18C0.972973 27.4038 8.59623 35.027 18 35.027C27.4038 35.027 35.027 27.4038 35.027 18C35.027 8.59623 27.4038 0.972973 18 0.972973ZM18 0C27.9411 0 36 8.05887 36 18C36 27.9411 27.9411 36 18 36C8.05887 36 0 27.9411 0 18C0 8.05887 8.05887 0 18 0Z" fill="#0B1F35"/><path fill-rule="evenodd" clip-rule="evenodd" d="M17.5333 11H18.4666V25H17.5333V11Z" fill="#0B1F35"/><path fill-rule="evenodd" clip-rule="evenodd" d="M11 17.5332H25V18.4665H11V17.5332Z" fill="#0B1F35"/></svg>