<svg xmlns="http://www.w3.org/2000/svg" width="36" height="36" version="1" viewBox="0 0 36 36"><path fill="#0B1F35" d="M14.836 14.128c-.481.963-2.647 1.925-2.888 3.209-.401 1.524-2.647 2.166-2.567 4.412a14.128 14.128 0 0 0-1.284-1.765c-.401-.08-.802-.08-1.123.08l-.481.481c-.08.481-.08.802-.08 1.203H5.61c-.722 1.845-2.326 1.444-3.53 2.968-.08.163-.08.323-.08.484.16.08.401.241.562.321a3.92 3.92 0 0 0 1.925 0c.401-.08.882-.08.562-.802.241.16.642.241.963.16.802-.882.963-2.327 1.605-2.888.241.08.401.321.562.642 1.685 7.702 11.633 7.782 16.206 2.327.642-.802 2.327-.401 3.53-1.524-.481-.401-1.043-.321-1.364-.722l.963-1.444.16.16c1.685 1.604 8.103 1.364 5.856-4.332-1.765-2.407-4.252-1.925-6.498-.642-.802-3.45-.963-4.172-4.091-4.974.08-.321.08-.562 0-.883-1.043.241-2.086.562-3.049 1.284.722.562 1.524 1.043 2.246 1.604.321-.16.642-.401.802-.802 2.647.481 2.246 2.407 2.647 4.814-1.203.963-2.327 2.086-2.968 2.888-.481-.401-1.444-.642-1.444.722-1.765 1.284-3.049.802-4.011-.481.883-.321 1.364-.882 1.203-2.326.562-.642 1.284-1.203.802-2.246.642-.481.963-1.123.722-2.327.321-.401.481-.882 0-1.524 0-.642-.08-1.364-.16-2.006-.321 0-.642-.16-.963-.562.16-1.364-.642-1.364-1.604-1.203-.562-.16-1.203-.401-1.765-.562-.321-.241-.562-.401-.882-.642-.16.321-.08.722.16 1.284-.241.08-.562.08-.802.08-.321.883-1.524 1.203-1.925 2.006-.241.16-.562.321-.883.321-.16 0-.321.16-.401.481 0 .241.08.642.08.883.321.241.401.241.642.562.16-.08.321-.16.562-.321-.08.241-.08.401-.08.562.08.16.321.241.642.16.08-.16.241-.321.321-.562.16-.321 1.043-.401 1.604-.562.321.401.963.401 1.605.321-.644.4-.885.961-1.206 1.683zm16.847 4.894c.08 1.284-1.604 1.524-2.888.802.883-1.123 2.166-2.166 2.888-.802z"/></svg>