<svg width="36" height="36" viewBox="0 0 36 36" fill="none" xmlns="http://www.w3.org/2000/svg"><rect width="36" height="36" fill="none"/><path fill-rule="evenodd" clip-rule="evenodd" d="M20.8 36H16.1L7.5 21.3C7 20.4 6.9 19.4 7.2 18.4L11.4 6H25.6L29.8 18.3C30.1 19.3 30 20.3 29.5 21.2L20.8 36ZM16.7 35H20.3L28.6 20.8C29 20.2 29.1 19.4 28.8 18.7L24.9 7H12.1L8.2 18.7C8 19.4 8 20.2 8.4 20.8L16.7 35Z" fill="#0B1F35"/><path fill-rule="evenodd" clip-rule="evenodd" d="M10 0H27V3H10V0ZM18.5 16C16.8 16 15.5 17.3 15.5 19C15.5 20.1 16.1 21.1 17 21.6V35.5H20V21.6C20.9 21.1 21.5 20.1 21.5 19C21.5 17.3 20.2 16 18.5 16Z" fill="#0B1F35" fill-opacity="0.3"/></svg>