<svg width="48" height="48" viewBox="0 0 48 48" fill="none" xmlns="http://www.w3.org/2000/svg"><rect width="48" height="48" fill="none"/><path fill-rule="evenodd" clip-rule="evenodd" d="M26.9999 48H23.9999V47H26.4999L37.5999 28.6C38.0999 27.7 38.2999 26.6 37.8999 25.7L32.5999 10H23.9999V9H33.3999L38.8999 25.3C39.2999 26.6 39.1999 27.9 38.4999 29.1L26.9999 48ZM23.9999 48H20.9999L9.49992 29.1C8.79992 28 8.69992 26.6 9.09992 25.3L14.5999 9H23.9999V10H15.3999L10.0999 25.6C9.79992 26.6 9.89992 27.6 10.3999 28.5L21.4999 47H23.9999V48Z" fill="#0B1F35"/><path fill-rule="evenodd" clip-rule="evenodd" d="M12 0H36V4H12V0ZM24 22C21.8 22 20 23.8 20 26C20 27.5 20.8 28.8 22 29.4V47H26V29.4C27.2 28.7 28 27.4 28 26C28 23.8 26.2 22 24 22Z" fill="#0B1F35" fill-opacity="0.3"/></svg>