<svg xmlns="http://www.w3.org/2000/svg" width="36" height="36" viewBox="0 0 36 36"><g fill="none" fill-rule="evenodd"><path d="M0 0h36v36H0z"/><path d="M0 0h36v36H0z"/><path fill="#FFF" d="M2.5 34h31a.5.5 0 0 0 .5-.5v-16a.5.5 0 0 0-.5-.5H22V1.5a.5.5 0 0 0-.7-.459l-19 8.258c-.182.08-.3.26-.3.459V33.5a.5.5 0 0 0 .5.5zM22 18h11v15H22V18zM3 10.086l18-7.823V33H3V10.086z"/><path fill="#FFF" d="M26.5 18a.5.5 0 0 0 .5-.5v-5a.5.5 0 0 0-1 0v5a.5.5 0 0 0 .5.5zm-.5 3h3v4h-3zM7 13h3v4H7zm0 7h3v4H7zm6-10h3v4h-3zm16.5 8a.5.5 0 0 0 .5-.5v-2a.5.5 0 0 0-1 0v2a.5.5 0 0 0 .5.5z" opacity=".3"/></g></svg>