<svg width="24px" height="24px" viewBox="0 0 24 24" version="1.1" xmlns="http://www.w3.org/2000/svg"><g transform="translate(-1247.000000, -138.000000) translate(64.000000, 77.000000) translate(1183.000000, 61.000000)" stroke="none" stroke-width="1" fill="none" fill-rule="evenodd"><rect x="0" y="0" width="24" height="24"/><path d="M1.5,23.065 L14.5,23.065 L22.5,23.065 C22.776,23.065 23,22.841 23,22.565 L23,11.5 C23,11.224 22.776,11 22.5,11 L15,11 L15,1 C15,0.832 14.916,0.675 14.775,0.583 C14.634,0.491 14.457,0.474 14.303,0.541 L1.303,6.106 C1.119,6.185 1,6.365 1,6.565 L1,22.565 C1,22.842 1.224,23.065 1.5,23.065 L1.5,23.065 Z M15,12 L22,12 L22,22.065 L15,22.065 L15,12 L15,12 Z M2,6.895 L14,1.758 L14,11.5 L14,22.065 L2,22.065 L2,6.895 L2,6.895 Z" fill="#0B1F35"/><path d="M17.5,12 C17.776,12 18,11.776 18,11.5 L18,8 C18,7.724 17.776,7.5 17.5,7.5 C17.224,7.5 17,7.724 17,8 L17,11.5 C17,11.776 17.224,12 17.5,12 L17.5,12 Z" fill="#0B1F35" opacity="0.3"/><rect fill="#0B1F35" opacity="0.3" x="5" y="9" width="2" height="3"/><rect fill="#0B1F35" opacity="0.3" x="9" y="7" width="2" height="3"/><rect fill="#0B1F35" opacity="0.3" x="17" y="14" width="2" height="3"/><rect fill="#0B1F35" opacity="0.3" x="5" y="14" width="2" height="3"/><path d="M19.5,9.5 C19.224,9.5 19,9.724 19,10 L19,11.5 C19,11.776 19.224,12 19.5,12 C19.776,12 20,11.776 20,11.5 L20,10 C20,9.724 19.776,9.5 19.5,9.5 L19.5,9.5 Z" fill="#0B1F35" opacity="0.3"/></g></svg>