<svg width="18px" height="18px" viewBox="0 0 18 18" version="1.1" xmlns="http://www.w3.org/2000/svg"><g stroke="none" stroke-width="1" fill="none" fill-rule="evenodd"><rect fill-opacity="0" fill="#FFFFFF" x="0" y="0" width="18" height="18"/><path d="M9,17 C13.418278,17 17,13.418278 17,9 C17,4.581722 13.418278,1 9,1 C4.581722,1 1,4.581722 1,9 C1,13.418278 4.581722,17 9,17 Z M9,18 C4.02943725,18 0,13.9705627 0,9 C0,4.02943725 4.02943725,0 9,0 C13.9705627,0 18,4.02943725 18,9 C18,13.9705627 13.9705627,18 9,18 Z" fill="#FFFFFF" fill-rule="nonzero"/><circle fill="#FFEBB6" cx="9" cy="9" r="8"/><path d="M13,11 L5,11 L4,5.99693975 L6.7398862,7.95519914 L9,4 L11.2601138,7.95519914 L14,5.99693975 L13,11 Z" fill="#FFB800"/><polygon fill="#FFB800" fill-rule="nonzero" points="5 13 5 12 13.0025004 12 13.0025004 13"/></g></svg>