<svg xmlns="http://www.w3.org/2000/svg" width="44" height="45" viewBox="0 0 44 45"><g fill="none" fill-rule="evenodd"><path d="M-2-2h48v48H-2z"/><path fill="#FFF" d="M35.114 43.112l-11.1-26.402A2.982 2.982 0 0 0 25 14.5a3 3 0 1 0-6 0c0 .878.384 1.661.986 2.21l-11.1 26.402 1.461 1.23L22 36.887l11.653 7.456 1.461-1.231zM22 17.5c.058 0 .112-.014.169-.017l5.606 13.335L22 34.513l-5.775-3.695 5.606-13.335c.057.003.111.017.169.017zM11.975 40.927l3.464-8.238 4.706 3.011-8.17 5.227zm11.88-5.227l4.706-3.011 3.464 8.238-8.17-5.227z" opacity=".3"/><path fill="#FFF" d="M38.284-.016l-.74.673A20.949 20.949 0 0 1 43 14.777a20.943 20.943 0 0 1-5.461 14.125l.74.673A21.945 21.945 0 0 0 44 14.777c0-5.485-2.03-10.738-5.716-14.793zm-5.705 23.892A13.8 13.8 0 0 0 36 14.777c0-3.45-1.279-6.753-3.602-9.301l-.738.674A12.78 12.78 0 0 1 35 14.777a12.8 12.8 0 0 1-3.173 8.44l.752.659zm-20.977-18.4A13.773 13.773 0 0 0 8 14.777c0 3.351 1.215 6.582 3.421 9.099l.752-.659A12.8 12.8 0 0 1 9 14.777a12.78 12.78 0 0 1 3.34-8.627l-.738-.674zM5.716-.016A21.946 21.946 0 0 0 0 14.777a21.945 21.945 0 0 0 5.721 14.798l.74-.673A20.943 20.943 0 0 1 1 14.777C1 9.542 2.938 4.527 6.456.657l-.74-.673z"/></g></svg>