<svg xmlns="http://www.w3.org/2000/svg" width="24" height="24" viewBox="0 0 24 24"><rect width="24" height="24" fill="none"/><g fill="#0B1F35"><path d="M16,12.29l.72.69a6.48,6.48,0,0,0,0-9L16,4.71a5.49,5.49,0,0,1,0,7.58Z"/><path d="M8,12.29A5.49,5.49,0,0,1,8,4.71L7.3,4a6.48,6.48,0,0,0,0,9Z"/><path d="M18.87,15.05l.72.69a10.46,10.46,0,0,0,0-14.48L18.87,2a9.47,9.47,0,0,1,0,13.1Z"/><path d="M5.13,15.05A9.47,9.47,0,0,1,5.13,2l-.72-.69a10.46,10.46,0,0,0,0,14.48Z"/><path d="M13.2,10.09a2,2,0,1,0-2.4,0L5.54,22.81l.74.6L12,19.5l5.72,3.91.74-.6ZM7.1,21.64l1.77-4.28,2.24,1.53Zm2.17-5.22,2.46-6,.27,0,.27,0,2.46,6L12,18.29Zm3.62,2.47,2.24-1.53,1.77,4.28Z" opacity="0.3"/></g></svg>