<svg xmlns="http://www.w3.org/2000/svg" width="24" height="24" viewBox="0 0 24 24"><rect width="24" height="24" fill="none"/><g fill="#0b1f35"><path d="M14,8.5a2,2,0,0,0-4,0,2,2,0,0,0,.81,1.6L5.5,22.81l.74.62,5.82-3.79,5.82,3.79.74-.62L13.28,10A2,2,0,0,0,14,8.5ZM7.05,21.71,8.8,17.53l2.34,1.52ZM13,19.05l2.34-1.53,1.75,4.19Zm1.95-2.46-2.87,1.86L9.19,16.59l2.55-6.12a1.15,1.15,0,0,0,.26,0,1.5,1.5,0,0,0,.37,0Z" opacity="0.3"/><path d="M19.74,1,19,1.67a10,10,0,0,1,0,13.45l.74.68a11,11,0,0,0,0-14.8ZM16.83,13.33A7,7,0,0,0,16.74,4L16,4.67a6,6,0,0,1,.08,8ZM4.26,1,5,1.67A10,10,0,0,0,5,15.12l-.74.68A11,11,0,0,1,4.26,1ZM7.17,13.33A7,7,0,0,1,7.26,4L8,4.67a6,6,0,0,0-.08,8Z"/></g></svg>