<svg xmlns="http://www.w3.org/2000/svg" width="36" height="36" viewBox="0 0 36 36" fill="none"><rect width="36" height="36" fill="none"/><path fill-rule="evenodd" clip-rule="evenodd" d="M10 16.5C10 11.8056 13.8056 8 18.5 8C23.1944 8 27 11.8056 27 16.5C27 17.8467 26.8298 18.8934 26.4163 19.8227C26.0031 20.751 25.3654 21.5202 24.5014 22.3385C24.4345 22.4018 24.2458 22.5788 24.1416 22.6765C24.1053 22.7106 24.0792 22.735 24.0722 22.7416C23.3528 23.419 22.8675 23.9784 22.5469 24.5556C22.2317 25.1231 22.0617 25.7336 22.0157 26.532L21.9885 27.0033L15.0128 27.0025L14.9871 26.5296C14.9438 25.733 14.7752 25.1222 14.4603 24.5529C14.1401 23.974 13.6543 23.4116 12.9343 22.7308C12.9256 22.7226 12.8953 22.694 12.854 22.6551C12.7464 22.5539 12.5646 22.3827 12.4992 22.3205C11.6353 21.4991 10.9977 20.7289 10.5844 19.8035C10.1705 18.8767 10 17.836 10 16.5ZM18.5 9C14.3579 9 11 12.3579 11 16.5C11 17.7518 11.1601 18.6403 11.4975 19.3957C11.8354 20.1525 12.3697 20.8175 13.1882 21.5958C13.2519 21.6563 13.4217 21.8162 13.5299 21.9181C13.5755 21.961 13.6102 21.9937 13.6213 22.0042C14.3701 22.7122 14.9419 23.3575 15.3354 24.0689C15.6641 24.6632 15.8586 25.2854 15.9449 26.0025L21.0594 26.0031C21.1477 25.2852 21.3432 24.6633 21.6727 24.07C22.0669 23.3604 22.6384 22.718 23.3867 22.0135C23.396 22.0048 23.4265 21.9762 23.4676 21.9376C23.5733 21.8385 23.7491 21.6737 23.8138 21.6124C24.6316 20.8379 25.1651 20.1746 25.5027 19.4161C25.8399 18.6584 26 17.7638 26 16.5C26 12.3579 22.6421 9 18.5 9ZM15 29H22V29.5C22 31.433 20.433 33 18.5 33C16.567 33 15 31.433 15 29.5V29ZM16.05 30C16.2816 31.1411 17.2905 32 18.5 32C19.7095 32 20.7184 31.1411 20.95 30H16.05Z" fill="white"/><path fill-rule="evenodd" clip-rule="evenodd" d="M19.621 12.2605C19.765 12.3265 19.99 12.4085 20.233 12.5255C20.731 12.7465 21.251 13.0975 21.626 13.5245C21.704 13.6485 21.818 13.7425 21.888 13.8765C21.965 14.0025 22.049 14.1265 22.116 14.2645C22.256 14.5305 22.386 14.8105 22.483 15.0715C22.591 15.3265 22.673 15.5605 22.738 15.7265C22.805 15.8915 22.855 15.9895 22.855 15.9895L22.886 16.0495C22.945 16.1645 23.046 16.2585 23.176 16.3055C23.451 16.4065 23.755 16.2645 23.855 15.9895C23.855 15.9895 23.895 15.8785 23.945 15.6785C23.996 15.4785 24.064 15.1885 24.06 14.8245C24.073 14.6425 24.067 14.4445 24.029 14.2325C24.007 14.0185 23.968 13.7935 23.882 13.5635C23.82 13.3295 23.717 13.0935 23.583 12.8645C23.462 12.6335 23.296 12.4085 23.117 12.2045C22.925 12.0075 22.728 11.8175 22.508 11.6635C22.29 11.5075 22.053 11.3925 21.829 11.2895C21.371 11.0925 20.925 11.0255 20.555 11.0055C20.184 10.9835 19.884 11.0325 19.664 11.0705C19.465 11.1175 19.367 11.1565 19.367 11.1565L19.331 11.1715C19.198 11.2255 19.088 11.3325 19.034 11.4765C18.931 11.7505 19.07 12.0545 19.343 12.1565C19.343 12.1565 19.444 12.1945 19.621 12.2605Z" fill="white" fill-opacity="0.3"/><path d="M19 2.5C19 2.22386 18.7761 2 18.5 2C18.2239 2 18 2.22386 18 2.5V5.5C18 5.77614 18.2239 6 18.5 6C18.7761 6 19 5.77614 19 5.5V2.5Z" fill="white" fill-opacity="0.3"/><path fill-rule="evenodd" clip-rule="evenodd" d="M29.5 16H32.5C32.7761 16 33 16.2239 33 16.5C33 16.7761 32.7761 17 32.5 17H29.5C29.2239 17 29 16.7761 29 16.5C29 16.2239 29.2239 16 29.5 16ZM4.5 16H7.5C7.77614 16 8 16.2239 8 16.5C8 16.7761 7.77614 17 7.5 17H4.5C4.22386 17 4 16.7761 4 16.5C4 16.2239 4.22386 16 4.5 16Z" fill="white" fill-opacity="0.3"/><path fill-rule="evenodd" clip-rule="evenodd" d="M25.9245 8.36831L28.0459 6.24699C28.2411 6.05173 28.5577 6.05173 28.753 6.24699C28.9482 6.44226 28.9482 6.75884 28.753 6.9541L26.6316 9.07542C26.4364 9.27068 26.1198 9.27068 25.9245 9.07542C25.7293 8.88016 25.7293 8.56358 25.9245 8.36831ZM8.24686 26.046L10.3682 23.9247C10.5634 23.7294 10.88 23.7294 11.0753 23.9247C11.2706 24.1199 11.2706 24.4365 11.0753 24.6318L8.95397 26.7531C8.75871 26.9484 8.44213 26.9484 8.24686 26.7531C8.0516 26.5578 8.0516 26.2412 8.24686 26.046Z" fill="white" fill-opacity="0.3"/><path fill-rule="evenodd" clip-rule="evenodd" d="M26.6318 23.9247L28.7531 26.046C28.9484 26.2412 28.9484 26.5578 28.7531 26.7531C28.5579 26.9483 28.2413 26.9483 28.046 26.7531L25.9247 24.6318C25.7294 24.4365 25.7294 24.1199 25.9247 23.9247C26.12 23.7294 26.4365 23.7294 26.6318 23.9247ZM8.95414 6.24699L11.0755 8.36831C11.2707 8.56357 11.2707 8.88015 11.0755 9.07541C10.8802 9.27068 10.5636 9.27068 10.3684 9.07541L8.24703 6.95409C8.05177 6.75883 8.05177 6.44225 8.24703 6.24699C8.44229 6.05172 8.75888 6.05172 8.95414 6.24699Z" fill="white" fill-opacity="0.3"/></svg>