<svg xmlns="http://www.w3.org/2000/svg" width="24" height="24" viewBox="0 0 24 24" fill="none"><rect width="24" height="24" fill="none"/><path fill-rule="evenodd" clip-rule="evenodd" d="M6 11.5337C6 8.05161 9.01071 5 12.5 5C15.9893 5 19 8.05161 19 11.5337C19 12.5424 18.828 13.3293 18.4706 14.0275C18.1178 14.7169 17.6018 15.2841 16.9786 15.8742C16.9298 15.9205 16.7913 16.0504 16.7158 16.1211C16.6899 16.1455 16.6714 16.1628 16.6665 16.1674C16.1179 16.6839 15.7807 17.0025 15.5568 17.3371C15.3527 17.6419 15.2354 17.9748 15.2034 18.5288L15.1763 19H9.87212L9.84643 18.5271C9.81639 17.9741 9.70024 17.6407 9.49683 17.3346C9.27369 16.9989 8.93655 16.6781 8.38791 16.1593C8.38195 16.1537 8.36046 16.1334 8.33103 16.1057C8.25304 16.0323 8.11933 15.9064 8.07157 15.861C7.45186 15.2718 6.92418 14.7054 6.55867 14.0209C6.1872 13.3252 6 12.5407 6 11.5337ZM12.5 6C9.57018 6 7 8.59668 7 11.5337C7 12.4065 7.15976 13.0235 7.44079 13.5498C7.72779 14.0873 8.15816 14.5635 8.76063 15.1363C8.8066 15.18 8.92843 15.2947 9.00704 15.3687C9.04075 15.4005 9.06651 15.4247 9.07494 15.4327C9.09171 15.4486 9.10841 15.4643 9.12501 15.48C9.62139 15.9492 10.0391 16.3439 10.3296 16.7811C10.5727 17.1467 10.722 17.5312 10.7963 18H14.255C14.3308 17.5302 14.4815 17.1458 14.7257 16.7809C15.0156 16.3478 15.4308 15.9571 15.9228 15.4941C15.9421 15.4759 15.9615 15.4577 15.981 15.4393C15.9881 15.4327 16.0107 15.4114 16.0411 15.383C16.118 15.3109 16.2442 15.1925 16.291 15.1482C16.8895 14.5813 17.3061 14.1079 17.5805 13.5719C17.8503 13.0446 18 12.4214 18 11.5337C18 8.59668 15.4298 6 12.5 6ZM9.84569 20H15.2043V20.5C15.2043 21.9797 14.0047 23.1793 12.525 23.1793C11.0452 23.1793 9.84569 21.9797 9.84569 20.5V20ZM10.9214 21C11.1342 21.6833 11.7717 22.1793 12.525 22.1793C13.2783 22.1793 13.9157 21.6833 14.1286 21H10.9214Z" fill="white"/><path fill-rule="evenodd" clip-rule="evenodd" d="M13.4511 8.91564C13.5557 8.96358 13.7192 9.02315 13.8957 9.10814C14.2574 9.26868 14.6352 9.52366 14.9076 9.83384C14.9643 9.92392 15.0471 9.9922 15.0979 10.0895C15.1539 10.1811 15.2149 10.2711 15.2635 10.3714C15.3652 10.5646 15.4597 10.768 15.5301 10.9576C15.6086 11.1429 15.6682 11.3128 15.7154 11.4334C15.7641 11.5533 15.8004 11.6245 15.8004 11.6245L15.8229 11.6681C15.8658 11.7516 15.9391 11.8199 16.0336 11.854C16.2333 11.9274 16.4542 11.8242 16.5268 11.6245C16.5268 11.6245 16.5559 11.5438 16.5922 11.3986C16.6292 11.2533 16.6786 11.0426 16.6757 10.7782C16.6852 10.646 16.6808 10.5022 16.6532 10.3482C16.6372 10.1927 16.6089 10.0292 16.5464 9.86217C16.5014 9.69219 16.4266 9.52075 16.3292 9.3544C16.2413 9.18659 16.1207 9.02315 15.9907 8.87496C15.8512 8.73185 15.7081 8.59383 15.5483 8.48196C15.3899 8.36864 15.2178 8.2851 15.0551 8.21028C14.7224 8.06717 14.3984 8.0185 14.1296 8.00397C13.8601 7.98799 13.6422 8.02359 13.4823 8.05119C13.3378 8.08533 13.2666 8.11366 13.2666 8.11366L13.2404 8.12456C13.1438 8.16379 13.0639 8.24151 13.0247 8.34612C12.9499 8.54516 13.0509 8.76599 13.2492 8.84009C13.2492 8.84009 13.3225 8.86769 13.4511 8.91564Z" fill="white" fill-opacity="0.3"/><path d="M13 1.5C13 1.22386 12.7761 1 12.5 1C12.2239 1 12 1.22386 12 1.5V3.5C12 3.77614 12.2239 4 12.5 4C12.7761 4 13 3.77614 13 3.5V1.5Z" fill="white" fill-opacity="0.3"/><path d="M4.5 12C4.77614 12 5 11.7761 5 11.5C5 11.2239 4.77614 11 4.5 11L2.5 11C2.22386 11 2 11.2239 2 11.5C2 11.7761 2.22386 12 2.5 12L4.5 12Z" fill="white" fill-opacity="0.3"/><path d="M22.5 12C22.7761 12 23 11.7761 23 11.5C23 11.2239 22.7761 11 22.5 11L20.5 11C20.2239 11 20 11.2239 20 11.5C20 11.7761 20.2239 12 20.5 12L22.5 12Z" fill="white" fill-opacity="0.3"/><path d="M6.48963 6.19669C6.68489 6.39196 7.00148 6.39196 7.19674 6.19669C7.392 6.00143 7.392 5.68485 7.19674 5.48959L5.78253 4.07537C5.58726 3.88011 5.27068 3.88011 5.07542 4.07537C4.88016 4.27063 4.88016 4.58722 5.07542 4.78248L6.48963 6.19669Z" fill="white" fill-opacity="0.3"/><path d="M19.2174 18.9246C19.4127 19.1199 19.7293 19.1199 19.9245 18.9246C20.1198 18.7293 20.1198 18.4128 19.9245 18.2175L18.5103 16.8033C18.315 16.608 17.9985 16.608 17.8032 16.8033C17.6079 16.9985 17.6079 17.3151 17.8032 17.5104L19.2174 18.9246Z" fill="white" fill-opacity="0.3"/><path d="M7.19657 17.5104C7.39183 17.3151 7.39183 16.9985 7.19657 16.8033C7.00131 16.608 6.68473 16.608 6.48946 16.8033L5.07525 18.2175C4.87999 18.4127 4.87999 18.7293 5.07525 18.9246C5.27051 19.1198 5.5871 19.1198 5.78236 18.9246L7.19657 17.5104Z" fill="white" fill-opacity="0.3"/><path d="M19.9246 4.78246C20.1199 4.5872 20.1199 4.27062 19.9246 4.07536C19.7293 3.88009 19.4128 3.88009 19.2175 4.07536L17.8033 5.48957C17.608 5.68483 17.608 6.00141 17.8033 6.19668C17.9985 6.39194 18.3151 6.39194 18.5104 6.19668L19.9246 4.78246Z" fill="white" fill-opacity="0.3"/></svg>