<svg xmlns="http://www.w3.org/2000/svg" width="48" height="48" viewBox="0 0 48 48" fill="none"><rect width="48" height="48" fill="none"/><path fill-rule="evenodd" clip-rule="evenodd" d="M13 22.6015C13 16.1985 18.1444 11 24.5 11C30.8556 11 36 16.1985 36 22.6015C36 24.4538 35.768 25.8762 35.2143 27.132C34.6608 28.3871 33.8041 29.4339 32.6246 30.5612C32.5332 30.6486 32.2768 30.8912 32.1331 31.0273C32.0819 31.0757 32.045 31.1106 32.0349 31.1202C31.0354 32.07 30.3127 32.8696 29.8205 33.7055C29.3351 34.5298 29.0632 35.4079 28.9992 36.5285L28.9723 37H20.0262L20.0007 36.5269C19.9405 35.4082 19.6713 34.5291 19.1874 33.7023C18.6968 32.8639 17.9746 32.0601 16.9747 31.1059C16.9746 31.1058 16.9748 31.1061 16.9747 31.1059L16.9738 31.1051L16.7232 30.8669C16.5899 30.7402 16.4397 30.5972 16.3764 30.5366C15.197 29.4048 14.3402 28.3564 13.7866 27.1052C13.2324 25.8528 13 24.4387 13 22.6015ZM17.6638 30.3812L17.6646 30.3821C18.6841 31.3549 19.4879 32.236 20.0505 33.1972C20.5473 34.0462 20.8476 34.9429 20.9614 36H28.04C28.1571 34.9413 28.46 34.0452 28.9588 33.1981C29.5232 32.2397 30.3275 31.3631 31.346 30.3953C31.3583 30.3836 31.3994 30.3448 31.4549 30.2923C31.6 30.1549 31.8443 29.9238 31.9337 29.8383C33.0668 28.7553 33.8205 27.8143 34.2993 26.7285C34.7778 25.6433 35 24.3718 35 22.6015C35 16.7421 30.2947 12 24.5 12C18.7053 12 14 16.7421 14 22.6015C14 24.3554 14.2222 25.6185 14.701 26.7005C15.1803 27.7836 15.9348 28.7268 17.0688 29.815C17.13 29.8737 17.2782 30.0148 17.4122 30.1422L17.6638 30.3812ZM20 39H29V39.5C29 42.0771 27.0526 44 24.5 44C21.9474 44 20 42.0771 20 39.5V39ZM21.0314 40C21.2564 41.7606 22.6655 43 24.5 43C26.3345 43 27.7436 41.7606 27.9686 40H21.0314Z" fill="white"/><path fill-rule="evenodd" clip-rule="evenodd" d="M26.0414 16.7183C26.2394 16.8098 26.5488 16.9236 26.8829 17.086C27.5676 17.3927 28.2826 17.8798 28.7983 18.4723C28.9055 18.6444 29.0623 18.7748 29.1585 18.9608C29.2644 19.1356 29.3799 19.3077 29.472 19.4992C29.6645 19.8683 29.8433 20.2569 29.9766 20.6191C30.1251 20.9729 30.2379 21.2976 30.3273 21.528C30.4194 21.757 30.4881 21.893 30.4881 21.893L30.5308 21.9762C30.6119 22.1358 30.7508 22.2662 30.9295 22.3315C31.3076 22.4716 31.7256 22.2746 31.8631 21.893C31.8631 21.893 31.9181 21.7389 31.9869 21.4614C32.057 21.1838 32.1505 20.7814 32.145 20.2763C32.1629 20.0237 32.1546 19.749 32.1024 19.4548C32.0721 19.1578 32.0185 18.8456 31.9003 18.5264C31.815 18.2017 31.6734 17.8742 31.4891 17.5564C31.3228 17.2359 31.0945 16.9236 30.8484 16.6405C30.5844 16.3672 30.3135 16.1035 30.011 15.8898C29.7113 15.6733 29.3854 15.5137 29.0774 15.3708C28.4476 15.0974 27.8344 15.0045 27.3256 14.9767C26.8155 14.9462 26.403 15.0142 26.1005 15.0669C25.8269 15.1321 25.6921 15.1862 25.6921 15.1862L25.6426 15.2071C25.4598 15.282 25.3085 15.4305 25.2343 15.6303C25.0926 16.0105 25.2838 16.4324 25.6591 16.5739C25.6591 16.5739 25.798 16.6267 26.0414 16.7183Z" fill="white" fill-opacity="0.3"/><path d="M25 3.625C25 3.27982 24.7761 3 24.5 3C24.2239 3 24 3.27982 24 3.625V7.375C24 7.72018 24.2239 8 24.5 8C24.7761 8 25 7.72018 25 7.375V3.625Z" fill="white" fill-opacity="0.3"/><path fill-rule="evenodd" clip-rule="evenodd" d="M40.5 23H44.5C44.7761 23 45 23.2239 45 23.5C45 23.7761 44.7761 24 44.5 24H40.5C40.2239 24 40 23.7761 40 23.5C40 23.2239 40.2239 23 40.5 23ZM4.5 23H8.5C8.77614 23 9 23.2239 9 23.5C9 23.7761 8.77614 24 8.5 24H4.5C4.22386 24 4 23.7761 4 23.5C4 23.2239 4.22386 23 4.5 23Z" fill="white" fill-opacity="0.3"/><path fill-rule="evenodd" clip-rule="evenodd" d="M36.1673 34.4602L38.9957 37.2886C39.191 37.4838 39.191 37.8004 38.9957 37.9957C38.8005 38.1909 38.4839 38.1909 38.2886 37.9957L35.4602 35.1673C35.2649 34.972 35.2649 34.6554 35.4602 34.4602C35.6555 34.2649 35.972 34.2649 36.1673 34.4602ZM10.7115 9.00431L13.5399 11.8327C13.7352 12.028 13.7352 12.3446 13.5399 12.5398C13.3446 12.7351 13.028 12.7351 12.8328 12.5398L10.0044 9.71142C9.80909 9.51615 9.80909 9.19957 10.0044 9.00431C10.1996 8.80905 10.5162 8.80905 10.7115 9.00431Z" fill="white" fill-opacity="0.3"/><path fill-rule="evenodd" clip-rule="evenodd" d="M35.4603 11.8327L38.2887 9.00427C38.484 8.809 38.8005 8.809 38.9958 9.00427C39.1911 9.19953 39.1911 9.51611 38.9958 9.71137L36.1674 12.5398C35.9721 12.7351 35.6555 12.7351 35.4603 12.5398C35.265 12.3445 35.265 12.028 35.4603 11.8327ZM10.0044 37.2885L12.8329 34.4601C13.0281 34.2648 13.3447 34.2648 13.54 34.4601C13.7352 34.6554 13.7352 34.972 13.54 35.1672L10.7115 37.9956C10.5163 38.1909 10.1997 38.1909 10.0044 37.9956C9.80917 37.8004 9.80917 37.4838 10.0044 37.2885Z" fill="white" fill-opacity="0.3"/></svg>