<svg xmlns="http://www.w3.org/2000/svg" width="24" height="24" viewBox="0 0 24 24"><g fill="none" fill-rule="evenodd"><path d="M0 0h24v24H0z"/><path fill="#FFF" fill-rule="nonzero" d="M17.642 15.763c3.127-3.175 3.127-8.349 0-11.523a7.879 7.879 0 0 0-5.655-2.38 7.879 7.879 0 0 0-5.655 2.38c-3.127 3.175-3.127 8.348 0 11.522l-.712.702c-3.51-3.563-3.51-9.362 0-12.926A8.879 8.879 0 0 1 11.987.861c2.405 0 4.667.95 6.367 2.677 3.51 3.564 3.51 9.362 0 12.926l-6.367 6.397-.706-.709 6.36-6.39zm0 0c3.127-3.175 3.127-8.349 0-11.523a7.879 7.879 0 0 0-5.655-2.38 7.879 7.879 0 0 0-5.655 2.38c-3.127 3.175-3.127 8.348 0 11.522l-.712.702c-3.51-3.563-3.51-9.362 0-12.926A8.879 8.879 0 0 1 11.987.861c2.405 0 4.667.95 6.367 2.677 3.51 3.564 3.51 9.362 0 12.926l-6.367 6.397-.706-.709 6.36-6.39z"/><circle cx="12" cy="10" r="5" fill="#FFF" opacity=".3"/></g></svg>