<svg xmlns="http://www.w3.org/2000/svg" width="24" height="24" viewBox="0 0 24 24"><g fill="#FFF"><path d="M12,23 C18.0751322,23 23,18.0751322 23,12 C23,5.92486775 18.0751322,1 12,1 C5.92486775,1 1,5.92486775 1,12 C1,18.0751322 5.92486775,23 12,23 Z M12,24 C5.372583,24 0,18.627417 0,12 C0,5.372583 5.372583,0 12,0 C18.627417,0 24,5.372583 24,12 C24,18.627417 18.627417,24 12,24 Z"/><path fill-opacity=".3" d="M8.38300443,16.5082561 C7.2158679,16.5082561 6.25171164,15.9782521 5.68223923,15.0084575 C5.23117197,14.3205799 5,13.4015304 5,12.318969 C5,9.62384213 6.30809505,8 8.41119613,8 C9.96173983,8 11.1739831,8.91904954 11.3995167,10.2496979 L9.72492952,10.2496979 C9.56141764,9.70841724 9.03705195,9.34756343 8.39991945,9.34756343 C7.26661297,9.34756343 6.5787354,10.4357632 6.61820379,12.2738623 L6.65203383,12.2738623 C6.97905759,11.4788562 7.77970197,10.9488522 8.81715667,10.9488522 C10.362062,10.9488522 11.5066452,12.087797 11.5066452,13.6327024 C11.5066452,15.3072896 10.2041885,16.5082561 8.38300443,16.5082561 Z M8.36608941,15.149416 C9.19492549,15.149416 9.84897302,14.5010068 9.84897302,13.6834474 C9.84897302,12.8433347 9.2231172,12.2287555 8.37172775,12.2287555 C7.52597664,12.2287555 6.8832058,12.8433347 6.8832058,13.6665324 C6.8832058,14.4953685 7.53161498,15.149416 8.36608941,15.149416 Z M15.7128474,16.5026178 C13.6661297,16.5026178 12.4200564,14.8731373 12.4200564,12.2400322 C12.4200564,9.61256545 13.6774064,8 15.7128474,8 C17.7482884,8 19,9.6069271 19,12.2343939 C19,14.8618607 17.759565,16.5026178 15.7128474,16.5026178 Z M15.7128474,15.1381393 C16.682642,15.1381393 17.2690294,14.0950463 17.2690294,12.2400322 C17.2690294,10.4019331 16.6770036,9.36447845 15.7128474,9.36447845 C14.7543294,9.36447845 14.151027,10.4075715 14.151027,12.2400322 C14.151027,14.089408 14.7430528,15.1381393 15.7128474,15.1381393 Z"/></g></svg>