<svg xmlns="http://www.w3.org/2000/svg" width="48" height="48" viewBox="0 0 48 48"><g fill="#FFF"><path d="M24,47 C36.7025492,47 47,36.7025492 47,24 C47,11.2974508 36.7025492,1 24,1 C11.2974508,1 1,11.2974508 1,24 C1,36.7025492 11.2974508,47 24,47 Z M24,48 C10.745166,48 0,37.254834 0,24 C0,10.745166 10.745166,0 24,0 C37.254834,0 48,10.745166 48,24 C48,37.254834 37.254834,48 24,48 Z"/><path fill-opacity=".3" d="M16.2492952,33.4351024 C13.7482884,33.4351024 11.6822392,32.2993795 10.4619412,30.2212482 C9.49536851,28.7472249 9,26.777833 9,24.4580585 C9,18.6827867 11.8030608,15.203125 16.309706,15.203125 C19.6322996,15.203125 22.2299638,17.1725169 22.7132501,20.0239063 L19.124849,20.0239063 C18.7744664,18.8640191 17.6508256,18.0907609 16.2855417,18.0907609 C13.8570278,18.0907609 12.3830044,20.4226175 12.4675795,24.3614013 L12.5400725,24.3614013 C13.2408377,22.6578169 14.9565042,21.522094 17.1796214,21.522094 C20.4901329,21.522094 22.9428111,23.96269 22.9428111,27.2732015 C22.9428111,30.8616026 20.1518325,33.4351024 16.2492952,33.4351024 Z M16.2130487,30.5233022 C17.9891261,30.5233022 19.3906565,29.133854 19.3906565,27.3819409 C19.3906565,25.5816993 18.0495369,24.264744 16.2251309,24.264744 C14.4128071,24.264744 13.035441,25.5816993 13.035441,27.3456945 C13.035441,29.1217718 14.4248892,30.5233022 16.2130487,30.5233022 Z M31.9561015,33.4230203 C27.5702779,33.4230203 24.9001208,29.9312764 24.9001208,24.2889083 C24.9001208,18.6586224 27.5944422,15.203125 31.9561015,15.203125 C36.3177608,15.203125 39,18.6465402 39,24.2768262 C39,29.9071121 36.3419251,33.4230203 31.9561015,33.4230203 Z M31.9561015,30.4991379 C34.0342328,30.4991379 35.2907773,28.2639385 35.2907773,24.2889083 C35.2907773,20.3501246 34.0221506,18.1270074 31.9561015,18.1270074 C29.9021345,18.1270074 28.6093435,20.3622068 28.6093435,24.2889083 C28.6093435,28.2518564 29.8779702,30.4991379 31.9561015,30.4991379 Z"/></g></svg>