<svg xmlns="http://www.w3.org/2000/svg" width="36" height="36" viewBox="0 0 36 36"><g fill="#0B1F35" fill-rule="evenodd"><path fill-rule="nonzero" d="M18,35 C27.3888407,35 35,27.3888407 35,18 C35,8.61115925 27.3888407,1 18,1 C8.61115925,1 1,8.61115925 1,18 C1,27.3888407 8.61115925,35 18,35 Z M18,36 C8.0588745,36 0,27.9411255 0,18 C0,8.0588745 8.0588745,0 18,0 C27.9411255,0 36,8.0588745 36,18 C36,27.9411255 27.9411255,36 18,36 Z"/><path d="M12.3161498,24.8701168 C10.4820781,24.8701168 8.96697543,24.0372533 8.07209021,22.5132904 C7.36327024,21.4323399 7,19.9881192 7,18.2869513 C7,14.0517519 9.05557793,11.5 12.3604511,11.5 C14.7970197,11.5 16.7019734,12.9442207 17.0563834,15.0352396 L14.4248892,15.0352396 C14.167942,14.1846557 13.3439388,13.6175997 12.3427306,13.6175997 C10.5618204,13.6175997 9.48086992,15.3276279 9.54289166,18.2160693 L9.59605316,18.2160693 C10.1099476,16.9667741 11.3681031,16.1339106 12.998389,16.1339106 C15.4260975,16.1339106 17.2247282,17.923681 17.2247282,20.3513894 C17.2247282,22.9828836 15.1780105,24.8701168 12.3161498,24.8701168 Z M12.2895691,22.7347966 C13.5920258,22.7347966 14.6198147,21.7158679 14.6198147,20.4311317 C14.6198147,19.1109545 13.636327,18.1451873 12.2984293,18.1451873 C10.9693919,18.1451873 9.9593234,19.1109545 9.9593234,20.4045509 C9.9593234,21.7070077 10.9782521,22.7347966 12.2895691,22.7347966 Z M23.8344744,24.8612565 C20.6182038,24.8612565 18.6600886,22.3006444 18.6600886,18.1629078 C18.6600886,14.0340314 20.6359243,11.5 23.8344744,11.5 C27.0330246,11.5 29,14.0251712 29,18.1540475 C29,22.2829239 27.0507451,24.8612565 23.8344744,24.8612565 Z M23.8344744,22.7170761 C25.3584374,22.7170761 26.2799033,21.0779299 26.2799033,18.1629078 C26.2799033,15.2744664 25.3495771,13.6441804 23.8344744,13.6441804 C22.328232,13.6441804 21.3801853,15.2833266 21.3801853,18.1629078 C21.3801853,21.0690697 22.3105115,22.7170761 23.8344744,22.7170761 Z" opacity=".3"/></g></svg>