<svg xmlns="http://www.w3.org/2000/svg" width="30" height="30" viewBox="0 0 30 30"><path fill="#FFFFFF" d="M6 28a4.005 4.005 0 0 1-3.998-3.874L2 8.293 8.293 2H19c2.206 0 4 1.794 4 4v2h-1V6c0-1.654-1.346-3-3-3H8.707L3 8.707V24c0 1.654 1.346 3 3 3h13c1.654 0 3-1.346 3-3v-2h1v2c0 2.206-1.794 4-4 4H6z"/><path fill="#FFFFFF" d="M19.348 11.87l-3.52 3.519a4 4 0 1 0 5.657 5.657l5.657-5.657a3 3 0 0 0-4.243-4.243l-5.303 5.303a2 2 0 1 0 2.829 2.829l1.75-1.75-.708-.707-1.75 1.75a1 1 0 0 1-1.414-1.415l5.304-5.303a2 2 0 1 1 2.828 2.829l-5.657 5.656a3 3 0 0 1-4.242-4.242l3.52-3.52-.708-.707z"/></svg>
