<svg xmlns="http://www.w3.org/2000/svg" width="24" height="24"><path fill="#0B1F35" d="M19 8h-1V4c0-1.103-.897-2-2-2H6.707L2 6.707V7H1v-.707L6.293 1H16c1.654 0 3 1.346 3 3v4z"/><path fill="#0B1F35" d="M16 23H4c-1.654 0-3-1.346-3-3V6.999h1V20c0 1.103.897 2 2 2h12c1.103 0 2-.897 2-2v-1h1v1c0 1.654-1.346 3-3 3z"/><path fill="#0B1F35" d="M16.14 9.386l-3.165 3.166a3.5 3.5 0 0 0 4.95 4.95l4.242-4.243a2.5 2.5 0 1 0-3.535-3.536l-3.89 3.89a1.5 1.5 0 0 0 2.122 2.12l1.396-1.395-.707-.707-1.396 1.395a.5.5 0 0 1-.707-.707l3.889-3.889a1.5 1.5 0 0 1 2.121 2.122l-4.242 4.242a2.5 2.5 0 0 1-3.536-3.535l3.166-3.166-.707-.707z"/></svg>
