<svg xmlns="http://www.w3.org/2000/svg" width="36" height="36" viewBox="0 0 36 36"><path fill="#FFFFFF" d="M23.558 34h-17a4.505 4.505 0 0 1-4.5-4.5V10.294L10.292 2h13.266c2.481 0 4.5 2.019 4.5 4.5V12h-1V6.5c0-1.93-1.57-3.5-3.5-3.5h-12.85l-7.65 7.706V29.5c0 1.93 1.57 3.5 3.5 3.5h17c1.93 0 3.5-1.57 3.5-3.5V28h1v1.5c0 2.481-2.019 4.5-4.5 4.5z"/><path fill="#FFFFFF" d="M23.412 14.554l-4.226 4.227a5 5 0 1 0 7.07 7.07l6.718-6.717a3.5 3.5 0 1 0-4.95-4.95l-6.364 6.364a2 2 0 1 0 2.829 2.829l2.456-2.457-.707-.707-2.456 2.457a1 1 0 1 1-1.414-1.415l6.363-6.363a2.5 2.5 0 0 1 3.536 3.535l-6.718 6.718a4 4 0 1 1-5.656-5.657l4.226-4.227-.707-.707z"/></svg>
