<svg xmlns="http://www.w3.org/2000/svg" width="18" height="18" viewBox="0 0 18 18"><path fill="#FFFFFF" d="M12.5 17h-10c-.827 0-1.5-.633-1.5-1.412V5.04L5.293 1h7.148C13.301 1 14 1.658 14 2.467v3.239h-1V2.467c0-.29-.251-.526-.559-.526H5.707L2 5.431v10.157c0 .26.224.47.5.47h10c.275 0 .5-.21.5-.47h1c0 .779-.673 1.412-1.5 1.412z"/><path fill="#FFFFFF" d="M10.186 6.839l-2.111 2.11a3.5 3.5 0 1 0 4.95 4.95l3.182-3.181a2.5 2.5 0 1 0-3.536-3.536L9.843 10.01a1.5 1.5 0 1 0 2.121 2.122l.697-.697-.707-.707-.697.697a.5.5 0 1 1-.707-.707l2.828-2.829A1.5 1.5 0 0 1 15.5 10.01l-3.181 3.182a2.5 2.5 0 1 1-3.536-3.535l2.111-2.111-.707-.707z"/></svg>
