<svg xmlns="http://www.w3.org/2000/svg" width="44" height="44" viewBox="0 0 44 44"><g fill="none" fill-rule="evenodd"><path d="M-2-2h48v48H-2z"/><path fill="#FFF" d="M0 43h44v1H0z"/><path fill="#FFF" d="M41 44H3V0h38v44zM4 43h36V1H4v42z"/><path fill="#FFF" d="M27 37V6.012L40.5.5v43z" opacity=".3"/><path fill="#FFF" d="M32 27h-.5c-1.378 0-2.5-1.01-2.5-2.25v-3.5c0-1.24 1.122-2.25 2.5-2.25h.5v1h-.5c-.827 0-1.5.561-1.5 1.25v3.5c0 .689.673 1.25 1.5 1.25h.5v1z"/><path fill="#FFF" d="M14.25 7c1 0 1.325.725 1.6 1.475.1.3 2.725 7.575 2.8 7.8.025.05 0 .15-.075.2-.1.025-1.45.575-1.525.6-.075.025-.15-.025-.2-.1-.025-.075-.6-1.65-.65-1.825h-3.875c-.075.175-.625 1.775-.65 1.825-.025.075-.1.125-.175.1-.075-.025-1.45-.575-1.525-.6-.075-.025-.125-.125-.075-.2.1-.275 2.675-7.425 2.8-7.8.225-.75.55-1.475 1.55-1.475zm0 2.375l-1.3 4h2.65l-1.35-4zM9.65 20a.161.161 0 0 0-.15.15v1.7c0 .075.075.15.15.15h9.2c.075 0 .15-.075.15-.15v-1.7a.161.161 0 0 0-.15-.15h-9.2z" opacity=".3"/></g></svg>