<svg xmlns="http://www.w3.org/2000/svg" width="24" height="24" viewBox="0 0 24 24"><g fill="none" fill-rule="evenodd"><path d="M0 0h24v24H0z"/><path fill="#0B1F35" d="M5.18 12a.09.09 0 0 0-.09.092v.817c0 .05.04.091.09.091h5.641c.049 0 .09-.041.09-.091v-.817c0-.05-.04-.092-.09-.092H5.18m5.529-2.191L8.984 5.134c-.162-.44-.357-.879-.976-.879-.618 0-.82.446-.977.878-.08.223-1.663 4.512-1.722 4.676-.017.046.005.1.053.118l.938.36a.089.089 0 0 0 .115-.054c.015-.043.393-1.106.432-1.212h2.326c.039.106.413 1.167.43 1.212a.091.091 0 0 0 .115.054l.938-.36a.091.091 0 0 0 .053-.118zm-3.56-1.621l.855-2.51h.01l.858 2.51H7.149z" opacity=".3"/><path fill="#0B1F35" d="M17 15h-.5c-.827 0-1.5-.673-1.5-1.5v-2c0-.827.673-1.5 1.5-1.5h.5v1h-.5a.5.5 0 0 0-.5.5v2a.5.5 0 0 0 .5.5h.5v1zM1 22h22v1H1z"/><path fill="#0B1F35" d="M22 23H1.98V1H22v22zM2.98 22H21V2H2.98v20z"/><path fill="#0B1F35" d="M15 19.5V4.006L21.5 1.5v21z" opacity=".2"/></g></svg>