<svg xmlns="http://www.w3.org/2000/svg" width="24" height="24" viewBox="0 0 24 24"><rect width="24" height="24" fill="none"/><g fill="#0B1F35" transform="translate(1 1)"><polygon points="14 18.5 14 3.006 20.5 .5 20.5 21.5" opacity=".2"/><path fill-rule="nonzero" d="M4.18 11C4.15577992 10.999994 4.13257967 11.0097502 4.11564271 11.0270635 4.09870575 11.0443769 4.08946178 11.0677859 4.09 11.092L4.09 11.909C4.09 11.959 4.13 12 4.18 12L9.821 12C9.87 12 9.911 11.959 9.911 11.909L9.911 11.092C9.911 11.042 9.871 11 9.821 11L4.18 11zM9.709 8.809L7.984 4.134C7.822 3.694 7.627 3.255 7.008 3.255 6.39 3.255 6.188 3.701 6.031 4.133 5.951 4.356 4.368 8.645 4.309 8.809 4.292 8.855 4.314 8.909 4.362 8.927L5.3 9.287C5.32239859 9.29532445 5.34720375 9.29429228 5.36883333 9.28413579 5.3904629 9.27397929 5.40709978 9.25555171 5.415 9.233 5.43 9.19 5.808 8.127 5.847 8.021L8.173 8.021C8.212 8.127 8.586 9.188 8.603 9.233 8.62034577 9.27920844 8.67136557 9.30316556 8.718 9.287L9.656 8.927C9.67875632 8.91848413 9.69716199 8.90122135 9.70711722 8.87905688 9.71707244 8.85689242 9.71775037 8.83166718 9.709 8.809zM6.149 7.188L7.004 4.678 7.014 4.678 7.872 7.188 6.149 7.188z" opacity=".3"/><polygon fill-rule="nonzero" points="0 21 22 21 22 22 0 22"/><path fill-rule="nonzero" d="M16,14 L15.5,14 C14.673,14 14,13.327 14,12.5 L14,10.5 C14,9.673 14.673,9 15.5,9 L16,9 L16,10 L15.5,10 C15.2238576,10 15,10.2238576 15,10.5 L15,12.5 C15,12.7761424 15.2238576,13 15.5,13 L16,13 L16,14 Z"/><path fill-rule="nonzero" d="M21,22 L0.98,22 L0.98,0 L21,0 L21,22 Z M1.98,21 L20,21 L20,1 L1.98,1 L1.98,21 Z"/></g></svg>