<svg xmlns="http://www.w3.org/2000/svg" width="18" height="18" version="1" viewBox="0 0 18 18"><path fill="#0B1F35" d="M10.03 8.564L10 8.556V2.69c1.683.184 3.005 1.361 3.065 2.777h.686C13.69 3.655 12.105 2.211 10 2.024V1H9v1.031c-2.178.204-3.679 1.615-3.679 3.54 0 1.797 1.031 2.771 3.679 3.461v6.252c-1.827-.2-3.229-1.48-3.314-3.083H5c.051 2.028 1.725 3.568 4 3.768V17h1v-1.023c2.372-.198 4-1.669 4-3.7 0-1.979-1.086-2.983-3.97-3.713zM6.006 5.533c0-1.509 1.263-2.671 2.994-2.84v5.612c-2.156-.589-2.994-1.359-2.994-2.772zM10 15.306V9.288c2.407.62 3.314 1.45 3.314 3.028 0 1.605-1.399 2.844-3.314 2.99z"/></svg>