<svg xmlns="http://www.w3.org/2000/svg" width="9" height="15" viewBox="0 0 9 15"><path fill="#FFF" fill-rule="evenodd" d="M5.03 7.091L5 7.084v-5.5c1.683.173 3.005 1.276 3.065 2.604h.686C8.69 2.489 7.105 1.135 5 .96V0H4v.967C1.822 1.157.321 2.48.321 4.285.321 5.97 1.352 6.883 4 7.53v5.861c-1.827-.187-3.229-1.387-3.314-2.89H0c.051 1.901 1.725 3.345 4 3.532V15h1v-.96c2.372-.185 4-1.564 4-3.468 0-1.855-1.086-2.796-3.97-3.48zM1.006 4.25c0-1.415 1.263-2.504 2.994-2.663v5.261C1.844 6.296 1.006 5.574 1.006 4.25zM5 13.412V7.77c2.407.581 3.314 1.36 3.314 2.839 0 1.504-1.399 2.666-3.314 2.803z"/></svg>