<svg xmlns="http://www.w3.org/2000/svg" width="13" height="22" viewBox="0 0 13 22"><path fill="#FFF" fill-rule="evenodd" d="M.772 15.774H0c.172 2.86 2.614 4.976 6 5.212V22h1v-1.002c3.478-.203 6-2.417 6-5.274 0-2.788-1.509-4.17-5.756-5.278L7 10.403V1.706c2.568.107 4.743 1.892 4.93 4.018h.773C12.523 3.167 10.181 1.191 7.075 1H7V0H6v1.022C2.94 1.298.571 3.48.571 6.076c0 2.526 1.509 3.893 5.385 4.88l.044.012v9.3C3.157 19.99.95 18.104.772 15.774zm.377-9.799c0-2.302 2.077-4.112 4.851-4.259v8.505C2.47 9.39 1.149 8.234 1.149 5.975zm5.862 5.28c3.825.921 5.316 2.201 5.316 4.569 0 2.441-2.287 4.359-5.326 4.47v-9.042l.01.003z"/></svg>