<svg xmlns="http://www.w3.org/2000/svg" width="24" height="24" version="1" viewBox="0 0 24 24"><path fill="#0B1F35" d="M6.772 16.774H6c.172 2.86 2.614 4.976 6 5.212V23h1v-1.002c3.478-.203 6-2.417 6-5.274 0-2.788-1.509-4.17-5.756-5.278L13 11.403V2.706c2.568.107 4.743 1.892 4.93 4.018h.773c-.18-2.557-2.522-4.533-5.628-4.724H13V1h-1v1.022c-3.06.276-5.429 2.458-5.429 5.054 0 2.526 1.509 3.893 5.385 4.88l.044.012v9.3c-2.843-.278-5.05-2.164-5.228-4.494zm.377-9.799c0-2.302 2.077-4.112 4.851-4.259v8.505c-3.53-.831-4.851-1.987-4.851-4.246zm5.862 5.28c3.825.921 5.316 2.201 5.316 4.569 0 2.441-2.287 4.359-5.326 4.47v-9.042l.01.003z"/></svg>