<svg xmlns="http://www.w3.org/2000/svg" width="48" height="48" viewBox="0 0 48 48" fill="none"><rect width="48" height="48" fill="none"/><path d="M25 9L9 25V44.7642C9 45.4472 9.53189 46 10.2092 46C25.2235 46 21.0145 45.9999 39.7908 45.9999C40.4681 45.9999 41 45.4471 41 44.7641V25L25 9Z" fill="#B2CCDC"/><path d="M45.7317 24.1385C45.7312 24.1374 45.7309 24.1362 45.7306 24.135L45.7299 24.1323C45.3512 23.1675 36.8206 14.467 34.3272 11.9238C34.0099 11.6002 33.7903 11.3763 33.6978 11.2807L27.6944 5.0798C26.3005 3.64007 23.8684 3.64007 22.4745 5.0798C22.3548 5.20348 21.9428 5.62131 21.3186 6.25429C17.3262 10.3031 4.65355 23.1548 4.26991 24.1322C4.26917 24.1342 4.269 24.1367 4.269 24.1367C3.73063 25.5146 4.00027 27.1509 5.07873 28.2648C5.38742 28.5842 5.74425 28.8097 6.11815 28.9884L24.2146 10.4714C24.6952 9.97501 25.4739 9.97501 25.9545 10.4714L43.8929 29C44.2675 28.8154 44.6189 28.5768 44.9211 28.2648C45.9994 27.1509 46.2691 25.5145 45.7317 24.1385Z" fill="#5C85AD"/><path d="M39.6789 6H34.3231C33.6107 6 33.0428 6.31576 33 7L41 15V7.25405C41 6.53201 40.419 6 39.6789 6Z" fill="#5C85AD"/><path d="M20 32C19.4477 32 19 32.4477 19 33V46H31V33C31 32.4477 30.5523 32 30 32H20Z" fill="#5C85AD"/></svg>