<svg xmlns="http://www.w3.org/2000/svg" width="36" height="29" viewBox="0 0 36 29"><g fill="none" fill-rule="evenodd"><path d="M0-2h36v36H0z"/><path fill="#FFF" d="M22.323 24h4.838v5h3v-5h4.838a1 1 0 0 0 .762-1.648l-5.434-6.393h3.526c.875 0 1.328-1.045.73-1.684l-5.192-5.538a1 1 0 0 0-1.459 0l-5.192 5.538c-.599.639-.146 1.684.73 1.684h3.526l-5.434 6.393A1 1 0 0 0 22.323 24z" opacity=".3"/><path fill="#FFF" d="M5 16v13h19v-1H6V15H2.781a.978.978 0 0 1-.943-.668.978.978 0 0 1 .318-1.112L16.5 1.721l7.811 6.261.625-.78L16.5.44l-14.969 12a1.975 1.975 0 0 0-.636 2.223A1.976 1.976 0 0 0 2.781 16H5z"/><path fill="#FFF" d="M11 16h4v6h-4z" opacity=".3"/></g></svg>