<svg xmlns="http://www.w3.org/2000/svg" width="47" height="39" viewBox="0 0 47 39"><g fill="none" fill-rule="evenodd"><path d="M-1-4h48v48H-1z"/><path fill="#0B1F35" d="M39.488 23h3.307c1.245 0 1.925-1.492 1.128-2.449L36.141 11l-7.782 9.556c-.797.957-.117 2.444 1.128 2.444h3.289l-6.304 7.448c-.817.953-.14 2.552 1.114 2.552H34v6h4v-6h6.696c1.255 0 1.931-1.617 1.115-2.57L39.488 23z" opacity=".3"/><path fill="#0B1F35" d="M2.973 20H5v19h26v-1H6V19H2.973c-.664 0-1.22-.362-1.416-.922-.183-.521-.006-1.06.469-1.438L20.5 2.16l10.89 8.535.617-.787L20.5.89 1.405 15.855c-.813.649-1.117 1.627-.792 2.553C.952 19.375 1.878 20 2.973 20z"/><path fill="#0B1F35" d="M12 21h6v8h-6z" opacity=".3"/></g></svg>