<svg xmlns="http://www.w3.org/2000/svg" width="24" height="24" viewBox="0 0 24 24" fill="none"><rect width="24" height="24" fill="none"/><path d="M12 3.5L4 11.5V21.3649C4 21.7159 4.26594 22 4.6046 22C12.1118 22 10.0072 22 19.3954 22C19.7341 22 20 21.7159 20 21.3649V11.5L12 3.5Z" fill="#B2CCDC"/><path d="M22.8595 11.2128C22.859 11.2118 22.8589 11.2107 22.8585 11.2097C22.6601 10.7204 18.1917 6.30813 16.8856 5.0184C16.7194 4.85432 16.6044 4.74074 16.5559 4.69226L13.4113 1.5476C12.6811 0.817467 11.4071 0.817467 10.677 1.5476C10.6143 1.6103 10.3986 1.82206 10.0719 2.14287C7.98058 4.19614 1.3421 10.714 1.14114 11.2096C1.14075 11.2106 1.14066 11.2119 1.14066 11.2119C0.858658 11.9107 0.999898 12.7405 1.56481 13.3054C1.72651 13.4674 1.91342 13.5817 2.10928 13.6724L11.5885 4.28186C11.8402 4.0301 12.2481 4.0301 12.4999 4.28186L21.8963 13.6782C22.0925 13.5846 22.2766 13.4636 22.4348 13.3054C22.9997 12.7405 23.1409 11.9107 22.8595 11.2128Z" fill="#5C85AD"/><path d="M19.3394 2H16.6615C16.3054 2 16.0214 2.27413 16 2.65426L20 7V2.6967C20 2.29556 19.7095 2 19.3394 2Z" fill="#5C85AD"/><path d="M10 15C9.44772 15 9 15.4477 9 16V22H15V16C15 15.4477 14.5523 15 14 15H10Z" fill="#5C85AD"/></svg>