<svg xmlns="http://www.w3.org/2000/svg" width="36" height="36" version="1" viewBox="0 0 36 36"><path fill="#FFFFFF" d="M16.538 4H20V3H1v1h1.5zm5.697 14h2.988l6.465-13c.458-.729.77-1 1.228-1H34V3h-9v1h2c1.083 0 1.8.625 1.178 2l-5.943 12z"/><circle cx="31.5" cy="15.5" r="2.5" fill="#FFFFFF"/><path fill="#FFFFFF" d="M10.307 18h11.465a2.535 2.535 0 0 1-.159-.488l-.258-.508-11.531.025.483.971zm-1-2h11.465a2.34 2.34 0 0 1-.132-.407l-.299-.589-11.517.025.483.971zm10.465-2c-.051-.115-.074-.218-.106-.325l-.34-.671-11.502.025.483.971h11.465zm-1-2c-.038-.086-.052-.162-.079-.244l-.382-.752-11.487.025.483.971h11.465zm-1-2c-.025-.057-.032-.107-.053-.163l-.423-.833-11.472.025.483.971h11.465zm-1-2c-.013-.029-.015-.053-.026-.081l-.464-.915-11.458.025.483.971h11.465zM3.824 5.029L4.307 6h11.465a2.187 2.187 0 0 1-.21-.997l-11.738.026zM22.368 19H10.652l6.981 14.045.059-.117 1.888-3.739L24.221 20H35v-1H24.726z"/></svg>
