<svg width="40" height="40" viewBox="0 0 40 40" xmlns="http://www.w3.org/2000/svg"><g fill-rule="nonzero" fill-opacity=".9" fill="#0B1F35"><path d="M22.438 34C23.826 34 25 32.855 25 31.5V25h-1v6.5c0 .813-.716 1.5-1.562 1.5h-14C7.632 33 7 32.341 7 31.5v-23C7 7.659 7.632 7 8.438 7h14C23.284 7 24 7.687 24 8.5V14h1V8.5C25 7.145 23.826 6 22.438 6h-14C7.07 6 6 7.098 6 8.5v23C6 32.902 7.07 34 8.438 34h14z"/><path d="M30.459 13.854L35.605 19H16.188v1h19.418l-5.146 5.146.707.707L37.52 19.5l-6.354-6.354-.707.708zm5.603 5.689v-.086l.043.043-.043.043z"/></g></svg>