<svg width="18px" height="18px" viewBox="0 0 18 18" version="1.1" xmlns="http://www.w3.org/2000/svg"><g fill-rule="nonzero" stroke="none" stroke-width="1" fill="none"><rect fill="#D8D8D8" opacity="0" x="0" y="0" width="18" height="18"/><polygon fill-opacity="0.9" fill="#0B1F35" points="13.396 5.854 15.543 8 6 8 6 9 15.543 9 13.396 11.146 14.104 11.854 17.457 8.5 14.104 5.146"/><path d="M1,15.5 C1,16.327 1.673,17 2.5,17 L9.5,17 C10.327,17 11,16.327 11,15.5 L11,11 L10,11 L10,15.5 C10,15.7761424 9.77614237,16 9.5,16 L2.5,16 C2.22385763,16 2,15.7761424 2,15.5 L2,2.5 C2,2.22385763 2.22385763,2 2.5,2 L9.5,2 C9.77614237,2 10,2.22385763 10,2.5 L10,6 L11,6 L11,2.5 C11,1.673 10.327,1 9.5,1 L2.5,1 C1.673,1 1,1.673 1,2.5 L1,15.5 Z" fill-opacity="0.9" fill="#0B1F35"/></g></svg>