<svg width="24px" height="24px" viewBox="0 0 24 24" version="1.1" xmlns="http://www.w3.org/2000/svg"><g stroke="none" stroke-width="1" fill="none" fill-rule="evenodd"><polygon points="0 0 24 0 24 24 0 24"/><g transform="translate(2.000000, 2.000000)" fill="#0B1F35" fill-opacity="0.9" fill-rule="nonzero"><path d="M12,6 L12,1.5 C12,0.673 11.327,0 10.5,0 L1.5,0 C0.673,0 0,0.673 0,1.5 L0,17.5 C0,18.327 0.673,19 1.5,19 L10.5,19 C11.327,19 12,18.327 12,17.5 L12,13 L11,13 L11,17.5 C11,17.7761424 10.7761424,18 10.5,18 L1.5,18 C1.22385763,18 1,17.7761424 1,17.5 L1,1.5 C1,1.22385763 1.22385763,1 1.5,1 L10.5,1 C10.7761424,1 11,1.22385763 11,1.5 L11,6 L12,6 Z"/><polygon points="16.396 5.854 19.543 9 7 9 7 10 19.543 10 16.396 13.146 17.104 13.854 21.457 9.5 17.104 5.146"/></g></g></svg>