<?xml version="1.0" encoding="UTF-8"?>
<svg width="24px" height="24px" viewBox="0 0 24 24" version="1.1" xmlns="http://www.w3.org/2000/svg" xmlns:xlink="http://www.w3.org/1999/xlink">
    <!-- Generator: Sketch 48.2 (47327) - http://www.bohemiancoding.com/sketch -->
    <title>icon_address-book_m_black</title>
    <desc>Created with Sketch.</desc>
    <defs></defs>
    <g id="mobile" stroke="none" stroke-width="1" fill="none" fill-rule="evenodd" transform="translate(-520.000000, -261.000000)">
        <g id="Headings" transform="translate(64.000000, 77.000000)"></g>
        <g id="icon_tool_address_book__m__white" transform="translate(520.000000, 261.000000)">
            <g id="ungroup">
                <rect id="Rectangle-path" x="0" y="0" width="24" height="24"></rect>
                <path d="M22,23 L4.5,23 C3.1,23 2,22.1 2,21 L2,2.5 C2,1.1 3.1,0 4.5,0 L21.5,0 C21.8,0 22,0.2 22,0.5 L22,19.5 C22,19.8 21.8,20 21.5,20 L4.5,20 C3.7,20 3,20.5 3,21 C3,21.5 3.7,22 4.5,22 L22,22 L22,23 L22,23 Z M4.5,1 C3.7,1 3,1.7 3,2.5 L3,19.4 C3.4,19.1 3.9,19 4.5,19 L21,19 L21,1 L4.5,1 L4.5,1 Z" id="Shape" fill="#0B1F35"></path>
                <rect id="Rectangle-path" fill="#0B1F35" opacity="0.3" x="7" y="5" width="10" height="4"></rect>
                <rect id="Rectangle-path" fill="#0B1F35" opacity="0.3" x="7" y="11" width="8" height="2"></rect>
                <g id="Group" opacity="0.3"></g>
            </g>
        </g>
    </g>
</svg>