<?xml version="1.0" encoding="UTF-8"?>
<svg width="36px" height="36px" viewBox="0 0 36 36" version="1.1" xmlns="http://www.w3.org/2000/svg" xmlns:xlink="http://www.w3.org/1999/xlink">
    <!-- Generator: Sketch 48.2 (47327) - http://www.bohemiancoding.com/sketch -->
    <title>icon_address-book_xl_black</title>
    <desc>Created with Sketch.</desc>
    <defs></defs>
    <g id="mobile" stroke="none" stroke-width="1" fill="none" fill-rule="evenodd" transform="translate(-584.000000, -261.000000)">
        <g id="Headings" transform="translate(64.000000, 77.000000)"></g>
        <g id="icon_tool_address_book__xl__white" transform="translate(584.000000, 261.000000)">
            <g id="ungroup">
                <rect id="Rectangle-path" x="0" y="0" width="36" height="36"></rect>
                <path d="M32.8,35 L6.5,35 C4.7,35 3.2,33.8 3,32.2 L3,32.2 L3,4.5 C3,2.6 4.6,1 6.5,1 L32.5,1 C32.8,1 33,1.2 33,1.5 L33,29.5 C33,29.8 32.8,30 32.5,30 L6.5,30 C5.1,30 4,30.9 4,32 C4,33.1 5.1,34 6.5,34 L32.7,34 L32.7,35 L32.8,35 Z M6.5,2 C5.1,2 4,3.1 4,4.5 L4,29.9 C4.6,29.3 5.5,29 6.5,29 L32,29 L32,2 L6.5,2 L6.5,2 Z" id="Shape" fill="#0B1F35"></path>
                <rect id="Rectangle-path" fill="#0B1F35" opacity="0.3" x="10" y="8" width="15" height="6"></rect>
                <rect id="Rectangle-path" fill="#0B1F35" opacity="0.3" x="10" y="17" width="12" height="3"></rect>
                <g id="Group" opacity="0.3"></g>
            </g>
        </g>
    </g>
</svg>