<?xml version="1.0" encoding="UTF-8"?>
<svg width="48px" height="48px" viewBox="0 0 48 48" version="1.1" xmlns="http://www.w3.org/2000/svg" xmlns:xlink="http://www.w3.org/1999/xlink">
    <!-- Generator: Sketch 48.2 (47327) - http://www.bohemiancoding.com/sketch -->
    <title>icon_address-book_xxl_black</title>
    <desc>Created with Sketch.</desc>
    <defs></defs>
    <g id="mobile" stroke="none" stroke-width="1" fill="none" fill-rule="evenodd" transform="translate(-660.000000, -261.000000)">
        <g id="Headings" transform="translate(64.000000, 77.000000)"></g>
        <g id="icon_tool_address_book__xxl__white" transform="translate(660.000000, 261.000000)">
            <g id="ungroup">
                <rect id="Rectangle-path" x="0" y="0" width="48" height="48"></rect>
                <path d="M43,46 L9.5,46 C7,46 5,44.4 5,42.5 L5,5.5 C5,3 7,1 9.5,1 L42.5,1 C42.8,1 43,1.2 43,1.5 L43,39.5 C43,39.8 42.8,40 42.5,40 L9.5,40 C7.6,40 6,41.1 6,42.5 C6,43.9 7.6,45 9.5,45 L43,45 L43,46 L43,46 Z M9.5,2 C7.6,2 6,3.6 6,5.5 L6,40.3 C6.8,39.5 8.1,39 9.5,39 L42,39 L42,2 L9.5,2 L9.5,2 Z" id="Shape" fill="#0B1F35"></path>
                <rect id="Rectangle-path" fill="#0B1F35" opacity="0.3" x="14" y="10" width="20" height="8"></rect>
                <rect id="Rectangle-path" fill="#0B1F35" opacity="0.3" x="14" y="22" width="16" height="4"></rect>
                <g id="Group" opacity="0.3"></g>
            </g>
        </g>
    </g>
</svg>