<svg xmlns="http://www.w3.org/2000/svg" width="36" height="36" viewBox="0 0 36 36"><g fill="none"><rect width="36" height="36" opacity="0"/><g fill="#0B1F35" transform="translate(3 1)"><path d="M6,16 L24,16 L24,19 L6,19 L6,16 Z M6,22 L20,22 L20,25 L6,25 L6,22 Z" opacity=".3"/><path d="M4,4 L4,5 L3.0000192,5 C1.8979507,5 1,5.8970906 1,7.0000191 L1,30.999981 C1,32.102049 1.8970906,33 3.0000192,33 L26.999981,33 C28.102049,33 29,32.102909 29,30.999981 L29,7.0000191 C29,5.8979507 28.102909,5 26.999981,5 L26,5 L26,4 L26.999981,4 C28.656846,4 30,5.3473186 30,7.0000191 L30,30.999981 C30,32.656846 28.652681,34 26.999981,34 L3.0000192,34 C1.3431543,34 0,32.652681 0,30.999981 L0,7.0000191 C0,5.3431543 1.3473186,4 3.0000192,4 L4,4 Z M6,3 L10.5,3 C10.5,3 11.25,0 15,0 C18.75,0 19.5,3 19.5,3 L24,3 L24,10 L6,10 L6,3 Z M7,4 L7,9 L23,9 L23,4 L18.719224,4 L18.529857,3.2425356 C18.471453,3.0089185 18.277488,2.5857211 17.903673,2.1585046 C17.270028,1.4343381 16.347059,1 15,1 C13.652941,1 12.729972,1.4343381 12.096327,2.1585046 C11.722512,2.5857211 11.528547,3.0089185 11.470143,3.2425356 L11.280776,4 L7,4 Z"/></g></g></svg>