<svg xmlns="http://www.w3.org/2000/svg" width="24" height="24" viewBox="0 0 24 24" fill="none"><rect width="24" height="24" fill="none"/><path opacity="0.3" d="M8 13C8 15.9455 6.20914 17 4 17C1.79086 17 0 15.9455 0 13H8Z" fill="#0F1F32"/><path opacity="0.3" d="M23 13C23 15.9455 21.2091 17 19 17C16.7909 17 15 15.9455 15 13H23Z" fill="#0F1F32"/><path d="M0.400391 12L4.00039 3H19.0004L22.6004 12H21.5234L19.0004 5.69258L16.4774 12H15.4004L18.6004 4H12.0004V22H18.0004V23H5.00039V22H11.0004V4H4.40039L7.60039 12H6.52336L4.00039 5.69258L1.47742 12H0.400391Z" fill="#0F1F32"/></svg>