<svg width="36" height="36" viewBox="0 0 36 36" xmlns="http://www.w3.org/2000/svg"><g fill="none" fill-rule="evenodd"><path d="M0 0h36v36H0z"/><path d="M1.879 7.036A3 3 0 0 0 1 9.156V30.5a3 3 0 0 0 3 3h28a3 3 0 0 0 3-3v-19a3 3 0 0 0-3-3H17.465l-2.11-3.164A3 3 0 0 0 12.86 4H6.157a3 3 0 0 0-2.121.879L1.879 7.036zm-.707-.708l2.156-2.156A4 4 0 0 1 6.157 3h6.702a4 4 0 0 1 3.328 1.781L18 7.5h14a4 4 0 0 1 4 4v19a4 4 0 0 1-4 4H4a4 4 0 0 1-4-4V9.157a4 4 0 0 1 1.172-2.829z" fill="#0B1F35" fill-rule="nonzero"/><path d="M9 16.5h18v3H9v-3zm0 6h18v3H9v-3z" fill="#0B1F35" fill-rule="nonzero" opacity=".3"/></g></svg>