<svg xmlns="http://www.w3.org/2000/svg" width="24" height="21" viewBox="0 0 24 21"><g fill="none" fill-rule="evenodd"><path d="M0-2h24v24H0z"/><path fill="#FFF" fill-rule="nonzero" d="M1.879 2.536A3 3 0 0 0 1 4.656V17a3 3 0 0 0 3 3h16a3 3 0 0 0 3-3V7a3 3 0 0 0-3-3h-8.535l-1.11-1.664A3 3 0 0 0 7.86 1H4.657a3 3 0 0 0-2.121.879l-.657.657zm-.707-.708l.656-.656A4 4 0 0 1 4.657 0h3.202a4 4 0 0 1 3.328 1.781L12 3h8a4 4 0 0 1 4 4v10a4 4 0 0 1-4 4H4a4 4 0 0 1-4-4V4.657a4 4 0 0 1 1.172-2.829z"/><path fill="#FFF" d="M6 9h12v2H6zm0 4h12v2H6z" opacity=".3"/></g></svg>