<?xml version="1.0" encoding="UTF-8"?>
<svg width="24px" height="24px" viewBox="0 0 24 24" version="1.1" xmlns="http://www.w3.org/2000/svg" xmlns:xlink="http://www.w3.org/1999/xlink">
    <!-- Generator: Sketch 49 (51002) - http://www.bohemiancoding.com/sketch -->
    <title>icon_registry_m_white</title>
    <desc>Created with Sketch.</desc>
    <defs></defs>
    <g id="Page-1" stroke="none" stroke-width="1" fill="none" fill-rule="evenodd">
        <g id="Artboard" transform="translate(-21.000000, -85.000000)">
            <g id="icon_registry_m_white" transform="translate(21.000000, 85.000000)">
                <polygon id="Shape" points="0 0 24 0 24 24 0 24"></polygon>
                <path d="M1.879,4.536 C1.3165968,5.09823315 1.00043502,5.86076212 1,6.656 L1,19 C1,20.6568542 2.34314575,22 4,22 L20,22 C21.6568542,22 23,20.6568542 23,19 L23,9 C23,7.34314575 21.6568542,6 20,6 L11.465,6 L10.355,4.336 C9.79885193,3.50170488 8.86267086,3.00040712 7.86,3 L4.657,3 C3.86141556,3.00016991 3.09847819,3.31635188 2.536,3.879 L1.879,4.536 Z M1.172,3.828 L1.828,3.172 C2.57821593,2.42155747 3.59587421,1.99996132 4.657,2 L7.859,2 C9.1963037,2.00002285 10.4451308,2.66834046 11.187,3.781 L12,5 L20,5 C22.209139,5 24,6.790861 24,9 L24,19 C24,21.209139 22.209139,23 20,23 L4,23 C1.790861,23 2.705415e-16,21.209139 0,19 L0,6.657 C-3.86813091e-05,5.59587421 0.421557467,4.57821593 1.172,3.828 Z" id="Shape" fill="#FFFFFF" fill-rule="nonzero"></path>
                <path d="M6,11 L18,11 L18,13 L6,13 L6,11 Z M6,15 L18,15 L18,17 L6,17 L6,15 Z" id="Shape" fill="#FFFFFF" fill-rule="nonzero" opacity="0.3"></path>
            </g>
        </g>
    </g>
</svg>