<svg xmlns="http://www.w3.org/2000/svg" width="16" height="22" viewBox="0 0 16 22"><g fill="none" fill-rule="evenodd"><path d="M-4-1h24v24H-4z"/><path fill="#0B1F35" d="M13.5 22h-11A2.503 2.503 0 0 1 0 19.5v-17C0 1.122 1.121 0 2.5 0h11C14.879 0 16 1.122 16 2.5v17c0 1.378-1.121 2.5-2.5 2.5zM2.5 1C1.673 1 1 1.673 1 2.5v17c0 .827.673 1.5 1.5 1.5h11c.827 0 1.5-.673 1.5-1.5v-17c0-.827-.673-1.5-1.5-1.5h-11z"/><path fill="#0B1F35" d="M3.74 16a.137.137 0 0 0-.136.138v1.724c0 .077.061.138.136.138h8.521a.136.136 0 0 0 .135-.138v-1.724a.136.136 0 0 0-.135-.138H3.74m8.35-3.81L9.485 5.128c-.246-.664-.539-1.327-1.474-1.327-.934 0-1.239.673-1.475 1.327-.122.337-2.513 6.815-2.603 7.062a.14.14 0 0 0 .08.178l1.416.544c.074.029.149-.016.173-.081.024-.066.594-1.671.654-1.831H9.77c.059.161.624 1.763.649 1.831a.138.138 0 0 0 .174.081l1.417-.544c.087-.033.1-.124.08-.178zM6.829 9.401l1.175-3.45h.015l1.179 3.45H6.829z" opacity=".3"/></g></svg>