<svg xmlns="http://www.w3.org/2000/svg" width="20" height="24" viewBox="0 0 20 24"><g fill="none" fill-rule="evenodd"><path d="M-2 0h24v24H-2z"/><path d="M-2 0h24v24H-2z"/><path fill="#0B1F35" d="M17 6c1.654 0 3-1.346 3-3s-1.346-3-3-3-3 1.346-3 3c0 .263.045.514.109.757L5.078 9.844A2.988 2.988 0 0 0 3 9c-1.654 0-3 1.346-3 3s1.346 3 3 3c.807 0 1.538-.324 2.078-.844l9.031 6.088A2.943 2.943 0 0 0 14 21c0 1.654 1.346 3 3 3s3-1.346 3-3-1.346-3-3-3c-1.03 0-1.939.522-2.479 1.314l-8.854-5.969A2.96 2.96 0 0 0 6 12c0-.486-.127-.939-.333-1.346l8.854-5.969A2.996 2.996 0 0 0 17 6zm0 13c1.103 0 2 .897 2 2s-.897 2-2 2-2-.897-2-2 .897-2 2-2zM3 14c-1.103 0-2-.897-2-2s.897-2 2-2 2 .897 2 2-.897 2-2 2zM17 1c1.103 0 2 .897 2 2s-.897 2-2 2-2-.897-2-2 .897-2 2-2z"/></g></svg>
