<svg width="24" height="24" viewBox="0 0 24 24" xmlns="http://www.w3.org/2000/svg"><g fill="none" fill-rule="evenodd"><path d="M0 0h24v24H0z"/><path d="M0 0h24v24H0z"/><path d="M19 6c1.654 0 3-1.346 3-3s-1.346-3-3-3-3 1.346-3 3c0 .263.045.514.109.757L7.078 9.844A2.988 2.988 0 0 0 5 9c-1.654 0-3 1.346-3 3s1.346 3 3 3c.807 0 1.538-.324 2.078-.844l9.031 6.088c-.069.246-.106.5-.109.756 0 1.654 1.346 3 3 3s3-1.346 3-3-1.346-3-3-3c-1.03 0-1.939.522-2.479 1.314l-8.854-5.969A2.96 2.96 0 0 0 8 12c0-.486-.127-.939-.333-1.346l8.854-5.969A2.996 2.996 0 0 0 19 6zm0 13c1.103 0 2 .897 2 2s-.897 2-2 2-2-.897-2-2 .897-2 2-2zM5 14c-1.103 0-2-.897-2-2s.897-2 2-2 2 .897 2 2-.897 2-2 2zM19 1c1.103 0 2 .897 2 2s-.897 2-2 2-2-.897-2-2 .897-2 2-2z" fill="#0B1F35" fill-rule="nonzero"/></g></svg>