<svg xmlns="http://www.w3.org/2000/svg" width="37" height="46" viewBox="0 0 37 46"><g fill="none" fill-rule="evenodd"><path d="M-5-1h48v48H-5z"/><path d="M-5-1h48v48H-5z"/><path fill="#0B1F35" d="M32 10c2.757 0 5-2.243 5-5s-2.243-5-5-5-5 2.243-5 5c0 .686.14 1.339.391 1.935L8.628 19.581A4.971 4.971 0 0 0 5 18c-2.757 0-5 2.243-5 5s2.243 5 5 5a4.971 4.971 0 0 0 3.628-1.581L27.39 39.065A4.99 4.99 0 0 0 27 41c0 2.757 2.243 5 5 5s5-2.243 5-5-2.243-5-5-5a4.997 4.997 0 0 0-4.127 2.184L9.237 25.623A4.945 4.945 0 0 0 10 23c0-.965-.287-1.858-.763-2.623L27.873 7.816A4.997 4.997 0 0 0 32 10zm0 27c2.206 0 4 1.794 4 4s-1.794 4-4 4-4-1.794-4-4 1.794-4 4-4zM5 27c-2.206 0-4-1.794-4-4s1.794-4 4-4 4 1.794 4 4-1.794 4-4 4zM32 1c2.206 0 4 1.794 4 4s-1.794 4-4 4-4-1.794-4-4 1.794-4 4-4z"/></g></svg>
