<svg xmlns="http://www.w3.org/2000/svg" width="29" height="34" viewBox="0 0 29 34"><g fill="none" fill-rule="evenodd"><path d="M-3-1h36v36H-3z"/><path d="M-3-1h36v36H-3z"/><path fill="#0B1F35" d="M25 8c2.206 0 4-1.794 4-4s-1.794-4-4-4-4 1.794-4 4c0 .3.039.59.102.872L7.206 14.237A3.98 3.98 0 0 0 4.326 13c-2.206 0-4 1.794-4 4s1.794 4 4 4a3.98 3.98 0 0 0 2.88-1.237l13.896 9.365A3.985 3.985 0 0 0 21 30c0 2.206 1.794 4 4 4s4-1.794 4-4-1.794-4-4-4c-1.542 0-2.867.886-3.534 2.167l-13.67-9.213a3.95 3.95 0 0 0 .531-1.953 3.95 3.95 0 0 0-.531-1.953l13.67-9.213C22.133 7.114 23.458 8 25 8zm0 19c1.654 0 3 1.346 3 3s-1.346 3-3 3-3-1.346-3-3 1.346-3 3-3zM4.326 20c-1.654 0-3-1.346-3-3s1.346-3 3-3 3 1.346 3 3-1.346 3-3 3zM25 1c1.654 0 3 1.346 3 3s-1.346 3-3 3-3-1.346-3-3 1.346-3 3-3z"/></g></svg>
