<svg xmlns="http://www.w3.org/2000/svg" width="24" height="24" viewBox="0 0 24 24"><rect fill="none" width="24" height="24"/><g fill="#FFF" transform="translate(2 1)"><path d="M19,9 L20,9 L20,19 C20,20.1045695 19.1045695,21 18,21 L2,21 C0.8954305,21 0,20.1045695 0,19 L0,4 C-2.22044605e-16,2.8954305 0.8954305,2 2,2 L13,2 L13,3 L2,3 C1.44771525,3 1,3.44771525 1,4 L1,19 C1,19.5522847 1.44771525,20 2,20 L18,20 C18.5522847,20 19,19.5522847 19,19"/><polygon points="21.1 2.9 19.7 4.4 17.6 2.3 19 .9" opacity=".3"/><polygon points="9.1 15 7 15 7 12.9 16.2 3.7 18.3 5.8" opacity=".3"/></g></svg>