<svg xmlns="http://www.w3.org/2000/svg" width="40" height="40" viewBox="0 0 40 40"><g fill="none" fill-rule="evenodd"><path d="M-5-3h48v48H-5z"/><path fill="#0B1F35" d="M35 37.052A1.95 1.95 0 0 1 33.052 39H2.948A1.95 1.95 0 0 1 1 37.052V6.948A1.95 1.95 0 0 1 2.948 5h19.64V4H2.948A2.951 2.951 0 0 0 0 6.948v30.104A2.95 2.95 0 0 0 2.948 40h30.104A2.95 2.95 0 0 0 36 37.052V17.493h-1v19.559z"/><path fill="#0B1F35" d="M29.385 6.362L11 24.747l.01.01V29h4.243l-.01-.01 18.384-18.385zm2.828-2.828L35.042.705l4.242 4.243-2.828 2.828z" opacity=".3"/></g></svg>
