<svg width="36" height="36" viewBox="0 0 36 36" fill="none" xmlns="http://www.w3.org/2000/svg"><rect width="36" height="36" fill="none"/><path d="M29.3128 15.3646H30.5924V28.1608C30.5924 29.5742 29.4466 30.72 28.0332 30.72H7.55924C6.14581 30.72 5 29.5742 5 28.1608V8.96647C5 7.55304 6.14581 6.40723 7.55924 6.40723H21.6351V7.68685H7.55924C6.85253 7.68685 6.27962 8.25975 6.27962 8.96647V28.1608C6.27962 28.8675 6.85253 29.4404 7.55924 29.4404H28.0332C28.7399 29.4404 29.3128 28.8675 29.3128 28.1608" fill="white"/><path opacity="0.3" d="M32 7.55924L30.2085 9.47867L27.5213 6.79147L29.3128 5L32 7.55924Z" fill="white"/><path opacity="0.3" d="M16.6446 23.0427H13.9574V20.3555L25.7299 8.58301L28.4171 11.2702L16.6446 23.0427Z" fill="white"/></svg>