<svg xmlns="http://www.w3.org/2000/svg" width="24" height="24" viewBox="0 0 24 24"><g fill="none" fill-rule="evenodd"><path d="M0 1h24v24H0z"/><path fill="#0B1F35" d="M23 7h-6.034L19.6 4.366a2 2 0 0 0 0-2.825 2 2 0 0 0-2.826 0L11.314 7H1a1 1 0 0 0-1 1v3a1 1 0 0 0 1 1h1.04l1 12h17.92l1-12H23a1 1 0 0 0 1-1V8a1 1 0 0 0-1-1zm-5.52-4.752a.996.996 0 0 1 1.412 0 .999.999 0 0 1 0 1.411l-7.058 7.058a.98.98 0 0 1-.659.283h-.089a.993.993 0 0 1-.662-.283 1 1 0 0 1 0-1.412l7.056-7.057zM1.957 11H1V8h9.314l-.597.598A1.998 1.998 0 0 0 9.403 11H1.957zM20.04 23H3.96l-.917-11h8.005c.027.001.055.008.082.008.027 0 .054-.007.082-.008h9.745l-.917 11zM23 11H12.966l3-3H23v3z"/><path fill="#0B1F35" d="M8 14h2v7H8zm6 0h2v7h-2z" opacity=".3"/></g></svg>