<svg xmlns="http://www.w3.org/2000/svg" width="34" height="33" viewBox="0 0 34 33"><g fill="none" fill-rule="evenodd"><path d="M-1-1h36v36H-1z"/><path fill="#0B1F35" d="M1.248 16.036h.807l2 16.964h25.889l2-16.964h.807a1.25 1.25 0 0 0 1.248-1.249v-4.49a1.25 1.25 0 0 0-1.248-1.249h-8.918L28.2 4.682a2.721 2.721 0 0 0 .804-1.939A2.72 2.72 0 0 0 28.2.804c-1.035-1.037-2.843-1.037-3.878 0l-8.245 8.244H1.248A1.25 1.25 0 0 0 0 10.297v4.49c0 .689.56 1.249 1.248 1.249zM29.056 32H4.944L3.062 16.036h12.494c.047.002.092.014.14.014.048 0 .093-.011.14-.014h15.101L29.056 32zm3.696-21.952c.137 0 .248.111.248.249v4.49a.248.248 0 0 1-.248.249H17.846l4.988-4.988h9.918zm-7.723-8.537A1.732 1.732 0 0 1 26.261 1c.466 0 .903.182 1.232.511.329.329.511.767.511 1.231 0 .466-.182.903-.511 1.232L22.42 9.047h-.004v.004l-5.487 5.487c-.657.658-1.805.659-2.464 0a1.744 1.744 0 0 1 0-2.465L25.029 1.511zM1 10.297c0-.138.111-.249.248-.249h13.829l-1.319 1.319a2.737 2.737 0 0 0-.171 3.669H1.248A.248.248 0 0 1 1 14.787v-4.49z"/><path fill="#0B1F35" d="M11 19h3v10h-3zm9 0h3v10h-3z" opacity=".3"/></g></svg>