<svg xmlns="http://www.w3.org/2000/svg" width="46" height="44" viewBox="0 0 46 44"><g fill="none" fill-rule="evenodd"><path d="M-1-2h48v48H-1z"/><path fill="#FFF" d="M1.479 20h2.495l3.087 24H38.94l3.087-24h2.495c.842 0 1.478-.607 1.478-1.414v-5.869c0-.811-.632-1.717-1.479-1.717H32.368l5.025-5.025A3.474 3.474 0 0 0 38.418 3.5c0-.936-.364-1.814-1.025-2.475-1.322-1.322-3.627-1.321-4.949 0L22.468 11H1.479C.632 11 0 11.906 0 12.717v5.869C0 19.393.636 20 1.479 20zm36.582 23H7.939L4.982 20h14.846a3.5 3.5 0 0 0 1.654.433c.572 0 1.139-.155 1.655-.433h17.881l-2.957 23zm6.46-31c.194 0 .479.378.479.717v5.869c0 .284-.248.414-.479.414H24.368l6.999-7h13.154zM33.15 1.732A2.484 2.484 0 0 1 34.918 1c.667 0 1.295.26 1.768.732.473.472.732 1.1.732 1.768 0 .668-.26 1.296-.732 1.768L23.251 18.703a2.505 2.505 0 0 1-3.536 0 2.484 2.484 0 0 1-.732-1.769c0-.667.26-1.295.732-1.768L33.15 1.732zM1 12.717c0-.339.285-.717.479-.717h19.989l-2.46 2.46a3.477 3.477 0 0 0-.337 4.54H1.479C1.248 19 1 18.87 1 18.586v-5.869z"/><path fill="#FFF" d="M15 24h4v14h-4zm12 0h4v14h-4z" opacity=".3"/></g></svg>