<svg xmlns="http://www.w3.org/2000/svg" width="16" height="21" viewBox="0 0 16 21"><path fill="#FFF" d="M4.478 13.992c0-.073.808-2.276.881-2.497h5.287c.073.22.881 2.423.881 2.497.073.147.22.147.294.147.147 0 1.983-.808 2.13-.808.073-.073.073-.22.073-.294-.073-.294-3.672-10.281-3.818-10.721C9.839 1.288 9.398.26 8.003.26c-1.395 0-1.836.955-2.13 2.056-.147.514-3.672 10.354-3.819 10.721-.073.147 0 .294.073.294.147 0 2.056.808 2.13.808.074 0 .221-.073.221-.147zM8.003 3.491l1.909 5.507H6.24l1.763-5.507zM.974 18.237v2.526c0 .079.079.237.237.237H14.79c.079 0 .237-.079.237-.237v-2.526c0-.079-.079-.237-.237-.237H1.211c-.079 0-.237.079-.237.237z"/></svg>