<svg xmlns="http://www.w3.org/2000/svg" width="30" height="30" version="1" viewBox="0 0 30 30"><path fill="#EE3424" d="M15.003 1.347c1.86 0 2.448 1.371 2.937 2.741.196.587 4.993 13.903 5.091 14.295 0 .098 0 .294-.098.392-.196 0-2.644 1.077-2.839 1.077-.098 0-.294 0-.392-.196 0-.098-1.077-3.035-1.175-3.329h-7.05c-.098.294-1.175 3.231-1.175 3.329 0 .098-.196.196-.294.196-.098 0-2.644-1.077-2.839-1.077-.098 0-.196-.196-.098-.392.196-.49 4.896-13.61 5.091-14.295.394-1.468.981-2.741 2.841-2.741zM5.947 25c-.105 0-.316.105-.316.316v3.368c.001.105.106.316.316.316h18.105c.105 0 .316-.105.316-.316v-3.368c0-.105-.105-.316-.316-.316H5.947zm9.056-19.345l-2.35 7.343h4.896l-2.546-7.343z"/></svg>