<svg xmlns="http://www.w3.org/2000/svg" width="30" height="30" version="1" viewBox="0 0 30 30"><path fill="#0B1F35" d="M5.947 29h18.105c.105 0 .316-.105.316-.316v-3.368c0-.105-.105-.316-.316-.316H5.947c-.105 0-.316.105-.316.316v3.368c.001.105.106.316.316.316zm6.217-24.912c-.196.685-4.896 13.805-5.091 14.295-.098.196 0 .392.098.392.196 0 2.742 1.077 2.839 1.077s.294-.098.294-.196 1.077-3.035 1.175-3.329h7.05c.098.294 1.175 3.231 1.175 3.329.098.196.294.196.392.196.196 0 2.644-1.077 2.839-1.077.098-.098.098-.294.098-.392-.098-.392-4.896-13.707-5.091-14.295-.49-1.371-1.077-2.742-2.937-2.742-1.862.001-2.449 1.274-2.841 2.742zm5.385 8.91h-4.896l2.35-7.343 2.546 7.343z"/></svg>