<svg xmlns="http://www.w3.org/2000/svg" width="24" height="24" version="1" viewBox="0 0 24 24"><path fill="#EE3424" d="M12.002 1.26c1.395 0 1.836 1.028 2.203 2.056.147.441 3.745 10.427 3.819 10.721 0 .073 0 .22-.073.294-.147 0-1.983.808-2.13.808-.073 0-.22 0-.294-.147 0-.073-.808-2.276-.881-2.497H9.359c-.073.22-.881 2.423-.881 2.497 0 .073-.147.147-.22.147-.073 0-1.983-.808-2.13-.808-.073 0-.147-.147-.073-.294.146-.367 3.671-10.207 3.818-10.721.294-1.101.734-2.056 2.129-2.056zM5.211 19c-.079 0-.237.079-.237.237v2.526c0 .079.079.237.237.237H18.79c.079 0 .237-.079.237-.237v-2.526c0-.079-.079-.237-.237-.237H5.211zm6.791-14.509L10.24 9.999h3.672l-1.91-5.508z"/></svg>