<svg xmlns="http://www.w3.org/2000/svg" width="36" height="36" version="1" viewBox="0 0 36 36"><path fill="#0B1F35" d="M6.684 35h22.632c.132 0 .395-.132.395-.395v-4.211c0-.132-.132-.395-.395-.395H6.684c-.132 0-.395.132-.395.395v4.211c0 .132.132.395.395.395zm7.771-31.14c-.245.857-6.12 17.257-6.364 17.869-.122.245 0 .49.122.49.245 0 3.427 1.346 3.549 1.346s.367-.122.367-.245 1.346-3.794 1.469-4.161h8.812c.122.367 1.469 4.039 1.469 4.161.122.245.367.245.49.245.245 0 3.305-1.346 3.549-1.346.122-.122.122-.367.122-.49-.122-.49-6.119-17.134-6.364-17.869C21.064 2.147 20.33.433 18.004.433s-3.06 1.592-3.549 3.427zm6.731 11.138h-6.119l2.937-9.179 3.182 9.179z"/></svg>