<svg xmlns="http://www.w3.org/2000/svg" width="17" height="24" viewBox="0 0 17 24"><g fill="none" fill-rule="evenodd"><path d="M-4 0h24v24H-4z"/><path fill="#0B1F35" d="M14.5 9H12v1h2.5c.827 0 1.5.673 1.5 1.5v10c0 .827-.673 1.5-1.5 1.5h-12c-.827 0-1.5-.673-1.5-1.5v-10c0-.827.673-1.5 1.5-1.5H5V9H2.5A2.502 2.502 0 0 0 0 11.5v10C0 22.879 1.121 24 2.5 24h12c1.379 0 2.5-1.121 2.5-2.5v-10c0-1.379-1.121-2.5-2.5-2.5z"/><path fill="#0B1F35" d="M9 16V2.707l3.146 3.147.708-.708L8.5.793 4.146 5.146l.708.708L8 2.707V16z"/></g></svg>
