<svg xmlns="http://www.w3.org/2000/svg" width="34" height="34" viewBox="0 0 34 34"><g fill="none" fill-rule="evenodd"><path d="M-1-1h36v36H-1z"/><path fill="#FFF" d="M8 8h3v3H8zm15 0v6h3V8zm-3 9v3h3v6h3v-9h-3zm-9 3h3v3h-3zm9-9V8h-3v6h-3v-3h-3v3H8v6h3v-3h3v3h3v-3h3v-3zM8 23h3v3H8zm9 3h3v-3h-6v3z" opacity=".3"/><path fill="#FFF" d="M27.5 0h-21C2.9 0 0 2.9 0 6.5v21C0 31.1 2.9 34 6.5 34h21c3.6 0 6.5-2.9 6.5-6.5v-21C34 2.9 31.1 0 27.5 0zM33 27.5c0 3-2.5 5.5-5.5 5.5h-21c-3 0-5.5-2.5-5.5-5.5v-21C1 3.5 3.5 1 6.5 1h21c3 0 5.5 2.5 5.5 5.5v21z"/></g></svg>