<svg xmlns="http://www.w3.org/2000/svg" width="36" height="36" viewBox="0 0 36 36"><g fill="none" fill-rule="evenodd"><path d="M0 0h36v36H0z"/><g fill="#0B1F35"><path d="M9 9h3v3H9V9zm15 0h3v6h-3V9zm-3 9h6v9h-3v-6h-3v-3zm-9 3h3v3h-3v-3zm9-9v6h-3v3h-3v-3h-3v3H9v-6h3v-3h3v3h3V9h3v3zM9 24h3v3H9v-3zm9 3h-3v-3h6v3h-3z" opacity=".3"/><path d="M28.5 1h-21C3.9 1 1 3.9 1 7.5v21C1 32.1 3.9 35 7.5 35h21c3.6 0 6.5-2.9 6.5-6.5v-21C35 3.9 32.1 1 28.5 1zM34 28.5c0 3-2.5 5.5-5.5 5.5h-21c-3 0-5.5-2.5-5.5-5.5v-21C2 4.5 4.5 2 7.5 2h21c3 0 5.5 2.5 5.5 5.5v21z"/></g></g></svg>