<svg xmlns="http://www.w3.org/2000/svg" width="22" height="22" viewBox="0 0 22 22"><g fill="none" fill-rule="evenodd"><path d="M-1-1h24v24H-1z"/><path fill="#FFF" d="M5 5h2v2H5zm10 2v2h2V5h-2zm-2 4v2h2v4h2v-6h-2zm-6 2h2v2H7zm6-6V5h-2v4H9V7H7v2H5v4h2v-2h2v2h2v-2h2V9zm-8 8h2v2H5zm6 2h2v-2H9v2z" opacity=".3"/><path fill="#FFF" d="M0 4.3v13.4C0 20.1 1.9 22 4.3 22h13.4c2.4 0 4.3-1.9 4.3-4.3V4.3C22 1.9 20.1 0 17.7 0H4.3C1.9 0 0 1.9 0 4.3zM4.3 1h13.4C19.5 1 21 2.5 21 4.3v13.4c0 1.8-1.5 3.3-3.3 3.3H4.3C2.5 21 1 19.5 1 17.7V4.3C1 2.5 2.5 1 4.3 1z"/></g></svg>