<svg xmlns="http://www.w3.org/2000/svg" width="44" height="44" viewBox="0 0 44 44"><g fill="none" fill-rule="evenodd"><path d="M-2-2h48v48H-2z"/><path fill="#FFF" d="M14 14h4v4h-4z"/><path fill="#FFF" d="M10 10h4v4h-4zm20 0v8h4v-8zm-4 12v4h4v8h4V22h-4zm-12 4h4v4h-4zm12-12v-4h-4v8H10v8h4v-4h4v4h4v-4h4v-4zM10 30h4v4h-4zm12 4h4v-4h-8v4z" opacity=".3"/><path fill="#FFF" d="M0 35.7C0 40.3 3.7 44 8.3 44h27.4c4.6 0 8.3-3.7 8.3-8.3V8.3C44 3.7 40.3 0 35.7 0H8.3C3.7 0 0 3.7 0 8.3v27.4zM1 8.3C1 4.3 4.3 1 8.3 1h27.4c4 0 7.3 3.3 7.3 7.3v27.4c0 4-3.3 7.3-7.3 7.3H8.3c-4 0-7.3-3.3-7.3-7.3V8.3z"/></g></svg>