<svg xmlns="http://www.w3.org/2000/svg" width="48" height="48" viewBox="0 0 48 48"><g fill="none" fill-rule="evenodd"><polygon points="0 0 48 0 48 48 0 48"/><path fill="#FFF" fill-rule="nonzero" d="M12,12 L16,12 L16,16 L12,16 L12,12 Z M16,16 L20,16 L20,20 L16,20 L16,16 Z M32,12 L32,20 L36,20 L36,12 L32,12 Z M28,24 L28,28 L32,28 L32,36 L36,36 L36,24 L32,24 L28,24 Z M16,28 L20,28 L20,32 L16,32 L16,28 Z M28,16 L28,12 L24,12 L24,20 L12,20 L12,28 L16,28 L16,24 L20,24 L20,28 L24,28 L24,24 L28,24 L28,20 L28,16 Z M12,32 L16,32 L16,36 L12,36 L12,32 Z M24,36 L28,36 L28,32 L20,32 L20,36 L24,36 Z" opacity=".3"/><path fill="#FFF" fill-rule="nonzero" d="M2,37.7 C2,42.3 5.7,46 10.3,46 L37.7,46 C42.3,46 46,42.3 46,37.7 L46,10.3 C46,5.7 42.3,2 37.7,2 L10.3,2 C5.7,2 2,5.7 2,10.3 L2,37.7 Z M3,10.3 C3,6.3 6.3,3 10.3,3 L37.7,3 C41.7,3 45,6.3 45,10.3 L45,37.7 C45,41.7 41.7,45 37.7,45 L10.3,45 C6.3,45 3,41.7 3,37.7 L3,10.3 Z"/></g></svg>