<svg xmlns="http://www.w3.org/2000/svg" width="48" height="48" viewBox="0 0 48 48"><g fill="none" fill-rule="evenodd"><path d="M0 0h48v48H0z"/><g fill="#0B1F35"><path d="M16 16h4v4h-4v-4zm-4-4h4v4h-4v-4zm20 0h4v8h-4v-8zm-4 12h8v12h-4v-8h-4v-4zm-12 4h4v4h-4v-4zm12-12v8h-4v4h-4v-4h-4v4h-4v-8h12v-8h4v4zM12 32h4v4h-4v-4zm12 4h-4v-4h8v4h-4z" opacity=".3"/><path d="M2 37.7c0 4.6 3.7 8.3 8.3 8.3h27.4c4.6 0 8.3-3.7 8.3-8.3V10.3C46 5.7 42.3 2 37.7 2H10.3C5.7 2 2 5.7 2 10.3v27.4zm1-27.4C3 6.3 6.3 3 10.3 3h27.4c4 0 7.3 3.3 7.3 7.3v27.4c0 4-3.3 7.3-7.3 7.3H10.3c-4 0-7.3-3.3-7.3-7.3V10.3z"/></g></g></svg>