<svg xmlns="http://www.w3.org/2000/svg" width="24" height="24" version="1" viewBox="0 0 24 24"><path fill="#DF493A" d="M21.891 7.236c1.797-2.051.391-3.199-1.842-3.166 2.172.237 1.945.817 1.945 1.282 0 .468-.936 1.287-2.107 2.341 0 0-1.989 1.872-3.511 3.16-1.521 1.287-6.085 5.266-7.022 5.968-.936.702-4.447 3.277-4.681 3.511-.198.099-.644.525-.99.446.444.291 1.051.241 1.668.005.366.281.749.543 1.154.778C8.062 22.489 10.014 23 12 23c1.971 0 3.822-.485 5.5-1.44A11.1 11.1 0 0 0 23 12c0-1.676-.405-3.295-1.109-4.764zm-9.026-.246c0-.234.117-.468-.234-.585-.351-.234-1.404-.819-1.638-1.053-.234-.117-.234-.819.468-.936.661-.11 5.682-.531 8.121-.384a10.942 10.942 0 0 0-2.069-1.584C15.685 1.487 13.804 1 11.922 1 9.951 1 8.1 1.485 6.431 2.435 3.03 4.537 1 8.113 1 12c0 2.771 1.066 5.4 2.882 7.408C4.889 17.913 10.92 9.286 11.46 8.746c0 0 1.288-1.639 1.405-1.756z"/><path fill="#FFF" d="M4.673 20.332c.234-.234 3.745-2.809 4.681-3.511.936-.702 5.5-4.681 7.022-5.968 1.521-1.287 3.511-3.16 3.511-3.16 1.17-1.053 2.107-1.872 2.107-2.341 0-.465.228-1.044-1.945-1.282l-.045-.005a9.008 9.008 0 0 0-.422-.033c-2.439-.147-7.46.274-8.121.384-.702.117-.702.819-.468.936.234.234 1.287.819 1.638 1.053.351.117.234.351.234.585-.117.117-1.404 1.755-1.404 1.755-.541.541-6.571 9.167-7.579 10.662a4.486 4.486 0 0 0-.145.222c-.234.351-.585.702-.234 1.053a.348.348 0 0 0 .18.095c.345.08.792-.347.99-.445z"/></svg>