<svg width="12" height="12" viewBox="0 0 12 12" fill="none" xmlns="http://www.w3.org/2000/svg"><rect width="12" height="12" fill="none"/><path fill-rule="evenodd" clip-rule="evenodd" d="M7.70634 4.93324H9.28187L9.28186 4.93323C9.82483 4.93323 10.2668 5.37516 10.2668 5.91813C10.2668 5.99261 10.2582 6.06709 10.2415 6.13975L9.67223 8.75226C9.51416 9.32961 8.98525 9.733 8.38629 9.733L5.73342 9.73326C4.99826 9.73326 4.40008 9.13508 4.40008 8.39992V5.60928C4.40008 5.27959 4.52144 4.96292 4.74201 4.71735L6.86858 2.35484C6.93498 2.28114 7.03603 2.25067 7.13134 2.27463L7.52301 2.37254C7.7665 2.43322 7.96337 2.60015 8.06311 2.83036C8.16285 3.06031 8.15035 3.31786 8.02848 3.53687L7.47301 4.53714C7.40634 4.65745 7.45322 4.7624 7.4764 4.80173C7.49957 4.84131 7.56858 4.93324 7.70634 4.93324ZM1.7334 9.2V4.93333C1.7334 4.63877 1.97217 4.4 2.26673 4.4H3.86673V9.73333H2.26673C1.97217 9.73333 1.7334 9.49453 1.7334 9.2Z" fill="#0B1F35"/></svg>