<svg xmlns="http://www.w3.org/2000/svg" width="30" height="30" version="1" viewBox="0 0 30 30"><path fill="#1A1F71" d="M13.155 18.85h-2.263l1.415-8.694h2.263zm-4.167-8.694l-2.158 5.98-.255-1.288-.762-3.91s-.092-.783-1.074-.783H1.172l-.042.148s1.091.227 2.368.994l1.967 7.553h2.358l3.601-8.695H8.988zm17.804 8.694h2.078l-1.812-8.695h-1.82c-.84 0-1.045.648-1.045.648l-3.376 8.047h2.359l.472-1.291h2.878l.266 1.291zm-2.491-3.075l1.189-3.254.669 3.254h-1.858zm-3.306-3.529l.323-1.867S20.321 10 19.282 10c-1.123 0-3.791.491-3.791 2.878 0 2.246 3.131 2.274 3.131 3.454s-2.808.969-3.735.225l-.337 1.952s1.011.491 2.555.491c1.544 0 3.875-.8 3.875-2.977 0-2.261-3.159-2.471-3.159-3.454 0-.983 2.205-.856 3.174-.323z"/><path fill="#FDBB0A" d="M6.574 14.848l-.762-3.91s-.092-.783-1.074-.783H1.172l-.042.148s1.715.355 3.36 1.687c1.572 1.272 2.084 2.858 2.084 2.858z"/></svg>