<svg xmlns="http://www.w3.org/2000/svg" width="24" height="24" version="1" viewBox="0 0 24 24"><path fill="#1A1F71" d="M10.565 15.852h-1.76l1.1-6.763h1.761zM7.324 9.089L5.645 13.74l-.199-1.002-.592-3.04s-.072-.609-.835-.609H1.245l-.033.115s.849.176 1.842.773l1.53 5.875h1.834l2.801-6.763H7.324zm13.847 6.763h1.617l-1.409-6.763h-1.415c-.654 0-.813.504-.813.504l-2.625 6.259h1.835l.367-1.004h2.238l.205 1.004zm-1.937-2.392l.925-2.531.52 2.531h-1.445zm-2.572-2.745l.251-1.452s-.775-.295-1.583-.295c-.874 0-2.948.382-2.948 2.239 0 1.747 2.435 1.769 2.435 2.686s-2.184.753-2.905.175l-.262 1.518s.786.382 1.987.382 3.014-.622 3.014-2.315c0-1.758-2.457-1.922-2.457-2.686 0-.765 1.715-.667 2.468-.252z"/><path fill="#FDBB0A" d="M5.447 12.739l-.593-3.041s-.072-.609-.835-.609H1.245l-.033.115s1.334.276 2.613 1.312c1.223.989 1.622 2.223 1.622 2.223z"/></svg>