<svg xmlns="http://www.w3.org/2000/svg" width="36" height="36" version="1" viewBox="0 0 36 36"><path fill="#1A1F71" d="M15.95 22.834h-2.515l1.572-9.661h2.516zm-4.631-9.661l-2.398 6.645-.284-1.431v.001l-.846-4.344s-.102-.87-1.193-.87H2.635l-.046.164s1.213.252 2.631 1.105l2.185 8.393h2.62l4.002-9.661h-2.708zm19.783 9.661h2.309l-2.014-9.661h-2.022c-.934 0-1.161.72-1.161.72l-3.751 8.941h2.621l.524-1.435h3.197l.297 1.435zm-2.767-3.418l1.322-3.615.743 3.615h-2.065zm-3.674-3.92l.359-2.075S23.912 13 22.758 13c-1.248 0-4.212.546-4.212 3.198 0 2.496 3.479 2.527 3.479 3.838s-3.12 1.076-4.15.25l-.375 2.168s1.123.546 2.839.546 4.306-.889 4.306-3.307c0-2.512-3.51-2.746-3.51-3.838s2.449-.952 3.526-.359z"/><path fill="#FDBB0A" d="M8.638 18.387l-.846-4.344s-.102-.87-1.193-.87H2.635l-.046.164s1.905.395 3.733 1.874c1.746 1.414 2.316 3.176 2.316 3.176z"/></svg>