<svg xmlns="http://www.w3.org/2000/svg" width="30" height="30" version="1" viewBox="0 0 30 30"><path fill="#0B1F35" d="M10.892 18.85h2.263l1.415-8.694h-2.263zm14.346-8.694c-.84 0-1.045.648-1.045.648l-3.376 8.047h2.359l.472-1.291h2.878l.266 1.291h2.078l-1.812-8.695h-1.82zm-.937 5.619l1.189-3.254.669 3.254h-1.858zm-9.414.782l-.337 1.952s1.011.491 2.555.491c1.544 0 3.875-.8 3.875-2.977 0-2.261-3.159-2.471-3.159-3.454 0-.983 2.204-.857 3.173-.323l.323-1.867S20.32 10 19.281 10c-1.123 0-3.791.491-3.791 2.878 0 2.247 3.131 2.274 3.131 3.454.001 1.18-2.807.969-3.734.225zm-9.074-5.618s-.092-.783-1.074-.783H1.172l-.042.147.06.014.048.012c.034.009.081.021.132.036l.101.029.191.06.134.044c.106.037.223.08.348.129l.116.047c.121.05.249.105.382.167.06.028.123.06.185.091a9.498 9.498 0 0 1 .541.289c.044.025.089.055.133.082l1.964 7.545h2.358l3.601-8.695H8.988l-2.158 5.98-.255-1.288-.762-3.906z"/></svg>