<svg xmlns="http://www.w3.org/2000/svg" width="24" height="24" viewBox="0 0 24 24"><g fill="none" fill-rule="evenodd"><path d="M0 0h24v24H0z"/><path fill="#FFF" d="M8.094 15.384L9.266 8.62h1.877L9.97 15.384H8.094zM21.497 8.62L23 15.384h-1.724l-.22-1.004h-2.385l-.391 1.004h-1.956l2.798-6.26s.17-.504.867-.504h1.508zm-2.286 4.372l.986-2.532.554 2.532h-1.54zm-7.805.608c.768.579 3.096.743 3.096-.174s-2.595-.94-2.595-2.687c0-1.857 2.21-2.239 3.142-2.239.861 0 1.687.295 1.687.295l-.267 1.452c-.803-.415-2.63-.514-2.63.251 0 .764 2.618.928 2.618 2.687 0 1.693-1.932 2.315-3.213 2.315-1.28 0-2.118-.382-2.118-.382l.28-1.518zM3.882 9.23l.631 3.04.212 1.002 1.79-4.652h2.02L5.55 15.384H3.594L1.966 9.515c-.038-.02-.076-.045-.112-.065-.059-.03-.117-.062-.174-.09a7.048 7.048 0 0 0-.275-.135c-.051-.024-.102-.049-.151-.07a9.277 9.277 0 0 0-.32-.13l-.092-.037a9.681 9.681 0 0 0-.29-.1l-.11-.036-.16-.047L.2 8.783l-.112-.028-.038-.009L0 8.735l.035-.115h2.957c.813 0 .89.61.89.61z" opacity=".4"/></g></svg>