<svg xmlns="http://www.w3.org/2000/svg" width="48" height="48" viewBox="0 0 48 48"><path fill="#0B1F35" fill-rule="evenodd" d="M17.913 30.445h3.354l2.097-12.881h-3.355zm18.9-1.913h4.263l.393 1.913h3.079l-2.684-12.881h-2.696c-1.245 0-1.548.96-1.548.96l-5.001 11.921h3.494l.7-1.913zm2.728-7.464l.991 4.82h-2.753l1.762-4.82zm-15.709 5.979l-.499 2.892s1.498.728 3.786.728c2.288 0 5.741-1.186 5.741-4.41 0-3.349-4.68-3.661-4.68-5.117s3.265-1.27 4.701-.479l.479-2.766s-1.477-.562-3.016-.562c-1.664 0-5.616.728-5.616 4.264 0 3.328 4.639 3.37 4.639 5.118 0 1.748-4.162 1.434-5.535.332zM10.39 18.724s-.137-1.16-1.591-1.16H3.513l-.061.219s.043.009.085.02l.082.021c.049.012.116.03.186.05l.154.046c.082.024.18.056.28.09a13.546 13.546 0 0 1 .699.25l.198.081c.176.072.361.154.555.243.088.041.182.09.273.135a14.467 14.467 0 0 1 .801.429c.066.037.132.083.198.121l2.91 11.178h3.494l5.336-12.882h-3.61l-3.197 8.86-.379-1.908-1.128-5.793z"/></svg>
