<svg xmlns="http://www.w3.org/2000/svg" width="18" height="18" viewBox="0 0 18 18"><g fill="none" fill-rule="evenodd"><path d="M0 0h18v18H0z"/><path fill="#0B1F35" fill-rule="nonzero" d="M6.718 11.417h1.256l.787-4.831H7.504l-.786 4.831zm7.97-4.831c-.468 0-.582.36-.582.36l-1.874 4.47h1.31l.263-.717h1.598l.149.717h1.154L15.7 6.586h-1.012zm-.522 3.122l.662-1.808.372 1.808h-1.034zm-5.23.435l-.187 1.084s.561.273 1.42.273c.858 0 2.153-.445 2.153-1.654 0-1.256-1.754-1.373-1.754-1.919s1.225-.476 1.763-.179l.178-1.037s-.553-.211-1.13-.211c-.624 0-2.106.273-2.106 1.599 0 1.248 1.739 1.264 1.739 1.919s-1.56.538-2.075.125zm-5.04-3.122s-.051-.435-.597-.435H1.317l-.023.082.033.008.026.006.074.02.163.051.073.024c.06.02.125.045.194.072l.065.027c.067.027.137.058.212.093.033.015.067.033.102.05.101.05.201.103.3.16.025.014.05.031.075.046l1.09 4.192h1.31l2.002-4.83H5.66l-1.2 3.322-.141-.716-.423-2.172z"/></g></svg>