<svg xmlns="http://www.w3.org/2000/svg" width="16" height="6" viewBox="0 0 16 6"><path fill="#FFF" fill-rule="evenodd" d="M5.718 5.255h1.257L7.761.692H6.504zm7.97-4.563c-.467 0-.581.34-.581.34l-1.875 4.222h1.311l.262-.677h1.599l.148.677h1.155L14.7.692h-1.012zm-.521 2.949l.661-1.708.372 1.708h-1.033zm-5.23.411L7.75 5.076s.561.257 1.42.257c.858 0 2.153-.42 2.153-1.562 0-1.186-1.755-1.296-1.755-1.812s1.225-.45 1.763-.17L11.51.81s-.554-.199-1.131-.199c-.624 0-2.106.258-2.106 1.51 0 1.179 1.739 1.194 1.739 1.813 0 .618-1.56.508-2.075.118zM2.896 1.103s-.051-.41-.597-.41H.318L.294.77l.034.007.025.006.074.019.057.016c.032.008.069.02.107.032l.073.023C.723.892.788.915.857.94l.065.026c.067.026.138.055.212.088.033.014.068.031.102.047.06.028.121.058.184.09l.116.061.075.044 1.091 3.959h1.31L6.013.693H4.66L3.461 3.831l-.142-.676-.423-2.052z"/></svg>