<svg width="36" height="36" viewBox="0 0 36 36" xmlns="http://www.w3.org/2000/svg">
  <g fill="none" fill-rule="evenodd">
    <path d="M0 0h36v36H0z"/>
    <path d="M12.847 22.833h2.514l1.573-9.66H14.42l-1.573 9.66zm15.94-9.66c-.934 0-1.16.72-1.16.72l-3.753 8.94h2.622l.524-1.433h3.198l.295 1.434h2.31l-2.014-9.66h-2.023zm-1.04 6.244l1.32-3.616.743 3.617h-2.064zm-10.46.87c1.03.825 4.15 1.06 4.147-.25 0-1.313-3.478-1.343-3.478-3.84 0-2.65 2.964-3.197 4.212-3.197 1.154 0 2.262.42 2.262.42l-.36 2.076c-1.076-.594-3.524-.734-3.524.358 0 1.093 3.51 1.326 3.51 3.838 0 2.42-2.59 3.308-4.306 3.308-1.716 0-2.84-.546-2.84-.546l.376-2.168zM7.202 14.042l.847 4.34.283 1.43 2.398-6.643h2.708l-4 9.66h-2.62L4.633 14.45c-.048-.03-.098-.064-.147-.09-.08-.047-.158-.09-.236-.134-.123-.067-.246-.13-.364-.188l-.206-.102c-.148-.068-.29-.13-.424-.185-.045-.02-.087-.037-.13-.053-.138-.055-.268-.103-.386-.144l-.15-.05-.21-.065c-.04-.01-.08-.022-.113-.032-.057-.017-.11-.03-.147-.04l-.053-.014L2 13.337l.047-.164H6.01c1.09 0 1.193.87 1.193.87z" fill="#FFF"/>
  </g>
</svg>
