<?xml version="1.0" encoding="UTF-8"?>
<svg width="24px" height="24px" viewBox="0 0 24 24" version="1.1" xmlns="http://www.w3.org/2000/svg" xmlns:xlink="http://www.w3.org/1999/xlink">
    <!-- Generator: Sketch 48.2 (47327) - http://www.bohemiancoding.com/sketch -->
    <title>icon_card-visa_m_white</title>
    <desc>Created with Sketch.</desc>
    <defs></defs>
    <g id="cards" stroke="none" stroke-width="1" fill="none" fill-rule="evenodd" transform="translate(-268.000000, -302.000000)">
        <g id="icon_card_visa__m" transform="translate(268.000000, 302.000000)">
            <rect id="ph" x="0" y="0" width="24" height="24"></rect>
            <polygon id="Shape" fill="#FFFFFF" points="8.09375724 15.3839834 9.96982898 15.3839834 11.1434398 8.62001715 9.26630208 8.62001715"></polygon>
            <path d="M21.4970107,8.62001715 L23,15.3839834 L21.2763591,15.3839834 L21.0567734,14.37984 L18.6711776,14.37984 L18.279974,15.3839834 L16.3239561,15.3839834 L19.1220744,9.12408916 C19.1220744,9.12408916 19.2915605,8.62001715 19.9886917,8.62001715 L21.4970107,8.62001715 Z M19.2105483,12.9916417 L20.7508458,12.9916417 L20.1965519,10.46028 L19.2105483,12.9916417 Z" id="Combined-Shape" fill="#FFFFFF"></path>
            <path d="M11.4056634,13.5997285 L11.1263846,15.1179454 C11.1263846,15.1179454 11.9642212,15.5 13.2444269,15.5 C14.5246327,15.5 16.4571998,14.8779111 16.4571998,13.1846692 C16.4571998,11.4264181 13.838161,11.2623946 13.838161,10.4982855 C13.838161,9.73317617 15.666265,9.83219031 16.4689252,10.2472496 L16.7364787,8.79504215 C16.7364787,8.79504215 15.9103675,8.5 15.04908,8.5 C14.1174399,8.5 11.9066599,8.88205458 11.9066599,10.7393199 C11.9066599,12.4865695 14.5022478,12.5085727 14.5022478,13.4257037 C14.5022478,14.3428347 12.1742133,14.1788113 11.4056634,13.5997285 L11.4056634,13.5997285 Z" id="Shape" fill="#FFFFFF"></path>
            <path d="M3.88218937,9.22910416 C3.88218937,9.22910416 3.80544098,8.62001715 2.99212124,8.62001715 L0.0351763452,8.62001715 L0,8.73503358 C0,8.73503358 0.0245168466,8.74003429 0.0500996431,8.74603515 C0.0596931918,8.74803543 0.0756824396,8.75203601 0.0884738379,8.75503643 C0.117254484,8.76203743 0.156694629,8.77203886 0.200398573,8.78304043 C0.224915419,8.79004143 0.252630115,8.79704243 0.281410761,8.80504358 C0.328312555,8.81804544 0.383741947,8.83504786 0.44130324,8.85205029 C0.477545535,8.86405201 0.51272188,8.87405344 0.552162024,8.88705529 C0.640635862,8.91605944 0.737637299,8.95006429 0.842100385,8.98806972 C0.871946981,9.00007144 0.902859526,9.01207315 0.933772072,9.02407487 C1.03503731,9.06308044 1.14163229,9.10708673 1.25355703,9.15509358 C1.30259072,9.17609659 1.35375631,9.20110016 1.40492191,9.22510359 C1.4944617,9.26610944 1.58613338,9.31111587 1.67993697,9.35912273 C1.73749826,9.38812688 1.79505955,9.4191313 1.8536868,9.45013573 C1.88992909,9.47013859 1.92830329,9.49414202 1.96561153,9.51514502 L3.59438291,15.3839834 L5.54933494,15.3839834 L8.53506048,8.62001715 L6.51508551,8.62001715 L4.7253557,13.2716817 L4.51323168,12.2695385 L4.51323168,12.2695385 L3.88218937,9.22910416 L3.88218937,9.22910416 Z" id="Shape" fill="#FFFFFF"></path>
        </g>
    </g>
</svg>