<svg width="24" height="24" viewBox="0 0 24 24" xmlns="http://www.w3.org/2000/svg"><g fill="none" fill-rule="evenodd"><path d="M0 0h24v24H0z"/><path fill="#FFF" d="M8.094 15.384H9.97l1.173-6.764H9.266zM21.497 8.62L23 15.384h-1.724l-.22-1.004h-2.385l-.391 1.004h-1.956l2.798-6.26s.17-.504.867-.504h1.508zm-2.286 4.372h1.54l-.554-2.532-.986 2.532zM11.406 13.6l-.28 1.518s.838.382 2.118.382c1.28 0 3.213-.622 3.213-2.315 0-1.759-2.619-1.923-2.619-2.687 0-.765 1.828-.666 2.63-.25l.268-1.453S15.91 8.5 15.05 8.5c-.932 0-3.142.382-3.142 2.24 0 1.747 2.595 1.769 2.595 2.686s-2.328.753-3.096.174zM3.882 9.23s-.077-.61-.89-.61H.035L0 8.735l.05.011.038.009.112.028.081.022.16.047.111.035c.089.03.186.063.29.101l.092.036c.101.04.208.083.32.131.049.021.1.046.15.07.09.041.182.086.276.134l.174.091.112.065 1.628 5.869H5.55L8.535 8.62h-2.02l-1.79 4.652-.212-1.002-.63-3.04z"/></g></svg>