<svg xmlns="http://www.w3.org/2000/svg" width="36" height="36" version="1" viewBox="0 0 36 36"><path fill="#E9883C" d="M25.606 29.606v-.451l.225.338-.225.113zm0-3.381v-.901l.451.451-.451.45zm0-2.591V22.62l.676-1.239 1.915 1.127-1.127 1.915-1.464-.789zm0-10.254v-1.014l1.465-.901 1.127 1.915-1.915 1.127-.677-1.127zm0-2.704v-.789l.451.338-.451.451zm0-3.831v-.451l.113.113-.113.338zm3.267-.563l-1.239-1.014-1.014 1.239 1.239 1.014 1.014-1.239zm3.381 4.394l-.789-1.352-1.352.789.789 1.352 1.352-.789zm-3.043-.789L27.972 8.31l-1.577 1.239 1.239 1.69 1.577-1.352zm3.155 6.423l1.577-.225-.338-1.577-1.577.225.338 1.577zm-5.408 1.239l2.141-.338-.338-2.141-2.141.338.338 2.141zm4.281-3.267l-.676-1.915-1.915.676.676 1.915 1.915-.676zm1.127 5.521l-.225 1.577 1.577.225.225-1.577-1.577-.225zm-3.267-1.014l-2.141-.338-.338 2.141 2.141.338.338-2.141zm2.704-1.803h-2.028v2.028h2.028v-2.028zm-1.69 8.901l1.352.789.789-1.352-1.352-.789-.789 1.352zm1.126-4.056l-1.915-.676-.676 1.915 1.915.676.676-1.915zm-4.619 7.775l1.014 1.239 1.239-1.014-1.014-1.239-1.239 1.014zm-.226-3.268l1.577 1.239L29.211 26l-1.577-1.239-1.24 1.577zM24.141 3.239l-1.465-.563-.563 1.465 1.465.563.563-1.465zm1.465 3.155v.451l-.789 1.465-1.69-1.014.901-1.69 1.578.788zm0 3.493v.901l-1.014 1.127-1.69-1.465 1.465-1.69 1.239 1.127zm0 2.479v1.014l-.451-.789.451-.225zm0 10.366v.901l-.451-.225.451-.676zm0 2.592v.901l-1.239 1.127-1.465-1.69 1.69-1.465 1.014 1.127zm0 3.831v.451l-1.577.901-1.014-1.69 1.69-1.014.901 1.352zm-15.212.451v-.451l.789-1.465 1.69 1.014-1.014 1.69-1.465-.788zm0-3.381v-.901l1.014-1.239 1.69 1.465-1.465 1.69-1.239-1.015zm0-2.591V22.62l.451.789-.451.225zm0-10.254v-1.014l.451.225-.451.789zm0-2.704v-.789l1.239-1.127 1.465 1.69-1.69 1.465-1.014-1.239zm0-3.831v-.451l1.577-.789 1.014 1.69-1.802 1.015-.789-1.465zm12.395 1.127l-2.141-.789-.789 2.141 2.141.789.789-2.141zm-1.465-3.38l-1.915-.338-.339 2.028 1.915.338.339-2.028zm-6.761 26.816l2.028.338.338-2.028-2.028-.338-.338 2.028zm-2.817 1.353l1.465.563.563-1.465-1.465-.563-.563 1.465zm3.493-3.944l.789-2.141-2.141-.789-.789 2.141 2.141.789zm6.986 3.042l.563 1.465 1.465-.563-.563-1.465-1.465.563zm-1.464-3.042l2.141-.789-.789-2.141-2.141.789.789 2.141zM13.775 4.141l-.563-1.465-1.465.563.563 1.465 1.465-.563zm2.14 5.07l-.788-2.141-2.141.789.789 2.141 2.14-.789zM17.155 34h1.577v-1.577h-1.577V34zm-.338-4.845h2.254v-2.254h-2.254v2.254zm2.253.676l.338 2.028 2.028-.338-.338-1.915-2.028.225zM16.93 6.169l-.338-2.028-2.028.338.338 2.028 2.028-.338zM18.732 2h-1.577v1.577h1.577V2zm.338 4.845h-2.254v2.254h2.254V6.845zm-8.676-.451v.451l-.225-.338.225-.113zm0 3.493v.901l-.451-.563.451-.338zm0 2.479v1.014l-.676 1.24-1.915-1.127 1.127-1.915 1.464.788zm0 10.366v.901l-1.464.902-1.127-1.915 1.915-1.127.676 1.239zm0 2.592v.901l-.451-.451.451-.45zm0 3.831v.451l-.225-.113.225-.338zm-3.267.676l1.239 1.014 1.014-1.239-1.239-1.014-1.014 1.239zm-.338-3.718l1.239 1.577 1.577-1.239-1.239-1.577-1.577 1.239zm-3.043-.789l.789 1.352 1.239-.789-.789-1.352-1.239.789zm3.493-2.366l-.676-1.803-1.915.676.676 1.803 1.915-.676zm-3.605-3.155l-1.577.225.225 1.577 1.577-.225-.225-1.577zm5.408-1.352l-2.141.338.338 2.141 2.141-.338-.338-2.141zm-4.845.563h2.028v-2.028H4.197v2.028zm-.338-4.282l-1.577-.225-.225 1.465 1.577.225.225-1.465zm2.93 2.479l2.141.338.338-2.141-2.141-.338-.338 2.141zm-2.141-2.929l1.915.676.676-1.915-1.915-.676-.676 1.915zm1.127-4.169l-1.24-.789-.789 1.352 1.352.789.677-1.352zm3.831-.451L8.028 8.423 6.789 9.887l1.465 1.352 1.352-1.577zm-.338-3.268L8.254 5.268 7.127 6.282l1.014 1.239 1.127-1.127z"/></svg>