<svg xmlns="http://www.w3.org/2000/svg" width="32" height="32" viewBox="0 0 32 32"><path fill="#FFF" d="M8.845 21.408l-.451-.788v.112l-.676-1.239-1.915 1.127 1.127 1.915 1.464-.901zm-3.943-4.62l2.14-.338.339 2.14-2.14.339zM22.366 6.761l-1.465 1.69 1.691 1.464 1.014-1.126v-.113l.45-.451-.45-.338zM9.859 28.394l1.014-1.69-1.69-1.014-.789 1.465-.225.338.225.113zm-.225-3.155l1.465-1.69-1.691-1.465-1.014 1.24-.45.451.45.45zM5.803 11.493l1.915 1.127.676-1.24.451-.788-.451-.226-1.464-.789zM1.746 8.676l1.353.789.676-1.352-1.24-.789zm18.365-6.534l.564-1.465 1.464.564-.563 1.464zM2.648 12.281l.675-1.915 1.916.676-.676 1.915zm21.183 15.212l-.225-.338-.902-1.352-1.69 1.014 1.014 1.69 1.578-.901zM9.749 30.76l.563-1.464 1.464.563-.563 1.465zM.056 18.029l1.577-.226.226 1.577-1.577.226zM17.859 7.324l.789-2.14 2.141.788L20 8.113zM.056 13.972l1.578.225.225-1.465-1.577-.225zm17.014-9.69l1.916.338.338-2.028-1.916-.339zm-4.507-1.803l2.028-.338.338 2.028-2.028.338zM8.169 4.507l.225.338.789 1.465 1.803-1.014-1.014-1.69-1.578.788zm2.816 1.352l2.141-.789.79 2.141-2.142.79zm.112 20.17l.789-2.142 2.141.79-.789 2.14zm1.466 3.379l.338-2.028 2.028.338-.338 2.028zm9.465-25.802l-.901 1.69 1.69 1.014.789-1.465.112-.338-.112-.113zM9.746 1.239L11.21.676l.563 1.464-1.464.563zm-1.352 7.55v-.113l1.014 1.239 1.691-1.464-1.465-1.69-1.24 1.126-.45.338zm6.423 16.112h2.254v2.254h-2.254zm9.802-20.395l1.014-1.24 1.239 1.014-1.014 1.24zm-.225 19.832l1.24-1.578L27.21 24l-1.24 1.577zM15.155 0h1.578v1.577h-1.578zm11.492 21.07l.676-1.916 1.915.676-.676 1.916zM25.634 9.239l1.577-1.352-1.239-1.577-1.578 1.239zm4.506 10.138l.226-1.577 1.577.226-.225 1.577zm-2.026 4.511l.789-1.352 1.351.789-.788 1.352zm-.339-8.902h2.028v2.028h-2.028zM7.268 4.394L6.254 3.268 5.127 4.282l1.014 1.239zm10.14 25.465l2.029-.338-.338-1.915-2.029.225zm-2.253.564h1.578V32h-1.578zM6.254 9.239l1.352-1.577-1.578-1.239-1.239 1.464zm25.352 3.268l-1.578.225.338 1.578 1.578-.226zm-6.985.9l2.14-.338.339 2.14-2.14.339zm0 5.185l.338-2.14 2.14.337-.337 2.14zM14.817 4.845h2.254v2.254h-2.254zM2.197 14.986h2.028v2.028H2.197zM5.128 27.83l1.014-1.24 1.239 1.014-1.014 1.24zm-.565-8.675l-1.915.676.676 1.803 1.915-.676zm.225 4.958l1.577-1.24 1.24 1.578-1.578 1.24zm.002-8.902l.337-2.14 2.14.338-.337 2.14zm-3.044 8.113l.789 1.352 1.24-.789-.789-1.352zm24.451-2.817l-1.915-1.127-.676 1.24v.112l-.451.676.451.226 1.464.789zm-8.227 4.168l2.142-.79.79 2.142-2.142.789zm8.678-13.633l1.915-.676.676 1.915-1.915.676zm1.465-2.929l1.352-.789.789 1.352-1.352.789zm-4.958 2.479l.451.788.676 1.127 1.915-1.127-1.127-1.915-1.464.901zm-2.93 19.266l1.464-.563.563 1.464-1.464.563zm4.395-2.25l1.239-1.014 1.014 1.24-1.24 1.013zm-1.014-4.284l-1.014-1.127-1.691 1.465 1.465 1.69 1.24-1.127.45-.45z"/></svg>