<svg xmlns="http://www.w3.org/2000/svg" width="18" height="18" version="1" viewBox="0 0 18 18"><path fill="#E9883C" d="M8.429 3.864H9.57v1.141H8.429zM8.674 1.5h.652v.652h-.652zm-2.844.695l.601-.25.25.603-.602.25zM3.466 3.927l.46-.46.462.46-.461.461zM1.947 6.432l.25-.603.602.25-.25.602zM1.5 8.674h.652v.652H1.5zm.446 2.895l.603-.25.25.603-.603.25zm1.52 2.504l.461-.461.461.461-.46.461zm2.364 1.731l.249-.602.602.25-.25.602zm2.844.044h.652v.652h-.652zm2.646-.396l.602-.25.25.603-.603.249zm2.292-1.379l.46-.461.462.46-.461.462zm1.59-2.151l.25-.603.602.25-.25.602zm.646-3.248h.652v.652h-.652zm-.645-2.596l.602-.25.25.603-.603.25zm-1.591-2.151l.46-.461.462.461-.461.461zM11.32 2.549l.249-.603.602.25-.25.602zm-4.04.31l.96-.191.19.96-.96.19zM5.06 3.984l.814-.543.543.813-.813.543zm-1.619 1.89l.544-.813.813.544-.543.813zM2.668 8.24l.191-.96.96.19-.191.96zm0 1.521l.96-.19.19.958-.96.191zm.773 2.366l.813-.544.544.814-.813.543zm1.619 1.888l.544-.813.814.544-.544.813zm2.22 1.125l.191-.958.96.19-.192.96zm2.29-.767l.959-.19.19.959-.959.19zm2.013-.628l.813-.543.544.813-.813.544zm1.62-1.349l.543-.813.813.543-.543.813zm.979-1.867l.19-.96.96.192-.19.959zm0-3.058l.959-.19.19.959-.958.19zm-.98-1.867l.814-.543.543.813-.813.543zm-1.619-1.35l.543-.813.813.543-.543.813zM9.57 3.627l.19-.959.96.19-.19.96zm-1.141 9.368H9.57v1.141H8.429zM6.482 4.463l1.09-.452.452 1.09-1.09.452zm3.495 8.436l1.09-.452.451 1.09-1.09.452zM4.93 5.772l.841-.84.841.84-.84.84zm6.458 6.456l.84-.84.841.84-.84.84zM4.013 7.572l.45-1.088 1.089.45-.45 1.089zm8.434 3.494l.452-1.09 1.09.451-.452 1.09zM3.864 8.429h1.141V9.57H3.864zm9.131 0h1.141V9.57h-1.141zm-8.984 1.999l1.09-.452.452 1.09-1.09.452zm8.436-3.494l1.09-.452.452 1.09-1.09.452zm-7.516 5.295l.84-.841.842.84-.841.841zm6.456-6.458l.841-.84.84.84-.84.841zm-4.904 7.766l.451-1.09 1.09.451-.451 1.09zm3.492-8.436l.452-1.09 1.09.452-.451 1.09z"/></svg>