<svg xmlns="http://www.w3.org/2000/svg" width="30" height="30" version="1" viewBox="0 0 30 30"><path fill="#E9883C" d="M21.655 25.155v-.394l.197.296-.197.098zm0-2.958v-.789l.394.394-.394.395zm0-2.267v-.887l.592-1.085 1.676.986-.986 1.676-1.282-.69zm0-8.972v-.888l1.282-.789.986 1.676-1.676.986-.592-.985zm0-2.366v-.69l.394.296-.394.394zm0-3.353v-.394l.099.099-.099.295zm2.859-.493l-1.084-.887-.887 1.085 1.085.887.886-1.085zm2.958 3.846l-.69-1.183-1.183.69.69 1.183 1.183-.69zm-2.662-.691l-1.085-1.38-1.38 1.085 1.085 1.479 1.38-1.184zm2.76 5.62l1.38-.197-.296-1.38-1.38.197.296 1.38zm-4.732 1.085l1.873-.296-.296-1.873-1.873.296.296 1.873zm3.747-2.86l-.592-1.676-1.676.592.592 1.676 1.676-.592zm.985 4.831l-.197 1.38 1.38.197.197-1.38-1.38-.197zm-2.859-.887l-1.873-.296-.296 1.873 1.873.296.296-1.873zm2.366-1.577h-1.775v1.775h1.775v-1.775zm-1.478 7.788l1.183.69.69-1.183-1.183-.69-.69 1.183zm.986-3.549l-1.676-.592-.592 1.676 1.676.592.592-1.676zm-4.043 6.803l.887 1.085 1.085-.887-.887-1.085-1.085.887zm-.197-2.859l1.38 1.085L24.81 22l-1.38-1.085-1.085 1.381zM20.373 2.085l-1.282-.493-.493 1.282 1.282.493.493-1.282zm1.282 2.76v.394l-.69 1.282-1.479-.887.789-1.479 1.38.69zm0 3.056v.789l-.887.986-1.479-1.282 1.282-1.479 1.084.986zm0 2.169v.887l-.394-.69.394-.197zm0 9.071v.789l-.394-.197.394-.592zm0 2.267v.789l-1.085.986-1.282-1.479 1.479-1.282.888.986zm0 3.353v.394l-1.38.789-.887-1.479 1.479-.887.788 1.183zm-13.31.394v-.394l.69-1.282 1.479.887-.887 1.479-1.282-.69zm0-2.958v-.789l.887-1.085 1.479 1.282-1.281 1.48-1.085-.888zm0-2.267v-.887l.394.69-.394.197zm0-8.972v-.888l.394.197-.394.691zm0-2.366v-.69l1.085-.987 1.282 1.479-1.48 1.282-.887-1.084zm0-3.353v-.394l1.38-.69.887 1.479-1.577.887-.69-1.282zm10.845.986l-1.873-.69-.69 1.873 1.873.69.69-1.873zm-1.282-2.957l-1.676-.296-.296 1.775 1.676.296.296-1.775zm-5.915 23.464l1.775.296.296-1.775-1.775-.296-.296 1.775zm-2.465 1.183l1.282.493.493-1.282-1.282-.493-.493 1.282zm3.057-3.45l.69-1.873-1.873-.69-.69 1.873 1.873.69zm6.112 2.662l.493 1.282 1.282-.493-.493-1.282-1.282.493zm-1.282-2.662l1.873-.69-.69-1.873-1.873.69.69 1.873zM11.303 2.873l-.493-1.281-1.282.493.493 1.282 1.282-.494zm1.873 4.437l-.69-1.873-1.873.69.69 1.873 1.873-.69zM14.261 29h1.38v-1.38h-1.38V29zm-.296-4.239h1.972v-1.972h-1.972v1.972zm1.972.591l.296 1.775 1.775-.296-.296-1.676-1.775.197zM14.063 4.648l-.296-1.775-1.775.296.296 1.775 1.775-.296zM15.641 1h-1.38v1.38h1.38V1zm.296 4.239h-1.972v1.972h1.972V5.239zm-7.592-.394v.394l-.197-.295.197-.099zm0 3.056v.789l-.394-.493.394-.296zm0 2.169v.887l-.592 1.085-1.676-.986.986-1.676 1.282.69zm0 9.071v.789l-1.282.789-.986-1.676 1.676-.986.592 1.084zm0 2.267v.789l-.394-.394.394-.395zm0 3.353v.394l-.197-.099.197-.295zm-2.859.591l1.085.887.887-1.085-1.085-.887-.887 1.085zm-.296-3.253l1.085 1.38 1.38-1.085-1.085-1.38-1.38 1.085zm-2.662-.691l.69 1.183 1.085-.69-.69-1.183-1.085.69zm3.057-2.07l-.592-1.577-1.676.592.592 1.577 1.676-.592zM2.43 16.577l-1.38.197.197 1.38 1.38-.197-.197-1.38zm4.732-1.183l-1.873.296.296 1.873 1.873-.296-.296-1.873zm-4.239.493h1.775v-1.775H2.923v1.775zm-.296-3.746l-1.38-.197-.197 1.282 1.38.197.197-1.282zM5.19 14.31l1.873.296.296-1.873-1.873-.296-.296 1.873zm-1.873-2.564l1.676.592.592-1.676-1.677-.592-.591 1.676zm.986-3.647l-1.085-.69-.69 1.183 1.183.69.592-1.183zm3.352-.395L6.275 6.62 5.19 7.901l1.282 1.183 1.183-1.38zm-.296-2.859l-.887-.986-.986.887.887 1.085.986-.986z"/></svg>