<svg xmlns="http://www.w3.org/2000/svg" width="28" height="28" viewBox="0 0 28 28"><path fill="#FFF" d="M8.528 1.084L9.81.591l.493 1.282-1.282.493zm15.775 12.029h1.775v1.775h-1.775zm.297 7.789l.69-1.183 1.184.69-.69 1.183zm-1.283-2.466l.592-1.675 1.675.591-.59 1.676zm3.055-1.478l.197-1.38 1.38.197-.197 1.38zm-3.449.986l-1.677-.986-.591 1.084v.099l-.394.591.394.198 1.282.69zm-1.379-6.211l1.873-.296.295 1.873-1.872.295zm0 4.534l.295-1.873 1.873.296-.296 1.873zm1.773-6.604l1.676-.591.591 1.676-1.676.591zM19.57 5.915l-1.281 1.479 1.479 1.282.887-.986v-.098l.394-.395-.394-.296zm-.295-2.76l-.789 1.479 1.479.887.69-1.282.099-.295-.099-.099zm8.38 7.789l-1.38.197.295 1.38 1.381-.197zM1.528 7.592l1.183.69.592-1.183-1.085-.691zm23.071-.494l1.183-.69.69 1.184-1.183.69zM12.965 4.239h1.972v1.972h-1.972zm7.69 16.169l-.887-.985-1.479 1.281 1.281 1.479 1.085-.986.394-.394zM22.43 8.084l1.38-1.183-1.085-1.38-1.38 1.085zM6.359 3.845l-.887-.986-.986.887.887 1.085zm15.183.097l.887-1.084 1.084.887-.887 1.084zM2.318 10.747l.59-1.676 1.677.592-.592 1.675zm3.154-2.663l1.183-1.38-1.38-1.084L4.19 6.901zM13.261 0h1.38v1.38h-1.38zm7.591 24.056l-.197-.295-.789-1.184-1.479.888.888 1.479 1.38-.789zm.492-2.76l1.085-1.38L23.809 21l-1.085 1.38zm.198 2.86l1.085-.887.887 1.084-1.084.887zM17.7 26.127l1.28-.493.494 1.282-1.282.493zm-1.975-4.537l1.872-.69.69 1.873-1.872.69zm4.536-12.322l.394.69.591.986 1.677-.986-.986-1.676-1.282.788zM8.43 22.084l1.281-1.478-1.479-1.282-.887 1.084-.394.395.394.394zm-.691-3.352l-.394-.69v.099l-.591-1.085-1.677.986.986 1.676 1.282-.788zM4.29 14.69l1.872-.295.296 1.872-1.873.296zm-2.367-1.577h1.775v1.775H1.923zm2.268.197l.296-1.872 1.873.296-.296 1.872zm6.802 12.422l.296-1.774 1.774.295-.296 1.775zm-2.366-.887l.887-1.479-1.479-.887-.69 1.282-.197.295.197.099zm.985-19.718l1.872-.69.69 1.873-1.872.69zm1.381-2.957l1.775-.297.296 1.775-1.775.296zM9.71 22.774l.69-1.873 1.874.69-.69 1.873zm-8.182-2.366l.69 1.184 1.085-.691-.69-1.183zm6.999 6.508l.493-1.281 1.281.492-.493 1.282zm4.734-.296h1.38V28h-1.38zM7.345 7.69v-.098l.887 1.084 1.479-1.282L8.43 5.915l-1.085.986-.394.296zm-3.352 9.071l-1.676.591.591 1.578 1.677-.592zM15.626 6.41l.69-1.873 1.873.69L17.5 7.1zm1.972-4.537L18.09.59l1.281.493-.493 1.282zM4.19 21.099l1.38-1.084 1.084 1.38-1.38 1.084zm.887-11.043l1.677.986.591-1.084.394-.69-.394-.198-1.282-.69zm9.86-6.31l1.676.296.295-1.774-1.676-.296zM4.487 24.351l.887-1.084 1.084.887-.887 1.084zm8.478-2.562h1.972v1.972h-1.972zm2.267 4.338l1.775-.296-.296-1.676-1.774.197zM7.148 3.944l.197.295.69 1.282 1.578-.887-.888-1.479-1.38.69zM.049 12.225l1.381.198.197-1.282-1.381-.197zm-.001 3.549l1.38-.198.198 1.38-1.38.198z"/></svg>