<svg xmlns="http://www.w3.org/2000/svg" width="48" height="48" viewBox="0 0 48 48"><g fill="none" fill-rule="evenodd"><path d="M0 0h48v48H0z" opacity=".1"/><g fill="#0B1F35"><path d="M23.954 37.996l3.036-3.036-.707-.707-4.243 4.242 4.243 4.243.707-.707-3.035-3.035L42.001 39A4.002 4.002 0 0 0 46 35V13c0-2.213-1.792-4-4.002-4H6.002A4.001 4.001 0 0 0 2 13v22c0 2.213 1.795 4 4.008 4h12.097v-1H6.008A3.001 3.001 0 0 1 3 35V13c0-1.656 1.345-3 3.002-3h35.996C43.658 10 45 11.34 45 13v22c0 1.655-1.346 3-2.999 3l-18.047-.004z"/><path d="M3 15h42v4H3zm5 14h8v4H8z" opacity=".3"/></g></g></svg>