<svg xmlns="http://www.w3.org/2000/svg" width="36" height="36" viewBox="0 0 36 36"><path fill="none" d="M0 0h36v36H0z"/><path fill="#fff" d="M12.5 22C7.35 22 3 18.09 3 13.46V1h4v1H4v11.46C4 17.55 7.89 21 12.5 21s8.5-3.45 8.5-7.54V2h-3V1h4v12.46c0 4.63-4.35 8.54-9.5 8.54z"/><path fill="#fff" d="M21.5 35a9.51 9.51 0 0 1-9.5-9.5v-4h1v4a8.5 8.5 0 0 0 17 0v-8h1v8a9.51 9.51 0 0 1-9.5 9.5z"/><path fill="#fff" d="M30.5 18a4.5 4.5 0 1 1 4.5-4.5 4.5 4.5 0 0 1-4.5 4.5zm0-8a3.5 3.5 0 1 0 3.5 3.5 3.5 3.5 0 0 0-3.5-3.5z"/><circle cx="30.5" cy="13.5" r="1.75" fill="#fff" opacity=".3"/><path fill="#fff" d="M3.5 13h18v2h-18z" opacity=".3"/><path fill="#fff" d="M3 3h2c1.1 0 2-.6 2-1.33V1H3v2zm19 0h-2c-1.1 0-2-.6-2-1.33V1h4v2z"/></svg>