<svg width="24" height="24" viewBox="0 0 24 24" xmlns="http://www.w3.org/2000/svg"><title>icon_cardlock_m_black.pdf</title><g fill="none" fill-rule="evenodd"><path fill-opacity=".01" fill="#FFFFFF" d="M0 0h24v24H0z"/><path d="M0 0h24v24H0z"/><path d="M19.436 9H18V5.5C18 2.468 15.533 0 12.5 0h-1A5.506 5.506 0 0 0 6 5.5V9H4.564C3.702 9 3 9.702 3 10.564v9.742A3.698 3.698 0 0 0 6.694 24h10.612A3.698 3.698 0 0 0 21 20.307v-9.742C21 9.702 20.298 9 19.436 9zM7 5.5C7 3.019 9.019 1 11.5 1h1C14.981 1 17 3.019 17 5.5V9H7V5.5zm13 14.807A2.696 2.696 0 0 1 17.306 23H6.694A2.696 2.696 0 0 1 4 20.307v-9.742c0-.312.253-.565.564-.565h14.872c.311 0 .564.253.564.564v9.743z" fill="#FFFFFF"/><path d="M12 13a1.994 1.994 0 1 0-1 3.723V20h2v-3.277c.595-.346 1-.984 1-1.723a2 2 0 0 0-2-2z" fill="#FFFFFF" opacity=".3"/></g></svg>
