<svg width="18" height="18" viewBox="0 0 18 18" xmlns="http://www.w3.org/2000/svg"><g fill="none" fill-rule="evenodd"><path d="M0 0h18v18H0z"/><path d="M9 11c-2.615 0-4.18-2.202-4.457-6C4.295 1.608 5.744 0 9 0c3.29 0 4.714 1.568 4.481 5-.258 3.811-1.83 6-4.481 6zm0-1c2.022 0 3.256-1.72 3.483-5.068C12.678 2.072 11.705 1 9 1 6.333 1 5.335 2.108 5.54 4.927 5.784 8.266 7.017 10 9 10z" fill="#000" fill-rule="nonzero"/><path d="M11.586 9.878l-.992-.128c-.208 1.614.57 2.866 2.242 3.672 3.238 1.561 4.166 2.811 4.166 4.577h1c0-2.184-1.17-3.76-4.732-5.478-1.303-.628-1.834-1.482-1.684-2.643zM6.422 9.911l.996-.086c.141 1.626-.663 2.879-2.329 3.682-3.232 1.559-4.083 2.714-4.083 4.492h-1c0-2.194 1.093-3.678 4.65-5.393 1.308-.631 1.87-1.504 1.766-2.695z" fill="#000" fill-rule="nonzero"/></g></svg>