<svg xmlns="http://www.w3.org/2000/svg" width="30" height="30" version="1" viewBox="0 0 30 30"><path fill="#FFF" d="M22.162 21.625c-2.53-1.262-2.964-2.618-2.966-5.598C20.996 14.058 22 10.891 22 7.786 22 4.161 21.204 0 15 0S8 4.161 8 7.786c0 3.105 1.004 6.273 2.804 8.241-.003 2.98-.436 4.336-2.966 5.598C5.899 22.591 0 25.456 0 30h1c0-3.926 5.483-6.582 7.285-7.481 2.698-1.346 3.385-3.106 3.499-5.614.926.685 2 1.095 3.216 1.095s2.29-.41 3.216-1.095c.114 2.508.801 4.269 3.499 5.614C23.517 23.418 29 26.074 29 30h1c0-4.544-5.899-7.409-7.838-8.375zM9 7.786C9 2.966 10.738 1 15 1s6 1.966 6 6.786C21 11.612 19.139 17 15 17s-6-5.388-6-9.214z"/><path fill="#FFF" d="M9.596 10.628h.001v-.001z"/></svg>