<svg xmlns="http://www.w3.org/2000/svg" width="24" height="24" version="1" viewBox="0 0 24 24"><path fill="#0B1F35" d="M17.774 16.999c-1.853-.925-2.272-.995-2.314-3.504C17.088 11.87 18 9.158 18 6.5c0-3.026-.682-6.5-6-6.5S6 3.474 6 6.5c0 2.658.912 5.37 2.54 6.995-.043 2.509-.462 2.579-2.314 3.504C4.687 17.767 0 20.252 0 24h1c0-3.129 4.27-5.407 5.673-6.107 2.024-1.011 2.665-1.675 2.822-3.624A4.624 4.624 0 0 0 12 15c.932 0 1.771-.267 2.505-.731.157 1.95.797 2.614 2.822 3.624C18.73 18.593 23 20.871 23 24h1c0-3.748-4.687-6.233-6.226-7.001zM12 14c-.968 0-1.781-.354-2.458-.92l.002-.08h-.098C7.777 11.525 7 8.699 7 6.5 7 2.593 8.448 1 12 1s5 1.593 5 5.5c0 2.199-.777 5.025-2.446 6.5h-.098l.002.08c-.677.566-1.49.92-2.458.92zM7.677 8.502h.001-.001z"/></svg>