<?xml version="1.0" encoding="UTF-8"?>
<svg width="18px" height="18px" viewBox="0 0 18 18" version="1.1" xmlns="http://www.w3.org/2000/svg" xmlns:xlink="http://www.w3.org/1999/xlink">
    <!-- Generator: Sketch 49.3 (51167) - http://www.bohemiancoding.com/sketch -->
    <title>icon_dots_s_black</title>
    <desc>Created with Sketch.</desc>
    <defs></defs>
    <g id="Page-1" stroke="none" stroke-width="1" fill="none" fill-rule="evenodd">
        <g id="dots_s_d" transform="translate(9.000000, 9.000000) rotate(-90.000000) translate(-9.000000, -9.000000) ">
            <rect id="Rectangle-2" x="0" y="0" width="18" height="18"></rect>
            <path d="M2.25,11.25 C1.00735931,11.25 0,10.2426407 0,9 C0,7.75735931 1.00735931,6.75 2.25,6.75 C3.49264069,6.75 4.5,7.75735931 4.5,9 C4.5,10.2426407 3.49264069,11.25 2.25,11.25 Z M2.25,10.5 C3.07842712,10.5 3.75,9.82842712 3.75,9 C3.75,8.17157288 3.07842712,7.5 2.25,7.5 C1.42157288,7.5 0.75,8.17157288 0.75,9 C0.75,9.82842712 1.42157288,10.5 2.25,10.5 Z" id="Combined-Shape" fill="#0B1F35"></path>
            <path d="M9,11.25 C7.75735931,11.25 6.75,10.2426407 6.75,9 C6.75,7.75735931 7.75735931,6.75 9,6.75 C10.2426407,6.75 11.25,7.75735931 11.25,9 C11.25,10.2426407 10.2426407,11.25 9,11.25 Z M9,10.5 C9.82842712,10.5 10.5,9.82842712 10.5,9 C10.5,8.17157288 9.82842712,7.5 9,7.5 C8.17157288,7.5 7.5,8.17157288 7.5,9 C7.5,9.82842712 8.17157288,10.5 9,10.5 Z" id="Combined-Shape" fill="#0B1F35"></path>
            <path d="M15.75,11.25 C14.5073593,11.25 13.5,10.2426407 13.5,9 C13.5,7.75735931 14.5073593,6.75 15.75,6.75 C16.9926407,6.75 18,7.75735931 18,9 C18,10.2426407 16.9926407,11.25 15.75,11.25 Z M15.75,10.5 C16.5784271,10.5 17.25,9.82842712 17.25,9 C17.25,8.17157288 16.5784271,7.5 15.75,7.5 C14.9215729,7.5 14.25,8.17157288 14.25,9 C14.25,9.82842712 14.9215729,10.5 15.75,10.5 Z" id="Combined-Shape" fill="#0B1F35"></path>
        </g>
    </g>
</svg>