<?xml version="1.0" encoding="UTF-8"?>
<svg width="40px" height="40px" viewBox="0 0 40 40" version="1.1" xmlns="http://www.w3.org/2000/svg" xmlns:xlink="http://www.w3.org/1999/xlink">
    <!-- Generator: Sketch 49.3 (51167) - http://www.bohemiancoding.com/sketch -->
    <title>icon_dots_xl_black</title>
    <desc>Created with Sketch.</desc>
    <defs></defs>
    <g id="Page-1" stroke="none" stroke-width="1" fill="none" fill-rule="evenodd">
        <g id="dots_xl_black" transform="translate(20.000000, 20.000000) rotate(-90.000000) translate(-20.000000, -20.000000) ">
            <rect id="Rectangle-2" x="0" y="0" width="40" height="40"></rect>
            <path d="M5,25 C2.23857625,25 0,22.7614237 0,20 C0,17.2385763 2.23857625,15 5,15 C7.76142375,15 10,17.2385763 10,20 C10,22.7614237 7.76142375,25 5,25 Z M5,23.3333333 C6.84094917,23.3333333 8.33333333,21.8409492 8.33333333,20 C8.33333333,18.1590508 6.84094917,16.6666667 5,16.6666667 C3.15905083,16.6666667 1.66666667,18.1590508 1.66666667,20 C1.66666667,21.8409492 3.15905083,23.3333333 5,23.3333333 Z" id="Combined-Shape" fill="#0B1F35"></path>
            <path d="M20,25 C17.2385763,25 15,22.7614237 15,20 C15,17.2385763 17.2385763,15 20,15 C22.7614237,15 25,17.2385763 25,20 C25,22.7614237 22.7614237,25 20,25 Z M20,23.3333333 C21.8409492,23.3333333 23.3333333,21.8409492 23.3333333,20 C23.3333333,18.1590508 21.8409492,16.6666667 20,16.6666667 C18.1590508,16.6666667 16.6666667,18.1590508 16.6666667,20 C16.6666667,21.8409492 18.1590508,23.3333333 20,23.3333333 Z" id="Combined-Shape" fill="#0B1F35"></path>
            <path d="M35,25 C32.2385763,25 30,22.7614237 30,20 C30,17.2385763 32.2385763,15 35,15 C37.7614237,15 40,17.2385763 40,20 C40,22.7614237 37.7614237,25 35,25 Z M35,23.3333333 C36.8409492,23.3333333 38.3333333,21.8409492 38.3333333,20 C38.3333333,18.1590508 36.8409492,16.6666667 35,16.6666667 C33.1590508,16.6666667 31.6666667,18.1590508 31.6666667,20 C31.6666667,21.8409492 33.1590508,23.3333333 35,23.3333333 Z" id="Combined-Shape" fill="#0B1F35"></path>
        </g>
    </g>
</svg>