<?xml version="1.0" encoding="UTF-8"?>
<svg width="30px" height="30px" viewBox="0 0 30 30" version="1.1" xmlns="http://www.w3.org/2000/svg" xmlns:xlink="http://www.w3.org/1999/xlink">
    <!-- Generator: Sketch 49.3 (51167) - http://www.bohemiancoding.com/sketch -->
    <title>icon_dots_l_white</title>
    <desc>Created with Sketch.</desc>
    <defs></defs>
    <g id="Page-1" stroke="none" stroke-width="1" fill="none" fill-rule="evenodd">
        <g id="icon_dots_l_w" transform="translate(15.000000, 15.000000) rotate(-90.000000) translate(-15.000000, -15.000000) ">
            <rect id="Rectangle-2" x="0" y="0" width="30" height="30"></rect>
            <path d="M3.75,18.75 C1.67893219,18.75 0,17.0710678 0,15 C0,12.9289322 1.67893219,11.25 3.75,11.25 C5.82106781,11.25 7.5,12.9289322 7.5,15 C7.5,17.0710678 5.82106781,18.75 3.75,18.75 Z M3.75,17.5 C5.13071187,17.5 6.25,16.3807119 6.25,15 C6.25,13.6192881 5.13071187,12.5 3.75,12.5 C2.36928813,12.5 1.25,13.6192881 1.25,15 C1.25,16.3807119 2.36928813,17.5 3.75,17.5 Z" id="Combined-Shape" fill="#FFFFFF"></path>
            <path d="M15,18.75 C12.9289322,18.75 11.25,17.0710678 11.25,15 C11.25,12.9289322 12.9289322,11.25 15,11.25 C17.0710678,11.25 18.75,12.9289322 18.75,15 C18.75,17.0710678 17.0710678,18.75 15,18.75 Z M15,17.5 C16.3807119,17.5 17.5,16.3807119 17.5,15 C17.5,13.6192881 16.3807119,12.5 15,12.5 C13.6192881,12.5 12.5,13.6192881 12.5,15 C12.5,16.3807119 13.6192881,17.5 15,17.5 Z" id="Combined-Shape" fill="#FFFFFF"></path>
            <path d="M26.25,18.75 C24.1789322,18.75 22.5,17.0710678 22.5,15 C22.5,12.9289322 24.1789322,11.25 26.25,11.25 C28.3210678,11.25 30,12.9289322 30,15 C30,17.0710678 28.3210678,18.75 26.25,18.75 Z M26.25,17.5 C27.6307119,17.5 28.75,16.3807119 28.75,15 C28.75,13.6192881 27.6307119,12.5 26.25,12.5 C24.8692881,12.5 23.75,13.6192881 23.75,15 C23.75,16.3807119 24.8692881,17.5 26.25,17.5 Z" id="Combined-Shape" fill="#FFFFFF"></path>
        </g>
    </g>
</svg>