<svg xmlns="http://www.w3.org/2000/svg" width="48" height="48" viewBox="0 0 48 48"><g fill="none"><path d="M0 0h48v48H0z"/><g fill="#0B1F35"><path d="M7 22h1v22H7zM39 22h1v22h-1zM.2 19.6l.6.8L23.5 4.6l22.7 15.8.6-.8L23.5 3.4z"/><path d="M28.5 41c1.93 0 3.5-1.57 3.5-3.5S30.43 34 28.5 34 25 35.57 25 37.5s1.57 3.5 3.5 3.5zm0-1.5c-1.1 0-2-.9-2-2s.9-2 2-2 2 .9 2 2-.9 2-2 2zM16.78 39.76l12.21-14.55 1.23 1.03-12.21 14.55zM18.5 32c1.93 0 3.5-1.57 3.5-3.5S20.43 25 18.5 25 15 26.57 15 28.5s1.57 3.5 3.5 3.5zm0-1.5c-1.1 0-2-.9-2-2s.9-2 2-2 2 .9 2 2-.9 2-2 2z" opacity=".3"/></g></g></svg>