<svg xmlns="http://www.w3.org/2000/svg" width="48" height="48" viewBox="0 0 48 48"><g fill="none"><rect width="48" height="48" fill="none"/><g fill="#FFFFFF" fill-rule="nonzero" transform="translate(0 3)"><polygon points="7 19 8 19 8 41 7 41"/><polygon points="39 19 40 19 40 41 39 41"/><polygon points="0.2 16.6 0.8 17.4 23.5 1.6 46.2 17.4 46.8 16.6 23.5 0.4"/><path d="M28.5 38C30.43 38 32 36.43 32 34.5 32 32.57 30.43 31 28.5 31 26.57 31 25 32.57 25 34.5 25 36.43 26.57 38 28.5 38ZM28.5 36.5C27.4 36.5 26.5 35.6 26.5 34.5 26.5 33.4 27.4 32.5 28.5 32.5 29.6 32.5 30.5 33.4 30.5 34.5 30.5 35.6 29.6 36.5 28.5 36.5Z" opacity="0.3"/><polygon points="16.78 36.76 28.99 22.21 30.22 23.24 18.01 37.79" opacity="0.3"/><path d="M18.5 29C20.43 29 22 27.43 22 25.5 22 23.57 20.43 22 18.5 22 16.57 22 15 23.57 15 25.5 15 27.43 16.57 29 18.5 29ZM18.5 27.5C17.4 27.5 16.5 26.6 16.5 25.5 16.5 24.4 17.4 23.5 18.5 23.5 19.6 23.5 20.5 24.4 20.5 25.5 20.5 26.6 19.6 27.5 18.5 27.5Z" opacity="0.3"/></g></g></svg>