<svg xmlns="http://www.w3.org/2000/svg" width="48" height="48" viewBox="0 0 48 48"><g fill="none" fill-rule="evenodd"><path d="M0 0h48v48H0z"/><path fill="#0B1F35" fill-rule="nonzero" d="M29.328 24.847l1.24 1.064L17.673 40.93l-1.239-1.064 12.893-15.019zM28.6 41.25a3.654 3.654 0 0 1-3.65-3.65 3.654 3.654 0 0 1 3.65-3.65 3.654 3.654 0 0 1 3.65 3.65 3.654 3.654 0 0 1-3.65 3.65zm0-5.667a2.016 2.016 0 1 0-.001 4.032 2.016 2.016 0 0 0 .001-4.032zM18.4 31.05a3.654 3.654 0 0 1-3.65-3.65 3.654 3.654 0 0 1 3.65-3.65 3.654 3.654 0 0 1 3.65 3.65 3.654 3.654 0 0 1-3.65 3.65zm0-5.667a2.016 2.016 0 1 0-.001 4.032 2.016 2.016 0 0 0 .001-4.032z" opacity=".3"/><path fill="#0B1F35" d="M7 22h1v22H7zm32 0h1v22h-1zM.2 19.6l.6.8L23.5 4.6l22.7 15.8.6-.8L23.5 3.4z"/></g></svg>
