<svg xmlns="http://www.w3.org/2000/svg" width="16" height="17" viewBox="0 0 16 17"><g fill="#FFF"><path d="M3 10.591V3.778h-.214C1.254 3.778 0 4.96 0 6.409v7.016c0 1.446 1.254 2.63 2.786 2.63h7.429c1.532 0 2.785-1.184 2.785-2.63v-.203H5.786C4.254 13.222 3 12.038 3 10.591z" opacity=".3"/><path d="M5.932 8.117H5v3.216h.689V9.917l.284.268h1.824c.851 0 1.297-.421 1.297-.92 0-.152-.041-.344-.081-.42h.73c1.095 0 1.338-.498 1.338-.88-.081-.346-.365-.652-.811-.729.243-.076.527-.268.527-.766 0-.535-.446-.803-1.135-.803H8.527v1.301h-.689c-.892 0-1.095.574-1.095.88 0 .46.284.651.77.88.324.116.689.269.689.537 0 .153-.162.382-.527.382h-.567a1.12 1.12 0 0 0 .122-.496c0-.23-.081-1.034-1.298-1.034zM5.973 9.8h-.324V8.73h.324c.405 0 .568.23.568.498s-.163.574-.568.574zm3.324-3.56h.324c.527 0 .527.306.527.382 0 .116-.081.383-.527.383h-.324V6.24zm-.04 1.301h.405c.487 0 .568.23.568.422.041.268-.122.459-.568.459h-.405v-.88zm-1.176.766c-.243-.076-.446-.23-.446-.459 0-.115.081-.344.487-.344h.811l-.325.306v.765c-.162-.076-.365-.153-.527-.268z"/><path d="M16 3.576C16 2.129 14.746.944 13.214.944H5.786C4.254.944 3 2.13 3 3.576v.202h7.214C11.747 3.778 13 4.96 13 6.409v6.813h.214c1.532 0 2.786-1.184 2.786-2.631V3.576z"/></g></svg>