<svg xmlns="http://www.w3.org/2000/svg" width="18" height="18" version="1" viewBox="0 0 18 18"><path fill="#0B1F35" d="M4 11.214V4h-.214A2.794 2.794 0 0 0 1 6.786v7.429A2.794 2.794 0 0 0 3.786 17h7.429A2.794 2.794 0 0 0 14 14.214V14H6.786A2.795 2.795 0 0 1 4 11.214z" opacity=".3"/><path fill="#0B1F35" d="M6.932 8.594H6V12h.689v-1.5l.284.284h1.824c.851 0 1.297-.446 1.297-.973 0-.162-.041-.365-.081-.446h.73c1.095 0 1.338-.527 1.338-.932a.996.996 0 0 0-.811-.771c.243-.081.527-.284.527-.811 0-.567-.446-.851-1.135-.851H9.527v1.378h-.689c-.892 0-1.095.608-1.095.932 0 .487.284.689.77.932.324.122.689.284.689.568 0 .162-.162.405-.527.405h-.567c.081-.161.122-.364.122-.526 0-.243-.081-1.095-1.298-1.095zm.041 1.784h-.324V9.243h.324c.405 0 .568.243.568.527s-.163.608-.568.608zm3.324-3.77h.324c.527 0 .527.324.527.405 0 .122-.081.405-.527.405h-.324v-.81zm-.04 1.378h.405c.487 0 .568.243.568.446.041.284-.122.486-.568.486h-.405v-.932zm-1.176.811c-.243-.081-.446-.243-.446-.486 0-.122.081-.365.487-.365h.811l-.325.324v.811c-.162-.081-.365-.162-.527-.284z"/><path fill="#0B1F35" d="M17 3.786A2.795 2.795 0 0 0 14.214 1H6.786A2.795 2.795 0 0 0 4 3.786V4h7.214A2.793 2.793 0 0 1 14 6.786V14h.214A2.795 2.795 0 0 0 17 11.214V3.786z"/></svg>