<svg xmlns="http://www.w3.org/2000/svg" width="26" height="26" viewBox="0 0 26 26"><g fill="#FFF"><path d="M4.875 16.25V4.875A4.889 4.889 0 0 0 0 9.75v11.375A4.889 4.889 0 0 0 4.875 26H16.25a4.89 4.89 0 0 0 4.875-4.875H9.75a4.89 4.89 0 0 1-4.875-4.875z" opacity=".3"/><path d="M21.125 0H9.75a4.89 4.89 0 0 0-4.875 4.875H16.25a4.89 4.89 0 0 1 4.875 4.875v11.375A4.89 4.89 0 0 0 26 16.25V4.875A4.89 4.89 0 0 0 21.125 0z"/><path d="M19.162 11.865a1.994 1.994 0 0 0-1.622-1.541c.487-.162 1.054-.568 1.054-1.622 0-1.135-.892-1.703-2.27-1.703h-2.27v2.757h-1.378c-1.784 0-2.189 1.216-2.189 1.865 0 .973.568 1.378 1.541 1.865.649.243 1.378.568 1.378 1.135 0 .324-.324.811-1.054.811h-1.135c.162-.324.243-.73.243-1.054 0-.486-.162-2.189-2.595-2.189H7V19h1.378v-3l.568.568h3.649c1.703 0 2.595-.892 2.595-1.946 0-.324-.081-.73-.162-.892h1.459c2.189 0 2.675-1.054 2.675-1.865zM8.946 15.757h-.649v-2.27h.649c.811 0 1.135.486 1.135 1.054 0 .568-.324 1.216-1.135 1.216zm5.27-4.216v1.622c-.324-.162-.73-.324-1.054-.568-.487-.162-.892-.487-.892-.973 0-.243.162-.73.973-.73h1.622l-.649.649zm1.379-3.325h.649c1.054 0 1.054.649 1.054.811 0 .243-.162.811-1.054.811h-.649V8.216zm-.082 4.622v-1.865h.811c.973 0 1.135.487 1.135.892.081.568-.243.973-1.135.973h-.811z"/></g></svg>