<svg xmlns="http://www.w3.org/2000/svg" width="24" height="24" version="1" viewBox="0 0 24 24"><path fill="#14478E" d="M18.307 2H9.692A3.702 3.702 0 0 0 6 5.692V6h8.308A3.703 3.703 0 0 1 18 9.692V18h.307A3.704 3.704 0 0 0 22 14.308V5.692A3.703 3.703 0 0 0 18.307 2z"/><path fill="#DC6831" d="M6 14.308V6h-.308A3.703 3.703 0 0 0 2 9.692v8.615A3.704 3.704 0 0 0 5.692 22h8.615A3.704 3.704 0 0 0 18 18.308V18H9.692A3.703 3.703 0 0 1 6 14.308z"/><path fill="#14478E" d="M15.905 9.493c.365-.122.791-.426.791-1.216 0-.851-.669-1.277-1.703-1.277H13.29v2.068h-1.034c-1.338 0-1.642.912-1.642 1.399 0 .73.426 1.034 1.155 1.399.486.182 1.034.426 1.034.851 0 .243-.243.608-.791.608h-.851c.122-.243.182-.547.182-.791 0-.365-.122-1.642-1.946-1.642H8V16h1.034v-2.25l.426.426h2.736c1.277 0 1.946-.669 1.946-1.459 0-.243-.061-.547-.122-.669h1.095c1.642 0 2.007-.791 2.007-1.399a1.496 1.496 0 0 0-1.217-1.156zm-6.446 4.075h-.486v-1.703h.486c.608 0 .851.365.851.791.001.425-.242.912-.851.912zm3.953-3.163v1.216c-.243-.122-.547-.243-.791-.426-.365-.122-.669-.365-.669-.73 0-.182.122-.547.73-.547h1.216l-.486.487zm1.034-2.493h.486c.791 0 .791.486.791.608 0 .182-.122.608-.791.608h-.486V7.912zm.547 3.466h-.608V9.98h.608c.73 0 .851.365.851.669.061.425-.182.729-.851.729z"/></svg>