<svg xmlns="http://www.w3.org/2000/svg" width="30" height="30" version="1" viewBox="0 0 30 30"><path fill="#14478E" d="M23.125 2H11.75a4.89 4.89 0 0 0-4.875 4.875H18.25a4.89 4.89 0 0 1 4.875 4.875v11.375A4.89 4.89 0 0 0 28 18.25V6.875A4.89 4.89 0 0 0 23.125 2z"/><path fill="#DC6831" d="M6.875 18.25V6.875A4.889 4.889 0 0 0 2 11.75v11.375A4.889 4.889 0 0 0 6.875 28H18.25a4.89 4.89 0 0 0 4.875-4.875H11.75a4.89 4.89 0 0 1-4.875-4.875z"/><path fill="#14478E" d="M19.541 12.324c.486-.162 1.054-.568 1.054-1.622 0-1.135-.892-1.703-2.27-1.703h-2.27v2.757h-1.378c-1.784 0-2.189 1.216-2.189 1.865 0 .973.568 1.378 1.541 1.865.649.243 1.378.568 1.378 1.135 0 .324-.324.811-1.054.811h-1.135c.162-.324.243-.73.243-1.054 0-.486-.162-2.189-2.595-2.189H9V21h1.378v-3l.568.568h3.649c1.703 0 2.595-.892 2.595-1.946 0-.324-.081-.73-.162-.892h1.459c2.189 0 2.676-1.054 2.676-1.865a1.995 1.995 0 0 0-1.622-1.541zm-8.595 5.433h-.649v-2.27h.649c.811 0 1.135.486 1.135 1.054s-.324 1.216-1.135 1.216zm5.27-4.216v1.622c-.324-.162-.73-.324-1.054-.568-.486-.162-.892-.486-.892-.973 0-.243.162-.73.973-.73h1.622l-.649.649zm1.379-3.325h.649c1.054 0 1.054.649 1.054.811 0 .243-.162.811-1.054.811h-.649v-1.622zm.729 4.622h-.811v-1.865h.811c.973 0 1.135.486 1.135.892.082.567-.243.973-1.135.973z"/></svg>