<svg xmlns="http://www.w3.org/2000/svg" width="32" height="32" viewBox="0 0 32 32"><g fill="#FFF"><path d="M0 26c0 3.3 2.7 6 6 6h14c3.3 0 6-2.7 6-6H12c-3.3 0-6-2.7-6-6V6c-3.3 0-6 2.7-6 6v14z" opacity=".3"/><path d="M24.203 14.081a2.492 2.492 0 0 0-2.027-1.926c.608-.203 1.318-.709 1.318-2.027C23.494 8.709 22.379 8 20.656 8h-2.838v3.446h-1.723c-2.23 0-2.737 1.52-2.737 2.331 0 1.216.709 1.723 1.926 2.331.811.304 1.723.709 1.723 1.419 0 .405-.405 1.013-1.318 1.013H14.27c.203-.405.304-.912.304-1.318 0-.608-.203-2.736-3.243-2.736H9V23h1.723v-3.75l.709.709h4.561c2.128 0 3.243-1.115 3.243-2.432 0-.405-.101-.912-.203-1.115h1.824c2.738 0 3.346-1.317 3.346-2.331zm-12.771 4.865h-.811v-2.838h.811c1.013 0 1.419.608 1.419 1.318 0 .71-.405 1.52-1.419 1.52zm6.588-5.27v2.027c-.405-.203-.912-.405-1.318-.709-.608-.203-1.115-.608-1.115-1.216 0-.304.203-.912 1.216-.912h2.027l-.81.81zm1.723-4.156h.811c1.318 0 1.318.811 1.318 1.014 0 .304-.203 1.013-1.318 1.013h-.811V9.52zm-.101 5.777v-2.331h1.013c1.216 0 1.419.608 1.419 1.115.101.709-.304 1.216-1.419 1.216h-1.013z"/><path d="M26 26c3.3 0 6-2.7 6-6V6c0-3.3-2.7-6-6-6H12C8.7 0 6 2.7 6 6h14c3.3 0 6 2.7 6 6v14z"/></g></svg>