<svg xmlns="http://www.w3.org/2000/svg" width="20" height="20" viewBox="0 0 20 20"><g fill="#FFF"><path d="M0 16.308A3.704 3.704 0 0 0 3.692 20h8.615A3.704 3.704 0 0 0 16 16.308V16H7.692A3.703 3.703 0 0 1 4 12.308V4h-.308A3.703 3.703 0 0 0 0 7.692v8.616z" opacity=".3"/><path d="M16.307 16A3.704 3.704 0 0 0 20 12.308V3.692A3.703 3.703 0 0 0 16.307 0H7.692A3.702 3.702 0 0 0 4 3.692V4h8.308A3.703 3.703 0 0 1 16 7.692V16h.307z"/><path d="M15.122 8.649a1.496 1.496 0 0 0-1.217-1.156c.365-.122.791-.426.791-1.216 0-.851-.669-1.277-1.703-1.277H11.29v2.068h-1.034c-1.338 0-1.642.912-1.642 1.399 0 .73.426 1.034 1.155 1.399.487.182 1.034.426 1.034.851 0 .243-.243.608-.791.608h-.851c.122-.243.182-.547.182-.791 0-.365-.122-1.642-1.946-1.642H6V14h1.034v-2.25l.426.426h2.736c1.277 0 1.946-.669 1.946-1.459 0-.243-.061-.547-.122-.669h1.095c1.642-.001 2.007-.791 2.007-1.399zm-7.663 2.919h-.486V9.865h.487c.608 0 .851.365.851.791 0 .426-.243.912-.852.912zm3.953-3.163v1.216c-.243-.122-.547-.243-.791-.426-.365-.122-.669-.365-.669-.73 0-.182.122-.547.73-.547h1.216l-.486.487zm1.034-2.493h.487c.791 0 .791.486.791.608 0 .182-.122.608-.791.608h-.487V5.912zm-.061 3.466V7.98h.608c.73 0 .851.365.851.669.061.426-.182.73-.851.73h-.608v-.001z"/></g></svg>