<?xml version="1.0" encoding="UTF-8"?>
<svg width="18px" height="18px" viewBox="0 0 18 18" version="1.1" xmlns="http://www.w3.org/2000/svg" xmlns:xlink="http://www.w3.org/1999/xlink">
    <!-- Generator: Sketch 49.2 (51160) - http://www.bohemiancoding.com/sketch -->
    <title>icon_bank-psb_s_black</title>
    <desc>Created with Sketch.</desc>
    <defs></defs>
    <g id="page" stroke="none" stroke-width="1" fill="none" fill-rule="evenodd">
        <g id="промсвязьбанк" transform="translate(-5.000000, -38.000000)">
            <g id="icon_bank-psb_s_black" transform="translate(5.000000, 38.000000)">
                <rect id="Rectangle" x="0" y="0" width="18" height="18"></rect>
                <g id="Group" transform="translate(1.000000, 1.000000)" fill="#0B1F35" fill-rule="nonzero">
                    <path d="M3,10.214 L3,3 L2.786,3 C1.24915848,3.00439414 0.00439414134,4.24915848 0,5.786 L0,13.215 C0.00494294799,14.751451 1.24954734,15.9956086 2.786,16 L10.215,16 C11.751451,15.9950571 12.9956086,14.7504527 13,13.214 L13,13 L5.786,13 C4.24938557,12.99506 3.00494004,11.7506144 3,10.214 Z" id="Shape" opacity="0.3"></path>
                    <path d="M5.932,7.594 L5,7.594 L5,11 L5.689,11 L5.689,9.5 L5.973,9.784 L7.797,9.784 C8.648,9.784 9.094,9.338 9.094,8.811 C9.094,8.649 9.053,8.446 9.013,8.365 L9.743,8.365 C10.838,8.365 11.081,7.838 11.081,7.433 C10.9942274,7.03407743 10.672798,6.72850151 10.27,6.662 C10.513,6.581 10.797,6.378 10.797,5.851 C10.797,5.284 10.351,5 9.662,5 L8.527,5 L8.527,6.378 L7.838,6.378 C6.946,6.378 6.743,6.986 6.743,7.31 C6.743,7.797 7.027,7.999 7.513,8.242 C7.837,8.364 8.202,8.526 8.202,8.81 C8.202,8.972 8.04,9.215 7.675,9.215 L7.108,9.215 C7.189,9.054 7.23,8.851 7.23,8.689 C7.23,8.446 7.149,7.594 5.932,7.594 Z M5.973,9.378 L5.649,9.378 L5.649,8.243 L5.973,8.243 C6.378,8.243 6.541,8.486 6.541,8.77 C6.541,9.054 6.378,9.378 5.973,9.378 Z M9.297,5.608 L9.621,5.608 C10.148,5.608 10.148,5.932 10.148,6.013 C10.148,6.135 10.067,6.418 9.621,6.418 L9.297,6.418 L9.297,5.608 Z M9.257,6.986 L9.662,6.986 C10.149,6.986 10.23,7.229 10.23,7.432 C10.271,7.716 10.108,7.918 9.662,7.918 L9.257,7.918 L9.257,6.986 Z M8.081,7.797 C7.838,7.716 7.635,7.554 7.635,7.311 C7.635,7.189 7.716,6.946 8.122,6.946 L8.933,6.946 L8.608,7.27 L8.608,8.081 C8.446,8 8.243,7.919 8.081,7.797 Z" id="Shape"></path>
                    <path d="M16,2.786 C15.99506,1.24938557 14.7506144,0.00494003821 13.214,8.8817842e-16 L5.786,8.8817842e-16 C4.24938557,0.00494003821 3.00494004,1.24938557 3,2.786 L3,3 L10.214,3 C11.7510688,3.0038475 12.9961525,4.24893119 13,5.786 L13,13 L13.214,13 C14.7506144,12.99506 15.99506,11.7506144 16,10.214 L16,2.786 Z" id="Shape"></path>
                </g>
            </g>
        </g>
    </g>
</svg>