<svg xmlns="http://www.w3.org/2000/svg" width="36" height="36" version="1" viewBox="0 0 36 36"><path fill="#14478E" d="M24.176 14.155c.608-.203 1.318-.709 1.318-2.027 0-1.419-1.115-2.128-2.838-2.128h-2.838v3.446h-1.723c-2.23 0-2.736 1.52-2.736 2.331 0 1.216.709 1.723 1.926 2.331.811.304 1.723.709 1.723 1.419 0 .405-.405 1.014-1.318 1.014h-1.42c.203-.405.304-.912.304-1.318 0-.608-.203-2.736-3.243-2.736H11V25h1.723v-3.75l.709.709h4.561c2.128 0 3.243-1.115 3.243-2.432 0-.405-.101-.912-.203-1.115h1.824c2.736 0 3.345-1.318 3.345-2.331a2.49 2.49 0 0 0-2.026-1.926zm-10.744 6.791h-.811v-2.838h.811c1.014 0 1.419.608 1.419 1.318s-.405 1.52-1.419 1.52zm6.588-5.27v2.027c-.405-.203-.912-.405-1.318-.709-.608-.203-1.115-.608-1.115-1.216 0-.304.203-.912 1.216-.912h2.027l-.81.81zm1.723-4.156h.811c1.318 0 1.318.811 1.318 1.014 0 .304-.203 1.014-1.318 1.014h-.811V11.52zm.912 5.777h-1.014v-2.331h1.014c1.216 0 1.419.608 1.419 1.115.102.71-.304 1.216-1.419 1.216z"/><path fill="#14478E" d="M28 2H14c-3.3 0-6 2.7-6 6h14c3.3 0 6 2.7 6 6v14c3.3 0 6-2.7 6-6V8c0-3.3-2.7-6-6-6z"/><path fill="#DC6831" d="M8 22V8c-3.3 0-6 2.7-6 6v14c0 3.3 2.7 6 6 6h14c3.3 0 6-2.7 6-6H14c-3.3 0-6-2.7-6-6z"/></svg>