<svg xmlns="http://www.w3.org/2000/svg" width="18" height="18" version="1" viewBox="0 0 18 18"><path fill="#4AB9E4" d="M9 2C5.155 2 2 5.155 2 9s3.106 7 7 7 7-3.155 7-7-3.155-7-7-7M7.521 12.401c.049.049.246.148.296.394a.573.573 0 0 1-.099.493c-.099.197-.296.246-.493.246a.902.902 0 0 1-.345-.099l-.345-.148c-1.43-.739-2.317-2.268-2.317-3.993v-.69c0-1.676.887-3.204 2.317-3.993l.296-.148a.934.934 0 0 1 .345-.097c.197 0 .394.099.493.246s.099.296.099.493a.581.581 0 0 1-.246.493c-.839.395-1.332 1.233-1.332 2.17v2.465c0 .936.493 1.823 1.331 2.168m6.211-3.056c0 1.676-.887 3.204-2.317 3.993l-.345.148a.92.92 0 0 1-.345.099c-.246 0-.394-.099-.493-.246-.099-.148-.099-.296-.049-.493.049-.246.246-.345.296-.394.838-.394 1.331-1.232 1.331-2.169V7.817c0-.937-.493-1.824-1.331-2.169 0 0-.246-.099-.296-.394-.049-.197 0-.345.049-.493a.607.607 0 0 1 .493-.246c.099 0 .246.049.345.099l.296.148c1.43.739 2.317 2.268 2.317 3.993.049-.1.049.59.049.59z"/></svg>