<svg xmlns="http://www.w3.org/2000/svg" width="20" height="20" viewBox="0 0 20 20"><path fill="#FFF" d="M10 0C4.507 0 0 4.507 0 10s4.437 10 10 10 10-4.507 10-10S15.493 0 10 0zM8.169 16.127c-.141.282-.423.352-.704.352-.141 0-.352-.07-.493-.141l-.493-.211c-2.042-1.056-3.31-3.239-3.31-5.704v-.986c0-2.394 1.268-4.577 3.31-5.704l.423-.211c.14-.071.352-.142.492-.142.282 0 .563.141.704.352.141.211.141.423.141.704 0 .493-.352.704-.352.704-1.197.564-1.901 1.761-1.901 3.099v3.521c0 1.338.704 2.606 1.901 3.099.07.07.352.211.423.563.07.282 0 .493-.141.705zm5.282.07l-.493.211c-.141.07-.352.141-.493.141-.352 0-.563-.141-.704-.352-.141-.211-.141-.422-.07-.704.07-.352.352-.493.423-.563 1.197-.563 1.901-1.761 1.901-3.099V8.31c0-1.338-.704-2.606-1.901-3.099 0 0-.352-.141-.423-.563-.07-.282 0-.493.07-.704.141-.211.423-.352.704-.352.141 0 .352.07.493.141l.423.211c2.042 1.056 3.31 3.239 3.31 5.704.07-.141.07.845.07.845 0 2.394-1.268 4.577-3.31 5.704z"/></svg>