<svg xmlns="http://www.w3.org/2000/svg" width="24" height="24" viewBox="0 0 24 24"><path fill="none" d="M0 0h24v24H0z"/><g fill="#fff"><path d="M12.5 20a.5.5 0 0 1-.5-.5 1.61 1.61 0 0 0-1.7-1.5H1.5a.5.5 0 0 1-.5-.5v-15A1.55 1.55 0 0 1 2.6 1h6.6A3.66 3.66 0 0 1 13 4.5v15a.5.5 0 0 1-.5.5zM2 17h8.3a2.83 2.83 0 0 1 1.7.56V4.5A2.67 2.67 0 0 0 9.2 2H2.6a.56.56 0 0 0-.6.5V17z"/><path d="M12.5 20a.5.5 0 0 1-.5-.5v-15A3.66 3.66 0 0 1 15.8 1h6.6A1.55 1.55 0 0 1 24 2.5v15a.5.5 0 0 1-.5.5h-8.8a1.61 1.61 0 0 0-1.7 1.5.5.5 0 0 1-.5.5zm3.3-18A2.67 2.67 0 0 0 13 4.5v13.06a2.83 2.83 0 0 1 1.7-.56H23V2.5a.56.56 0 0 0-.6-.5h-6.6z"/></g><path fill="#fff" d="M1 20h10v1H1zm13 0h10v1H14zm-9-8h4v1H5zm0-3h4v1H5zm0-3h4v1H5zm11 6h4v1h-4zm0-3h4v1h-4zm0-3h4v1h-4z" opacity=".3"/></svg>