<svg width="48" height="48" viewBox="0 0 48 48" xmlns="http://www.w3.org/2000/svg"><g fill="none" fill-rule="evenodd"><path d="M0 0h48v48H0z"/><path d="M24.5 47a5.008 5.008 0 0 1-4.899-4H1v-2h19.5a1 1 0 0 1 1 1c0 1.654 1.346 3 3 3s3-1.346 3-3a1 1 0 0 1 1-1H48v2H29.399a5.008 5.008 0 0 1-4.899 4z" fill="#FFF" opacity=".4"/><path d="M45.829 2H30.943c-2.919 0-5.418 1.663-6.443 4.009C23.475 3.663 20.976 2 18.057 2H3.171C1.832 2 1 2.944 1 4.464V37.5a.5.5 0 0 0 .5.5h18.663a.501.501 0 0 0 .337.131c1.484 0 2.988 1.149 3.478 2.484a3.42 3.42 0 0 0-.126.885.5.5 0 0 0 .5.5h.295a.5.5 0 0 0 .5-.5c0-.298-.047-.594-.126-.885.491-1.335 1.994-2.484 3.478-2.484.13 0 .249-.05.337-.131H47.5a.5.5 0 0 0 .5-.5V4.464C48 2.944 47.168 2 45.829 2zM24 38.791c-.809-.895-1.957-1.536-3.146-1.644A.497.497 0 0 0 20.5 37H2V4.464C2 3.796 2.203 3 3.171 3h14.886C21.334 3 24 5.409 24 8.369v30.422zM47 37H28.5a.497.497 0 0 0-.354.147c-1.189.108-2.337.75-3.146 1.644V8.369C25 5.409 27.666 3 30.943 3h14.886C46.797 3 47 3.796 47 4.464V37z" fill="#FFF"/><path fill="#FFF" opacity=".3" d="M8 12h10v3H8zM8 19h10v3H8zM8 26h10v3H8zM31 12h10v3H31zM31 19h10v3H31zM31 26h10v3H31z"/></g></svg>