<svg width="24" height="24" viewBox="0 0 24 24" xmlns="http://www.w3.org/2000/svg"><g fill="none" fill-rule="evenodd"><path d="M0 0h24v24H0z"/><path fill="#0B1F35" opacity=".3" d="M1 20h10v1H1zM14 20h10v1H14z"/><path d="M22.4 1h-6.6c-1.421 0-2.648.731-3.3 1.799C11.848 1.731 10.622 1 9.2 1H2.6C1.718 1 1 1.673 1 2.5v15a.5.5 0 0 0 .5.5h8.8c.938 0 1.7.673 1.7 1.5a.5.5 0 0 0 1 0c0-.827.763-1.5 1.7-1.5h8.8a.5.5 0 0 0 .5-.5v-15c0-.827-.718-1.5-1.6-1.5zM12 17.559A2.826 2.826 0 0 0 10.3 17H2V2.5c0-.276.269-.5.6-.5h6.6C10.744 2 12 3.122 12 4.5v13.059zM23 17h-8.3c-.644 0-1.236.21-1.7.559V4.5C13 3.122 14.256 2 15.8 2h6.6c.331 0 .6.224.6.5V17z" fill="#0B1F35"/><path fill="#0B1F35" opacity=".3" d="M5 12h4v1H5zM5 9h4v1H5zM5 6h4v1H5zM16 12h4v1h-4zM16 9h4v1h-4zM16 6h4v1h-4z"/></g></svg>