<?xml version="1.0" encoding="UTF-8"?>
<svg width="36px" height="36px" viewBox="0 0 36 36" version="1.1" xmlns="http://www.w3.org/2000/svg" xmlns:xlink="http://www.w3.org/1999/xlink">
    <!-- Generator: Sketch 48.2 (47327) - http://www.bohemiancoding.com/sketch -->
    <title>icon_category-education_xl_white</title>
    <desc>Created with Sketch.</desc>
    <defs></defs>
    <g id="mobile" stroke="none" stroke-width="1" fill="none" fill-rule="evenodd" transform="translate(-1767.000000, -246.000000)">
        <g id="Headings" transform="translate(64.000000, 77.000000)">
            <g id="icon_category_education__xl__white" transform="translate(1703.000000, 169.000000)">
                <g id="ungroup">
                    <rect id="Rectangle-path" x="0" y="0" width="36" height="36"></rect>
                    <g id="a1" opacity="0.4"></g>
                    <rect id="Rectangle-path" fill="#FFFFFF" opacity="0.3" x="2" y="30" width="14" height="2"></rect>
                    <rect id="Rectangle-path" fill="#FFFFFF" opacity="0.3" x="21" y="30" width="14" height="2"></rect>
                    <path d="M32.85,3 L23.45,3 C21.254,3 19.362,4.2 18.5,5.921 C17.638,4.2 15.746,3 13.55,3 L4.15,3 C2.964,3 2,3.897 2,5 L2,27.5 C2,27.776 2.224,28 2.5,28 L15.2,28 C16.744,28 18,29.122 18,30.5 C18,30.776 18.224,31 18.5,31 C18.776,31 19,30.776 19,30.5 C19,29.122 20.256,28 21.8,28 L34.5,28 C34.776,28 35,27.776 35,27.5 L35,5 C35,3.897 34.036,3 32.85,3 L32.85,3 Z M18,28.136 C17.305,27.438 16.307,27 15.2,27 L3,27 L3,5 C3,4.449 3.516,4 4.15,4 L13.55,4 C16.003,4 18,5.794 18,8 L18,28.136 L18,28.136 Z M34,27 L21.8,27 C20.693,27 19.696,27.438 19,28.136 L19,8 C19,5.794 20.997,4 23.45,4 L32.85,4 C33.484,4 34,4.449 34,5 L34,27 L34,27 Z" id="Shape" fill="#FFFFFF"></path>
                    <rect id="Rectangle-path" fill="#FFFFFF" opacity="0.3" x="7" y="9" width="7" height="2"></rect>
                    <rect id="Rectangle-path" fill="#FFFFFF" opacity="0.3" x="7" y="14" width="7" height="2"></rect>
                    <rect id="Rectangle-path" fill="#FFFFFF" opacity="0.3" x="7" y="19" width="7" height="2"></rect>
                    <rect id="Rectangle-path" fill="#FFFFFF" opacity="0.3" x="23" y="9" width="7" height="2"></rect>
                    <rect id="Rectangle-path" fill="#FFFFFF" opacity="0.3" x="23" y="14" width="7" height="2"></rect>
                    <rect id="Rectangle-path" fill="#FFFFFF" opacity="0.3" x="23" y="19" width="7" height="2"></rect>
                </g>
            </g>
        </g>
    </g>
</svg>