<svg xmlns="http://www.w3.org/2000/svg" width="47" height="45" viewBox="0 0 47 45"><g fill="none" fill-rule="evenodd"><path d="M-1-2h48v48H-1z"/><path fill="#FFF" d="M23.5 45a5.008 5.008 0 0 1-4.899-4H0v-2h19.5a1 1 0 0 1 1 1c0 1.654 1.346 3 3 3s3-1.346 3-3a1 1 0 0 1 1-1H47v2H28.399a5.008 5.008 0 0 1-4.899 4z" opacity=".4"/><path fill="#FFF" d="M44.829 0H29.943c-2.919 0-5.418 1.663-6.443 4.009C22.475 1.663 19.976 0 17.057 0H2.171C.832 0 0 .944 0 2.464V35.5a.5.5 0 0 0 .5.5h18.663a.501.501 0 0 0 .337.131c1.484 0 2.988 1.149 3.478 2.484a3.42 3.42 0 0 0-.126.885.5.5 0 0 0 .5.5h.295a.5.5 0 0 0 .5-.5c0-.298-.047-.594-.126-.885.491-1.335 1.994-2.484 3.478-2.484.13 0 .249-.05.337-.131H46.5a.5.5 0 0 0 .5-.5V2.464C47 .944 46.168 0 44.829 0zM23 36.791c-.809-.895-1.957-1.536-3.146-1.644A.497.497 0 0 0 19.5 35H1V2.464C1 1.796 1.203 1 2.171 1h14.886C20.334 1 23 3.409 23 6.369v30.422zM46 35H27.5a.497.497 0 0 0-.354.147c-1.189.108-2.337.75-3.146 1.644V6.369C24 3.409 26.666 1 29.943 1h14.886C45.797 1 46 1.796 46 2.464V35z"/><path fill="#FFF" d="M7 10h10v3H7zm0 7h10v3H7zm0 7h10v3H7zm23-14h10v3H30zm0 7h10v3H30zm0 7h10v3H30z" opacity=".3"/></g></svg>