<?xml version="1.0" encoding="UTF-8"?>
<svg width="48px" height="48px" viewBox="0 0 48 48" version="1.1" xmlns="http://www.w3.org/2000/svg" xmlns:xlink="http://www.w3.org/1999/xlink">
    <!-- Generator: Sketch 48.2 (47327) - http://www.bohemiancoding.com/sketch -->
    <title>icon_category-education_xxl_black</title>
    <desc>Created with Sketch.</desc>
    <defs></defs>
    <g id="mobile" stroke="none" stroke-width="1" fill="none" fill-rule="evenodd" transform="translate(-1843.000000, -246.000000)">
        <g id="Headings" transform="translate(64.000000, 77.000000)">
            <g id="icon_category_education__xxl__white" transform="translate(1779.000000, 169.000000)">
                <g id="ungroup">
                    <rect id="Rectangle-path" x="0" y="0" width="48" height="48"></rect>
                    <g id="a1" opacity="0.4"></g>
                    <path d="M24.5,47 C22.085,47 20.065,45.279 19.601,43 L1,43 L1,41 L20.5,41 C21.052,41 21.5,41.448 21.5,42 C21.5,43.654 22.846,45 24.5,45 C26.154,45 27.5,43.654 27.5,42 C27.5,41.448 27.948,41 28.5,41 L48,41 L48,43 L29.399,43 C28.935,45.279 26.915,47 24.5,47 L24.5,47 Z" id="Shape" fill="#0B1F35" opacity="0.4"></path>
                    <path d="M45.829,2 L30.943,2 C28.024,2 25.525,3.663 24.5,6.009 C23.475,3.663 20.976,2 18.057,2 L3.171,2 C1.832,2 1,2.944 1,4.464 L1,37.5 C1,37.776 1.224,38 1.5,38 L20.163,38 C20.252,38.081 20.371,38.131 20.5,38.131 C21.984,38.131 23.488,39.28 23.978,40.615 C23.9,40.906 23.852,41.202 23.852,41.5 C23.852,41.776 24.076,42 24.352,42 L24.5,42 L24.647,42 C24.923,42 25.147,41.776 25.147,41.5 C25.147,41.202 25.1,40.906 25.021,40.615 C25.512,39.28 27.015,38.131 28.499,38.131 C28.629,38.131 28.748,38.081 28.836,38 L47.5,38 C47.776,38 48,37.776 48,37.5 L48,4.464 C48,2.944 47.168,2 45.829,2 L45.829,2 Z M24,38.791 C23.191,37.896 22.043,37.255 20.854,37.147 C20.764,37.056 20.638,37 20.5,37 L2,37 L2,4.464 C2,3.796 2.203,3 3.171,3 L18.057,3 C21.334,3 24,5.409 24,8.369 L24,38.791 L24,38.791 Z M47,37 L28.5,37 C28.362,37 28.236,37.056 28.146,37.147 C26.957,37.255 25.809,37.897 25,38.791 L25,8.369 C25,5.409 27.666,3 30.943,3 L45.829,3 C46.797,3 47,3.796 47,4.464 L47,37 L47,37 Z" id="Shape" fill="#0B1F35"></path>
                    <rect id="Rectangle-path" fill="#0B1F35" opacity="0.3" x="8" y="12" width="10" height="3"></rect>
                    <rect id="Rectangle-path" fill="#0B1F35" opacity="0.3" x="8" y="19" width="10" height="3"></rect>
                    <rect id="Rectangle-path" fill="#0B1F35" opacity="0.3" x="8" y="26" width="10" height="3"></rect>
                    <rect id="Rectangle-path" fill="#0B1F35" opacity="0.3" x="31" y="12" width="10" height="3"></rect>
                    <rect id="Rectangle-path" fill="#0B1F35" opacity="0.3" x="31" y="19" width="10" height="3"></rect>
                    <rect id="Rectangle-path" fill="#0B1F35" opacity="0.3" x="31" y="26" width="10" height="3"></rect>
                </g>
            </g>
        </g>
    </g>
</svg>