<svg width="36" height="36" viewBox="0 0 36 36" xmlns="http://www.w3.org/2000/svg"><g fill="none" fill-rule="evenodd"><path d="M0 0h36v36H0z"/><path fill="#FFF" opacity=".3" d="M2 30h14v2H2zM21 30h14v2H21z"/><path d="M32.85 3h-9.4c-2.196 0-4.088 1.2-4.95 2.921C17.638 4.2 15.746 3 13.55 3h-9.4C2.964 3 2 3.897 2 5v22.5a.5.5 0 0 0 .5.5h12.7c1.544 0 2.8 1.122 2.8 2.5a.5.5 0 0 0 1 0c0-1.378 1.256-2.5 2.8-2.5h12.7a.5.5 0 0 0 .5-.5V5c0-1.103-.964-2-2.15-2zM18 28.136A3.944 3.944 0 0 0 15.2 27H3V5c0-.551.516-1 1.15-1h9.4C16.003 4 18 5.794 18 8v20.136zM34 27H21.8a3.945 3.945 0 0 0-2.8 1.136V8c0-2.206 1.997-4 4.45-4h9.4c.634 0 1.15.449 1.15 1v22z" fill="#FFF"/><path fill="#FFF" opacity=".3" d="M7 9h7v2H7zM7 14h7v2H7zM7 19h7v2H7zM23 9h7v2h-7zM23 14h7v2h-7zM23 19h7v2h-7z"/></g></svg>