<svg width="36px" height="36px" viewBox="0 0 36 36" version="1.1" xmlns="http://www.w3.org/2000/svg"><g transform="translate(-422.000000, -107.000000)" stroke="none" stroke-width="1" fill="none" fill-rule="evenodd"><rect x="422" y="107" width="36" height="36"/><g transform="translate(424.000000, 109.000000)" fill-rule="nonzero"><path d="M22.176,12.155 C22.784,11.952 23.494,11.446 23.494,10.128 C23.494,8.709 22.379,8 20.656,8 L17.818,8 L17.818,11.446 L16.095,11.446 C13.865,11.446 13.359,12.966 13.359,13.777 C13.359,14.993 14.068,15.5 15.285,16.108 C16.096,16.412 17.008,16.817 17.008,17.527 C17.008,17.932 16.603,18.541 15.69,18.541 L14.27,18.541 C14.473,18.136 14.574,17.629 14.574,17.223 C14.574,16.615 14.371,14.487 11.331,14.487 L9,14.487 L9,23 L10.723,23 L10.723,19.25 L11.432,19.959 L15.993,19.959 C18.121,19.959 19.236,18.844 19.236,17.527 C19.236,17.122 19.135,16.615 19.033,16.412 L20.857,16.412 C23.593,16.412 24.202,15.094 24.202,14.081 C23.9847354,13.084723 23.1819902,12.3215999 22.176,12.155 Z M11.432,18.946 L10.621,18.946 L10.621,16.108 L11.432,16.108 C12.446,16.108 12.851,16.716 12.851,17.426 C12.851,18.136 12.446,18.946 11.432,18.946 Z M18.02,13.676 L18.02,15.703 C17.615,15.5 17.108,15.298 16.702,14.994 C16.094,14.791 15.587,14.386 15.587,13.778 C15.587,13.474 15.79,12.866 16.803,12.866 L18.83,12.866 L18.02,13.676 Z M19.743,9.52 L20.554,9.52 C21.872,9.52 21.872,10.331 21.872,10.534 C21.872,10.838 21.669,11.548 20.554,11.548 L19.743,11.548 L19.743,9.52 Z M20.655,15.297 L19.641,15.297 L19.641,12.966 L20.655,12.966 C21.871,12.966 22.074,13.574 22.074,14.081 C22.176,14.791 21.77,15.297 20.655,15.297 Z" fill="#14478E"/><path d="M26,0 L12,0 C8.7,0 6,2.7 6,6 L20,6 C23.3,6 26,8.7 26,12 L26,26 C29.3,26 32,23.3 32,20 L32,6 C32,2.7 29.3,0 26,0 Z" fill="#14478E"/><path d="M6,20 L6,6 C2.7,6 0,8.7 0,12 L0,26 C0,29.3 2.7,32 6,32 L20,32 C23.3,32 26,29.3 26,26 L12,26 C8.7,26 6,23.3 6,20 Z" fill="#DC6831"/></g></g></svg>