<svg xmlns="http://www.w3.org/2000/svg" width="24" height="24" viewBox="0 0 24 24"><g fill="none" fill-rule="evenodd"><path d="M0 0h24v24H0z"/><path fill="#0B1F35" d="M4 8v12.5C4 21.878 5.122 23 6.5 23h12c1.378 0 2.5-1.122 2.5-2.5V8h-1v12.5c0 .827-.673 1.5-1.5 1.5h-12c-.827 0-1.5-.673-1.5-1.5V8H4zM3 5.5C3 4.673 3.673 4 4.5 4h16c.827 0 1.5.673 1.5 1.5V8h1V5.5C23 4.122 21.878 3 20.5 3H16V1.5c0-.827-.673-1.5-1.5-1.5h-4C9.673 0 9 .673 9 1.5V3H4.5A2.503 2.503 0 0 0 2 5.5V8h1V5.5zm7-4a.5.5 0 0 1 .5-.5h4a.5.5 0 0 1 .5.5V3h-5V1.5z"/><path fill="#0B1F35" d="M9 9h2v9H9V9zm5 0h2v9h-2V9z" opacity=".3"/></g></svg>