<svg xmlns="http://www.w3.org/2000/svg" width="41" height="45" viewBox="0 0 41 45"><g fill="none" fill-rule="evenodd"><path d="M-4 0h48v48H-4z"/><path fill="#0B1F35" d="M4 15.5v25C4 42.981 6.019 45 8.5 45h24c2.481 0 4.5-2.019 4.5-4.5v-25h-1v25c0 1.93-1.57 3.5-3.5 3.5h-24C6.57 44 5 42.43 5 40.5v-25H4zm-3-5C1 8.57 2.57 7 4.5 7h32c1.93 0 3.5 1.57 3.5 3.5v5h1v-5C41 8.019 38.981 6 36.5 6H27V2.5C27 1.122 25.878 0 24.5 0h-8A2.503 2.503 0 0 0 14 2.5V6H4.5A4.505 4.505 0 0 0 0 10.5v5h1v-5zm14-8c0-.827.673-1.5 1.5-1.5h8c.827 0 1.5.673 1.5 1.5V6H15V2.5z"/><path fill="#0B1F35" d="M13 18h4v18h-4zm11 0h4v18h-4z" opacity=".3"/></g></svg>
