<svg xmlns="http://www.w3.org/2000/svg" width="31" height="34" viewBox="0 0 31 34"><g fill="none" fill-rule="evenodd"><path d="M-2-1h36v36H-2z"/><path fill="#FFF" d="M3 11v19.465C3 32.415 4.57 34 6.5 34h18c1.93 0 3.5-1.585 3.5-3.535V11h-1v19.465C27 31.863 25.878 33 24.5 33h-18C5.122 33 4 31.863 4 30.465V11H3zM1 7.5C1 6.122 2.122 5 3.5 5h24C28.878 5 30 6.122 30 7.5V11h1V7.5C31 5.57 29.43 4 27.5 4H21V1.833C21 .822 20.028 0 18.833 0h-6.667C10.972 0 10 .822 10 1.833V4H3.5C1.57 4 0 5.57 0 7.5V11h1V7.5zm10-5.667c0-.451.534-.833 1.167-.833h6.667c.632 0 1.166.382 1.166.833V4h-9V1.833z"/><path fill="#FFF" d="M10 13h3v14h-3zm8 0h3v14h-3z" opacity=".3"/></g></svg>