<svg xmlns="http://www.w3.org/2000/svg" width="16" height="16" viewBox="0 0 16 16"><g fill="none" fill-rule="evenodd"><path d="M0 0h16v16H0z"/><g fill="#0B1F35" fill-rule="nonzero"><path d="M1.333 13.778c0 1.225.998 2.222 2.223 2.222h8.888a2.225 2.225 0 0 0 2.223-2.222V5.333h-.89v8.445c0 .735-.597 1.333-1.333 1.333H3.556a1.335 1.335 0 0 1-1.334-1.333V5.333h-.889v8.445zM2.667 2.667h10.666c.735 0 1.334.598 1.334 1.333v1.333h.889V4a2.225 2.225 0 0 0-2.223-2.222h-3.11v-.445A1.337 1.337 0 0 0 8.888 0H7.11c-.735 0-1.333.598-1.333 1.333v.445h-3.11A2.225 2.225 0 0 0 .444 4v1.333h.89V4c0-.735.598-1.333 1.333-1.333zM7.11.889h1.78c.245 0 .444.199.444.444v.445H6.667v-.445c0-.245.199-.444.444-.444z"/><path d="M4.889 7.111h1.778v5.333H4.889V7.111zm4.444 0h1.778v5.333H9.333V7.111z" opacity=".3"/></g></g></svg>