<svg xmlns="http://www.w3.org/2000/svg" width="30" height="30" viewBox="0 0 30 30"><g fill="none" fill-rule="evenodd"><path d="M0 0h30v30H0z"/><g fill="#FFF" fill-rule="nonzero"><path d="M3.5 25.465C3.5 27.415 5.07 29 7 29h16c1.93 0 3.5-1.585 3.5-3.535V12h-1v13.465C25.5 26.863 24.378 28 23 28H7c-1.378 0-2.5-1.137-2.5-2.535V12h-1v13.465zM5 6h20c1.378 0 2.5 1.122 2.5 2.5V12h1V8.5C28.5 6.57 26.93 5 25 5h-5.5V2.833C19.5 1.822 18.528 1 17.333 1h-4.667c-1.194 0-2.166.822-2.166 1.833V5H5C3.07 5 1.5 6.57 1.5 8.5V12h1V8.5C2.5 7.122 3.622 6 5 6zm7.667-4h4.667c.632 0 1.166.382 1.166.833V5h-7V2.833c0-.451.534-.833 1.167-.833z"/><path d="M10.5 14h3v11h-3V14zm6 0h3v11h-3V14z" opacity=".3"/></g></g></svg>