<svg xmlns="http://www.w3.org/2000/svg" width="30" height="30" version="1" viewBox="0 0 30 30"><path fill="#0B1F35" d="M19 28H6a4.005 4.005 0 0 1-3.998-3.874H2V8.293L8.293 2H19c2.206 0 4 1.794 4 4v5h-1V6c0-1.654-1.346-3-3-3H8.707L3 8.707V24c0 1.654 1.346 3 3 3h13c1.654 0 3-1.346 3-3h1c0 2.206-1.794 4-4 4z"/><path fill="#0B1F35" d="M18 21h-1.237l-2.498-4.783-.265.005V21h-1v-7h1.24l2.498 4.779.262-.005V14h1v7zm5.143 0c-.896 0-1.635-.26-2.198-.774-.561-.508-.845-1.179-.845-1.995v-1.463c0-.813.273-1.484.812-1.994.541-.514 1.249-.774 2.106-.774.893 0 1.584.202 2.054.6.453.383.687.785.712 1.4h-1.246c-.044-.353-.181-.557-.407-.771-.247-.234-.607-.353-1.071-.353-.49 0-.893.179-1.196.532-.299.35-.45.803-.45 1.35v1.47c0 .557.156 1.016.466 1.364.314.353.739.532 1.265.532.366 0 .654-.034.882-.107.23-.071.895-.407 1.017-.517L25 18h-2v-1h2.901v3.044c-.191.197-.533.435-.992.641-.462.208-1.056.315-1.766.315zM6.947 19v2H6v-7h2.678c.747 0 1.305.303 1.718.688s.643 1.184.643 1.812c0 .638-.306 1.475-.72 1.854-.414.38-.894.646-1.641.646H6.947zm0-1h1.651c.452 0 .791-.141 1.014-.424s.335-.638.335-1.068-.113-.788-.337-1.076C9.385 15.144 9.048 15 8.599 15H6.947v3z"/></svg>