<svg xmlns="http://www.w3.org/2000/svg" width="20" height="22" viewBox="0 0 20 22"><path fill="#FFF" fill-rule="evenodd" d="M18 7h-1V3c0-1.103-.897-2-2-2H5.707L1 5.707V6H0v-.707L5.293 0H15c1.654 0 3 1.346 3 3v4zm-3 15H3c-1.654 0-3-1.346-3-3v-1h1v1c0 1.103.897 2 2 2h12c1.103 0 2-.897 2-2v-1h1v1c0 1.654-1.346 3-3 3zm-3-6h-1.237l-2.498-4.783-.265.005V16H7V9h1.24l2.498 4.779.262-.005V9h1zm5.143 0c-.896 0-1.635-.26-2.198-.774-.561-.508-.845-1.179-.845-1.995v-1.463c0-.813.273-1.484.812-1.994C15.453 9.26 16.161 9 17.018 9c.893 0 1.584.202 2.054.6.453.383.687.785.712 1.4h-1.246c-.044-.353-.181-.557-.407-.771-.247-.234-.607-.353-1.071-.353-.49 0-.893.179-1.196.532-.299.35-.45.803-.45 1.35v1.47c0 .557.156 1.016.466 1.364.314.353.739.532 1.265.532.366 0 .654-.034.882-.107.23-.071.895-.407 1.017-.517L19 13h-2v-1h2.901v3.044c-.191.197-.533.435-.992.641-.462.208-1.056.315-1.766.315zM.947 14v2H0V9h2.678a2.45 2.45 0 0 1 1.718.688c.413.385.643 1.184.643 1.812 0 .638-.306 1.475-.72 1.854S3.425 14 2.678 14H.947zm0-1h1.651c.452 0 .791-.141 1.014-.424.223-.282.335-.638.335-1.068 0-.43-.113-.788-.337-1.076-.225-.288-.562-.432-1.012-.432H.947v3z"/></svg>