<svg xmlns="http://www.w3.org/2000/svg" width="44" height="41" viewBox="0 0 44 41"><g fill="#0B1F35" fill-rule="evenodd"><path d="M17 24h10v7H17z" opacity=".3"/><path d="M31 28v-1h11.01c.547 0 .99-.447.99-1.005V6.005C43 5.45 42.55 5 41.995 5H2.005C1.45 5 1 5.45 1 6.005v19.99C1 26.551 1.448 27 2 27h11v1H2c-1.104 0-2-.897-2-2.005V6.005C0 4.898.899 4 2.005 4h39.99C43.102 4 44 4.897 44 6.005v19.99A1.996 1.996 0 0 1 42.01 28H31zM2 28h1v10.988c0 .557.45 1.012.997 1.012h36.006c.548 0 .997-.452.997-1.011V28h1v10.989c0 1.11-.897 2.011-1.997 2.011H3.997A2.008 2.008 0 0 1 2 38.988V28z"/><path d="M29 4l-1 1V4h1zM16 4h12V1H16v3zm-1-4h14v5H15V0z"/></g></svg>