<svg xmlns="http://www.w3.org/2000/svg" xmlns:xlink="http://www.w3.org/1999/xlink" width="22" height="22" viewBox="0 0 22 22"><defs><path id="a" d="M4 20.981c0 .562.452 1.019.997 1.019h14.006c.547 0 .997-.455.997-1.018v-4.98h1v4.98A2.01 2.01 0 0 1 19.003 23H4.997C3.894 23 3 22.09 3 20.981L3.027 16h1L4 20.981zm12.029-5.986l4.974.003c.55 0 .997-.445.997-.99v-8.95a.997.997 0 0 0-.994-.998L2.988 4.003A.989.989 0 0 0 2 5v8.997c0 .556.448 1.005 1.004 1.005l5.052.007-.002 1-5.051-.007A2.004 2.004 0 0 1 1 13.997V5c0-1.106.89-2 1.991-1.997l18.018.057c1.1.003 1.991.895 1.991 1.998v8.95c0 1.1-.897 1.991-1.998 1.99l-4.974-.003.001-1z"/><mask id="b" width="22" height="19.997" x="0" y="0" fill="#fff"><use xlink:href="#a"/></mask></defs><g fill="none" fill-rule="evenodd" transform="translate(-1 -1)"><path fill="#FFF" d="M10 14h4v3h-4z" opacity=".3"/><path fill="#FFF" d="M10 3h4V2h-4v1zM9 1h6v3H9V1z"/><use stroke="#FFF" stroke-width="2" mask="url(#b)" xlink:href="#a"/></g></svg>