<svg xmlns="http://www.w3.org/2000/svg" width="48" height="48" viewBox="0 0 48 48" fill="none"><rect width="48" height="48" fill="none"/><path d="M7.5 3.5C7.5 1.84315 8.84315 0.5 10.5 0.5H30.7927L40.6113 10.3285C41.1732 10.891 41.4889 11.6536 41.4889 12.4487V44.5C41.4889 46.1569 40.1457 47.5 38.4889 47.5H10.5C8.84314 47.5 7.5 46.1569 7.5 44.5V3.5Z" fill="#F3F4F5" stroke="#E7E9EB"/><path fill-rule="evenodd" clip-rule="evenodd" d="M41.9888 14L41.9888 11L30.9999 4.76137e-06L10.4999 4.87655e-06C8.56692 4.70756e-06 6.99991 1.56701 6.99991 3.5L6.99991 14L41.9888 14Z" fill="#6D7986"/><path opacity="0.6" d="M31 0L42 11H34.5C32.567 11 31 9.433 31 7.5V0Z" fill="white"/></svg>