<svg width="18" height="18" viewBox="0 0 18 18" fill="none" xmlns="http://www.w3.org/2000/svg"><rect width="18" height="18" fill="none"/><path fill-rule="evenodd" clip-rule="evenodd" d="M14 15.706V2.467C14 2.177 13.749 1.941 13.441 1.941H6.707L3 5.431V15.706H2V5.04L6.293 1H13.441C14.301 1 15 1.658 15 2.467V15.706H14Z" fill="#EF3124"/><path fill-rule="evenodd" clip-rule="evenodd" d="M13.5 17H3.5C2.673 17 2 16.367 2 15.588H3C3 15.848 3.224 16.058 3.5 16.058H13.5C13.775 16.058 14 15.848 14 15.588H15C15 16.367 14.327 17 13.5 17Z" fill="#EF3124"/><path d="M8.83 12.155C8.276 12.155 7.88 12.551 7.88 13.112C7.88 13.666 8.276 14.062 8.83 14.062C9.384 14.062 9.773 13.666 9.773 13.112C9.773 12.552 9.384 12.155 8.83 12.155ZM8.98 4C7.059 4 6.075 5.176 6 6.652H7.169C7.244 5.674 7.9 5.066 8.933 5.066C9.952 5.066 10.608 5.688 10.608 6.536C10.608 7.267 10.3 7.698 9.507 8.183C8.57 8.744 8.133 9.359 8.14 10.261V10.89H9.336V10.446C9.336 9.728 9.582 9.345 10.45 8.833C11.325 8.307 11.879 7.548 11.879 6.475C11.879 5.067 10.703 4 8.98 4Z" fill="#EF3124"/></svg>