<svg width="18" height="18" viewBox="0 0 18 18" fill="none" xmlns="http://www.w3.org/2000/svg"><rect width="18" height="18" fill="none"/><path opacity="0.35" d="M12.75 8.25H5.25V9.75H12.75V8.25Z" fill="#0B1F35"/><path opacity="0.35" d="M9.75 5.25H5.25V6.75H9.75V5.25Z" fill="#0B1F35"/><path d="M14.25 17.25H3.75C2.925 17.25 2.25 16.575 2.25 15.75V2.25C2.25 1.425 2.925 0.75 3.75 0.75H11.775L15.75 4.725V15.75C15.75 16.575 15.075 17.25 14.25 17.25ZM3.75 1.5C3.3 1.5 3 1.8 3 2.25V15.75C3 16.2 3.3 16.5 3.75 16.5H14.25C14.7 16.5 15 16.2 15 15.75V5.025L11.475 1.5H3.75Z" fill="#0B1F35"/><path opacity="0.3" d="M6.75 14.25C7.57843 14.25 8.25 13.5784 8.25 12.75C8.25 11.9216 7.57843 11.25 6.75 11.25C5.92157 11.25 5.25 11.9216 5.25 12.75C5.25 13.5784 5.92157 14.25 6.75 14.25Z" fill="#0B1F35"/></svg>