<svg xmlns="http://www.w3.org/2000/svg" width="36" height="36" viewBox="0 0 36 36"><g fill="none" fill-rule="evenodd"><rect width="36" height="36"/><g fill="#FFF" fill-rule="nonzero" transform="translate(5 1)"><rect width="15" height="3" x="5" y="14" opacity=".35"/><rect width="9" height="3" x="5" y="8" opacity=".35"/><path d="M23.2,33.1 L2.8,33.1 C1.3,33.1 0,31.8 0,30.3 L0,2.8 C0,1.3 1.3,0 2.8,0 L18.1,0 L26,7.9 L26,30.3 C26,31.9 24.7,33.1 23.2,33.1 Z M2.8,1 C1.8,1 1,1.8 1,2.8 L1,30.3 C1,31.3 1.8,32.1 2.8,32.1 L23.2,32.1 C24.2,32.1 25,31.3 25,30.3 L25,8.3 L17.6,1 L2.8,1 Z"/><circle cx="7.5" cy="23.5" r="2.5" opacity=".3"/></g></g></svg>