<svg xmlns="http://www.w3.org/2000/svg" width="24" height="24" viewBox="0 0 24 24"><g fill="none" fill-rule="evenodd"><rect width="24" height="24"/><g fill="#FFF" fill-rule="nonzero" transform="translate(3 1)"><rect width="10" height="2" x="4" y="10" opacity=".35"/><rect width="6" height="2" x="4" y="6" opacity=".35"/><path d="M16,22 L2,22 C0.9,22 0,21.1 0,20 L0,2 C0,0.9 0.9,0 2,0 L12.7,0 L18,5.3 L18,20 C18,21.1 17.1,22 16,22 Z M2,1 C1.4,1 1,1.4 1,2 L1,20 C1,20.6 1.4,21 2,21 L16,21 C16.6,21 17,20.6 17,20 L17,5.7 L12.3,1 L2,1 Z"/><circle cx="6" cy="16" r="2" opacity=".3"/></g></g></svg>