<svg xmlns="http://www.w3.org/2000/svg" width="48" height="48" viewBox="0 0 48 48"><g fill="none" fill-rule="evenodd"><rect width="48" height="48"/><g fill="#FFF" fill-rule="nonzero" transform="translate(6 2)"><rect width="20" height="4" x="7" y="19" opacity=".35"/><rect width="12" height="4" x="7" y="11" opacity=".35"/><path d="M31.5,44 L3.5,44 C1.6,44 0,42.4 0,40.5 L0,3.5 C0,1.6 1.6,0 3.5,0 L24.7,0 L35,10.3 L35,40.5 C35,42.4 33.4,44 31.5,44 Z M3.5,1 C2.1,1 1,2.1 1,3.5 L1,40.5 C1,41.9 2.1,43 3.5,43 L31.5,43 C32.9,43 34,41.9 34,40.5 L34,10.7 L24.3,1 L3.5,1 Z"/><circle cx="10.5" cy="32.5" r="3.5" opacity=".3"/></g></g></svg>