<svg xmlns="http://www.w3.org/2000/svg" width="30" height="30" version="1" viewBox="0 0 30 30"><path fill="#184A81" d="M15.67 12.727c-4.5 0-8.318 3.068-8.318 7.091 0 1.227.409 2.523 1.159 3.682 2.114-1.977 4.023-5.659 4.705-9.886.068 0 .682-.205 1.227-.205 0 .614-.545 9.818-3.75 13.159C8.307 24.932 6.602 22.136 6.602 19c0-4.364 3-7.909 7.023-8.795.205-2.864.205-4.091.205-5.523h.682s0 4.091-.068 5.386c.273 0 .477-.068.75-.068V1h.614v9c.273 0 .477 0 .75.068 0-1.295-.068-5.386-.068-5.386h.682c0 1.432 0 2.591.205 5.523 4.091.886 7.023 4.5 7.023 8.795 0 3.136-1.568 5.932-4.091 7.5-3.273-3.273-3.75-12.545-3.75-13.159.477 0 1.091.205 1.227.205.682 4.364 2.523 7.909 4.705 9.886a6.346 6.346 0 0 0 1.159-3.682c.27-3.955-3.548-7.023-7.98-7.023m-2.863 14.864c1.295-2.25 2.045-6.614 2.318-14.25h.955c.273 7.636 1.023 12 2.318 14.25-.887.273-1.841.409-2.796.409s-1.909-.136-2.795-.409z"/></svg>