<svg xmlns="http://www.w3.org/2000/svg" width="36" height="29" viewBox="0 0 36 29"><g fill="none" fill-rule="evenodd"><path d="M0-3h36v36H0z"/><path fill="#0B1F35" d="M36 25.508V6.492A3.495 3.495 0 0 0 32.508 3H13V0H5v3H3.492A3.495 3.495 0 0 0 0 6.492v19.016A3.495 3.495 0 0 0 3.492 29h29.017A3.495 3.495 0 0 0 36 25.508zm-35 0V6.492A2.495 2.495 0 0 1 3.492 4H6V1h6v3h20.508A2.495 2.495 0 0 1 35 6.492v19.016A2.495 2.495 0 0 1 32.508 28H3.492A2.495 2.495 0 0 1 1 25.508z"/><path fill="#0B1F35" d="M24 9c-3.86 0-7 3.141-7 7s3.14 7 7 7 7-3.141 7-7-3.14-7-7-7zm0 12c-2.757 0-5-2.243-5-5s2.243-5 5-5 5 2.243 5 5-2.243 5-5 5zM6 10h7v4H6z" opacity=".3"/></g></svg>