<svg width="24px" height="24px" viewBox="0 0 24 24" version="1.1" xmlns="http://www.w3.org/2000/svg"><g stroke="none" stroke-width="1" fill="none" fill-rule="evenodd"><polygon points="0 0 24 0 24 24 0 24"/><path d="M22.897,21.573 C23.165,21.392 23.392,21.165 23.572,20.898 C23.852,20.484 24,20.001 24,19.5 L24,6.5 C24.0022975,5.66850076 23.5887327,4.89090887 22.898,4.428 C22.4856781,4.14792213 21.998449,3.99875615 21.5,4 L9,4 L9,2 L3,2 L3,4 L2.5,4 C1.11997342,4.00165306 0.00165305817,5.11997342 0,6.5 L0,19.5 C2.77888823e-16,20.879 1.122,22 2.5,22 L21.5,22 C22.001,22 22.484,21.853 22.897,21.573 Z M1,19.5 L1,6.5 C1,5.673 1.673,5 2.5,5 L4,5 L4,3 L8,3 L8,5 L21.5,5 C21.8,5 22.09,5.089 22.338,5.256 L22.338,5.257 C22.7534553,5.53382555 23.0021416,6.00076966 23,6.5 L23,19.5 C23.0017988,19.9991714 22.7536823,20.466126 22.339,20.744 C22.0910365,20.910916 21.7989094,21.0000514 21.5,21 L2.5,21 C1.673,21 1,20.327 1,19.5 Z" fill="#0B1F35" fill-rule="nonzero"/><path d="M16,8 C13.243,8 11,10.243 11,13 C11,15.757 13.243,18 16,18 C18.757,18 21,15.757 21,13 C21,10.243 18.757,8 16,8 Z M16,16 C14.346,16 13,14.654 13,13 C13,11.346 14.346,10 16,10 C17.654,10 19,11.346 19,13 C19,14.654 17.654,16 16,16 Z M4,9 L9,9 L9,12 L4,12 L4,9 Z" fill="#0B1F35" fill-rule="nonzero" opacity="0.3"/></g></svg>