<svg xmlns="http://www.w3.org/2000/svg" width="24" height="20" viewBox="0 0 24 20"><g fill="none" fill-rule="evenodd"><path d="M0-2h24v24H0z"/><path fill="#0B1F35" d="M22.897 19.573c.268-.181.495-.408.675-.675.28-.414.428-.897.428-1.398v-13a2.486 2.486 0 0 0-1.102-2.072A2.477 2.477 0 0 0 21.5 2H9V0H3v2h-.5A2.503 2.503 0 0 0 0 4.5v13C0 18.879 1.122 20 2.5 20h19c.501 0 .984-.147 1.397-.427zM1 17.5v-13C1 3.673 1.673 3 2.5 3H4V1h4v2h13.5c.3 0 .59.089.838.256v.001A1.486 1.486 0 0 1 23 4.5v13a1.491 1.491 0 0 1-.661 1.244A1.502 1.502 0 0 1 21.5 19h-19c-.827 0-1.5-.673-1.5-1.5z"/><path fill="#0B1F35" d="M16 6c-2.757 0-5 2.243-5 5s2.243 5 5 5 5-2.243 5-5-2.243-5-5-5zm0 8c-1.654 0-3-1.346-3-3s1.346-3 3-3 3 1.346 3 3-1.346 3-3 3zM4 7h5v3H4z" opacity=".3"/></g></svg>