<svg width="18" height="18" viewBox="0 0 18 18" fill="none" xmlns="http://www.w3.org/2000/svg"><rect width="18" height="18" fill="none"/><path d="M3.31985 6.07544C3.16471 5.96772 2.96069 6.11201 3.00657 6.29701L4.40663 14H13.5941L14.9934 6.29701C15.0393 6.11201 14.8353 5.96772 14.6802 6.07544L12.4942 7.59332C12.5453 7.73341 12.5732 7.88492 12.5732 8.04306C12.5732 8.75826 12.0019 9.33805 11.2972 9.33805C10.5925 9.33805 10.0212 8.75826 10.0212 8.04306C10.0212 7.34767 10.5613 6.7803 11.2389 6.74939L9.4121 4.21237C9.20821 3.92921 8.79179 3.92921 8.5879 4.21237L6.76108 6.74936C7.43909 6.77992 7.97952 7.34744 7.97952 8.04306C7.97952 8.75826 7.40822 9.33805 6.70349 9.33805C5.99876 9.33805 5.42746 8.75826 5.42746 8.04306C5.42746 7.88507 5.45533 7.73369 5.50637 7.59371L3.31985 6.07544Z" fill="#FFFFFF"/></svg>