<svg xmlns="http://www.w3.org/2000/svg" width="24" height="24" viewBox="0 0 24 24"><g fill="#0B1F35"><path d="M17.557 7.906l1.953 2.314a3.133 3.133 0 0 1-.296 4.347 2.83 2.83 0 0 1-4.095-.323l-4.192-5.187a4.566 4.566 0 0 0-6.363-.728A4.417 4.417 0 0 0 3.86 14.6l2.69 3.3a.5.5 0 0 0 .776-.632l-2.691-3.3c-.023-.027-.023-.027-.045-.056a3.417 3.417 0 0 1 .589-4.795 3.566 3.566 0 0 1 4.97.568l4.191 5.188a3.83 3.83 0 0 0 5.543.436 4.133 4.133 0 0 0 .39-5.734L18.32 7.261a.5.5 0 0 0-.764.645z"/><path d="M14.011 2.507l4.611 2.076a.15.15 0 0 1 .033.253l-3.508 2.841a.15.15 0 0 1-.241-.084l-1.103-4.916a.15.15 0 0 1 .208-.17z" opacity=".3"/><circle cx="9" cy="20" r="2" opacity=".3"/></g></svg>