<?xml version="1.0" encoding="UTF-8"?>
<svg width="24px" height="24px" viewBox="0 0 24 24" version="1.1" xmlns="http://www.w3.org/2000/svg" xmlns:xlink="http://www.w3.org/1999/xlink">
    <!-- Generator: Sketch 49.2 (51160) - http://www.bohemiancoding.com/sketch -->
    <title>icon_directions_m_white</title>
    <desc>Created with Sketch.</desc>
    <defs></defs>
    <g id="page" stroke="none" stroke-width="1" fill="none" fill-rule="evenodd">
        <g id="directions" transform="translate(-108.000000, -64.000000)">
            <g id="icon_directions_m_white" transform="translate(108.000000, 64.000000)">
                <rect id="Rectangle" x="0" y="0" width="24" height="24"></rect>
                <g id="Group" transform="translate(2.000000, 2.000000)" fill="#FFFFFF" fill-rule="nonzero">
                    <path d="M15.557,5.906 L17.51,8.22 C18.5999749,9.51165155 18.4690067,11.4350251 17.214,12.567 C16.6369149,13.0869916 15.8714575,13.346911 15.0970625,13.2858293 C14.3226676,13.2247476 13.6074256,12.8480355 13.119,12.244 L8.927,7.057 C7.36030856,5.11812087 4.52813294,4.79408757 2.564,6.329 C1.62856518,7.06000751 1.02677767,8.13680017 0.894332844,9.316575 C0.761888021,10.4963498 1.10993729,11.6797738 1.86,12.6 L4.55,15.9 C4.72452198,16.1142865 5.03971351,16.146522 5.254,15.972 C5.46828648,15.797478 5.50052198,15.4822865 5.326,15.268 L2.635,11.968 C2.612,11.941 2.612,11.941 2.59,11.912 C1.42908581,10.4250996 1.69273775,8.27873108 3.179,7.117 C4.71291521,5.91774345 6.92521945,6.17057823 8.149,7.685 L12.34,12.873 C13.0011954,13.6906251 13.9694677,14.2004441 15.0177479,14.2828995 C16.066028,14.3653548 17.1021018,14.0131933 17.883,13.309 C19.5381294,11.8156333 19.7106781,9.27872505 18.273,7.575 L16.32,5.261 C16.1405055,5.05545524 15.8293568,5.03179202 15.6208426,5.20782825 C15.4123283,5.38386448 15.3834712,5.69457447 15.556,5.906 L15.557,5.906 Z" id="Shape"></path>
                    <path d="M12.011,0.507 L16.622,2.583 C16.6693628,2.60439013 16.7022793,2.64877174 16.709001,2.70030422 C16.7157226,2.7518367 16.6952915,2.80317669 16.655,2.836 L13.147,5.677 C13.1066355,5.70977461 13.0521772,5.71930829 13.0030792,5.70219531 C12.9539813,5.68508232 12.9172473,5.64376379 12.906,5.593 L11.803,0.677 C11.7903609,0.62148138 11.8102457,0.563593295 11.854333,0.527560382 C11.8984203,0.491527469 11.9591081,0.483563041 12.011,0.507 Z" id="Shape" opacity="0.3"></path>
                    <circle id="Oval" opacity="0.3" cx="7" cy="18" r="2"></circle>
                </g>
            </g>
        </g>
    </g>
</svg>