<svg width="24px" height="24px" viewBox="0 0 24 24" version="1.1" xmlns="http://www.w3.org/2000/svg"><g transform="translate(3.000000, 0.000000)" fill="#0B1F35" stroke="none" stroke-width="1" fill-rule="evenodd"><path d="M1.09090909,18.8623036 C1.09090909,20.1204188 1.96388033,20.5249922 4.89640446,20.9709201 C5.00742001,20.9877953 5.06030881,20.9958427 5.11890097,21.004794 C7.20365955,21.3232893 8.35133875,21.6312748 9.10389012,22.3045226 C9.46240079,21.9528722 9.94594074,21.6844205 10.5469817,21.4773969 C11.2039018,21.2511262 11.8624416,21.1222168 13.1072681,20.9383558 C13.1645145,20.9299005 13.216687,20.9222253 13.3256468,20.9062111 C16.0771207,20.5016617 16.9090909,20.1433614 16.9090909,19.120764 L16.9090909,2.57929628 L10.5313122,2.57929628 L10.5313122,7.48582629 C10.6458758,9.16021039 9.44851108,10.0359535 7.24854753,10.0359535 C5.04929469,10.0359535 3.82381058,9.16750654 3.85854228,7.503224 L3.85854228,2.57929628 L1.09090909,2.57929628 L1.09090909,18.8623036 Z M4.94945137,1.54545455 L4.94945137,2.06237541 L4.94934538,7.51341405 C4.92826407,8.52668634 5.5991471,9.00211179 7.24854753,9.00211179 C8.88903256,9.00211179 9.51582881,8.54052678 9.4417396,7.53938871 L9.44040306,1.54545455 L18,1.54545455 L18,19.120764 C18,20.1285247 17.4372251,20.8261224 16.4287803,21.2604241 C15.7347991,21.5592974 15.0585446,21.6976332 13.4928961,21.9278306 C13.3839338,21.9438452 13.3321261,21.9514667 13.2752616,21.9598656 C10.9562021,22.3023911 10.0066817,22.6294455 9.6279794,23.3761307 L9.20398342,24.2121212 L8.67679718,23.4306304 C8.17936308,22.6932437 7.21579856,22.3723328 4.94528118,22.0254586 C4.88708819,22.0165683 4.83457841,22.0085785 4.72357168,21.9917046 C3.07037109,21.7403143 2.35797352,21.5870675 1.62551318,21.247613 C0.575375102,20.7609327 -6.20110024e-14,19.9829929 7.7513753e-15,18.8623036 L0,1.54545455 L4.94945137,1.54545455 Z" fill-rule="nonzero"/><path d="M12.1123479,1.02388275 L5.82910037,1.02388275 C5.32589894,1.02388275 4.93883585,1.35666314 4.93883585,2.24921446 L3.90909091,2.04002601 C3.90909091,0.829067237 4.73960417,0 5.82910037,0 L12.1123479,0 C13.1401577,0 14.5404528,0.69482332 14.4976651,1.9446727 L14.5404528,2.04002601 L14.5404528,19.1513092 C14.5404528,19.5494302 14.715303,19.8668349 14.9909553,20.0601932 C15.1825373,20.1945798 15.4631667,20.3864671 15.7272727,20.3864671 L15.6869172,21.2929293 C14.4556393,21.2929293 13.4503524,20.4065903 13.4503524,19.1513092 L13.4503524,2.24921446 C13.4503524,1.3680008 12.6016375,1.02388275 12.1123479,1.02388275 Z" fill-rule="nonzero"/><path d="M10.426229,1.71717172 L9.45454545,1.62615761 C9.45454545,0.698963131 10.6129398,0.601010101 11.9090909,0.601010101 L11.6433868,1.03532777 C10.8919751,1.03532777 10.426229,1.28195734 10.426229,1.71717172 Z" fill-rule="nonzero"/><ellipse fill-opacity="0.3" cx="7.14999998" cy="6.0959596" rx="1.14999998" ry="1.1489899"/></g></svg>