<svg xmlns="http://www.w3.org/2000/svg" width="36" height="36" version="1" viewBox="0 0 36 36"><path fill="#0B1F35" d="M36 6H0v22h36V6zm-1 21H1V7h34v20z"/><path fill="#0B1F35" d="M29 25h4V10.453l-4-1.464-6 1.511V24H3v1h26zm3-13.848V24h-3V10.054l3 1.098zM3.594 16.706h1.095V18h.594v-3h-.594v1.151H3.594V15H3v3h.594zm2.806.841c.128.141.287.252.474.333.188.08.4.12.635.12.238 0 .45-.04.636-.121a1.377 1.377 0 0 0 .77-.831c.068-.191.103-.396.103-.617 0-.226-.034-.436-.103-.629a1.528 1.528 0 0 0-.296-.506 1.36 1.36 0 0 0-.474-.339 1.562 1.562 0 0 0-.636-.123c-.235 0-.447.041-.635.123a1.366 1.366 0 0 0-.474.34 1.513 1.513 0 0 0-.297.506 1.857 1.857 0 0 0-.103.629c0 .221.034.426.102.617.069.19.168.356.298.498zm.32-1.5a1.02 1.02 0 0 1 .144-.333.724.724 0 0 1 .645-.32c.152 0 .28.029.386.087a.736.736 0 0 1 .259.233c.066.098.113.208.144.333a1.644 1.644 0 0 1 0 .757.99.99 0 0 1-.144.324.732.732 0 0 1-.645.318.796.796 0 0 1-.387-.087.75.75 0 0 1-.258-.232.99.99 0 0 1-.144-.324 1.526 1.526 0 0 1-.045-.371 1.532 1.532 0 0 1 .045-.385z"/><path fill="#0B1F35" d="M10.091 15.891h.008l.693 2.095h.479l.693-2.116h.007v2.116h.582V15h-.875l-.625 2.053h-.008L10.384 15h-.875v2.986h.582zm5.507 1.543h-1.622v-.732h1.458v-.51h-1.458v-.64h1.588V15h-2.25v2.986h2.284zM3.377 21.547c.121.141.271.252.448.333.178.08.378.12.6.12.178 0 .342-.028.491-.085.149-.056.279-.138.39-.246.111-.107.2-.237.268-.39a1.61 1.61 0 0 0 .125-.513h-.617a.885.885 0 0 1-.201.492.579.579 0 0 1-.457.186.681.681 0 0 1-.608-.318.998.998 0 0 1-.136-.324 1.698 1.698 0 0 1 0-.757c.029-.124.074-.235.136-.333.062-.097.143-.175.243-.233s.222-.087.365-.087a.642.642 0 0 1 .56.32.548.548 0 0 1 .073.21h.618a1.263 1.263 0 0 0-.138-.466 1.14 1.14 0 0 0-.659-.551 1.41 1.41 0 0 0-.453-.072 1.41 1.41 0 0 0-.599.123 1.28 1.28 0 0 0-.448.339 1.53 1.53 0 0 0-.281.506 2.01 2.01 0 0 0-.097.631c0 .221.033.426.097.617a1.5 1.5 0 0 0 .28.498zm3.293-.719h.67c.167 0 .288.037.362.109.074.073.122.188.145.345.018.121.03.247.038.378.009.132.032.245.068.34h.67a.415.415 0 0 1-.07-.153 1.245 1.245 0 0 1-.034-.191 3.46 3.46 0 0 1-.015-.197l-.009-.168a1.61 1.61 0 0 0-.032-.227.767.767 0 0 0-.075-.208.528.528 0 0 0-.337-.267v-.009a.707.707 0 0 0 .369-.294.894.894 0 0 0 .113-.458.83.83 0 0 0-.062-.321.773.773 0 0 0-.179-.263.856.856 0 0 0-.281-.179 1.008 1.008 0 0 0-.37-.065H6v3h.67v-1.172zm0-1.315h.734c.153 0 .268.033.345.099.077.066.116.172.116.317 0 .151-.038.261-.116.327-.077.067-.192.101-.345.101H6.67v-.844zm5.209.041V19H9.602v3h2.311v-.555h-1.642v-.735h1.476v-.513h-1.476v-.643zm2.688 2.33c.172-.077.316-.183.431-.317.115-.134.201-.294.258-.479.057-.185.085-.387.085-.605a1.86 1.86 0 0 0-.104-.651 1.193 1.193 0 0 0-.73-.739 1.576 1.576 0 0 0-.548-.093h-1.313v3h1.313c.234 0 .436-.039.608-.116zm-1.251-.439v-1.891h.478c.164 0 .303.023.416.069a.657.657 0 0 1 .271.2.817.817 0 0 1 .147.313c.029.122.044.258.044.409 0 .165-.021.305-.064.42a.754.754 0 0 1-.17.279.622.622 0 0 1-.243.153.867.867 0 0 1-.281.046h-.598zM16 19h.67v3H16zm2.124 3h.67v-2.446h.913V19h-2.495v.554h.912z"/></svg>