<svg width="12" height="12" viewBox="0 0 12 12" fill="none" xmlns="http://www.w3.org/2000/svg"><rect width="12" height="12" fill="none"/><path d="M5.61369 2.52987C5.74339 2.15672 6.27112 2.15672 6.40082 2.52987L7.08763 4.50572C7.14485 4.67033 7.29847 4.78195 7.47271 4.7855L9.56409 4.82812C9.95906 4.83617 10.1221 5.33806 9.80733 5.57673L8.14042 6.84049C8.00154 6.94578 7.94286 7.12637 7.99333 7.29318L8.59907 9.29537C8.71347 9.6735 8.28653 9.98368 7.96226 9.75804L6.24525 8.56323C6.1022 8.46369 5.91231 8.46369 5.76926 8.56323L4.05225 9.75804C3.72798 9.98368 3.30105 9.6735 3.41544 9.29537L4.02118 7.29318C4.07165 7.12637 4.01297 6.94578 3.8741 6.84049L2.20718 5.57673C1.89238 5.33806 2.05545 4.83617 2.45042 4.82812L4.5418 4.7855C4.71604 4.78195 4.86966 4.67034 4.92688 4.50572L5.61369 2.52987Z" fill="#0B1F35"/></svg>