<svg width="18" height="18" viewBox="0 0 18 18" fill="none" xmlns="http://www.w3.org/2000/svg"><rect width="18" height="18" fill="none"/><path d="M8.53662 4.83584C8.69227 4.38806 9.32554 4.38806 9.48118 4.83584L10.3054 7.20686C10.374 7.4044 10.5584 7.53834 10.7674 7.5426L13.2771 7.59374C13.7511 7.6034 13.9468 8.20567 13.569 8.49207L11.5687 10.0086C11.402 10.1349 11.3316 10.3516 11.3922 10.5518L12.1191 12.9544C12.2564 13.4082 11.744 13.7804 11.3549 13.5096L9.29449 12.0759C9.12284 11.9564 8.89497 11.9564 8.72331 12.0759L6.6629 13.5096C6.27378 13.7804 5.76145 13.4082 5.89873 12.9544L6.62561 10.5518C6.68617 10.3516 6.61576 10.1349 6.44911 10.0086L4.44882 8.49207C4.07105 8.20567 4.26674 7.6034 4.7407 7.59374L7.25036 7.5426C7.45944 7.53834 7.64379 7.4044 7.71245 7.20687L8.53662 4.83584Z" fill="#0B1F35"/></svg>