<svg width="48" height="48" viewBox="0 0 48 48" fill="none" xmlns="http://www.w3.org/2000/svg"><rect width="48" height="48" fill="none"/><path d="M22.1465 7.34334C22.7691 5.55222 25.3021 5.55222 25.9247 7.34334L29.2214 16.8274C29.4961 17.6176 30.2334 18.1533 31.0698 18.1704L41.1084 18.3749C43.0043 18.4136 43.787 20.8227 42.276 21.9683L34.2748 28.0343C33.6082 28.5397 33.3265 29.4065 33.5688 30.2072L36.4763 39.8177C37.0254 41.6327 34.9761 43.1216 33.4196 42.0385L25.178 36.3035C24.4913 35.8257 23.5799 35.8257 22.8933 36.3035L14.6516 42.0385C13.0951 43.1216 11.0458 41.6327 11.5949 39.8177L14.5025 30.2072C14.7447 29.4066 14.463 28.5397 13.7964 28.0343L5.79526 21.9683C4.2842 20.8227 5.06696 18.4136 6.9628 18.3749L17.0014 18.1704C17.8378 18.1533 18.5752 17.6176 18.8498 16.8274L22.1465 7.34334Z" fill="#0B1F35"/></svg>