<svg xmlns="http://www.w3.org/2000/svg" width="36" height="36" viewBox="0 0 36 36"><g fill="none" fill-rule="evenodd"><rect width="36" height="36"/><path fill="#FFF" fill-rule="nonzero" d="M18.436,5 L9.42397,5 L9.42397,6 L18.436,6 C24.511,6 29.436,10.925 29.436,17 C29.436,23.075 24.511,28 18.436,28 L15.429,28 L12.55,28 L6.91998,28 L9.64499,25.274 L8.93799,24.567 L4.99998,28.506 L5.00499,28.51 L8.94299,32.449 L9.64999,31.742 L6.90799,29 L12.55,29 L15.429,29 L18.436,29 C25.063,29 30.436,23.627 30.436,17 C30.436,10.373 25.063,5 18.436,5 Z"/></g></svg>