<?xml version="1.0" encoding="UTF-8"?>
<svg width="48px" height="48px" viewBox="0 0 48 48" version="1.1" xmlns="http://www.w3.org/2000/svg" xmlns:xlink="http://www.w3.org/1999/xlink">
    <!-- Generator: Sketch 48.2 (47327) - http://www.bohemiancoding.com/sketch -->
    <title>icon_category-health_xxl_black</title>
    <desc>Created with Sketch.</desc>
    <defs></defs>
    <g id="mobile" stroke="none" stroke-width="1" fill="none" fill-rule="evenodd" transform="translate(-1387.000000, -462.000000)">
        <g id="Headings" transform="translate(64.000000, 77.000000)">
            <g id="icon_category_health__xxl__white" transform="translate(1323.000000, 385.000000)">
                <g id="ungroup">
                    <rect id="Rectangle-path" x="0" y="0" width="48" height="48"></rect>
                    <g id="a1" opacity="0.4"></g>
                    <path d="M20,28.143 L20,31.351 C17.986,35.577 17,40.044 17,45 L18,45 C18,40.281 18.924,36.025 20.804,32 L23.857,32 C36.639,32 47,21.639 47,8.857 L47,5 L43.143,5 C30.361,5 20,15.361 20,28.143 L20,28.143 Z M46,8.857 C46,21.067 36.067,31 23.857,31 L21,31 L21,28.143 C21,15.933 30.933,6 43.143,6 L46,6 L46,8.857 L46,8.857 Z" id="Shape" fill="#0B1F35"></path>
                    <path d="M20,32 L21.463,32 C21.909,30.946 22.455,29.681 22.608,29.432 C22.869,28.977 23.127,28.452 23.461,27.894 C24.129,26.78 24.884,25.464 25.791,24.115 C26.651,22.733 27.673,21.327 28.749,19.96 C29.296,19.284 29.842,18.605 30.415,17.968 C30.972,17.315 31.567,16.715 32.135,16.126 C32.72,15.555 33.284,14.999 33.846,14.5 C34.392,13.98 34.954,13.547 35.456,13.121 C36.494,12.317 37.387,11.67 38.04,11.257 C38.702,10.856 39.08,10.627 39.08,10.627 C39.08,10.627 38.671,10.8 37.956,11.102 C37.251,11.428 36.244,11.913 35.104,12.621 C34.548,12.992 33.921,13.369 33.307,13.831 C32.671,14.268 32.041,14.779 31.391,15.313 C30.756,15.862 30.089,16.424 29.457,17.041 C28.811,17.645 28.178,18.283 27.567,18.943 C26.354,20.269 25.189,21.646 24.191,23.009 C23.683,23.685 23.247,24.375 22.818,25.02 C22.378,25.659 22.05,26.316 21.701,26.895 C20.854,28.396 20.31,30.119 20.001,31.302 L20.001,32 L20,32 Z" id="Shape" fill="#0B1F35" opacity="0.3"></path>
                    <path d="M17,29 C17,20.163 9.837,13 1,13 L1,13 L1,15 C1,23.837 8.163,31 17,31 L17,29 L17,29 Z" id="Shape" fill="#0B1F35" opacity="0.3"></path>
                </g>
            </g>
        </g>
    </g>
</svg>