<svg width="24" height="24" viewBox="0 0 24 24" xmlns="http://www.w3.org/2000/svg"><g fill="none" fill-rule="evenodd"><path d="M0 0h24v24H0z"/><path d="M10 15v.757C8.873 17.994 8.317 20.364 8.317 23h1c0-2.167.419-4.136 1.224-6H12c6.627 0 12-5.373 12-12V3h-2c-6.627 0-12 5.373-12 12zM23 5c0 6.065-4.935 11-11 11h-1v-1c0-6.065 4.935-11 11-11h1v1z" fill="#FFF"/><path d="M1 7v1a8 8 0 0 0 8 8v-1a8 8 0 0 0-8-8zM16.678 8.521a15.61 15.61 0 0 1 1.029-.785l.417-.267-.461.186a9.59 9.59 0 0 0-1.171.608c-.935.57-2.083 1.496-3.087 2.563a20.07 20.07 0 0 0-2.462 3.188A15.963 15.963 0 0 0 10 15.768V17h.533c.228-.482.84-1.758 1.263-2.472.534-.907 1.297-2.098 2.192-3.193a20.363 20.363 0 0 1 2.69-2.814z" fill="#FFF" opacity=".3"/></g></svg>