<svg xmlns="http://www.w3.org/2000/svg" width="46" height="40" viewBox="0 0 46 40"><g fill="none" fill-rule="evenodd"><path d="M-1-5h48v48H-1z"/><path fill="#0B1F35" d="M19 23.143v3.208c-2.014 4.226-3 8.693-3 13.649h1c0-4.719.924-8.975 2.804-13h3.053C35.639 27 46 16.639 46 3.857V0h-3.857C29.361 0 19 10.361 19 23.143zM45 3.857C45 16.067 35.067 26 22.857 26H20v-2.857C20 10.933 29.933 1 42.143 1H45v2.857z"/><path fill="#0B1F35" d="M19 27h1.463c.446-1.054.992-2.319 1.145-2.568.261-.455.519-.98.853-1.538.668-1.114 1.423-2.43 2.33-3.779.86-1.382 1.882-2.788 2.958-4.155.547-.676 1.093-1.355 1.666-1.992.557-.653 1.152-1.253 1.72-1.842.585-.571 1.149-1.127 1.711-1.626.546-.52 1.108-.953 1.61-1.379 1.038-.804 1.931-1.451 2.584-1.864l1.04-.63-1.124.475a25.81 25.81 0 0 0-2.852 1.519c-.556.371-1.183.748-1.797 1.21-.636.437-1.266.948-1.916 1.482-.635.549-1.302 1.111-1.934 1.728a37.283 37.283 0 0 0-1.89 1.902c-1.213 1.326-2.378 2.703-3.376 4.066-.508.676-.944 1.366-1.373 2.011-.44.639-.768 1.296-1.117 1.875-.847 1.501-1.391 3.224-1.7 4.407V27H19zm-3-3C16 15.163 8.837 8 0 8v2c0 8.837 7.163 16 16 16v-2z" opacity=".3"/></g></svg>