<svg xmlns="http://www.w3.org/2000/svg" width="36" height="36" viewBox="0 0 36 36"><path fill="none" d="M0 0h36v36H0z"/><path fill="#0B1F35" d="M34 4v2a17 17 0 0 1-17 17h-2v-2A17 17 0 0 1 32 4h2m1-1h-3a18 18 0 0 0-18 18v3h3A18 18 0 0 0 35 6V3z"/><path fill="#0B1F35" d="M13 22.5V21A12 12 0 0 0 1 9v1.5a12 12 0 0 0 12 12zm7-7a30.49 30.49 0 0 1 4-4.22c.62-.5 1.15-.92 1.54-1.18l.63-.4-.67.3a14.4 14.4 0 0 0-1.76.91 23.73 23.73 0 0 0-4.63 3.84 30.16 30.16 0 0 0-3.69 4.78c-.43.7-.78 1.34-1 1.75l-.42.87V24h.8c.34-.72 1.26-2.64 1.89-3.71A39.13 39.13 0 0 1 20 15.5z" opacity=".3"/><path fill="#0B1F35" d="M13 33h-1a23.49 23.49 0 0 1 2.31-11l.89.5A22.53 22.53 0 0 0 13 33z"/></svg>