<svg xmlns="http://www.w3.org/2000/svg" width="24" height="24" viewBox="0 0 24 24"><path fill="none" d="M0 0h24v24H0z"/><path fill="#fff" d="M23 4v1a11 11 0 0 1-11 11h-1v-1A11 11 0 0 1 22 4h1m1-1h-2a12 12 0 0 0-12 12v2h2A12 12 0 0 0 24 5V3z"/><path fill="#fff" d="M9 16v-1a8 8 0 0 0-8-8v1a8 8 0 0 0 8 8zm5-4.67a20.33 20.33 0 0 1 2.69-2.81c.42-.33.77-.61 1-.79l.42-.27-.46.19a9.6 9.6 0 0 0-1.17.61 15.82 15.82 0 0 0-3.09 2.56A20.11 20.11 0 0 0 10.94 14c-.29.46-.52.89-.66 1.16l-.28.61V17h.53c.23-.48.84-1.76 1.26-2.47a26.09 26.09 0 0 1 2.21-3.2z" opacity=".3"/><path fill="#fff" d="M9.32 23h-1a15.73 15.73 0 0 1 1.74-7.38l.94.46A14.76 14.76 0 0 0 9.32 23z"/></svg>