<svg width="36" height="36" viewBox="0 0 36 36" xmlns="http://www.w3.org/2000/svg"><g fill="none" fill-rule="evenodd"><path d="M0 0h36v36H0z"/><path d="M14 21v1.708C12.661 25.59 12 28.961 12 33h1c0-3.486.507-6.445 1.53-9H17c9.941 0 18-8.059 18-18V3h-3c-9.941 0-18 8.059-18 18zM34 6c0 9.374-7.626 17-17 17h-2v-.069c.069-.143.131-.291.203-.432L15 22.394V21c0-9.374 7.626-17 17-17h2v2z" fill="#0B1F35"/><path d="M13 22.5V21C13 14.373 7.627 9 1 9v1.5c0 6.627 5.373 12 12 12zM19.982 15.502a30.506 30.506 0 0 1 4.036-4.22c.623-.501 1.151-.918 1.544-1.178l.626-.401-.692.279c-.434.194-1.057.48-1.756.912-1.403.854-3.125 2.244-4.63 3.844a30.165 30.165 0 0 0-3.693 4.782 23.486 23.486 0 0 0-1.416 2.631V24h.8c.342-.723 1.26-2.636 1.894-3.708.799-1.361 1.945-3.147 3.287-4.79z" fill="#0B1F35" opacity=".3"/></g></svg>