<svg width="48" height="48" viewBox="0 0 48 48" xmlns="http://www.w3.org/2000/svg"><g fill="none" fill-rule="evenodd"><path d="M0 0h48v48H0z"/><path d="M20 28.143v3.208c-2.014 4.226-3 8.693-3 13.649h1c0-4.719.924-8.975 2.804-13h3.053C36.639 32 47 21.639 47 8.857V5h-3.857C30.361 5 20 15.361 20 28.143zM46 8.857C46 21.067 36.067 31 23.857 31H21v-2.857C21 15.933 30.933 6 43.143 6H46v2.857z" fill="#0B1F35"/><path d="M20 32h1.463c.446-1.054.992-2.319 1.145-2.568.261-.455.519-.98.853-1.538.668-1.114 1.423-2.43 2.33-3.779.86-1.382 1.882-2.788 2.958-4.155.547-.676 1.093-1.355 1.666-1.992.557-.653 1.152-1.253 1.72-1.842.585-.571 1.149-1.127 1.711-1.626.546-.52 1.108-.953 1.61-1.379 1.038-.804 1.931-1.451 2.584-1.864l1.04-.63-1.124.475a25.81 25.81 0 0 0-2.852 1.519c-.556.371-1.183.748-1.797 1.21-.636.437-1.266.948-1.916 1.482-.635.549-1.302 1.111-1.934 1.728a37.283 37.283 0 0 0-1.89 1.902c-1.213 1.326-2.378 2.703-3.376 4.066-.508.676-.944 1.366-1.373 2.011-.44.639-.768 1.296-1.117 1.875-.847 1.501-1.391 3.224-1.7 4.407V32H20zM17 29c0-8.837-7.163-16-16-16v2c0 8.837 7.163 16 16 16v-2z" fill="#0B1F35" opacity=".3"/></g></svg>