<svg xmlns="http://www.w3.org/2000/svg" width="24" height="24" viewBox="0 0 24 24" fill="none"><rect width="24" height="24" fill="none"/><path fill-rule="evenodd" clip-rule="evenodd" d="M14.0929 9.51166C13.7497 9.51166 13.4709 9.80497 13.4709 10.1667C13.4709 10.2988 13.5088 10.422 13.5732 10.5253L13.7482 10.8331C13.6402 10.9329 13.571 11.078 13.571 11.2417C13.571 11.4042 13.6402 11.5493 13.7476 11.6497L13.5735 11.957C13.5091 12.0599 13.4709 12.1838 13.4709 12.3168C13.4709 12.6785 13.7497 12.9712 14.0929 12.9712C14.4365 12.9712 14.7147 12.6785 14.7147 12.3168C14.7147 12.0495 14.4217 11.4144 14.4217 11.4144V11.0691C14.4217 11.0691 14.7147 10.4334 14.7147 10.1667C14.7147 9.80497 14.4365 9.51166 14.0929 9.51166V9.51166ZM14.0929 8.89622C14.7583 8.89622 15.2989 9.46541 15.2989 10.1667C15.2989 10.4134 15.2306 10.6425 15.1145 10.8366H15.357V10.8363H20.7106C20.8688 10.8363 21 10.9766 21 11.1467V11.3355C21 11.5056 20.8688 11.6462 20.7106 11.6462H19.8849V11.9123H20.2967V12.2861H19.8849V12.6741H20.2967V13.3868H19.8849V13.0643H19.2766V13.3868H18.8654V12.6741H19.2766V12.2861H18.8654V11.9123H19.2766V11.6462H16.1259H15.1145C15.2306 11.8407 15.2989 12.0697 15.2989 12.3168C15.2989 13.0184 14.7583 13.5863 14.0929 13.5863C13.426 13.5863 12.887 13.0184 12.887 12.3168C12.887 12.0412 12.9718 11.7888 13.1135 11.5804C13.0076 11.5084 12.9381 11.3836 12.9381 11.2414C12.9381 11.0992 13.0076 10.9744 13.1135 10.9025C12.9718 10.6944 12.887 10.441 12.887 10.1667C12.887 9.46541 13.426 8.89622 14.0929 8.89622V8.89622ZM7 9.57976L9.30184 11.9605V10.4239L7 8.05588V9.57976ZM7 7.58583L9.30184 9.96557V8.42933L7 6.061V7.58583ZM7 5.5903L9.30184 7.97194V6.43444L7 4.06643V5.5903ZM11.5685 -1.83314e-07V2.42915L11.2641 2.74305V-1.83314e-07H10.9166V3.10002L10.6122 3.41329V-1.83314e-07H10.2657V3.76931L9.96065 4.08385V-1.83314e-07H9.61411V5.97706L11.915 3.59637V-1.83314e-07H11.5685ZM7 11.6187L9.30184 14V12.3716L7 10.0042V11.6187ZM9.61411 11.9605L11.915 9.57976V8.05588L9.61411 10.4239V11.9605ZM8.9556 -1.83314e-07V4.0848L8.64968 3.76995V-1.83314e-07H8.30315V3.41329L7.9984 3.09939V-1.83314e-07H7.65216V2.74305L7.34624 2.42883V-1.83314e-07H7V3.59637L9.30184 5.97706V-1.83314e-07H8.9556ZM9.61411 9.96557L11.915 7.58583V6.061L9.61411 8.42933V9.96557ZM9.61411 7.97194L11.915 5.5903V4.06643L9.61411 6.43444V7.97194ZM9.61411 12.3716L11.915 10.0042V11.6187L9.61411 14V12.3716Z" fill="#0B1F35"/><path d="M16.6142 21.9325C16.7588 21.862 16.9006 21.788 17.0402 21.7101V18.3716H16.6142V21.9325ZM11.1296 15.7094H10.7174V19.8947H11.1296V15.7094ZM19.9274 19.2303C20.0903 19.0195 20.2446 18.8022 20.3891 18.5773V16.8863H19.9274V19.2303ZM21.2922 16.3894C21.3356 16.4416 21.3739 16.4582 21.4072 16.4502C21.4823 16.2238 21.5486 15.993 21.6067 15.7589H19.9274V16.1354H20.159C20.5747 16.1229 21.0395 16.1168 21.2922 16.3894V16.3894ZM18.3758 15.1196L17.928 17.4327L18.3758 17.8591V15.1196ZM9.76538 22.4759C9.62663 22.4334 9.49032 22.3876 9.35493 22.3396V14.4974H11.1296C11.8536 14.4974 12.2889 14.7807 12.4359 15.3525C12.5939 14.8066 13.0107 14.5334 13.6995 14.5334H14.1027C14.6748 14.5334 15.0638 14.7232 15.2695 15.0988L15.1781 14.6343H21.813C21.798 14.7599 21.7803 14.8846 21.7598 15.0093H18.8375V20.4158C18.5854 20.6475 18.3205 20.8647 18.0439 21.0677V18.4877C18.0439 18.0406 17.9568 17.7659 17.509 17.6076L18.0439 15.0303H17.0473L16.8886 17.8459H16.7731L16.6142 15.0303H15.6686L16.1384 17.6076C15.7123 17.7518 15.6115 18.0684 15.6115 18.4877V22.3525C15.4245 22.4176 15.2343 22.4781 15.0412 22.5325V18.3285H14.1027V22.7439C13.9697 22.7669 13.8349 22.7879 13.6995 22.8051V15.7818H14.1027V17.9251H15.0412V15.9181C15.0412 15.5575 14.9761 15.3051 14.8386 15.1602C14.5718 14.8931 14.0522 14.9448 13.6995 14.9448C13.3527 14.9448 13.1064 15.0169 12.9697 15.1602C12.8334 15.3051 12.7598 15.5575 12.7598 15.9181V22.8763V22.8769C12.6736 22.8793 12.5871 22.8806 12.5 22.8806C12.4545 22.8806 12.4089 22.8796 12.3634 22.8793C12.3634 22.8781 12.3631 22.8772 12.3631 22.8763V20.4626C12.1703 20.8929 11.7589 21.1074 11.1296 21.1074V22.7812C10.9912 22.7611 10.8537 22.7372 10.7174 22.7106V20.7043C10.7825 20.7043 10.8546 20.7043 10.927 20.7107C11.2595 20.7107 11.6562 20.7107 11.8726 20.4934C12.0168 20.3565 12.0819 20.1117 12.0819 19.7581V15.846C12.0819 15.4927 12.0168 15.247 11.8726 15.111C11.7293 14.9729 11.4829 14.9008 11.1296 14.9008H9.76538V22.4759ZM12.5 3C12.3319 3 12.1645 3.00428 11.9985 3.01223V3.72582C12.1645 3.71788 12.3319 3.7139 12.5 3.7139C17.9048 3.7139 22.2861 8.09543 22.2861 13.4995C22.2861 18.9046 17.9048 23.2858 12.5 23.2858C7.09522 23.2858 2.71423 18.9046 2.71423 13.4995C2.71423 10.5003 4.06384 7.81672 6.18847 6.02187V5.10871C3.64484 7.02458 2 10.07 2 13.4995C2 19.2982 6.70129 24 12.5 24C18.2991 24 23 19.2982 23 13.4995C23 7.70089 18.2991 3 12.5 3ZM7.68107 17.4196C6.76361 16.5239 6.14936 15.9368 5.65671 15.4444C4.71816 14.5056 4.47092 13.8702 4.47092 13.8702V15.188C4.47092 16.6479 5.13317 17.5794 5.47118 17.9605C5.68481 18.1687 7.86384 20.3006 7.89196 20.3296C8.56645 20.9897 8.68564 21.3045 8.836 21.6801V19.8923C8.836 18.3862 8.07225 17.8019 7.68107 17.4196V17.4196ZM5.65671 11.6665C6.14936 12.1591 6.76361 12.7462 7.68107 13.6417C8.07225 14.0246 8.836 14.6083 8.836 16.1143V17.8074C8.68564 17.4312 8.56645 17.2115 7.89196 16.5517C7.86048 16.5211 5.68604 14.3821 5.47241 14.1734C5.10629 13.8073 4.47092 12.87 4.47092 11.4104V9.88356C4.47092 9.88356 4.71816 10.728 5.65671 11.6665" fill="#0B1F35"/></svg>