<svg xmlns="http://www.w3.org/2000/svg" width="24" height="24" viewBox="0 0 24 24" fill="none"><rect width="24" height="24" fill="none"/><path fill-rule="evenodd" clip-rule="evenodd" d="M12.5004 24C6.71039 24 2 19.2183 2 13.3444C2 9.9666 3.52671 6.86117 6.18775 4.82529L6.30032 4.73953V-3.98995e-08H12.326V2.68592C12.3841 2.68505 12.4426 2.68447 12.5004 2.68447C18.2899 2.68447 23 7.46673 23 13.3444C23 19.2183 18.2899 24 12.5004 24Z" fill="#19502E"/><path fill-rule="evenodd" clip-rule="evenodd" d="M9.46216 13.5149L11.6484 11.3337V9.85362L9.46216 12.0232V13.5149Z" fill="#FFCB05"/><path fill-rule="evenodd" clip-rule="evenodd" d="M9.46216 7.99194L11.6484 5.80984V4.41353L9.46216 6.58344V7.99194Z" fill="#FFCB05"/><path fill-rule="evenodd" clip-rule="evenodd" d="M9.46216 9.81885L11.6484 7.63761V6.24073L9.46216 8.41062V9.81885Z" fill="#FFCB05"/><path fill-rule="evenodd" clip-rule="evenodd" d="M8.83623 4.43072L8.54583 4.14233V0.688345H8.21505V3.81499L7.92724 3.52747V0.688345H7.59706V3.20071L7.30725 2.91318V0.688345H6.97791V3.98215L9.16526 6.16455V0.688345H8.83623V4.43072Z" fill="#FFCB05"/><path fill-rule="evenodd" clip-rule="evenodd" d="M9.46216 11.646L11.6484 9.46476V8.06874L9.46216 10.2384V11.646Z" fill="#FFCB05"/><path fill-rule="evenodd" clip-rule="evenodd" d="M6.97791 11.3336L9.16526 13.5149V12.0232L6.97791 9.85362V11.3336Z" fill="#FFCB05"/><path fill-rule="evenodd" clip-rule="evenodd" d="M11.3199 2.91382L11.0304 3.20076V0.688395H10.6993V3.52897L10.4104 3.81504V0.688395H10.0816V4.14122L9.79094 4.4299V0.688395H9.46216V6.16431L11.6484 3.98191V0.688395H11.3199V2.91382Z" fill="#FFCB05"/><path fill-rule="evenodd" clip-rule="evenodd" d="M6.97791 5.80984L9.16526 7.99194V6.58313L6.97791 4.41324V5.80984Z" fill="#FFCB05"/><path fill-rule="evenodd" clip-rule="evenodd" d="M6.97791 7.63761L9.16526 9.81885V8.41063L6.97791 6.24101V7.63761Z" fill="#FFCB05"/><path fill-rule="evenodd" clip-rule="evenodd" d="M6.97791 9.46501L9.16526 11.6462V10.2386L6.97791 8.0687V9.46501Z" fill="#FFCB05"/><path fill-rule="evenodd" clip-rule="evenodd" d="M14.3104 11.9729C14.3104 12.3043 14.0446 12.5729 13.7179 12.5729C13.3931 12.5729 13.1279 12.3043 13.1279 11.9729C13.1279 11.8519 13.1631 11.7377 13.2253 11.6429L13.3902 11.3609C13.288 11.2699 13.2238 11.1362 13.2238 10.9877C13.2238 10.8391 13.288 10.7048 13.3902 10.6141L13.2253 10.3301C13.1631 10.2367 13.1279 10.1239 13.1279 10.0027C13.1279 9.6713 13.3931 9.4018 13.7179 9.4018C14.0446 9.4018 14.3104 9.6713 14.3104 10.0027C14.3104 10.2469 14.0323 10.8298 14.0323 10.8298V11.1455C14.0323 11.1455 14.3104 11.7281 14.3104 11.9729V11.9729ZM20.0071 10.6164H14.9204H14.6887C14.8006 10.4385 14.8657 10.2295 14.8657 10.0027C14.8657 9.35994 14.3508 8.83897 13.7179 8.83897C13.0861 8.83897 12.5726 9.35994 12.5726 10.0027C12.5726 10.2553 12.6528 10.4853 12.7874 10.6766C12.6883 10.7435 12.621 10.8571 12.621 10.9877C12.621 11.1176 12.6883 11.2319 12.7874 11.2984C12.6528 11.4888 12.5726 11.7205 12.5726 11.9729C12.5726 12.6154 13.0861 13.1357 13.7179 13.1357C14.3508 13.1357 14.8657 12.6154 14.8657 11.9729C14.8657 11.7464 14.8006 11.5365 14.6887 11.3589H15.6512H18.645V11.6025H18.2544V11.9444H18.645V12.2997H18.2544V12.954H18.645V12.6575H19.2244V12.954H19.6144V12.2997H19.2244V11.9444H19.6144V11.6025H19.2244V11.3589H20.0071C20.1577 11.3589 20.2826 11.2295 20.2826 11.0737V10.901C20.2826 10.7455 20.1577 10.6164 20.0071 10.6164Z" fill="#FFCB05"/><path fill-rule="evenodd" clip-rule="evenodd" d="M4.98865 9.90981V11.359C4.98865 12.7446 5.58374 13.6353 5.92568 13.9822C6.12643 14.1819 8.15976 16.2116 8.18868 16.2404C8.82158 16.8672 8.93181 17.0745 9.07271 17.4309V15.8276C9.07271 14.3961 8.35792 13.8409 7.99078 13.4775C7.13422 12.6289 6.56001 12.0695 6.09722 11.6026C5.22061 10.7119 4.98865 9.90981 4.98865 9.90981" fill="white"/><path fill-rule="evenodd" clip-rule="evenodd" d="M7.99078 17.0644C7.1345 16.2144 6.55972 15.6576 6.09722 15.1902C5.22061 14.2991 4.98865 13.695 4.98865 13.695V14.9468C4.98865 16.3312 5.60894 17.2144 5.92424 17.5767C6.12442 17.7752 8.16405 19.7989 8.18896 19.8262C8.82157 20.4536 8.93181 20.7516 9.07271 21.1091V19.4116C9.07271 17.9816 8.35792 17.4252 7.99078 17.0644" fill="white"/><path fill-rule="evenodd" clip-rule="evenodd" d="M12.5004 3.37237C12.3423 3.37237 12.1857 3.37644 12.0311 3.38313V4.06253C12.1857 4.05439 12.3423 4.05062 12.5004 4.05062C17.5559 4.05062 21.6543 8.21133 21.6543 13.3442C21.6543 18.4733 17.5559 22.6328 12.5004 22.6328C7.4441 22.6328 3.34515 18.4733 3.34515 13.3442C3.34515 10.4946 4.60838 7.94619 6.59615 6.24231V5.37453C4.21633 7.19441 2.67761 10.0862 2.67761 13.3442C2.67761 18.8474 7.07524 23.3108 12.5004 23.3108C17.9248 23.3108 22.3221 18.8474 22.3221 13.3442C22.3221 7.8366 17.9248 3.37237 12.5004 3.37237Z" fill="white"/><path fill-rule="evenodd" clip-rule="evenodd" d="M19.4486 18.5464C19.6015 18.3353 19.7453 18.1185 19.881 17.8958V16.5567H19.4486V18.5464Z" fill="white"/><path fill-rule="evenodd" clip-rule="evenodd" d="M20.7081 16.0723C20.77 15.8795 20.8258 15.6856 20.8745 15.4891H19.4486V15.8458H19.6651C20.0451 15.8348 20.4695 15.8286 20.7081 16.0723Z" fill="white"/><path fill-rule="evenodd" clip-rule="evenodd" d="M10.8331 19.4136H11.2191V15.4412H10.8331V19.4136Z" fill="white"/><path fill-rule="evenodd" clip-rule="evenodd" d="M17.9959 17.4803L17.5775 17.0759L17.9959 14.8825V17.4803ZM9.94143 14.6737H11.2192C11.5489 14.6737 11.7782 14.7432 11.9143 14.8735C12.0483 15.0017 12.1102 15.2357 12.1102 15.5712V19.2827C12.1102 19.6191 12.0483 19.8522 11.9143 19.9834C11.7107 20.188 11.3389 20.188 11.0285 20.188C10.9609 20.1825 10.8934 20.1825 10.8332 20.1825V21.9428C10.9609 21.9672 11.0892 21.991 11.2192 22.0105V20.5651C11.8066 20.5651 12.1924 20.361 12.3731 19.9534V22.1053C12.4146 22.1056 12.457 22.1064 12.5005 22.1064C12.5818 22.1064 12.6629 22.1056 12.7434 22.1035V15.6398C12.7434 15.2979 12.8121 15.0578 12.9384 14.9208C13.0664 14.7833 13.2975 14.7159 13.6217 14.7159C13.9525 14.7159 14.4367 14.6668 14.6879 14.9208C14.8165 15.0578 14.8763 15.2979 14.8763 15.6398V17.5425H14.0011V15.5101H13.6217V22.0335C13.7486 22.0181 13.8743 21.9974 14.0011 21.9756V17.9263H14.8763V21.7701C15.057 21.7183 15.2351 21.6596 15.4104 21.5965V18.0766C15.4104 17.6794 15.5043 17.3794 15.9044 17.2422L15.4637 14.7967H16.3489L16.497 17.4684H16.6058L16.7536 14.7967H17.6868L17.1871 17.2422C17.6052 17.3916 17.6868 17.653 17.6868 18.0766V20.3502C17.9457 20.152 18.194 19.9406 18.4289 19.7147V14.7769H21.0209C21.0389 14.6592 21.0561 14.54 21.071 14.4199H15.0049L15.0905 14.8621C14.8984 14.5048 14.5338 14.3246 14.0011 14.3246H13.6217C12.979 14.3246 12.5876 14.5836 12.4404 15.102C12.302 14.5598 11.8951 14.2903 11.2192 14.2903H9.55737V21.5846C9.68481 21.6314 9.81342 21.6747 9.94143 21.7163V14.6737Z" fill="white"/><path fill-rule="evenodd" clip-rule="evenodd" d="M16.3488 21.189C16.4834 21.1204 16.6159 21.0494 16.7471 20.975V17.9667H16.3488V21.189Z" fill="white"/></svg>