<svg xmlns="http://www.w3.org/2000/svg" width="30" height="30" version="1" viewBox="0 0 30 30"><path fill="#21365F" d="M17 5V4H2v1h12.101zm3-1v1h1.567c.88 0 1.462.508.957 1.624l-4.109 8.375 2.384.001 4.576-9.188C25.747 5.22 26 5 26.373 5H28V4h-8z"/><circle cx="26" cy="13" r="2" fill="#21365F"/><path fill="#21365F" d="M17.828 14.003l-9.368.026.482.971h9.39zm-1.013-2l-9.349.026.482.971h9.372zm-1.012-2l-9.332.026.483.971h9.354zm-1.012-2l-9.314.026L5.96 9h9.335zm-.793-1.566a2.133 2.133 0 0 1-.138-.433l-9.377.025.483.971h9.317l-.285-.563zM18.838 16H9.437l5.417 10.893L19.773 17H28v-1h-7.729z"/></svg>