<svg xmlns="http://www.w3.org/2000/svg" width="26" height="23" viewBox="0 0 26 23"><g fill="#FFF"><path d="M12.101 1H15V0H0v1h1.809zm4.314 9.999l2.384.001 4.576-9.188C23.747 1.22 24 1 24.373 1H26V0h-8v1h1.567c.88 0 1.462.508.957 1.624l-4.109 8.375z"/><circle cx="24" cy="9" r="2"/><path d="M6.966 11h9.317l-.285-.563c-.041-.092-.058-.174-.083-.26-.016-.057-.044-.118-.055-.173h-.033l-9.345.026.484.97zm7.97-2.758c-.026-.08-.06-.163-.076-.238h-.045l-9.332.026.483.97h9.317l-.285-.563c-.031-.069-.041-.13-.062-.195zM14.283 7l-.285-.563c-.02-.046-.025-.086-.041-.13-.037-.103-.076-.207-.096-.303h-.057l-9.32.026.482.97h9.317zm-1-2l-.285-.563c-.01-.023-.012-.043-.021-.065a2.319 2.319 0 0 1-.117-.368h-.069l-9.308.025.483.971h9.317zM11.86 2.003l-9.377.026.483.971h9.317l-.285-.563a2.122 2.122 0 0 1-.138-.434zM16.838 12H7.437l5.417 10.893L16.779 15l.495-.995.499-1.005H26v-1h-7.729z"/></g></svg>