<svg xmlns="http://www.w3.org/2000/svg" width="36" height="36" viewBox="0 0 36 36"><g fill="none" fill-rule="evenodd"><path d="M0 0h36v36H0z"/><g fill="#0B1F35" fill-rule="nonzero"><path d="M18 31c7.18 0 13-5.82 13-13S25.18 5 18 5 5 10.82 5 18s5.82 13 13 13zm0 1c-7.732 0-14-6.268-14-14S10.268 4 18 4s14 6.268 14 14-6.268 14-14 14z"/><path d="M13.474 25h9.053c.053 0 .158-.053.158-.158v-1.684c0-.053-.053-.158-.158-.158h-9.053c-.053 0-.158.053-.158.158v1.684c0 .053.052.158.158.158zm3.108-12.456c-.098.343-2.448 6.903-2.546 7.147-.049.098 0 .196.049.196.098 0 1.371.539 1.42.539.049 0 .147-.049.147-.098s.538-1.518.587-1.664h3.525c.049.147.587 1.616.587 1.664.049.098.147.098.196.098.098 0 1.322-.539 1.42-.539.049-.049.049-.147.049-.196-.049-.196-2.448-6.854-2.546-7.147-.245-.685-.539-1.371-1.469-1.371-.929 0-1.223.637-1.419 1.371zm2.693 4.455h-2.448l1.175-3.672 1.273 3.672z"/></g></g></svg>