<svg xmlns="http://www.w3.org/2000/svg" width="18" height="18" viewBox="0 0 18 18"><g fill="none" fill-rule="evenodd"><path d="M0 0h18v18H0z"/><g transform="translate(1 1)"><path fill="#FFF" d="M13.681 5.533a5.818 5.818 0 1 1-8.148 8.148 6.91 6.91 0 0 0 8.148-8.148z" opacity=".3"/><circle cx="6.909" cy="6.909" r="6.409" stroke="#FFF"/><path fill="#FFF" fill-rule="nonzero" d="M7.506 4.262l1.053 3.33c.008.026.003.069-.032.084l-.573.256c-.028.013-.06-.005-.07-.038-.01-.032-.235-.792-.259-.868L6.218 7.02l-.281.874c-.01.031-.04.052-.07.038l-.573-.256c-.029-.014-.043-.05-.032-.084l1.052-3.33c.095-.308.219-.626.596-.626.378 0 .497.313.596.626zm-2.415 4.93v.741c0 .038.025.067.056.067h3.525c.03 0 .055-.03.055-.067v-.741c0-.038-.025-.067-.055-.067H5.147c-.03 0-.056.03-.056.067zm1.321-2.866h.991l-.442-1.668h-.116l-.433 1.668z"/></g></g></svg>