<svg xmlns="http://www.w3.org/2000/svg" width="24" height="24" viewBox="0 0 24 24"><g fill="none" fill-rule="evenodd"><path d="M0 0h24v24H0z"/><g fill="#FFF" fill-rule="nonzero"><path d="M12 21a9 9 0 1 1 0-18 9 9 0 0 1 0 18zm0-.947a8.053 8.053 0 1 0 0-16.106 8.053 8.053 0 0 0 0 16.106z"/><path d="M12.984 7.885c.072.187 1.69 4.578 1.738 4.71.014.035.004.097-.052.118l-.946.363a.092.092 0 0 1-.116-.054c-.017-.046-.386-1.12-.426-1.228l-2.322-.01-.464 1.238a.089.089 0 0 1-.116.054l-.944-.363a.093.093 0 0 1-.054-.119l1.736-4.71c.156-.435.36-.884.984-.884s.82.442.983.885h-.001zM9 14.856v1.05c0 .053.042.094.092.094h5.816a.092.092 0 0 0 .092-.095v-1.049a.093.093 0 0 0-.092-.093H9.092a.093.093 0 0 0-.092.093zm2.18-4.052h1.636l-.732-2.36h-.19l-.714 2.36z"/></g></g></svg>