<svg width="48" height="48" viewBox="0 0 48 48" xmlns="http://www.w3.org/2000/svg"><g fill="none" fill-rule="evenodd"><path d="M0 0h48v48H0z"/><rect fill="gold" fill-rule="nonzero" x="3" y="3" width="42" height="42" rx="21"/><path d="M26.627 14.36c.186.497 4.504 12.208 4.632 12.559.037.097.013.259-.14.316-.152.058-2.396.922-2.52.967a.243.243 0 0 1-.31-.144c-.046-.121-1.033-2.987-1.138-3.273l-6.191-.026-1.237 3.3c-.044.117-.178.196-.31.143l-2.518-.967a.247.247 0 0 1-.143-.316c.16-.44 4.41-11.96 4.63-12.56.42-1.16.962-2.359 2.623-2.359 1.663 0 2.186 1.18 2.622 2.36zM16.248 32.699a.25.25 0 0 0-.248.252v2.798c0 .14.11.251.248.251h15.507a.247.247 0 0 0 .245-.251V32.95c0-.14-.11-.251-.245-.251H16.248v-.001zm5.565-10.556h4.362l-1.948-6.291h-.508l-1.906 6.291z" fill="#0B1F35" fill-rule="nonzero"/></g></svg>