<svg xmlns="http://www.w3.org/2000/svg" width="16" height="16" viewBox="0 0 16 16"><g fill="none" fill-rule="evenodd"><rect width="16" height="16"/><g fill="#FFF" fill-rule="nonzero" transform="translate(1 1)"><path d="M7.65676568,4.59019485 L8.81518152,7.72972973 C8.8239824,7.75424261 8.81848185,7.79478316 8.779978,7.8089252 L8.14961496,8.05028284 C8.11881188,8.06253928 8.08360836,8.04556882 8.07260726,8.01445632 C8.06160616,7.98428661 7.81408141,7.26775613 7.78767877,7.19610308 L6.23982398,7.19044626 L5.93069307,8.01445632 C5.91969197,8.04368322 5.88668867,8.06348209 5.85368537,8.05028284 L5.22332233,7.8089252 C5.19141914,7.79572596 5.1760176,7.76178504 5.18811881,7.72972973 L6.34543454,4.59019485 C6.44994499,4.29981144 6.58635864,4 7.00110011,4 C7.41694169,4 7.54785479,4.29509742 7.65676568,4.59019485 Z M5,9.23821496 L5,9.93683218 C5,9.97265871 5.02750275,10 5.06160616,10 L8.93949395,10 C8.97249725,10 9,9.9717159 9,9.93683218 L9,9.23821496 C9,9.20238843 8.97249725,9.17504714 8.93949395,9.17504714 L5.06160616,9.17504714 C5.02860286,9.17504714 5,9.20333124 5,9.23821496 Z M6.45324532,6.53614079 L7.54345435,6.53614079 L7.05720572,4.96354494 L6.92959296,4.96354494 L6.45324532,6.53614079 Z"/><path d="M7,13 C10.3137085,13 13,10.3137085 13,7 C13,3.6862915 10.3137085,1 7,1 C3.6862915,1 1,3.6862915 1,7 C1,10.3137085 3.6862915,13 7,13 Z M7,14 C3.13400675,14 0,10.8659932 0,7 C0,3.13400675 3.13400675,0 7,0 C10.8659932,0 14,3.13400675 14,7 C14,10.8659932 10.8659932,14 7,14 Z"/></g></g></svg>