<svg xmlns="http://www.w3.org/2000/svg" width="36" height="36" viewBox="0 0 36 36"><g fill="none" fill-rule="evenodd"><rect width="36" height="36"/><g fill="#FFF" fill-rule="nonzero" transform="translate(4 4)"><path d="M14,27 C21.1797017,27 27,21.1797017 27,14 C27,6.82029825 21.1797017,1 14,1 C6.82029825,1 1,6.82029825 1,14 C1,21.1797017 6.82029825,27 14,27 Z M14,28 C6.2680135,28 0,21.7319865 0,14 C0,6.2680135 6.2680135,0 14,0 C21.7319865,0 28,6.2680135 28,14 C28,21.7319865 21.7319865,28 14,28 Z"/><path d="M9.474,21 L18.527,21 C18.58,21 18.685,20.947 18.685,20.842 L18.685,19.158 C18.685,19.105 18.632,19 18.527,19 L9.474,19 C9.421,19 9.316,19.053 9.316,19.158 L9.316,20.842 C9.316,20.895 9.368,21 9.474,21 Z M12.582,8.544 C12.484,8.887 10.134,15.447 10.036,15.691 C9.987,15.789 10.036,15.887 10.085,15.887 C10.183,15.887 11.456,16.426 11.505,16.426 C11.554,16.426 11.652,16.377 11.652,16.328 C11.652,16.279 12.19,14.81 12.239,14.664 L15.764,14.664 C15.813,14.811 16.351,16.28 16.351,16.328 C16.4,16.426 16.498,16.426 16.547,16.426 C16.645,16.426 17.869,15.887 17.967,15.887 C18.016,15.838 18.016,15.74 18.016,15.691 C17.967,15.495 15.568,8.837 15.47,8.544 C15.225,7.859 14.931,7.173 14.001,7.173 C13.072,7.173 12.778,7.81 12.582,8.544 Z M15.275,12.999 L12.827,12.999 L14.002,9.327 L15.275,12.999 Z"/></g></g></svg>