<svg height="24" viewBox="0 0 24 24" width="24" xmlns="http://www.w3.org/2000/svg"><g fill="none" fill-rule="evenodd"><path d="m0 0h24v24h-24z"/><g fill="#0b1f35" fill-rule="nonzero" transform="translate(3 3)"><path d="m9 18c-4.97056275 0-9-4.0294373-9-9 0-4.97056275 4.02943725-9 9-9 4.9705627 0 9 4.02943725 9 9 0 4.9705627-4.0294373 9-9 9zm0-.9473684c4.4473456 0 8.0526316-3.605286 8.0526316-8.0526316 0-4.44734562-3.605286-8.05263158-8.0526316-8.05263158-4.44734562 0-8.05263158 3.60528596-8.05263158 8.05263158 0 4.4473456 3.60528596 8.0526316 8.05263158 8.0526316z"/><path d="m9.984 4.88457143c.072.1872 1.6896 4.57817143 1.7376 4.71085714.0144.03497143.0048.09668572-.0516.11725714l-.9456.36308569c-.0468.0174857-.0984-.0082285-.1164-.0534857-.0168-.0462857-.3864-1.12114284-.426-1.22811427l-2.322-.01028572-.4644 1.23839999c-.0156.0432-.066.0730286-.1152.0534857l-.9444-.36308569c-.048-.01954285-.072-.072-.054-.11828571l1.7364-4.70982857c.156-.43508572.36-.88457143.984-.88457143s.8196.44228571.9828.88457143zm-3.984 6.97165717v1.0491428c0 .0534857.042.0946286.0924.0946286h5.8152c.0516 0 .0924-.0411429.0924-.0946286v-1.0491428c0-.0514286-.0408-.0936-.0924-.0936h-5.8152c-.0504 0-.0924.0411428-.0924.0936zm2.1804-4.05257146h1.6356l-.732-2.35954285h-.1896z"/></g></g></svg>