<svg width="18" height="18" viewBox="0 0 18 18" xmlns="http://www.w3.org/2000/svg"><g fill="none" fill-rule="evenodd"><path d="M0 0h18v18H0z"/><g transform="translate(2 2)" fill-rule="nonzero"><rect fill="gold" width="14" height="14" rx="7"/><path d="M7.657 4.59l1.158 3.14c.009.024.003.064-.035.079l-.63.242a.06.06 0 0 1-.078-.036l-.284-.819L6.24 7.19l-.31.825c-.01.029-.044.049-.077.036l-.63-.242a.062.062 0 0 1-.035-.08c.04-.11 1.103-2.99 1.157-3.14C6.45 4.3 6.586 4 7.001 4c.416 0 .547.295.656.59zM5.062 9.175A.063.063 0 0 0 5 9.238v.7c0 .034.028.062.062.062h3.877A.062.062 0 0 0 9 9.937v-.7a.062.062 0 0 0-.061-.062H5.062zm1.391-2.64h1.09l-.486-1.572H6.93l-.477 1.573z" fill="#0B1F35"/></g></g></svg>