<svg xmlns="http://www.w3.org/2000/svg" width="24" height="24" viewBox="0 0 24 24"><g fill="none" fill-rule="evenodd" transform="translate(1 1)"><path fill="#FFF" d="M18.812 7.608A8 8 0 1 1 7.609 18.811 9.5 9.5 0 0 0 18.811 7.609z" opacity=".3"/><circle cx="9.5" cy="9.5" r="9" stroke="#FFF"/><path fill="#FFF" fill-rule="nonzero" d="M10.32 5.86c.06.182 1.408 4.451 1.448 4.58.012.034.004.094-.043.114l-.788.353c-.039.017-.082-.008-.097-.052-.014-.045-.322-1.09-.355-1.194l-1.935-.01-.387 1.204c-.013.042-.055.071-.096.052l-.787-.353c-.04-.019-.06-.07-.045-.115L8.682 5.86c.13-.423.3-.86.82-.86s.683.43.819.86zM7 12.638v1.02c0 .052.035.092.077.092h4.846c.043 0 .077-.04.077-.092v-1.02c0-.05-.034-.091-.077-.091H7.077c-.042 0-.077.04-.077.091zm1.817-3.94h1.363l-.61-2.294h-.158l-.595 2.294z"/></g></svg>