<svg xmlns="http://www.w3.org/2000/svg" width="16" height="16" viewBox="0 0 16 16"><g fill="none" fill-rule="evenodd"><path d="M0 0h16v16H0z"/><g fill="#FFF" fill-rule="nonzero"><path d="M8.657 5.59l1.158 3.14c.009.024.003.065-.035.079l-.63.241a.06.06 0 0 1-.077-.036l-.285-.818L7.24 8.19l-.31.824c-.01.03-.043.05-.076.036l-.63-.241a.061.061 0 0 1-.036-.08L7.345 5.59c.105-.29.241-.59.656-.59.416 0 .547.295.656.59zM6 10.238v.699c0 .036.028.063.062.063h3.877c.033 0 .061-.028.061-.063v-.699a.062.062 0 0 0-.06-.063H6.061a.063.063 0 0 0-.062.063zm1.453-2.702h1.09l-.486-1.572H7.93l-.477 1.572z"/><path d="M8 14A6 6 0 1 0 8 2a6 6 0 0 0 0 12zm0 1A7 7 0 1 1 8 1a7 7 0 0 1 0 14z"/></g></g></svg>