<svg width="24" height="24" viewBox="0 0 24 24" xmlns="http://www.w3.org/2000/svg"><g fill="none" fill-rule="evenodd"><path d="M0 0h24v24H0z"/><g transform="translate(3 3)" fill-rule="nonzero"><rect fill="gold" width="18" height="18" rx="9"/><path d="M9.985 4.983l1.737 5.233c.014.04.005.108-.053.132l-.944.403c-.047.02-.1-.009-.117-.06-.017-.05-.387-1.245-.427-1.364l-2.321-.01-.464 1.374c-.017.049-.066.082-.116.06l-.944-.403a.107.107 0 0 1-.054-.132l1.736-5.233C8.175 4.5 8.379 4 9.002 4s.82.491.983.983zm-3.892 7.641c-.051 0-.093.048-.093.106v1.165c0 .059.042.105.093.105h5.815c.051 0 .092-.046.092-.105V12.73c0-.059-.041-.105-.092-.105H6.093zM8.18 8.226h1.636l-.731-2.621h-.19L8.18 8.226z" fill="#0B1F35"/></g></g></svg>