<svg xmlns="http://www.w3.org/2000/svg" width="36" height="36" viewBox="0 0 36 36"><g fill="none" fill-rule="evenodd"><path d="M0 0h36v36H0z"/><g transform="translate(1 1)"><path fill="#0B1F35" d="M29.072 11.758A12.345 12.345 0 0 1 34 21.636C34 28.465 28.465 34 21.636 34a12.345 12.345 0 0 1-9.878-4.928c.945.191 1.923.292 2.924.292 8.108 0 14.682-6.574 14.682-14.682 0-1.001-.1-1.98-.292-2.924z" opacity=".3"/><circle cx="14.682" cy="14.682" r="14.182" stroke="#0B1F35"/><path fill="#0B1F35" fill-rule="nonzero" d="M15.95 9.057c.09.28 2.176 6.878 2.237 7.076.018.055.007.146-.067.178l-1.217.546c-.06.026-.128-.013-.15-.082-.022-.068-.499-1.683-.55-1.844l-2.99-.015-.597 1.86c-.021.065-.086.11-.15.08l-1.216-.545c-.062-.029-.092-.107-.069-.178l2.236-7.076c.203-.655.465-1.33 1.267-1.33.803 0 1.056.665 1.266 1.33zm-5.132 10.475v1.576c0 .08.054.142.12.142h7.489c.066 0 .118-.063.118-.142v-1.576c0-.079-.052-.142-.118-.142h-7.489c-.066 0-.12.064-.12.142zm2.808-6.09h2.106l-.94-3.545h-.246l-.92 3.545z"/></g></g></svg>