<svg xmlns="http://www.w3.org/2000/svg" width="31" height="35" viewBox="0 0 31 35"><g fill="none" fill-rule="evenodd"><path d="M-3 0h36v36H-3z"/><path fill="#FFF" d="M9.577 25.976l11.09-12.917.758.651-11.089 12.917z" opacity=".4"/><path fill="#FFF" d="M20 27c1.654 0 3-1.346 3-3s-1.346-3-3-3-3 1.346-3 3 1.346 3 3 3zm0-5a2 2 0 1 1 .001 3.999A2 2 0 0 1 20 22zm-9-4c1.654 0 3-1.346 3-3s-1.346-3-3-3-3 1.346-3 3 1.346 3 3 3zm0-5a2 2 0 1 1 .001 3.999A2 2 0 0 1 11 13z" opacity=".3"/><path fill="#FFF" d="M30 19.5c0-7.826-6.237-14.208-14-14.475V0h-1v5.025C7.237 5.292 1 11.674 1 19.5c0 4.5 2.061 8.528 5.288 11.189l-2.4 3.328.812.586 2.39-3.314a14.414 14.414 0 0 0 16.64.135l2.322 3.22.812-.585-2.333-3.235C27.859 28.166 30 24.081 30 19.5zM15.5 33C8.056 33 2 26.944 2 19.5S8.056 6 15.5 6 29 12.056 29 19.5 22.944 33 15.5 33z"/><path fill="#FFF" d="M9.091 2.932l-.709-1.87A20.187 20.187 0 0 0 .669 6.307l1.477 1.349a18.184 18.184 0 0 1 6.945-4.724zm13.525-1.87l-.709 1.87a18.192 18.192 0 0 1 6.945 4.724l1.477-1.349a20.202 20.202 0 0 0-7.713-5.245z" opacity=".3"/></g></svg>