<svg xmlns="http://www.w3.org/2000/svg" width="42" height="47" viewBox="0 0 42 47"><g fill="none" fill-rule="evenodd"><path d="M-3 0h48v48H-3z"/><path fill="#FFF" d="M15 25c2.757 0 5-2.243 5-5s-2.243-5-5-5-5 2.243-5 5 2.243 5 5 5zm0-8a3 3 0 1 1 0 6 3 3 0 0 1 0-6zm12 10c-2.757 0-5 2.243-5 5s2.243 5 5 5 5-2.243 5-5-2.243-5-5-5zm0 8a3 3 0 1 1 0-6 3 3 0 0 1 0 6zm-14.215-.968L27.7 16.663l1.517 1.303-14.915 17.37z" opacity=".3"/><path fill="#FFF" d="M41 26c0-10.69-8.438-19.423-19-19.949V0h-2v6.051C9.438 6.577 1 15.31 1 26c0 6.39 3.024 12.076 7.703 15.74l-2.65 3.675 1.622 1.17 2.664-3.694A19.851 19.851 0 0 0 21 46c3.921 0 7.571-1.151 10.662-3.109l2.664 3.694 1.622-1.17-2.65-3.675C37.976 38.076 41 32.39 41 26zM21 45C10.523 45 2 36.477 2 26S10.523 7 21 7s19 8.523 19 19-8.523 19-19 19z"/><path fill="#FFF" d="M12.613 4.365L11.195.625A27.815 27.815 0 0 0 .571 7.849l2.954 2.697a23.811 23.811 0 0 1 9.088-6.181zM30.802.625l-1.418 3.74a23.8 23.8 0 0 1 9.088 6.181l2.954-2.697A27.822 27.822 0 0 0 30.802.625z" opacity=".3"/></g></svg>