<svg xmlns="http://www.w3.org/2000/svg" width="18" height="18" version="1" viewBox="0 0 18 18"><radialGradient id="a" cx="-3.948" cy="-2.302" r="7.486" gradientTransform="translate(12.773 8.639) scale(.8933)" gradientUnits="userSpaceOnUse"><stop offset=".193" stop-color="#fff"/><stop offset=".227" stop-color="#f7fcff"/><stop offset=".281" stop-color="#e0f5fd"/><stop offset=".347" stop-color="#bae9fb"/><stop offset=".425" stop-color="#86d9f8"/><stop offset=".51" stop-color="#44c4f4"/><stop offset=".59" stop-color="#00aff0"/><stop offset="1" stop-color="#005f9b"/></radialGradient><path fill="url(#a)" fill-rule="evenodd" d="M15.366 7.326l-2.749-2.749a.136.136 0 0 0-.192 0l-1.827 1.827a.136.136 0 0 0 0 .192l.896.896 1.257.133c.074.008.136.061.136.136v1.124l.46.46a.136.136 0 0 0 .192 0l1.827-1.827a.136.136 0 0 0 0-.192z" clip-rule="evenodd"/><radialGradient id="b" cx="-3.948" cy="-2.302" r="7.486" gradientTransform="translate(12.773 8.639) scale(.8933)" gradientUnits="userSpaceOnUse"><stop offset=".193" stop-color="#fff"/><stop offset=".227" stop-color="#f7fcff"/><stop offset=".281" stop-color="#e0f5fd"/><stop offset=".347" stop-color="#bae9fb"/><stop offset=".425" stop-color="#86d9f8"/><stop offset=".51" stop-color="#44c4f4"/><stop offset=".59" stop-color="#00aff0"/><stop offset="1" stop-color="#005f9b"/></radialGradient><path fill="url(#b)" fill-rule="evenodd" d="M12.886 11.65V7.762a.136.136 0 0 0-.136-.136h-2.584a.136.136 0 0 0-.136.136v1.214l.814 1.035c.046.059.053.139 0 .192l-.814.814v.632c0 .075.061.136.136.136h2.584a.135.135 0 0 0 .136-.135z" clip-rule="evenodd"/><radialGradient id="c" cx="-3.948" cy="-2.302" r="7.486" gradientTransform="translate(12.773 8.639) scale(.8933)" gradientUnits="userSpaceOnUse"><stop offset=".193" stop-color="#fff"/><stop offset=".227" stop-color="#f7fcff"/><stop offset=".281" stop-color="#e0f5fd"/><stop offset=".347" stop-color="#bae9fb"/><stop offset=".425" stop-color="#86d9f8"/><stop offset=".51" stop-color="#44c4f4"/><stop offset=".59" stop-color="#00aff0"/><stop offset="1" stop-color="#005f9b"/></radialGradient><path fill="url(#c)" fill-rule="evenodd" d="M8.095 12.952l2.749-2.749a.136.136 0 0 0 0-.192L9.016 8.184a.136.136 0 0 0-.192 0l-.872.872-.162 1.295c-.009.074-.061.136-.136.136H6.521l-.446.446a.136.136 0 0 0 0 .192l1.827 1.827c.054.053.14.053.193 0z" clip-rule="evenodd"/><radialGradient id="d" cx="-3.948" cy="-2.302" r="7.486" gradientTransform="translate(12.773 8.639) scale(.8933)" gradientUnits="userSpaceOnUse"><stop offset=".193" stop-color="#fff"/><stop offset=".227" stop-color="#f7fcff"/><stop offset=".281" stop-color="#e0f5fd"/><stop offset=".347" stop-color="#bae9fb"/><stop offset=".425" stop-color="#86d9f8"/><stop offset=".51" stop-color="#44c4f4"/><stop offset=".59" stop-color="#00aff0"/><stop offset="1" stop-color="#005f9b"/></radialGradient><path fill="url(#d)" fill-rule="evenodd" d="M3.767 10.487h3.887a.136.136 0 0 0 .136-.136V7.766a.136.136 0 0 0-.136-.136H6.349l-.963.786c-.058.047-.139.053-.192 0l-.786-.786h-.641a.136.136 0 0 0-.136.136v2.584c0 .076.061.137.136.137z" clip-rule="evenodd"/><radialGradient id="e" cx="-3.948" cy="-2.302" r="7.486" gradientTransform="translate(12.773 8.639) scale(.8933)" gradientUnits="userSpaceOnUse"><stop offset=".193" stop-color="#fff"/><stop offset=".227" stop-color="#f7fcff"/><stop offset=".281" stop-color="#e0f5fd"/><stop offset=".347" stop-color="#bae9fb"/><stop offset=".425" stop-color="#86d9f8"/><stop offset=".51" stop-color="#44c4f4"/><stop offset=".59" stop-color="#00aff0"/><stop offset="1" stop-color="#005f9b"/></radialGradient><path fill="url(#e)" fill-rule="evenodd" d="M4.923 1.34v3.887c0 .075.061.136.136.136h2.584a.136.136 0 0 0 .136-.136V3.994l-.805-1.013c-.047-.059-.053-.139 0-.192l.806-.806V1.34a.136.136 0 0 0-.136-.136H5.059a.137.137 0 0 0-.136.136z" clip-rule="evenodd"/><radialGradient id="f" cx="-3.948" cy="-2.302" r="7.486" gradientTransform="translate(12.773 8.639) scale(.8933)" gradientUnits="userSpaceOnUse"><stop offset=".193" stop-color="#fff"/><stop offset=".227" stop-color="#f7fcff"/><stop offset=".281" stop-color="#e0f5fd"/><stop offset=".347" stop-color="#bae9fb"/><stop offset=".425" stop-color="#86d9f8"/><stop offset=".51" stop-color="#44c4f4"/><stop offset=".59" stop-color="#00aff0"/><stop offset="1" stop-color="#005f9b"/></radialGradient><path fill="url(#f)" fill-rule="evenodd" d="M9.722.04L6.974 2.789a.136.136 0 0 0 0 .192l1.827 1.827a.136.136 0 0 0 .192 0l.899-.898.133-1.267c.008-.074.061-.136.136-.136h1.135l.447-.447a.136.136 0 0 0 0-.192L9.915.04a.137.137 0 0 0-.193 0z" clip-rule="evenodd"/><radialGradient id="g" cx="-3.948" cy="-2.302" r="7.486" gradientTransform="translate(12.773 8.639) scale(.8933)" gradientUnits="userSpaceOnUse"><stop offset=".193" stop-color="#fff"/><stop offset=".227" stop-color="#f7fcff"/><stop offset=".281" stop-color="#e0f5fd"/><stop offset=".347" stop-color="#bae9fb"/><stop offset=".425" stop-color="#86d9f8"/><stop offset=".51" stop-color="#44c4f4"/><stop offset=".59" stop-color="#00aff0"/><stop offset="1" stop-color="#005f9b"/></radialGradient><path fill="url(#g)" fill-rule="evenodd" d="M14.048 2.507H10.16a.136.136 0 0 0-.136.136v2.584c0 .075.061.136.136.136h1.287l.978-.786c.058-.047.139-.053.192 0l.786.786h.645a.136.136 0 0 0 .136-.136V2.643a.136.136 0 0 0-.136-.136z" clip-rule="evenodd"/><radialGradient id="h" cx="-3.948" cy="-2.302" r="7.486" gradientTransform="translate(12.773 8.639) scale(.8933)" gradientUnits="userSpaceOnUse"><stop offset=".193" stop-color="#fff"/><stop offset=".227" stop-color="#f7fcff"/><stop offset=".281" stop-color="#e0f5fd"/><stop offset=".347" stop-color="#bae9fb"/><stop offset=".425" stop-color="#86d9f8"/><stop offset=".51" stop-color="#44c4f4"/><stop offset=".59" stop-color="#00aff0"/><stop offset="1" stop-color="#005f9b"/></radialGradient><path fill="url(#h)" fill-rule="evenodd" d="M2.445 5.668l2.749 2.749a.136.136 0 0 0 .192 0L7.213 6.59a.136.136 0 0 0 0-.192l-.914-.916-1.24-.118c-.075-.007-.136-.062-.136-.136V4.106l-.458-.458a.136.136 0 0 0-.192 0L2.445 5.475a.137.137 0 0 0 0 .193z" clip-rule="evenodd"/><path fill="#005388" fill-rule="evenodd" d="M12.886 7.762v1.124l.46.46-.46-1.584zm-.269-3.184l.786.786h.645l-1.431-.786zM10.16 2.507h1.135l.447-.447-1.582.447zm-3.212.318l.831-.842V1.34l-.831 1.485zM4.923 5.228V4.106l-.458-.458.458 1.58zm.271 3.188l-.786-.786h-.641l1.427.786zm2.46 2.071H6.521l-.446.446 1.579-.446zm3.179-.272l-.803.803v.632l.803-1.435z" clip-rule="evenodd"/><path fill="#005D99" d="M1.724 17.024a.453.453 0 0 1-.085.265.337.337 0 0 1-.128.101.477.477 0 0 1-.202.041H.688v-.796h.625a.48.48 0 0 1 .226.051.34.34 0 0 1 .138.138.422.422 0 0 1 .047.2zm2.994.877v-.364c.001-.041-.004-.069-.016-.083-.012-.014-.034-.02-.07-.019h-1.13a.411.411 0 0 1-.154-.022.169.169 0 0 1-.093-.079.325.325 0 0 1-.031-.156v-.488h1.228c.034 0 .056-.008.066-.024.011-.016.016-.041.015-.075v-.334c.001-.04-.004-.067-.015-.082-.011-.014-.033-.021-.066-.021H3.225v-.329a.344.344 0 0 1 .023-.136.187.187 0 0 1 .084-.094.363.363 0 0 1 .171-.036H4.59c.031.001.053-.006.065-.02.011-.013.017-.038.016-.074v-.364c.001-.04-.004-.067-.015-.082-.011-.012-.033-.019-.066-.019H3.361a.951.951 0 0 0-.367.066.64.64 0 0 0-.244.177.727.727 0 0 0-.135.253.961.961 0 0 0-.042.295v1.421a1.1 1.1 0 0 0 .035.287.673.673 0 0 0 .123.252.593.593 0 0 0 .242.179c.105.046.235.068.393.07h1.267c.034 0 .056-.008.069-.023a.13.13 0 0 0 .016-.076zm4.876-1.497v-.021a.736.736 0 0 0 .23-.218.923.923 0 0 0 .134-.316l.197-.764a.095.095 0 0 0 .006-.035.05.05 0 0 0-.016-.034c-.01-.01-.027-.015-.051-.016h-.479a.128.128 0 0 0-.049.009c-.017.006-.029.024-.036.051l-.192.72a.627.627 0 0 1-.091.209.39.39 0 0 1-.266.165.811.811 0 0 1-.135.01h-.343v-1.087c.006-.031.004-.051-.008-.059s-.032-.011-.06-.01h-.501a.096.096 0 0 0-.058.01c-.013.008-.019.027-.019.059v2.854c0 .031.006.051.019.058.013.008.032.011.058.01h.496c.028.002.047-.002.059-.01.012-.008.018-.028.018-.058l-.004-1.271h.351a.885.885 0 0 1 .252.028.35.35 0 0 1 .171.107.605.605 0 0 1 .112.225l.261.92c.009.027.022.044.038.051a.115.115 0 0 0 .047.009h.496c.023-.001.041-.006.051-.016a.052.052 0 0 0 .016-.034.1.1 0 0 0-.006-.036l-.265-.993a1.744 1.744 0 0 0-.054-.175.617.617 0 0 0-.075-.142.473.473 0 0 0-.118-.113.85.85 0 0 0-.186-.087zm1.801.44l.163-.542.163-.611h.026l.158.611.163.542h-.673zm.826.531l.167.556c.009.031.023.051.044.058a.21.21 0 0 0 .08.01h.509c.021-.001.036-.005.046-.015a.052.052 0 0 0 .016-.034.078.078 0 0 0-.006-.037l-.89-2.679a.49.49 0 0 0-.074-.154c-.027-.034-.061-.056-.103-.066S11.917 15 11.853 15h-.257a.443.443 0 0 0-.145.019.208.208 0 0 0-.1.071.44.44 0 0 0-.068.144l-.89 2.679a.09.09 0 0 0 .001.061c.008.016.027.024.058.025h.501c.039 0 .068-.006.084-.02a.11.11 0 0 0 .036-.061l.167-.544h.981v.001zm2.674-1.395a.462.462 0 0 1-.045.206.345.345 0 0 1-.14.146.483.483 0 0 1-.239.055h-.561v-.813h.556a.502.502 0 0 1 .213.041.331.331 0 0 1 .13.103.443.443 0 0 1 .086.262zm-.984 1.93v-.997h.569c.16-.001.298-.019.415-.052a.965.965 0 0 0 .294-.136.841.841 0 0 0 .31-.405 1.131 1.131 0 0 0 .068-.382c0-.136-.024-.262-.069-.376a.858.858 0 0 0-.514-.492 1.213 1.213 0 0 0-.418-.07h-1.048a.336.336 0 0 0-.158.032.171.171 0 0 0-.079.091.409.409 0 0 0-.021.138v2.649c0 .033.008.057.024.071.015.013.04.019.075.019h.449c.029 0 .05-.001.065-.005a.042.042 0 0 0 .03-.026.173.173 0 0 0 .008-.059zm4.051-2.439v-.381c.001-.036-.005-.06-.017-.072-.012-.013-.035-.018-.068-.018h-2.191c-.031-.001-.053.005-.065.018-.011.012-.017.036-.016.072v.381c0 .028.006.049.02.064.013.014.033.022.061.022h.757v2.353c0 .033.008.057.024.071.015.013.04.019.074.019h.458c.042.001.07-.005.083-.018.014-.013.021-.037.019-.072v-2.353h.775c.028 0 .049-.008.063-.022.016-.015.023-.036.023-.064zM.295 18h1.078a1.15 1.15 0 0 0 .404-.071c.124-.046.233-.112.326-.196a.929.929 0 0 0 .218-.298.917.917 0 0 0 .079-.376 1.422 1.422 0 0 0-.01-.173 1.004 1.004 0 0 0-.046-.208.76.76 0 0 0-.297-.401.992.992 0 0 0-.3-.135 1.615 1.615 0 0 0-.434-.051H.688v-.535H1.98c.031.001.052-.005.063-.016.01-.012.015-.033.014-.065v-.381c.001-.036-.004-.061-.014-.074-.01-.014-.031-.02-.062-.02H.312a.351.351 0 0 0-.162.031.176.176 0 0 0-.086.096.433.433 0 0 0-.026.165v2.452a.41.41 0 0 0 .02.148c.014.038.04.066.077.083a.418.418 0 0 0 .16.025zm5.085-2.713l-.039.65c-.013.222-.027.414-.042.578-.024.271-.051.92-.402.92-.036 0-.059.006-.07.019-.011.014-.016.042-.016.083v.364c0 .034.005.059.017.075.014.016.037.024.07.024.272 0 .51-.022.714-.331.063-.095.118-.201.157-.322.04-.12.071-.256.094-.405.023-.149.041-.313.056-.493.014-.179.029-.374.043-.585l.017-.3h.835v2.353c0 .031.006.052.019.063.013.01.036.015.067.014h.475a.212.212 0 0 0 .059-.006.038.038 0 0 0 .026-.023.13.13 0 0 0 .005-.048v-2.632a.414.414 0 0 0-.025-.16.188.188 0 0 0-.086-.096A.415.415 0 0 0 7.19 15H5.654a.361.361 0 0 0-.159.029.176.176 0 0 0-.083.093.548.548 0 0 0-.032.165z"/></svg>