<svg xmlns="http://www.w3.org/2000/svg" width="30" height="30" version="1" viewBox="0 0 30 30"><radialGradient id="a" cx="14.92" cy="11.03" r="11.336" gradientTransform="translate(.498 .126) scale(.9984)" gradientUnits="userSpaceOnUse"><stop offset=".193" stop-color="#fff"/><stop offset=".227" stop-color="#f7fcff"/><stop offset=".281" stop-color="#e0f5fd"/><stop offset=".347" stop-color="#bae9fb"/><stop offset=".425" stop-color="#86d9f8"/><stop offset=".51" stop-color="#44c4f4"/><stop offset=".59" stop-color="#00aff0"/><stop offset="1" stop-color="#005f9b"/></radialGradient><path fill="url(#a)" fill-rule="evenodd" d="M25.75 12.397l-4.652-4.652a.23.23 0 0 0-.325 0l-3.093 3.093a.231.231 0 0 0 0 .325l1.516 1.517 2.127.225c.126.013.23.104.23.23v1.902l.778.778a.23.23 0 0 0 .325 0l3.093-3.093a.23.23 0 0 0 .001-.325z" clip-rule="evenodd"/><radialGradient id="b" cx="14.92" cy="11.03" r="11.336" gradientTransform="translate(.498 .126) scale(.9984)" gradientUnits="userSpaceOnUse"><stop offset=".193" stop-color="#fff"/><stop offset=".227" stop-color="#f7fcff"/><stop offset=".281" stop-color="#e0f5fd"/><stop offset=".347" stop-color="#bae9fb"/><stop offset=".425" stop-color="#86d9f8"/><stop offset=".51" stop-color="#44c4f4"/><stop offset=".59" stop-color="#00aff0"/><stop offset="1" stop-color="#005f9b"/></radialGradient><path fill="url(#b)" fill-rule="evenodd" d="M21.554 19.714v-6.579a.231.231 0 0 0-.23-.23H16.95a.23.23 0 0 0-.23.23v2.054l1.378 1.752c.078.099.089.236 0 .325l-1.378 1.378v1.069c0 .127.104.23.23.23h4.373a.23.23 0 0 0 .231-.229z" clip-rule="evenodd"/><radialGradient id="c" cx="14.92" cy="11.03" r="11.336" gradientTransform="translate(.498 .126) scale(.9984)" gradientUnits="userSpaceOnUse"><stop offset=".193" stop-color="#fff"/><stop offset=".227" stop-color="#f7fcff"/><stop offset=".281" stop-color="#e0f5fd"/><stop offset=".347" stop-color="#bae9fb"/><stop offset=".425" stop-color="#86d9f8"/><stop offset=".51" stop-color="#44c4f4"/><stop offset=".59" stop-color="#00aff0"/><stop offset="1" stop-color="#005f9b"/></radialGradient><path fill="url(#c)" fill-rule="evenodd" d="M13.446 21.918l4.652-4.652a.231.231 0 0 0 0-.325l-3.093-3.093a.231.231 0 0 0-.325 0l-1.475 1.475-.274 2.192c-.016.126-.104.23-.23.23h-1.917l-.756.755a.231.231 0 0 0 0 .325l3.093 3.092a.228.228 0 0 0 .325.001z" clip-rule="evenodd"/><radialGradient id="d" cx="14.92" cy="11.03" r="11.336" gradientTransform="translate(.498 .126) scale(.9984)" gradientUnits="userSpaceOnUse"><stop offset=".193" stop-color="#fff"/><stop offset=".227" stop-color="#f7fcff"/><stop offset=".281" stop-color="#e0f5fd"/><stop offset=".347" stop-color="#bae9fb"/><stop offset=".425" stop-color="#86d9f8"/><stop offset=".51" stop-color="#44c4f4"/><stop offset=".59" stop-color="#00aff0"/><stop offset="1" stop-color="#005f9b"/></radialGradient><path fill="url(#d)" fill-rule="evenodd" d="M6.121 17.746H12.7a.23.23 0 0 0 .23-.23v-4.373a.23.23 0 0 0-.23-.23h-2.209l-1.629 1.33c-.098.08-.236.09-.325 0l-1.33-1.33H6.121a.231.231 0 0 0-.23.23v4.373c0 .126.104.23.23.23z" clip-rule="evenodd"/><radialGradient id="e" cx="14.92" cy="11.03" r="11.336" gradientTransform="translate(.498 .126) scale(.9984)" gradientUnits="userSpaceOnUse"><stop offset=".193" stop-color="#fff"/><stop offset=".227" stop-color="#f7fcff"/><stop offset=".281" stop-color="#e0f5fd"/><stop offset=".347" stop-color="#bae9fb"/><stop offset=".425" stop-color="#86d9f8"/><stop offset=".51" stop-color="#44c4f4"/><stop offset=".59" stop-color="#00aff0"/><stop offset="1" stop-color="#005f9b"/></radialGradient><path fill="url(#e)" fill-rule="evenodd" d="M8.077 2.267v6.579c0 .127.104.23.23.23h4.373a.23.23 0 0 0 .23-.23V6.757l-1.363-1.713c-.079-.099-.09-.236 0-.325l1.363-1.363V2.267a.231.231 0 0 0-.23-.23H8.308a.232.232 0 0 0-.231.23z" clip-rule="evenodd"/><radialGradient id="f" cx="14.92" cy="11.03" r="11.336" gradientTransform="translate(.498 .126) scale(.9984)" gradientUnits="userSpaceOnUse"><stop offset=".193" stop-color="#fff"/><stop offset=".227" stop-color="#f7fcff"/><stop offset=".281" stop-color="#e0f5fd"/><stop offset=".347" stop-color="#bae9fb"/><stop offset=".425" stop-color="#86d9f8"/><stop offset=".51" stop-color="#44c4f4"/><stop offset=".59" stop-color="#00aff0"/><stop offset="1" stop-color="#005f9b"/></radialGradient><path fill="url(#f)" fill-rule="evenodd" d="M16.2.067l-4.652 4.652a.23.23 0 0 0 0 .325l3.093 3.092c.09.09.236.09.325 0l1.52-1.52.225-2.145c.013-.126.104-.23.23-.23h1.92l.757-.756a.232.232 0 0 0 0-.326L16.525.067a.231.231 0 0 0-.325 0z" clip-rule="evenodd"/><radialGradient id="g" cx="14.92" cy="11.03" r="11.336" gradientTransform="translate(.498 .126) scale(.9984)" gradientUnits="userSpaceOnUse"><stop offset=".193" stop-color="#fff"/><stop offset=".227" stop-color="#f7fcff"/><stop offset=".281" stop-color="#e0f5fd"/><stop offset=".347" stop-color="#bae9fb"/><stop offset=".425" stop-color="#86d9f8"/><stop offset=".51" stop-color="#44c4f4"/><stop offset=".59" stop-color="#00aff0"/><stop offset="1" stop-color="#005f9b"/></radialGradient><path fill="url(#g)" fill-rule="evenodd" d="M23.519 4.242H16.94a.23.23 0 0 0-.23.23v4.373c0 .126.104.23.23.23h2.177l1.654-1.33c.099-.079.236-.09.325 0l1.33 1.33h1.092a.23.23 0 0 0 .23-.23V4.472a.228.228 0 0 0-.229-.23z" clip-rule="evenodd"/><radialGradient id="h" cx="14.92" cy="11.03" r="11.336" gradientTransform="translate(.498 .126) scale(.9984)" gradientUnits="userSpaceOnUse"><stop offset=".193" stop-color="#fff"/><stop offset=".227" stop-color="#f7fcff"/><stop offset=".281" stop-color="#e0f5fd"/><stop offset=".347" stop-color="#bae9fb"/><stop offset=".425" stop-color="#86d9f8"/><stop offset=".51" stop-color="#44c4f4"/><stop offset=".59" stop-color="#00aff0"/><stop offset="1" stop-color="#005f9b"/></radialGradient><path fill="url(#h)" fill-rule="evenodd" d="M3.884 9.59l4.652 4.652a.23.23 0 0 0 .325 0l3.093-3.093a.231.231 0 0 0 0-.325l-1.548-1.548-2.098-.2c-.126-.012-.23-.104-.23-.23V6.947l-.776-.775a.23.23 0 0 0-.325 0L3.884 9.265a.23.23 0 0 0 0 .325z" clip-rule="evenodd"/><path fill="#005388" fill-rule="evenodd" d="M21.554 13.135v1.902l.778.778-.778-2.68zm-.456-5.389l1.33 1.33h1.092l-2.422-1.33zm-4.157-3.504h1.92l.757-.757-2.677.757zm-5.437.538l1.407-1.424V2.267L11.504 4.78zM8.078 8.846V6.947l-.776-.775.776 2.674zm.458 5.396l-1.33-1.33H6.121l2.415 1.33zm4.164 3.504h-1.917l-.755.754 2.672-.754zm5.378-.46l-1.359 1.359v1.069l1.359-2.428z" clip-rule="evenodd"/><path fill="#005D99" d="M5.532 28.699a.596.596 0 0 1-.114.353.464.464 0 0 1-.17.135.621.621 0 0 1-.269.054h-.828V28.18h.833a.62.62 0 0 1 .301.069.45.45 0 0 1 .185.184.561.561 0 0 1 .062.266zm3.992 1.169v-.485c.001-.055-.006-.092-.021-.111-.015-.018-.046-.027-.093-.026H7.904a.582.582 0 0 1-.205-.029.226.226 0 0 1-.124-.105.43.43 0 0 1-.042-.208v-.65H9.17c.045 0 .074-.01.088-.031.014-.021.021-.054.02-.1v-.445c.001-.053-.006-.089-.02-.109-.014-.019-.044-.028-.088-.028H7.533v-.439a.471.471 0 0 1 .03-.181.243.243 0 0 1 .112-.125.461.461 0 0 1 .228-.047h1.449c.042.001.07-.009.087-.027.015-.018.023-.051.022-.099v-.485c.001-.053-.006-.089-.02-.109-.014-.02-.043-.03-.088-.029H7.715a1.245 1.245 0 0 0-.489.089.855.855 0 0 0-.325.236.95.95 0 0 0-.18.338 1.322 1.322 0 0 0-.056.394v1.894a1.44 1.44 0 0 0 .047.383.92.92 0 0 0 .164.337c.078.1.185.18.323.239.137.06.311.089.521.091h1.69c.045 0 .075-.01.091-.031a.17.17 0 0 0 .023-.102zm6.502-1.996v-.028a.974.974 0 0 0 .306-.29c.082-.119.142-.26.179-.421l.262-1.018a.116.116 0 0 0 .009-.047.068.068 0 0 0-.021-.046c-.013-.013-.036-.02-.067-.021h-.639a.16.16 0 0 0-.066.012c-.023.009-.039.031-.048.068l-.257.96a.824.824 0 0 1-.122.279.504.504 0 0 1-.168.154.61.61 0 0 1-.186.066c-.063.01-.123.014-.18.013h-.456v-1.449c.009-.042.005-.068-.011-.078-.016-.01-.043-.015-.08-.013h-.667a.139.139 0 0 0-.077.013c-.017.01-.026.036-.026.078v3.805c0 .041.009.068.026.078.017.01.043.015.077.013h.662c.037.002.063-.003.079-.013.016-.01.024-.037.024-.078l-.006-1.694h.468c.132-.002.244.01.336.037a.464.464 0 0 1 .228.143c.06.069.11.169.149.3l.346 1.225c.012.036.029.058.05.067.022.01.043.013.064.012h.662c.031-.001.054-.007.067-.021a.07.07 0 0 0 .021-.046.146.146 0 0 0-.008-.048l-.354-1.324a2.24 2.24 0 0 0-.072-.233.775.775 0 0 0-.101-.189.635.635 0 0 0-.158-.151 1.123 1.123 0 0 0-.245-.115zm2.401.587l.217-.723.217-.814h.034l.211.814.217.723h-.896zm1.101.708l.223.742c.011.041.031.068.059.078.028.01.064.015.107.013h.679c.028-.001.048-.007.061-.02a.068.068 0 0 0 .021-.045.118.118 0 0 0-.008-.049l-1.187-3.572a.651.651 0 0 0-.099-.205c-.036-.045-.082-.074-.137-.088s-.125-.02-.209-.019h-.342a.578.578 0 0 0-.193.026.272.272 0 0 0-.133.095.563.563 0 0 0-.09.192l-1.187 3.572a.111.111 0 0 0 .002.081c.011.021.036.032.078.033h.668c.052 0 .09-.008.112-.027a.15.15 0 0 0 .048-.082l.223-.725h1.304zm3.565-1.86c0 .102-.02.193-.06.275a.457.457 0 0 1-.186.194.64.64 0 0 1-.318.073h-.747v-1.084h.742c.115.001.21.019.284.055a.456.456 0 0 1 .174.137.51.51 0 0 1 .088.176c.015.062.024.12.023.174zm-1.312 2.573v-1.33h.759c.213-.001.397-.025.553-.069a1.3 1.3 0 0 0 .393-.181 1.104 1.104 0 0 0 .413-.54 1.454 1.454 0 0 0 .09-.51c0-.182-.031-.349-.092-.501a1.122 1.122 0 0 0-.265-.395 1.218 1.218 0 0 0-.42-.26 1.614 1.614 0 0 0-.557-.093h-1.398a.43.43 0 0 0-.21.043.23.23 0 0 0-.105.121.535.535 0 0 0-.028.184v3.532c0 .045.01.076.031.094.021.018.054.027.1.026h.599a.393.393 0 0 0 .087-.007.058.058 0 0 0 .04-.034.236.236 0 0 0 .01-.08zm5.402-3.252v-.508c.001-.048-.007-.08-.023-.096-.016-.017-.047-.025-.091-.024h-2.921c-.042-.001-.07.007-.087.024-.015.016-.023.048-.022.096v.508c0 .037.008.066.027.085.017.019.045.029.082.029h1.01v3.138c0 .045.011.076.031.094.021.018.054.027.1.026h.61c.056.001.093-.007.111-.024.019-.017.028-.049.026-.096v-3.138h1.033c.037 0 .066-.01.084-.029.02-.02.03-.048.03-.085zM3.626 30h1.438c.194-.001.374-.032.539-.094.165-.062.31-.149.434-.261a1.201 1.201 0 0 0 .395-.9 2.002 2.002 0 0 0-.013-.23 1.374 1.374 0 0 0-.061-.277 1.016 1.016 0 0 0-.396-.534 1.3 1.3 0 0 0-.4-.18 2.208 2.208 0 0 0-.579-.069h-.832v-.713h1.723c.042.001.069-.007.084-.022.013-.016.02-.045.019-.087v-.508c.001-.048-.006-.081-.019-.099-.014-.018-.042-.027-.084-.026H3.649a.483.483 0 0 0-.216.041.238.238 0 0 0-.115.127.556.556 0 0 0-.034.22v3.269a.553.553 0 0 0 .027.198c.019.05.053.087.103.11.049.023.12.035.212.035zm6.781-3.618l-.052.867c-.017.296-.036.551-.056.77-.032.361-.068 1.227-.536 1.227-.047 0-.078.008-.093.026-.015.019-.021.056-.021.111v.485c0 .046.007.079.023.1.017.021.048.032.092.032.362 0 .68-.029.952-.441.084-.126.157-.268.209-.429.053-.161.095-.341.126-.54a9.34 9.34 0 0 0 .075-.657c.019-.239.038-.498.057-.78l.023-.399h1.113v3.138c0 .042.008.069.025.084.018.014.048.02.089.019h.633a.297.297 0 0 0 .079-.008c.018-.006.029-.016.034-.03a.22.22 0 0 0 .007-.065v-3.509a.567.567 0 0 0-.033-.213.247.247 0 0 0-.115-.127.478.478 0 0 0-.217-.043h-2.048a.486.486 0 0 0-.212.039.236.236 0 0 0-.111.125.662.662 0 0 0-.043.218z"/></svg>