<svg xmlns="http://www.w3.org/2000/svg" width="36" height="36" version="1" viewBox="0 0 36 36"><path fill="#0B1F35" d="M8.653 16.471H7.321a.283.283 0 0 0-.282.283v5.371c0 .156.127.283.282.283h5.725l-.927.927c-.11.11-.11.29 0 .4l3.798 3.798c.11.11.29.11.4 0l4.021-4.02v1.313c0 .156.127.283.283.283h5.371a.283.283 0 0 0 .283-.283v-5.743l.956.956c.11.11.29.11.4 0l3.798-3.798c.11-.11.11-.29 0-.4l-5.713-5.713 1.633 1.633h1.341a.283.283 0 0 0 .283-.282V6.106a.283.283 0 0 0-.283-.283h-5.721l.929-.929c.11-.11.11-.29 0-.4L20.1.696a.284.284 0 0 0-.4 0l-4.052 4.052.014-.014V3.399a.283.283 0 0 0-.283-.282h-5.371a.284.284 0 0 0-.283.282v5.747l-.954-.952a.284.284 0 0 0-.4 0l-3.798 3.798c-.11.11-.11.29 0 .4l4.08 4.079zm6.724-4.711a.283.283 0 0 0 .283-.283V8.913L13.986 6.81l3.798 3.798c.11.11.29.11.4 0L20.05 8.74l.276-2.634v5.371c0 .155.127.282.283.282h2.674l2.032-1.633-3.798 3.798c-.11.11-.11.29 0 .4l1.862 1.862 2.612.276H20.62a.283.283 0 0 0-.283.283v2.522l1.692 2.152-3.798-3.798a.284.284 0 0 0-.4 0l-1.812 1.812-.337 2.691v-5.371a.283.283 0 0 0-.283-.283h-2.713l-2.001 1.633 3.798-3.798c.11-.11.11-.29 0-.4l-1.901-1.902-2.577-.245h5.372zM8.488 32.151a.309.309 0 0 1 .14-.157.588.588 0 0 1 .285-.059h1.812c.052.001.088-.011.108-.034.019-.022.028-.064.027-.124v-.606c.001-.066-.007-.112-.025-.136-.018-.024-.055-.036-.111-.035H8.678c-.24.001-.443.038-.611.111a1.06 1.06 0 0 0-.406.295 1.21 1.21 0 0 0-.225.422 1.64 1.64 0 0 0-.07.492v2.368a1.87 1.87 0 0 0 .058.479c.039.154.108.295.206.421a.987.987 0 0 0 .404.298c.171.075.389.112.651.114h2.111c.056 0 .094-.013.114-.039.02-.026.03-.068.028-.125v-.606c.001-.069-.007-.115-.026-.139-.019-.023-.057-.033-.117-.032H8.913a.716.716 0 0 1-.257-.037.283.283 0 0 1-.155-.131.552.552 0 0 1-.052-.26v-.813h2.047c.056 0 .093-.013.11-.039.018-.026.026-.068.025-.125v-.556c.001-.066-.007-.112-.025-.137-.018-.024-.055-.036-.11-.034H8.45v-.549a.594.594 0 0 1 .038-.227zm19.56-1.034a2.044 2.044 0 0 0-.697-.117h-1.747a.54.54 0 0 0-.263.054.292.292 0 0 0-.131.151.62.62 0 0 0-.034.23v4.415c0 .056.013.095.039.118.026.023.068.033.125.032h.749a.498.498 0 0 0 .108-.008.07.07 0 0 0 .05-.043.274.274 0 0 0 .013-.099v-1.662h.949c.266-.001.497-.031.692-.087a1.63 1.63 0 0 0 .491-.227 1.403 1.403 0 0 0 .516-.675 1.789 1.789 0 0 0 .113-.637c0-.227-.039-.436-.115-.627a1.403 1.403 0 0 0-.332-.494 1.525 1.525 0 0 0-.526-.324zm-.223 1.86a.568.568 0 0 1-.233.243.819.819 0 0 1-.398.092h-.934v-1.355h.927a.824.824 0 0 1 .355.069.563.563 0 0 1 .217.171.672.672 0 0 1 .111.22c.02.078.031.15.03.218 0 .126-.025.24-.075.342zm1.285-1.947c-.019.02-.028.06-.027.12v.635c0 .046.011.082.033.106.021.024.056.037.102.037h1.262v3.922c0 .056.013.095.039.118.026.023.068.033.125.032h.763c.07.001.116-.008.139-.029.024-.021.034-.061.032-.12v-3.922h1.291a.145.145 0 0 0 .106-.037c.025-.024.037-.06.037-.106v-.636c.001-.059-.008-.1-.029-.12-.02-.022-.058-.031-.114-.03h-3.652c-.051-.001-.086.009-.107.03zm-10.858 2.784a.576.576 0 0 1 .285.178c.075.087.138.212.187.375l.435 1.533c.015.045.037.073.063.084a.165.165 0 0 0 .08.015h.828c.039-.001.068-.009.084-.026s.025-.036.026-.057a.16.16 0 0 0-.011-.06l-.442-1.654a2.89 2.89 0 0 0-.09-.291 1.01 1.01 0 0 0-.126-.237.81.81 0 0 0-.197-.189 1.313 1.313 0 0 0-.307-.146v-.036c.153-.093.282-.214.383-.363.102-.148.177-.325.223-.527L20 31.142a.154.154 0 0 0 .011-.058.082.082 0 0 0-.026-.057c-.017-.017-.045-.025-.085-.027h-.799a.207.207 0 0 0-.082.015c-.029.011-.049.039-.061.085l-.321 1.201a1.016 1.016 0 0 1-.152.348.636.636 0 0 1-.211.193.747.747 0 0 1-.233.082 1.374 1.374 0 0 1-.225.017h-.571V31.13c.011-.052.006-.085-.014-.098-.02-.013-.054-.019-.1-.016h-.834a.163.163 0 0 0-.096.016c-.021.013-.032.045-.032.098v4.757c0 .051.011.084.032.097a.174.174 0 0 0 .096.017h.827c.046.003.078-.003.099-.017.02-.013.03-.046.03-.097l-.007-2.118h.585c.166-.004.307.011.421.045zm-3.789 2.155c.022.017.059.025.112.024h.792a.389.389 0 0 0 .099-.01.062.062 0 0 0 .043-.038.255.255 0 0 0 .008-.081v-4.386a.684.684 0 0 0-.042-.266.307.307 0 0 0-.144-.159.596.596 0 0 0-.271-.053H12.5a.596.596 0 0 0-.265.049.293.293 0 0 0-.139.156.854.854 0 0 0-.052.273l-.064 1.084c-.021.37-.045.689-.07.963-.04.451-.085 1.533-.669 1.533-.059 0-.098.009-.117.032-.019.023-.026.07-.026.139v.606c0 .057.008.099.028.125.02.026.058.039.114.039.453 0 .849-.036 1.19-.551.105-.158.196-.335.262-.536.067-.201.119-.427.157-.675.038-.248.069-.522.094-.821.024-.298.047-.623.071-.975l.028-.499h1.391v3.922c-.001.052.009.087.03.105zm8.8-4.834a.317.317 0 0 0-.171-.111A1.029 1.029 0 0 0 22.83 31h-.428a.74.74 0 0 0-.241.032.345.345 0 0 0-.167.119.726.726 0 0 0-.113.24l-1.484 4.465a.143.143 0 0 0 .002.101c.013.026.045.04.097.041h.835c.065 0 .113-.01.14-.033a.186.186 0 0 0 .06-.102l.278-.906h1.633l.278.927c.014.051.039.084.074.097.036.013.08.019.133.017h.849c.036-.001.061-.008.076-.025a.082.082 0 0 0 .026-.056.15.15 0 0 0-.01-.062l-1.483-4.465a.776.776 0 0 0-.122-.255zm-1.195 2.939l.271-.903.271-1.018h.043l.264 1.018.271.903h-1.12zM3.301 35.957a.648.648 0 0 0 .266.043h1.797c.243-.001.467-.04.674-.117.207-.077.388-.187.543-.327.155-.141.276-.307.363-.497.087-.191.131-.401.132-.627a2.438 2.438 0 0 0-.017-.288 1.76 1.76 0 0 0-.076-.346 1.272 1.272 0 0 0-.495-.668 1.607 1.607 0 0 0-.5-.225 2.8 2.8 0 0 0-.724-.086H4.223v-.891h2.154c.052.001.087-.008.105-.027.017-.02.025-.056.024-.108v-.635c.001-.059-.007-.101-.024-.124-.018-.024-.053-.035-.105-.034H3.595a.601.601 0 0 0-.27.051.295.295 0 0 0-.144.159.7.7 0 0 0-.043.275v4.086a.687.687 0 0 0 .034.247c.024.064.067.11.129.139zm.922-2.233h1.041c.15.001.276.03.377.086a.565.565 0 0 1 .231.231.765.765 0 0 1 .045.553.657.657 0 0 1-.111.221.57.57 0 0 1-.213.169.769.769 0 0 1-.336.068H4.223v-1.328z"/></svg>