<svg width="48" height="48" viewBox="0 0 48 48" xmlns="http://www.w3.org/2000/svg"><g fill="none" fill-rule="evenodd"><path d="M0 0h48v48H0z"/><path d="M12.93 26.794h-1.578a.335.335 0 0 0-.334.335v6.365c0 .185.151.335.334.335h6.78l-1.098 1.098a.336.336 0 0 0 0 .474l4.499 4.5c.13.132.343.132.474 0l4.761-4.764v1.556c0 .185.151.335.334.335h6.36a.335.335 0 0 0 .335-.335v-6.805l1.133 1.133c.13.131.343.131.473 0l4.499-4.502a.336.336 0 0 0 0-.474l-6.766-6.771 1.934 1.936h1.588a.335.335 0 0 0 .334-.335V14.51a.335.335 0 0 0-.334-.334h-6.776l1.1-1.102a.338.338 0 0 0 0-.474l-4.499-4.502a.335.335 0 0 0-.474 0l-4.805 4.81.023-.024V11.3a.336.336 0 0 0-.334-.335h-6.362a.335.335 0 0 0-.334.335v6.812l-1.128-1.128a.335.335 0 0 0-.474 0l-4.497 4.501a.336.336 0 0 0 0 .474l4.832 4.835zm7.963-5.582a.335.335 0 0 0 .334-.335v-3.04l-1.982-2.495 4.498 4.5c.131.132.343.132.474 0l2.211-2.212.327-3.121v6.365c0 .183.151.335.334.335h3.168l2.405-1.936-4.498 4.502a.336.336 0 0 0 0 .474l2.204 2.208 3.093.327h-6.36a.335.335 0 0 0-.334.335v2.989l2.004 2.55-4.498-4.502a.335.335 0 0 0-.474 0l-2.146 2.147-.4 3.19v-6.366a.335.335 0 0 0-.334-.334h-3.212l-2.37 1.936 4.5-4.502a.336.336 0 0 0 0-.474L17.584 21.5l-3.05-.291h6.358v.003z" fill-opacity=".9" fill="#0B1F35"/></g></svg>