<?xml version="1.0" encoding="UTF-8"?>
<svg width="36px" height="36px" viewBox="0 0 36 36" version="1.1" xmlns="http://www.w3.org/2000/svg" xmlns:xlink="http://www.w3.org/1999/xlink">
    <!-- Generator: Sketch 48.2 (47327) - http://www.bohemiancoding.com/sketch -->
    <title>icon_card-belkart_xl_white</title>
    <desc>Created with Sketch.</desc>
    <defs></defs>
    <g id="card" stroke="none" stroke-width="1" fill="none" fill-rule="evenodd" transform="translate(-169.000000, -22.000000)">
        <g id="icon_card-belkart_xl_white" transform="translate(171.152736, 22.040201)" fill="#FFFFFF" fill-rule="nonzero">
            <path d="M5.62132177,16.386943 L4.29828945,16.386943 C4.14445985,16.386943 4.01975633,16.5116465 4.01975633,16.6654761 L4.01975633,22.0073435 C4.01975633,22.1611731 4.14445985,22.2858766 4.29828945,22.2858766 L9.94853277,22.2858766 L9.0234049,23.2110045 C8.9699356,23.2633935 8.93980436,23.3350997 8.93980436,23.4099567 C8.93980436,23.4848138 8.9699356,23.55652 9.0234049,23.608909 L12.8034973,27.3890013 C12.8558863,27.4424706 12.9275925,27.4726019 13.0024495,27.4726019 C13.0773065,27.4726019 13.1490127,27.4424706 13.2014017,27.3890013 L17.1804463,23.4099567 L17.1804463,24.7130938 C17.1804463,24.8669234 17.3051498,24.991627 17.4589794,24.991627 L22.8804277,24.991627 C22.9542993,24.991627 23.0251453,24.9622816 23.0773803,24.9100465 C23.1296154,24.8578114 23.1589608,24.7869654 23.1589608,24.7130938 L23.1589608,18.9832696 L24.153722,19.9780308 C24.206111,20.0315001 24.2778172,20.0616313 24.3526742,20.0616313 C24.4275312,20.0616313 24.4992374,20.0315001 24.5516264,19.9780308 L28.3317188,16.1979384 C28.3851881,16.1455494 28.4153193,16.0738432 28.4153193,15.9989862 C28.4153193,15.9241292 28.3851881,15.8524229 28.3317188,15.8000339 L22.6516326,10.1199478 L24.2730933,11.7414085 L25.6060732,11.7414085 C25.7599028,11.7414085 25.8846064,11.6167049 25.8846064,11.4628753 L25.8846064,6.08121753 C25.8846064,5.92738794 25.7599028,5.80268441 25.6060732,5.80268441 L19.8961442,5.80268441 L20.8212721,4.87755654 C20.8747414,4.82516754 20.9048727,4.75346134 20.9048727,4.67860431 C20.9048727,4.60374729 20.8747414,4.53204109 20.8212721,4.47965208 L17.0113369,0.699559723 C16.9589479,0.64609042 16.8872417,0.615959179 16.8123847,0.615959179 C16.7375277,0.615959179 16.6658215,0.64609042 16.6134325,0.699559723 L12.5846498,4.72834237 L12.5846498,3.38541482 C12.5846498,3.23158523 12.4599463,3.1068817 12.3061167,3.1068817 L6.96424932,3.1068817 C6.89037775,3.1068817 6.81953176,3.13622707 6.76729667,3.18846216 C6.71506157,3.24069726 6.6857162,3.31154324 6.6857162,3.38541482 L6.6857162,9.10529142 L5.69095505,8.11053027 C5.63856605,8.05706097 5.56685985,8.02692973 5.49200283,8.02692973 C5.4171458,8.02692973 5.3454396,8.05706097 5.2930506,8.11053027 L1.56269629,11.9403607 C1.50922699,11.9927497 1.47909575,12.0644559 1.47909575,12.1393129 C1.47909575,12.2141699 1.50922699,12.2858761 1.56269629,12.3382652 L5.62132177,16.386943 Z M12.3061167,11.701618 C12.4599463,11.701618 12.5846498,11.5769145 12.5846498,11.4230849 L12.5846498,8.86654875 L10.9432939,6.77755034 L14.7233863,10.5576427 C14.7757753,10.611112 14.8474815,10.6412432 14.9223385,10.6412432 C14.9971955,10.6412432 15.0689017,10.611112 15.1212907,10.5576427 L16.9118608,8.69743935 L17.1903939,6.08121753 L17.1903939,11.4230849 C17.1903939,11.5769145 17.3150974,11.701618 17.468927,11.701618 L20.1249393,11.701618 L22.1144616,10.0801573 L18.3343692,13.8602497 C18.2808999,13.9126387 18.2507687,13.9843449 18.2507687,14.0592019 C18.2507687,14.134059 18.2808999,14.2057652 18.3343692,14.2581542 L20.184625,16.1084099 L22.7809516,16.386943 L17.5286127,16.386943 C17.3747831,16.386943 17.2500796,16.5116465 17.2500796,16.6654761 L17.2500796,19.1722742 L18.9013831,21.3110107 L15.1212907,17.5309183 C15.0689017,17.477449 14.9971955,17.4473178 14.9223385,17.4473178 C14.8474815,17.4473178 14.7757753,17.477449 14.7233863,17.5309183 L12.9328162,19.331436 L12.5945974,22.0073435 L12.5945974,16.6654761 C12.5945974,16.5116465 12.4698939,16.386943 12.3160643,16.386943 L9.64015681,16.386943 L7.65063452,18.0084037 L11.4307269,14.2283113 C11.4841962,14.1759223 11.5143274,14.1042161 11.5143274,14.0293591 C11.5143274,13.9545021 11.4841962,13.8827959 11.4307269,13.8304069 L9.53073309,11.9403607 L6.96424932,11.701618 L12.3061167,11.701618 Z M5.46215999,31.9847978 C5.49029884,31.9206934 5.53941267,31.8680714 5.60142655,31.8355836 C5.69094873,31.7914864 5.79023659,31.7709441 5.88990728,31.775898 L7.69042496,31.775898 C7.72510257,31.7920898 7.76517108,31.7920898 7.79984869,31.775898 C7.81274402,31.7371523 7.81274402,31.6952723 7.79984869,31.6565266 L7.79984869,31.0497223 C7.81368939,31.0043318 7.81368939,30.9558463 7.79984869,30.9104558 C7.76517108,30.894264 7.72510257,30.894264 7.69042496,30.9104558 L5.70090267,30.9104558 C5.49330885,30.905427 5.28685971,30.9426555 5.09409837,31.0198795 C4.9359668,31.0848241 4.79599621,31.1872416 4.6862463,31.3183079 C4.58645861,31.4417795 4.51208184,31.5837715 4.46739884,31.7361075 C4.41966121,31.8941266 4.39618277,32.0584757 4.39776556,32.2235405 L4.39776556,34.5811244 C4.3969039,34.742199 4.41696695,34.9027034 4.45745123,35.0586098 C4.49706079,35.2109677 4.56823049,35.3533071 4.66635107,35.4764094 C4.77157582,35.6079744 4.90849029,35.7106602 5.06425553,35.7748378 C5.27037524,35.8539138 5.49018899,35.891113 5.71085028,35.8842615 L7.76005824,35.8842615 C7.79500512,35.899191 7.83453509,35.899191 7.86948197,35.8842615 C7.8823773,35.8455159 7.8823773,35.8036358 7.86948197,35.7648902 L7.86948197,35.1580859 C7.88395372,35.1127916 7.88395372,35.0641136 7.86948197,35.0188193 C7.86948197,35.0188193 7.8097963,35.0188193 7.75011063,35.0188193 L5.87995967,35.0188193 C5.79446137,35.0345145 5.70682008,35.0345145 5.62132177,35.0188193 C5.55375215,34.9975235 5.49683679,34.9512797 5.46215999,34.8895004 C5.42476749,34.808624 5.40769345,34.719839 5.41242193,34.6308625 L5.41242193,33.8251059 L7.40194423,33.8251059 C7.4616299,33.8251059 7.49147273,33.8251059 7.51136796,33.8251059 C7.52242956,33.7860843 7.52242956,33.7447563 7.51136796,33.7057346 L7.51136796,32.9298209 C7.52520866,32.8844304 7.52520866,32.8359449 7.51136796,32.7905544 C7.47669035,32.7743625 7.43662184,32.7743625 7.40194423,32.7905544 L5.41242193,32.7905544 L5.41242193,32.2434357 C5.40919332,32.1545683 5.42620086,32.0661291 5.46215999,31.9847978 Z M24.919688,30.9900367 C24.6965573,30.9090229 24.4607289,30.8685952 24.2233552,30.8706653 L22.4825232,30.8706653 C22.3935189,30.8655251 22.3046347,30.8826183 22.2238853,30.9204034 C22.1645691,30.9533814 22.1187788,31.0062163 22.0945664,31.0696176 C22.0802966,31.1452151 22.0802966,31.2228151 22.0945664,31.2984126 L22.0945664,35.6853093 C22.0779569,35.7233664 22.0779569,35.7666235 22.0945664,35.8046806 C22.1361676,35.8207903 22.1822841,35.8207903 22.2238853,35.8046806 L23.0793799,35.8046806 C23.085574,35.7718112 23.085574,35.738074 23.0793799,35.7052045 L23.0793799,34.0141106 L24.024403,34.0141106 C24.2562065,34.0156466 24.4871343,33.9855256 24.7107882,33.9245821 C24.8848819,33.8760166 25.0496307,33.7986855 25.1982212,33.695787 C25.4354105,33.5324511 25.6161307,33.2996001 25.715497,33.029297 C25.7904827,32.8255278 25.8275674,32.6097622 25.8249207,32.3926499 C25.8289107,32.1786706 25.7917631,31.9659166 25.715497,31.7659504 C25.6419897,31.5819726 25.5300747,31.4157957 25.3872258,31.2785174 C25.2381061,31.1385143 25.0621312,31.030222 24.86995,30.9601938 L24.919688,30.9900367 Z M24.7008406,32.8303448 C24.6499901,32.9308903 24.5703372,33.0140064 24.4720455,33.0690875 C24.3491316,33.1321425 24.2122171,33.1629483 24.0741411,33.158616 L23.1490132,33.158616 L23.1490132,31.8355836 L24.0741411,31.8355836 C24.1939016,31.8329483 24.3127728,31.8567226 24.4223075,31.9052169 C24.5083125,31.9422937 24.5835814,32.000456 24.6411549,32.0743263 C24.6908221,32.1398979 24.7279217,32.2140971 24.7505786,32.2931738 C24.7602894,32.3657998 24.7602894,32.4393952 24.7505786,32.5120212 C24.7567551,32.6204554 24.7398007,32.7289633 24.7008406,32.8303448 Z M25.9741349,30.8408225 C25.9604809,30.8794416 25.9604809,30.9215747 25.9741349,30.9601938 L25.9741349,31.596841 C25.9602783,31.6319995 25.9602783,31.6711061 25.9741349,31.7062647 C26.0059672,31.7195282 26.0417786,31.7195282 26.073611,31.7062647 L27.32701,31.7062647 L27.32701,35.6057284 C27.3104005,35.6437855 27.3104005,35.6870426 27.32701,35.7250997 C27.3686112,35.7412094 27.4147278,35.7412094 27.456329,35.7250997 L28.2123474,35.7250997 C28.2574031,35.7410293 28.3065584,35.7410293 28.351614,35.7250997 C28.3682235,35.6870426 28.3682235,35.6437855 28.351614,35.6057284 L28.351614,31.7659504 L29.6348559,31.7659504 C29.6700144,31.7798069 29.6991734,31.7798069 29.734332,31.7659504 C29.7492615,31.7310035 29.7592091,31.6914735 29.7442796,31.6565266 L29.7442796,31.0198795 C29.7664841,30.9397341 29.7442796,30.9306094 29.734332,30.8408225 L26.0835586,30.8408225 M15.1710288,33.6361013 C15.2793738,33.6672907 15.3762067,33.7295404 15.4495619,33.8151583 C15.5389116,33.9261693 15.6033676,34.0550813 15.6385665,34.1931676 L16.0762614,35.7151521 C16.0847501,35.7485761 16.1062369,35.7772252 16.1359471,35.794733 L17.0411798,35.794733 C17.0669258,35.8038356 17.0950146,35.8038356 17.1207606,35.794733 C17.1275876,35.7754235 17.1275876,35.7543569 17.1207606,35.7350473 C17.1245244,35.7153301 17.1245244,35.6950789 17.1207606,35.6753617 L16.6830657,34.0340058 C16.6582987,33.9363431 16.6284146,33.84005 16.5935372,33.7455251 C16.5615452,33.6604077 16.5180337,33.5800787 16.4642183,33.5067824 C16.4091959,33.4328683 16.3419028,33.3689399 16.2652661,33.3177778 C16.1694882,33.2546861 16.0658005,33.2045147 15.9568901,33.1685636 C16.1071283,33.077697 16.2360504,32.9555603 16.3348993,32.8104496 C16.4408784,32.650313 16.5151688,32.4713406 16.5537468,32.2832262 L16.9118608,30.9800891 C16.9158805,30.9603969 16.9158805,30.9400956 16.9118608,30.9204034 C16.9260766,30.895781 16.9260766,30.8654449 16.9118608,30.8408225 C16.8829699,30.8301628 16.8512232,30.8301628 16.8223323,30.8408225 L15.9170997,30.8408225 C15.8828924,30.8581466 15.8602489,30.892112 15.857414,30.930351 L15.5390904,32.1240644 C15.5121117,32.2486058 15.4614555,32.3668038 15.3898762,32.4722308 C15.3352304,32.5500413 15.2638498,32.6146238 15.1809764,32.6612354 C15.1095559,32.7000491 15.0322724,32.7269303 14.9521813,32.7408163 L14.7233863,32.7408163 L14.1563724,32.7408163 L14.1563724,30.9701414 C14.1563724,30.9204034 14.1563724,30.8905606 14.1563724,30.8706653 C14.1239636,30.8606922 14.0893051,30.8606922 14.0568963,30.8706653 L13.2312446,30.8706653 C13.1989375,30.8600371 13.1640755,30.8600371 13.1317684,30.8706653 C13.1317684,30.8706653 13.1317684,30.8706653 13.1317684,30.9701414 L13.1317684,35.7052045 C13.1317684,35.7549426 13.1317684,35.7847854 13.1317684,35.8046806 L13.2312446,35.8046806 L14.0568963,35.8046806 C14.0892034,35.8153089 14.1240654,35.8153089 14.1563724,35.8046806 C14.1563724,35.8046806 14.1563724,35.8046806 14.1563724,35.7052045 L14.1563724,33.5963109 L14.7432815,33.5963109 C14.8870686,33.5870441 15.0314181,33.600472 15.1710288,33.6361013 Z M11.400884,35.8146282 C11.436465,35.8260463 11.4747268,35.8260463 11.5103078,35.8146282 L12.3956452,35.8146282 C12.3997507,35.7882601 12.3997507,35.7614155 12.3956452,35.7350473 L12.3956452,31.3183079 C12.4135979,31.2296793 12.4135979,31.1383509 12.3956452,31.0497223 C12.3694357,30.9819109 12.3201109,30.9255396 12.2563786,30.8905606 C12.1718986,30.8534423 12.0799627,30.8364171 11.9877931,30.8408225 L9.45115219,30.8408225 C9.36278641,30.820417 9.27093247,30.820417 9.18256668,30.8408225 C9.11766986,30.8743335 9.06789998,30.9312134 9.04330012,30.9999843 C9.01227378,31.0862254 8.99547528,31.1769373 8.99356207,31.2685698 L8.95377162,32.3926499 C8.95377162,32.7607115 8.95377162,33.0790351 8.88413834,33.387411 C8.88413834,33.8350536 8.79460984,34.9093956 8.21764837,34.9093956 C8.1579627,34.9093956 8.11817226,34.9093956 8.09827703,34.9093956 C8.08443633,34.9547861 8.08443633,35.0032716 8.09827703,35.0486622 L8.09827703,35.6554665 C8.08459874,35.6974877 8.08459874,35.7427642 8.09827703,35.7847854 C8.13322391,35.7997149 8.17275388,35.7997149 8.20770076,35.7847854 C8.67546055,35.8504823 9.13841165,35.6365133 9.39146652,35.2376668 C9.50167119,35.0711848 9.58868375,34.8904664 9.65010442,34.7004958 C9.72167009,34.4831649 9.77491005,34.2602225 9.80926621,34.0340058 C9.84905665,33.7886314 9.87889949,33.51673 9.89879471,33.2183016 C9.89879471,32.9198733 9.89879471,32.6015497 9.96842799,32.2235405 L9.96842799,31.7261599 L11.351146,31.7261599 L11.351146,35.6256236 C11.3299918,35.6565897 11.323322,35.6952138 11.332866,35.7314809 C11.34241,35.7677481 11.3672277,35.798086 11.400884,35.8146282 Z M20.1547821,31.0099319 C20.1117424,30.9561143 20.0524007,30.9177167 19.9856727,30.9005082 C19.8998275,30.8892528 19.8128801,30.8892528 19.7270349,30.9005082 L19.2992876,30.9005082 C19.2202368,30.8875172 19.1395956,30.8875172 19.0605449,30.9005082 C18.9933768,30.9222341 18.9343998,30.9638649 18.8914355,31.0198795 C18.8407541,31.0921486 18.8036732,31.1730523 18.7820118,31.2586222 L17.3097653,35.6753617 C17.297519,35.7073897 17.297519,35.7428098 17.3097653,35.7748378 C17.3097653,35.7748378 17.3097653,35.7748378 17.4092414,35.7748378 L18.2348931,35.7748378 C18.2800768,35.7900025 18.328976,35.7900025 18.3741597,35.7748378 C18.4039908,35.7487556 18.4248698,35.7139572 18.4338454,35.6753617 L18.7123785,34.770129 L20.3338392,34.770129 L20.6123723,35.6952569 C20.6176051,35.7379289 20.6437022,35.7752104 20.6820056,35.794733 L20.8113245,35.794733 L21.6568715,35.794733 C21.6822429,35.805806 21.7110809,35.805806 21.7364524,35.794733 C21.7441956,35.7755912 21.7441956,35.7541892 21.7364524,35.7350473 C21.740472,35.7153552 21.740472,35.6950539 21.7364524,35.6753617 L20.2642059,31.2287793 C20.2437666,31.1366287 20.2066848,31.0489807 20.1547821,30.9701414 L20.1547821,31.0099319 Z M18.9710164,33.9345297 L19.2396019,33.0392446 L19.5081874,32.0444835 L19.7668253,33.0392446 L20.0354108,33.9345297 L18.9710164,33.9345297 Z M0.299349634,35.8146282 C0.387891257,35.8334276 0.47939352,35.8334276 0.567935144,35.8146282 L2.35850521,35.8146282 C2.57258091,35.8098816 2.78437408,35.7695401 2.98520473,35.6952569 C3.18354784,35.6210705 3.36587805,35.5096465 3.52237575,35.3669857 C3.8404248,35.0842325 4.02159418,34.6784131 4.01975633,34.2528532 C4.02547582,34.156778 4.02547582,34.0604477 4.01975633,33.9643725 C4.01751513,33.8506077 4.00418862,33.7373324 3.97996588,33.6261537 C3.8941406,33.3542247 3.71884483,33.1193284 3.48258531,32.9596637 C3.33115252,32.8554165 3.16290124,32.7780209 2.98520473,32.7308687 C2.75135578,32.6700869 2.51059199,32.6399914 2.26897671,32.6413402 L1.27421556,32.6413402 L1.27421556,31.7560028 L3.36321397,31.7560028 C3.39816084,31.7709322 3.43769082,31.7709322 3.4726377,31.7560028 C3.48476439,31.7205361 3.48476439,31.6820457 3.4726377,31.646579 L3.4726377,31.0198795 C3.48424839,30.9809361 3.48424839,30.9394516 3.4726377,30.9005082 C3.4383109,30.8828063 3.39754076,30.8828063 3.36321397,30.9005082 L0.597777978,30.9005082 C0.505608368,30.8961028 0.413672509,30.9131279 0.329192468,30.9502462 C0.264295641,30.9837573 0.214525763,31.0406371 0.189925908,31.109408 C0.171167535,31.2013049 0.171167535,31.2960442 0.189925908,31.3879411 L0.189925908,35.4565142 C0.1747831,35.5387195 0.1747831,35.6229993 0.189925908,35.7052045 C0.213239913,35.7528164 0.251737768,35.7913142 0.299349634,35.8146282 Z M1.21452989,33.5963109 L2.20929104,33.5963109 C2.34084712,33.5936185 2.47092692,33.6244269 2.58730027,33.6858394 C2.68452219,33.7377881 2.76414666,33.8174125 2.81609534,33.9146344 C2.88344952,34.0907885 2.88344952,34.285599 2.81609534,34.4617531 C2.79365636,34.5409144 2.75653731,34.6151525 2.70667161,34.6806005 C2.65159761,34.7528976 2.57995171,34.8108967 2.49777177,34.8497099 C2.39180203,34.8983623 2.27612315,34.9221786 2.15955298,34.9193432 L1.16479183,34.9193432 L1.21452989,33.5963109 Z" id="Shape"></path>
        </g>
    </g>
</svg>