<svg xmlns="http://www.w3.org/2000/svg" width="36" height="36" version="1" viewBox="0 0 36 36"><radialGradient id="a" cx="18.355" cy="14.2" r="13.921" gradientTransform="translate(.383 .126) scale(.9984)" gradientUnits="userSpaceOnUse"><stop offset=".193" stop-color="#fff"/><stop offset=".227" stop-color="#f7fcff"/><stop offset=".281" stop-color="#e0f5fd"/><stop offset=".347" stop-color="#bae9fb"/><stop offset=".425" stop-color="#86d9f8"/><stop offset=".51" stop-color="#44c4f4"/><stop offset=".59" stop-color="#00aff0"/><stop offset="1" stop-color="#005f9b"/></radialGradient><path fill="url(#a)" fill-rule="evenodd" d="M31.426 15.849l-5.713-5.713a.284.284 0 0 0-.4 0l-3.798 3.798c-.11.11-.11.29 0 .4l1.862 1.862 2.612.276c.155.016.283.127.283.283v2.336l.956.956c.11.11.29.11.4 0l3.798-3.798a.284.284 0 0 0 0-.4z" clip-rule="evenodd"/><radialGradient id="b" cx="18.355" cy="14.2" r="13.921" gradientTransform="translate(.383 .126) scale(.9984)" gradientUnits="userSpaceOnUse"><stop offset=".193" stop-color="#fff"/><stop offset=".227" stop-color="#f7fcff"/><stop offset=".281" stop-color="#e0f5fd"/><stop offset=".347" stop-color="#bae9fb"/><stop offset=".425" stop-color="#86d9f8"/><stop offset=".51" stop-color="#44c4f4"/><stop offset=".59" stop-color="#00aff0"/><stop offset="1" stop-color="#005f9b"/></radialGradient><path fill="url(#b)" fill-rule="evenodd" d="M26.273 24.833v-8.079a.284.284 0 0 0-.283-.283h-5.37a.283.283 0 0 0-.283.283v2.522l1.692 2.152c.096.122.11.29 0 .4l-1.692 1.692v1.313c0 .156.127.283.283.283h5.371a.283.283 0 0 0 .282-.283z" clip-rule="evenodd"/><radialGradient id="c" cx="18.355" cy="14.2" r="13.921" gradientTransform="translate(.383 .126) scale(.9984)" gradientUnits="userSpaceOnUse"><stop offset=".193" stop-color="#fff"/><stop offset=".227" stop-color="#f7fcff"/><stop offset=".281" stop-color="#e0f5fd"/><stop offset=".347" stop-color="#bae9fb"/><stop offset=".425" stop-color="#86d9f8"/><stop offset=".51" stop-color="#44c4f4"/><stop offset=".59" stop-color="#00aff0"/><stop offset="1" stop-color="#005f9b"/></radialGradient><path fill="url(#c)" fill-rule="evenodd" d="M16.316 27.541l5.713-5.713c.11-.11.11-.29 0-.4l-3.798-3.798a.284.284 0 0 0-.4 0l-1.812 1.812-.337 2.691c-.019.154-.127.283-.283.283h-2.354l-.927.927c-.11.11-.11.29 0 .4l3.798 3.798c.11.11.29.11.4 0z" clip-rule="evenodd"/><radialGradient id="d" cx="18.355" cy="14.2" r="13.921" gradientTransform="translate(.383 .126) scale(.9984)" gradientUnits="userSpaceOnUse"><stop offset=".193" stop-color="#fff"/><stop offset=".227" stop-color="#f7fcff"/><stop offset=".281" stop-color="#e0f5fd"/><stop offset=".347" stop-color="#bae9fb"/><stop offset=".425" stop-color="#86d9f8"/><stop offset=".51" stop-color="#44c4f4"/><stop offset=".59" stop-color="#00aff0"/><stop offset="1" stop-color="#005f9b"/></radialGradient><path fill="url(#d)" fill-rule="evenodd" d="M7.321 22.417H15.4a.283.283 0 0 0 .283-.283v-5.371a.284.284 0 0 0-.283-.283h-2.713l-2.001 1.633c-.12.098-.29.11-.4 0L8.653 16.48H7.321a.283.283 0 0 0-.282.283v5.371a.283.283 0 0 0 .282.283z" clip-rule="evenodd"/><radialGradient id="e" cx="18.355" cy="14.2" r="13.921" gradientTransform="translate(.383 .126) scale(.9984)" gradientUnits="userSpaceOnUse"><stop offset=".193" stop-color="#fff"/><stop offset=".227" stop-color="#f7fcff"/><stop offset=".281" stop-color="#e0f5fd"/><stop offset=".347" stop-color="#bae9fb"/><stop offset=".425" stop-color="#86d9f8"/><stop offset=".51" stop-color="#44c4f4"/><stop offset=".59" stop-color="#00aff0"/><stop offset="1" stop-color="#005f9b"/></radialGradient><path fill="url(#e)" fill-rule="evenodd" d="M9.723 3.408v8.079c0 .156.127.283.283.283h5.371a.283.283 0 0 0 .283-.283V8.922l-1.674-2.103c-.097-.122-.11-.29 0-.4l1.674-1.674V3.408a.283.283 0 0 0-.283-.282h-5.371a.283.283 0 0 0-.283.282z" clip-rule="evenodd"/><radialGradient id="f" cx="18.355" cy="14.2" r="13.921" gradientTransform="translate(.383 .126) scale(.9984)" gradientUnits="userSpaceOnUse"><stop offset=".193" stop-color="#fff"/><stop offset=".227" stop-color="#f7fcff"/><stop offset=".281" stop-color="#e0f5fd"/><stop offset=".347" stop-color="#bae9fb"/><stop offset=".425" stop-color="#86d9f8"/><stop offset=".51" stop-color="#44c4f4"/><stop offset=".59" stop-color="#00aff0"/><stop offset="1" stop-color="#005f9b"/></radialGradient><path fill="url(#f)" fill-rule="evenodd" d="M19.698.706l-5.713 5.713c-.11.11-.11.29 0 .4l3.798 3.798c.11.11.29.11.4 0L20.05 8.75l.276-2.634c.016-.155.127-.283.283-.283h2.358l.929-.929c.11-.11.11-.29 0-.4L20.098.706a.284.284 0 0 0-.4 0z" clip-rule="evenodd"/><radialGradient id="g" cx="18.355" cy="14.2" r="13.921" gradientTransform="translate(.383 .126) scale(.9984)" gradientUnits="userSpaceOnUse"><stop offset=".193" stop-color="#fff"/><stop offset=".227" stop-color="#f7fcff"/><stop offset=".281" stop-color="#e0f5fd"/><stop offset=".347" stop-color="#bae9fb"/><stop offset=".425" stop-color="#86d9f8"/><stop offset=".51" stop-color="#44c4f4"/><stop offset=".59" stop-color="#00aff0"/><stop offset="1" stop-color="#005f9b"/></radialGradient><path fill="url(#g)" fill-rule="evenodd" d="M28.687 5.833h-8.079a.283.283 0 0 0-.283.283v5.371c0 .155.127.282.283.282h2.674l2.032-1.633c.121-.097.29-.11.4 0l1.633 1.633h1.341a.283.283 0 0 0 .283-.282V6.116a.285.285 0 0 0-.284-.283z" clip-rule="evenodd"/><radialGradient id="h" cx="18.355" cy="14.2" r="13.921" gradientTransform="translate(.383 .126) scale(.9984)" gradientUnits="userSpaceOnUse"><stop offset=".193" stop-color="#fff"/><stop offset=".227" stop-color="#f7fcff"/><stop offset=".281" stop-color="#e0f5fd"/><stop offset=".347" stop-color="#bae9fb"/><stop offset=".425" stop-color="#86d9f8"/><stop offset=".51" stop-color="#44c4f4"/><stop offset=".59" stop-color="#00aff0"/><stop offset="1" stop-color="#005f9b"/></radialGradient><path fill="url(#h)" fill-rule="evenodd" d="M4.574 12.401l5.713 5.713c.11.11.29.11.4 0l3.798-3.798c.11-.11.11-.29 0-.4l-1.901-1.902-2.577-.245c-.155-.015-.283-.127-.283-.283V9.155l-.953-.952a.284.284 0 0 0-.4 0l-3.798 3.798a.285.285 0 0 0 .001.4z" clip-rule="evenodd"/><path fill="#005388" fill-rule="evenodd" d="M26.273 16.754v2.336l.956.956-.956-3.292zm-.559-6.618l1.633 1.633h1.341l-2.974-1.633zm-5.106-4.303h2.358l.929-.929-3.287.929zm-6.676.66l1.728-1.749V3.408l-1.728 3.085zm-4.208 4.994V9.155l-.953-.952.953 3.284zm.562 6.627L8.653 16.48H7.321l2.965 1.634zm5.114 4.303h-2.354l-.927.927 3.281-.927zm6.605-.565l-1.669 1.669v1.313l1.669-2.982z" clip-rule="evenodd"/><path fill="#005D99" d="M5.949 34.374a.765.765 0 0 1-.032.22.657.657 0 0 1-.111.221.57.57 0 0 1-.213.169.769.769 0 0 1-.336.068H4.223v-1.327h1.041c.15.001.276.03.377.086a.565.565 0 0 1 .231.231.698.698 0 0 1 .077.332zm4.99 1.462v-.606c.001-.069-.007-.115-.026-.139-.019-.023-.057-.033-.117-.032H8.913a.716.716 0 0 1-.257-.037.283.283 0 0 1-.155-.131.552.552 0 0 1-.052-.26v-.813h2.047c.056 0 .093-.013.111-.039.018-.026.026-.068.025-.125v-.556c.001-.067-.007-.112-.025-.137-.018-.024-.055-.036-.111-.034H8.45v-.549a.596.596 0 0 1 .038-.226.305.305 0 0 1 .14-.157.588.588 0 0 1 .285-.059h1.812c.052.001.088-.011.108-.034.019-.022.028-.064.027-.124v-.606c.001-.066-.007-.112-.025-.136-.018-.024-.055-.036-.111-.035H8.678c-.24.001-.443.038-.611.111a1.071 1.071 0 0 0-.407.295 1.21 1.21 0 0 0-.225.422 1.64 1.64 0 0 0-.07.492v2.368a1.87 1.87 0 0 0 .058.479c.039.154.108.295.206.421a.987.987 0 0 0 .404.298c.171.075.389.112.651.114h2.111c.056 0 .094-.013.114-.039.022-.028.031-.069.03-.126zm8.127-2.497v-.036c.153-.093.282-.214.383-.363.102-.148.177-.325.223-.527L20 31.142a.154.154 0 0 0 .011-.058.082.082 0 0 0-.026-.057c-.017-.017-.045-.025-.085-.027h-.799a.207.207 0 0 0-.082.015c-.029.011-.049.039-.061.084l-.321 1.201a1.016 1.016 0 0 1-.152.348.636.636 0 0 1-.211.193.747.747 0 0 1-.233.082 1.374 1.374 0 0 1-.225.017h-.571v-1.811c.011-.052.006-.085-.014-.098-.02-.013-.054-.019-.1-.016h-.834a.171.171 0 0 0-.096.016c-.021.013-.032.045-.032.098v4.757c0 .051.011.084.032.097a.174.174 0 0 0 .096.017h.827c.046.003.078-.003.099-.017.02-.013.03-.046.03-.097l-.007-2.118h.585c.165-.002.306.013.42.046a.583.583 0 0 1 .285.178c.075.087.138.212.187.375l.435 1.533c.015.045.037.073.063.084a.165.165 0 0 0 .08.015h.827c.039-.001.068-.009.084-.026a.084.084 0 0 0 .026-.057.151.151 0 0 0-.011-.059l-.442-1.655a2.89 2.89 0 0 0-.09-.291 1.01 1.01 0 0 0-.126-.237.81.81 0 0 0-.197-.189 1.325 1.325 0 0 0-.306-.146zm3.002.735l.271-.903.271-1.018h.043l.264 1.018.271.903h-1.12zm1.376.884l.278.927c.014.051.039.084.074.097.036.013.08.019.133.017h.849c.036-.001.061-.008.076-.025a.082.082 0 0 0 .026-.056.15.15 0 0 0-.01-.062l-1.483-4.465a.82.82 0 0 0-.124-.257.317.317 0 0 0-.171-.111 1.029 1.029 0 0 0-.262-.024h-.428a.74.74 0 0 0-.241.032.338.338 0 0 0-.166.119.726.726 0 0 0-.113.24l-1.484 4.465a.138.138 0 0 0 .002.101c.013.026.045.04.097.041h.835c.065 0 .113-.011.14-.033a.186.186 0 0 0 .06-.102l.278-.906h1.634v.002zm4.456-2.325a.768.768 0 0 1-.075.343.568.568 0 0 1-.233.243.819.819 0 0 1-.398.092h-.934v-1.355h.927a.824.824 0 0 1 .355.069.563.563 0 0 1 .217.171.672.672 0 0 1 .111.22c.021.077.031.15.03.217zm-1.64 3.217v-1.662h.949c.266-.001.497-.031.692-.087a1.63 1.63 0 0 0 .491-.227 1.403 1.403 0 0 0 .516-.675 1.789 1.789 0 0 0 .113-.637c0-.227-.039-.436-.115-.627a1.403 1.403 0 0 0-.332-.494 1.528 1.528 0 0 0-.525-.325 2.044 2.044 0 0 0-.697-.117h-1.747a.54.54 0 0 0-.263.054.292.292 0 0 0-.131.151.62.62 0 0 0-.034.23v4.415c0 .056.013.095.039.118.026.023.068.033.125.032h.749a.498.498 0 0 0 .108-.008.07.07 0 0 0 .05-.043.296.296 0 0 0 .012-.098zm6.753-4.065v-.635c.001-.059-.008-.1-.029-.12-.02-.022-.058-.031-.114-.03h-3.652c-.052-.001-.088.008-.108.03-.019.02-.028.06-.027.12v.635c0 .046.011.082.033.106.021.024.056.037.102.037h1.262v3.922c0 .056.013.095.039.118.026.023.068.033.125.032h.763c.07.001.116-.008.139-.029.024-.021.034-.061.032-.12v-3.922h1.291a.145.145 0 0 0 .106-.037c.026-.025.038-.061.038-.107zM3.567 35.999h1.797c.243-.001.467-.04.674-.118.207-.077.388-.187.543-.327.155-.141.276-.307.363-.497.087-.191.131-.401.132-.627a2.438 2.438 0 0 0-.017-.288 1.76 1.76 0 0 0-.076-.346 1.272 1.272 0 0 0-.495-.668 1.607 1.607 0 0 0-.5-.225 2.8 2.8 0 0 0-.724-.086H4.223v-.891h2.154c.052.001.087-.008.105-.027.017-.02.025-.056.024-.108v-.635c.001-.059-.007-.101-.024-.124-.018-.022-.053-.033-.105-.032H3.595a.601.601 0 0 0-.27.051.295.295 0 0 0-.144.159.7.7 0 0 0-.043.275v4.086a.687.687 0 0 0 .034.247.241.241 0 0 0 .128.138.654.654 0 0 0 .267.043zm8.476-4.521l-.064 1.084c-.021.37-.045.689-.07.963-.04.451-.085 1.533-.669 1.533-.059 0-.098.009-.117.032-.019.023-.026.07-.026.139v.606c0 .057.008.099.028.125.02.026.058.039.114.039.453 0 .849-.036 1.19-.551.105-.158.196-.335.262-.536s.119-.427.157-.675c.038-.248.069-.522.094-.821.024-.298.048-.623.071-.975l.028-.499h1.391v3.922c0 .052.01.087.031.104.022.017.059.025.112.024h.792a.389.389 0 0 0 .099-.01.062.062 0 0 0 .043-.038.255.255 0 0 0 .008-.081v-4.386a.684.684 0 0 0-.042-.266.307.307 0 0 0-.144-.159.61.61 0 0 0-.271-.052H12.5a.596.596 0 0 0-.265.049.289.289 0 0 0-.139.156.846.846 0 0 0-.053.273z"/></svg>