<svg xmlns="http://www.w3.org/2000/svg" width="24" height="24" version="1" viewBox="0 0 24 24"><path fill="#0B1F35" d="M5.769 11.071h-.888a.188.188 0 0 0-.188.188v3.581c0 .104.085.188.188.188h3.816l-.618.618a.189.189 0 0 0 0 .266l2.532 2.532a.189.189 0 0 0 .266 0l2.68-2.68v.875c0 .104.085.188.188.188h3.581a.188.188 0 0 0 .188-.188V12.81l.637.637a.189.189 0 0 0 .266 0l2.532-2.532a.189.189 0 0 0 0-.266l-3.808-3.808L18.23 7.93h.894a.188.188 0 0 0 .188-.188V4.161a.19.19 0 0 0-.188-.189H15.31l.619-.619a.19.19 0 0 0 0-.267L13.397.554a.189.189 0 0 0-.266 0l-2.704 2.704.012-.012v-.89a.188.188 0 0 0-.188-.188h-3.58a.188.188 0 0 0-.188.188v3.832l-.635-.635a.19.19 0 0 0-.267 0L3.049 8.085a.189.189 0 0 0 0 .266l2.72 2.72zm4.482-3.14a.188.188 0 0 0 .188-.188v-1.71L9.323 4.63l2.532 2.532a.189.189 0 0 0 .266 0l1.245-1.245.184-1.756v3.581c0 .104.085.188.188.188h1.783l1.354-1.089-2.532 2.532a.189.189 0 0 0 0 .266l1.242 1.242 1.741.184h-3.581a.188.188 0 0 0-.188.188v1.682l1.128 1.435-2.532-2.532a.189.189 0 0 0-.266 0l-1.208 1.208-.225 1.794v-3.58a.188.188 0 0 0-.188-.188H8.458L7.124 12.16l2.532-2.532a.189.189 0 0 0 0-.266L8.388 8.094l-1.717-.163h3.58zm-.191 16.05c.013.01.036.015.067.014h.475a.212.212 0 0 0 .059-.006.038.038 0 0 0 .026-.023.133.133 0 0 0 .005-.049v-2.632a.414.414 0 0 0-.025-.16.188.188 0 0 0-.086-.096.41.41 0 0 0-.163-.029H8.881a.361.361 0 0 0-.159.029.176.176 0 0 0-.083.093.509.509 0 0 0-.031.164l-.039.65c-.013.222-.027.414-.042.578-.024.271-.051.92-.402.92-.036 0-.059.006-.07.019-.011.014-.016.042-.016.083v.364c0 .034.005.059.017.075.013.017.036.025.069.025.272 0 .51-.022.714-.331.063-.095.118-.201.157-.322.04-.12.071-.256.094-.405.023-.149.041-.313.056-.493.014-.179.029-.374.043-.585l.017-.299h.835v2.353c0 .032.006.052.019.063zM6.475 21.69a.187.187 0 0 1 .084-.094.363.363 0 0 1 .171-.036h1.087c.031.001.053-.006.065-.02.011-.013.017-.038.016-.074v-.364c.001-.04-.004-.067-.015-.082-.011-.013-.033-.02-.066-.02H6.589a.951.951 0 0 0-.367.066.64.64 0 0 0-.244.177.727.727 0 0 0-.135.253.961.961 0 0 0-.042.295v1.421a1.1 1.1 0 0 0 .035.287.673.673 0 0 0 .123.252.593.593 0 0 0 .242.179c.104.046.234.068.392.07H7.86c.034 0 .056-.008.069-.023.012-.016.018-.041.017-.075v-.364c.001-.041-.004-.069-.016-.083-.012-.014-.034-.02-.07-.019H6.73a.411.411 0 0 1-.154-.022.169.169 0 0 1-.093-.079.325.325 0 0 1-.031-.156v-.489H7.68c.034 0 .056-.008.066-.024.011-.016.016-.041.015-.075v-.334c.001-.04-.004-.067-.015-.082-.011-.014-.033-.021-.066-.021H6.452v-.329a.342.342 0 0 1 .023-.135zm5.858.998a.35.35 0 0 1 .171.107.605.605 0 0 1 .112.225l.261.92c.009.027.022.044.038.051a.117.117 0 0 0 .048.009h.497c.023-.001.041-.006.051-.016a.052.052 0 0 0 .016-.034.1.1 0 0 0-.006-.036l-.265-.993a1.744 1.744 0 0 0-.054-.175.617.617 0 0 0-.075-.142.473.473 0 0 0-.118-.113.79.79 0 0 0-.184-.088v-.021a.736.736 0 0 0 .23-.218.923.923 0 0 0 .134-.316l.197-.764a.095.095 0 0 0 .006-.035.05.05 0 0 0-.016-.034c-.01-.01-.027-.015-.051-.016h-.479a.125.125 0 0 0-.049.009c-.017.006-.029.024-.036.051l-.192.72a.627.627 0 0 1-.091.209.39.39 0 0 1-.266.165.811.811 0 0 1-.135.01h-.347v-1.087c.006-.031.004-.051-.008-.059s-.032-.011-.06-.01h-.501a.096.096 0 0 0-.058.01c-.013.008-.019.027-.019.059v2.854c0 .031.006.051.019.058a.096.096 0 0 0 .058.01h.496c.028.002.047-.002.059-.01.012-.008.018-.028.018-.058l-.004-1.27h.351a.885.885 0 0 1 .252.028zm-7.125-1.132c.031.001.052-.005.063-.016.01-.012.015-.033.014-.065v-.381c.001-.036-.004-.061-.014-.074-.011-.014-.032-.02-.063-.02H3.539a.351.351 0 0 0-.162.031.176.176 0 0 0-.086.096.433.433 0 0 0-.026.165v2.452a.41.41 0 0 0 .02.148c.014.038.04.066.077.083a.418.418 0 0 0 .16.025H4.6c.146-.001.28-.024.404-.07.124-.046.233-.112.326-.196a.914.914 0 0 0 .218-.298.917.917 0 0 0 .079-.376 1.422 1.422 0 0 0-.01-.173 1.004 1.004 0 0 0-.046-.208.76.76 0 0 0-.297-.401.992.992 0 0 0-.3-.135 1.615 1.615 0 0 0-.434-.051h-.624v-.535h1.292zm-.668 1.079a.48.48 0 0 1 .226.051.34.34 0 0 1 .138.138.453.453 0 0 1-.039.465.337.337 0 0 1-.128.101.477.477 0 0 1-.202.041h-.619v-.796h.624zm14.308-1.617c-.011.012-.017.036-.016.072v.381c0 .028.006.049.02.064.013.014.033.022.061.022h.757v2.353c0 .033.008.057.024.071.015.013.04.019.075.019h.458c.042.001.07-.005.083-.018.014-.013.021-.036.019-.072v-2.353h.775c.028 0 .049-.008.063-.022.015-.014.022-.036.022-.064v-.381c.001-.036-.005-.06-.017-.072-.012-.013-.035-.018-.068-.018h-2.191c-.031 0-.053.005-.065.018zm-.638.052a1.213 1.213 0 0 0-.418-.07h-1.048a.336.336 0 0 0-.158.032.171.171 0 0 0-.079.091.409.409 0 0 0-.021.138v2.649c0 .033.008.057.024.071.016.013.042.019.076.019h.449c.029 0 .05-.001.065-.005a.042.042 0 0 0 .03-.026.152.152 0 0 0 .008-.059v-.997h.569c.16-.001.298-.019.415-.052a.965.965 0 0 0 .294-.136.841.841 0 0 0 .31-.405 1.131 1.131 0 0 0 .068-.382c0-.136-.024-.262-.069-.376a.844.844 0 0 0-.199-.297.897.897 0 0 0-.316-.195zm-.133 1.116a.345.345 0 0 1-.14.146.483.483 0 0 1-.239.055h-.561v-.813h.556a.502.502 0 0 1 .213.041.331.331 0 0 1 .13.103.381.381 0 0 1 .066.132c.012.047.019.09.018.13a.435.435 0 0 1-.043.206zm-2.737-1.105a.182.182 0 0 0-.103-.066.627.627 0 0 0-.157-.015h-.257a.472.472 0 0 0-.145.019.208.208 0 0 0-.1.071.44.44 0 0 0-.068.144l-.89 2.679a.09.09 0 0 0 .001.061c.009.016.029.025.06.026h.501c.039 0 .068-.006.084-.02a.11.11 0 0 0 .036-.061l.167-.544h.98l.167.556c.009.031.023.051.044.058a.193.193 0 0 0 .08.01h.509c.021-.001.036-.005.046-.015a.052.052 0 0 0 .016-.034.078.078 0 0 0-.006-.037l-.89-2.679a.517.517 0 0 0-.075-.153zm-.718 1.763l.163-.542.163-.611h.026l.158.611.163.542h-.673z"/></svg>