<svg xmlns="http://www.w3.org/2000/svg" width="18" height="18" version="1" viewBox="0 0 18 18"><path fill="#0B1F35" d="M4.751 7.544h-.592a.127.127 0 0 0-.126.126v2.387c0 .069.057.126.126.126h2.544l-.412.412a.126.126 0 0 0 0 .178l1.688 1.688a.126.126 0 0 0 .178 0l1.787-1.787v.583c0 .069.057.126.126.126h2.387a.127.127 0 0 0 .126-.126V8.704l.425.425a.126.126 0 0 0 .178 0l1.688-1.688a.126.126 0 0 0 0-.178l-2.539-2.539.726.726h.596a.127.127 0 0 0 .126-.126V2.937a.127.127 0 0 0-.126-.126h-2.543l.413-.413a.126.126 0 0 0 0-.178L9.838.533a.126.126 0 0 0-.178 0L7.855 2.338l.01-.01v-.594a.126.126 0 0 0-.126-.126H5.352a.127.127 0 0 0-.126.126v2.554l-.422-.423a.126.126 0 0 0-.178 0L2.938 5.553a.126.126 0 0 0 0 .178l1.813 1.813zM7.74 5.45a.126.126 0 0 0 .126-.126v-1.14l-.745-.934 1.688 1.688a.126.126 0 0 0 .178 0l.83-.83.123-1.171v2.387c0 .069.057.126.126.126h1.188l.903-.726-1.688 1.688a.126.126 0 0 0 0 .178l.828.828 1.161.123H10.07a.125.125 0 0 0-.126.125v1.121l.752.956-1.688-1.688a.126.126 0 0 0-.178 0l-.805.805-.15 1.196V7.669a.127.127 0 0 0-.126-.126H6.544l-.889.727 1.688-1.688a.126.126 0 0 0 0-.178l-.845-.845-1.146-.109H7.74zM4.339 16.075a.151.151 0 0 1 .07-.078.293.293 0 0 1 .143-.03h.906c.026 0 .044-.005.054-.017.01-.011.014-.032.014-.062v-.303c.001-.033-.004-.056-.012-.068-.01-.012-.029-.017-.057-.017H4.434a.784.784 0 0 0-.305.055.535.535 0 0 0-.315.358.8.8 0 0 0-.035.246v1.184a.917.917 0 0 0 .029.24.506.506 0 0 0 .305.359.81.81 0 0 0 .324.058h1.055c.028 0 .047-.006.057-.02.01-.013.015-.034.014-.062v-.303c.001-.035-.004-.058-.013-.07-.01-.011-.029-.017-.058-.016h-.941a.347.347 0 0 1-.128-.018.142.142 0 0 1-.077-.065.275.275 0 0 1-.026-.13v-.407h1.023c.028 0 .046-.006.055-.02s.013-.034.012-.062v-.278c.001-.033-.004-.056-.012-.068-.009-.012-.027-.018-.055-.017H4.32v-.275a.294.294 0 0 1 .019-.114zm4.882.832a.293.293 0 0 1 .143.089.51.51 0 0 1 .093.187l.218.767c.008.023.018.036.031.042a.09.09 0 0 0 .039.008h.414c.02-.001.034-.005.042-.013a.046.046 0 0 0 .013-.029.094.094 0 0 0-.005-.03l-.221-.827a1.704 1.704 0 0 0-.045-.146.492.492 0 0 0-.063-.118.372.372 0 0 0-.099-.094.662.662 0 0 0-.153-.073v-.018a.6.6 0 0 0 .191-.181.755.755 0 0 0 .112-.263l.164-.636a.065.065 0 0 0 .005-.029.046.046 0 0 0-.013-.029c-.008-.008-.023-.012-.042-.013h-.4a.103.103 0 0 0-.041.008c-.014.005-.024.02-.03.042l-.16.6a.523.523 0 0 1-.076.174.314.314 0 0 1-.105.096.372.372 0 0 1-.117.041.635.635 0 0 1-.112.008h-.286v-.906c.005-.026.003-.042-.007-.049a.085.085 0 0 0-.05-.008h-.417a.092.092 0 0 0-.048.008c-.011.007-.016.023-.016.049v2.378c0 .026.005.042.016.049.011.007.027.01.048.008h.414a.09.09 0 0 0 .049-.008c.01-.006.015-.023.015-.049l-.004-1.059h.292a.72.72 0 0 1 .211.024zm2.505-1.34a.159.159 0 0 0-.086-.055.536.536 0 0 0-.131-.012h-.214a.39.39 0 0 0-.121.016.175.175 0 0 0-.083.059.344.344 0 0 0-.056.12l-.742 2.233a.073.073 0 0 0 .001.051c.007.013.023.02.049.021h.417c.033 0 .056-.005.07-.017a.092.092 0 0 0 .03-.051l.14-.453h.817l.139.464c.007.026.02.042.037.049.018.007.04.01.067.008h.424c.018-.001.03-.004.038-.012a.039.039 0 0 0 .013-.028.065.065 0 0 0-.005-.031l-.742-2.233a.408.408 0 0 0-.062-.129zm2.393-.009a1.025 1.025 0 0 0-.349-.058h-.874c-.056 0-.1.01-.131.027a.142.142 0 0 0-.065.076.313.313 0 0 0-.017.115v2.207c0 .028.007.048.02.059.012.011.033.016.062.016h.374a.246.246 0 0 0 .054-.004c.012-.004.021-.011.025-.021a.124.124 0 0 0 .007-.049v-.831h.474c.133-.001.248-.015.346-.043a.806.806 0 0 0 .245-.113.663.663 0 0 0 .162-.159.76.76 0 0 0 .141-.353.876.876 0 0 0-.047-.457.723.723 0 0 0-.427-.412zm.531-.043c-.01.01-.014.03-.014.06v.317c0 .023.005.041.017.053.011.012.028.018.051.018h.631v1.961c0 .028.007.048.02.059.013.012.034.017.062.017h.382c.035.001.058-.004.07-.015.012-.011.017-.03.016-.06v-1.961h.645a.077.077 0 0 0 .053-.018c.013-.012.018-.03.018-.053v-.317c.001-.03-.004-.05-.014-.06-.01-.011-.029-.015-.057-.015h-1.826c-.026-.001-.044.003-.054.014zM1.745 17.978a.313.313 0 0 0 .133.022h.899a.97.97 0 0 0 .337-.059.857.857 0 0 0 .272-.163.763.763 0 0 0 .181-.248.774.774 0 0 0 .066-.314 1.111 1.111 0 0 0-.008-.144.845.845 0 0 0-.038-.173.642.642 0 0 0-.247-.334.803.803 0 0 0-.25-.112 1.397 1.397 0 0 0-.362-.043h-.522v-.446h1.077c.026.001.043-.004.052-.014.008-.01.013-.028.012-.054v-.317c.001-.03-.004-.051-.012-.062-.009-.012-.026-.017-.052-.017H1.892a.287.287 0 0 0-.135.026.145.145 0 0 0-.072.08.34.34 0 0 0-.021.137v2.043a.36.36 0 0 0 .017.124.119.119 0 0 0 .064.068zm5.581.006c.011.008.03.013.056.012h.396a.182.182 0 0 0 .049-.005c.011-.004.018-.01.021-.019a.114.114 0 0 0 .004-.04v-2.193a.36.36 0 0 0-.021-.133.157.157 0 0 0-.072-.08.295.295 0 0 0-.134-.026h-1.28a.301.301 0 0 0-.133.024.153.153 0 0 0-.07.078.445.445 0 0 0-.026.137l-.032.542c-.011.185-.022.345-.035.481-.02.226-.042.767-.335.767-.03 0-.049.005-.058.016-.009.012-.013.035-.013.07v.303c0 .029.004.049.014.062.01.013.029.02.057.02.227 0 .425-.018.595-.276.052-.079.098-.168.131-.268s.059-.213.078-.338c.019-.124.035-.261.047-.411.012-.149.024-.311.036-.487l.014-.25h.695v1.961c.001.027.006.044.016.053z"/></svg>