<svg xmlns="http://www.w3.org/2000/svg" width="30" height="30" version="1" viewBox="0 0 30 30"><path fill="#0B1F35" d="M7.201 12.913H6.116a.23.23 0 0 0-.23.23v4.376c0 .127.104.23.23.23h4.664l-.755.755a.23.23 0 0 0 0 .326l3.095 3.094c.09.09.236.09.326 0l3.276-3.276v1.07c0 .127.104.23.23.23h4.376a.23.23 0 0 0 .23-.23V15.04l.779.779c.09.09.236.09.326 0l3.095-3.095a.23.23 0 0 0 0-.326l-4.655-4.655 1.331 1.331h1.092a.23.23 0 0 0 .23-.23V4.468a.23.23 0 0 0-.23-.23h-4.662l.757-.757a.232.232 0 0 0 0-.326L16.526.06a.23.23 0 0 0-.326 0l-3.306 3.306.016-.016V2.261a.231.231 0 0 0-.23-.23H8.303a.23.23 0 0 0-.23.23v4.683l-.776-.775a.23.23 0 0 0-.326 0L3.877 9.263a.23.23 0 0 0 0 .326l3.324 3.324zm5.479-3.838a.23.23 0 0 0 .23-.23v-2.09L11.546 5.04l3.095 3.094c.09.09.236.09.326 0l1.521-1.521.225-2.146v4.376c0 .126.104.23.23.23h2.179l1.655-1.331-3.095 3.095a.23.23 0 0 0 0 .326l1.517 1.518 2.128.225h-4.376a.23.23 0 0 0-.23.23v2.055l1.379 1.753-3.095-3.095a.23.23 0 0 0-.326 0l-1.476 1.476-.275 2.193v-4.376a.23.23 0 0 0-.23-.23h-2.21l-1.63 1.331 3.095-3.095a.23.23 0 0 0 0-.326l-1.549-1.549-2.099-.2h4.375zm10.531 17.018a1.614 1.614 0 0 0-.557-.093h-1.398a.43.43 0 0 0-.21.043.23.23 0 0 0-.105.121.535.535 0 0 0-.028.184v3.532c0 .045.01.076.031.094.021.018.054.027.1.026h.599a.393.393 0 0 0 .087-.007.058.058 0 0 0 .04-.034.204.204 0 0 0 .01-.079v-1.33h.759c.213-.001.397-.025.553-.069a1.3 1.3 0 0 0 .393-.182 1.104 1.104 0 0 0 .413-.54 1.454 1.454 0 0 0 .09-.51c0-.182-.031-.349-.092-.501a1.122 1.122 0 0 0-.265-.395 1.208 1.208 0 0 0-.42-.26zm-.178 1.488a.457.457 0 0 1-.186.194.64.64 0 0 1-.318.073h-.747v-1.084h.742c.115.001.21.019.284.055a.456.456 0 0 1 .174.137.51.51 0 0 1 .088.176.655.655 0 0 1-.037.449zm1.028-1.557c-.015.016-.023.048-.022.096v.508c0 .037.008.066.027.085.017.019.045.029.082.029h1.01v3.138c0 .045.01.076.031.094.021.018.054.027.1.026h.611c.056.001.093-.007.111-.024.019-.017.028-.049.026-.096v-3.138h1.033c.037 0 .066-.01.084-.029.02-.019.03-.048.03-.085v-.508c.001-.048-.007-.08-.023-.096-.016-.017-.047-.025-.091-.024h-2.921c-.043-.001-.072.007-.088.024zm-4.677.084a.25.25 0 0 0-.137-.088.831.831 0 0 0-.209-.019h-.342a.578.578 0 0 0-.193.026.272.272 0 0 0-.133.095.563.563 0 0 0-.09.192l-1.187 3.572a.111.111 0 0 0 .002.081c.01.021.036.032.078.033h.668c.052 0 .09-.008.112-.027a.15.15 0 0 0 .048-.082l.223-.725h1.307l.223.742c.011.041.031.068.059.078.028.01.064.015.107.013h.679c.028-.001.048-.007.061-.02a.068.068 0 0 0 .021-.045.118.118 0 0 0-.008-.049l-1.187-3.572a.746.746 0 0 0-.102-.205zm-.957 2.351l.217-.723.217-.814h.034l.211.814.217.723h-.896zM7.563 26.921a.243.243 0 0 1 .112-.125.461.461 0 0 1 .228-.047h1.449c.042.001.07-.009.087-.027.015-.018.023-.051.022-.099v-.485c.001-.053-.006-.089-.02-.109-.014-.02-.043-.03-.088-.029H7.715a1.245 1.245 0 0 0-.489.089.855.855 0 0 0-.325.236.955.955 0 0 0-.18.337 1.322 1.322 0 0 0-.056.394v1.894a1.44 1.44 0 0 0 .047.383.92.92 0 0 0 .164.337c.078.1.185.18.323.239.137.06.311.089.521.091h1.69c.045 0 .075-.01.091-.031.016-.021.024-.054.023-.1v-.485c.001-.055-.006-.092-.021-.111-.015-.018-.046-.027-.093-.026H7.904a.582.582 0 0 1-.205-.029.226.226 0 0 1-.124-.105.43.43 0 0 1-.042-.208v-.651H9.17c.045 0 .074-.01.088-.031.014-.021.021-.054.02-.1v-.445c.001-.053-.006-.089-.02-.109-.014-.019-.044-.028-.088-.028H7.533v-.439a.468.468 0 0 1 .03-.181zm7.811 1.33a.464.464 0 0 1 .228.143c.06.069.11.169.149.3l.349 1.226c.012.036.029.058.05.067.022.01.043.013.064.012h.662c.031-.001.054-.007.067-.021a.07.07 0 0 0 .021-.046.146.146 0 0 0-.008-.048l-.354-1.324a2.24 2.24 0 0 0-.072-.233.775.775 0 0 0-.101-.189.635.635 0 0 0-.158-.151 1.056 1.056 0 0 0-.245-.117v-.028a.974.974 0 0 0 .306-.29c.082-.119.142-.26.179-.421l.262-1.018a.116.116 0 0 0 .009-.047.068.068 0 0 0-.021-.046c-.013-.013-.036-.02-.067-.021h-.639a.16.16 0 0 0-.066.012c-.023.009-.039.031-.048.068l-.257.96a.824.824 0 0 1-.122.279.504.504 0 0 1-.168.154.61.61 0 0 1-.186.066c-.063.01-.123.014-.18.013h-.456v-1.449c.009-.042.005-.068-.011-.078-.016-.01-.043-.015-.08-.013h-.667a.139.139 0 0 0-.077.013c-.017.01-.026.036-.026.078v3.805c0 .041.009.068.026.078.017.01.043.015.077.013h.662c.037.002.063-.003.079-.013.016-.01.024-.037.024-.078l-.006-1.694h.468c.13-.001.242.011.333.038zm-3.031 1.724c.018.014.048.02.089.019h.633a.297.297 0 0 0 .079-.008c.018-.006.029-.016.034-.03a.191.191 0 0 0 .007-.065v-3.509a.548.548 0 0 0-.033-.213.247.247 0 0 0-.115-.127.485.485 0 0 0-.216-.042h-2.048a.486.486 0 0 0-.212.039.236.236 0 0 0-.111.125.692.692 0 0 0-.042.219l-.052.867c-.017.296-.036.551-.056.77-.032.361-.068 1.227-.536 1.227-.047 0-.078.008-.093.026-.015.019-.021.056-.021.111v.485c0 .046.007.079.023.1.016.02.047.031.091.031.362 0 .68-.029.952-.441.084-.126.157-.268.209-.429.053-.161.095-.341.126-.54a9.34 9.34 0 0 0 .075-.657c.019-.239.038-.498.057-.78l.023-.399h1.113v3.138c0 .041.007.069.024.083zm-8.929-.01c.049.023.12.035.212.035h1.438c.194-.001.374-.032.539-.094.165-.062.31-.149.434-.261a1.201 1.201 0 0 0 .395-.9 2.002 2.002 0 0 0-.013-.23 1.374 1.374 0 0 0-.061-.277 1.016 1.016 0 0 0-.396-.535 1.3 1.3 0 0 0-.4-.18 2.208 2.208 0 0 0-.579-.069h-.832v-.713h1.723c.042.001.069-.007.084-.022.013-.016.02-.045.019-.087v-.508c.001-.048-.006-.081-.019-.099-.014-.017-.042-.026-.084-.025H3.649a.483.483 0 0 0-.216.041.238.238 0 0 0-.115.127.556.556 0 0 0-.034.22v3.269a.553.553 0 0 0 .027.198.186.186 0 0 0 .103.11zm.737-1.785h.833a.62.62 0 0 1 .301.069.441.441 0 0 1 .184.184.596.596 0 0 1-.052.619.464.464 0 0 1-.17.135.621.621 0 0 1-.269.054h-.827V28.18z"/></svg>