<svg width="36" height="36" viewBox="0 0 36 36" xmlns="http://www.w3.org/2000/svg"><path d="M7.774 16.427H6.451a.279.279 0 0 0-.279.279v5.342c0 .153.125.278.279.278h5.65l-.925.925a.279.279 0 0 0 0 .398l3.78 3.78a.279.279 0 0 0 .398 0l3.98-3.979v1.303c0 .154.124.279.278.279h5.421a.279.279 0 0 0 .279-.279v-5.73l.994.995a.279.279 0 0 0 .398 0l3.78-3.78a.279.279 0 0 0 0-.398l-5.68-5.68 1.622 1.622h1.333a.279.279 0 0 0 .278-.279V6.121a.279.279 0 0 0-.278-.278h-5.71l.925-.925a.279.279 0 0 0 0-.398L19.164.74a.279.279 0 0 0-.398 0l-4.029 4.029V3.426a.279.279 0 0 0-.278-.279H9.117a.279.279 0 0 0-.279.279v5.72l-.994-.995a.279.279 0 0 0-.398 0l-3.73 3.83a.279.279 0 0 0 0 .397l4.058 4.05zm6.685-4.685a.279.279 0 0 0 .278-.279V8.907l-1.641-2.09 3.78 3.78a.279.279 0 0 0 .398 0l1.79-1.86.28-2.616v5.342c0 .154.124.279.278.279h2.656l1.99-1.622-3.78 3.78a.279.279 0 0 0 0 .398l1.85 1.85 2.596.28H19.68a.279.279 0 0 0-.278.278v2.506l1.651 2.14-3.78-3.78a.279.279 0 0 0-.398 0l-1.79 1.8-.339 2.676v-5.342a.279.279 0 0 0-.278-.279h-2.676l-1.99 1.622 3.78-3.78a.279.279 0 0 0 0-.398l-1.9-1.89-2.566-.24h5.342zM7.615 32.025a.308.308 0 0 1 .14-.15.587.587 0 0 1 .288-.059h1.8a.13.13 0 0 0 .11 0 .189.189 0 0 0 0-.12v-.606a.239.239 0 0 0 0-.14.13.13 0 0 0-.11 0h-1.99a1.532 1.532 0 0 0-.606.11 1.054 1.054 0 0 0-.408.299c-.1.123-.174.265-.219.417a1.631 1.631 0 0 0-.07.488v2.357c0 .161.02.322.06.478.04.152.111.295.21.418a.995.995 0 0 0 .397.298c.206.08.426.116.647.11h2.049a.14.14 0 0 0 .11 0 .189.189 0 0 0 0-.12v-.607a.229.229 0 0 0 0-.139H8.032a.716.716 0 0 1-.259 0 .279.279 0 0 1-.16-.13.547.547 0 0 1-.049-.258v-.806h2.1a.219.219 0 0 0 0-.12v-.775a.239.239 0 0 0 0-.14.13.13 0 0 0-.11 0h-1.99v-.546a.587.587 0 0 1 .05-.259zm19.457-.995a1.99 1.99 0 0 0-.696-.12h-1.74a.537.537 0 0 0-.26.05.288.288 0 0 0-.129.15.617.617 0 0 0 0 .229v4.387a.15.15 0 0 0 0 .119.18.18 0 0 0 .13 0h.855a.269.269 0 0 0 0-.1v-1.69h.945c.232 0 .463-.03.687-.09.174-.049.338-.126.487-.229.237-.163.418-.396.517-.667a1.78 1.78 0 0 0 .11-.636 1.671 1.671 0 0 0-.11-.627 1.393 1.393 0 0 0-.328-.487 1.512 1.512 0 0 0-.517-.319l.05.03zm-.218 1.84c-.051.101-.13.184-.23.24a.816.816 0 0 1-.397.089h-.925v-1.323h.925a.816.816 0 0 1 .348.07.557.557 0 0 1 .219.169c.05.065.087.14.11.218.009.073.009.147 0 .22a.766.766 0 0 1-.05.318zm1.273-1.989a.18.18 0 0 0 0 .12v.636a.15.15 0 0 0 0 .11.13.13 0 0 0 .1 0h1.253v3.899a.15.15 0 0 0 0 .12.18.18 0 0 0 .13 0h.755a.209.209 0 0 0 .14 0 .15.15 0 0 0 0-.12v-3.84h1.283a.124.124 0 0 0 .1 0c.014-.035.024-.074.009-.11v-.636c.022-.08 0-.09-.01-.179h-3.65m-10.913 2.795a.577.577 0 0 1 .278.18c.09.11.154.24.19.377l.437 1.522a.13.13 0 0 0 .06.08h.905a.12.12 0 0 0 .08 0 .09.09 0 0 0 0-.06.16.16 0 0 0 0-.06l-.438-1.64a2.875 2.875 0 0 0-.09-.29.995.995 0 0 0-.129-.238.806.806 0 0 0-.199-.189 1.303 1.303 0 0 0-.308-.15c.15-.09.279-.212.378-.357.106-.16.18-.34.218-.528l.359-1.303a.15.15 0 0 0 0-.06.08.08 0 0 0 0-.079.13.13 0 0 0-.09 0h-.905a.11.11 0 0 0-.06.09l-.318 1.193a.995.995 0 0 1-.15.348.637.637 0 0 1-.208.19.746.746 0 0 1-.23.079H16.31v-1.77-.1a.17.17 0 0 0-.1 0h-.825a.16.16 0 0 0-.1 0V35.845H16.21a.16.16 0 0 0 .1 0v-2.208h.586c.144-.01.288.004.428.04zm-3.77 2.179a.18.18 0 0 0 .109 0h.885a.259.259 0 0 0 0-.08V31.36a.676.676 0 0 0 0-.27.308.308 0 0 0-.139-.158.597.597 0 0 0-.268-.05h-2.537a.597.597 0 0 0-.269 0 .288.288 0 0 0-.139.16.846.846 0 0 0-.05.268l-.04 1.124c0 .368 0 .686-.07.995 0 .447-.089 1.522-.666 1.522h-.119a.239.239 0 0 0 0 .139v.607a.209.209 0 0 0 0 .129.14.14 0 0 0 .11 0c.467.066.93-.148 1.183-.547.11-.167.197-.347.259-.537.071-.218.125-.44.159-.667.04-.245.07-.517.09-.815 0-.299 0-.617.07-.995v-.498h1.382v3.9a.13.13 0 0 0 .05.189zm8.754-4.805a.318.318 0 0 0-.17-.11.995.995 0 0 0-.258 0h-.428a.736.736 0 0 0-.239 0 .348.348 0 0 0-.169.12.726.726 0 0 0-.11.239l-1.471 4.417a.14.14 0 0 0 0 .099H20.388a.219.219 0 0 0 .139 0c.03-.026.05-.06.06-.1l.278-.905h1.622l.278.925a.13.13 0 0 0 .07.1h.975a.1.1 0 0 0 .08 0 .08.08 0 0 0 0-.06.15.15 0 0 0 0-.06l-1.473-4.446a.776.776 0 0 0-.11-.259v.04zm-1.184 2.925l.268-.896.269-.994.259.994.268.896h-1.064zm-18.672 1.88c.089.019.18.019.269 0h1.79a1.93 1.93 0 0 0 .627-.12c.198-.074.38-.185.537-.328.318-.283.5-.688.497-1.114a2.427 2.427 0 0 0 0-.288 1.75 1.75 0 0 0-.04-.339A1.263 1.263 0 0 0 5.636 33a1.602 1.602 0 0 0-.497-.229 2.785 2.785 0 0 0-.716-.09h-.995v-.885h2.089a.14.14 0 0 0 .11 0 .17.17 0 0 0 0-.11v-.626a.209.209 0 0 0 0-.12.12.12 0 0 0-.11 0H2.75a.597.597 0 0 0-.27.05.288.288 0 0 0-.138.16.696.696 0 0 0 0 .278v4.069a.686.686 0 0 0 0 .248.239.239 0 0 0 .11.11zm.915-2.218h.995a.776.776 0 0 1 .378.089.557.557 0 0 1 .229.229.766.766 0 0 1 0 .547.657.657 0 0 1-.11.219.567.567 0 0 1-.208.169.766.766 0 0 1-.339.07h-.994l.05-1.323z" fill="#FFF" fill-rule="nonzero"/></svg>