<svg width="30" height="30" viewBox="0 0 30 30" xmlns="http://www.w3.org/2000/svg"><g fill="none" fill-rule="evenodd"><path d="M0 0h30v30H0z"/><path d="M8.08 16.746h-.985a.21.21 0 0 0-.209.21v3.978c0 .115.095.209.21.209h4.236l-.686.686a.21.21 0 0 0 0 .297l2.812 2.813a.21.21 0 0 0 .296 0l2.976-2.979v.973c0 .116.095.21.209.21h3.975a.21.21 0 0 0 .21-.21V18.68l.707.708a.21.21 0 0 0 .296 0l2.812-2.813a.21.21 0 0 0 0-.297l-4.23-4.232 1.21 1.21h.992a.21.21 0 0 0 .209-.209V9.07a.21.21 0 0 0-.209-.21h-4.235l.688-.687a.211.211 0 0 0 0-.297l-2.812-2.814a.21.21 0 0 0-.296 0l-3.003 3.006.014-.015v-.99a.21.21 0 0 0-.209-.209H9.082a.21.21 0 0 0-.209.21v4.257l-.705-.705a.21.21 0 0 0-.296 0l-2.81 2.813a.21.21 0 0 0 0 .296l3.019 3.022zm4.978-3.489a.21.21 0 0 0 .21-.209v-1.9l-1.24-1.56 2.812 2.814a.21.21 0 0 0 .296 0l1.382-1.383.204-1.951v3.978c0 .115.094.21.209.21h1.98l1.503-1.21-2.812 2.813a.21.21 0 0 0 0 .296l1.378 1.38 1.933.205h-3.975a.21.21 0 0 0-.209.21v1.867l1.253 1.594-2.812-2.814a.21.21 0 0 0-.296 0l-1.34 1.342-.25 1.994v-3.978a.21.21 0 0 0-.21-.21h-2.007l-1.48 1.21 2.81-2.813a.21.21 0 0 0 0-.297l-1.406-1.408-1.907-.182h3.974v.002z" fill-opacity=".9" fill="#FFF"/></g></svg>