<?xml version="1.0" encoding="UTF-8"?>
<svg width="36px" height="36px" viewBox="0 0 36 36" version="1.1" xmlns="http://www.w3.org/2000/svg" xmlns:xlink="http://www.w3.org/1999/xlink">
    <!-- Generator: Sketch 48.2 (47327) - http://www.bohemiancoding.com/sketch -->
    <title>icon_contactless_off_xl_white</title>
    <desc>Created with Sketch.</desc>
    <defs></defs>
    <g id="NFC-applepay-assets" stroke="none" stroke-width="1" fill="none" fill-rule="evenodd" transform="translate(-134.000000, -240.000000)">
        <g id="icon_contactless_off__xl__white" transform="translate(133.000000, 240.000000)">
            <path d="M24.5152981,32.3770707 C30.0981838,30.1075429 34,24.9380112 34,18.5 C34,9.93958638 27.0604136,3 18.5,3 C9.93958638,3 3,9.93958638 3,18.5 C3,24.9590816 6.95080506,30.1366125 12.5676672,32.3926902" id="Oval-168" stroke="#FFFFFF"></path>
            <path d="M13.0929551,20.4646774 C12.9190411,20.3921717 12.720591,20.1536497 12.6614881,19.9462461 C12.5957496,19.7145702 12.6496058,19.5306609 12.9105538,19.0979606 C13.2461906,18.5414094 13.3244288,18.242829 13.3244288,17.5154382 C13.3244288,16.788203 13.2461906,16.4894671 12.9105538,15.9329159 C12.796823,15.7443388 12.6826293,15.5182642 12.6567043,15.4306661 C12.5485289,15.0637811 12.8517595,14.6142769 13.2588445,14.537259 C13.604049,14.4719106 13.841078,14.6273466 14.1583513,15.1267957 C15.0771476,16.5727086 15.0769933,18.5045341 14.1578884,19.9383109 C13.8336709,20.4441393 13.472109,20.622914 13.0929551,20.4646774 Z M15.7498102,21.8405741 C15.5303731,21.7408398 15.3414906,21.50683 15.2901034,21.2709531 C15.2587773,21.1273421 15.3127878,20.9683274 15.5731186,20.4368265 C16.5294136,18.4838405 16.5397527,16.6028934 15.604599,14.6954957 C15.1939647,13.8576348 15.1850143,13.6909962 15.5322249,13.3605196 C15.7036697,13.1976152 15.7765068,13.1686751 16.0172394,13.1686751 C16.4209296,13.1686751 16.6303361,13.3732781 16.9912808,14.1205847 C17.5462004,15.26994 17.7733532,16.2671267 17.7715015,17.5446894 C17.7694953,18.8578827 17.5571568,19.7593806 16.9642755,20.9714393 C16.6246264,21.6653779 16.4568852,21.8486648 16.1169275,21.8956535 C16.0132272,21.9099679 15.8481093,21.8850733 15.7498102,21.8405741 Z M18.5972453,23.3176053 C18.2420103,23.2133589 17.9858461,22.7739682 18.0886204,22.4447363 C18.1134653,22.3650734 18.2807436,21.9980328 18.4600585,21.6289695 C19.2199095,20.066674 19.5359483,18.3918858 19.3811696,16.7475936 C19.253859,15.396436 19.0135893,14.5444162 18.4086714,13.2976606 C18.0028208,12.4612001 17.9839943,12.3315922 18.2199432,11.9947364 C18.4443183,11.6745288 19.0044847,11.6225612 19.2986106,11.8948466 C19.5026161,12.0834236 20.136854,13.4188665 20.3815989,14.1750417 C21.1917568,16.6778885 21.0681499,19.3646446 20.0299132,21.823459 C19.4979866,23.0828176 19.1245424,23.4722634 18.5972453,23.3176053 Z M21.3584179,24.7739429 C21.1267899,24.7064161 20.8920755,24.4285295 20.8426945,24.1634014 C20.8105968,23.9906947 20.849793,23.8707335 21.0953094,23.3919781 C22.0872514,21.4571963 22.5184097,19.6767614 22.5184097,17.5155938 C22.5184097,15.4269319 22.1366325,13.801933 21.1885162,11.8540816 C20.9848193,11.4360069 20.8183126,11.0478058 20.8183126,10.9916372 C20.8183126,10.7843892 20.9903747,10.4839418 21.1766339,10.3660033 C21.4320265,10.2044992 21.8599442,10.234684 22.0648756,10.4285511 C22.1435767,10.5032351 22.3481994,10.8418025 22.51949,11.1809922 C23.1978622,12.5242147 23.6628157,13.9979785 23.8922833,15.5318007 C24.0344082,16.4812207 24.0626479,18.2803266 23.9492258,19.1493058 C23.7398193,20.7525219 23.3200803,22.1828756 22.6481893,23.5842893 C22.2420302,24.4313301 21.9871005,24.7798553 21.7736817,24.7798553 C21.7309362,24.7798553 21.6613398,24.7905912 21.618903,24.8038165 C21.5763118,24.8167306 21.4591861,24.8035053 21.3584179,24.7739429 Z" id="Combined-Shape" fill="#FFFFFF"></path>
            <polygon id="Shape" fill="#FFFFFF" points="16.1884129 35.5 18.5 33.1884129 20.8115871 35.5 21.5 34.8115871 19.1884129 32.5 21.5 30.1884129 20.8115871 29.5 18.5 31.8115871 16.1884129 29.5 15.5 30.1884129 17.8115871 32.5 15.5 34.8115871"></polygon>
        </g>
    </g>
</svg>