<svg xmlns="http://www.w3.org/2000/svg" width="18" height="18" version="1" viewBox="0 0 18 18"><path fill="#0B1F35" d="M4.474 16h9.053c.053 0 .158-.053.158-.158v-1.684c0-.053-.053-.158-.158-.158H4.474c-.053 0-.158.053-.158.158v1.684c0 .053.052.158.158.158zM7.582 3.544c-.098.343-2.448 6.903-2.546 7.147-.049.098 0 .196.049.196.098 0 1.371.539 1.42.539s.147-.049.147-.098.538-1.518.587-1.664h3.525c.049.147.587 1.616.587 1.664.049.098.147.098.196.098.098 0 1.322-.539 1.42-.539.049-.049.049-.147.049-.196-.049-.196-2.448-6.854-2.546-7.147-.245-.685-.539-1.371-1.469-1.371-.929 0-1.223.637-1.419 1.371zm2.693 4.455H7.827l1.175-3.672 1.273 3.672z"/></svg>