<svg xmlns="http://www.w3.org/2000/svg" width="24" height="24" viewBox="0 0 24 24"><g fill="none" fill-rule="evenodd"><path d="M0 0h24v24H0z"/><path fill="#0B1F35" d="M12 1.985c.197 0 .395.114.469.34l2.263 6.965a.49.49 0 0 0 .468.34h7.322c.477 0 .676.611.29.892l-5.924 4.304a.493.493 0 0 0-.18.55l2.263 6.965a.495.495 0 0 1-.47.647.483.483 0 0 1-.288-.096l-5.923-4.304a.49.49 0 0 0-.58 0l-5.923 4.304a.483.483 0 0 1-.288.096.495.495 0 0 1-.47-.647l2.262-6.964a.491.491 0 0 0-.18-.551l-5.923-4.304a.493.493 0 0 1 .29-.892H8.8a.493.493 0 0 0 .469-.34l2.263-6.964a.482.482 0 0 1 .468-.34zM12 1c-.642 0-1.207.41-1.406 1.022L8.442 8.645H1.478a1.475 1.475 0 1 0-.868 2.673l5.634 4.093-2.153 6.625a1.46 1.46 0 0 0 .206 1.322c.28.385.729.615 1.2.615.312 0 .612-.099.868-.285L12 19.594l5.634 4.094c.256.186.556.285.867.285.472 0 .921-.23 1.201-.615.28-.384.355-.866.206-1.322l-2.152-6.624 5.634-4.093c.52-.377.735-1.041.537-1.652a1.473 1.473 0 0 0-1.405-1.022h-6.964l-2.152-6.624A1.475 1.475 0 0 0 12 1z"/></g></svg>