<svg xmlns="http://www.w3.org/2000/svg" width="48" height="46" viewBox="0 0 48 46"><g fill="none" fill-rule="evenodd"><path d="M0-1h48v48H0z"/><path fill="#FFF" d="M24 1.353c.401 0 .801.23.951.691l4.635 14.265a1 1 0 0 0 .951.691h14.998c.969 0 1.372 1.24.588 1.809L33.99 27.624a1 1 0 0 0-.363 1.118l4.635 14.264c.228.702-.329 1.314-.955 1.314a.983.983 0 0 1-.584-.196l-12.134-8.816a1.002 1.002 0 0 0-1.176 0l-12.134 8.816a.985.985 0 0 1-.584.196c-.625 0-1.183-.612-.955-1.314l4.635-14.264a1 1 0 0 0-.363-1.118L1.877 18.809C1.094 18.24 1.496 17 2.465 17h14.998a1 1 0 0 0 .951-.691l4.635-14.265A.981.981 0 0 1 24 1.353zm0-1a1.97 1.97 0 0 0-1.902 1.382L17.463 16H2.465a1.97 1.97 0 0 0-1.902 1.382c-.273.84.012 1.717.727 2.236l12.134 8.815-4.635 14.264c-.201.617-.1 1.269.277 1.786.38.524.989.836 1.629.836a1.99 1.99 0 0 0 1.172-.386L24 36.117l12.134 8.816c.348.253.753.386 1.172.386.64 0 1.249-.313 1.629-.836a1.97 1.97 0 0 0 .276-1.786l-4.635-14.264 12.133-8.815a1.972 1.972 0 0 0 .727-2.236A1.967 1.967 0 0 0 45.535 16H30.537L25.902 1.735A1.97 1.97 0 0 0 24 .353z"/></g></svg>