<svg xmlns="http://www.w3.org/2000/svg" width="26" height="24" viewBox="0 0 26 24"><g fill="none" fill-rule="evenodd"><path d="M1 0h24v24H1z"/><path fill="#FFF" d="M13 1.241c.2 0 .401.115.476.345l2.297 7.068a.497.497 0 0 0 .475.346h7.431a.5.5 0 0 1 .294.905l-6.012 4.368a.5.5 0 0 0-.182.559l2.296 7.068a.502.502 0 0 1-.477.657.49.49 0 0 1-.292-.098l-6.012-4.368a.498.498 0 0 0-.588 0l-6.012 4.368a.49.49 0 0 1-.292.098.502.502 0 0 1-.477-.657l2.296-7.068a.499.499 0 0 0-.182-.559L2.027 9.905A.5.5 0 0 1 2.321 9h7.431a.5.5 0 0 0 .476-.345l2.297-7.068A.49.49 0 0 1 13 1.241zm0-1c-.652 0-1.225.417-1.427 1.037L9.389 8H2.321c-.652 0-1.225.417-1.426 1.036-.201.62.018 1.294.545 1.677l5.718 4.154-2.185 6.723c-.15.463-.074.952.209 1.342.284.391.74.624 1.219.624.316 0 .62-.1.88-.289L13 19.112l5.718 4.155c.26.189.564.289.88.289.479 0 .935-.233 1.219-.624.283-.39.36-.879.209-1.342l-2.184-6.722 5.718-4.154a1.497 1.497 0 0 0 .545-1.677A1.495 1.495 0 0 0 23.679 8h-7.068l-2.184-6.723A1.497 1.497 0 0 0 13 .241z"/></g></svg>