<svg xmlns="http://www.w3.org/2000/svg" width="24" height="24" viewBox="0 0 24 24" fill="none"><rect width="24" height="24" fill="none"/><g clip-path="url(#clip0)"><path d="M4 17.2666C4 17.6747 4.35398 18 4.79292 18H19.2071C19.645 18 20 17.6729 20 17.2666V6.73341C20 6.32533 19.646 6 19.2071 6H4.79292C4.35498 6 4 6.32707 4 6.73341V17.2666ZM4.62913 5H19.3709C20.2706 5 21 5.68063 21 6.52949V17.4705C21 18.3152 20.2721 19 19.3709 19H4.62913C3.72939 19 3 18.3194 3 17.4705V6.52949C3 5.68478 3.72792 5 4.62913 5Z" fill="#0B1F35"/><path opacity="0.3" d="M20 8H4V11H20V8Z" fill="#0B1F35"/><path opacity="0.3" d="M9 14H5V16H9V14Z" fill="#0B1F35"/><path d="M1.0036 3.00183V6.00093H0.00360107V2.00183H4.00339V3.00183H1.0036Z" fill="#0B1F35"/><path d="M4.00661 21L4.00686 22L-0.000915527 22.001V18.0009H0.999084V21.0007L4.00661 21Z" fill="#0B1F35"/><path d="M23 21V18.0013H24V22H20.0039V21H23Z" fill="#0B1F35"/><path d="M23 3H20.0026V2H24V6.00194H23V3Z" fill="#0B1F35"/></g><defs><clipPath id="clip0"><path d="M0 0H24V24H0V0Z" fill="white"/></clipPath></defs></svg>