<svg width="24" height="24" viewBox="0 0 24 24" xmlns="http://www.w3.org/2000/svg"><g fill-rule="nonzero" fill="none"><path fill="none" d="M0 0h24v24H0z"/><path d="M4 17.267c0 .408.354.733.793.733h14.414c.438 0 .793-.327.793-.733V6.733c0-.408-.354-.733-.793-.733H4.793C4.355 6 4 6.327 4 6.733v10.534zM4.63 5h14.74c.9 0 1.63.68 1.63 1.53v10.94c0 .845-.728 1.53-1.63 1.53H4.63C3.73 19 3 18.32 3 17.47V6.53C3 5.684 3.728 5 4.63 5z" fill="#0B1F35"/><path fill="#0B1F35" opacity=".3" d="M4 8h16v3H4zM5 14h4v2H5z"/><path fill="#0B1F35" d="M1.004 3.002V6h-1v-4h4v1zM4.007 21v1l-4.008.001v-4h1v3zM23 21v-2.999h1V22h-3.996v-1zM23 3h-2.997V2H24v4.002h-1z"/></g></svg>