<svg xmlns="http://www.w3.org/2000/svg" width="24" height="24" viewBox="0 0 24 24" fill="none"><rect width="24" height="24" fill="none"/><g clip-path="url(#clip0)"><path d="M4 17.2666C4 17.6747 4.35398 18 4.79292 18H19.2071C19.645 18 20 17.6729 20 17.2666V6.73341C20 6.32533 19.646 6 19.2071 6H4.79292C4.35498 6 4 6.32707 4 6.73341V17.2666ZM4.62913 5H19.3709C20.2706 5 21 5.68063 21 6.52949V17.4705C21 18.3152 20.2721 19 19.3709 19H4.62913C3.72939 19 3 18.3194 3 17.4705V6.52949C3 5.68478 3.72792 5 4.62913 5Z" fill="white"/><path d="M20 8H4V11H20V8Z" fill="white" fill-opacity="0.3"/><path d="M9 14H5V16H9V14Z" fill="white" fill-opacity="0.3"/><path d="M23.0004 6.0012H24.0004V2.00439H19.9891V2.99939H23.0004V6.0012Z" fill="white"/><path d="M3.99997 2.99707V1.99707L0.00317383 1.99707L0.00317383 6.00841H0.998169L0.998169 2.99707H3.99997Z" fill="white"/><path d="M20.0032 21.0084V22.0084H24V17.9971H23.005V21.0084H20.0032Z" fill="white"/><path d="M3.99998 21.0084V22.0084H0.00317383L0.00317383 17.9971H0.998169L0.998169 21.0084H3.99998Z" fill="white"/></g><defs><clipPath id="clip0"><path d="M0 0H24V24H0V0Z" fill="white"/></clipPath></defs></svg>