<svg width="24px" height="24px" viewBox="0 0 24 24" version="1.1" xmlns="http://www.w3.org/2000/svg"><g transform="translate(-1.000000, 0.000000)" fill-rule="nonzero" stroke="none" stroke-width="1" fill="none"><rect fill-opacity="0" fill="#FFFFFF" x="1" y="0" width="24" height="24"/><path d="M5,17.2665888 C5,17.6746705 5.35397908,18 5.792924,18 L20.207076,18 C20.6450192,18 21,17.6729343 21,17.2665888 L21,6.7334112 C21,6.32532946 20.6460209,6 20.207076,6 L5.792924,6 C5.35498082,6 5,6.32706574 5,6.7334112 L5,17.2665888 Z M5.62912682,5 L20.3708732,5 C21.2706151,5 22,5.6806329 22,6.52949296 L22,17.470507 C22,18.3152227 21.272085,19 20.3708732,19 L5.62912682,19 C4.72938492,19 4,18.3193671 4,17.470507 L4,6.52949296 C4,5.68477732 4.72791505,5 5.62912682,5 Z" fill="#0B1F35"/><rect fill="#0B1F35" opacity="0.300000012" x="5" y="8" width="16" height="3"/><rect fill="#0B1F35" opacity="0.3" x="6" y="14" width="4" height="2"/><polygon fill="#0B1F35" points="2.00360107 3.00186157 2.00360107 6.0009613 1.00360107 6.0009613 1.00360107 2.00186157 5.00338745 2.00186157 5.00338745 3.00186157"/><polygon fill="#0B1F35" points="5.00661317 21 5.00686113 22 0.999084473 22.0009937 0.999084473 18.0008698 1.99908447 18.0008698 1.99908447 21.0007458"/><polygon fill="#0B1F35" points="24 21 24 18.0013123 25 18.0013123 25 22 21.0039368 22 21.0039368 21"/><polygon fill="#0B1F35" points="24 3 21.002533 3 21.002533 2 25 2 25 6.00193787 24 6.00193787"/></g></svg>