<svg width="24" height="24" viewBox="0 0 24 24" xmlns="http://www.w3.org/2000/svg"><g fill="#FFF" fill-rule="nonzero"><path fill="none" d="M0 0h24v24H0z"/><path d="M4 17.267c0 .408.354.733.793.733h14.414c.438 0 .793-.327.793-.733V6.733c0-.408-.354-.733-.793-.733H4.793C4.355 6 4 6.327 4 6.733v10.534zM4.63 5h14.74c.9 0 1.63.68 1.63 1.53v10.94c0 .845-.728 1.53-1.63 1.53H4.63C3.73 19 3 18.32 3 17.47V6.53C3 5.684 3.728 5 4.63 5z"/><path opacity=".3" d="M4 8h16v3H4zM5 14h4v2H5z"/><path d="M23 6.001h1V2.004h-4.01V3H23zM4 2.997v-1H.003v4.011h.995v-3.01zM20.003 21.008v1H24v-4.01h-.995v3.01zM4 21.008v1H.003v-4.01h.995v3.01z"/></g></svg>