<svg width="24px" height="24px" viewBox="0 0 24 24" version="1.1" xmlns="http://www.w3.org/2000/svg"><g stroke="none" stroke-width="1" fill="none" fill-rule="evenodd"><rect x="0" y="0" width="24" height="24"/><g transform="translate(1.000000, 3.000000)" fill="#0F2338"><path d="M2,1 C1.44771525,1 1,1.44771525 1,2 L1,17 C1,17.5522847 1.44771525,18 2,18 L21,18 C21.5522847,18 22,17.5522847 22,17 L22,2 C22,1.44771525 21.5522847,1 21,1 L2,1 Z M2,0 L21,0 C22.1045695,-2.02906125e-16 23,0.8954305 23,2 L23,17 C23,18.1045695 22.1045695,19 21,19 L2,19 C0.8954305,19 1.3527075e-16,18.1045695 0,17 L0,2 C-1.3527075e-16,0.8954305 0.8954305,2.02906125e-16 2,0 Z" fill-rule="nonzero"/><g transform="translate(2.000000, 4.000000)" opacity="0.3"><rect x="0" y="0" width="3" height="3"/><rect x="4" y="0" width="3" height="3"/><rect x="8" y="0" width="3" height="3"/><rect x="12" y="0" width="3" height="3"/><rect x="16" y="0" width="3" height="3"/></g><rect opacity="0.3" x="2" y="8" width="3" height="3"/><rect opacity="0.3" x="6" y="8" width="3" height="3"/><rect opacity="0.3" x="10" y="8" width="3" height="3"/><rect opacity="0.3" x="6" y="12" width="11" height="3"/><rect opacity="0.3" x="14" y="8" width="3" height="3"/><rect opacity="0.3" x="18" y="8" width="3" height="3"/></g></g></svg>