<?xml version="1.0" encoding="UTF-8"?>
<svg width="24px" height="24px" viewBox="0 0 24 24" version="1.1" xmlns="http://www.w3.org/2000/svg" xmlns:xlink="http://www.w3.org/1999/xlink">
    <!-- Generator: Sketch 48.2 (47327) - http://www.bohemiancoding.com/sketch -->
    <title>icon_keyboard__m__black</title>
    <desc>Created with Sketch.</desc>
    <defs></defs>
    <g id="set" stroke="none" stroke-width="1" fill="none" fill-rule="evenodd">
        <g id="icon_keyboard__m__black">
            <rect id="_ph_" x="0" y="0" width="24" height="24"></rect>
            <g id="art" transform="translate(1.000000, 3.000000)" fill="#FFFFFF">
                <path d="M2,1 C1.44771525,1 1,1.44771525 1,2 L1,17 C1,17.5522847 1.44771525,18 2,18 L21,18 C21.5522847,18 22,17.5522847 22,17 L22,2 C22,1.44771525 21.5522847,1 21,1 L2,1 Z M2,0 L21,0 C22.1045695,-2.02906125e-16 23,0.8954305 23,2 L23,17 C23,18.1045695 22.1045695,19 21,19 L2,19 C0.8954305,19 1.3527075e-16,18.1045695 0,17 L0,2 C-1.3527075e-16,0.8954305 0.8954305,2.02906125e-16 2,0 Z" id="Rectangle-7" fill-rule="nonzero"></path>
                <g id="Group" transform="translate(2.000000, 4.000000)" opacity="0.3">
                    <rect id="Rectangle-path" x="0" y="0" width="3" height="3"></rect>
                    <rect id="Rectangle-path-Copy" x="4" y="0" width="3" height="3"></rect>
                    <rect id="Rectangle-path-Copy-2" x="8" y="0" width="3" height="3"></rect>
                    <rect id="Rectangle-path-Copy-3" x="12" y="0" width="3" height="3"></rect>
                    <rect id="Rectangle-path-Copy-4" x="16" y="0" width="3" height="3"></rect>
                </g>
                <rect id="Rectangle-path" opacity="0.3" x="2" y="8" width="3" height="3"></rect>
                <rect id="Rectangle-path-Copy" opacity="0.3" x="6" y="8" width="3" height="3"></rect>
                <rect id="Rectangle-path-Copy-2" opacity="0.3" x="10" y="8" width="3" height="3"></rect>
                <rect id="Rectangle-path-Copy-5" opacity="0.3" x="6" y="12" width="11" height="3"></rect>
                <rect id="Rectangle-path-Copy-3" opacity="0.3" x="14" y="8" width="3" height="3"></rect>
                <rect id="Rectangle-path-Copy-4" opacity="0.3" x="18" y="8" width="3" height="3"></rect>
            </g>
        </g>
    </g>
</svg>
