<svg xmlns="http://www.w3.org/2000/svg" width="22" height="22" viewBox="0 0 22 22"><g fill="none" fill-rule="evenodd"><path d="M-1-1h24v24H-1z"/><path fill="#0B1F35" d="M5 13H2.5A2.503 2.503 0 0 1 0 10.5v-8C0 1.122 1.121 0 2.5 0h13C16.879 0 18 1.122 18 2.5V6h-1V2.5c0-.827-.673-1.5-1.5-1.5h-13C1.673 1 1 1.673 1 2.5v8c0 .827.673 1.5 1.5 1.5H5v1z"/><path fill="#0B1F35" d="M.5 4h17v2H.5zM14 15l4-6.928A7.999 7.999 0 0 1 22 15h-8z" opacity=".3"/><path fill="#0B1F35" d="M14.497 22c-4.136 0-7.5-3.364-7.5-7.5s3.364-7.5 7.5-7.5v1a6.508 6.508 0 0 0-6.5 6.5c0 3.584 2.916 6.5 6.5 6.5 2.921 0 5.498-1.983 6.269-4.822l.965.262c-.888 3.274-3.863 5.56-7.234 5.56z"/><path fill="#0B1F35" d="M16.175 8.231A6.44 6.44 0 0 0 14.497 8V7c.636 0 1.288.089 1.939.266l-.261.965z"/></g></svg>
