<svg xmlns="http://www.w3.org/2000/svg" width="44" height="44" viewBox="0 0 44 44"><g fill="none" fill-rule="evenodd"><path d="M-1-3h48v48H-1z"/><path fill="#0B1F35" d="M10 25H4.596C2.019 25 0 23.013 0 20.476V4.595A4.601 4.601 0 0 1 4.596 0h26.809A4.601 4.601 0 0 1 36 4.595V12h-1V4.595A3.6 3.6 0 0 0 31.404 1H4.596A3.6 3.6 0 0 0 1 4.595v15.881C1 22.452 2.579 24 4.596 24H10v1z"/><path fill="#0B1F35" d="M.5 8h35v4H.5zm28 21L36 16.01A14.994 14.994 0 0 1 43.5 29h-15z" opacity=".3"/><path fill="#0B1F35" d="M28.833 44C20.654 44 14 37.271 14 29s6.654-15 14.833-15c1.258 0 2.548.179 3.837.533l-.266.964A13.5 13.5 0 0 0 28.833 15C21.205 15 15 21.28 15 29s6.205 14 13.833 14c6.216 0 11.701-4.27 13.341-10.382l.967.259C41.384 39.426 35.5 44 28.833 44z"/></g></svg>
