<svg xmlns="http://www.w3.org/2000/svg" width="31" height="32" viewBox="0 0 31 32"><g fill="none" fill-rule="evenodd"><path d="M-2-2h36v36H-2z"/><path fill="#FFF" d="M16.3 32c2.3 0 4.5-.3 6.1-.7v-.7c-1.5.4-3.8.7-6.1.7C7.2 31.2 1 25.5 1 16.3 1 7.3 7.3.8 15.9.8c3.2 0 6.1.8 8.6 2.2l.1.1c3.2 2 5.2 5.6 5.2 9.6 0 3-.2 5.7-2.6 8.4-1.6 1.8-4.2 2.6-8.2 2.6-.6 0-1.2 0-1.8-.1-3.4-.4-7-2.4-7-6.8V16h12v-.3c0-4.6-2.5-7.5-6.5-7.5-4.1 0-6.7 3.1-6.7 7.9v.7c0 .7.2 6.7 7.8 7.6.7.1 1.4.1 2.1.1 4.2 0 6.7-.8 8.8-2.8 2.6-2.5 3.1-5.4 3.1-9.1 0-4.1-2.2-8.1-5.6-10.2C22.7.8 19.5 0 16.1 0 6.6 0 0 6.7 0 16.2 0 26.1 6.4 32 16.3 32zm-6.1-17.4c.3-3.4 2.4-5.6 5.5-5.6 3 0 5.1 2.2 5.2 5.6v.3H10.1l.1-.3z"/></g></svg>