<svg xmlns="http://www.w3.org/2000/svg" width="40" height="42" viewBox="0 0 40 42"><g fill="none" fill-rule="evenodd"><path d="M-5-3h48v48H-5z"/><path fill="#FFF" d="M39.4 16.3c0-5.2-2.8-10.3-7.2-13.1C29 1.2 25 .1 20.5.1 8.5.1 0 8.7 0 20.9c0 12.7 8.2 20.9 20.8 20.9 3 0 5.7-.3 7.8-.9v-.7c-1.9.5-4.8.8-7.8.8C9 41 1.1 33 1.1 21 1.1 9.4 9.2 1 20.3 1c4.1 0 7.9 1 11.1 2.9l.2.1c4.2 2.6 6.7 7.3 6.7 12.4 0 3.8-.3 7.5-3.4 10.9-2.1 2.3-5.4 3.3-10.7 3.3-.8 0-1.5 0-2.3-.1-4.4-.5-9-3.1-9-8.8v-1.1h15.4v-.3c0-5.9-3.2-9.6-8.3-9.6-5.2 0-8.6 3.9-8.6 10.1v.9c0 .9.3 8.6 10 9.7.9.1 1.9.2 2.8.2 5.4 0 8.6-1 11.2-3.6 3.4-3.2 4-6.9 4-11.7zm-26.5 2.6c.4-4.4 3.2-7.2 7.1-7.2 4 0 6.6 2.9 6.8 7.3v.9h-14l.1-1z"/></g></svg>