<svg xmlns="http://www.w3.org/2000/svg" width="48" height="48" viewBox="0 0 48 48"><rect width="48" height="48" fill="none"/><path d="M44.4,19.3C44.4,14.1 41.6,9 37.2,6.2C34,4.2 30,3.1 25.5,3.1C13.5,3.1 5,11.7 5,23.9C5,36.6 13.2,44.8 25.8,44.8C28.8,44.8 31.5,44.5 33.6,43.9L33.6,43.2C31.7,43.7 28.8,44 25.8,44C14,44 6.1,36 6.1,24C6.1,12.4 14.2,4 25.3,4C29.4,4 33.2,5 36.4,6.9L36.6,7C40.8,9.6 43.3,14.3 43.3,19.4C43.3,23.2 43,26.9 39.9,30.3C37.8,32.6 34.5,33.6 29.2,33.6C28.4,33.6 27.7,33.6 26.9,33.5C22.5,33 17.9,30.4 17.9,24.7L17.9,23.6L33.3,23.6L33.3,23.3C33.3,17.4 30.1,13.7 25,13.7C19.8,13.7 16.4,17.6 16.4,23.8L16.4,24.7C16.4,25.6 16.7,33.3 26.4,34.4C27.3,34.5 28.3,34.6 29.2,34.6C34.6,34.6 37.8,33.6 40.4,31C43.8,27.8 44.4,24.1 44.4,19.3L44.4,19.3ZM17.9,21.9C18.3,17.5 21.1,14.7 25,14.7C29,14.7 31.6,17.6 31.8,22L31.8,22.9L17.8,22.9L17.9,21.9L17.9,21.9Z" fill="#0B1F35"/></svg>