<svg xmlns="http://www.w3.org/2000/svg" width="48" height="48" viewBox="0 0 48 48"><path fill="none" d="M0 0h48v48H0z"/><path d="M44.4 19.3c0-5.2-2.8-10.3-7.2-13.1-3.2-2-7.2-3.1-11.7-3.1C13.5 3.1 5 11.7 5 23.9c0 12.7 8.2 20.9 20.8 20.9 3 0 5.7-.3 7.8-.9v-.7c-1.9.5-4.8.8-7.8.8C14 44 6.1 36 6.1 24c0-11.6 8.1-20 19.2-20 4.1 0 7.9 1 11.1 2.9l.2.1c4.2 2.6 6.7 7.3 6.7 12.4 0 3.8-.3 7.5-3.4 10.9-2.1 2.3-5.4 3.3-10.7 3.3-.8 0-1.5 0-2.3-.1-4.4-.5-9-3.1-9-8.8v-1.1h15.4v-.3c0-5.9-3.2-9.6-8.3-9.6-5.2 0-8.6 3.9-8.6 10.1v.9c0 .9.3 8.6 10 9.7.9.1 1.9.2 2.8.2 5.4 0 8.6-1 11.2-3.6 3.4-3.2 4-6.9 4-11.7zm-26.5 2.6c.4-4.4 3.2-7.2 7.1-7.2 4 0 6.6 2.9 6.8 7.3v.9h-14l.1-1z" fill="#FFF"/></svg>