<svg xmlns="http://www.w3.org/2000/svg" width="26" height="34" viewBox="0 0 26 34"><g fill="none" fill-rule="evenodd" transform="translate(-5 -1)"><path d="M0 0h36v36H0z"/><path fill="#FFF" d="M10 15h15v3H10zm0-6h9v3h-9z" opacity=".35"/><path fill="#FFF" d="M28.2 34.1H7.8c-1.5 0-2.8-1.3-2.8-2.8V3.8C5 2.3 6.3 1 7.8 1h15.3L31 8.9v22.4c0 1.6-1.3 2.8-2.8 2.8zM7.8 2C6.8 2 6 2.8 6 3.8v27.5c0 1 .8 1.8 1.8 1.8h20.4c1 0 1.8-.8 1.8-1.8v-22L22.6 2H7.8z"/><circle cx="12.5" cy="24.5" r="2.5" fill="#FFF" opacity=".3"/></g></svg>