<svg width="18" height="18" viewBox="0 0 18 18" fill="none" xmlns="http://www.w3.org/2000/svg"><rect width="18" height="18" fill="none"/><path d="M4.49975 3.91231C4.56783 2.8374 5.47725 2 6.5767 2H11.3891C12.4875 2 13.3969 2.8374 13.466 3.91231L13.9863 6.71288C13.1398 6.71288 11.8225 7.33354 11.5002 8.62848H6.50015C6.00015 7 4.86047 6.71288 4.13326 6.71288L4.49975 3.91231Z" fill="#FFFFFF"/><path d="M4.40916 8.23023C3.66332 7.80783 2.70817 8.0585 2.27733 8.79012L1.5 10.1093L4 11.5811C3.98744 12.8925 4 14.1853 4 15.5C4 16 4 16 4 16H5.5C5.5 16 5.72222 14.6667 5.83333 14H12.1667C12.2778 14.6667 12.3889 15.3333 12.5 16H14C14 16 14 16 14 15.5L13.9861 11.5811L16.5 10.2526L15.7227 8.93343C15.2918 8.20181 14.3367 7.95114 13.5908 8.37354L13.1397 8.62848C12.7373 8.85647 12.4772 9.58575 12.3908 10H5.63155C5.57973 9.5307 5.30843 8.73924 4.86032 8.48517L4.40916 8.23023Z" fill="#FFFFFF"/></svg>