<svg xmlns="http://www.w3.org/2000/svg" width="36" height="36" viewBox="0 0 36 36"><path fill="none" d="M0 0h36v36H0z"/><path fill="#0B1F35" d="M24 34.5h-1V4.64A2.69 2.69 0 0 0 20.27 2H5.73A2.69 2.69 0 0 0 3 4.64V34.5H2V4.64A3.69 3.69 0 0 1 5.73 1h14.54A3.69 3.69 0 0 1 24 4.64V34.5z"/><path fill="#0B1F35" d="M0 34h26v1H0z"/><path fill="#0B1F35" d="M6 6h14v9H6zm3 12h8v3H9z" opacity=".3"/><path fill="#0B1F35" d="M31.5 31.86a3.54 3.54 0 0 1-3.5-3.65V14h-4.61v-1H29v15.21a2.5 2.5 0 1 0 5 0V10.37l-4.84-4.5.68-.73L35 9.93v18.28a3.54 3.54 0 0 1-3.5 3.65z"/></svg>