<svg xmlns="http://www.w3.org/2000/svg" width="24" height="24" viewBox="0 0 24 24"><path fill="none" d="M0 0h24v24H0z"/><path fill="#0B1F35" d="M16 22.5h-1v-19A1.5 1.5 0 0 0 13.5 2h-9A1.5 1.5 0 0 0 3 3.5v19H2v-19A2.5 2.5 0 0 1 4.5 1h9A2.5 2.5 0 0 1 16 3.5v19z"/><path fill="#0B1F35" d="M1 22h16v1H1z"/><path fill="#0B1F35" d="M5 4h8v6H5z" opacity=".3"/><path fill="#0B1F35" d="M20.5 21a2.5 2.5 0 0 1-2.5-2.5V10h-2.5V9H19v9.5a1.5 1.5 0 0 0 3 0V7.21l-2.92-2.92.71-.71L23 6.8v11.7a2.5 2.5 0 0 1-2.5 2.5z"/></svg>