<?xml version="1.0" encoding="UTF-8"?>
<svg width="24px" height="24px" viewBox="0 0 24 24" version="1.1" xmlns="http://www.w3.org/2000/svg" xmlns:xlink="http://www.w3.org/1999/xlink">
    <!-- Generator: Sketch 48.2 (47327) - http://www.bohemiancoding.com/sketch -->
    <title>icon_card-accounts-list_m_white</title>
    <desc>Created with Sketch.</desc>
    <defs></defs>
    <g id="Page-1" stroke="none" stroke-width="1" fill="none" fill-rule="evenodd">
        <g id="icon_card-accounts-list_m_white">
            <rect id="ph" x="0" y="0" width="24" height="24"></rect>
            <path d="M18,7 C18.5003214,7.00540935 18.9045906,7.40967863 18.91,7.91 L18.91,16.08 C18.9100298,16.5842222 18.5041924,16.9945193 18,17 L5.93,17 C5.68427281,17.0026711 5.44768998,16.9069233 5.27298763,16.7340995 C5.09828529,16.5612756 4.99998548,16.3257417 5,16.08 L5,7.91 C5.0026378,7.66599625 5.10210509,7.4330358 5.27651708,7.2623746 C5.45092907,7.09171341 5.68599657,6.99733337 5.93,7 L18,7 Z M18,6 L5.93,6 C5.41998013,5.99465918 4.9290103,6.19353052 4.56647851,6.55230551 C4.20394671,6.9110805 3.99997204,7.39995216 4,7.91 L4,16.08 C3.99729236,16.5917791 4.20008556,17.083236 4.56291185,17.4441824 C4.92573814,17.8051287 5.41824186,18.0053662 5.93,18 L18,18 C19.0548639,18 19.91,17.1448639 19.91,16.09 L19.91,7.91 C19.91,6.85513613 19.0548639,6 18,6 Z" id="Shape" fill="#FFFFFF" fill-rule="nonzero"></path>
            <polygon id="Shape" fill="#FFFFFF" fill-rule="nonzero" opacity="0.4" points="4.13 8.99 19.85 8.99 19.85 11 4.13 11"></polygon>
        </g>
    </g>
</svg>