<svg width="24" height="24" viewBox="0 0 24 24" xmlns="http://www.w3.org/2000/svg"><g fill="none" fill-rule="evenodd"><path d="M0 0h24v24H0z"/><path d="M18 7c.5.005.905.41.91.91v8.17A.92.92 0 0 1 18 17H5.93a.92.92 0 0 1-.93-.92V7.91A.92.92 0 0 1 5.93 7H18zm0-1H5.93A1.91 1.91 0 0 0 4 7.91v8.17A1.91 1.91 0 0 0 5.93 18H18a1.91 1.91 0 0 0 1.91-1.91V7.91A1.91 1.91 0 0 0 18 6z" fill="#FFF" fill-rule="nonzero"/><path fill="#FFF" fill-rule="nonzero" opacity=".4" d="M4.13 8.99h15.72V11H4.13z"/></g></svg>