<svg xmlns="http://www.w3.org/2000/svg" width="48" height="48" viewBox="0 0 48 48" fill="none"><rect width="48" height="48" fill="none"/><g opacity="0.6"><path d="M7.5 3.5C7.5 1.84315 8.84315 0.5 10.5 0.5H30.7927L40.6113 10.3285C41.1732 10.891 41.4889 11.6536 41.4889 12.4487V44.5C41.4889 46.1569 40.1457 47.5 38.4889 47.5H10.5C8.84314 47.5 7.5 46.1569 7.5 44.5V3.5Z" fill="#F3F4F5" stroke="#E7E9EB"/><path fill-rule="evenodd" clip-rule="evenodd" d="M41.9888 14L41.9888 11L30.9999 4.76137e-06L10.4999 4.87655e-06C8.56692 4.70756e-06 6.99991 1.56701 6.99991 3.5L6.99991 14L41.9888 14Z" fill="#6D7986"/><path opacity="0.6" d="M31 0L42 11H34.5C32.567 11 31 9.433 31 7.5V0Z" fill="white"/></g><path d="M33.5361 31.7336L25.9845 19.0898C25.5393 18.3458 24.4605 18.3458 24.0165 19.0898L16.4631 31.7336C16.0071 32.498 16.5573 33.4682 17.4477 33.4682H32.5509C33.4413 33.4682 33.9915 32.498 33.5355 31.7342L33.5361 31.7336ZM25.7781 23.222L25.7079 28.9058H24.2919L24.2217 23.222H25.7781ZM24.9999 31.484C24.4947 31.484 24.0987 31.088 24.0987 30.5828C24.0987 30.0776 24.4947 29.6816 24.9999 29.6816C25.119 29.679 25.2373 29.7005 25.3478 29.7449C25.4584 29.7892 25.5588 29.8555 25.643 29.9397C25.7272 30.0239 25.7935 30.1243 25.8378 30.2348C25.8822 30.3454 25.9037 30.4637 25.9011 30.5828C25.9011 31.088 25.5051 31.484 24.9999 31.484Z" fill="#EF3124"/></svg>