<svg xmlns="http://www.w3.org/2000/svg" width="41" height="34" viewBox="0 0 41 34"><g fill="none" fill-rule="evenodd"><path d="M-4-6h48v48H-4z"/><path fill="#FFF" d="M8 29H3.5C1.57 29 0 27.43 0 25.5v-22C0 1.57 1.57 0 3.5 0h32C37.43 0 39 1.57 39 3.5V20h-1V3.5C38 2.122 36.878 1 35.5 1h-32A2.503 2.503 0 0 0 1 3.5v22C1 26.878 2.122 28 3.5 28H8v1z"/><path fill="#FFF" d="M21 34V24h1.128l3.831 8.704h.086L29.864 24H31v10h-.92v-8.157h-.072l-3.58 8.108h-.855l-3.581-8.108h-.064V34zm13.918-2.697c.126 1.103 1.223 1.861 2.685 1.861 1.436 0 2.466-.804 2.466-1.868 0-.904-.658-1.489-2.14-1.855l-1.096-.279c-1.802-.445-2.56-1.197-2.56-2.499 0-1.549 1.337-2.659 3.284-2.659 1.835 0 3.191 1.084 3.291 2.546h-.918c-.145-1.024-1.07-1.715-2.399-1.715-1.376 0-2.327.758-2.327 1.801 0 .838.592 1.323 2.054 1.688l.95.239c1.981.494 2.792 1.278 2.792 2.634 0 1.675-1.376 2.798-3.476 2.798-1.982 0-3.41-1.09-3.524-2.692h.918zm-23 0c.126 1.103 1.223 1.861 2.685 1.861 1.436 0 2.466-.804 2.466-1.868 0-.904-.658-1.489-2.14-1.855l-1.096-.279c-1.802-.445-2.56-1.197-2.56-2.499 0-1.549 1.337-2.659 3.284-2.659 1.835 0 3.191 1.084 3.291 2.546h-.918c-.145-1.024-1.07-1.715-2.399-1.715-1.376 0-2.327.758-2.327 1.801 0 .838.592 1.323 2.054 1.688l.95.239c1.981.494 2.792 1.278 2.792 2.634 0 1.675-1.376 2.798-3.476 2.798-1.982 0-3.41-1.09-3.524-2.692h.918z" opacity=".3"/><path fill="#FFF" d="M19.5 15.111L.95 2.076l.575-.819L19.5 13.889 37.475 1.257l.575.819z" opacity=".4"/></g></svg>