<svg xmlns="http://www.w3.org/2000/svg" width="22" height="19" viewBox="0 0 22 19"><g fill="none" fill-rule="evenodd"><path d="M-1-2h24v24H-1z"/><path fill="#FFF" d="M4 16H1.5C.673 16 0 15.327 0 14.5v-13C0 .673.673 0 1.5 0h17c.827 0 1.5.673 1.5 1.5V11h-1V1.5a.5.5 0 0 0-.5-.5h-17a.5.5 0 0 0-.5.5v13a.5.5 0 0 0 .5.5H4v1z"/><path fill="#FFF" d="M11 19v-6h1.077l1.886 4.557h.07L15.923 13H17v6h-.855v-4.333h-.058l-1.739 4.158h-.698l-1.738-4.158h-.058V19zm7.261-1.188a2.74 2.74 0 0 0 1.379.416c.76 0 1.116-.38 1.116-.855 0-.499-.297-.772-1.069-1.058-1.034-.368-1.521-.938-1.521-1.628 0-.926.749-1.687 1.984-1.687.582 0 1.093.166 1.413.356l-.261.76a2.24 2.24 0 0 0-1.176-.332c-.617 0-.962.356-.962.784 0 .475.344.689 1.092.974.998.38 1.509.879 1.509 1.735 0 1.01-.784 1.723-2.151 1.723-.63 0-1.211-.155-1.616-.392l.263-.796zm-12 0a2.74 2.74 0 0 0 1.379.416c.76 0 1.116-.38 1.116-.855 0-.499-.297-.772-1.069-1.058-1.034-.368-1.521-.938-1.521-1.628 0-.927.749-1.687 1.985-1.687.582 0 1.093.166 1.413.356l-.261.76a2.24 2.24 0 0 0-1.176-.332c-.617 0-.962.356-.962.784 0 .475.344.689 1.092.974.998.38 1.509.879 1.509 1.735 0 1.01-.784 1.723-2.151 1.723-.629 0-1.211-.155-1.615-.392l.261-.796z" opacity=".3"/><path fill="#FFF" d="M10 8.606L.218 1.913l.564-.826L10 7.394l9.218-6.307.564.826z" opacity=".4"/></g></svg>