<svg width="24" height="24" viewBox="0 0 24 24" xmlns="http://www.w3.org/2000/svg"><g fill="none" fill-rule="evenodd"><path d="M0 0h24v24H0z"/><path d="M9.65 17l-1.2 2h7l-1.2-2h-4.6zm-.6-10l2.9 5 2.9-5h-5.8z" fill="#0B1F35" fill-rule="nonzero" opacity=".3"/><path d="M19.384 20.3l-4.79-8.303.293-.502 4.506-7.71c.11-.183.11-.287 0-.47C19.27 3.11 19.09 3 18.95 3H5.05c-.218 0-.376.088-.443.214-.11.184-.11.288.014.495L9.3 12.003l-.282.493-4.41 7.718c-.11.184-.11.288 0 .472.122.204.302.314.442.314h13.8c.225 0 .43-.1.57-.262.082-.155.072-.258-.036-.438zM18.85 22H5.05c-.5 0-1-.3-1.3-.8-.3-.5-.3-1 0-1.5l4.4-7.7-4.4-7.8c-.3-.5-.3-1 0-1.5.2-.4.7-.7 1.3-.7h13.9c.5 0 1 .3 1.3.8.3.5.3 1 0 1.5l-4.5 7.7 4.5 7.8c.3.5.3 1 0 1.5-.3.4-.8.7-1.4.7z" fill="#0B1F35" fill-rule="nonzero"/></g></svg>