<svg width="48" height="48" viewBox="0 0 48 48" xmlns="http://www.w3.org/2000/svg"><g fill="none" fill-rule="evenodd"><path d="M0 0h48v48H0z"/><g fill="#FFF" fill-rule="nonzero"><path d="M29.8 34.5H18.2l-2.9 5h17.4l-2.9-5zm-12.7-20l6.9 12 6.9-12H17.1z" opacity=".3"/><path d="M37.9 43.5H10.1c-.9 0-1.7-.5-2.2-1.2-.4-.8-.4-1.8.1-2.6l9.1-15.8L8 8.3c-.5-.8-.5-1.8 0-2.6.4-.7 1.2-1.2 2.1-1.2h27.7c.9 0 1.7.5 2.2 1.2.5.8.5 1.8 0 2.6l-9.1 15.8L40 39.7c.5.8.5 1.7 0 2.5-.4.8-1.2 1.3-2.1 1.3zm-27.8-38c-.5 0-1 .3-1.3.8-.3.5-.3 1 0 1.5L18.2 24 8.8 40.3c-.3.5-.3 1 0 1.5s.8.8 1.3.8h27.7c.5 0 1-.3 1.3-.8.3-.5.3-1 0-1.5l-9.4-16.2 9.4-16.2c.3-.5.3-1 0-1.5-.2-.6-.7-.9-1.2-.9H10.1z"/></g></g></svg>