<svg xmlns="http://www.w3.org/2000/svg" width="26" height="30" viewBox="0 0 26 30"><g fill="none" fill-rule="evenodd"><path d="M-5-3h36v36H-5z"/><path fill="#FFF" d="M23.6 30H2.4c-.7 0-1.4-.4-1.8-1-.4-.6-.4-1.4 0-2l6.9-12L.7 3C.3 2.4.3 1.6.7 1c.4-.6 1-1 1.8-1h21.1c.7 0 1.4.4 1.8 1 .4.6.4 1.4 0 2l-6.9 12 6.9 12c.4.6.4 1.4 0 2-.4.6-1.1 1-1.8 1zM2.4 1c-.3 0-.7.2-.9.5-.2.3-.2.7 0 1L8.7 15 1.5 27.5c-.2.3-.2.7 0 1 .2.3.6.5.9.5h21.1c.4 0 .7-.2.9-.5.2-.3.2-.7 0-1L17.3 15l7.2-12.5c.2-.3.2-.7 0-1-.2-.3-.6-.5-.9-.5H2.4z"/><path fill="#FFF" d="M17 22H9l-2.3 3.9h12.6zM8.7 8l4.3 7.4L17.3 8z" opacity=".3"/></g></svg>