<svg xmlns="http://www.w3.org/2000/svg" width="34" height="39" viewBox="0 0 34 39"><g fill="none" fill-rule="evenodd"><path d="M-7-4h48v48H-7z"/><path fill="#0B1F35" d="M22.8 30H11.2l-2.9 5h17.4zM10.1 10L17 22l6.9-12z" opacity=".3"/><path fill="#0B1F35" d="M30.9 39H3.1c-.9 0-1.7-.5-2.2-1.2-.4-.8-.4-1.8.1-2.6l9.1-15.8L1 3.8C.5 3 .5 2 1 1.2 1.4.5 2.2 0 3.1 0h27.7c.9 0 1.7.5 2.2 1.2.5.8.5 1.8 0 2.6l-9.1 15.8L33 35.2c.5.8.5 1.7 0 2.5-.4.8-1.2 1.3-2.1 1.3zM3.1 1c-.5 0-1 .3-1.3.8-.3.5-.3 1 0 1.5l9.4 16.2-9.4 16.3c-.3.5-.3 1 0 1.5s.8.8 1.3.8h27.7c.5 0 1-.3 1.3-.8.3-.5.3-1 0-1.5l-9.4-16.2 9.4-16.2c.3-.5.3-1 0-1.5-.2-.6-.7-.9-1.2-.9H3.1z"/></g></svg>