<svg xmlns="http://www.w3.org/2000/svg" width="24" height="24" viewBox="0 0 24 24"><g fill="#FFF"><path d="M16 2.024H4v17.952h12V2.024zm1 0v17.952a1 1 0 0 1-1 1H4a1 1 0 0 1-1-1V2.024a1 1 0 0 1 1-1h12a1 1 0 0 1 1 1z"/><path d="M16.697 4H20v18H8v-1.296H7V22a1 1 0 0 0 1 1h12a1 1 0 0 0 1-1V4a1 1 0 0 0-1-1h-3.303v1z" opacity=".3"/><path d="M7 14a1 1 0 0 0 1 1h1a1 1 0 1 0 0-2H8a1 1 0 0 0-1 1zm-1 0a2 2 0 0 1 2-2h1a2 2 0 1 1 0 4H8a2 2 0 0 1-2-2zm1-5a1 1 0 0 0 1 1h1a1 1 0 1 0 0-2H8a1 1 0 0 0-1 1zM6 9a2 2 0 0 1 2-2h1a2 2 0 1 1 0 4H8a2 2 0 0 1-2-2zm4.489 9.007a.5.5 0 1 0 0-1H6.607a.6.6 0 0 0-.391 1.055l.953.82a.5.5 0 0 0 .652-.759l-.135-.116h2.803z" opacity=".3"/></g></svg>