<svg xmlns="http://www.w3.org/2000/svg" width="24" height="24" viewBox="0 0 24 24"><rect width="24" height="24" fill="none"/><g fill="#0B1F35" transform="translate(3 1)"><path d="M13.697,3 L17,3 L17,21 L5,21 L5,19.704 L4,19.704 L4,21 C4,21.5522847 4.44771525,22 5,22 L17,22 C17.5522847,22 18,21.5522847 18,21 L18,3 C18,2.44771525 17.5522847,2 17,2 L13.697,2 L13.697,3 Z" opacity=".3"/><path fill-rule="nonzero" d="M14,1.024 L14,18.976 C14,19.5282847 13.5522847,19.976 13,19.976 L1,19.976 C0.44771525,19.976 0,19.5282847 0,18.976 L0,1.024 C0,0.47171525 0.44771525,0.024 1,0.024 L13,0.024 C13.5522847,0.024 14,0.47171525 14,1.024 Z M13,1.024 L1,1.024 L1,18.976 L13,18.976 L13,1.024 Z"/><path fill-rule="nonzero" d="M3 13C3 11.8954305 3.8954305 11 5 11L6 11C7.1045695 11 8 11.8954305 8 13 8 14.1045695 7.1045695 15 6 15L5 15C3.8954305 15 3 14.1045695 3 13zM4 13C4 13.5522847 4.44771525 14 5 14L6 14C6.55228475 14 7 13.5522847 7 13 7 12.4477153 6.55228475 12 6 12L5 12C4.44771525 12 4 12.4477153 4 13zM3 8C3 6.8954305 3.8954305 6 5 6L6 6C7.1045695 6 8 6.8954305 8 8 8 9.1045695 7.1045695 10 6 10L5 10C3.8954305 10 3 9.1045695 3 8zM4 8C4 8.55228475 4.44771525 9 5 9L6 9C6.55228475 9 7 8.55228475 7 8 7 7.44771525 6.55228475 7 6 7L5 7C4.44771525 7 4 7.44771525 4 8z" opacity=".3"/><path d="M7.489,17.007 C7.76514237,17.007 7.989,16.7831424 7.989,16.507 C7.989,16.2308576 7.76514237,16.007 7.489,16.007 L3.607,16.007 C3.35609199,16.0070503 3.13171075,16.16322 3.04451596,16.3984898 C2.95732116,16.6337596 3.02572808,16.8984414 3.216,17.062 L4.169,17.882 C4.37859206,18.0620448 4.69445517,18.0380921 4.8745,17.8285 C5.05454483,17.6189079 5.03059206,17.3030448 4.821,17.123 L4.686,17.007 L7.489,17.007 Z" opacity=".3"/></g></svg>