<svg xmlns="http://www.w3.org/2000/svg" width="44" height="38" viewBox="0 0 44 38"><g fill="none" fill-rule="evenodd"><path d="M-2-5h48v48H-2z"/><path fill="#FFF" d="M7.5 16h36v4h-36zM13 28h8v4h-8z" opacity=".3"/><path fill="#FFF" d="M39.7 10H37V4.2C37 1.9 35.1 0 32.7 0H4.3C1.9 0 0 1.9 0 4.2v18.6C0 25.1 1.9 27 4.3 27H7v6.6C7 36 8.9 38 11.3 38h28.4c2.4 0 4.3-2 4.3-4.4V14.4c0-2.4-1.9-4.4-4.3-4.4zM4.3 26C2.5 26 1 24.6 1 22.8V4.2C1 2.4 2.5 1 4.3 1h28.4C34.5 1 36 2.4 36 4.2V10H11.3C8.9 10 7 12 7 14.4V26H4.3zM43 33.6c0 1.9-1.5 3.4-3.3 3.4H11.3C9.5 37 8 35.5 8 33.6V14.4c0-1.9 1.5-3.4 3.3-3.4h28.4c1.8 0 3.3 1.5 3.3 3.4v19.2z"/></g></svg>