<svg xmlns="http://www.w3.org/2000/svg" width="24" height="24" viewBox="0 0 24 24"><g fill="none" fill-rule="evenodd"><path d="M0 0h24v24H0z"/><path fill="#0B1F35" d="M4.5 11h19v2h-19zM8 16h4v2H8z" opacity=".3"/><path fill="#0B1F35" d="M21.5 7H20V4.5C20 3.1 18.9 2 17.5 2h-15C1.1 2 0 3.1 0 4.5v10C0 15.9 1.1 17 2.5 17H4v2.5C4 20.9 5.1 22 6.5 22h15c1.4 0 2.5-1.1 2.5-2.5v-10C24 8.1 22.9 7 21.5 7zM4 9.5V16H2.5c-.8 0-1.5-.7-1.5-1.5v-10C1 3.7 1.7 3 2.5 3h15c.8 0 1.5.7 1.5 1.5V7H6.5C5.1 7 4 8.1 4 9.5zm19 10c0 .8-.7 1.5-1.5 1.5h-15c-.8 0-1.5-.7-1.5-1.5v-10C5 8.7 5.7 8 6.5 8h15c.8 0 1.5.7 1.5 1.5v10z"/></g></svg>