<svg xmlns="http://www.w3.org/2000/svg" width="24" height="20" viewBox="0 0 24 20"><g fill="none" fill-rule="evenodd"><path d="M0-2h24v24H0z"/><path fill="#FFF" d="M4.5 9h19v2h-19zM8 14h4v2H8z" opacity=".3"/><path fill="#FFF" d="M21.5 5H20V2.5C20 1.1 18.9 0 17.5 0h-15C1.1 0 0 1.1 0 2.5v10C0 13.9 1.1 15 2.5 15H4v2.5C4 18.9 5.1 20 6.5 20h15c1.4 0 2.5-1.1 2.5-2.5v-10C24 6.1 22.9 5 21.5 5zM4 7.5V14H2.5c-.8 0-1.5-.7-1.5-1.5v-10C1 1.7 1.7 1 2.5 1h15c.8 0 1.5.7 1.5 1.5V5H6.5C5.1 5 4 6.1 4 7.5zm19 10c0 .8-.7 1.5-1.5 1.5h-15c-.8 0-1.5-.7-1.5-1.5v-10C5 6.7 5.7 6 6.5 6h15c.8 0 1.5.7 1.5 1.5v10z"/></g></svg>