<svg xmlns="http://www.w3.org/2000/svg" xmlns:xlink="http://www.w3.org/1999/xlink" width="18" height="22" viewBox="0 0 18 22"><defs><path id="a" d="M9 1h6v3H9z"/><mask id="b" width="6" height="3" x="0" y="0" fill="#fff"><use xlink:href="#a"/></mask></defs><g fill="none" fill-rule="evenodd" transform="translate(-3 -1)"><use stroke="#FFF" stroke-width="2" mask="url(#b)" xlink:href="#a"/><path fill="#FFF" d="M6 21h3v2H6zm9 0h3v2h-3z" opacity=".3"/><path fill="#FFF" d="M5.5 22A2.503 2.503 0 0 1 3 19.5v-14C3 4.122 4.121 3 5.5 3h13C19.879 3 21 4.122 21 5.5v14c0 1.378-1.121 2.5-2.5 2.5h-13zM4 5.5v14c0 .827.673 1.5 1.5 1.5h13c.827 0 1.5-.673 1.5-1.5v-14c0-.827-.673-1.5-1.5-1.5h-13C4.673 4 4 4.673 4 5.5z"/><path fill="#FFF" d="M9 7h1v11H9zm5 0h1v11h-1z" opacity=".3"/></g></svg>