<svg xmlns="http://www.w3.org/2000/svg" width="36" height="46" viewBox="0 0 36 46"><g fill="none" fill-rule="evenodd"><path d="M-6-1h48v48H-6z" opacity=".175"/><path fill="#0B1F35" d="M0 6.415v32.27c0 1.854 1.676 4.29 3.666 4.29h28.668c1.99 0 3.666-2.436 3.666-4.29V6.415C36 4.56 34.324 3 32.334 3H3.666C1.676 3 0 4.561 0 6.415zm34.953 32.27c0 1.366-1.152 3.314-2.619 3.314H3.666c-1.467 0-2.619-1.948-2.619-3.314V6.415c0-1.366 1.152-2.44 2.619-2.44h28.668c1.467 0 2.619 1.074 2.619 2.44v32.27z"/><path fill="#0B1F35" d="M13 3h10V1H13v2zm-1-3h12v4H12V0zM7 45h4v-2H7v2zm-1-3h6v4H6v-4zm19 3h4v-2h-4v2zm-1-3h6v4h-6v-4z"/><path fill="#0B1F35" d="M8 10.867h2v25.266H8zm9 0h2v25.266h-2zm9 0h2v25.266h-2z" opacity=".3"/></g></svg>