<svg xmlns="http://www.w3.org/2000/svg" xmlns:xlink="http://www.w3.org/1999/xlink" width="25" height="33" viewBox="0 0 25 33"><defs><path id="a" d="M14 1h7v3h-7z"/><mask id="d" width="7" height="3" x="0" y="0" fill="#fff"><use xlink:href="#a"/></mask><path id="b" d="M9 32h4v2H9z"/><mask id="e" width="4" height="2" x="0" y="0" fill="#fff"><use xlink:href="#b"/></mask><path id="c" d="M23 32h4v2h-4z"/><mask id="f" width="4" height="2" x="0" y="0" fill="#fff"><use xlink:href="#c"/></mask></defs><g fill="none" fill-rule="evenodd" transform="translate(-5 -1)"><path d="M0 0h36v36H0z" opacity=".1"/><path fill="#FFF" d="M7.5 33A2.503 2.503 0 0 1 5 30.5v-25C5 4.121 6.122 3 7.5 3h20C28.878 3 30 4.121 30 5.5v25c0 1.379-1.122 2.5-2.5 2.5h-20zM6 5.5v25c0 .827.673 1.5 1.5 1.5h20c.827 0 1.5-.673 1.5-1.5v-25c0-.827-.673-1.5-1.5-1.5h-20C6.673 4 6 4.673 6 5.5z"/><use stroke="#FFF" stroke-width="2" mask="url(#d)" xlink:href="#a"/><use stroke="#FFF" stroke-width="2" mask="url(#e)" xlink:href="#b"/><use stroke="#FFF" stroke-width="2" mask="url(#f)" xlink:href="#c"/><path fill="#FFF" d="M11 10h1v17h-1zm6 0h1v17h-1zm6 0h1v17h-1z" opacity=".3"/></g></svg>