<svg xmlns="http://www.w3.org/2000/svg" width="24" height="24" viewBox="0 0 24 24"><g fill="none" fill-rule="evenodd"><path d="M0 0h24v24H0z"/><g fill="#0B1F35"><path d="M14 1v5.833L6 4l8-3zm1 9h-1V1h1v9z" opacity=".3"/><path fill-rule="nonzero" d="M22.994 22.229l-8.074-12.5-.42-.65-.42.65-8.074 12.5.84.542 8.074-12.5h-.84l8.074 12.5z"/><path fill-rule="nonzero" d="M0 23h24v-1H0z"/><path fill-rule="nonzero" d="M10.412 16.735L7.82 12.723l-.425-.658-.418.662L.98 22.233l.846.534 5.997-9.506-.843.004 2.592 4.012z"/></g></g></svg>