<svg xmlns="http://www.w3.org/2000/svg" width="36" height="36" viewBox="0 0 36 36"><path fill="none" d="M0 0h36v36H0z"/><g fill="#fff"><path d="M29.84 23.18l-.74-.67a15 15 0 0 0 0-20.18l.74-.67a16 16 0 0 1 0 21.52zM25.5 19l-.75-.66a9.09 9.09 0 0 0-.12-12.11l.74-.67A10.09 10.09 0 0 1 25.5 19zm-15 0a10.09 10.09 0 0 1 .13-13.44l.74.67a9.09 9.09 0 0 0-.12 12.11zm-4.34 4.18a16 16 0 0 1 0-21.52l.74.68a15 15 0 0 0 0 20.18z"/><g opacity=".4"><path d="M26.96 34.43l-14.38-9.34.54-.84 13.03 8.46-8.52-20.39.92-.39 9.15 21.89-.74.61z"/><circle cx="18" cy="12.01" r="3"/><path d="M9.22 34.43l-.74-.61 9.15-21.89.92.39-8.52 20.39 13.03-8.46.54.84-14.38 9.34z"/></g></g></svg>