<svg xmlns="http://www.w3.org/2000/svg" width="24" height="24" viewBox="0 0 24 24"><path fill="none" d="M0 0h24v24H0z"/><g fill="#fff"><path d="M20.14 15.9l-.74-.67a10 10 0 0 0 0-13.45l.74-.67a11 11 0 0 1 0 14.79z"/><path d="M17.27 13.11l-.75-.66a6 6 0 0 0-.08-8l.74-.67a7 7 0 0 1 .09 9.33zm-10.42 0a7 7 0 0 1 .09-9.33l.74.68a6 6 0 0 0-.08 8z"/><path d="M3.86 15.9a11 11 0 0 1 0-14.8l.74.68a10 10 0 0 0 0 13.45z"/><g opacity=".4"><path d="M17.88 23.43L8.4 17.27l.54-.84 8.13 5.27L11.6 8.61l.92-.39 6.1 14.59-.74.62z"/><circle cx="12" cy="8.5" r="2"/><path d="M6.24 23.43l-.74-.62 6.1-14.59.92.39L7.05 21.7l8.13-5.27.54.84-9.48 6.16z"/></g></g></svg>