<svg width="12px" height="12px" viewBox="0 0 12 12" version="1.1" xmlns="http://www.w3.org/2000/svg"><g stroke="none" stroke-width="1" fill="none" fill-rule="evenodd"><polygon points="0 0 12 0 12 12 0 12"/><circle stroke-opacity="0.9" stroke="#0B1F35" cx="6" cy="6" r="4.75"/><path d="M6.5164768,5.6575 L6.5164768,3.995 C6.51373478,3.72081223 6.29067828,3.49998629 6.0164768,3.5 C5.7384768,3.5 5.5164768,3.722 5.5164768,3.995 L5.5164768,5.81 C5.49233717,5.90144813 5.49476538,5.99788265 5.5234768,6.088 C5.5619768,6.3055 5.7454768,6.478 5.9729768,6.498 L7.8679768,7.5925 C8.10732598,7.73044245 8.41315865,7.64884236 8.5519768,7.41 C8.61848969,7.29502547 8.63646943,7.1582939 8.60194121,7.03003281 C8.56741298,6.90177171 8.48322066,6.79254513 8.3679768,6.7265 L6.5164768,5.6575 Z" fill="#0B1F35" fill-rule="nonzero" opacity="0.3"/></g></svg>