<?xml version="1.0" encoding="UTF-8"?>
<svg width="12px" height="12px" viewBox="0 0 12 12" version="1.1" xmlns="http://www.w3.org/2000/svg" xmlns:xlink="http://www.w3.org/1999/xlink">
    <!-- Generator: Sketch 49.3 (51167) - http://www.bohemiancoding.com/sketch -->
    <title>icon_clock_xs_white</title>
    <desc>Created with Sketch.</desc>
    <defs></defs>
    <g id="Page-1" stroke="none" stroke-width="1" fill="none" fill-rule="evenodd">
        <g id="icon_clock_xs_white">
            <polygon id="Shape" points="0 0 12 0 12 12 0 12"></polygon>
            <circle id="Oval" stroke-opacity="0.9" stroke="#FFFFFF" cx="6" cy="6" r="4.75"></circle>
            <path d="M6.5,5.6575 L6.5,3.995 C6.49725799,3.72081223 6.27420148,3.49998629 6,3.5 C5.722,3.5 5.5,3.722 5.5,3.995 L5.5,5.81 C5.47586037,5.90144813 5.47828858,5.99788265 5.507,6.088 C5.5455,6.3055 5.729,6.478 5.9565,6.498 L7.8515,7.5925 C8.09084918,7.73044245 8.39668186,7.64884236 8.5355,7.41 C8.60201289,7.29502547 8.61999263,7.1582939 8.58546441,7.03003281 C8.55093619,6.90177171 8.46674386,6.79254513 8.3515,6.7265 L6.5,5.6575 Z" id="Shape" fill="#FFFFFF" fill-rule="nonzero" opacity="0.3"></path>
        </g>
    </g>
</svg>