<svg xmlns="http://www.w3.org/2000/svg" width="24" height="24" version="1" viewBox="0 0 24 24"><path fill="#4B411C" d="M11.927 17.207s.513-.44.513-1.173c0-.733-.66-1.247-1.393-1.32-.587-.073-1.613 0-1.907 0-.293 0-.733 0-1.027-.367l.88-.147c.367-.073 1.1-.367 1.54-.367 0 0-.147-.22-.513-.22-.22 0-.293.073-.44.147-.22 0-.587.073-.807-.367 0 0 .293.22.587.147.22-.073.293-.147.367-.22.147-.073.293-.147.44-.147.147 0 .293 0 .44.147.073.073.367.073.22-.073a.977.977 0 0 0-.733-.293c-.587 0-1.613.147-1.98.293-.22.073-.44.22-.513.367 0 .073-.073.073-.293.293 0-.367.147-1.32.587-1.687.44-.44 1.687-.733 2.127-.807 0 0-.147-.293 0-.44.22-.22.88-.733 4.84-.733 0 0-.22.147-.293.293 0 0 1.54.073 2.42.513.147.073.44.073.513-.513l-.22-.147s0-.147.073-.22c.073-.073 0-.147-.073-.073-.147 0-.147.073-.147.073s-.22.073-.22-.073c0-.073-.22-.44-.733-.513 0 0 .22-.367.807-.293 0 0 0 .22.147.147.147 0 .293-.147.293 0s.073.367.367 0c0 0 .293.147.587.073.293-.073.513-.293.587-.733 0-.073 0-.147.073-.22.073-.073.147-.147 0-.293s-.733-.44-.953-.587c-.22-.147-.66-.293-.66-1.173s-.293-1.393-1.393-2.347v.293s-.293-.367-1.1-.587c0 0 .147-.367.147-.587s-.073-.367-.367-.293c-.293.073-1.32.44-1.687.513-.293.073-2.713.88-4.107 2.273 0 0 .367-.88 1.027-1.76-.517.147-.957.367-1.47.587-.733 1.027-1.687 3.08-1.687 4.767 0 0-.44-1.467-.073-3.593-.513.44-.953.953-1.32 1.466-.073 1.173-.073 2.787.88 5.06 0 0-1.027-.733-1.907-3.153-.293.733-.44 1.54-.513 2.42.807 1.54 2.053 3.007 4.473 4.327 0 0-1.98-.293-4.253-1.98.147.953.513 1.76 1.027 2.567 1.247.587 3.153 1.247 5.867 1.1 0 0-1.467.807-4.473.587 0 0 .513.66 1.907 1.32 1.247.587 2.933.22 3.447-.147.66-.44 1.393-1.54 1.027-2.86-.002-.001-.295.513-.955.733zm4.986-10.56c0 .22-.073.22-.22.147-.073-.073-.147-.147-.22-.147-.073 0-.147.073-.073.147.073.073.22.367.147.587 0 0-.367-.66-.733-.953-.293-.22.22-.147.293-.147.293 0 .367.073.44.073.07 0 .274.067.356-.44h.011v.733zm-3.593-2.2c.367-.587.88-.88 1.027-.953.147-.073.22-.073.147 0-.147.147-.367.513-.513.66 0 .073 0 .147.073.147.073.073.073.147 0 .147-.147 0-.367.073-.587.147-.147.072-.22-.075-.147-.148zm-2.493 4.18c.587-1.393 1.833-2.86 2.64-3.52-.953 1.173-1.613 2.787-1.54 2.86.073-.074.293-.074.44-.147.147-.073.147.073.147.147-.147.44-.367 1.027-.293 1.32.073.293.807.44.807.44-.147 0-.953 0-1.1.073-.22 0-.513.073-.44-.293.072-.44.292-1.247.292-1.247-.22.073-.66.293-.807.367-.146.146-.22.073-.146 0z"/><path fill="#4B411C" d="M15.593 14.64c.293.147.88.293.88.293-.147-.147-.513-.587-.66-.733a5.846 5.846 0 0 0-1.687-1.32c-1.026-.513-2.126-.513-2.273-.587-.147 0-.44 0-.293-.293.22-.293 1.32-1.173 1.32-1.173-.22 0-1.32.073-1.613.147-.294.073-.367-.074-.367-.294 0 0-.66.587-.293.88.073.073.147.073.367 0 .147-.073.513-.147.587-.22 0 0-.293.44-.293.587-.073.147-.073.293.22.367.293.073 1.687.513 2.567 1.173.88.587 1.76 1.393 2.493 2.787.66 1.393.293 2.493.22 2.64.367-.293.807-.66 1.173-1.027-.367-1.173-1.32-1.907-1.833-2.567-.221-.293-.515-.66-.515-.66zm3.667 1.54a3.74 3.74 0 0 0 .66-1.32c-.88-.733-2.347-1.98-4.253-2.42 0 0 2.64 1.027 3.593 3.74z"/><path fill="#4B411C" d="M13.1 20.213c.587-.073 1.1-.22 1.613-.367.293-.66.587-2.2.293-3.447.001.001.074 2.861-1.906 3.814zm5.573-8.946c.513 0 .733-.44.733-.44-.513.147-1.247.22-1.833.073 0 0 1.467.66 2.86 1.98.073-.367.073-.66.073-1.027v-.073c-.219-.073-1.833-.513-1.833-.513z"/><path fill="#4B411C" d="M12 1C5.913 1 1 5.913 1 12s4.913 11 11 11 11-4.913 11-11S18.087 1 12 1zm0 21.267c-5.647 0-10.267-4.62-10.267-10.267S6.353 1.733 12 1.733 22.267 6.353 22.267 12 17.647 22.267 12 22.267z"/></svg>