<svg xmlns="http://www.w3.org/2000/svg" width="16" height="17" viewBox="0 0 16 17"><g fill="#FFF"><path d="M7.947 12.077s.373-.303.373-.806c0-.503-.48-.857-1.013-.907-.427-.05-1.173 0-1.387 0-.213 0-.533 0-.747-.252l.64-.1c.267-.05.8-.253 1.12-.253 0 0-.107-.151-.373-.151-.16 0-.213.05-.32.1-.16 0-.427.05-.587-.251 0 0 .213.15.427.1.16-.05.213-.1.267-.15.107-.05.213-.101.32-.101.107 0 .213 0 .32.1.053.05.267.05.16-.05a.732.732 0 0 0-.534-.202c-.427 0-1.173.102-1.44.202-.16.05-.32.15-.373.252 0 .05-.053.05-.213.201 0-.252.107-.907.427-1.159.319-.301 1.226-.502 1.546-.553 0 0-.107-.201 0-.303.16-.15.64-.503 3.52-.503 0 0-.16.101-.213.201 0 0 1.12.05 1.76.353.106.05.32.05.373-.353l-.16-.1s0-.102.053-.152 0-.1-.053-.05c-.107 0-.107.05-.107.05s-.16.05-.16-.05c0-.05-.16-.302-.533-.352 0 0 .16-.252.587-.201 0 0 0 .15.107.1.107 0 .213-.1.213 0 0 .102.053.253.267 0 0 0 .213.102.427.05.214-.05.373-.2.427-.503 0-.05 0-.1.053-.15.053-.05.107-.102 0-.202-.107-.101-.533-.302-.693-.403-.16-.101-.48-.201-.48-.806 0-.604-.213-.957-1.013-1.612v.201s-.213-.252-.8-.403c0 0 .107-.252.107-.403 0-.152-.053-.253-.267-.202-.213.05-.96.303-1.227.353-.215.05-1.975.604-2.988 1.562 0 0 .267-.605.747-1.21-.374.101-.694.252-1.067.403-.533.706-1.227 2.116-1.227 3.275 0 0-.32-1.008-.053-2.468a5.817 5.817 0 0 0-.96 1.007c-.053.806-.053 1.914.64 3.475 0 0-.747-.503-1.387-2.165-.213.503-.32 1.057-.373 1.662.587 1.058 1.493 2.065 3.253 2.972 0 0-1.44-.201-3.093-1.36.107.654.373 1.209.747 1.763.907.403 2.293.857 4.267.756 0 0-1.067.554-3.253.403 0 0 .373.453 1.387.907.907.403 2.133.15 2.507-.101.48-.303 1.013-1.058.747-1.965-.002 0-.215.352-.695.504zm3.04-7.506c.213 0 .267.05.32.05.051 0 .199.045.259-.302h.008v.503c0 .151-.053.151-.16.101-.053-.05-.107-.1-.16-.1-.053 0-.107.05-.054.1s.16.253.107.404c0 0-.267-.454-.533-.655-.214-.15.159-.1.213-.1zM8.96 3.312a1.94 1.94 0 0 1 .747-.654c.107-.05.16-.05.107 0-.107.1-.267.352-.373.453 0 .05 0 .101.053.101.053.05.053.101 0 .101-.107 0-.267.05-.427.101-.107.05-.16-.052-.107-.102zM7.147 6.183c.427-.956 1.333-1.964 1.92-2.418-.693.806-1.173 1.915-1.12 1.965.053-.051.213-.051.32-.101.107-.05.107.05.107.1-.107.303-.267.706-.213.908.053.2.587.302.587.302-.107 0-.693 0-.8.05-.16 0-.373.05-.32-.201.052-.303.212-.857.212-.857-.16.05-.48.201-.587.252-.106.1-.16.05-.106 0z"/><path d="M10.613 10.313c.213.101.64.201.64.201-.107-.1-.373-.403-.48-.503-.32-.352-.8-.705-1.227-.907C8.8 8.752 8 8.752 7.893 8.701c-.107 0-.32 0-.213-.201.16-.201.96-.806.96-.806-.16 0-.96.05-1.173.101-.214.05-.267-.05-.267-.202 0 0-.48.404-.213.605.053.05.107.05.267 0 .106-.05.373-.101.426-.151 0 0-.213.302-.213.403-.054.1-.054.201.16.251.213.05 1.227.352 1.867.806.64.403 1.28.956 1.813 1.914.48.957.213 1.712.16 1.813.267-.2.587-.453.853-.705-.267-.806-.96-1.31-1.333-1.763-.16-.2-.374-.453-.374-.453zm2.667 1.058a2.52 2.52 0 0 0 .48-.907c-.64-.503-1.707-1.36-3.093-1.662 0 0 1.92.706 2.613 2.57z"/><path d="M8.8 14.141c.427-.05.8-.15 1.173-.252.213-.453.427-1.511.213-2.368.001.001.054 1.966-1.386 2.62zm4.053-6.144c.373 0 .533-.303.533-.303-.373.101-.907.151-1.333.05 0 0 1.067.454 2.08 1.36.053-.252.053-.453.053-.705v-.05a80.893 80.893 0 0 0-1.333-.352z"/><path d="M8 .944C3.573.944 0 4.32 0 8.5s3.573 7.556 8 7.556 8-3.375 8-7.556S12.427.944 8 .944zm0 14.608C3.893 15.552.533 12.38.533 8.5c0-3.879 3.36-7.052 7.467-7.052 4.107 0 7.467 3.173 7.467 7.052 0 3.879-3.36 7.052-7.467 7.052z"/></g></svg>