<svg xmlns="http://www.w3.org/2000/svg" width="30" height="32" viewBox="0 0 30 32"><g fill="#FFF" fill-rule="evenodd"><path d="M21.558 32h-17a4.505 4.505 0 0 1-4.5-4.5V8.294L8.292 0h13.266c2.481 0 4.5 2.019 4.5 4.5V10h-1V4.5c0-1.93-1.57-3.5-3.5-3.5H8.708l-7.65 7.706V27.5c0 1.93 1.57 3.5 3.5 3.5h17c1.93 0 3.5-1.57 3.5-3.5V26h1v1.5c0 2.481-2.019 4.5-4.5 4.5z"/><path d="M20 23h-1.252l-4.457-6.947-.291.012V23h-1v-8.983h1.253l4.456 6.935.291-.012v-6.923h1zm6.789 0c-1.094 0-2.008-.336-2.719-.999-.71-.659-1.069-1.526-1.069-2.576v-1.843c0-1.05.337-1.918.999-2.579.66-.659 1.527-.995 2.575-.995 1.047 0 1.88.246 2.475.732.571.466.875 1.071.904 1.802h-1.029a1.93 1.93 0 0 0-.648-1.257c-.396-.352-.968-.53-1.701-.53-.747 0-1.358.269-1.817.802-.453.528-.683 1.204-.683 2.011v1.851c0 .815.257 1.497.765 2.029.509.532 1.164.801 1.949.801.544 0 .998-.07 1.35-.208.36-.143.612-.302.77-.489l.024-2.55h-2.062v-.999h3.129v3.783c-.195.251-.574.544-1.11.81-.536.27-1.244.404-2.102.404zM5 19.99V23H4v-8.99h3.427c.956 0 1.698.247 2.228.741.53.494.793 1.421.793 2.228 0 .819-.264 1.791-.793 2.279s-1.271.732-2.228.732H5zm0-.985h2.427c.607 0 1.061-.188 1.359-.564.3-.376.449-.85.449-1.423 0-.573-.15-1.051-.452-1.434-.301-.383-.754-.575-1.356-.575H5v3.996z"/></g></svg>