<svg xmlns="http://www.w3.org/2000/svg" width="17" height="16" viewBox="0 0 17 16"><path fill="#FFF" fill-rule="evenodd" d="M13 4.706h-1V1.467c0-.29-.251-.526-.559-.526H4.707L1 4.431v.275H0V4.04L4.293 0h7.148C12.301 0 13 .658 13 1.467v3.239zM11.5 16h-10C.673 16 0 15.367 0 14.588h1c0 .26.224.47.5.47h10c.275 0 .5-.21.5-.47h1c0 .779-.673 1.412-1.5 1.412zm-3.005-5.266l.072.307h.024l.068-.298 1.27-4.155h1.234L9.18 12.235H7.979L6 6.588h1.234zm8.505.672c-.188.216-.48.409-.876.576-.398.17-.899.253-1.505.253-.77 0-1.4-.208-1.887-.626-.488-.416-.732-.958-.732-1.624V8.84c0-.664.235-1.205.704-1.623.469-.418 1.073-.629 1.811-.629.767 0 1.356.163 1.764.49.408.324.617.753.625 1.282l-.008.024h-1.191c-.024-.292-.13-.523-.321-.693-.191-.17-.469-.254-.835-.254-.387 0-.699.13-.935.39-.237.26-.355.594-.355 1.004v1.152c0 .418.122.756.368 1.016.245.26.576.39.991.39.295 0 .532-.027.71-.08a1.12 1.12 0 0 0 .407-.196V10.1h-1.117v-.763H17v2.07zM3.433 10.76a.638.638 0 0 0-.245-.525c-.164-.131-.45-.256-.86-.372-.715-.194-1.256-.425-1.621-.691C.34 8.904.158 8.54.158 8.076c0-.463.21-.842.629-1.136.42-.293.955-.44 1.607-.44.66 0 1.197.164 1.613.495.415.33.617.737.603 1.22l-.009.024H3.433a.806.806 0 0 0-.278-.635c-.186-.161-.446-.242-.781-.242-.322 0-.571.068-.747.202a.623.623 0 0 0-.265.516c0 .192.095.35.283.472.188.123.514.253.976.39.663.174 1.165.403 1.506.687.341.284.512.659.512 1.122 0 .485-.203.866-.608 1.145-.406.28-.941.42-1.607.42-.654 0-1.225-.159-1.712-.476-.487-.317-.724-.761-.71-1.334l.009-.023h1.172c0 .336.109.583.327.74.219.157.523.235.914.235.327 0 .578-.063.751-.19a.598.598 0 0 0 .258-.508z"/></svg>