<svg xmlns="http://www.w3.org/2000/svg" width="21" height="22" viewBox="0 0 21 22"><path fill="#FFF" fill-rule="evenodd" d="M19 7h-1V3c0-1.103-.897-2-2-2H6.707L2 5.707V6H1v-.707L6.293 0H16c1.654 0 3 1.346 3 3v4zm-3 15H4c-1.654 0-3-1.346-3-3v-1h1v1c0 1.103.897 2 2 2h12c1.103 0 2-.897 2-2v-1h1v1c0 1.654-1.346 3-3 3zm-6.153-6L7.539 9.2h1.267l1.495 5.068.101.451h.16l.047-.078.082-.37L12.192 9.2h1.268L11.147 16zm8.296 0c-.896 0-1.635-.26-2.198-.774-.561-.508-.845-1.179-.845-1.995v-1.463c0-.813.273-1.484.812-1.994C16.453 9.26 17.161 9 18.018 9c.893 0 1.584.202 2.054.6.453.383.687.785.712 1.4h-1.246c-.044-.353-.181-.557-.407-.771-.247-.234-.607-.353-1.071-.353-.49 0-.893.179-1.196.532-.299.35-.45.803-.45 1.35v1.47c0 .557.156 1.016.466 1.364.314.353.739.532 1.265.532.366 0 .654-.034.882-.107.23-.071.895-.407 1.017-.517L20 13h-2v-1h2.901v3.044c-.191.197-.533.435-.992.641-.462.208-1.056.315-1.766.315zM2.621 16c-.717 0-1.351-.191-1.883-.57A1.672 1.672 0 0 1 0 14.077h.983c.038.393.189.696.451.9.289.227.688.342 1.187.342.425 0 .761-.096.999-.286a.99.99 0 0 0 .379-.811c0-.339-.119-.616-.354-.824-.216-.189-.567-.358-1.075-.516-.808-.24-1.422-.524-1.826-.847-.38-.302-.564-.705-.564-1.232 0-.525.214-.945.653-1.282C1.284 9.175 1.874 9 2.588 9c.718 0 1.307.195 1.751.581.395.344.602.745.628 1.223h-.98a1.229 1.229 0 0 0-.378-.754c-.252-.242-.604-.364-1.046-.364-.42 0-.756.102-.997.303a1.026 1.026 0 0 0-.381.818c0 .315.14.574.416.77.237.17.627.342 1.19.524.745.213 1.311.494 1.683.834.352.32.53.75.53 1.276 0 .553-.206.976-.628 1.294-.435.329-1.025.495-1.755.495z"/></svg>