<svg xmlns="http://www.w3.org/2000/svg" width="18" height="18" version="1" viewBox="0 0 18 18"><path fill="#0B1F35" d="M14 5h-1V1.559A.56.56 0 0 0 12.441 1H5.707L2 4.707V5H1v-.707L5.293 0h7.148C13.301 0 14 .699 14 1.559V5zm-1.5 12h-10c-.827 0-1.5-.673-1.5-1.5h1a.5.5 0 0 0 .5.5h10c.275 0 .5-.225.5-.5h1c0 .827-.673 1.5-1.5 1.5zm-3.005-5.595l.072.326h.024l.068-.317L10.929 7h1.234l-1.983 6H8.979L7 7h1.234l1.261 4.405zm8.505.714c-.188.229-.48.434-.876.612-.398.18-.899.269-1.505.269-.77 0-1.4-.221-1.887-.665-.488-.442-.732-1.018-.732-1.726V9.392c0-.705.235-1.28.704-1.724S14.777 7 15.515 7c.767 0 1.356.173 1.764.52.408.345.617.8.625 1.363l-.008.025h-1.191c-.024-.31-.13-.556-.321-.736-.191-.18-.469-.27-.835-.27-.387 0-.699.138-.935.414-.237.276-.355.631-.355 1.067v1.224c0 .444.122.803.368 1.079.245.276.576.414.991.414.295 0 .532-.028.71-.084.179-.056.315-.125.407-.208V10.73h-1.117v-.81H18v2.199zm-13.567-.687a.696.696 0 0 0-.245-.557c-.164-.14-.45-.272-.86-.396-.715-.206-1.256-.451-1.621-.734-.367-.284-.549-.671-.549-1.164 0-.492.21-.895.629-1.207.42-.312.955-.468 1.607-.468.66 0 1.197.175 1.613.526.415.351.617.783.603 1.297l-.009.025H4.433a.88.88 0 0 0-.278-.675c-.186-.171-.446-.257-.781-.257-.322 0-.571.072-.747.215s-.265.325-.265.548c0 .204.095.371.283.501.188.131.514.269.976.415.663.185 1.165.428 1.506.73s.512.7.512 1.192c0 .515-.203.92-.608 1.217-.406.297-.941.445-1.607.445-.654 0-1.225-.168-1.712-.505s-.724-.809-.71-1.417l.009-.025h1.172c0 .357.109.62.327.786.219.167.523.25.914.25.327 0 .578-.067.751-.202a.65.65 0 0 0 .258-.54z"/></svg>