<svg xmlns="http://www.w3.org/2000/svg" width="24" height="24" version="1" viewBox="0 0 24 24"><path fill="#0B1F35" d="M20 8h-1V4c0-1.103-.897-2-2-2H7.707L3 6.707V7H2v-.707L7.293 1H17c1.654 0 3 1.346 3 3v4zm-3 15H5c-1.654 0-3-1.346-3-3v-1h1v1c0 1.103.897 2 2 2h12c1.103 0 2-.897 2-2v-1h1v1c0 1.654-1.346 3-3 3zm-6.153-6l-2.308-6.8h1.267l1.495 5.068.101.451h.16l.047-.078.082-.37 1.501-5.071h1.268L12.147 17zm8.296 0c-.896 0-1.635-.26-2.198-.774-.561-.508-.845-1.179-.845-1.995v-1.463c0-.813.273-1.484.812-1.994.541-.514 1.249-.774 2.106-.774.893 0 1.584.202 2.054.6.453.383.687.785.712 1.4h-1.246c-.044-.353-.181-.557-.407-.771-.247-.234-.607-.353-1.071-.353-.49 0-.893.179-1.196.532-.299.35-.45.803-.45 1.35v1.47c0 .557.156 1.016.466 1.364.314.353.739.532 1.265.532.366 0 .654-.034.882-.107.23-.071.895-.407 1.017-.517L21 14h-2v-1h2.901v3.044c-.191.197-.533.435-.992.641-.462.208-1.056.315-1.766.315zM3.621 17c-.717 0-1.351-.191-1.883-.57A1.672 1.672 0 0 1 1 15.077h.983c.038.393.189.696.451.9.289.227.688.342 1.187.342.425 0 .761-.096.999-.286a.99.99 0 0 0 .379-.811c0-.339-.119-.616-.354-.824-.216-.189-.567-.358-1.075-.516-.808-.24-1.422-.524-1.826-.847-.38-.302-.564-.705-.564-1.232 0-.525.214-.945.653-1.282.451-.346 1.041-.521 1.755-.521.718 0 1.307.195 1.751.581.395.344.602.745.628 1.223h-.98a1.229 1.229 0 0 0-.378-.754c-.252-.242-.604-.364-1.046-.364-.42 0-.756.102-.997.303a1.026 1.026 0 0 0-.381.818c0 .315.14.574.416.77.237.17.627.342 1.19.524.745.213 1.311.494 1.683.834.352.32.53.75.53 1.276 0 .553-.206.976-.628 1.294-.435.329-1.025.495-1.755.495z"/></svg>