<svg xmlns="http://www.w3.org/2000/svg" width="18" height="18" version="1" viewBox="0 0 18 18"><path fill="#0B1F35" d="M14 5h-1V1.559A.56.56 0 0 0 12.441 1H5.707L2 4.707V5H1v-.707L5.293 0h7.148C13.301 0 14 .699 14 1.559V5zm-1.5 12h-10c-.827 0-1.5-.673-1.5-1.5h1a.5.5 0 0 0 .5.5h10a.5.5 0 0 0 .5-.5h1c0 .827-.673 1.5-1.5 1.5zM7 12.073h3V13H6V7h1v5.073zm7.658-.641a.696.696 0 0 0-.245-.557c-.164-.14-.45-.272-.86-.396-.715-.206-1.256-.451-1.621-.734-.366-.283-.549-.671-.549-1.164 0-.492.21-.895.629-1.207.42-.312.955-.468 1.607-.468.66 0 1.197.175 1.613.526.415.351.616.783.603 1.297l-.009.025h-1.168a.88.88 0 0 0-.278-.675c-.186-.172-.446-.258-.781-.258-.322 0-.571.072-.747.215s-.265.326-.265.548c0 .204.095.371.283.501.188.131.514.269.976.415.663.185 1.165.428 1.506.73s.512.7.512 1.192c0 .515-.203.92-.608 1.217-.406.297-.941.445-1.607.445-.654 0-1.225-.168-1.712-.505s-.724-.809-.71-1.417l.009-.025h1.172c0 .357.109.62.327.786.219.167.523.25.914.25.327 0 .578-.067.751-.202a.646.646 0 0 0 .258-.539zM3.482 13l-1.18-2.36L1.123 13H0l1.706-3.026L.043 7h1.111l1.132 2.325L3.434 7h1.12L2.891 9.975 4.649 13z"/></svg>