<svg xmlns="http://www.w3.org/2000/svg" width="24" height="24" version="1" viewBox="0 0 24 24"><path fill="#0B1F35" d="M20 8h-1V4c0-1.103-.897-2-2-2H7.707L3 6.707V7H2v-.707L7.293 1H17c1.654 0 3 1.346 3 3v4zm-3 15H5c-1.654 0-3-1.346-3-3v-1h1v1c0 1.103.897 2 2 2h12c1.103 0 2-.897 2-2v-1h1v1c0 1.654-1.346 3-3 3zm-6-7h3v1h-4v-7h1v6zm7.616 1c-.717 0-1.351-.191-1.883-.57a1.673 1.673 0 0 1-.738-1.354h.983c.038.393.189.696.451.9.289.227.688.342 1.187.342.425 0 .761-.096.999-.286a.99.99 0 0 0 .379-.811c0-.339-.119-.616-.354-.824-.216-.189-.567-.358-1.075-.516-.808-.24-1.422-.524-1.826-.847-.379-.302-.563-.705-.563-1.232 0-.525.214-.945.653-1.282.451-.345 1.041-.52 1.755-.52.718 0 1.307.195 1.751.581.395.344.602.745.628 1.223h-.979a1.229 1.229 0 0 0-.378-.754c-.252-.242-.604-.364-1.046-.364-.42 0-.756.102-.997.303a1.026 1.026 0 0 0-.381.818c0 .315.14.574.416.77.237.17.627.342 1.19.524.745.213 1.311.494 1.683.834.352.32.53.75.53 1.276 0 .553-.206.976-.628 1.294-.436.329-1.027.495-1.757.495zM5.943 17l-1.471-2.913L3 17H1.832l2.011-3.531L1.884 10h1.153l1.413 2.875L5.887 10H7.05l-1.96 3.471L7.163 17z"/></svg>