<svg xmlns="http://www.w3.org/2000/svg" width="48" height="48" viewBox="0 0 48 48" fill="none"><rect width="48" height="48" fill="none"/><path d="M7.5 3.5C7.5 1.84315 8.84315 0.5 10.5 0.5H30.7927L40.6113 10.3285C41.1732 10.891 41.4889 11.6536 41.4889 12.4487V44.5C41.4889 46.1569 40.1457 47.5 38.4889 47.5H10.5C8.84314 47.5 7.5 46.1569 7.5 44.5V3.5Z" fill="#F3F4F5" stroke="#E7E9EB"/><path fill-rule="evenodd" clip-rule="evenodd" d="M41.9888 14L41.9888 11L30.9999 4.76137e-06L10.4999 4.87655e-06C8.56692 4.70756e-06 6.99991 1.56701 6.99991 3.5L6.99991 14L41.9888 14Z" fill="#F6BF65"/><path d="M11.3438 10H12.6172L13.8438 8.0625H13.9141L15.125 10H16.4688L14.6406 7.17969L16.4961 4.36328H15.1758L13.9883 6.35938H13.918L12.7422 4.36328H11.3555L13.1445 7.16016L11.3438 10ZM21.207 9.00781H18.6992V4.36328H17.5195V10H21.207V9.00781ZM22.0234 8.44141C22.0664 9.48438 22.9375 10.1445 24.2812 10.1445C25.6953 10.1445 26.5664 9.44922 26.5664 8.32422C26.5664 7.45312 26.0781 6.96484 24.9453 6.72266L24.2656 6.57812C23.6055 6.43359 23.3359 6.22656 23.3359 5.87109C23.3359 5.42969 23.7266 5.14453 24.3164 5.14453C24.8867 5.14453 25.3008 5.44531 25.3555 5.90625H26.4648C26.4297 4.91016 25.5508 4.21875 24.3086 4.21875C23.0078 4.21875 22.1523 4.91406 22.1523 5.96484C22.1523 6.82031 22.6562 7.34766 23.6836 7.56641L24.418 7.72656C25.1094 7.87891 25.3906 8.09375 25.3906 8.46484C25.3906 8.90234 24.957 9.21094 24.3438 9.21094C23.6797 9.21094 23.2188 8.91016 23.1641 8.44141H22.0234Z" fill="white"/><path fill-rule="evenodd" clip-rule="evenodd" d="M12 23C11.4477 23 11 23.4477 11 24C11 24.1365 11.0274 24.2667 11.0769 24.3852L11.0769 28.6148C11.0274 28.7333 11 28.8635 11 29C11 29.1365 11.0274 29.2667 11.0769 29.3852L11.0769 33.6148C11.0274 33.7333 11 33.8635 11 34C11 34.5523 11.4477 35 12 35H12.0769H19.3462H37C37.5523 35 38 34.5523 38 34V29V24C38 23.4477 37.5523 23 37 23H19.3462H12.0769H12ZM36 25H20.3462V28H36V25ZM36 30H20.3462V33H36V30ZM18.3462 30V33H13.0769L13.0769 30H18.3462ZM18.3462 25V28H13.0769L13.0769 25H18.3462Z" fill="#B6BCC3"/><path opacity="0.6" d="M31 0L42 11H34.5C32.567 11 31 9.433 31 7.5V0Z" fill="white"/></svg>