<svg xmlns="http://www.w3.org/2000/svg" width="16" height="16" viewBox="0 0 16 16"><path fill="#FFF" fill-rule="evenodd" d="M14 4.706h-1V1.467c0-.29-.251-.526-.559-.526H5.707L2 4.431v.275H1V4.04L5.293 0h7.148C13.301 0 14 .658 14 1.467v3.239zM12.5 16h-10c-.827 0-1.5-.633-1.5-1.412h1c0 .26.224.47.5.47h10c.275 0 .5-.21.5-.47h1c0 .779-.673 1.412-1.5 1.412zM7 11.363h3v.872H6V6.588h1zm7.658-.603a.638.638 0 0 0-.245-.525c-.164-.131-.45-.256-.86-.372-.715-.194-1.256-.425-1.621-.691-.366-.267-.549-.632-.549-1.096 0-.463.21-.842.629-1.136.42-.293.955-.44 1.607-.44.66 0 1.197.164 1.613.495.415.33.616.737.603 1.22l-.009.024h-1.168a.806.806 0 0 0-.278-.635c-.186-.162-.446-.243-.781-.243-.322 0-.571.068-.747.202a.624.624 0 0 0-.265.516c0 .192.095.35.283.472.188.123.514.253.976.39.663.174 1.165.403 1.506.687.341.284.512.66.512 1.122 0 .485-.203.866-.608 1.146-.406.28-.941.418-1.607.418-.654 0-1.225-.158-1.712-.475-.487-.317-.724-.761-.71-1.334l.009-.023h1.172c0 .336.109.583.327.74.219.157.523.235.914.235.327 0 .578-.063.751-.19a.596.596 0 0 0 .258-.507zM3.482 12.235l-1.18-2.22-1.179 2.22H0l1.706-2.848L.043 6.588h1.111l1.132 2.188 1.148-2.188h1.12l-1.663 2.8 1.758 2.847z"/></svg>