<svg xmlns="http://www.w3.org/2000/svg" width="30" height="30" version="1" viewBox="0 0 30 30"><path fill="#0B1F35" d="M19 28H6a4.005 4.005 0 0 1-3.998-3.874H2V8.293L8.293 2H19c2.206 0 4 1.794 4 4v5h-1V6c0-1.654-1.346-3-3-3H8.707L3 8.707V24c0 1.654 1.346 3 3 3h13c1.654 0 3-1.346 3-3h1c0 2.206-1.794 4-4 4z"/><path fill="#0B1F35" d="M15.034 20h3v1h-4v-7h1v6zm7.616 1c-.717 0-1.351-.191-1.883-.57a1.673 1.673 0 0 1-.738-1.354h.983c.038.393.189.696.451.9.289.227.688.342 1.187.342.425 0 .761-.096.999-.286a.99.99 0 0 0 .379-.811c0-.339-.119-.616-.354-.824-.216-.189-.567-.358-1.075-.516-.808-.24-1.422-.524-1.826-.847-.379-.302-.563-.705-.563-1.232 0-.525.214-.945.653-1.282.451-.345 1.041-.52 1.755-.52.718 0 1.307.195 1.751.581.395.344.602.745.628 1.223h-.979a1.229 1.229 0 0 0-.378-.754c-.252-.242-.604-.364-1.046-.364-.42 0-.756.102-.997.303a1.026 1.026 0 0 0-.381.818c0 .315.14.574.416.77.237.17.627.342 1.19.524.745.213 1.311.494 1.683.834.352.32.53.75.53 1.276 0 .553-.206.976-.628 1.294-.437.328-1.028.495-1.757.495zM9.977 21l-1.472-2.914L7.034 21H5.866l2.01-3.531L5.917 14h1.154l1.413 2.874L9.92 14h1.163l-1.96 3.471L11.197 21z"/></svg>