<svg xmlns="http://www.w3.org/2000/svg" width="21" height="22" viewBox="0 0 21 22"><g fill="none" fill-rule="evenodd"><path d="M-2-1h24v24H-2z"/><path fill="#FFF" d="M19 11.949c1.14-.232 2-1.242 2-2.449C21 8.122 19.879 7 18.5 7A2.503 2.503 0 0 0 16 9.5c0 1.207.86 2.217 2 2.449V15.5c0 3.033-2.468 5.5-5.5 5.5A5.506 5.506 0 0 1 7 15.5v-1.59c2.833-.478 5-2.942 5-5.91V0H9v1h2v7c0 2.757-2.243 5-5 5s-5-2.243-5-5V1h2V0H0v8c0 3.309 2.691 6 6 6v1.5c0 3.584 2.916 6.5 6.5 6.5s6.5-2.916 6.5-6.5v-3.551zM17 9.5c0-.827.673-1.5 1.5-1.5s1.5.673 1.5 1.5-.673 1.5-1.5 1.5-1.5-.673-1.5-1.5z"/><path fill="#FFF" d="M.5 8h11v1H.5z" opacity=".3"/></g></svg>