<svg xmlns="http://www.w3.org/2000/svg" width="32" height="34" viewBox="0 0 32 34"><g fill="none" fill-rule="evenodd" transform="translate(-3 -1)"><path d="M0 0h36v36H0z"/><path fill="#FFF" d="M30.5 9a4.505 4.505 0 0 0-4.5 4.5c0 2.31 1.756 4.197 4 4.449V25.5c0 4.687-3.813 8.5-8.5 8.5-4.687 0-8.5-3.813-8.5-8.5v-3.524c4.927-.244 9-4.038 9-8.515V1h-4v1h.071c.223.574.998 1 1.929 1h1v10.461C21 17.548 17.107 21 12.5 21S4 17.548 4 13.461V3h1c.931 0 1.706-.426 1.929-1H7V1H3v12.461c0 4.477 4.073 8.271 9 8.515V25.5c0 5.238 4.262 9.5 9.5 9.5s9.5-4.262 9.5-9.5v-7.551c2.244-.252 4-2.139 4-4.449 0-2.481-2.019-4.5-4.5-4.5zm0 8c-1.93 0-3.5-1.57-3.5-3.5s1.57-3.5 3.5-3.5 3.5 1.57 3.5 3.5-1.57 3.5-3.5 3.5z"/><circle cx="30.5" cy="13.5" r="1.75" fill="#FFF" opacity=".3"/><path fill="#FFF" d="M3.5 13h18v2h-18z" opacity=".3"/></g></svg>