<svg xmlns="http://www.w3.org/2000/svg" width="42" height="40" viewBox="0 0 42 40"><g fill="none" fill-rule="evenodd" transform="translate(-3 -5)"><path d="M0 0h48v48H0z"/><path fill="#FFF" d="M15 31.981v.519C15 39.393 20.607 45 27.5 45S40 39.393 40 32.5v-5.525a5.506 5.506 0 0 0 5-5.475c0-3.033-2.468-5.5-5.5-5.5a5.506 5.506 0 0 0-5.5 5.5 5.506 5.506 0 0 0 5 5.475V32.5C39 38.841 33.841 44 27.5 44S16 38.841 16 32.5v-.53c6.671-.317 12-5.529 12-11.91V5h-4v1h.021c.105 1.12 1.037 2 2.184 2H27v12.06c0 6.021-5.201 10.922-11.603 10.94C9.109 30.982 4 26.082 4 20.06V8h.795c1.148 0 2.079-.88 2.184-2H7V5H3v15.06c0 6.444 5.345 11.7 12 11.921zM35 21.5c0-2.481 2.019-4.5 4.5-4.5s4.5 2.019 4.5 4.5-2.019 4.5-4.5 4.5a4.505 4.505 0 0 1-4.5-4.5z"/><path fill="#FFF" d="M3.5 19h24v3h-24z" opacity=".3"/><circle cx="39.5" cy="21.5" r="2" fill="#FFF" opacity=".3"/></g></svg>