<svg xmlns="http://www.w3.org/2000/svg" width="36" height="36" version="1" viewBox="0 0 36 36"><path fill="#0B1F35" d="M3 29.8C3 31.564 4.463 33 6.262 33h23.477C31.537 33 33 31.564 33 29.8V8.2C33 6.436 31.537 5 29.738 5H27V3a1 1 0 0 0-1-1h-1a1 1 0 0 0-1 1v2H12V3a1 1 0 0 0-1-1h-1a1 1 0 0 0-1 1v2H6.262C4.463 5 3 6.436 3 8.2v21.6zM4 8.2C4 6.987 5.015 6 6.262 6H9v2a1 1 0 0 0 1 1h1a1 1 0 0 0 1-1V6h12v2a1 1 0 0 0 1 1h1a1 1 0 0 0 1-1V6h2.738C30.985 6 32 6.987 32 8.2v21.6c0 1.213-1.015 2.2-2.262 2.2H6.262C5.015 32 4 31.013 4 29.8V8.2z"/><path fill="#0B1F35" d="M7 14h6v3H7zm8 0h6v3h-6zm-8 7h6v3H7zm8 0h6v3h-6zm8-7h6v3h-6z"/></svg>