<svg xmlns="http://www.w3.org/2000/svg" width="30" height="30" version="1" viewBox="0 0 30 30"><path fill="#0B1F35" d="M9 2a1 1 0 0 0-1 1v1H6.5C4.57 4 3 5.57 3 7.5v16C3 25.43 4.57 27 6.5 27h17c1.93 0 3.5-1.57 3.5-3.5v-16C27 5.57 25.43 4 23.5 4h-1.63V3a1 1 0 0 0-2 0v1H10V3a1 1 0 0 0-1-1zm10.87 3v1a1 1 0 0 0 2 0V5h1.63C24.879 5 26 6.121 26 7.5v16c0 1.379-1.121 2.5-2.5 2.5h-17A2.502 2.502 0 0 1 4 23.5v-16C4 6.121 5.121 5 6.5 5H8v1a1 1 0 0 0 2 0V5h9.87z"/><path fill="#0B1F35" d="M7 11h4v2H7zm6 0h4v2h-4zm-6 6h4v2H7zm6 0h4v2h-4zm6-6h4v2h-4z"/></svg>