<svg width="24" height="24" viewBox="0 0 24 24" xmlns="http://www.w3.org/2000/svg"><g fill="none" fill-rule="evenodd"><path d="M0 0h24v24H0z"/><path d="M7 1a1 1 0 0 0-1 1v1.5H4c-1.103 0-2 .897-2 2v15c0 1.103.897 2 2 2h16c1.103 0 2-.897 2-2v-15c0-1.103-.897-2-2-2h-2V2a1 1 0 0 0-2 0v1.5H8V2a1 1 0 0 0-1-1zm9 3.5V5a1 1 0 0 0 2 0v-.5h2a1 1 0 0 1 1 1v15a1 1 0 0 1-1 1H4c-.551 0-1-.448-1-1v-15c0-.552.449-1 1-1h2V5a1 1 0 1 0 2 0v-.5h8z" fill-opacity=".9" fill="#FFF" fill-rule="nonzero"/><path d="M5 9h4v2H5V9zm5 0h4v2h-4V9zm-5 5h4v2H5v-2zm5 0h4v2h-4v-2zm5-5h4v2h-4V9z" fill-opacity=".9" fill="#FFF" fill-rule="nonzero"/></g></svg>