<svg xmlns="http://www.w3.org/2000/svg" width="18" height="18" version="1" viewBox="0 0 18 18"><path fill="#0B1F35" d="M6.5 1a.5.5 0 0 0-.5.5V2H3.5C2.673 2 2 2.673 2 3.5v10c0 .827.673 1.5 1.5 1.5h11c.827 0 1.5-.673 1.5-1.5v-10c0-.827-.673-1.5-1.5-1.5H12v-.5a.5.5 0 0 0-1 0V2H7v-.5a.5.5 0 0 0-.5-.5zM11 3v.5a.5.5 0 0 0 1 0V3h2.5a.5.5 0 0 1 .5.5v10a.5.5 0 0 1-.5.5h-11a.5.5 0 0 1-.5-.5v-10a.5.5 0 0 1 .5-.5H6v.5a.5.5 0 0 0 1 0V3h4z"/><path fill="#0B1F35" d="M4 7h3v1H4zm4 0h3v1H8zm-4 3h3v1H4zm4 0h3v1H8zm4-3h2v1h-2z"/></svg>