<svg width="36px" height="36px" viewBox="0 0 36 36" version="1.1" xmlns="http://www.w3.org/2000/svg"><g stroke="none" stroke-width="1" fill="none" fill-rule="evenodd"><rect x="0" y="0" width="36" height="36"/><g transform="translate(3.000000, 2.000000)" fill="#FFFFFF" fill-opacity="0.9" fill-rule="nonzero"><path d="M0,27.8 C0,29.564 1.463,31 3.262,31 L26.739,31 C28.537,31 30,29.564 30,27.8 L30,6.2 C30,4.436 28.537,3 26.738,3 L24,3 L24,1 C24,0.44771525 23.5522847,0 23,0 L22,0 C21.4477153,0 21,0.44771525 21,1 L21,3 L9,3 L9,1 C9,0.44771525 8.55228475,0 8,0 L7,0 C6.44771525,0 6,0.44771525 6,1 L6,3 L3.262,3 C1.463,3 0,4.436 0,6.2 L0,27.8 Z M1,6.2 C1,4.987 2.015,4 3.262,4 L6,4 L6,6 C6,6.55228475 6.44771525,7 7,7 L8,7 C8.55228475,7 9,6.55228475 9,6 L9,4 L21,4 L21,6 C21,6.55228475 21.4477153,7 22,7 L23,7 C23.5522847,7 24,6.55228475 24,6 L24,4 L26.738,4 C27.985,4 29,4.987 29,6.2 L29,27.8 C29,29.013 27.985,30 26.738,30 L3.262,30 C2.015,30 1,29.013 1,27.8 L1,6.2 Z"/><path d="M4,12 L10,12 L10,15 L4,15 L4,12 Z M12,12 L18,12 L18,15 L12,15 L12,12 Z M4,19 L10,19 L10,22 L4,22 L4,19 Z M12,19 L18,19 L18,22 L12,22 L12,19 Z M20,12 L26,12 L26,15 L20,15 L20,12 Z"/></g></g></svg>