<svg xmlns="http://www.w3.org/2000/svg" width="24" height="24" version="1" viewBox="0 0 24 24"><path fill="#0B1F35" d="M8.426 5h13.156c.256-.678.464-1.354.567-2H7.74c-.765.555-1.475 1.24-2.13 2-.276.32-.542.653-.796 1-.462.633-.89 1.302-1.268 2-.178.328-.34.663-.497 1a18.492 18.492 0 0 0-.796 2c-.09.272-.186.543-.262.814.04.142.093.277.137.417.19.608.414 1.2.676 1.769a15.335 15.335 0 0 0 4.936 6h14.341c-.343-2.155-1.72-4.276-3.221-5.999a23.28 23.28 0 0 0-1.966-2H5.999c.266.697.609 1.361 1.001 1.999h9.098c1.188 1.146 2.381 2.552 3.165 4H8.414a13.433 13.433 0 0 1-3.37-3.999 12.922 12.922 0 0 1-.895-2c-.022-.064-.049-.126-.07-.19.087-.274.187-.543.288-.811h13.268c.593-.57 1.184-1.25 1.738-2H5.277c.184-.343.377-.678.581-1h14.208c.413-.643.775-1.318 1.094-2H7.393c.334-.362.677-.703 1.033-1z"/></svg>