<svg xmlns="http://www.w3.org/2000/svg" width="36" height="36" version="1" viewBox="0 0 36 36"><path fill="#0B1F35" d="M12.156 7h21.05l.811-3H11.132C6.835 7.116 3.504 12.628 2 18c1.504 5.372 4.835 9.884 9.132 13h22.777c-.509-3.199-2.45-6.365-4.648-8.999a35.977 35.977 0 0 0-2.82-3H7.653A18.732 18.732 0 0 0 9.295 22h15.916c1.733 1.771 3.408 3.872 4.514 6H12.14a21.527 21.527 0 0 1-5.2-5.999 20.642 20.642 0 0 1-1.437-3c-.129-.334-.26-.666-.371-1.006.106-.336.232-.664.351-.995h21.055a24.042 24.042 0 0 0 2.719-3H6.783c.35-.688.721-1.359 1.121-2h22.768a27.81 27.81 0 0 0 1.687-3H10.122c.65-.74 1.329-1.417 2.034-2z"/></svg>