<svg xmlns="http://www.w3.org/2000/svg" width="15" height="13" viewBox="0 0 15 13"><path fill="#FFF" d="M4.396 1.778h9.583c.109-.32.199-.638.251-.945H4.059a8.38 8.38 0 0 0-1.126.945c-.301.294-.59.607-.857.944-.239.3-.459.619-.667.945A12.149 12.149 0 0 0 .42 5.556a11.74 11.74 0 0 0-.349.944c-.022.07-.05.14-.071.21.074.25.162.494.255.734.75 1.932 2.105 3.56 3.803 4.723h10.123c-.296-1.757-1.679-3.482-2.984-4.723-.28-.266-.697-.625-1.072-.944H2c.075.34.313.7.435.944h7.312c.621.517 2.331 2.042 3.105 3.778h-8.46a9.343 9.343 0 0 1-3.037-3.778c-.107-.244-.229-.483-.312-.735.022-.071.052-.14.076-.209.112-.32.239-.636.38-.944h10.16c.268-.291.526-.612.775-.945H1.979c.19-.33.398-.643.615-.944h10.477c.189-.311.362-.626.516-.945H3.359a7.98 7.98 0 0 1 1.037-.944z"/></svg>