<svg xmlns="http://www.w3.org/2000/svg" width="18" height="18" version="1" viewBox="0 0 18 18"><path fill="#193163" d="M3.499 8H2.42c-.131.332-.248.666-.349 1h1.047c.112-.339.24-.673.381-1zm1.095-2H3.409a13.07 13.07 0 0 0-.546 1h1.116c.19-.349.397-.681.615-1zm1.802-2H4.933c-.301.312-.59.643-.857 1H5.36a8.092 8.092 0 0 1 1.036-1zm8.457 10H6.392a9.812 9.812 0 0 1-3.037-4h-1.1a10.779 10.779 0 0 0 3.803 5h10.123c-.296-1.86-1.679-3.686-2.984-5h-1.45c.622.547 2.331 2.162 3.106 4zm.078-10h1.048c.109-.339.199-.675.251-1H6.059c-.397.288-.77.63-1.126 1h9.998zM4.594 6h1.249a8.09 8.09 0 0 1 .918-1h6.587c-.201.349-.427.681-.661 1h1.225c.208-.324.398-.659.571-1H5.359c-.27.307-.523.646-.765 1z"/><path fill="#193163" d="M13.913 6h1.159c.189-.329.362-.662.516-1h-1.103c-.174.341-.364.676-.572 1zM5.359 5H4.075c-.238.318-.458.655-.666 1h1.186c.241-.354.494-.693.764-1zm7.99 0H6.762a8.09 8.09 0 0 0-.918 1h6.844c.233-.319.459-.651.661-1zm-2.171 2.622L10.674 8h1.6c.307-.286.617-.625.918-1h-1.335c-.231.24-.461.458-.679.622zM5.145 7H3.979c-.175.323-.333.658-.48 1h1.094c.166-.347.355-.678.552-1z"/><path fill="#193163" d="M12.274 8h1.385c.268-.308.526-.647.775-1h-1.242a9.509 9.509 0 0 1-.918 1zM3.979 7H2.863c-.162.329-.31.662-.443 1h1.079c.147-.342.305-.677.48-1zm.614 1h6.081l.504-.378c.218-.164.448-.382.679-.622H5.145c-.197.322-.386.653-.552 1zm4.612 1.102L10.23 10h1.517a.715.715 0 0 1-.028-.026l-.927-.812.215-.162H9.341l-.136.102z"/><path fill="#193163" d="M11.007 9l-.216.162.927.812.028.026h1.45c-.28-.282-.697-.662-1.072-1h-1.117zm-7.964.221c.022-.075.052-.147.076-.221H2.071c-.022.074-.05.148-.071.222.074.265.162.523.255.778h1.1c-.107-.259-.229-.512-.312-.779zM4.435 10h5.795l-1.025-.898L9.341 9H4c.075.359.313.742.435 1z"/></svg>