<?xml version="1.0" encoding="UTF-8"?>
<svg width="36px" height="36px" viewBox="0 0 36 36" version="1.1" xmlns="http://www.w3.org/2000/svg" xmlns:xlink="http://www.w3.org/1999/xlink">
    <!-- Generator: Sketch 48.2 (47327) - http://www.bohemiancoding.com/sketch -->
    <title>icon_overdraft_xl_black</title>
    <desc>Created with Sketch.</desc>
    <defs></defs>
    <g id="icon_overdraft_xl_black" stroke="none" stroke-width="1" fill="none" fill-rule="evenodd">
        <g id="Group" transform="translate(2.000000, 2.000000)">
            <path d="M16,32.5 C6.88730163,32.5 -0.5,25.1126984 -0.5,16 C-0.5,6.88730163 6.88730163,-0.5 16,-0.5 C25.1126984,-0.5 32.5,6.88730163 32.5,16 C32.5,25.1126984 25.1126984,32.5 16,32.5 Z M16.0305487,25.2032761 C21.0965062,25.2032761 25.2032761,21.0965062 25.2032761,16.0305487 C25.2032761,10.9645912 21.0965062,6.85782128 16.0305487,6.85782128 C10.9645912,6.85782128 6.85782128,10.9645912 6.85782128,16.0305487 C6.85782128,21.0965062 10.9645912,25.2032761 16.0305487,25.2032761 Z" id="Combined-Shape" stroke="#0B1F35"></path>
            <path d="M18.5325205,24.7642435 L20.5821003,31.4106222 C18.4178201,31.8877883 16.8453888,32.1341272 15.8648064,32.1496392 C14.8842239,32.1651511 13.305865,31.9686548 11.1297297,31.5601502 L13.0881118,24.9472843 M18.5013497,6.95342384 L20.5176642,0.222895237 C18.5127213,-0.189663723 17.0503358,-0.400158924 16.1305075,-0.408590368 C15.2106792,-0.417021812 13.5716472,-0.234955209 11.2134114,0.13760944 L13.2296362,6.8678387" id="Path-2" fill="#0B1F35" opacity="0.300000012" transform="translate(15.855915, 15.870810) rotate(45.000000) translate(-15.855915, -15.870810) "></path>
            <path d="M18.8663412,6.99172502 L20.8737665,0.290868738 C18.6182106,-0.248943272 17.0005159,-0.514212862 16.0206827,-0.504940034 C15.0408494,-0.495667205 13.4929485,-0.20043943 11.3769799,0.38074329 L13.386505,7.08860874 L18.8663412,6.99172502 Z M18.7311248,24.9291375 L20.7586393,31.697052 C18.6311986,32.1595668 17.0505266,32.3825019 16.0166233,32.3658574 C14.9827201,32.3492128 13.4804417,32.0766459 11.5097883,31.5481568 L13.5456976,24.7522202 L18.7311248,24.9291375 Z" id="Path-2" fill="#0B1F35" opacity="0.300000012" transform="translate(16.125373, 15.930775) rotate(135.000000) translate(-16.125373, -15.930775) "></path>
        </g>
    </g>
</svg>