<?xml version="1.0" encoding="UTF-8"?>
<svg width="24px" height="24px" viewBox="0 0 24 24" version="1.1" xmlns="http://www.w3.org/2000/svg" xmlns:xlink="http://www.w3.org/1999/xlink">
    <!-- Generator: Sketch 48.2 (47327) - http://www.bohemiancoding.com/sketch -->
    <title>icon_overdraft_m_black</title>
    <desc>Created with Sketch.</desc>
    <defs></defs>
    <g id="icon_overdraft_m_black" stroke="none" stroke-width="1" fill="none" fill-rule="evenodd">
        <g id="Group" transform="translate(2.000000, 2.000000)">
            <path d="M10,20.5 C4.20101013,20.5 -0.5,15.7989899 -0.5,10 C-0.5,4.20101013 4.20101013,-0.5 10,-0.5 C15.7989899,-0.5 20.5,4.20101013 20.5,10 C20.5,15.7989899 15.7989899,20.5 10,20.5 Z M10.0190929,15.5645476 C13.081763,15.5645476 15.5645476,13.081763 15.5645476,10.0190929 C15.5645476,6.95642291 13.081763,4.4736383 10.0190929,4.4736383 C6.95642291,4.4736383 4.4736383,6.95642291 4.4736383,10.0190929 C4.4736383,13.081763 6.95642291,15.5645476 10.0190929,15.5645476 Z" id="Combined-Shape" stroke="#0B1F35"></path>
            <path d="M11.5828253,15.4776522 L12.8638127,19.6316389 C11.5111376,19.9298677 10.528368,20.0838295 9.91550397,20.0935245 C9.30263994,20.1032194 8.31616564,19.9804092 6.95608108,19.7250939 L8.18006985,15.5920527 M11.5633435,4.3458899 L12.8235401,0.139309523 C11.5704508,-0.118539827 10.6564598,-0.250099328 10.0815672,-0.25536898 C9.50667452,-0.260638633 8.48227949,-0.146847006 7.00838211,0.0860059 L8.26852262,4.29239919" id="Path-2" fill="#0B1F35" opacity="0.300000012" transform="translate(9.909947, 9.919256) rotate(45.000000) translate(-9.909947, -9.919256) "></path>
            <path d="M11.7914632,4.36982814 L13.0461041,0.181792961 C11.6363816,-0.155589545 10.6253225,-0.321383039 10.0129267,-0.315587521 C9.40053086,-0.309792003 8.43309279,-0.125274644 7.11061244,0.237964556 L8.36656564,4.43038046 L11.7914632,4.36982814 Z M11.706953,15.5807109 L12.9741496,19.8106575 C11.6444991,20.0997293 10.6565791,20.2390637 10.0103896,20.2286609 C9.36420005,20.218258 8.42527609,20.0479037 7.19361772,19.717598 L8.46606099,15.4701377 L11.706953,15.5807109 Z" id="Path-2" fill="#0B1F35" opacity="0.300000012" transform="translate(10.078358, 9.956734) rotate(135.000000) translate(-10.078358, -9.956734) "></path>
        </g>
    </g>
</svg>