<svg xmlns="http://www.w3.org/2000/svg" width="24" height="24" viewBox="0 0 24 24"><g fill="none" fill-rule="evenodd"><path d="M0 0h24v24H0z"/><path fill="#FFFFFF" fill-rule="nonzero" d="M5 4H2.533A.549.549 0 0 0 2 4.562v7.876c0 .314.243.562.533.562H5V4zm-4 .562C1 3.7 1.687 3 2.533 3H6v11H2.533C1.687 14 1 13.3 1 12.438V4.562zM18.285 4c.762 0 1.376.6 1.376 1.337a1.3 1.3 0 0 1-.248.763l-.49.684.835.103c.685.085 1.2.652 1.2 1.325a1.3 1.3 0 0 1-.27.793l-.462.605.74.183C21.597 9.95 22 10.413 22 11c0 .406-.283.778-.789 1.065l-.571.325.466.464c.212.212.394.737.394 1.146 0 .643-.475 1-1.34 1h-6.854l.72 2.158c.404 1.583.031 3.188-1.048 4.185a1.089 1.089 0 0 1-1.415.177c-.31-.188-.563-.759-.563-1.52v-2.16l-2.635-3.697A2.24 2.24 0 0 1 8 12.923V4h10.285zm3.673 4.212c0-.95-.579-1.775-1.419-2.139a2.29 2.29 0 0 0 .122-.736C20.66 4.044 19.595 3 18.285 3H7v9.923a3.22 3.22 0 0 0 .541 1.787L10 18.16V20c0 1.082.399 1.985 1.028 2.365.321.214.722.337 1.14.337a2.09 2.09 0 0 0 1.512-.647c1.344-1.241 1.804-3.226 1.304-5.179l-.29-.876h5.467c1.364 0 2.339-.732 2.339-2 0-.452-.128-.961-.343-1.371.525-.425.843-.978.843-1.629 0-.854-.47-1.567-1.2-1.952.104-.264.158-.546.158-.836z"/></g></svg>
