<svg xmlns="http://www.w3.org/2000/svg" width="24" height="24" viewBox="0 0 24 24"><rect width="24" height="24" fill="none"/><path fill="#0B1F35" fill-rule="nonzero" d="M0 1.562C0 .7.687 0 1.533 0L5 0 5 11 1.533 11C.687 11 0 10.3 0 9.438L0 1.562zM4 1L1.533 1C1.2309414 1.00871909.992718635 1.25990333 1 1.562L1 9.438C1 9.752 1.243 10 1.533 10L4 10 4 1zM17.285 1C18.047 1 18.661 1.6 18.661 2.337 18.6608443 2.6111192 18.5740426 2.87817432 18.413 3.1L17.923 3.784 18.758 3.887C19.443 3.972 19.958 4.539 19.958 5.212 19.9579651 5.49888411 19.8630342 5.77769951 19.688 6.005L19.226 6.61 19.966 6.793C20.597 6.95 21 7.413 21 8 21 8.406 20.717 8.778 20.211 9.065L19.64 9.39 20.106 9.854C20.318 10.066 20.5 10.591 20.5 11 20.5 11.643 20.025 12 19.16 12L12.306 12 13.026 14.158C13.43 15.741 13.057 17.346 11.978 18.343 11.6159186 18.7455567 11.0130836 18.8209643 10.563 18.52 10.253 18.332 10 17.761 10 17L10 14.84 7.365 11.143C7.12786709 10.7802091 7.00107608 10.3564145 7 9.923L7 1 17.285 1zM20.958 5.212C20.958 4.262 20.379 3.437 19.539 3.073 19.6196246 2.8359848 19.6608381 2.58735277 19.661 2.337 19.66 1.044 18.595 0 17.285 0L5.99999995 0 6 9.923C5.99988891 10.5590241 6.18813748 11.1808359 6.541 11.71L9 15.16 9 17C9 18.082 9.399 18.985 10.028 19.365 10.349 19.579 10.75 19.702 11.168 19.702 11.7392406 19.7020265 12.285598 19.4682347 12.68 19.055 14.024 17.814 14.484 15.829 13.984 13.876L13.694 13 19.161 13C20.525 13 21.5 12.268 21.5 11 21.5 10.548 21.372 10.039 21.157 9.629 21.682 9.204 22 8.651 22 8 22 7.146 21.53 6.433 20.8 6.048 20.904 5.784 20.958 5.502 20.958 5.212z" transform="translate(1 3)"/></svg>