<svg xmlns="http://www.w3.org/2000/svg" width="30" height="30" viewBox="0 0 30 30"><path fill="#FFF" d="M15 0C6.761 0 0 6.761 0 15s6.655 15 15 15c8.345 0 15-6.761 15-15S23.239 0 15 0zm-2.746 24.19c-.211.423-.634.528-1.056.528-.211 0-.528-.106-.739-.211l-.739-.317c-3.063-1.585-4.965-4.859-4.965-8.556v-1.479c0-3.592 1.901-6.866 4.965-8.556l.634-.317c.211-.106.528-.211.739-.211.423 0 .845.211 1.056.528.211.317.211.634.211 1.056 0 .739-.528 1.056-.528 1.056-1.796.845-2.852 2.641-2.852 4.648v5.282c0 2.007 1.056 3.908 2.852 4.648.106.106.528.317.634.845.104.422-.001.739-.212 1.056zm7.922.106l-.739.317c-.211.106-.528.211-.739.211-.528 0-.845-.211-1.056-.528-.211-.317-.211-.634-.106-1.056.106-.528.528-.739.634-.845 1.796-.845 2.852-2.641 2.852-4.648v-5.282c0-2.007-1.056-3.908-2.852-4.648 0 0-.528-.211-.634-.845-.106-.423 0-.739.106-1.056.211-.317.634-.528 1.056-.528.211 0 .528.106.739.211l.634.317c3.063 1.585 4.965 4.859 4.965 8.556.106-.211.106 1.268.106 1.268-.001 3.591-1.903 6.866-4.966 8.556z"/></svg>