<svg xmlns="http://www.w3.org/2000/svg" width="14" height="15" viewBox="0 0 14 15"><path fill="#FFF" d="M7 .889c-3.845 0-7 2.98-7 6.611s3.106 6.611 7 6.611 7-2.98 7-6.611S10.845.889 7 .889zM5.718 11.55c-.099.186-.296.233-.493.233a.942.942 0 0 1-.345-.094l-.345-.14c-1.43-.697-2.317-2.141-2.317-3.77v-.652c0-1.583.887-3.026 2.317-3.771l.296-.14a.942.942 0 0 1 .345-.094c.197 0 .394.094.493.233.099.14.099.28.099.465a.545.545 0 0 1-.247.466 2.212 2.212 0 0 0-1.331 2.05v2.328c0 .884.493 1.722 1.331 2.048.049.046.247.14.296.372.049.186 0 .326-.099.466zm3.698.046l-.345.14a.961.961 0 0 1-.345.093c-.246 0-.394-.093-.493-.232-.099-.14-.099-.28-.049-.466.049-.232.246-.325.296-.372a2.21 2.21 0 0 0 1.331-2.048v-2.33c0-.884-.493-1.722-1.331-2.048 0 0-.246-.093-.296-.372-.049-.186 0-.326.049-.466a.62.62 0 0 1 .493-.232c.099 0 .247.046.345.094l.296.14c1.43.697 2.317 2.141 2.317 3.77.049-.093.049.56.049.56-.001 1.58-.888 3.024-2.317 3.769z"/></svg>