<svg xmlns="http://www.w3.org/2000/svg" width="24" height="24" version="1" viewBox="0 0 24 24"><path fill="#4AB9E4" d="M12 2C6.507 2 2 6.507 2 12s4.437 10 10 10 10-4.507 10-10S17.493 2 12 2M9.887 16.859c.07.07.352.211.423.563.07.282 0 .493-.141.704-.141.282-.423.352-.704.352-.141 0-.352-.07-.493-.141l-.493-.211c-2.042-1.056-3.31-3.239-3.31-5.704v-.986c0-2.394 1.268-4.577 3.31-5.704l.423-.211c.14-.07.352-.141.492-.141.282 0 .563.141.704.352.141.211.141.423.141.704 0 .493-.352.704-.352.704-1.197.564-1.901 1.761-1.901 3.099v3.521c0 1.339.704 2.606 1.901 3.099m8.874-4.366c0 2.394-1.268 4.577-3.31 5.704l-.493.211c-.141.07-.352.141-.493.141-.352 0-.563-.141-.704-.352s-.141-.423-.07-.704c.07-.352.352-.493.423-.563 1.197-.563 1.901-1.761 1.901-3.099V10.31c0-1.338-.704-2.606-1.901-3.099 0 0-.352-.141-.423-.563-.07-.282 0-.493.07-.704.141-.211.423-.352.704-.352.141 0 .352.07.493.141l.423.211c2.042 1.056 3.31 3.239 3.31 5.704.07-.141.07.845.07.845z"/></svg>