<svg xmlns="http://www.w3.org/2000/svg" width="48" height="48" viewBox="0 0 48 48"><g fill="none" fill-rule="evenodd"><path d="M0 0h48v48H0z"/><path fill="#FFF" d="M16 38.99h-5V36h5v-1h-5v-3l5 .01V31h-6v9h6v-1.01zM27 40v-9h-1.5l-2.95 7h-.1l-2.95-7H18v9h.998v-7l3.021 7h.962l3.023-7L26 40h1zm7.5 0l-1-3h-3l-1 3H28l3.427-9h1.146L36 40h-1.5zM32 32.01L31 36h2l-1-3.99zM38 40v-9h-1v9h1zm8-1h-5v-8h-1v9h6v-1zM23.5 21.111L4.95 8.076l.575-.819L23.5 19.889 41.475 7.257l.575.819z" opacity=".3"/><path fill="#FFF" d="M5.995 34.686s-.674-.417-.968-.712A3.49 3.49 0 0 1 4 31.5v-22C4 7.57 5.57 6 7.5 6h32C41.43 6 43 7.57 43 9.5V27h-1V9.5C42 8.122 40.878 7 39.5 7h-32A2.503 2.503 0 0 0 5 9.5v22c0 .814.995 1.995.995 1.995v1.191z"/></g></svg>