<svg xmlns="http://www.w3.org/2000/svg" width="30" height="18" viewBox="0 0 30 18" fill="none"><rect width="30" height="18" fill="none"/><path fill-rule="evenodd" clip-rule="evenodd" d="M15.0035 15.9414C16.5895 17.2272 18.6209 18 20.838 18C25.8982 18 30 13.9713 30 8.99823C30 4.02869 25.8982 0 20.8363 0C18.6192 0 16.5877 0.772844 15.0018 2.06033C17.035 3.71213 18.3292 6.20928 18.3292 9.00177C18.3292 11.796 17.0332 14.2896 15 15.9414H15.0035Z" fill="#F79E1B"/><path fill-rule="evenodd" clip-rule="evenodd" d="M14.9982 2.05856C13.4123 0.772844 11.3808 0 9.16372 0C4.10184 0 0 4.02869 0 9.00177C0 13.9713 4.10184 18 9.16372 18C11.3808 18 13.4123 17.2272 14.9982 15.9397C12.965 14.2879 11.6708 11.7907 11.6708 8.99823C11.6708 6.20397 12.9668 3.71036 15 2.05856H14.9982Z" fill="#EB001B"/><path fill-rule="evenodd" clip-rule="evenodd" d="M15 2.05791C17.049 3.69761 18.3594 6.19762 18.3594 8.99848C18.3594 11.7993 17.049 14.2993 15 15.9408C12.9509 14.3011 11.6406 11.8011 11.6406 9.00024C11.6406 6.19938 12.9509 3.69937 15 2.05791Z" fill="#FF5F00"/></svg>