<svg xmlns="http://www.w3.org/2000/svg" width="48" height="18" viewBox="0 0 48 18" fill="none"><rect width="48" height="18" fill="none"/><path d="M37.3325 1.92442H28.6692V16.0741H37.3325V1.92442Z" fill="#FF5F00"/><path d="M29.5615 9.00052C29.5604 7.63803 29.8693 6.29314 30.4647 5.06764C31.0601 3.84215 31.9265 2.76814 32.9983 1.92692C31.6709 0.883676 30.0767 0.234947 28.398 0.0548725C26.7192 -0.125202 25.0237 0.170644 23.5052 0.908597C21.9867 1.64655 20.7064 2.79684 19.8107 4.22799C18.915 5.65915 18.44 7.31343 18.44 9.00177C18.44 10.6901 18.915 12.3444 19.8107 13.7755C20.7064 15.2067 21.9867 16.357 23.5052 17.0949C25.0237 17.8329 26.7192 18.1287 28.398 17.9487C30.0767 17.7686 31.6709 17.1199 32.9983 16.0766C31.9262 15.2351 31.0596 14.1607 30.4642 12.9348C29.8687 11.7088 29.56 10.3634 29.5615 9.00052V9.00052Z" fill="#EB001B"/><path d="M47.5579 9.00052C47.5579 10.689 47.0828 12.3434 46.1869 13.7746C45.2911 15.2058 44.0106 16.356 42.4919 17.0939C40.9732 17.8317 39.2775 18.1274 37.5987 17.9471C35.9199 17.7667 34.3257 17.1177 32.9983 16.0741C34.0697 15.2322 34.9358 14.1579 35.5314 12.9323C36.127 11.7067 36.4365 10.3619 36.4365 8.99927C36.4365 7.63665 36.127 6.29182 35.5314 5.06626C34.9358 3.84069 34.0697 2.76639 32.9983 1.92442C34.3257 0.88085 35.9199 0.231806 37.5987 0.0514727C39.2775 -0.12886 40.9732 0.166795 42.4919 0.904643C44.0106 1.64249 45.2911 2.79276 46.1869 4.22396C47.0828 5.65517 47.5579 7.30955 47.5579 8.99802V9.00052Z" fill="#F79E1B"/></svg>