<?xml version="1.0" encoding="UTF-8"?>
<svg width="36px" height="36px" viewBox="0 0 36 36" version="1.1" xmlns="http://www.w3.org/2000/svg" xmlns:xlink="http://www.w3.org/1999/xlink">
    <!-- Generator: Sketch 48.2 (47327) - http://www.bohemiancoding.com/sketch -->
    <title>icon_category-other_xl_black</title>
    <desc>Created with Sketch.</desc>
    <defs></defs>
    <g id="mobile" stroke="none" stroke-width="1" fill="none" fill-rule="evenodd" transform="translate(-1083.000000, -678.000000)">
        <g id="Headings" transform="translate(64.000000, 77.000000)">
            <g id="icon_category_other__xl__white" transform="translate(1019.000000, 601.000000)">
                <g id="ungroup">
                    <rect id="Rectangle-path" x="0" y="0" width="36" height="36"></rect>
                    <g id="a1" opacity="0.4"></g>
                    <path d="M18,35 C23.229,35 31,21.396 31,14.25 C31,6.944 25.168,1 18,1 C10.832,1 5,6.944 5,14.25 C5,21.396 12.771,35 18,35 L18,35 Z M18,2 C24.617,2 30,7.495 30,14.25 C30,21.264 22.262,34 18,34 C13.738,34 6,21.264 6,14.25 C6,7.495 11.383,2 18,2 L18,2 Z" id="Shape" fill="#0B1F35"></path>
                    <path d="M6.35,19.257 C6.35,21.877 8.474,24 11.093,24 L15.35,24 L15.35,23.743 C15.35,21.123 13.226,19 10.607,19 L6.35,19 L6.35,19.257 L6.35,19.257 Z" id="Shape" fill="#0B1F35" opacity="0.3"></path>
                    <path d="M20.65,24 L24.65,24 C27.411,24 29.65,21.761 29.65,19 L25.65,19 C22.889,19 20.65,21.239 20.65,24 L20.65,24 Z" id="Shape" fill="#0B1F35" opacity="0.3"></path>
                    <rect id="Rectangle-path" fill="#0B1F35" opacity="0.3" x="15" y="28" width="6" height="2"></rect>
                </g>
            </g>
        </g>
    </g>
</svg>