<svg xmlns="http://www.w3.org/2000/svg" width="48" height="48" viewBox="0 0 48 48"><g fill="none" fill-rule="evenodd"><path d="M0 0h48v48H0z"/><path fill="#FFF" d="M24 46c6.883 0 17.114-17.628 17.114-26.887C41.114 9.677 33.437 2 24 2 14.563 2 6.886 9.677 6.886 19.113 6.886 28.372 17.117 46 24 46zm0-43c8.885 0 16.114 7.229 16.114 16.113C40.114 28.549 29.873 45 24 45 18.127 45 7.886 28.549 7.886 19.113 7.886 10.229 15.115 3 24 3z"/><path fill="#FFF" d="M21 32.584A6.584 6.584 0 0 0 14.416 26H9.5v.416A6.584 6.584 0 0 0 16.084 33H21v-.416zm6.317 0V33h4.916a6.584 6.584 0 0 0 6.584-6.584V26h-4.916a6.584 6.584 0 0 0-6.584 6.584zM20 38h8v2h-8z" opacity=".3"/></g></svg>