<svg xmlns="http://www.w3.org/2000/svg" width="36" height="36" viewBox="0 0 36 36"><path fill="none" d="M0 0h36v36H0z"/><path fill="#fff" d="M18 35C12.77 35 5 21.4 5 14.25A13.14 13.14 0 0 1 18 1a13.14 13.14 0 0 1 13 13.25C31 21.4 23.23 35 18 35zm0-33A12.14 12.14 0 0 0 6 14.25C6 21.26 13.74 34 18 34s12-12.74 12-19.75A12.14 12.14 0 0 0 18 2z"/><path fill="#fff" d="M6.35 19h4.26a4.74 4.74 0 0 1 4.74 4.74V24h-4.26a4.74 4.74 0 0 1-4.74-4.74V19zm18.3 5h-4a5 5 0 0 1 5-5h4a5 5 0 0 1-5 5zM15 28h6v2h-6z" opacity=".3"/></svg>