<?xml version="1.0" encoding="UTF-8"?>
<svg width="24px" height="24px" viewBox="0 0 24 24" version="1.1" xmlns="http://www.w3.org/2000/svg" xmlns:xlink="http://www.w3.org/1999/xlink">
    <!-- Generator: Sketch 48.2 (47327) - http://www.bohemiancoding.com/sketch -->
    <title>icon_category-other_m_black</title>
    <desc>Created with Sketch.</desc>
    <defs></defs>
    <g id="mobile" stroke="none" stroke-width="1" fill="none" fill-rule="evenodd" transform="translate(-1019.000000, -678.000000)">
        <g id="Headings" transform="translate(64.000000, 77.000000)">
            <g id="icon_category_other__m__white" transform="translate(955.000000, 601.000000)">
                <g id="ungroup">
                    <rect id="Rectangle-path" x="0" y="0" width="24" height="24"></rect>
                    <g id="a1" opacity="0.4"></g>
                    <path d="M12,23 C15.62,23 21,13.821 21,9 C21,4.037 16.962,0 12,0 C7.038,0 3,4.037 3,9 C3,13.821 8.38,23 12,23 L12,23 Z M12,1 C16.411,1 20,4.589 20,9 C20,13.617 14.841,22 12,22 C9.159,22 4,13.617 4,9 C4,4.589 7.589,1 12,1 L12,1 Z" id="Shape" fill="#0B1F35"></path>
                    <path d="M7.5,15 L10.5,15 C10.5,12.791 8.709,11 6.5,11 L3.5,11 C3.5,13.209 5.291,15 7.5,15 L7.5,15 Z" id="Shape" fill="#0B1F35" opacity="0.3"></path>
                    <path d="M13.5,15 L16.5,15 C18.709,15 20.5,13.209 20.5,11 L17.5,11 C15.291,11 13.5,12.791 13.5,15 L13.5,15 Z" id="Shape" fill="#0B1F35" opacity="0.3"></path>
                    <rect id="Rectangle-path" fill="#0B1F35" opacity="0.3" x="10" y="18" width="4" height="1"></rect>
                </g>
            </g>
        </g>
    </g>
</svg>