<?xml version="1.0" encoding="UTF-8"?>
<svg width="48px" height="48px" viewBox="0 0 48 48" version="1.1" xmlns="http://www.w3.org/2000/svg" xmlns:xlink="http://www.w3.org/1999/xlink">
    <!-- Generator: Sketch 48.2 (47327) - http://www.bohemiancoding.com/sketch -->
    <title>icon_category-other_xxl_black</title>
    <desc>Created with Sketch.</desc>
    <defs></defs>
    <g id="mobile" stroke="none" stroke-width="1" fill="none" fill-rule="evenodd" transform="translate(-1156.000000, -678.000000)">
        <g id="Headings" transform="translate(64.000000, 77.000000)">
            <g id="icon_category_other__xxl__white" transform="translate(1092.000000, 601.000000)">
                <g id="ungroup">
                    <rect id="Rectangle-path" x="0" y="0" width="48" height="48"></rect>
                    <g id="a1" opacity="0.4"></g>
                    <path d="M24,46 C30.883,46 41.114,28.372 41.114,19.113 C41.114,9.677 33.437,2 24,2 C14.563,2 6.886,9.677 6.886,19.113 C6.886,28.372 17.117,46 24,46 L24,46 Z M24,3 C32.885,3 40.114,10.229 40.114,19.113 C40.114,28.549 29.873,45 24,45 C18.127,45 7.886,28.549 7.886,19.113 C7.886,10.229 15.115,3 24,3 L24,3 Z" id="Shape" fill="#0B1F35"></path>
                    <path d="M21,32.584 C21,28.948 18.052,26 14.416,26 L9.5,26 L9.5,26.416 C9.5,30.052 12.448,33 16.084,33 L21,33 L21,32.584 L21,32.584 Z" id="Shape" fill="#0B1F35" opacity="0.3"></path>
                    <path d="M27.317,32.584 L27.317,33 L32.233,33 C35.869,33 38.817,30.052 38.817,26.416 L38.817,26 L33.901,26 C30.265,26 27.317,28.948 27.317,32.584 L27.317,32.584 Z" id="Shape" fill="#0B1F35" opacity="0.3"></path>
                    <rect id="Rectangle-path" fill="#0B1F35" opacity="0.3" x="20" y="38" width="8" height="2"></rect>
                </g>
            </g>
        </g>
    </g>
</svg>