<svg width="36" height="36" viewBox="0 0 36 36" xmlns="http://www.w3.org/2000/svg"><g fill="none" fill-rule="evenodd"><path d="M0 0h36v36H0z"/><path d="M18 35c5.229 0 13-13.604 13-20.75C31 6.944 25.168 1 18 1S5 6.944 5 14.25C5 21.396 12.771 35 18 35zm0-33c6.617 0 12 5.495 12 12.25C30 21.264 22.262 34 18 34S6 21.264 6 14.25C6 7.495 11.383 2 18 2z" fill="#0B1F35"/><path d="M6.35 19.257A4.743 4.743 0 0 0 11.093 24h4.257v-.257A4.743 4.743 0 0 0 10.607 19H6.35v.257zM20.65 24h4a5 5 0 0 0 5-5h-4a5 5 0 0 0-5 5zM15 28h6v2h-6z" fill="#0B1F35" opacity=".3"/></g></svg>