<svg xmlns="http://www.w3.org/2000/svg" width="36" height="36" viewBox="0 0 36 36"><g fill="#FFF" fill-rule="evenodd"><path fill-rule="nonzero" d="M3 8.007v22.986C3 31.55 3.449 32 4.002 32h27.996A1 1 0 0 0 33 30.993V8.007C33 7.45 32.551 7 31.998 7H4.002A1 1 0 0 0 3 8.007zm-1 0A2 2 0 0 1 4.002 6h27.996C33.104 6 34 6.898 34 8.007v22.986A2 2 0 0 1 31.998 33H4.002A2.004 2.004 0 0 1 2 30.993V8.007z"/><path d="M3 21h31v2H3zm6 2h4v2H9zm14 0h4v2h-4z" opacity=".3"/><path fill-rule="nonzero" d="M21.825 4.304C21.77 4.168 21.52 4 21.368 4h-7.736c-.154 0-.402.167-.457.304L12.485 6h10.03l-.69-1.696zm-9.577-.376c.208-.513.821-.928 1.384-.928h7.736c.556 0 1.175.413 1.384.928L24 7H11l1.248-3.072z"/></g></svg>