<svg width="24" height="24" viewBox="0 0 24 24" fill="none" xmlns="http://www.w3.org/2000/svg"><rect width="24" height="24" fill="none"/><path d="M12 24C18.6274 24 24 18.6274 24 12C24 5.37258 18.6274 0 12 0C5.37258 0 0 5.37258 0 12C0 18.6274 5.37258 24 12 24Z" fill="#F3F4F5"/><path d="M13.4141 12L16.2425 14.8284C16.6331 15.2189 16.6331 15.8521 16.2425 16.2426C15.852 16.6332 15.2188 16.6332 14.8283 16.2426L11.9999 13.4142L9.17146 16.2426C8.78094 16.6332 8.14777 16.6332 7.75725 16.2426C7.36672 15.8521 7.36672 15.2189 7.75725 14.8284L10.5857 12L7.75725 9.17157C7.36672 8.78104 7.36672 8.14788 7.75725 7.75736C8.14777 7.36683 8.78094 7.36683 9.17146 7.75736L11.9999 10.5858L14.8283 7.75736C15.2188 7.36683 15.852 7.36683 16.2425 7.75736C16.6331 8.14788 16.6331 8.78104 16.2425 9.17157L13.4141 12Z" fill="#6D7986"/></svg>