<svg width="12" height="12" viewBox="0 0 12 12" fill="none" xmlns="http://www.w3.org/2000/svg"><rect width="12" height="12" fill="none"/><path opacity="0.5" d="M6 12C9.31371 12 12 9.31371 12 6C12 2.68629 9.31371 0 6 0C2.68629 0 0 2.68629 0 6C0 9.31371 2.68629 12 6 12Z" fill="#F3F4F5"/><path d="M6.7073 6.00001L8.12151 7.41422C8.31677 7.60948 8.31677 7.92606 8.12151 8.12133C7.92625 8.31659 7.60967 8.31659 7.4144 8.12133L6.00019 6.70711L4.58598 8.12133C4.39071 8.31659 4.07413 8.31659 3.87887 8.12133C3.68361 7.92606 3.68361 7.60948 3.87887 7.41422L5.29308 6.00001L3.87887 4.58579C3.68361 4.39053 3.68361 4.07395 3.87887 3.87869C4.07413 3.68342 4.39071 3.68342 4.58598 3.87869L6.00019 5.2929L7.4144 3.87869C7.60967 3.68342 7.92625 3.68342 8.12151 3.87869C8.31677 4.07395 8.31677 4.39053 8.12151 4.58579L6.7073 6.00001Z" fill="#6D7986"/></svg>