<svg width="48" height="48" viewBox="0 0 48 48" fill="none" xmlns="http://www.w3.org/2000/svg"><rect width="48" height="48" fill="none"/><path d="M24 48C37.2548 48 48 37.2548 48 24C48 10.7452 37.2548 0 24 0C10.7452 0 0 10.7452 0 24C0 37.2548 10.7452 48 24 48Z" fill="#F3F4F5"/><path d="M27.0039 24.1756L33.6036 30.7753C34.3846 31.5563 34.3846 32.8227 33.6036 33.6037C32.8225 34.3848 31.5562 34.3848 30.7752 33.6037L24.1755 27.0041L17.5758 33.6037C16.7948 34.3848 15.5285 34.3848 14.7474 33.6037C13.9664 32.8227 13.9664 31.5563 14.7474 30.7753L21.3471 24.1756L14.7474 17.576C13.9664 16.7949 13.9664 15.5286 14.7474 14.7475C15.5285 13.9665 16.7948 13.9665 17.5758 14.7475L24.1755 21.3472L30.7752 14.7475C31.5562 13.9665 32.8225 13.9665 33.6036 14.7475C34.3846 15.5286 34.3846 16.7949 33.6036 17.576L27.0039 24.1756Z" fill="#6D7986"/></svg>