<svg width="36" height="36" viewBox="0 0 36 36" fill="none" xmlns="http://www.w3.org/2000/svg"><rect width="36" height="36" fill="none"/><path d="M18 36C27.9411 36 36 27.9411 36 18C36 8.05887 27.9411 0 18 0C8.05887 0 0 8.05887 0 18C0 27.9411 8.05887 36 18 36Z" fill="#F3F4F5"/><path d="M20.2528 18.1317L25.2026 23.0815C25.7884 23.6673 25.7884 24.617 25.2026 25.2028C24.6168 25.7886 23.667 25.7886 23.0812 25.2028L18.1315 20.253L13.1818 25.2028C12.596 25.7886 11.6462 25.7886 11.0604 25.2028C10.4746 24.617 10.4746 23.6673 11.0604 23.0815L16.0102 18.1317L11.0604 13.182C10.4746 12.5962 10.4746 11.6464 11.0604 11.0607C11.6462 10.4749 12.596 10.4749 13.1818 11.0607L18.1315 16.0104L23.0812 11.0607C23.667 10.4749 24.6168 10.4749 25.2026 11.0607C25.7884 11.6464 25.7884 12.5962 25.2026 13.182L20.2528 18.1317Z" fill="#6D7986"/></svg>