<svg width="18" height="18" viewBox="0 0 18 18" fill="none" xmlns="http://www.w3.org/2000/svg"><rect width="18" height="18" fill="none"/><path d="M9 18C13.9706 18 18 13.9706 18 9C18 4.02944 13.9706 0 9 0C4.02944 0 0 4.02944 0 9C0 13.9706 4.02944 18 9 18Z" fill="#F3F4F5"/><path d="M10.0605 9.00001L12.1818 11.1213C12.4747 11.4142 12.4747 11.8891 12.1818 12.182C11.8889 12.4749 11.414 12.4749 11.1211 12.182L8.99979 10.0607L6.87847 12.182C6.58558 12.4749 6.11071 12.4749 5.81781 12.182C5.52492 11.8891 5.52492 11.4142 5.81781 11.1213L7.93913 9.00001L5.81781 6.87869C5.52492 6.58579 5.52492 6.11092 5.81781 5.81803C6.11071 5.52513 6.58558 5.52513 6.87847 5.81803L8.99979 7.93935L11.1211 5.81803C11.414 5.52513 11.8889 5.52513 12.1818 5.81803C12.4747 6.11092 12.4747 6.58579 12.1818 6.87869L10.0605 9.00001Z" fill="#6D7986"/></svg>