<svg width="24" height="24" viewBox="0 0 24 24" fill="none" xmlns="http://www.w3.org/2000/svg"><rect width="24" height="24" fill="none"/><path d="M24 12C24 18.6274 18.6274 24 12 24C5.37258 24 0 18.6274 0 12C0 5.37258 5.37258 0 12 0C18.6274 0 24 5.37258 24 12ZM16.243 16.2425C16.6335 15.852 16.6335 15.2188 16.243 14.8283L13.4146 11.9999L16.243 9.17146C16.6335 8.78094 16.6335 8.14777 16.243 7.75725C15.8525 7.36672 15.2193 7.36672 14.8288 7.75725L12.0004 10.5857L9.17195 7.75725C8.78143 7.36672 8.14826 7.36672 7.75774 7.75725C7.36721 8.14777 7.36721 8.78094 7.75774 9.17146L10.5862 11.9999L7.75774 14.8283C7.36721 15.2188 7.36721 15.852 7.75774 16.2425C8.14826 16.6331 8.78143 16.6331 9.17195 16.2425L12.0004 13.4141L14.8288 16.2425C15.2193 16.6331 15.8525 16.6331 16.243 16.2425Z" fill="#B6BCC3"/></svg>