<svg xmlns="http://www.w3.org/2000/svg" width="24" height="24" version="1" viewBox="0 0 24 24"><path fill="#0B1F35" d="M1.88 7.56l5.76 3.36 12-6.88c-.32-.32-.64-.56-.96-.8L7.64 9.48l-5.2-2.96c-.24.32-.4.72-.56 1.04z"/><path fill="#0B1F35" d="M17.56 2.44c-.4-.24-.88-.48-1.28-.64L7.64 6.76 3.8 4.52l-.72.96 4.56 2.64 9.92-5.68z"/><path fill="#0B1F35" d="M1.24 9.48c0 .16-.08.24-.08.4l6.48 3.76 13.52-7.76c-.16-.24-.24-.4-.4-.56-.08-.08-.08-.16-.16-.24 0-.08-.08-.08-.08-.16L7.64 12.28l-6.16-3.6c-.08.24-.16.56-.24.8z"/><path fill="#0B1F35" d="M1 11.8c0 .72.08 1.44.16 2.16.24 1.28.72 2.48 1.28 3.52.8 1.36 1.84 2.56 3.12 3.44.88.64 1.76 1.12 2.8 1.44.4.16.88.24 1.36.4.64.16 1.28.24 2 .24h.64c.32 0 .72 0 1.12-.08 1.52-.16 3.04-.72 4.32-1.52 1.28-.8 2.4-1.84 3.2-3.04.88-1.28 1.52-2.72 1.84-4.24 0-.16.08-.4.08-.64.08-.48.08-1.04.08-1.52v-.32c0-.48-.08-.88-.16-1.36-.16-1.2-.56-2.32-1.12-3.36L7.64 15.08 1 11.24v.56z"/></svg>