<svg xmlns="http://www.w3.org/2000/svg" width="30" height="28" viewBox="0 0 30 28"><g fill="#FFF"><path d="M.472 13.208c0 .951.106 1.902.211 2.853.317 1.69.951 3.275 1.691 4.648 1.057 1.796 2.43 3.381 4.121 4.543 1.162.845 2.325 1.479 3.698 1.902.528.211 1.162.317 1.796.528.845.212 1.69.318 2.641.318h.845c.423 0 .951 0 1.479-.106 2.008-.211 4.015-.951 5.706-2.008 1.691-1.057 3.17-2.43 4.226-4.015 1.162-1.691 2.008-3.592 2.43-5.6 0-.211.106-.528.106-.845.106-.634.106-1.374.106-2.008v-.423c0-.634-.106-1.162-.211-1.796-.211-1.585-.74-3.064-1.479-4.438L9.242 17.54l-8.77-5.072v.74zM22.343.845A12.565 12.565 0 0 0 20.653 0L9.242 6.551 4.17 3.592 3.219 4.86l6.023 3.487L22.343.845z"/><path d="M.789 10.143c0 .211-.106.317-.106.528l8.558 4.966L27.098 5.389c-.211-.317-.317-.528-.528-.74-.106-.106-.106-.211-.211-.317 0-.106-.106-.106-.106-.211L9.242 13.842 1.106 9.087C1 9.404.894 9.826.789 10.143z"/><path d="M1.634 7.608l7.608 4.438 15.849-9.087c-.423-.423-.845-.74-1.268-1.057L9.242 10.144 2.374 6.235c-.317.422-.529.95-.74 1.373z"/></g></svg>