<svg xmlns="http://www.w3.org/2000/svg" width="36" height="36" viewBox="0 0 36 36"><g fill="none" fill-rule="evenodd"><path fill="#FFE60D" d="M13.2 13.146h1.25l3.55 3.2 3.45-3.2h1.35v5.6h-9.6m-.2 1.2h10v5.5c-.343 1.533-2.01 2.3-5 2.3s-4.657-.767-5-2.3v-5.5z"/><path fill="#0B1F35" d="M15.863 4.253a4.793 4.793 0 0 1 4.273.01l.53-1.076a5.999 5.999 0 0 0-5.328-.01l.525 1.076zm2.109 28.617c2.273 0 4.61-.75 6.76-2.167L24.07 29.7c-3.887 2.566-8.248 2.578-12.14.037l-.657 1.005c2.13 1.393 4.448 2.13 6.7 2.13z"/><path fill="#0B1F35" d="M15 27.946h1.2c.805 0 1.26.994 1.264 1l.536 1 .534-1c.005-.01.46-1 1.266-1H21c1.542 0 3-1.058 3-2.6v-13.4h-2.55v-2.2l-.05-.238c-.516-1.193-1.958-2.162-3.4-2.162s-2.984.97-3.5 2.162l-.05.238c0 .762-.022 1.563 0 2.2H12v13.4c0 1.542 1.458 2.6 3 2.6zM20.25 9.88v2.516l-2.245 2.55-2.355-2.55c-.02-.516.004-1.62 0-2.515.384-.72 1.42-1.334 2.35-1.334.93 0 1.866.613 2.25 1.335zm-7.05 3.266h1.25l3.545 3.4 3.455-3.4h1.35v5.6h-9.6v-5.6zm9.8 6.8v5.2c0 .875-1.125 1.6-2 1.6h-1.2c-.818 0-1.415.605-1.8 1-.385-.395-.982-1-1.8-1H15c-.875 0-2-.725-2-1.6v-5.2h10z"/><path fill="#0B1F35" d="M2.39 18.062c-.076 2.243-.648 5.025-1.672 6.4l-.45.605.692.304c1.214.53 2.422.52 3.6-.035 1.243 2.095 2.85 2.603 4.686 3.185l.954.3V28c0-.79-.22-3.002-1.094-4.58.838-.136 1.704-.49 2.215-1.375l.38-.663-.732-.212c-.62-.18-1.368-2.64-1.368-5.424 0-3.23 1.252-4.228 3.313-5.488.952-.582.83-1.242.74-1.723-.093-.51-.223-1.207.662-2.68l.545-.91H13.8c-1.788 0-3.59.68-4.074 2.173-.698-.33-1.615-.913-2.08-1.597l-.55-.812-.472.86c-1.075 1.953-1.165 3.646-.3 4.82-1.022.45-1.685 1.415-2.288 2.293-.872 1.267-1.624 2.36-3.246 2.36H.066l.134.713c.303 1.596 1.19 2.11 2.19 2.31zm2.634-4.7c.866-1.258 1.452-2.03 2.56-2.03h2.098l-1.78-1.11c-1.237-.77-1.098-2.1-.607-3.29.923.865 2.165 1.428 2.74 1.59l.765.217v-.794c0-1.115 1.094-1.54 1.967-1.702-.526 1.247-.384 2.013-.293 2.508.022.11.05.263.042.3 0 0-.035.064-.228.18C10.085 10.58 8.4 11.916 8.4 15.747c0 1.736.335 4.88 1.51 6.114-.326.24-.89.437-1.924.437H6.538l1.024 1.024c.796.798 1.247 2.524 1.39 3.845-1.536-.51-2.69-1.063-3.616-2.91l-.294-.59-.56.348c-.788.49-1.568.65-2.368.48 1.018-1.878 1.486-4.8 1.486-6.949v-.54l-.536-.057c-.84-.09-1.256-.28-1.492-.777 1.74-.32 2.678-1.686 3.452-2.812z"/><path fill="#0B1F35" d="M7.126 15.435l-1.053-.577C5.18 16.48 4.8 18.362 4.8 21.146H6c0-2.568.336-4.276 1.126-5.71zm24.838-2.755c-.603-.877-1.267-1.842-2.29-2.29.868-1.176.777-2.87-.297-4.824l-.474-.858-.55.81c-.464.685-1.38 1.27-2.08 1.6-.484-1.494-2.285-2.172-4.073-2.172h-1.06l.545.908c.883 1.474.755 2.17.66 2.68-.087.48-.21 1.14.742 1.723 2.06 1.26 3.313 2.26 3.313 5.49 0 2.783-.748 5.243-1.368 5.423l-.733.213.38.663c.51.887 1.374 1.24 2.214 1.374C26.02 25 25.8 27.21 25.8 28.003v.82l.954-.303c1.837-.58 3.443-1.09 4.686-3.185 1.176.554 2.387.565 3.6.036l.69-.3-.45-.606c-1.024-1.375-1.594-4.158-1.672-6.4 1-.2 1.888-.714 2.19-2.31l.135-.71h-.725c-1.62-.003-2.374-1.097-3.244-2.363zm.972 4.27l-.536.057v.54c0 2.148.468 5.07 1.484 6.944-.8.17-1.58.012-2.367-.48l-.56-.347-.295.59c-.925 1.85-2.078 2.402-3.614 2.91.142-1.32.593-3.046 1.388-3.843l1.025-1.025h-1.447c-1.033 0-1.597-.198-1.925-.436 1.177-1.234 1.512-4.378 1.512-6.114 0-3.83-1.685-5.166-3.887-6.513-.185-.112-.225-.175-.225-.175-.01-.044.02-.195.04-.306.09-.497.232-1.26-.294-2.508.872.162 1.966.587 1.966 1.702v.793l.764-.217c.576-.163 1.82-.726 2.74-1.59.492 1.19.63 2.52-.605 3.29l-1.78 1.11h2.097c1.108 0 1.695.77 2.56 2.028.774 1.127 1.713 2.493 3.452 2.812-.238.497-.655.687-1.494.777z"/><path fill="#0B1F35" d="M28.874 15.435c.79 1.435 1.126 3.143 1.126 5.71h1.2c0-2.783-.38-4.665-1.274-6.288l-1.052.578z"/></g></svg>