<svg xmlns="http://www.w3.org/2000/svg" width="18" height="18" viewBox="0 0 18 18"><g fill="#0B1F35" fill-rule="evenodd"><path d="M7.93 1.854a2.397 2.397 0 0 1 2.138.005l.265-.54a3 3 0 0 0-2.663-.004l.26.54zM5.636 15.098c1.066.697 2.225 1.065 3.35 1.065 1.137 0 2.305-.375 3.38-1.085l-.33-.5c-1.945 1.282-4.125 1.288-6.07.017l-.33.503z"/><path d="M7.5 13.9h.6c.403 0 .63.43.632.434l.264.527.27-.524c.003-.004.23-.436.634-.436h.6c.77 0 1.5-.73 1.5-1.5V5.8h-1.2V4.6l-.025-.12C10.517 3.886 9.72 3.4 9 3.4s-1.517.485-1.775 1.08L7.2 4.6c0 .38.014.88.025 1.2H6v6.6c0 .77.73 1.5 1.5 1.5zm2.7-9.232v1.287l-1.198.96-1.17-.962c-.01-.258-.03-.838-.032-1.285C7.992 4.308 8.535 4 9 4c.465 0 1.008.307 1.2.668zM7.43 6.4l1.568 1.286L10.605 6.4h.795V9H6.6V6.4h.83zm3.97 3.2v2.8c0 .437-.463.9-.9.9h-.6c-.41 0-.707.204-.9.4-.193-.196-.49-.4-.9-.4h-.6c-.437 0-.9-.463-.9-.9V9.6h4.8z"/><path d="M1.195 8.758c-.038 1.12-.324 2.513-.836 3.2l-.226.303.346.153c.607.265 1.21.26 1.8-.018.622 1.047 1.424 1.3 2.343 1.592l.477.15v-.41c0-.395-.11-1.5-.547-2.29.42-.068.852-.244 1.107-.688l.19-.332-.366-.106c-.31-.09-.684-1.32-.684-2.712 0-1.615.626-2.114 1.657-2.744.475-.29.414-.62.37-.86-.047-.256-.112-.605.33-1.34L7.43 2.2H6.9c-.894 0-1.795.34-2.037 1.086-.35-.165-.808-.457-1.04-.8l-.275-.405-.236.43c-.538.978-.583 1.824-.15 2.412-.51.224-.842.706-1.144 1.146-.436.633-.812 1.18-1.623 1.18H.033l.067.356c.15.798.595 1.055 1.095 1.154zm1.317-2.35c.433-.63.726-1.015 1.28-1.015h1.05L3.95 4.84c-.618-.386-.548-1.052-.303-1.646a3.84 3.84 0 0 0 1.37.795l.383.107V3.7c0-.557.547-.77.983-.85-.262.623-.192 1.005-.146 1.253.01.055.025.132.02.15 0 0-.016.032-.113.09C5.042 5.018 4.2 5.686 4.2 7.6c0 .868.167 2.44.755 3.057-.163.12-.445.218-.962.218H3.27l.51.513c.4.398.625 1.26.695 1.922-.767-.255-1.344-.532-1.807-1.456l-.147-.295-.28.173c-.393.246-.783.325-1.183.24.51-.937.743-2.398.743-3.473v-.27l-.268-.028c-.42-.045-.628-.14-.746-.388.87-.16 1.34-.843 1.726-1.406z"/><path d="M3.563 7.445l-.526-.29C2.59 7.968 2.4 8.91 2.4 10.3H3c0-1.284.168-2.138.563-2.855zm12.419-1.377c-.302-.44-.633-.922-1.145-1.146.434-.588.39-1.434-.148-2.412l-.238-.43-.275.407c-.232.342-.69.633-1.04.798C12.895 2.54 11.994 2.2 11.1 2.2h-.53l.273.454c.44.737.377 1.086.33 1.34-.044.24-.105.57.37.862 1.03.63 1.657 1.13 1.657 2.744 0 1.392-.374 2.622-.684 2.712l-.367.107.19.33c.255.443.687.62 1.107.687-.437.79-.547 1.895-.547 2.29v.41l.477-.15c.92-.29 1.72-.545 2.343-1.592.588.277 1.193.282 1.8.018l.346-.152-.225-.3c-.512-.69-.797-2.08-.836-3.2.5-.1.944-.358 1.095-1.156l.066-.356h-.362c-.81 0-1.187-.547-1.622-1.18zm.486 2.134l-.268.03V8.5c0 1.075.234 2.536.742 3.473-.4.084-.79.005-1.184-.24l-.28-.174-.147.293c-.46.925-1.038 1.202-1.806 1.456.07-.662.296-1.524.694-1.923l.513-.512h-.724c-.516 0-.798-.1-.962-.22.59-.615.756-2.187.756-3.055 0-1.915-.842-2.583-1.943-3.256-.093-.057-.113-.088-.113-.088-.004-.022.01-.098.02-.153.045-.248.116-.63-.147-1.254.436.08.983.293.983.85v.397l.382-.108c.288-.083.91-.364 1.37-.796.246.594.316 1.26-.302 1.645l-.89.553h1.05c.552 0 .846.386 1.278 1.015.387.563.857 1.245 1.727 1.405-.12.248-.327.344-.747.39z"/><path d="M14.437 7.445c.395.717.563 1.57.563 2.855h.6c0-1.392-.19-2.333-.637-3.145l-.526.29z"/></g></svg>