<svg xmlns="http://www.w3.org/2000/svg" width="30" height="30" viewBox="0 0 30 30"><g fill="none" fill-rule="evenodd"><path fill="#FFE60D" d="M11 11.046h2C13.894 12.35 14.56 13 15 13c.44 0 1.106-.65 2-1.954h2V22l-4 2-4-2V11.046z"/><path fill="#0B1F35" d="M13.22 3.47a3.988 3.988 0 0 1 3.56.007l.44-.897a5 5 0 0 0-4.438-.01l.437.9zM9.394 25.543c1.776 1.16 3.707 1.774 5.583 1.774 1.894 0 3.84-.625 5.632-1.807l-.552-.835c-3.24 2.138-6.873 2.148-10.117.03l-.546.838z"/><path fill="#0B1F35" d="M10 21.046c0 1.285 1.215 2.5 2.5 2.5h1c.67 0 1.05.72 1.053.724l.44.877.452-.874c.004-.007.384-.727 1.055-.727h1c1.285 0 2.5-1.215 2.5-2.5v-11h-2v-2l-.04-.198c-.43-.994-1.76-1.802-2.96-1.802s-2.53.808-2.96 1.802l-.04.198c0 .635.024 1.47.042 2H10v11zm5-14c.775 0 1.68.51 2 1.113v2.145l-1.996 1.597-1.952-1.6c-.016-.43-.05-1.398-.052-2.143.32-.603 1.225-1.114 2-1.114zm-4 4h1.382l2.614 2.144 2.68-2.144H19v5h-8v-5zm0 6h8v4c0 .73-.77 1.5-1.5 1.5h-1c-.682 0-1.18.34-1.5.67-.32-.33-.818-.67-1.5-.67h-1c-.73 0-1.5-.77-1.5-1.5v-4z"/><path fill="#0B1F35" d="M1.992 14.976c-.064 1.87-.54 4.188-1.394 5.334l-.375.504.577.253c1.012.442 2.018.432 3-.03 1.036 1.746 2.374 2.17 3.905 2.654l.795.252v-.683c0-.66-.183-2.504-.912-3.82.7-.112 1.42-.406 1.846-1.145l.317-.552-.61-.177c-.517-.15-1.14-2.2-1.14-4.52 0-2.69 1.043-3.523 2.76-4.573.794-.485.692-1.035.618-1.436-.078-.424-.186-1.006.55-2.233l.455-.758H11.5c-1.49 0-2.99.565-3.395 1.81-.582-.275-1.346-.76-1.733-1.33l-.458-.678-.394.716c-.896 1.628-.97 3.04-.25 4.018-.852.374-1.404 1.178-1.907 1.91C2.637 11.547 2.01 12.46.658 12.46H.055l.112.592c.252 1.33.99 1.76 1.825 1.924zm2.195-3.917c.72-1.05 1.21-1.692 2.133-1.692h1.748l-1.484-.924c-1.03-.642-.914-1.75-.505-2.742.768.72 1.803 1.19 2.283 1.325l.637.18v-.66c0-.93.912-1.284 1.64-1.42-.44 1.04-.32 1.678-.245 2.09.018.093.04.22.035.25 0 0-.03.054-.19.152C8.404 8.74 7 9.853 7 13.045c0 1.447.28 4.067 1.26 5.095-.273.2-.743.365-1.605.365H5.448l.854.854c.663.663 1.04 2.1 1.157 3.202-1.28-.424-2.242-.886-3.013-2.426l-.245-.49-.467.29c-.657.408-1.307.54-1.973.4.848-1.564 1.238-4 1.238-5.79v-.45l-.447-.047c-.7-.076-1.046-.235-1.243-.648 1.45-.267 2.232-1.405 2.877-2.343z"/><path fill="#0B1F35" d="M5.938 12.787l-.877-.48c-.743 1.35-1.06 2.92-1.06 5.24h1c0-2.14.28-3.564.938-4.76zm20.699-2.295c-.503-.732-1.056-1.536-1.908-1.91.722-.98.646-2.39-.25-4.02l-.394-.714-.458.676c-.387.57-1.15 1.056-1.733 1.33-.404-1.243-1.905-1.808-3.395-1.808h-.883l.454.757c.737 1.228.63 1.81.552 2.233-.074.4-.176.95.617 1.436 1.717 1.05 2.76 1.883 2.76 4.574 0 2.32-.623 4.37-1.14 4.52l-.61.178.316.552c.426.74 1.146 1.033 1.846 1.145-.73 1.317-.912 3.16-.912 3.82v.683l.795-.252c1.53-.483 2.87-.907 3.905-2.653.98.462 1.99.47 3 .03l.576-.252-.375-.504c-.853-1.145-1.328-3.464-1.393-5.333.834-.166 1.573-.594 1.825-1.924l.112-.593h-.604c-1.35 0-1.978-.913-2.703-1.968zm.81 3.557l-.447.047v.45c0 1.79.39 4.225 1.237 5.787-.667.14-1.316.01-1.973-.4l-.467-.29-.245.49c-.77 1.542-1.732 2.003-3.012 2.427.118-1.1.494-2.538 1.157-3.202l.854-.854h-1.206c-.86 0-1.33-.165-1.604-.364.98-1.027 1.26-3.647 1.26-5.094 0-3.192-1.404-4.305-3.24-5.427a.654.654 0 0 1-.187-.147 1.282 1.282 0 0 1 .033-.255c.076-.414.194-1.05-.244-2.09.726.135 1.638.49 1.638 1.418v.66l.637-.18c.48-.135 1.516-.604 2.284-1.324.41.99.526 2.1-.504 2.742l-1.483.924h1.748c.924 0 1.413.643 2.134 1.69.645.94 1.428 2.077 2.877 2.343-.197.415-.544.574-1.243.65z"/><path fill="#0B1F35" d="M24.062 12.787c.658 1.196.938 2.62.938 4.76h1c0-2.32-.317-3.89-1.062-5.242l-.876.482z"/></g></svg>