<svg width="30" height="30" viewBox="0 0 30 30" xmlns="http://www.w3.org/2000/svg"><g fill="none" fill-rule="evenodd"><g fill="#FFF"><path d="M13.22 3.423c1.14-.555 2.418-.554 3.56.008l.44-.896c-1.41-.695-3.026-.7-4.438-.01l.437.9zM9.394 25.497c1.776 1.16 3.707 1.774 5.583 1.774 1.894 0 3.84-.624 5.632-1.806l-.552-.835c-3.24 2.137-6.873 2.147-10.117.03l-.546.837z"/><path d="M10 21c0 1.285 1.215 2.5 2.5 2.5h1c.67 0 1.05.72 1.053.724l.44.877.452-.873c.004-.007.384-.727 1.055-.727h1c1.285 0 2.5-1.215 2.5-2.5V10h-2V8l-.04-.198C17.53 6.808 16.2 6 15 6s-2.53.808-2.96 1.802L12 8c0 .635.024 1.47.042 2H10v11zm5-14c.775 0 1.68.51 2 1.113v2.146l-1.996 1.596-1.952-1.6c-.016-.43-.05-1.398-.052-2.143C13.32 7.51 14.225 7 15 7zm-4 4h1.382l2.614 2.144L17.676 11H19v5h-8v-5zm0 6h8v4c0 .73-.77 1.5-1.5 1.5h-1c-.682 0-1.18.34-1.5.67-.32-.33-.818-.67-1.5-.67h-1c-.73 0-1.5-.77-1.5-1.5v-4z"/><path d="M1.992 14.93c-.064 1.87-.54 4.188-1.394 5.334l-.375.504.577.253c1.012.443 2.018.433 3-.03 1.036 1.747 2.374 2.17 3.905 2.655l.795.25v-.682c0-.66-.183-2.503-.912-3.82.7-.11 1.42-.405 1.846-1.144l.317-.553-.61-.177C8.623 17.37 8 15.32 8 13c0-2.69 1.043-3.523 2.76-4.573.794-.485.692-1.035.618-1.436-.078-.423-.186-1.005.55-2.232L12.384 4H11.5c-1.49 0-2.99.565-3.395 1.81-.582-.275-1.346-.76-1.733-1.33L5.914 3.8l-.394.716c-.896 1.628-.97 3.04-.25 4.018-.852.374-1.404 1.178-1.907 1.91C2.637 11.5 2.01 12.413.658 12.413H.055l.112.593c.252 1.33.99 1.76 1.825 1.924zm2.195-3.917c.72-1.048 1.21-1.69 2.133-1.69h1.748l-1.484-.925c-1.03-.642-.914-1.75-.505-2.742.768.72 1.803 1.19 2.283 1.325L9 7.16V6.5c0-.93.912-1.283 1.64-1.418-.44 1.04-.32 1.677-.245 2.09.018.092.04.22.035.25 0 0-.03.053-.19.15C8.404 8.696 7 9.81 7 13c0 1.447.28 4.067 1.26 5.095-.273.2-.743.364-1.605.364H5.448l.854.853c.663.664 1.04 2.102 1.157 3.203-1.28-.424-2.242-.886-3.013-2.426l-.245-.49-.467.29c-.657.408-1.307.54-1.973.4C2.61 18.725 3 16.29 3 14.5v-.45l-.447-.047c-.7-.075-1.046-.234-1.243-.647 1.45-.267 2.232-1.405 2.877-2.343z"/><path d="M5.938 12.74l-.877-.48C4.318 13.612 4 15.18 4 17.5h1c0-2.14.28-3.563.938-4.76zM26.637 10.446c-.503-.732-1.056-1.536-1.908-1.91.722-.98.646-2.39-.25-4.02l-.394-.714-.458.676c-.387.57-1.15 1.056-1.733 1.33C21.49 4.566 19.99 4 18.5 4h-.883l.454.757c.737 1.228.63 1.81.552 2.233-.074.4-.176.95.617 1.436C20.956 9.476 22 10.31 22 13c0 2.32-.623 4.37-1.14 4.52l-.61.178.316.552c.426.74 1.146 1.033 1.846 1.145-.73 1.316-.912 3.16-.912 3.82v.682l.795-.252c1.53-.484 2.87-.908 3.905-2.654.98.463 1.99.472 3 .03l.576-.25-.375-.505c-.853-1.146-1.328-3.465-1.393-5.334.834-.165 1.573-.593 1.825-1.923l.112-.593h-.604c-1.35 0-1.978-.913-2.703-1.968zm.81 3.557L27 14.05v.45c0 1.79.39 4.226 1.237 5.788-.667.14-1.316.01-1.973-.4l-.467-.29-.245.49c-.77 1.542-1.732 2.003-3.012 2.427.118-1.1.494-2.54 1.157-3.203l.854-.854h-1.206c-.86 0-1.33-.165-1.604-.364C22.72 17.067 23 14.447 23 13c0-3.192-1.404-4.305-3.24-5.427-.153-.094-.187-.146-.187-.146-.007-.037.016-.163.033-.255.076-.414.194-1.05-.244-2.09.726.135 1.638.49 1.638 1.418v.66l.637-.18c.48-.135 1.516-.604 2.284-1.324.41.99.526 2.1-.504 2.742l-1.483.924h1.748c.924 0 1.413.643 2.134 1.69.645.94 1.428 2.077 2.877 2.343-.197.414-.544.573-1.243.648z"/><path d="M24.062 12.74c.658 1.197.938 2.62.938 4.76h1c0-2.32-.317-3.888-1.062-5.24l-.876.48z"/></g></g></svg>
