<svg xmlns="http://www.w3.org/2000/svg" width="18" height="19" viewBox="0 0 18 19"><g fill="none" fill-rule="evenodd"><path fill="#FFE60D" d="M6.317 6.046H7L9.022 7 11 6.046h.727v7.097L9 14l-2.683-.857"/><g fill="#0B1F35"><path d="M7.93 1.9a2.4 2.4 0 0 1 2.138.004l.265-.538A3.004 3.004 0 0 0 7.67 1.36l.26.54zM5.636 15.144c1.066.697 2.225 1.064 3.35 1.064 1.137 0 2.305-.375 3.38-1.084l-.33-.5c-1.945 1.282-4.125 1.288-6.07.017l-.33.504z"/><path d="M7.5 13.946h.6c.403 0 .63.43.632.434l.264.526.27-.524c.003-.004.23-.436.634-.436h.6c.77 0 1.5-.73 1.5-1.5v-6.6h-1.2v-1.2l-.025-.12C10.517 3.932 9.72 3.447 9 3.447s-1.517.485-1.775 1.08l-.025.12c0 .38.014.88.025 1.2H6v6.6c0 .77.73 1.5 1.5 1.5zm2.7-9.232V6l-1.198.96L7.832 6c-.01-.26-.03-.84-.032-1.286.192-.362.735-.668 1.2-.668.465 0 1.008.306 1.2.668zM7.43 6.446l1.568 1.286 1.607-1.286h.795v2.6H6.6v-2.6h.83zm3.97 3.2v2.8c0 .437-.463.9-.9.9h-.6c-.41 0-.707.204-.9.4-.193-.196-.49-.4-.9-.4h-.6c-.437 0-.9-.463-.9-.9v-2.8h4.8z"/><path d="M1.195 8.804c-.038 1.12-.324 2.513-.836 3.2l-.226.303.346.15c.607.267 1.21.26 1.8-.017.622 1.048 1.424 1.302 2.343 1.593l.477.15v-.41c0-.395-.11-1.5-.547-2.29.42-.068.852-.244 1.107-.688l.19-.33-.366-.107c-.31-.09-.684-1.32-.684-2.712 0-1.615.626-2.114 1.657-2.744.475-.29.414-.62.37-.862-.047-.254-.112-.603.33-1.34l.273-.454H6.9c-.894 0-1.795.34-2.037 1.086-.35-.165-.808-.457-1.04-.8l-.275-.405-.236.43c-.538.976-.583 1.823-.15 2.41-.51.225-.842.707-1.144 1.146-.436.633-.812 1.18-1.623 1.18H.033L.1 7.65c.15.797.595 1.055 1.095 1.154zm1.317-2.35c.433-.63.726-1.015 1.28-1.015h1.05l-.892-.555c-.618-.386-.548-1.05-.303-1.646a3.85 3.85 0 0 0 1.37.794l.383.108v-.396c0-.558.547-.77.983-.85-.262.622-.192 1.005-.146 1.253.01.054.025.13.02.15 0 0-.016.03-.113.09C5.042 5.063 4.2 5.73 4.2 7.646c0 .868.167 2.44.755 3.057-.163.12-.445.218-.962.218H3.27l.51.514c.4.398.625 1.26.695 1.92-.767-.253-1.344-.53-1.807-1.454l-.147-.295-.28.174c-.393.245-.783.324-1.183.24.51-.94.743-2.4.743-3.474v-.27l-.268-.028c-.42-.045-.628-.14-.746-.39.87-.16 1.34-.842 1.726-1.404z"/><path d="M3.563 7.49l-.526-.288c-.447.81-.637 1.752-.637 3.144H3c0-1.284.168-2.138.563-2.856zm12.419-1.377c-.302-.44-.633-.92-1.145-1.146.434-.587.39-1.434-.148-2.41l-.238-.43-.275.406c-.232.342-.69.633-1.04.798-.242-.745-1.143-1.084-2.037-1.084h-.53l.273.454c.44.737.377 1.085.33 1.34-.044.24-.105.57.37.86 1.03.632 1.657 1.13 1.657 2.746 0 1.392-.374 2.622-.684 2.712l-.367.107.19.33c.255.444.687.62 1.107.688-.437.79-.547 1.895-.547 2.29v.41l.477-.15c.92-.29 1.72-.545 2.343-1.593.588.278 1.193.283 1.8.018l.346-.15-.225-.303c-.512-.688-.797-2.08-.836-3.2.5-.1.944-.357 1.095-1.155l.066-.356h-.362c-.81 0-1.187-.548-1.622-1.18zm.486 2.135l-.268.028v.27c0 1.074.234 2.535.742 3.473-.4.083-.79.004-1.184-.24l-.28-.175-.147.294c-.46.924-1.038 1.2-1.806 1.455.07-.66.296-1.524.694-1.922l.513-.512h-.724c-.516 0-.798-.098-.962-.218.59-.616.756-2.188.756-3.056 0-1.915-.842-2.583-1.943-3.256-.093-.057-.113-.088-.113-.088-.004-.022.01-.098.02-.153.045-.25.116-.632-.147-1.255.436.08.983.293.983.85v.397l.382-.108c.288-.08.91-.363 1.37-.795.246.594.316 1.26-.302 1.645l-.89.554h1.05c.552 0 .846.385 1.278 1.014.387.562.857 1.245 1.727 1.405-.12.247-.327.343-.747.388z"/><path d="M14.437 7.49c.395.718.563 1.572.563 2.856h.6c0-1.392-.19-2.333-.637-3.145l-.526.29z"/></g></g></svg>