<svg xmlns="http://www.w3.org/2000/svg" width="36" height="36" viewBox="0 0 36 36"><g fill="#0B1F35" fill-rule="evenodd"><path d="M15.863 4.208a4.79 4.79 0 0 1 4.273.01l.53-1.077a6.002 6.002 0 0 0-5.328-.01l.525 1.078zm2.109 28.617c2.273 0 4.61-.75 6.76-2.168l-.662-1.002c-3.887 2.565-8.248 2.577-12.14.036l-.657 1.006c2.13 1.394 4.448 2.13 6.7 2.13z"/><path d="M15 27.9h1.2c.805 0 1.26.994 1.264 1l.536 1 .534-1c.005-.008.46-1 1.266-1H21c1.542 0 3-1.058 3-2.6V11.9h-2.55V9.7l-.05-.238C20.884 8.27 19.442 7.3 18 7.3s-2.984.97-3.5 2.162l-.05.238c0 .762-.022 1.563 0 2.2H12v13.4c0 1.542 1.458 2.6 3 2.6zm5.25-18.064v2.514l-2.245 2.55-2.355-2.55c-.02-.516.004-1.62 0-2.514C16.034 9.113 17.07 8.5 18 8.5c.93 0 1.866.613 2.25 1.336zM13.2 13.1h1.25l3.545 3.4 3.455-3.4h1.35v5.6h-9.6v-5.6zm9.8 6.8v5.2c0 .875-1.125 1.6-2 1.6h-1.2c-.818 0-1.415.605-1.8 1-.385-.395-.982-1-1.8-1H15c-.875 0-2-.725-2-1.6v-5.2h10z"/><path d="M2.39 18.016c-.076 2.243-.648 5.026-1.672 6.4l-.45.606.692.303c1.214.53 2.422.52 3.6-.036 1.243 2.094 2.85 2.602 4.686 3.184l.954.3v-.818c0-.792-.22-3.004-1.094-4.583.838-.135 1.704-.487 2.215-1.374l.38-.664-.732-.212c-.62-.18-1.368-2.64-1.368-5.424 0-3.23 1.252-4.228 3.313-5.488.952-.582.83-1.242.74-1.723-.093-.51-.223-1.208.662-2.68l.545-.91H13.8c-1.788 0-3.59.678-4.074 2.172-.698-.33-1.615-.913-2.08-1.597l-.55-.813-.472.86c-1.075 1.953-1.165 3.646-.3 4.82-1.022.45-1.685 1.415-2.288 2.293-.872 1.266-1.624 2.36-3.246 2.36H.066l.134.712c.303 1.596 1.19 2.11 2.19 2.31zm2.634-4.7c.866-1.258 1.452-2.03 2.56-2.03h2.098l-1.78-1.108c-1.237-.77-1.098-2.102-.607-3.29.923.863 2.165 1.426 2.74 1.59l.765.215V7.9c0-1.115 1.094-1.54 1.967-1.702-.526 1.247-.384 2.013-.293 2.508.022.11.05.263.042.3 0 0-.035.064-.228.182C10.085 10.534 8.4 11.87 8.4 15.7c0 1.736.335 4.88 1.51 6.114-.326.24-.89.437-1.924.437H6.538l1.024 1.026c.796.796 1.247 2.522 1.39 3.843-1.536-.51-2.69-1.064-3.616-2.912l-.294-.59-.56.35c-.788.49-1.568.648-2.368.48C3.132 22.57 3.6 19.647 3.6 17.5v-.54l-.536-.056c-.84-.09-1.256-.28-1.492-.777 1.74-.32 2.678-1.686 3.452-2.81z"/><path d="M7.126 15.39l-1.053-.578C5.18 16.434 4.8 18.316 4.8 21.1H6c0-2.568.336-4.276 1.126-5.71zm24.838-2.755c-.603-.878-1.267-1.843-2.29-2.292.868-1.175.777-2.868-.297-4.823l-.474-.858-.55.812c-.464.684-1.38 1.267-2.08 1.597C25.79 5.58 23.99 4.9 22.2 4.9h-1.06l.545.908c.883 1.474.755 2.17.66 2.68-.087.48-.21 1.14.742 1.723 2.06 1.262 3.313 2.26 3.313 5.49 0 2.784-.748 5.244-1.368 5.424l-.733.214.38.662c.51.887 1.374 1.24 2.214 1.374-.874 1.58-1.094 3.79-1.094 4.583v.82l.954-.303c1.837-.58 3.443-1.09 4.686-3.185 1.176.554 2.387.564 3.6.035l.69-.302-.45-.605c-1.024-1.375-1.594-4.158-1.672-6.4 1-.2 1.888-.714 2.19-2.31l.135-.71h-.725c-1.62-.002-2.374-1.097-3.244-2.363zm.972 4.27l-.536.056v.54c0 2.15.468 5.07 1.484 6.946-.8.17-1.58.01-2.367-.48l-.56-.348-.295.59c-.925 1.848-2.078 2.4-3.614 2.91.142-1.32.593-3.047 1.388-3.844l1.025-1.024h-1.447c-1.033 0-1.597-.198-1.925-.437C27.265 20.58 27.6 17.436 27.6 15.7c0-3.83-1.685-5.166-3.887-6.512-.185-.113-.225-.176-.225-.176-.01-.044.02-.195.04-.306.09-.496.232-1.26-.294-2.508.872.162 1.966.587 1.966 1.702v.793l.764-.216c.576-.163 1.82-.726 2.74-1.59.492 1.19.63 2.52-.605 3.29l-1.78 1.11h2.097c1.108 0 1.695.77 2.56 2.03.774 1.124 1.713 2.49 3.452 2.81-.238.496-.655.687-1.494.777z"/><path d="M28.874 15.39C29.664 16.823 30 18.53 30 21.1h1.2c0-2.784-.38-4.666-1.274-6.29l-1.052.58z"/></g></svg>