<svg width="17" height="18" viewBox="0 0 17 18" xmlns="http://www.w3.org/2000/svg">
  <g fill="none" fill-rule="evenodd">
    <path d="M-3-3h24v24H-3"/>
    <path d="M8.508 16.07c1.96 1.91 5.09 1.89 7.026-.044C17.47 14.09 17.49 10.96 15.578 9L7.8 1.222C6.79.212 5.32-.183 3.938.187 2.557.557 1.48 1.635 1.11 3.015c-.37 1.38.023 2.853 1.034 3.864l6.364 6.363c.756.768 1.866 1.072 2.907.796 1.042-.278 1.855-1.09 2.13-2.133.277-1.042-.027-2.15-.795-2.907L9.92 6.172l-.706.707 2.83 2.827c.504.506.702 1.242.516 1.933-.185.69-.724 1.23-1.415 1.414-.69.185-1.427-.012-1.932-.518l-6.36-6.364C1.68 5 1.68 3.102 2.852 1.93c1.17-1.173 3.07-1.173 4.242 0l7.778 7.777c1.01 1.01 1.405 2.483 1.035 3.864-.37 1.38-1.448 2.46-2.828 2.83-1.38.37-2.853-.025-3.864-1.036L2.85 9l-.707.707 6.365 6.364z" fill="#0B1F35" fill-rule="nonzero"/>
  </g>
</svg>
