<svg width="36" height="36" xmlns="http://www.w3.org/2000/svg">
  <g fill="none" fill-rule="evenodd">
    <path d="M0 0h36v36H0z"/>
    <circle fill="#FFFFFF" fill-rule="nonzero" opacity=".3" cx="27" cy="9" r="3"/>
    <path d="M33.9 0H20.4c-.6 0-1.2.2-1.6.7L1.2 18.3c-.8.8-1.2 1.8-1.2 2.8 0 1.1.4 2.1 1.2 2.8l11 11c.7.7 1.7 1.2 2.8 1.2 1.1 0 2.1-.4 2.8-1.2l17.7-17.7c.4-.4.7-1 .7-1.6V2.2C36.1 1 35.1 0 33.9 0zm1.2 15.7c0 .3-.1.6-.4.9L17.1 34.2c-1.1 1.1-3.1 1.1-4.2 0l-11-11c-.6-.5-.9-1.3-.9-2.1s.3-1.5.9-2.1L19.5 1.4c.3-.3.6-.4.9-.4h13.5c.7 0 1.2.6 1.2 1.2v13.5z" fill="#FFFFFF" fill-rule="nonzero"/>
  </g>
</svg>
