<svg xmlns="http://www.w3.org/2000/svg" width="48" height="48" viewBox="0 0 48 48"><g fill="none" fill-rule="evenodd"><path d="M0 0h48v48H0z"/><path fill="#0B1F35" d="M45.2 0h-18c-.7 0-1.5.3-2 .8L1.9 24.2c-1 1-1.5 2.3-1.5 3.6 0 1.4.5 2.7 1.5 3.6l14.7 14.7c1 1 2.3 1.5 3.6 1.5 1.3 0 2.6-.5 3.6-1.5l23.4-23.4c.5-.5.8-1.2.8-2V2.8C48 1.3 46.7 0 45.2 0zM47 20.8c0 .5-.2.9-.5 1.3L23.1 45.4c-1.6 1.6-4.2 1.6-5.8 0L2.6 30.7c-.8-.8-1.2-1.8-1.2-2.9 0-1.1.4-2.1 1.2-2.9L26 1.5c.3-.3.8-.5 1.2-.5h18c1 0 1.8.8 1.8 1.8v18z"/><circle cx="34.5" cy="13.5" r="4" fill="#0B1F35" opacity=".3"/></g></svg>