<svg xmlns="http://www.w3.org/2000/svg" width="24" height="24" viewBox="0 0 24 24"><g fill="none" fill-rule="evenodd"><path d="M0 0h24v24H0z"/><path fill="#0B1F35" d="M14.5 20.5c-1.1 0-2-.9-2-2s.9-2 2-2 2 .9 2 2-.9 2-2 2zm0-3c-.6 0-1 .4-1 1s.4 1 1 1 1-.4 1-1-.4-1-1-1zm-5-2c-1.1 0-2-.9-2-2s.9-2 2-2 2 .9 2 2-.9 2-2 2zm0-3c-.6 0-1 .4-1 1s.4 1 1 1 1-.4 1-1-.4-1-1-1zm-.9 7.2l5.999-8 .8.6-5.999 8z" opacity=".4"/><path fill="#0B1F35" d="M19.4 7H17V4.5C17 2 15 0 12.5 0h-1C9 0 7 2 7 4.5V7H4.6L2.4 24h19.1L19.4 7zM8 4.5C8 2.6 9.6 1 11.5 1h1C14.4 1 16 2.6 16 4.5V7H8V4.5zM5.4 8h13.1l1.9 15H3.6L5.4 8z"/></g></svg>