<svg xmlns="http://www.w3.org/2000/svg" width="24" height="24" viewBox="0 0 24 24"><g fill="none" fill-rule="evenodd"><rect width="24" height="24"/><g fill="#FFF" fill-rule="nonzero"><path d="M22.436,9 L12,9 L12,5.5 C12,2.468 9.532,0 6.5,0 L5.5,0 C2.468,0 0,2.468 0,5.5 L0,9 L1,9 L1,5.5 C1,3.019 3.019,1 5.5,1 L6.5,1 C8.981,1 11,3.019 11,5.5 L11,9 L7.564,9 C6.702,9 6,9.702 6,10.564 L6,20.306 C6,22.343 7.657,24 9.693,24 L20.306,24 C22.343,24 24,22.343 24,20.307 L24,10.565 C24,9.702 23.298,9 22.436,9 Z M23,20.307 C23,21.792 21.792,23 20.307,23 L9.693,23 C8.208,23 7,21.792 7,20.307 L7,10.565 C7,10.253 7.253,10 7.564,10 L22.435,10 C22.747,10 23,10.253 23,10.564 L23,20.307 Z"/><path d="M15,13 C13.895,13 13,13.895 13,15 C13,15.738 13.405,16.376 14,16.723 L14,20 L16,20 L16,16.723 C16.595,16.377 17,15.739 17,15 C17,13.895 16.105,13 15,13 Z" opacity=".4"/></g></g></svg>