<svg xmlns="http://www.w3.org/2000/svg" width="24" height="24" viewBox="0 0 24 24" fill="none"><rect width="24" height="24" fill="none"/><path d="M20 8H19V4C19 2.897 18.103 2 17 2H7.707L3 6.707V7H2V6.293L7.293 1H17C18.654 1 20 2.346 20 4V8ZM17 23H5C3.346 23 2 21.654 2 20V19H3V20C3 21.103 3.897 22 5 22H17C18.103 22 19 21.103 19 20V19H20V20C20 21.654 18.654 23 17 23Z" fill="white"/><path d="M2 15.9198V10.0802H3.79679C4.31016 10.0802 4.76872 10.1965 5.17246 10.4291C5.57888 10.6591 5.89572 10.988 6.12299 11.4158C6.35027 11.8409 6.4639 12.3249 6.4639 12.8676V13.1364C6.4639 13.6791 6.3516 14.1618 6.12701 14.5842C5.90508 15.0067 5.59091 15.3342 5.18449 15.5668C4.77807 15.7995 4.31952 15.9171 3.80882 15.9198H2ZM3.20321 11.0548V14.9532H3.78476C4.25535 14.9532 4.61497 14.7995 4.86364 14.492C5.1123 14.1845 5.2393 13.7447 5.24465 13.1725V12.8636C5.24465 12.2701 5.12166 11.8209 4.87567 11.516C4.62968 11.2086 4.27005 11.0548 3.79679 11.0548H3.20321Z" fill="white"/><path d="M12.1392 13.1324C12.1392 13.7072 12.0376 14.2112 11.8344 14.6444C11.6312 15.0775 11.3398 15.4118 10.9601 15.6471C10.5831 15.8824 10.1499 16 9.66067 16C9.17671 16 8.74489 15.8837 8.36521 15.6511C7.98553 15.4184 7.69142 15.0869 7.48286 14.6564C7.2743 14.2233 7.16869 13.7259 7.16602 13.1644V12.8757C7.16602 12.3008 7.26896 11.7955 7.47484 11.3596C7.6834 10.9211 7.97618 10.5856 8.35318 10.3529C8.73286 10.1176 9.16602 10 9.65265 10C10.1392 10 10.5711 10.1176 10.9481 10.3529C11.3277 10.5856 11.6205 10.9211 11.8264 11.3596C12.035 11.7955 12.1392 12.2995 12.1392 12.8717V13.1324ZM10.92 12.8676C10.92 12.2553 10.8104 11.7901 10.5911 11.4719C10.3719 11.1537 10.059 10.9947 9.65265 10.9947C9.2489 10.9947 8.93741 11.1524 8.71815 11.4679C8.4989 11.7807 8.38794 12.2406 8.38527 12.8476V13.1324C8.38527 13.7286 8.49489 14.1912 8.71414 14.5201C8.9334 14.8489 9.2489 15.0134 9.66067 15.0134C10.0644 15.0134 10.3745 14.8556 10.5911 14.5401C10.8077 14.2219 10.9173 13.7594 10.92 13.1524V12.8676Z" fill="white"/><path d="M17.5976 13.9746C17.5521 14.6029 17.3195 15.0976 16.8997 15.4586C16.4826 15.8195 15.9318 16 15.2473 16C14.4987 16 13.9091 15.7487 13.4786 15.246C13.0508 14.7406 12.8369 14.0481 12.8369 13.1684V12.8115C12.8369 12.25 12.9358 11.7553 13.1337 11.3275C13.3316 10.8997 13.6136 10.5722 13.9799 10.3449C14.3489 10.115 14.7767 10 15.2634 10C15.9372 10 16.4799 10.1805 16.8917 10.5414C17.3035 10.9024 17.5414 11.4091 17.6056 12.0615H16.4024C16.373 11.6845 16.2674 11.4118 16.0856 11.2433C15.9064 11.0722 15.6324 10.9866 15.2634 10.9866C14.8623 10.9866 14.5615 11.131 14.361 11.4198C14.1631 11.7059 14.0615 12.1511 14.0562 12.7553V13.1965C14.0562 13.8275 14.1511 14.2888 14.3409 14.5802C14.5334 14.8717 14.8356 15.0174 15.2473 15.0174C15.619 15.0174 15.8957 14.9332 16.0775 14.7647C16.262 14.5936 16.3676 14.3302 16.3944 13.9746H17.5976Z" fill="white"/><path d="M20.4774 12.0936L21.5723 10.0802H22.956L21.2554 12.9759L23.0001 15.9198H21.6004L20.4774 13.8743L19.3544 15.9198H17.9546L19.6993 12.9759L17.9988 10.0802H19.3825L20.4774 12.0936Z" fill="white"/></svg>