<svg xmlns="http://www.w3.org/2000/svg" width="18" height="18" viewBox="0 0 18 18" fill="none"><rect width="18" height="18" fill="none"/><path d="M13 6H12V2.559C11.9997 2.41083 11.9408 2.26879 11.836 2.16402C11.7312 2.05924 11.5892 2.00026 11.441 2H4.707L1 5.707V6H0V5.293L4.293 1H11.441C12.301 1 13 1.699 13 2.559V6ZM11.5 18H1.5C0.673 18 0 17.327 0 16.5H1C1 16.6326 1.05268 16.7598 1.14645 16.8536C1.24021 16.9473 1.36739 17 1.5 17H11.5C11.6326 17 11.7598 16.9473 11.8536 16.8536C11.9473 16.7598 12 16.6326 12 16.5H13C13 17.327 12.327 18 11.5 18Z" fill="white"/><path d="M0 12.9332V8.06683H1.54011C1.98014 8.06683 2.37319 8.16376 2.71925 8.35761C3.06761 8.54923 3.33919 8.8233 3.534 9.1798C3.7288 9.53408 3.8262 9.93738 3.8262 10.3897V10.6136C3.8262 11.066 3.72995 11.4681 3.53743 11.8202C3.34721 12.1722 3.07792 12.4452 2.72956 12.639C2.38121 12.8329 1.98816 12.9309 1.55042 12.9332H0ZM1.03132 8.879V12.1277H1.52979C1.93316 12.1277 2.24141 11.9996 2.45455 11.7433C2.66769 11.4871 2.77655 11.1205 2.78113 10.6437V10.3864C2.78113 9.8917 2.67571 9.51737 2.46486 9.26336C2.25401 9.00712 1.94576 8.879 1.54011 8.879H1.03132Z" fill="white"/><path d="M8.69052 10.6103C8.69052 11.0893 8.60343 11.5094 8.42926 11.8703C8.25508 12.2313 8.00527 12.5098 7.67983 12.7059C7.35668 12.902 6.98541 13 6.566 13C6.15118 13 5.78105 12.9031 5.45561 12.7092C5.13017 12.5154 4.87807 12.2391 4.69931 11.8803C4.52055 11.5194 4.43002 11.1049 4.42773 10.637V10.3964C4.42773 9.91734 4.51596 9.49621 4.69243 9.13302C4.8712 8.7676 5.12215 8.48797 5.4453 8.29412C5.77074 8.09804 6.14201 8 6.55913 8C6.97624 8 7.34637 8.09804 7.66952 8.29412C7.99495 8.48797 8.24591 8.7676 8.42238 9.13302C8.60114 9.49621 8.69052 9.91622 8.69052 10.393V10.6103ZM7.64545 10.3897C7.64545 9.87946 7.55149 9.49176 7.36356 9.2266C7.17563 8.96145 6.90748 8.82888 6.55913 8.82888C6.21306 8.82888 5.94606 8.96034 5.75813 9.22326C5.5702 9.48396 5.47509 9.8672 5.4728 10.373V10.6103C5.4728 11.1072 5.56676 11.4926 5.75469 11.7667C5.94262 12.0408 6.21306 12.1778 6.566 12.1778C6.91207 12.1778 7.17792 12.0463 7.36356 11.7834C7.54919 11.5183 7.64316 11.1328 7.64545 10.627V10.3897Z" fill="white"/><path d="M13.3692 11.3122C13.3302 11.8358 13.1308 12.248 12.771 12.5488C12.4135 12.8496 11.9414 13 11.3547 13C10.7129 13 10.2076 12.7906 9.83861 12.3717C9.47192 11.9505 9.28857 11.3734 9.28857 10.6404V10.3429C9.28857 9.875 9.37337 9.46279 9.54296 9.10628C9.71256 8.74978 9.95435 8.47683 10.2683 8.28743C10.5846 8.09581 10.9513 8 11.3684 8C11.9459 8 12.4112 8.1504 12.7641 8.4512C13.1171 8.75201 13.321 9.17424 13.376 9.71791H12.3447C12.3195 9.40374 12.229 9.17647 12.0731 9.0361C11.9196 8.89349 11.6847 8.82219 11.3684 8.82219C11.0246 8.82219 10.7668 8.94251 10.5949 9.18316C10.4253 9.42157 10.3382 9.79256 10.3336 10.2961V10.6638C10.3336 11.1896 10.415 11.574 10.5777 11.8168C10.7427 12.0597 11.0017 12.1811 11.3547 12.1811C11.6732 12.1811 11.9104 12.111 12.0663 11.9706C12.2244 11.828 12.3149 11.6085 12.3378 11.3122H13.3692Z" fill="white"/><path d="M15.8377 9.74464L16.7762 8.06683H17.9622L16.5046 10.4799L18 12.9332H16.8002L15.8377 11.2286L14.8751 12.9332H13.6753L15.1707 10.4799L13.7131 8.06683H14.8992L15.8377 9.74464Z" fill="white"/></svg>