<svg xmlns="http://www.w3.org/2000/svg" width="36" height="36" viewBox="0 0 36 36" fill="none"><rect width="36" height="36" fill="none"/><path d="M5.94189 24.8797V16.1203H8.33746C9.07576 16.1203 9.72858 16.2888 10.2959 16.6257C10.8632 16.9626 11.3004 17.4418 11.6073 18.0635C11.9182 18.6852 12.0756 19.3991 12.0795 20.2052V20.7647C12.0795 21.5909 11.924 22.3148 11.6132 22.9365C11.3062 23.5582 10.8652 24.0354 10.2901 24.3683C9.71885 24.7012 9.05244 24.8717 8.29084 24.8797H5.94189ZM7.06099 17.0709V23.9352H8.23839C9.10103 23.9352 9.77131 23.6584 10.2493 23.1049C10.7311 22.5515 10.972 21.7634 10.972 20.7406V20.2293C10.972 19.2346 10.7447 18.4626 10.2901 17.9131C9.83931 17.3596 9.19816 17.0789 8.36661 17.0709H7.06099Z" fill="white"/><path d="M20.3039 20.7828C20.3039 21.641 20.164 22.391 19.8842 23.0328C19.6044 23.6705 19.2081 24.1578 18.6952 24.4947C18.1822 24.8316 17.5838 25 16.8999 25C16.2316 25 15.639 24.8316 15.1222 24.4947C14.6054 24.1537 14.2032 23.6705 13.9157 23.0448C13.632 22.4151 13.4863 21.6872 13.4785 20.861V20.2293C13.4785 19.387 13.6204 18.643 13.904 17.9973C14.1877 17.3516 14.5879 16.8583 15.1047 16.5174C15.6254 16.1725 16.2199 16 16.8883 16C17.5683 16 18.1667 16.1705 18.6835 16.5114C19.2042 16.8483 19.6044 17.3396 19.8842 17.9853C20.164 18.627 20.3039 19.375 20.3039 20.2293V20.7828ZM19.1906 20.2172C19.1906 19.1785 18.9885 18.3824 18.5844 17.8289C18.1803 17.2714 17.6149 16.9926 16.8883 16.9926C16.1811 16.9926 15.6235 17.2714 15.2155 17.8289C14.8113 18.3824 14.6035 19.1524 14.5918 20.139V20.7828C14.5918 21.7894 14.7958 22.5816 15.2038 23.1591C15.6157 23.7326 16.1811 24.0194 16.8999 24.0194C17.6227 24.0194 18.1822 23.7487 18.5786 23.2072C18.9749 22.6618 19.1789 21.8817 19.1906 20.867V20.2172Z" fill="white"/><path d="M28.2248 22.1003C28.1199 23.0267 27.7876 23.7426 27.2281 24.248C26.6724 24.7493 25.9322 25 25.0074 25C24.0048 25 23.2005 24.629 22.5943 23.887C21.992 23.1451 21.6909 22.1524 21.6909 20.9091V20.0668C21.6909 19.2527 21.8308 18.5368 22.1105 17.9191C22.3942 17.3015 22.7944 16.8282 23.3112 16.4993C23.828 16.1664 24.4264 16 25.1065 16C26.008 16 26.7307 16.2607 27.2747 16.7821C27.8187 17.2995 28.1354 18.0174 28.2248 18.9358H27.0999C27.0027 18.238 26.7909 17.7326 26.4645 17.4198C26.142 17.107 25.6893 16.9505 25.1065 16.9505C24.3915 16.9505 23.83 17.2233 23.422 17.7687C23.0179 18.3142 22.8158 19.0902 22.8158 20.0969V20.9452C22.8158 21.8957 23.0081 22.6517 23.3928 23.2132C23.7775 23.7747 24.3157 24.0555 25.0074 24.0555C25.6291 24.0555 26.1051 23.9111 26.4354 23.6223C26.7696 23.3295 26.991 22.8222 27.0999 22.1003H28.2248Z" fill="white"/><path d="M32.5264 19.4773L34.5606 16.1203H35.8779L33.1967 20.4639L35.942 24.8797H34.6131L32.5264 21.4626L30.4281 24.8797H29.105L31.8561 20.4639L29.1691 16.1203H30.4806L32.5264 19.4773Z" fill="white"/><path d="M23.5 34H6.5C5.30693 33.9987 4.16311 33.5241 3.31948 32.6805C2.47585 31.8369 2.00132 30.6931 2 29.5V10.294L10.234 2H23.5C25.981 2 28 4.019 28 6.5V12H27V6.5C27 4.57 25.43 3 23.5 3H10.65L3 10.706V29.5C3 31.43 4.57 33 6.5 33H23.5C25.43 33 27 31.43 27 29.5V28H28V29.5C28 31.981 25.981 34 23.5 34Z" fill="white"/></svg>